<svg xmlns="http://www.w3.org/2000/svg" viewBox="0 0 1158 165">
  <defs>
    <style>
      .a {
        fill: #fff;
      }

      .b {
        isolation: isolate;
      }

      .c {
        fill: #6695ff;
      }
    </style>
  </defs>
  <g>
    <g>
      <g>
        <path class="a" d="M292.95562,110.21011a26.79475,26.79475,0,0,1,0-53.54759,24.27419,24.27419,0,0,1,19.39673,9.22654l-7.67066,6.85283a16.17153,16.17153,0,0,0-11.79736-5.87142,16.62458,16.62458,0,0,0,0,33.1317,16.17165,16.17165,0,0,0,12.01135-6.18179l7.96836,6.55506A24.63489,24.63489,0,0,1,292.95562,110.21011Z"/>
        <path class="a" d="M372.52213,83.41117a26.02729,26.02729,0,1,1,26.05246,26.81155A26.455,26.455,0,0,1,372.52213,83.41117Zm41.32238,0a15.62987,15.62987,0,1,0,.04646,1.11842q-.00711-.56-.05478-1.11842Z"/>
        <path class="a" d="M487.71162,109.47617v-52.13h15.93673c16.06676,0,26.12375,7.51964,26.12375,25.394,0,17.05655-9.9857,26.736-24.0981,26.736Zm31.622-26.81155c0-11.54158-5.42692-15.49223-15.70187-15.49223H498.1335V99.717H505.368c9.19282.00422,13.96547-6.47533,13.96547-17.04811Z"/>
        <path class="a" d="M617.718,97.10421H602.51919l-3.54806,12.36358H587.97472L604.331,57.33772h11.50811l16.35627,52.13H621.19485Zm-12.80821-8.34163h10.42175l-1.51818-5.58627c-1.37561-5.13754-3.11189-11.24381-3.69064-14.59471a139.43943,139.43943,0,0,1-3.61923,14.59471Z"/>
        <path class="a" d="M715.4355,110.21011a26.79475,26.79475,0,0,1,0-53.54759,24.27419,24.27419,0,0,1,19.39673,9.22654l-7.67053,6.85283a16.172,16.172,0,0,0-11.79736-5.87142,16.62457,16.62457,0,0,0,0,33.1317,16.17143,16.17143,0,0,0,12.01135-6.18179l7.96849,6.55506A24.635,24.635,0,0,1,715.4355,110.21011Z"/>
        <path class="a" d="M808.611,109.47617V87.50856L794.26391,57.34617H805.772l6.29084,15.71447a45.34917,45.34917,0,0,1,1.67765,4.542,35.79626,35.79626,0,0,1,1.67766-4.54195l7.02062-15.71447h11.57927l-15.12324,30.238V109.4804Z"/>
      </g>
      <g>
        <path class="a" d="M26.13216,67.72185A56.61748,56.61748,0,0,1,52.46558,33.44518L40.35782,12.47574A80.87087,80.87087,0,0,0,2.73025,61.43517Z"/>
        <path class="a" d="M66.12925,27.79185A56.76458,56.76458,0,0,1,80.724,25.90039V1.69325A80.91438,80.91438,0,0,0,59.85941,4.40249Z"/>
        <path class="a" d="M95.44036,27.81278a56.61756,56.61756,0,0,1,34.23472,26.31246l20.96945-12.10773a80.9042,80.9042,0,0,0-48.94687-37.573Z"/>
        <path class="a" d="M0,82.36686A80.79217,80.79217,0,0,0,2.72185,103.223l23.40189-6.26152a56.15649,56.15649,0,0,1-1.904-14.59478Z"/>
        <path class="a" d="M10.80767,122.71627A80.85737,80.85737,0,0,0,23.61162,139.387l17.14462-17.10691a57.50006,57.50006,0,0,1-8.9833-11.67155Z"/>
        <path class="a" d="M40.362,152.24551A80.25806,80.25806,0,0,0,80.65688,163.0406V138.83346a56.22689,56.22689,0,0,1-28.19132-7.54895Z"/>
        <path class="a" d="M129.64571,110.67139a56.61772,56.61772,0,0,1-34.28505,26.25378l6.26987,23.39352a80.94219,80.94219,0,0,0,48.98885-37.53945Z"/>
        <path class="a" d="M158.73032,104.0451a80.82431,80.82431,0,0,0,.18456-41.84661l-23.48581,6.26984a56.46239,56.46239,0,0,1-.15518,29.29848Z"/>
      </g>
    </g>
    <g class="b">
      <g class="b">
        <path class="c" d="M966.20332,83.81024q0,9.72192-2.68671,15.639a17.11018,17.11018,0,0,1-8.0929,8.59666q-5.40618,2.6908-15.211,2.68671H923.79344V56.8858H940.057q9.5284,0,15.1537,2.76043a17.35718,17.35718,0,0,1,8.30587,8.62123Q966.20126,74.12211,966.20332,83.81024ZM954.879,83.73242q0-7.04033-1.38022-10.44786a8.767,8.767,0,0,0-4.68945-4.882q-3.30515-1.48056-9.80486-1.47851h-4.20208v33.77023h4.20208q6.49971,0,9.78438-1.499a8.8746,8.8746,0,0,0,4.68946-5.00072Q954.879,90.69288,954.879,83.73242Z"/>
        <path class="c" d="M1032.26116,83.81024q0,14.04072-5.93452,21.0493-5.92838,7.00347-17.25474,7.00347-11.94275,0-17.566-7.37616-5.62121-7.37208-5.62325-20.67661,0-13.38645,5.62325-20.71961,5.62121-7.32907,17.566-7.33521,12.02262,0,17.607,7.33521T1032.26116,83.81024Zm-11.32022,0q0-9.57141-2.70719-13.9496-2.70309-4.37409-9.16185-4.37409-6.45671,0-9.16184,4.37409-2.70309,4.38024-2.70309,13.9496,0,9.56834,2.74,13.94754,2.7461,4.37411,9.125,4.3741,6.4567,0,9.16185-4.3741Q1020.943,93.37756,1020.94094,83.81024Z"/>
        <path class="c" d="M1098.24118,101.82061a21.37593,21.37593,0,0,1-8.50245,7.60962,28.40286,28.40286,0,0,1-12.38917,2.43278q-25.022,0-25.02-28.05277,0-14.35711,6.34408-21.207,6.34-6.84374,18.28682-6.84783,7.89426,0,12.87655,2.66623a19.2113,19.2113,0,0,1,7.58914,6.983l-8.52293,6.61848a18.0577,18.0577,0,0,0-3.42392-4.04645,10.69665,10.69665,0,0,0-3.53859-1.86759,15.88289,15.88289,0,0,0-4.7468-.62253q-6.61642,0-10.07925,4.21846-3.46488,4.22665-3.46078,14.10523,0,9.21816,3.2478,13.77143,3.24986,4.55226,10.37,4.55021,4.78571,0,7.44989-1.82664a19.87387,19.87387,0,0,0,4.84508-4.86556Z"/>
        <path class="c" d="M1158,95.12841q0,8.097-5.312,12.41375-5.314,4.3188-15.66155,4.32085a30.08823,30.08823,0,0,1-12.43013-2.37544,19.39489,19.39489,0,0,1-8.58027-7.667l8.44512-6.45465a19.14739,19.14739,0,0,0,3.53859,3.96453,12.4056,12.4056,0,0,0,3.96863,2.06418,17.31264,17.31264,0,0,0,5.29151.73721,13.33884,13.33884,0,0,0,6.983-1.53585,5.11673,5.11673,0,0,0,2.5106-4.68945,4.94579,4.94579,0,0,0-.87646-2.99388,7.02948,7.02948,0,0,0-2.62528-2.08057,34.44634,34.44634,0,0,0-6.06967-2.00274q-4.20207-1.13039-7.91678-2.2751a24.11663,24.11663,0,0,1-6.42189-2.9775,13.45884,13.45884,0,0,1-4.25942-4.59116,14.0574,14.0574,0,0,1-1.55633-6.96251q0-7.66695,5.17684-11.96733,5.17274-4.29423,14.822-4.30037,13.97007,0,19.76534,9.5755l-8.3632,6.53656a13.98756,13.98756,0,0,0-4.98025-4.90652,13.7891,13.7891,0,0,0-6.57752-1.47441,12.3,12.3,0,0,0-6.20483,1.38021,4.648,4.648,0,0,0-2.39182,4.33724,4.34382,4.34382,0,0,0,2.49012,3.98911,36.07894,36.07894,0,0,0,8.67447,2.78091q3.42186.89692,6.77,1.92493a21.3324,21.3324,0,0,1,5.97138,2.86282,13.57566,13.57566,0,0,1,4.22256,4.7816A15.88086,15.88086,0,0,1,1158,95.12841Z"/>
      </g>
    </g>
  </g>
</svg>
