<svg xmlns="http://www.w3.org/2000/svg" width="39.876" height="41.574" viewBox="0 0 39.876 41.574"><defs><style>.a{fill:#c2d0ff;}.b{fill:none;stroke:#4d7eff;stroke-linecap:round;stroke-miterlimit:10;stroke-width:2px;}.c{fill:#4d7eff;}</style></defs><g transform="translate(0.001 0.005)"><circle class="a" cx="10.844" cy="10.844" r="10.844" transform="translate(9.517 12.169)"/><line class="b" y2="5.396" transform="translate(20.361 20.315)"/><line class="b" x1="5.396" transform="translate(17.663 23.013)"/><path class="c" d="M9.135,8.712v0a1.009,1.009,0,0,1,.482-.866,4.226,4.226,0,1,0-4.324.012.987.987,0,0,1,.462.856h0a1.26,1.26,0,0,1-.78,1.1A7.47,7.47,0,0,0,0,16.186a.646.646,0,0,0,.578.71c.02,0,.041,0,.061,0H14.248a.646.646,0,0,0,.642-.652.608.608,0,0,0,0-.061,7.469,7.469,0,0,0-4.973-6.37A1.26,1.26,0,0,1,9.135,8.712Z"/><path class="c" d="M34.119,33.123v0a1.008,1.008,0,0,1,.483-.867,4.225,4.225,0,1,0-4.325.012.988.988,0,0,1,.462.856h0a1.259,1.259,0,0,1-.779,1.1,7.471,7.471,0,0,0-4.973,6.37.648.648,0,0,0,.579.71l.06,0H39.232a.648.648,0,0,0,.643-.652c0-.021,0-.041,0-.061a7.47,7.47,0,0,0-4.972-6.37A1.26,1.26,0,0,1,34.119,33.123Z"/><path class="a" d="M3.79,23.013c0-.349.031-.69.053-1.034H1.849c-.019.344-.052.685-.052,1.034A18.579,18.579,0,0,0,20.214,41.569V39.576A16.586,16.586,0,0,1,3.79,23.013Z"/><path class="a" d="M36.931,23.013c0,.2-.023.4-.03.6h1.993c.007-.2.031-.4.031-.6A18.5,18.5,0,0,0,16.1,4.962V7.019A16.51,16.51,0,0,1,36.931,23.013Z"/></g></svg>