<svg xmlns="http://www.w3.org/2000/svg" viewBox="0 0 640 512"><!--! Font Awesome Free 7.1.0 by @fontawesome - https://fontawesome.com License - https://fontawesome.com/license/free (Icons: CC BY 4.0, Fonts: SIL OFL 1.1, Code: MIT License) Copyright 2025 Fonticons, Inc.--><path d="M615.3 168.5c2.3 0 4.6.7 6.6 2.2 1.9 1.4 3.1 3.3 3.8 5 1.4 3.3 1.8 7.3 1.8 11.3 0 2.2-.3 4.9-.7 7.6v.4l-50.9 264.9c-4 22.1-8.5 39.4-13.6 51.7-5 12.1-10.9 21.6-18.6 27-7.5 5.3-16.9 7.7-27.6 8h-3c-16 0-29.3-4.2-36.9-14.8l-.2-.2c-.1-.2-.3-.4-.5-.6-1.8-2.4-2.5-5.2-2.9-7.4-.5-2.8-.7-6.1-.7-9.8 0-7.3.6-13.5 2.1-18.2 1.4-4.4 4.8-10.4 12.2-10.4l1.3.1c.2 0 .4.1.5.1.3.1.6.1.8.2.6.1 1.3.3 2.2.6l7.6 2.2h.1l7.6 2.1c.9.2 1.7.4 2.2.5.4.1.6.1.7.1 0 0 .1 0 .2-.1s.4-.2.8-.6c.9-.9 2.2-2.6 3.6-5.7 2.6-5.8 4.2-14.7 4.2-27.4 0-.7-.3-3.4-1.3-8.9-.9-5.1-2.3-12.2-4.2-21.1l-56-232.9-.1-.4v-.3c-.4-2.7-.7-5.3-.7-7.3 0-3.7.4-7.5 1.7-10.6.7-1.6 1.8-3.4 3.5-4.9 1.9-1.5 4.2-2.3 6.5-2.3H502c4.6 0 8.7 1.7 11.9 5l1.3 1.5c1.2 1.6 2 3.4 2.7 5.2.9 2.4 1.5 5.1 2 8.1l30.4 161.2 23.8-160c.8-5.8 2.2-11.4 5.1-15.1 3-3.8 7.2-5.8 12-5.8h24zM375.1 34.6c2.6 0 5.1.7 7.4 2.3 2.2 1.5 3.7 3.6 4.7 5.7 1.9 4 2.5 9.1 2.5 14.5v111.5h32.4c2.5 0 5 .6 7.2 2.1 2.2 1.4 3.7 3.4 4.8 5.5 2 3.9 2.6 8.8 2.6 13.9v15.4c0 5-.6 9.8-2.6 13.7-1.1 2-2.6 4-4.8 5.4s-4.7 2-7.1 2h-32.5v145.8c0 10.8.7 19.5 2 26.2 1.4 6.9 3.1 10.9 4.7 12.9 1.2 1.5 2.2 2.5 3.1 3.2l2.2 1.4.1.1 2.9.8c1.2.2 2.6.3 4.3.3h20.3c4.5 0 8.9 1.7 11.8 5.8 2.6 3.6 3.3 8.1 3.3 12.2v17.2c0 4.5-.8 9.3-3.4 13.1-3 4.2-7.5 6-12.3 6l-29.1.1c-8 0-15-.6-21.2-1.7-6.7-1.3-13.4-4.1-20.1-8.1-7.2-4.4-13-10.3-17.5-17.8s-7.9-17.5-10.5-29.5c-2.6-12.2-3.9-26.6-3.9-43V226.7H313c-2.4 0-4.9-.6-7.1-2s-3.7-3.4-4.8-5.4c-2-3.9-2.6-8.7-2.6-13.7v-15.4c0-5.1.6-10 2.6-13.9 1.1-2.1 2.6-4 4.8-5.5s4.7-2.1 7.2-2.1h13.4v-.6l5.2-111.2v-.1l.3-3.9c.5-3.8 1.3-7.4 2.7-10.3 2.1-4.2 6-7.9 11.8-7.9h28.6zm-268 11.7c1.8.3 3.6.9 5.3 2.1 2.1 1.5 3.5 3.5 4.4 5.4 1.7 3.7 2.3 8.4 2.3 13.2v377.8c0 6.7-.6 12.6-2.4 17.1-.9 2.3-2.3 4.7-4.4 6.5-2.3 2-5.1 3-8.1 3H60.5c-3 0-5.8-1.1-8.1-3.1-2.1-1.9-3.4-4.3-4.2-6.5-1.7-4.5-2.3-10.3-2.3-17V129c-4.8 1.2-8.7 2.2-11.5 2.9-1.9.5-3.4.8-4.4 1.1q-.75.15-1.2.3c-.1 0-.3.1-.5.1-.1 0-.2 0-.3.1h-1.3c-2.2.1-4.5-.4-6.6-1.7-2.3-1.4-3.8-3.4-4.7-5.3-1.8-3.7-2.3-8.4-2.3-13V86.1c0-4.4.7-8.8 2.6-12.4 2.1-3.9 5.5-6.6 9.8-7.6L101 46.6c1.4-.4 2.9-.5 4.4-.5l1.8.1zm143.8-.5c1.8.3 3.6.9 5.2 2.1 2.1 1.5 3.5 3.5 4.4 5.4 1.7 3.7 2.2 8.4 2.2 13.2v377.8c0 6.7-.6 12.6-2.4 17.1-.9 2.3-2.3 4.7-4.4 6.5-2.3 2-5.1 3-8.1 3h-43.7c-3 0-5.8-1.1-8.1-3.1-2.1-1.9-3.4-4.3-4.2-6.5-1.7-4.5-2.3-10.3-2.3-17V128.5c-4.8 1.2-8.7 2.2-11.5 2.9-1.9.5-3.4.8-4.4 1.1q-.75.15-1.2.3c-.1 0-.3.1-.5.1-.1 0-.2 0-.3.1h-1.3c-2.2.1-4.5-.4-6.6-1.7-2.3-1.4-3.8-3.4-4.7-5.3-1.8-3.7-2.3-8.3-2.3-13V85.6c0-4.4.7-8.7 2.6-12.4 2.1-3.9 5.5-6.6 9.8-7.6l75.4-19.4c1.4-.4 2.9-.5 4.4-.5l1.8.1z"/></svg>