<svg xmlns="http://www.w3.org/2000/svg" viewBox="0 0 576 512"><!--! Font Awesome Free 7.1.0 by @fontawesome - https://fontawesome.com License - https://fontawesome.com/license/free (Icons: CC BY 4.0, Fonts: SIL OFL 1.1, Code: MIT License) Copyright 2025 Fonticons, Inc.--><path d="M420.5 253.9a24 24 0 1 1 0 48 24 24 0 1 1 0-48m-265.1 0a24 24 0 1 1 0 48 24 24 0 1 1 0-48m273.7-96.5 47.9-83c.8-1.1 1.3-2.4 1.5-3.8s.2-2.7-.1-4.1-.9-2.6-1.7-3.7-1.8-2-3-2.7-2.5-1.1-3.9-1.3-2.7 0-4 .4-2.5 1.1-3.6 1.9-1.9 2-2.5 3.2l-48.5 84.1C372.4 131 330.4 122 287.9 122s-84.5 9-123.3 26.4l-48.4-84c-.6-1.2-1.5-2.3-2.5-3.2s-2.3-1.5-3.6-1.9-2.7-.5-4-.4-2.7.6-3.9 1.3-2.2 1.6-3 2.7-1.4 2.4-1.7 3.7-.3 2.7-.1 4.1.8 2.6 1.5 3.8l47.9 83C64.5 202.2 8.2 285.5 0 384h576c-8.2-98.5-64.5-181.8-146.9-226.6"/></svg>