<svg xmlns="http://www.w3.org/2000/svg" viewBox="0 0 576 512"><!--! Font Awesome Free 7.1.0 by @fontawesome - https://fontawesome.com License - https://fontawesome.com/license/free (Icons: CC BY 4.0, Fonts: SIL OFL 1.1, Code: MIT License) Copyright 2025 Fonticons, Inc.--><path d="M288.2 32C133.5 32 8 132.3 8 256s125.5 224 280.2 224 280.2-100.3 280.2-224S442.9 32 288.2 32m-85.4 357.2-138.5 1.4 77.2-290.7h133.4c63.2 0 84.9 28.6 78 72.8q-.6 3.45-1.5 6.9c-5.6-1.3-11.4-1.9-17.2-1.9-42.3 0-76.7 33.9-76.7 75.7 0 37.1 27.1 68 62.9 74.5-18.2 37.2-56.2 60.9-117.7 61.5zm155.4-182.1h32L368 297.4h-35.4l-11.2-35.6-7.8 35.6h-37.8l26.6-90.3h31.3l15 36.8 9.4-36.8zm145.9 182.1H307l15.8-61.2c3.8.6 7.6.8 11.5.8 42.3 0 76.7-33.9 76.7-75.6 0-32.6-21-60.5-50.4-71.1l21.3-82.4h92.5l-53 205.4h103.9zM211.9 269.4h-24.7l-13.8 56.5h24.7c16.1 0 32.1-3.2 37.9-26.6 5.6-22.3-8-29.8-24.1-29.8zm21.3-99.4h-21.3l-11.7 47.7h21.4c18 0 35.4-14.6 39.2-30.1 4.6-18.9-9.5-17.6-27.6-17.6"/></svg>