<svg xmlns="http://www.w3.org/2000/svg" viewBox="0 0 512 512"><!--! Font Awesome Free 7.1.0 by @fontawesome - https://fontawesome.com License - https://fontawesome.com/license/free (Icons: CC BY 4.0, Fonts: SIL OFL 1.1, Code: MIT License) Copyright 2025 Fonticons, Inc.--><path d="M448 64H64.2c-23.6 0-42.7 19.1-42.7 42.7v63.9h42.7v-63.9H448v298.6H298.8V448h149.4c23.6 0 42.7-19.1 42.7-42.7V106.7c0-23.6-19.3-42.7-42.9-42.7M21.5 383.6v63.9h63.9c0-35.3-28.6-63.9-63.9-63.9m0-85V341c58.9 0 106.6 48.1 106.6 107h42.7c.1-82.4-66.9-149.3-149.3-149.4M213.6 448h42.7C255.8 318.5 151 213.7 21.5 213.4v42.4c106-.2 192 86.2 192.1 192.2"/></svg>