<svg xmlns="http://www.w3.org/2000/svg" viewBox="0 0 640 512"><!--! Font Awesome Free 7.1.0 by @fontawesome - https://fontawesome.com License - https://fontawesome.com/license/free (Icons: CC BY 4.0, Fonts: SIL OFL 1.1, Code: MIT License) Copyright 2025 Fonticons, Inc.--><path d="M160.6 304c8.2 68.5 67.4 115.5 146 111.3 51.2 43.3 136.8 45.8 186.4-5.6 69.2 1.1 118.5-44.6 131.5-99.5 14.8-62.5-18.2-132.5-92.1-155.1-33-88.1-131.4-101.5-186.5-85-57.3 17.3-84.3 53.2-99.3 109.7-7.8 2.7-26.5 8.9-45 24.1 11.7 0 15.2 8.9 15.2 19.5v20.4c0 10.7-8.7 19.5-19.5 19.5h-20.2c-10.7 0-19.5-6-19.5-16.7V240h-46.8c-3.8 0-10.8 4.3-10.8 11.9v40.4c0 6.4 5.3 11.8 11.7 11.8h48.9zm227.4 8c-10.7 46.3 21.7 72.4 55.3 86.8C336.1 432.6 271.7 348 308 288c-33.2 21.6-33.7 71.2-29.2 92.9-17.9-12.4-53.8-32.4-57.4-79.8-3-39.9 21.5-75.7 57-93.9C309 191.4 381.9 198.7 412 248c-14.1-48-53.8-70.1-101.8-74.8 30.9-30.7 64.4-50.3 114.2-43.7 69.8 9.3 133.2 82.8 67.7 150.5 35-16.3 48.7-54.4 47.5-76.9l10.5 19.6c11.8 22 15.2 47.6 9.4 72-9.2 39-40.6 68.8-79.7 76.5-32.1 6.3-83.1-5.1-91.8-59.2M140 208h-39.8c-8.9 0-16.2-7.3-16.2-16.2v-39.6c0-8.9 7.3-16.2 16.2-16.2H140c8.9 0 16.2 7.3 16.2 16.2v39.6c0 8.9-7.3 16.2-16.2 16.2M22.1 168c-5.6 0-10.1-4.5-10.1-10.1v-27.8c0-5.6 4.5-10.1 10.1-10.1h27.7c5.5 0 10.1 4.5 10.1 10.1v27.8c0 5.6-4.5 10.1-10.1 10.1zM180 142.7v-21.4c0-5.1 4.2-9.3 9.3-9.3h21.4c5.1 0 9.3 4.2 9.3 9.3v21.4c0 5.1-4.2 9.3-9.3 9.3h-21.4c-5.1 0-9.3-4.2-9.3-9.3M68 235.5v25c0 6.3-5.1 11.5-11.4 11.5H31.4c-6.3 0-11.4-5.2-11.4-11.5v-25c0-6.3 5.1-11.5 11.4-11.5h25.1c6.4 0 11.5 5.2 11.5 11.5"/></svg>