<svg xmlns="http://www.w3.org/2000/svg" viewBox="0 0 640 512"><!--! Font Awesome Free 6.7.2 by @fontawesome - https://fontawesome.com License - https://fontawesome.com/license/free (Icons: CC BY 4.0, Fonts: SIL OFL 1.1, Code: MIT License) Copyright 2024 Fonticons, Inc.--><path d="M226.119 388.165a3.82 3.82 0 0 0-2.294-3.5 3.95 3.95 0 0 0-1.629-.385L72.6 384.3a19.243 19.243 0 0 1-17.924-26.025l26.909-102.583a35.72 35.72 0 0 1 32.373-26h148.567a7.07 7.07 0 0 0 6.392-5.194l10.769-41.131a3.85 3.85 0 0 0-2.237-4.937 3.8 3.8 0 0 0-1.377-.261q-.094-.001-.189.005H127.38a106.8 106.8 0 0 0-96.99 77.1L3.483 358.824A57.47 57.47 0 0 0 57.314 436q1.43 0 2.86-.072h148.568a7.13 7.13 0 0 0 6.391-5.193l10.706-41.135a3.8 3.8 0 0 0 .28-1.435M306.658 81.2a3.9 3.9 0 0 0 .251-1.367 3.813 3.813 0 0 0-3.83-3.833h-41.192a7.03 7.03 0 0 0-6.387 5.2l-21.347 80.915h51.131ZM180.364 368.249H231.5l31.952-122.559h-51.131ZM511.853 79.723a3.81 3.81 0 0 0-3.8-3.661q-.089-.002-.23.007h-41a7.1 7.1 0 0 0-6.584 5.129L368.91 430.634a3.5 3.5 0 0 0-.262 1.335 3.873 3.873 0 0 0 3.864 3.863h41.169a7.07 7.07 0 0 0 6.392-5.193L511.533 81.2a3.6 3.6 0 0 0 .32-1.477M324.649 384.47h-41a7.2 7.2 0 0 0-6.392 5.194L266.52 430.8a3.7 3.7 0 0 0-.268 1.374 3.783 3.783 0 0 0 3.771 3.826c.06 0 .166 0 .3-.012h40.905a7.04 7.04 0 0 0 6.391-5.193l10.769-41.131a3.75 3.75 0 0 0-3.445-5.208c-.108 0-.217 0-.326.014Zm311.324-308.4h-41a7.07 7.07 0 0 0-6.392 5.129l-91.46 349.436a4.1 4.1 0 0 0-.229 1.347 3.87 3.87 0 0 0 3.863 3.851h41.137a7.1 7.1 0 0 0 6.392-5.193L639.68 81.2a3.6 3.6 0 0 0 .32-1.475 3.84 3.84 0 0 0-3.821-3.564q-.102-.001-.206.006ZM371.562 225.236l10.8-41.1a4.4 4.4 0 0 0 .227-1.388 3.87 3.87 0 0 0-3.861-3.842h-41.269a7.29 7.29 0 0 0-6.391 5.226l-10.834 41.1a4.4 4.4 0 0 0-.26 1.493v.206a3.776 3.776 0 0 0 3.757 3.507c.076 0 .18 0 .3-.012h41.129a7.03 7.03 0 0 0 6.402-5.19"/></svg>