<svg xmlns="http://www.w3.org/2000/svg" viewBox="0 0 640 512"><!--! Font Awesome Free 7.1.0 by @fontawesome - https://fontawesome.com License - https://fontawesome.com/license/free (Icons: CC BY 4.0, Fonts: SIL OFL 1.1, Code: MIT License) Copyright 2025 Fonticons, Inc.--><path d="M226.1 388.2c0-.7-.2-1.5-.6-2.1s-1-1.1-1.7-1.4c-.5-.2-1.1-.4-1.6-.4H72.6c-3.1 0-6.2-.8-8.9-2.2s-5.1-3.5-6.9-6.1-2.9-5.5-3.3-8.6 0-6.2 1.1-9.1l27-102.6c2-7.2 6.2-13.5 12-18.2s12.9-7.4 20.4-7.8h148.6c1.5-.1 2.9-.6 4-1.6s2-2.2 2.4-3.6l10.8-41.1c.4-1 .3-2-.1-2.9s-1.2-1.6-2.1-2c-.4-.2-.9-.3-1.4-.3H127.5c-22.2 1.2-43.4 9.2-60.8 23s-30 32.7-36.2 54.1l-27 103.5c-3.2 8.7-4.2 18-3 27.1s4.6 17.9 9.9 25.5 12.3 13.8 20.5 18 17.3 6.5 26.5 6.6c1 0 1.9 0 2.9-.1h148.6c1.5-.1 2.9-.7 4-1.6s2-2.2 2.4-3.6l10.7-41.1c.2-.5.3-.9.3-1.4zm80.5-307c.2-.4.3-.9.3-1.4q0-.75-.3-1.5c-.3-.75-.5-.9-.8-1.2s-.8-.6-1.2-.8-1-.3-1.5-.3h-41.2c-1.5.1-2.9.6-4 1.6s-2 2.2-2.4 3.6l-21.3 80.9h51.1l21.4-80.9zm-126.3 287h51.1l32-122.6h-51.1zM511.9 79.7c0-1-.5-1.9-1.2-2.6S509 76 508.1 76h-41.2c-1.5.1-2.9.6-4.1 1.5s-2 2.2-2.5 3.6l-91.4 349.5c-.2.4-.3.9-.3 1.3 0 1 .4 2 1.1 2.7s1.7 1.1 2.7 1.1h41.2c1.5-.1 2.9-.6 4-1.6s2-2.2 2.4-3.6l91.5-349.3q.3-.75.3-1.5zM324.6 384.5h-41c-1.5.1-2.9.7-4 1.6s-2 2.2-2.4 3.6l-10.7 41.1c-.2.4-.3.9-.3 1.4q0 .75.3 1.5c.3.75.5.9.8 1.2s.8.6 1.2.8 1 .3 1.5.3h41.2c1.5-.1 2.9-.6 4-1.6s2-2.2 2.4-3.6l10.8-41.1q.3-.9.3-1.8c0-.9-.3-1.2-.6-1.7s-.8-.9-1.3-1.2-1.2-.4-1.8-.4h-.3zM636 76.1h-41c-1.5.1-2.9.6-4 1.5s-2 2.2-2.4 3.6l-91.5 349.4c-.2.4-.2.9-.2 1.3 0 1 .4 2 1.1 2.7s1.7 1.1 2.7 1.1h41.1c1.5-.1 2.9-.6 4-1.6s2-2.2 2.4-3.6l91.5-349.3q.3-.75.3-1.5c-.1-1-.5-1.9-1.2-2.5s-1.6-1-2.6-1h-.2zM371.6 225.2l10.8-41.1c.2-.4.2-.9.2-1.4 0-1-.4-2-1.1-2.7s-1.7-1.1-2.7-1.1h-41.3c-1.5.1-2.9.7-4 1.6s-2 2.2-2.4 3.6l-10.8 41.1q-.3.75-.3 1.5v.2c.1 1 .5 1.8 1.2 2.5s1.6 1 2.6 1h41.4c1.5-.1 2.9-.6 4-1.6s2-2.2 2.4-3.6"/></svg>