<svg xmlns="http://www.w3.org/2000/svg" viewBox="0 0 512 512"><!--! Font Awesome Free 7.1.0 by @fontawesome - https://fontawesome.com License - https://fontawesome.com/license/free (Icons: CC BY 4.0, Fonts: SIL OFL 1.1, Code: MIT License) Copyright 2025 Fonticons, Inc.--><path d="M442.5 202.9c30.7 0 33.5 53.1-.3 53.1h-10.8v44.3h-26.6v-97.4zM492 352.6C449.9 444.5 370.4 504 268 504 131 504 20 393 20 256S131 8 268 8c97.4 0 172.8 53.7 218.2 138.4l-186 108.8zm-38.5 12.5-60.3-30.7c-27.1 44.3-70.4 71.4-122.4 71.4-82.5 0-149.2-66.7-149.2-148.9 0-82.5 66.7-149.2 149.2-149.2 48.4 0 88.9 23.5 116.9 63.4l59.5-34.6c-40.7-62.6-104.7-100-179.2-100-121.2 0-219.5 98.3-219.5 219.5S146.8 475.5 268 475.5c78.6 0 146.5-42.1 185.5-110.4"/></svg>