<svg xmlns="http://www.w3.org/2000/svg" viewBox="0 0 512 512"><!--! Font Awesome Free 7.1.0 by @fontawesome - https://fontawesome.com License - https://fontawesome.com/license/free (Icons: CC BY 4.0, Fonts: SIL OFL 1.1, Code: MIT License) Copyright 2025 Fonticons, Inc.--><path d="M474.3 330.4c-23.7 91.9-94.2 144.6-201.9 148.4v-49.2c0-48 26.4-74.4 74.4-74.4 62 0 99.2-37.2 99.2-99.2 0-61.4-36.5-98.3-97.4-99.1-33-69.3-146.5-64.7-177.2 0-60.9.8-97.4 37.7-97.4 99.1 0 62.1 37.3 99.4 99.4 99.4 48 0 74.6 26.2 74.6 74.4V479c-134.4-5-211.1-85.1-211.1-223 0-141.8 81.4-223.2 223.2-223.2 114.8 0 189.8 53.2 214.7 148.8h25.3C473.9 71.5 388.2 8 259.8 8 105 8 12 101.2 12 255.8c0 155.3 93.2 248.5 247.8 248.2 128.3 0 213.9-63.8 239.7-173.6zM357 182.3c41.4 3.4 64.2 29 64.2 73.7 0 48-26.4 74.4-74.4 74.4-28.6 0-49.3-9.6-61.6-27.3 83.1-16.5 75.6-99.7 71.8-120.7zm-81.7 97.4c-2.5-10.3-16.3-87 56.2-97 2.3 10.1 16.5 87.1-56.3 97zM260 132c28.6 0 49 9.7 61.4 27.6-28.4 5.5-49.4 20.6-61.6 43.4-12.2-22.9-33.2-38-61.6-43.4 12.4-17.7 33.3-27.4 61.6-27.4l.2-.3zm-71.5 50.7c73.2 10.6 58.9 86.8 56.5 97-72.4-9.8-59-87-56.2-97h-.2zm-15.3 147.7c-48 0-74.4-26.4-74.4-74.4 0-44.4 22.9-70 64.2-73.7-6.8 37.2-1.4 106.5 71.6 120.7-12.1 17.6-32.8 27.3-61.1 27.3h-.3zm53.2 12.4c14.3-7.6 26-19.3 33.6-33.5 7.8 14.5 19.3 25.5 33.8 33.5-14.4 7.6-26.1 19.4-33.6 33.8-8-14.5-19.1-26.2-33.6-33.8h-.3z"/></svg>