<svg xmlns="http://www.w3.org/2000/svg" viewBox="0 0 512 512"><!--! Font Awesome Free 7.1.0 by @fontawesome - https://fontawesome.com License - https://fontawesome.com/license/free (Icons: CC BY 4.0, Fonts: SIL OFL 1.1, Code: MIT License) Copyright 2025 Fonticons, Inc.--><path d="M255.6 8C397.4 8 504 118.1 504 256c0 147.1-118.5 248-248.4 248C121.6 504 8 394.5 8 256 8 123.1 112.7 8 255.6 8m.8 44.7C138.2 52.7 52.7 150.6 52.7 256c0 109.8 91.2 202.8 203.7 202.8 103.2 0 202.8-81.1 202.8-202.8.1-113.8-90.2-203.3-202.8-203.3m94 144.3v42.5H170.1V197zm0 79.8v42.5H170.1v-42.5z"/></svg>