<svg xmlns="http://www.w3.org/2000/svg" viewBox="0 0 512 512"><!--! Font Awesome Free 7.1.0 by @fontawesome - https://fontawesome.com License - https://fontawesome.com/license/free (Icons: CC BY 4.0, Fonts: SIL OFL 1.1, Code: MIT License) Copyright 2025 Fonticons, Inc.--><path d="M255.7 8C111.6 8 8 124.8 8 256c0 136.4 111.8 248 247.7 248C385.9 504 504 403.2 504 256 504 117.2 396.5 8 255.7 8m.6 450.7c-112 0-203.6-92.5-203.6-202.7q0-31.65 9-60.3l127 56.5h-27.9v38.6h58.1l5.7 11.8v18.7h-63.8V360h63.8v56h61.7v-56h64.2v-35.7l81 36.1c-1.5 2.2-57.1 98.3-175.2 98.3m87.6-137.3h-57.6v-18.7l2.9-5.6zm6.5-51.4v-17.8h-38.6l63-116H309l-43.4 96-23-10.2-39.6-85.7h-65.8l27.3 51-81.9-36.5c27.8-44.1 82.6-98.1 173.7-98.1 112.8 0 203 90 203 203.4 0 21-2.7 40.6-7.9 59z"/></svg>