<svg xmlns="http://www.w3.org/2000/svg" viewBox="0 0 448 512"><!--! Font Awesome Free 6.7.1 by @fontawesome - https://fontawesome.com License - https://fontawesome.com/license/free (Icons: CC BY 4.0, Fonts: SIL OFL 1.1, Code: MIT License) Copyright 2024 Fonticons, Inc.--><path d="M376.3 32H0v376.3c0 19 7.6 37.2 21 50.7s31.7 21 50.7 21h304.6c19 0 37.2-7.6 50.7-21s21-31.7 21-50.7V103.7c0-19-7.6-37.2-21-50.7s-31.7-21-50.7-21m-43.9 399.4q-11.55-12.75-12-36.6h31.3c.2 14.1 5.1 21.1 14.8 21.1 4.9 0 8.4-1.6 10.5-4.7 2-3.1 3-8 3-14.8 0-5.4-1.3-9.9-4-13.4-3.5-4.2-8.1-7.5-13.2-9.5l-11.6-5.5c-10.3-4.9-17.8-10.8-22.5-17.6-4.5-6.8-6.7-16.3-6.7-28.4 0-13.6 4-24.6 11.8-33.1 8.1-8.5 19.1-12.7 33.2-12.7 13.6 0 24.1 4.2 31.5 12.5 7.5 8.4 11.5 20.3 11.8 35.9h-30.1c.2-5.1-.9-10.2-3-14.8-1.7-3.4-5-5.1-10-5.1-8.8 0-13.2 5.2-13.2 15.7 0 5.3 1.1 9.4 3.2 12.6 3.1 3.5 7 6.2 11.4 7.8l11.1 4.9c11.5 5.3 19.7 11.7 24.8 19.4s7.6 18 7.6 31c0 15.5-4 27.4-12.3 35.7-8.2 8.3-19.5 12.5-34.1 12.5s-25.6-4.2-33.4-12.7zm-101 0q-11.55-12.75-12-36.6h31.3c.2 14.1 5.1 21.1 14.8 21.1 4.9 0 8.4-1.6 10.4-4.7s3-8 3-14.8c0-5.4-1.3-9.9-3.9-13.4-3.5-4.2-8.1-7.5-13.2-9.5l-11.6-5.5c-10.3-4.9-17.8-10.8-22.5-17.6-4.5-6.8-6.7-16.3-6.7-28.4 0-13.6 4-24.6 11.8-33.1 8.1-8.5 19.1-12.7 33.2-12.7 13.6 0 24.1 4.2 31.4 12.5 7.6 8.4 11.5 20.3 11.9 35.9h-30.1c.2-5.1-.9-10.2-3-14.8-1.7-3.4-5-5.1-10-5.1-8.8 0-13.2 5.2-13.2 15.7 0 5.3 1.1 9.4 3.2 12.6 3.1 3.5 7 6.2 11.4 7.8l11.1 4.9c11.5 5.3 19.7 11.7 24.8 19.4s7.6 18 7.6 31q0 23.25-12.3 35.7c-12.3 12.45-19.5 12.5-34.1 12.5s-25.6-4.2-33.4-12.7zm-105.6 1.1c-8.4-7.7-12.5-19.2-12.5-34.5v-75.4c0-15.2 4.4-26.7 13.2-34.6 8.9-7.8 20.7-11.8 35.2-11.8 14.1 0 25.2 4 33.4 12 8.3 8 12.5 20 12.5 35.9v6h-33.1v-5.8c0-6.1-1.3-10.7-4-13.6-1.1-1.5-2.6-2.7-4.3-3.5s-3.5-1.2-5.4-1.1c-5.4 0-9.2 1.8-11.4 5.6-2.3 5.2-3.3 10.8-3 16.4v65.5c0 13.7 4.8 20.6 14.4 20.8q6.75 0 10.2-4.8c2.5-4.1 3.7-8.8 3.5-13.6v-4.9h33.1v5.1c0 10.6-2.1 19.5-6.2 26.6-4 6.9-9.9 12.5-17.1 16-7.7 3.7-16.1 5.5-24.6 5.3-14.2 0-25.5-3.9-33.8-11.6z"/></svg>