<svg xmlns="http://www.w3.org/2000/svg" viewBox="0 0 512 512"><!--! Font Awesome Free 6.6.0 by @fontawesome - https://fontawesome.com License - https://fontawesome.com/license/free (Icons: CC BY 4.0, Fonts: SIL OFL 1.1, Code: MIT License) Copyright 2024 Fonticons, Inc.--><path d="M378.6 78.9c-2.8-.1-5.6-.2-8.5-.2H106l143.2-72C256.6 2.3 268 0 279.6 0c13.5 0 29.4 9.2 37 16.8l62 62zM107.3 96.5h262.8c16 0 25.4 1.4 35.4 9.3L512 212.2V421l-79.3.7zM96.5 373V110.8l323.8 323.8.7 77.4H208.8l-98.1-98.2c-11.3-11.3-14.2-15.3-14.2-40.8M78.7 105.3V373c0 3.3.1 6.3.2 9.1l-62-62C6.5 309.3 0 294.3 0 279.6c0-6.8 3.9-17.5 6.7-23.6z"/></svg>