<svg xmlns="http://www.w3.org/2000/svg" viewBox="0 0 640 512"><!--! Font Awesome Free 6.7.1 by @fontawesome - https://fontawesome.com License - https://fontawesome.com/license/free (Icons: CC BY 4.0, Fonts: SIL OFL 1.1, Code: MIT License) Copyright 2024 Fonticons, Inc.--><path d="M524.531 69.836a1.5 1.5 0 0 0-.764-.7A485 485 0 0 0 404.081 32.03a1.82 1.82 0 0 0-1.923.91 338 338 0 0 0-14.9 30.6 447.9 447.9 0 0 0-134.426 0 310 310 0 0 0-15.135-30.6 1.89 1.89 0 0 0-1.924-.91 483.7 483.7 0 0 0-119.688 37.107 1.7 1.7 0 0 0-.788.676C39.068 183.651 18.186 294.69 28.43 404.354a2.02 2.02 0 0 0 .765 1.375 487.7 487.7 0 0 0 146.825 74.189 1.9 1.9 0 0 0 2.063-.676A348 348 0 0 0 208.12 430.4a1.86 1.86 0 0 0-1.019-2.588 321 321 0 0 1-45.868-21.853 1.885 1.885 0 0 1-.185-3.126 251 251 0 0 0 9.109-7.137 1.82 1.82 0 0 1 1.9-.256c96.229 43.917 200.41 43.917 295.5 0a1.81 1.81 0 0 1 1.924.233 235 235 0 0 0 9.132 7.16 1.884 1.884 0 0 1-.162 3.126 301.4 301.4 0 0 1-45.89 21.83 1.875 1.875 0 0 0-1 2.611 391 391 0 0 0 30.014 48.815 1.86 1.86 0 0 0 2.063.7A486 486 0 0 0 610.7 405.729a1.88 1.88 0 0 0 .765-1.352c12.264-126.783-20.532-236.912-86.934-334.541M222.491 337.58c-28.972 0-52.844-26.587-52.844-59.239s23.409-59.241 52.844-59.241c29.665 0 53.306 26.82 52.843 59.239 0 32.654-23.41 59.241-52.843 59.241m195.38 0c-28.971 0-52.843-26.587-52.843-59.239s23.409-59.241 52.843-59.241c29.667 0 53.307 26.82 52.844 59.239 0 32.654-23.177 59.241-52.844 59.241"/></svg>