<svg xmlns="http://www.w3.org/2000/svg" viewBox="0 0 576 512"><!--! Font Awesome Free 7.1.0 by @fontawesome - https://fontawesome.com License - https://fontawesome.com/license/free (Icons: CC BY 4.0, Fonts: SIL OFL 1.1, Code: MIT License) Copyright 2025 Fonticons, Inc.--><path d="M290.2 512c-62.6 0-119.9-22.9-164.2-60.8L17 466.1l42.1-103.9C44.4 329.8 36.2 293.9 36.2 256c0-141.4 113.7-256 254-256s254 114.6 254 256-113.7 256-254 256m138.7-256.7v-.7c0-73.9-52.1-126.6-141.9-126.6h-97v256h95.6c90.5 0 143.4-54.9 143.4-128.7zM288 321.1h-28.4V190.9H288c41.7 0 69.3 23.8 69.3 64.7v.7c0 41.3-27.7 64.7-69.3 64.7z"/></svg>