<svg xmlns="http://www.w3.org/2000/svg" viewBox="0 0 448 512"><!--! Font Awesome Free 6.7.1 by @fontawesome - https://fontawesome.com License - https://fontawesome.com/license/free (Icons: CC BY 4.0, Fonts: SIL OFL 1.1, Code: MIT License) Copyright 2024 Fonticons, Inc.--><path d="M303.973 108.136C268.2 72.459 234.187 38.35 224.047 0c-9.957 38.35-44.25 72.459-80.019 108.136-53.561 53.564-114.312 114.22-114.312 205.3-2.337 107.3 82.752 196.18 190.053 198.517S415.948 429.2 418.285 321.9q.091-4.231 0-8.464c0-91.08-60.751-151.736-114.312-205.3m-174.326 223a130.3 130.3 0 0 0-15.211 24.153 4.98 4.98 0 0 1-3.319 2.766h-1.659c-4.333 0-9.219-8.481-9.219-8.481-1.29-2.028-2.489-4.149-3.687-6.361l-.83-1.752c-11.247-25.72-1.475-62.318-1.475-62.318a160.6 160.6 0 0 1 23.231-49.873 291 291 0 0 1 21.022-27.657l9.219 9.219 43.512 44.434a4.98 4.98 0 0 1 0 6.638L145.78 312.33Zm96.612 127.311a67.2 67.2 0 0 1-49.781-111.915c14.2-16.871 31.528-33.464 50.334-55.313 22.309 23.785 36.875 40.1 51.164 57.986a28.4 28.4 0 0 1 2.95 4.425 65.9 65.9 0 0 1 11.984 37.981 66.65 66.65 0 0 1-66.466 66.836ZM352.371 351.6a7.74 7.74 0 0 1-6.176 5.347H344.9a11.25 11.25 0 0 1-6.269-5.07 348 348 0 0 0-39.456-48.952l-17.788-18.435-59.087-61.305a498 498 0 0 1-35.4-36.322 12 12 0 0 0-.922-1.382 35.4 35.4 0 0 1-4.7-9.219v-1.752a31.35 31.35 0 0 1 9.218-27.656c11.432-11.431 22.955-22.954 33.833-34.939 11.984 13.275 24.8 26 37.428 38.627a531 531 0 0 1 69.6 79.1 147.5 147.5 0 0 1 27.011 83.8 134.1 134.1 0 0 1-5.997 38.158"/></svg>