<svg xmlns="http://www.w3.org/2000/svg" viewBox="0 0 448 512"><!--! Font Awesome Free 7.1.0 by @fontawesome - https://fontawesome.com License - https://fontawesome.com/license/free (Icons: CC BY 4.0, Fonts: SIL OFL 1.1, Code: MIT License) Copyright 2025 Fonticons, Inc.--><path d="m-6 228.2.4-.5c0 .2 0 .3-.1.5zm460.6 15.5c0-44-7.8-84.5-28.8-122.4C384.8 47.9 312.2 8 227.2 8 87.3 7.7 8.9 113.2-5.6 227.7c42.4-61.3 117.1-121.4 220.4-125 0 0 109.7 0 99.4 105H138.4c6.4-37.4 18.5-59 34.3-78.9-75 34.9-121.8 96.1-120.8 188.3.8 71.5 50.1 144.8 120.8 172 83.4 31.8 192.8 7.2 240.1-21.3V363.4c-80.9 56.5-270.9 60.9-272.3-67.6h314.1z"/></svg>