<svg xmlns="http://www.w3.org/2000/svg" viewBox="0 0 512 512"><!--! Font Awesome Free 7.1.0 by @fontawesome - https://fontawesome.com License - https://fontawesome.com/license/free (Icons: CC BY 4.0, Fonts: SIL OFL 1.1, Code: MIT License) Copyright 2025 Fonticons, Inc.--><path d="M256.6 8C116.6 8 8 110.3 8 248.6c0 72.3 29.7 134.8 78.1 177.9 8.3 7.5 6.6 11.9 8 58.2.1 3.2 1 6.4 2.6 9.2s3.9 5.2 6.7 6.9 5.9 2.8 9.1 3 6.5-.3 9.5-1.6c52.9-23.2 53.6-25 62.6-22.6 153.2 42.2 319.4-55.9 319.4-231C504 110.3 396.6 8 256.6 8m149.2 185.1-73 115.6c-2.8 4.3-6.4 8.1-10.6 11s-9.1 4.8-14.1 5.8-10.3.8-15.3-.4-9.7-3.4-13.8-6.4l-58.1-43.5c-2.6-1.9-5.8-3-9-3s-6.4 1.1-9 3l-78.4 59.4c-10.5 7.9-24.2-4.6-17.1-15.7l73-115.6c2.8-4.3 6.4-8.1 10.6-11s9.1-4.8 14.1-5.8 10.3-.8 15.3.4 9.7 3.4 13.9 6.4l58.1 43.5c2.6 1.9 5.8 3 9 3s6.4-1.1 9-3l78.4-59.4c10.4-8 24.1 4.5 17.1 15.6z"/></svg>