<svg xmlns="http://www.w3.org/2000/svg" viewBox="0 0 512 512"><!--! Font Awesome Free 6.7.1 by @fontawesome - https://fontawesome.com License - https://fontawesome.com/license/free (Icons: CC BY 4.0, Fonts: SIL OFL 1.1, Code: MIT License) Copyright 2024 Fonticons, Inc.--><path d="M253.2 246.4 136.9 130.2c-.6-.6-1-1.3-1.4-2s-.5-1.6-.5-2.4.2-1.6.5-2.4.8-1.4 1.4-2L253.3 5.1c.9-.9 2-1.5 3.2-1.7s2.5-.1 3.6.3 2.1 1.3 2.8 2.3 1.1 2.2 1.1 3.5V242c0 1.3-.3 2.5-1 3.6s-1.7 1.9-2.9 2.4-2.5.6-3.7.3-2.4-.9-3.2-1.9m40.3-4.4V107.6c0-.8.1-1.6.5-2.4s.8-1.5 1.3-2.1 1.3-1.1 2-1.4 1.6-.5 2.4-.5h134.4c1.2 0 2.5.4 3.5 1.1s1.8 1.7 2.3 2.8.6 2.4.3 3.6-.9 2.3-1.7 3.2L304 246.4c-.9.8-2 1.4-3.2 1.6s-2.4.1-3.5-.4-2.1-1.3-2.8-2.3-1.1-2.2-1.1-3.4zm30.6 35c-1.2 0-2.5-.3-3.5-1s-1.9-1.6-2.4-2.8-.6-2.4-.4-3.6.8-2.3 1.7-3.2l84.2-84.2c.6-.6 1.3-1 2-1.4s1.6-.5 2.4-.5 1.6.2 2.4.5 1.4.8 2 1.4l84.4 84.2c.9.9 1.5 2 1.7 3.2s.1 2.5-.3 3.6-1.3 2.1-2.3 2.8-2.2 1.1-3.5 1.1H324zm90.7 131-95.3-95.2c-.9-.9-1.5-2-1.7-3.2s-.1-2.5.4-3.7 1.3-2.1 2.4-2.8 2.3-1 3.5-1h95.2c1.7 0 3.2.7 4.4 1.8s1.8 2.8 1.8 4.4v95.3c0 1.2-.4 2.5-1.1 3.5s-1.7 1.8-2.8 2.3-2.4.6-3.6.3-2.3-.9-3.2-1.7M16.5 302.1h216.9c1.2 0 2.5.4 3.5 1.1s1.8 1.7 2.3 2.8.6 2.4.3 3.6-.8 2.3-1.7 3.2L129.4 421.2c-.6.6-1.3 1-2 1.4s-1.6.5-2.4.5-1.6-.2-2.4-.5-1.4-.8-2-1.4L12 312.8c-.9-.9-1.5-2-1.7-3.2s-.1-2.5.4-3.6 1.3-2.1 2.3-2.8 2.3-1 3.5-1zM264 465.3c0 .8-.2 1.6-.5 2.4s-.8 1.5-1.4 2-1.3 1-2 1.4-1.6.5-2.4.5h-128c-1.2 0-2.5-.4-3.5-1.1s-1.8-1.7-2.3-2.8-.6-2.4-.3-3.6.8-2.3 1.7-3.2l128-128c.9-.9 2-1.5 3.2-1.7s2.5-.1 3.6.3 2.1 1.3 2.8 2.3 1.1 2.2 1.1 3.5zm40-132.5 82.8 82.7c.6.6 1 1.3 1.4 2s.5 1.6.5 2.4-.2 1.6-.5 2.4-.8 1.4-1.4 2L304 507c-.9.9-2 1.5-3.2 1.7s-2.5.1-3.6-.3-2.1-1.3-2.8-2.3-1.1-2.2-1.1-3.5V337.2c0-1.2.4-2.5 1.1-3.5s1.7-1.8 2.8-2.3 2.4-.6 3.6-.3 2.3.8 3.2 1.7M78.7 122.4c0-1.2.3-2.5 1-3.5s1.7-1.8 2.8-2.3 2.4-.6 3.6-.4 2.3.8 3.2 1.7l148.5 148.5c.9.9 1.5 2 1.7 3.2s.1 2.5-.3 3.6-1.3 2.1-2.3 2.8-2.2 1.1-3.5 1.1H85c-1.7 0-3.2-.7-4.4-1.8s-1.8-2.8-1.8-4.4V122.5z"/></svg>