<svg xmlns="http://www.w3.org/2000/svg" viewBox="0 0 512 512"><!--! Font Awesome Free 7.1.0 by @fontawesome - https://fontawesome.com License - https://fontawesome.com/license/free (Icons: CC BY 4.0, Fonts: SIL OFL 1.1, Code: MIT License) Copyright 2025 Fonticons, Inc.--><path d="M256 8a248 248 0 1 1 0 496 248 248 0 1 1 0-496m0 16.5a231.5 231.5 0 1 0 0 462.9 231.5 231.5 0 1 0 0-462.9m27.6 21.8v24.6c30.3 4.5 59 16.3 83.6 34.5L384.6 88c-28.7-22.1-63.3-36.9-101-41.8zm-55.4.1c-37.6 4.9-72.2 19.8-100.9 41.9l17.3 17.4h.1c24.1-17.8 52.6-30.1 83.5-34.7V46.5zm12.2 50.2v82.9c-10 2-19.4 5.9-27.7 11.4l-58.6-58.6-21.9 21.9 58.7 58.7c-5.5 8.2-9.4 17.6-11.5 27.6H96.5v31h82.9c2 10 6 19.3 11.5 27.5l-58.7 58.7 21.9 21.9 58.6-58.6c8.4 5.6 17.8 9.5 27.7 11.5v82.9h31v-82.9c10-2 19.4-6.1 27.6-11.5l58.7 58.7 21.9-21.9-58.7-58.7c5.5-8.2 9.5-17.5 11.5-27.5h82.9v-31h-82.9c-2-10-6-19.4-11.5-27.6l58.7-58.7-21.9-21.9-58.7 58.7c-8.2-5.5-17.6-9.5-27.6-11.5V96.7h-31zm183.2 30.7-17.4 17.4c18.3 24.6 30.2 53.4 34.7 83.7h24.6c-5-37.7-19.8-72.3-41.9-101zm-335.6.1a209.64 209.64 0 0 0-41.8 100.9h24.6c4.6-31 16.8-59.4 34.6-83.5l-17.2-17.4zM46.3 283.7c4.9 37.6 19.7 72.2 41.8 100.9l17.4-17.4A186.64 186.64 0 0 1 71 283.7H46.4zm394.7 0c-4.6 31-16.8 59.5-34.7 83.6l17.4 17.4c22.1-28.7 37-63.3 41.9-101zM144.7 406.4l-17.4 17.4c28.7 22.1 63.3 37 101 41.9v-24.6c-31-4.6-59.5-16.8-83.6-34.6zm222.5 0c-24.1 17.8-52.6 30.1-83.6 34.7v24.6c37.7-4.9 72.2-19.8 101-41.8l-17.3-17.4h-.1z"/></svg>