<svg xmlns="http://www.w3.org/2000/svg" viewBox="0 0 512 512"><!--! Font Awesome Free 7.1.0 by @fontawesome - https://fontawesome.com License - https://fontawesome.com/license/free (Icons: CC BY 4.0, Fonts: SIL OFL 1.1, Code: MIT License) Copyright 2025 Fonticons, Inc.--><path d="M257.5 8a248 248 0 1 0 0 496 248 248 0 1 0 0-496M208 382.8 82.3 257.1 208 131.4l35.2 35.4L219 191l-11.1-11.1-77.2 77.2 77.2 77.2 26.6-26.6-53.1-52.9 24.4-24.4 77.2 77.2zm99-2.2-35.2-35.2 24.1-24.4 11.1 11.1 77.2-77.2-77.2-77.2-26.5 26.5 53.1 52.9-24.4 24.4-77.2-77.2 75-75L432.7 255z"/></svg>