<svg xmlns="http://www.w3.org/2000/svg" viewBox="0 0 512 512"><!--! Font Awesome Free 7.1.0 by @fontawesome - https://fontawesome.com License - https://fontawesome.com/license/free (Icons: CC BY 4.0, Fonts: SIL OFL 1.1, Code: MIT License) Copyright 2025 Fonticons, Inc.--><path d="M256 8a248 248 0 1 0 0 496 248 248 0 1 0 0-496m-70.7 372c-32.9 0-64.4-13.1-87.7-36.3S61.3 288.9 61.3 256s13.1-64.4 36.3-87.7 54.8-36.3 87.7-36.3c31.3 0 60.1 11 83 32.3l-33.6 32.6c-13.2-12.9-31.3-19.1-49.4-19.1-42.9 0-77.2 35.5-77.2 78.1s34.2 78.1 77.2 78.1c32.6 0 64.9-19.1 70.1-53.3h-70.1v-42.6h116.9c1.3 6.8 1.9 13.8 1.9 20.7 0 70.8-47.5 121.2-118.8 121.2m230.2-106.2v35.5H380v-35.5h-35.5v-35.5H380v-35.5h35.5v35.5h35.2v35.5z"/></svg>