<svg xmlns="http://www.w3.org/2000/svg" viewBox="0 0 640 512"><!--! Font Awesome Free 7.1.0 by @fontawesome - https://fontawesome.com License - https://fontawesome.com/license/free (Icons: CC BY 4.0, Fonts: SIL OFL 1.1, Code: MIT License) Copyright 2025 Fonticons, Inc.--><path d="M386.3 228.5c1.8 9.7 3.1 19.4 3.1 32C389.4 370.3 315.8 448 205 448 98.9 448 13 362.1 13 256S98.9 64 205 64c51.9 0 95.1 18.9 128.6 50.3l-52.1 50c-14.1-13.6-39-29.6-76.5-29.6-65.5 0-118.9 54.2-118.9 121.3S139.5 377.3 205 377.3c76 0 104.5-54.7 109-82.8H205v-66zm185.4 6.4v-55.7h-56v55.7H460v56h55.7v55.7h56v-55.7h55.7v-56z"/></svg>