<svg xmlns="http://www.w3.org/2000/svg" viewBox="0 0 448 512"><!--! Font Awesome Free 7.1.0 by @fontawesome - https://fontawesome.com License - https://fontawesome.com/license/free (Icons: CC BY 4.0, Fonts: SIL OFL 1.1, Code: MIT License) Copyright 2025 Fonticons, Inc.--><path d="M443.9 64H5c0 103.3 22.2 180.1 43.4 222.4C112.5 414.2 224.4 448 225.7 448c55.7-20.5 104.5-56.3 140.6-103.5 25.9-33.9 53.1-87.2 65.9-145.8H172.3c4.1 36.4 22.2 67.9 45.1 86.9H306c-17 28.2-48.2 54.4-80.5 69.5-31.2-13.3-69.1-46.5-96.5-98.4-26.7-53.8-27.1-105.9-27.1-105.9H438c4-28.8 5.9-57.9 5.9-86.9z"/></svg>