<svg xmlns="http://www.w3.org/2000/svg" viewBox="0 0 512 512"><!--! Font Awesome Free 7.1.0 by @fontawesome - https://fontawesome.com License - https://fontawesome.com/license/free (Icons: CC BY 4.0, Fonts: SIL OFL 1.1, Code: MIT License) Copyright 2025 Fonticons, Inc.--><path d="M260.4 254.9 131.5 33.1c-.2-.3-.5-.6-.8-.8s-.7-.3-1.1-.3-.8.1-1.1.3-.6.5-.8.8L.3 254.9c-.2.3-.3.7-.3 1.1s.1.8.3 1.1l128.8 221.8c.2.3.5.6.8.8s.7.3 1.1.3.8-.1 1.1-.3.6-.5.8-.8l127.5-221.8c.2-.3.3-.7.3-1.1s-.1-.8-.3-1.1m39.1-25.7c.2.3.5.6.8.8s.7.3 1.1.3h66.5c.4 0 .8-.1 1.1-.3s.6-.5.8-.8.3-.7.3-1.1-.1-.8-.3-1.1L259.1 33.1c-.2-.3-.5-.6-.8-.8s-.7-.3-1.1-.3h-66.5c-.4 0-.8.1-1.1.3s-.6.5-.8.8-.3.7-.3 1.1.1.8.3 1.1l110.6 193.9zm212.3 25.7L384.9 33.1c-.2-.3-.5-.6-.8-.8s-.7-.3-1.1-.3h-66.6c-.4 0-.8.1-1.1.3s-.6.5-.8.8-.3.7-.3 1.1.1.8.3 1.1L440.7 256 314.5 476.7c-.2.3-.3.7-.3 1.1s.1.8.3 1.1.5.6.8.8.7.3 1.1.3H383c.4 0 .8-.1 1.1-.3s.6-.5.8-.8l126.8-221.8c.2-.3.3-.7.3-1.1s-.1-.8-.3-1.1zm-145.8 30h-66.5c-.4 0-.8.1-1.1.3s-.6.5-.8.8L188.8 476.7c-.2.3-.3.7-.3 1.1s.1.8.3 1.1.5.6.8.8.7.3 1.1.3h66.5c.4 0 .8-.1 1.1-.3s.6-.5.8-.8l108.8-190.6c.2-.3.3-.7.3-1.1s-.1-.8-.3-1.1-.5-.6-.8-.8-.7-.3-1.1-.3z"/></svg>