<svg xmlns="http://www.w3.org/2000/svg" viewBox="0 0 640 512"><!--! Font Awesome Free 7.1.0 by @fontawesome - https://fontawesome.com License - https://fontawesome.com/license/free (Icons: CC BY 4.0, Fonts: SIL OFL 1.1, Code: MIT License) Copyright 2025 Fonticons, Inc.--><path d="M320 96v320c21 0 41.8-4.1 61.2-12.2s37-19.8 51.9-34.7 26.6-32.5 34.7-51.9S480 277 480 256s-4.1-41.8-12.2-61.2-19.8-37.1-34.7-51.9-32.5-26.6-51.9-34.7S341 96 320 96M0 256l160 160 160-160L160 96zm480 0c0 21 4.1 41.8 12.2 61.2s19.8 37 34.7 51.9 32.5 26.6 51.9 34.7S619 416 640 416V96c-42.4 0-83.1 16.9-113.1 46.9S480 213.6 480 256"/></svg>