<svg xmlns="http://www.w3.org/2000/svg" viewBox="0 0 512 512"><!--! Font Awesome Free 7.1.0 by @fontawesome - https://fontawesome.com License - https://fontawesome.com/license/free (Icons: CC BY 4.0, Fonts: SIL OFL 1.1, Code: MIT License) Copyright 2025 Fonticons, Inc.--><path d="M504.6 115.8c-.1-.2-.2-.5-.3-.7-.1-.4-.3-.8-.5-1.2-.2-.2-.3-.5-.5-.7-.2-.3-.5-.6-.7-.9-.2-.2-.5-.4-.8-.6s-.6-.5-.9-.7l-96.3-55.5c-1.2-.7-2.6-1.1-4-1.1s-2.8.4-4 1.1L300.3 111c-.3.2-.6.4-.9.7-.3.2-.5.4-.8.6-.3.3-.5.6-.7.9-.2.2-.4.4-.5.7-.2.4-.4.8-.5 1.2-.1.2-.2.4-.3.7q-.3 1.05-.3 2.1v105.2l-80.2 46.2V63.4q0-1.05-.3-2.1c-.1-.2-.2-.4-.3-.7-.1-.4-.3-.8-.5-1.2-.1-.3-.4-.5-.5-.7-.2-.3-.5-.6-.7-.9-.2-.2-.5-.4-.8-.6s-.6-.5-.9-.7L115.8 1.1c-1.2-.7-2.6-1.1-4-1.1s-2.8.4-4 1.1L11.5 56.5c-.3.2-.6.4-.9.7-.3.2-.5.4-.8.6-.3.3-.5.6-.7.9s-.4.5-.6.7c-.2.4-.4.8-.5 1.2-.1.2-.2.4-.3.7q-.3 1.05-.3 2.1v329.7c0 1.4.4 2.8 1.1 4s1.7 2.2 2.9 2.9L204 510.9c.4.2.9.4 1.3.5l.6.3c1.3.4 2.8.4 4.1 0 .2-.1.4-.2.6-.2.5-.2 1-.3 1.4-.6l192.6-110.8c1.2-.7 2.2-1.7 2.9-2.9s1.1-2.6 1.1-4V287.9l92.2-53.1c1.2-.7 2.2-1.7 2.9-3s1.1-2.6 1.1-4V118c0-.7-.1-1.4-.2-2.1zM111.8 17.3 192 63.4l-80.2 46.2-80.2-46.2 80.2-46.2zm88.2 60v201.3c-33.2 19.1-59.9 34.5-80.2 46.2V123.5C153 104.4 179.7 89 200 77.3m0 412.8L23.5 388.5V77.3c20.3 11.7 47.1 27.1 80.2 46.2v215.2c0 .3.1.6.1.9 0 .4.1.8.2 1.2.1.3.2.6.4.9.1.3.3.7.4 1 .2.3.4.5.6.8s.4.6.7.8c.2.2.5.4.8.6s.6.5.9.7l92.2 52.2.1 92.4zm8-106.2-80-45.3c54.7-31.5 113.5-65.3 176.3-101.5l80.1 46.1C355 300 296.2 333.5 208 383.9m184.5 4.6L216 490.1v-92.3C317.4 340 376.2 306.4 392.5 297v91.4zm0-119.1c-20.3-11.6-47.1-27-80.2-46.1v-91.4c20.3 11.7 47.1 27.1 80.2 46.2zm8-105.3-80.2-46.2 80.2-46.2 80.2 46.1-80.2 46.2zm8 105.3v-91.3c33.2-19.1 60-34.5 80.3-46.2v91.4l-80.3 46.2z"/></svg>