<svg xmlns="http://www.w3.org/2000/svg" viewBox="0 0 512 512"><!--! Font Awesome Free 6.7.1 by @fontawesome - https://fontawesome.com License - https://fontawesome.com/license/free (Icons: CC BY 4.0, Fonts: SIL OFL 1.1, Code: MIT License) Copyright 2024 Fonticons, Inc.--><path d="M107.2 0c2.5 0 4.7.8 6.7 2l94.3 54.1c2.7 1.5 4.5 3.5 5.4 5.9.9 2.2.9 4.3.9 5.6V261l69.2-39.7V121c0-2.6.6-5 2.2-7.2 1.5-2.1 3.5-3.6 5.7-4.8l94-54c1.6-.9 3.4-1.6 5.5-1.6s4 .7 5.6 1.6l95.8 55.1c2.3 1.3 3.9 3 4.9 5.3.9 2.1.9 4.2.9 5.8v107.2c0 2-.2 4.3-1.4 6.4-1.2 2.2-3 3.7-5.1 4.9l-.1.1-88 50.5v100c0 2.3-.3 4.8-1.6 7s-3.3 3.7-5.3 4.9h-.1L208.7 510c-2.2 1.2-4.5 2-7.1 2s-4.9-.9-7.1-2l-.1-.1L7.1 402l-.5-.3c-1.1-.7-2.6-1.7-3.8-2.9-1.9-1.9-2.8-4.2-2.8-7.2V65.9c0-4.8 3-7.9 5.5-9.3l95-54.6c2-1.2 4.3-2 6.8-2zM38.1 67.1l69 39.9 69.2-39.9-69.2-39.7zm353 93.2 69-39.7-69-39.7-69.1 39.7zM189.2 89 120 128.8v186.4l69.2-39.9V88.9zm-94.7 39.9L25.2 89.1v294.2l164 94.2v-79.4l-87.3-49.3-.2-.1c-1.3-.8-3.2-1.9-4.6-3.7-1.7-2.1-2.5-4.7-2.5-7.7V128.8zm214.7 92.4 69.3 39.6v-78.5l-69.3-39.9zm94.5 39.6 69.3-39.7v-78.8l-69.3 39.9v78.5zM201.6 376.1l163.8-93.2-69-39.9L133 337.1l68.6 38.9zm12.9 101.5 164-94.2v-78.8l-164 93.6z"/></svg>