<svg xmlns="http://www.w3.org/2000/svg" viewBox="0 0 576 512"><!--! Font Awesome Free 7.1.0 by @fontawesome - https://fontawesome.com License - https://fontawesome.com/license/free (Icons: CC BY 4.0, Fonts: SIL OFL 1.1, Code: MIT License) Copyright 2025 Fonticons, Inc.--><path d="m386.6 111.5 15.1 249-11-.3c-36.2-.8-71.6 8.8-102.7 28-31-19.2-66.4-28-102.7-28-45.6 0-82.1 10.7-123.5 27.7l31.4-258.3c28.5-11.8 61.5-18.1 92.2-18.1 41.2 0 73.8 13.2 102.7 42.5 27.7-28.3 59-41.7 98.5-42.5M569.2 448c-25.5 0-47.5-5.2-70.5-15.6-34.3-15.6-70-25-107.9-25-39 0-74.9 12.9-102.7 40.6-27.7-27.7-63.7-40.6-102.7-40.6-37.9 0-73.6 9.3-107.9 25C55.3 442.3 32.8 448 8.3 448H7L49.6 98.9C88.9 76.7 136.6 64 181.9 64c37.1 0 75.2 7.7 106.2 29.1 31-21.4 69.2-29.1 106.2-29.1 45.3 0 93 12.6 132.3 34.9zm-43.4-44.7-34-280.3c-30.7-14-67.2-21.4-101-21.4-38.4 0-74.4 12.1-102.7 38.7-28.3-26.6-64.2-38.7-102.7-38.7-33.8 0-70.3 7.4-101 21.4l-34 280.2c47.2-19.5 82.9-33.5 135-33.5 37.6 0 70.8 9.6 102.7 29.6 31.8-20 65.1-29.6 102.7-29.6 52.2 0 87.8 14 135 33.5z"/></svg>