<svg xmlns="http://www.w3.org/2000/svg" viewBox="0 0 512 512"><!--! Font Awesome Free 7.1.0 by @fontawesome - https://fontawesome.com License - https://fontawesome.com/license/free (Icons: CC BY 4.0, Fonts: SIL OFL 1.1, Code: MIT License) Copyright 2025 Fonticons, Inc.--><path d="M222.5 209.6v66.2l33.5 33.5 33.3-33.3v-66.4l-33.4-33.4zM256 8a248 248 0 1 0 0 496 248 248 0 1 0 0-496m145.1 414.4L375 441.6l-26-19.2v-65.5l-33.4-33.4-33.4 33.4v65.5L256 441.6l-26.1-19.2v-65.5l-33.4-33.4-33.5 33.4v65.5l-26.1 19.2-26.1-19.2v-87l59.5-59.5V188l59.5-59.5V52.9l26.1-19.2L282 52.9v75.6l59.5 59.5v87.6l59.7 59.7v87.1z"/></svg>