<svg xmlns="http://www.w3.org/2000/svg" viewBox="0 0 640 512"><!--! Font Awesome Free 7.1.0 by @fontawesome - https://fontawesome.com License - https://fontawesome.com/license/free (Icons: CC BY 4.0, Fonts: SIL OFL 1.1, Code: MIT License) Copyright 2025 Fonticons, Inc.--><path d="M297.9 0h.1c7.6.1 14.4 4.7 17.5 11.8l132 308.5.3-.1.2.4-2.8 10-42.9 158c-3.7 16.2-19.7 26.3-35.8 22.6l-68.4-15.6-68.5 15.6c-16.1 3.7-32.1-6.4-35.8-22.6l-42.9-158-2.7-10 .1-.4L280.4 11.8c3-7 9.9-11.6 17.5-11.8M160.1 322.1l131 39.1 6.9 122.5 7.9-121.5 130.6-39.3.2-.1-131 25.1-8.6-320.2-5.2 320.2zM426 222.6l94.4-41h73.8l-157 247.6 31.6-109zm171.5-41.2 41.4 76.2c4 7.5-3.9 15.9-11.6 12.2l-47.6-22.7zM127.3 318.5 158.7 430 1.6 154.5c-5.9-10.4 5.5-22 15.9-16.2l151.8 84.2-42.1 96z"/></svg>