<svg xmlns="http://www.w3.org/2000/svg" viewBox="0 0 448 512"><!--! Font Awesome Free 7.1.0 by @fontawesome - https://fontawesome.com License - https://fontawesome.com/license/free (Icons: CC BY 4.0, Fonts: SIL OFL 1.1, Code: MIT License) Copyright 2025 Fonticons, Inc.--><path d="m32.1 419-32 60.2.8-328C.9 85.3 54.1 32 120.1 32h327.2c-93 28.9-189.9 94.2-253.9 168.6C122.8 282 82.7 338 32.1 419m416-387S305.3 98.8 261.7 199.1c-23.2 53.6-28.9 118.1-71 158.6-28.9 27.8-69.8 38.2-105.3 56.3C62.2 426 19 454.5.5 480h328.4c66 0 119.3-53.3 119.3-119.2-.1 0-.1-328.8-.1-328.8"/></svg>