<svg xmlns="http://www.w3.org/2000/svg" viewBox="0 0 448 512"><!--! Font Awesome Free 7.1.0 by @fontawesome - https://fontawesome.com License - https://fontawesome.com/license/free (Icons: CC BY 4.0, Fonts: SIL OFL 1.1, Code: MIT License) Copyright 2025 Fonticons, Inc.--><path d="M440.2 23.2c-26.7 6.8-68.1 28.5-114.6 67.5C294.7 73.2 259.8 64 224.2 64c-114.9 0-208 93.1-208 208s93.1 208 208 208 208-93.1 208-208c.1-54.1-21-106.1-58.7-144.8-6.6 8.5-12.3 17.7-17 27.4 28.9 32.3 44.8 74.1 44.9 117.4 0 97.7-79.4 177.1-177.1 177.1-30.8 0-61-8.1-87.6-23.4 82.9-107.3 150.8-37.8 184.3-226.6 5.8-32.6 28-94.3 126.2-160.2 8.1-5.4 2.4-18.1-7-15.7M109.3 406.4c-19.5-16.6-35.1-37.2-45.8-60.4s-16.3-48.5-16.3-74c0-97.7 79.4-177.1 177.1-177.1 26.6 0 52.8 6.1 76.6 17.8-66 62.1-126.9 152.9-191.6 293.8z"/></svg>