<svg xmlns="http://www.w3.org/2000/svg" viewBox="0 0 448 512"><!--! Font Awesome Free 7.1.0 by @fontawesome - https://fontawesome.com License - https://fontawesome.com/license/free (Icons: CC BY 4.0, Fonts: SIL OFL 1.1, Code: MIT License) Copyright 2025 Fonticons, Inc.--><path d="M440.7 386.7h-29.3c-1.5 13.5-10.5 30.8-33 30.8-20.5 0-35.3-14.2-49.5-35.8 44.2-34.2 74.7-87.5 74.7-153C403.7 111.2 307 32 205.2 32 105.5 32 7.5 111.7 7.5 228.7c0 134.1 131.3 221.6 249 189 19.7 33.6 45.7 62.3 95.2 62.3 81.8 0 90.8-75.3 89-93.3m-143.5-57.5C277.7 300 253.5 277 205.7 277c-30.5 0-54.3 10-69 22.8l12.2 24.3c6.2-3 13-4 19.8-4 35.5 0 53.7 30.8 69.2 61.3-10 3-20.7 4.2-32.7 4.2-75 0-107.5-53-107.5-156.7C97.7 124.5 130.2 71 205.2 71c76.2 0 108.7 53.5 108.7 157.7.1 41.8-5.4 75.6-16.7 100.5"/></svg>