<svg xmlns="http://www.w3.org/2000/svg" viewBox="0 0 576 512"><!--! Font Awesome Free 7.1.0 by @fontawesome - https://fontawesome.com License - https://fontawesome.com/license/free (Icons: CC BY 4.0, Fonts: SIL OFL 1.1, Code: MIT License) Copyright 2025 Fonticons, Inc.--><path d="m250.7 211.7 5.8-4.1 5.8 4.1-2.1-6.8 5.7-4.3-7.1-.1-2.3-6.8-2.3 6.8-7.2.1 5.7 4.3zm63.7 0 5.8-4.1 5.8 4.1-2.1-6.8 5.7-4.3-7.2-.1-2.3-6.8-2.3 6.8-7.2.1 5.7 4.3zm-91.3 50.5h-3.4c-4.8 0-3.8 4-3.8 12.1 0 4.7-2.3 6.1-5.8 6.1s-5.8-1.4-5.8-6.1v-36.6c0-4.7 2.3-6.1 5.8-6.1s5.8 1.4 5.8 6.1c0 7.2-.7 10.5 3.8 10.5h3.4c4.7-.1 3.8-3.9 3.8-12.3 0-9.9-6.7-14.1-16.8-14.1h-.2c-10.1 0-16.8 4.2-16.8 14.1V276c0 10.4 6.7 14.1 16.8 14.1h.2c10.1 0 16.8-3.8 16.8-14.1 0-9.9 1.1-13.8-3.8-13.8m-80.7 17.4h-14.7v-19.3h11.4c2.5 0 3.8-1.3 3.8-3.8v-2.1c0-2.5-1.3-3.8-3.8-3.8h-11.4v-18.3h14.4c2.5 0 3.8-1.3 3.8-3.8v-2.1c0-2.5-1.3-3.8-3.8-3.8h-21.7c-2.4-.1-3.7 1.3-3.7 3.8v59.1c0 2.5 1.3 3.8 3.8 3.8h21.9c2.5 0 3.8-1.3 3.8-3.8v-2.1c0-2.5-1.3-3.8-3.8-3.8m-42-18.5c4.6-2 7.3-6 7.3-12.4v-11.9c0-10.1-6.7-14.1-16.8-14.1H77.5c-2.5 0-3.8 1.3-3.8 3.8v59.1c0 2.5 1.3 3.8 3.8 3.8h3.4c2.5 0 3.8-1.3 3.8-3.8v-22.9h5.6l7.4 23.5c.2 1 .8 1.8 1.6 2.4s1.8.9 2.7.8h3.3c2.8 0 4-1.8 3.2-4.4zm-3.8-14c0 4.8-2.5 6.1-6.1 6.1h-5.8v-20.9h5.8c3.6 0 6.1 1.3 6.1 6.1zm79.5-21.1c-.1-.5-.2-1-.4-1.4s-.6-.8-1-1.1-.8-.6-1.3-.7-1-.2-1.5-.1H165c-.5 0-1 0-1.4.2s-.9.4-1.3.7-.7.7-.9 1.1-.4.9-.4 1.4l-11 59.2c-.5 2.7.9 4.1 3.4 4.1h3c.5.1 1 0 1.5-.2s.9-.4 1.3-.7.7-.7.9-1.2.4-.9.4-1.4l1.8-11.3h12.2l1.8 11.3c0 .5.2 1 .4 1.4s.5.9.9 1.2.8.6 1.3.7 1 .2 1.5.2h3.5c2.6 0 3.9-1.4 3.4-4.1zm-12.3 39.3 4.7-29.7 4.7 29.7zm89.3 20.2v-53.2h7.5c2.5 0 3.8-1.3 3.8-3.8v-2.1c0-2.5-1.3-3.8-3.8-3.8h-25.8c-2.5 0-3.8 1.3-3.8 3.8v2.1c0 2.5 1.3 3.8 3.8 3.8h7.3v53.2c0 2.5 1.3 3.8 3.8 3.8h3.4c2.5 0 3.8-1.3 3.8-3.8m248-.8h-19.4V258h16.1c.3 0 .5 0 .8-.1s.5-.2.7-.4.3-.4.4-.7.1-.5.1-.8v-.8c0-.3 0-.5-.1-.8s-.2-.5-.4-.7-.4-.3-.7-.4-.5-.1-.8-.1h-16.1v-25.8h19.1c.3 0 .5 0 .8-.1s.5-.2.7-.4.3-.4.4-.7.1-.5.1-.8v-.8c0-.3 0-.5-.1-.8s-.2-.5-.4-.7-.4-.3-.7-.4-.5-.1-.8-.1h-22.2c-.3-.1-.5-.1-.8 0s-.5.2-.7.4-.3.4-.4.7-.1.5-.1.8v63c0 .3 0 .5.1.8s.2.5.4.6.4.3.7.4.5.1.8.1h22.5c.3 0 .5 0 .8-.1s.5-.2.7-.4.3-.4.4-.6.1-.5.1-.8v-.8c0-.3 0-.5-.1-.8s-.2-.5-.4-.7-.4-.3-.7-.4-.5-.1-.8-.1M408 221.8h-.8c-10.1 0-15.3 4.7-15.3 14.1V276c0 9.3 5.2 14.1 15.3 14.1h.8c10.1 0 15.3-4.8 15.3-14.1v-40.1c0-9.4-5.2-14.1-15.3-14.1m10.2 52.4c-.1 8-3 11.1-10.5 11.1s-10.5-3.1-10.5-11.1v-36.6c0-7.9 3-11.1 10.5-11.1s10.5 3.2 10.5 11.1zm-46.5-14.5c6.1-1.6 9.2-6.1 9.2-13.3v-9.7c0-9.4-5.2-14.1-15.3-14.1h-13.7c-.3 0-.5 0-.8.1s-.5.2-.7.4-.3.4-.4.6-.1.5-.1.8v63c0 .3 0 .5.1.8s.2.5.4.6.4.3.7.4.5.1.8.1h1.2c.3 0 .5 0 .8-.1s.5-.2.6-.4.3-.4.4-.6.1-.5.1-.8v-26.9h11.6l10.4 27.2c.2.5.5.9.9 1.1s.9.4 1.4.4h1.5c1.4 0 2-1 1.5-2.3zm-6.4-3.9h-10.2v-28.5h10.2c7.5 0 10.5 3.1 10.5 11.1v6.4c0 7.8-3 11-10.5 11m85.9-33.1h-13.7c-.3-.1-.5-.1-.8 0s-.5.2-.7.4-.3.4-.4.7-.1.5-.1.8v63c0 .3 0 .5.1.8s.2.5.4.6.4.3.7.4.5.1.8.1h1.2c.3 0 .5 0 .8-.1s.5-.2.6-.4.3-.4.4-.6.1-.5.1-.8v-26.1h10.6c10.1 0 15.3-4.8 15.3-14.1v-10.5c0-9.4-5.2-14.1-15.3-14.1zm10.2 22.8c0 7.9-3 11.1-10.5 11.1h-10.2v-29.2h10.2c7.5-.1 10.5 3.1 10.5 11zM259.6 308l-2.3-6.8-2.3 6.8-7.1.1 5.7 4.3-2.1 6.8 5.8-4.1 5.8 4.1-2.1-6.8 5.7-4.3zm227.6-136.1c-11.7-4.4-23.5-8.1-35.6-11.3 19.6-78 11.6-134.7-22.3-153.9-34.5-19.4-85.9 4.3-138.2 55.2q5.1 4.95 10.2 10.2c82.5-80 119.6-53.5 120.9-52.8 22.4 12.7 36 55.8 15.5 137.8-27.8-6.4-56.1-10.7-84.6-13C281.2 43.6 212.5 2 170.9 2c-30.8 0-43.8 21-47.6 27.7-18.1 32-13.3 84.2.1 133.8-70.5 20.3-120.7 54.1-120.3 95 .5 59.6 103.2 87.8 122.1 92.8-20.5 81.9-10.1 135.6 22.3 153.9 28 15.8 75.1 6 138.2-55.2q-5.1-4.95-10.2-10.2c-82.5 80-119.7 53.5-120.9 52.8-22.3-12.6-36-55.6-15.5-137.9 12.4 2.9 41.8 9.5 84.6 13 71.9 100.4 140.6 142 182.1 142 30.8 0 43.8-21 47.6-27.7 18-31.9 13.3-84.1-.1-133.8 152.3-43.8 156.2-130.2 33.9-176.3M136 36.8c2.9-5.1 11.9-20.3 34.9-20.3 36.8 0 98.8 39.6 163.3 126.2-31.3-1.8-62.7-1.5-93.9.9 13-18.3 27.1-35.8 42.2-52.4q-5.1-5.25-10.2-10.2c-18.3 20.2-35.3 41.7-50.7 64.2-28.5 2.7-56.7 7.6-84.4 14.6-.2-1.4-24.3-82.2-1.2-123m304.8 438.3c-2.9 5.1-11.8 20.3-34.9 20.3-36.7 0-98.7-39.4-163.3-126.2 31.3 1.8 62.7 1.5 93.9-.9-13 18.3-27.1 35.8-42.2 52.4q5.1 5.25 10.2 10.2c18.4-20.2 35.3-41.7 50.7-64.2 47.3-4.7 80.3-13.5 84.4-14.6 22.7 84.4 4.5 117 1.2 123m9.1-138.6c-3.6-11.9-7.7-24.1-12.4-36.4-2.1 0-4.2-.5-6.1-1.5s-3.5-2.4-4.6-4.2l-.1.1q-2.4 2.25-5.4 3.6c5.7 14.3 10.6 28.4 14.7 42.2-23.7 6-47.7 10.3-72 13 3.5-5.3 17.2-26.2 32.2-54.2-2.1-.8-4.2-1.9-6-3.2-1.1 1.2-3.6 4.2-10.9 4.2-6.2 11.2-17.4 30.9-33.9 55.2-37.4 3.3-75 3.6-112.4 1-7.9-11.2-21.5-31.1-36.8-57.8q-1.5-.6-3-1.5c-1.9 1.6-3.9 3.2-12.6 3.2 6.3 11.2 17.5 30.7 33.8 54.6a551 551 0 0 1-72.2-11.7q5.85-21 14.1-42.9c-3.2 0-5.4.2-8.4-1-2.2.8-4.6 1.1-6.9 1-4.9 13.4-9.1 26.5-12.7 39.4C-31.6 297-12 216 126.8 175.6c3.6 11.9 7.7 24.1 12.4 36.4 10.4 0 12.9 3.4 14.4 5.3.7-.8 1.4-1.6 2.3-2.2-5.8-14.7-10.9-29.2-15.2-43.3 7-1.8 32.4-8.4 72-13-15.9 24.3-26.7 43.9-32.8 55.3 3.1 1.8 5.3 4.6 6.4 8 2.5-3.7 6.1-6.6 10.2-8.4 6.5-11.7 17.9-31.9 34.8-56.9 37.4-3.3 75-3.6 112.4-1 31.5 44.6 28.9 48.1 42.5 64.5 2.6-3.5 6.3-6 10.4-7.4-6.4-11.4-17.6-31-34.3-55.5 40.4 4.1 65 10 72.2 11.7-4 14.4-8.9 29.2-14.6 44.2 2.5 1 4.8 2.4 6.8 4.3l.1.1c1-1.5 2.3-2.8 3.8-3.8s3.3-1.6 5.1-1.8c4.9-13.4 9.2-26.6 12.8-39.5 11.7 3.1 23.2 6.8 34.5 11 106.1 39.9 74 87.9 72.6 90.4-19.8 35.1-80.1 55.2-105.7 62.5m-114.4-114h-1.2c-.3 0-.5 0-.8.1s-.5.2-.6.4-.3.4-.4.6-.1.5-.1.8v49.8c0 7.9-2.6 11.1-10.1 11.1s-10.1-3.1-10.1-11.1v-49.8c0-.3 0-.5-.1-.8s-.2-.5-.4-.7-.4-.3-.7-.4-.5-.1-.8-.1H309c-.3 0-.5 0-.8.1s-.5.2-.7.4-.3.4-.4.6-.1.5-.1.8v51.5c0 9.6 5 14.1 15.1 14.1h.4c10.1 0 15.1-4.6 15.1-14.1v-51.5c0-.3-.1-.5-.2-.8s-.3-.5-.5-.6-.4-.3-.7-.4-.5-.1-.8-.1zM321.8 308l-2.3-6.8-2.3 6.8-7.1.1 5.7 4.3-2.1 6.8 5.8-4.1 5.8 4.1-2.1-6.8 5.7-4.3zm-31.1 7.4-2.3-6.8-2.3 6.8-7.1.1 5.7 4.3-2.1 6.8 5.8-4.1 5.8 4.1-2.1-6.8 5.7-4.3zm5.1-30.8h-19.4v-26.7h16.1c.3 0 .5 0 .8-.1s.5-.2.7-.4.3-.4.4-.7.1-.5.1-.8v-.8c0-.3 0-.5-.1-.8s-.2-.5-.4-.7-.4-.3-.7-.4-.5-.1-.8-.1h-16.1v-25.8h19.1c.3 0 .5 0 .8-.1s.5-.2.7-.4.3-.4.4-.7.1-.5.1-.8v-.8c0-.3 0-.5-.1-.8s-.2-.5-.4-.7-.4-.3-.7-.4-.5-.1-.8-.1h-22.2c-.3 0-.5 0-.8.1s-.5.2-.7.4-.3.4-.4.6-.1.5-.1.8v63c0 .3 0 .5.1.8s.2.5.4.6.4.3.7.4.5.1.8.1h22.5c.3 0 .5 0 .8-.1s.5-.2.7-.4.3-.4.4-.7.1-.5.1-.8v-.8c0-.3 0-.6-.1-.8s-.2-.5-.4-.7-.4-.4-.7-.4-.5-.1-.8-.1zm-7.4-99.4-2.3 6.8-7.1.1 5.7 4.3-2.1 6.8 5.8-4.1 5.8 4.1-2.1-6.8 5.7-4.3-7.1-.1z"/></svg>