<svg xmlns="http://www.w3.org/2000/svg" viewBox="0 0 448 512"><!--! Font Awesome Free 6.7.1 by @fontawesome - https://fontawesome.com License - https://fontawesome.com/license/free (Icons: CC BY 4.0, Fonts: SIL OFL 1.1, Code: MIT License) Copyright 2024 Fonticons, Inc.--><path d="M320 480H128C57.6 480 0 422.4 0 352V160C0 89.6 57.6 32 128 32h192c70.4 0 128 57.6 128 128v192c0 70.4-57.6 128-128 128M193.4 273.2c-6.1-2-11.6-3.1-16.4-3.1-7.2 0-13.5 1.9-18.9 5.6s-9.6 9-12.8 15.8h-1.1l-4.2-18.3h-28v138.9h36.1v-89.7q2.25-8.1 8.7-13.2c4.3-3.4 9.8-5.1 16.2-5.1 4.6 0 9.8 1 15.6 3.1zm115.2 103.4c-3.2 2.4-7.7 4.8-13.7 7.1s-12.8 3.5-20.4 3.5c-12.2 0-21.1-3-26.5-8.9q-8.25-8.85-9-26.4h83.3c.9-4.8 1.6-9.4 2.1-13.9.5-4.4.7-8.6.7-12.5 0-10.7-1.6-19.7-4.7-26.9-3.2-7.2-7.3-13-12.5-17.2-5.2-4.3-11.1-7.3-17.8-9.2-6.7-1.8-13.5-2.8-20.6-2.8q-31.65 0-49.2 18.3c-17.55 18.3-17.5 30.5-17.5 55q0 34.2 15.6 53.7c10.4 13.1 26.8 19.6 49.2 19.6 10.7 0 20.9-1.5 30.4-4.6s17.1-6.8 22.6-11.2zm-21.8-70.3c3.8 5.4 5.3 13.1 4.6 23.1h-51.7c.9-9.4 3.7-17 8.2-22.6s11.5-8.5 21-8.5c8.2-.1 14.1 2.6 17.9 8m79.9 2.5c4.1 3.9 9.4 5.8 16.1 5.8 7 0 12.6-1.9 16.7-5.8s6.1-9.1 6.1-15.6-2-11.6-6.1-15.4-9.6-5.7-16.7-5.7c-6.7 0-12 1.9-16.1 5.7s-6.1 8.9-6.1 15.4 2 11.7 6.1 15.6m0 100.5c4.1 3.9 9.4 5.8 16.1 5.8 7 0 12.6-1.9 16.7-5.8s6.1-9.1 6.1-15.6-2-11.6-6.1-15.4-9.6-5.7-16.7-5.7c-6.7 0-12 1.9-16.1 5.7s-6.1 8.9-6.1 15.4c0 6.6 2 11.7 6.1 15.6"/></svg>