<svg xmlns="http://www.w3.org/2000/svg" viewBox="0 0 512 512"><!--! Font Awesome Free 7.1.0 by @fontawesome - https://fontawesome.com License - https://fontawesome.com/license/free (Icons: CC BY 4.0, Fonts: SIL OFL 1.1, Code: MIT License) Copyright 2025 Fonticons, Inc.--><path d="m274.7 274.7-37.4-37.4L166 346zM256 8a248 248 0 1 0 0 496 248 248 0 1 0 0-496m155.8 174.8 14.8-6.1c1-.4 2-.6 3.1-.6s2.1.2 3.1.6 1.8 1 2.6 1.7 1.3 1.6 1.7 2.6.6 2 .6 3.1-.2 2.1-.6 3.1-1 1.9-1.7 2.6-1.6 1.3-2.6 1.7l-14.8 6.1c-2 .8-4.2.8-6.1 0s-3.5-2.4-4.3-4.3-.8-4.2 0-6.1 2.4-3.5 4.3-4.3zM314.4 94l6.1-14.8c.8-2 2.4-3.5 4.3-4.3s4.2-.8 6.1 0 3.5 2.4 4.3 4.3.8 4.2 0 6.1l-6.1 14.8c-.8 2-2.4 3.5-4.3 4.3s-4.2.8-6.1 0c-1-.4-1.9-1-2.6-1.7s-1.3-1.6-1.7-2.6-.6-2-.6-3.1.2-2.1.6-3.1zM256 60c2.1 0 4.2.8 5.7 2.3s2.3 3.6 2.3 5.7v16c0 2.1-.8 4.2-2.3 5.7S258.2 92 256 92s-4.2-.8-5.7-2.3-2.3-3.5-2.3-5.7V68c0-2.1.8-4.2 2.3-5.7s3.6-2.3 5.7-2.3m-75 14.9c1-.4 2-.6 3.1-.6s2.1.2 3.1.6 1.9 1 2.6 1.7 1.3 1.6 1.7 2.6l6.1 14.8c.4 1 .7 2 .7 3.1s-.2 2.1-.6 3.1-1 1.9-1.7 2.6-1.6 1.4-2.6 1.8-2 .6-3.1.6-2.1-.2-3.1-.6-1.9-1-2.6-1.8-1.3-1.7-1.7-2.7l-6.1-14.8c-.8-2-.8-4.2 0-6.1s2.4-3.5 4.3-4.3zm-63.6 42.5c1.5-1.5 3.5-2.3 5.7-2.3s4.2.8 5.7 2.3l11.2 11.3c1.5 1.5 2.3 3.5 2.3 5.6s-.8 4.1-2.3 5.6-3.5 2.3-5.7 2.3-4.2-.8-5.7-2.3l-11.3-11.3c-1.5-1.5-2.3-3.5-2.3-5.6s.8-4.1 2.3-5.6zM60 256c0-2.1.8-4.2 2.3-5.7s3.6-2.3 5.7-2.3h16c2.1 0 4.2.8 5.7 2.3s2.3 3.5 2.3 5.7-.8 4.2-2.3 5.7-3.5 2.3-5.7 2.3H68c-2.1 0-4.2-.8-5.7-2.3S60 258.1 60 256m40.2 73.2-14.8 6.1c-1 .4-2 .6-3.1.6s-2.1-.2-3.1-.6-1.9-1-2.6-1.7-1.3-1.6-1.7-2.6-.6-2-.6-3.1.2-2.1.6-3.1 1-1.9 1.7-2.6 1.6-1.3 2.6-1.7l14.8-6.1c2-.8 4.2-.8 6.1 0s3.5 2.4 4.3 4.3.8 4.2 0 6.1-2.4 3.5-4.3 4.3zm4.3-136c-.4 1-1 1.9-1.7 2.6s-1.6 1.3-2.6 1.7-2 .6-3.1.6-2.1-.2-3.1-.6l-14.8-6.1c-2-.8-3.5-2.4-4.3-4.3s-.8-4.2 0-6.1 2.4-3.5 4.3-4.3 4.2-.8 6.1 0l14.8 6.1c2 .8 3.5 2.4 4.3 4.3s.8 4.2 0 6.1zM197.6 418l-6.1 14.8c-.4 1-1 1.9-1.7 2.6s-1.6 1.3-2.6 1.7-2 .6-3.1.6-2.1-.2-3.1-.6-1.9-1-2.6-1.7-1.3-1.6-1.7-2.6-.6-2-.6-3.1.2-2.1.6-3.1l6.1-14.8c.4-1 1-1.9 1.7-2.7s1.6-1.4 2.6-1.8 2-.6 3.1-.6 2.1.2 3.1.6 1.9 1 2.6 1.8 1.3 1.7 1.7 2.6.6 2 .6 3.1-.2 2.1-.7 3.1zm66.4 26c0 2.1-.8 4.2-2.3 5.7s-3.5 2.3-5.7 2.3-4.2-.8-5.7-2.3-2.3-3.5-2.3-5.7v-16c0-2.1.8-4.2 2.3-5.7s3.5-2.3 5.7-2.3 4.2.8 5.7 2.3 2.3 3.5 2.3 5.7zm67-6.9c-1 .4-2 .6-3.1.6s-2.1-.2-3.1-.6-1.9-1-2.6-1.7-1.3-1.6-1.7-2.6l-6.1-14.8c-.8-2-.8-4.2 0-6.1s2.4-3.5 4.3-4.3 4.2-.8 6.1 0 3.5 2.4 4.3 4.3l6.1 14.8c.8 2 .8 4.2 0 6.1s-2.4 3.5-4.3 4.3zm63.6-42.5c-1.5 1.5-3.5 2.3-5.7 2.3s-4.2-.8-5.7-2.3L372 383.3c-1.5-1.5-2.3-3.5-2.3-5.6s.8-4.1 2.3-5.6 3.5-2.3 5.7-2.3 4.2.8 5.7 2.3l11.3 11.3c1.5 1.5 2.3 3.5 2.3 5.6s-.8 4.1-2.3 5.6zM286.2 286.2 110.3 401.7l115.5-175.9 175.9-115.5zM437.1 331c-.8 2-2.4 3.5-4.3 4.3s-4.2.8-6.1 0l-14.8-6.1c-2-.8-3.5-2.4-4.3-4.3s-.8-4.2 0-6.1c.4-1 1-1.9 1.7-2.6s1.6-1.3 2.6-1.7 2-.6 3.1-.6 2.1.2 3.1.6l14.8 6.1c2 .8 3.5 2.4 4.3 4.3s.8 4.2 0 6.1zm6.9-67h-16c-2.1 0-4.2-.8-5.7-2.3s-2.3-3.5-2.3-5.7.8-4.2 2.3-5.7 3.5-2.3 5.7-2.3h16c2.1 0 4.2.8 5.7 2.3s2.3 3.5 2.3 5.7-.8 4.2-2.3 5.7-3.5 2.3-5.7 2.3"/></svg>