<svg xmlns="http://www.w3.org/2000/svg" viewBox="0 0 640 512"><!--! Font Awesome Free 7.1.0 by @fontawesome - https://fontawesome.com License - https://fontawesome.com/license/free (Icons: CC BY 4.0, Fonts: SIL OFL 1.1, Code: MIT License) Copyright 2025 Fonticons, Inc.--><path d="M249.4 245.6H223c.7-5.2 3.3-14.1 13.6-14.1 6.8 0 12 3.8 12.7 14.1zM386 231.8c-.5 0-14.1-1.8-14.1 20s13.6 20 14.1 20c13 0 14.1-13.5 14.1-20 0-21.8-13.7-20-14.1-20m-243.2 23.7c-1.1.9-2 2-2.5 3.2s-.8 2.7-.7 4c0 4.8 2.1 6.1 3.3 7 4.7 3.7 15.1 2.1 20.9 1v-16.9c-5.3-1.1-16.7-2-20.9 1.6zM640.5 232c0 87.6-80 154.4-165.4 136.4-18.4 33-70.7 70.8-132.2 41.6-41.2 96-177.9 92.2-213.8-5.2C9.4 428.7-49.7 266.4 53.8 205.5 19 126.1 76.4 31.9 168.1 31.9c19.1 0 37.9 4.4 55 12.9s32 20.7 43.6 35.8c20.7-21.4 49.4-34.8 81.1-34.8 42.3 0 79 23.5 98.8 58.6 92.8-40.7 193.8 28.2 193.8 127.5zm-519.6 31.8c0-11.8-11.7-15.2-17.9-17.2-5.3-2.1-13.4-3.5-13.4-8.9 0-9.5 17-6.7 25.2-2.1 0 0 1.2.7 1.6-.5.2-.7 2.4-6.6 2.6-7.3.1-.3.1-.6-.1-.8s-.4-.5-.6-.6c-12.3-7.6-40.7-8.5-40.7 12.7 0 12.5 11.5 15.4 17.9 17.2 4.7 1.6 13.2 3 13.2 8.7 0 4-3.5 7.1-9.2 7.1-6.9 0-13.5-2.2-19-6.3-.5-.2-1.4-.7-1.6.7l-2.4 7.5c-.5.9.2 1.2.2 1.4 1.8 1.4 10.3 6.6 22.8 6.6 13.2 0 21.4-7.1 21.4-18.1zm32-42.6c-10.1 0-18.7 3.2-21.4 5.2l-.3.3c-.1.1-.1.2-.1.4v.4c0 .1.1.3.2.4l2.6 7.1c.1.2.2.5.5.6s.5.2.7.1c.6 0 6.8-4 16.9-4 4 0 7.1.7 9.2 2.4 3.6 2.8 3.1 8.3 3.1 10.6-4.8-.3-19.1-3.4-29.4 3.8-2.3 1.6-4.3 3.8-5.5 6.3s-1.9 5.4-1.8 8.2c0 5.9 1.5 10.4 6.6 14.4 12.2 8.2 36.3 2 38.1 1.4 1.6-.3 3.5-.7 3.5-1.9V243c0-4.6.3-21.6-22.8-21.6v.1zm46.6-21c0-.2 0-.3-.1-.5s-.1-.3-.3-.4-.2-.2-.4-.3-.3-.1-.5-.1h-9.8c-.2 0-.3 0-.5.1s-.3.1-.4.3-.2.2-.3.4-.1.3-.1.5v79c0 .2 0 .3.1.5s.1.3.3.4.2.2.4.3.3.1.5.1h9.9c.2 0 .3 0 .5-.1s.3-.1.4-.3.2-.2.3-.4.1-.3.1-.5zm55.7 28.9c-2.1-2.3-6.8-7.5-17.6-7.5-3.5 0-14.2.2-20.7 8.9-6.4 7.6-6.6 18.1-6.6 21.4 0 3.1.2 14.3 7.1 21.2 2.6 2.9 9.1 8.2 22.8 8.2 10.8 0 16.5-2.3 18.6-3.8.5-.2.7-.7.2-1.9l-2.3-6.8q-.15-.45-.6-.6c-.45-.15-.5-.2-.8-.1-2.6.9-6.3 2.8-15.3 2.8-17.4 0-16.8-14.7-16.9-16.7h37.2c.3 0 .5-.1.7-.3s.4-.4.4-.7c-.3 0 2.1-14.7-6.1-24.2zm36.7 52.7c13.2 0 21.4-7.1 21.4-18.1 0-11.8-11.7-15.2-17.9-17.2-4.1-1.7-13.4-3.4-13.4-8.9 0-3.8 3.3-6.4 8.5-6.4 5.8.1 11.5 1.6 16.7 4.2 0 0 1.2.7 1.6-.5.2-.7 2.4-6.6 2.6-7.3.1-.3.1-.6-.1-.8s-.4-.5-.6-.6c-7.9-4.9-16.7-4.9-20.2-4.9-12 0-20.5 7.3-20.5 17.6 0 12.5 11.5 15.4 17.9 17.2 6.1 2 13.2 3.3 13.2 8.7 0 4-3.5 7.1-9.2 7.1-6.9 0-13.5-2.2-19-6.4-.1-.1-.3-.2-.5-.2s-.4 0-.5.1-.3.2-.4.3-.2.3-.2.5l-2.3 7.5c-.5.9.2 1.2.2 1.4 1.7 1.4 10.3 6.6 22.8 6.6zm65.7-57.8c0-.7-.2-1.2-1.2-1.2h-11.8c0-.1.9-8.9 4.5-12.5 4.2-4.2 11.8-1.6 12-1.6 1.2.5 1.4 0 1.6-.5l2.8-7.8c.7-.9 0-1.2-.2-1.4-5.1-2-17.4-2.9-24.5 4.2-5.5 5.5-7 13.9-8 19.5h-8.5c-.3 0-.6.2-.8.4s-.3.5-.4.8l-1.4 7.8c0 .7.2 1.2 1.2 1.2h8.2c-8.5 47.9-8.7 50.2-10.3 55.5-1.1 3.6-3.3 6.9-5.9 7.8-.1 0-3.9 1.7-9.6-.2 0 0-.9-.5-1.4.7-.2.7-2.6 6.8-2.8 7.5s0 1.4.5 1.4c5.1 2 13 1.8 17.9 0 6.3-2.3 9.7-7.9 11.5-12.9 2.8-7.7 2.8-9.8 11.8-59.7H355c.3 0 .6-.2.8-.4s.3-.5.4-.8zm53.4 16c-.6-1.7-5.1-18.1-25.2-18.1-15.2 0-23 10-25.2 18.1-1 3-3.2 14 0 23.5.1.3 4.4 18.1 25.2 18.1 15 0 22.9-9.6 25.2-18.1 3.2-9.6 1-20.5 0-23.5m45.4-16.7c-5-1.7-16.6-1.9-22.1 5.4v-4.5c0-.2 0-.3-.1-.5s-.1-.3-.3-.4-.2-.2-.4-.3-.3-.1-.5-.1h-9.4c-.2 0-.3 0-.5.1s-.3.1-.4.3-.2.2-.3.4-.1.3-.1.5v55.3c0 .2 0 .3.1.5s.1.3.3.4.2.2.4.3.3.1.5.1h9.6c.2 0 .3 0 .5-.1s.3-.1.4-.3.2-.2.3-.4.1-.3.1-.5v-27.8c0-2.9.1-11.4 4.5-15.1 4.9-4.9 12-3.4 13.4-3.1.3 0 .6-.1.8-.3s.4-.4.6-.7c1.2-2.6 2.2-5.3 3.1-8 .1-.3.1-.5 0-.8s-.3-.5-.5-.6zm46.8 54.1-2.1-7.3c-.5-1.2-1.4-.7-1.4-.7-4.2 1.8-10.1 1.9-11.3 1.9-4.6 0-17.2-1.1-17.2-19.8 0-6.2 1.8-19.8 16.5-19.8 3.9-.1 7.8.5 11.5 1.6 0 0 .9.5 1.2-.7.9-2.6 1.6-4.5 2.6-7.5.2-.9-.5-1.2-.7-1.2-11.6-3.9-22.3-2.5-27.8 0-1.6.7-16.2 6.5-16.2 27.5 0 2.9-.6 30.1 28.9 30.1 5.3 0 10.6-1 15.5-2.8.2-.2.4-.4.5-.6s.1-.5 0-.8zm53.9-39.5c-.8-3-5.4-16.2-22.3-16.2-16 0-23.5 10.1-25.6 18.6-1.2 3.8-1.7 7.8-1.7 11.8 0 25.9 18.8 29.4 29.9 29.4 10.8 0 16.5-2.3 18.6-3.8.5-.2.7-.7.2-1.9l-2.4-6.8q-.15-.45-.6-.6c-.45-.15-.6-.2-.8-.1-2.6.9-6.3 2.8-15.3 2.8-17.4 0-16.9-14.7-16.9-16.7h37.2c.3 0 .5-.1.7-.3s.4-.4.4-.7c-.2 0 .9-7.1-1.4-15.5m-23.3-6.4c-10.3 0-13 9-13.6 14.1h26.4c-.9-11.9-7.6-14.1-12.7-14.1z"/></svg>