<svg xmlns="http://www.w3.org/2000/svg" viewBox="0 0 512 512"><!--! Font Awesome Free 6.7.2 by @fontawesome - https://fontawesome.com License - https://fontawesome.com/license/free (Icons: CC BY 4.0, Fonts: SIL OFL 1.1, Code: MIT License) Copyright 2024 Fonticons, Inc.--><path d="M256 0c13.3 0 26.3 1 39.1 3l-3.7 23.7C279.9 24.9 268 24 256 24s-23.9.9-35.4 2.7L216.9 3c12.8-2 25.8-3 39.1-3m60.8 7.3-5.7 23.3c23.4 5.7 45.4 14.9 65.4 27.1L389 37.2c-22.1-13.4-46.4-23.6-72.2-29.9m90.5 42.2-14.2 19.3c19.1 14 36 30.9 50.1 50.1l19.4-14.2C447 83.6 428.4 65 407.3 49.5m67.5 73.6-20.5 12.5c12.2 20 21.4 42 27.1 65.4l23.3-5.7c-6.3-25.8-16.5-50.1-29.9-72.2m34.2 93.8-23.7 3.7c1.8 11.5 2.7 23.4 2.7 35.4s-.9 23.9-2.7 35.4l23.7 3.7c1.9-12.7 3-25.8 3-39.1s-1-26.3-3-39.1m-54.7 159.6c12.2-20 21.4-42 27.1-65.4l23.3 5.7c-6.3 25.8-16.5 50.1-29.9 72.2zm-11.1 16.6 19.4 14.2c-15.5 21.1-34.1 39.8-55.2 55.2l-14.2-19.4c19.1-14 36-30.9 50.1-50.1zm-66.7 61.2 12.5 20.5c-22.1 13.4-46.4 23.6-72.2 29.9l-5.7-23.3c23.4-5.7 45.4-14.9 65.4-27.1m-85.1 31 3.7 23.7c-12.7 1.9-25.8 3-39.1 3s-26.3-1-39.1-3l3.7-23.7c11.5 1.8 23.4 2.7 35.4 2.7s23.9-.9 35.4-2.7m-90.5-3.9-5.7 23.3c-19.4-4.7-37.9-11.6-55.3-20.5l-24.3 5.7-5.5-23.4 32.8-7.7 7.8 4c15.7 8 32.5 14.3 50.1 18.6zM90 471.3l5.5 23.4-41.6 9.7C26 510.8 1.2 486 7.6 458.2l9.7-41.6 23.4 5.4-9.7 41.7c-2.4 10.4 6.9 19.7 17.3 17.3zm-44.5-69.5-23.4-5.5 5.7-24.3c-8.9-17.3-15.8-35.9-20.5-55.3l23.3-5.7c4.3 17.6 10.6 34.4 18.6 50.1l4 7.8-7.7 32.8zM26.7 291.4 3 295.1c-2-12.8-3-25.8-3-39.1s1-26.3 3-39.1l23.7 3.7C24.9 232.1 24 244 24 256s.9 23.9 2.7 35.4m3.9-90.5-23.3-5.7c6.3-25.8 16.5-50.1 29.9-72.2l20.5 12.5c-12.2 20-21.4 42-27.1 65.4m38.3-82.1-19.4-14.1C65 83.6 83.6 65 104.7 49.5l14.2 19.4c-19.1 14-36 30.9-50.1 50.1zm66.7-61.2-12.5-20.4c22.1-13.4 46.4-23.6 72.2-29.9l5.7 23.3c-23.4 5.7-45.4 14.9-65.4 27.1zM464 256c0 114.9-93.1 208-208 208-36.4 0-70.7-9.4-100.5-25.8-2.9-1.6-6.2-2.1-9.4-1.4l-92.5 21.6 21.6-92.5c.7-3.2.2-6.5-1.4-9.4C57.4 326.7 48 292.4 48 256c0-114.9 93.1-208 208-208s208 93.1 208 208"/></svg>