<svg xmlns="http://www.w3.org/2000/svg" viewBox="0 0 512 512"><!--! Font Awesome Free 7.1.0 by @fontawesome - https://fontawesome.com License - https://fontawesome.com/license/free (Icons: CC BY 4.0, Fonts: SIL OFL 1.1, Code: MIT License) Copyright 2025 Fonticons, Inc.--><path d="M27.8 162.2 9.3 187.1h90.5l6.9-130.7zM396.6 45.7 268 32l135.7 147.2zM112.5 218.3l-11.2-22H10.2L235.1 458zm2-31.2h284C340.6 124.3 293.3 72.9 256.6 33zm297.3 9.1L277.9 458l224.8-261.7h-90.9zM415.7 69l-9.4-12.6.9 17.3 6.1 113.4h90.3zM113.8 93.5l-4.6 85.6L245 32 116.4 45.7zm287.7 102.7h-290c18.2 35.6 66.6 130.2 145.1 283.8z"/></svg>