<svg xmlns="http://www.w3.org/2000/svg" viewBox="0 0 448 512"><!--! Font Awesome Free 7.1.0 by @fontawesome - https://fontawesome.com License - https://fontawesome.com/license/free (Icons: CC BY 4.0, Fonts: SIL OFL 1.1, Code: MIT License) Copyright 2025 Fonticons, Inc.--><path d="M94.1 315.1c0 25.9-21.2 47.1-47.1 47.1S0 341 0 315.1 21.2 268 47.1 268h47.1v47.1zm23.7 0c0-25.9 21.2-47.1 47.1-47.1s47.1 21.2 47.1 47.1v117.8c0 25.9-21.2 47.1-47.1 47.1s-47.1-21.2-47.1-47.1zm47.1-189c-25.9 0-47.1-21.2-47.1-47.1s21.2-47 47.1-47S212 53.2 212 79.1v47.1h-47.1zm0 23.7c25.9 0 47.1 21.2 47.1 47.1S190.8 244 164.9 244H47.1C21.2 244 0 222.8 0 196.9s21.2-47.1 47.1-47.1zm189 47.1c0-25.9 21.2-47.1 47.1-47.1s47 21.2 47 47.1-21.2 47.1-47.1 47.1h-47.1v-47.1zm-23.7 0c0 25.9-21.2 47.1-47.1 47.1S236 222.8 236 196.9V79.1c0-25.9 21.2-47.1 47.1-47.1s47.1 21.2 47.1 47.1zm-47.1 189c25.9 0 47.1 21.2 47.1 47.1s-21.2 47-47.1 47-47.1-21.2-47.1-47.1v-47.1h47.1zm0-23.7c-25.9 0-47.1-21.2-47.1-47.1s21.2-47.1 47.1-47.1h117.8c25.9 0 47.1 21.2 47.1 47.1s-21.2 47.1-47.1 47.1z"/></svg>