<svg xmlns="http://www.w3.org/2000/svg" viewBox="0 0 512 512"><!--! Font Awesome Free 7.1.0 by @fontawesome - https://fontawesome.com License - https://fontawesome.com/license/free (Icons: CC BY 4.0, Fonts: SIL OFL 1.1, Code: MIT License) Copyright 2025 Fonticons, Inc.--><path d="M186.1 343.3c-9.7 9.7-9.7 25.3 0 34.9s25.3 9.6 34.9 0l157.3-157.1c19.3-19.3 50.6-19.3 69.9 0s19.3 50.6 0 69.9L294 445.1c19.3 19.3 50.5 19.3 69.8 0l119.3-119.2c38.6-38.6 38.6-101.1 0-139.7s-101.2-38.6-139.7 0zm244.6-104.8c-9.7-9.7-25.3-9.7-34.9 0L238.5 395.7c-19.3 19.3-50.5 19.3-69.8 0-9.6-9.6-25.3-9.7-34.9 0-9.7 9.6-9.7 25.3 0 34.9 38.6 38.6 101.1 38.6 139.7 0l157.2-157.1c9.6-9.7 9.6-25.3 0-34.9zm-262 87.3 157.2-157.1c9.6-9.6 9.6-25.3 0-34.9s-25.3-9.6-34.9 0L133.7 290.9c-19.3 19.3-50.6 19.3-69.9 0s-19.3-50.5 0-69.8L218 66.9c-19.3-19.3-50.5-19.3-69.8 0L29 186.2c-38.6 38.6-38.6 101.1 0 139.7s101.1 38.6 139.7 0zm-87.4-52.3c9.6 9.6 25.3 9.6 34.9 0l157.3-157.2c19.3-19.3 50.6-19.3 69.8 0 9.7 9.6 25.3 9.6 34.9 0s9.6-25.3 0-34.9c-38.6-38.6-101.1-38.6-139.7 0L81.3 238.5c-9.6 9.6-9.6 25.3 0 34.9z"/></svg>