<svg xmlns="http://www.w3.org/2000/svg" viewBox="0 0 320 512"><!--! Font Awesome Free 7.1.0 by @fontawesome - https://fontawesome.com License - https://fontawesome.com/license/free (Icons: CC BY 4.0, Fonts: SIL OFL 1.1, Code: MIT License) Copyright 2025 Fonticons, Inc.--><path d="M40.5 495.8c1.4 19.9-27.6 22.2-29.7 2.9C-.8 368.8 41.9 259.2 112.2 185.5c-15.6-34 9.2-77.1 50.6-77.1 30.3 0 55.1 24.6 55.1 55.1 0 44-49.5 70.8-86.9 45.1-65.7 71.3-101.4 169.8-90.5 287.2M160.2.1C34.3.1-44.1 134.3 11.9 242.4c8.7 17.4 35.3 4.5 26.3-13.4-46.3-92.6 21-199.2 122-199.2 75.4 0 136.9 61.4 136.9 136.9 0 90.8-86.9 153.9-167.7 133.1-19.1-4.1-25.6 24.4-6.6 29.1 110.7 23.2 204-60 204-162.3C326.8 74.7 252.2.1 160.2.1"/></svg>