<svg xmlns="http://www.w3.org/2000/svg" viewBox="0 0 640 512"><!--! Font Awesome Free 7.1.0 by @fontawesome - https://fontawesome.com License - https://fontawesome.com/license/free (Icons: CC BY 4.0, Fonts: SIL OFL 1.1, Code: MIT License) Copyright 2025 Fonticons, Inc.--><path d="M107.2 48h-1.3c-32.3 33.1-65.4 65.5-98 98.5-2.6 2.8-6.1 5.1-7.9 8.6 35.6 35.4 71 71 106.6 106.4 35.4-35.3 70.7-70.8 106.1-106.1v-1.3l-73.2-73.2c-10.7-11.1-22.2-21.3-32.3-32.9m213.5 0h-1.3c-34.9 36.1-71.5 71-106.3 107.2 35.9 35.1 71 71 106.7 106.3 34.3-34.1 68.4-68.4 102.6-102.4 1.5-1.5 3.3-2.8 4.1-4.8-34.6-33.8-68.4-68.2-102.6-102.1-1.3-1.3-2.3-2.6-3.3-4.1zm213.5 0h-1.3c-17.2 18-35.1 35.3-52.6 53-17.9 17.7-35.4 35.7-53.5 53.3.8 2.3 3 3.6 4.6 5.5l101.9 101.7c36.1-34.9 70.8-71.2 106.7-106.1-.5-2.2-2.6-3.5-4-5l-80.2-80.2c-7.1-7.4-14.9-14.2-21.5-22.2zM319.6 261.7c-34.9 35.1-70 70-104.9 104.9-.3.7-.7 1.7-1 2.3 24 23.7 47.7 47.5 71.5 71.3 11.8 11.3 22.8 23.5 34.9 34.4 8.4-7.4 16.4-16.4 24.7-24.3 25.5-25.3 51-51 76.5-76.3 1.8-2.2 4.3-3.6 5.5-6.3-35.4-34.9-70.5-70.2-105.6-105.4l-1.5-.7z"/></svg>