<svg xmlns="http://www.w3.org/2000/svg" viewBox="0 0 512 512"><!--! Font Awesome Free 7.1.0 by @fontawesome - https://fontawesome.com License - https://fontawesome.com/license/free (Icons: CC BY 4.0, Fonts: SIL OFL 1.1, Code: MIT License) Copyright 2025 Fonticons, Inc.--><path d="M256 8.8a247.2 247.2 0 1 0 0 494.4 247.2 247.2 0 1 0 0-494.4m0 11.6a235.6 235.6 0 1 1 0 471.2 235.6 235.6 0 1 1 0-471.2m155.1 142.7v-46.8H217.3V198H62.2l36.7 46h117.7v196.8h48.8V245h83.3v-47h-83.3v-34.8h145.7zm-73.3 45.1v23.9h-82.9v197.4h-26.8V232.1H104.3l-20.1-23.9h143.9v-80.6h171.8V152h-145v56.2zm-161.3-69-12.4-20.7 2.1 23.8-23.5 5.4 23.3 5.4-2.1 24 12.3-20.5 22.2 9.5-15.7-18.1 15.8-18.1zm-29.6-19.7 9.3-11.5-12.7 5.9-8-12.4 1.7 13.9-14.3 3.8 13.7 2.7-.8 14.7 6.8-12.2 13.8 5.3zm165.4 145.2-13.1 5.6-7.3-12.2 1.3 14.2-13.9 3.2 13.9 3.2-1.2 14.2 7.3-12.2 13.1 5.5-9.4-10.7zm106.9-77.2-20.9 9.1-12-19.6 2.2 22.7-22.3 5.4 22.2 4.9-1.8 22.9 11.5-19.6 21.2 8.8-15.1-17zM256 29.9a226.1 226.1 0 1 0 0 452.2 226.1 226.1 0 1 0 0-452.2M350.6 196v51h-83.3v195.7h-52.7V245.9H97.9l-40-49.9h157.4v-81.6h197.8v50.7H267.4V196zM256 43.2c60.3 0 114.8 25 153.6 65.2H210.5V190H53.1C81.1 104.8 161.4 43.2 256 43.2m0 427.1c-117.9 0-213.6-95.6-213.6-213.5 0-21.2 3.1-41.8 8.9-61.1L95.1 252h114.7v196.8h64.6V253h83.3v-62.7h-83.2v-19.2h145.6v-50.8c30.8 37 49.3 84.6 49.3 136.5.1 117.9-95.5 213.5-213.4 213.5M186.8 275l-11-21.4 1.7 24.5-23.7 3.9 23.8 5.9-3.7 23.8 13-20.9 21.5 10.8-15.8-18.8 16.9-17.1z"/></svg>