<svg xmlns="http://www.w3.org/2000/svg" viewBox="0 0 448 512"><!--! Font Awesome Free 6.7.2 by @fontawesome - https://fontawesome.com License - https://fontawesome.com/license/free (Icons: CC BY 4.0, Fonts: SIL OFL 1.1, Code: MIT License) Copyright 2024 Fonticons, Inc.--><path d="M171.73 232.813a5.38 5.38 0 0 0 4.97-3.313 48.1 48.1 0 0 1 14.9-25.256c1.243-.828 1.657-2.484 1.657-4.141a4.22 4.22 0 0 0-2.071-3.312L74.429 128.473 148.958 85a9.94 9.94 0 0 0 4.968-8.281 9.11 9.11 0 0 0-4.968-8.281L126.6 55.6a9.75 9.75 0 0 0-9.523 0l-100.2 57.966a9.94 9.94 0 0 0-4.969 8.281v115.107a9.11 9.11 0 0 0 4.969 8.281l22.358 12.835a8.83 8.83 0 0 0 4.968 1.242 9.4 9.4 0 0 0 6.625-2.484 10.8 10.8 0 0 0 2.9-7.039V164.5l115.932 67.9a4.5 4.5 0 0 0 2.07.413M323.272 377.73a12.5 12.5 0 0 0-4.969 1.242l-74.528 43.062V287.882c0-2.9-2.9-5.8-6.211-4.555a53.04 53.04 0 0 1-28.984.414 4.86 4.86 0 0 0-6.21 4.555v133.323l-74.529-43.061a8.83 8.83 0 0 0-4.969-1.242 9.63 9.63 0 0 0-9.523 9.523v26.085a9.11 9.11 0 0 0 4.969 8.281l100.2 57.553a8.83 8.83 0 0 0 4.968 1.242 11 11 0 0 0 4.969-1.242l100.2-57.553a9.94 9.94 0 0 0 4.968-8.281v-26.085c-.823-4.554-5.383-9.109-10.351-9.109M286.007 78a23 23 0 1 0-23-23 23 23 0 0 0 23 23m63.627-10.086a23 23 0 1 0 23 23 23 23 0 0 0-23-23m63.182 83.686a23 23 0 1 0-23-23 23 23 0 0 0 23 23m-63.182-9.2a23 23 0 1 0 23 23 23 23 0 0 0-23-23m-63.627 83.244a23 23 0 1 0-23-23 23 23 0 0 0 23 23.004Zm-62.074 36.358a23 23 0 1 0-23-23 23 23 0 0 0 23 23.004Zm188.883-82.358a23 23 0 1 0 23 23 23 23 0 0 0-23-22.996Zm0 72.272a23 23 0 1 0 23 23 23 23 0 0 0-23-22.996Z"/></svg>