<svg xmlns="http://www.w3.org/2000/svg" viewBox="0 0 448 512"><!--! Font Awesome Free 7.1.0 by @fontawesome - https://fontawesome.com License - https://fontawesome.com/license/free (Icons: CC BY 4.0, Fonts: SIL OFL 1.1, Code: MIT License) Copyright 2025 Fonticons, Inc.--><path d="m243.6 91.6 80.1 46.8c2.9 1.6 3 6.2 0 7.8l-95.2 55.6c-2.9 1.7-6.3 1.6-9 0l-95.2-55.6c-2.9-1.6-3-6.3 0-7.8l80.1-46.8V0L0 119.4v238.8l78.4-45.8v-93.6c-.1-3.3 3.8-5.7 6.7-3.9l95.2 55.6c2.9 1.7 4.5 4.7 4.5 7.8v111.2c.1 3.3-3.8 5.7-6.7 3.9L98 346.8l-78.4 45.8L224 512l204.4-119.4-78.4-45.8-80.1 46.8c-2.8 1.7-6.8-.5-6.7-3.9V278.5c0-3.3 1.8-6.3 4.5-7.8l95.2-55.7c2.8-1.7 6.8.5 6.7 3.9v93.6l78.4 45.8V119.5L243.6.1v91.6z"/></svg>