<svg xmlns="http://www.w3.org/2000/svg" viewBox="0 0 448 512"><!--! Font Awesome Free 6.5.1 by @fontawesome - https://fontawesome.com License - https://fontawesome.com/license/free (Icons: CC BY 4.0, Fonts: SIL OFL 1.1, Code: MIT License) Copyright 2023 Fonticons, Inc.--><path d="M64 32C28.7 32 0 60.7 0 96v320c0 35.3 28.7 64 64 64h320c35.3 0 64-28.7 64-64V96c0-35.3-28.7-64-64-64H64zm206.8 242.3c5.2 8.4 23.6 29.9 51.5 29.9 25.2 0 44.9-20.2 44.9-49.7s-19.4-49.7-44.9-49.7-44.9 16.7-51.5 69.5zm-26.7-41.8c7.3-30.5 32.7-60.1 78.2-60.1 45.1 0 80.9 35.2 80.9 82.2s-35.9 81.9-80.9 81.9h-3.4c-14.5-.5-28.7-4.8-40.9-12.6-4.7-2.8-9.1-6-13.4-9.5l-12.8 78.4h-36.9l19.4-110.6c-20.8-29.1-31.6-62.4-36.2-79.7V255c0 48-30.5 81.5-74.2 81.5-22 0-41-8-54.8-23.3-13.4-14.8-20.8-35.5-20.8-58.3v-78.1h36.2l-.3 78.2c0 28.4 14.5 49.3 39.8 49.3s38.2-20.9 38.2-49.3v-78.2H225c4.8 19.3 10.9 40.1 19.2 55.6z"/></svg>