<svg xmlns="http://www.w3.org/2000/svg" viewBox="0 0 448 512"><!--! Font Awesome Free 7.1.0 by @fontawesome - https://fontawesome.com License - https://fontawesome.com/license/free (Icons: CC BY 4.0, Fonts: SIL OFL 1.1, Code: MIT License) Copyright 2025 Fonticons, Inc.--><path d="M31.5 63.5C0 95 0 145.7 0 247v18c0 101.3 0 152 31.5 183.5S113.7 480 215 480h17.9c101.4 0 152.1 0 183.5-31.5S448 366.3 448 265v-17.9c0-101.4 0-152.1-31.5-183.5S334.3 32 233 32h-18C113.7 32 63 32 31.5 63.5m44.1 104.8h51.1c1.7 85.5 39.4 121.7 69.3 129.2V168.3h48.2V242c29.5-3.2 60.5-36.8 70.9-73.7h48.2c-3.9 19.2-11.8 37.3-23.1 53.3s-25.7 29.5-42.5 39.6c18.7 9.3 35.2 22.4 48.4 38.5s22.9 34.9 28.3 55h-53c-4.9-17.5-14.8-33.1-28.6-45s-30.7-19.4-48.7-21.6v66.6h-5.8c-102.1 0-160.3-70-162.8-186.5z"/></svg>