<svg xmlns="http://www.w3.org/2000/svg" viewBox="0 0 512 512"><!--! Font Awesome Free 7.1.0 by @fontawesome - https://fontawesome.com License - https://fontawesome.com/license/free (Icons: CC BY 4.0, Fonts: SIL OFL 1.1, Code: MIT License) Copyright 2025 Fonticons, Inc.--><path d="M256 16a240 240 0 1 0 0 480 240 240 0 1 0 0-480M121.7 429.1C70.1 388.9 36.8 326.3 36.8 256c0-21.7 3.2-43.3 9.6-64.1L149.3 174l-.1 11-13.9 2s-.1 12.5-.1 19.5c0 2 .4 4 1.2 5.8s2.1 3.4 3.7 4.6l9.5 7.4-27.7 204.9zm105.7-283.2 8.5-7.6s6.9-5.4-.1-9.3c-7.2-4-39.5-34.5-39.5-34.5-5.3-5.5-8.3-7.3-15.5 0 0 0-32.3 30.5-39.5 34.5-7.1 4-.1 9.3-.1 9.3l8.5 7.6v4.4l-73.5-19.2c39.6-56.9 105.5-94.3 180-94.3 31.3 0 62.2 6.7 90.6 19.6s53.8 31.8 74.3 55.4l-193.5 37.7v-3.6zm34.1 329.3-33.9-250.9 9.5-7.4c1.6-1.2 2.8-2.8 3.7-4.6s1.3-3.8 1.2-5.8c0-7-.1-19.5-.1-19.5l-13.9-2-.1-10.5 241.7 31.4c3.9 16.4 5.8 33.3 5.8 50.1 0 119.1-95.4 216.2-213.8 219.1z"/></svg>