<svg xmlns="http://www.w3.org/2000/svg" viewBox="0 0 512 512"><!--! Font Awesome Free 7.1.0 by @fontawesome - https://fontawesome.com License - https://fontawesome.com/license/free (Icons: CC BY 4.0, Fonts: SIL OFL 1.1, Code: MIT License) Copyright 2025 Fonticons, Inc.--><path d="M463.2 322.4c56.2 64.3 4.2 157.6-91.9 157.6-39.6 0-78.8-17.7-100.1-50-6.9.4-22.7.4-29.6 0-21.4 32.4-60.6 50-100.1 50C46 480-6.8 387 49.6 322.4-29.5 190.5 80.9 32 256.4 32 432 32 542.3 190.6 463.2 322.4m-339.6-83h41.5v-58.1h-41.5zm217.2 86.1v-23.8c-60.5 20.9-132.4 9.2-187.6-34l.2 24.9c51.1 46.4 131.7 57.9 187.3 32.9zM190 239.4h166.1v-58.1H190z"/></svg>