<svg xmlns="http://www.w3.org/2000/svg" viewBox="0 0 512 512"><!--! Font Awesome Free 7.1.0 by @fontawesome - https://fontawesome.com License - https://fontawesome.com/license/free (Icons: CC BY 4.0, Fonts: SIL OFL 1.1, Code: MIT License) Copyright 2025 Fonticons, Inc.--><path d="M0 256a256 256 0 1 1 512 0 256 256 0 1 1-512 0m480 0a224 224 0 1 0-448 0 224 224 0 1 0 448 0M160.9 124.6l86.9 37.1-37.1 86.9-86.9-37.1zm110 169.1 46.6 94h-14.6l-50-100-48.9 100h-14l51.1-106.9-22.3-9.4 6-14 68.6 29.1-6 14.3zm-11.8-116.3 68.6 29.4-29.4 68.3L230 246zm80.3 42.9 54.6 23.1-23.4 54.3-54.3-23.1z"/></svg>