<svg xmlns="http://www.w3.org/2000/svg" viewBox="0 0 512 512"><!--! Font Awesome Free 6.7.2 by @fontawesome - https://fontawesome.com License - https://fontawesome.com/license/free (Icons: CC BY 4.0, Fonts: SIL OFL 1.1, Code: MIT License) Copyright 2024 Fonticons, Inc.--><path d="M500.676 159.486a12.78 12.78 0 0 0-6.4-8.282 13.95 13.95 0 0 0-10.078-1.125L457.8 156.7l-.043-.2-22.3 5.785-1.243.333-.608-2.17A369.04 369.04 0 0 0 347.538 4.289a14.1 14.1 0 0 0-19.784-.463l-102.9 102.747H24.947A24.9 24.9 0 0 0 0 131.417V380.38a24.963 24.963 0 0 0 24.918 24.9h200.068L328.072 508a13.667 13.667 0 0 0 19.327 0q.189-.19.37-.385a368 368 0 0 0 69.577-107.374 403.5 403.5 0 0 0 17.3-50.8v-.028l20.406 5.336.029-.073L483.345 362a20 20 0 0 0 2.619.5 13.4 13.4 0 0 0 4.139-.072 13.5 13.5 0 0 0 10.515-9.924 415.86 415.86 0 0 0 .058-193.013ZM337.125 24.65l.013.014h-.013Zm-110.2 165.161L174.311 281.1a11.34 11.34 0 0 0-1.489 5.655v46.189a22.04 22.04 0 0 1-22.041 22h-3.4a22.07 22.07 0 0 1-22.081-21.982v-45.668a11.53 11.53 0 0 0-1.388-5.51l-51.6-92.2a21.988 21.988 0 0 1 19.264-32.726h3.268a22.06 22.06 0 0 1 19.611 11.916l36.357 70.281 37.515-70.512a22.066 22.066 0 0 1 38.556-.695 21.7 21.7 0 0 1 0 21.967Zm110.22-165.138a348.15 348.15 0 0 1 75.8 141.335l.564 1.952-114.134 29.6v-66.143a25.006 25.006 0 0 0-24.947-24.9h-19.361Zm60.5 367.305v-.043l-.014.014a347.2 347.2 0 0 1-60.177 95.227l-82.2-81.893h19.177a24.98 24.98 0 0 0 24.947-24.9v-66.2l114.6 29.862a385 385 0 0 1-16.33 47.933Zm84-52.45.015.014-50.618-13.131L299.379 292.1v-72.528l119.746-30.99 4.468-1.157 39.54-10.253 18.511-4.816a393 393 0 0 1 0 167.172Z"/></svg>