<svg xmlns="http://www.w3.org/2000/svg" viewBox="0 0 384 512"><!--! Font Awesome Free 7.1.0 by @fontawesome - https://fontawesome.com License - https://fontawesome.com/license/free (Icons: CC BY 4.0, Fonts: SIL OFL 1.1, Code: MIT License) Copyright 2025 Fonticons, Inc.--><path d="M48 64c0-17.7 14.3-32 32-32h171c60.2 0 109 48.8 109 109 0 43.8-26.2 83.3-66.4 100.4l-139.1 59C119 315.4 96 350.2 96 388.7V416h224c17.7 0 32 14.3 32 32s-14.3 32-32 32H64c-17.7 0-32-14.3-32-32v-59.3c0-64.2 38.4-122.2 97.5-147.3l139.1-59C285.2 175.3 296 159 296 141c0-24.9-20.2-45-45-45H80c-17.7 0-32-14.3-32-32"/></svg>