<svg xmlns="http://www.w3.org/2000/svg" viewBox="0 0 384 512"><!--! Font Awesome Free 7.1.0 by @fontawesome - https://fontawesome.com License - https://fontawesome.com/license/free (Icons: CC BY 4.0, Fonts: SIL OFL 1.1, Code: MIT License) Copyright 2025 Fonticons, Inc.--><path d="M208 320c29.6 0 57.1-8.9 80-24.2V328c0 48.6-39.4 88-88 88H96c-17.7 0-32 14.3-32 32s14.3 32 32 32h104c83.9 0 152-68.1 152-152V175.9C351.9 96.4 287.5 32 208 32h-48C80.5 32 16 96.5 16 176s64.5 144 144 144zm80-144c0 44.2-35.8 80-80 80h-48c-44.2 0-80-35.8-80-80s35.8-80 80-80h48c44.2 0 80 35.8 80 80"/></svg>