<svg xmlns="http://www.w3.org/2000/svg" viewBox="0 0 512 512"><!--! Font Awesome Free 7.1.0 by @fontawesome - https://fontawesome.com License - https://fontawesome.com/license/free (Icons: CC BY 4.0, Fonts: SIL OFL 1.1, Code: MIT License) Copyright 2025 Fonticons, Inc.--><path d="M96 0C60.7 0 32 28.7 32 64v384c0 35.3 28.7 64 64 64h288c35.3 0 64-28.7 64-64V64c0-35.3-28.7-64-64-64zm112 288h64c44.2 0 80 35.8 80 80 0 8.8-7.2 16-16 16H144c-8.8 0-16-7.2-16-16 0-44.2 35.8-80 80-80m-24-96a56 56 0 1 1 112 0 56 56 0 1 1-112 0M512 80c0-8.8-7.2-16-16-16s-16 7.2-16 16v64c0 8.8 7.2 16 16 16s16-7.2 16-16zm0 128c0-8.8-7.2-16-16-16s-16 7.2-16 16v64c0 8.8 7.2 16 16 16s16-7.2 16-16zm-16 112c-8.8 0-16 7.2-16 16v64c0 8.8 7.2 16 16 16s16-7.2 16-16v-64c0-8.8-7.2-16-16-16"/></svg>