<svg xmlns="http://www.w3.org/2000/svg" viewBox="0 0 576 512"><!--! Font Awesome Free 7.1.0 by @fontawesome - https://fontawesome.com License - https://fontawesome.com/license/free (Icons: CC BY 4.0, Fonts: SIL OFL 1.1, Code: MIT License) Copyright 2025 Fonticons, Inc.--><path d="M160 32v80h128V32c0-17.7-14.3-32-32-32h-64c-17.7 0-32 14.3-32 32m0 128c-53 0-96 43-96 96v208c0 26.5 21.5 48 48 48h224c26.5 0 48-21.5 48-48V256c0-53-43-96-96-96zm64 96a80 80 0 1 1 0 160 80 80 0 1 1 0-160M448 48c0-1.4-1-3-2.2-3.6L416 32 403.6 2.2C403 1 401.4 0 400 0s-3 1-3.6 2.2L384 32l-29.8 12.4c-1.2.6-2.2 2.2-2.2 3.6s1 3 2.2 3.6L384 64l12.4 29.8c.6 1.2 2.2 2.2 3.6 2.2s3-1 3.6-2.2L416 64l29.8-12.4c1.2-.6 2.2-2.2 2.2-3.6m76.4 45.8c.6 1.2 2.2 2.2 3.6 2.2s3-1 3.6-2.2L544 64l29.8-12.4c1.2-.6 2.2-2.2 2.2-3.6s-1-3-2.2-3.6L544 32 531.6 2.2C531 1 529.4 0 528 0s-3 1-3.6 2.2L512 32l-29.8 12.4c-1.2.6-2.2 2.2-2.2 3.6s1 3 2.2 3.6L512 64zm7.2 100.4c-.6-1.2-2.2-2.2-3.6-2.2s-3 1-3.6 2.2L512 224l-29.8 12.4c-1.2.6-2.2 2.2-2.2 3.6s1 3 2.2 3.6L512 256l12.4 29.8c.6 1.2 2.2 2.2 3.6 2.2s3-1 3.6-2.2L544 256l29.8-12.4c1.2-.6 2.2-2.2 2.2-3.6s-1-3-2.2-3.6L544 224zM512 144c0-1.4-1-3-2.2-3.6L480 128l-12.4-29.8C467 97 465.4 96 464 96s-3 1-3.6 2.2L448 128l-29.8 12.4c-1.2.6-2.2 2.2-2.2 3.6s1 3 2.2 3.6L448 160l12.4 29.8c.6 1.2 2.2 2.2 3.6 2.2s3-1 3.6-2.2L480 160l29.8-12.4c1.2-.6 2.2-2.2 2.2-3.6"/></svg>