<svg xmlns="http://www.w3.org/2000/svg" viewBox="0 0 512 512"><!--! Font Awesome Free 7.1.0 by @fontawesome - https://fontawesome.com License - https://fontawesome.com/license/free (Icons: CC BY 4.0, Fonts: SIL OFL 1.1, Code: MIT License) Copyright 2025 Fonticons, Inc.--><path d="M504.4 132.5c-4.5 10.5-18.4 9.8-24.9.4-27.8-40-66.1-72.2-111-92.6-10.4-4.7-13.7-18.3-4.1-24.6 15-9.9 33-15.7 52.3-15.7 52.6 0 95.2 42.6 95.2 95.2 0 13.2-2.7 25.8-7.6 37.3zm-471.9.4C26 142.3 12 143 7.6 132.5 2.7 121 0 108.4 0 95.2 0 42.6 42.6 0 95.2 0c19.3 0 37.3 5.8 52.3 15.7 9.6 6.3 6.3 19.9-4.1 24.6-44.8 20.4-83.1 52.6-111 92.6zm357.7 334.5c-37.4 28-83.9 44.6-134.2 44.6s-96.8-16.6-134.1-44.6l-35.3 35.2c-12.5 12.5-32.8 12.5-45.3 0s-12.5-32.8 0-45.3l35.2-35.2C48.6 384.8 32 338.3 32 288 32 164.3 132.3 64 256 64s224 100.3 224 224c0 50.3-16.6 96.8-44.6 134.2l35.2 35.2c12.5 12.5 12.5 32.8 0 45.3s-32.8 12.5-45.3 0l-35.2-35.2zM280 184c0-13.3-10.7-24-24-24s-24 10.7-24 24v104c0 6.4 2.5 12.5 7 17l56 56c9.4 9.4 24.6 9.4 33.9 0s9.4-24.6 0-33.9l-49-49V184z"/></svg>