<svg xmlns="http://www.w3.org/2000/svg" viewBox="0 0 512 512"><!--! Font Awesome Free 7.1.0 by @fontawesome - https://fontawesome.com License - https://fontawesome.com/license/free (Icons: CC BY 4.0, Fonts: SIL OFL 1.1, Code: MIT License) Copyright 2025 Fonticons, Inc.--><path d="M256 512a256 256 0 1 0 0-512 256 256 0 1 0 0 512m11.3-387.3 104 104c4.6 4.6 5.9 11.5 3.5 17.4s-8.3 9.9-14.8 9.9h-56v96c0 17.7-14.3 32-32 32h-32c-17.7 0-32-14.3-32-32v-96h-56c-6.5 0-12.3-3.9-14.8-9.9s-1.1-12.9 3.5-17.4l104-104c6.2-6.2 16.4-6.2 22.6 0"/></svg>