<svg xmlns="http://www.w3.org/2000/svg" viewBox="0 0 640 512"><!--! Font Awesome Free 7.1.0 by @fontawesome - https://fontawesome.com License - https://fontawesome.com/license/free (Icons: CC BY 4.0, Fonts: SIL OFL 1.1, Code: MIT License) Copyright 2025 Fonticons, Inc.--><path d="M176 56c0-13.3-10.7-24-24-24s-24 10.7-24 24v38.1l-63-63c-9.4-9.4-24.6-9.4-33.9 0S21.7 55.6 31 65l63 63H55.9c-13.3 0-24 10.7-24 24s10.7 24 24 24h96c13.3 0 24-10.7 24-24V56zm0 400v-96c0-13.3-10.7-24-24-24H56c-13.3 0-24 10.7-24 24s10.7 24 24 24h38.1l-63 63c-9.4 9.4-9.4 24.6 0 33.9s24.6 9.4 33.9 0l63-63V456c0 13.3 10.7 24 24 24s24-10.7 24-24m312 24c13.3 0 24-10.7 24-24v-38.1l63 63c9.4 9.4 24.6 9.4 33.9 0s9.4-24.6 0-33.9l-63-63H584c13.3 0 24-10.7 24-24s-10.7-24-24-24h-96c-13.3 0-24 10.7-24 24v96c0 13.3 10.7 24 24 24M464 56v96c0 13.3 10.7 24 24 24h96c13.3 0 24-10.7 24-24s-10.7-24-24-24h-38.1l63-63c9.4-9.4 9.4-24.6 0-33.9s-24.6-9.4-33.9 0l-63 63V56c0-13.3-10.7-24-24-24s-24 10.7-24 24m-144 64c-57.3 0-99.4 34-125.6 64.3-20 23.1-32.4 45.8-37.6 56.1-2.5 5-4.9 9.7-4.9 15.6s2.3 10.6 4.9 15.6c5.2 10.3 17.6 33 37.6 56.1C220.6 358 262.6 392 320 392s99.4-34 125.6-64.3c20-23.1 32.4-45.8 37.6-56.1 2.5-5 4.9-9.7 4.9-15.6s-2.3-10.6-4.9-15.6c-5.2-10.3-17.6-33-37.6-56.1C419.4 154 377.4 120 320 120m-64 136a64 64 0 1 1 128 0 64 64 0 1 1-128 0"/></svg>