<svg xmlns="http://www.w3.org/2000/svg" viewBox="0 0 576 512"><!--! Font Awesome Free 7.1.0 by @fontawesome - https://fontawesome.com License - https://fontawesome.com/license/free (Icons: CC BY 4.0, Fonts: SIL OFL 1.1, Code: MIT License) Copyright 2025 Fonticons, Inc.--><path d="M150.6 41.4c-12.5-12.5-32.8-12.5-45.3 0l-96 96c-12.5 12.5-12.5 32.8 0 45.3s32.8 12.5 45.3 0L96 141.3V448c0 17.7 14.3 32 32 32s32-14.3 32-32V141.3l41.4 41.4c12.5 12.5 32.8 12.5 45.3 0s12.5-32.8 0-45.3l-96-96zM320 480h32c17.7 0 32-14.3 32-32s-14.3-32-32-32h-32c-17.7 0-32 14.3-32 32s14.3 32 32 32m0-128h96c17.7 0 32-14.3 32-32s-14.3-32-32-32h-96c-17.7 0-32 14.3-32 32s14.3 32 32 32m0-128h160c17.7 0 32-14.3 32-32s-14.3-32-32-32H320c-17.7 0-32 14.3-32 32s14.3 32 32 32m0-128h224c17.7 0 32-14.3 32-32s-14.3-32-32-32H320c-17.7 0-32 14.3-32 32s14.3 32 32 32"/></svg>