<svg xmlns="http://www.w3.org/2000/svg" viewBox="0 0 576 512"><!--! Font Awesome Free 7.1.0 by @fontawesome - https://fontawesome.com License - https://fontawesome.com/license/free (Icons: CC BY 4.0, Fonts: SIL OFL 1.1, Code: MIT License) Copyright 2025 Fonticons, Inc.--><path d="M32 96c-17.7 0-32 14.3-32 32v256c0 17.7 14.3 32 32 32s32-14.3 32-32V128c0-17.7-14.3-32-32-32m358.6 246.6 64-64c12.5-12.5 12.5-32.8 0-45.3l-64-64c-12.5-12.5-32.8-12.5-45.3 0s-12.5 32.8 0 45.3l9.4 9.4H221.2l9.4-9.4c12.5-12.5 12.5-32.8 0-45.3s-32.8-12.5-45.3 0l-64 64c-6 6-9.4 14.1-9.4 22.6s3.4 16.6 9.4 22.6l64 64c12.5 12.5 32.8 12.5 45.3 0s12.5-32.8 0-45.3l-9.4-9.4h133.5l-9.4 9.4c-12.5 12.5-12.5 32.8 0 45.3s32.8 12.5 45.3 0zM576 128c0-17.7-14.3-32-32-32s-32 14.3-32 32v256c0 17.7 14.3 32 32 32s32-14.3 32-32z"/></svg>