<svg xmlns="http://www.w3.org/2000/svg" viewBox="0 0 512 512"><!--! Font Awesome Free 7.1.0 by @fontawesome - https://fontawesome.com License - https://fontawesome.com/license/free (Icons: CC BY 4.0, Fonts: SIL OFL 1.1, Code: MIT License) Copyright 2025 Fonticons, Inc.--><path d="M9.4 9.4c12.5-12.5 32.7-12.5 45.2 0L128 82.7V64c0-17.7 14.3-32 32-32s32 14.3 32 32v96c0 17.7-14.3 32-32 32H64c-17.7 0-32-14.3-32-32s14.3-32 32-32h18.7L9.3 54.6C-3.1 42.1-3.1 21.9 9.4 9.4M200 256a56 56 0 1 1 112 0 56 56 0 1 1-112 0M502.6 54.6 429.3 128H448c17.7 0 32 14.3 32 32s-14.3 32-32 32h-96c-17.7 0-32-14.3-32-32V64c0-17.7 14.3-32 32-32s32 14.3 32 32v18.7l73.4-73.4c12.5-12.5 32.8-12.5 45.3 0s12.5 32.8 0 45.3zm-45.3 448L384 429.3V448c0 17.7-14.3 32-32 32s-32-14.3-32-32v-96c0-17.7 14.3-32 32-32h96c17.7 0 32 14.3 32 32s-14.3 32-32 32h-18.7l73.4 73.4c12.5 12.5 12.5 32.8 0 45.3s-32.8 12.5-45.3 0zM9.4 457.4 82.7 384H64c-17.7 0-32-14.3-32-32s14.3-32 32-32h96c17.7 0 32 14.3 32 32v96c0 17.7-14.3 32-32 32s-32-14.3-32-32v-18.7l-73.4 73.4c-12.5 12.5-32.8 12.5-45.3 0s-12.5-32.8 0-45.3z"/></svg>