<svg xmlns="http://www.w3.org/2000/svg" viewBox="0 0 512 512"><!--! Font Awesome Free 7.1.0 by @fontawesome - https://fontawesome.com License - https://fontawesome.com/license/free (Icons: CC BY 4.0, Fonts: SIL OFL 1.1, Code: MIT License) Copyright 2025 Fonticons, Inc.--><path d="M96 32c-17.7 0-32 14.3-32 32s14.3 32 32 32h18.7L9.4 201.4c-12.5 12.5-12.5 32.8 0 45.3s32.8 12.5 45.3 0L160 141.3V160c0 17.7 14.3 32 32 32s32-14.3 32-32V64c0-17.7-14.3-32-32-32zm307.8 38.1a38.1 38.1 0 1 0 76.2 0 38.1 38.1 0 1 0-76.2 0M279.7 194.2a38.1 38.1 0 1 0 76.2 0 38.1 38.1 0 1 0-76.2 0m162.2-38.1a38.1 38.1 0 1 0 0 76.2 38.1 38.1 0 1 0 0-76.2M156.2 317.8a38.1 38.1 0 1 0 76.2 0 38.1 38.1 0 1 0-76.2 0m161.6-38.1a38.1 38.1 0 1 0 0 76.2 38.1 38.1 0 1 0 0-76.2m86.1 38.1a38.1 38.1 0 1 0 76.2 0 38.1 38.1 0 1 0-76.2 0m-333.8 86a38.1 38.1 0 1 0 0 76.2 38.1 38.1 0 1 0 0-76.2m86.1 38.1a38.1 38.1 0 1 0 76.2 0 38.1 38.1 0 1 0-76.2 0m161.6-38.1a38.1 38.1 0 1 0 0 76.2 38.1 38.1 0 1 0 0-76.2m86.1 38.1a38.1 38.1 0 1 0 76.2 0 38.1 38.1 0 1 0-76.2 0"/></svg>