<svg xmlns="http://www.w3.org/2000/svg" viewBox="0 0 576 512"><!--! Font Awesome Free 7.1.0 by @fontawesome - https://fontawesome.com License - https://fontawesome.com/license/free (Icons: CC BY 4.0, Fonts: SIL OFL 1.1, Code: MIT License) Copyright 2025 Fonticons, Inc.--><path d="m262.6 422.6-80 80c-12.5 12.5-32.8 12.5-45.3 0l-80-80c-12.5-12.5-12.5-32.8 0-45.3s32.8-12.5 45.3 0l25.4 25.4V288H64c-17.7 0-32-14.3-32-32s14.3-32 32-32h256V109.3l-25.4 25.4c-12.5 12.5-32.8 12.5-45.3 0s-12.5-32.8 0-45.3l80-80c12.5-12.5 32.8-12.5 45.3 0l80 80c12.5 12.5 12.5 32.8 0 45.3s-32.8 12.5-45.3 0l-25.4-25.4v94.8c-25.3 20.3-42.8 50.1-47 83.9h-145v114.7l25.4-25.4c12.5-12.5 32.8-12.5 45.3 0s12.5 32.8 0 45.3M192 32v144h-64V32c0-17.7 14.3-32 32-32s32 14.3 32 32m304 272.1c0-17.7-14.3-32-32-32s-32 14.3-32 32V352h64zM352 400c0-20.9 13.4-38.7 32-45.3v-50.6c0-44.2 35.8-80 80-80s80 35.8 80 80v50.6c18.6 6.6 32 24.4 32 45.3v96c0 26.5-21.5 48-48 48H400c-26.5 0-48-21.5-48-48z"/></svg>