<svg xmlns="http://www.w3.org/2000/svg" viewBox="0 0 512 512"><!--! Font Awesome Free 7.1.0 by @fontawesome - https://fontawesome.com License - https://fontawesome.com/license/free (Icons: CC BY 4.0, Fonts: SIL OFL 1.1, Code: MIT License) Copyright 2025 Fonticons, Inc.--><path d="M113 153c-9.4 9.4-24.6 9.4-33.9 0L15 89c-9.3-9.4-9.3-24.6 0-34s24.6-9.3 34 0l23 23.1V-8c0-13.3 10.7-24 24-24s24 10.7 24 24v86.1l23-23c9.4-9.4 24.6-9.4 33.9 0s9.4 24.6 0 33.9l-64 64zm320 0c-9.4 9.4-24.6 9.4-33.9 0L335 89c-9.4-9.4-9.4-24.6 0-33.9s24.6-9.4 33.9 0l23 23V-8c0-13.3 10.7-24 24-24s24 10.7 24 24v86.1l23-23c9.4-9.4 24.6-9.4 33.9 0s9.4 24.6 0 33.9l-64 64zm-177 39a56 56 0 1 1 0 112 56 56 0 1 1 0-112m0 160c53 0 96 43 96 96v32c0 17.7-14.3 32-32 32H192c-17.7 0-32-14.3-32-32v-32c0-53 43-96 96-96M32 288a48 48 0 1 1 96 0 48 48 0 1 1-96 0m352 0a48 48 0 1 1 96 0 48 48 0 1 1-96 0M80 368c15.3 0 29.6 4.3 41.8 11.8-6.3 16.2-9.8 33.8-9.8 52.2v48c0 11.4 2.4 22.2 6.7 32H30.9C13.8 512 0 498.2 0 481.1V448c0-44.2 35.8-80 80-80m313.3 144c4.3-9.8 6.7-20.6 6.7-32v-48c0-18.4-3.5-36-9.8-52.2 12.2-7.5 26.5-11.8 41.8-11.8 44.2 0 80 35.8 80 80v33.1c0 17-13.8 30.9-30.9 30.9z"/></svg>