<svg xmlns="http://www.w3.org/2000/svg" viewBox="0 0 512 512"><!--! Font Awesome Free 7.1.0 by @fontawesome - https://fontawesome.com License - https://fontawesome.com/license/free (Icons: CC BY 4.0, Fonts: SIL OFL 1.1, Code: MIT License) Copyright 2025 Fonticons, Inc.--><path d="M481.7 240.1c-17.6-1.2-32.9 12-34.2 29.7-3.3 47-23.6 89.4-54.8 121L361 359c-6.9-6.9-17.2-8.9-26.2-5.2S320 366.3 320 376v112c0 13.3 10.7 24 24 24h112c9.7 0 18.5-5.8 22.2-14.8s1.7-19.3-5.2-26.2l-35-35c41.7-42.2 68.9-98.8 73.4-161.8 1.2-17.6-12-32.9-29.7-34.2zM39 41l35 35C32.3 118.2 5.1 174.8.6 237.8c-1.2 17.6 12 32.9 29.7 34.2s32.9-12 34.2-29.7c3.3-47 23.6-89.4 54.8-121L151 153c6.9 6.9 17.2 8.9 26.2 5.2S192 145.7 192 136V24c0-13.3-10.7-24-24-24H56c-9.7 0-18.5 5.8-22.2 14.8S32.2 34.1 39 41m201-10.7c-1.2 17.6 12 32.9 29.7 34.2 47 3.3 89.4 23.6 121 54.8L359 151c-6.9 6.9-8.9 17.2-5.2 26.2S366.3 192 376 192h112c13.3 0 24-10.7 24-24V56c0-9.7-5.8-18.5-14.8-22.2S477.9 32.2 471 39l-35 35C393.8 32.3 337.2 5.1 274.2.6c-17.6-1.2-32.9 12-34.2 29.7M41 473l35-35c42.2 41.7 98.8 68.9 161.8 73.4 17.6 1.2 32.9-12 34.2-29.7s-12-32.9-29.7-34.2c-47-3.3-89.4-23.6-121-54.8L153 361c6.9-6.9 8.9-17.2 5.2-26.2S145.7 320 136 320H24c-13.3 0-24 10.7-24 24v112c0 9.7 5.8 18.5 14.8 22.2s19.3 1.6 26.2-5.2"/></svg>