<svg xmlns="http://www.w3.org/2000/svg" viewBox="0 0 512 512"><!--! Font Awesome Free 7.1.0 by @fontawesome - https://fontawesome.com License - https://fontawesome.com/license/free (Icons: CC BY 4.0, Fonts: SIL OFL 1.1, Code: MIT License) Copyright 2025 Fonticons, Inc.--><path d="M65.9 228.5C79.2 135.5 159.3 64 256 64c53 0 101 21.5 135.8 56.2l.6.6 7.6 7.2h-47.9c-17.7 0-32 14.3-32 32s14.3 32 32 32h128c17.7 0 32-14.3 32-32V32c0-17.7-14.3-32-32-32s-32 14.3-32 32v53.4l-11.3-10.7C390.5 28.6 326.5 0 256 0 127 0 20.3 95.4 2.6 219.5c-2.5 17.5 9.6 33.7 27.1 36.2s33.7-9.7 36.2-27.1zm443.5 64c2.5-17.5-9.7-33.7-27.1-36.2s-33.7 9.7-36.2 27.1c-13.3 93-93.4 164.5-190.1 164.5-53 0-101-21.5-135.8-56.2l-.6-.6-7.6-7.2h47.9c17.7 0 32-14.3 32-32s-14.3-32-32-32L32 320c-8.5 0-16.7 3.4-22.7 9.5S-.1 343.7 0 352.3l1 127c.1 17.7 14.6 31.9 32.3 31.7s31.9-14.6 31.7-32.3l-.4-51.5 10.7 10.1C121.6 483.4 185.5 512 256 512c129 0 235.7-95.4 253.4-219.5"/></svg>