<svg xmlns="http://www.w3.org/2000/svg" viewBox="0 0 512 512"><!--! Font Awesome Free 7.1.0 by @fontawesome - https://fontawesome.com License - https://fontawesome.com/license/free (Icons: CC BY 4.0, Fonts: SIL OFL 1.1, Code: MIT License) Copyright 2025 Fonticons, Inc.--><path d="m406.6 502.6 96-96c9.2-9.2 11.9-22.9 6.9-34.9S492.9 352 480 352h-64V32c0-17.7-14.3-32-32-32s-32 14.3-32 32v320h-64c-12.9 0-24.6 7.8-29.6 19.8s-2.2 25.7 6.9 34.9l96 96c12.5 12.5 32.8 12.5 45.3 0zM150.6 9.4c-12.5-12.5-32.8-12.5-45.3 0l-96 96c-9.2 9.2-11.9 22.9-6.9 34.9S19.1 160 32 160h64v320c0 17.7 14.3 32 32 32s32-14.3 32-32V160h64c12.9 0 24.6-7.8 29.6-19.8s2.2-25.7-6.9-34.9l-96-96z"/></svg>