<svg xmlns="http://www.w3.org/2000/svg" viewBox="0 0 576 512"><!--! Font Awesome Free 7.1.0 by @fontawesome - https://fontawesome.com License - https://fontawesome.com/license/free (Icons: CC BY 4.0, Fonts: SIL OFL 1.1, Code: MIT License) Copyright 2025 Fonticons, Inc.--><path d="M96.5 0c-35.3 0-64 28.7-64 64v384c0 35.3 28.7 64 64 64h256c35.3 0 64-28.7 64-64v-96h78.1l-31 31c-9.4 9.4-9.4 24.6 0 33.9s24.6 9.4 33.9 0l72-72c9.4-9.4 9.4-24.6 0-33.9l-72-72c-9.4-9.4-24.6-9.4-33.9 0s-9.4 24.6 0 33.9l31 31h-78.1V170.4c0-17-6.7-33.3-18.7-45.3L291.2 18.7C279.2 6.7 263 0 246 0zM358 176h-93.5c-13.3 0-24-10.7-24-24V58.5zM224.5 328c0-13.3 10.7-24 24-24h104v48h-104c-13.3 0-24-10.7-24-24"/></svg>