<svg xmlns="http://www.w3.org/2000/svg" viewBox="0 0 512 512"><!--! Font Awesome Free 7.1.0 by @fontawesome - https://fontawesome.com License - https://fontawesome.com/license/free (Icons: CC BY 4.0, Fonts: SIL OFL 1.1, Code: MIT License) Copyright 2025 Fonticons, Inc.--><path d="m214.6 310.6-64 64c-12.5 12.5-32.8 12.5-45.3 0l-64-64c-12.5-12.5-12.5-32.8 0-45.3s32.8-12.5 45.3 0l9.4 9.4V32c0-17.7 14.3-32 32-32s32 14.3 32 32v242.7l9.4-9.4c12.5-12.5 32.8-12.5 45.3 0s12.5 32.8 0 45.3zm256 0-64 64c-12.5 12.5-32.8 12.5-45.3 0l-64-64c-12.5-12.5-12.5-32.8 0-45.3s32.8-12.5 45.3 0l9.4 9.4V32c0-17.7 14.3-32 32-32s32 14.3 32 32v242.7l9.4-9.4c12.5-12.5 32.8-12.5 45.3 0s12.5 32.8 0 45.3zM32 512c-17.7 0-32-14.3-32-32s14.3-32 32-32h448c17.7 0 32 14.3 32 32s-14.3 32-32 32z"/></svg>