<svg xmlns="http://www.w3.org/2000/svg" viewBox="0 0 448 512"><!--! Font Awesome Free 7.1.0 by @fontawesome - https://fontawesome.com License - https://fontawesome.com/license/free (Icons: CC BY 4.0, Fonts: SIL OFL 1.1, Code: MIT License) Copyright 2025 Fonticons, Inc.--><path d="M265.4-6.6c12.5-12.5 32.8-12.5 45.3 0s12.5 32.8 0 45.3L285.3 64H352c53 0 96 43 96 96v32c0 17.7-14.3 32-32 32s-32-14.3-32-32v-32c0-17.7-14.3-32-32-32h-66.7l25.4 25.4c12.5 12.5 12.5 32.8 0 45.3s-32.8 12.5-45.3 0l-80-80c-12.5-12.5-12.5-32.8 0-45.3zm-82.7 272 80 80c12.5 12.5 12.5 32.8 0 45.3l-80 80c-12.5 12.5-32.8 12.5-45.3 0s-12.5-32.8 0-45.3l25.3-25.4H96c-17.7 0-32 14.3-32 32v32c0 17.7-14.3 32-32 32S0 481.7 0 464v-32c0-53 43-96 96-96h66.7l-25.4-25.4c-12.5-12.5-12.5-32.8 0-45.3s32.8-12.5 45.3 0zM320 368a64 64 0 1 1 128 0 64 64 0 1 1-128 0M64 160a64 64 0 1 1 0-128 64 64 0 1 1 0 128"/></svg>