<svg xmlns="http://www.w3.org/2000/svg" viewBox="0 0 448 512"><!--! Font Awesome Free 7.1.0 by @fontawesome - https://fontawesome.com License - https://fontawesome.com/license/free (Icons: CC BY 4.0, Fonts: SIL OFL 1.1, Code: MIT License) Copyright 2025 Fonticons, Inc.--><path d="M224 0c17.7 0 32 14.3 32 32v168.6l144-83.1c15.3-8.8 34.9-3.6 43.7 11.7s3.6 34.9-11.7 43.7L288 256l144 83.1c15.3 8.8 20.6 28.4 11.7 43.7s-28.4 20.6-43.7 11.7l-144-83.1V480c0 17.7-14.3 32-32 32s-32-14.3-32-32V311.4L48 394.5c-15.3 8.8-34.9 3.6-43.7-11.7S.7 348 16 339.1L160 256 16 172.9C.7 164-4.5 144.5 4.3 129.1s28.4-20.5 43.7-11.7l144 83.2V32c0-17.7 14.3-32 32-32"/></svg>