<svg xmlns="http://www.w3.org/2000/svg" viewBox="0 0 448 512"><!--! Font Awesome Free 7.1.0 by @fontawesome - https://fontawesome.com License - https://fontawesome.com/license/free (Icons: CC BY 4.0, Fonts: SIL OFL 1.1, Code: MIT License) Copyright 2025 Fonticons, Inc.--><path d="M245.9-25.9a41.89 41.89 0 0 0-43.7 0C177.8-11 162.7-7 134.1-7.6 118.4-8 103.8.5 96.2 14.3 82.5 39.4 71.4 50.5 46.3 64.2c-13.8 7.5-22.2 22.2-21.9 37.9.7 28.6-3.4 43.7-18.3 68.1a41.89 41.89 0 0 0 0 43.7C21 238.3 25 253.4 24.4 282c-.4 15.7 8.1 30.3 21.9 37.9C68.4 332 79.6 342 91.4 361.4l-48.7 97.1c-5.9 11.9-1.1 26.3 10.7 32.2l86 43c11.5 5.7 25.5 1.4 31.7-9.8l52.8-95.1 52.8 95.1c6.2 11.2 20.2 15.6 31.7 9.8l86-43c11.9-5.9 16.7-20.3 10.7-32.2l-48.6-97.2c11.7-19.4 23-29.4 45.1-41.5 13.8-7.5 22.2-22.2 21.9-37.9-.7-28.6 3.4-43.7 18.3-68.1 8.2-13.4 8.2-30.3 0-43.7-14.9-24.4-18.9-39.5-18.3-68.1.4-15.7-8.1-30.3-21.9-37.9-25.1-13.7-36.2-24.8-49.9-49.9C344.2.4 329.5-8 313.8-7.7c-28.6.7-43.7-3.4-68.1-18.3zM224 96a96 96 0 1 1 0 192 96 96 0 1 1 0-192"/></svg>