<svg xmlns="http://www.w3.org/2000/svg" viewBox="0 0 576 512"><!--! Font Awesome Free 7.1.0 by @fontawesome - https://fontawesome.com License - https://fontawesome.com/license/free (Icons: CC BY 4.0, Fonts: SIL OFL 1.1, Code: MIT License) Copyright 2025 Fonticons, Inc.--><path d="M557 96.7c14.4 14.4 12.4 38.4-4.3 50.2l-64.6 45.7c-43.7 30.9-79.2 71.9-103.4 119.6L359.4 362c-25.1 49.3-62.1 91.5-107.8 122.6l-74.1 50.6c-13.1 8.9-30.7 7.3-41.8-3.9l-44.9-44.9 86.5-66.5c42.3-32.5 76.7-74.3 100.6-122l24.5-49.1c24.5-49 61.8-90.6 107.9-120.2L519 58.7zm-72.8-72.8-99.9 64.3c-53.4 34.3-96.5 82.4-124.9 139.1l-24.5 49.1c-20.6 41.3-50.3 77.3-86.9 105.4l-91.4 70.3-36.9-36.9C5.3 400.8 7.3 376.8 24 365l64.6-45.7c43.7-30.9 79.2-71.9 103.4-119.6l25.3-49.8c25-49.1 62-91.3 107.7-122.5l74.1-50.6c13.1-8.9 30.6-7.3 41.8 3.9L484.2 24z"/></svg>