<svg xmlns="http://www.w3.org/2000/svg" viewBox="0 0 448 512"><!--! Font Awesome Free 7.1.0 by @fontawesome - https://fontawesome.com License - https://fontawesome.com/license/free (Icons: CC BY 4.0, Fonts: SIL OFL 1.1, Code: MIT License) Copyright 2025 Fonticons, Inc.--><path d="M32 32C14.3 32 0 46.3 0 64v384c0 17.7 14.3 32 32 32s32-14.3 32-32V64c0-17.7-14.3-32-32-32m88 0c-13.3 0-24 10.7-24 24v400c0 13.3 10.7 24 24 24s24-10.7 24-24V56c0-13.3-10.7-24-24-24m72 32v384c0 17.7 14.3 32 32 32s32-14.3 32-32V64c0-17.7-14.3-32-32-32s-32 14.3-32 32m208-8v400c0 13.3 10.7 24 24 24s24-10.7 24-24V56c0-13.3-10.7-24-24-24s-24 10.7-24 24m-96 0v400c0 13.3 10.7 24 24 24s24-10.7 24-24V56c0-13.3-10.7-24-24-24s-24 10.7-24 24"/></svg>