<svg xmlns="http://www.w3.org/2000/svg" viewBox="0 0 512 512"><!--! Font Awesome Free 7.1.0 by @fontawesome - https://fontawesome.com License - https://fontawesome.com/license/free (Icons: CC BY 4.0, Fonts: SIL OFL 1.1, Code: MIT License) Copyright 2025 Fonticons, Inc.--><path d="m92.7 58.8 78.4 78.4c18.2-25 28.9-55.9 28.9-89.2 0-14.1-1.9-27.7-5.5-40.6-38 9.4-72.6 27.2-101.8 51.4M58.8 92.7c-24.2 29.2-42 63.8-51.4 101.8 12.9 3.6 26.5 5.5 40.6 5.5 33.3 0 64.1-10.7 89.2-28.9zM256 0c-4.6 0-9.2.1-13.7.4C246 15.7 248 31.6 248 48c0 46.6-15.9 89.4-42.6 123.4l50.6 50.7L419.3 58.8C374.9 22.1 318.1 0 256 0M48 248c-16.4 0-32.4-2-47.6-5.7-.2 4.5-.4 9.1-.4 13.7 0 62.1 22.1 118.9 58.8 163.3L222.1 256l-50.7-50.6C137.4 232.1 94.6 248 48 248m463.6 21.7c.2-4.5.4-9.1.4-13.7 0-62.1-22.1-118.9-58.8-163.3L289.9 256l50.7 50.6c34-26.7 76.9-42.6 123.4-42.6 16.4 0 32.4 2 47.6 5.7m-7.1 47.8c-12.9-3.6-26.5-5.5-40.6-5.5-33.3 0-64.1 10.7-89.2 28.9l78.4 78.4c24.2-29.2 42-63.8 51.4-101.8m-163.6 57.3c-18.2 25-28.9 55.9-28.9 89.2 0 14.1 1.9 27.7 5.5 40.6 38-9.4 72.6-27.2 101.8-51.4zm-34.3-34.3L256 289.9 92.7 453.2C137 489.9 193.9 512 256 512c4.6 0 9.2-.1 13.7-.4-3.7-15.3-5.7-31.2-5.7-47.6 0-46.6 15.9-89.4 42.6-123.4z"/></svg>