<svg xmlns="http://www.w3.org/2000/svg" viewBox="0 0 512 512"><!--! Font Awesome Free 7.1.0 by @fontawesome - https://fontawesome.com License - https://fontawesome.com/license/free (Icons: CC BY 4.0, Fonts: SIL OFL 1.1, Code: MIT License) Copyright 2025 Fonticons, Inc.--><path d="M96 77.3C96 70 101.9 64 109.3 64c3.5 0 6.9 1.4 9.4 3.9l14.9 14.9c-3.6 9.1-5.5 18.9-5.5 29.2 0 19.9 7.2 38 19.2 52-5.3 9.2-4 21.1 3.8 29 9.4 9.4 24.6 9.4 33.9 0L289 89c9.4-9.4 9.4-24.6 0-33.9-7.8-7.9-19.8-9.1-29-3.8-14-12-32.1-19.2-52-19.2-10.3 0-20.2 2-29.2 5.5l-14.9-15C149.4 8.1 129.7 0 109.3 0 66.6 0 32 34.6 32 77.3V256c-17.7 0-32 14.3-32 32s14.3 32 32 32v48c0 28.4 12.4 54 32 71.6V480c0 17.7 14.3 32 32 32s32-14.3 32-32v-16h256v16c0 17.7 14.3 32 32 32s32-14.3 32-32v-40.4c19.6-17.6 32-43.1 32-71.6v-48c17.7 0 32-14.3 32-32s-14.3-32-32-32H96z"/></svg>