<svg xmlns="http://www.w3.org/2000/svg" viewBox="0 0 512 512"><!--! Font Awesome Free 7.1.0 by @fontawesome - https://fontawesome.com License - https://fontawesome.com/license/free (Icons: CC BY 4.0, Fonts: SIL OFL 1.1, Code: MIT License) Copyright 2025 Fonticons, Inc.--><path d="M80 64c0-17.7 14.3-32 32-32h64c17.7 0 32 14.3 32 32h96c0-17.7 14.3-32 32-32h64c17.7 0 32 14.3 32 32h16c35.3 0 64 28.7 64 64v256c0 35.3-28.7 64-64 64H64c-35.3 0-64-28.7-64-64V128c0-35.3 28.7-64 64-64zm312 120c0-13.3-10.7-24-24-24s-24 10.7-24 24v32h-32c-13.3 0-24 10.7-24 24s10.7 24 24 24h32v32c0 13.3 10.7 24 24 24s24-10.7 24-24v-32h32c13.3 0 24-10.7 24-24s-10.7-24-24-24h-32zM64 240c0 13.3 10.7 24 24 24h112c13.3 0 24-10.7 24-24s-10.7-24-24-24H88c-13.3 0-24 10.7-24 24"/></svg>