<svg xmlns="http://www.w3.org/2000/svg" viewBox="0 0 640 512"><!--! Font Awesome Free 7.1.0 by @fontawesome - https://fontawesome.com License - https://fontawesome.com/license/free (Icons: CC BY 4.0, Fonts: SIL OFL 1.1, Code: MIT License) Copyright 2025 Fonticons, Inc.--><path d="M528 128c8.8 0 16 7.2 16 16v224c0 8.8-7.2 16-16 16H112c-8.8 0-16-7.2-16-16V144c0-8.8 7.2-16 16-16zM112 64c-44.2 0-80 35.8-80 80v224c0 44.2 35.8 80 80 80h416c44.2 0 80-35.8 80-80v-48c17.7 0 32-14.3 32-32v-64c0-17.7-14.3-32-32-32v-48c0-44.2-35.8-80-80-80zm56 112c-13.3 0-24 10.7-24 24v112c0 13.3 10.7 24 24 24h224c13.3 0 24-10.7 24-24V200c0-13.3-10.7-24-24-24z"/></svg>