<svg xmlns="http://www.w3.org/2000/svg" viewBox="0 0 576 512"><!--! Font Awesome Free 7.1.0 by @fontawesome - https://fontawesome.com License - https://fontawesome.com/license/free (Icons: CC BY 4.0, Fonts: SIL OFL 1.1, Code: MIT License) Copyright 2025 Fonticons, Inc.--><path d="M41-24.9c-9.4-9.4-24.6-9.4-33.9 0S-2.3-.3 7 9.1l528 528c9.4 9.4 24.6 9.4 33.9 0s9.4-24.6 0-33.9l-87.5-87.5c17.2-2.4 30.5-17.3 30.5-35.2 0-8.1-2.7-15.9-7.8-22.2l-9.8-12.2c-29.9-37.6-46.3-84.3-46.3-132.4V192c0-77.4-55-142-128-156.8V32c0-17.7-14.3-32-32-32s-32 14.3-32 32v3.2c-38.6 7.8-72.2 29.6-95.2 59.7zm87 238.5c0 48.1-16.4 94.8-46.4 132.4l-9.8 12.2c-5 6.3-7.8 14.1-7.8 22.2 0 19.6 15.9 35.5 35.5 35.5h235.3L127.9 209v4.5zM288 512c29.8 0 54.9-20.4 62-48H226c7.1 27.6 32.2 48 62 48"/></svg>