<svg xmlns="http://www.w3.org/2000/svg" viewBox="0 0 640 512"><!--! Font Awesome Free 7.1.0 by @fontawesome - https://fontawesome.com License - https://fontawesome.com/license/free (Icons: CC BY 4.0, Fonts: SIL OFL 1.1, Code: MIT License) Copyright 2025 Fonticons, Inc.--><path d="M331.7 43.3c4.3-7 12-11.3 20.3-11.3h104c13.3 0 24 10.7 24 24s-10.7 24-24 24h-65.6l72.2 148.4c10.7-2.9 21.9-4.4 33.4-4.4 70.7 0 128 57.3 128 128s-57.3 128-128 128-128-57.3-128-128c0-42 20.2-79.2 51.4-102.6L399 207.5l-73.5 147c-2.3 4.8-6.3 8.8-11.4 11.2-.6.3-1.2.5-1.8.7-2.9 1.1-5.9 1.6-8.9 1.5l-32.4.1c-7.9 63.1-61.7 112-127 112-70.7 0-128-57.3-128-128s57.3-128 128-128c10.8 0 21.2 1.3 31.2 3.8l28.5-56.9-11.5-26.9H152c-13.3 0-24-10.7-24-24s10.7-24 24-24h56c9.6 0 18.3 5.7 22.1 14.5l14.3 33.5h123.7l-37.7-77.5c-3.6-7.4-3.2-16.2 1.2-23.2zM228.5 228.7 182.9 320h84.8l-39.1-91.3zm77.2 58.3 47.5-95H265zm168.7 75.5-29.7-61c-12.8 13-20.7 30.8-20.7 50.5 0 39.8 32.2 72 72 72s72-32.2 72-72-32.2-72-72-72c-2.7 0-5.5.2-8.1.5l29.7 61c5.8 11.9.8 26.3-11.1 32.1s-26.3.8-32.1-11.1M149.2 368c-20.2 0-33.4-21.3-24.3-39.4l24.2-48.5c-1.7-.1-3.4-.2-5.1-.2-39.8 0-72 32.2-72 72s32.2 72 72 72c34.3 0 62.9-23.9 70.2-56h-65z"/></svg>