<svg xmlns="http://www.w3.org/2000/svg" viewBox="0 0 320 512"><!--! Font Awesome Free 7.1.0 by @fontawesome - https://fontawesome.com License - https://fontawesome.com/license/free (Icons: CC BY 4.0, Fonts: SIL OFL 1.1, Code: MIT License) Copyright 2025 Fonticons, Inc.--><path d="M64 24C64 10.7 74.7 0 88 0s24 10.7 24 24v40h32V24c0-13.3 10.7-24 24-24s24 10.7 24 24v41.1c54.3 7.8 96 54.4 96 110.9 0 24.2-7.7 46.6-20.7 64.9 31.7 19.8 52.7 55 52.7 95.1 0 61.9-50.1 112-112 112h-16v40c0 13.3-10.7 24-24 24s-24-10.7-24-24v-40h-32v40c0 13.3-10.7 24-24 24s-24-10.7-24-24v-40H41.7C18.7 448 0 429.3 0 406.3V101.6C0 80.8 16.8 64 37.6 64H64zm0 200h112c26.5 0 48-21.5 48-48s-21.5-48-48-48H64zm112 64H64v96h144c26.5 0 48-21.5 48-48s-21.5-48-48-48z"/></svg>