<svg xmlns="http://www.w3.org/2000/svg" viewBox="0 0 512 512"><!--! Font Awesome Free 7.1.0 by @fontawesome - https://fontawesome.com License - https://fontawesome.com/license/free (Icons: CC BY 4.0, Fonts: SIL OFL 1.1, Code: MIT License) Copyright 2025 Fonticons, Inc.--><path d="M224 24c0-13.3 10.7-24 24-24 145.8 0 264 118.2 264 264 0 13.3-10.7 24-24 24s-24-10.7-24-24c0-119.3-96.7-216-216-216-13.3 0-24-10.7-24-24M80 96c26.5 0 48 21.5 48 48v224c0 26.5 21.5 48 48 48s48-21.5 48-48-21.5-48-48-48c-8.8 0-16-7.2-16-16v-64c0-8.8 7.2-16 16-16 79.5 0 144 64.5 144 144s-64.5 144-144 144S32 447.5 32 368V144c0-26.5 21.5-48 48-48m168 0c92.8 0 168 75.2 168 168 0 13.3-10.7 24-24 24s-24-10.7-24-24c0-66.3-53.7-120-120-120-13.3 0-24-10.7-24-24s10.7-24 24-24"/></svg>