<svg xmlns="http://www.w3.org/2000/svg" viewBox="0 0 384 512"><!--! Font Awesome Free 7.1.0 by @fontawesome - https://fontawesome.com License - https://fontawesome.com/license/free (Icons: CC BY 4.0, Fonts: SIL OFL 1.1, Code: MIT License) Copyright 2025 Fonticons, Inc.--><path d="M32 32C14.3 32 0 46.3 0 64s14.3 32 32 32h32v320H32c-17.7 0-32 14.3-32 32s14.3 32 32 32h224c70.7 0 128-57.3 128-128 0-46.5-24.8-87.3-62-109.7 18.7-22.3 30-51 30-82.3 0-70.7-57.3-128-128-128zm256 128c0 35.3-28.7 64-64 64h-96V96h96c35.3 0 64 28.7 64 64M128 416V288h128c35.3 0 64 28.7 64 64s-28.7 64-64 64z"/></svg>