<svg xmlns="http://www.w3.org/2000/svg" viewBox="0 0 640 512"><!--! Font Awesome Free 7.1.0 by @fontawesome - https://fontawesome.com License - https://fontawesome.com/license/free (Icons: CC BY 4.0, Fonts: SIL OFL 1.1, Code: MIT License) Copyright 2025 Fonticons, Inc.--><path d="M197.4 160c-3.9 0-7.2-2.8-8.1-6.6C179.1 111.3 141.2 80 96 80c-53 0-96 43-96 96 0 29.1 12.9 55.1 33.3 72.7 4.3 3.7 4.3 10.8 0 14.5C12.9 280.8 0 306.9 0 335.9c0 53 43 96 96 96 45.2 0 83.1-31.3 93.3-73.4.9-3.8 4.2-6.6 8.1-6.6h245.1c3.9 0 7.2 2.8 8.1 6.6 10.2 42.1 48.1 73.4 93.3 73.4 53 0 96-43 96-96 0-29.1-12.9-55.1-33.3-72.7-4.3-3.7-4.3-10.8 0-14.5 20.4-17.6 33.3-43.7 33.3-72.7 0-53-43-96-96-96-45.2 0-83.1 31.3-93.3 73.4-.9 3.8-4.2 6.6-8.1 6.6z"/></svg>