<svg xmlns="http://www.w3.org/2000/svg" viewBox="0 0 512 512"><!--! Font Awesome Free 7.1.0 by @fontawesome - https://fontawesome.com License - https://fontawesome.com/license/free (Icons: CC BY 4.0, Fonts: SIL OFL 1.1, Code: MIT License) Copyright 2025 Fonticons, Inc.--><path d="M256 141.3v309.3l.5-.2A449 449 0 0 1 428.8 416H448V96h-19.2c-42.2 0-84.1 8.4-123.1 24.6-16.8 7-33.4 13.9-49.7 20.7m-25.1-79.8L256 72l25.1-10.5C327.9 42 378.1 32 428.8 32H464c26.5 0 48 21.5 48 48v352c0 26.5-21.5 48-48 48h-35.2c-50.7 0-100.9 10-147.7 29.5l-12.8 5.3c-7.9 3.3-16.7 3.3-24.6 0l-12.8-5.3C184.1 490 133.9 480 83.2 480H48c-26.5 0-48-21.5-48-48V80c0-26.5 21.5-48 48-48h35.2c50.7 0 100.9 10 147.7 29.5"/></svg>