<svg xmlns="http://www.w3.org/2000/svg" viewBox="0 0 448 512"><!--! Font Awesome Free 7.1.0 by @fontawesome - https://fontawesome.com License - https://fontawesome.com/license/free (Icons: CC BY 4.0, Fonts: SIL OFL 1.1, Code: MIT License) Copyright 2025 Fonticons, Inc.--><path d="M96 512h320c17.7 0 32-14.3 32-32s-14.3-32-32-32v-66.7c18.6-6.6 32-24.4 32-45.3V48c0-26.5-21.5-48-48-48H96C43 0 0 43 0 96v320c0 53 43 96 96 96m-32-96c0-17.7 14.3-32 32-32h256v64H96c-17.7 0-32-14.3-32-32m208-252.8V176c0 8.8-7.2 16-16 16h-64c-8.8 0-16-7.2-16-16v-12.8c-19.4-11.7-32-30.3-32-51.2 0-35.3 35.8-64 80-64s80 28.7 80 64c0 20.9-12.6 39.5-32 51.2M208 112a16 16 0 1 0-32 0 16 16 0 1 0 32 0m48 16a16 16 0 1 0 0-32 16 16 0 1 0 0 32m74.2 95.7c4.6 10.1.1 21.9-9.9 26.5L272.4 272l47.9 21.8c10.1 4.6 14.5 16.4 9.9 26.5s-16.4 14.5-26.5 9.9L224 294l-79.7 36.2c-10.1 4.6-21.9.1-26.5-9.9s-.1-21.9 9.9-26.5l47.9-21.8-47.9-21.8c-10.1-4.6-14.5-16.4-9.9-26.5s16.4-14.5 26.5-9.9L224 250l79.7-36.2c10.1-4.6 21.9-.1 26.5 9.9"/></svg>