<svg xmlns="http://www.w3.org/2000/svg" viewBox="0 0 448 512"><!--! Font Awesome Free 7.1.0 by @fontawesome - https://fontawesome.com License - https://fontawesome.com/license/free (Icons: CC BY 4.0, Fonts: SIL OFL 1.1, Code: MIT License) Copyright 2025 Fonticons, Inc.--><path d="M96 512h320c17.7 0 32-14.3 32-32s-14.3-32-32-32v-66.7c18.6-6.6 32-24.4 32-45.3V48c0-26.5-21.5-48-48-48H96C43 0 0 43 0 96v320c0 53 43 96 96 96m-32-96c0-17.7 14.3-32 32-32h256v64H96c-17.7 0-32-14.3-32-32m128-296c0-8.8 7.2-16 16-16h32c8.8 0 16 7.2 16 16v40h40c8.8 0 16 7.2 16 16v32c0 8.8-7.2 16-16 16h-40v40c0 8.8-7.2 16-16 16h-32c-8.8 0-16-7.2-16-16v-40h-40c-8.8 0-16-7.2-16-16v-32c0-8.8 7.2-16 16-16h40z"/></svg>