<svg xmlns="http://www.w3.org/2000/svg" viewBox="0 0 448 512"><!--! Font Awesome Free 7.1.0 by @fontawesome - https://fontawesome.com License - https://fontawesome.com/license/free (Icons: CC BY 4.0, Fonts: SIL OFL 1.1, Code: MIT License) Copyright 2025 Fonticons, Inc.--><path d="M96 512h320c17.7 0 32-14.3 32-32s-14.3-32-32-32v-66.7c18.6-6.6 32-24.4 32-45.3V48c0-26.5-21.5-48-48-48h-48v169.4c0 12.5-10.1 22.6-22.6 22.6-6 0-11.8-2.4-16-6.6L272 144l-41.4 41.4c-4.2 4.2-10 6.6-16 6.6-12.5 0-22.6-10.1-22.6-22.6V0H96C43 0 0 43 0 96v320c0 53 43 96 96 96m-32-96c0-17.7 14.3-32 32-32h256v64H96c-17.7 0-32-14.3-32-32"/></svg>