<svg xmlns="http://www.w3.org/2000/svg" viewBox="0 0 448 512"><!--! Font Awesome Free 7.1.0 by @fontawesome - https://fontawesome.com License - https://fontawesome.com/license/free (Icons: CC BY 4.0, Fonts: SIL OFL 1.1, Code: MIT License) Copyright 2025 Fonticons, Inc.--><path d="M32 416c-17.7 0-32 14.3-32 32s14.3 32 32 32 32-14.3 32-32-14.3-32-32-32M160 32a32 32 0 1 0 0 64 32 32 0 1 0 0-64m128 384c-17.7 0-32 14.3-32 32s14.3 32 32 32 32-14.3 32-32-14.3-32-32-32m-128 64c17.7 0 32-14.3 32-32s-14.3-32-32-32-32 14.3-32 32 14.3 32 32 32M288 32a32 32 0 1 0 0 64 32 32 0 1 0 0-64m128 448c17.7 0 32-14.3 32-32s-14.3-32-32-32-32 14.3-32 32 14.3 32 32 32m0-384a32 32 0 1 0 0-64 32 32 0 1 0 0 64M32 32a32 32 0 1 0 0 64 32 32 0 1 0 0-64m384 320a32 32 0 1 0 0-64 32 32 0 1 0 0 64M32 160a32 32 0 1 0 0 64 32 32 0 1 0 0-64m0 192a32 32 0 1 0 0-64 32 32 0 1 0 0 64m384-192a32 32 0 1 0 0 64 32 32 0 1 0 0-64"/></svg>