<svg xmlns="http://www.w3.org/2000/svg" viewBox="0 0 448 512"><!--! Font Awesome Free 6.7.2 by @fontawesome - https://fontawesome.com License - https://fontawesome.com/license/free (Icons: CC BY 4.0, Fonts: SIL OFL 1.1, Code: MIT License) Copyright 2024 Fonticons, Inc.--><path d="M32 480a32 32 0 1 1 0-64 32 32 0 1 1 0 64m96-64a32 32 0 1 1 0 64 32 32 0 1 1 0-64m0-384a32 32 0 1 1 0 64 32 32 0 1 1 0-64m0 256a32 32 0 1 1 0-64 32 32 0 1 1 0 64m192 128a32 32 0 1 1 0 64 32 32 0 1 1 0-64m0-320a32 32 0 1 1 0-64 32 32 0 1 1 0 64m0 128a32 32 0 1 1 0 64 32 32 0 1 1 0-64m-96 256a32 32 0 1 1 0-64 32 32 0 1 1 0 64m0-448a32 32 0 1 1 0 64 32 32 0 1 1 0-64m0 256a32 32 0 1 1 0-64 32 32 0 1 1 0 64m192 128a32 32 0 1 1 0 64 32 32 0 1 1 0-64m0-384a32 32 0 1 1 0 64 32 32 0 1 1 0-64M32 96a32 32 0 1 1 0-64 32 32 0 1 1 0 64m384 128a32 32 0 1 1 0 64 32 32 0 1 1 0-64M32 288a32 32 0 1 1 0-64 32 32 0 1 1 0 64m192 32a32 32 0 1 1 0 64 32 32 0 1 1 0-64m192 64a32 32 0 1 1 0-64 32 32 0 1 1 0 64M32 320a32 32 0 1 1 0 64 32 32 0 1 1 0-64m384-128a32 32 0 1 1 0-64 32 32 0 1 1 0 64M32 128a32 32 0 1 1 0 64 32 32 0 1 1 0-64m192 64a32 32 0 1 1 0-64 32 32 0 1 1 0 64"/></svg>