<svg xmlns="http://www.w3.org/2000/svg" viewBox="0 0 512 512"><!--! Font Awesome Free 7.1.0 by @fontawesome - https://fontawesome.com License - https://fontawesome.com/license/free (Icons: CC BY 4.0, Fonts: SIL OFL 1.1, Code: MIT License) Copyright 2025 Fonticons, Inc.--><path d="M256 0c-17.7 0-32 14.3-32 32v232.6c-19.1 11.1-32 31.7-32 55.4 0 35.3 28.7 64 64 64s64-28.7 64-64c0-23.7-12.9-44.4-32-55.4V32c0-17.7-14.3-32-32-32M0 384v64c0 35.3 28.7 64 64 64h384c35.3 0 64-28.7 64-64V176c0-26.5-21.5-48-48-48h-48c-26.5 0-48 21.5-48 48v144c0 61.9-50.1 112-112 112s-112-50.1-112-112V176c0-26.5-21.5-48-48-48H48c-26.5 0-48 21.5-48 48z"/></svg>