<svg xmlns="http://www.w3.org/2000/svg" viewBox="0 0 320 512"><!--! Font Awesome Free 7.1.0 by @fontawesome - https://fontawesome.com License - https://fontawesome.com/license/free (Icons: CC BY 4.0, Fonts: SIL OFL 1.1, Code: MIT License) Copyright 2025 Fonticons, Inc.--><path d="M80 0c0-17.7 14.3-32 32-32h96c17.7 0 32 14.3 32 32s-14.3 32-32 32v103.3c64.9 20.4 112 81 112 152.7v192c0 35.3-28.7 64-64 64H64c-35.3 0-64-28.7-64-64V288c0-71.6 47.1-132.3 112-152.7V32C94.3 32 80 17.7 80 0m80 416c35.3 0 64-32.4 64-64 0-21.2-28.9-64.5-47.9-90.6-8.1-11.1-24.2-11.1-32.3 0-19 26.1-47.9 69.4-47.9 90.6 0 31.6 28.7 64 64 64z"/></svg>