<svg xmlns="http://www.w3.org/2000/svg" viewBox="0 0 512 512"><!--! Font Awesome Free 7.1.0 by @fontawesome - https://fontawesome.com License - https://fontawesome.com/license/free (Icons: CC BY 4.0, Fonts: SIL OFL 1.1, Code: MIT License) Copyright 2025 Fonticons, Inc.--><path d="M0 64c0-17.7 14.3-32 32-32h448c17.7 0 32 14.3 32 32v32c0 17.7-14.3 32-32 32H32c-17.7 0-32-14.3-32-32zm32 112h448v240c0 35.3-28.7 64-64 64H96c-35.3 0-64-28.7-64-64zm152 64c-13.3 0-24 10.7-24 24s10.7 24 24 24h144c13.3 0 24-10.7 24-24s-10.7-24-24-24z"/></svg>