<svg xmlns="http://www.w3.org/2000/svg" viewBox="0 0 512 512"><!--! Font Awesome Free 7.1.0 by @fontawesome - https://fontawesome.com License - https://fontawesome.com/license/free (Icons: CC BY 4.0, Fonts: SIL OFL 1.1, Code: MIT License) Copyright 2025 Fonticons, Inc.--><path d="M224 0v64c0 8.8 7.2 16 16 16h32c8.8 0 16-7.2 16-16V0h32c35.3 0 64 28.7 64 64v128c0 5.5-.7 10.9-2 16H130c-1.3-5.1-2-10.5-2-16V64c0-35.3 28.7-64 64-64zm96 512c-11.2 0-21.8-2.9-31-8 9.5-16.5 15-35.6 15-56V320c0-20.4-5.5-39.5-15-56 9.2-5.1 19.7-8 31-8h32v64c0 8.8 7.2 16 16 16h32c8.8 0 16-7.2 16-16v-64h32c35.3 0 64 28.7 64 64v128c0 35.3-28.7 64-64 64zM0 320c0-35.3 28.7-64 64-64h32v64c0 8.8 7.2 16 16 16h32c8.8 0 16-7.2 16-16v-64h32c35.3 0 64 28.7 64 64v128c0 35.3-28.7 64-64 64H64c-35.3 0-64-28.7-64-64z"/></svg>