<svg xmlns="http://www.w3.org/2000/svg" viewBox="0 0 576 512"><!--! Font Awesome Free 7.1.0 by @fontawesome - https://fontawesome.com License - https://fontawesome.com/license/free (Icons: CC BY 4.0, Fonts: SIL OFL 1.1, Code: MIT License) Copyright 2025 Fonticons, Inc.--><path d="M208 0h80v56c0 13.3 10.7 24 24 24h80c13.3 0 24-10.7 24-24V0h80c26.5 0 48 21.5 48 48v416c0 26.5-21.5 48-48 48H387.2c8.2-14.1 12.8-30.5 12.8-48V304c10-13.4 16-30 16-48v-32c0-44.2-35.8-80-80-80H160V48c0-26.5 21.5-48 48-48M32 336h320v128c0 26.5-21.5 48-48 48H80c-26.5 0-48-21.5-48-48zm16-144h288c17.7 0 32 14.3 32 32v32c0 17.7-14.3 32-32 32H48c-17.7 0-32-14.3-32-32v-32c0-17.7 14.3-32 32-32"/></svg>