<svg xmlns="http://www.w3.org/2000/svg" viewBox="0 0 384 512"><!--! Font Awesome Free 7.1.0 by @fontawesome - https://fontawesome.com License - https://fontawesome.com/license/free (Icons: CC BY 4.0, Fonts: SIL OFL 1.1, Code: MIT License) Copyright 2025 Fonticons, Inc.--><path d="M80 144a80 80 0 1 0 0-160 80 80 0 1 0 0 160m0 192a80 80 0 1 0 0-160 80 80 0 1 0 0 160m0 136c-13.3 0-24-10.7-24-24s10.7-24 24-24 24 10.7 24 24-10.7 24-24 24m0 56c44.2 0 80-35.8 80-80s-35.8-80-80-80-80 35.8-80 80 35.8 80 80 80m248-80c0 13.3-10.7 24-24 24s-24-10.7-24-24 10.7-24 24-24 24 10.7 24 24m56 0c0-44.2-35.8-80-80-80s-80 35.8-80 80 35.8 80 80 80 80-35.8 80-80m-80-216a24 24 0 1 1 0 48 24 24 0 1 1 0-48m0 104a80 80 0 1 0 0-160 80 80 0 1 0 0 160m0-192a80 80 0 1 0 0-160 80 80 0 1 0 0 160"/></svg>