<svg xmlns="http://www.w3.org/2000/svg" viewBox="0 0 512 512"><!--! Font Awesome Free 7.1.0 by @fontawesome - https://fontawesome.com License - https://fontawesome.com/license/free (Icons: CC BY 4.0, Fonts: SIL OFL 1.1, Code: MIT License) Copyright 2025 Fonticons, Inc.--><path d="M400 16c17.7 0 32 14.3 32 32v16h16c17.7 0 32 14.3 32 32s-14.3 32-32 32h-48.9c-26 0-47.1 21.1-47.1 47.1 0 22.5 15.9 41.8 37.9 46.2l32.8 6.6c51.9 10.4 89.3 56 89.3 109 0 50.6-33.8 93.3-80 106.7V464c0 17.7-14.3 32-32 32s-32-14.3-32-32v-16h-32c-17.7 0-32-14.3-32-32s14.3-32 32-32h64.9c26 0 47.1-21.1 47.1-47.1 0-22.5-15.9-41.8-37.9-46.2l-32.8-6.6c-51.9-10.4-89.3-56-89.3-109 0-50.6 33.8-93.2 80-106.7V48c0-17.7 14.3-32 32-32M0 64c0-17.7 14.3-32 32-32h80c79.5 0 144 64.5 144 144 0 54.3-30 101.5-74.4 126.1l41 136.7c5.1 16.9-4.5 34.8-21.5 39.8s-34.8-4.5-39.8-21.5l-41.2-137.3c-2.7.1-5.4.2-8.1.2H64v128c0 17.7-14.3 32-32 32S0 465.7 0 448zm64 192h48c44.2 0 80-35.8 80-80s-35.8-80-80-80H64z"/></svg>