<svg xmlns="http://www.w3.org/2000/svg" viewBox="0 0 576 512"><!--! Font Awesome Free 7.1.0 by @fontawesome - https://fontawesome.com License - https://fontawesome.com/license/free (Icons: CC BY 4.0, Fonts: SIL OFL 1.1, Code: MIT License) Copyright 2025 Fonticons, Inc.--><path d="M0 64c0-17.7 14.3-32 32-32h448c17.7 0 32 14.3 32 32s-14.3 32-32 32h-8v32.2c13.8.6 27.2 2.8 40 6.4v50.7c-14.8-6-31-9.3-48-9.3-70.7 0-128 57.3-128 128v24.4c-.4.3-.7.6-1.1 1-17.3-25-46.2-41.3-78.9-41.3-53 0-96 43-96 96v64c0 17.7-14.3 32-32 32H96c-17.7 0-32-14.3-32-32v-94c0-38.8-26.4-72.6-64-82v-112h40v-64h-8C14.3 96 0 81.7 0 64m424 68.6V96h-80v64h18.8c18.2-12.8 38.9-22.2 61.2-27.4M216 96v64h80V96zm-48 0H88v64h80zm328 208.1c0-17.7-14.3-32-32-32s-32 14.3-32 32V352h64zM352 400c0-20.9 13.4-38.7 32-45.3v-50.6c0-44.2 35.8-80 80-80s80 35.8 80 80v50.6c18.6 6.6 32 24.4 32 45.3v96c0 26.5-21.5 48-48 48H400c-26.5 0-48-21.5-48-48z"/></svg>