<svg xmlns="http://www.w3.org/2000/svg" viewBox="0 0 576 512"><!--! Font Awesome Free 7.1.0 by @fontawesome - https://fontawesome.com License - https://fontawesome.com/license/free (Icons: CC BY 4.0, Fonts: SIL OFL 1.1, Code: MIT License) Copyright 2025 Fonticons, Inc.--><path d="M32 32C14.3 32 0 46.3 0 64s14.3 32 32 32h8v64H0v112c37.6 9.4 64 43.2 64 82v94c0 17.7 14.3 32 32 32h32c17.7 0 32-14.3 32-32v-64c0-53 43-96 96-96 6.4 0 12.7.6 18.7 1.8C309.4 240.3 366.9 208 432 208c28.6 0 55.6 6.2 80 17.4V160h-40V96h8c17.7 0 32-14.3 32-32s-14.3-32-32-32zm392 64v64h-80V96zm-128 0v64h-80V96zM88 96h80v64H88zm344 448a144 144 0 1 0 0-288 144 144 0 1 0 0 288m59.3-180.7L454.6 400l36.7 36.7c6.2 6.2 6.2 16.4 0 22.6s-16.4 6.2-22.6 0L432 422.6l-36.7 36.7c-6.2 6.2-16.4 6.2-22.6 0s-6.2-16.4 0-22.6l36.7-36.7-36.7-36.7c-6.2-6.2-6.2-16.4 0-22.6s16.4-6.2 22.6 0l36.7 36.7 36.7-36.7c6.2-6.2 16.4-6.2 22.6 0s6.2 16.4 0 22.6"/></svg>