<svg xmlns="http://www.w3.org/2000/svg" viewBox="0 0 512 512"><!--! Font Awesome Free 7.1.0 by @fontawesome - https://fontawesome.com License - https://fontawesome.com/license/free (Icons: CC BY 4.0, Fonts: SIL OFL 1.1, Code: MIT License) Copyright 2025 Fonticons, Inc.--><path d="M200 48h112c4.4 0 8 3.6 8 8v40H192V56c0-4.4 3.6-8 8-8m-56 8v40H64c-35.3 0-64 28.7-64 64v256c0 35.3 28.7 64 64 64h384c35.3 0 64-28.7 64-64V160c0-35.3-28.7-64-64-64h-80V56c0-30.9-25.1-56-56-56H200c-30.9 0-56 25.1-56 56m80 160c0-8.8 7.2-16 16-16h32c8.8 0 16 7.2 16 16v40h40c8.8 0 16 7.2 16 16v32c0 8.8-7.2 16-16 16h-40v40c0 8.8-7.2 16-16 16h-32c-8.8 0-16-7.2-16-16v-40h-40c-8.8 0-16-7.2-16-16v-32c0-8.8 7.2-16 16-16h40z"/></svg>