<svg xmlns="http://www.w3.org/2000/svg" viewBox="0 0 448 512"><!--! Font Awesome Free 7.1.0 by @fontawesome - https://fontawesome.com License - https://fontawesome.com/license/free (Icons: CC BY 4.0, Fonts: SIL OFL 1.1, Code: MIT License) Copyright 2025 Fonticons, Inc.--><path d="M443.7 208c2.7 4.7 4.3 10.2 4.3 16 0 17.7-14.3 32-32 32h-5.1l-22.4 213c-2.6 24.4-23.2 43-47.8 43H107.1c-24.6 0-45.2-18.5-47.8-43L37.1 256H32c-17.7 0-32-14.3-32-32 0-5.8 1.6-11.3 4.3-16zM224-16c79.5 0 144 64.5 144 144v32h-48v-32c0-53-43-96-96-96s-96 43-96 96v32H80v-32c0-79.5 64.5-144 144-144"/></svg>