<svg xmlns="http://www.w3.org/2000/svg" viewBox="0 0 576 512"><!--! Font Awesome Free 7.1.0 by @fontawesome - https://fontawesome.com License - https://fontawesome.com/license/free (Icons: CC BY 4.0, Fonts: SIL OFL 1.1, Code: MIT License) Copyright 2025 Fonticons, Inc.--><path d="M7-24.9c9.4-9.4 24.6-9.4 33.9 0L241.8 176H344c14.2 0 27.7 2.8 40 8l108.8-81.6c14.1-10.6 34.2-7.7 44.8 6.4s7.7 34.2-6.4 44.8l-97.8 73.3c5.3 8.9 9.3 18.7 11.8 29.1H544c17.7 0 32 14.3 32 32s-14.3 32-32 32h-96v32c0 9.5-.8 18.7-2.4 27.8L569 503.1c9.4 9.4 9.4 24.6 0 33.9s-24.6 9.4-33.9 0L7 9.1c-9.3-9.4-9.3-24.6 0-34M398.2 468c-23.2 22.1-53 37.2-86.2 42.2V381.8zM264 333.8v176.4c-51.2-7.7-94.5-39.7-117.7-83.9l-63.1 47.3c-14.1 10.6-34.2 7.7-44.8-6.4s-7.7-34.2 6.4-44.8l83.4-62.5c-.1-2.6-.2-5.2-.2-7.9v-32H32c-17.7 0-32-14.3-32-32s14.3-32 32-32h98.8c3.3-13.9 9.3-26.7 17.6-37.8zM355.6 128h-82.4l-72.3-72.3C216.1 22.8 249.4 0 288 0c53 0 96 43 96 96v3.6c0 15.7-12.7 28.4-28.4 28.4"/></svg>