<svg xmlns="http://www.w3.org/2000/svg" viewBox="0 0 576 512"><!--! Font Awesome Free 7.1.0 by @fontawesome - https://fontawesome.com License - https://fontawesome.com/license/free (Icons: CC BY 4.0, Fonts: SIL OFL 1.1, Code: MIT License) Copyright 2025 Fonticons, Inc.--><path d="M32 64C32 28.7 60.7 0 96 0h256c35.3 0 64 28.7 64 64v144.7c-35.7 2.9-68.5 15.6-96 35.4v-4c0-8.8-7.2-16-16-16h-32c-8.8 0-16 7.2-16 16v32c0 8.8 7.2 16 16 16h4c-13.8 19.2-24.1 41-30.1 64.5-1.9-.4-3.9-.5-5.9-.5h-32c-17.7 0-32 14.3-32 32v80h74.9c6.1 17.3 14.6 33.4 25.1 48L96 512c-35.3 0-64-28.7-64-64zm112 32c-8.8 0-16 7.2-16 16v32c0 8.8 7.2 16 16 16h32c8.8 0 16-7.2 16-16v-32c0-8.8-7.2-16-16-16zm112 16v32c0 8.8 7.2 16 16 16h32c8.8 0 16-7.2 16-16v-32c0-8.8-7.2-16-16-16h-32c-8.8 0-16 7.2-16 16M144 224c-8.8 0-16 7.2-16 16v32c0 8.8 7.2 16 16 16h32c8.8 0 16-7.2 16-16v-32c0-8.8-7.2-16-16-16zm144 176a144 144 0 1 1 288 0 144 144 0 1 1-288 0m140.7-67.3c-6.2 6.2-6.2 16.4 0 22.6l28.7 28.7H368c-8.8 0-16 7.2-16 16s7.2 16 16 16h89.4l-28.7 28.7c-6.2 6.2-6.2 16.4 0 22.6s16.4 6.2 22.6 0l56-56c6.2-6.2 6.2-16.4 0-22.6l-56-56c-6.2-6.2-16.4-6.2-22.6 0"/></svg>