<svg xmlns="http://www.w3.org/2000/svg" viewBox="0 0 576 512"><!--! Font Awesome Free 7.1.0 by @fontawesome - https://fontawesome.com License - https://fontawesome.com/license/free (Icons: CC BY 4.0, Fonts: SIL OFL 1.1, Code: MIT License) Copyright 2025 Fonticons, Inc.--><path d="M96 0C60.7 0 32 28.7 32 64v384c0 35.3 28.7 64 64 64h201.2c-12.5-14.7-23.2-30.8-31.8-48h-89.5v-80c0-17.7 14.3-32 32-32h32v-26.7c0-18.1 6.1-35.2 16.6-48.8q-.6-2.1-.6-4.5v-32c0-8.8 7.2-16 16-16h32c8.8 0 16 7.2 16 16v1l86.7-28.9c3.1-1 6.2-1.8 9.3-2.5L416 64c0-35.3-28.7-64-64-64zm32 112c0-8.8 7.2-16 16-16h32c8.8 0 16 7.2 16 16v32c0 8.8-7.2 16-16 16h-32c-8.8 0-16-7.2-16-16zm144-16h32c8.8 0 16 7.2 16 16v32c0 8.8-7.2 16-16 16h-32c-8.8 0-16-7.2-16-16v-32c0-8.8 7.2-16 16-16M128 240c0-8.8 7.2-16 16-16h32c8.8 0 16 7.2 16 16v32c0 8.8-7.2 16-16 16h-32c-8.8 0-16-7.2-16-16zm317.3 248.5-13.3 6.3V306.7l96 32v19.6c0 55.8-32.2 106.5-82.7 130.3zm-23.4-229-112 37.3c-13.1 4.4-21.9 16.6-21.9 30.4v31.1c0 74.4 43 142.1 110.2 173.7l18.5 8.7c4.8 2.2 10 3.4 15.2 3.4s10.5-1.2 15.2-3.4l18.5-8.7C533 500.3 576 432.6 576 358.2v-31.1c0-13.8-8.8-26-21.9-30.4l-112-37.3c-6.6-2.2-13.7-2.2-20.2 0z"/></svg>