<svg xmlns="http://www.w3.org/2000/svg" viewBox="0 0 576 512"><!--! Font Awesome Free 7.1.0 by @fontawesome - https://fontawesome.com License - https://fontawesome.com/license/free (Icons: CC BY 4.0, Fonts: SIL OFL 1.1, Code: MIT License) Copyright 2025 Fonticons, Inc.--><path d="M128 0C92.7 0 64 28.7 64 64v384c0 35.3 28.7 64 64 64h48V400c0-35.3 28.7-64 64-64h208V64c0-35.3-28.7-64-64-64zm32 112c0-8.8 7.2-16 16-16h32c8.8 0 16 7.2 16 16v32c0 8.8-7.2 16-16 16h-32c-8.8 0-16-7.2-16-16zm144-16h32c8.8 0 16 7.2 16 16v32c0 8.8-7.2 16-16 16h-32c-8.8 0-16-7.2-16-16v-32c0-8.8 7.2-16 16-16M160 240c0-8.8 7.2-16 16-16h32c8.8 0 16 7.2 16 16v32c0 8.8-7.2 16-16 16h-32c-8.8 0-16-7.2-16-16zm144-16h32c8.8 0 16 7.2 16 16v32c0 8.8-7.2 16-16 16h-32c-8.8 0-16-7.2-16-16v-32c0-8.8 7.2-16 16-16m216 156c-24.3 0-44 19.7-44 44v80c0 24.3 19.7 44 44 44h16c24.3 0 44-19.7 44-44v-80c0-24.3-19.7-44-44-44zm-4 44c0-2.2 1.8-4 4-4h16c2.2 0 4 1.8 4 4v80c0 2.2-1.8 4-4 4h-16c-2.2 0-4-1.8-4-4zm-168 0v80c0 24.3 19.7 44 44 44h16c24.3 0 44-19.7 44-44v-24c0-11-9-20-20-20h-8c-11 0-20 9-20 20 0 6.5 3.1 12.4 8 16v8c0 2.2-1.8 4-4 4h-16c-2.2 0-4-1.8-4-4v-80c0-2.2 1.8-4 4-4h20.4c1.9 9.1 9.9 16 19.6 16 11 0 20-9 20-20 0-19.9-16.1-36-36-36h-24c-24.3 0-44 19.7-44 44m-90.1-32.9c-4.1-8.3-13.5-12.7-22.5-10.5S220 390.7 220 400v128c0 11 9 20 20 20s20-9 20-20v-43.3l26.1 52.2c4.1 8.3 13.5 12.7 22.5 10.5S324 537.3 324 528V400c0-11-9-20-20-20s-20 9-20 20v43.3z"/></svg>