<svg xmlns="http://www.w3.org/2000/svg" viewBox="0 0 576 512"><!--! Font Awesome Free 7.1.0 by @fontawesome - https://fontawesome.com License - https://fontawesome.com/license/free (Icons: CC BY 4.0, Fonts: SIL OFL 1.1, Code: MIT License) Copyright 2025 Fonticons, Inc.--><path d="M32 64C32 28.7 60.7 0 96 0h256c35.3 0 64 28.7 64 64v121.3c-46.9 19-80 65-80 118.7v24.4c-19.6 17.6-32 43.1-32 71.5v96c0 5.5.5 10.9 1.3 16.1H96c-35.3 0-64-28.7-64-64zm144 320v80h80v-64.1c0-13.7 1.9-27 5.5-39.6-5.7-5.2-13.2-8.3-21.5-8.3h-32c-17.7 0-32 14.3-32 32m131-159.7q-1.5-.3-3-.3h-32c-8.8 0-16 7.2-16 16v32c0 8.8 7.2 16 16 16h16.7c2.1-22.8 8.4-44.3 18.3-63.7M144 96c-8.8 0-16 7.2-16 16v32c0 8.8 7.2 16 16 16h32c8.8 0 16-7.2 16-16v-32c0-8.8-7.2-16-16-16zm112 16v32c0 8.8 7.2 16 16 16h32c8.8 0 16-7.2 16-16v-32c0-8.8-7.2-16-16-16h-32c-8.8 0-16 7.2-16 16M144 224c-8.8 0-16 7.2-16 16v32c0 8.8 7.2 16 16 16h32c8.8 0 16-7.2 16-16v-32c0-8.8-7.2-16-16-16zm352 80.1c0-17.7-14.3-32-32-32s-32 14.3-32 32V352h64zM352 400c0-20.9 13.4-38.7 32-45.3v-50.6c0-44.2 35.8-80 80-80s80 35.8 80 80v50.6c18.6 6.6 32 24.4 32 45.3v96c0 26.5-21.5 48-48 48H400c-26.5 0-48-21.5-48-48z"/></svg>