<svg xmlns="http://www.w3.org/2000/svg" viewBox="0 0 640 512"><!--! Font Awesome Free 7.1.0 by @fontawesome - https://fontawesome.com License - https://fontawesome.com/license/free (Icons: CC BY 4.0, Fonts: SIL OFL 1.1, Code: MIT License) Copyright 2025 Fonticons, Inc.--><path d="M96 0C60.7 0 32 28.7 32 64v384c0 35.3 28.7 64 64 64h249.3c-6-14.8-9.3-31-9.3-48 0-17.7 7.2-33.7 18.8-45.3-11.9-19.4-18.8-42.3-18.8-66.7 0-17.7 7.2-33.7 18.8-45.3-11.9-19.4-18.8-42.3-18.8-66.7 0-25.2 14.5-46.9 35.6-57.4-2.4-7.1-3.6-14.7-3.6-22.6v-32c0-31.3 20-57.9 47.9-67.9C413.9 26.6 386 0 352 0zm112 352h32c17.7 0 32 14.3 32 32v80h-96v-80c0-17.7 14.3-32 32-32m-80-240c0-8.8 7.2-16 16-16h32c8.8 0 16 7.2 16 16v32c0 8.8-7.2 16-16 16h-32c-8.8 0-16-7.2-16-16zm144-16h32c8.8 0 16 7.2 16 16v32c0 8.8-7.2 16-16 16h-32c-8.8 0-16-7.2-16-16v-32c0-8.8 7.2-16 16-16M128 240c0-8.8 7.2-16 16-16h32c8.8 0 16 7.2 16 16v32c0 8.8-7.2 16-16 16h-32c-8.8 0-16-7.2-16-16zm144-16h32c8.8 0 16 7.2 16 16v32c0 8.8-7.2 16-16 16h-32c-8.8 0-16-7.2-16-16v-32c0-8.8 7.2-16 16-16m352 0h-16c-44.2 0-80 35.8-80 80 0 8.8 7.2 16 16 16h16c44.2 0 80-35.8 80-80 0-8.8-7.2-16-16-16m16 128c0-8.8-7.2-16-16-16h-16c-44.2 0-80 35.8-80 80 0 8.8 7.2 16 16 16h16c44.2 0 80-35.8 80-80m0 112c0-8.8-7.2-16-16-16h-16c-44.2 0-80 35.8-80 80 0 8.8 7.2 16 16 16h16c44.2 0 80-35.8 80-80m-144 64c0-44.2-35.8-80-80-80h-16c-8.8 0-16 7.2-16 16 0 44.2 35.8 80 80 80h16c8.8 0 16-7.2 16-16m-16-96c8.8 0 16-7.2 16-16 0-44.2-35.8-80-80-80h-16c-8.8 0-16 7.2-16 16 0 44.2 35.8 80 80 80zm16-128c0-44.2-35.8-80-80-80h-16c-8.8 0-16 7.2-16 16 0 44.2 35.8 80 80 80h16c8.8 0 16-7.2 16-16m16-240c-13.3 0-24 10.7-24 24v104c0 13.3 10.7 24 24 24s24-10.7 24-24V88c0-13.3-10.7-24-24-24m96 64c0-13.3-10.7-24-24-24s-24 10.7-24 24v32c0 13.3 10.7 24 24 24s24-10.7 24-24zm-168-24c-13.3 0-24 10.7-24 24v32c0 13.3 10.7 24 24 24s24-10.7 24-24v-32c0-13.3-10.7-24-24-24"/></svg>