<svg xmlns="http://www.w3.org/2000/svg" viewBox="0 0 512 512"><!--! Font Awesome Free 7.1.0 by @fontawesome - https://fontawesome.com License - https://fontawesome.com/license/free (Icons: CC BY 4.0, Fonts: SIL OFL 1.1, Code: MIT License) Copyright 2025 Fonticons, Inc.--><path d="M461.2 18.9C472.7 24 480 35.4 480 48v416c0 12.6-7.3 24-18.8 29.1s-24.8 3.2-34.3-5.1l-46.6-40.7c-43.6-38.1-98.7-60.3-156.4-63V480c0 17.7-14.3 32-32 32h-32c-17.7 0-32-14.3-32-32v-96C57.3 384 0 326.7 0 256s57.3-128 128-128h84.5c61.8-.2 121.4-22.7 167.9-63.3L427 24c9.4-8.3 22.9-10.2 34.3-5.1zM224 320v.2c70.3 2.7 137.8 28.5 192 73.4V118.3c-54.2 44.9-121.7 70.7-192 73.4z"/></svg>