<svg xmlns="http://www.w3.org/2000/svg" viewBox="0 0 640 512"><!--! Font Awesome Free 7.1.0 by @fontawesome - https://fontawesome.com License - https://fontawesome.com/license/free (Icons: CC BY 4.0, Fonts: SIL OFL 1.1, Code: MIT License) Copyright 2025 Fonticons, Inc.--><path d="M480 0c88.4 0 160 71.6 160 160v224c0 35.3-28.7 64-64 64h-5.6c-13.2 37.3-48.6 64-90.4 64s-77.3-26.7-90.4-64H250.5c-13.2 37.3-48.7 64-90.4 64s-77.2-26.7-90.4-64H64c-35.3 0-64-28.7-64-64V96C0 43 43 0 96 0zM160 368a48 48 0 1 0 0 96 48 48 0 1 0 0-96m320 0a48 48 0 1 0 0 96 48 48 0 1 0 0-96m0-304c-17.7 0-32 14.3-32 32v192c0 17.7 14.3 32 32 32h64c17.7 0 32-14.3 32-32V160c0-53-43-96-96-96M248 224h104c17.7 0 32-14.3 32-32V96c0-17.7-14.3-32-32-32H248zM96 64c-17.7 0-32 14.3-32 32v96c0 17.7 14.3 32 32 32h104V64z"/></svg>