<svg xmlns="http://www.w3.org/2000/svg" viewBox="0 0 448 512"><!--! Font Awesome Free 7.1.0 by @fontawesome - https://fontawesome.com License - https://fontawesome.com/license/free (Icons: CC BY 4.0, Fonts: SIL OFL 1.1, Code: MIT License) Copyright 2025 Fonticons, Inc.--><path d="M96 0C43 0 0 43 0 96v288c0 29.8 20.4 54.9 48 62v34c0 17.7 14.3 32 32 32h16c17.7 0 32-14.3 32-32v-32h192v32c0 17.7 14.3 32 32 32h16c17.7 0 32-14.3 32-32v-34c27.6-7.1 48-32.2 48-62V96c0-53-43-96-96-96zM64 176c0-17.7 14.3-32 32-32h104v112H96c-17.7 0-32-14.3-32-32zm184 80V144h104c17.7 0 32 14.3 32 32v48c0 17.7-14.3 32-32 32zM96 320a32 32 0 1 1 0 64 32 32 0 1 1 0-64m256 0a32 32 0 1 1 0 64 32 32 0 1 1 0-64M152 72c0-13.3 10.7-24 24-24h96c13.3 0 24 10.7 24 24s-10.7 24-24 24h-96c-13.3 0-24-10.7-24-24"/></svg>