<svg xmlns="http://www.w3.org/2000/svg" viewBox="0 0 512 512"><!--! Font Awesome Free 7.1.0 by @fontawesome - https://fontawesome.com License - https://fontawesome.com/license/free (Icons: CC BY 4.0, Fonts: SIL OFL 1.1, Code: MIT License) Copyright 2025 Fonticons, Inc.--><path d="M192 0c-17.7 0-32 14.3-32 32v32h-8.9c-42 0-79.1 27.3-91.6 67.4l-23 73.5C14.5 219.1 0 243.9 0 272v176c0 17.7 14.3 32 32 32h32c17.7 0 32-14.3 32-32v-32h320v32c0 17.7 14.3 32 32 32h32c17.7 0 32-14.3 32-32V272c0-28.1-14.5-52.9-36.4-67.1l-23-73.5C440.1 91.3 402.9 64 360.9 64H352V32c0-17.7-14.3-32-32-32zm-40.9 128H361c14 0 26.4 9.1 30.5 22.5l13 41.5H107.6l13-41.5c4.2-13.4 16.5-22.5 30.5-22.5M96 272a32 32 0 1 1 0 64 32 32 0 1 1 0-64m288 32a32 32 0 1 1 64 0 32 32 0 1 1-64 0"/></svg>