<svg xmlns="http://www.w3.org/2000/svg" viewBox="0 0 512 512"><!--! Font Awesome Free 7.1.0 by @fontawesome - https://fontawesome.com License - https://fontawesome.com/license/free (Icons: CC BY 4.0, Fonts: SIL OFL 1.1, Code: MIT License) Copyright 2025 Fonticons, Inc.--><path d="M288-32a32 32 0 1 1 0 64 32 32 0 1 1 0-64M160 24a32 32 0 1 1 64 0 32 32 0 1 1-64 0M32 288c0-35.3 28.7-64 64-64h136v-96.2L38.6 183.1c-12.7 3.6-26-3.7-29.7-16.5s3.7-26 16.5-29.7l224-64 224-64c12.7-3.6 26 3.7 29.7 16.5s-3.7 26-16.5 29.7l-206.6 59V224h136c35.3 0 64 28.7 64 64v160c0 35.3-28.7 64-64 64H96c-35.3 0-64-28.7-64-64zm80 0c-8.8 0-16 7.2-16 16v64c0 8.8 7.2 16 16 16h56v-96zm184 96v-96h-80v96zm48 0h56c8.8 0 16-7.2 16-16v-64c0-8.8-7.2-16-16-16h-56z"/></svg>