<svg xmlns="http://www.w3.org/2000/svg" viewBox="0 0 384 512"><!--! Font Awesome Free 7.1.0 by @fontawesome - https://fontawesome.com License - https://fontawesome.com/license/free (Icons: CC BY 4.0, Fonts: SIL OFL 1.1, Code: MIT License) Copyright 2025 Fonticons, Inc.--><path d="M64 0C28.7 0 0 28.7 0 64v384c0 35.3 28.7 64 64 64h256c35.3 0 64-28.7 64-64V64c0-35.3-28.7-64-64-64zm32 64h192c17.7 0 32 14.3 32 32v32c0 17.7-14.3 32-32 32H96c-17.7 0-32-14.3-32-32V96c0-17.7 14.3-32 32-32m16 168a24 24 0 1 1-48 0 24 24 0 1 1 48 0m80 24a24 24 0 1 1 0-48 24 24 0 1 1 0 48m128-24a24 24 0 1 1-48 0 24 24 0 1 1 48 0M88 352a24 24 0 1 1 0-48 24 24 0 1 1 0 48m128-24a24 24 0 1 1-48 0 24 24 0 1 1 48 0m80 24a24 24 0 1 1 0-48 24 24 0 1 1 0 48M64 424c0-13.3 10.7-24 24-24h112c13.3 0 24 10.7 24 24s-10.7 24-24 24H88c-13.3 0-24-10.7-24-24m232-24c13.3 0 24 10.7 24 24s-10.7 24-24 24-24-10.7-24-24 10.7-24 24-24"/></svg>