<svg xmlns="http://www.w3.org/2000/svg" viewBox="0 0 512 512"><!--! Font Awesome Free 7.1.0 by @fontawesome - https://fontawesome.com License - https://fontawesome.com/license/free (Icons: CC BY 4.0, Fonts: SIL OFL 1.1, Code: MIT License) Copyright 2025 Fonticons, Inc.--><path d="m138.7 96 10.4-31.2c6.5-19.6 24.8-32.8 45.5-32.8h122.8c20.7 0 39 13.2 45.5 32.8L373.3 96H448c35.3 0 64 28.7 64 64v256c0 35.3-28.7 64-64 64H64c-35.3 0-64-28.7-64-64V160c0-35.3 28.7-64 64-64zM96 305.9c0 3.9 1.4 7.7 4 10.6l48 54c6.4 7.2 17.6 7.2 23.9 0l48-54c2.6-2.9 4-6.7 4-10.6V304c0-8.8-7.2-16-16-16h-24c0-39.8 32.2-72 72-72q6.6 0 12.9 1.2l34.9-39.3c-14.6-6.4-30.8-9.9-47.8-9.9-66.3 0-120 53.7-120 120h-24c-8.8 0-16 7.2-16 16v1.9zm196-46.5c-2.6 2.9-4 6.7-4 10.6v1.9c0 8.8 7.2 16 16 16h24c0 39.8-32.2 72-72 72q-6.6 0-12.9-1.2L208.2 398c14.7 6.4 30.8 9.9 47.8 9.9 66.3 0 120-53.7 120-120h24c8.8 0 16-7.2 16-16V270c0-3.9-1.4-7.7-4-10.6l-48-54c-6.4-7.2-17.6-7.2-23.9 0l-48 54z"/></svg>