<svg xmlns="http://www.w3.org/2000/svg" viewBox="0 0 576 512"><!--! Font Awesome Free 7.1.0 by @fontawesome - https://fontawesome.com License - https://fontawesome.com/license/free (Icons: CC BY 4.0, Fonts: SIL OFL 1.1, Code: MIT License) Copyright 2025 Fonticons, Inc.--><path d="M96 112c0-26.5 21.5-48 48-48s48 21.5 48 48v112H96zm-64 0v288c0 61.9 50.1 112 112 112s112-50.1 112-112V294.2l116.3 169.5c35.5 51.7 105.3 64.3 156 28.1s63-107.5 27.5-159.2L427.3 145.3C391.8 93.6 322 81 271.3 117.2c-5.6 4-10.7 8.4-15.3 13.1V112C256 50.1 205.9 0 144 0S32 50.1 32 112m264.6 128.2c-16-23.3-10-55.3 11.9-71 21.2-15.1 50.5-10.3 66 12.2l67 97.6-79.9 55.9-65-94.8z"/></svg>