<svg xmlns="http://www.w3.org/2000/svg" viewBox="0 0 576 512"><!--! Font Awesome Free 7.1.0 by @fontawesome - https://fontawesome.com License - https://fontawesome.com/license/free (Icons: CC BY 4.0, Fonts: SIL OFL 1.1, Code: MIT License) Copyright 2025 Fonticons, Inc.--><path d="M64 96c53 0 96 43 96 96v85.8c29.7-44.7 77.8-76.2 133.4-84 25.6 60 85.2 102.1 154.6 102.1 10.9 0 21.6-1.1 32-3.1V480c0 17.7-14.3 32-32 32s-32-14.3-32-32V339.2L280 448h56c17.7 0 32 14.3 32 32s-14.3 32-32 32H192c-53 0-96-43-96-96V192c0-16.6-12.6-30.2-28.7-31.8l-6.6-.3C44.6 158.2 32 144.6 32 128c0-17.7 14.3-32 32-32M533.8 3.2C544.2-5.5 560 1.9 560 15.5V128c0 61.9-50.1 112-112 112s-112-50.1-112-112V15.5c0-13.6 15.8-21 26.2-12.3L416 48h64zM400 108a20 20 0 1 0 0 40 20 20 0 1 0 0-40m96 0a20 20 0 1 0 0 40 20 20 0 1 0 0-40"/></svg>