<svg xmlns="http://www.w3.org/2000/svg" viewBox="0 0 640 512"><!--! Font Awesome Free 7.1.0 by @fontawesome - https://fontawesome.com License - https://fontawesome.com/license/free (Icons: CC BY 4.0, Fonts: SIL OFL 1.1, Code: MIT License) Copyright 2025 Fonticons, Inc.--><path d="M128 96c0-35.3 28.7-64 64-64h352c35.3 0 64 28.7 64 64v240h-96v-16c0-17.7-14.3-32-32-32h-64c-17.7 0-32 14.3-32 32v16H254.9c10.9-18.8 17.1-40.7 17.1-64 0-70.7-57.3-128-128-128-5.4 0-10.8.3-16 1zm205 352c-5.1-24.2-16.3-46.1-32.1-64H608c0 35.3-28.7 64-64 64zM64 272a80 80 0 1 1 160 0 80 80 0 1 1-160 0M0 480c0-53 43-96 96-96h96c53 0 96 43 96 96 0 17.7-14.3 32-32 32H32c-17.7 0-32-14.3-32-32"/></svg>