<svg xmlns="http://www.w3.org/2000/svg" viewBox="0 0 512 512"><!--! Font Awesome Free 6.7.2 by @fontawesome - https://fontawesome.com License - https://fontawesome.com/license/free (Icons: CC BY 4.0, Fonts: SIL OFL 1.1, Code: MIT License) Copyright 2024 Fonticons, Inc.--><path d="M80 32c-26.5 0-48 21.5-48 48s21.5 48 48 48h152v40l-48 48h-56c-48.6 0-88 39.4-88 88v48h-8c-17.7 0-32 14.3-32 32v64c0 17.7 14.3 32 32 32h64c17.7 0 32-14.3 32-32v-64c0-17.7-14.3-32-32-32h-8v-48c0-22.1 17.9-40 40-40h56l48 48v40h-8c-17.7 0-32 14.3-32 32v64c0 17.7 14.3 32 32 32h64c17.7 0 32-14.3 32-32v-64c0-17.7-14.3-32-32-32h-8v-40l48-48h56c22.1 0 40 17.9 40 40v48h-8c-17.7 0-32 14.3-32 32v64c0 17.7 14.3 32 32 32h64c17.7 0 32-14.3 32-32v-64c0-17.7-14.3-32-32-32h-8v-48c0-48.6-39.4-88-88-88h-56l-48-48v-40h152c26.5 0 48-21.5 48-48s-21.5-48-48-48z"/></svg>