<svg xmlns="http://www.w3.org/2000/svg" viewBox="0 0 512 512"><!--! Font Awesome Free 7.1.0 by @fontawesome - https://fontawesome.com License - https://fontawesome.com/license/free (Icons: CC BY 4.0, Fonts: SIL OFL 1.1, Code: MIT License) Copyright 2025 Fonticons, Inc.--><path d="M168 56v40H89.9C75.6 96 64 107.6 64 121.9c0 4 .9 8 2.7 11.6l33.4 66.8C88.7 202.1 79.9 212 79.9 224c0 13.3 10.7 24 24 24h5.6L95.9 384l-56.2 70.3c-5 6.3-7.8 14.1-7.8 22.2 0 19.6 15.9 35.5 35.5 35.5h248.9c19.6 0 35.5-15.9 35.5-35.5 0-8.1-2.7-15.9-7.8-22.2L288 384l-13.6-136h5.6c13.3 0 24-10.7 24-24 0-11.9-8.7-21.9-20.2-23.7l33.4-66.8c1.8-3.6 2.7-7.6 2.7-11.6 0-14.3-11.6-25.9-25.9-25.9h-78.1V56h16c13.3 0 24-10.7 24-24S245.3 8 232 8h-16V-8c0-13.3-10.7-24-24-24s-24 10.7-24 24V8h-16c-13.3 0-24 10.7-24 24s10.7 24 24 24zm157.8 223.6 8.5 85.5 47.4 59.2 4.2 5.7c9.2 13.7 14.1 29.9 14.1 46.5 0 12.7-2.8 24.8-7.9 35.5h83.1c20.3 0 36.8-16.5 36.8-36.8 0-7.3-2.2-14.4-6.2-20.4L480 416.1v-64l13.3-13.3c12-12 18.7-28.3 18.7-45.3V192c0-17.7-14.3-32-32-32s-32 14.3-32 32v16h-32v-16c0-17.7-14.3-32-32-32s-32 14.3-32 32v32c0 22.4-10.2 42.4-26.2 55.6"/></svg>