<svg xmlns="http://www.w3.org/2000/svg" viewBox="0 0 384 512"><!--! Font Awesome Free 7.1.0 by @fontawesome - https://fontawesome.com License - https://fontawesome.com/license/free (Icons: CC BY 4.0, Fonts: SIL OFL 1.1, Code: MIT License) Copyright 2025 Fonticons, Inc.--><path d="M0 32v101.5c0 17 6.7 33.3 18.7 45.3L64 224v160L7.8 454.3C2.7 460.6 0 468.4 0 476.5 0 496.1 15.9 512 35.5 512h312.9c19.6 0 35.5-15.9 35.5-35.5 0-8.1-2.7-15.9-7.8-22.2L319.9 384V224l45.3-45.3c12-12 18.7-28.3 18.7-45.3L384 32c0-17.7-14.3-32-32-32h-32c-17.7 0-32 14.3-32 32v32h-48V32c0-17.7-14.3-32-32-32h-32c-17.7 0-32 14.3-32 32v32H96V32C96 14.3 81.7 0 64 0H32C14.3 0 0 14.3 0 32"/></svg>