<svg xmlns="http://www.w3.org/2000/svg" viewBox="0 0 384 512"><!--! Font Awesome Free 7.1.0 by @fontawesome - https://fontawesome.com License - https://fontawesome.com/license/free (Icons: CC BY 4.0, Fonts: SIL OFL 1.1, Code: MIT License) Copyright 2025 Fonticons, Inc.--><path d="M192-32c106 0 192 86 192 192v133.5c0 17-6.8 33.2-18.7 45.2L320 384l50.8 50.7c8.5 8.5 13.2 20 13.2 32 0 25-20.3 45.2-45.2 45.3H45.3c-25 0-45.2-20.3-45.2-45.3 0-12 4.8-23.5 13.2-32L64 384v-34.6c0-18.7 8.2-36.4 22.3-48.6L176 224h-48l-12.1 12.1c-12.7 12.7-30 19.9-48 19.9C30.4 256 0 225.6 0 188.1v-8.7c0-22.8 8.2-44.9 23.1-62.3L96 32V0c0-17.7 14.3-32 32-32zM160 72a24 24 0 1 0 0 48 24 24 0 1 0 0-48"/></svg>