<svg xmlns="http://www.w3.org/2000/svg" viewBox="0 0 512 512"><!--! Font Awesome Free 7.1.0 by @fontawesome - https://fontawesome.com License - https://fontawesome.com/license/free (Icons: CC BY 4.0, Fonts: SIL OFL 1.1, Code: MIT License) Copyright 2025 Fonticons, Inc.--><path d="M256 80a48 48 0 1 0 0-96 48 48 0 1 0 0 96M5.5 185 128 384l-56.2 70.3c-5 6.3-7.8 14.1-7.8 22.2 0 19.6 15.9 35.5 35.5 35.5h312.9c19.6 0 35.5-15.9 35.5-35.5 0-8.1-2.7-15.9-7.8-22.2L384 384l122.5-199c3.6-5.9 5.5-12.7 5.5-19.6v-.6c0-20.3-16.5-36.8-36.8-36.8-7.3 0-14.4 2.2-20.4 6.2l-16.9 11.3c-12.7 8.5-29.6 6.8-40.4-4l-34.1-34.1C356.1 100.1 346.2 96 336 96s-20.1 4.1-27.3 11.3l-30.1 30.1c-12.5 12.5-32.8 12.5-45.3 0l-30.1-30.1c-7.1-7.2-17-11.3-27.2-11.3s-20.1 4.1-27.3 11.3l-34.1 34.1c-10.8 10.8-27.7 12.5-40.4 4l-16.9-11.2c-6.1-4-13.2-6.2-20.4-6.2C16.6 128 .1 144.5.1 164.8v.6c0 6.9 1.9 13.7 5.5 19.6z"/></svg>