<svg xmlns="http://www.w3.org/2000/svg" viewBox="0 0 320 512"><!--! Font Awesome Free 7.1.0 by @fontawesome - https://fontawesome.com License - https://fontawesome.com/license/free (Icons: CC BY 4.0, Fonts: SIL OFL 1.1, Code: MIT License) Copyright 2025 Fonticons, Inc.--><path d="m64 384-15.7-15.7C17.4 337.4 0 295.4 0 251.7c0-38.6 13.5-75.9 38.2-105.6L106.7 64H96c-17.7 0-32-14.3-32-32S78.3 0 96 0h128c17.7 0 32 14.3 32 32s-14.3 32-32 32h-10.7l47.6 57.1L175 207c-9.4 9.4-9.4 24.6 0 33.9s24.6 9.4 33.9 0l82.3-82.3c18.7 27.3 28.7 59.7 28.7 93 0 43.7-17.4 85.7-48.3 116.6L256 384l56.2 70.3c5 6.3 7.8 14.1 7.8 22.2 0 19.6-15.9 35.5-35.5 35.5h-249C15.9 512 0 496.1 0 476.5c0-8.1 2.7-15.9 7.8-22.2z"/></svg>