<svg xmlns="http://www.w3.org/2000/svg" viewBox="0 0 512 512"><!--! Font Awesome Free 7.1.0 by @fontawesome - https://fontawesome.com License - https://fontawesome.com/license/free (Icons: CC BY 4.0, Fonts: SIL OFL 1.1, Code: MIT License) Copyright 2025 Fonticons, Inc.--><path d="M280-8c0-13.3-10.7-24-24-24s-24 10.7-24 24v24h-32c-13.3 0-24 10.7-24 24s10.7 24 24 24h32v48l-98.6 65.8c-13.4 8.9-21.4 23.8-21.4 39.9V256l-79.8 45.6C12.3 313 0 334.2 0 357.1V448c0 35.3 28.7 64 64 64h384c35.3 0 64-28.7 64-64v-90.9c0-23-12.3-44.2-32.2-55.6L400 256v-38.3c0-16-8-31-21.4-39.9L280 112V64h32c13.3 0 24-10.7 24-24s-10.7-24-24-24h-32zm-24 328c35.3 0 64 28.7 64 64v80H192v-80c0-35.3 28.7-64 64-64"/></svg>