<svg xmlns="http://www.w3.org/2000/svg" viewBox="0 0 576 512"><!--! Font Awesome Free 7.1.0 by @fontawesome - https://fontawesome.com License - https://fontawesome.com/license/free (Icons: CC BY 4.0, Fonts: SIL OFL 1.1, Code: MIT License) Copyright 2025 Fonticons, Inc.--><path d="M320 0c-35.3 0-64 28.7-64 64v32h-48V24c0-13.3-10.7-24-24-24s-24 10.7-24 24v72H96V24C96 10.7 85.3 0 72 0S48 10.7 48 24v74c-27.6 7.1-48 32.2-48 62v288c0 35.3 28.7 64 64 64h448c35.3 0 64-28.7 64-64V256c0-35.3-28.7-64-64-64h-64V64c0-35.3-28.7-64-64-64zm64 112v32c0 8.8-7.2 16-16 16h-32c-8.8 0-16-7.2-16-16v-32c0-8.8 7.2-16 16-16h32c8.8 0 16 7.2 16 16m-16 80c8.8 0 16 7.2 16 16v32c0 8.8-7.2 16-16 16h-32c-8.8 0-16-7.2-16-16v-32c0-8.8 7.2-16 16-16zm16 112v32c0 8.8-7.2 16-16 16h-32c-8.8 0-16-7.2-16-16v-32c0-8.8 7.2-16 16-16h32c8.8 0 16 7.2 16 16m112-16c8.8 0 16 7.2 16 16v32c0 8.8-7.2 16-16 16h-32c-8.8 0-16-7.2-16-16v-32c0-8.8 7.2-16 16-16zm-240 16v32c0 8.8-7.2 16-16 16h-32c-8.8 0-16-7.2-16-16v-32c0-8.8 7.2-16 16-16h32c8.8 0 16 7.2 16 16m-16-112c8.8 0 16 7.2 16 16v32c0 8.8-7.2 16-16 16h-32c-8.8 0-16-7.2-16-16v-32c0-8.8 7.2-16 16-16zM128 304v32c0 8.8-7.2 16-16 16H80c-8.8 0-16-7.2-16-16v-32c0-8.8 7.2-16 16-16h32c8.8 0 16 7.2 16 16m-16-112c8.8 0 16 7.2 16 16v32c0 8.8-7.2 16-16 16H80c-8.8 0-16-7.2-16-16v-32c0-8.8 7.2-16 16-16z"/></svg>