<svg xmlns="http://www.w3.org/2000/svg" viewBox="0 0 384 512"><!--! Font Awesome Free 7.1.0 by @fontawesome - https://fontawesome.com License - https://fontawesome.com/license/free (Icons: CC BY 4.0, Fonts: SIL OFL 1.1, Code: MIT License) Copyright 2025 Fonticons, Inc.--><path d="M311.4 32h8.6c35.3 0 64 28.7 64 64v352c0 35.3-28.7 64-64 64H64c-35.3 0-64-28.7-64-64V96c0-35.3 28.7-64 64-64h8.6c11-19.1 31.7-32 55.4-32h128c23.7 0 44.4 12.9 55.4 32M248 112c13.3 0 24-10.7 24-24s-10.7-24-24-24H136c-13.3 0-24 10.7-24 24s10.7 24 24 24zM128 256a32 32 0 1 0-64 0 32 32 0 1 0 64 0m32 0c0 13.3 10.7 24 24 24h112c13.3 0 24-10.7 24-24s-10.7-24-24-24H184c-13.3 0-24 10.7-24 24m0 128c0 13.3 10.7 24 24 24h112c13.3 0 24-10.7 24-24s-10.7-24-24-24H184c-13.3 0-24 10.7-24 24m-64 32a32 32 0 1 0 0-64 32 32 0 1 0 0 64"/></svg>