<svg xmlns="http://www.w3.org/2000/svg" viewBox="0 0 384 512"><!--! Font Awesome Free 7.1.0 by @fontawesome - https://fontawesome.com License - https://fontawesome.com/license/free (Icons: CC BY 4.0, Fonts: SIL OFL 1.1, Code: MIT License) Copyright 2025 Fonticons, Inc.--><path d="M320 32h-8.6c-11-19.1-31.7-32-55.4-32H128c-23.7 0-44.4 12.9-55.4 32H64C28.7 32 0 60.7 0 96v352c0 35.3 28.7 64 64 64h256c35.3 0 64-28.7 64-64V96c0-35.3-28.7-64-64-64m-184 80c-13.3 0-24-10.7-24-24s10.7-24 24-24h112c13.3 0 24 10.7 24 24s-10.7 24-24 24z"/></svg>