<svg xmlns="http://www.w3.org/2000/svg" viewBox="0 0 512 512"><!--! Font Awesome Free 7.1.0 by @fontawesome - https://fontawesome.com License - https://fontawesome.com/license/free (Icons: CC BY 4.0, Fonts: SIL OFL 1.1, Code: MIT License) Copyright 2025 Fonticons, Inc.--><path d="M279.2 55.7C263.9 22.8 230.6 0 192 0c-53 0-96 43-96 96-35.3 0-64 28.7-64 64s28.7 64 64 64h320c35.3 0 64-28.7 64-64s-28.7-64-64-64h-1.6C407 59.5 374.7 32 336 32c-22.2 0-42.3 9.1-56.8 23.7m131.4 420.4c20.7 15.6 46 30.7 74.2 34.5 13.1 1.8 25.2-7.5 27-20.6s-7.5-25.2-20.6-27c-15.9-2.1-33.2-11.3-51.7-25.2-38.4-29-90.5-29-129 0-24 18.1-40.7 26.3-54.5 26.3s-30.5-8.2-54.5-26.3c-38.4-29-90.5-29-129 0C54 451.7 36.7 460.9 20.8 463 7.7 464.8-1.6 476.8.2 490s13.8 22.4 27 20.6c28.2-3.8 53.6-18.9 74.2-34.5 21.3-16.1 49.9-16.1 71.2 0 24.2 18.3 52.3 35.9 83.4 35.9s59.1-17.7 83.4-35.9c21.3-16.1 49.9-16.1 71.2 0M100.1 303.6c4.2-12.6-2.6-26.2-15.2-30.4s-26.2 2.6-30.4 15.2l-21.3 64c-4.2 12.6 2.6 26.2 15.2 30.4s26.2-2.6 30.4-15.2zm120 0c4.2-12.6-2.6-26.2-15.2-30.4s-26.2 2.6-30.4 15.2l-21.3 64c-4.2 12.6 2.6 26.2 15.2 30.4s26.2-2.6 30.4-15.2zm112 0c4.2-12.6-2.6-26.2-15.2-30.4s-26.2 2.6-30.4 15.2l-21.3 64c-4.2 12.6 2.6 26.2 15.2 30.4s26.2-2.6 30.4-15.2zm120 0c4.2-12.6-2.6-26.2-15.2-30.4s-26.2 2.6-30.4 15.2l-21.3 64c-4.2 12.6 2.6 26.2 15.2 30.4s26.2-2.6 30.4-15.2z"/></svg>