<svg xmlns="http://www.w3.org/2000/svg" viewBox="0 0 512 512"><!--! Font Awesome Free 7.1.0 by @fontawesome - https://fontawesome.com License - https://fontawesome.com/license/free (Icons: CC BY 4.0, Fonts: SIL OFL 1.1, Code: MIT License) Copyright 2025 Fonticons, Inc.--><path d="M96 320c-53 0-96-43-96-96 0-42.5 27.6-78.6 65.9-91.2-1.3-6.7-1.9-13.7-1.9-20.8C64 50.1 114.1 0 176 0c43.1 0 80.5 24.3 99.2 60 14.7-17.1 36.5-28 60.8-28 44.2 0 80 35.8 80 80 0 5.5-.6 10.8-1.6 16h1.6c53 0 96 43 96 96s-43 96-96 96zm1.6 68.2c1.1-2.5 3.6-4.2 6.4-4.2s5.3 1.6 6.4 4.2l30.2 68.2c2.2 5.1 3.4 10.5 3.4 16 0 21.9-18.1 39.6-40 39.6s-40-17.7-40-39.6c0-5.5 1.2-11 3.4-16zm152 0c1.1-2.5 3.6-4.2 6.4-4.2s5.3 1.6 6.4 4.2l30.2 68.2c2.2 5.1 3.4 10.5 3.4 16 0 21.9-18.1 39.6-40 39.6s-40-17.7-40-39.6c0-5.5 1.2-11 3.4-16zm121.8 68.2 30.2-68.2c1.1-2.5 3.6-4.2 6.4-4.2s5.3 1.6 6.4 4.2l30.2 68.2c2.2 5.1 3.4 10.5 3.4 16 0 21.9-18.1 39.6-40 39.6s-40-17.7-40-39.6c0-5.5 1.2-11 3.4-16"/></svg>