<svg xmlns="http://www.w3.org/2000/svg" viewBox="0 0 576 512"><!--! Font Awesome Free 7.1.0 by @fontawesome - https://fontawesome.com License - https://fontawesome.com/license/free (Icons: CC BY 4.0, Fonts: SIL OFL 1.1, Code: MIT License) Copyright 2025 Fonticons, Inc.--><path d="M0 336c0 79.5 64.5 144 144 144h304c70.7 0 128-57.3 128-128 0-51.6-30.5-96.1-74.5-116.3 6.7-13.1 10.5-28 10.5-43.7 0-53-43-96-96-96-17.7 0-34.2 4.8-48.4 13.1C343.5 63.3 295.4 32 240 32 160.5 32 96 96.5 96 176c0 8 .7 15.9 1.9 23.5C41 218.7 0 272.6 0 336"/></svg>