<svg xmlns="http://www.w3.org/2000/svg" viewBox="0 0 512 512"><!--! Font Awesome Free 7.1.0 by @fontawesome - https://fontawesome.com License - https://fontawesome.com/license/free (Icons: CC BY 4.0, Fonts: SIL OFL 1.1, Code: MIT License) Copyright 2025 Fonticons, Inc.--><path d="M96 320c-53 0-96-43-96-96 0-42.5 27.6-78.6 65.9-91.2-1.3-6.7-1.9-13.7-1.9-20.8C64 50.1 114.1 0 176 0c43.1 0 80.5 24.3 99.2 60 14.7-17.1 36.5-28 60.8-28 44.2 0 80 35.8 80 80 0 5.5-.6 10.8-1.6 16h1.6c53 0 96 43 96 96s-43 96-96 96zm6.8 79.6-32 96C66.6 508.2 53 515 40.4 510.8S21 493 25.2 480.4l32-96c4.2-12.6 17.8-19.4 30.4-15.2s19.4 17.8 15.2 30.4m120 0-32 96c-4.2 12.6-17.8 19.4-30.4 15.2S141 493 145.2 480.4l32-96c4.2-12.6 17.8-19.4 30.4-15.2s19.4 17.8 15.2 30.4m112 0-32 96c-4.2 12.6-17.8 19.4-30.4 15.2S253 493 257.2 480.4l32-96c4.2-12.6 17.8-19.4 30.4-15.2s19.4 17.8 15.2 30.4m120 0-32 96c-4.2 12.6-17.8 19.4-30.4 15.2S373 493 377.2 480.4l32-96c4.2-12.6 17.8-19.4 30.4-15.2s19.4 17.8 15.2 30.4"/></svg>