<svg xmlns="http://www.w3.org/2000/svg" viewBox="0 0 448 512"><!--! Font Awesome Free 7.1.0 by @fontawesome - https://fontawesome.com License - https://fontawesome.com/license/free (Icons: CC BY 4.0, Fonts: SIL OFL 1.1, Code: MIT License) Copyright 2025 Fonticons, Inc.--><path d="M80 104a24 24 0 1 0 0-48 24 24 0 1 0 0 48m80-24c0 32.8-19.7 61-48 73.3V224h176c26.5 0 48-21.5 48-48v-22.7c-28.3-12.3-48-40.5-48-73.3 0-44.2 35.8-80 80-80s80 35.8 80 80c0 32.8-19.7 61-48 73.3V176c0 61.9-50.1 112-112 112H112v70.7c28.3 12.3 48 40.5 48 73.3 0 44.2-35.8 80-80 80S0 476.2 0 432c0-32.8 19.7-61 48-73.3V153.4C19.7 141 0 112.8 0 80 0 35.8 35.8 0 80 0s80 35.8 80 80m232 0a24 24 0 1 0-48 0 24 24 0 1 0 48 0M80 456a24 24 0 1 0 0-48 24 24 0 1 0 0 48"/></svg>