<svg xmlns="http://www.w3.org/2000/svg" viewBox="0 0 448 512"><!--! Font Awesome Free 7.1.0 by @fontawesome - https://fontawesome.com License - https://fontawesome.com/license/free (Icons: CC BY 4.0, Fonts: SIL OFL 1.1, Code: MIT License) Copyright 2025 Fonticons, Inc.--><path d="M80 104a24 24 0 1 0 0-48 24 24 0 1 0 0 48m80-24c0 32.8-19.7 61-48 73.3V176c0 26.5 21.5 48 48 48h128c26.5 0 48-21.5 48-48v-22.7c-28.3-12.3-48-40.5-48-73.3 0-44.2 35.8-80 80-80s80 35.8 80 80c0 32.8-19.7 61-48 73.3V176c0 61.9-50.1 112-112 112h-32v70.7c28.3 12.3 48 40.5 48 73.3 0 44.2-35.8 80-80 80s-80-35.8-80-80c0-32.8 19.7-61 48-73.3V288h-32c-61.9 0-112-50.1-112-112v-22.7C19.7 141 0 112.8 0 80 0 35.8 35.8 0 80 0s80 35.8 80 80m208 24a24 24 0 1 0 0-48 24 24 0 1 0 0 48M248 432a24 24 0 1 0-48 0 24 24 0 1 0 48 0"/></svg>