<svg xmlns="http://www.w3.org/2000/svg" viewBox="0 0 512 512"><!--! Font Awesome Free 7.1.0 by @fontawesome - https://fontawesome.com License - https://fontawesome.com/license/free (Icons: CC BY 4.0, Fonts: SIL OFL 1.1, Code: MIT License) Copyright 2025 Fonticons, Inc.--><path d="M195.1 9.5c3-14.8 16.1-25.5 31.3-25.5h59.8c15.2 0 28.3 10.7 31.3 25.5l14.5 70c14.1 6 27.3 13.7 39.3 22.8l67.8-22.5c14.4-4.8 30.2 1.2 37.8 14.4l29.9 51.8c7.6 13.2 4.9 29.8-6.5 39.9L447 233.3c.9 7.4 1.3 15 1.3 22.7s-.5 15.3-1.3 22.7l53.4 47.5c11.4 10.1 14 26.8 6.5 39.9L477 417.9c-7.6 13.1-23.4 19.2-37.8 14.4l-67.8-22.5c-12.1 9.1-25.3 16.7-39.3 22.8l-14.4 69.9c-3.1 14.9-16.2 25.5-31.3 25.5h-59.8c-15.2 0-28.3-10.7-31.3-25.5l-14.4-69.9c-14.1-6-27.2-13.7-39.3-22.8l-68.1 22.5c-14.4 4.8-30.2-1.2-37.8-14.4L5.8 366.1c-7.6-13.2-4.9-29.8 6.5-39.9l53.4-47.5c-.9-7.4-1.3-15-1.3-22.7s.5-15.3 1.3-22.7l-53.4-47.5C.9 175.7-1.7 159 5.8 145.9l29.9-51.8c7.6-13.2 23.4-19.2 37.8-14.4l67.8 22.5c12.1-9.1 25.3-16.7 39.3-22.8zM256.3 336a80 80 0 1 0-.6-160 80 80 0 1 0 .6 160"/></svg>