<svg xmlns="http://www.w3.org/2000/svg" viewBox="0 0 512 512"><!--! Font Awesome Free 7.1.0 by @fontawesome - https://fontawesome.com License - https://fontawesome.com/license/free (Icons: CC BY 4.0, Fonts: SIL OFL 1.1, Code: MIT License) Copyright 2025 Fonticons, Inc.--><path d="M256 480c141.4 0 256-107.5 256-240S397.4 0 256 0 0 107.5 0 240c0 54.3 19.2 104.3 51.6 144.5L2.8 476.8c-4.8 9-3.3 20 3.6 27.5s17.8 9.8 27.1 5.8l118.4-50.7c31.8 13.2 67 20.6 104.1 20.6m4-352c11 0 20 9 20 20v4h8c11 0 20 9 20 20s-9 20-20 20h-47.5c-6.9 0-12.5 5.6-12.5 12.5 0 6.1 4.4 11.3 10.4 12.3l41.7 7c25.3 4.2 43.9 26.1 43.9 51.8 0 26.1-19 47.7-44 51.8v4.7c0 11-9 20-20 20s-20-9-20-20v-4h-24c-11 0-20-9-20-20s9-20 20-20h55.5c6.9 0 12.5-5.6 12.5-12.5 0-6.1-4.4-11.3-10.4-12.3l-41.7-7c-25.3-4.2-43.9-26.1-43.9-51.8 0-28.8 23.2-52.2 52-52.5v-4c0-11 9-20 20-20"/></svg>