<svg xmlns="http://www.w3.org/2000/svg" viewBox="0 0 576 512"><!--! Font Awesome Free 7.1.0 by @fontawesome - https://fontawesome.com License - https://fontawesome.com/license/free (Icons: CC BY 4.0, Fonts: SIL OFL 1.1, Code: MIT License) Copyright 2025 Fonticons, Inc.--><path d="M41-25c-9.4-9.3-24.6-9.3-34 0S-2.3-.4 7 9l528 528c9.4 9.4 24.6 9.4 33.9 0s9.4-24.6 0-33.9l-96.6-96.6c44.4-43.2 71.6-101.8 71.6-166.5 0-132.5-114.6-240-256-240-63 0-120.8 21.4-165.4 56.8zm19.4 155C42.2 163 32 200.3 32 239.9c0 54.3 19.2 104.3 51.6 144.5l-48.8 92.3c-4.8 9-3.3 20 3.6 27.5s17.7 9.8 27.1 5.8l118.4-50.7C215.7 472.6 251 480 288 480c36.4 0 70.9-7.1 102.3-19.9l-330-330z"/></svg>