<svg xmlns="http://www.w3.org/2000/svg" viewBox="0 0 640 512"><!--! Font Awesome Free 7.1.0 by @fontawesome - https://fontawesome.com License - https://fontawesome.com/license/free (Icons: CC BY 4.0, Fonts: SIL OFL 1.1, Code: MIT License) Copyright 2025 Fonticons, Inc.--><path d="M144 272c0-47.3-34.2-86.6-79.2-94.5C72 113.6 126.2 64 192 64h256c65.8 0 120 49.6 127.2 113.5-45 8-79.2 47.2-79.2 94.5v32H144zM0 384V272c0-26.5 21.5-48 48-48s48 21.5 48 48v80h448v-80c0-26.5 21.5-48 48-48s48 21.5 48 48v112c0 35.3-28.7 64-64 64H64c-35.3 0-64-28.7-64-64"/></svg>