<svg xmlns="http://www.w3.org/2000/svg" viewBox="0 0 576 512"><!--! Font Awesome Free 7.1.0 by @fontawesome - https://fontawesome.com License - https://fontawesome.com/license/free (Icons: CC BY 4.0, Fonts: SIL OFL 1.1, Code: MIT License) Copyright 2025 Fonticons, Inc.--><path d="M288-16c17.7 0 32 14.3 32 32v18.3c98.1 14 175.7 91.6 189.7 189.7H528c17.7 0 32 14.3 32 32s-14.3 32-32 32h-18.3c-14 98.1-91.6 175.7-189.7 189.7V496c0 17.7-14.3 32-32 32s-32-14.3-32-32v-18.3c-98.1-14-175.7-91.6-189.7-189.7H48c-17.7 0-32-14.3-32-32s14.3-32 32-32h18.3c14-98.1 91.6-175.7 189.7-189.7V16c0-17.7 14.3-32 32-32M131.2 288c12.7 62.7 62.1 112.1 124.8 124.8V400c0-17.7 14.3-32 32-32s32 14.3 32 32v12.8c62.7-12.7 112.1-62.1 124.8-124.8H432c-17.7 0-32-14.3-32-32s14.3-32 32-32h12.8C432.1 161.3 382.7 111.9 320 99.2V112c0 17.7-14.3 32-32 32s-32-14.3-32-32V99.2c-62.7 12.7-112.1 62.1-124.8 124.8H144c17.7 0 32 14.3 32 32s-14.3 32-32 32zM288 208a48 48 0 1 1 0 96 48 48 0 1 1 0-96"/></svg>