<svg xmlns="http://www.w3.org/2000/svg" viewBox="0 0 512 512"><!--! Font Awesome Free 7.1.0 by @fontawesome - https://fontawesome.com License - https://fontawesome.com/license/free (Icons: CC BY 4.0, Fonts: SIL OFL 1.1, Code: MIT License) Copyright 2025 Fonticons, Inc.--><path d="M297.4 9.4c12.5-12.5 32.8-12.5 45.3 0l160 160c12.5 12.5 12.5 32.8 0 45.3s-32.8 12.5-45.3 0l-1.4-1.4-158.6 158.6c-18 18-42.4 28.1-67.9 28.1h-59c-8.5 0-16.6 3.4-22.6 9.4l-93.3 93.3c-12.5 12.5-32.8 12.5-45.3 0s-12.5-32.8 0-45.3l16-16 77.3-77.3c6-6 9.4-14.1 9.4-22.6v-59c0-25.5 10.1-49.9 28.1-67.9L298.7 56l-1.3-1.4c-12.5-12.5-12.5-32.8 0-45.3zm46.6 91.9L261.3 184l66.7 66.7 82.7-82.7zm-128 128-30.6 30.6c-6 6-9.4 14.1-9.4 22.6V336h53.5c8.5 0 16.6-3.4 22.6-9.4l30.6-30.6z"/></svg>