<svg xmlns="http://www.w3.org/2000/svg" viewBox="0 0 512 512"><!--! Font Awesome Free 7.1.0 by @fontawesome - https://fontawesome.com License - https://fontawesome.com/license/free (Icons: CC BY 4.0, Fonts: SIL OFL 1.1, Code: MIT License) Copyright 2025 Fonticons, Inc.--><path d="M284-1.3c-17.3-10-38.7-10-56 0l-84.2 48.6c-17.3 10-28 28.5-28 48.5v101.9l-88.3 51c-17.3 10-28 28.5-28 48.5v97.3c0 20 10.7 38.5 28 48.5l84.3 48.6c17.3 10 38.7 10 56 0l88.3-51 88.3 51c17.3 10 38.7 10 56 0l84.1-48.6c17.3-10 28-28.5 28-48.5v-97.3c0-20-10.7-38.5-28-48.5l-88.3-51V95.8c0-20-10.7-38.5-28-48.5zm-52 293.9v106.5l-88.3 51c-1.2.7-2.6 1.1-4 1.1V345.9zm231.4.6c.7 1.2 1.1 2.6 1.1 4v97.3c0 2.9-1.5 5.5-4 6.9L376.2 450c-1.2.7-2.6 1.1-4 1.1V345.8zM348.3 95.8v101.9L256 251V144.5l91.2-52.6c.7 1.2 1.1 2.6 1.1 4z"/></svg>