<svg xmlns="http://www.w3.org/2000/svg" viewBox="0 0 448 512"><!--! Font Awesome Free 7.1.0 by @fontawesome - https://fontawesome.com License - https://fontawesome.com/license/free (Icons: CC BY 4.0, Fonts: SIL OFL 1.1, Code: MIT License) Copyright 2025 Fonticons, Inc.--><path d="M448 205.8c-14.8 9.8-31.8 17.7-49.5 24-47 16.8-108.7 26.2-174.5 26.2s-127.6-9.5-174.5-26.2c-17.6-6.3-34.7-14.2-49.5-24V288c0 44.2 100.3 80 224 80s224-35.8 224-80zm0-77.8V80c0-44.2-100.3-80-224-80S0 35.8 0 80v48c0 44.2 100.3 80 224 80s224-35.8 224-80m-49.5 261.8C351.6 406.5 289.9 416 224 416s-127.6-9.5-174.5-26.2c-17.6-6.3-34.7-14.2-49.5-24V432c0 44.2 100.3 80 224 80s224-35.8 224-80v-66.2c-14.8 9.8-31.8 17.7-49.5 24"/></svg>