<svg xmlns="http://www.w3.org/2000/svg" viewBox="0 0 448 512"><!--! Font Awesome Free 7.1.0 by @fontawesome - https://fontawesome.com License - https://fontawesome.com/license/free (Icons: CC BY 4.0, Fonts: SIL OFL 1.1, Code: MIT License) Copyright 2025 Fonticons, Inc.--><path d="M289.2 137.9c2.5-6 8.3-9.9 14.8-9.9h40v-24c0-13.3-10.7-24-24-24h-98c1.3 5.1 2 10.5 2 16v64c0 35.3-28.7 64-64 64H64c-35.3 0-64-28.7-64-64V96c0-35.3 28.7-64 64-64h256c39.8 0 72 32.2 72 72v24h40c6.5 0 12.3 3.9 14.8 9.9s1.1 12.9-3.5 17.4l-64 64c-6.2 6.2-16.4 6.2-22.6 0l-64-64c-4.6-4.6-5.9-11.5-3.5-17.4M384 480H64c-35.3 0-64-28.7-64-64v-64c0-35.3 28.7-64 64-64h320c35.3 0 64 28.7 64 64v64c0 35.3-28.7 64-64 64M160 160V96H64v64z"/></svg>