<svg xmlns="http://www.w3.org/2000/svg" viewBox="0 0 512 512"><!--! Font Awesome Free 7.1.0 by @fontawesome - https://fontawesome.com License - https://fontawesome.com/license/free (Icons: CC BY 4.0, Fonts: SIL OFL 1.1, Code: MIT License) Copyright 2025 Fonticons, Inc.--><path d="M224.4-8.2c19.6-11.1 43.6-11.1 63.1 0l192 108.8c20 11.4 32.4 32.6 32.4 55.7v215.6c0 23-12.4 44.3-32.4 55.7l-192 108.8c-19.6 11.1-43.6 11.1-63.1 0l-192-108.9C12.4 416.1 0 394.8 0 371.8V156.2c0-23 12.4-44.3 32.4-55.7zm52 73.2c-9.4-15.2-31.4-15.2-40.8 0L159 188.7l-85.4-46.3-3.8-1.6c-8.9-2.7-18.8 1.1-23.4 9.6s-2.4 18.9 4.7 24.8l3.3 2.3 83.4 45.2-74.6 120.6C55.3 356.2 61 373 75 378.4l161 61.9V480c0 11 9 20 20 20s20-9 20-20v-39.7l161-61.9c14-5.4 19.7-22.2 11.8-35l-74.7-120.6 83.4-45.2c9.7-5.3 13.3-17.4 8.1-27.1s-17.4-13.3-27.1-8.1L353 188.7zm-47 329.9-122-46.9 54.5-88.1zM404.6 348l-122 46.9 67.5-135zm-85.3-116L256 358.6 192.7 232zM308 192H203.9l52-84 52 84z"/></svg>