<svg xmlns="http://www.w3.org/2000/svg" viewBox="0 0 512 512"><!--! Font Awesome Free 7.1.0 by @fontawesome - https://fontawesome.com License - https://fontawesome.com/license/free (Icons: CC BY 4.0, Fonts: SIL OFL 1.1, Code: MIT License) Copyright 2025 Fonticons, Inc.--><path d="M141.4 2.3C103-8 63.5 14.8 53.3 53.2L2.5 242.7c-10.3 38.4 12.5 77.9 50.9 88.2l189.5 50.8c38.4 10.3 77.9-12.5 88.2-50.9l50.8-189.5c10.3-38.4-12.5-77.9-50.9-88.2zm23 205.7a32 32 0 1 1 55.4-32 32 32 0 1 1-55.4 32m-85.2 12.3a32 32 0 1 1 32 55.4 32 32 0 1 1-32-55.4m185 96.4a32 32 0 1 1-32-55.4 32 32 0 1 1 32 55.4m9-208.4a32 32 0 1 1 32 55.4 32 32 0 1 1-32-55.4m-121 14.4a32 32 0 1 1-32-55.4 32 32 0 1 1 32 55.4M418 192l-40.6 151.2c-17.2 64-83 102-147 84.9l-38.3-10.3V448c0 35.3 28.7 64 64 64h192c35.3 0 64-28.7 64-64V256c0-35.3-28.7-64-64-64z"/></svg>