<svg xmlns="http://www.w3.org/2000/svg" viewBox="0 0 576 512"><!--! Font Awesome Free 7.1.0 by @fontawesome - https://fontawesome.com License - https://fontawesome.com/license/free (Icons: CC BY 4.0, Fonts: SIL OFL 1.1, Code: MIT License) Copyright 2025 Fonticons, Inc.--><path d="M0 128c0-35.3 28.7-64 64-64h448c35.3 0 64 28.7 64 64v256c0 35.3-28.7 64-64 64H64c-35.3 0-64-28.7-64-64zm64 32v32c0 17.7 14.3 32 32 32h160c17.7 0 32-14.3 32-32v-32c0-17.7-14.3-32-32-32H96c-17.7 0-32 14.3-32 32m24 192c-13.3 0-24 10.7-24 24s10.7 24 24 24h136c13.3 0 24-10.7 24-24s-10.7-24-24-24zm256 0c-13.3 0-24 10.7-24 24s10.7 24 24 24h144c13.3 0 24-10.7 24-24s-10.7-24-24-24zm152-160a64 64 0 1 0-128 0 64 64 0 1 0 128 0M88 312a24 24 0 1 0 0-48 24 24 0 1 0 0 48m104-24a24 24 0 1 0-48 0 24 24 0 1 0 48 0m56 24a24 24 0 1 0 0-48 24 24 0 1 0 0 48"/></svg>