<svg xmlns="http://www.w3.org/2000/svg" viewBox="0 0 576 512"><!--! Font Awesome Free 7.1.0 by @fontawesome - https://fontawesome.com License - https://fontawesome.com/license/free (Icons: CC BY 4.0, Fonts: SIL OFL 1.1, Code: MIT License) Copyright 2025 Fonticons, Inc.--><path d="m132.3 64-25.6 128H24c-13.3 0-24-10.7-24-24v-4.1c0-2.6.4-5.1 1.2-7.6l25.3-75.9C29.8 70.6 39 64 49.3 64zm23.4 128 25.6-128H264v128zM312 64h82.7l25.6 128H312zm131.7 0h83c10.3 0 19.5 6.6 22.8 16.4l25.3 75.9c.8 2.4 1.2 5 1.2 7.6v4.1c0 13.3-10.7 24-24 24h-82.7zm-418 176h524.7c-.4 2.1-13.3 73.4-38.9 213.7-3 16.3-17.9 27.6-34.4 26.1S448 464.6 448 448v-16H128v16c0 16.6-12.6 30.4-29.1 31.9s-31.4-9.9-34.4-26.2C39 313.3 26 242.1 25.7 240"/></svg>