<svg xmlns="http://www.w3.org/2000/svg" viewBox="0 0 640 512"><!--! Font Awesome Free 7.1.0 by @fontawesome - https://fontawesome.com License - https://fontawesome.com/license/free (Icons: CC BY 4.0, Fonts: SIL OFL 1.1, Code: MIT License) Copyright 2025 Fonticons, Inc.--><path d="m164.3 64-25.6 128H56c-13.3 0-24-10.7-24-24v-4.1c0-2.6.4-5.1 1.2-7.6l25.3-75.9C61.8 70.6 71 64 81.3 64zm23.4 128 25.6-128H296v128zM344 64h82.7l16 80c-14.7.2-29.3 5.5-40.9 15.9-11.5 10.3-22.5 21-32.8 32.1h-24.9V64zM96 240h233.2c-6.4 8.8-12.3 17.6-17.7 26.3C290.1 301 272 342.4 272 382.1c0 17.1 2.1 33.8 6 49.9H157.6l1.9 10.3c3.2 17.4-8.4 34-25.8 37.2s-34-8.4-37.2-25.8C71 313.3 58 242.1 57.7 240zm512-72c0 11-7.4 20.3-17.5 23.1-.9-.8-1.7-1.6-2.6-2.4-21.8-20-54.3-21.8-78-5.5q-6.3-6.45-12.9-12.6L475.7 64h83c10.3 0 19.5 6.6 22.8 16.4l25.3 75.9c.8 2.4 1.2 5 1.2 7.6zm-102.3 72.3 12.3-13.8c5.4-6.1 13.3-8.8 20.9-8.9 7.2 0 14.3 2.6 19.9 7.8 19.7 18.3 39.8 43.2 55 70.6 15.1 27.2 26.2 58.1 26.2 88.1 0 88.7-71.3 159.8-160 159.8-89.6 0-160-71.3-160-159.8 0-37.3 16-73.4 36.8-104.5 20.9-31.3 47.5-59 70.9-80.2 5.7-5.2 13.1-7.7 20.3-7.5s13.4 3.2 18.8 7.5c14.4 11.4 38.9 40.7 38.9 40.7zM544 432.2c0-36.5-37-73-54.8-88.4-5.4-4.7-13.1-4.7-18.5 0-17.7 15.4-54.8 51.9-54.8 88.4 0 35.3 28.7 64 64 64s64-28.7 64-64z"/></svg>