<svg xmlns="http://www.w3.org/2000/svg" viewBox="0 0 512 512"><!--! Font Awesome Free 7.1.0 by @fontawesome - https://fontawesome.com License - https://fontawesome.com/license/free (Icons: CC BY 4.0, Fonts: SIL OFL 1.1, Code: MIT License) Copyright 2025 Fonticons, Inc.--><path d="M347.5 144.8q9.75 8.1 18 17.7c8.7 10.2 23.7 14 35.1 6.9l54.1-33.8c11.2-7 14.7-21.7 6.9-32.2a260.3 260.3 0 0 0-54.1-53.8c-10.4-7.6-24.7-4.3-31.8 6.4l-35.1 52.6c-7.8 11.6-3.8 27.3 7 36.2zM327.8 41.1c8.6-12.9 2.9-30.5-12.2-34.1-19.1-4.6-39.1-7-59.6-7s-40.4 2.4-59.6 7c-15.1 3.6-20.8 21.2-12.2 34.1l40 60c5.2 7.8 14.5 11.7 23.9 11.2 5.2-.3 10.6-.3 15.8 0 9.4.5 18.7-3.4 23.9-11.2zM50.5 103.3c-7.9 10.5-4.3 25.3 6.9 32.2l54.1 33.8c11.4 7.1 26.3 3.3 35.1-6.9q8.25-9.6 18-17.7c10.8-8.9 14.8-24.6 7-36.2l-35.2-52.6c-7.1-10.7-21.5-14-31.8-6.4C84 64.6 65.8 82.8 50.5 103.3m62 141.1c.8-9.9-3.3-19.9-11.8-25.1L41 182c-12.9-8-29.9-2.3-33.6 12.5-4.9 19.7-7.5 40.3-7.5 61.6v24c0 13.3 10.7 24 24 24h64c13.3 0 24-10.7 24-24v-24c0-3.9.2-7.8.5-11.6zm287.1 0c.3 3.8.5 7.7.5 11.6v24c0 13.3 10.7 24 24 24h64c13.3 0 24-10.7 24-24v-24c0-21.2-2.6-41.8-7.5-61.6-3.6-14.7-20.7-20.5-33.6-12.5l-59.7 37.3c-8.4 5.3-12.6 15.2-11.8 25.1zM88 352H24c-13.3 0-24 10.7-24 24v112c0 13.3 10.7 24 24 24h64c13.3 0 24-10.7 24-24V376c0-13.3-10.7-24-24-24m400 0h-64c-13.3 0-24 10.7-24 24v112c0 13.3 10.7 24 24 24h64c13.3 0 24-10.7 24-24V376c0-13.3-10.7-24-24-24M280 184c0-13.3-10.7-24-24-24s-24 10.7-24 24v304c0 13.3 10.7 24 24 24s24-10.7 24-24zm-80 32c0-13.3-10.7-24-24-24s-24 10.7-24 24v272c0 13.3 10.7 24 24 24s24-10.7 24-24zm160 0c0-13.3-10.7-24-24-24s-24 10.7-24 24v272c0 13.3 10.7 24 24 24s24-10.7 24-24z"/></svg>