<svg xmlns="http://www.w3.org/2000/svg" viewBox="0 0 512 512"><!--! Font Awesome Free 7.1.0 by @fontawesome - https://fontawesome.com License - https://fontawesome.com/license/free (Icons: CC BY 4.0, Fonts: SIL OFL 1.1, Code: MIT License) Copyright 2025 Fonticons, Inc.--><path d="M256.2 48C371 48.1 464 141.2 464 256c0 22.1-3.4 43.4-9.8 63.4-2 .4-4.1.6-6.2.6h-2.7c-8.5 0-16.6-3.4-22.6-9.4l-29.3-29.3c-6-6-9.4-14.1-9.4-22.6V208c0-8.8 7.2-16 16-16s16-7.2 16-16-7.2-16-16-16h-24c-13.3 0-24 10.7-24 24s-10.7 24-24 24h-56c-8.8 0-16 7.2-16 16s-7.2 16-16 16h-25.4c-12.5 0-22.6-10.1-22.6-22.6 0-6 2.4-11.8 6.6-16l70.1-70.1c2.1-2.1 3.3-5 3.3-8 0-6.2-5.1-11.3-11.3-11.3h-14.1c-12.5 0-22.6-10.1-22.6-22.6 0-6 2.4-11.8 6.6-16l23.1-23.1c.8-.8 1.6-1.5 2.5-2.2zm182.2 308.1c-32.8 59.6-93.9 101.4-165.2 107.2-.7-2.3-1.1-4.8-1.1-7.3 0-13.3-10.7-24-24-24h-26.7c-8.5 0-16.6-3.4-22.6-9.4l-29.3-29.3c-6-6-9.4-14.1-9.4-22.6V304c0-17.7 14.3-32 32-32h98.7c8.5 0 16.6 3.4 22.6 9.4l29.3 29.3c6 6 14.1 9.4 22.6 9.4h5.5c8.5 0 16.6 3.4 22.6 9.4l16 16c4.2 4.2 10 6.6 16 6.6 4.8 0 9.3 1.5 13 4.1zM256 512l26.2-1.3c-8.6.9-17.3 1.3-26.2 1.3m26.2-1.3C411.3 497.6 512 388.6 512 256 512 114.6 397.4 0 256 0S0 114.6 0 256c0 127.5 93.2 233.3 215.3 252.8 13.2 2.1 26.8 3.2 40.7 3.2zm-94.9-387.4-32 32c-6.2 6.2-16.4 6.2-22.6 0s-6.2-16.4 0-22.6l32-32c6.2-6.2 16.4-6.2 22.6 0s6.2 16.4 0 22.6"/></svg>