<svg xmlns="http://www.w3.org/2000/svg" viewBox="0 0 512 512"><!--! Font Awesome Free 7.1.0 by @fontawesome - https://fontawesome.com License - https://fontawesome.com/license/free (Icons: CC BY 4.0, Fonts: SIL OFL 1.1, Code: MIT License) Copyright 2025 Fonticons, Inc.--><path d="M0 224v192c0 17.7 14.3 32 32 32h32V344c0-13.3 10.7-24 24-24s24 10.7 24 24v104h64V344c0-13.3 10.7-24 24-24s24 10.7 24 24v104h64V344c0-13.3 10.7-24 24-24s24 10.7 24 24v104h64V344c0-13.3 10.7-24 24-24s24 10.7 24 24v104h32c17.7 0 32-14.3 32-32V224c0-17.7-14.3-32-32-32h-32v-32c0-17.7-14.3-32-32-32h-32V96c0-17.7-14.3-32-32-32H160c-17.7 0-32 14.3-32 32v32H96c-17.7 0-32 14.3-32 32v32H32c-17.7 0-32 14.3-32 32"/></svg>