<svg xmlns="http://www.w3.org/2000/svg" viewBox="0 0 448 512"><!--! Font Awesome Free 7.1.0 by @fontawesome - https://fontawesome.com License - https://fontawesome.com/license/free (Icons: CC BY 4.0, Fonts: SIL OFL 1.1, Code: MIT License) Copyright 2025 Fonticons, Inc.--><path d="M73.3 192C100.8 99.5 186.5 32 288 32h64c17.7 0 32 14.3 32 32s-14.3 32-32 32h-64c-65.6 0-122 39.5-146.7 96H272c13.3 0 24 10.7 24 24s-10.7 24-24 24H128.8c-.5 5.3-.8 10.6-.8 16s.3 10.7.8 16H272c13.3 0 24 10.7 24 24s-10.7 24-24 24H141.3c24.7 56.5 81.1 96 146.7 96h64c17.7 0 32 14.3 32 32s-14.3 32-32 32h-64c-101.5 0-187.2-67.5-214.7-160H40c-13.3 0-24-10.7-24-24s10.7-24 24-24h24.6c-.7-10.5-.7-21.5 0-32H40c-13.3 0-24-10.7-24-24s10.7-24 24-24z"/></svg>