<svg xmlns="http://www.w3.org/2000/svg" viewBox="0 0 512 512"><!--! Font Awesome Free 7.1.0 by @fontawesome - https://fontawesome.com License - https://fontawesome.com/license/free (Icons: CC BY 4.0, Fonts: SIL OFL 1.1, Code: MIT License) Copyright 2025 Fonticons, Inc.--><path d="M152.2 490.1C62.5 450.2 0 360.4 0 256 0 114.6 114.6 0 256 0s256 114.6 256 256c0 104.4-62.5 194.2-152.2 234.1 5.3-13 8.2-27.2 8.2-42.1v-61.7c16.9-16.5 30.1-36.7 38.3-59.3 4.3-11.8-7.7-21.8-19.6-18.1C347.5 321.1 303 328 256 328s-91.5-6.9-130.7-19.1c-11.9-3.7-23.9 6.3-19.6 18.1 8.3 22.6 21.5 42.8 38.3 59.3V448c0 14.9 2.9 29.1 8.2 42.1M152 212h16c11 0 20 9 20 20s9 20 20 20 20-9 20-20c0-33.1-26.9-60-60-60h-16c-33.1 0-60 26.9-60 60 0 11 9 20 20 20s20-9 20-20 9-20 20-20m184 60a64 64 0 1 0 0-128 64 64 0 1 0 0 128m-16 130.6V448c0 35.3-28.7 64-64 64s-64-28.7-64-64v-45.4c0-14.7 11.9-26.6 26.6-26.6h2c11.3 0 21.1 7.9 23.6 18.9 2.8 12.6 20.8 12.6 23.6 0 2.5-11.1 12.3-18.9 23.6-18.9h2c14.7 0 26.6 11.9 26.6 26.6M336 184a24 24 0 1 1 0 48 24 24 0 1 1 0-48"/></svg>