<svg xmlns="http://www.w3.org/2000/svg" viewBox="0 0 512 512"><!--! Font Awesome Free 7.1.0 by @fontawesome - https://fontawesome.com License - https://fontawesome.com/license/free (Icons: CC BY 4.0, Fonts: SIL OFL 1.1, Code: MIT License) Copyright 2025 Fonticons, Inc.--><path d="M256 512a256 256 0 1 0 0-512 256 256 0 1 0 0 512M101.6 314c-3.7-13.7 7.5-26 21.7-26h265.4c14.2 0 25.4 12.3 21.7 26-18.5 68-80.6 118-154.4 118s-136-50-154.4-118M176 164c-15.5 0-28 12.5-28 28v8c0 11-9 20-20 20s-20-9-20-20v-8c0-37.6 30.4-68 68-68s68 30.4 68 68v8c0 11-9 20-20 20s-20-9-20-20v-8c0-15.5-12.5-28-28-28m132 28v8c0 11-9 20-20 20s-20-9-20-20v-8c0-37.6 30.4-68 68-68s68 30.4 68 68v8c0 11-9 20-20 20s-20-9-20-20v-8c0-15.5-12.5-28-28-28s-28 12.5-28 28"/></svg>