<svg xmlns="http://www.w3.org/2000/svg" viewBox="0 0 512 512"><!--! Font Awesome Free 7.1.0 by @fontawesome - https://fontawesome.com License - https://fontawesome.com/license/free (Icons: CC BY 4.0, Fonts: SIL OFL 1.1, Code: MIT License) Copyright 2025 Fonticons, Inc.--><path d="M160 144C160 64.5 224.5 0 304 0c8.8 0 16 7.2 16 16v152.2c15-5.3 31.2-8.2 48-8.2 79.5 0 144 64.5 144 144 0 8.8-7.2 16-16 16H343.8c5.3 15 8.2 31.2 8.2 48 0 79.5-64.5 144-144 144-8.8 0-16-7.2-16-16V343.8c-15 5.3-31.2 8.2-48 8.2C64.5 352 0 287.5 0 208c0-8.8 7.2-16 16-16h152.2c-5.3-15-8.2-31.2-8.2-48m96 144a32 32 0 1 0 0-64 32 32 0 1 0 0 64"/></svg>