<svg xmlns="http://www.w3.org/2000/svg" viewBox="0 0 512 512"><!--! Font Awesome Free 7.1.0 by @fontawesome - https://fontawesome.com License - https://fontawesome.com/license/free (Icons: CC BY 4.0, Fonts: SIL OFL 1.1, Code: MIT License) Copyright 2025 Fonticons, Inc.--><path d="M492.2 477.6c-12 5-25.7 2.2-34.9-6.9L288 301.3V448c0 12.9-7.8 24.6-19.8 29.6s-25.7 2.2-34.9-6.9L64 301.3V448c0 17.7-14.3 32-32 32S0 465.7 0 448V64c0-17.7 14.3-32 32-32s32 14.3 32 32v146.7L233.4 41.4c9.2-9.2 22.9-11.9 34.9-6.9S288 51.1 288 64v146.7L457.4 41.3c9.2-9.2 22.9-11.9 34.9-6.9S512 51.1 512 64v384c0 12.9-7.8 24.6-19.8 29.6"/></svg>