<svg xmlns="http://www.w3.org/2000/svg" viewBox="0 0 512 512"><!--! Font Awesome Free 7.1.0 by @fontawesome - https://fontawesome.com License - https://fontawesome.com/license/free (Icons: CC BY 4.0, Fonts: SIL OFL 1.1, Code: MIT License) Copyright 2025 Fonticons, Inc.--><path d="M192 64c0-17.7 14.3-32 32-32s32 14.3 32 32h96c17.7 0 32 14.3 32 32s-14.3 32-32 32h-96v64h18.7c8.5 0 16.6 3.4 22.6 9.4l22.6 22.6h32c88.4 0 160 71.6 160 160 0 17.7-14.3 32-32 32h-64c-17.7 0-32-14.3-32-32s-14.3-32-32-32h-36.1c-20.2 29-53.9 48-91.9 48s-71.7-19-91.9-48H32c-17.7 0-32-14.3-32-32v-64c0-17.7 14.3-32 32-32h96l22.6-22.6c6-6 14.1-9.4 22.6-9.4h18.7v-64h-96c-17.7 0-32-14.3-32-32S78.3 64 96 64z"/></svg>