<svg xmlns="http://www.w3.org/2000/svg" viewBox="0 0 512 512"><!--! Font Awesome Free 7.1.0 by @fontawesome - https://fontawesome.com License - https://fontawesome.com/license/free (Icons: CC BY 4.0, Fonts: SIL OFL 1.1, Code: MIT License) Copyright 2025 Fonticons, Inc.--><path d="M224 32c-17.7 0-32 14.3-32 32H96c-17.7 0-32 14.3-32 32s14.3 32 32 32h96v64h-18.7c-8.5 0-16.6 3.4-22.6 9.4L128 224H32c-17.7 0-32 14.3-32 32v64c0 17.7 14.3 32 32 32h100.1c20.2 29 53.9 48 91.9 48s71.7-19 91.9-48H352c17.7 0 32 14.3 32 32s14.3 32 32 32h64c17.7 0 32-14.3 32-32 0-88.4-71.6-160-160-160h-32l-22.6-22.6c-6-6-14.1-9.4-22.6-9.4h-18.7v-64h96c17.7 0 32-14.3 32-32s-14.3-32-32-32h-96c0-17.7-14.3-32-32-32zm212.8 423.4-18.2 42.4c-1.8 4.1-2.7 8.6-2.7 13.1v1.2c0 17.7 14.3 32 32 32s32-14.3 32-32v-1.2c0-4.5-.9-8.9-2.7-13.1L459 455.4c-1.9-4.5-6.3-7.4-11.2-7.4s-9.2 2.9-11.2 7.4z"/></svg>