<svg xmlns="http://www.w3.org/2000/svg" viewBox="0 0 512 512"><!--! Font Awesome Free 7.1.0 by @fontawesome - https://fontawesome.com License - https://fontawesome.com/license/free (Icons: CC BY 4.0, Fonts: SIL OFL 1.1, Code: MIT License) Copyright 2025 Fonticons, Inc.--><path d="M160 64v80h64V64h146.7l45.3 45.3V144h64v-34.7c0-17-6.7-33.3-18.7-45.3L416 18.7C404 6.7 387.7 0 370.7 0H224c-35.3 0-64 28.7-64 64M32 128c-17.7 0-32 14.3-32 32v288c0 17.7 14.3 32 32 32h48c17.7 0 32-14.3 32-32V160c0-17.7-14.3-32-32-32zm448 64H160v256c0 17.7 14.3 32 32 32h288c17.7 0 32-14.3 32-32V224c0-17.7-14.3-32-32-32m-256 96a24 24 0 1 1 48 0 24 24 0 1 1-48 0m0 96a24 24 0 1 1 48 0 24 24 0 1 1-48 0m112-120a24 24 0 1 1 0 48 24 24 0 1 1 0-48m-24 120a24 24 0 1 1 48 0 24 24 0 1 1-48 0m112-120a24 24 0 1 1 0 48 24 24 0 1 1 0-48m-24 120a24 24 0 1 1 48 0 24 24 0 1 1-48 0"/></svg>