<svg xmlns="http://www.w3.org/2000/svg" viewBox="0 0 384 512"><!--! Font Awesome Free 7.1.0 by @fontawesome - https://fontawesome.com License - https://fontawesome.com/license/free (Icons: CC BY 4.0, Fonts: SIL OFL 1.1, Code: MIT License) Copyright 2025 Fonticons, Inc.--><path d="M64 0C28.7 0 0 28.7 0 64v256h384V170.5c0-17-6.7-33.3-18.7-45.3L258.7 18.7C246.7 6.7 230.5 0 213.5 0zm261.5 176H232c-13.3 0-24-10.7-24-24V58.5zM0 352v64h64v-64zm64 160v-64H0c0 35.3 28.7 64 64 64m32 0h80v-64H96zm112 0h80v-64h-80zm112 0c35.3 0 64-28.7 64-64h-64zm64-160h-64v64h64z"/></svg>