<svg xmlns="http://www.w3.org/2000/svg" viewBox="0 0 384 512"><!--! Font Awesome Free 7.1.0 by @fontawesome - https://fontawesome.com License - https://fontawesome.com/license/free (Icons: CC BY 4.0, Fonts: SIL OFL 1.1, Code: MIT License) Copyright 2025 Fonticons, Inc.--><path d="M0 64C0 28.7 28.7 0 64 0h149.5c17 0 33.3 6.7 45.3 18.7l106.5 106.6c12 12 18.7 28.3 18.7 45.3V448c0 35.3-28.7 64-64 64H64c-35.3 0-64-28.7-64-64zm208-5.5V152c0 13.3 10.7 24 24 24h93.5zM128 256a32 32 0 1 0-64 0 32 32 0 1 0 64 0M92.6 448h198.8c15.8 0 28.6-12.8 28.6-28.6 0-7.3-2.8-14.4-7.9-19.7l-96.8-101.8c-6-6.3-14.4-9.9-23.2-9.9h-.3c-8.8 0-17.1 3.6-23.2 9.9L71.9 399.7c-5.1 5.3-7.9 12.4-7.9 19.7 0 15.8 12.8 28.6 28.6 28.6"/></svg>