<svg xmlns="http://www.w3.org/2000/svg" viewBox="0 0 384 512"><!--! Font Awesome Free 7.1.0 by @fontawesome - https://fontawesome.com License - https://fontawesome.com/license/free (Icons: CC BY 4.0, Fonts: SIL OFL 1.1, Code: MIT License) Copyright 2025 Fonticons, Inc.--><path d="M0 64C0 28.7 28.7 0 64 0h149.5c17 0 33.3 6.7 45.3 18.7l106.5 106.6c12 12 18.7 28.3 18.7 45.3V448c0 35.3-28.7 64-64 64H64c-35.3 0-64-28.7-64-64zm208-5.5V152c0 13.3 10.7 24 24 24h93.5zm53.8 185.2c-9.1-6.3-21.5-4.1-27.8 5s-4.1 21.5 5 27.8c23.9 16.7 39.4 44.3 39.4 75.5s-15.6 58.9-39.4 75.5c-9.1 6.3-11.3 18.8-5 27.8s18.8 11.3 27.8 5c34.1-23.8 56.6-63.5 56.6-108.3s-22.4-84.5-56.6-108.3M80 312c-8.8 0-16 7.2-16 16v48c0 8.8 7.2 16 16 16h24l27.2 34c3 3.8 7.6 6 12.5 6h.3c8.8 0 16-7.2 16-16V288c0-8.8-7.2-16-16-16h-.3c-4.9 0-9.5 2.2-12.5 6L104 312zm128 72.2c0 10.7 10.5 18.2 18.9 11.6 12.9-10.3 21.1-26.1 21.1-43.8s-8.2-33.5-21.1-43.8c-8.4-6.7-18.9.9-18.9 11.6v64.5z"/></svg>