<svg xmlns="http://www.w3.org/2000/svg" viewBox="0 0 576 512"><!--! Font Awesome Free 7.1.0 by @fontawesome - https://fontawesome.com License - https://fontawesome.com/license/free (Icons: CC BY 4.0, Fonts: SIL OFL 1.1, Code: MIT License) Copyright 2025 Fonticons, Inc.--><path d="M96 0C60.7 0 32 28.7 32 64v384c0 35.3 28.7 64 64 64h80V400c0-35.3 28.7-64 64-64h176V170.5c0-17-6.7-33.3-18.7-45.3L290.7 18.7C278.7 6.7 262.5 0 245.5 0zm261.5 176H264c-13.3 0-24-10.7-24-24V58.5zM264 380c-24.3 0-44 19.7-44 44v80c0 24.3 19.7 44 44 44h16c24.3 0 44-19.7 44-44v-8c0-11-9-20-20-20s-20 9-20 20v8c0 2.2-1.8 4-4 4h-16c-2.2 0-4-1.8-4-4v-80c0-2.2 1.8-4 4-4h16c2.2 0 4 1.8 4 4v8c0 11 9 20 20 20s20-9 20-20v-8c0-24.3-19.7-44-44-44zm136 0c-28.7 0-52 23.3-52 52s23.3 52 52 52c6.6 0 12 5.4 12 12s-5.4 12-12 12h-32c-11 0-20 9-20 20s9 20 20 20h32c28.7 0 52-23.3 52-52s-23.3-52-52-52c-6.6 0-12-5.4-12-12s5.4-12 12-12h24c11 0 20-9 20-20s-9-20-20-20zm96 0c-11 0-20 9-20 20v31.6c0 35.5 10.5 70.3 30.2 99.8l5.1 7.7c3.7 5.6 10 8.9 16.6 8.9s12.9-3.3 16.6-8.9l5.1-7.7c19.7-29.6 30.2-64.3 30.2-99.8V400c0-11-9-20-20-20s-20 9-20 20v31.6c0 19.6-4.1 38.9-12 56.7-7.9-17.8-12-37.1-12-56.7V400c0-11-9-20-20-20z"/></svg>