<svg xmlns="http://www.w3.org/2000/svg" viewBox="0 0 384 512"><!--! Font Awesome Free 7.1.0 by @fontawesome - https://fontawesome.com License - https://fontawesome.com/license/free (Icons: CC BY 4.0, Fonts: SIL OFL 1.1, Code: MIT License) Copyright 2025 Fonticons, Inc.--><path d="M0 64C0 28.7 28.7 0 64 0h149.5c17 0 33.3 6.7 45.3 18.7l106.5 106.6c12 12 18.7 28.3 18.7 45.3V448c0 35.3-28.7 64-64 64H64c-35.3 0-64-28.7-64-64zm208-5.5V152c0 13.3 10.7 24 24 24h93.5zM88 192c-13.3 0-24 10.7-24 24v144c0 13.3 10.7 24 24 24s24-10.7 24-24v-40h22.5l58.4 55-33.4 31.6c-9.6 9.1-10.1 24.3-.9 33.9s24.3 10.1 33.9.9l35.4-33.5 35.6 33.5c9.7 9.1 24.8 8.6 33.9-1s8.6-24.8-1-33.9l-33.6-31.6 33.6-31.8c9.6-9.1 10.1-24.3.9-33.9s-24.3-10.1-33.9-.9L227.7 342l-40.9-38.5c12.9-11.7 21.1-28.6 21.1-47.5 0-35.3-28.7-64-64-64h-56zm32 80h-8v-32h32c8.8 0 16 7.2 16 16s-7.2 16-16 16z"/></svg>