<svg xmlns="http://www.w3.org/2000/svg" viewBox="0 0 384 512"><!--! Font Awesome Free 7.1.0 by @fontawesome - https://fontawesome.com License - https://fontawesome.com/license/free (Icons: CC BY 4.0, Fonts: SIL OFL 1.1, Code: MIT License) Copyright 2025 Fonticons, Inc.--><path d="M0 64C0 28.7 28.7 0 64 0h149.5c17 0 33.3 6.7 45.3 18.7l106.5 106.6c12 12 18.7 28.3 18.7 45.3V448c0 35.3-28.7 64-64 64H64c-35.3 0-64-28.7-64-64zm208-5.5V152c0 13.3 10.7 24 24 24h93.5zm-72.6 216.3c-2.9-12.9-15.7-21.1-28.6-18.2s-21.1 15.7-18.2 28.6l32 144c2.3 10.5 11.4 18.2 22.2 18.8s20.6-6.1 24-16.4l25.2-75.7 25.2 75.7c3.4 10.2 13.2 16.9 24 16.4s19.9-8.2 22.2-18.8l32-144c2.9-12.9-5.3-25.8-18.2-28.6s-25.8 5.3-28.6 18.2l-13.2 59.4-20.6-61.8c-3.3-9.8-12.4-16.4-22.8-16.4s-19.5 6.6-22.8 16.4l-20.6 61.8z"/></svg>