<svg xmlns="http://www.w3.org/2000/svg" viewBox="0 0 576 512"><!--! Font Awesome Free 7.1.0 by @fontawesome - https://fontawesome.com License - https://fontawesome.com/license/free (Icons: CC BY 4.0, Fonts: SIL OFL 1.1, Code: MIT License) Copyright 2025 Fonticons, Inc.--><path d="M96 0C60.7 0 32 28.7 32 64v384c0 35.3 28.7 64 64 64h201.2C261 469.4 240 414.5 240 356.4v-31.1c0-34.4 22-65 54.7-75.9l112-37.3c3.1-1 6.2-1.8 9.3-2.5v-39.1c0-17-6.7-33.3-18.7-45.3L290.7 18.7C278.7 6.7 262.5 0 245.5 0zm261.5 176H264c-13.3 0-24-10.7-24-24V58.5zm87.8 312.5-13.3 6.3V306.7l96 32v19.6c0 55.8-32.2 106.5-82.7 130.3zm-23.4-229-112 37.3c-13.1 4.4-21.9 16.6-21.9 30.4v31.1c0 74.4 43 142.1 110.2 173.7l18.5 8.7c4.8 2.2 10 3.4 15.2 3.4s10.5-1.2 15.2-3.4l18.5-8.7C533 500.3 576 432.6 576 358.2v-31.1c0-13.8-8.8-26-21.9-30.4l-112-37.3c-6.6-2.2-13.7-2.2-20.2 0z"/></svg>