<svg xmlns="http://www.w3.org/2000/svg" viewBox="0 0 576 512"><!--! Font Awesome Free 7.1.0 by @fontawesome - https://fontawesome.com License - https://fontawesome.com/license/free (Icons: CC BY 4.0, Fonts: SIL OFL 1.1, Code: MIT License) Copyright 2025 Fonticons, Inc.--><path d="M96 0C60.7 0 32 28.7 32 64v384c0 35.3 28.7 64 64 64h180c-22.7-31.5-36-70.2-36-112 0-100.6 77.4-183.2 176-191.3v-38.1c0-17-6.7-33.3-18.7-45.3L290.7 18.7C278.7 6.7 262.5 0 245.5 0zm261.5 176H264c-13.3 0-24-10.7-24-24V58.5zM432 544a144 144 0 1 0 0-288 144 144 0 1 0 0 288m59.3-180.7L454.6 400l36.7 36.7c6.2 6.2 6.2 16.4 0 22.6s-16.4 6.2-22.6 0L432 422.6l-36.7 36.7c-6.2 6.2-16.4 6.2-22.6 0s-6.2-16.4 0-22.6l36.7-36.7-36.7-36.7c-6.2-6.2-6.2-16.4 0-22.6s16.4-6.2 22.6 0l36.7 36.7 36.7-36.7c6.2-6.2 16.4-6.2 22.6 0s6.2 16.4 0 22.6"/></svg>