<svg xmlns="http://www.w3.org/2000/svg" viewBox="0 0 576 512"><!--! Font Awesome Free 7.1.0 by @fontawesome - https://fontawesome.com License - https://fontawesome.com/license/free (Icons: CC BY 4.0, Fonts: SIL OFL 1.1, Code: MIT License) Copyright 2025 Fonticons, Inc.--><path d="M96 0C60.7 0 32 28.7 32 64v384c0 35.3 28.7 64 64 64h80V400c0-35.3 28.7-64 64-64h176V170.5c0-17-6.7-33.3-18.7-45.3L290.7 18.7C278.7 6.7 262.5 0 245.5 0zm261.5 176H264c-13.3 0-24-10.7-24-24V58.5zM240 380c-11 0-20 9-20 20v128c0 11 9 20 20 20s20-9 20-20v-28h12c33.1 0 60-26.9 60-60s-26.9-60-60-60zm32 80h-12v-40h12c11 0 20 9 20 20s-9 20-20 20m96-80c-11 0-20 9-20 20v128c0 11 9 20 20 20h32c28.7 0 52-23.3 52-52v-64c0-28.7-23.3-52-52-52zm20 128v-88h12c6.6 0 12 5.4 12 12v64c0 6.6-5.4 12-12 12zm88-108v128c0 11 9 20 20 20s20-9 20-20v-44h28c11 0 20-9 20-20s-9-20-20-20h-28v-24h28c11 0 20-9 20-20s-9-20-20-20h-48c-11 0-20 9-20 20"/></svg>