<svg xmlns="http://www.w3.org/2000/svg" viewBox="0 0 384 512"><!--! Font Awesome Free 7.1.0 by @fontawesome - https://fontawesome.com License - https://fontawesome.com/license/free (Icons: CC BY 4.0, Fonts: SIL OFL 1.1, Code: MIT License) Copyright 2025 Fonticons, Inc.--><path d="M64 0C28.7 0 0 28.7 0 64v240h128c44.2 0 80 35.8 80 80v128h112c35.3 0 64-28.7 64-64V170.5c0-17-6.7-33.3-18.7-45.3L258.7 18.7C246.7 6.7 230.5 0 213.5 0zm261.5 176H232c-13.3 0-24-10.7-24-24V58.5zM32 352c-17.7 0-32 14.3-32 32v96c0 17.7 14.3 32 32 32h96c17.7 0 32-14.3 32-32v-96c0-17.7-14.3-32-32-32z"/></svg>