<svg xmlns="http://www.w3.org/2000/svg" viewBox="0 0 384 512"><!--! Font Awesome Free 6.7.1 by @fontawesome - https://fontawesome.com License - https://fontawesome.com/license/free (Icons: CC BY 4.0, Fonts: SIL OFL 1.1, Code: MIT License) Copyright 2024 Fonticons, Inc.--><path d="M0 64C0 28.7 28.7 0 64 0h160v128c0 17.7 14.3 32 32 32h128v288c0 35.3-28.7 64-64 64H192V384c0-35.3-28.7-64-64-64H0zm384 64H256V0zM32 352h96c17.7 0 32 14.3 32 32v96c0 17.7-14.3 32-32 32H32c-17.7 0-32-14.3-32-32v-96c0-17.7 14.3-32 32-32"/></svg>