<svg xmlns="http://www.w3.org/2000/svg" viewBox="0 0 384 512"><!--! Font Awesome Free 7.1.0 by @fontawesome - https://fontawesome.com License - https://fontawesome.com/license/free (Icons: CC BY 4.0, Fonts: SIL OFL 1.1, Code: MIT License) Copyright 2025 Fonticons, Inc.--><path d="M0 64C0 28.7 28.7 0 64 0h149.5c17 0 33.3 6.7 45.3 18.7l106.5 106.6c12 12 18.7 28.3 18.7 45.3V448c0 35.3-28.7 64-64 64H64c-35.3 0-64-28.7-64-64zm208-5.5V152c0 13.3 10.7 24 24 24h93.5zM88 64c-13.3 0-24 10.7-24 24s10.7 24 24 24h48c13.3 0 24-10.7 24-24s-10.7-24-24-24zm0 96c-13.3 0-24 10.7-24 24s10.7 24 24 24h48c13.3 0 24-10.7 24-24s-10.7-24-24-24zm70.3 160c-11.3 0-21.9 5.1-28.9 13.9L69.3 409c-8.3 10.3-6.6 25.5 3.7 33.7s25.5 6.6 33.7-3.8l47.1-58.8 15.2 50.7c3 10.2 12.4 17.1 23 17.1h104c13.3 0 24-10.7 24-24s-10.7-24-24-24h-86.1l-16.1-53.6c-4.7-15.7-19.1-26.4-35.5-26.4z"/></svg>