<svg xmlns="http://www.w3.org/2000/svg" viewBox="0 0 512 512"><!--! Font Awesome Free 7.1.0 by @fontawesome - https://fontawesome.com License - https://fontawesome.com/license/free (Icons: CC BY 4.0, Fonts: SIL OFL 1.1, Code: MIT License) Copyright 2025 Fonticons, Inc.--><path d="M296 64c6.9 0 13.5 2.7 18.3 7.6l126.1 126.1c4.9 4.9 7.6 11.5 7.6 18.3s-2.7 13.5-7.6 18.3L386.7 288H65.3c1.3-3.9 3.4-7.4 6.3-10.3l96.4-96.4 33.4 33.4c12.5 12.5 32.8 12.5 45.3 0s12.5-32.8 0-45.3L213.3 136l64.4-64.4c4.9-4.9 11.5-7.6 18.3-7.6m-173.3 72-96.4 96.4C9.5 249.3 0 272.1 0 296s9.5 46.7 26.3 63.6l126.1 126.1c16.9 16.8 39.7 26.3 63.6 26.3s46.7-9.5 63.6-26.3l206.1-206.1c16.8-16.9 26.3-39.7 26.3-63.6s-9.5-46.7-26.3-63.6L359.6 26.3C342.7 9.5 319.9 0 296 0s-46.7 9.5-63.6 26.3L168 90.7l-49.4-49.3c-12.5-12.5-32.8-12.5-45.3 0s-12.5 32.8 0 45.3z"/></svg>