<svg xmlns="http://www.w3.org/2000/svg" viewBox="0 0 512 512"><!--! Font Awesome Free 7.1.0 by @fontawesome - https://fontawesome.com License - https://fontawesome.com/license/free (Icons: CC BY 4.0, Fonts: SIL OFL 1.1, Code: MIT License) Copyright 2025 Fonticons, Inc.--><path d="M64 64C28.7 64 0 92.7 0 128v256c0 35.3 28.7 64 64 64h16V64zm64 0v384h256V64zm320 384c35.3 0 64-28.7 64-64V128c0-35.3-28.7-64-64-64h-16v384zM224 184c0-8.8 7.2-16 16-16h32c8.8 0 16 7.2 16 16v40h40c8.8 0 16 7.2 16 16v32c0 8.8-7.2 16-16 16h-40v40c0 8.8-7.2 16-16 16h-32c-8.8 0-16-7.2-16-16v-40h-40c-8.8 0-16-7.2-16-16v-32c0-8.8 7.2-16 16-16h40z"/></svg>