<svg xmlns="http://www.w3.org/2000/svg" viewBox="0 0 640 512"><!--! Font Awesome Free 7.1.0 by @fontawesome - https://fontawesome.com License - https://fontawesome.com/license/free (Icons: CC BY 4.0, Fonts: SIL OFL 1.1, Code: MIT License) Copyright 2025 Fonticons, Inc.--><path d="M184.6 411.5c-3.1 7.3-5.4 14.9-6.8 22.6-14.5 8.8-31.5 13.9-49.8 13.9-53 0-96-43-96-96V64C14.3 64 0 49.7 0 32S14.3 0 32 0h192c17.7 0 32 14.3 32 32s-14.3 32-32 32v255.6zM96 64v128h64V64zM352 0h160c17.7 0 32 14.3 32 32s-14.3 32-32 32v153.4l91.3 213c2.3 5.4 3.8 11.1 4.4 17l.3.6h-.3q.3 2.7.3 5.4c0 32.3-26.2 58.6-58.6 58.6H282.5c-32.3 0-58.6-26.2-58.6-58.6q0-2.7.3-5.4h-.3l.3-.6c.6-5.8 2.1-11.6 4.4-17l91.4-213V64c-17.7 0-32-14.3-32-32s14.3-32 32-32zm101.2 242.6c-3.4-8-5.2-16.5-5.2-25.2V64h-64v153.4c0 8.7-1.8 17.2-5.2 25.2L345.6 320h140.7l-33.2-77.4z"/></svg>