<svg xmlns="http://www.w3.org/2000/svg" viewBox="0 0 448 512"><!--! Font Awesome Free 7.1.0 by @fontawesome - https://fontawesome.com License - https://fontawesome.com/license/free (Icons: CC BY 4.0, Fonts: SIL OFL 1.1, Code: MIT License) Copyright 2025 Fonticons, Inc.--><path d="M288 0H128c-17.7 0-32 14.3-32 32s14.3 32 32 32v151.5L7.5 426.3C2.6 435 0 444.7 0 454.7 0 486.4 25.6 512 57.3 512h333.4c31.6 0 57.3-25.6 57.3-57.3 0-10-2.6-19.8-7.5-28.4L320 215.5V64c17.7 0 32-14.3 32-32S337.7 0 320 0zm-96 215.5V64h64v151.5c0 11.1 2.9 22.1 8.4 31.8L306 320H142l41.6-72.7c5.5-9.7 8.4-20.6 8.4-31.8"/></svg>