<svg xmlns="http://www.w3.org/2000/svg" viewBox="0 0 576 512"><!--! Font Awesome Free 7.1.0 by @fontawesome - https://fontawesome.com License - https://fontawesome.com/license/free (Icons: CC BY 4.0, Fonts: SIL OFL 1.1, Code: MIT License) Copyright 2025 Fonticons, Inc.--><path d="M48 24C48 10.7 37.3 0 24 0S0 10.7 0 24v368c0 30.9 25.1 56 56 56h184v-48H56c-4.4 0-8-3.6-8-8V160h192v-48H48zm288 200h192c26.5 0 48-21.5 48-48V80c0-26.5-21.5-48-48-48h-82.7c-8.5 0-16.6-3.4-22.6-9.4l-8.6-8.6c-9-9-21.2-14.1-33.9-14.1L336 0c-26.5 0-48 21.5-48 48v128c0 26.5 21.5 48 48 48m0 288h192c26.5 0 48-21.5 48-48v-96c0-26.5-21.5-48-48-48h-82.7c-8.5 0-16.6-3.4-22.6-9.4l-8.6-8.6c-9-9-21.2-14.1-33.9-14.1l-44.2.1c-26.5 0-48 21.5-48 48v128c0 26.5 21.5 48 48 48"/></svg>