<svg xmlns="http://www.w3.org/2000/svg" viewBox="0 0 512 512"><!--! Font Awesome Free 7.1.0 by @fontawesome - https://fontawesome.com License - https://fontawesome.com/license/free (Icons: CC BY 4.0, Fonts: SIL OFL 1.1, Code: MIT License) Copyright 2025 Fonticons, Inc.--><path d="M285.1 50.7C279.9 39.3 268.5 32 256 32s-23.9 7.3-29.1 18.7L59.5 416H48c-17.7 0-32 14.3-32 32s14.3 32 32 32h88c17.7 0 32-14.3 32-32s-14.3-32-32-32h-6.1l22-48h208.3l22 48h-6.1c-17.7 0-32 14.3-32 32s14.3 32 32 32h88c17.7 0 32-14.3 32-32s-14.3-32-32-32h-11.5L285.2 50.7zM330.8 304H181.2L256 140.8z"/></svg>