<svg xmlns="http://www.w3.org/2000/svg" viewBox="0 0 576 512"><!--! Font Awesome Free 7.1.0 by @fontawesome - https://fontawesome.com License - https://fontawesome.com/license/free (Icons: CC BY 4.0, Fonts: SIL OFL 1.1, Code: MIT License) Copyright 2025 Fonticons, Inc.--><path d="M371.7 43.1C360.1 32 343 28.9 328.3 35.2S304 56 304 72v136.3L131.7 43.2c-11.6-11.2-28.7-14.3-43.4-8S64 56 64 72v368c0 16 9.6 30.5 24.3 36.8s31.8 3.2 43.4-7.9L304 303.7V440c0 16 9.6 30.5 24.3 36.8s31.8 3.2 43.4-7.9l192-184c7.9-7.5 12.3-18 12.3-28.9s-4.5-21.3-12.3-28.9z"/></svg>