<svg xmlns="http://www.w3.org/2000/svg" viewBox="0 0 320 512"><!--! Font Awesome Free 7.1.0 by @fontawesome - https://fontawesome.com License - https://fontawesome.com/license/free (Icons: CC BY 4.0, Fonts: SIL OFL 1.1, Code: MIT License) Copyright 2025 Fonticons, Inc.--><path d="M80 32c-17.7 0-32 14.3-32 32v256H24c-13.3 0-24 10.7-24 24s10.7 24 24 24h24v80c0 17.7 14.3 32 32 32s32-14.3 32-32v-80h88c13.3 0 24-10.7 24-24s-10.7-24-24-24h-88v-64h144c17.7 0 32-14.3 32-32s-14.3-32-32-32H112V96h176c17.7 0 32-14.3 32-32s-14.3-32-32-32z"/></svg>