<svg xmlns="http://www.w3.org/2000/svg" viewBox="0 0 640 512"><!--! Font Awesome Free 7.1.0 by @fontawesome - https://fontawesome.com License - https://fontawesome.com/license/free (Icons: CC BY 4.0, Fonts: SIL OFL 1.1, Code: MIT License) Copyright 2025 Fonticons, Inc.--><path d="M448 64c106 0 192 86 192 192s-86 192-192 192H192C86 448 0 362 0 256S86 64 192 64zM192 176c-13.3 0-24 10.7-24 24v32h-32c-13.3 0-24 10.7-24 24s10.7 24 24 24h32v32c0 13.3 10.7 24 24 24s24-10.7 24-24v-32h32c13.3 0 24-10.7 24-24s-10.7-24-24-24h-32v-32c0-13.3-10.7-24-24-24m240 96a32 32 0 1 0 0 64 32 32 0 1 0 0-64m64-96a32 32 0 1 0 0 64 32 32 0 1 0 0-64"/></svg>