<svg xmlns="http://www.w3.org/2000/svg" viewBox="0 0 576 512"><!--! Font Awesome Free 7.1.0 by @fontawesome - https://fontawesome.com License - https://fontawesome.com/license/free (Icons: CC BY 4.0, Fonts: SIL OFL 1.1, Code: MIT License) Copyright 2025 Fonticons, Inc.--><path d="M202-30.6c12.5 4.4 19 18.1 14.6 30.6l-8.2 23.1 25.4-18.5c10.7-7.8 25.7-5.4 33.5 5.3s5.4 25.7-5.3 33.5L233.8 64H272c26.5 0 48 21.5 48 48v2.1c-54.7 10.4-96 58.4-96 116v1.9c0 8.9 1 17.5 2.8 25.9C214.9 275.7 208 297 208 320v128c0 23.8 7.4 45.9 20.1 64H48c-26.5 0-48-21.5-48-48V112c0-26.5 21.5-48 48-48h38.2L57.9 43.4c-10.7-7.8-13.1-22.8-5.3-33.5S75.4-3.2 86.1 4.6l27.4 20-8.3-25c-4.2-12.6 2.6-26.2 15.2-30.4s26.2 2.6 30.4 15.2l9.9 29.8L171.4-16c4.4-12.5 18.1-19 30.6-14.6M489.9 208c-7.5 0-14.5 3.8-18.6 10.1L446.9 256H488c13.3 0 24-10.7 24-24v-1.9c0-12.2-9.9-22.1-22.1-22.1m-104.8 48-24.4-37.9a22.2 22.2 0 0 0-18.6-10.1c-12.2 0-22.1 9.9-22.1 22.1v1.9c0 13.3 10.7 24 24 24zm-103.2 12.5c-6.3-10.7-9.9-23.2-9.9-36.5v-1.9c0-38.7 31.4-70.1 70.1-70.1 23.8 0 46 12.1 58.9 32.1l15 23.2 15-23.2c12.9-20 35.1-32.1 58.9-32.1 38.7 0 70.1 31.4 70.1 70.1v1.9c0 13.3-3.6 25.8-9.9 36.5 15.7 11.7 25.9 30.4 25.9 51.5v128c0 35.3-28.7 64-64 64h-72V304h-48v208h-72c-35.3 0-64-28.7-64-64V320c0-21.1 10.2-39.8 25.9-51.5"/></svg>