<svg xmlns="http://www.w3.org/2000/svg" viewBox="0 0 576 512"><!--! Font Awesome Free 7.1.0 by @fontawesome - https://fontawesome.com License - https://fontawesome.com/license/free (Icons: CC BY 4.0, Fonts: SIL OFL 1.1, Code: MIT License) Copyright 2025 Fonticons, Inc.--><path d="M143.3 96c-14 0-26.5 9.2-30.6 22.6L70.4 256H224c17.7 0 32 14.3 32 32h64c0-17.7 14.3-32 32-32h153.6l-42.3-137.4c-4.1-13.4-16.5-22.6-30.6-22.6H400c-17.7 0-32-14.3-32-32s14.3-32 32-32h32.7c42.1 0 79.4 27.5 91.8 67.8l45.4 147.5c4.1 13.2 6.1 26.9 6.1 40.7v96c0 53-43 96-96 96h-64c-53 0-96-43-96-96v-32h-64v32c0 53-43 96-96 96H96c-53 0-96-43-96-96v-96c0-13.8 2.1-27.5 6.1-40.7L51.5 99.8C63.9 59.5 101.1 32 143.3 32H176c17.7 0 32 14.3 32 32s-14.3 32-32 32zM64 320v64c0 17.7 14.3 32 32 32h64c17.7 0 32-14.3 32-32v-64zm416 96c17.7 0 32-14.3 32-32v-64H384v64c0 17.7 14.3 32 32 32z"/></svg>