<svg xmlns="http://www.w3.org/2000/svg" viewBox="0 0 512 512"><!--! Font Awesome Free 7.1.0 by @fontawesome - https://fontawesome.com License - https://fontawesome.com/license/free (Icons: CC BY 4.0, Fonts: SIL OFL 1.1, Code: MIT License) Copyright 2025 Fonticons, Inc.--><path d="M2.4 51.8C7.4 39.8 19.1 32 32 32h448c12.9 0 24.6 7.8 29.6 19.8s2.2 25.7-6.9 34.9L288 301.3V448h64c17.7 0 32 14.3 32 32s-14.3 32-32 32H160c-17.7 0-32-14.3-32-32s14.3-32 32-32h64V301.3L9.4 86.7c-9.2-9.2-11.9-23-7-34.9M354.7 144l48-48H109.2l48 48z"/></svg>