<svg xmlns="http://www.w3.org/2000/svg" viewBox="0 0 384 512"><!--! Font Awesome Free 7.1.0 by @fontawesome - https://fontawesome.com License - https://fontawesome.com/license/free (Icons: CC BY 4.0, Fonts: SIL OFL 1.1, Code: MIT License) Copyright 2025 Fonticons, Inc.--><path d="M298.5 384.1c12.1 1.2 21.5 11.5 21.5 23.9s-9.4 22.6-21.5 23.9l-2.5.1h-80v88c0 13.3-10.7 24-24 24s-24-10.7-24-24v-88H88c-13.3 0-24-10.7-24-24 0-12.4 9.4-22.6 21.5-23.9l2.5-.1h208zM192 0c106 0 192 86 192 192 0 57.4-25.2 108.8-65.1 144H65.1C25.2 300.8 0 249.4 0 192 0 86 86 0 192 0m32 240c-7.7 0-14.2 5.5-15.7 12.8l-.6 6.4c-1.3 6.3-6.2 11.2-12.5 12.5l-6.4.6c-7.3 1.5-12.8 8-12.8 15.7 0 8.8 7.2 16 16 16 26.5 0 48-21.5 48-48 0-8.8-7.2-16-16-16m64-64c-7.7 0-14.2 5.5-15.7 12.8l-.6 6.4c-1.3 6.3-6.2 11.2-12.5 12.5l-6.4.6c-7.3 1.5-12.8 8-12.8 15.7 0 8.8 7.2 16 16 16 26.5 0 48-21.5 48-48 0-8.8-7.2-16-16-16m-80-16c-7.7 0-14.2 5.5-15.7 12.8l-.6 6.4c-1.3 6.3-6.2 11.2-12.5 12.5l-6.4.6c-7.3 1.5-12.8 8-12.8 15.7 0 8.8 7.2 16 16 16 26.5 0 48-21.5 48-48 0-8.8-7.2-16-16-16"/></svg>