<svg xmlns="http://www.w3.org/2000/svg" viewBox="0 0 448 512"><!--! Font Awesome Free 7.1.0 by @fontawesome - https://fontawesome.com License - https://fontawesome.com/license/free (Icons: CC BY 4.0, Fonts: SIL OFL 1.1, Code: MIT License) Copyright 2025 Fonticons, Inc.--><path d="M21.9 94.4C5.1 88.8-3.9 70.6 1.7 53.9s23.7-25.8 40.4-20.3l384 128C439.2 166 448 178.2 448 192s-8.8 26-21.9 30.4l-384 128c-16.8 5.6-34.9-3.5-40.5-20.2s3.5-34.9 20.2-40.5l293-97.7zM416 416c17.7 0 32 14.3 32 32s-14.3 32-32 32H32c-17.7 0-32-14.3-32-32s14.3-32 32-32z"/></svg>