<svg xmlns="http://www.w3.org/2000/svg" viewBox="0 0 320 512"><!--! Font Awesome Free 7.1.0 by @fontawesome - https://fontawesome.com License - https://fontawesome.com/license/free (Icons: CC BY 4.0, Fonts: SIL OFL 1.1, Code: MIT License) Copyright 2025 Fonticons, Inc.--><path d="M128 40c0-22.1-17.9-40-40-40H40C17.9 0 0 17.9 0 40v48c0 22.1 17.9 40 40 40h48c22.1 0 40-17.9 40-40zm0 192c0-22.1-17.9-40-40-40H40c-22.1 0-40 17.9-40 40v48c0 22.1 17.9 40 40 40h48c22.1 0 40-17.9 40-40zM0 424v48c0 22.1 17.9 40 40 40h48c22.1 0 40-17.9 40-40v-48c0-22.1-17.9-40-40-40H40c-22.1 0-40 17.9-40 40M320 40c0-22.1-17.9-40-40-40h-48c-22.1 0-40 17.9-40 40v48c0 22.1 17.9 40 40 40h48c22.1 0 40-17.9 40-40zM192 232v48c0 22.1 17.9 40 40 40h48c22.1 0 40-17.9 40-40v-48c0-22.1-17.9-40-40-40h-48c-22.1 0-40 17.9-40 40m128 192c0-22.1-17.9-40-40-40h-48c-22.1 0-40 17.9-40 40v48c0 22.1 17.9 40 40 40h48c22.1 0 40-17.9 40-40z"/></svg>