<svg xmlns="http://www.w3.org/2000/svg" viewBox="0 0 512 512"><!--! Font Awesome Free 7.1.0 by @fontawesome - https://fontawesome.com License - https://fontawesome.com/license/free (Icons: CC BY 4.0, Fonts: SIL OFL 1.1, Code: MIT License) Copyright 2025 Fonticons, Inc.--><path d="M256 512a256 256 0 1 0 0-512 256 256 0 1 0 0 512m144-160c0 25.2-19.4 45.8-44 47.8v-95.7c24.6 2 44 22.7 44 47.8zm-124-48h40v96h-40zm-80 96v-96h40v96zm-40-95.8v95.7c-24.6-2-44-22.7-44-47.8s19.4-45.8 44-47.8zM144 208a32 32 0 1 1 64 0 32 32 0 1 1-64 0m192-32a32 32 0 1 1 0 64 32 32 0 1 1 0-64"/></svg>