<svg xmlns="http://www.w3.org/2000/svg" viewBox="0 0 512 512"><!--! Font Awesome Free 7.1.0 by @fontawesome - https://fontawesome.com License - https://fontawesome.com/license/free (Icons: CC BY 4.0, Fonts: SIL OFL 1.1, Code: MIT License) Copyright 2025 Fonticons, Inc.--><path d="M256 512a256 256 0 1 0 0-512 256 256 0 1 0 0 512m130.7-203.1c11.9-3.7 23.9 6.3 19.6 18.1C383.9 388.3 325 432.1 256 432.1s-127.9-43.9-150.3-105.2c-4.3-11.8 7.7-21.8 19.6-18.1C164.5 321 209 327.9 256 327.9s91.5-6.9 130.7-19.1zM122.6 143.2c4.5-6.8 13.3-9.2 20.6-5.5l79.6 40c5.4 2.7 8.8 8.2 8.8 14.3s-3.4 11.6-8.8 14.3l-79.6 40c-7.3 3.6-16.1 1.3-20.6-5.5s-3.1-15.9 3.1-21.1L159 192l-33.2-27.7c-6.2-5.2-7.6-14.3-3.1-21.1zm263.6 21.1L353 192l33.2 27.7c6.2 5.2 7.6 14.3 3.1 21.1s-13.3 9.2-20.6 5.5l-79.6-40c-5.4-2.7-8.8-8.2-8.8-14.3s3.4-11.6 8.8-14.3l79.6-40c7.3-3.6 16.1-1.3 20.6 5.5s3.1 15.9-3.1 21.1"/></svg>