<svg xmlns="http://www.w3.org/2000/svg" viewBox="0 0 576 512"><!--! Font Awesome Free 7.1.0 by @fontawesome - https://fontawesome.com License - https://fontawesome.com/license/free (Icons: CC BY 4.0, Fonts: SIL OFL 1.1, Code: MIT License) Copyright 2025 Fonticons, Inc.--><path d="M546.2-.1C560.9 17.7 576 40 576 64c0 36.4-27.6 64-64 64s-64-27.6-64-64c0-24 15.2-46.3 29.8-64.1 8.8-10.7 18.5-20.8 29-30 3-2.6 7.4-2.6 10.4 0 10.5 9.1 20.1 19.3 29 30M288 0c42.5 0 82.6 10.4 117.8 28.7-3.6 10.9-5.8 22.7-5.8 35.3 0 62.9 49.1 112 112 112 6.4 0 12.7-.5 18.8-1.5 8.6 25.6 13.2 53 13.2 81.5 0 141.4-114.6 256-256 256S32 397.4 32 256 146.6 0 288 0m130.7 308.9C379.5 321.1 335.1 328 288 328s-91.5-6.9-130.7-19.1c-11.9-3.7-23.9 6.3-19.6 18.1C160.1 388.3 219 432.1 288 432.1S415.9 388.3 438.3 327c4.3-11.8-7.7-21.8-19.6-18.1M208 180c15.5 0 28 12.5 28 28v8c0 11 9 20 20 20s20-9 20-20v-8c0-37.6-30.4-68-68-68s-68 30.4-68 68v8c0 11 9 20 20 20s20-9 20-20v-8c0-15.5 12.5-28 28-28m132 28c0-15.5 12.5-28 28-28s28 12.5 28 28v8c0 11 9 20 20 20s20-9 20-20v-8c0-37.6-30.4-68-68-68s-68 30.4-68 68v8c0 11 9 20 20 20s20-9 20-20z"/></svg>