<svg xmlns="http://www.w3.org/2000/svg" viewBox="0 0 512 512"><!--! Font Awesome Free 7.1.0 by @fontawesome - https://fontawesome.com License - https://fontawesome.com/license/free (Icons: CC BY 4.0, Fonts: SIL OFL 1.1, Code: MIT License) Copyright 2025 Fonticons, Inc.--><path d="M48 384c-8.8 0-16 7.2-16 16 0 44.2 35.8 80 80 80h288c44.2 0 80-35.8 80-80 0-8.8-7.2-16-16-16zM32 202c0 12.2 9.9 22 22 22h404c12.2 0 22-9.9 22-22 0-17.2-2.6-34.4-10.8-49.5C447 111.7 386.9 32 256 32S65 111.6 42.8 152.5C34.6 167.6 32 184.8 32 202M0 304c0 17.7 14.3 32 32 32h448c17.7 0 32-14.3 32-32s-14.3-32-32-32H32c-17.7 0-32 14.3-32 32M256 72a24 24 0 1 1 0 48 24 24 0 1 1 0-48m-136 56a24 24 0 1 1 48 0 24 24 0 1 1-48 0m248-24a24 24 0 1 1 0 48 24 24 0 1 1 0-48"/></svg>