<svg xmlns="http://www.w3.org/2000/svg" viewBox="0 0 576 512"><!--! Font Awesome Free 7.1.0 by @fontawesome - https://fontawesome.com License - https://fontawesome.com/license/free (Icons: CC BY 4.0, Fonts: SIL OFL 1.1, Code: MIT License) Copyright 2025 Fonticons, Inc.--><path d="M320-32c0-17.7-14.3-32-32-32s-32 14.3-32 32 14.3 32 32 32 32-14.3 32-32M192 64a32 32 0 1 0 0-64 32 32 0 1 0 0 64m-40 32c-13.3 0-24 10.7-24 24v16c0 1 .1 1.9.2 2.9C53.5 165.2 0 236.4 0 320c0 106 86 192 192 192s192-86 192-192c0-83.7-53.5-154.8-128.2-181.1.1-.9.2-1.9.2-2.9v-16c0-13.3-10.7-24-24-24zM64 320a128 128 0 1 1 256 0 128 128 0 1 1-256 0m448 0c0 66.9-51.3 121.8-116.6 127.5-14.3 22.8-32.4 43.1-53.4 59.9 13.5 3 27.6 4.6 42 4.6 106 0 192-86 192-192 0-83.7-53.5-154.8-128.2-181.1.1-.9.2-1.9.2-2.9v-16c0-13.3-10.7-24-24-24h-80c-12.3 0-22.4 9.2-23.8 21.1 30.3 19.2 56.1 45 75.2 75.4C460.8 198.3 512 253.1 512 320M384 64a32 32 0 1 0 0-64 32 32 0 1 0 0 64"/></svg>