<svg xmlns="http://www.w3.org/2000/svg" viewBox="0 0 384 512"><!--! Font Awesome Free 7.1.0 by @fontawesome - https://fontawesome.com License - https://fontawesome.com/license/free (Icons: CC BY 4.0, Fonts: SIL OFL 1.1, Code: MIT License) Copyright 2025 Fonticons, Inc.--><path d="M7.4 253.6C2.6 245.9 0 237.1 0 228v-36c0-26.5 21.5-48 48-48h16V64c0-26.5 21.5-48 48-48 17.3 0 32.4 9.1 40.9 22.8C157.2 16.7 176.7 0 200 0c23.4 0 42.9 16.8 47.1 38.9 7.3-4.4 15.8-6.9 24.9-6.9 22.1 0 40.8 15 46.3 35.4 5.5-2.2 11.4-3.4 17.7-3.4 26.5 0 48 21.5 48 48v96.9c0 9.9-2.3 19.7-6.8 28.6l-39.6 79.1c-10.8 21.7-33 35.4-57.2 35.4H96c-16.5 0-31.8-8.4-40.6-22.4zM32 480v-48c0-17.7 14.3-32 32-32h256c17.7 0 32 14.3 32 32v48c0 17.7-14.3 32-32 32H64c-17.7 0-32-14.3-32-32"/></svg>