<svg xmlns="http://www.w3.org/2000/svg" viewBox="0 0 512 512"><!--! Font Awesome Free 7.1.0 by @fontawesome - https://fontawesome.com License - https://fontawesome.com/license/free (Icons: CC BY 4.0, Fonts: SIL OFL 1.1, Code: MIT License) Copyright 2025 Fonticons, Inc.--><path d="M384 64a32 32 0 1 0 0-64 32 32 0 1 0 0 64m96 128a32 32 0 1 0 0-64 32 32 0 1 0 0 64M128 464a48 48 0 1 0-96 0 48 48 0 1 0 96 0M0 160l.1 72.6C.1 277.4 17.7 319.7 48 351c.3-77 40.1-148.4 105.4-189.3l1.9-1.2c-2.5-3.7-2.8-8.6-.4-12.7l62-107.4c6.6-11.5 2.7-26.2-8.8-32.8S182 5 175.4 16.5l-68 117.8-43.3 75V160c0-17.7-14.4-32-32-32S0 142.4 0 160m213.6-35.9c14.1-8.8 29.8-12.7 45.2-12.1l36.5-63.3c6.6-11.5 2.7-26.2-8.8-32.8s-26.2-2.7-32.8 8.8l-67.1 116.2 27-16.9zm86.5-35.7-16.4 28.4c15.1 5.5 28.6 15.6 38.3 29.7l19.7-34.2c6.6-11.5 2.7-26.2-8.8-32.8s-26.2-2.7-32.8 8.8zm46.4 63.7L334 173.8c2 8.6 2.5 17.5 1.7 26.1h38.7l13.7-23.8c6.6-11.5 2.7-26.2-8.8-32.8s-26.2-2.7-32.8 8.8M283.1 175c-9.4-15-29.1-19.5-44.1-10.2l-60.2 37.6C127.3 234.7 96 291.2 96 352v8c0 8.9.8 17.6 2.2 26.1 35.4 8.2 61.8 40 61.8 77.9 0 6.3-.7 12.5-2.1 18.4C183.1 501 214.3 512 248 512h176c13.3 0 24-10.7 24-24s-10.7-24-24-24h-92c-6.6 0-12-5.4-12-12s5.4-12 12-12h124c13.3 0 24-10.7 24-24s-10.7-24-24-24H332c-6.6 0-12-5.4-12-12s5.4-12 12-12h156c13.3 0 24-10.7 24-24s-10.7-24-24-24H332c-6.6 0-12-5.4-12-12s5.4-12 12-12h124c13.3 0 24-10.7 24-24s-10.7-24-24-24H226.8l46.2-28.9c15-9.4 19.5-29.1 10.2-44.1z"/></svg>