<svg xmlns="http://www.w3.org/2000/svg" viewBox="0 0 576 512"><!--! Font Awesome Free 7.1.0 by @fontawesome - https://fontawesome.com License - https://fontawesome.com/license/free (Icons: CC BY 4.0, Fonts: SIL OFL 1.1, Code: MIT License) Copyright 2025 Fonticons, Inc.--><path d="M41-24.9c-9.4-9.4-24.6-9.4-33.9 0S-2.3-.3 7 9.1l528 528c9.4 9.4 24.6 9.4 33.9 0s9.4-24.6 0-33.9l-288-288 14.2-14.2c4.2-4.2 9.5-6.5 14.9-6.9 6.8-.6 13.8 1.7 19 6.9l176.6 175 70.4-56V32L464 96l-23.8-15.9A96.2 96.2 0 0 0 386.9 64h-70.4c-1.1 0-2.3 0-3.4.1-16.9.9-32.8 8.5-44.2 21.1l-55.8 62.1-34-34 44.3-49.2h-39.7c-15.3 0-30.1 3.6-43.5 10.4zM0 69.8V320l156.4 130.3c23 19.2 52 29.7 81.9 29.7H254l-7-7c-9.4-9.4-9.4-24.6 0-33.9s24.6-9.4 33.9 0l41 41h9c22.2 0 43.8-5.8 62.8-16.4z"/></svg>