<svg xmlns="http://www.w3.org/2000/svg" viewBox="0 0 576 512"><!--! Font Awesome Free 7.1.0 by @fontawesome - https://fontawesome.com License - https://fontawesome.com/license/free (Icons: CC BY 4.0, Fonts: SIL OFL 1.1, Code: MIT License) Copyright 2025 Fonticons, Inc.--><path d="M288-16c-13.3 0-24 10.7-24 24v12h-1.8C225.6 20 196 49.7 196 86.2c0 33.4 24.9 61.6 58 65.7l61 7.6c5.1.6 9 5 9 10.2 0 5.7-4.6 10.2-10.2 10.2l-73.8.1c-15.5 0-28 12.5-28 28s12.5 28 28 28h24v12c0 13.3 10.7 24 24 24s24-10.7 24-24v-12h1.8c36.6 0 66.2-29.7 66.2-66.2 0-33.4-24.9-61.6-58-65.7l-61-7.6c-5.1-.6-9-5-9-10.2 0-5.7 4.6-10.2 10.2-10.2L328 76c15.5 0 28-12.5 28-28s-12.5-28-28-28h-16V8c0-13.3-10.7-24-24-24M109.3 341.5 66.7 384H32c-17.7 0-32 14.3-32 32v64c0 17.7 14.3 32 32 32h320.5c29 0 57.3-9.3 80.7-26.5l126.6-93.3c17.8-13.1 21.6-38.1 8.5-55.9s-38.1-21.6-55.9-8.5L392.6 416H280c-13.3 0-24-10.7-24-24s10.7-24 24-24h72c17.7 0 32-14.3 32-32s-14.3-32-32-32H199.8c-33.9 0-66.5 13.5-90.5 37.5"/></svg>