<svg xmlns="http://www.w3.org/2000/svg" viewBox="0 0 576 512"><!--! Font Awesome Free 7.1.0 by @fontawesome - https://fontawesome.com License - https://fontawesome.com/license/free (Icons: CC BY 4.0, Fonts: SIL OFL 1.1, Code: MIT License) Copyright 2025 Fonticons, Inc.--><path d="m466.8 186.5 42.5-42.5H544c17.7 0 32-14.3 32-32V48c0-17.7-14.3-32-32-32H223.6c-29 0-57.3 9.3-80.7 26.5L16.3 135.8c-17.8 13.1-21.6 38.1-8.5 55.9s38.1 21.6 55.9 8.5L183.4 112H296c13.3 0 24 10.7 24 24s-10.7 24-24 24h-72c-17.7 0-32 14.3-32 32s14.3 32 32 32h152.2c33.9 0 66.5-13.5 90.5-37.5zm-357.5 139L66.7 368H32c-17.7 0-32 14.3-32 32v64c0 17.7 14.3 32 32 32h320.5c29 0 57.3-9.3 80.7-26.5l126.6-93.3c17.8-13.1 21.6-38.1 8.5-55.9s-38.1-21.6-55.9-8.5L392.6 400H280c-13.3 0-24-10.7-24-24s10.7-24 24-24h72c17.7 0 32-14.3 32-32s-14.3-32-32-32H199.8c-33.9 0-66.5 13.5-90.5 37.5"/></svg>