<svg xmlns="http://www.w3.org/2000/svg" viewBox="0 0 576 512"><!--! Font Awesome Free 7.1.0 by @fontawesome - https://fontawesome.com License - https://fontawesome.com/license/free (Icons: CC BY 4.0, Fonts: SIL OFL 1.1, Code: MIT License) Copyright 2025 Fonticons, Inc.--><path d="M268.9 53.2 152.3 182.8c-4.6 5.1-4.4 13 .5 17.9 30.5 30.5 80 30.5 110.5 0l31.8-31.8c4.2-4.2 9.5-6.5 14.9-6.9 6.8-.6 13.8 1.7 19 6.9L505.6 344l70.4-56V0L464 64l-23.8-15.9A96.2 96.2 0 0 0 386.9 32h-70.4c-1.1 0-2.3 0-3.4.1-16.9.9-32.8 8.5-44.2 21.1m-152.3 97.5L223.4 32h-39.6c-25.5 0-49.9 10.1-67.9 28.1L0 192v352l144-136 12.4 10.3c23 19.2 52 29.7 81.9 29.7H254l-7-7c-9.4-9.4-9.4-24.6 0-33.9s24.6-9.4 33.9 0l41 41h9c19.1 0 37.8-4.3 54.8-12.3L359 409c-9.4-9.4-9.4-24.6 0-33.9s24.6-9.4 33.9 0l32 32 17.5-17.5c8.9-8.9 11.5-21.8 7.6-33.1L312.1 219.7l-14.9 14.9c-49.3 49.3-129.1 49.3-178.4 0-23-23-23.9-59.9-2.2-84z"/></svg>