<svg xmlns="http://www.w3.org/2000/svg" viewBox="0 0 576 512"><!--! Font Awesome Free 7.1.0 by @fontawesome - https://fontawesome.com License - https://fontawesome.com/license/free (Icons: CC BY 4.0, Fonts: SIL OFL 1.1, Code: MIT License) Copyright 2025 Fonticons, Inc.--><path d="M240 24c0-13.3 10.7-24 24-24h48c13.3 0 24 10.7 24 24v56h56c13.3 0 24 10.7 24 24v48c0 13.3-10.7 24-24 24h-56v56c0 13.3-10.7 24-24 24h-48c-13.3 0-24-10.7-24-24v-56h-56c-13.3 0-24-10.7-24-24v-48c0-13.3 10.7-24 24-24h56zM66.7 384l42.5-42.5c24-24 56.6-37.5 90.5-37.5H352c17.7 0 32 14.3 32 32s-14.3 32-32 32h-72c-13.3 0-24 10.7-24 24s10.7 24 24 24h112.6l119.7-88.2c17.8-13.1 42.8-9.3 55.9 8.5s9.3 42.8-8.5 55.9l-126.6 93.3c-23.4 17.2-51.6 26.5-80.7 26.5H32c-17.7 0-32-14.3-32-32v-64c0-17.7 14.3-32 32-32z"/></svg>