<svg xmlns="http://www.w3.org/2000/svg" viewBox="0 0 448 512"><!--! Font Awesome Free 7.1.0 by @fontawesome - https://fontawesome.com License - https://fontawesome.com/license/free (Icons: CC BY 4.0, Fonts: SIL OFL 1.1, Code: MIT License) Copyright 2025 Fonticons, Inc.--><path d="M64 32C28.7 32 0 60.7 0 96v164.1C18.1 247.4 40.2 240 64 240h320c23.8 0 45.9 7.4 64 20.1V96c0-35.3-28.7-64-64-64zm384 320c0-35.3-28.7-64-64-64H64c-35.3 0-64 28.7-64 64v64c0 35.3 28.7 64 64 64h320c35.3 0 64-28.7 64-64zm-224 32a32 32 0 1 1 64 0 32 32 0 1 1-64 0m128-32a32 32 0 1 1 0 64 32 32 0 1 1 0-64"/></svg>