<svg xmlns="http://www.w3.org/2000/svg" viewBox="0 0 512 512"><!--! Font Awesome Free 7.1.0 by @fontawesome - https://fontawesome.com License - https://fontawesome.com/license/free (Icons: CC BY 4.0, Fonts: SIL OFL 1.1, Code: MIT License) Copyright 2025 Fonticons, Inc.--><path d="M214.7.7c17.3 3.7 28.3 20.7 24.6 38L220.2 128h126.5l22-102.7C372.4 8 389.4-3 406.7.7s28.3 20.7 24.6 38L412.2 128H480c17.7 0 32 14.3 32 32s-14.3 32-32 32h-81.6L371 320h67.8c17.7 0 32 14.3 32 32s-14.3 32-32 32h-81.6l-22 102.7c-3.7 17.3-20.7 28.3-38 24.6s-28.3-20.7-24.6-38l19.1-89.3H165.2l-22 102.7c-3.7 17.3-20.7 28.3-38 24.6s-28.3-20.7-24.6-38L99.8 384H32c-17.7 0-32-14.3-32-32s14.3-32 32-32h81.6L141 192H73.2c-17.7 0-32-14.3-32-32s14.3-32 32-32h81.6l22-102.7C180.4 8 197.4-3 214.7.7M206.4 192 179 320h126.5l27.4-128z"/></svg>