<svg xmlns="http://www.w3.org/2000/svg" viewBox="0 0 640 512"><!--! Font Awesome Free 7.1.0 by @fontawesome - https://fontawesome.com License - https://fontawesome.com/license/free (Icons: CC BY 4.0, Fonts: SIL OFL 1.1, Code: MIT License) Copyright 2025 Fonticons, Inc.--><path d="m182.2 76.1-51.4 231.4c14.7 17.4 36.6 28.5 61.2 28.5h256c24.6 0 46.5-11.1 61.2-28.5L457.8 76.1c-5.7-25.8-28.6-44.1-55-44.1-12.2 0-24.1 4-33.8 11.3l-4.7 3.5c-26.3 19.7-62.4 19.7-88.6 0l-4.7-3.5C261.2 36 249.4 32 237.2 32c-26.4 0-49.3 18.3-55 44.1M64 256c0-17.7-14.3-32-32-32S0 238.3 0 256c0 106 86 192 192 192h256c106 0 192-86 192-192 0-17.7-14.3-32-32-32s-32 14.3-32 32c0 70.7-57.3 128-128 128H192c-70.7 0-128-57.3-128-128"/></svg>