<svg xmlns="http://www.w3.org/2000/svg" viewBox="0 0 512 512"><!--! Font Awesome Free 7.1.0 by @fontawesome - https://fontawesome.com License - https://fontawesome.com/license/free (Icons: CC BY 4.0, Fonts: SIL OFL 1.1, Code: MIT License) Copyright 2025 Fonticons, Inc.--><path d="m64 400 85.7-208.2c17-41.3 47.8-75.3 87.2-96.3l146.9-78.3c12.3-6.6 26.5 4.7 23 18.2l-37.2 142.4c-1.1 4.1-1.6 8.3-1.6 12.6 0 6.3 1.2 12.6 3.6 18.5L448 400H240.9l11.8-35.4 40.4-13.5c6.5-2.2 10.9-8.3 10.9-15.2s-4.4-13-10.9-15.2l-40.4-13.5-13.5-40.4c-2.2-6.4-8.3-10.8-15.2-10.8s-13 4.4-15.2 10.9l-13.5 40.4-40.4 13.5c-6.5 2.2-10.9 8.3-10.9 15.2s4.4 13 10.9 15.2l40.4 13.5 11.8 35.4H64zm215.6-258.5c-1.1-3.3-4.1-5.5-7.6-5.5s-6.5 2.2-7.6 5.5l-6.7 20.2-20.2 6.7c-3.3 1.1-5.5 4.1-5.5 7.6s2.2 6.5 5.5 7.6l20.2 6.7 6.7 20.2c1.1 3.3 4.1 5.5 7.6 5.5s6.5-2.2 7.6-5.5l6.7-20.2 20.2-6.7c3.3-1.1 5.5-4.1 5.5-7.6s-2.2-6.5-5.5-7.6l-20.2-6.7zM32 448h448c17.7 0 32 14.3 32 32s-14.3 32-32 32H32c-17.7 0-32-14.3-32-32s14.3-32 32-32"/></svg>