<svg xmlns="http://www.w3.org/2000/svg" viewBox="0 0 640 512"><!--! Font Awesome Free 7.1.0 by @fontawesome - https://fontawesome.com License - https://fontawesome.com/license/free (Icons: CC BY 4.0, Fonts: SIL OFL 1.1, Code: MIT License) Copyright 2025 Fonticons, Inc.--><path d="M640 388.3c0 16.9-7.1 32.2-18.4 43.1l-35-23.3L293.9 213c-36.1-24.1-78.6-36.9-122-36.9H168c-2.7 0-5.4 0-8 .1l22.2-100c5.7-25.8 28.6-44.1 55-44.1 12.2 0 24.1 4 33.8 11.3l4.7 3.5c26.3 19.7 62.4 19.7 88.6 0l4.7-3.5c9.8-7.3 21.6-11.3 33.8-11.3 26.4 0 49.3 18.3 55 44.1l33 148.5c83.7 7.6 149.2 77.9 149.2 163.6M171.9 224c33.9 0 67.1 10 95.4 28.9L560 448H56c-30.9 0-56-25.1-56-56 0-92.8 75.2-168 168-168z"/></svg>