<svg xmlns="http://www.w3.org/2000/svg" viewBox="0 0 448 512"><!--! Font Awesome Free 7.1.0 by @fontawesome - https://fontawesome.com License - https://fontawesome.com/license/free (Icons: CC BY 4.0, Fonts: SIL OFL 1.1, Code: MIT License) Copyright 2025 Fonticons, Inc.--><path d="M64 224c0-88.4 71.6-160 160-160s160 71.6 160 160v37.5c-10-3.5-20.8-5.5-32-5.5h-16c-26.5 0-48 21.5-48 48v128c0 26.5 21.5 48 48 48h16c53 0 96-43 96-96V224C448 100.3 347.7 0 224 0S0 100.3 0 224v160c0 53 43 96 96 96h16c26.5 0 48-21.5 48-48V304c0-26.5-21.5-48-48-48H96c-11.2 0-22 1.9-32 5.5z"/></svg>