<svg xmlns="http://www.w3.org/2000/svg" viewBox="0 0 512 512"><!--! Font Awesome Free 7.1.0 by @fontawesome - https://fontawesome.com License - https://fontawesome.com/license/free (Icons: CC BY 4.0, Fonts: SIL OFL 1.1, Code: MIT License) Copyright 2025 Fonticons, Inc.--><path d="M445.9 193c-.1-.4-.2-.9-.2-1.3C430 83.3 336.8 0 224 0 139 0 65 47.4 27.1 117.2L283.3 288H456l-13.1 48H336c-8.8 0-16 7.2-16 16s7.2 16 16 16h98.2l-8.7 32H336c-8.8 0-16 7.2-16 16s7.2 16 16 16h80.6c-6.7 19.1-24.8 32-45.3 32H288c-17.7 0-32-14.3-32-32V327.5L8.5 162.5C3 182.1 0 202.7 0 224c0 54 19.1 103.5 50.9 142.2 8 9.7 13.1 21.6 13.1 34.2V464c0 26.5 21.5 48 48 48h259.3c44.9 0 83.8-31.1 93.6-74.9l33.9-150.3c3.3-14.4-.3-29.5-9.7-41zM288 192a32 32 0 1 1 64 0 32 32 0 1 1-64 0"/></svg>