<svg xmlns="http://www.w3.org/2000/svg" viewBox="0 0 576 512"><!--! Font Awesome Free 7.1.0 by @fontawesome - https://fontawesome.com License - https://fontawesome.com/license/free (Icons: CC BY 4.0, Fonts: SIL OFL 1.1, Code: MIT License) Copyright 2025 Fonticons, Inc.--><path d="M176 32c-13.3 0-24 10.7-24 24s10.7 24 24 24h152v48H107.2L74.4 88.6C69.9 83.2 63.1 80 56 80H24c-8.3 0-16 4.3-20.4 11.4s-4.8 15.9-1.1 23.4l48 96C54.6 218.9 62.9 224 72 224h107.8l104 143.1c15.1 20.7 39.1 32.9 64.7 32.9H424c75.1 0 136-60.9 136-136s-60.9-136-136-136h-48V80h152c13.3 0 24-10.7 24-24s-10.7-24-24-24zm200 160h48c39.8 0 72 32.2 72 72s-32.2 72-72 72h-48zm176 224c-13.3 0-24 10.7-24 24 0 4.4-3.6 8-8 8H248c-13.3 0-24 10.7-24 24s10.7 24 24 24h272c30.9 0 56-25.1 56-56 0-13.3-10.7-24-24-24"/></svg>