<svg xmlns="http://www.w3.org/2000/svg" viewBox="0 0 576 512"><!--! Font Awesome Free 7.1.0 by @fontawesome - https://fontawesome.com License - https://fontawesome.com/license/free (Icons: CC BY 4.0, Fonts: SIL OFL 1.1, Code: MIT License) Copyright 2025 Fonticons, Inc.--><path d="M315 315 473.4 99.9l-29.3-29.3L229 229zm-187 5v-71.7c0-15.3 7.2-29.6 19.5-38.6L420.6 8.4C428 2.9 437 0 446.2 0c11.4 0 22.3 4.5 30.4 12.6l54.8 54.8c8.1 8.1 12.6 19 12.6 30.5 0 9.2-2.9 18.2-8.4 25.6l-201.2 273c-9 12.3-23.4 19.5-38.6 19.5h-71.7l-25.4 25.4c-12.5 12.5-32.8 12.5-45.3 0l-50.7-50.7c-12.5-12.5-12.5-32.8 0-45.3zM7 466.3l51.7-51.7 70.6 70.6-19.7 19.7c-4.5 4.5-10.6 7-17 7L24 512c-13.3 0-24-10.7-24-24v-4.7c0-6.4 2.5-12.5 7-17"/></svg>