<svg xmlns="http://www.w3.org/2000/svg" viewBox="0 0 576 512"><!--! Font Awesome Free 7.1.0 by @fontawesome - https://fontawesome.com License - https://fontawesome.com/license/free (Icons: CC BY 4.0, Fonts: SIL OFL 1.1, Code: MIT License) Copyright 2025 Fonticons, Inc.--><path d="M288 64c106 0 192 86 192 192s-86 192-192 192c-65.2 0-122.9-32.5-157.6-82.3-10.1-14.5-30.1-18-44.6-7.9s-18 30.1-7.9 44.6C124.1 468.6 201 512 288 512c141.4 0 256-114.6 256-256S429.4 0 288 0C202.3 0 126.5 42.1 80 106.7V80c0-17.7-14.3-32-32-32S16 62.3 16 80v112c0 17.7 14.3 32 32 32h112.1c17.7 0 32-14.3 32-32s-14.3-32-32-32h-38.3C154.9 102.6 217 64 288 64m24 88c0-13.3-10.7-24-24-24s-24 10.7-24 24v104c0 6.4 2.5 12.5 7 17l72 72c9.4 9.4 24.6 9.4 33.9 0s9.4-24.6 0-33.9l-65-65V152z"/></svg>