<svg xmlns="http://www.w3.org/2000/svg" viewBox="0 0 512 512"><!--! Font Awesome Free 7.1.0 by @fontawesome - https://fontawesome.com License - https://fontawesome.com/license/free (Icons: CC BY 4.0, Fonts: SIL OFL 1.1, Code: MIT License) Copyright 2025 Fonticons, Inc.--><path d="M277.8 8.6c-12.3-11.4-31.3-11.4-43.5 0l-224 208c-9.6 9-12.8 22.9-8 35.1S18.8 272 32 272h16v176c0 35.3 28.7 64 64 64h288c35.3 0 64-28.7 64-64V272h16c13.2 0 25-8.1 29.8-20.3s1.6-26.2-8-35.1zM200 256a56 56 0 1 1 112 0 56 56 0 1 1-112 0m-56 176c0-44.2 35.8-80 80-80h64c44.2 0 80 35.8 80 80 0 8.8-7.2 16-16 16H160c-8.8 0-16-7.2-16-16"/></svg>