<svg xmlns="http://www.w3.org/2000/svg" viewBox="0 0 576 512"><!--! Font Awesome Free 7.1.0 by @fontawesome - https://fontawesome.com License - https://fontawesome.com/license/free (Icons: CC BY 4.0, Fonts: SIL OFL 1.1, Code: MIT License) Copyright 2025 Fonticons, Inc.--><path d="M128 64c0-35.3 28.7-64 64-64h192c35.3 0 64 28.7 64 64v64h64c35.3 0 64 28.7 64 64v256c0 35.3-28.7 64-64 64H64c-35.3 0-64-28.7-64-64V192c0-35.3 28.7-64 64-64h64zm144 288c-17.7 0-32 14.3-32 32v80h96v-80c0-17.7-14.3-32-32-32zm-144 16v-32c0-8.8-7.2-16-16-16H80c-8.8 0-16 7.2-16 16v32c0 8.8 7.2 16 16 16h32c8.8 0 16-7.2 16-16m-16-112c8.8 0 16-7.2 16-16v-32c0-8.8-7.2-16-16-16H80c-8.8 0-16 7.2-16 16v32c0 8.8 7.2 16 16 16zm400 112v-32c0-8.8-7.2-16-16-16h-32c-8.8 0-16 7.2-16 16v32c0 8.8 7.2 16 16 16h32c8.8 0 16-7.2 16-16m-16-112c8.8 0 16-7.2 16-16v-32c0-8.8-7.2-16-16-16h-32c-8.8 0-16 7.2-16 16v32c0 8.8 7.2 16 16 16zM264 104v32h-32c-8.8 0-16 7.2-16 16v16c0 8.8 7.2 16 16 16h32v32c0 8.8 7.2 16 16 16h16c8.8 0 16-7.2 16-16v-32h32c8.8 0 16-7.2 16-16v-16c0-8.8-7.2-16-16-16h-32v-32c0-8.8-7.2-16-16-16h-16c-8.8 0-16 7.2-16 16"/></svg>