<svg xmlns="http://www.w3.org/2000/svg" viewBox="0 0 640 512"><!--! Font Awesome Free 7.1.0 by @fontawesome - https://fontawesome.com License - https://fontawesome.com/license/free (Icons: CC BY 4.0, Fonts: SIL OFL 1.1, Code: MIT License) Copyright 2025 Fonticons, Inc.--><path d="M64 64c0-35.3 28.7-64 64-64h256c35.3 0 64 28.7 64 64v121.3c-46.9 19-80 65-80 118.7 0 27.7 8.8 53.4 23.8 74.4-51.5 21-87.8 71.6-87.8 130.7v2.9H128c-35.3 0-64-28.7-64-64zm144 336v64h53.4c7.2-29.4 21.3-56.1 40.4-78.3-6.1-19.5-24.3-33.7-45.8-33.7-26.5 0-48 21.5-48 48m40-312c-8.8 0-16 7.2-16 16v32h-32c-8.8 0-16 7.2-16 16v16c0 8.8 7.2 16 16 16h32v32c0 8.8 7.2 16 16 16h16c8.8 0 16-7.2 16-16v-32h32c8.8 0 16-7.2 16-16v-16c0-8.8-7.2-16-16-16h-32v-32c0-8.8-7.2-16-16-16zm168 216a80 80 0 1 1 160 0 80 80 0 1 1-160 0m-64 208c0-53 43-96 96-96h96c53 0 96 43 96 96 0 17.7-14.3 32-32 32H384c-17.7 0-32-14.3-32-32"/></svg>