<svg xmlns="http://www.w3.org/2000/svg" viewBox="0 0 448 512"><!--! Font Awesome Free 7.1.0 by @fontawesome - https://fontawesome.com License - https://fontawesome.com/license/free (Icons: CC BY 4.0, Fonts: SIL OFL 1.1, Code: MIT License) Copyright 2025 Fonticons, Inc.--><path d="M240 40c0 13.6 5.8 26.5 15.8 35.6l26.5 23.8c24 21.6 37.7 52.3 37.7 84.6 0 13.3-10.7 24-24 24s-24-10.7-24-24c0-18.7-7.9-36.4-21.8-48.9l-26.5-23.8C203.5 93.1 192 67.2 192 40c0-13.3 10.7-24 24-24s24 10.7 24 24M0 336v-80c0-35.3 28.7-64 64-64h19.7c8.1 0 16.2 1.6 23.8 4.6l137.1 54.8c7.6 3 15.6 4.6 23.8 4.6H384c35.3 0 64 28.7 64 64v128c0 35.3-28.7 64-64 64H64c-35.3 0-64-28.7-64-64zm96-16c-13.3 0-24 10.7-24 24v80c0 13.3 10.7 24 24 24s24-10.7 24-24v-80c0-13.3-10.7-24-24-24m152 24c0-13.3-10.7-24-24-24s-24 10.7-24 24v80c0 13.3 10.7 24 24 24s24-10.7 24-24zm104-24c-13.3 0-24 10.7-24 24v80c0 13.3 10.7 24 24 24s24-10.7 24-24v-80c0-13.3-10.7-24-24-24M328 16c13.3 0 24 10.7 24 24 0 13.6 5.8 26.5 15.8 35.6l26.5 23.8c24 21.6 37.7 52.3 37.7 84.6 0 13.3-10.7 24-24 24s-24-10.7-24-24c0-18.7-7.9-36.4-21.8-48.9l-26.5-23.8C315.5 93.1 304 67.2 304 40c0-13.3 10.7-24 24-24M64 40a56 56 0 1 1 0 112 56 56 0 1 1 0-112"/></svg>