<svg xmlns="http://www.w3.org/2000/svg" viewBox="0 0 512 512"><!--! Font Awesome Free 7.1.0 by @fontawesome - https://fontawesome.com License - https://fontawesome.com/license/free (Icons: CC BY 4.0, Fonts: SIL OFL 1.1, Code: MIT License) Copyright 2025 Fonticons, Inc.--><path d="M234.2 8.6c12.3-11.4 31.3-11.4 43.5 0L368 92.3V80c0-17.7 14.3-32 32-32h32c17.7 0 32 14.3 32 32v101.5l37.8 35.1c9.6 9 12.8 22.9 8 35.1S493.2 272 480 272h-16v176c0 35.3-28.7 64-64 64H294.4L256 448l80.8-67.3c7.8-6.5 7.6-18.6-.4-24.9l-117.8-92.6c-14.6-11.5-33.8 7-22.8 22L256 368l-85.5 71.2c-6.1 5-7.5 13.8-3.5 20.5l31.3 52.2h-86.4c-35.3 0-64-28.7-64-64v-176h-16c-13.2 0-25-8.1-29.8-20.3s-1.6-26.2 8-35.1l224-208z"/></svg>