<svg xmlns="http://www.w3.org/2000/svg" viewBox="0 0 512 512"><!--! Font Awesome Free 7.1.0 by @fontawesome - https://fontawesome.com License - https://fontawesome.com/license/free (Icons: CC BY 4.0, Fonts: SIL OFL 1.1, Code: MIT License) Copyright 2025 Fonticons, Inc.--><path d="M234.2 8.6c12.3-11.4 31.3-11.4 43.5 0L368 92.3V80c0-17.7 14.3-32 32-32h32c17.7 0 32 14.3 32 32v101.5l37.8 35.1c9.6 9 12.8 22.9 8 35.1S493.2 272 480 272h-16v176c0 35.3-28.7 64-64 64H112c-35.3 0-64-28.7-64-64V272H32c-13.2 0-25-8.1-29.8-20.3s-1.6-26.2 8-35.1zM216 224c-13.3 0-24 10.7-24 24v80c0 13.3 10.7 24 24 24h80c13.3 0 24-10.7 24-24v-80c0-13.3-10.7-24-24-24z"/></svg>