<svg xmlns="http://www.w3.org/2000/svg" viewBox="0 0 640 512"><!--! Font Awesome Free 7.1.0 by @fontawesome - https://fontawesome.com License - https://fontawesome.com/license/free (Icons: CC BY 4.0, Fonts: SIL OFL 1.1, Code: MIT License) Copyright 2025 Fonticons, Inc.--><path d="M309.8 8.6c-12.3-11.4-31.3-11.4-43.5 0l-224 208c-9.6 9-12.8 22.9-8 35.1S50.8 272 64 272h16v176c0 35.3 28.7 64 64 64h196c-21.2-29.5-34.3-65.3-35.9-104H272c-8.8 0-16-7.2-16-16v-40h-40c-8.8 0-16-7.2-16-16v-32c0-8.8 7.2-16 16-16h40v-40c0-8.8 7.2-16 16-16h32c8.8 0 16 7.2 16 16v40h20c34.9-48.5 91.7-80 156-80 10.7 0 21.1.9 31.3 2.5zM496 544a144 144 0 1 0 0-288 144 144 0 1 0 0 288m22.6-144 36.7 36.7c6.2 6.2 6.2 16.4 0 22.6s-16.4 6.2-22.6 0L496 422.6l-36.7 36.7c-6.2 6.2-16.4 6.2-22.6 0s-6.2-16.4 0-22.6l36.7-36.7-36.7-36.7c-6.2-6.2-6.2-16.4 0-22.6s16.4-6.2 22.6 0l36.7 36.7 36.7-36.7c6.2-6.2 16.4-6.2 22.6 0s6.2 16.4 0 22.6z"/></svg>