<svg xmlns="http://www.w3.org/2000/svg" viewBox="0 0 512 512"><!--! Font Awesome Free 7.1.0 by @fontawesome - https://fontawesome.com License - https://fontawesome.com/license/free (Icons: CC BY 4.0, Fonts: SIL OFL 1.1, Code: MIT License) Copyright 2025 Fonticons, Inc.--><path d="M277.8 8.6c-12.3-11.4-31.3-11.4-43.5 0l-224 208c-9.6 9-12.8 22.9-8 35.1S18.8 272 32 272h16v176c0 35.3 28.7 64 64 64h86.4l-31.3-52.2c-4.1-6.8-2.6-15.5 3.5-20.5L256 368l-60.2-82.8c-10.9-15 8.2-33.5 22.8-22l117.9 92.6c8 6.3 8.2 18.4.4 24.9L256 448l38.4 64H400c35.3 0 64-28.7 64-64V272h16c13.2 0 25-8.1 29.8-20.3s1.6-26.2-8-35.1z"/></svg>