<svg xmlns="http://www.w3.org/2000/svg" viewBox="0 0 640 512"><!--! Font Awesome Free 7.1.0 by @fontawesome - https://fontawesome.com License - https://fontawesome.com/license/free (Icons: CC BY 4.0, Fonts: SIL OFL 1.1, Code: MIT License) Copyright 2025 Fonticons, Inc.--><path d="M496 208h4.5c15.2 0 27.5-12.3 27.5-27.5 0-7.9-3.4-15.5-9.4-20.7L348 10.5C340.3 3.7 330.3 0 320 0s-20.3 3.7-28 10.5L121.4 159.8c-6 5.2-9.4 12.8-9.4 20.7 0 15.2 12.3 27.5 27.5 27.5h4.5v94.4c20.3-9.4 42.1-14.2 64-14.4 33.1-.2 66.3 10.2 94.4 31.4 22.1 16.6 29.1 16.6 51.2 0 27.5-20.7 59.9-31.2 92.4-31.4 16.9-.1 33.8 2.6 50 8zm-224-8c0-13.3 10.7-24 24-24h48c13.3 0 24 10.7 24 24v48c0 13.3-10.7 24-24 24h-48c-13.3 0-24-10.7-24-24zm202.6 212.1c19 14.4 41.9 28.2 67.2 33.3 26.5 5.4 54.3.8 80.7-19.1 10.6-8 12.7-23 4.7-33.6s-23-12.7-33.6-4.7c-14.9 11.2-28.6 13.1-42.3 10.3-14.9-3-30.9-11.9-47.8-24.6-38.4-29-90.5-29-129 0-24 18.1-40.7 26.3-54.5 26.3s-30.5-8.2-54.5-26.3c-38.4-29-90.5-29-129 0-21.6 16.3-41.3 25.8-58.9 25.7-9.6-.1-19.9-3-31.2-11.5-10.6-8-25.6-5.9-33.6 4.7s-5.8 25.7 4.8 33.7c19.1 14.4 39.4 21 59.8 21.1 33.9.2 64.3-17.4 88.1-35.3 21.3-16.1 49.9-16.1 71.2 0 24.2 18.3 52.3 35.9 83.4 35.9s59.1-17.7 83.4-35.9c21.3-16.1 49.9-16.1 71.2 0zm-71.2 96c21.3-16.1 49.9-16.1 71.2 0 19 14.4 41.9 28.2 67.2 33.3 26.5 5.4 54.3.8 80.7-19.1 10.6-8 12.7-23 4.7-33.6s-23-12.7-33.6-4.7c-14.9 11.2-28.6 13.1-42.3 10.3-14.9-3-30.9-11.9-47.8-24.6-38.4-29-90.5-29-129 0-24 18.1-40.7 26.3-54.5 26.3s-30.5-8.2-54.5-26.3c-38.4-29-90.5-29-129 0-21.6 16.3-41.3 25.8-58.9 25.7-9.6-.1-19.9-3-31.2-11.5-10.6-8-25.6-5.9-33.6 4.7s-5.8 25.7 4.8 33.7c19.1 14.4 39.4 21 59.8 21.1 33.9.2 64.3-17.4 88.1-35.3 21.3-16.1 49.9-16.1 71.2 0 24.2 18.3 52.3 35.9 83.4 35.9s59.1-17.7 83.4-35.9z"/></svg>