<svg xmlns="http://www.w3.org/2000/svg" viewBox="0 0 384 512"><!--! Font Awesome Free 7.1.0 by @fontawesome - https://fontawesome.com License - https://fontawesome.com/license/free (Icons: CC BY 4.0, Fonts: SIL OFL 1.1, Code: MIT License) Copyright 2025 Fonticons, Inc.--><path d="M336 149.4C336 77 268.5 23.5 198 40.1L93.2 64.9c-17.2 4-27.8 21.3-23.8 38.5s21.3 27.9 38.5 23.8l104.8-24.7c30.3-7.1 59.3 15.8 59.3 46.9 0 17.6-9.6 33.8-25 42.3l-.7.4H24c-13.3 0-24 10.7-24 24s10.7 24 24 24h336c13.3 0 24-10.7 24-24s-10.7-24-24-24h-32.4c5.5-13.3 8.4-27.8 8.4-42.6zM360 272H24c-13.3 0-24 10.7-24 24s10.7 24 24 24h33.3c-6.1 13.4-9.3 28.1-9.3 43.3 0 64.1 56.9 113.4 120.4 104.2l137.9-19.9c17.5-2.5 29.6-18.7 27.1-36.2s-18.8-29.6-36.2-27.1l-138 19.9c-24.9 3.6-47.2-15.7-47.2-40.9 0-15.1 8.2-28.9 21.4-36.2l13-7.1H360c13.3 0 24-10.7 24-24s-10.7-24-24-24"/></svg>