<svg xmlns="http://www.w3.org/2000/svg" viewBox="0 0 576 512"><!--! Font Awesome Free 7.1.0 by @fontawesome - https://fontawesome.com License - https://fontawesome.com/license/free (Icons: CC BY 4.0, Fonts: SIL OFL 1.1, Code: MIT License) Copyright 2025 Fonticons, Inc.--><path d="M256-32h64c17.7 0 32 14.3 32 32v64H224V0c0-17.7 14.3-32 32-32M64 32h112v32c0 26.5 21.5 48 48 48h128c26.5 0 48-21.5 48-48V32h112c35.3 0 64 28.7 64 64v320c0 35.3-28.7 64-64 64H64c-35.3 0-64-28.7-64-64V96c0-35.3 28.7-64 64-64m112 368c0 8.8 7.2 16 16 16h192c8.8 0 16-7.2 16-16 0-44.2-35.8-80-80-80h-64c-44.2 0-80 35.8-80 80m112-120a56 56 0 1 0 0-112 56 56 0 1 0 0 112"/></svg>