<svg xmlns="http://www.w3.org/2000/svg" viewBox="0 0 576 512"><!--! Font Awesome Free 7.1.0 by @fontawesome - https://fontawesome.com License - https://fontawesome.com/license/free (Icons: CC BY 4.0, Fonts: SIL OFL 1.1, Code: MIT License) Copyright 2025 Fonticons, Inc.--><path d="M320 33.8V160H48.5C100.2 82.8 188.1 32 288 32c10.8 0 21.5.6 32 1.8M368 160V43.3c66 19 122.2 61 159.5 116.7zM22.6 208H96v112H0c0-39.7 8-77.6 22.6-112M176 320h-32V208h288v112h-32v48h176v64c0 26.5-21.5 48-48 48H48c-26.5 0-48-21.5-48-48v-64h176zm304 0V208h73.4C568 242.4 576 280.3 576 320zm-192-32c-35.3 0-64 28.7-64 64v80h128v-80c0-35.3-28.7-64-64-64"/></svg>