<svg xmlns="http://www.w3.org/2000/svg" viewBox="0 0 512 512"><!--! Font Awesome Free 7.1.0 by @fontawesome - https://fontawesome.com License - https://fontawesome.com/license/free (Icons: CC BY 4.0, Fonts: SIL OFL 1.1, Code: MIT License) Copyright 2025 Fonticons, Inc.--><path d="M91.8 32c-31.9 0-58.9 23.4-63.4 54.9L.6 281.2c-.4 3-.6 6-.6 9.1V416c0 35.3 28.7 64 64 64h384c35.3 0 64-28.7 64-64V290.3c0-3-.2-6.1-.6-9.1L483.6 86.9C479.1 55.4 452.1 32 420.2 32zm0 64h328.5l27.4 192h-59.9c-12.1 0-23.2 6.8-28.6 17.7l-14.3 28.6c-5.4 10.8-16.5 17.7-28.6 17.7H195.9c-12.1 0-23.2-6.8-28.6-17.7L153 305.7c-5.4-10.8-16.5-17.7-28.6-17.7H64.3z"/></svg>