<svg xmlns="http://www.w3.org/2000/svg" viewBox="0 0 640 512"><!--! Font Awesome Free 7.1.0 by @fontawesome - https://fontawesome.com License - https://fontawesome.com/license/free (Icons: CC BY 4.0, Fonts: SIL OFL 1.1, Code: MIT License) Copyright 2025 Fonticons, Inc.--><path d="M0 256C0 167.6 71.6 96 160 96c50.4 0 97.8 23.7 128 64l32 42.7 32-42.7c30.2-40.3 77.6-64 128-64 88.4 0 160 71.6 160 160s-71.6 160-160 160c-50.4 0-97.8-23.7-128-64l-32-42.7-32 42.7c-30.2 40.3-77.6 64-128 64C71.6 416 0 344.4 0 256m280 0-43.2-57.6C218.7 174.2 190.2 160 160 160c-53 0-96 43-96 96s43 96 96 96c30.2 0 58.7-14.2 76.8-38.4zm80 0 43.2 57.6c18.1 24.2 46.6 38.4 76.8 38.4 53 0 96-43 96-96s-43-96-96-96c-30.2 0-58.7 14.2-76.8 38.4z"/></svg>