<svg xmlns="http://www.w3.org/2000/svg" viewBox="0 0 320 512"><!--! Font Awesome Free 7.1.0 by @fontawesome - https://fontawesome.com License - https://fontawesome.com/license/free (Icons: CC BY 4.0, Fonts: SIL OFL 1.1, Code: MIT License) Copyright 2025 Fonticons, Inc.--><path d="M32-8c0-13.3 10.7-24 24-24h208c13.3 0 24 10.7 24 24s-10.7 24-24 24H56C42.7 16 32 5.3 32-8M0 128c0-35.3 28.7-64 64-64h192c35.3 0 64 28.7 64 64v320c0 35.3-28.7 64-64 64H64c-35.3 0-64-28.7-64-64zm96 64c-17.7 0-32 14.3-32 32v128c0 17.7 14.3 32 32 32h128c17.7 0 32-14.3 32-32V224c0-17.7-14.3-32-32-32z"/></svg>