<svg xmlns="http://www.w3.org/2000/svg" viewBox="0 0 512 512"><!--! Font Awesome Free 7.1.0 by @fontawesome - https://fontawesome.com License - https://fontawesome.com/license/free (Icons: CC BY 4.0, Fonts: SIL OFL 1.1, Code: MIT License) Copyright 2025 Fonticons, Inc.--><path d="M206.8 47.8C202.3 58.5 200 70 200 81.6V182L48 296v-48c0-13.3-10.7-24-24-24S0 234.7 0 248v144c0 13.3 10.7 24 24 24s24-10.7 24-24v-8h152v54.4l-66 52.8c-3.8 3-6 7.6-6 12.5V528c0 8.8 7.2 16 16 16h88v-40c0-13.3 10.7-24 24-24s24 10.7 24 24v40h88c8.8 0 16-7.2 16-16v-24.3c0-4.9-2.2-9.5-6-12.5l-66-52.8V384h152v8c0 13.3 10.7 24 24 24s24-10.7 24-24V248c0-13.3-10.7-24-24-24s-24 10.7-24 24v48L312 182V81.6c0-11.6-2.3-23.1-6.8-33.8l-27.1-65c-3.7-9-12.4-14.8-22.1-14.8s-18.4 5.8-22.2 14.8l-27.1 65z"/></svg>