<svg xmlns="http://www.w3.org/2000/svg" viewBox="0 0 512 512"><!--! Font Awesome Free 7.1.0 by @fontawesome - https://fontawesome.com License - https://fontawesome.com/license/free (Icons: CC BY 4.0, Fonts: SIL OFL 1.1, Code: MIT License) Copyright 2025 Fonticons, Inc.--><path d="M256 51.3 92.8 112.4l154.7 58.7c5.5 2.1 11.5 2.1 17 0l154.7-58.7zm-256 78c0-20 12.4-37.9 31.1-44.9l208-78c10.9-4.1 22.8-4.1 33.7 0l208 78c18.7 7 31.1 24.9 31.1 44.9v36l-253.2 96c-1.8.7-3.8.7-5.7 0l-253.2-96v-36zm0 140v-52.7l236.1 89.6c12.8 4.9 26.9 4.9 39.7 0l236.1-89.6v52.7l-128 48.6v51.3l128-48.6v62.2c0 20-12.4 37.9-31.1 44.9l-208 78c-10.9 4.1-22.8 4.1-33.7 0l-208-78c-18.7-7-31.1-25-31.1-45v-62.2l128 48.6v-51.3L0 269.2zm236.1 140.8c12.8 4.9 26.9 4.9 39.7 0l60.1-22.8V336l-77.2 29.3c-1.8.7-3.8.7-5.7 0L175.8 336v51.3l60.1 22.8z"/></svg>