<svg xmlns="http://www.w3.org/2000/svg" viewBox="0 0 384 512"><!--! Font Awesome Free 7.1.0 by @fontawesome - https://fontawesome.com License - https://fontawesome.com/license/free (Icons: CC BY 4.0, Fonts: SIL OFL 1.1, Code: MIT License) Copyright 2025 Fonticons, Inc.--><path d="M340.8 88.3c13.4-11.5 15-31.7 3.5-45.1s-31.7-15-45.1-3.5L128 186.4V64c0-17.7-14.3-32-32-32S64 46.3 64 64v168H32c-13.3 0-24 10.7-24 24s10.7 24 24 24h32v168c0 17.7 14.3 32 32 32s32-14.3 32-32V325.6l171.2 146.7c13.4 11.5 33.6 9.9 45.1-3.5s9.9-33.6-3.5-45.1L173.2 280H352c13.3 0 24-10.7 24-24s-10.7-24-24-24H173.2z"/></svg>