<svg xmlns="http://www.w3.org/2000/svg" viewBox="0 0 512 512"><!--! Font Awesome Free 7.1.0 by @fontawesome - https://fontawesome.com License - https://fontawesome.com/license/free (Icons: CC BY 4.0, Fonts: SIL OFL 1.1, Code: MIT License) Copyright 2025 Fonticons, Inc.--><path d="M62.4 53.9c-5.6-16.8-23.7-25.8-40.5-20.3S-3.9 57.4 1.7 74.1L56.9 240H32c-13.3 0-24 10.7-24 24s10.7 24 24 24h40.9l56.7 170.1c4.5 13.5 17.4 22.4 31.6 21.9s26.4-10.4 29.8-24.2L233 288h46l42 167.8c3.4 13.8 15.6 23.7 29.8 24.2s27.1-8.4 31.6-21.9L439.1 288H480c13.3 0 24-10.7 24-24s-10.7-24-24-24h-24.9l55.3-165.9c5.6-16.8-3.5-34.9-20.2-40.5s-34.9 3.5-40.5 20.2l-62 186.1h-54.6L287.2 56.1C283.5 42 270.7 32 256 32s-27.5 10-31 24.2L179 240h-54.6zm78 234.1H167l-11.4 45.6zM245 240l11-44.1 11 44.1zm100 48h26.6l-15.2 45.6z"/></svg>