<svg xmlns="http://www.w3.org/2000/svg" viewBox="0 0 576 512"><!--! Font Awesome Free 7.1.0 by @fontawesome - https://fontawesome.com License - https://fontawesome.com/license/free (Icons: CC BY 4.0, Fonts: SIL OFL 1.1, Code: MIT License) Copyright 2025 Fonticons, Inc.--><path d="M312 0v128c0 13.3-10.7 24-24 24s-24-10.7-24-24V0c0-13.3 10.7-24 24-24s24 10.7 24 24M160 288c0-17.7 14.3-32 32-32h192c17.7 0 32 14.3 32 32v32h80c26.5 0 48 21.5 48 48v96c0 26.5-21.5 48-48 48H80c-26.5 0-48-21.5-48-48v-96c0-26.5 21.5-48 48-48h80zM12 114.7c7.4-11 22.3-14 33.3-6.7l96 64c11 7.4 14 22.3 6.7 33.3s-22.3 14-33.3 6.7l-96-64c-11-7.4-14-22.3-6.7-33.3m518.7-6.7c11-7.4 25.9-4.4 33.3 6.7s4.4 25.9-6.7 33.3l-96 64c-11 7.4-25.9 4.4-33.3-6.7s-4.4-25.9 6.7-33.3z"/></svg>