<svg xmlns="http://www.w3.org/2000/svg" viewBox="0 0 576 512"><!--! Font Awesome Free 7.1.0 by @fontawesome - https://fontawesome.com License - https://fontawesome.com/license/free (Icons: CC BY 4.0, Fonts: SIL OFL 1.1, Code: MIT License) Copyright 2025 Fonticons, Inc.--><path d="M64 64c0-35.3 28.7-64 64-64h288c35.3 0 64 28.7 64 64v48h-64V64H128v192h112v96H76.8C34.4 352 0 317.6 0 275.2 0 264.6 8.6 256 19.2 256H64zm465.9 193.9c9 9 14.1 21.2 14.1 33.9V464c0 26.5-21.5 48-48 48H336c-26.5 0-48-21.5-48-48V208c0-26.5 21.5-48 48-48h76.1c12.7 0 24.9 5.1 33.9 14.1l83.9 83.9zM416 272c0 8.8 7.2 16 16 16h60.1L416 211.9z"/></svg>