<svg xmlns="http://www.w3.org/2000/svg" viewBox="0 0 448 512"><!--! Font Awesome Free 7.1.0 by @fontawesome - https://fontawesome.com License - https://fontawesome.com/license/free (Icons: CC BY 4.0, Fonts: SIL OFL 1.1, Code: MIT License) Copyright 2025 Fonticons, Inc.--><path d="M448 96c0-35.3-28.7-64-64-64-6.6 0-13 1-19 2.9-22.5 7-48.1 14.9-71 9-75.2-19.1-156.4 11-213.7 68.3S-7.2 250.8 11.9 326c5.8 22.9-2 48.4-9 71C1 403 0 409.4 0 416c0 35.3 28.7 64 64 64 6.6 0 13-1 19.1-2.9 22.5-7 48.1-14.9 71-9 75.2 19.1 156.4-11 213.7-68.3s87.4-138.6 68.3-213.8c-5.8-22.9 2-48.4 9-71 1.9-6 2.9-12.4 2.9-19.1zm-225.3 47c-52 15.2-96.5 59.7-111.7 111.7-3.7 12.7-17.1 20-29.8 16.3s-20-17-16.2-29.7C84.8 173.6 141.6 116.8 209.3 97c12.7-3.7 26.1 3.6 29.8 16.3s-3.6 26.1-16.3 29.8z"/></svg>