<svg xmlns="http://www.w3.org/2000/svg" viewBox="0 0 448 512"><!--! Font Awesome Free 7.1.0 by @fontawesome - https://fontawesome.com License - https://fontawesome.com/license/free (Icons: CC BY 4.0, Fonts: SIL OFL 1.1, Code: MIT License) Copyright 2025 Fonticons, Inc.--><path d="M426.1 94.4c16.8-5.6 25.8-23.7 20.2-40.5s-23.7-25.8-40.5-20.2l-384 128C8.8 166 0 178.2 0 192s8.8 26 21.9 30.4l384 128c16.8 5.6 34.9-3.5 40.5-20.2s-3.5-34.9-20.2-40.5l-293-97.7zM32 416c-17.7 0-32 14.3-32 32s14.3 32 32 32h384c17.7 0 32-14.3 32-32s-14.3-32-32-32z"/></svg>