<svg xmlns="http://www.w3.org/2000/svg" viewBox="0 0 384 512"><!--! Font Awesome Free 7.1.0 by @fontawesome - https://fontawesome.com License - https://fontawesome.com/license/free (Icons: CC BY 4.0, Fonts: SIL OFL 1.1, Code: MIT License) Copyright 2025 Fonticons, Inc.--><path d="M292.9 384c7.3-22.3 21.9-42.5 38.4-59.9C364 289.7 384 243.2 384 192 384 86 298 0 192 0S0 86 0 192c0 51.2 20 97.7 52.7 132.1 16.5 17.4 31.2 37.6 38.4 59.9h201.7zm-4.9 48H96v16c0 44.2 35.8 80 80 80h32c44.2 0 80-35.8 80-80zM184 112c-39.8 0-72 32.2-72 72 0 13.3-10.7 24-24 24s-24-10.7-24-24c0-66.3 53.7-120 120-120 13.3 0 24 10.7 24 24s-10.7 24-24 24"/></svg>