<svg xmlns="http://www.w3.org/2000/svg" viewBox="0 0 576 512"><!--! Font Awesome Free 7.1.0 by @fontawesome - https://fontawesome.com License - https://fontawesome.com/license/free (Icons: CC BY 4.0, Fonts: SIL OFL 1.1, Code: MIT License) Copyright 2025 Fonticons, Inc.--><path d="M419.5 96c-16.6 0-32.7 4.5-46.8 12.7-15.8-16-34.2-29.4-54.5-39.5 28.2-24 64.1-37.2 101.3-37.2C505.9 32 576 102 576 188.5c0 41.5-16.5 81.3-45.8 110.6l-71.1 71.1C429.8 399.5 390 416 348.5 416 262.1 416 192 346 192 259.5c0-1.5 0-3 .1-4.5.5-17.7 15.2-31.6 32.9-31.1s31.6 15.2 31.1 32.9v2.6c0 51.1 41.4 92.5 92.5 92.5 24.5 0 48-9.7 65.4-27.1l71.1-71.1c17.3-17.3 27.1-40.9 27.1-65.4 0-51.1-41.4-92.5-92.5-92.5zm-144.3 77.3c-1.9-.8-3.8-1.9-5.5-3.1-12.6-6.5-27-10.2-42.1-10.2-24.5 0-48 9.7-65.4 27.1l-71.1 71.1C73.8 275.5 64 299.1 64 323.6c0 51.1 41.4 92.5 92.5 92.5 16.5 0 32.6-4.4 46.7-12.6 15.8 16 34.2 29.4 54.6 39.5-28.2 23.9-64 37.2-101.3 37.2C70.1 480.2 0 410.2 0 323.7c0-41.5 16.5-81.3 45.8-110.6l71.1-71.1c29.3-29.3 69.1-45.8 110.6-45.8 86.6 0 156.5 70.6 156.5 156.9v3.9c-.4 17.7-15.1 31.6-32.8 31.2s-31.6-15.1-31.2-32.8v-2.3c0-33.7-18-63.3-44.8-79.6z"/></svg>