<svg xmlns="http://www.w3.org/2000/svg" viewBox="0 0 512 512"><!--! Font Awesome Free 7.1.0 by @fontawesome - https://fontawesome.com License - https://fontawesome.com/license/free (Icons: CC BY 4.0, Fonts: SIL OFL 1.1, Code: MIT License) Copyright 2025 Fonticons, Inc.--><path d="M0 72c0-13.2 10.7-24 24-24h48c13.3 0 24 10.7 24 24v104h24c13.3 0 24 10.7 24 24s-10.7 24-24 24H24c-13.3 0-24-10.7-24-24s10.7-24 24-24h24V96H24C10.7 96 0 85.3 0 72m30.4 229.2C41.8 292.6 55.7 288 70 288h4.9c33.7 0 61.1 27.4 61.1 61.1 0 19.6-9.4 37.9-25.2 49.4l-24 17.5H120c13.3 0 24 10.7 24 24s-10.7 24-24 24H29.3C13.1 464 0 450.9 0 434.7c0-9.4 4.5-18.2 12.1-23.7l70.5-51.3c3.4-2.5 5.4-6.4 5.4-10.6 0-7.2-5.9-13.1-13.1-13.1H70c-3.9 0-7.7 1.3-10.8 3.6l-20.8 15.6c-10.6 8-25.6 5.8-33.6-4.8s-5.8-25.6 4.8-33.6zM224 64h256c17.7 0 32 14.3 32 32s-14.3 32-32 32H224c-17.7 0-32-14.3-32-32s14.3-32 32-32m0 160h256c17.7 0 32 14.3 32 32s-14.3 32-32 32H224c-17.7 0-32-14.3-32-32s14.3-32 32-32m0 160h256c17.7 0 32 14.3 32 32s-14.3 32-32 32H224c-17.7 0-32-14.3-32-32s14.3-32 32-32"/></svg>