<svg xmlns="http://www.w3.org/2000/svg" viewBox="0 0 512 512"><!--! Font Awesome Free 7.1.0 by @fontawesome - https://fontawesome.com License - https://fontawesome.com/license/free (Icons: CC BY 4.0, Fonts: SIL OFL 1.1, Code: MIT License) Copyright 2025 Fonticons, Inc.--><path d="M64 64C28.7 64 0 92.7 0 128v256c0 35.3 28.7 64 64 64h384c35.3 0 64-28.7 64-64V128c0-35.3-28.7-64-64-64zm96 256a32 32 0 1 1-64 0 32 32 0 1 1 64 0m-32-96a32 32 0 1 1 0-64 32 32 0 1 1 0 64m120-56h144c13.3 0 24 10.7 24 24s-10.7 24-24 24H248c-13.3 0-24-10.7-24-24s10.7-24 24-24m0 128h144c13.3 0 24 10.7 24 24s-10.7 24-24 24H248c-13.3 0-24-10.7-24-24s10.7-24 24-24"/></svg>