<svg xmlns="http://www.w3.org/2000/svg" viewBox="0 0 384 512"><!--! Font Awesome Free 7.1.0 by @fontawesome - https://fontawesome.com License - https://fontawesome.com/license/free (Icons: CC BY 4.0, Fonts: SIL OFL 1.1, Code: MIT License) Copyright 2025 Fonticons, Inc.--><path d="M128 64c0-17.7-14.3-32-32-32S64 46.3 64 64v157.9l-38.6 11c-12.7 3.6-20.1 16.9-16.5 29.7s16.9 20.1 29.7 16.5l25.4-7.3V448c0 17.7 14.3 32 32 32h256c17.7 0 32-14.3 32-32s-14.3-32-32-32H128V253.5L262.6 215c12.7-3.6 20.1-16.9 16.5-29.7s-16.9-20.1-29.7-16.5L128 203.6z"/></svg>