<svg xmlns="http://www.w3.org/2000/svg" viewBox="0 0 512 512"><!--! Font Awesome Free 7.1.0 by @fontawesome - https://fontawesome.com License - https://fontawesome.com/license/free (Icons: CC BY 4.0, Fonts: SIL OFL 1.1, Code: MIT License) Copyright 2025 Fonticons, Inc.--><path d="M0 188.6C0 84.4 86 0 192 0c102.1 0 185.6 78.3 191.6 177-62.9 8.1-111.6 61.8-111.6 127v24.4c-19.6 17.6-32 43.1-32 71.5v75.7c-9.9 11.6-18.9 21.7-26.4 29.8-11.8 12.8-31.5 12.8-43.3 0C120.1 450.9-.1 307.9-.1 188.6zM192 256a64 64 0 1 0 0-128 64 64 0 1 0 0 128m240 48.1c0-17.7-14.3-32-32-32s-32 14.3-32 32V352h64zM288 400c0-20.9 13.4-38.7 32-45.3v-50.6c0-44.2 35.8-80 80-80s80 35.8 80 80v50.6c18.6 6.6 32 24.4 32 45.3v96c0 26.5-21.5 48-48 48H336c-26.5 0-48-21.5-48-48z"/></svg>