<svg xmlns="http://www.w3.org/2000/svg" viewBox="0 0 576 512"><!--! Font Awesome Free 7.1.0 by @fontawesome - https://fontawesome.com License - https://fontawesome.com/license/free (Icons: CC BY 4.0, Fonts: SIL OFL 1.1, Code: MIT License) Copyright 2025 Fonticons, Inc.--><path d="M0 32C0 14.3 14.3 0 32 0h16c44.2 0 80 35.8 80 80v288c0 8.8 7.2 16 16 16h400c17.7 0 32 14.3 32 32s-14.3 32-32 32h-34.7c1.8 5 2.7 10.4 2.7 16 0 26.5-21.5 48-48 48s-48-21.5-48-48c0-5.6 1-11 2.7-16H221.2c1.8 5 2.7 10.4 2.7 16 0 26.5-21.5 48-48 48s-48-21.5-48-48c0-6 1.1-11.7 3.1-17-38.1-6.2-67.1-39.2-67.1-79L64 80c0-8.8-7.2-16-16-16H32C14.3 64 0 49.7 0 32m176 112c0-26.5 21.5-48 48-48h32V72c0-30.9 25.1-56 56-56h64c30.9 0 56 25.1 56 56v24h32c26.5 0 48 21.5 48 48v144c0 26.5-21.5 48-48 48H224c-26.5 0-48-21.5-48-48zm208-48V72c0-4.4-3.6-8-8-8h-64c-4.4 0-8 3.6-8 8v24z"/></svg>