<svg xmlns="http://www.w3.org/2000/svg" viewBox="0 0 448 512"><!--! Font Awesome Free 7.1.0 by @fontawesome - https://fontawesome.com License - https://fontawesome.com/license/free (Icons: CC BY 4.0, Fonts: SIL OFL 1.1, Code: MIT License) Copyright 2025 Fonticons, Inc.--><path d="M0 176v112c0 123.7 100.3 224 224 224s224-100.3 224-224V176H320v112c0 53-43 96-96 96s-96-43-96-96V176zm0-48h128V64c0-17.7-14.3-32-32-32H32C14.3 32 0 46.3 0 64zm320 0h128V64c0-17.7-14.3-32-32-32h-64c-17.7 0-32 14.3-32 32z"/></svg>