<svg xmlns="http://www.w3.org/2000/svg" viewBox="0 0 576 512"><!--! Font Awesome Free 7.1.0 by @fontawesome - https://fontawesome.com License - https://fontawesome.com/license/free (Icons: CC BY 4.0, Fonts: SIL OFL 1.1, Code: MIT License) Copyright 2025 Fonticons, Inc.--><path d="M112 0C85.5 0 64 21.5 64 48v160h80v-32c0-53 43-96 96-96h208V48c0-26.5-21.5-48-48-48zm128 128c-26.5 0-48 21.5-48 48v32h80c53 0 96 43 96 96v112h160c26.5 0 48-21.5 48-48V176c0-26.5-21.5-48-48-48zm200 64h48c13.3 0 24 10.7 24 24v48c0 13.3-10.7 24-24 24h-48c-13.3 0-24-10.7-24-24v-48c0-13.3 10.7-24 24-24M48 256c-26.5 0-48 21.5-48 48v10.4l156.6 86.2c1.1.6 2.2.9 3.4.9s2.4-.3 3.4-.9L320 314.4V304c0-26.5-21.5-48-48-48zm272 113.2-133.4 73.4c-8.1 4.5-17.3 6.8-26.6 6.8s-18.4-2.4-26.6-6.8L0 369.2V464c0 26.5 21.5 48 48 48h224c26.5 0 48-21.5 48-48z"/></svg>