<svg xmlns="http://www.w3.org/2000/svg" viewBox="0 0 384 512"><!--! Font Awesome Free 7.1.0 by @fontawesome - https://fontawesome.com License - https://fontawesome.com/license/free (Icons: CC BY 4.0, Fonts: SIL OFL 1.1, Code: MIT License) Copyright 2025 Fonticons, Inc.--><path d="M192 32c-13.3 0-24 10.7-24 24v41.5C73.3 109.3 0 190.1 0 288v160c0 17.7 14.3 32 32 32s32-14.3 32-32V288c0-62.5 44.8-114.5 104-125.8V456c0 13.3 10.7 24 24 24s24-10.7 24-24V162.2c59.2 11.2 104 63.3 104 125.8v160c0 17.7 14.3 32 32 32s32-14.3 32-32V288c0-97.9-73.3-178.7-168-190.5V56c0-13.3-10.7-24-24-24"/></svg>