<svg xmlns="http://www.w3.org/2000/svg" viewBox="0 0 512 512"><!--! Font Awesome Free 7.1.0 by @fontawesome - https://fontawesome.com License - https://fontawesome.com/license/free (Icons: CC BY 4.0, Fonts: SIL OFL 1.1, Code: MIT License) Copyright 2025 Fonticons, Inc.--><path d="M408.8 0c-27.4 0-53.6 10.9-73 30.2L318.1 48 305 34.9c-28.1-28.1-73.7-28.1-101.8 0L103 135c-9.4 9.4-9.4 24.6 0 33.9s24.6 9.4 33.9 0l100.2-100c9.4-9.4 24.6-9.4 33.9 0l13.1 13L184 182.1 329.9 328l151.9-151.8c19.4-19.4 30.2-45.6 30.2-73C512 46.2 465.8 0 408.8 0M102.4 263.7c-49.9 49.9-83.3 114-95.5 183.5L.4 483.8C-1 491.6 1.5 499.4 7 505s13.4 8 21.1 6.7l36.7-6.5c69.5-12.3 133.6-45.6 183.5-95.5l47.7-47.8L150.1 216z"/></svg>