<svg xmlns="http://www.w3.org/2000/svg" viewBox="0 0 640 512"><!--! Font Awesome Free 7.1.0 by @fontawesome - https://fontawesome.com License - https://fontawesome.com/license/free (Icons: CC BY 4.0, Fonts: SIL OFL 1.1, Code: MIT License) Copyright 2025 Fonticons, Inc.--><path d="M464-32c0 17.7 14.3 32 32 32h34.7l-63 63c-28.4-19.5-62.7-31-99.8-31-97.2 0-176 78.8-176 176 0 86.3 62.1 158.1 144 173.1V416h-32c-17.7 0-32 14.3-32 32s14.3 32 32 32h32v32c0 17.7 14.3 32 32 32s32-14.3 32-32v-32h32c17.7 0 32-14.3 32-32s-14.3-32-32-32h-32v-34.9c81.9-15 144-86.8 144-173.1 0-37-11.4-71.4-31-99.8l63-63v34.7c0 17.7 14.3 32 32 32s32-14.3 32-32v-112c0-17.7-14.3-32-32-32L496-64c-17.7 0-32 14.3-32 32M368 96a112 112 0 1 1 0 224 112 112 0 1 1 0-224M190.9-21.9C188.4-28 182.6-32 176-32s-12.4 4-14.9 10.1l-29.4 74L55.5 29c-6.3-1.9-13.1.2-17.2 5.3S33.8 46.5 37 52.2l39.5 69.1-65.6 45.1c-5.4 3.7-8 10.3-6.5 16.7s6.7 11.2 13.1 12.2l78.7 12.2-5.6 79.4c-.5 6.5 3.1 12.7 9 15.5s12.9 1.8 17.8-2.6l34.7-31.8c-5.3-19.1-8.1-39.2-8.1-60 0-65.4 28-124.2 72.6-165.1z"/></svg>