<svg xmlns="http://www.w3.org/2000/svg" viewBox="0 0 512 512"><!--! Font Awesome Free 7.1.0 by @fontawesome - https://fontawesome.com License - https://fontawesome.com/license/free (Icons: CC BY 4.0, Fonts: SIL OFL 1.1, Code: MIT License) Copyright 2025 Fonticons, Inc.--><path d="M368 0c-17.7 0-32-14.3-32-32s14.3-32 32-32h112c17.7 0 32 14.3 32 32V80c0 17.7-14.3 32-32 32s-32-14.3-32-32V45.3l-63 63c19.5 28.4 31 62.7 31 99.8 0 86.3-62.1 158.1-144 173.1v34.9h32c17.7 0 32 14.3 32 32s-14.3 32-32 32h-32v32c0 17.7-14.3 32-32 32s-32-14.3-32-32v-32h-32c-17.7 0-32-14.3-32-32s14.3-32 32-32h32v-34.9c-81.9-15-144-86.8-144-173.1 0-97.2 78.8-176 176-176 37 0 71.4 11.4 99.8 31l63-63h-34.7zm-16 208a112 112 0 1 0-224 0 112 112 0 1 0 224 0"/></svg>