<svg xmlns="http://www.w3.org/2000/svg" viewBox="0 0 640 512"><!--! Font Awesome Free 7.1.0 by @fontawesome - https://fontawesome.com License - https://fontawesome.com/license/free (Icons: CC BY 4.0, Fonts: SIL OFL 1.1, Code: MIT License) Copyright 2025 Fonticons, Inc.--><path d="M288 32c0-17.7 14.3-32 32-32h128c17.7 0 32 14.3 32 32v128c0 17.7-14.3 32-32 32s-32-14.3-32-32v-50.7l-95 95c19.5 28.4 31 62.7 31 99.8 0 97.2-78.8 176-176 176S0 401.2 0 304s78.8-176 176-176c37 0 71.4 11.4 99.8 31l95-95h-50.7c-17.7 0-32-14.3-32-32zM176 416a112 112 0 1 0 0-224 112 112 0 1 0 0 224m160 64c-6.8 0-13.4-.4-20-1.1 23.6-18.9 43.3-42.5 57.6-69.4C416.9 394 448 352.6 448 304c0-25.2-8.3-48.5-22.4-67.2 7.1 2.1 14.6 3.2 22.4 3.2 17 0 32.7-5.3 45.7-14.3 11.7 23.6 18.3 50.2 18.3 78.3 0 97.2-78.8 176-176 176m192-322.7V32c0-11.4-2.4-22.2-6.7-32H608c17.7 0 32 14.3 32 32v128c0 17.7-14.3 32-32 32s-32-14.3-32-32v-50.7z"/></svg>