<svg xmlns="http://www.w3.org/2000/svg" viewBox="0 0 384 512"><!--! Font Awesome Free 7.1.0 by @fontawesome - https://fontawesome.com License - https://fontawesome.com/license/free (Icons: CC BY 4.0, Fonts: SIL OFL 1.1, Code: MIT License) Copyright 2025 Fonticons, Inc.--><path d="M192 256a112 112 0 1 0 0 224 112 112 0 1 0 0-224M16 368c0-86.3 62.1-158.1 144.1-173.1-.1-.9-.1-1.9-.1-2.9v-16h-32c-17.7 0-32-14.3-32-32s14.3-32 32-32h32V50.6L132 73c-13.8 11-33.9 8.8-45-5s-8.8-33.9 5-45l80-64c11.7-9.3 28.3-9.3 40 0l80 64c13.8 11 16 31.2 5 45s-31.2 16-45 5l-28-22.4V112h32c17.7 0 32 14.3 32 32s-14.3 32-32 32h-32v16c0 1 0 1.9-.1 2.9 82 15 144.1 86.8 144.1 173.1 0 97.2-78.8 176-176 176S16 465.2 16 368"/></svg>