<svg xmlns="http://www.w3.org/2000/svg" viewBox="0 0 640 512"><!--! Font Awesome Free 7.1.0 by @fontawesome - https://fontawesome.com License - https://fontawesome.com/license/free (Icons: CC BY 4.0, Fonts: SIL OFL 1.1, Code: MIT License) Copyright 2025 Fonticons, Inc.--><path d="M320 64c-27.2 0-53.8 8-76.4 23.1l-37.1 24.8a96.2 96.2 0 0 1-53.3 16.1H64c-35.3 0-64 28.7-64 64v78.7c0 62.6 45.2 116 107 126.3l97.9 16.3c33 22 72.6 34.7 115.1 34.7s82.2-12.8 115.1-34.7l97.9-16.4c61.7-10.3 107-63.7 107-126.3v-78.7c0-35.3-28.7-64-64-64h-89.2c-19 0-37.5-5.6-53.3-16.1l-37.1-24.7C373.8 72 347.2 64 320 64M135.9 336.9l-18.4-3.1C86.6 328.7 64 302 64 270.7V192h48v48c0 35 8.6 67.9 23.9 96.9m386.6-3.1-18.4 3.1c15.3-29 23.9-61.9 23.9-96.9v-48h48v78.7c0 31.3-22.6 58-53.5 63.1M192 232c0-13.3 10.7-24 24-24h208c13.3 0 24 10.7 24 24s-10.7 24-24 24H216c-13.3 0-24-10.7-24-24m56 56h144c13.3 0 24 10.7 24 24s-10.7 24-24 24H248c-13.3 0-24-10.7-24-24s10.7-24 24-24"/></svg>