<svg xmlns="http://www.w3.org/2000/svg" viewBox="0 0 448 512"><!--! Font Awesome Free 7.1.0 by @fontawesome - https://fontawesome.com License - https://fontawesome.com/license/free (Icons: CC BY 4.0, Fonts: SIL OFL 1.1, Code: MIT License) Copyright 2025 Fonticons, Inc.--><path d="M224.3 128 139.7-12.9c-6.5-10.8-20.1-14.7-31.3-9.1L21.8 21.3C9.9 27.2 5.1 41.6 11 53.5l69.6 139.1C50.5 226.5 32.3 271.1 32.3 320c0 106 86 192 192 192s192-86 192-192c0-48.9-18.3-93.5-48.3-127.4l69.6-139.1c5.9-11.9 1.1-26.3-10.7-32.2l-86.7-43.4c-11.2-5.6-24.9-1.6-31.3 9.1zm30.8 142.5c1.4 2.8 4 4.7 7 5.1l50.1 7.3c7.7 1.1 10.7 10.5 5.2 16l-36.3 35.4c-2.2 2.2-3.2 5.2-2.7 8.3l8.6 49.9c1.3 7.6-6.7 13.5-13.6 9.9l-44.8-23.6c-2.7-1.4-6-1.4-8.7 0l-44.8 23.6c-6.9 3.6-14.9-2.2-13.6-9.9l8.6-49.9c.5-3-.5-6.1-2.7-8.3l-36.3-35.4c-5.6-5.4-2.5-14.8 5.2-16l50.1-7.3c3-.4 5.7-2.4 7-5.1l22.4-45.4c3.4-7 13.3-7 16.8 0l22.4 45.4z"/></svg>