<svg xmlns="http://www.w3.org/2000/svg" viewBox="0 0 512 512"><!--! Font Awesome Free 7.1.0 by @fontawesome - https://fontawesome.com License - https://fontawesome.com/license/free (Icons: CC BY 4.0, Fonts: SIL OFL 1.1, Code: MIT License) Copyright 2025 Fonticons, Inc.--><path d="M256 512a256 256 0 1 0 0-512 256 256 0 1 0 0 512m-80-336a32 32 0 1 1 0 64 32 32 0 1 1 0-64m128 32a32 32 0 1 1 64 0 32 32 0 1 1-64 0M176 320h160c13.3 0 24 10.7 24 24s-10.7 24-24 24H176c-13.3 0-24-10.7-24-24s10.7-24 24-24"/></svg>