<svg xmlns="http://www.w3.org/2000/svg" viewBox="0 0 512 512"><!--! Font Awesome Free 7.1.0 by @fontawesome - https://fontawesome.com License - https://fontawesome.com/license/free (Icons: CC BY 4.0, Fonts: SIL OFL 1.1, Code: MIT License) Copyright 2025 Fonticons, Inc.--><path d="M64 64C28.7 64 0 92.7 0 128v7.4c0 6.8 4.4 12.6 10.1 16.3C23.3 160.3 32 175.1 32 192s-8.7 31.7-21.9 40.3C4.4 236 0 241.8 0 248.6V304h512v-55.4c0-6.8-4.4-12.6-10.1-16.3-13.2-8.6-21.9-23.4-21.9-40.3s8.7-31.7 21.9-40.3c5.7-3.7 10.1-9.5 10.1-16.3V128c0-35.3-28.7-64-64-64zm448 352v-64H0v64c0 17.7 14.3 32 32 32h64v-24c0-13.3 10.7-24 24-24s24 10.7 24 24v24h88v-24c0-13.3 10.7-24 24-24s24 10.7 24 24v24h88v-24c0-13.3 10.7-24 24-24s24 10.7 24 24v24h64c17.7 0 32-14.3 32-32M160 160v64c0 17.7-14.3 32-32 32s-32-14.3-32-32v-64c0-17.7 14.3-32 32-32s32 14.3 32 32m128 0v64c0 17.7-14.3 32-32 32s-32-14.3-32-32v-64c0-17.7 14.3-32 32-32s32 14.3 32 32m128 0v64c0 17.7-14.3 32-32 32s-32-14.3-32-32v-64c0-17.7 14.3-32 32-32s32 14.3 32 32"/></svg>