<svg xmlns="http://www.w3.org/2000/svg" viewBox="0 0 384 512"><!--! Font Awesome Free 7.1.0 by @fontawesome - https://fontawesome.com License - https://fontawesome.com/license/free (Icons: CC BY 4.0, Fonts: SIL OFL 1.1, Code: MIT License) Copyright 2025 Fonticons, Inc.--><path d="M117-4c-11-13.8-31.2-16-44.9-5s-16 31.2-5 45c7.8 9.7 16.6 18.5 26.4 26.1C46.7 93.7 16 147.3 16 208c0 86.3 62.1 158.1 144 173.1V416h-32c-17.7 0-32 14.3-32 32s14.3 32 32 32h32v32c0 17.7 14.3 32 32 32s32-14.3 32-32v-32h32c17.7 0 32-14.3 32-32s-14.3-32-32-32h-32v-34.9c81.9-15 144-86.8 144-173.1 0-60.7-30.7-114.3-77.5-145.9 9.8-7.7 18.7-16.4 26.4-26.1 11.1-13.8 8.8-33.9-5-45S278-17.8 267-4c-17.6 22-44.7 36-75 36s-57.3-14-75-36m75 324c-61.9 0-112-50.1-112-112S130.1 96 192 96s112 50.1 112 112c0 61.8-50.1 112-111.9 112z"/></svg>