<svg xmlns="http://www.w3.org/2000/svg" viewBox="0 0 576 512"><!--! Font Awesome Free 7.1.0 by @fontawesome - https://fontawesome.com License - https://fontawesome.com/license/free (Icons: CC BY 4.0, Fonts: SIL OFL 1.1, Code: MIT License) Copyright 2025 Fonticons, Inc.--><path d="M7-24.9c9.4-9.4 24.6-9.4 33.9 0l151 151V95.9c0-53 43-96 96-96 50.3 0 91.6 38.7 95.7 88L328 88c-13.3 0-24 10.7-24 24s10.7 24 24 24h56v48h-56c-13.3 0-24 10.7-24 24s10.7 24 24 24h55.7c-1.9 22.9-11.8 43.4-26.9 59l33.9 33.9c25.5-26 41.3-61.6 41.3-100.9v-40c0-13.3 10.7-24 24-24s24 10.7 24 24v40c0 52.6-21.1 100.2-55.3 134.8L569 503.1c9.4 9.4 9.4 24.6 0 33.9s-24.6 9.4-33.9 0L7 9.1c-9.3-9.4-9.3-24.6 0-34m290.8 392.6 41.4 41.4c-8.8 2.4-17.9 4.3-27.3 5.4V464h48c13.3 0 24 10.7 24 24s-10.7 24-24 24h-144c-13.3 0-24-10.7-24-24s10.7-24 24-24h48v-49.5C169.3 402.7 96 321.9 96 224v-40c0-5.1 1.6-9.9 4.4-13.8l43.6 43.6V224c0 79.5 64.5 144 144 144 3.3 0 6.6-.1 9.8-.3"/></svg>