<svg xmlns="http://www.w3.org/2000/svg" viewBox="0 0 384 512"><!--! Font Awesome Free 7.1.0 by @fontawesome - https://fontawesome.com License - https://fontawesome.com/license/free (Icons: CC BY 4.0, Fonts: SIL OFL 1.1, Code: MIT License) Copyright 2025 Fonticons, Inc.--><path d="M16 64C16 28.7 44.7 0 80 0h224c35.3 0 64 28.7 64 64v384c0 35.3-28.7 64-64 64H80c-35.3 0-64-28.7-64-64zm80 96v64c0 17.7 14.3 32 32 32h128c17.7 0 32-14.3 32-32v-64c0-17.7-14.3-32-32-32H128c-17.7 0-32 14.3-32 32m8 192a24 24 0 1 0 0-48 24 24 0 1 0 0 48m24 72c0-13.3-10.7-24-24-24s-24 10.7-24 24 10.7 24 24 24 24-10.7 24-24m64-72a24 24 0 1 0 0-48 24 24 0 1 0 0 48m24 72c0-13.3-10.7-24-24-24s-24 10.7-24 24 10.7 24 24 24 24-10.7 24-24m64-72a24 24 0 1 0 0-48 24 24 0 1 0 0 48m24 72c0-13.3-10.7-24-24-24s-24 10.7-24 24 10.7 24 24 24 24-10.7 24-24M168 40c-13.3 0-24 10.7-24 24s10.7 24 24 24h48c13.3 0 24-10.7 24-24s-10.7-24-24-24z"/></svg>