<svg xmlns="http://www.w3.org/2000/svg" viewBox="0 0 384 512"><!--! Font Awesome Free 7.1.0 by @fontawesome - https://fontawesome.com License - https://fontawesome.com/license/free (Icons: CC BY 4.0, Fonts: SIL OFL 1.1, Code: MIT License) Copyright 2025 Fonticons, Inc.--><path d="M16 64C16 28.7 44.7 0 80 0h224c35.3 0 64 28.7 64 64v384c0 35.3-28.7 64-64 64H80c-35.3 0-64-28.7-64-64zm112 376c0 13.3 10.7 24 24 24h80c13.3 0 24-10.7 24-24s-10.7-24-24-24h-80c-13.3 0-24 10.7-24 24M304 64H80v304h224z"/></svg>