<svg xmlns="http://www.w3.org/2000/svg" viewBox="0 0 576 512"><!--! Font Awesome Free 7.1.0 by @fontawesome - https://fontawesome.com License - https://fontawesome.com/license/free (Icons: CC BY 4.0, Fonts: SIL OFL 1.1, Code: MIT License) Copyright 2025 Fonticons, Inc.--><path d="M160 32c-35.3 0-64 28.7-64 64v224c0 35.3 28.7 64 64 64h352c35.3 0 64-28.7 64-64V96c0-35.3-28.7-64-64-64zm176 96a80 80 0 1 1 0 160 80 80 0 1 1 0-160m-176 24v-48c0-4.4 3.6-8 8-8h48c4.4 0 8.1 3.6 7.5 8-3.6 29-26.6 51.9-55.5 55.5-4.4.5-8-3.1-8-7.5m0 112c0-4.4 3.6-8.1 8-7.5 29 3.6 51.9 26.6 55.5 55.5.5 4.4-3.1 8-7.5 8h-48c-4.4 0-8-3.6-8-8zm344-104.5c-29-3.6-51.9-26.6-55.5-55.5-.5-4.4 3.1-8 7.5-8h48c4.4 0 8 3.6 8 8v48c0 4.4-3.6 8.1-8 7.5m8 104.5v48c0 4.4-3.6 8-8 8h-48c-4.4 0-8.1-3.6-7.5-8 3.6-29 26.6-51.9 55.5-55.5 4.4-.5 8 3.1 8 7.5M48 152c0-13.3-10.7-24-24-24S0 138.7 0 152v264c0 35.3 28.7 64 64 64h392c13.3 0 24-10.7 24-24s-10.7-24-24-24H64c-8.8 0-16-7.2-16-16z"/></svg>