<svg xmlns="http://www.w3.org/2000/svg" viewBox="0 0 512 512"><!--! Font Awesome Free 7.1.0 by @fontawesome - https://fontawesome.com License - https://fontawesome.com/license/free (Icons: CC BY 4.0, Fonts: SIL OFL 1.1, Code: MIT License) Copyright 2025 Fonticons, Inc.--><path d="M64 64C28.7 64 0 92.7 0 128v256c0 35.3 28.7 64 64 64h384c35.3 0 64-28.7 64-64V128c0-35.3-28.7-64-64-64zm192 96a96 96 0 1 1 0 192 96 96 0 1 1 0-192m192 24c0 4.4-3.6 8.1-8 7.5-29-3.6-51.9-26.6-55.5-55.5-.5-4.4 3.1-8 7.5-8h48c4.4 0 8 3.6 8 8zM64 328c0-4.4 3.6-8.1 8-7.5 29 3.6 51.9 26.6 55.5 55.5.5 4.4-3.1 8-7.5 8H72c-4.4 0-8-3.6-8-8zm8-136.5c-4.4.5-8-3.1-8-7.5v-48c0-4.4 3.6-8 8-8h48c4.4 0 8.1 3.6 7.5 8-3.6 29-26.6 51.9-55.5 55.5m368 129c4.4-.5 8 3.1 8 7.5v48c0 4.4-3.6 8-8 8h-48c-4.4 0-8.1-3.6-7.5-8 3.6-29 26.6-51.9 55.5-55.5"/></svg>