<svg xmlns="http://www.w3.org/2000/svg" viewBox="0 0 512 512"><!--! Font Awesome Free 6.6.0 by @fontawesome - https://fontawesome.com License - https://fontawesome.com/license/free (Icons: CC BY 4.0, Fonts: SIL OFL 1.1, Code: MIT License) Copyright 2024 Fonticons, Inc.--><path d="M176 0c44.2 0 80 35.8 80 80 0 8.8-7.2 16-16 16-44.2 0-80-35.8-80-80 0-8.8 7.2-16 16-16M56 16h48c13.3 0 24 10.7 24 24s-10.7 24-24 24H56c-13.3 0-24-10.7-24-24s10.7-24 24-24M24 88h112c13.3 0 24 10.7 24 24s-10.7 24-24 24H24c-13.3 0-24-10.7-24-24s10.7-24 24-24m8 96c0-13.3 10.7-24 24-24h48c13.3 0 24 10.7 24 24s-10.7 24-24 24H56c-13.3 0-24-10.7-24-24M272 16c0-8.8 7.2-16 16-16 44.2 0 80 35.8 80 80 0 8.8-7.2 16-16 16-44.2 0-80-35.8-80-80M400 0c44.2 0 80 35.8 80 80 0 8.8-7.2 16-16 16-44.2 0-80-35.8-80-80 0-8.8 7.2-16 16-16m80 144c0 44.2-35.8 80-80 80-8.8 0-16-7.2-16-16 0-44.2 35.8-80 80-80 8.8 0 16 7.2 16 16m-128-16c8.8 0 16 7.2 16 16 0 44.2-35.8 80-80 80-8.8 0-16-7.2-16-16 0-44.2 35.8-80 80-80m-96 16c0 44.2-35.8 80-80 80-8.8 0-16-7.2-16-16 0-44.2 35.8-80 80-80 8.8 0 16 7.2 16 16M0 304c0-26.5 21.5-48 48-48h416c26.5 0 48 21.5 48 48v160c0 26.5-21.5 48-48 48H48c-26.5 0-48-21.5-48-48zm48 112v48h48c0-26.5-21.5-48-48-48m48-112H48v48c26.5 0 48-21.5 48-48m368 112c-26.5 0-48 21.5-48 48h48zm-48-112c0 26.5 21.5 48 48 48v-48zm-96 80a64 64 0 1 0-128 0 64 64 0 1 0 128 0"/></svg>