<svg xmlns="http://www.w3.org/2000/svg" viewBox="0 0 512 512"><!--! Font Awesome Free 7.1.0 by @fontawesome - https://fontawesome.com License - https://fontawesome.com/license/free (Icons: CC BY 4.0, Fonts: SIL OFL 1.1, Code: MIT License) Copyright 2025 Fonticons, Inc.--><path d="M480 8c0-13.3-10.7-24-24-24H354.2c-13.3 0-24 10.7-24 24s10.7 24 24 24h43.9L286.8 143.3l-95.1-81.5c-9-7.7-22.2-7.7-31.2 0l-112 96c-10.1 8.6-11.2 23.8-2.6 33.8s23.8 11.2 33.8 2.6l96.4-82.6 96.4 82.6c9.5 8.2 23.7 7.6 32.6-1.3l127-127v43.9c0 13.3 10.7 24 24 24s24-10.7 24-24zM48 256c-26.5 0-48 21.5-48 48v160c0 26.5 21.5 48 48 48h416c26.5 0 48-21.5 48-48V304c0-26.5-21.5-48-48-48zm47.3 56c-3.4 20.1-19.2 36-39.4 39.4-4.4.7-8-2.9-8-7.3v-32c0-4.4 3.6-8 8-8h32c4.4 0 8.1 3.6 7.3 8zm0 144.1c.7 4.4-2.9 8-7.3 8H56c-4.4 0-8-3.6-8-8v-32c0-4.4 3.6-8.1 8-7.3 20.1 3.4 36 19.2 39.4 39.4zM456 416.7c4.4-.7 8 2.9 8 7.3v32c0 4.4-3.6 8-8 8h-32c-4.4 0-8.1-3.6-7.3-8 3.4-20.1 19.2-36 39.4-39.4zM416.7 312c-.7-4.4 2.9-8 7.3-8h32c4.4 0 8 3.6 8 8v32c0 4.4-3.6 8.1-8 7.3-20.1-3.4-36-19.2-39.4-39.4zM192 384a64 64 0 1 1 128 0 64 64 0 1 1-128 0"/></svg>