<svg xmlns="http://www.w3.org/2000/svg" viewBox="0 0 640 512"><!--! Font Awesome Free 7.1.0 by @fontawesome - https://fontawesome.com License - https://fontawesome.com/license/free (Icons: CC BY 4.0, Fonts: SIL OFL 1.1, Code: MIT License) Copyright 2025 Fonticons, Inc.--><path d="M31 105c-9.4-9.4-9.4-24.6 0-33.9L103-1c9.4-9.4 24.6-9.4 33.9 0s9.4 24.6 0 33.9l-31 31h406c35.3 0 64 28.7 64 64v178.2l-5.1-5.1c-28.1-28.1-73.7-28.1-101.8 0-27.2 27.2-28.1 70.6-2.8 98.9h67.7l-31-31c-9.4-9.4-9.4-24.6 0-33.9s24.6-9.4 33.9 0l72 72c9.4 9.4 9.4 24.6 0 33.9l-72 72c-9.4 9.4-24.6 9.4-33.9 0s-9.4-24.6 0-33.9l31-31H127.8c-35.3 0-64-28.7-64-64V205.8l5.1 5.1c28.1 28.1 73.7 28.1 101.8 0 27.2-27.2 28.1-70.6 2.8-98.9h-67.7l31 31c9.4 9.4 9.4 24.6 0 33.9s-24.6 9.4-33.9 0zm385 151a96 96 0 1 0-192 0 96 96 0 1 0 192 0m88-64.5c4.4.5 8-3.1 8-7.5v-48c0-4.4-3.6-8-8-8h-48c-4.4 0-8.1 3.6-7.5 8 3.6 29 26.6 51.9 55.5 55.5m-368 129c-4.4-.5-8 3.1-8 7.5v48c0 4.4 3.6 8 8 8h48c4.4 0 8.1-3.6 7.5-8-3.6-29-26.6-51.9-55.5-55.5"/></svg>