<svg xmlns="http://www.w3.org/2000/svg" viewBox="0 0 512 512"><!--! Font Awesome Free 7.1.0 by @fontawesome - https://fontawesome.com License - https://fontawesome.com/license/free (Icons: CC BY 4.0, Fonts: SIL OFL 1.1, Code: MIT License) Copyright 2025 Fonticons, Inc.--><path d="M0 109.5v310.1c0 19.4 11.8 37.3 30.3 43.3 94 30 158.8 8.4 223.3-13.1C316 429 378 408.3 465.7 434.5c22.2 6.6 46.2-8.8 46.2-32V92.4c0-19.4-11.8-37.3-30.3-43.3-94-30-158.8-8.4-223.3 13.1C195.9 83 133.9 103.7 46.2 77.5 24 70.9-.1 86.3-.1 109.5zM256 368c-53 0-96-50.1-96-112s43-112 96-112 96 50.1 96 112-43 112-96 112m-128.9 37.5c.7 4.4-2.8 8.1-7.2 8.1-15.7 0-32.1-1.8-50-6.1-3.5-.8-6-4-6-7.7L64 360c0-4.4 3.6-8.1 8-7.5 28.1 3.5 50.6 25.2 55.2 53zM448 354.6c0 5-4.6 8.8-9.5 8-15.4-2.5-30.2-3.9-44.4-4.3-4.9-.1-8.7-4.5-7.2-9.2 7.3-23.7 28-41.4 53.2-44.6 4.4-.5 8 3.1 8 7.5v42.6zm-8-195.1c-28.1-3.5-50.6-25.2-55.2-53-.7-4.4 2.8-8.1 7.2-8.1 15.7 0 32.1 1.8 50 6.1 3.5.8 6 4 6 7.7v39.9c0 4.4-3.6 8.1-8 7.5zm-322.1-5.8c4.9.1 8.7 4.5 7.2 9.2-7.3 23.7-28 41.4-53.2 44.6-4.4.5-8-3.1-8-7.5v-42.6c0-5 4.6-8.8 9.5-8 15.4 2.5 30.2 3.9 44.4 4.3zM240 188c-11 0-20 9-20 20 0 9.7 6.9 17.7 16 19.6V276h-4c-11 0-20 9-20 20s9 20 20 20h48c11 0 20-9 20-20s-9-20-20-20h-4v-68c0-11-9-20-20-20z"/></svg>