<svg xmlns="http://www.w3.org/2000/svg" viewBox="0 0 512 512"><!--! Font Awesome Free 7.1.0 by @fontawesome - https://fontawesome.com License - https://fontawesome.com/license/free (Icons: CC BY 4.0, Fonts: SIL OFL 1.1, Code: MIT License) Copyright 2025 Fonticons, Inc.--><path d="M0 128c0-35.3 28.7-64 64-64h384c35.3 0 64 28.7 64 64v256c0 35.3-28.7 64-64 64H64c-35.3 0-64-28.7-64-64zm96 184c0 13.3 10.7 24 24 24h144c13.3 0 24-10.7 24-24s-10.7-24-24-24H120c-13.3 0-24 10.7-24 24m24-136c-13.3 0-24 10.7-24 24s10.7 24 24 24h272c13.3 0 24-10.7 24-24s-10.7-24-24-24z"/></svg>