<svg xmlns="http://www.w3.org/2000/svg" viewBox="0 0 512 512"><!--! Font Awesome Free 7.1.0 by @fontawesome - https://fontawesome.com License - https://fontawesome.com/license/free (Icons: CC BY 4.0, Fonts: SIL OFL 1.1, Code: MIT License) Copyright 2025 Fonticons, Inc.--><path d="M64 64C28.7 64 0 92.7 0 128v256c0 35.3 28.7 64 64 64h384c35.3 0 64-28.7 64-64V128c0-35.3-28.7-64-64-64zm232 224h128c13.3 0 24 10.7 24 24s-10.7 24-24 24H296c-13.3 0-24-10.7-24-24s10.7-24 24-24m-24-88c0-13.3 10.7-24 24-24h128c13.3 0 24 10.7 24 24s-10.7 24-24 24H296c-13.3 0-24-10.7-24-24m-124-56c11 0 20 9 20 20v4h8c11 0 20 9 20 20s-9 20-20 20h-47.5c-6.9 0-12.5 5.6-12.5 12.5 0 6.1 4.4 11.3 10.4 12.3l41.7 7c25.3 4.2 43.9 26.1 43.9 51.8 0 26.1-19 47.7-44 51.8v4.7c0 11-9 20-20 20s-20-9-20-20v-4h-24c-11 0-20-9-20-20s9-20 20-20h55.5c6.9 0 12.5-5.6 12.5-12.5 0-6.1-4.4-11.3-10.4-12.3l-41.7-7C94.5 268 76 246.1 76 220.5c0-28.8 23.2-52.2 52-52.5v-4c0-11 9-20 20-20"/></svg>