<svg xmlns="http://www.w3.org/2000/svg" viewBox="0 0 640 512"><!--! Font Awesome Free 7.1.0 by @fontawesome - https://fontawesome.com License - https://fontawesome.com/license/free (Icons: CC BY 4.0, Fonts: SIL OFL 1.1, Code: MIT License) Copyright 2025 Fonticons, Inc.--><path d="M256.3 48c0-26.5 21.5-48 48-48h96c26.5 0 48 21.5 48 48v48h48V24c0-13.3 10.7-24 24-24s24 10.7 24 24v72h16c26.5 0 48 21.5 48 48v320c0 26.5-21.5 48-48 48h-77.8c4-15.4 2.4-32.6-6.7-48.2L354.6 256h13.7c8.8 0 16-7.2 16-16v-32c0-8.8-7.2-16-16-16h-32c-6.1 0-11.4 3.4-14.1 8.5l-42.6-73c-6-10.2-14.1-18-23.3-23.3zm64 64v32c0 8.8 7.2 16 16 16h32c8.8 0 16-7.2 16-16v-32c0-8.8-7.2-16-16-16h-32c-8.8 0-16 7.2-16 16m160 96v32c0 8.8 7.2 16 16 16h32c8.8 0 16-7.2 16-16v-32c0-8.8-7.2-16-16-16h-32c-8.8 0-16 7.2-16 16m16 80c-8.8 0-16 7.2-16 16v32c0 8.8 7.2 16 16 16h32c8.8 0 16-7.2 16-16v-32c0-8.8-7.2-16-16-16zm-272-64.7-65.1 111.6 33.1 33.1 48-48h40.4zm-27.6-47.9c12.3-21.2 42.9-21.2 55.3 0l168.3 288.5c12.4 21.3-2.9 48.1-27.6 48.1H56c-24.7 0-40.1-26.8-27.6-48.1z"/></svg>