<svg xmlns="http://www.w3.org/2000/svg" viewBox="0 0 576 512"><!--! Font Awesome Free 7.1.0 by @fontawesome - https://fontawesome.com License - https://fontawesome.com/license/free (Icons: CC BY 4.0, Fonts: SIL OFL 1.1, Code: MIT License) Copyright 2025 Fonticons, Inc.--><path d="M152-16c-13.3 0-24 10.7-24 24 0 38.9 23.4 59.4 39.1 73.1l1.1 1C184.5 96.4 192 103.9 192 120c0 13.3 10.7 24 24 24s24-10.7 24-24c0-38.9-23.4-59.4-39.1-73.1l-1.1-1C183.5 31.7 176 24.1 176 8c0-13.3-10.7-24-24-24M96 192c-17.7 0-32 14.3-32 32v192c0 53 43 96 96 96h192c41.8 0 77.4-26.7 90.5-64h5.5c70.7 0 128-57.3 128-128s-57.3-128-128-128zm352 192V256c35.3 0 64 28.7 64 64s-28.7 64-64 64M288 8c0-13.3-10.7-24-24-24S240-5.3 240 8c0 38.9 23.4 59.4 39.1 73.1l1.1 1C296.5 96.4 304 103.9 304 120c0 13.3 10.7 24 24 24s24-10.7 24-24c0-38.9-23.4-59.4-39.1-73.1l-1.1-1C295.5 31.7 288 24.1 288 8"/></svg>