<svg xmlns="http://www.w3.org/2000/svg" viewBox="0 0 512 512"><!--! Font Awesome Free 7.1.0 by @fontawesome - https://fontawesome.com License - https://fontawesome.com/license/free (Icons: CC BY 4.0, Fonts: SIL OFL 1.1, Code: MIT License) Copyright 2025 Fonticons, Inc.--><path d="M271.9 20.2c-9.8-5.6-21.9-5.6-31.8 0l-224 128c-12.6 7.2-18.8 22-15.1 36S17.5 208 32 208h32v208l-51.2 38.4C4.7 460.4 0 469.9 0 480c0 17.7 14.3 32 32 32h448c17.7 0 32-14.3 32-32 0-10.1-4.7-19.6-12.8-25.6L448 416V208h32c14.5 0 27.2-9.8 30.9-23.8s-2.5-28.8-15.1-36l-224-128zM400 208v208h-64V208zm-112 0v208h-64V208zm-112 0v208h-64V208zm80-112a32 32 0 1 1 0 64 32 32 0 1 1 0-64"/></svg>