<svg xmlns="http://www.w3.org/2000/svg" viewBox="0 0 448 512"><!--! Font Awesome Free 7.1.0 by @fontawesome - https://fontawesome.com License - https://fontawesome.com/license/free (Icons: CC BY 4.0, Fonts: SIL OFL 1.1, Code: MIT License) Copyright 2025 Fonticons, Inc.--><path d="M122.6 46.3c-7.8-11.7-22.4-17-35.9-12.9S64 49.9 64 64v192H32c-13.3 0-24 10.7-24 24s10.7 24 24 24h32v144c0 17.7 14.3 32 32 32s32-14.3 32-32V304h89.5l107.8 161.8c7.8 11.7 22.4 17 35.9 12.9S384 462.1 384 448V304h32c13.3 0 24-10.7 24-24s-10.7-24-24-24h-32V64c0-17.7-14.3-32-32-32s-32 14.3-32 32v192h-57.5L122.7 46.3zM294.5 304H320v38.3zm-109-48H128v-86.3z"/></svg>