<svg xmlns="http://www.w3.org/2000/svg" viewBox="0 0 512 512"><!--! Font Awesome Free 7.1.0 by @fontawesome - https://fontawesome.com License - https://fontawesome.com/license/free (Icons: CC BY 4.0, Fonts: SIL OFL 1.1, Code: MIT License) Copyright 2025 Fonticons, Inc.--><path d="M0 416V120c0-13.3 10.7-24 24-24s24 10.7 24 24v288c0 13.3 10.7 24 24 24s24-10.7 24-24V96c0-35.3 28.7-64 64-64h288c35.3 0 64 28.7 64 64v320c0 35.3-28.7 64-64 64H64c-35.3 0-64-28.7-64-64m160-288v64c0 17.7 14.3 32 32 32h64c17.7 0 32-14.3 32-32v-64c0-17.7-14.3-32-32-32h-64c-17.7 0-32 14.3-32 32m24 240c-13.3 0-24 10.7-24 24s10.7 24 24 24h240c13.3 0 24-10.7 24-24s-10.7-24-24-24zm-24-72c0 13.3 10.7 24 24 24h240c13.3 0 24-10.7 24-24s-10.7-24-24-24H184c-13.3 0-24 10.7-24 24m200-120c-13.3 0-24 10.7-24 24s10.7 24 24 24h64c13.3 0 24-10.7 24-24s-10.7-24-24-24z"/></svg>