<svg xmlns="http://www.w3.org/2000/svg" viewBox="0 0 512 512"><!--! Font Awesome Free 7.1.0 by @fontawesome - https://fontawesome.com License - https://fontawesome.com/license/free (Icons: CC BY 4.0, Fonts: SIL OFL 1.1, Code: MIT License) Copyright 2025 Fonticons, Inc.--><path d="M96 352c0 35.3 28.7 64 64 64h181.5c17 0 33.3-6.7 45.3-18.7l106.5-106.6c12-12 18.7-28.3 18.7-45.3V64c0-35.3-28.7-64-64-64H160c-35.3 0-64 28.7-64 64zm192-240h32c8.8 0 16 7.2 16 16v48h48c8.8 0 16 7.2 16 16v32c0 8.8-7.2 16-16 16h-48v48c0 8.8-7.2 16-16 16h-32c-8.8 0-16-7.2-16-16v-48h-48c-8.8 0-16-7.2-16-16v-32c0-8.8 7.2-16 16-16h48v-48c0-8.8 7.2-16 16-16m-240 8c0-13.3-10.7-24-24-24S0 106.7 0 120v328c0 35.3 28.7 64 64 64h264c13.3 0 24-10.7 24-24s-10.7-24-24-24H64c-8.8 0-16-7.2-16-16z"/></svg>