<svg xmlns="http://www.w3.org/2000/svg" viewBox="0 0 512 512"><!--! Font Awesome Free 7.1.0 by @fontawesome - https://fontawesome.com License - https://fontawesome.com/license/free (Icons: CC BY 4.0, Fonts: SIL OFL 1.1, Code: MIT License) Copyright 2025 Fonticons, Inc.--><path d="M188.6.1c-17 0-33.3 6.7-45.3 18.7L19.2 143C7.2 155 .5 171.2.5 188.2v135.6c0 17 6.7 33.3 18.7 45.3l124.2 124.1c12 12 28.3 18.7 45.3 18.7h135.6c17 0 33.3-6.7 45.3-18.7l124-124.2c12-12 18.7-28.3 18.7-45.3V188.1c0-17-6.7-33.3-18.7-45.3l-124.1-124C357.5 6.8 341.2.1 324.2.1z"/></svg>