<svg xmlns="http://www.w3.org/2000/svg" viewBox="0 0 576 512"><!--! Font Awesome Free 7.1.0 by @fontawesome - https://fontawesome.com License - https://fontawesome.com/license/free (Icons: CC BY 4.0, Fonts: SIL OFL 1.1, Code: MIT License) Copyright 2025 Fonticons, Inc.--><path d="M528.3 61.3c-11.4-42.7-55.3-68-98-56.6l-15.4 4.1C397.8 13.4 387.7 31 392.3 48l24.5 91.4-108.2 28.1-6.3-18.1c-4.6-12.8-16.7-21.4-30.3-21.4s-25.7 8.6-30.2 21.4l-13.6 39L96 222.7v-38.6c0-13.3-10.7-24-24-24s-24 10.7-24 24v264H32c-17.7 0-32 14.3-32 32s14.3 32 32 32h512c17.7 0 32-14.3 32-32s-14.3-32-32-32H406.7l-61.4-175.4-62.2 16.1 22.1 63.2h-66.6l19.9-56.9-74.6 19.3-46.7 133.5H95.9V288.7l337.4-87.5 25.2 94c4.6 17.1 22.1 27.2 39.2 22.6l15.5-4.1c42.7-11.4 68-55.3 56.6-98zM205.1 448l16.8-48h100.2l16.8 48z"/></svg>