<svg xmlns="http://www.w3.org/2000/svg" viewBox="0 0 576 512"><!--! Font Awesome Free 7.1.0 by @fontawesome - https://fontawesome.com License - https://fontawesome.com/license/free (Icons: CC BY 4.0, Fonts: SIL OFL 1.1, Code: MIT License) Copyright 2025 Fonticons, Inc.--><path d="M480.5 10.3 259.1 158c-29.1 19.4-47.6 50.9-50.6 85.3 62.3 12.8 111.4 61.9 124.3 124.3 34.5-3 65.9-21.5 85.3-50.6L565.7 95.5c6.7-10.1 10.3-21.9 10.3-34.1C576 27.5 548.5 0 514.6 0c-12.1 0-24 3.6-34.1 10.3M288 400c0-61.9-50.1-112-112-112S64 338.1 64 400c0 3.9.2 7.8.6 11.6 1.8 17.5-10.2 36.4-27.8 36.4H32c-17.7 0-32 14.3-32 32s14.3 32 32 32h144c61.9 0 112-50.1 112-112"/></svg>