<svg xmlns="http://www.w3.org/2000/svg" viewBox="0 0 512 512"><!--! Font Awesome Free 7.1.0 by @fontawesome - https://fontawesome.com License - https://fontawesome.com/license/free (Icons: CC BY 4.0, Fonts: SIL OFL 1.1, Code: MIT License) Copyright 2025 Fonticons, Inc.--><path d="M0 64C0 28.7 28.7 0 64 0h288c35.3 0 64 28.7 64 64h16c44.2 0 80 35.8 80 80v96c0 44.2-35.8 80-80 80H272c-8.8 0-16 7.2-16 16v18.7c18.6 6.6 32 24.4 32 45.3v96c0 26.5-21.5 48-48 48h-32c-26.5 0-48-21.5-48-48v-96c0-20.9 13.4-38.7 32-45.3V336c0-44.2 35.8-80 80-80h160c8.8 0 16-7.2 16-16v-96c0-8.8-7.2-16-16-16h-16c0 35.3-28.7 64-64 64H64c-35.3 0-64-28.7-64-64z"/></svg>