<svg xmlns="http://www.w3.org/2000/svg" viewBox="0 0 576 512"><!--! Font Awesome Free 7.1.0 by @fontawesome - https://fontawesome.com License - https://fontawesome.com/license/free (Icons: CC BY 4.0, Fonts: SIL OFL 1.1, Code: MIT License) Copyright 2025 Fonticons, Inc.--><path d="M43.9 48C19.7 48 0 67.7 0 91.9v328.2C0 444.4 19.7 464 43.9 464c5.5 0 10.7-1 15.7-2.9C72.5 456.2 163 424 288 424s215.5 32.3 228.4 37.1c5 1.9 10.2 2.9 15.7 2.9 24.3 0 43.9-19.7 43.9-43.9V91.9c0-24.3-19.7-43.9-43.9-43.9-5.5 0-10.7 1-15.7 2.9C503.5 55.8 413 88 288 88S72.5 55.7 59.6 50.9C54.6 49 49.4 48 43.9 48M72 176a40 40 0 1 1 80 0 40 40 0 1 1-80 0m264.1-16c7.5 0 14.6 3.6 19.1 9.6l124.5 166.6c5.9 7.9 6.4 18.5 1.3 26.9s-14.8 12.8-24.5 11.1c-45.8-7.8-103.3-14.2-168.4-14.2-65.6 0-123.4 6.5-169.3 14.4-9.8 1.7-19.7-2.9-24.7-11.5s-4.3-19.4 1.9-27.2l69.3-86.7c4.6-5.7 11.5-9 18.7-9s14.2 3.3 18.7 9l27.5 34.4 86.7-113.9c4.6-6 11.7-9.5 19.2-9.5"/></svg>