<svg xmlns="http://www.w3.org/2000/svg" viewBox="0 0 384 512"><!--! Font Awesome Free 7.1.0 by @fontawesome - https://fontawesome.com License - https://fontawesome.com/license/free (Icons: CC BY 4.0, Fonts: SIL OFL 1.1, Code: MIT License) Copyright 2025 Fonticons, Inc.--><path d="M0 64C0 28.7 28.7 0 64 0h256c35.3 0 64 28.7 64 64v384c0 35.3-28.7 64-64 64H64c-35.3 0-64-28.7-64-64zm96 344c0 13.3 10.7 24 24 24h144c13.3 0 24-10.7 24-24s-10.7-24-24-24H120c-13.3 0-24 10.7-24 24m182.6-200c-4.8 26.4-21.5 48.7-44.2 61.2 6.7-17 11.2-38 12.6-61.2zm-173.1 0h31.6c1.4 23.1 6 44.2 12.6 61.2-22.7-12.5-39.4-34.8-44.2-61.2m76.4 55c-6.2-13.4-11.1-32.5-12.7-55H215c-1.6 22.5-6.5 41.6-12.7 55-4.5 9.6-8.2 13.8-10.2 15.5-2-1.7-5.7-5.8-10.2-15.5m0-142c4.5-9.6 8.2-13.8 10.2-15.5 2 1.7 5.7 5.8 10.2 15.5 6.2 13.4 11.1 32.5 12.7 55h-45.8c1.6-22.5 6.5-41.6 12.7-55m96.7 55H247c-1.4-23.1-6-44.2-12.6-61.2 22.7 12.5 39.4 34.8 44.2 61.2M137 176h-31.6c4.8-26.4 21.5-48.7 44.2-61.2-6.7 17-11.2 38-12.6 61.2m183 16a128 128 0 1 0-256 0 128 128 0 1 0 256 0"/></svg>