<svg xmlns="http://www.w3.org/2000/svg" viewBox="0 0 512 512"><!--! Font Awesome Free 7.1.0 by @fontawesome - https://fontawesome.com License - https://fontawesome.com/license/free (Icons: CC BY 4.0, Fonts: SIL OFL 1.1, Code: MIT License) Copyright 2025 Fonticons, Inc.--><path d="M224 445.3V323.5l-94.3 77.1c26.1 22.8 58.5 38.7 94.3 44.7M89.2 351.1 224 240.8V66.7C133.2 81.9 64 160.9 64 256c0 34.6 9.2 67.1 25.2 95.1m293.1 49.5L288 323.5v121.8c35.7-6 68.1-21.9 94.3-44.7m40.6-49.5c16-28 25.2-60.5 25.2-95.1 0-95.1-69.2-174.1-160-189.3v174.2l134.8 110.3zM0 256a256 256 0 1 1 512 0 256 256 0 1 1-512 0"/></svg>