<svg xmlns="http://www.w3.org/2000/svg" viewBox="0 0 512 512"><!--! Font Awesome Free 7.1.0 by @fontawesome - https://fontawesome.com License - https://fontawesome.com/license/free (Icons: CC BY 4.0, Fonts: SIL OFL 1.1, Code: MIT License) Copyright 2025 Fonticons, Inc.--><path d="M373.5 27.1C388.5 9.9 410.2 0 433.1 0c43.6 0 79 35.4 79 79 0 22.8-9.9 44.6-27.1 59.6L283.7 313.8 273 303l-64-64-10.8-10.7zM161.1 259c.9 1 26.9 27 77.9 78l13.9 13.9-17.1 74.2c-3.9 17.1-16.9 30.7-33.8 35.4L32.2 508l92.3-92.3c1.2.1 2.3.2 3.5.2 17.7 0 32-14.3 32-32s-14.3-32-32-32-32 14.3-32 32c0 1.2.1 2.4.2 3.5L3.9 479.8 51.5 310c4.7-16.9 18.3-29.9 35.4-33.8z"/></svg>