<svg xmlns="http://www.w3.org/2000/svg" viewBox="0 0 512 512"><!--! Font Awesome Free 7.1.0 by @fontawesome - https://fontawesome.com License - https://fontawesome.com/license/free (Icons: CC BY 4.0, Fonts: SIL OFL 1.1, Code: MIT License) Copyright 2025 Fonticons, Inc.--><path d="M352.9 21.2 308 66.1 445.9 204l44.9-44.9c13.6-13.5 21.2-31.9 21.2-51.1s-7.6-37.6-21.2-51.1l-35.7-35.7C441.6 7.6 423.2 0 404 0s-37.6 7.6-51.1 21.2M274.1 100 58.9 315.1c-10.7 10.7-18.5 24.1-22.6 38.7L.9 481.6c-2.3 8.3 0 17.3 6.2 23.4s15.1 8.5 23.4 6.2l127.8-35.5c14.6-4.1 27.9-11.8 38.7-22.6l215-215.2z"/></svg>