<svg xmlns="http://www.w3.org/2000/svg" viewBox="0 0 576 512"><!--! Font Awesome Free 7.1.0 by @fontawesome - https://fontawesome.com License - https://fontawesome.com/license/free (Icons: CC BY 4.0, Fonts: SIL OFL 1.1, Code: MIT License) Copyright 2025 Fonticons, Inc.--><path d="M302.3-12.6c-9-4.5-19.6-4.5-28.6 0l-256 128c-15.8 7.9-22.2 27.1-14.3 42.9s27.1 22.2 42.9 14.3L288 51.8l241.7 120.8c15.8 7.9 35 1.5 42.9-14.3s1.5-35-14.3-42.9zM288 272a56 56 0 1 0 0-112 56 56 0 1 0 0 112m0 48c-53 0-96 43-96 96v32c0 17.7 14.3 32 32 32h128c17.7 0 32-14.3 32-32v-32c0-53-43-96-96-96m-128-64a48 48 0 1 0-96 0 48 48 0 1 0 96 0m352 0a48 48 0 1 0-96 0 48 48 0 1 0 96 0m-400 80c-44.2 0-80 35.8-80 80v33.1c0 17 13.8 30.9 30.9 30.9h87.8c-4.3-9.8-6.7-20.6-6.7-32v-48c0-18.4 3.5-36 9.8-52.2-12.2-7.5-26.5-11.8-41.8-11.8m313.4 144h87.8c17 0 30.9-13.8 30.9-30.9V416c0-44.2-35.8-80-80-80-15.3 0-29.6 4.3-41.8 11.8 6.3 16.2 9.8 33.8 9.8 52.2v48c0 11.4-2.4 22.2-6.7 32"/></svg>