<svg xmlns="http://www.w3.org/2000/svg" viewBox="0 0 576 512"><!--! Font Awesome Free 7.1.0 by @fontawesome - https://fontawesome.com License - https://fontawesome.com/license/free (Icons: CC BY 4.0, Fonts: SIL OFL 1.1, Code: MIT License) Copyright 2025 Fonticons, Inc.--><path d="M64-32a56 56 0 1 1 0 112 56 56 0 1 1 0-112M0 171.1C0 138.5 26.5 112 59.1 112c23.5 0 45.5 11.3 59.1 30.4l48.7 68.2c5.8 8.2 15.1 13.1 25.1 13.4v-96c0-17.7 14.3-32 32-32h128c17.7 0 32 14.3 32 32v96c10-.3 19.3-5.2 25.1-13.4l48.7-68.2c13.6-19.1 35.6-30.4 59.1-30.4 32.6 0 59.1 26.5 59.1 59.1V272c0 30.2-14.2 58.7-38.4 76.8l-76.8 57.6c-8.1 6-12.8 15.5-12.8 25.6v80c0 17.7-14.3 32-32 32s-32-14.3-32-32v-80c0-30.2 14.2-58.7 38.4-76.8L464 324v-80.1l-2.8 3.9c-18 25.2-47.1 40.2-78.1 40.2H352c-.6 0-1.3 0-1.9-.1-.6 0-1.3.1-1.9.1H227.8c-.6 0-1.3 0-1.9-.1-.6 0-1.3.1-1.9.1h-31.1c-31 0-60.1-15-78.1-40.2l-2.8-3.9V324l41.6 31.2c24.2 18.1 38.4 46.6 38.4 76.8v80c0 17.7-14.3 32-32 32s-32-14.3-32-32v-80c0-10.1-4.7-19.6-12.8-25.6l-76.8-57.6C14.2 330.7 0 302.2 0 272zm0 208.2c3.1 2.7 6.3 5.4 9.6 7.9L64 428v84c0 17.7-14.3 32-32 32S0 529.7 0 512zM568 24a56 56 0 1 1-112 0 56 56 0 1 1 112 0m8 488c0 17.7-14.3 32-32 32s-32-14.3-32-32v-84l54.4-40.8c3.3-2.5 6.5-5.1 9.6-7.9z"/></svg>