<svg xmlns="http://www.w3.org/2000/svg" viewBox="0 0 576 512"><!--! Font Awesome Free 7.1.0 by @fontawesome - https://fontawesome.com License - https://fontawesome.com/license/free (Icons: CC BY 4.0, Fonts: SIL OFL 1.1, Code: MIT License) Copyright 2025 Fonticons, Inc.--><path d="M288 0a64 64 0 1 1 0 128 64 64 0 1 1 0-128m96 312c0 25-12.7 47-32 59.9V416H224v-44.1C204.7 359 192 337 192 312v-40c0-53 43-96 96-96s96 43 96 96zm16 104v-27.3c19.9-22.5 32-52.2 32-84.7v-32c0-26.7-7.3-51.6-19.9-73.1 11.1-4.5 23.2-6.9 35.9-6.9 53 0 96 43 96 96v32c0 23.7-12.9 44.4-32 55.4V416zM64 375.4c-19.1-11-32-31.7-32-55.4v-32c0-53 43-96 96-96 12.7 0 24.8 2.5 35.9 6.9-12.6 21.4-19.9 46.4-19.9 73.1v32c0 32.5 12.1 62.1 32 84.7V416H64zM128 32a56 56 0 1 1 0 112 56 56 0 1 1 0-112m320 0a56 56 0 1 1 0 112 56 56 0 1 1 0-112M24 464h528c13.3 0 24 10.7 24 24s-10.7 24-24 24H24c-13.3 0-24-10.7-24-24s10.7-24 24-24"/></svg>