<svg xmlns="http://www.w3.org/2000/svg" viewBox="0 0 384 512"><!--! Font Awesome Free 7.1.0 by @fontawesome - https://fontawesome.com License - https://fontawesome.com/license/free (Icons: CC BY 4.0, Fonts: SIL OFL 1.1, Code: MIT License) Copyright 2025 Fonticons, Inc.--><path d="M143.4-3.9C153.1-20.7 171.2-32 192-32c30.9 0 56 25.1 56 56 0 25.4-16.9 46.8-40 53.7-5.1 1.5-10.4 2.3-16 2.3-30.9 0-56-25.1-56-56 0-10.1 2.7-19.7 7.4-27.9m174.9 303L272 236.7V512c0 17.7-14.3 32-32 32s-32-14.3-32-32V113c36.2 4.4 69.2 23.4 91.2 53l70.5 95c10.5 14.2 7.6 34.2-6.6 44.8s-34.2 7.6-44.8-6.6zM176 113v399c0 17.7-14.3 32-32 32s-32-14.3-32-32V384H86.2c-10.9 0-18.6-10.7-15.2-21.1l43-129L65.7 299c-10.5 14.2-30.6 17.2-44.8 6.6S3.7 275 14.3 260.8l70.5-95c22-29.6 55.1-48.6 91.2-53z"/></svg>