<svg xmlns="http://www.w3.org/2000/svg" viewBox="0 0 640 512"><!--! Font Awesome Free 7.1.0 by @fontawesome - https://fontawesome.com License - https://fontawesome.com/license/free (Icons: CC BY 4.0, Fonts: SIL OFL 1.1, Code: MIT License) Copyright 2025 Fonticons, Inc.--><path d="M280 24a56 56 0 1 0-112 0 56 56 0 1 0 112 0m24 212.7 37 49.9c12.8-17.5 28.5-32.7 46.3-45l-56.2-75.7C306 132 266.3 112 224 112s-82 20-107.2 53.9l-70.5 95c-10.5 14.2-7.6 34.2 6.6 44.8s34.2 7.6 44.8-6.6l46.3-62.4V512c0 17.7 14.3 32 32 32s32-14.3 32-32V352c0-8.8 7.2-16 16-16s16 7.2 16 16v160c0 17.7 14.3 32 32 32s32-14.3 32-32zM640 400a144 144 0 1 0-288 0 144 144 0 1 0 288 0m-86.6-60.9c7.1 5.2 8.7 15.2 3.5 22.3l-64 88c-2.8 3.8-7 6.2-11.7 6.5s-9.3-1.3-12.6-4.6l-40-40c-6.2-6.2-6.2-16.4 0-22.6s16.4-6.2 22.6 0l26.8 26.8 53-72.9c5.2-7.1 15.2-8.7 22.4-3.5"/></svg>