<svg xmlns="http://www.w3.org/2000/svg" viewBox="0 0 512 512"><!--! Font Awesome Free 7.1.0 by @fontawesome - https://fontawesome.com License - https://fontawesome.com/license/free (Icons: CC BY 4.0, Fonts: SIL OFL 1.1, Code: MIT License) Copyright 2025 Fonticons, Inc.--><path d="M271.9 4.2c-9.8-5.6-21.9-5.6-31.8 0l-224 128C6.2 137.9 0 148.5 0 160v320c0 17.7 14.3 32 32 32s32-14.3 32-32V178.6L256 68.9l192 109.7V480c0 17.7 14.3 32 32 32s32-14.3 32-32V160c0-11.5-6.2-22.1-16.1-27.8zM256 208a40 40 0 1 0 0-80 40 40 0 1 0 0 80m-8 192h16v88c0 13.3 10.7 24 24 24s24-10.7 24-24V313.5l26.9 49.9c6.3 11.7 20.8 16 32.5 9.8s16-20.8 9.8-32.5L348 279c-18.3-33.9-53.6-55-92-55s-73.7 21.1-91.9 54.9l-33.2 61.7c-6.3 11.7-1.9 26.2 9.8 32.5s26.2 1.9 32.5-9.8l26.8-49.8V488c0 13.3 10.7 24 24 24s24-10.7 24-24z"/></svg>