<svg xmlns="http://www.w3.org/2000/svg" viewBox="0 0 640 512"><!--! Font Awesome Free 7.1.0 by @fontawesome - https://fontawesome.com License - https://fontawesome.com/license/free (Icons: CC BY 4.0, Fonts: SIL OFL 1.1, Code: MIT License) Copyright 2025 Fonticons, Inc.--><path d="M204 40.1c-13.3 0-24-10.7-24-24v-48c0-13.3 10.7-24 24-24s24 10.7 24 24v48c0 13.3-10.7 24-24 24M4 144.1c0-13.3 10.7-24 24-24h48c13.3 0 24 10.7 24 24s-10.7 24-24 24H28c-13.3 0-24-10.7-24-24m92.5 141.4c-9.4 9.4-24.6 9.4-33.9 0s-9.4-24.6 0-33.9l33.9-33.9c9.4-9.4 24.6-9.4 33.9 0s9.4 24.6 0 33.9zM62.6 2.7c9.4-9.4 24.6-9.4 33.9 0l33.9 33.9c9.4 9.4 9.4 24.6 0 33.9s-24.6 9.4-33.9 0L62.6 36.6c-9.4-9.4-9.4-24.6 0-33.9M352.4-32a56 56 0 1 1 0 112 56 56 0 1 1 0-112m126.3 331.1-46.3-62.4V512c0 17.7-14.3 32-32 32s-32-14.3-32-32V352c0-8.8-7.2-16-16-16s-16 7.2-16 16v160c0 17.7-14.3 32-32 32s-32-14.3-32-32V236.7l-46.3 62.4c-10.5 14.2-30.6 17.2-44.8 6.6s-17.2-30.6-6.6-44.8l70.5-95c25.2-33.9 65-53.9 107.2-53.9s82 20 107.2 53.9l70.5 95c10.5 14.2 7.6 34.2-6.6 44.8s-34.2 7.6-44.8-6.6"/></svg>