<svg xmlns="http://www.w3.org/2000/svg" viewBox="0 0 512 512"><!--! Font Awesome Free 7.1.0 by @fontawesome - https://fontawesome.com License - https://fontawesome.com/license/free (Icons: CC BY 4.0, Fonts: SIL OFL 1.1, Code: MIT License) Copyright 2025 Fonticons, Inc.--><path d="M320 32c0-17.7-14.3-32-32-32s-32 14.3-32 32v5.4c0 45-23.6 86.6-62.1 109.8l-4.6 2.8C131.4 184.7 96 247.1 96 314.6V384c0 17.7 14.3 32 32 32s32-14.3 32-32v-69.4c0-16.7 3.3-33 9.4-48l189.8 233.6c11.1 13.7 31.3 15.8 45 4.7s15.8-31.3 4.7-45L295.2 320H400l38.4 51.2c10.6 14.1 30.7 17 44.8 6.4s17-30.7 6.4-44.8l-43.2-57.6c-9.1-12.1-23.3-19.2-38.4-19.2h-89l-62.9-75.5c40.3-36 63.9-87.9 63.9-143.1zM104 144a56 56 0 1 0 0-112 56 56 0 1 0 0 112"/></svg>