<svg xmlns="http://www.w3.org/2000/svg" viewBox="0 0 640 512"><!--! Font Awesome Free 7.1.0 by @fontawesome - https://fontawesome.com License - https://fontawesome.com/license/free (Icons: CC BY 4.0, Fonts: SIL OFL 1.1, Code: MIT License) Copyright 2025 Fonticons, Inc.--><path d="M208 40.1c13.3 0 24-10.7 24-24v-48c0-13.3-10.7-24-24-24s-24 10.7-24 24v48c0 13.3 10.7 24 24 24M8 144.1c0 13.3 10.7 24 24 24h48c13.3 0 24-10.7 24-24s-10.7-24-24-24H32c-13.3 0-24 10.7-24 24m92.5 141.4 33.9-33.9c9.4-9.4 9.4-24.6 0-33.9s-24.6-9.4-33.9 0l-33.9 33.9c-9.4 9.4-9.4 24.6 0 33.9s24.6 9.4 33.9 0M66.6 2.7c-9.4 9.4-9.4 24.6 0 33.9l33.9 33.9c9.4 9.4 24.6 9.4 33.9 0s9.4-24.6 0-33.9L100.5 2.7c-9.4-9.4-24.5-9.4-33.9 0M352 80a56 56 0 1 0 0-112 56 56 0 1 0 0 112M246.2 384H272v128c0 17.7 14.3 32 32 32s32-14.3 32-32V384h32v128c0 17.7 14.3 32 32 32s32-14.3 32-32V384h25.8c10.9 0 18.6-10.7 15.2-21.1l-43-129 48.3 65.1c10.5 14.2 30.6 17.2 44.8 6.6s17.2-30.6 6.6-44.8l-70.5-95C434 132 394.3 112 352 112s-82 20-107.2 53.9l-70.5 95c-10.5 14.2-7.6 34.2 6.6 44.8s34.2 7.6 44.8-6.6L274 234l-43 129c-3.5 10.4 4.3 21.1 15.2 21.1z"/></svg>