<svg xmlns="http://www.w3.org/2000/svg" viewBox="0 0 576 512"><!--! Font Awesome Free 7.1.0 by @fontawesome - https://fontawesome.com License - https://fontawesome.com/license/free (Icons: CC BY 4.0, Fonts: SIL OFL 1.1, Code: MIT License) Copyright 2025 Fonticons, Inc.--><path d="M192-32a56 56 0 1 1 0 112 56 56 0 1 1 0-112m126.3 331.1L272 236.7V480h272c17.7 0 32 14.3 32 32s-14.3 32-32 32H32c-17.7 0-32-14.3-32-32s14.3-32 32-32h80V236.7l-46.3 62.4c-10.5 14.2-30.6 17.2-44.8 6.6s-17.2-30.6-6.6-44.8l70.5-95C110 132 149.7 112 192 112s82 20 107.2 53.9l70.5 95c10.5 14.2 7.6 34.2-6.6 44.8s-34.2 7.6-44.8-6.6M208 480V352c0-8.8-7.2-16-16-16s-16 7.2-16 16v128zm358.6-377.4c-12.5 12.5-32.8 12.5-45.3 0L496 77.3V224c0 17.7-14.3 32-32 32s-32-14.3-32-32V77.3l-25.4 25.4c-12.5 12.5-32.8 12.5-45.3 0s-12.5-32.8 0-45.3l80-80c12.5-12.5 32.8-12.5 45.3 0l80 80c12.5 12.5 12.5 32.8 0 45.3z"/></svg>