<svg xmlns="http://www.w3.org/2000/svg" viewBox="0 0 640 512"><!--! Font Awesome Free 7.1.0 by @fontawesome - https://fontawesome.com License - https://fontawesome.com/license/free (Icons: CC BY 4.0, Fonts: SIL OFL 1.1, Code: MIT License) Copyright 2025 Fonticons, Inc.--><path d="M280 24a56 56 0 1 0-112 0 56 56 0 1 0 112 0m24 212.7 37 49.9c12.8-17.5 28.5-32.7 46.3-45l-56.2-75.7C306 132 266.3 112 224 112s-82 20-107.2 53.9l-70.5 95c-10.5 14.2-7.6 34.2 6.6 44.8s34.2 7.6 44.8-6.6l46.3-62.4V512c0 17.7 14.3 32 32 32s32-14.3 32-32V352c0-8.8 7.2-16 16-16s16 7.2 16 16v160c0 17.7 14.3 32 32 32s32-14.3 32-32zM496 544a144 144 0 1 0 0-288 144 144 0 1 0 0 288m22.6-144 36.7 36.7c6.2 6.2 6.2 16.4 0 22.6s-16.4 6.2-22.6 0L496 422.6l-36.7 36.7c-6.2 6.2-16.4 6.2-22.6 0s-6.2-16.4 0-22.6l36.7-36.7-36.7-36.7c-6.2-6.2-6.2-16.4 0-22.6s16.4-6.2 22.6 0l36.7 36.7 36.7-36.7c6.2-6.2 16.4-6.2 22.6 0s6.2 16.4 0 22.6z"/></svg>