<svg xmlns="http://www.w3.org/2000/svg" viewBox="0 0 512 512"><!--! Font Awesome Free 7.1.0 by @fontawesome - https://fontawesome.com License - https://fontawesome.com/license/free (Icons: CC BY 4.0, Fonts: SIL OFL 1.1, Code: MIT License) Copyright 2025 Fonticons, Inc.--><path d="M264.3 24a56 56 0 1 1 112 0 56 56 0 1 1-112 0m-8 181.3-22.6 22.6c-6 6-9.4 14.1-9.4 22.6V288c0 12.3-7 23-17.2 28.4-.9 4.2-2.4 8.4-4.3 12.3l-69 138.1-.8-.4-27.7 55.3c-9.9 19.8-33.9 27.8-53.7 17.9l-37-18.6c-19.8-9.9-27.8-33.9-17.9-53.7l50.6-101c9.9-19.8 33.9-27.8 53.7-17.9l30.7 15.3 28.3-56.6c.3-.6.4-1.2.4-1.8v-54.9c0-25.5 10.1-49.9 28.1-67.9l35.1-35.1c22.8-22.8 53.6-35.6 85.8-35.6 36.9 0 71.8 16.8 94.8 45.6l17.9 22.6c6.1 7.6 15.3 12 25 12h33.2c17.7 0 32 14.3 32 32s-14.3 32-32 32h-33.2c-29.2 0-56.7-13.3-75-36l-3.8-4.7v115.2l34.5 29.6c17.7 15.2 29.3 36.2 32.6 59.3l12.6 88.1c2.5 17.5-9.7 33.7-27.2 36.2s-33.7-9.7-36.2-27.2L372 428.4c-1.1-7.7-5-14.7-10.9-19.8l-71.4-61.2c-21.3-18.2-33.5-44.9-33.5-72.9v-69.3zm.1 165.8c2.4 2.3 4.8 4.6 7.4 6.8l46 39.4-2.2 7.6c-4.5 15.7-12.9 30-24.4 41.5l-68.3 68.3c-12.5 12.5-32.8 12.5-45.3 0s-12.5-32.8 0-45.3l68.4-68.3c3.8-3.8 6.6-8.6 8.1-13.8l10.3-36.3z"/></svg>