<svg xmlns="http://www.w3.org/2000/svg" viewBox="0 0 448 512"><!--! Font Awesome Free 7.1.0 by @fontawesome - https://fontawesome.com License - https://fontawesome.com/license/free (Icons: CC BY 4.0, Fonts: SIL OFL 1.1, Code: MIT License) Copyright 2025 Fonticons, Inc.--><path d="M112 32c-17.7 0-32 14.3-32 32v104H56c-13.3 0-24 10.7-24 24s10.7 24 24 24h24v232c0 17.7 14.3 32 32 32s32-14.3 32-32v-96h96c80.2 0 146.6-59 158.2-136H424c13.3 0 24-10.7 24-24s-10.7-24-24-24h-25.8C386.6 91 320.2 32 240 32zm221 136H144V96h96c44.7 0 82.3 30.6 93 72m-189 48h189c-10.7 41.4-48.2 72-93 72h-96z"/></svg>