<svg xmlns="http://www.w3.org/2000/svg" viewBox="0 0 448 512"><!--! Font Awesome Free 7.1.0 by @fontawesome - https://fontawesome.com License - https://fontawesome.com/license/free (Icons: CC BY 4.0, Fonts: SIL OFL 1.1, Code: MIT License) Copyright 2025 Fonticons, Inc.--><path d="M112 32c-17.7 0-32 14.3-32 32v64H56c-13.3 0-24 10.7-24 24s10.7 24 24 24h24v32H56c-13.3 0-24 10.7-24 24s10.7 24 24 24h24v192c0 17.7 14.3 32 32 32s32-14.3 32-32v-96h96c65.6 0 122-39.5 146.7-96H424c13.3 0 24-10.7 24-24s-10.7-24-24-24h-24.8c.5-5.3.8-10.6.8-16s-.3-10.7-.8-16H424c13.3 0 24-10.7 24-24s-10.7-24-24-24h-37.3C362 71.5 305.6 32 240 32zm199.6 96H144V96h96c28.4 0 54 12.4 71.6 32M144 176h190.7c.9 5.2 1.3 10.5 1.3 16s-.5 10.8-1.3 16H144zm167.6 80c-17.6 19.6-43.1 32-71.6 32h-96v-32z"/></svg>