<svg xmlns="http://www.w3.org/2000/svg" viewBox="0 0 576 512"><!--! Font Awesome Free 7.1.0 by @fontawesome - https://fontawesome.com License - https://fontawesome.com/license/free (Icons: CC BY 4.0, Fonts: SIL OFL 1.1, Code: MIT License) Copyright 2025 Fonticons, Inc.--><path d="M344-32c128.1 0 232 103.9 232 232 0 13.3-10.7 24-24 24s-24-10.7-24-24c0-101.6-82.4-184-184-184-13.3 0-24-10.7-24-24s10.7-24 24-24m8 192a32 32 0 1 1 0 64 32 32 0 1 1 0-64m-32-72c0-13.3 10.7-24 24-24 75.1 0 136 60.9 136 136 0 13.3-10.7 24-24 24s-24-10.7-24-24c0-48.6-39.4-88-88-88-13.3 0-24-10.7-24-24M144.1 1.4c19.7-5.4 40.3 4.7 48.1 23.5l40.5 97.3c6.9 16.5 2.1 35.6-11.8 47l-44.1 36.1c32.5 71.6 89 130 159.3 164.9l38.6-47.2c11.3-13.9 30.4-18.6 47-11.8l97.3 40.6c18.8 7.8 28.9 28.4 23.5 48.1l-1.5 5.5c-17.6 64.7-80.1 119.9-156.4 103.8-175-37.1-312.7-174.8-349.8-349.8C18.7 83.1 73.9 20.6 138.5 2.9l5.5-1.5z"/></svg>