<svg xmlns="http://www.w3.org/2000/svg" viewBox="0 0 576 512"><!--! Font Awesome Free 7.1.0 by @fontawesome - https://fontawesome.com License - https://fontawesome.com/license/free (Icons: CC BY 4.0, Fonts: SIL OFL 1.1, Code: MIT License) Copyright 2025 Fonticons, Inc.--><path d="M288-32a96 96 0 1 1 0 192 96 96 0 1 1 0-192M48 304c0-70.1 47-131.4 117.1-164.9C190.4 180.4 236 208 288 208c55.7 0 104.1-31.7 128-78 15.8-11.3 35.1-18 56-18h19.5c10.4 0 18 9.8 15.5 19.9l-17.1 68.3c9.9 12.4 18.2 25.7 24.4 39.8H536c13.3 0 24 10.7 24 24v112c0 13.3-10.7 24-24 24h-40c-16.5 22-38.5 39.6-64 50.7V480c0 17.7-14.3 32-32 32h-33c-14.3 0-26.8-9.5-30.8-23.2l-7.1-24.8h-82.3l-7.1 24.8c-3.9 13.7-16.4 23.2-30.7 23.2h-33c-17.7 0-32-14.3-32-32v-29.3C87.5 426 48 369.6 48 304m376 16a24 24 0 1 0 0-48 24 24 0 1 0 0 48"/></svg>