<svg xmlns="http://www.w3.org/2000/svg" viewBox="0 0 512 512"><!--! Font Awesome Free 7.1.0 by @fontawesome - https://fontawesome.com License - https://fontawesome.com/license/free (Icons: CC BY 4.0, Fonts: SIL OFL 1.1, Code: MIT License) Copyright 2025 Fonticons, Inc.--><path d="m97 127 67.4-67.4c38.2-38.2 90-59.6 144-59.6 112.5 0 203.7 91.2 203.7 203.6 0 46.4-15.8 91.1-44.5 127-23.6-16.8-52.4-26.7-83.5-26.7s-59.9 9.9-83.4 26.6zm143 321c0 9.7 1 19.1 2.8 28.2-19.8-5.2-38-15.5-52.7-30.2-12.2-12.2-31.9-12.2-44.1 0l-49.4 49.4C86 506 71.6 512 56.6 512 25.4 512 0 486.7 0 455.4c0-15 6-29.4 16.6-40L66 366c12.2-12.2 12.2-31.9 0-44.1-21.7-21.7-33.9-51.2-33.9-81.9 0-29.4 11.1-57.6 31.1-79l203.4 203.6C249.9 388.1 240 416.9 240 448m144-96a96 96 0 1 1 0 192 96 96 0 1 1 0-192"/></svg>