<svg xmlns="http://www.w3.org/2000/svg" viewBox="0 0 512 512"><!--! Font Awesome Free 7.1.0 by @fontawesome - https://fontawesome.com License - https://fontawesome.com/license/free (Icons: CC BY 4.0, Fonts: SIL OFL 1.1, Code: MIT License) Copyright 2025 Fonticons, Inc.--><path d="M169.7.9c-22.8-1.6-41.9 14-47.5 34.7L112.5 72c180.8.3 327.2 146.7 327.5 327.5l36.4-9.7c20.8-5.5 36.3-24.7 34.7-47.5C498.5 159.5 352.5 13.5 169.7.9m222 411.5c.2-4.1.3-8.2.3-12.4 0-154.6-125.4-280-280-280-4.1 0-8.3.1-12.4.3L.5 491.9c-1.5 5.5.1 11.4 4.1 15.4s9.9 5.6 15.4 4.1l371.6-99.1zM176 208a32 32 0 1 1 0 64 32 32 0 1 1 0-64m64 128a32 32 0 1 1 64 0 32 32 0 1 1-64 0M96 384a32 32 0 1 1 64 0 32 32 0 1 1-64 0"/></svg>