<svg xmlns="http://www.w3.org/2000/svg" viewBox="0 0 512 512"><!--! Font Awesome Free 7.1.0 by @fontawesome - https://fontawesome.com License - https://fontawesome.com/license/free (Icons: CC BY 4.0, Fonts: SIL OFL 1.1, Code: MIT License) Copyright 2025 Fonticons, Inc.--><path d="M200 24c0-30.9 25.1-56 56-56s56 25.1 56 56v127.3l173.6 159.2c6.6 6.1 10.4 14.6 10.4 23.6v43.7c0 10.9-10.7 18.6-21.1 15.2L312 338.7v99.7l66 52.8c3.8 3 6 7.6 6 12.5v19.8c0 10.4-9.8 18-19.9 15.5L256 512l-108.1 27c-10.1 2.5-19.9-5.1-19.9-15.5v-19.8c0-4.9 2.2-9.5 6-12.5l66-52.8v-99.7L37.1 393c-10.4 3.4-21.1-4.3-21.1-15.2v-43.7c0-9 3.8-17.5 10.4-23.6L200 151.3z"/></svg>