<svg xmlns="http://www.w3.org/2000/svg" viewBox="0 0 640 512"><!--! Font Awesome Free 7.1.0 by @fontawesome - https://fontawesome.com License - https://fontawesome.com/license/free (Icons: CC BY 4.0, Fonts: SIL OFL 1.1, Code: MIT License) Copyright 2025 Fonticons, Inc.--><path d="M232 24c0-30.9 25.1-56 56-56s56 25.1 56 56v127.3l78 71.5c-69.3 29-118 97.4-118 177.2 0 49.3 18.6 94.3 49.1 128.3L288 512l-108.1 27c-10.1 2.5-19.9-5.1-19.9-15.5v-19.8c0-4.9 2.2-9.5 6-12.5l66-52.8v-99.7L69.1 393c-10.4 3.4-21.1-4.3-21.1-15.2v-43.7c0-9 3.8-17.5 10.4-23.6L232 151.3zm264 232a144 144 0 1 1 0 288 144 144 0 1 1 0-288m0 228a20 20 0 1 0 0-40 20 20 0 1 0 0 40m0-180c-8.8 0-16 7.2-16 16v80c0 8.8 7.2 16 16 16s16-7.2 16-16v-80c0-8.8-7.2-16-16-16"/></svg>