<svg xmlns="http://www.w3.org/2000/svg" viewBox="0 0 576 512"><!--! Font Awesome Free 7.1.0 by @fontawesome - https://fontawesome.com License - https://fontawesome.com/license/free (Icons: CC BY 4.0, Fonts: SIL OFL 1.1, Code: MIT License) Copyright 2025 Fonticons, Inc.--><path d="M41-24.9c-9.4-9.4-24.6-9.4-33.9 0S-2.3-.3 7 9.1l528 528c9.4 9.4 24.6 9.4 33.9 0s9.4-24.6 0-33.9L385.5 319.8l7.1-7.7h127.3c30.9 0 56-25.1 56-56s-25.1-56-56-56l-127.2-.1L233.5 26.4c-6-6.6-14.6-10.4-23.6-10.4h-43.7c-10.9 0-18.6 10.7-15.2 21.1l24.1 72.1zM130.2 200h-24.6l-52.8-66c-3-3.8-7.6-6-12.5-6H20.5c-10.4 0-18 9.8-15.5 19.9L32 256 5 364.1C2.4 374.2 10.1 384 20.5 384h19.8c4.9 0 9.5-2.2 12.5-6l52.8-66h99.7L151 474.9c-3.5 10.4 4.3 21.1 15.2 21.1h43.7c9 0 17.5-3.8 23.6-10.4l87.2-95.1z"/></svg>