<svg xmlns="http://www.w3.org/2000/svg" viewBox="0 0 576 512"><!--! Font Awesome Free 7.1.0 by @fontawesome - https://fontawesome.com License - https://fontawesome.com/license/free (Icons: CC BY 4.0, Fonts: SIL OFL 1.1, Code: MIT License) Copyright 2025 Fonticons, Inc.--><path d="M520 200c30.9 0 56 25.1 56 56s-25.1 56-56 56H392.7L233.5 485.6c-6.1 6.6-14.6 10.4-23.6 10.4h-43.7c-10.9 0-18.6-10.7-15.2-21.1L205.3 312h-99.7l-52.8 66c-3 3.8-7.6 6-12.5 6H20.5c-10.4 0-18-9.8-15.5-19.9L32 256 5 147.9C2.4 137.8 10.1 128 20.5 128h19.8c4.9 0 9.5 2.2 12.5 6l52.8 66h99.7L151 37.1c-3.4-10.4 4.3-21.1 15.2-21.1h43.7c9 0 17.5 3.8 23.6 10.4L392.7 200z"/></svg>