<svg xmlns="http://www.w3.org/2000/svg" viewBox="0 0 640 512"><!--! Font Awesome Free 7.1.0 by @fontawesome - https://fontawesome.com License - https://fontawesome.com/license/free (Icons: CC BY 4.0, Fonts: SIL OFL 1.1, Code: MIT License) Copyright 2025 Fonticons, Inc.--><path d="M192-32c17.7 0 32 14.3 32 32v96h128V0c0-17.7 14.3-32 32-32s32 14.3 32 32v96h64c17.7 0 32 14.3 32 32s-14.3 32-32 32v48.7c-98.6 8.1-176 90.7-176 191.3 0 27.3 5.7 53.3 16 76.9v3.1c0 17.7-14.3 32-32 32s-32-14.3-32-32v-66.7C165.2 398.1 96 319.1 96 224v-64c-17.7 0-32-14.3-32-32s14.3-32 32-32h64V0c0-17.7 14.3-32 32-32m160 432a144 144 0 1 1 288 0 144 144 0 1 1-288 0m177.4-77c-5.8-4.2-13.8-4-19.4.5l-80 64c-5.3 4.2-7.4 11.4-5.1 17.8S433.2 416 440 416h32.9L457 458.4c-2.5 6.7-.2 14.3 5.6 18.6s13.8 4 19.4-.5l80-64c5.3-4.2 7.4-11.4 5.1-17.8S558.8 384 552 384h-32.9l15.9-42.4c2.5-6.7.2-14.3-5.6-18.6"/></svg>