<svg xmlns="http://www.w3.org/2000/svg" viewBox="0 0 448 512"><!--! Font Awesome Free 7.1.0 by @fontawesome - https://fontawesome.com License - https://fontawesome.com/license/free (Icons: CC BY 4.0, Fonts: SIL OFL 1.1, Code: MIT License) Copyright 2025 Fonticons, Inc.--><path d="M128-32c17.7 0 32 14.3 32 32v96h128V0c0-17.7 14.3-32 32-32s32 14.3 32 32v96h64c17.7 0 32 14.3 32 32s-14.3 32-32 32v64c0 95.1-69.2 174.1-160 189.3V480c0 17.7-14.3 32-32 32s-32-14.3-32-32v-66.7C101.2 398.1 32 319.1 32 224v-64c-17.7 0-32-14.3-32-32s14.3-32 32-32h64V0c0-17.7 14.3-32 32-32"/></svg>