<svg xmlns="http://www.w3.org/2000/svg" viewBox="0 0 640 512"><!--! Font Awesome Free 7.1.0 by @fontawesome - https://fontawesome.com License - https://fontawesome.com/license/free (Icons: CC BY 4.0, Fonts: SIL OFL 1.1, Code: MIT License) Copyright 2025 Fonticons, Inc.--><path d="M192-32c17.7 0 32 14.3 32 32v96h128V0c0-17.7 14.3-32 32-32s32 14.3 32 32v96h64c17.7 0 32 14.3 32 32s-14.3 32-32 32v48.7c-98.6 8.1-176 90.7-176 191.3 0 27.3 5.7 53.3 16 76.9v3.1c0 17.7-14.3 32-32 32s-32-14.3-32-32v-66.7C165.2 398.1 96 319.1 96 224v-64c-17.7 0-32-14.3-32-32s14.3-32 32-32h64V0c0-17.7 14.3-32 32-32m304 288a144 144 0 1 1 0 288 144 144 0 1 1 0-288m16 80c0-8.8-7.2-16-16-16s-16 7.2-16 16v48h-48c-8.8 0-16 7.2-16 16s7.2 16 16 16h48v48c0 8.8 7.2 16 16 16s16-7.2 16-16v-48h48c8.8 0 16-7.2 16-16s-7.2-16-16-16h-48z"/></svg>