<svg xmlns="http://www.w3.org/2000/svg" viewBox="0 0 640 512"><!--! Font Awesome Free 7.1.0 by @fontawesome - https://fontawesome.com License - https://fontawesome.com/license/free (Icons: CC BY 4.0, Fonts: SIL OFL 1.1, Code: MIT License) Copyright 2025 Fonticons, Inc.--><path d="M192-32c17.7 0 32 14.3 32 32v96h128V0c0-17.7 14.3-32 32-32s32 14.3 32 32v96h64c17.7 0 32 14.3 32 32s-14.3 32-32 32v48.7c-98.6 8.1-176 90.7-176 191.3 0 27.3 5.7 53.3 16 76.9v3.1c0 17.7-14.3 32-32 32s-32-14.3-32-32v-66.7C165.2 398.1 96 319.1 96 224v-64c-17.7 0-32-14.3-32-32s14.3-32 32-32h64V0c0-17.7 14.3-32 32-32m304 288a144 144 0 1 1 0 288 144 144 0 1 1 0-288m59.3 107.3c6.2-6.2 6.2-16.4 0-22.6s-16.4-6.2-22.6 0L496 377.4l-36.7-36.7c-6.2-6.2-16.4-6.2-22.6 0s-6.2 16.4 0 22.6l36.7 36.7-36.7 36.7c-6.2 6.2-6.2 16.4 0 22.6s16.4 6.2 22.6 0l36.7-36.7 36.7 36.7c6.2 6.2 16.4 6.2 22.6 0s6.2-16.4 0-22.6L518.6 400z"/></svg>