<svg xmlns="http://www.w3.org/2000/svg" viewBox="0 0 640 512"><!--! Font Awesome Free 7.1.0 by @fontawesome - https://fontawesome.com License - https://fontawesome.com/license/free (Icons: CC BY 4.0, Fonts: SIL OFL 1.1, Code: MIT License) Copyright 2025 Fonticons, Inc.--><path d="M224 296c0 13.3-10.7 24-24 24s-24-10.7-24-24V183.4l88.2-119.7c13.1-17.8 9.3-42.8-8.5-55.9s-42.8-9.3-55.9 8.5l-93.3 126.6C89.3 166.2 80 194.5 80 223.6v110.7l-58.1 19.4C8.8 358 0 370.2 0 384v96c0 10 4.7 19.5 12.7 25.5s18.4 8 28.1 5.2l154.4-44.1c55-15.7 92.8-65.9 92.8-123.1V224c0-17.7-14.3-32-32-32s-32 14.3-32 32zm192 0v-72c0-17.7-14.3-32-32-32s-32 14.3-32 32v119.6c0 57.2 37.9 107.4 92.8 123.1l154.4 44.1c9.7 2.8 20 .8 28.1-5.2S640 490 640 480v-96c0-13.8-8.8-26-21.9-30.4L560 334.2V223.5c0-29-9.3-57.3-26.5-80.7L440.2 16.3c-13.1-17.8-38.1-21.6-55.9-8.5s-21.6 38.1-8.5 55.9L464 183.4V296c0 13.3-10.7 24-24 24s-24-10.7-24-24"/></svg>