<svg xmlns="http://www.w3.org/2000/svg" viewBox="0 0 320 512"><!--! Font Awesome Free 7.1.0 by @fontawesome - https://fontawesome.com License - https://fontawesome.com/license/free (Icons: CC BY 4.0, Fonts: SIL OFL 1.1, Code: MIT License) Copyright 2025 Fonticons, Inc.--><path d="M96 0v80h128V56h72c13.3 0 24-10.7 24-24S309.3 8 296 8h-72V0c0-17.7-14.3-32-32-32h-64c-17.7 0-32 14.3-32 32M64 128c-35.3 0-64 28.7-64 64v256c0 35.3 28.7 64 64 64h192c35.3 0 64-28.7 64-64V192c0-35.3-28.7-64-64-64zm64 120c0-8.8 7.2-16 16-16h32c8.8 0 16 7.2 16 16v40h40c8.8 0 16 7.2 16 16v32c0 8.8-7.2 16-16 16h-40v40c0 8.8-7.2 16-16 16h-32c-8.8 0-16-7.2-16-16v-40H88c-8.8 0-16-7.2-16-16v-32c0-8.8 7.2-16 16-16h40z"/></svg>