<svg xmlns="http://www.w3.org/2000/svg" viewBox="0 0 320 512"><!--! Font Awesome Free 7.1.0 by @fontawesome - https://fontawesome.com License - https://fontawesome.com/license/free (Icons: CC BY 4.0, Fonts: SIL OFL 1.1, Code: MIT License) Copyright 2025 Fonticons, Inc.--><path d="M64 160c0-53 43-96 96-96s96 43 96 96c0 42.7-27.9 78.9-66.5 91.4-28.4 9.2-61.5 35.3-61.5 76.6v24c0 17.7 14.3 32 32 32s32-14.3 32-32v-24c0-1.7.6-4.1 3.5-7.3 3-3.3 7.9-6.5 13.7-8.4C273.5 291.6 320 231.3 320 160 320 71.6 248.4 0 160 0S0 71.6 0 160c0 17.7 14.3 32 32 32s32-14.3 32-32m96 352c22.1 0 40-17.9 40-40s-17.9-40-40-40-40 17.9-40 40 17.9 40 40 40"/></svg>