<svg xmlns="http://www.w3.org/2000/svg" viewBox="0 0 576 512"><!--! Font Awesome Free 7.1.0 by @fontawesome - https://fontawesome.com License - https://fontawesome.com/license/free (Icons: CC BY 4.0, Fonts: SIL OFL 1.1, Code: MIT License) Copyright 2025 Fonticons, Inc.--><path d="M496 544a80 80 0 1 1 0-160 80 80 0 1 1 0 160M106.8 277.2c30.6-30.6 73.1-45.9 115.8-42.2L341 353.3c3.7 42.8-11.6 85.2-42.2 115.9-27.4 27.4-64.6 42.8-103.3 42.8H22.1C9.9 512 0 502.1 0 489.9c0-6.3 2.7-12.3 7.3-16.5l126.4-113.7c4.2-3.7-.4-10.4-5.4-7.9l-51.1 25.6c-6.1 3-13.2-1.4-13.2-8.2 0-31.5 12.5-61.8 34.8-84zm417-270c12.6-10.3 31.1-9.5 42.8 2.2s12.4 30.2 2.2 42.8l-2.2 2.4-192 192 34.8 34.7c4.2 4.2 6.6 10 6.6 16 0 12.5-10.1 22.6-22.6 22.6h-29.1L256 211.6v-29.1c0-12.5 10.1-22.6 22.6-22.6 6 0 11.8 2.4 16 6.6l34.8 34.7 192-192 2.4-2.2z"/></svg>