<svg xmlns="http://www.w3.org/2000/svg" viewBox="0 0 448 512"><!--! Font Awesome Free 7.1.0 by @fontawesome - https://fontawesome.com License - https://fontawesome.com/license/free (Icons: CC BY 4.0, Fonts: SIL OFL 1.1, Code: MIT License) Copyright 2025 Fonticons, Inc.--><path d="M64 512h288c53 0 96-43 96-96V96c0-53-43-96-96-96H48C21.5 0 0 21.5 0 48v288c0 20.9 13.4 38.7 32 45.3V448c-17.7 0-32 14.3-32 32s14.3 32 32 32zm288-128c17.7 0 32 14.3 32 32s-14.3 32-32 32H96v-64zm-78.9-239.6c2.5-6.1 11.2-6.1 13.7 0l10.3 24.8 26.8 2.1c6.6.5 9.2 8.7 4.2 13l-20.3 17.6L314 228c1.5 6.4-5.5 11.5-11.1 8.1l-22.9-14-22.9 14c-5.6 3.4-12.6-1.6-11.1-8.1l6.2-26.1-20.4-17.5c-5-4.3-2.3-12.5 4.2-13l26.8-2.1 10.3-24.8zM100 192c0-68.5 55.5-124 124-124 23.8 0 46.1 6.7 65 18.4 4.8 2.9 6.9 8.8 5 14.1s-7.1 8.6-12.7 8c-3.1-.3-6.2-.5-9.4-.5-46.4 0-84 37.6-84 84s37.6 84 84 84c3.2 0 6.3-.2 9.4-.5 5.6-.6 10.8 2.7 12.7 8s-.3 11.2-5 14.1c-18.9 11.7-41.2 18.4-65 18.4-68.5 0-124-55.5-124-124"/></svg>