<svg xmlns="http://www.w3.org/2000/svg" viewBox="0 0 320 512"><!--! Font Awesome Free 7.1.0 by @fontawesome - https://fontawesome.com License - https://fontawesome.com/license/free (Icons: CC BY 4.0, Fonts: SIL OFL 1.1, Code: MIT License) Copyright 2025 Fonticons, Inc.--><path d="M32 32C14.3 32 0 46.3 0 64v384c0 17.7 14.3 32 32 32s32-14.3 32-32V320h95.3l102.4 146.4c10.1 14.5 30.1 18 44.6 7.9s18-30.1 7.9-44.6l-84.1-120.2C282.8 288.1 320 236.4 320 176c0-79.5-64.5-144-144-144zm144 224H64V96h112c44.2 0 80 35.8 80 80s-35.8 80-80 80"/></svg>