<svg xmlns="http://www.w3.org/2000/svg" viewBox="0 0 576 512"><!--! Font Awesome Free 7.1.0 by @fontawesome - https://fontawesome.com License - https://fontawesome.com/license/free (Icons: CC BY 4.0, Fonts: SIL OFL 1.1, Code: MIT License) Copyright 2025 Fonticons, Inc.--><path d="M446.2 34.5C432 24.4 412.7 29.9 404 45l-72.4 125.3c31.3 15.8 52.8 48.3 52.8 85.7h144c17.7 0 32.2-14.4 30.1-31.9C549.4 146 507.1 78 446.2 34.5M172.7 44.9c-8.7-15.1-28-20.6-42.2-10.4C69.6 77.9 27.3 145.9 18.2 224.1 16.1 241.6 30.7 256 48.3 256h144c0-37.5 21.5-69.9 52.8-85.7zm-9.4 416.8c-8.7 15.1-3.8 34.5 12 41.8 34.4 15.7 72.7 24.5 113 24.5s78.6-8.8 113-24.5c15.8-7.2 20.7-26.7 12-41.8L341 336.3c-15.1 9.9-33.2 15.7-52.6 15.7s-37.5-5.8-52.6-15.7zm125-157.7a48 48 0 1 0-.7-96 48 48 0 1 0 .7 96"/></svg>