<svg xmlns="http://www.w3.org/2000/svg" viewBox="0 0 640 512"><!--! Font Awesome Free 7.1.0 by @fontawesome - https://fontawesome.com License - https://fontawesome.com/license/free (Icons: CC BY 4.0, Fonts: SIL OFL 1.1, Code: MIT License) Copyright 2025 Fonticons, Inc.--><path d="M320 96C178.6 96 64 210.6 64 352v64c0 17.7-14.3 32-32 32S0 433.7 0 416v-64C0 175.3 143.3 32 320 32s320 143.3 320 320v64c0 17.7-14.3 32-32 32s-32-14.3-32-32v-64c0-141.4-114.6-256-256-256m0 112c-79.5 0-144 64.5-144 144v64c0 17.7-14.3 32-32 32s-32-14.3-32-32v-64c0-114.9 93.1-208 208-208s208 93.1 208 208v64c0 17.7-14.3 32-32 32s-32-14.3-32-32v-64c0-79.5-64.5-144-144-144m-32 144v64c0 17.7-14.3 32-32 32s-32-14.3-32-32v-64c0-53 43-96 96-96s96 43 96 96v64c0 17.7-14.3 32-32 32s-32-14.3-32-32v-64c0-17.7-14.3-32-32-32s-32 14.3-32 32"/></svg>