<svg xmlns="http://www.w3.org/2000/svg" viewBox="0 0 512 512"><!--! Font Awesome Free 7.1.0 by @fontawesome - https://fontawesome.com License - https://fontawesome.com/license/free (Icons: CC BY 4.0, Fonts: SIL OFL 1.1, Code: MIT License) Copyright 2025 Fonticons, Inc.--><path d="M152.3 60c46.2-80 161.7-80 207.9 0l37.3 64.6 27.7-16c8.4-4.9 18.9-4.2 26.6 1.7s11.1 15.9 8.6 25.3L436.9 223c-3.4 12.8-16.6 20.4-29.4 17l-87.4-23.4c-9.4-2.5-16.3-10.4-17.6-20s3.4-19.1 11.8-23.9l27.7-16-37.3-64.6c-21.6-37.3-75.4-37.3-97 0l-5.3 9.1c-8.8 15.3-28.4 20.5-43.7 11.7S138.2 84.5 147 69.1zm297.4 219.1c15.3-8.8 34.9-3.6 43.7 11.7l5.3 9.1c46.2 80-11.5 180-103.9 180h-74.6v32c0 9.7-5.8 18.5-14.8 22.2s-19.3 1.7-26.2-5.2l-64-64c-9.4-9.4-9.4-24.6 0-33.9l64-64c6.9-6.9 17.2-8.9 26.2-5.2s14.8 12.5 14.8 22.2v32h74.6c43.1 0 70.1-46.7 48.5-84l-5.3-9.1c-8.8-15.3-3.6-34.9 11.7-43.7zM51 235.4l-27.7-16c-8.4-4.9-13.1-14.3-11.8-23.9s8.2-17.5 17.6-20l87.4-23.5c12.8-3.4 26 4.2 29.4 17l23.4 87.4c2.5 9.4-.9 19.3-8.6 25.3s-18.2 6.6-26.6 1.7l-27.7-16L69.1 332c-21.6 37.3 5.4 84 48.5 84h10.6c17.7 0 32 14.3 32 32s-14.3 32-32 32h-10.6c-92.3 0-150-100-103.8-180z"/></svg>