<svg xmlns="http://www.w3.org/2000/svg" viewBox="0 0 512 512"><!--! Font Awesome Free 7.1.0 by @fontawesome - https://fontawesome.com License - https://fontawesome.com/license/free (Icons: CC BY 4.0, Fonts: SIL OFL 1.1, Code: MIT License) Copyright 2025 Fonticons, Inc.--><path d="M256 512a256 256 0 1 0 0-512 256 256 0 1 0 0 512m-56-368h80c39.8 0 72 32.2 72 72 0 28.9-17 53.8-41.6 65.3l30.2 50.3c6.8 11.4 3.1 26.1-8.2 32.9s-26.1 3.1-32.9-8.2l-41-68.3h-34.4v56c0 13.3-10.7 24-24 24s-24-10.7-24-24V168c0-13.3 10.7-24 24-24zm72 96h8c13.3 0 24-10.7 24-24s-10.7-24-24-24h-56v48z"/></svg>