<svg xmlns="http://www.w3.org/2000/svg" viewBox="0 0 576 512"><!--! Font Awesome Free 7.1.0 by @fontawesome - https://fontawesome.com License - https://fontawesome.com/license/free (Icons: CC BY 4.0, Fonts: SIL OFL 1.1, Code: MIT License) Copyright 2025 Fonticons, Inc.--><path d="M41-24.9c-9.4-9.4-24.6-9.4-33.9 0S-2.3-.3 7 9.1l528 528c9.4 9.4 24.6 9.4 33.9 0s9.4-24.6 0-33.9L322.7 256.9 368.2 96H471l-6 24.2c-4.3 17.1 6.1 34.5 23.3 38.8s34.5-6.1 38.8-23.3l11-44.1c7.5-30.3-15.4-59.6-46.6-59.6h-319c-19.8 0-37.3 12.1-44.5 30.1zm139.4 139.4L185 96h116.7l-30.8 109zM241 310.8 211.3 416H160c-17.7 0-32 14.3-32 32s14.3 32 32 32h160c17.7 0 32-14.3 32-32s-14.3-32-32-32h-42.2l15.1-53.3z"/></svg>