<svg xmlns="http://www.w3.org/2000/svg" viewBox="0 0 640 512"><!--! Font Awesome Free 7.1.0 by @fontawesome - https://fontawesome.com License - https://fontawesome.com/license/free (Icons: CC BY 4.0, Fonts: SIL OFL 1.1, Code: MIT License) Copyright 2025 Fonticons, Inc.--><path d="M0 192C0 103.6 71.6 32 160 32h224c88.4 0 160 71.6 160 160v64H0zm152-32a24 24 0 1 0-48 0 24 24 0 1 0 48 0m232 24a24 24 0 1 0 0-48 24 24 0 1 0 0 48m-104-24a24 24 0 1 0-48 0 24 24 0 1 0 48 0M128 288h416v112c0 8.8 7.2 16 16 16s16-7.2 16-16v-48c0-17.7 14.3-32 32-32s32 14.3 32 32v48c0 44.2-35.8 80-80 80s-80-35.8-80-80v-48h-32v96c0 17.7-14.3 32-32 32h-64c-17.7 0-32-14.3-32-32v-64H128v64c0 17.7-14.3 32-32 32H32c-17.7 0-32-14.3-32-32V288z"/></svg>