<svg xmlns="http://www.w3.org/2000/svg" viewBox="0 0 384 512"><!--! Font Awesome Free 7.1.0 by @fontawesome - https://fontawesome.com License - https://fontawesome.com/license/free (Icons: CC BY 4.0, Fonts: SIL OFL 1.1, Code: MIT License) Copyright 2025 Fonticons, Inc.--><path d="M235.1 0c33.4 0 64.5 17.4 81.9 45.9 1.2 2 13 21.3 35.3 57.8 21.1 34.5 18.3 78.5-7 110l-67 84L364.5 406c5.5 6.9 4.4 16.9-2.5 22.5l-80 64c-6.9 5.5-17 4.4-22.5-2.5L38.6 213.8c-25.3-31.5-28.1-75.5-7-110C54 67.2 65.7 47.9 67 45.9 84.4 17.4 115.4 0 148.9 0h86.3zM192 189.2l48.6-61.2h-97.3l48.6 61.2zm-117 147L161.2 444l-36.8 46c-5.5 6.9-15.6 8-22.5 2.5l-80-64c-6.9-5.5-8-15.6-2.5-22.5z"/></svg>