<svg xmlns="http://www.w3.org/2000/svg" viewBox="0 0 640 512"><!--! Font Awesome Free 7.1.0 by @fontawesome - https://fontawesome.com License - https://fontawesome.com/license/free (Icons: CC BY 4.0, Fonts: SIL OFL 1.1, Code: MIT License) Copyright 2025 Fonticons, Inc.--><path d="M287.9 32h-76.2c-29.4 0-55.1 20.1-62.1 48.6L65.4 420.5C57.9 450.7 80.8 480 112 480h209.4c-11.2-24.4-17.4-51.4-17.4-80s6.2-55.7 17.4-80h-1.6c-17.7 0-32-14.3-32-32v-64c0-17.7 14.3-32 32-32s32 14.3 32 32v49.2C387 233.2 438.5 208 496 208q13.5 0 26.4 1.8l-32-129.2c-7-28.5-32.6-48.6-62.1-48.6h-76.5v64c0 17.7-14.3 32-32 32s-32-14.3-32-32V32zM496 544a144 144 0 1 0 0-288 144 144 0 1 0 0 288m59.3-180.7L518.6 400l36.7 36.7c6.2 6.2 6.2 16.4 0 22.6s-16.4 6.2-22.6 0L496 422.6l-36.7 36.7c-6.2 6.2-16.4 6.2-22.6 0s-6.2-16.4 0-22.6l36.7-36.7-36.7-36.7c-6.2-6.2-6.2-16.4 0-22.6s16.4-6.2 22.6 0l36.7 36.7 36.7-36.7c6.2-6.2 16.4-6.2 22.6 0s6.2 16.4 0 22.6"/></svg>