<svg xmlns="http://www.w3.org/2000/svg" viewBox="0 0 512 512"><!--! Font Awesome Free 7.1.0 by @fontawesome - https://fontawesome.com License - https://fontawesome.com/license/free (Icons: CC BY 4.0, Fonts: SIL OFL 1.1, Code: MIT License) Copyright 2025 Fonticons, Inc.--><path d="M223.9 32h-76.2c-29.4 0-55.1 20.1-62.1 48.6L1.4 420.5C-6.1 450.7 16.8 480 48 480h175.9v-64c0-17.7 14.3-32 32-32s32 14.3 32 32v64H464c31.2 0 54.1-29.3 46.6-59.5L426.5 80.6C419.4 52.1 393.8 32 364.3 32h-76.4v64c0 17.7-14.3 32-32 32s-32-14.3-32-32zm64 192v64c0 17.7-14.3 32-32 32s-32-14.3-32-32v-64c0-17.7 14.3-32 32-32s32 14.3 32 32"/></svg>