<svg xmlns="http://www.w3.org/2000/svg" viewBox="0 0 640 512"><!--! Font Awesome Free 7.1.0 by @fontawesome - https://fontawesome.com License - https://fontawesome.com/license/free (Icons: CC BY 4.0, Fonts: SIL OFL 1.1, Code: MIT License) Copyright 2025 Fonticons, Inc.--><path d="M288 32h-76.3c-29.4 0-55.1 20.1-62.1 48.6L65.4 420.5C57.9 450.7 80.8 480 112 480h209.4c-11.2-24.4-17.4-51.4-17.4-80s6.2-55.7 17.4-80h-1.5c-17.7 0-32-14.3-32-32v-64c0-17.7 14.3-32 32-32s32 14.3 32 32v49c35.2-39.9 86.7-65 144-65 9 0 17.8.6 26.5 1.8l-32-129.2c-7-28.5-32.6-48.6-62.1-48.6h-76.4v64c0 17.7-14.3 32-32 32s-32-14.3-32-32V32zm352 368a144 144 0 1 0-288 0 144 144 0 1 0 288 0m-86.6-60.9c7.1 5.2 8.7 15.2 3.5 22.3l-64 88c-2.8 3.8-7 6.2-11.7 6.5s-9.3-1.3-12.6-4.6l-40-40c-6.2-6.2-6.2-16.4 0-22.6s16.4-6.2 22.6 0l26.8 26.8 53-72.9c5.2-7.1 15.2-8.7 22.4-3.5"/></svg>