<svg xmlns="http://www.w3.org/2000/svg" viewBox="0 0 576 512"><!--! Font Awesome Free 7.1.0 by @fontawesome - https://fontawesome.com License - https://fontawesome.com/license/free (Icons: CC BY 4.0, Fonts: SIL OFL 1.1, Code: MIT License) Copyright 2025 Fonticons, Inc.--><path d="M256 32h-76.3c-29.4 0-55.1 20.1-62.1 48.6L33.4 420.5C25.9 450.7 48.8 480 80 480h175.9v-64c0-17.7 14.3-32 32-32 6.1 0 11.8 1.7 16.7 4.7 2.8-23.9 14.3-45.1 31.4-60.3V304c0-70.7 57.3-128 128-128 6.2 0 12.4.4 18.4 1.3l-23.9-96.7C451.4 52.1 425.8 32 396.3 32h-76.4v64c0 17.7-14.3 32-32 32s-32-14.3-32-32V32zm64 192v64c0 17.7-14.3 32-32 32s-32-14.3-32-32v-64c0-17.7 14.3-32 32-32s32 14.3 32 32m176 80.1V352h-64v-47.9c0-17.7 14.3-32 32-32s32 14.3 32 32M352 400v96c0 26.5 21.5 48 48 48h128c26.5 0 48-21.5 48-48v-96c0-20.9-13.4-38.7-32-45.3v-50.6c0-44.2-35.8-80-80-80s-80 35.8-80 80v50.6c-18.6 6.6-32 24.4-32 45.3"/></svg>