<svg xmlns="http://www.w3.org/2000/svg" viewBox="0 0 640 512"><!--! Font Awesome Free 7.1.0 by @fontawesome - https://fontawesome.com License - https://fontawesome.com/license/free (Icons: CC BY 4.0, Fonts: SIL OFL 1.1, Code: MIT License) Copyright 2025 Fonticons, Inc.--><path d="M352 0c0-17.7-14.3-32-32-32s-32 14.3-32 32v64h-96c-53 0-96 43-96 96v224c0 53 43 96 96 96h256c53 0 96-43 96-96V160c0-53-43-96-96-96h-96zM160 368c0-13.3 10.7-24 24-24h32c13.3 0 24 10.7 24 24s-10.7 24-24 24h-32c-13.3 0-24-10.7-24-24m120 0c0-13.3 10.7-24 24-24h32c13.3 0 24 10.7 24 24s-10.7 24-24 24h-32c-13.3 0-24-10.7-24-24m120 0c0-13.3 10.7-24 24-24h32c13.3 0 24 10.7 24 24s-10.7 24-24 24h-32c-13.3 0-24-10.7-24-24M224 176a48 48 0 1 1 0 96 48 48 0 1 1 0-96m144 48a48 48 0 1 1 96 0 48 48 0 1 1-96 0m-304 0c0-17.7-14.3-32-32-32S0 206.3 0 224v96c0 17.7 14.3 32 32 32s32-14.3 32-32zm544-32c-17.7 0-32 14.3-32 32v96c0 17.7 14.3 32 32 32s32-14.3 32-32v-96c0-17.7-14.3-32-32-32"/></svg>