<svg xmlns="http://www.w3.org/2000/svg" viewBox="0 0 512 512"><!--! Font Awesome Free 7.1.0 by @fontawesome - https://fontawesome.com License - https://fontawesome.com/license/free (Icons: CC BY 4.0, Fonts: SIL OFL 1.1, Code: MIT License) Copyright 2025 Fonticons, Inc.--><path d="M128 320H24.5c-24.9 0-40.2-27.1-27.4-48.5L50 183.3c8.7-14.5 24.3-23.3 41.2-23.3h95C262.3 31.1 375.8 24.6 451.7 35.7c12.8 1.9 22.8 11.9 24.6 24.6 11.1 75.9 4.6 189.4-124.3 265.5v95c0 16.9-8.8 32.5-23.3 41.2l-88.2 52.9c-21.3 12.8-48.5-2.6-48.5-27.4V384c0-35.3-28.7-64-64-64h-.1zm272-160a48 48 0 1 0-96 0 48 48 0 1 0 96 0"/></svg>