<svg xmlns="http://www.w3.org/2000/svg" viewBox="0 0 512 512"><!--! Font Awesome Free 6.7.1 by @fontawesome - https://fontawesome.com License - https://fontawesome.com/license/free (Icons: CC BY 4.0, Fonts: SIL OFL 1.1, Code: MIT License) Copyright 2024 Fonticons, Inc.--><path d="M142.9 142.9c-17.5 17.5-30.1 38-37.8 59.8-5.9 16.7-24.2 25.4-40.8 19.5S38.9 198 44.8 181.4c10.8-30.7 28.4-59.4 52.8-83.8 87.2-87.2 228.3-87.5 315.8-1L455 55c6.9-6.9 17.2-8.9 26.2-5.2S496 62.3 496 72v128c0 13.3-10.7 24-24 24H344c-9.7 0-18.5-5.8-22.2-14.8s-1.7-19.3 5.2-26.2l41.1-41.1c-62.6-61.5-163.1-61.2-225.3 1zM16 312c0-13.3 10.7-24 24-24h128c9.7 0 18.5 5.8 22.2 14.8s1.7 19.3-5.2 26.2l-41.1 41.1c62.6 61.5 163.1 61.2 225.3-1 17.5-17.5 30.1-38 37.8-59.8 5.9-16.7 24.2-25.4 40.8-19.5s25.4 24.2 19.5 40.8c-10.8 30.6-28.4 59.3-52.9 83.8-87.2 87.2-228.3 87.5-315.8 1L57 457c-6.9 6.9-17.2 8.9-26.2 5.2S16 449.7 16 440V312.1z"/></svg>