<svg xmlns="http://www.w3.org/2000/svg" viewBox="0 0 448 512"><!--! Font Awesome Free 7.1.0 by @fontawesome - https://fontawesome.com License - https://fontawesome.com/license/free (Icons: CC BY 4.0, Fonts: SIL OFL 1.1, Code: MIT License) Copyright 2025 Fonticons, Inc.--><path d="M112 32c-17.7 0-32 14.3-32 32v208H40c-13.3 0-24 10.7-24 24s10.7 24 24 24h40v48H40c-13.3 0-24 10.7-24 24s10.7 24 24 24h40v32c0 17.7 14.3 32 32 32s32-14.3 32-32v-32h152c13.3 0 24-10.7 24-24s-10.7-24-24-24H144v-48h112c79.5 0 144-64.5 144-144S335.5 32 256 32zm144 224H144V96h112c44.2 0 80 35.8 80 80s-35.8 80-80 80"/></svg>