<svg xmlns="http://www.w3.org/2000/svg" viewBox="0 0 256 512"><!--! Font Awesome Free 7.1.0 by @fontawesome - https://fontawesome.com License - https://fontawesome.com/license/free (Icons: CC BY 4.0, Fonts: SIL OFL 1.1, Code: MIT License) Copyright 2025 Fonticons, Inc.--><path d="M0 16c0-26.5 21.5-48 48-48h160c26.5 0 48 21.5 48 48v24H152c-13.3 0-24 10.7-24 24s10.7 24 24 24h104v48h-72c-13.3 0-24 10.7-24 24s10.7 24 24 24h72v48H152c-13.3 0-24 10.7-24 24s10.7 24 24 24h104v48h-72c-13.3 0-24 10.7-24 24s10.7 24 24 24h72v48H152c-13.3 0-24 10.7-24 24s10.7 24 24 24h104v24c0 26.5-21.5 48-48 48H48c-26.5 0-48-21.5-48-48z"/></svg>