<svg xmlns="http://www.w3.org/2000/svg" viewBox="0 0 576 512"><!--! Font Awesome Free 7.1.0 by @fontawesome - https://fontawesome.com License - https://fontawesome.com/license/free (Icons: CC BY 4.0, Fonts: SIL OFL 1.1, Code: MIT License) Copyright 2025 Fonticons, Inc.--><path d="M209.1 516.2c-18.7 18.7-49.1 18.7-67.9 0L28.1 403.1c-18.7-18.7-18.7-49.1 0-67.9l17-17 73.5 73.5c9.4 9.4 24.6 9.4 33.9 0s9.4-24.6 0-33.9L79 284.3l33.9-33.9 50.9 50.9c9.4 9.4 24.6 9.4 33.9 0s9.4-24.6 0-33.9l-50.9-50.9 33.9-33.9 73.5 73.5c9.4 9.4 24.6 9.4 33.9 0s9.4-24.6 0-33.9l-73.5-73.5 33.9-33.9 50.9 50.9c9.4 9.4 24.6 9.4 33.9 0s9.4-24.6 0-33.9l-50.9-50.9L316.3 47l73.5 73.5c9.4 9.4 24.6 9.4 33.9 0s9.4-24.6 0-33.9l-73.5-73.5 17-17c18.7-18.7 49.1-18.7 67.9 0l113.4 112.8c18.7 18.7 18.7 49.1 0 67.9z"/></svg>