<svg xmlns="http://www.w3.org/2000/svg" viewBox="0 0 320 512"><!--! Font Awesome Free 7.1.0 by @fontawesome - https://fontawesome.com License - https://fontawesome.com/license/free (Icons: CC BY 4.0, Fonts: SIL OFL 1.1, Code: MIT License) Copyright 2025 Fonticons, Inc.--><path d="M0 157.5C0 88.2 56.2 32 125.5 32H272c17.7 0 32 14.3 32 32s-14.3 32-32 32H125.5c-34 0-61.5 27.5-61.5 61.5 0 31 23.1 57.2 53.9 61l92.2 11.5c62.8 7.9 109.9 61.2 109.9 124.5 0 69.3-56.2 125.5-125.5 125.5H48c-17.7 0-32-14.3-32-32s14.3-32 32-32h146.5c34 0 61.5-27.5 61.5-61.5 0-31-23.1-57.2-53.9-61L109.9 282C47.1 274.1 0 220.8 0 157.5"/></svg>