<svg xmlns="http://www.w3.org/2000/svg" viewBox="0 0 512 512"><!--! Font Awesome Free 7.1.0 by @fontawesome - https://fontawesome.com License - https://fontawesome.com/license/free (Icons: CC BY 4.0, Fonts: SIL OFL 1.1, Code: MIT License) Copyright 2025 Fonticons, Inc.--><path d="M328 112H184l-37.3-74.5c-1.8-3.6-2.7-7.6-2.7-11.6C144 11.6 155.6 0 169.9 0h172.2C356.4 0 368 11.6 368 25.9c0 4-.9 8-2.7 11.6zm-158.4 48h172.8l48.7 40.6C457.6 256 496 338 496 424.5c0 48.3-39.2 87.5-87.5 87.5H103.4C55.2 512 16 472.8 16 424.5 16 338 54.4 256 120.9 200.6zm154.3 124.1c-9.4-9.4-24.6-9.4-33.9 0L256.1 318l-33.9-33.9c-9.4-9.4-24.6-9.4-33.9 0s-9.4 24.6 0 33.9l33.9 33.9-33.9 33.9c-9.4 9.4-9.4 24.6 0 33.9s24.6 9.4 33.9 0l33.9-33.9 33.9 33.9c9.4 9.4 24.6 9.4 33.9 0s9.4-24.6 0-33.9L290 351.9l33.9-33.9c9.4-9.4 9.4-24.6 0-33.9"/></svg>