<svg xmlns="http://www.w3.org/2000/svg" viewBox="0 0 512 512"><!--! Font Awesome Free 7.1.0 by @fontawesome - https://fontawesome.com License - https://fontawesome.com/license/free (Icons: CC BY 4.0, Fonts: SIL OFL 1.1, Code: MIT License) Copyright 2025 Fonticons, Inc.--><path d="M328 112H184l-37.3-74.5c-1.8-3.6-2.7-7.6-2.7-11.6C144 11.6 155.6 0 169.9 0h172.2C356.4 0 368 11.6 368 25.9c0 4-.9 8-2.7 11.6zm-158.4 48h172.8l48.7 40.6C457.6 256 496 338 496 424.5c0 48.3-39.2 87.5-87.5 87.5H103.4C55.2 512 16 472.8 16 424.5 16 338 54.4 256 120.9 200.6zm90.4 64c-11 0-20 9-20 20v4c-28.8.3-52 23.7-52 52.5 0 25.7 18.5 47.6 43.9 51.8l41.7 7c6 1 10.4 6.2 10.4 12.3 0 6.9-5.6 12.5-12.5 12.5L216 384c-11 0-20 9-20 20s9 20 20 20h24v4c0 11 9 20 20 20s20-9 20-20v-4.7c25-4.1 44-25.7 44-51.8 0-25.7-18.5-47.6-43.9-51.8l-41.7-7c-6-1-10.4-6.2-10.4-12.3 0-6.9 5.6-12.5 12.5-12.5H288c11 0 20-9 20-20s-9-20-20-20h-8v-4c0-11-9-20-20-20z"/></svg>