<svg xmlns="http://www.w3.org/2000/svg" viewBox="0 0 512 512"><!--! Font Awesome Free 7.1.0 by @fontawesome - https://fontawesome.com License - https://fontawesome.com/license/free (Icons: CC BY 4.0, Fonts: SIL OFL 1.1, Code: MIT License) Copyright 2025 Fonticons, Inc.--><path d="M352 493.4c-29.6 12-62.1 18.6-96 18.6s-66.4-6.6-96-18.6V296c0-13.3-10.7-24-24-24s-24 10.7-24 24v171.7C44.4 421.6 0 344 0 256 0 114.6 114.6 0 256 0s256 114.6 256 256c0 88-44.4 165.6-112 211.7V296c0-13.3-10.7-24-24-24s-24 10.7-24 24zM152 196h16c11 0 20 9 20 20s9 20 20 20 20-9 20-20c0-33.1-26.9-60-60-60h-16c-33.1 0-60 26.9-60 60 0 11 9 20 20 20s20-9 20-20 9-20 20-20m172 20c0-11 9-20 20-20h16c11 0 20 9 20 20s9 20 20 20 20-9 20-20c0-33.1-26.9-60-60-60h-16c-33.1 0-60 26.9-60 60 0 11 9 20 20 20s20-9 20-20M208 336v32c0 26.5 21.5 48 48 48s48-21.5 48-48v-32c0-26.5-21.5-48-48-48s-48 21.5-48 48"/></svg>