<svg xmlns="http://www.w3.org/2000/svg" viewBox="0 0 640 512"><!--! Font Awesome Free 7.1.0 by @fontawesome - https://fontawesome.com License - https://fontawesome.com/license/free (Icons: CC BY 4.0, Fonts: SIL OFL 1.1, Code: MIT License) Copyright 2025 Fonticons, Inc.--><path d="M118.2 62.4C101.5 56.8 92.4 38.6 98 21.9s23.7-25.8 40.5-20.3l113 37.7C265.4 15.8 291.1 0 320.4 0c44.2 0 80 35.8 80 80 0 3-.2 5.9-.5 8.8l122.6 40.9c16.8 5.6 25.8 23.7 20.2 40.5S519 196 502.2 190.4l-135.5-45.2c-4.5 3.2-9.3 5.9-14.4 8.2v326.7c0 17.7-14.3 32-32 32h-192c-17.7 0-32-14.3-32-32s14.3-32 32-32h160V153.4c-21-9.2-37.2-27-44.2-49zM200.8 288l-72.5-124.2L55.9 288zm-72.4 96c-62.9 0-115.2-34-126-78.9-2.6-11 1-22.3 6.7-32.1l95.2-163.2c5-8.6 14.2-13.8 24.1-13.8s19.1 5.3 24.1 13.8L247.7 273c5.7 9.8 9.3 21.1 6.7 32.1-10.8 44.8-63.1 78.9-126 78.9m382.8-92.2L438.8 416h144.9l-72.4-124.2zm126 141.3c-10.8 44.9-63.1 78.9-126 78.9s-115.2-34-126-78.9c-2.6-11 1-22.3 6.7-32.1l95.2-163.2c5-8.6 14.2-13.8 24.1-13.8s19.1 5.3 24.1 13.8L630.5 401c5.7 9.8 9.3 21.1 6.7 32.1"/></svg>