<svg xmlns="http://www.w3.org/2000/svg" viewBox="0 0 640 512"><!--! Font Awesome Free 7.1.0 by @fontawesome - https://fontawesome.com License - https://fontawesome.com/license/free (Icons: CC BY 4.0, Fonts: SIL OFL 1.1, Code: MIT License) Copyright 2025 Fonticons, Inc.--><path d="M64 128c-35.3 0-64 28.7-64 64v256c0 35.3 28.7 64 64 64h276c-10.5-14.6-19-30.7-25.1-48H224v-88c0-22.1 17.9-40 40-40h48c1 0 1.9 0 2.9.1C341.2 261.5 412.4 208 496 208c28.6 0 55.6 6.2 80 17.4V192c0-35.3-28.7-64-64-64h-64L320.1 12.9c-18.3-16.4-46-16.4-64.2 0L128 128zm64 240c0 8.8-7.2 16-16 16H80c-8.8 0-16-7.2-16-16v-32c0-8.8 7.2-16 16-16h32c8.8 0 16 7.2 16 16zm-16-112H80c-8.8 0-16-7.2-16-16v-32c0-8.8 7.2-16 16-16h32c8.8 0 16 7.2 16 16v32c0 8.8-7.2 16-16 16m176-128a64 64 0 1 1 0 128 64 64 0 1 1 0-128m208 416a144 144 0 1 0 0-288 144 144 0 1 0 0 288m59.3-180.7L518.6 400l36.7 36.7c6.2 6.2 6.2 16.4 0 22.6s-16.4 6.2-22.6 0L496 422.6l-36.7 36.7c-6.2 6.2-16.4 6.2-22.6 0s-6.2-16.4 0-22.6l36.7-36.7-36.7-36.7c-6.2-6.2-6.2-16.4 0-22.6s16.4-6.2 22.6 0l36.7 36.7 36.7-36.7c6.2-6.2 16.4-6.2 22.6 0s6.2 16.4 0 22.6"/></svg>