<svg xmlns="http://www.w3.org/2000/svg" viewBox="0 0 576 512"><!--! Font Awesome Free 7.1.0 by @fontawesome - https://fontawesome.com License - https://fontawesome.com/license/free (Icons: CC BY 4.0, Fonts: SIL OFL 1.1, Code: MIT License) Copyright 2025 Fonticons, Inc.--><path d="M0 192c0-35.3 28.7-64 64-64h64L255.9 12.9c18.3-16.4 46-16.4 64.2 0L448 128h64c35.3 0 64 28.7 64 64v256c0 35.3-28.7 64-64 64H64c-35.3 0-64-28.7-64-64zm224 184v88h128v-88c0-22.1-17.9-40-40-40h-48c-22.1 0-40 17.9-40 40m-112 8c8.8 0 16-7.2 16-16v-32c0-8.8-7.2-16-16-16H80c-8.8 0-16 7.2-16 16v32c0 8.8 7.2 16 16 16zm16-144v-32c0-8.8-7.2-16-16-16H80c-8.8 0-16 7.2-16 16v32c0 8.8 7.2 16 16 16h32c8.8 0 16-7.2 16-16m368 144c8.8 0 16-7.2 16-16v-32c0-8.8-7.2-16-16-16h-32c-8.8 0-16 7.2-16 16v32c0 8.8 7.2 16 16 16zm16-144v-32c0-8.8-7.2-16-16-16h-32c-8.8 0-16 7.2-16 16v32c0 8.8 7.2 16 16 16h32c8.8 0 16-7.2 16-16m-224 16a64 64 0 1 0 0-128 64 64 0 1 0 0 128"/></svg>