<svg xmlns="http://www.w3.org/2000/svg" viewBox="0 0 576 512"><!--! Font Awesome Free 7.1.0 by @fontawesome - https://fontawesome.com License - https://fontawesome.com/license/free (Icons: CC BY 4.0, Fonts: SIL OFL 1.1, Code: MIT License) Copyright 2025 Fonticons, Inc.--><path d="M0 112c0-41.5 31.6-75.6 72-79.6V32h280c53 0 96 43 96 96v176H272c-39.8 0-72 32.2-72 72v60c0 24.3-19.7 44-44 44s-44-19.7-44-44V208H48c-26.5 0-48-21.5-48-48zm236.8 368c7.1-13.1 11.2-28.1 11.2-44v-60c0-13.3 10.7-24 24-24h248c13.3 0 24 10.7 24 24v24c0 44.2-35.8 80-80 80zM80 80c-17.7 0-32 14.3-32 32v48h64v-48c0-17.7-14.3-32-32-32"/></svg>