<svg xmlns="http://www.w3.org/2000/svg" viewBox="0 0 384 512"><!--! Font Awesome Free 7.1.0 by @fontawesome - https://fontawesome.com License - https://fontawesome.com/license/free (Icons: CC BY 4.0, Fonts: SIL OFL 1.1, Code: MIT License) Copyright 2025 Fonticons, Inc.--><path d="M384 64c0-35.3-28.7-64-64-64H125.3C108.3 0 92 6.7 80 18.7L18.7 80C6.7 92 0 108.3 0 125.3V448c0 35.3 28.7 64 64 64h256c35.3 0 64-28.7 64-64zM160 88v48c0 13.3-10.7 24-24 24s-24-10.7-24-24V88c0-13.3 10.7-24 24-24s24 10.7 24 24m88 0v48c0 13.3-10.7 24-24 24s-24-10.7-24-24V88c0-13.3 10.7-24 24-24s24 10.7 24 24m88 0v48c0 13.3-10.7 24-24 24s-24-10.7-24-24V88c0-13.3 10.7-24 24-24s24 10.7 24 24"/></svg>