<svg xmlns="http://www.w3.org/2000/svg" viewBox="0 0 512 512"><!--! Font Awesome Free 7.1.0 by @fontawesome - https://fontawesome.com License - https://fontawesome.com/license/free (Icons: CC BY 4.0, Fonts: SIL OFL 1.1, Code: MIT License) Copyright 2025 Fonticons, Inc.--><path d="M269.4 2.9C265.2 1 260.7 0 256 0s-9.2 1-13.4 2.9L54.3 82.8c-22 9.3-38.4 31-38.3 57.2.5 99.2 41.3 280.7 213.6 363.2 16.7 8 36.1 8 52.8 0C454.8 420.7 495.6 239.2 496 140c.1-26.2-16.3-47.9-38.3-57.2zm-19.8 180.6 6.4 8.5 6.4-8.5c11.1-14.8 28.5-23.5 46.9-23.5 32.4 0 58.7 26.3 58.7 58.7v5.3c0 49.1-65.8 98.1-96.5 118.3-9.5 6.2-21.5 6.2-30.9 0-30.7-20.2-96.5-69.3-96.5-118.3v-5.3c0-32.4 26.3-58.7 58.7-58.7 18.5 0 35.9 8.7 46.9 23.5z"/></svg>