<svg xmlns="http://www.w3.org/2000/svg" viewBox="0 0 640 512"><!--! Font Awesome Free 7.1.0 by @fontawesome - https://fontawesome.com License - https://fontawesome.com/license/free (Icons: CC BY 4.0, Fonts: SIL OFL 1.1, Code: MIT License) Copyright 2025 Fonticons, Inc.--><path d="M64 96c0-35.3 28.7-64 64-64h288c35.3 0 64 28.7 64 64v32h50.7c17 0 33.3 6.7 45.3 18.7l45.3 45.3c12 12 18.7 28.3 18.7 45.3V384c0 35.3-28.7 64-64 64h-3.3c-10.4 36.9-44.4 64-84.7 64s-74.2-27.1-84.7-64H300.7c-10.4 36.9-44.4 64-84.7 64s-74.2-27.1-84.7-64H128c-35.3 0-64-28.7-64-64v-48H24c-13.3 0-24-10.7-24-24s10.7-24 24-24h112c13.3 0 24-10.7 24-24s-10.7-24-24-24H24c-13.3 0-24-10.7-24-24s10.7-24 24-24h176c13.3 0 24-10.7 24-24s-10.7-24-24-24H24c-13.3 0-24-10.7-24-24s10.7-24 24-24zm512 192v-50.7L530.7 192H480v96zM256 424a40 40 0 1 0-80 0 40 40 0 1 0 80 0m232 40a40 40 0 1 0 0-80 40 40 0 1 0 0 80"/></svg>