<svg xmlns="http://www.w3.org/2000/svg" viewBox="0 0 640 512"><!--! Font Awesome Free 7.1.0 by @fontawesome - https://fontawesome.com License - https://fontawesome.com/license/free (Icons: CC BY 4.0, Fonts: SIL OFL 1.1, Code: MIT License) Copyright 2025 Fonticons, Inc.--><path d="M320.2 112c44.2 0 80-35.8 80-80h53.5c17 0 33.3 6.7 45.3 18.7l118.6 118.7c12.5 12.5 12.5 32.8 0 45.3l-50.7 50.7c-12.5 12.5-32.8 12.5-45.3 0L480.2 224v224c0 35.3-28.7 64-64 64h-192c-35.3 0-64-28.7-64-64V224l-41.4 41.4c-12.5 12.5-32.8 12.5-45.3 0l-50.6-50.8c-12.5-12.5-12.5-32.8 0-45.3L141.5 50.7c12-12 28.3-18.7 45.3-18.7h53.5c0 44.2 35.8 80 80 80z"/></svg>