<svg xmlns="http://www.w3.org/2000/svg" viewBox="0 0 640 512"><!--! Font Awesome Free 7.1.0 by @fontawesome - https://fontawesome.com License - https://fontawesome.com/license/free (Icons: CC BY 4.0, Fonts: SIL OFL 1.1, Code: MIT License) Copyright 2025 Fonticons, Inc.--><path d="M24-16C10.7-16 0-5.3 0 8s10.7 24 24 24h45.3c3.9 0 7.2 2.8 7.9 6.6l52.1 286.3c6.2 34.2 36 59.1 70.8 59.1H456c13.3 0 24-10.7 24-24s-10.7-24-24-24H200.1c-11.6 0-21.5-8.3-23.6-19.7l-5.1-28.3H475c30.8 0 57.2-21.9 62.9-52.2l31-165.9c3.7-19.7-11.4-37.9-31.5-37.9H124.7l-.4-2c-4.8-26.6-28-46-55.1-46zm184 528a48 48 0 1 0 0-96 48 48 0 1 0 0 96m224 0a48 48 0 1 0 0-96 48 48 0 1 0 0 96"/></svg>