<svg xmlns="http://www.w3.org/2000/svg" viewBox="0 0 640 512"><!--! Font Awesome Free 7.1.0 by @fontawesome - https://fontawesome.com License - https://fontawesome.com/license/free (Icons: CC BY 4.0, Fonts: SIL OFL 1.1, Code: MIT License) Copyright 2025 Fonticons, Inc.--><path d="M21.5 181.1 78.3 67.4c10.9-21.7 33-35.4 57.3-35.4h304.9c24.2 0 46.4 13.7 57.2 35.4l55.6 111.1c-8.2-1.6-16.6-2.5-25.2-2.5-53.7 0-99.7 33.1-118.7 80h-57.3v176c0 26.5-21.5 48-48 48h-192c-26.5 0-48-21.5-48-48V255.9c-26.8-1.9-48-24.3-48-51.6 0-8 1.9-16 5.5-23.2zM128 256v112c0 8.8 7.2 16 16 16h128c8.8 0 16-7.2 16-16V256zm432 48.1c0-17.7-14.3-32-32-32s-32 14.3-32 32V352h64zM416 400c0-20.9 13.4-38.7 32-45.3v-50.6c0-44.2 35.8-80 80-80s80 35.8 80 80v50.6c18.6 6.6 32 24.4 32 45.3v96c0 26.5-21.5 48-48 48H464c-26.5 0-48-21.5-48-48z"/></svg>