<svg xmlns="http://www.w3.org/2000/svg" viewBox="0 0 512 512"><!--! Font Awesome Free 7.1.0 by @fontawesome - https://fontawesome.com License - https://fontawesome.com/license/free (Icons: CC BY 4.0, Fonts: SIL OFL 1.1, Code: MIT License) Copyright 2025 Fonticons, Inc.--><path d="M72 32C32.2 32 0 64.2 0 104c0 37.9 29.3 68.9 66.4 71.8C77.6 257.2 147.4 320 232 320h56V128H72c-13.3 0-24-10.7-24-24s10.7-24 24-24h384c13.3 0 24-10.7 24-24s-10.7-24-24-24zm152 424c0 13.3 10.7 24 24 24h72v-72.2l-64.1-22.4c-12.5-4.4-26.2 2.2-30.6 14.7s2.2 26.2 14.7 30.6l4.5 1.6C233 433.9 224 443.9 224 456m128 23.3c36.4-3.3 69.5-17.6 96.1-39.6l-86.5-34.6c-3 1.8-6.2 3.2-9.6 4.3zM472.6 415c24.6-30.3 39.4-68.9 39.4-111 0-12.3-1.3-24.3-3.7-35.9l-125.5 87c.8 3.4 1.2 7 1.2 10.6 0 4.6-.7 9-1.9 13.1zM336 128h-16v192h18.3c9.9 0 19.1 3.2 26.6 8.5l133.5-92.4C471.8 172.6 409.1 128 336 128m-168 64a24 24 0 1 1 48 0 24 24 0 1 1-48 0"/></svg>