<svg xmlns="http://www.w3.org/2000/svg" viewBox="0 0 576 512"><!--! Font Awesome Free 7.1.0 by @fontawesome - https://fontawesome.com License - https://fontawesome.com/license/free (Icons: CC BY 4.0, Fonts: SIL OFL 1.1, Code: MIT License) Copyright 2025 Fonticons, Inc.--><path d="M64 64C28.7 64 0 92.7 0 128v208c0 35.3 28.7 64 64 64h.4c4 44.9 41.7 80 87.6 80s83.6-35.1 87.6-80h104.7c4 44.9 41.7 80 87.6 80 46.1 0 83.9-35.4 87.7-80.5 31.7-3.8 56.3-30.8 56.3-63.5V234.7c0-13.8-4.5-27.3-12.8-38.4l-80-106.7c-12-16.1-31-25.6-51.1-25.6zm440 160H384v-96h48zm-440 0v-96h96v96zm160 0v-96h96v96zm168 168a40 40 0 1 1 80 0 40 40 0 1 1-80 0m-240-40a40 40 0 1 1 0 80 40 40 0 1 1 0-80"/></svg>