<svg xmlns="http://www.w3.org/2000/svg" viewBox="0 0 512 512"><!--! Font Awesome Free 7.1.0 by @fontawesome - https://fontawesome.com License - https://fontawesome.com/license/free (Icons: CC BY 4.0, Fonts: SIL OFL 1.1, Code: MIT License) Copyright 2025 Fonticons, Inc.--><path d="M345 273c9.4-9.4 9.4-24.6 0-33.9L201 95c-6.9-6.9-17.2-8.9-26.2-5.2S160 102.3 160 112v80H48c-26.5 0-48 21.5-48 48v32c0 26.5 21.5 48 48 48h112v80c0 9.7 5.8 18.5 14.8 22.2s19.3 1.7 26.2-5.2zm7 143c-17.7 0-32 14.3-32 32s14.3 32 32 32h64c53 0 96-43 96-96V128c0-53-43-96-96-96h-64c-17.7 0-32 14.3-32 32s14.3 32 32 32h64c17.7 0 32 14.3 32 32v256c0 17.7-14.3 32-32 32z"/></svg>