<svg xmlns="http://www.w3.org/2000/svg" viewBox="0 0 512 512"><!--! Font Awesome Free 7.1.0 by @fontawesome - https://fontawesome.com License - https://fontawesome.com/license/free (Icons: CC BY 4.0, Fonts: SIL OFL 1.1, Code: MIT License) Copyright 2025 Fonticons, Inc.--><path d="M488 56c0-13.3-10.7-24-24-24s-24 10.7-24 24v400c0 13.3 10.7 24 24 24s24-10.7 24-24zm-128 72c-13.3 0-24 10.7-24 24v304c0 13.3 10.7 24 24 24s24-10.7 24-24V152c0-13.3-10.7-24-24-24m-80 120c0-13.3-10.7-24-24-24s-24 10.7-24 24v208c0 13.3 10.7 24 24 24s24-10.7 24-24zm-128 72c-13.3 0-24 10.7-24 24v112c0 13.3 10.7 24 24 24s24-10.7 24-24V344c0-13.3-10.7-24-24-24M48 384c-13.3 0-24 10.7-24 24v48c0 13.3 10.7 24 24 24s24-10.7 24-24v-48c0-13.3-10.7-24-24-24"/></svg>