<svg xmlns="http://www.w3.org/2000/svg" viewBox="0 0 640 512"><!--! Font Awesome Free 7.1.0 by @fontawesome - https://fontawesome.com License - https://fontawesome.com/license/free (Icons: CC BY 4.0, Fonts: SIL OFL 1.1, Code: MIT License) Copyright 2025 Fonticons, Inc.--><path d="M64 32c-17.7 0-32 14.3-32 32s14.3 32 32 32v160c0 41.8 26.7 77.4 64 90.5V416H56c-13.3 0-24 10.7-24 24s10.7 24 24 24h504c44.2 0 80-35.8 80-80v-8c0-13.3-10.7-24-24-24s-24 10.7-24 24v8c0 17.7-14.3 32-32 32h-80v-64c53 0 96-43 96-96v-96c17.7 0 32-14.3 32-32s-14.3-32-32-32h-32c-17.7 0-32 14.3-32 32v32c0 35.3-28.7 64-64 64h-48.9c-48.5 0-92.8-27.4-114.5-70.8l-25.2-50.5C237.7 59.4 193.4 32 144.9 32zm368 384H176v-64h256z"/></svg>