<svg xmlns="http://www.w3.org/2000/svg" viewBox="0 0 576 512"><!--! Font Awesome Free 7.1.0 by @fontawesome - https://fontawesome.com License - https://fontawesome.com/license/free (Icons: CC BY 4.0, Fonts: SIL OFL 1.1, Code: MIT License) Copyright 2025 Fonticons, Inc.--><path d="M176 288c-79.5 0-144-64.5-144-144S96.5 0 176 0c27.2 0 52.6 7.5 74.3 20.6C270.4 7.6 294.3 0 320 0c47.4 0 88.7 25.7 110.9 64h1.1c61.9 0 112 50.1 112 112 0 60.3-47.6 109.4-107.2 111.9-22.6 20-52.3 32.1-84.8 32.1s-62.1-12.1-84.7-32zm336 104c0 13.3-10.7 24-24 24H24c-13.3 0-24-10.7-24-24s10.7-24 24-24h464c13.3 0 24 10.7 24 24M88 464h80c13.3 0 24 10.7 24 24s-10.7 24-24 24H88c-13.3 0-24-10.7-24-24s10.7-24 24-24m176 0h288c13.3 0 24 10.7 24 24s-10.7 24-24 24H264c-13.3 0-24-10.7-24-24s10.7-24 24-24"/></svg>