<svg xmlns="http://www.w3.org/2000/svg" viewBox="0 0 640 512"><!--! Font Awesome Free 7.1.0 by @fontawesome - https://fontawesome.com License - https://fontawesome.com/license/free (Icons: CC BY 4.0, Fonts: SIL OFL 1.1, Code: MIT License) Copyright 2025 Fonticons, Inc.--><path d="M128 160V64c0-35.3 28.7-64 64-64h104.4c24.2 0 46.4 13.7 57.2 35.4l87.6 175.1c4.4 8.9 6.8 18.7 6.8 28.6V296h80v-80c0-48.6 39.4-88 88-88 13.3 0 24 10.7 24 24s-10.7 24-24 24c-22.1 0-40 17.9-40 40v208c0 22.1 17.9 40 40 40 13.3 0 24 10.7 24 24s-10.7 24-24 24c-48.6 0-88-39.4-88-88v-80h-63c9.5 16.5 15 35.6 15 56 0 61.9-50.1 112-112 112H144c-61.9 0-112-50.1-112-112 0-30.5 12.2-58.2 32-78.4V224c0-35.3 28.7-64 64-64m91.7 34.9 43.6 29.1h113.2l-80-160H192.1v108.8l27.7 22.1zM416 400c0-26.5-21.5-48-48-48H144c-26.5 0-48 21.5-48 48s21.5 48 48 48h224c26.5 0 48-21.5 48-48m-280 0a24 24 0 1 1 48 0 24 24 0 1 1-48 0m216-24a24 24 0 1 1 0 48 24 24 0 1 1 0-48m-120 24a24 24 0 1 1 48 0 24 24 0 1 1-48 0"/></svg>