<svg xmlns="http://www.w3.org/2000/svg" viewBox="0 0 512 512"><!--! Font Awesome Free 7.1.0 by @fontawesome - https://fontawesome.com License - https://fontawesome.com/license/free (Icons: CC BY 4.0, Fonts: SIL OFL 1.1, Code: MIT License) Copyright 2025 Fonticons, Inc.--><path d="M208-32a48 48 0 1 1 0 96 48 48 0 1 1 0-96M320 96a64 64 0 1 1 0 128 64 64 0 1 1 0-128m32-96a32 32 0 1 1 64 0 32 32 0 1 1-64 0M96 160h112c0 23.8 7.4 45.9 20.1 64H160c-53 0-96 43-96 96s43 96 96 96h192c53 0 96-43 96-96 0-35.1-18.9-65.9-47-82.6 19-19.8 30.7-46.6 31-76.1 45.4 7.6 80 47.1 80 94.7v128c0 53-43 96-96 96H96c-53 0-96-43-96-96V256c0-53 43-96 96-96m64 112h192c26.5 0 48 21.5 48 48s-21.5 48-48 48H160c-26.5 0-48-21.5-48-48s21.5-48 48-48"/></svg>