<svg xmlns="http://www.w3.org/2000/svg" viewBox="0 0 512 512"><!--! Font Awesome Free 7.1.0 by @fontawesome - https://fontawesome.com License - https://fontawesome.com/license/free (Icons: CC BY 4.0, Fonts: SIL OFL 1.1, Code: MIT License) Copyright 2025 Fonticons, Inc.--><path d="M252.8 0H176c-26.5 0-48 21.5-48 48v16h112V48c0-17.5 4.7-33.9 12.8-48M128 112v128c0 20.1-9.5 39.1-25.6 51.2l-64 48C14.2 357.3 0 385.8 0 416c0 53 43 96 96 96 15.4 0 30.5-3.7 44-10.7-17.6-23.9-28-53.4-28-85.3 0-45.3 21.3-88 57.6-115.2l64-48c4-3 6.4-7.8 6.4-12.8V112zm160 0v128c0 20.1-9.5 39.1-25.6 51.2l-64 48C174.2 357.3 160 385.8 160 416c0 53 43 96 96 96 20.8 0 41-6.7 57.6-19.2l115.2-86.4C461 382.2 480 344.3 480 304V112zm192-48V48c0-26.5-21.5-48-48-48h-96c-26.5 0-48 21.5-48 48v16z"/></svg>