<svg xmlns="http://www.w3.org/2000/svg" viewBox="0 0 576 512"><!--! Font Awesome Free 7.1.0 by @fontawesome - https://fontawesome.com License - https://fontawesome.com/license/free (Icons: CC BY 4.0, Fonts: SIL OFL 1.1, Code: MIT License) Copyright 2025 Fonticons, Inc.--><path d="M121.8 32c-30 0-56 20.8-62.5 50.1l-49.7 224C.7 346.1 31.1 384 72 384h184.1v64h-64c-17.7 0-32 14.3-32 32s14.3 32 32 32h192c17.7 0 32-14.3 32-32s-14.3-32-32-32h-64v-64h184.1c40.9 0 71.4-37.9 62.5-77.9l-49.8-224C510.4 52.8 484.5 32 454.5 32zm123.8 64h85.2l7.3 88h-99.8zm-55.5 88h-87.8l19.6-88h75.6l-7.3 88zm-98.5 48h94.5l-7.3 88H72.1l19.6-88zm142.6 0H342l7.3 88H226.8l7.3-88zm156 0h94.5l19.6 88H397.6l-7.3-88zm83.8-48h-87.8l-7.3-88h75.6l19.6 88z"/></svg>