<svg xmlns="http://www.w3.org/2000/svg" viewBox="0 0 512 512"><!--! Font Awesome Free 7.1.0 by @fontawesome - https://fontawesome.com License - https://fontawesome.com/license/free (Icons: CC BY 4.0, Fonts: SIL OFL 1.1, Code: MIT License) Copyright 2025 Fonticons, Inc.--><path d="M150.6 41.4c-12.5-12.5-32.8-12.5-45.3 0l-80 80c-12.5 12.5-12.5 32.8 0 45.3s32.8 12.5 45.3 0L96 141.3V448c0 17.7 14.3 32 32 32s32-14.3 32-32V141.3l25.4 25.4c12.5 12.5 32.8 12.5 45.3 0s12.5-32.8 0-45.3l-80-80zM288 64c0 17.7 14.3 32 32 32h50.7l-73.4 73.4c-9.2 9.2-11.9 22.9-6.9 34.9S307.1 224 320 224h128c17.7 0 32-14.3 32-32s-14.3-32-32-32h-50.7l73.4-73.4c9.2-9.2 11.9-22.9 6.9-34.9S461 32 448 32H320c-17.7 0-32 14.3-32 32m124.6 209.7c-5.4-10.9-16.5-17.7-28.6-17.7s-23.2 6.8-28.6 17.7l-80 160c-7.9 15.8-1.5 35 14.3 42.9s35 1.5 42.9-14.3l7.2-14.3h88.4l7.2 14.3c7.9 15.8 27.1 22.2 42.9 14.3s22.2-27.1 14.3-42.9zM384 359.6l20.2 40.4h-40.4z"/></svg>