<svg xmlns="http://www.w3.org/2000/svg" viewBox="0 0 512 512"><!--! Font Awesome Free 7.1.0 by @fontawesome - https://fontawesome.com License - https://fontawesome.com/license/free (Icons: CC BY 4.0, Fonts: SIL OFL 1.1, Code: MIT License) Copyright 2025 Fonticons, Inc.--><path d="m230.6 390.6-80 80c-12.5 12.5-32.8 12.5-45.3 0l-80-80c-12.5-12.5-12.5-32.8 0-45.3s32.8-12.5 45.3 0L96 370.7V64c0-17.7 14.3-32 32-32s32 14.3 32 32v306.7l25.4-25.4c12.5-12.5 32.8-12.5 45.3 0s12.5 32.8 0 45.3zM288 64c0-17.7 14.3-32 32-32h128c12.9 0 24.6 7.8 29.6 19.8s2.2 25.7-6.9 34.9L397.3 160H448c17.7 0 32 14.3 32 32s-14.3 32-32 32H320c-12.9 0-24.6-7.8-29.6-19.8s-2.2-25.7 6.9-34.9L370.8 96H320c-17.7 0-32-14.3-32-32m124.6 209.7 80 160c7.9 15.8 1.5 35-14.3 42.9s-35 1.5-42.9-14.3l-7.2-14.3h-88.4l-7.2 14.3c-7.9 15.8-27.1 22.2-42.9 14.3s-22.2-27.1-14.3-42.9l80-160c5.4-10.8 16.5-17.7 28.6-17.7s23.2 6.8 28.6 17.7M384 359.6 363.8 400h40.4z"/></svg>