<svg xmlns="http://www.w3.org/2000/svg" viewBox="0 0 576 512"><!--! Font Awesome Free 7.1.0 by @fontawesome - https://fontawesome.com License - https://fontawesome.com/license/free (Icons: CC BY 4.0, Fonts: SIL OFL 1.1, Code: MIT License) Copyright 2025 Fonticons, Inc.--><path d="M0 368v64c0 26.5 21.5 48 48 48h50c40.6 0 80.4-11 115.2-31.9L346.7 368h-93.3l-64.9 38.9c-14 8.4-28.9 14.7-44.5 19v-66.4c9.7-5.6 17.8-13.7 23.4-23.4h198.8c67.1 0 127.8-20.6 170.3-70.6 4.6-5.4 4.6-13.3 0-18.8-42.5-50.1-103.2-70.6-170.3-70.6H167.4c-5.6-9.7-13.7-17.8-23.4-23.4V86.3c15.6 4.2 30.6 10.6 44.5 19l64.9 38.9h93.3L213.2 64.1C178.4 43 138.6 32 98 32H48C21.5 32 0 53.5 0 80zm96 0v64H48v-64zm0-288v64H48V80zm320 144c8.8 0 16 7.2 16 16v32c0 8.8-7.2 16-16 16s-16-7.2-16-16v-32c0-8.8 7.2-16 16-16"/></svg>