<svg xmlns="http://www.w3.org/2000/svg" viewBox="0 0 576 512"><!--! Font Awesome Free 7.1.0 by @fontawesome - https://fontawesome.com License - https://fontawesome.com/license/free (Icons: CC BY 4.0, Fonts: SIL OFL 1.1, Code: MIT License) Copyright 2025 Fonticons, Inc.--><path d="M120 32c-48.6 0-88 39.4-88 88v168c0 17.7 14.3 32 32 32s32-14.3 32-32v-64h64v64c0 17.7 14.3 32 32 32s32-14.3 32-32V120c0-48.6-39.4-88-88-88zm40 128H96v-40c0-13.3 10.7-24 24-24h16c13.3 0 24 10.7 24 24zM304 32c-17.7 0-32 14.3-32 32v224c0 17.7 14.3 32 32 32h72c48.6 0 88-39.4 88-88 0-23.6-9.3-45-24.4-60.8 10.3-14.4 16.4-32.1 16.4-51.2 0-48.6-39.4-88-88-88zm64 112h-32V96h32c13.3 0 24 10.7 24 24s-10.7 24-24 24m-32 112v-48h40c13.3 0 24 10.7 24 24s-10.7 24-24 24zm233 84c11-13.8 8.8-33.9-5-45s-33.9-8.8-45 5L413.3 432.1l-38.7-38.7c-12.5-12.5-32.8-12.5-45.3 0s-12.5 32.8 0 45.3l64 64c6.4 6.4 15.3 9.8 24.4 9.3s17.5-4.9 23.2-12z"/></svg>