<svg xmlns="http://www.w3.org/2000/svg" viewBox="0 0 448 512"><!--! Font Awesome Free 7.1.0 by @fontawesome - https://fontawesome.com License - https://fontawesome.com/license/free (Icons: CC BY 4.0, Fonts: SIL OFL 1.1, Code: MIT License) Copyright 2025 Fonticons, Inc.--><path d="M0 96c0-35.3 28.7-64 64-64h320c35.3 0 64 28.7 64 64v320c0 35.3-28.7 64-64 64H64c-35.3 0-64-28.7-64-64zm144 4c-24.3 0-44 19.7-44 44v48c0 24.3 19.7 44 44 44h32c24.3 0 44-19.7 44-44v-48c0-24.3-19.7-44-44-44zm-4 44c0-2.2 1.8-4 4-4h32c2.2 0 4 1.8 4 4v48c0 2.2-1.8 4-4 4h-32c-2.2 0-4-1.8-4-4zm140-44c-11 0-20 9-20 20 0 9.7 6.9 17.7 16 19.6V216c0 11 9 20 20 20s20-9 20-20v-96c0-11-9-20-20-20zM132 296c0 9.7 6.9 17.7 16 19.6V392c0 11 9 20 20 20s20-9 20-20v-96c0-11-9-20-20-20h-16c-11 0-20 9-20 20m96 24v48c0 24.3 19.7 44 44 44h32c24.3 0 44-19.7 44-44v-48c0-24.3-19.7-44-44-44h-32c-24.3 0-44 19.7-44 44m44-4h32c2.2 0 4 1.8 4 4v48c0 2.2-1.8 4-4 4h-32c-2.2 0-4-1.8-4-4v-48c0-2.2 1.8-4 4-4"/></svg>