<svg xmlns="http://www.w3.org/2000/svg" viewBox="0 0 448 512"><!--! Font Awesome Free 7.1.0 by @fontawesome - https://fontawesome.com License - https://fontawesome.com/license/free (Icons: CC BY 4.0, Fonts: SIL OFL 1.1, Code: MIT License) Copyright 2025 Fonticons, Inc.--><path d="M64 32C28.7 32 0 60.7 0 96v320c0 35.3 28.7 64 64 64h320c35.3 0 64-28.7 64-64V96c0-35.3-28.7-64-64-64zm145.1 235.9-100.7-60.5c-7.7-4.6-12.4-12.9-12.4-21.9 0-14.1 11.4-25.5 25.5-25.5h204.9c14.1 0 25.5 11.4 25.5 25.5 0 9-4.7 17.3-12.4 21.9l-100.6 60.5c-4.5 2.7-9.6 4.1-14.9 4.1s-10.4-1.4-14.9-4.1M352 237.3V320c0 17.7-14.3 32-32 32H128c-17.7 0-32-14.3-32-32v-82.7l96.7 58c9.4 5.7 20.3 8.7 31.3 8.7s21.9-3 31.3-8.7z"/></svg>