<svg xmlns="http://www.w3.org/2000/svg" viewBox="0 0 448 512"><!--! Font Awesome Free 7.1.0 by @fontawesome - https://fontawesome.com License - https://fontawesome.com/license/free (Icons: CC BY 4.0, Fonts: SIL OFL 1.1, Code: MIT License) Copyright 2025 Fonticons, Inc.--><path d="M64 32C28.7 32 0 60.7 0 96v320c0 35.3 28.7 64 64 64h320c35.3 0 64-28.7 64-64V96c0-35.3-28.7-64-64-64zm29 140.3 35 63v-51.4c0-13.3 10.7-24 24-24s24 10.7 24 24v144c0 10.9-7.4 20.5-18 23.2s-21.7-2-27-11.6l-35-63v51.4c0 13.3-10.7 24-24 24s-24-10.7-24-24v-144c0-10.9 7.4-20.5 18-23.2s21.7 2 27 11.6M208 184c0-13.3 10.7-24 24-24h80c13.3 0 24 10.7 24 24s-10.7 24-24 24h-56v32h40c13.3 0 24 10.7 24 24s-10.7 24-24 24h-40v40c0 13.3-10.7 24-24 24s-24-10.7-24-24zm192 0v144c0 13.3-10.7 24-24 24s-24-10.7-24-24V184c0-13.3 10.7-24 24-24s24 10.7 24 24"/></svg>