<svg xmlns="http://www.w3.org/2000/svg" viewBox="0 0 448 512"><!--! Font Awesome Free 7.1.0 by @fontawesome - https://fontawesome.com License - https://fontawesome.com/license/free (Icons: CC BY 4.0, Fonts: SIL OFL 1.1, Code: MIT License) Copyright 2025 Fonticons, Inc.--><path d="M192 32V0c0-17.7 14.3-32 32-32s32 14.3 32 32v32h64c53 0 96 43 96 96s-43 96-96 96h-16v-64h16c17.7 0 32-14.3 32-32s-14.3-32-32-32h-64v192h32c53 0 96 43 96 96 0 47.6-34.6 87.1-80 94.7v-67c9.6-5.5 16-15.9 16-27.7 0-17.7-14.3-32-32-32h-32v160c0 17.7-14.3 32-32 32s-32-14.3-32-32v-32h-32c-17.7 0-32-14.3-32-32s14.3-32 32-32h32v-64h-32c-53 0-96-43-96-96 0-47.6 34.6-87.1 80-94.7v67c-9.6 5.5-16 15.9-16 27.7 0 17.7 14.3 32 32 32h32V96h-72.6c-11.1 19.1-31.7 32-55.4 32H48c-26.5 0-48-21.5-48-48s21.5-48 48-48z"/></svg>