<svg xmlns="http://www.w3.org/2000/svg" viewBox="0 0 512 512"><!--! Font Awesome Free 7.1.0 by @fontawesome - https://fontawesome.com License - https://fontawesome.com/license/free (Icons: CC BY 4.0, Fonts: SIL OFL 1.1, Code: MIT License) Copyright 2025 Fonticons, Inc.--><path d="M312 201.8c0-17.4 9.2-33.2 19.9-47C344.5 138.6 352 118.2 352 96c0-53-43-96-96-96s-96 43-96 96c0 22.1 7.5 42.5 20.1 58.8 10.7 13.8 19.9 29.6 19.9 47 0 29.9-24.3 54.2-54.2 54.2H112C50.1 256 0 306.1 0 368c0 26.5 21.5 48 48 48h416c26.5 0 48-21.5 48-48 0-61.9-50.1-112-112-112h-33.8c-29.9 0-54.2-24.3-54.2-54.2M56 464c-13.3 0-24 10.7-24 24s10.7 24 24 24h400c13.3 0 24-10.7 24-24s-10.7-24-24-24z"/></svg>