<svg xmlns="http://www.w3.org/2000/svg" viewBox="0 0 448 512"><!--! Font Awesome Free 7.1.0 by @fontawesome - https://fontawesome.com License - https://fontawesome.com/license/free (Icons: CC BY 4.0, Fonts: SIL OFL 1.1, Code: MIT License) Copyright 2025 Fonticons, Inc.--><path d="M168.5 0c-13.3 0-24 10.7-24 24s10.7 24 24 24h32v25.3C92.5 85.2 8.5 176.8 8.5 288c0 119.3 96.7 216 216 216s216-96.7 216-216c0-39.8-10.8-77.1-29.6-109.2l28.2-28.2c12.5-12.5 12.5-32.8 0-45.3s-32.8-12.5-45.3 0l-23.4 23.4c-32.9-30.2-75.2-50.3-122-55.5V47.9h32c13.3 0 24-10.7 24-24s-10.7-24-24-24h-112zm80 184v104c0 13.3-10.7 24-24 24s-24-10.7-24-24V184c0-13.3 10.7-24 24-24s24 10.7 24 24"/></svg>