<svg xmlns="http://www.w3.org/2000/svg" viewBox="0 0 576 512"><!--! Font Awesome Free 7.1.0 by @fontawesome - https://fontawesome.com License - https://fontawesome.com/license/free (Icons: CC BY 4.0, Fonts: SIL OFL 1.1, Code: MIT License) Copyright 2025 Fonticons, Inc.--><path d="M41-24.9c-9.4-9.4-24.6-9.4-33.9 0S-2.3-.3 7 9.1l528 528c9.4 9.4 24.6 9.4 33.9 0s9.4-24.6 0-33.9l-57-57V255.9c26.8-1.9 48-24.3 48-51.6 0-8-1.9-16-5.5-23.2L497.7 67.4c-10.9-21.7-33-35.4-57.3-35.4H135.6c-10.7 0-21 2.7-30.2 7.6zM321.8 256H448v126.2zM352 421.8l-64-64V368c0 8.8-7.2 16-16 16H144c-8.8 0-16-7.2-16-16V256h58.2L51.4 121.2l-29.9 59.9c-3.6 7.2-5.5 15.1-5.5 23.2 0 27.3 21.2 49.7 48 51.6V432c0 26.5 21.5 48 48 48h192c26.5 0 48-21.5 48-48z"/></svg>