<svg xmlns="http://www.w3.org/2000/svg" viewBox="0 0 384 512"><!--! Font Awesome Free 7.1.0 by @fontawesome - https://fontawesome.com License - https://fontawesome.com/license/free (Icons: CC BY 4.0, Fonts: SIL OFL 1.1, Code: MIT License) Copyright 2025 Fonticons, Inc.--><path d="M144 24c0-4.4 3.6-8 8-8h80c4.4 0 8 3.6 8 8v72h-96zm176 72h-32V24c0-30.9-25.1-56-56-56h-80c-30.9 0-56 25.1-56 56v72H64c-35.3 0-64 28.7-64 64v288c0 35.3 28.7 64 64 64 0 17.7 14.3 32 32 32s32-14.3 32-32h128c0 17.7 14.3 32 32 32s32-14.3 32-32c35.3 0 64-28.7 64-64V160c0-35.3-28.7-64-64-64M120 208h144c13.3 0 24 10.7 24 24s-10.7 24-24 24H120c-13.3 0-24-10.7-24-24s10.7-24 24-24m0 128h144c13.3 0 24 10.7 24 24s-10.7 24-24 24H120c-13.3 0-24-10.7-24-24s10.7-24 24-24"/></svg>