<svg xmlns="http://www.w3.org/2000/svg" viewBox="0 0 512 512"><!--! Font Awesome Free 7.1.0 by @fontawesome - https://fontawesome.com License - https://fontawesome.com/license/free (Icons: CC BY 4.0, Fonts: SIL OFL 1.1, Code: MIT License) Copyright 2025 Fonticons, Inc.--><path d="M0 48C0 21.5 21.5 0 48 0h96c26.5 0 48 21.5 48 48v368c0 53-43 96-96 96S0 469 0 416zm240 361.6V138.1L288.1 90c18.7-18.7 49.1-18.7 67.9 0l67.9 67.9c18.7 18.7 18.7 49.1 0 67.9zM205.5 512l192-192h66.6c26.5 0 48 21.5 48 48v96c0 26.5-21.5 48-48 48H205.6zM80 64c-8.8 0-16 7.2-16 16v32c0 8.8 7.2 16 16 16h32c8.8 0 16-7.2 16-16V80c0-8.8-7.2-16-16-16zM64 208v32c0 8.8 7.2 16 16 16h32c8.8 0 16-7.2 16-16v-32c0-8.8-7.2-16-16-16H80c-8.8 0-16 7.2-16 16m32 232a24 24 0 1 0 0-48 24 24 0 1 0 0 48"/></svg>