<svg xmlns="http://www.w3.org/2000/svg" viewBox="0 0 512 512"><!--! Font Awesome Free 7.1.0 by @fontawesome - https://fontawesome.com License - https://fontawesome.com/license/free (Icons: CC BY 4.0, Fonts: SIL OFL 1.1, Code: MIT License) Copyright 2025 Fonticons, Inc.--><path d="M480.1 192h7.9c13.3 0 24-10.7 24-24V24c0-9.7-5.8-18.5-14.8-22.2S477.9.2 471 7l-51.7 51.8C375 22.1 318 0 256 0 127 0 20.3 95.4 2.6 219.5c-2.5 17.5 9.6 33.7 27.1 36.2s33.7-9.7 36.2-27.1C79.2 135.5 159.3 64 256 64c44.4 0 85.2 15 117.7 40.3L327 151c-6.9 6.9-8.9 17.2-5.2 26.2S334.3 192 344 192zm29.4 100.5c2.5-17.5-9.7-33.7-27.1-36.2s-33.7 9.7-36.2 27.1c-13.3 93-93.4 164.5-190.1 164.5-44.4 0-85.2-15-117.7-40.3L185 361c6.9-6.9 8.9-17.2 5.2-26.2S177.7 320 168 320H24c-13.3 0-24 10.7-24 24v144c0 9.7 5.8 18.5 14.8 22.2s19.3 1.6 26.2-5.2l51.8-51.8C137 489.9 194 512 256 512c129 0 235.7-95.4 253.4-219.5z"/></svg>