<svg xmlns="http://www.w3.org/2000/svg" viewBox="0 0 576 512"><!--! Font Awesome Free 7.1.0 by @fontawesome - https://fontawesome.com License - https://fontawesome.com/license/free (Icons: CC BY 4.0, Fonts: SIL OFL 1.1, Code: MIT License) Copyright 2025 Fonticons, Inc.--><path d="M497.5-17c-9.4-9.4-24.6-9.4-33.9 0s-9.4 24.6 0 33.9l15 15L432.5 78l-63-63c-9.4-9.4-24.6-9.4-33.9 0s-9.4 24.6 0 33.9l7 7-78.1 78.1 41 41c9.4 9.4 9.4 24.6 0 33.9s-24.6 9.4-33.9 0l-41-41-46.1 46.1 41 41c9.4 9.4 9.4 24.6 0 33.9s-24.6 9.4-33.9 0l-41-41-37.7 37.7a55.92 55.92 0 0 0-16.4 39.6V414l-57 57c-9.4 9.4-9.4 24.6 0 33.9s24.6 9.4 33.9 0l57-57h88.8c14.9 0 29.1-5.9 39.6-16.4l229.7-229.7 7 7c9.4 9.4 24.6 9.4 33.9 0s9.4-24.6 0-33.9l-63-63 46.1-46.1 15 15c9.4 9.4 24.6 9.4 33.9 0s9.4-24.6 0-33.9l-64-64z"/></svg>