<svg xmlns="http://www.w3.org/2000/svg" viewBox="0 0 640 512"><!--! Font Awesome Free 7.1.0 by @fontawesome - https://fontawesome.com License - https://fontawesome.com/license/free (Icons: CC BY 4.0, Fonts: SIL OFL 1.1, Code: MIT License) Copyright 2025 Fonticons, Inc.--><path d="M256 288v-64h153.3c17.1-42.2 56-73.2 102.7-79V96c0-35.3-28.7-64-64-64H128c-35.3 0-64 28.7-64 64v320c0 35.3 28.7 64 64 64h241.3c-.9-5.2-1.3-10.6-1.3-16.1V416H256v-64h113.3c3.7-22 14.8-41.4 30.7-55.6V288zm0-192h192v64H256zm304 176.1V320h-64v-47.9c0-17.7 14.3-32 32-32s32 14.3 32 32M416 368v96c0 26.5 21.5 48 48 48h128c26.5 0 48-21.5 48-48v-96c0-20.9-13.4-38.7-32-45.3v-50.6c0-44.2-35.8-80-80-80s-80 35.8-80 80v50.6c-18.6 6.6-32 24.4-32 45.3"/></svg>