<svg xmlns="http://www.w3.org/2000/svg" viewBox="0 0 640 512"><!--! Font Awesome Free 7.1.0 by @fontawesome - https://fontawesome.com License - https://fontawesome.com/license/free (Icons: CC BY 4.0, Fonts: SIL OFL 1.1, Code: MIT License) Copyright 2025 Fonticons, Inc.--><path d="M256 224v192h64V224zm256-79c-46.7 5.8-85.6 36.8-102.7 79H384v90.8c-10.1 15.2-16 33.4-16 53.1v96c0 5.5.5 10.9 1.3 16.1H128c-35.3 0-64-28.7-64-64V96c0-35.3 28.7-64 64-64h320c35.3 0 64 28.7 64 64zm-384 79v192h64V224zm432 48c-.1-17.6-14.4-31.9-32-31.9-17.7 0-32 14.3-32 32V320h96c26.5 0 48 21.5 48 48v96c0 26.5-21.5 48-48 48H464c-26.5 0-48-21.5-48-48v-96c0-20.9 13.4-38.7 32-45.3v-50.6c0-44.2 35.8-80 80-80s79.9 35.8 80 79.9z"/></svg>