<svg xmlns="http://www.w3.org/2000/svg" viewBox="0 0 512 512"><!--! Font Awesome Free 7.1.0 by @fontawesome - https://fontawesome.com License - https://fontawesome.com/license/free (Icons: CC BY 4.0, Fonts: SIL OFL 1.1, Code: MIT License) Copyright 2025 Fonticons, Inc.--><path d="M0 256a256 256 0 1 1 512 0 256 256 0 1 1-512 0M288 96a32 32 0 1 0-64 0 32 32 0 1 0 64 0m-32 320c35.3 0 64-28.7 64-64 0-16.2-6-31.1-16-42.3l69.5-138.9c5.9-11.9 1.1-26.3-10.7-32.2s-26.3-1.1-32.2 10.7l-69.5 138.9c-1.7-.1-3.4-.2-5.1-.2-35.3 0-64 28.7-64 64s28.7 64 64 64m-80-272a32 32 0 1 0-64 0 32 32 0 1 0 64 0M96 288a32 32 0 1 0 0-64 32 32 0 1 0 0 64m352-32a32 32 0 1 0-64 0 32 32 0 1 0 64 0"/></svg>