<svg xmlns="http://www.w3.org/2000/svg" viewBox="0 0 576 512"><!--! Font Awesome Free 7.1.0 by @fontawesome - https://fontawesome.com License - https://fontawesome.com/license/free (Icons: CC BY 4.0, Fonts: SIL OFL 1.1, Code: MIT License) Copyright 2025 Fonticons, Inc.--><path d="M412.8 416c41.5-40.7 67.2-97.3 67.2-160 0-123.7-100.3-224-224-224S32 132.3 32 256s100.3 224 224 224h288c17.7 0 32-14.3 32-32s-14.3-32-32-32zM256 160a96 96 0 1 1 0 192 96 96 0 1 1 0-192m48 96a48 48 0 1 0-96 0 48 48 0 1 0 96 0"/></svg>