<svg xmlns="http://www.w3.org/2000/svg" viewBox="0 0 512 512"><!--! Font Awesome Free 7.1.0 by @fontawesome - https://fontawesome.com License - https://fontawesome.com/license/free (Icons: CC BY 4.0, Fonts: SIL OFL 1.1, Code: MIT License) Copyright 2025 Fonticons, Inc.--><path d="M256 160c35.3 0 64-26.9 64-60 0-24-33.7-70.1-52.2-93.5-6.1-7.7-17.5-7.7-23.6 0C225.7 29.9 192 76 192 100c0 33.1 28.7 60 64 60m112-64c0 61.9-50.1 112-112 112S144 157.9 144 96c0-11.1 1.6-21.9 4.6-32H64C28.7 64 0 92.7 0 128v256c0 35.3 28.7 64 64 64h277.5c17 0 33.3-6.7 45.3-18.7l106.5-106.6c12-12 18.7-28.3 18.7-45.3V128c0-35.3-28.7-64-64-64h-84.6c3 10.1 4.6 20.9 4.6 32m85.5 176L336 389.5V296c0-13.3 10.7-24 24-24zM96 128a32 32 0 1 1 0 64 32 32 0 1 1 0-64"/></svg>