<svg xmlns="http://www.w3.org/2000/svg" viewBox="0 0 512 512"><!--! Font Awesome Free 7.1.0 by @fontawesome - https://fontawesome.com License - https://fontawesome.com/license/free (Icons: CC BY 4.0, Fonts: SIL OFL 1.1, Code: MIT License) Copyright 2025 Fonticons, Inc.--><path d="M448 64c35.3 0 64 28.7 64 64v149.5c0 17-6.7 33.3-18.7 45.3L386.7 429.3c-12 12-28.3 18.7-45.3 18.7H64c-35.3 0-64-28.7-64-64V128c0-35.3 28.7-64 64-64zm5.5 208H360c-13.3 0-24 10.7-24 24v93.5zM96 192a32 32 0 1 0 0-64 32 32 0 1 0 0 64"/></svg>