<svg xmlns="http://www.w3.org/2000/svg" viewBox="0 0 512 512"><!--! Font Awesome Free 7.1.0 by @fontawesome - https://fontawesome.com License - https://fontawesome.com/license/free (Icons: CC BY 4.0, Fonts: SIL OFL 1.1, Code: MIT License) Copyright 2025 Fonticons, Inc.--><path d="M64 32C28.7 32 0 60.7 0 96v80c0 35.3 28.7 64 64 64h384c35.3 0 64-28.7 64-64V96c0-35.3-28.7-64-64-64zm0 272c-35.3 0-64 28.7-64 64v48c0 35.3 28.7 64 64 64h384c35.3 0 64-28.7 64-64v-48c0-35.3-28.7-64-64-64zm80-160c0-26.5 21.5-48 48-48s48 21.5 48 48v24c0 13.3-10.7 24-24 24h-48c-13.3 0-24-10.7-24-24zm128 0c0-26.5 21.5-48 48-48s48 21.5 48 48v24c0 13.3-10.7 24-24 24h-48c-13.3 0-24-10.7-24-24zM80 112c17.7 0 32 14.3 32 32v24c0 13.3-10.7 24-24 24H72c-13.3 0-24-10.7-24-24v-24c0-17.7 14.3-32 32-32m320 32c0-17.7 14.3-32 32-32s32 14.3 32 32v24c0 13.3-10.7 24-24 24h-16c-13.3 0-24-10.7-24-24zM48 384v-16c0-8.8 7.2-16 16-16h32c8.8 0 16 7.2 16 16v16c0 17.7-14.3 32-32 32s-32-14.3-32-32m144 48c-26.5 0-48-21.5-48-48v-16c0-8.8 7.2-16 16-16h64c8.8 0 16 7.2 16 16v16c0 26.5-21.5 48-48 48m128 0c-26.5 0-48-21.5-48-48v-16c0-8.8 7.2-16 16-16h64c8.8 0 16 7.2 16 16v16c0 26.5-21.5 48-48 48m112-16c-17.7 0-32-14.3-32-32v-16c0-8.8 7.2-16 16-16h32c8.8 0 16 7.2 16 16v16c0 17.7-14.3 32-32 32"/></svg>