<svg xmlns="http://www.w3.org/2000/svg" viewBox="0 0 512 512"><!--! Font Awesome Free 7.1.0 by @fontawesome - https://fontawesome.com License - https://fontawesome.com/license/free (Icons: CC BY 4.0, Fonts: SIL OFL 1.1, Code: MIT License) Copyright 2025 Fonticons, Inc.--><path d="M0 96c0-35.3 28.7-64 64-64h384c35.3 0 64 28.7 64 64v320c0 35.3-28.7 64-64 64H64c-35.3 0-64-28.7-64-64zm144 112v24c0 13.3 10.7 24 24 24h48c13.3 0 24-10.7 24-24v-24c0-26.5-21.5-48-48-48s-48 21.5-48 48m128 0v24c0 13.3 10.7 24 24 24h48c13.3 0 24-10.7 24-24v-24c0-26.5-21.5-48-48-48s-48 21.5-48 48M80 176c-17.7 0-32 14.3-32 32v24c0 13.3 10.7 24 24 24h16c13.3 0 24-10.7 24-24v-24c0-17.7-14.3-32-32-32m320 32v24c0 13.3 10.7 24 24 24h16c13.3 0 24-10.7 24-24v-24c0-17.7-14.3-32-32-32s-32 14.3-32 32M48 336c0 17.7 14.3 32 32 32s32-14.3 32-32v-16c0-8.8-7.2-16-16-16H64c-8.8 0-16 7.2-16 16zm144 48c26.5 0 48-21.5 48-48v-16c0-8.8-7.2-16-16-16h-64c-8.8 0-16 7.2-16 16v16c0 26.5 21.5 48 48 48m128 0c26.5 0 48-21.5 48-48v-16c0-8.8-7.2-16-16-16h-64c-8.8 0-16 7.2-16 16v16c0 26.5 21.5 48 48 48m112-16c17.7 0 32-14.3 32-32v-16c0-8.8-7.2-16-16-16h-32c-8.8 0-16 7.2-16 16v16c0 17.7 14.3 32 32 32"/></svg>