<svg xmlns="http://www.w3.org/2000/svg" viewBox="0 0 512 512"><!--! Font Awesome Free 7.1.0 by @fontawesome - https://fontawesome.com License - https://fontawesome.com/license/free (Icons: CC BY 4.0, Fonts: SIL OFL 1.1, Code: MIT License) Copyright 2025 Fonticons, Inc.--><path d="M450.2 266.8c15.8 6.5 34.1.3 42.6-14.6l2.4-4.2c27.9-48.9 23.6-118.8-31.3-154.5-126-82-289.6-82-415.6 0C-6.6 129.2-11 199.2 17 248l2.4 4.2c8.5 14.9 26.7 21.1 42.6 14.6l81.9-33.7c13.9-5.7 22.4-19.9 20.9-34.9l-5.1-51c62.5-21 130.8-19.9 192.6 3.3l-4.8 47.7c-1.5 15 7 29.2 20.9 34.9l81.9 33.7zM32 352a32 32 0 1 0 64 0 32 32 0 1 0-64 0m96 0a32 32 0 1 0 64 0 32 32 0 1 0-64 0m-64 64a32 32 0 1 0 0 64 32 32 0 1 0 0-64m352 32a32 32 0 1 0 64 0 32 32 0 1 0-64 0M256 320a32 32 0 1 0 0 64 32 32 0 1 0 0-64m64 32a32 32 0 1 0 64 0 32 32 0 1 0-64 0m128-32a32 32 0 1 0 0 64 32 32 0 1 0 0-64M128 448c0 17.7 14.3 32 32 32h192c17.7 0 32-14.3 32-32s-14.3-32-32-32H160c-17.7 0-32 14.3-32 32"/></svg>