<svg xmlns="http://www.w3.org/2000/svg" viewBox="0 0 512 512"><!--! Font Awesome Free 7.1.0 by @fontawesome - https://fontawesome.com License - https://fontawesome.com/license/free (Icons: CC BY 4.0, Fonts: SIL OFL 1.1, Code: MIT License) Copyright 2025 Fonticons, Inc.--><path d="M64.5 96c0-53 43-96 96-96s96 43 96 96v164.7c29.5 26.4 48 64.7 48 107.3 0 79.5-64.5 144-144 144s-144-64.5-144-144c0-42.6 18.5-81 48-107.3zm96 336c35.3 0 64-28.7 64-64 0-26.9-16.5-49.9-40-59.3V280c0-13.3-10.7-24-24-24s-24 10.7-24 24v28.7c-23.5 9.5-40 32.5-40 59.3 0 35.3 28.7 64 64 64m278.6-121.4c-6 6-14.1 9.4-22.6 9.4s-16.6-3.4-22.6-9.4l-64-64c-12.5-12.5-12.5-32.8 0-45.3s32.8-12.5 45.3 0l9.4 9.4V32c0-17.7 14.3-32 32-32s32 14.3 32 32v178.7l9.4-9.4c12.5-12.5 32.8-12.5 45.3 0s12.5 32.8 0 45.3l-64 64z"/></svg>