<svg xmlns="http://www.w3.org/2000/svg" viewBox="0 0 512 512"><!--! Font Awesome Free 7.1.0 by @fontawesome - https://fontawesome.com License - https://fontawesome.com/license/free (Icons: CC BY 4.0, Fonts: SIL OFL 1.1, Code: MIT License) Copyright 2025 Fonticons, Inc.--><path d="M-.5 113c-9.4-9.4-9.4-24.6 0-33.9l72-72c9.4-9.4 24.6-9.4 33.9 0s9.4 24.6 0 33.9l-31 31h364.2l-31-31c-9.4-9.4-9.4-24.6 0-33.9s24.6-9.4 33.9 0l72 72c9.4 9.4 9.4 24.6 0 33.9l-72 72c-9.4 9.4-24.6 9.4-33.9 0s-9.4-24.6 0-33.9l31-31H74.4l31 31c9.4 9.4 9.4 24.6 0 33.9s-24.6 9.4-33.9 0zm37.6 363 23.2-183.4c1.2-9.7 6.8-18.3 15.1-23.3L238.8 170c10.2-6.2 22.9-6.2 33.1-.1l165.5 99.4c8.4 5 14 13.7 15.3 23.4L475.9 476c2.4 19.1-12.5 36-31.7 36h-71.9c-12.1 0-23.2-6.8-28.6-17.7l-68.3-136.4c-1.8-3.6-5.5-5.9-9.5-5.9-5.9 0-10.6 4.7-10.6 10.6V480c0 17.7-14.3 32-32 32H68.8c-19.3 0-34.2-16.9-31.7-36"/></svg>