<svg xmlns="http://www.w3.org/2000/svg" viewBox="0 0 512 512"><!--! Font Awesome Free 7.1.0 by @fontawesome - https://fontawesome.com License - https://fontawesome.com/license/free (Icons: CC BY 4.0, Fonts: SIL OFL 1.1, Code: MIT License) Copyright 2025 Fonticons, Inc.--><path d="M185.5 121c9.4-9.4 9.4-24.6 0-33.9s-24.6-9.4-33.9 0l-31 31V16c0-13.3-10.7-24-24-24s-24 10.7-24 24v102.1l-31-31c-9.4-9.4-24.6-9.4-33.9 0s-9.4 24.6 0 33.9l72 72c9.4 9.4 24.6 9.4 33.9 0l72-72zm248 72 72-72c9.4-9.4 9.4-24.6 0-33.9s-24.6-9.4-33.9 0l-31 31V16c0-13.3-10.7-24-24-24s-24 10.7-24 24v102.1l-31-31c-9.4-9.4-24.6-9.4-33.9 0s-9.4 24.6 0 33.9l72 72c9.4 9.4 24.6 9.4 33.9 0zM60.3 292.6 37.1 476c-2.4 19.1 12.5 36 31.7 36h154.5c17.7 0 32-14.3 32-32V362.6c0-5.9 4.7-10.6 10.6-10.6 4 0 7.7 2.3 9.5 5.9l68.2 136.5c5.4 10.8 16.5 17.7 28.6 17.7h71.9c19.3 0 34.2-16.9 31.7-36l-23.1-183.4c-1.2-9.7-6.9-18.4-15.3-23.4l-165.5-99.4c-10.2-6.1-22.9-6.1-33.1.1L75.4 269.3c-8.3 5.1-13.9 13.7-15.1 23.3"/></svg>