<svg xmlns="http://www.w3.org/2000/svg" viewBox="0 0 576 512"><!--! Font Awesome Free 7.1.0 by @fontawesome - https://fontawesome.com License - https://fontawesome.com/license/free (Icons: CC BY 4.0, Fonts: SIL OFL 1.1, Code: MIT License) Copyright 2025 Fonticons, Inc.--><path d="M40 32C17.9 32 0 49.9 0 72v56c0 17.7 14.3 32 32 32s32-14.3 32-32V96h64v320H96c-17.7 0-32 14.3-32 32s14.3 32 32 32h128c17.7 0 32-14.3 32-32s-14.3-32-32-32h-32V96h64v32c0 17.7 14.3 32 32 32s32-14.3 32-32V72c0-22.1-17.9-40-40-40zm398.6 329.4c-12.5-12.5-32.8-12.5-45.3 0s-12.5 32.8 0 45.3l64 64c12.5 12.5 32.8 12.5 45.3 0l64-64c12.5-12.5 12.5-32.8 0-45.3s-32.8-12.5-45.3 0l-9.4 9.4V141.3l9.4 9.4c12.5 12.5 32.8 12.5 45.3 0s12.5-32.8 0-45.3l-64-64c-6-6-14.1-9.4-22.6-9.4s-16.6 3.4-22.6 9.4l-64 64c-12.5 12.5-12.5 32.8 0 45.3s32.8 12.5 45.3 0l9.4-9.4v229.5l-9.4-9.4z"/></svg>