<svg xmlns="http://www.w3.org/2000/svg" viewBox="0 0 512 512"><!--! Font Awesome Free 7.1.0 by @fontawesome - https://fontawesome.com License - https://fontawesome.com/license/free (Icons: CC BY 4.0, Fonts: SIL OFL 1.1, Code: MIT License) Copyright 2025 Fonticons, Inc.--><path d="M96 382.1v-88.8c0-14.9 5.9-29.1 16.4-39.6l21.7-21.7 41 41c9.4 9.4 24.6 9.4 33.9 0s9.4-24.6 0-33.9l-41-41 46.1-46.1 41 41c9.4 9.4 24.6 9.4 33.9 0s9.4-24.6 0-33.9l-41-41L294.1 72l41 41c9.4 9.4 24.6 9.4 33.9 0s9.4-24.6 0-33.9l-41-41 7.8-7.8C355.2 10.9 381.4.1 408.8.1 465.8.1 512 46.3 512 103.3c0 27.4-10.9 53.6-30.2 73L258.3 399.6a55.92 55.92 0 0 1-39.6 16.4h-88.8l-89 89c-9.4 9.4-24.6 9.4-33.9 0s-9.3-24.6 0-34l89-89z"/></svg>