<svg xmlns="http://www.w3.org/2000/svg" viewBox="0 0 512 512"><!--! Font Awesome Free 7.1.0 by @fontawesome - https://fontawesome.com License - https://fontawesome.com/license/free (Icons: CC BY 4.0, Fonts: SIL OFL 1.1, Code: MIT License) Copyright 2025 Fonticons, Inc.--><path d="M384 32c26.5 0 48 21.5 48 48 0 6.3-1.3 12.2-3.4 17.7C449 103.2 464 121.8 464 144c0 9.1-2.6 17.6-7 24.9 22.2 4.2 39 23.7 39 47.1 0 19.7-11.9 36.6-28.9 44 17 7.4 28.9 24.3 28.9 44 0 26.5-21.5 48-48 48H288l28.2 70.4c2.5 6.3 3.8 13.1 3.8 19.9v4.2c0 27.3-22.1 49.4-49.4 49.4-18.7 0-35.8-10.6-44.2-27.3l-56.3-112.3c-6.7-13.3-10.1-28-10.1-42.9V126.8c0-19.4 8.9-37.8 24-50l12.2-9.7C224.6 44.4 259.8 32 296.1 32zM80 96c17.7 0 32 14.3 32 32v256c0 17.7-14.3 32-32 32H32c-17.7 0-32-14.3-32-32V128c0-17.7 14.3-32 32-32z"/></svg>