<svg xmlns="http://www.w3.org/2000/svg" viewBox="0 0 384 512"><!--! Font Awesome Free 7.1.0 by @fontawesome - https://fontawesome.com License - https://fontawesome.com/license/free (Icons: CC BY 4.0, Fonts: SIL OFL 1.1, Code: MIT License) Copyright 2025 Fonticons, Inc.--><path d="M32 32C32 14.3 46.3 0 64 0h256c17.7 0 32 14.3 32 32s-14.3 32-32 32h-29.5l10.3 134.1c37.1 21.2 65.8 56.4 78.2 99.7l3.8 13.4c2.8 9.7.8 20-5.2 28.1S362 352 352 352H32c-10 0-19.5-4.7-25.5-12.7s-8-18.4-5.2-28.1L5 297.8c12.4-43.3 41-78.5 78.2-99.7L93.5 64H64c-17.7 0-32-14.3-32-32m128 368h64v112c0 17.7-14.3 32-32 32s-32-14.3-32-32z"/></svg>