<svg xmlns="http://www.w3.org/2000/svg" viewBox="0 0 512 512"><!--! Font Awesome Free 7.1.0 by @fontawesome - https://fontawesome.com License - https://fontawesome.com/license/free (Icons: CC BY 4.0, Fonts: SIL OFL 1.1, Code: MIT License) Copyright 2025 Fonticons, Inc.--><path d="M80 160c17.7 0 32 14.3 32 32v256c0 17.7-14.3 32-32 32H32c-17.7 0-32-14.3-32-32V192c0-17.7 14.3-32 32-32zM270.6 16c27.3 0 49.4 22.1 49.4 49.4v4.2c0 6.8-1.3 13.6-3.8 19.9L288 160h160c26.5 0 48 21.5 48 48 0 19.7-11.9 36.6-28.9 44 17 7.4 28.9 24.3 28.9 44 0 23.4-16.8 42.9-39 47.1 4.4 7.3 7 15.8 7 24.9 0 22.2-15 40.8-35.4 46.3 2.2 5.5 3.4 11.5 3.4 17.7 0 26.5-21.5 48-48 48h-87.9c-36.3 0-71.6-12.4-99.9-35.1l-12.2-9.7c-15.2-12.1-24-30.5-24-50V198.6c0-14.9 3.5-29.6 10.1-42.9l56.2-112.4c8.4-16.7 25.5-27.3 44.3-27.3"/></svg>