<svg xmlns="http://www.w3.org/2000/svg" viewBox="0 0 576 512"><!--! Font Awesome Free 7.1.0 by @fontawesome - https://fontawesome.com License - https://fontawesome.com/license/free (Icons: CC BY 4.0, Fonts: SIL OFL 1.1, Code: MIT License) Copyright 2025 Fonticons, Inc.--><path d="M41-24.9c-9.4-9.4-24.6-9.4-33.9 0S-2.3-.3 7 9.1l528 528c9.4 9.4 24.6 9.4 33.9 0s9.4-24.6 0-33.9L417.8 352H448c10 0 19.5-4.7 25.5-12.7s8-18.4 5.2-28.1l-3.7-13.4c-12.4-43.3-41-78.5-78.2-99.7L386.5 64H416c17.7 0 32-14.3 32-32S433.7 0 416 0H160c-7.4 0-14.1 2.5-19.5 6.6l49.6 49.7-4.8 63.1zM282.2 352 149.7 219.6C127 240.1 109.9 267 101 297.9l-3.8 13.4c-2.8 9.7-.8 20 5.2 28.1S118 352 128 352zM256 512c0 17.7 14.3 32 32 32s32-14.3 32-32V400h-64z"/></svg>