<svg xmlns="http://www.w3.org/2000/svg" viewBox="0 0 576 512"><!--! Font Awesome Free 7.1.0 by @fontawesome - https://fontawesome.com License - https://fontawesome.com/license/free (Icons: CC BY 4.0, Fonts: SIL OFL 1.1, Code: MIT License) Copyright 2025 Fonticons, Inc.--><path d="M384 128c70.7 0 128 57.3 128 128s-57.3 128-128 128H192c-70.7 0-128-57.3-128-128s57.3-128 128-128zm192 128c0-106-86-192-192-192H192C86 64 0 150 0 256s86 192 192 192h192c106 0 192-86 192-192m-384 80a80 80 0 1 0 0-160 80 80 0 1 0 0 160"/></svg>