<svg xmlns="http://www.w3.org/2000/svg" viewBox="0 0 512 512"><!--! Font Awesome Free 7.1.0 by @fontawesome - https://fontawesome.com License - https://fontawesome.com/license/free (Icons: CC BY 4.0, Fonts: SIL OFL 1.1, Code: MIT License) Copyright 2025 Fonticons, Inc.--><path d="M327.1 32c-8.8 11.1-16 23.1-21.9 34.8C283.8 109.5 272 165.2 272 224v264c0 30.9-25.1 56-56 56H56c-30.9 0-56-25.1-56-56V224C0 118 43 32 96 32zM416 416c-53 0-96-86-96-192s43-192 96-192 96 86 96 192-43 192-96 192m0-128c17.7 0 32-28.7 32-64s-14.3-64-32-64-32 28.7-32 64 14.3 64 32 64"/></svg>