<svg xmlns="http://www.w3.org/2000/svg" viewBox="0 0 512 512"><!--! Font Awesome Free 7.1.0 by @fontawesome - https://fontawesome.com License - https://fontawesome.com/license/free (Icons: CC BY 4.0, Fonts: SIL OFL 1.1, Code: MIT License) Copyright 2025 Fonticons, Inc.--><path d="M64 0h96c35.3 0 64 28.7 64 64v16H0V64C0 28.7 28.7 0 64 0M0 128h224v360c0 13.3-10.7 24-24 24s-24-10.7-24-24v-8H48v8c0 13.3-10.7 24-24 24S0 501.3 0 488zm128 120v48c0 13.3 10.7 24 24 24h24v-96h-24c-13.3 0-24 10.7-24 24M352 0h96c35.3 0 64 28.7 64 64v16H288V64c0-35.3 28.7-64 64-64m-64 128h224v360c0 13.3-10.7 24-24 24s-24-10.7-24-24v-8H336v8c0 13.3-10.7 24-24 24s-24-10.7-24-24zm128 120v48c0 13.3 10.7 24 24 24h24v-96h-24c-13.3 0-24 10.7-24 24"/></svg>