<svg xmlns="http://www.w3.org/2000/svg" viewBox="0 0 320 512"><!--! Font Awesome Free 7.1.0 by @fontawesome - https://fontawesome.com License - https://fontawesome.com/license/free (Icons: CC BY 4.0, Fonts: SIL OFL 1.1, Code: MIT License) Copyright 2025 Fonticons, Inc.--><path d="M0 64v16h320V64c0-35.3-28.7-64-64-64H64C28.7 0 0 28.7 0 64m24 64H0v360c0 13.3 10.7 24 24 24s24-10.7 24-24v-8h224v8c0 13.3 10.7 24 24 24s24-10.7 24-24V128zm224 96h24v96h-24c-13.3 0-24-10.7-24-24v-48c0-13.3 10.7-24 24-24"/></svg>