<svg xmlns="http://www.w3.org/2000/svg" viewBox="0 0 576 512"><!--! Font Awesome Free 7.1.0 by @fontawesome - https://fontawesome.com License - https://fontawesome.com/license/free (Icons: CC BY 4.0, Fonts: SIL OFL 1.1, Code: MIT License) Copyright 2025 Fonticons, Inc.--><path d="M70.8-6.7c5.4-5.4 13.8-6.2 20.2-2l118.9 79.2c8.9 5.9 14.2 15.9 14.2 26.6v49.6l90.8 90.8c33.3-15 73.9-8.9 101.2 18.5l126.1 126.1c18.7 18.7 18.7 49.1 0 67.9l-60.1 60.1c-18.7 18.7-49.1 18.7-67.9 0L288.1 384c-27.4-27.4-33.5-67.9-18.5-101.2L178.8 192h-49.6c-10.7 0-20.7-5.3-26.6-14.2L23.4 58.9c-4.2-6.3-3.4-14.8 2-20.2zm145 303.5c-6.3 36.9 2.3 75.9 26.2 107.2l-94.9 95c-28.1 28.1-73.7 28.1-101.8 0s-28.1-73.7 0-101.8l135.4-135.5 35.2 35.1zM384.1 0c20.1 0 39.4 3.7 57.1 10.5 10 3.8 11.8 16.5 4.3 24.1l-56.7 56.7c-3 3-4.7 7.1-4.7 11.3V144c0 8.8 7.2 16 16 16h41.4c4.2 0 8.3-1.7 11.3-4.7l56.7-56.7c7.6-7.5 20.3-5.7 24.1 4.3 6.8 17.7 10.5 37 10.5 57.1 0 43.2-17.2 82.3-45 111.1L450 222c-33.1-33-78.5-45.7-121.1-38.4l-56.8-56.8V97.1l-.2-5c-.8-12.4-4.4-24.3-10.5-34.9C290.8 22.2 334.8 0 384.1-.1z"/></svg>