<svg xmlns="http://www.w3.org/2000/svg" viewBox="0 0 448 512"><!--! Font Awesome Free 7.1.0 by @fontawesome - https://fontawesome.com License - https://fontawesome.com/license/free (Icons: CC BY 4.0, Fonts: SIL OFL 1.1, Code: MIT License) Copyright 2025 Fonticons, Inc.--><path d="M0 96V28.5C0 21.6 5.6 16 12.5 16c2.3 0 4.5.6 6.5 1.8l39 23.4C82.9 56.1 111.3 64 140.3 64h167.4c29 0 57.5-7.9 82.3-22.8l39-23.4c1.9-1.2 4.2-1.8 6.4-1.8 6.9 0 12.5 5.6 12.5 12.5L448 96c0 35.3-28.7 64-64 64v64h16c17.7 0 32 14.3 32 32s-14.3 32-32 32h-16v192c0 17.7-14.3 32-32 32s-32-14.3-32-32V288H128v192c0 17.7-14.3 32-32 32s-32-14.3-32-32V288H48c-17.7 0-32-14.3-32-32s14.3-32 32-32h16v-64c-35.3 0-64-28.7-64-64m128 128h64v-64h-64zm128 0h64v-64h-64z"/></svg>