<svg xmlns="http://www.w3.org/2000/svg" viewBox="0 0 640 512"><!--! Font Awesome Free 7.1.0 by @fontawesome - https://fontawesome.com License - https://fontawesome.com/license/free (Icons: CC BY 4.0, Fonts: SIL OFL 1.1, Code: MIT License) Copyright 2025 Fonticons, Inc.--><path d="M346.6 110.2c-7.8-11.7-22.4-17-35.9-12.9S288 113.9 288 128v256c0 17.7 14.3 32 32 32s32-14.3 32-32V233.7l69.4 104.1c5.9 8.9 15.9 14.2 26.6 14.2s20.7-5.3 26.6-14.2L544 233.7V384c0 17.7 14.3 32 32 32s32-14.3 32-32V128c0-14.1-9.2-26.5-22.7-30.6s-28.1 1.1-35.9 12.9L448 262.3zM32 96c-17.7 0-32 14.3-32 32s14.3 32 32 32h64v224c0 17.7 14.3 32 32 32s32-14.3 32-32V160h64c17.7 0 32-14.3 32-32s-14.3-32-32-32z"/></svg>