<svg xmlns="http://www.w3.org/2000/svg" viewBox="0 0 320 512"><!--! Font Awesome Free 7.1.0 by @fontawesome - https://fontawesome.com License - https://fontawesome.com/license/free (Icons: CC BY 4.0, Fonts: SIL OFL 1.1, Code: MIT License) Copyright 2025 Fonticons, Inc.--><path d="M64-32C28.7-32 0-3.3 0 32v352c0 88.4 71.6 160 160 160s160-71.6 160-160V32c0-35.3-28.7-64-64-64zm96 392c30.9 0 56 25.1 56 56s-25.1 56-56 56-56-25.1-56-56 25.1-56 56-56m56-104a56 56 0 1 1-112 0 56 56 0 1 1 112 0m-56-104a56 56 0 1 1 0-112 56 56 0 1 1 0 112"/></svg>