<svg xmlns="http://www.w3.org/2000/svg" viewBox="0 0 384 512"><!--! Font Awesome Free 7.1.0 by @fontawesome - https://fontawesome.com License - https://fontawesome.com/license/free (Icons: CC BY 4.0, Fonts: SIL OFL 1.1, Code: MIT License) Copyright 2025 Fonticons, Inc.--><path d="M0 96C0 43 43 0 96 0h192c53 0 96 43 96 96v256c0 40.1-24.6 74.5-59.5 88.8l53.9 63.7c8.6 10.1 7.3 25.3-2.8 33.8s-25.3 7.3-33.8-2.8l-74-87.5H116.5l-74 87.5c-8.6 10.1-23.7 11.4-33.8 2.8s-11.4-23.7-2.8-33.8l53.9-63.7C24.6 426.5 0 392.1 0 352zm64 32v96c0 17.7 14.3 32 32 32h192c17.7 0 32-14.3 32-32v-96c0-17.7-14.3-32-32-32H96c-17.7 0-32 14.3-32 32m128 256a32 32 0 1 0 0-64 32 32 0 1 0 0 64"/></svg>