<svg xmlns="http://www.w3.org/2000/svg" viewBox="0 0 448 512"><!--! Font Awesome Free 7.1.0 by @fontawesome - https://fontawesome.com License - https://fontawesome.com/license/free (Icons: CC BY 4.0, Fonts: SIL OFL 1.1, Code: MIT License) Copyright 2025 Fonticons, Inc.--><path d="M136.7 5.9C141.1-7.2 153.3-16 167.1-16H281c13.8 0 26 8.8 30.4 21.9L320 32h96c17.7 0 32 14.3 32 32s-14.3 32-32 32H32C14.3 96 0 81.7 0 64s14.3-32 32-32h96zM32 144h384v304c0 35.3-28.7 64-64 64H96c-35.3 0-64-28.7-64-64zm88 64c-13.3 0-24 10.7-24 24v192c0 13.3 10.7 24 24 24s24-10.7 24-24V232c0-13.3-10.7-24-24-24m104 0c-13.3 0-24 10.7-24 24v192c0 13.3 10.7 24 24 24s24-10.7 24-24V232c0-13.3-10.7-24-24-24m104 0c-13.3 0-24 10.7-24 24v192c0 13.3 10.7 24 24 24s24-10.7 24-24V232c0-13.3-10.7-24-24-24"/></svg>