<svg xmlns="http://www.w3.org/2000/svg" viewBox="0 0 448 512"><!--! Font Awesome Free 7.1.0 by @fontawesome - https://fontawesome.com License - https://fontawesome.com/license/free (Icons: CC BY 4.0, Fonts: SIL OFL 1.1, Code: MIT License) Copyright 2025 Fonticons, Inc.--><path d="M136.7 5.9 128 32H32C14.3 32 0 46.3 0 64s14.3 32 32 32h384c17.7 0 32-14.3 32-32s-14.3-32-32-32h-96l-8.7-26.1C306.9-7.2 294.7-16 280.9-16H167.1c-13.8 0-26 8.8-30.4 21.9M416 144H32l21.1 323.1C54.7 492.4 75.7 512 101 512h246c25.3 0 46.3-19.6 47.9-44.9z"/></svg>