<svg xmlns="http://www.w3.org/2000/svg" viewBox="0 0 448 512"><!--! Font Awesome Free 7.1.0 by @fontawesome - https://fontawesome.com License - https://fontawesome.com/license/free (Icons: CC BY 4.0, Fonts: SIL OFL 1.1, Code: MIT License) Copyright 2025 Fonticons, Inc.--><path d="M224-32c7 0 13.7 3.1 18.3 8.5l136 160c6.1 7.1 7.4 17.1 3.5 25.6S369.4 176 360 176h-24.9l75.2 88.5c6.1 7.1 7.4 17.1 3.5 25.6S401.4 304 392 304h-38.5l88.8 104.5c6.1 7.1 7.4 17.1 3.5 25.6S433.4 448 424 448H256v64c0 17.7-14.3 32-32 32s-32-14.3-32-32v-64H24c-9.4 0-17.9-5.4-21.8-13.9s-2.6-18.5 3.5-25.6L94.5 304H56c-9.4 0-17.9-5.4-21.8-13.9s-2.6-18.5 3.5-25.6l75.2-88.5H88c-9.4 0-17.9-5.4-21.8-13.9s-2.6-18.5 3.5-25.6l136-160C210.3-28.9 217-32 224-32"/></svg>