<svg xmlns="http://www.w3.org/2000/svg" viewBox="0 0 640 512"><!--! Font Awesome Free 7.1.0 by @fontawesome - https://fontawesome.com License - https://fontawesome.com/license/free (Icons: CC BY 4.0, Fonts: SIL OFL 1.1, Code: MIT License) Copyright 2025 Fonticons, Inc.--><path d="M288 48c0-26.5 21.5-48 48-48h96c26.5 0 48 21.5 48 48v48h48V24c0-13.3 10.7-24 24-24s24 10.7 24 24v72h16c26.5 0 48 21.5 48 48v320c0 26.5-21.5 48-48 48H336c-26.5 0-48-21.5-48-48zm64 64v32c0 8.8 7.2 16 16 16h32c8.8 0 16-7.2 16-16v-32c0-8.8-7.2-16-16-16h-32c-8.8 0-16 7.2-16 16m16 80c-8.8 0-16 7.2-16 16v32c0 8.8 7.2 16 16 16h32c8.8 0 16-7.2 16-16v-32c0-8.8-7.2-16-16-16zm-16 112v32c0 8.8 7.2 16 16 16h32c8.8 0 16-7.2 16-16v-32c0-8.8-7.2-16-16-16h-32c-8.8 0-16 7.2-16 16m176-112c-8.8 0-16 7.2-16 16v32c0 8.8 7.2 16 16 16h32c8.8 0 16-7.2 16-16v-32c0-8.8-7.2-16-16-16zm-16 112v32c0 8.8 7.2 16 16 16h32c8.8 0 16-7.2 16-16v-32c0-8.8-7.2-16-16-16h-32c-8.8 0-16 7.2-16 16M96 480V320H80c-44.2 0-80-35.8-80-80 0-26.7 13.1-50.3 33.2-64.9-.8-4.9-1.2-10-1.2-15.1 0-53 43-96 96-96s96 43 96 96v96c0 35.3-28.7 64-64 64v160c0 17.7-14.3 32-32 32s-32-14.3-32-32"/></svg>