<svg xmlns="http://www.w3.org/2000/svg" viewBox="0 0 512 512"><!--! Font Awesome Free 7.1.0 by @fontawesome - https://fontawesome.com License - https://fontawesome.com/license/free (Icons: CC BY 4.0, Fonts: SIL OFL 1.1, Code: MIT License) Copyright 2025 Fonticons, Inc.--><path d="M224 32c0-11.5-6.2-22.2-16.2-27.8s-22.3-5.5-32.2.4l-160 96C5.9 106.3 0 116.8 0 128s5.9 21.7 15.5 27.4l160 96c9.9 5.9 22.2 6.1 32.2.4S224 235.5 224 224v-64h256c17.7 0 32-14.3 32-32s-14.3-32-32-32H224zm96 192c-17.7 0-32 14.3-32 32v64c0 17.7 14.3 32 32 32h160c17.7 0 32-14.3 32-32v-64c0-17.7-14.3-32-32-32zM0 416v64c0 17.7 14.3 32 32 32h96c17.7 0 32-14.3 32-32v-64c0-17.7-14.3-32-32-32H32c-17.7 0-32 14.3-32 32m224-32c-17.7 0-32 14.3-32 32v64c0 17.7 14.3 32 32 32h256c17.7 0 32-14.3 32-32v-64c0-17.7-14.3-32-32-32z"/></svg>