<svg xmlns="http://www.w3.org/2000/svg" viewBox="0 0 576 512"><!--! Font Awesome Free 7.1.0 by @fontawesome - https://fontawesome.com License - https://fontawesome.com/license/free (Icons: CC BY 4.0, Fonts: SIL OFL 1.1, Code: MIT License) Copyright 2025 Fonticons, Inc.--><path d="M64 32C28.7 32 0 60.7 0 96v288c0 35.3 28.7 64 64 64h3.3c10.4 36.9 44.4 64 84.7 64s74.2-27.1 84.7-64h102.6c10.4 36.9 44.4 64 84.7 64s74.2-27.1 84.7-64h3.3c35.3 0 64-28.7 64-64V237.3c0-17-6.7-33.3-18.7-45.3L512 146.7c-12-12-28.3-18.7-45.3-18.7H416V96c0-35.3-28.7-64-64-64zm448 205.3V288h-96v-96h50.7zM152 384a40 40 0 1 1 0 80 40 40 0 1 1 0-80m232 40a40 40 0 1 1 80 0 40 40 0 1 1-80 0M208 304c-39.8 0-72-32.2-72-72 0-33.2 34.5-78 55.8-102.4 8.7-10 23.8-10 32.5 0 21.2 24.4 55.8 69.1 55.8 102.4 0 48-32.2 72-72 72z"/></svg>