<svg xmlns="http://www.w3.org/2000/svg" viewBox="0 0 640 512"><!--! Font Awesome Free 7.1.0 by @fontawesome - https://fontawesome.com License - https://fontawesome.com/license/free (Icons: CC BY 4.0, Fonts: SIL OFL 1.1, Code: MIT License) Copyright 2025 Fonticons, Inc.--><path d="M144 48c0-26.5 21.5-48 48-48s48 21.5 48 48v320c0 32.5 12.1 62.1 32 84.7V480c0 7.1.9 14.1 2.7 20.7L192 480 83.9 507c-10.1 2.6-19.9-5.1-19.9-15.5v-19.8c0-4.9 2.2-9.5 6-12.5l74-59.2v-57.6L21.9 391.2C11.4 395.4 0 387.7 0 376.4v-44c0-8 3-15.6 8.3-21.5L144 161.6zm224 80h192c44.2 0 80 35.8 80 80v160c0 26.2-12.6 49.4-32 64v48c0 17.7-14.3 32-32 32s-32-14.3-32-32v-32H384v32c0 17.7-14.3 32-32 32s-32-14.3-32-32v-48c-19.4-14.6-32-37.8-32-64V208c0-44.2 35.8-80 80-80m0 176h192v-32c0-17.7-14.3-32-32-32H400c-17.7 0-32 14.3-32 32zm0 88a24 24 0 1 0 0-48 24 24 0 1 0 0 48m216-24a24 24 0 1 0-48 0 24 24 0 1 0 48 0"/></svg>