<svg xmlns="http://www.w3.org/2000/svg" viewBox="0 0 640 512"><!--! Font Awesome Free 7.1.0 by @fontawesome - https://fontawesome.com License - https://fontawesome.com/license/free (Icons: CC BY 4.0, Fonts: SIL OFL 1.1, Code: MIT License) Copyright 2025 Fonticons, Inc.--><path d="m363.8 96 57.6 96H288V96zM496 192 418.6 63.1C407.1 43.8 386.2 32 363.8 32H256c-17.7 0-32 14.3-32 32v128H80c-26.5 0-48 21.5-48 48v80c-17.7 0-32 14.3-32 32s14.3 32 32 32h32.4c-.2 2.6-.4 5.3-.4 8 0 48.6 39.4 88 88 88s88-39.4 88-88c0-2.7-.1-5.4-.4-8h160.7c-.2 2.6-.4 5.3-.4 8 0 48.6 39.4 88 88 88s88-39.4 88-88c0-2.7-.1-5.4-.4-8h32.4c17.7 0 32-14.3 32-32s-14.3-32-32-32v-80c0-26.5-21.5-48-48-48h-64zM112 392a40 40 0 1 1 80 0 40 40 0 1 1-80 0m376-40a40 40 0 1 1 0 80 40 40 0 1 1 0-80"/></svg>