<svg xmlns="http://www.w3.org/2000/svg" viewBox="0 0 576 512"><!--! Font Awesome Free 7.1.0 by @fontawesome - https://fontawesome.com License - https://fontawesome.com/license/free (Icons: CC BY 4.0, Fonts: SIL OFL 1.1, Code: MIT License) Copyright 2025 Fonticons, Inc.--><path d="M400 32c-44.2 0-80 35.8-80 80v248.2L22.8 449.4c-16.9 5-26.5 22.9-21.4 39.8s22.9 26.5 39.8 21.5l315.5-94.6h43.7c-.2 2.6-.4 5.3-.4 8 0 48.6 39.4 88 88 88s88-39.4 88-88v-392H400zm128 392c0 22.1-17.9 40-40 40s-40-17.9-40-40 17.9-40 40-40 39.9 17.9 40 39.9zM51.9 149.5C18.1 159.8-.9 195.6 9.4 229.4l28.1 91.8c10.3 33.8 46.1 52.8 79.9 42.5l91.8-28.1c33.8-10.3 52.8-46.1 42.5-79.9l-28.1-91.8c-10.3-33.8-46.1-52.8-79.9-42.5z"/></svg>