<svg xmlns="http://www.w3.org/2000/svg" viewBox="0 0 640 512"><!--! Font Awesome Free 7.1.0 by @fontawesome - https://fontawesome.com License - https://fontawesome.com/license/free (Icons: CC BY 4.0, Fonts: SIL OFL 1.1, Code: MIT License) Copyright 2025 Fonticons, Inc.--><path d="M32 96c0-35.3 28.7-64 64-64h224c23.7 0 44.4 12.9 55.4 32h40.4c32.4 0 61.6 19.6 74 49.5l43.8 106.3 1.7 4.2H560c26.5 0 48 21.5 48 48v64c0 26.5-21.5 48-48 48h-.4c.2 2.6.4 5.3.4 8 0 48.6-39.4 88-88 88s-88-39.4-88-88c0-2.7.1-5.4.4-8H239.7c.2 2.6.4 5.3.4 8 0 48.6-39.4 88-88 88s-88-39.4-88-88q0-5.4.6-10.5c-19-6.4-32.6-24.4-32.6-45.5v-48c-17.7 0-32-14.3-32-32v-96c0-17.7 14.3-32 32-32V96zm352 32v96h82.1l-35.4-86.1c-2.5-6-8.3-9.9-14.8-9.9zM192 392a40 40 0 1 0-80 0 40 40 0 1 0 80 0m280 40a40 40 0 1 0 0-80 40 40 0 1 0 0 80"/></svg>