<svg xmlns="http://www.w3.org/2000/svg" viewBox="0 0 448 512"><!--! Font Awesome Free 7.1.0 by @fontawesome - https://fontawesome.com License - https://fontawesome.com/license/free (Icons: CC BY 4.0, Fonts: SIL OFL 1.1, Code: MIT License) Copyright 2025 Fonticons, Inc.--><path d="M160 32c17.7 0 32 14.3 32 32v43.6l121.4-34.7c12.7-3.6 26 3.7 29.7 16.5s-3.7 26-16.5 29.7L192 157.6v46.1L313.4 169c12.7-3.6 26 3.7 29.7 16.5s-3.7 26-16.5 29.7L192 253.7v162.5h72c53 0 96-43 96-96 0-17.7 14.3-32 32-32s32 14.3 32 32c0 88.4-71.6 160-160 160H160c-17.7 0-32-14.3-32-32V272l-25.4 7.3c-12.7 3.6-26-3.7-29.7-16.5s3.7-26 16.5-29.7l38.6-11V176l-25.4 7.3c-12.7 3.6-26-3.7-29.7-16.5s3.7-26 16.5-29.7l38.6-11V64.2c0-17.7 14.3-32 32-32z"/></svg>