<svg xmlns="http://www.w3.org/2000/svg" viewBox="0 0 512 512"><!--! Font Awesome Free 7.1.0 by @fontawesome - https://fontawesome.com License - https://fontawesome.com/license/free (Icons: CC BY 4.0, Fonts: SIL OFL 1.1, Code: MIT License) Copyright 2025 Fonticons, Inc.--><path d="M497.5 341.1c-5.9 16.7-25.3 23-41.1 15.1l-178.2-89.1-1.6 3.2L187.8 448H480c17.7 0 32 14.3 32 32s-14.3 32-32 32H32c-17.7 0-32-14.3-32-32s14.3-32 32-32h84.2l103.2-206.3 1.6-3.2-165.4-82.7c-15.8-7.9-22.4-27.3-12.5-42C89 45.2 167.2 0 256 0c141.4 0 256 114.6 256 256 0 29.8-5.1 58.5-14.5 85.1"/></svg>