<svg xmlns="http://www.w3.org/2000/svg" viewBox="0 0 384 512"><!--! Font Awesome Free 7.1.0 by @fontawesome - https://fontawesome.com License - https://fontawesome.com/license/free (Icons: CC BY 4.0, Fonts: SIL OFL 1.1, Code: MIT License) Copyright 2025 Fonticons, Inc.--><path d="M0 32C0 14.3 14.3 0 32 0h64c17.7 0 32 14.3 32 32s-14.3 32-32 32v160c0 53 43 96 96 96s96-43 96-96V64c-17.7 0-32-14.3-32-32s14.3-32 32-32h64c17.7 0 32 14.3 32 32s-14.3 32-32 32v160c0 88.4-71.6 160-160 160S32 312.4 32 224V64C14.3 64 0 49.7 0 32m0 448c0-17.7 14.3-32 32-32h320c17.7 0 32 14.3 32 32s-14.3 32-32 32H32c-17.7 0-32-14.3-32-32"/></svg>