<svg xmlns="http://www.w3.org/2000/svg" viewBox="0 0 384 512"><!--! Font Awesome Free 7.1.0 by @fontawesome - https://fontawesome.com License - https://fontawesome.com/license/free (Icons: CC BY 4.0, Fonts: SIL OFL 1.1, Code: MIT License) Copyright 2025 Fonticons, Inc.--><path d="M2.4 204.2C7.4 216.2 19 224 32 224h320c12.9 0 24.6-7.8 29.6-19.8s2.2-25.7-6.9-34.9l-160-160c-12.5-12.5-32.8-12.5-45.3 0l-160 160c-9.2 9.2-11.9 22.9-6.9 34.9zm0 103.5c-5 12-2.2 25.7 6.9 34.9l160 160c12.5 12.5 32.8 12.5 45.3 0l160-160c9.2-9.2 11.9-22.9 6.9-34.9S364.9 288 352 288H32c-12.9 0-24.6 7.8-29.6 19.8z"/></svg>