<svg xmlns="http://www.w3.org/2000/svg" viewBox="0 0 320 512"><!--! Font Awesome Free 7.1.0 by @fontawesome - https://fontawesome.com License - https://fontawesome.com/license/free (Icons: CC BY 4.0, Fonts: SIL OFL 1.1, Code: MIT License) Copyright 2025 Fonticons, Inc.--><path d="M136 24c0-13.3 10.7-24 24-24s24 10.7 24 24v40h56c17.7 0 32 14.3 32 32s-14.3 32-32 32H125.1c-24.9 0-45.1 20.2-45.1 45.1 0 22.5 16.5 41.5 38.7 44.7l91.6 13.1c53.8 7.7 93.7 53.7 93.7 108 0 60.3-48.9 109.1-109.1 109.1H184v40c0 13.3-10.7 24-24 24s-24-10.7-24-24v-40H64c-17.7 0-32-14.3-32-32s14.3-32 32-32h130.9c24.9 0 45.1-20.2 45.1-45.1 0-22.5-16.5-41.5-38.7-44.7l-91.6-13.1c-53.8-7.6-93.7-53.7-93.7-108C16 112.9 64.9 64 125.1 64H136z"/></svg>