<svg xmlns="http://www.w3.org/2000/svg" viewBox="0 0 448 512"><!--! Font Awesome Free 7.1.0 by @fontawesome - https://fontawesome.com License - https://fontawesome.com/license/free (Icons: CC BY 4.0, Fonts: SIL OFL 1.1, Code: MIT License) Copyright 2025 Fonticons, Inc.--><path d="M241.3-13c-11.4-2.3-23.1-2.3-34.5 0L19.3 24.5C8.1 26.7 0 36.6 0 48c0 10.3 6.5 19.3 16 22.6V144L.3 222.6c-.2.9-.3 1.9-.3 2.9 0 8 6.5 14.6 14.6 14.6h34.9c8 0 14.6-6.5 14.6-14.6 0-1-.1-1.9-.3-2.9L48 144V77.3l48 9.6V144c0 70.7 57.3 128 128 128s128-57.3 128-128V86.9l76.7-15.3C439.9 69.3 448 59.4 448 48s-8.1-21.3-19.3-23.5zM224 224c-44.2 0-80-35.8-80-80h160c0 44.2-35.8 80-80 80m-103.9 96.1C58.7 348.3 16 410.3 16 482.3c0 16.4 13.3 29.7 29.7 29.7H200V366l-57.4-43c-6.5-4.9-15.2-6.2-22.6-2.8zM248 512h154.3c16.4 0 29.7-13.3 29.7-29.7 0-72-42.7-134-104.1-162.1-7.4-3.4-16.1-2.1-22.6 2.8l-57.4 43v146z"/></svg>