<svg xmlns="http://www.w3.org/2000/svg" viewBox="0 0 640 512"><!--! Font Awesome Free 7.1.0 by @fontawesome - https://fontawesome.com License - https://fontawesome.com/license/free (Icons: CC BY 4.0, Fonts: SIL OFL 1.1, Code: MIT License) Copyright 2025 Fonticons, Inc.--><path d="M136.4 128a120 120 0 1 1 240 0 120 120 0 1 1-240 0m-88 354.3c0-98.5 79.8-178.3 178.3-178.3h59.4c98.5 0 178.3 79.8 178.3 178.3 0 16.4-13.3 29.7-29.7 29.7H78.1c-16.4 0-29.7-13.3-29.7-29.7m563.9-358.2c9.4 9.4 9.4 24.6 0 33.9l-33.9 33.9 33.9 33.9c9.4 9.4 9.4 24.6 0 33.9s-24.6 9.4-33.9 0l-33.9-33.9-33.9 33.9c-9.4 9.4-24.6 9.4-33.9 0s-9.4-24.6 0-33.9l33.9-33.9-33.9-33.9c-9.4-9.4-9.4-24.6 0-33.9s24.6-9.4 33.9 0l33.9 33.9 33.9-33.9c9.4-9.4 24.6-9.4 33.9 0"/></svg>