<svg xmlns="http://www.w3.org/2000/svg" viewBox="0 0 448 512"><!--! Font Awesome Free 7.1.0 by @fontawesome - https://fontawesome.com License - https://fontawesome.com/license/free (Icons: CC BY 4.0, Fonts: SIL OFL 1.1, Code: MIT License) Copyright 2025 Fonticons, Inc.--><path d="M96 44.9c0-12.7 7.5-24.2 19.2-29.3l96-42c8.2-3.6 17.5-3.6 25.7 0l96 42c11.6 5.1 19.1 16.6 19.1 29.3V144c0 70.7-57.3 128-128 128S96 214.7 96 144zM304 128H144v16c0 44.2 35.8 80 80 80s80-35.8 80-80zM208 16v16h-16c-4.4 0-8 3.6-8 8v16c0 4.4 3.6 8 8 8h16v16c0 4.4 3.6 8 8 8h16c4.4 0 8-3.6 8-8V64h16c4.4 0 8-3.6 8-8V40c0-4.4-3.6-8-8-8h-16V16c0-4.4-3.6-8-8-8h-16c-4.4 0-8 3.6-8 8m-65.4 307c-6.5-4.9-15.2-6.2-22.6-2.8-61.4 28.2-104.1 90.2-104.1 162.1 0 16.4 13.3 29.7 29.7 29.7h356.6c16.4 0 29.7-13.3 29.7-29.7 0-72-42.7-134-104.1-162.1-7.4-3.4-16.1-2.1-22.6 2.8l-67 50.2c-8.5 6.4-20.3 6.4-28.8 0l-67-50.2z"/></svg>