<svg xmlns="http://www.w3.org/2000/svg" viewBox="0 0 448 512"><!--! Font Awesome Free 7.1.0 by @fontawesome - https://fontawesome.com License - https://fontawesome.com/license/free (Icons: CC BY 4.0, Fonts: SIL OFL 1.1, Code: MIT License) Copyright 2025 Fonticons, Inc.--><path d="M224 336c74.6 0 138.4-46.4 164-112h4c13.3 0 24-10.7 24-24v-80c0-13.3-10.7-24-24-24h-4C362.4 30.4 298.6-16 224-16S85.6 30.4 60 96h-4c-13.3 0-24 10.7-24 24v80c0 13.3 10.7 24 24 24h4c25.6 65.6 89.4 112 164 112M208 80h32c53 0 96 43 96 96s-43 96-96 96h-32c-53 0-96-43-96-96s43-96 96-96M16 484.6c0 15.1 12.3 27.4 27.4 27.4H96v-48c0-17.7 14.3-32 32-32h192c17.7 0 32 14.3 32 32v48h52.6c15.1 0 27.4-12.3 27.4-27.4 0-59.8-31.9-112.2-79.6-141C316 369.1 271.8 384 224 384s-92-14.9-128.4-40.4C47.9 372.4 16 424.8 16 484.6m167.3-343.1c-.9-3.3-3.9-5.5-7.3-5.5s-6.4 2.2-7.3 5.5l-6 21.2-21.2 6c-3.3.9-5.5 3.9-5.5 7.3s2.2 6.4 5.5 7.3l21.2 6 6 21.2c.9 3.3 3.9 5.5 7.3 5.5s6.4-2.2 7.3-5.5l6-21.2 21.2-6c3.3-.9 5.5-3.9 5.5-7.3s-2.2-6.4-5.5-7.3l-21.2-6zM152 488v24h48v-24c0-13.3-10.7-24-24-24s-24 10.7-24 24m120-24c-13.3 0-24 10.7-24 24v24h48v-24c0-13.3-10.7-24-24-24"/></svg>