<svg xmlns="http://www.w3.org/2000/svg" viewBox="0 0 448 512"><!--! Font Awesome Free 7.1.0 by @fontawesome - https://fontawesome.com License - https://fontawesome.com/license/free (Icons: CC BY 4.0, Fonts: SIL OFL 1.1, Code: MIT License) Copyright 2025 Fonticons, Inc.--><path d="M224 248a120 120 0 1 1 0-240 120 120 0 1 1 0 240m-30.5 56h61c9.7 0 17.5 7.8 17.5 17.5 0 4.2-1.5 8.2-4.2 11.4l-27.4 32 31 115.1h.6l34.6-138.5c2.2-8.7 11.1-14 19.5-10.8C388 354.3 432 414.3 432 484.5c0 15.1-12.3 27.4-27.4 27.4l-361.2.1C28.3 512 16 499.7 16 484.6c0-70.2 44-130.2 105.9-153.8 8.4-3.2 17.3 2.1 19.5 10.8L176 480.1h.6l31-115.1-27.4-32c-2.7-3.2-4.2-7.2-4.2-11.4 0-9.7 7.8-17.5 17.5-17.5z"/></svg>