<svg xmlns="http://www.w3.org/2000/svg" viewBox="0 0 576 512"><!--! Font Awesome Free 7.1.0 by @fontawesome - https://fontawesome.com License - https://fontawesome.com/license/free (Icons: CC BY 4.0, Fonts: SIL OFL 1.1, Code: MIT License) Copyright 2025 Fonticons, Inc.--><path d="M224 8a120 120 0 1 1 0 240 120 120 0 1 1 0-240m-29.7 296h59.4c29.7 0 57.7 7.3 82.3 20.1v4.3c-19.6 17.6-32 43.1-32 71.5v96c0 5.5.5 10.9 1.3 16.1H45.7C29.3 512 16 498.7 16 482.3 16 383.8 95.8 304 194.3 304m301.7.1c0-17.7-14.3-32-32-32s-32 14.3-32 32V352h64zM352 400c0-20.9 13.4-38.7 32-45.3v-50.6c0-44.2 35.8-80 80-80s80 35.8 80 80v50.6c18.6 6.6 32 24.4 32 45.3v96c0 26.5-21.5 48-48 48H400c-26.5 0-48-21.5-48-48z"/></svg>