<svg xmlns="http://www.w3.org/2000/svg" viewBox="0 0 640 512"><!--! Font Awesome Free 7.1.0 by @fontawesome - https://fontawesome.com License - https://fontawesome.com/license/free (Icons: CC BY 4.0, Fonts: SIL OFL 1.1, Code: MIT License) Copyright 2025 Fonticons, Inc.--><path d="M31-33c-9.3 9.4-9.3 24.6 0 34l56 56c9.4 9.4 24.6 9.4 33.9 0s9.4-24.6 0-33.9L65-33c-9.4-9.4-24.6-9.4-33.9 0zm578 0c-9.4-9.4-24.6-9.4-33.9 0L519 23c-9.4 9.4-9.4 24.6 0 33.9s24.6 9.4 33.9 0L609 1c9.4-9.4 9.4-24.6 0-33.9zM65 545l56-56c9.4-9.4 9.4-24.6 0-33.9s-24.6-9.4-33.9 0L31 511c-9.4 9.4-9.4 24.6 0 33.9s24.6 9.4 33.9 0zm544 0c9.4-9.4 9.4-24.6 0-33.9l-56-56c-9.4-9.4-24.6-9.4-33.9 0s-9.4 24.6 0 33.9l56 56c9.4 9.4 24.6 9.4 33.9 0M320 208a64 64 0 1 0 0-128 64 64 0 1 0 0 128m0 32c-61.9 0-112 50.1-112 112v8c0 13.3 10.7 24 24 24h176c13.3 0 24-10.7 24-24v-8c0-61.9-50.1-112-112-112m216-80a56 56 0 1 0-112 0 56 56 0 1 0 112 0m-84.8 100.4c18.2 25.9 28.8 57.5 28.8 91.6v8c0 8.4-1.4 16.5-4.1 24h78.8c11.8 0 21.3-9.6 21.3-21.3V352c0-53-43-96-96-96-10 0-19.7 1.5-28.8 4.4m-262.4 0c-9.1-2.9-18.8-4.4-28.8-4.4-53 0-96 43-96 96v10.7c0 11.8 9.6 21.3 21.3 21.3h78.8c-2.7-7.5-4.1-15.6-4.1-24v-8c0-34.1 10.6-65.7 28.8-91.6M216 160a56 56 0 1 0-112 0 56 56 0 1 0 112 0"/></svg>