<svg xmlns="http://www.w3.org/2000/svg" viewBox="0 0 448 512"><!--! Font Awesome Free 7.1.0 by @fontawesome - https://fontawesome.com License - https://fontawesome.com/license/free (Icons: CC BY 4.0, Fonts: SIL OFL 1.1, Code: MIT License) Copyright 2025 Fonticons, Inc.--><path d="M242.7 80H334c-10.7-24.6-29.5-44.9-52.9-57.6zm-.9-70.7C236 8.4 230 8 224 8c-49.2 0-91.5 29.6-110 72h80.6l47.1-70.7zM224 248c66.3 0 120-53.7 120-120H104c0 66.3 53.7 120 120 120M98.7 341.8C49.3 370.2 16 423.5 16 484.6c0 15.1 12.3 27.4 27.4 27.4h151L98.6 341.8zm45.1-17.7 42.7 75.9H272c44.2 0 80 35.8 80 80 0 11.4-2.4 22.2-6.7 32h59.2c15.1 0 27.4-12.3 27.4-27.4 0-90.9-73.7-164.6-164.6-164.6h-86.9c-12.6 0-24.9 1.4-36.7 4.1zM213.5 448l36 64H272c17.7 0 32-14.3 32-32s-14.3-32-32-32z"/></svg>