<svg xmlns="http://www.w3.org/2000/svg" viewBox="0 0 576 512"><!--! Font Awesome Free 7.1.0 by @fontawesome - https://fontawesome.com License - https://fontawesome.com/license/free (Icons: CC BY 4.0, Fonts: SIL OFL 1.1, Code: MIT License) Copyright 2025 Fonticons, Inc.--><path d="M64 32C28.7 32 0 60.7 0 96v320c0 35.3 28.7 64 64 64h448c35.3 0 64-28.7 64-64V96c0-35.3-28.7-64-64-64zm224 72a56 56 0 1 1 0 112 56 56 0 1 1 0-112m0 152c53 0 96 43 96 96v24c0 13.3-10.7 24-24 24H216c-13.3 0-24-10.7-24-24v-24c0-53 43-96 96-96m96-64a48 48 0 1 1 96 0 48 48 0 1 1-96 0m-216 80.3c-15.2 22.8-24 50.2-24 79.7v24c0 8.4 1.4 16.5 4.1 24h-46.8c-11.7 0-21.3-9.6-21.3-21.3V368c0-50.3 38.7-91.6 88-95.7M427.9 400c2.7-7.5 4.1-15.6 4.1-24v-24c0-29.5-8.8-56.9-24-79.7 49.3 4.1 88 45.3 88 95.7v10.7c0 11.8-9.6 21.3-21.3 21.3zM96 192a48 48 0 1 1 96 0 48 48 0 1 1-96 0"/></svg>