<svg xmlns="http://www.w3.org/2000/svg" viewBox="0 0 640 512"><!--! Font Awesome Free 7.1.0 by @fontawesome - https://fontawesome.com License - https://fontawesome.com/license/free (Icons: CC BY 4.0, Fonts: SIL OFL 1.1, Code: MIT License) Copyright 2025 Fonticons, Inc.--><path d="M256.1 8a120 120 0 1 1 0 240 120 120 0 1 1 0-240m-29.7 296h59.4c6.7 0 13.2.4 19.7 1.1-.9 4.9-1.4 9.9-1.4 15v92.1c0 25.5 10.1 49.9 28.1 67.9l31.9 31.9H77.8c-16.4 0-29.7-13.3-29.7-29.7 0-98.5 79.8-178.3 178.3-178.3m125.7 108.2v-92.1c0-17.7 14.3-32 32-32h92.1c12.7 0 24.9 5.1 33.9 14.1l96 96c18.7 18.7 18.7 49.1 0 67.9L530 542.2c-18.7 18.7-49.1 18.7-67.9 0l-96-96c-9-9-14.1-21.2-14.1-33.9zm104-44.2a24 24 0 1 0-48 0 24 24 0 1 0 48 0"/></svg>