<svg xmlns="http://www.w3.org/2000/svg" viewBox="0 0 640 512"><!--! Font Awesome Free 7.1.0 by @fontawesome - https://fontawesome.com License - https://fontawesome.com/license/free (Icons: CC BY 4.0, Fonts: SIL OFL 1.1, Code: MIT License) Copyright 2025 Fonticons, Inc.--><path d="M192 288a112 112 0 1 0 0-224 112 112 0 1 0 0 224m176-112c0 86.3-62.1 158.1-144.1 173.1.1 1 .1 1.9.1 2.9v64h32c17.7 0 32 14.3 32 32s-14.3 32-32 32h-32v32c0 17.7-14.3 32-32 32s-32-14.3-32-32v-32h-32c-17.7 0-32-14.3-32-32s14.3-32 32-32h32v-64c0-1 0-1.9.1-2.9C78.1 334.1 16 262.3 16 176 16 78.8 94.8 0 192 0s176 78.8 176 176m-10.5 151c14.4-15.8 26.6-33.7 36.1-53.1 16.1 9 34.7 14.1 54.5 14.1 61.9 0 112-50.1 112-112S509.9 64 448 64c-19.8 0-38.3 5.1-54.5 14.1-9.5-19.4-21.6-37.3-36.1-53.1 26.4-15.9 57.4-25 90.5-25 97.2 0 176 78.8 176 176 0 86.3-62.1 158.1-144.1 173.1.1.9.1 1.9.1 2.9v64h32c17.7 0 32 14.3 32 32s-14.3 32-32 32h-32v32c0 17.7-14.3 32-32 32s-32-14.3-32-32v-32h-32c-17.7 0-32-14.3-32-32s14.3-32 32-32h32v-64c0-1 0-1.9.1-2.9-21.1-3.9-40.9-11.5-58.6-22.2z"/></svg>