<svg xmlns="http://www.w3.org/2000/svg" viewBox="0 0 448 512"><!--! Font Awesome Free 7.1.0 by @fontawesome - https://fontawesome.com License - https://fontawesome.com/license/free (Icons: CC BY 4.0, Fonts: SIL OFL 1.1, Code: MIT License) Copyright 2025 Fonticons, Inc.--><path d="M200 293.9V464c0 26.5-21.5 48-48 48H48c-26.5 0-48-21.5-48-48V270.5c0-9.5 2.8-18.7 8.1-26.6L56 172.1c5.3-7.9 8.1-17.1 8.1-26.6L64 48c0-26.5 21.5-48 48-48h6.3c18.8 0 34.1 9.7 44.1 18.8 9.3 8.4 28.5 21.2 61.7 21.2s52.4-12.8 61.7-21.2C295.8 9.7 311.1 0 329.9 0h6.1c26.5 0 48 21.5 48 48v97.5c0 9.5 2.8 18.7 8.1 26.6l47.9 71.8c5.3 7.9 8.1 17.1 8.1 26.6L448 464c0 26.5-21.5 48-48 48H296c-26.5 0-48-21.5-48-48V293.9c0-3.9.5-7.8 1.4-11.6l54.2-216.9C285.9 77.2 259.8 88 224 88s-61.9-10.8-79.6-22.6l54.2 216.8c1 3.8 1.4 7.7 1.4 11.6zM96 456a40 40 0 1 0 0-80 40 40 0 1 0 0 80M63.5 255.5c-4.7 4.7-4.7 12.3 0 17L79 288l-15.5 15.5c-4.7 4.7-4.7 12.3 0 17s12.3 4.7 17 0L96 305l15.5 15.5c4.7 4.7 12.3 4.7 17 0s4.7-12.3 0-17L113 288l15.5-15.5c4.7-4.7 4.7-12.3 0-17s-12.3-4.7-17 0L96 271l-15.5-15.5c-4.7-4.7-12.3-4.7-17 0M304 280v40c0 8.8 7.2 16 16 16h40c13.3 0 24-10.7 24-24s-10.7-24-24-24h-8v-8c0-13.3-10.7-24-24-24s-24 10.7-24 24"/></svg>