<svg xmlns="http://www.w3.org/2000/svg" viewBox="0 0 448 512"><!--! Font Awesome Free 7.1.0 by @fontawesome - https://fontawesome.com License - https://fontawesome.com/license/free (Icons: CC BY 4.0, Fonts: SIL OFL 1.1, Code: MIT License) Copyright 2025 Fonticons, Inc.--><path d="M200 464V293.9c0-3.9-.5-7.8-1.4-11.6L144.4 65.4C162.1 77.2 188.2 88 224 88s61.9-10.8 79.6-22.6l-54.2 216.9c-1 3.8-1.4 7.7-1.4 11.6V464c0 26.5 21.5 48 48 48h104c26.5 0 48-21.5 48-48V270.5c0-9.5-2.8-18.7-8.1-26.6L392 172.1c-5.3-7.9-8.1-17.1-8.1-26.6L384 48c0-26.5-21.5-48-48-48h-6.3c-18.8 0-34.1 9.7-44.1 18.8-9.3 8.4-28.5 21.2-61.7 21.2s-52.4-12.8-61.7-21.2C152.2 9.7 136.9 0 118.1 0H112C85.5 0 64 21.5 64 48v97.5c0 9.5-2.8 18.7-8.1 26.6L8.1 243.9C2.8 251.8 0 261.1 0 270.5V464c0 26.5 21.5 48 48 48h104c26.5 0 48-21.5 48-48"/></svg>