<svg xmlns="http://www.w3.org/2000/svg" viewBox="0 0 576 512"><!--! Font Awesome Free 7.1.0 by @fontawesome - https://fontawesome.com License - https://fontawesome.com/license/free (Icons: CC BY 4.0, Fonts: SIL OFL 1.1, Code: MIT License) Copyright 2025 Fonticons, Inc.--><path d="M273.6-3.2c8.5-6.4 20.3-6.4 28.8 0l140.8 105.6c8.3 6.2 18.4 9.6 28.8 9.6 13.3 0 24 10.7 24 24s-10.7 24-24 24h-24v48l58.7 64H520c13.3 0 24 10.7 24 24s-10.7 24-24 24h-8v48l24.4 32H552c13.3 0 24 10.7 24 24s-10.7 24-24 24h-40v32c0 17.7-14.3 32-32 32s-32-14.3-32-32v-32H320v32c0 17.7-14.3 32-32 32s-32-14.3-32-32v-32H128v32c0 17.7-14.3 32-32 32s-32-14.3-32-32v-32H24c-13.3 0-24-10.7-24-24s10.7-24 24-24h22.1L64 368v-48h-8c-13.3 0-24-10.7-24-24s10.7-24 24-24h13.3l58.7-64v-48h-24c-13.3 0-24-10.7-24-24s10.7-24 24-24c10.4 0 20.5-3.4 28.8-9.6zM128 368h320v-48H128zm256-208H192v48h192z"/></svg>