<svg xmlns="http://www.w3.org/2000/svg" viewBox="0 0 640 512"><!--! Font Awesome Free 7.1.0 by @fontawesome - https://fontawesome.com License - https://fontawesome.com/license/free (Icons: CC BY 4.0, Fonts: SIL OFL 1.1, Code: MIT License) Copyright 2025 Fonticons, Inc.--><path d="M533.6 32.5c-10.3-8.4-25.4-6.8-33.8 3.5s-6.8 25.4 3.5 33.8c54.2 44 88.7 111 88.7 186.2s-34.5 142.2-88.7 186.3c-10.3 8.4-11.8 23.5-3.5 33.8s23.5 11.8 33.8 3.5C598.5 426.7 640 346.2 640 256S598.5 85.2 533.6 32.5M473.1 107c-10.3-8.4-25.4-6.8-33.8 3.5s-6.8 25.4 3.5 33.8C475.3 170.7 496 210.9 496 256s-20.7 85.3-53.2 111.8c-10.3 8.4-11.8 23.5-3.5 33.8s23.5 11.8 33.8 3.5c43.2-35.2 70.9-88.9 70.9-149s-27.7-113.8-70.9-149zm-60.5 74.5c-10.3-8.4-25.4-6.8-33.8 3.5s-6.8 25.4 3.5 33.8C393.1 227.6 400 241 400 256s-6.9 28.4-17.7 37.3c-10.3 8.4-11.8 23.5-3.5 33.8s23.5 11.8 33.8 3.5c21.5-17.7 35.4-44.5 35.4-74.6s-13.9-56.9-35.4-74.5M80 352h48l134.1 119.2c6.4 5.7 14.6 8.8 23.1 8.8 19.2 0 34.8-15.6 34.8-34.8V66.8c0-19.2-15.6-34.8-34.8-34.8-8.5 0-16.7 3.1-23.1 8.8L128 160H80c-26.5 0-48 21.5-48 48v96c0 26.5 21.5 48 48 48"/></svg>