<svg xmlns="http://www.w3.org/2000/svg" viewBox="0 0 576 512"><!--! Font Awesome Free 7.1.0 by @fontawesome - https://fontawesome.com License - https://fontawesome.com/license/free (Icons: CC BY 4.0, Fonts: SIL OFL 1.1, Code: MIT License) Copyright 2025 Fonticons, Inc.--><path d="M552 288c13.3 0 24 10.7 24 24v104c0 35.3-28.7 64-64 64H64c-35.3 0-64-28.7-64-64V312c0-13.3 10.7-24 24-24s24 10.7 24 24v104c0 8.8 7.2 16 16 16h448c8.8 0 16-7.2 16-16V312c0-13.3 10.7-24 24-24M416 32c35.3 0 64 28.7 64 64v224c0 35.3-28.7 64-64 64H160c-35.3 0-64-28.7-64-64V96c0-35.3 28.7-64 64-64zm-37.1 84.6c-10.7-7.8-25.7-5.4-33.5 5.3l-85.6 117.7-26.5-27.4c-9.2-9.5-24.4-9.8-33.9-.6s-9.8 24.4-.6 33.9l46.4 48c4.9 5.1 11.8 7.8 18.9 7.3s13.6-4.1 17.8-9.8l102.3-140.9c7.8-10.7 5.4-25.7-5.3-33.5"/></svg>