<svg xmlns="http://www.w3.org/2000/svg" viewBox="0 0 384 512"><!--! Font Awesome Free 7.1.0 by @fontawesome - https://fontawesome.com License - https://fontawesome.com/license/free (Icons: CC BY 4.0, Fonts: SIL OFL 1.1, Code: MIT License) Copyright 2025 Fonticons, Inc.--><path d="M192 80a56 56 0 1 0 0-112 56 56 0 1 0 0 112m-86.6 147.9 22.6-22.6v69.3c0 28 12.2 54.7 33.5 72.9l71.4 61.2c5.9 5.1 9.8 12.1 10.9 19.8l12.6 88.1c2.5 17.5 18.7 29.7 36.2 27.2s29.7-18.7 27.2-36.2l-12.6-88.1c-3.3-23.1-14.9-44.1-32.6-59.3l-34.5-29.6V215.4l3.8 4.7c18.2 22.8 45.8 36 75 36h33.2c17.7 0 32-14.3 32-32s-14.3-32-32-32h-33.2c-9.7 0-18.9-4.4-25-12L276 157.7c-23-28.8-57.9-45.6-94.8-45.6-32.2 0-63.1 12.8-85.8 35.6l-35.3 34.9c-18 18-28.1 42.4-28.1 67.9V288c0 17.7 14.3 32 32 32s32-14.3 32-32v-37.5c0-8.5 3.4-16.6 9.4-22.6m12.4 179.4c-1.5 5.2-4.3 10-8.1 13.8l-68.3 68.3c-12.5 12.5-12.5 32.8 0 45.3s32.8 12.5 45.3 0l68.3-68.3c11.5-11.5 19.9-25.8 24.4-41.5l2.2-7.6-46-39.4c-2.5-2.2-5-4.4-7.4-6.8z"/></svg>