<svg xmlns="http://www.w3.org/2000/svg" viewBox="0 0 512 512"><!--! Font Awesome Free 7.1.0 by @fontawesome - https://fontawesome.com License - https://fontawesome.com/license/free (Icons: CC BY 4.0, Fonts: SIL OFL 1.1, Code: MIT License) Copyright 2025 Fonticons, Inc.--><path d="M64 32C28.7 32 0 60.7 0 96v288c0 35.3 28.7 64 64 64h384c35.3 0 64-28.7 64-64V192c0-35.3-28.7-64-64-64H72c-13.3 0-24-10.7-24-24s10.7-24 24-24h384c13.3 0 24-10.7 24-24s-10.7-24-24-24zm352 224a32 32 0 1 1 0 64 32 32 0 1 1 0-64"/></svg>