<svg xmlns="http://www.w3.org/2000/svg" viewBox="0 0 576 512"><!--! Font Awesome Free 7.1.0 by @fontawesome - https://fontawesome.com License - https://fontawesome.com/license/free (Icons: CC BY 4.0, Fonts: SIL OFL 1.1, Code: MIT License) Copyright 2025 Fonticons, Inc.--><path d="m263.4-27 14.8 36.8L315 24.6c3 1.2 5 4.2 5 7.4s-2 6.2-5 7.4l-36.8 14.8L263.4 91c-1.2 3-4.2 5-7.4 5s-6.2-2-7.4-5l-14.8-36.8L197 39.4c-3-1.2-5-4.2-5-7.4s2-6.2 5-7.4l36.8-14.8L248.6-27c1.2-3 4.2-5 7.4-5s6.2 2 7.4 5M110.7 41.7l21.5 50.1 50.1 21.5c5.9 2.5 9.7 8.3 9.7 14.7s-3.8 12.2-9.7 14.7l-50.1 21.5-21.5 50.1c-2.5 5.9-8.3 9.7-14.7 9.7s-12.2-3.8-14.7-9.7l-21.5-50.1-50.1-21.5C3.8 140.2 0 134.4 0 128s3.8-12.2 9.7-14.7l50.1-21.5 21.5-50.1C83.8 35.8 89.6 32 96 32s12.2 3.8 14.7 9.7M464 304c6.4 0 12.2 3.8 14.7 9.7l21.5 50.1 50.1 21.5c5.9 2.5 9.7 8.3 9.7 14.7s-3.8 12.2-9.7 14.7l-50.1 21.5-21.5 50.1c-2.5 5.9-8.3 9.7-14.7 9.7s-12.2-3.8-14.7-9.7l-21.5-50.1-50.1-21.5c-5.9-2.5-9.7-8.3-9.7-14.7s3.8-12.2 9.7-14.7l50.1-21.5 21.5-50.1c2.5-5.9 8.3-9.7 14.7-9.7M460 0c11 0 21.6 4.4 29.5 12.2l42.3 42.3C539.6 62.4 544 73 544 84s-4.4 21.6-12.2 29.5l-88.2 88.2-101.3-101.3 88.2-88.2C438.4 4.4 449 0 460 0M44.2 398.5l264.2-264.2 101.3 101.3-264.2 264.2C137.6 507.6 127 512 116 512s-21.6-4.4-29.5-12.2l-42.3-42.3C36.4 449.6 32 439 32 428s4.4-21.6 12.2-29.5"/></svg>