<svg xmlns="http://www.w3.org/2000/svg" viewBox="0 0 512 512"><!--! Font Awesome Free 7.1.0 by @fontawesome - https://fontawesome.com License - https://fontawesome.com/license/free (Icons: CC BY 4.0, Fonts: SIL OFL 1.1, Code: MIT License) Copyright 2025 Fonticons, Inc.--><path d="M410.6 124.1c20.7 15.6 46 30.7 74.2 34.5 13.1 1.8 25.2-7.5 27-20.6s-7.5-25.2-20.6-27c-15.9-2.1-33.2-11.3-51.7-25.2-38.4-29-90.5-29-129 0-24 18.1-40.7 26.3-54.5 26.3s-30.5-8.2-54.5-26.3c-38.4-29-90.5-29-129 0C54 99.7 36.7 108.9 20.8 111 7.7 112.8-1.6 124.8.2 138s13.8 22.4 27 20.6c28.2-3.8 53.6-18.9 74.2-34.5 21.3-16.1 49.9-16.1 71.2 0 24.2 18.3 52.3 35.9 83.4 35.9s59.1-17.7 83.4-35.9c21.3-16.1 49.9-16.1 71.2 0m0 144c20.7 15.6 46 30.7 74.2 34.5 13.1 1.8 25.2-7.5 27-20.6s-7.5-25.2-20.6-27c-15.9-2.1-33.2-11.3-51.7-25.2-38.4-29-90.5-29-129 0-24 18.1-40.7 26.3-54.5 26.3s-30.5-8.2-54.5-26.3c-38.4-29-90.5-29-129 0C54 243.7 36.7 252.9 20.8 255 7.7 256.7-1.6 268.8.2 282s13.8 22.4 27 20.6c28.2-3.8 53.6-18.9 74.2-34.5 21.3-16.1 49.9-16.1 71.2 0 24.2 18.3 52.3 35.9 83.4 35.9s59.1-17.7 83.4-35.9c21.3-16.1 49.9-16.1 71.2 0m-71.2 144c21.3-16.1 49.9-16.1 71.2 0 20.7 15.6 46 30.7 74.2 34.5 13.1 1.8 25.2-7.5 27-20.6s-7.5-25.2-20.6-27c-15.9-2.1-33.2-11.3-51.7-25.2-38.4-29-90.5-29-129 0-24 18.1-40.7 26.3-54.5 26.3s-30.5-8.2-54.5-26.3c-38.4-29-90.5-29-129 0C54 387.7 36.7 396.9 20.8 399 7.7 400.8-1.6 412.8.2 426s13.8 22.4 27 20.6c28.2-3.8 53.6-18.9 74.2-34.5 21.3-16.1 49.9-16.1 71.2 0 24.2 18.3 52.3 35.9 83.4 35.9s59.1-17.7 83.4-35.9"/></svg>