<svg xmlns="http://www.w3.org/2000/svg" viewBox="0 0 448 512"><!--! Font Awesome Free 7.1.0 by @fontawesome - https://fontawesome.com License - https://fontawesome.com/license/free (Icons: CC BY 4.0, Fonts: SIL OFL 1.1, Code: MIT License) Copyright 2025 Fonticons, Inc.--><path d="M116.6 192c-3-10.1-4.6-20.9-4.6-32 0-61.9 50.1-112 112-112s112 50.1 112 112c0 11.1-1.6 21.9-4.6 32h-71l24.6-44.3c6.4-11.6 2.3-26.2-9.3-32.6s-26.2-2.3-32.6 9.3l-37.6 67.7h-88.8zM128 32H64C28.7 32 0 60.7 0 96v320c0 35.3 28.7 64 64 64h320c35.3 0 64-28.7 64-64V96c0-35.3-28.7-64-64-64h-64c-26.7-20.1-60-32-96-32s-69.3 11.9-96 32"/></svg>