<svg xmlns="http://www.w3.org/2000/svg" viewBox="0 0 512 512"><!--! Font Awesome Free 7.1.0 by @fontawesome - https://fontawesome.com License - https://fontawesome.com/license/free (Icons: CC BY 4.0, Fonts: SIL OFL 1.1, Code: MIT License) Copyright 2025 Fonticons, Inc.--><path d="M136 40a56 56 0 1 1 112 0 56 56 0 1 1-112 0m-18.1 157.6 12.6 63C91.9 273 64 309.3 64 352c0 53 43 96 96 96 35.6 0 66.7-19.4 83.3-48.2 2.3.1 4.6.2 7 .2h62.4c-20.4 64.9-81 112-152.7 112C71.6 512 0 440.4 0 352c0-73.8 50-135.9 117.9-154.4m148.6-28.1L290.2 288h60.5c33.3 0 63.2 20.7 74.9 51.9l25.5 68 18.7-6.2c16.8-5.6 34.9 3.5 40.5 20.2s-3.5 34.9-20.2 40.5l-48 16c-16.3 5.4-34-3-40.1-19.1l-36.3-96.9c-2.3-6.2-8.3-10.4-15-10.4H250.2c-30.5 0-56.8-21.5-62.8-51.4l-22.1-110.9c-6.4-31.9 18-61.7 50.6-61.7 24.6 0 45.8 17.4 50.6 41.5"/></svg>