<svg xmlns="http://www.w3.org/2000/svg" viewBox="0 0 512 512"><!--! Font Awesome Free 7.1.0 by @fontawesome - https://fontawesome.com License - https://fontawesome.com/license/free (Icons: CC BY 4.0, Fonts: SIL OFL 1.1, Code: MIT License) Copyright 2025 Fonticons, Inc.--><path d="M288 32c0 17.7 14.3 32 32 32h40c13.3 0 24 10.7 24 24s-10.7 24-24 24H32c-17.7 0-32 14.3-32 32s14.3 32 32 32h328c48.6 0 88-39.4 88-88S408.6 0 360 0h-40c-17.7 0-32 14.3-32 32m64 352c0 17.7 14.3 32 32 32h32c53 0 96-43 96-96s-43-96-96-96H32c-17.7 0-32 14.3-32 32s14.3 32 32 32h384c17.7 0 32 14.3 32 32s-14.3 32-32 32h-32c-17.7 0-32 14.3-32 32M128 512h40c48.6 0 88-39.4 88-88s-39.4-88-88-88H32c-17.7 0-32 14.3-32 32s14.3 32 32 32h136c13.3 0 24 10.7 24 24s-10.7 24-24 24h-40c-17.7 0-32 14.3-32 32s14.3 32 32 32"/></svg>