<svg xmlns="http://www.w3.org/2000/svg" viewBox="0 0 320 512"><!--! Font Awesome Free 7.1.0 by @fontawesome - https://fontawesome.com License - https://fontawesome.com/license/free (Icons: CC BY 4.0, Fonts: SIL OFL 1.1, Code: MIT License) Copyright 2025 Fonticons, Inc.--><path d="M80-32c0-17.7 14.3-32 32-32h96c17.7 0 32 14.3 32 32 0 11.8-6.4 22.2-16 27.7v145.6c56.5 24.7 96 81.1 96 146.7v224c0 35.3-28.7 64-64 64H64c-35.3 0-64-28.7-64-64V288c0-65.6 39.5-122 96-146.7V-4.3C86.4-9.8 80-20.2 80-32m16 320c-17.7 0-32 14.3-32 32v128c0 17.7 14.3 32 32 32h128c17.7 0 32-14.3 32-32V320c0-17.7-14.3-32-32-32z"/></svg>