<svg xmlns="http://www.w3.org/2000/svg" viewBox="0 0 320 512"><!--! Font Awesome Free 7.1.0 by @fontawesome - https://fontawesome.com License - https://fontawesome.com/license/free (Icons: CC BY 4.0, Fonts: SIL OFL 1.1, Code: MIT License) Copyright 2025 Fonticons, Inc.--><path d="M32.6 25.7C35.6 10.8 48.7 0 64 0h192c15.3 0 28.4 10.8 31.4 25.7L316.8 173c2.1 10.5 3.2 21.2 3.2 32v3c0 77.4-55 142-128 156.8V480h64c17.7 0 32 14.3 32 32s-14.3 32-32 32H64c-17.7 0-32-14.3-32-32s14.3-32 32-32h64V364.8C55 350 0 285.4 0 208v-3c0-10.7 1.1-21.4 3.2-32zM77.4 128h165.1l-12.8-64H90.2z"/></svg>