<svg xmlns="http://www.w3.org/2000/svg" viewBox="0 0 320 512"><!--! Font Awesome Free 7.1.0 by @fontawesome - https://fontawesome.com License - https://fontawesome.com/license/free (Icons: CC BY 4.0, Fonts: SIL OFL 1.1, Code: MIT License) Copyright 2025 Fonticons, Inc.--><path d="M64 0C48.7 0 35.6 10.8 32.6 25.7L3.2 173C1.1 183.5 0 194.2 0 205v3c0 77.4 55 142 128 156.8V480H64c-17.7 0-32 14.3-32 32s14.3 32 32 32h192c17.7 0 32-14.3 32-32s-14.3-32-32-32h-64V364.8C265 350 320 285.4 320 208v-3c0-10.7-1.1-21.4-3.2-32L287.4 25.7C284.4 10.8 271.3 0 256 0zm1.9 185.6L90.2 64h139.6l24.3 121.6c1.3 6.4 1.9 12.9 1.9 19.4v3c0 53-43 96-96 96s-96-43-96-96v-3c0-6.5.6-13 1.9-19.4"/></svg>