<svg xmlns="http://www.w3.org/2000/svg" viewBox="0 0 512 512"><!--! Font Awesome Free 7.1.0 by @fontawesome - https://fontawesome.com License - https://fontawesome.com/license/free (Icons: CC BY 4.0, Fonts: SIL OFL 1.1, Code: MIT License) Copyright 2025 Fonticons, Inc.--><path d="M0 64c0-17.7 14.3-32 32-32h448c17.7 0 32 14.3 32 32s-14.3 32-32 32v320c17.7 0 32 14.3 32 32s-14.3 32-32 32H32c-17.7 0-32-14.3-32-32s14.3-32 32-32V96C14.3 96 0 81.7 0 64m280 56c0-13.3-10.7-24-24-24s-24 10.7-24 24v16h-64c-13.3 0-24 10.7-24 24s10.7 24 24 24h64v48h-80c-13.3 0-24 10.7-24 24s10.7 24 24 24h80v48h-64c-13.3 0-24 10.7-24 24s10.7 24 24 24h64v16c0 13.3 10.7 24 24 24s24-10.7 24-24v-16h64c13.3 0 24-10.7 24-24s-10.7-24-24-24h-64v-48h80c13.3 0 24-10.7 24-24s-10.7-24-24-24h-80v-48h64c13.3 0 24-10.7 24-24s-10.7-24-24-24h-64z"/></svg>