<svg xmlns="http://www.w3.org/2000/svg" viewBox="0 0 24 24"><path d="M7.451 9a3 3 0 1 0 3 3 3.03 3.03 0 0 0-3-3Zm0 5.37A2.355 2.355 0 1 1 9.791 12a2.37 2.37 0 0 1-2.34 2.37ZM13.899 9a3 3 0 1 0 3 3 3 3 0 0 0-3-3Zm0 5.37a2.355 2.355 0 1 1 2.34-2.37 2.33 2.33 0 0 1-2.34 2.37zM2.29 10.8a2.02 2.02 0 0 0-1.59.42V9.63h2.7c.09 0 .15-.03.15-.3s-.12-.27-.18-.27H.4a.27.27 0 0 0-.27.27v2.64c0 .15.09.18.24.21a.23.23 0 0 0 .27-.06 1.71 1.71 0 0 1 1.5-.72 1.56 1.56 0 0 1 1.35 1.32 1.52 1.52 0 0 1-1.32 1.68h-.18a1.53 1.53 0 0 1-1.41-.99c-.03-.09-.09-.15-.33-.06s-.27.15-.24.24a2.127 2.127 0 0 0 2.7 1.26 2.127 2.127 0 0 0 1.26-2.7 2.1 2.1 0 0 0-1.68-1.35m16.65-1.77a1.626 1.626 0 0 0-1.44 1.62v2.67c0 .15.12.18.3.18s.3-.03.3-.18v-2.67a1.01 1.01 0 0 1 .87-1.02.99.99 0 0 1 .75.24.96.96 0 0 1 .33.72 1.2 1.2 0 0 1-.21.57.95.95 0 0 1-.84.39c-.12 0-.21 0-.24.27 0 .18 0 .27.15.3a1.48 1.48 0 0 0 .87-.18 1.61 1.61 0 0 0 .87-1.26A1.554 1.554 0 0 0 19.204 9a.8.8 0 0 1-.264.03zm3.93 1.56 1.08-1.08c.03-.03.12-.12-.06-.33a.3.3 0 0 0-.21-.12.16.16 0 0 0-.12.06l-1.08 1.08-1.08-1.11c-.09-.09-.18-.06-.33.06s-.15.24-.06.33l1.08 1.08-1.086 1.11a.23.23 0 0 0-.06.12.25.25 0 0 0 .12.21.5.5 0 0 0 .21.12.3.3 0 0 0 .15-.06l1.08-1.08 1.08 1.08a.16.16 0 0 0 .12.06.3.3 0 0 0 .21-.12c.09-.12.12-.24.03-.3z"/></svg>