<svg xmlns="http://www.w3.org/2000/svg" viewBox="0 0 24 24"><path d="M22.892 10.378c.02 0 .118-.183.383-.254.108-.029.359-.05.54.096.14.113.185.296.185.484v1.127h-.275v-1.083c0-.362-.183-.41-.33-.41-.27 0-.443.211-.503.297v1.196h-.274V9.265h.274zm-.954.05c-.189-.071-.39-.12-.6-.05a.51.51 0 0 0-.31.315.9.9 0 0 0-.049.314c0 .175.044.332.144.452.193.22.537.217.842.092v.228a.7.7 0 0 1-.186.066c-.088.021-.533.11-.842-.18-.363-.34-.216-.936-.211-.954a.8.8 0 0 1 .236-.406c.348-.303.805-.204.976-.105zm-5.999 2.797h1.766v.55h-2.423v-3.59h2.326v.55H15.94v.928h1.433v.55H15.94zm-2.284-.48c0-.334-.317-.413-.81-.513a4 4 0 0 1-.4-.107c-.39-.133-.517-.361-.566-.46-.119-.237-.117-.648.013-.922.245-.523.793-.626 1.186-.626.444 0 .849.105 1.076.202v.563a3 3 0 0 0-.536-.158c-.29-.058-1.157-.181-1.157.421 0 .078.005.248.215.373.23.13.467.122.936.268q.21.063.37.175a.8.8 0 0 1 .256.295q.093.18.093.462c0 .316-.1.633-.413.853-.323.225-.779.27-1.095.27-.332 0-.767-.064-1.046-.22v-.555c.312.136.63.22 1.038.22.32 0 .84-.071.84-.542m-5.252.885c-.587-.358-.596-1.034-.596-1.331v-2.115h.658v2.056c0 .242.015.737.389.942.263.14.66.14.923 0 .374-.205.39-.7.39-.942v-2.055h.657v2.114q0 .225-.027.408c-.036.272-.163.678-.577.923-.484.283-1.334.286-1.817 0m-1.621-2.49a.9.9 0 0 1-.105.43.8.8 0 0 1-.346.321v.01c.173.06.45.2.558.508a.95.95 0 0 1-.142.85q-.105.141-.28.258c-.315.214-.724.244-.976.255-.436.006-.873.003-1.31.003v-3.59H5.43c.285 0 .667.024.96.236a.88.88 0 0 1 .393.719m-1.943 1.073v1.012h.43a5 5 0 0 0 .294-.008c.29-.025.589-.114.669-.362.018-.058.123-.455-.32-.596a1.6 1.6 0 0 0-.45-.046zm.593-.55c.144 0 .481 0 .61-.223a.49.49 0 0 0-.009-.499c-.123-.19-.418-.207-.655-.207H4.84v.929zm-4.006-1.48L0 13.774h.701l.686-1.784q.147-.378.336-.94h.011c.309.92.673 1.82 1.022 2.725h.695l-1.426-3.59zM19.03 15.49h.293V8.51h-.293z"/></svg>