<svg xmlns="http://www.w3.org/2000/svg" viewBox="0 0 24 24"><path d="M11.995 1.377a1.73 1.73 0 0 0-1.496.863C9.322 4.294 1.088 18.503.127 20.234c-.39.937.154 2.048 1.131 2.32.406.108.834.054 1.203.067 5.374.005 14.234-.006 19.624 0 .156.003.428-.001.658-.066a1.75 1.75 0 0 0 1.256-1.606 1.8 1.8 0 0 0-.125-.713c-.111-.241-.195-.367-.287-.531l-.545-.943L14.32 3.656l-.545-.943-.273-.473a1.9 1.9 0 0 0-.48-.535 1.7 1.7 0 0 0-1.028-.328Zm.006 1.3c.147 0 .293.074.375.215.165.277.648 1.139.816 1.416 1.831 3.174 4.115 7.13 6.305 10.922L10.358 5.09c.33-.57 1.126-1.952 1.268-2.198V2.89A.43.43 0 0 1 12 2.677M9.788 6.144l7.555 7.846-.057-.025-8-5.442c.071-.622.193-1.242.35-1.855zM8.37 8.535 4.22 21.32h-1.76c-.11 0-.682.004-.757-.004-.28-.005-.478-.33-.371-.588.64-1.12 4.178-7.243 7.037-12.193Zm.844 1.205 5.574 3.432-5.504-2.278a9 9 0 0 1-.07-1.154m-.86 1.377-.697 9.465c-.72.303-1.473.537-2.24.725zm1.152.908 3.553 1.225H9.973a7 7 0 0 1-.33-.773q-.075-.225-.137-.452m-.552.852.049.13.834 6.339a9 9 0 0 1-1.088.707zm1.865 1.168h2.365c.18 0 .293.193.203.35l-1.183 2.048a.233.233 0 0 1-.405 0h-.002l-1.181-2.049a.233.233 0 0 1 .203-.35zm3.678.016a7 7 0 0 1 .832.1 8 8 0 0 1 .463.109l-2.842 2.466zm2.38.58a9 9 0 0 1 1.057.527l-5.879 3.174zm-6.888.257 1.543 2.672a7 7 0 0 1-.504.67 8 8 0 0 1-.322.346zm8.965.946c.274.203.538.422.797.648l.986 1.024-10.709 2.652.059-.041zm2.447 2.685 1.194 2.065c.06.1.051.104.074.136a.44.44 0 0 1-.28.575c-.03.001-.057.014-.091.012-.006.005-.13.003-.213.003H8.295z"/></svg>