<svg xmlns="http://www.w3.org/2000/svg" viewBox="0 0 24 24"><path d="M22.549 9.604a10.46 10.46 0 0 0-3.388-6.838A10.63 10.63 0 0 0 12 0a10.64 10.64 0 0 0-7.16 2.764 10.47 10.47 0 0 0-3.428 7.74c0 2.371.81 4.672 2.298 6.529a10.6 10.6 0 0 0 5.895 3.698L12 24l2.395-3.27a10.6 10.6 0 0 0 5.895-3.697 10.44 10.44 0 0 0 2.26-7.43zm-11.306 6.28a.26.26 0 0 1-.034.125.254.254 0 0 1-.347.092l-3.906-2.237a1 1 0 0 1-.505-.865V8.624a.26.26 0 0 1 .033-.126.254.254 0 0 1 .347-.092l3.907 2.237a1.01 1.01 0 0 1 .503.866v4.372zM12 9.48a1.03 1.03 0 0 1-.503-.133L7.5 7.057a.24.24 0 0 1-.09-.092.25.25 0 0 1 .09-.342l3.997-2.289a1.02 1.02 0 0 1 1.007 0l3.996 2.29a.24.24 0 0 1 .09.092.25.25 0 0 1 0 .25.3.3 0 0 1-.09.092l-3.997 2.289A1 1 0 0 1 12 9.48M17.546 13a1 1 0 0 1-.503.866l-3.908 2.237a.254.254 0 0 1-.38-.218V11.51a1.01 1.01 0 0 1 .503-.867l3.907-2.238a.254.254 0 0 1 .38.219z"/></svg>