<svg xmlns="http://www.w3.org/2000/svg" viewBox="0 0 24 24"><path d="M11.908.183a12 12 0 0 0-8.044 3.172c-4.882 4.475-5.166 12.08-.692 16.962.204.244.448.447.692.692a.315.315 0 0 0 .408-.04l.53-.61a.32.32 0 0 0 0-.448C.53 15.965.243 9.253 4.23 4.982S14.889.427 19.16 4.414s4.555 10.655.568 14.927c-.203.203-.365.407-.568.57a.32.32 0 0 0 0 .447l.53.611a.37.37 0 0 0 .446.04c4.882-4.516 5.166-12.081.692-16.962a11.98 11.98 0 0 0-8.92-3.864m.387 3.518A8.6 8.6 0 0 0 6.143 6c-3.458 3.213-3.66 8.623-.447 12.08.122.123.243.285.406.407a.32.32 0 0 0 .447 0l.53-.61a.32.32 0 0 0 0-.446A7.26 7.26 0 0 1 4.8 12.183c0-3.946 3.212-7.16 7.158-7.16s7.16 3.253 7.16 7.199a7.2 7.2 0 0 1-2.238 5.209.32.32 0 0 0 0 .447l.529.61c.122.121.325.162.447.04a8.6 8.6 0 0 0 .408-12.122 8.5 8.5 0 0 0-5.97-2.705zm-.266 3.316A5.2 5.2 0 0 0 8.34 8.48c-2.075 1.993-2.115 5.247-.122 7.322l.121.123a.32.32 0 0 0 .447 0l.53-.611a.32.32 0 0 0 0-.448 3.81 3.81 0 0 1-1.098-2.683 3.73 3.73 0 0 1 3.742-3.742 3.73 3.73 0 0 1 3.742 3.742c0 1.017-.406 1.951-1.139 2.683a.32.32 0 0 0 0 .448l.53.61a.32.32 0 0 0 .447 0 5.19 5.19 0 0 0 .123-7.321 5.13 5.13 0 0 0-3.633-1.586zm.006 7.744a.6.6 0 0 0-.402.146l-.04.041-7.159 8.055a.506.506 0 0 0 .041.69.44.44 0 0 0 .283.124h14.36a.495.495 0 0 0 .489-.488.46.46 0 0 0-.121-.326l-7.08-8.055a.5.5 0 0 0-.37-.187z"/></svg>