<svg xmlns="http://www.w3.org/2000/svg" viewBox="0 0 24 24"><path d="M11.992 1.966c-.434 0-.87.086-1.28.257L1.779 5.917c-.503.208-.49.908.012 1.116l8.982 3.558a3.27 3.27 0 0 0 2.454 0l8.982-3.558c.503-.196.503-.908.012-1.116l-8.957-3.694a3.3 3.3 0 0 0-1.272-.257M23.4 8.056a.6.6 0 0 0-.222.045l-10.012 3.877a.61.61 0 0 0-.38.564v8.896a.6.6 0 0 0 .821.552L23.62 18.1a.58.58 0 0 0 .38-.551V8.653a.6.6 0 0 0-.6-.596zM.676 8.095a.64.64 0 0 0-.48.19C.086 8.396 0 8.53 0 8.69v8.355c0 .442.515.737.908.54l6.27-3.006.307-.147 2.969-1.436c.466-.22.43-.908-.061-1.092L.883 8.138a.6.6 0 0 0-.207-.044z"/></svg>