<svg xmlns="http://www.w3.org/2000/svg" viewBox="0 0 24 24"><path d="M7.137 23.862c.79 0 1.708-.19 2.751-.554 1.55-.538 2.784-1.281 3.986-2.009l.316-.205a30 30 0 0 0 3.764-2.72 16.57 16.57 0 0 0 5.457-7.529c.395-1.138.949-3.384.268-5.487a7.12 7.12 0 0 0-2.862-3.749c-.158-.126-1.898-1.47-5.203-1.47-3.005 0-6.31 1.107-9.806 3.32l-.11.08-.317.205a20 20 0 0 0-2.309 1.693C1.585 6.813-.091 9.106.004 11.067c.031.79.427 1.534 1.075 2.008a3.47 3.47 0 0 0 2.214.68c1.803 0 3.765-.948 5.109-1.74l.253-.157.696-.443.237-.158c1.898-1.234 3.875-2.515 6.105-3.258a5.3 5.3 0 0 1 1.55-.285 3 3 0 0 1 .664.08 2.11 2.11 0 0 1 1.47 1.106c.523 1.012.396 2.61-.316 4.08a17.9 17.9 0 0 1-4.887 5.836 19.5 19.5 0 0 1-3.194 2.215l-.095.031a9.6 9.6 0 0 1-1.471.696l-.08.032-.41.158c-2.23.57-.87-1.329-.87-1.329.474-.537.98-1.028 1.518-1.502.316-.269.633-.554.933-.854l.064-.063c.395-.38.933-.902.901-1.645-.047-.98-1.075-1.582-2.056-1.613h-.063c-.95 0-1.819.522-2.404.98a7.3 7.3 0 0 0-1.598 1.74c-.6.901-1.85 3.226-.632 5.077.49.743 1.313 1.123 2.42 1.123"/></svg>