<svg xmlns="http://www.w3.org/2000/svg" viewBox="0 0 24 24"><path d="M12.006 1.764a.44.44 0 0 0-.215.054.4.4 0 0 0-.156.152L9.36 5.835a.8.8 0 0 0-.113.416c0 .146.039.29.113.416l4.951 8.412a.84.84 0 0 0 .313.305.86.86 0 0 0 .424.111h4.549a.44.44 0 0 0 .213-.056.4.4 0 0 0 .154-.153.4.4 0 0 0 .059-.207.4.4 0 0 0-.057-.209L12.37 1.975a.4.4 0 0 0-.154-.153.43.43 0 0 0-.211-.058M8.02 8.506a.43.43 0 0 0-.211.056.4.4 0 0 0-.157.153L.058 21.61a.41.41 0 0 0-.002.418.4.4 0 0 0 .157.152.43.43 0 0 0 .213.057h4.55a.86.86 0 0 0 .424-.112.84.84 0 0 0 .31-.305l4.954-8.412a.8.8 0 0 0 .113-.416.8.8 0 0 0-.113-.418l-2.275-3.86a.4.4 0 0 0-.157-.152.44.44 0 0 0-.213-.056m3.011 8.824a.87.87 0 0 0-.426.112.84.84 0 0 0-.31.304L8.02 21.608a.4.4 0 0 0-.057.209.4.4 0 0 0 .057.207.4.4 0 0 0 .154.154.43.43 0 0 0 .213.055h15.19a.43.43 0 0 0 .212-.055.4.4 0 0 0 .155-.154.4.4 0 0 0 .056-.207.4.4 0 0 0-.056-.21l-2.274-3.86a.84.84 0 0 0-.31-.305.86.86 0 0 0-.424-.112z"/></svg>