<svg xmlns="http://www.w3.org/2000/svg" viewBox="0 0 24 24"><path d="M13.539 5.405a.216.216 0 1 0 0-.432.216.216 0 1 0 0 .432M4.234 6.981 3.58 8.28l-1.336-.7-.276.551a.4.4 0 0 1 .091-.01c.056 0 .111.011.154.03l1.492.782.887-1.764zm15.722.433.31-.17.51.98.35-.19-.51-.979.297-.16.733 1.409.35-.19-1.014-1.948a.4.4 0 0 1-.165.189l-1.451.787 1.007 1.935.35-.19zm-7.287-2.009a.216.216 0 1 0 0-.432.216.216 0 1 0 0 .432m5.058 1.519.002.003a7.647 7.647 0 0 1-2.58 12.046q-.014.007-.027.013l.002-.001.025-.012a1.286 1.286 0 0 0-.551-2.448l-1.355-.002a.166.166 0 1 1 0-.33h2.288a1.95 1.95 0 0 0 0-3.9h-2.209a.166.166 0 1 1 0-.331l1.686-.002a3.223 3.223 0 0 0 3.223-3.222 3.2 3.2 0 0 0-.53-1.772l-.01-.012a.02.02 0 0 1-.004-.014q.002-.021.024-.023.01-.002.016.007m-3.258 12.318a7.6 7.6 0 0 1-2.46.404 7.6 7.6 0 0 1-3.213-.707v-6.026h2.165a2.4 2.4 0 0 1-.123-.765c0-.403.099-.783.272-1.118H8.796V5.061a7.6 7.6 0 0 1 3.214-.707 7.6 7.6 0 0 1 3.682.944c.156.099.26.273.26.471a.557.557 0 0 1-.557.558h-.952c-.267 0-.414.08-.506.16-.266.23-.175.502-.72.502h-1.501c.203.469.67.807.785.886h1.845a.18.18 0 0 1 .166.112.16.16 0 0 1 .01.097.18.18 0 0 1-.176.148h-1.878a1.67 1.67 0 0 0-.785.966h3.39a.4.4 0 1 1 0 .801h-1.717a2.143 2.143 0 0 0 0 4.286h2.141c.092 0 .166.077.166.168a.164.164 0 0 1-.166.164h-2.193a1.57 1.57 0 1 0 0 3.14l.828.002c.419 0 .764.351.764.767 0 .34-.205.579-.427.716zM6.913 11.03H4.425a7.63 7.63 0 0 1 2.488-4.728zm0 6.669a7.63 7.63 0 0 1-2.495-4.786h2.495zM12.01 3.94a8.06 8.06 0 1 0 0 16.119 8.06 8.06 0 0 0 0-16.12m-.301 2.009h1.902a.144.144 0 0 0 .144-.144.145.145 0 0 0-.144-.144h-1.902a.145.145 0 0 0-.144.144c0 .079.065.144.144.144m.072-.545a.216.216 0 1 0 0-.432.216.216 0 1 0 0 .432m.298 2.652.027-.025-.027-.026c-.42-.306-.607-.685-.72-.978-.077-.202-.165-.368-.292-.49-.132-.125-.229-.192-.42-.192a1 1 0 0 0-.23.03l-.045.01.028.053c.042.078.12.224.258.265a.1.1 0 0 0 .035.005l.034-.002.026-.002q.013.001.012.002c.148.085.226.716.226 1.03q0 .08-.072.079a.25.25 0 0 1-.153-.064.47.47 0 0 0-.347-.146c-.223 0-.458.15-.468.4v.051c.01.25.245.4.468.4.136 0 .26-.052.347-.145a.25.25 0 0 1 .153-.064q.073-.001.072.077c0 .315-.078.946-.226 1.031q0 .001-.012.002l-.026-.002-.034-.002a.1.1 0 0 0-.035.005c-.137.042-.216.187-.258.265l-.028.053.045.011a1 1 0 0 0 .23.029c.191 0 .288-.067.42-.193.127-.121.215-.287.292-.489.113-.293.3-.672.72-.978M2.64 10.18l-.123.803-.7-.528zm-1.275.637a.3.3 0 0 1 .097-.02.25.25 0 0 1 .124.032l.003.002 1.526 1.174.078-.51-.31-.234.185-1.224.364-.122.078-.509-2.031.683zM12 23.52C5.638 23.52.48 18.362.48 12S5.638.48 12 .48 23.52 5.638 23.52 12 18.362 23.52 12 23.52M12 0C5.373 0 0 5.373 0 12s5.373 12 12 12 12-5.373 12-12S18.627 0 12 0m2.668 2.643c.079-.23.274-.357.55-.357q.174 0 .364.069c.44.158.65.475.535.808-.08.231-.276.359-.551.359q-.175 0-.367-.07c-.438-.157-.647-.475-.531-.809m.392 1.217q.294.106.576.106c.476 0 .84-.234.975-.624a.92.92 0 0 0-.122-.828c-.165-.247-.438-.448-.768-.566a1.7 1.7 0 0 0-.568-.103c-.48 0-.845.231-.98.62-.191.555.181 1.142.887 1.395m3.094.16-.183 1.455.023.021 1.393-.326-.766 1.037.376.35 1.162-1.533-.432-.402-1.215.272.148-1.267-.452-.421-.056-.052a.37.37 0 0 1-.094.234l-1.205 1.17.378.353zm3.625 7.48a1 1 0 0 1-.092.009c-.301 0-.532-.263-.602-.685-.078-.468.093-.808.437-.868a1 1 0 0 1 .09-.007c.296 0 .532.268.6.683.079.468-.092.81-.433.869m.849-.941c-.113-.674-.543-1.144-1.046-1.144a1 1 0 0 0-.148.012c-.568.1-.89.717-.764 1.47.114.685.534 1.146 1.045 1.146a1 1 0 0 0 .151-.013c.567-.099.887-.717.762-1.471M12.432 1.727c.162 0 .271.116.273.288.001.174-.104.283-.276.285l-.989.008-.005-.572zM10.937 3.25l.511-.004-.004-.532.857-.008.375.53.57-.006-.431-.57.053-.025c.218-.105.342-.323.34-.598-.004-.435-.29-.716-.729-.716l-1.559.014h-.09c.054.065.088.15.093.222zm-3.384.324-.705.405-.022-.877zm-1.165-.421v.003l.034 1.927.447-.257-.01-.388 1.073-.618.322.21.446-.257-1.8-1.164-.64.366a.25.25 0 0 1 .128.178m-2.64 2.422 1.21 1.16.35-.38-.446-.428.744-.808-.288-.277-.745.808-.344-.33 1.072-1.163-.289-.277-1.486 1.613a.4.4 0 0 1 .22.08z"/></svg>