<svg xmlns="http://www.w3.org/2000/svg" viewBox="0 0 24 24"><path d="M16.434.001a1 1 0 0 0-.164.008l-3.423.543a2.635 2.635 0 0 1-2.189 3.01 2.63 2.63 0 0 1-3.01-2.185l-3.417.538a.82.82 0 0 0-.677.931l3.24 20.467a.82.82 0 0 0 .931.677l3.423-.543a2.635 2.635 0 0 1 2.189-3.01 2.63 2.63 0 0 1 3.01 2.185l3.422-.543a.82.82 0 0 0 .677-.93L17.2.685A.816.816 0 0 0 16.433 0zm-3.22 6.534q.1 0 .185.017c.423.09.975.6 1.315.955.178.187.192.519.048.73l-1.228 1.795a.9.9 0 0 1-.437.283c-.504.125-1.248-.95-1.771 1.507-.524 2.458.59 1.776 1.003 2.098a.83.83 0 0 1 .283.437l.394 2.14a.61.61 0 0 1-.341.649c-.456.182-1.167.427-1.589.336-.907-.192-2.342-2.4-1.57-6.044.725-3.415 2.71-4.89 3.708-4.903"/></svg>