<svg xmlns="http://www.w3.org/2000/svg" viewBox="0 0 24 24"><path d="m13.732 5.879-2.903 1.299V18.12h2.903zm3.219 1.436c-.361.36-1.59 1.587-1.977 1.978q1.26 1.274 2.527 2.543l-2.529 2.529 1.978 1.978q1.265-1.264 2.529-2.529l2.543 2.529q.99-.988 1.978-1.98-1.271-1.262-2.543-2.527L24 9.293l-1.978-1.978-2.543 2.543zM6.157 9.271v.382C3.256 8.379.002 10.503 0 13.671c.001 3.169 3.256 5.293 6.157 4.018v.431H9.06V9.271zM4.39 11.902c.978 0 1.718.741 1.767 1.674v.19a1.77 1.77 0 0 1-1.767 1.675c-.946 0-1.77-.792-1.77-1.77s.792-1.77 1.77-1.77z"/></svg>