<svg xmlns="http://www.w3.org/2000/svg" viewBox="0 0 24 24"><path d="M20.196 15.12c.265.337-.294 1.73-.542 2.353-.077.19.085.266.257.123 1.106-.926 1.39-2.867 1.166-3.149-.226-.277-2.16-.516-3.341.314-.183.127-.151.304.05.279.665-.08 2.147-.257 2.41.08m-.858.981c-2.064 1.523-5.056 2.333-7.632 2.333-3.611 0-6.862-1.334-9.322-3.555-.194-.176-.02-.414.21-.28 2.655 1.545 5.939 2.477 9.328 2.477 2.287 0 4.803-.476 7.115-1.458.348-.147.642.231.3.483m2.034-3.155a.4.4 0 0 1-.201-.04q-.063-.038-.133-.225l-1.734-4.355a2 2 0 0 0-.046-.117.3.3 0 0 1-.023-.108q0-.127.146-.128h.58q.146 0 .205.04.06.04.127.226l1.344 3.823 1.343-3.823q.07-.187.128-.226a.4.4 0 0 1 .205-.04h.54q.149.001.148.128a.3.3 0 0 1-.025.108q-.025.06-.044.117l-1.727 4.355q-.068.186-.132.225a.4.4 0 0 1-.201.04zm-3.644.068q-1.393 0-1.392-1.392V8.739h-.706q-.196 0-.197-.196v-.246a.22.22 0 0 1 .045-.147q.044-.048.171-.067l.717-.09.127-1.215q.02-.195.207-.196h.41q.195 0 .196.196v1.196h1.276q.195 0 .195.197v.372q0 .196-.195.196h-1.276v2.834q0 .363.162.51t.555.147q.186 0 .46-.049.148-.03.197-.03.078 0 .108.044.03.045.029.142v.266a.37.37 0 0 1-.04.19q-.039.065-.157.103a3 3 0 0 1-.892.118m-4.665-2.976q.01-.078.011-.255 0-.598-.28-.901-.28-.306-.818-.306-.617 0-.962.369-.343.368-.392 1.093zm-.942 3.07q-1.204 0-1.824-.667-.617-.667-.616-1.972-.001-1.245.616-1.937.619-.69 1.728-.691.93.001 1.432.524.499.526.5 1.487 0 .315-.05.638-.02.116-.064.156t-.142.04h-3.08q.02.844.418 1.245t1.23.403q.295 0 .564-.04a5 5 0 0 0 .682-.166l.117-.035a.3.3 0 0 1 .09-.016q.126 0 .125.177v.276q0 .127-.037.18a.44.44 0 0 1-.167.114 3.4 3.4 0 0 1-.701.205 4.2 4.2 0 0 1-.82.079m-5.424-.147q-.195 0-.195-.197v-4.58q0-.195.195-.195h.432q.097 0 .153.039.054.04.072.146l.07.55q.265-.284.499-.452a1.73 1.73 0 0 1 1.02-.323q.119 0 .235.01.168.02.168.176v.53q.001.176-.178.177-.087 0-.17-.01a2 2 0 0 0-.18-.01q-.786 0-1.346.47v3.472q0 .197-.195.197zm-2.249 0q-.195 0-.196-.197v-4.58q0-.195.196-.195h.579q.195 0 .195.195v4.58q0 .197-.195.197zm.295-5.856q-.285 0-.447-.16a.58.58 0 0 1-.161-.428q0-.264.16-.426.163-.163.448-.163.283 0 .446.163.16.162.16.426a.58.58 0 0 1-.16.427.6.6 0 0 1-.446.161m-3.625 5.856q-.197 0-.197-.197v-4.01H.195Q0 8.754 0 8.557v-.245q0-.098.043-.147.045-.049.173-.07l.705-.087v-.804q0-1.637 1.57-1.638.372 0 .784.109.107.027.152.088.044.058.044.205v.255q.001.186-.148.186-.087 0-.248-.029c-.11-.02-.23-.03-.369-.03q-.45 0-.633.172-.181.173-.181.564v.903h1.324q.197 0 .197.195v.373q0 .196-.197.197H1.892v4.01q0 .197-.196.197Z"/></svg>