<svg xmlns="http://www.w3.org/2000/svg" viewBox="0 0 24 24"><path d="M13.136 4.01a2.3 2.3 0 0 0-.441.042 2.13 2.13 0 0 0-1.74 2.195q-.107.084-.2.178l-.21.219q-.206.21-.417.416c-.282.274-.574.541-.867.812-.584.54-1.186 1.088-1.725 1.715a7.3 7.3 0 0 0-.73 1.014 4.9 4.9 0 0 0-.65 1.791 4 4 0 0 0-.04.324l-.008.08-.004.074-.005.15-.002.038-.002.049v.078l.002.16.006.152c-.884-.293-2.123-.481-3.184-.468-1.235.013-2.132.273-2.588.75a1.14 1.14 0 0 0-.33.842c.034.95 1.117 1.511 2.912 1.511h.1c1.257-.015 2.762-.348 3.613-.767a2.06 2.06 0 0 1 .07 1.09 1.7 1.7 0 0 1-.175.465 1.4 1.4 0 0 1-.31.373 1.5 1.5 0 0 1-.419.24 1.8 1.8 0 0 1-.5.1l.047.634h.012c1.306.771 1.579 1.622 1.74 1.702.215.105 1.023-.188.877-.854-.086-.392-.545-.675-.975-.861q.12-.013.238-.032l.051-.002.05-.01.05-.011a5 5 0 0 0 .234-.043l.004-.002c1.225-.252 2.32-.713 3.202-1.317.906.575 1.89 1.398 2.22 2.15-.03.129-.138.261-.261.274l.334.618c1.054-.532 1.809-.238 2.326.002l.178.091c.027.015.003 0 .027.016l.088-.031c.15-.095.535-.454.44-.82-.12-.453-.415-.626-.7-.575-.286.052-1.01.506-.955.07l-.004-.003c.042-.33.088-.922.004-1.592-.16-1.247-.709-2.214-1.594-2.817a3.5 3.5 0 0 0 .139-.62c.614.216 1.207.389 1.973.458.276.025.902.03 1.373.025l.064.237a.01.01 0 0 0 .014.006l.256-.092a1 1 0 0 1 .07-.024c.022-.006.034-.006.035.012-.004.05-.017.12-.023.147l-.057.287-.031.166c-.006.062.031.096.107.066.066-.03.153-.071.157-.074.438-.182.913-.443 1.351-.629.21-.088.31-.3.352-.504a1.3 1.3 0 0 0-.008-.404l.691.058.004-.006.207-.552.588.058.207-.552.586.058.207-.553.586.06.207-.552.588.059.205-.553.588.059.205-.553.346.035.086-.506.002-.02-.299-1.414-8.383 3.315a.03.03 0 0 0-.01.047l.381.383q.01.011.03.008l.17-.057a.104.104 0 0 1 .13.057l.096.234s.01.03-.041.03l-.051-.003-.205-.011a3 3 0 0 1-.375-.053c-.062-.01-.123-.03-.184-.043q-.09-.024-.183-.051l-.18-.064-.176-.075a5 5 0 0 1-.346-.173q-.085-.046-.17-.1a11 11 0 0 1-.503-.332q-.167-.118-.336-.24l-.022-.018c.126-1.483.522-2.098.834-2.352a.8.8 0 0 1 .356-.175 2 2 0 0 0-.022.38l.434.034.031-.11c.008-.036.021-.07.031-.105.01-.036.025-.07.037-.104s.03-.066.041-.1c.013-.033.032-.064.047-.099.015-.03.035-.065.051-.098q.055-.1.117-.2l.13-.216q.065-.11.126-.232.03-.062.059-.127c.019-.044.037-.085.054-.135l.024-.07.014-.035.01-.031.015-.06.01-.03.002-.006.008-.026.005-.03.004-.028v-.04c0-.015 0-.02-.006-.05l-.007-.03-.01-.027a1.47 1.47 0 0 0-.4-.607 2 2 0 0 0-.214-.174l.15.006c.146.005.267.008.352.008.085.002.133 0 .133 0l.053-.528s-.05-.01-.135-.023a8 8 0 0 0-.353-.053l-.06-.008.048-.01a2.26 2.26 0 0 0-2.174-1.753zm.102.643a1.62 1.62 0 0 1 1.394 1.059l-.385-.027a21 21 0 0 0-.578-.03 20 20 0 0 0-.508-.01l-.207.002c-.062 0-.108.003-.152.004l-.135.006v.002q-.039 0-.078.002a3.1 3.1 0 0 0-.974.217 1.48 1.48 0 0 1 .607-.95q.02-.001.047-.01.038-.004.086-.01c.03 0 .063-.007.1-.005h.113q.059.008.119.014c.04.01.084.012.125.023.04.012.082.022.121.04a1 1 0 0 1 .115.046c.038.016.07.038.104.055.03.02.064.039.09.059a1 1 0 0 1 .15.125l.01.011.256-.177-.01-.022a1.5 1.5 0 0 0-.164-.207c-.03-.033-.063-.063-.098-.098-.037-.03-.073-.066-.117-.097zm-.483 1.645h.067l.074.002c.176.008.365.03.545.064.363.07.721.186 1.037.354.156.084.303.182.42.293a.9.9 0 0 1 .209.28l-.002.013-.01.031-.008.022-.015.046c-.01.03-.027.066-.041.1q-.02.05-.043.102c-.014.034-.034.068-.051.103l-.05.106a7 7 0 0 0-.114.224l-.026.051c-.103-.012-.506-.038-.94.297-.554.43-.91 1.25-1.06 2.447q-.036-.027-.07-.05a10 10 0 0 0-.363-.231l-.186-.111-.191-.104a6 6 0 0 0-.795-.35 3 3 0 0 0-.207-.064 4 4 0 0 0-.211-.06c-.07-.018-.142-.04-.21-.051l-.206-.041-.086.318c.133.047.268.09.389.14q.091.036.185.077a6 6 0 0 1 .541.268 7 7 0 0 1 .348.203l.17.111.166.113.164.12.164.122q.163.123.324.252l.324.26c.22.174.445.35.686.516q.089.06.182.119a5 5 0 0 0 .586.326q.103.046.209.09.105.039.214.076.11.035.221.065.111.027.223.049.226.04.455.056.112.006.227.008l.093-.002a.6.6 0 0 0 .248-.063l.055-.027s.052-.03.1-.07a1 1 0 0 1 .13-.112.5.5 0 0 1 .178-.08.3.3 0 0 1 .155.008c.013.006.025.007.039.014l.039.021.006.002.007.073a1 1 0 0 1-.005.181.72.72 0 0 1-.295.5l-.002.002-.075.051c-.026.018-.054.029-.082.045q-.043.023-.09.041l-.078.031a4 4 0 0 1-.037-.228 18 18 0 0 1-1.29-.024c-.887-.08-1.516-.31-2.31-.6a23 23 0 0 0-1.806-.595.897.897 0 0 0-1.116.588q-.127.416-.005 1.049c.248 1.282.255 2.291.017 2.771a8.6 8.6 0 0 1-2.398.86h-.004l-.092.02-.131.023a4 4 0 0 1-.438.052 2 2 0 0 0 .26-.35c.116-.202.2-.423.25-.648a2.7 2.7 0 0 0-.11-1.502c-.016-.053-.04-.105-.06-.156s-.048-.102-.072-.152l-.062-.135a3 3 0 0 1-.172-.502 3.6 3.6 0 0 1-.088-.54 4 4 0 0 1-.018-.278l-.002-.14v-.097l.004-.037.01-.15.004-.075.006-.066c.009-.09.018-.18.035-.271a4.3 4.3 0 0 1 .562-1.563c.191-.323.417-.63.666-.922.501-.585 1.084-1.12 1.67-1.66q.44-.407.877-.828c.144-.14.291-.283.432-.43l.031-.035.034.04c.052.059.106.131.19.2.073.073.168.144.274.211a2.1 2.1 0 0 0 .563.248 3.5 3.5 0 0 0 .65.117 5 5 0 0 0 .723 0l-.004-.277a4.4 4.4 0 0 1-.67-.09 3 3 0 0 1-.55-.18 2 2 0 0 1-.151-.076 1.6 1.6 0 0 1-.252-.17 1.2 1.2 0 0 1-.172-.174c-.049-.052-.077-.107-.107-.148-.026-.043-.04-.08-.055-.104q-.001-.003-.004-.007l.05-.032.058-.029a2.5 2.5 0 0 1 .748-.254 2.5 2.5 0 0 1 .394-.031m.52.484c-.217.009-.388.13-.38.27s.193.248.411.24c.22-.008.389-.13.379-.27-.007-.139-.19-.246-.408-.24zM23.26 9.24l.052.286a.09.09 0 0 1-.105.113c-.032-.006-.063.005-.074.035l-.192.512-.588-.059-.205.553-.588-.06-.205.554-.588-.06-.205.554-.588-.06-.207.553-.586-.06-.183.49a.09.09 0 0 1-.096.058l-.047-.004c-.036-.004-.254-.024-.265-.059l-.542-1.265zm-6.018 2.495c.184-.013.305.077.388.24.013.01.487 1.213.479 1.195a.37.37 0 0 1-.05.436c-.083.095-.28.16-.401.21-.065.029-.066-.013-.09-.081l-.053-.153.024-.042a1.4 1.4 0 0 0 .138-.45 1.5 1.5 0 0 0-.007-.457l-.016-.076-.01-.039-.012-.049v-.002a.3.3 0 0 0-.101-.148 1.3 1.3 0 0 0-.276-.172 1 1 0 0 0-.109-.041c-.039-.011-.077-.024-.117-.03a1 1 0 0 0-.117-.011l-.02-.002c-.016-.007-.046-.061-.033-.086a.45.45 0 0 1 .383-.242m-6.544 1.097h.002a.3.3 0 0 1 .108.01c.635.176 1.15.359 1.604.524-.075 1.032-.725 2.01-1.756 2.773.089-.747-.028-1.661-.17-2.392-.076-.397-.047-.624-.01-.745a.25.25 0 0 1 .222-.17m-7.771.87c1.119-.014 2.494.224 3.283.556l.01.045a4 4 0 0 0 .138.446c-.679.348-2.09.697-3.353.71-1.147.012-2.31-.25-2.332-.86a.47.47 0 0 1 .146-.354c.318-.334 1.089-.532 2.108-.543m9.75 1.123c1.514 1.142 1.263 3.371 1.188 3.855l-.215.045c-.43-.977-1.59-1.862-2.266-2.314.558-.474 1-1.01 1.293-1.586"/></svg>