<svg xmlns="http://www.w3.org/2000/svg" viewBox="0 0 24 24"><path d="m20.913 13.147.12-.895c.947.576 1.258.922 1.354 1.071-.16.031-.562.046-1.474-.176m-2.174 7.988a1 1 0 0 0-.005.073c0 .084-.207.405-1.124.768a10 10 0 0 1-1.438.432c-1.405.325-3.128.504-4.853.504-4.612 0-7.412-1.184-7.412-1.704a1 1 0 0 0-.005-.073L1.81 5.602q.203.117.432.227.064.03.128.057.2.093.417.18l.179.069q.232.087.478.168.063.02.13.043.311.097.646.187l.176.044q.263.066.534.127a23 23 0 0 0 .843.17l.121.023q.378.067.768.122.107.016.216.03.299.04.604.077l.24.027q.366.04.74.07l.081.009q.413.033.83.056l.233.012q.316.015.633.025a33 33 0 0 0 2.795-.026l.232-.011q.417-.023.83-.056l.08-.008q.375-.03.742-.072l.238-.026q.307-.036.609-.077.105-.014.211-.03.392-.056.772-.122l.111-.02q.323-.06.634-.125l.212-.047q.279-.062.546-.13l.166-.042q.338-.09.654-.189.059-.019.115-.038a11 11 0 0 0 .493-.173q.087-.032.17-.066.225-.089.43-.185.059-.025.116-.052.23-.11.436-.228l-.976 7.245c-2.488-.78-5.805-2.292-7.311-3a1.09 1.09 0 0 0-1.088-1.085c-.6 0-1.088.489-1.088 1.088s.488 1.089 1.088 1.089c.196 0 .378-.056.537-.148 1.72.812 5.144 2.367 7.715 3.15zm-7.42-20.047c5.677 0 9.676 1.759 9.75 2.736l-.014.113c-.01.033-.031.067-.048.101-.015.028-.026.057-.047.087-.024.033-.058.068-.09.102-.028.03-.051.06-.084.09-.038.035-.087.07-.133.105-.04.03-.074.06-.119.091-.053.036-.116.071-.177.107-.05.03-.095.06-.15.09-.068.036-.147.073-.222.11-.059.028-.114.057-.177.085-.084.038-.177.074-.268.111-.068.027-.13.054-.203.082-.097.036-.205.072-.31.107-.075.026-.148.053-.228.079-.111.035-.233.069-.35.103-.085.024-.165.05-.253.073-.124.034-.258.065-.389.098-.093.022-.181.046-.278.068-.139.032-.287.061-.433.091-.098.02-.191.041-.293.06-.155.03-.32.057-.482.084-.1.018-.198.036-.302.052-.166.026-.342.048-.515.072-.11.014-.213.03-.325.044-.181.023-.372.041-.56.06q-.163.019-.332.036c-.188.016-.386.029-.58.043-.122.009-.24.02-.364.028-.207.012-.422.02-.635.028-.12.005-.234.012-.354.016a36 36 0 0 1-2.069 0c-.12-.004-.234-.011-.352-.016-.214-.008-.43-.016-.637-.028-.122-.008-.238-.02-.36-.027-.195-.015-.394-.028-.584-.044-.11-.01-.215-.024-.324-.035-.19-.02-.384-.038-.568-.06l-.315-.044c-.176-.024-.355-.046-.525-.073-.1-.015-.192-.033-.29-.05-.167-.028-.335-.055-.494-.086-.096-.018-.183-.038-.276-.056-.151-.032-.305-.062-.45-.095-.09-.02-.173-.043-.26-.064-.138-.034-.277-.067-.407-.102-.082-.022-.157-.046-.235-.069a12 12 0 0 1-.368-.108c-.075-.024-.141-.049-.213-.073-.11-.037-.223-.075-.325-.113-.067-.025-.125-.051-.188-.077-.096-.038-.195-.076-.282-.115-.06-.027-.11-.054-.166-.08-.08-.039-.162-.077-.233-.116-.052-.028-.094-.055-.142-.084-.063-.038-.13-.075-.185-.113-.043-.029-.075-.058-.113-.086-.048-.037-.098-.073-.139-.11-.032-.029-.054-.057-.08-.087-.033-.035-.069-.07-.093-.104-.02-.03-.031-.058-.046-.086-.018-.035-.039-.068-.049-.102l-.015-.113c.076-.977 4.074-2.736 9.748-2.736m12.182 12.124c-.118-.628-.84-1.291-2.31-2.128l.963-7.16a1 1 0 0 0 .005-.073C22.16 1.581 16.447 0 11.32 0 6.194 0 .482 1.581.482 3.851a1 1 0 0 0 .005.072L2.819 21.25c.071 2.002 5.236 2.75 8.5 2.75 1.805 0 3.615-.188 5.098-.531.598-.138 1.133-.3 1.592-.48 1.18-.467 1.789-1.053 1.813-1.739l.945-7.018c.557.131 1.016.197 1.389.197.54 0 .902-.137 1.134-.413a.96.96 0 0 0 .21-.804Z"/></svg>