<svg xmlns="http://www.w3.org/2000/svg" viewBox="0 0 24 24"><path d="M1.805 12.403c-.07-.096-.144-.175-.144-.354v-.594c0-.253.018-.484-.168-.658-.146-.14-.389-.19-.575-.19-.363 0-.769.136-.854.585-.009.047.026.072.057.08l.37.04c.035-.002.06-.036.067-.07.032-.155.161-.23.307-.23.079 0 .168.03.214.099.054.079.047.186.047.277v.05c-.222.024-.511.041-.719.132a.65.65 0 0 0-.407.624c0 .397.25.595.572.595.272 0 .42-.064.63-.277.069.1.091.15.218.255a.08.08 0 0 0 .09-.01l.294-.252c.032-.026.026-.067.001-.102m-.68-.576c0 .149.004.272-.07.405-.061.107-.158.173-.265.173-.147 0-.232-.112-.232-.277 0-.325.291-.384.568-.384zm5.687.576c-.07-.096-.144-.175-.144-.354v-.594c0-.253.018-.484-.168-.658-.147-.14-.39-.19-.575-.19-.364 0-.77.136-.854.585-.01.047.026.073.057.08l.37.04c.034-.002.06-.036.066-.07.032-.155.162-.23.307-.23.079 0 .168.03.214.099.054.079.047.186.047.277v.05c-.221.025-.511.041-.718.132a.65.65 0 0 0-.408.624c0 .397.25.595.572.595.272 0 .42-.064.63-.277.069.1.092.15.219.255a.08.08 0 0 0 .09-.01v.001c.077-.068.216-.188.294-.253.03-.026.026-.067 0-.102m-.75-.171c-.061.107-.158.173-.265.173-.147 0-.232-.112-.232-.277 0-.325.292-.384.568-.384v.083c0 .149.004.272-.071.405m5.16.53h-.381a.07.07 0 0 1-.068-.07l-.001-1.96a.07.07 0 0 1 .073-.065h.354a.07.07 0 0 1 .068.055v.3h.008c.107-.268.256-.396.52-.396a.5.5 0 0 1 .446.23c.1.158.1.421.1.611v1.234a.073.073 0 0 1-.074.061h-.383a.07.07 0 0 1-.068-.061v-1.065c0-.214.025-.527-.238-.527-.093 0-.179.061-.221.156a.9.9 0 0 0-.061.371v1.056a.073.073 0 0 1-.074.07m-1.609-2.136c.567 0 .873.487.873 1.105 0 .598-.338 1.073-.873 1.073-.556 0-.86-.487-.86-1.093 0-.61.307-1.085.86-1.085m.004.4c-.282 0-.3.384-.3.623s-.004.75.296.75c.296 0 .31-.412.31-.663 0-.165-.007-.364-.057-.52-.043-.136-.128-.19-.25-.19m-7.061 1.736h-.382a.07.07 0 0 1-.069-.064v-1.96c0-.04.034-.07.074-.07h.356c.037.001.067.03.07.065v.256h.007c.092-.248.267-.363.502-.363.239 0 .389.115.496.363a.54.54 0 0 1 .527-.363c.16 0 .335.066.442.214.122.165.097.405.097.615v1.237c0 .039-.034.07-.074.07h-.382a.07.07 0 0 1-.068-.07v-1.04c0-.082.007-.288-.011-.366-.029-.132-.114-.17-.225-.17a.25.25 0 0 0-.228.161c-.04.1-.035.264-.035.376v1.039c0 .04-.033.07-.074.07h-.382a.07.07 0 0 1-.068-.07v-1.04c0-.218.035-.54-.236-.54-.274 0-.264.314-.264.54v1.04c0 .04-.033.07-.073.07m4.579-1.749v-.28a.07.07 0 0 1 .07-.07H8.46c.04 0 .072.028.072.07v.24c0 .04-.034.093-.094.176l-.65.929c.24-.006.496.03.716.153.049.028.062.07.066.11v.299c0 .04-.045.088-.092.064a1.45 1.45 0 0 0-1.327.002c-.043.023-.089-.024-.089-.065v-.284c0-.045 0-.123.047-.192l.753-1.081h-.656a.07.07 0 0 1-.072-.07m.817 2.16c-.092-.117-.606-.055-.838-.028-.07.009-.08-.052-.017-.097.41-.288 1.083-.205 1.16-.108.08.097-.02.771-.405 1.093-.059.05-.115.023-.089-.042.087-.216.28-.7.189-.818m-.299.341c-.717.529-1.756.81-2.651.81a4.8 4.8 0 0 1-3.239-1.235c-.067-.06-.007-.143.074-.096a6.5 6.5 0 0 0 3.24.86c.795 0 1.668-.166 2.472-.507.121-.05.223.08.104.168m15.53-.693q-.512 0-.788-.281-.275-.282-.275-.807 0-.538.281-.844t.782-.306q.384 0 .602.186.217.187.217.497a.53.53 0 0 1-.234.47q-.234.158-.688.158-.236 0-.41-.045.026.277.168.397t.432.12q.116 0 .225-.015.11-.014.304-.064a.2.2 0 0 1 .046-.008q.07 0 .07.095v.19q0 .067-.018.093a.15.15 0 0 1-.073.048 1.8 1.8 0 0 1-.64.116m-.137-1.299q.21 0 .306-.064.095-.064.095-.196 0-.26-.31-.26-.397 0-.46.487.165.033.369.033m-4.417 1.237q-.054 0-.08-.025-.024-.025-.024-.078V10.75q0-.058.025-.08.024-.024.079-.023h.297q.096 0 .116.09l.033.112q.22-.144.395-.205.176-.06.362-.06.372 0 .525.265.21-.14.397-.202.186-.062.385-.062.289 0 .449.16.159.162.159.452v1.46q0 .053-.023.078t-.08.025h-.398q-.053 0-.078-.025t-.025-.078v-1.328q0-.28-.252-.281-.225 0-.451.107v1.502q0 .054-.023.078-.023.025-.08.025h-.397q-.053 0-.08-.025-.024-.024-.024-.078v-1.328q0-.28-.252-.281-.232 0-.455.111v1.498q0 .054-.023.078-.023.025-.08.025zm-.918-2.44a.36.36 0 0 1-.252-.087.3.3 0 0 1-.095-.236q0-.15.095-.235a.36.36 0 0 1 .252-.087.36.36 0 0 1 .252.087q.096.086.096.235c0 .15-.032.178-.096.236a.36.36 0 0 1-.252.087m-.198 2.44q-.054 0-.079-.025-.025-.024-.025-.078V10.75q0-.058.025-.08.025-.024.079-.023h.397q.057 0 .08.022.023.023.023.081v1.907q0 .054-.023.078-.023.025-.08.025zm-1.653 0q-.054 0-.079-.025-.024-.024-.024-.078V10.75q0-.058.024-.08.025-.024.079-.023h.298q.095 0 .115.09l.054.224a1.2 1.2 0 0 1 .312-.259.7.7 0 0 1 .313-.076h.058q.057 0 .082.023t.025.08v.348q0 .054-.023.078-.023.025-.08.025l-.075-.004a1 1 0 0 0-.116-.004q-.095 0-.231.027a1 1 0 0 0-.232.068v1.39q0 .054-.022.078-.024.025-.081.025zm-2.477.852q-.054 0-.079-.023-.024-.023-.024-.08V10.75q0-.058.024-.08.025-.024.079-.023h.298q.095 0 .115.09l.03.108a.9.9 0 0 1 .3-.19 1 1 0 0 1 .357-.07q.402 0 .635.293.234.293.234.794 0 .344-.116.6a.94.94 0 0 1-.314.395.78.78 0 0 1-.455.138 1 1 0 0 1-.323-.053.8.8 0 0 1-.26-.15v.907q0 .057-.023.08t-.081.023zm.906-1.261q.232 0 .34-.157.11-.157.11-.497 0-.343-.107-.5-.108-.157-.343-.157a.8.8 0 0 0-.406.111v1.088a.76.76 0 0 0 .406.112"/></svg>