<svg xmlns="http://www.w3.org/2000/svg" viewBox="0 0 24 24"><path d="M14.378 4.995q-.56-.485-1.74-.485-.585 0-1.168.106-.585.105-.983.28a.5.5 0 0 0-.199.13q-.05.068-.05.242v.335q0 .224.162.224a.3.3 0 0 0 .106-.019l.093-.03a6.4 6.4 0 0 1 1.827-.287q.745 0 1.045.274.298.274.298.945v.82a6.7 6.7 0 0 0-1.567-.211q-1.093 0-1.74.54-.646.541-.646 1.448 0 .846.522 1.35.522.502 1.417.502.534 0 1.075-.21.541-.211.988-.597l.063.41q.037.236.274.236h.534q.248 0 .249-.249V6.5q0-1.02-.56-1.504m-.609 4.6q-.41.31-.858.472a2.5 2.5 0 0 1-.857.162q-.485 0-.746-.255t-.261-.727q0-1.082 1.404-1.082.323 0 .665.044.342.045.653.118zM8.773 6.402a3 3 0 0 0-.516-1.025 2.2 2.2 0 0 0-.82-.647 2.55 2.55 0 0 0-1.082-.224q-.56 0-1.094.211a3.5 3.5 0 0 0-1.007.622l-.062-.398q-.037-.249-.286-.249h-.547q-.249 0-.249.249v8.366q0 .248.249.248h.733q.249 0 .249-.248v-2.909a2.77 2.77 0 0 0 1.926.734q.61 0 1.106-.242.497-.243.845-.678.35-.435.54-1.057a4.7 4.7 0 0 0 .194-1.392 4.7 4.7 0 0 0-.18-1.361m-2.791 3.735q-.846 0-1.64-.597V6.072q.78-.57 1.665-.571 1.69 0 1.69 2.324 0 2.313-1.715 2.312m13 1.963 2.736-6.961a1 1 0 0 0 .086-.299q0-.149-.174-.149h-.696q-.198 0-.274.063-.075.062-.149.274L18.833 9.85l-1.74-4.822q-.075-.212-.15-.274-.074-.063-.274-.063h-.746q-.174 0-.174.15 0 .086.087.298l2.4 5.917-.237.634q-.21.597-.472.82-.261.225-.733.224-.212 0-.336-.025a1 1 0 0 0-.186-.025q-.186 0-.187.236v.323q0 .174.063.255a.36.36 0 0 0 .199.118q.31.086.708.087.71 0 1.15-.373.442-.372.778-1.23m2.71 4.423c-2.627 1.94-6.436 2.97-9.717 2.97-4.597 0-8.737-1.699-11.87-4.528-.246-.222-.027-.525.27-.353 3.38 1.967 7.559 3.151 11.876 3.151a23.6 23.6 0 0 0 9.06-1.853c.444-.19.816.292.382.613m1.093-1.248c.336.43-.374 2.204-.691 2.996-.096.24.11.336.327.155 1.41-1.18 1.774-3.65 1.485-4.007-.286-.354-2.75-.659-4.254.397-.232.163-.192.387.064.356.847-.101 2.733-.328 3.069.103"/></svg>