<svg xmlns="http://www.w3.org/2000/svg" viewBox="0 0 24 24"><path d="M24 11.894a.12.12 0 0 0-.127-.127h-2.266a.12.12 0 0 0-.127.127v.19a.14.14 0 0 0 .127.149h1.419c.085 0 .085.042.085.148v.02c0 .106 0 .127-.085.127h-2.901a.12.12 0 0 1-.127-.127v-.824a.12.12 0 0 1 .127-.128h3.727a.12.12 0 0 0 .127-.127v-.317a.12.12 0 0 0-.127-.127h-4.616a.12.12 0 0 0-.127.127v2.054a.12.12 0 0 0 .127.127h4.616a.12.12 0 0 0 .127-.127v-1.165m-7.37.55a.32.32 0 0 1-.19.085h-.593a.3.3 0 0 1-.19-.084l-1.122-.72c-.064-.043-.127-.022-.127.063v1.207a.12.12 0 0 1-.128.127h-.593a.14.14 0 0 1-.148-.127v-2.054c0-.084.064-.127.148-.127h.636a.5.5 0 0 1 .19.064l1.525.995a.16.16 0 0 0 .19 0l1.525-.995a.3.3 0 0 1 .19-.064h.636a.12.12 0 0 1 .127.127v2.054a.12.12 0 0 1-.127.127h-.593a.14.14 0 0 1-.148-.127v-1.207q0-.127-.127-.063zm-6.606-1.016c-.042 0-.063.02-.106.064l-.36.466c-.02.042 0 .063.02.063h2.605c.085 0 .085-.042.085-.105v-.318c0-.106 0-.149-.085-.149h-2.159zM8.48 13.143h-.763a.071.071 0 0 1-.064-.105l1.63-2.118a.22.22 0 0 1 .149-.085h3.515a.164.164 0 0 1 .148.17v2.011a.12.12 0 0 1-.127.127h-.593a.12.12 0 0 1-.127-.127v-.296c0-.085 0-.106-.085-.106h-3.09a.14.14 0 0 0-.127.085v.02l-.233.296a.37.37 0 0 1-.233.127zm-1.546 0a.32.32 0 0 0 .212-.127l1.588-2.054c.063-.084.02-.148-.043-.148h-.317a.22.22 0 0 0-.148.085l-1.63 2.117a.072.072 0 0 0 .063.106h.275zm-1.101 0a.32.32 0 0 0 .212-.127l1.588-2.054c.063-.084.021-.148-.043-.148h-.444a.22.22 0 0 0-.149.085l-1.63 2.117a.072.072 0 0 0 .064.106h.402zm-1.8 0a.071.071 0 0 1-.063-.105l1.63-2.118a.21.21 0 0 1 .148-.085h.657c.084 0 .106.064.042.149l-1.588 2.054a.29.29 0 0 1-.212.127h-.614zm-1.503 0a.071.071 0 0 1-.064-.105l1.63-2.118a.22.22 0 0 1 .149-.085h.868c.085 0 .106.064.042.149l-1.588 2.054a.29.29 0 0 1-.211.127h-.826zm-2.457 0a.071.071 0 0 1-.063-.105l1.63-2.118a.22.22 0 0 1 .149-.085h1.926c.085 0 .106.064.043.149l-1.588 2.054a.29.29 0 0 1-.212.127H.072Z"/></svg>