<svg xmlns="http://www.w3.org/2000/svg" viewBox="0 0 24 24"><path d="M19.27 10.337a.604.604 0 0 0-.603.603v9.832h-1.738l-3.336-6.94c.476-.538.68-1.285.525-2a2.29 2.29 0 0 0-1.29-1.625v-.812a.847.847 0 0 0-.844-.864.85.85 0 0 0-.432.118.86.86 0 0 0-.412.766v.72a2.3 2.3 0 0 0-1.487 2.52 2.3 2.3 0 0 0 .591 1.21l-3.21 6.907H4.094a1.996 1.996 0 0 1-1.983-1.99V5.017c-.006 1.102.883 2 1.986 2.006a2 2 0 0 0 .132-.004h14.745s2.535-.218 2.862 1.54a.495.495 0 0 0-.445.489c0 .711-.579 1.29-1.302 1.29zm-2.048 12.2a.973.973 0 0 1-.45 1.3 1 1 0 0 1-.402.093 1 1 0 0 1-.32-.045c-.024-.008-.046-.021-.07-.031a1 1 0 0 1-.227-.132q-.038-.029-.072-.06a1 1 0 0 1-.21-.276l-1.256-2.614-1.558-3.245a.77.77 0 0 0-.7-.444h-.002a.79.79 0 0 0-.709.444l-1.51 3.245-1.233 2.646a.97.97 0 0 1-.798.58c-.063.005-.124-.002-.185-.009q-.052-.003-.103-.012c-.048-.01-.095-.028-.142-.045-.03-.012-.06-.02-.09-.034a1 1 0 0 1-.14-.09q-.033-.02-.066-.044a1 1 0 0 1-.169-.185.98.98 0 0 1-.07-.985l.846-1.822 3.268-7.031a1.8 1.8 0 0 1-.708-1.164c-.155-.98.513-1.9 1.493-2.056V9.395a.35.35 0 0 1 .168-.316.35.35 0 0 1 .354 0 .35.35 0 0 1 .167.316v1.159l.013.006a1.8 1.8 0 0 1 1.288 1.378 1.78 1.78 0 0 1-.644 1.784l3.389 7.05zm-4.238-10.231a1.1 1.1 0 0 0-1.093-1.108 1.12 1.12 0 0 0-.786.321 1.1 1.1 0 0 0-.323.772 1.1 1.1 0 0 0 1.093 1.108h.008c.605 0 1.097-.488 1.101-1.093m-1.027 5.277a.29.29 0 0 0-.257.155l-1.413 3.034h3.374l-1.457-3.033a.27.27 0 0 0-.247-.156m8.143-6.746h-.83a.103.103 0 0 0-.103.103v12.91a.103.103 0 0 0 .096.103h.844a1.79 1.79 0 0 0 1.783-1.79V9.047a1.79 1.79 0 0 1-1.79 1.79M2.61 5.017v.018a1.5 1.5 0 0 0 1.487 1.487l.131-.003h1.129a6.6 6.6 0 0 1 1.638-3.486H4.099A1.99 1.99 0 0 0 2.18 4.53c.242.036.43.235.43.486m6.338-2.899L7.91.328a.22.22 0 0 1 0-.218.24.24 0 0 1 .187-.11.22.22 0 0 1 .187.11l1.05 1.815a6.5 6.5 0 0 1 5.318 0L15.696.11a.219.219 0 0 1 .373.22l-1.03 1.79a6.12 6.12 0 0 1 3.098 4.401L5.85 6.52a6.12 6.12 0 0 1 3.097-4.4m5.377 2.62a.515.515 0 0 0 .527.503.515.515 0 0 0 .516-.515.521.521 0 0 0-.889-.367.52.52 0 0 0-.154.38m-5.717-.006a.515.515 0 0 0 .52.51.5.5 0 0 0 .367-.149.522.522 0 1 0-.734-.734.52.52 0 0 0-.153.373"/></svg>