<svg xmlns="http://www.w3.org/2000/svg" viewBox="0 0 24 24"><path d="M12 .001a11.95 11.95 0 0 1 7.62 2.729H24q-.375 2.545-.748 5.09C23.736 9.122 24 10.53 24 12c0 6.627-5.373 12-12 12S0 18.627 0 12 5.373 0 12 0Zm.727 5.2q-2.986 0-4.584.299T5.806 6.552q-.741.753-.948 2.233l-.052.39h4.323l.014-.078q.078-.441.325-.688c.376-.376 1.36-.48 2.74-.48.697 0 1.4-.017 2.09.09q.534.091.793.377.26.285.26.909c-.043.607-.118 1.212-.182 1.818h-.078q-.468-.623-1.507-.896c-.945-.248-2.015-.273-3.402-.273q-2.364 0-3.636.312-1.272.31-1.87 1.064t-.805 2.208c-.074.518-.152 1.034-.156 1.558q0 1.118.52 1.766.519.65 1.675.936 1.155.285 3.155.285c.963 0 1.93 0 2.883-.156q.857-.156 1.377-.493.518-.338 1.064-.961h.052l-.233 1.402H18.7l.935-6.596q.18-1.377.181-2.052c0-.598-.053-.975-.135-1.352l-2.624.001.338-2.295a6 6 0 0 0-.215-.056c-1.212-.288-2.615-.324-4.454-.324Zm-.805 7.298q1.247 0 1.883.078t.87.273.234.558c0 .055-.037.992-.416 1.39q-.26.272-.935.39c-.564.097-1.313.116-2.337.116q-1.17 0-1.805-.078-.637-.077-.922-.299a.73.73 0 0 1-.286-.61c.053-.624.13-1.014.39-1.285q.26-.273.948-.403c.585-.11 1.345-.13 2.376-.13m11.111-8.928h-4.497l-.511 3.475h4.497z"/></svg>