<svg xmlns="http://www.w3.org/2000/svg" viewBox="0 0 24 24"><path d="m19.042 10.089-.993 2.423-.993-2.423H15.83l1.607 3.921-.704 1.718h1.227l2.31-5.64zm4.667 2.127q-.29-.29-.92-.433l-.699-.16a1.1 1.1 0 0 1-.353-.143.25.25 0 0 1-.101-.21q0-.185.168-.286t.463-.1q.639 0 1.296.453l.336-.84a2.7 2.7 0 0 0-.757-.38 2.8 2.8 0 0 0-.867-.134q-.52 0-.929.168a1.47 1.47 0 0 0-.63.463 1.1 1.1 0 0 0-.224.681q0 .488.282.77t.88.416l.672.152q.312.068.425.151a.28.28 0 0 1 .114.236q0 .168-.164.265-.164.096-.459.096-.413 0-.816-.126a2.8 2.8 0 0 1-.74-.353l-.337.875q.346.244.82.374.475.13 1.048.13.832 0 1.308-.34.475-.341.475-.938 0-.496-.29-.787m-9.381-.433-.698-.16a1.1 1.1 0 0 1-.354-.143.25.25 0 0 1-.1-.21q0-.185.168-.286t.463-.1q.638 0 1.295.453l.337-.84a2.7 2.7 0 0 0-.757-.38 2.8 2.8 0 0 0-.867-.134 2.4 2.4 0 0 0-.93.168 1.47 1.47 0 0 0-.63.463 1.1 1.1 0 0 0-.223.681q0 .488.282.77t.88.416l.672.152q.312.068.425.151a.28.28 0 0 1 .114.236q0 .168-.164.265-.165.096-.459.096-.411 0-.816-.126a2.8 2.8 0 0 1-.74-.353l-.336.875q.345.244.82.374.476.13 1.047.13.832 0 1.308-.34.475-.341.475-.938 0-.496-.29-.786t-.922-.434m-4.505-1.8q-.438 0-.786.176a1.44 1.44 0 0 0-.568.513v-.588H7.233v4.13h1.27V11.9q0-.42.24-.673.238-.253.634-.253.329 0 .484.194.156.193.156.614v2.43h1.27v-2.49q0-.874-.362-1.307t-1.102-.433zm-5.39-1.524-.817 1.996 1.538 3.754H6.88zm-.372-.187H2.433L0 14.21h1.628z"/></svg>