<svg xmlns="http://www.w3.org/2000/svg" viewBox="0 0 24 24"><path d="M11.648 0a.09.09 0 0 0-.084.053A30.7 30.7 0 0 1 8.592 4.73c-2.09 2.728-5.145 6.466-5.145 10.364a8.2 8.2 0 0 0 8.201 8.2v-5.003c0-.106.087-.193.194-.193h2.81v-2.813c0-.106.087-.191.194-.191h5.004c0-3.9-3.056-7.636-5.145-10.364A30.7 30.7 0 0 1 11.732.053.1.1 0 0 0 11.648 0m-1.632 3.867c.05 0 .08.034.037.112q-.164.297-.328.593c-.396.702-.819 1.389-1.23 2.08q-.293-.047-.585-.088c.495-.651 1-1.296 1.48-1.959.153-.209.302-.423.454-.634a.24.24 0 0 1 .172-.104M7.44 7.186q.332.053.666.119-.112.193-.223.383a29 29 0 0 0-1.625 3.261c-.874 2.123-1.383 4.444-.77 6.707a8.2 8.2 0 0 0 2.217 3.74c.083.083-.02.216-.119.155a7.6 7.6 0 0 1-.93-.686A7.67 7.67 0 0 1 4.1 16.248c-.329-2.156.387-4.246 1.418-6.115a27 27 0 0 1 1.92-2.947zm7.931 8.435a.193.193 0 0 0-.191.191V18.3h2.677v-2.68zm3.299 0V18.3h1.348a8 8 0 0 0 .515-2.678zm-6.303 3.004a.193.193 0 0 0-.191.193v2.485h2.678v-2.678Zm3.295.484v2.68h2.115a.56.56 0 0 0 .399-.162v-.004a.56.56 0 0 0 .16-.397V19.11zm3.674.182v1.98a8 8 0 0 0 1.217-1.98zm-6.969 2.824a.193.193 0 0 0-.191.192v1.672a8 8 0 0 0 2.678-.516v-1.348zm3.48.668V24a8 8 0 0 0 1.98-1.217z"/></svg>