<svg xmlns="http://www.w3.org/2000/svg" viewBox="0 0 24 24"><path d="M10.812 0c-.425.013-.845.215-1.196.605a3.6 3.6 0 0 0-.493.722c-.355.667-.425 1.415-.556 2.143a552 552 0 0 0-.726 4.087c-.027.16-.096.227-.244.273C5.83 8.386 4.06 8.94 2.3 9.514a5 5 0 0 0-1.114.506c-1.042.665-1.196 1.753-.415 2.71.346.422.79.715 1.284.936 1.1.49 2.202.976 3.3 1.47.019.01.036.013.053.019h-.004l1.306.535q.001.033 0 .073c-.2 2.03-.39 4.063-.58 6.095-.04.419-.012.831.134 1.23.317.87 1.065 1.148 1.881.701.372-.204.666-.497.937-.818 1.372-1.623 2.746-3.244 4.113-4.872.111-.133.205-.15.363-.098q.523.174 1.045.347h.001q.03.017.073.03l.142.042c1.248.416 2.68.775 3.929 1.19.4.132.622.164 1.045.098.311-.048.592-.062.828-.236.602-.33.995-.957.988-1.682-.005-.427-.154-.813-.35-1.186-.82-1.556-1.637-3.113-2.461-4.666-.078-.148-.076-.243.037-.375 1.381-1.615 2.756-3.236 4.133-4.855.272-.32.513-.658.653-1.058.308-.878-.09-1.57-1-1.741a2.8 2.8 0 0 0-1.235.069c-1.974.521-3.947 1.041-5.918 1.57-.175.047-.26.015-.355-.144a353 353 0 0 0-2.421-4.018 4.6 4.6 0 0 0-.652-.849c-.371-.37-.802-.549-1.227-.536zm.172 3.703a.6.6 0 0 1 .189.211q1.307 2.168 2.609 4.338c.07.118.135.16.277.121 1.525-.41 3.052-.813 4.579-1.217q.55-.146 1.103-.289a.4.4 0 0 1-.1.2c-1.259 1.48-2.516 2.962-3.779 4.438-.11.13-.12.22-.04.37.937 1.803 1.768 3.309 2.498 4.76l-3.696-1.019q-.807-.269-1.615-.539c-.163-.055-.25-.03-.36.1-1.248 1.488-2.504 2.97-3.759 4.454a.4.4 0 0 1-.18.132q.051-.567.104-1.136.222-2.358.451-4.716c-.03-.318.117-.405-.322-.545-1.493-.593-3.346-1.321-4.816-1.905a.6.6 0 0 1 .24-.134q2.695-.856 5.394-1.705c.127-.04.199-.092.211-.233.013-.148.05-.294.076-.441q.362-2.045.726-4.088.104-.578.21-1.157"/></svg>