<svg xmlns="http://www.w3.org/2000/svg" viewBox="0 0 24 24"><path d="M8.666 0a3.34 3.34 0 0 0-1.524.338c-.207.105-.575.38-.818.612-1.028.98-1.287 2.514-.655 3.868.205.44.507.77 2.848 3.117 2.452 2.46 2.635 2.625 2.885 2.626.244 0 .364-.1 1.44-1.19.937-.95 1.231-1.3 1.454-1.729.597-1.149.649-2.051.174-3.014-.226-.459-.482-.751-1.901-2.176-.902-.905-1.79-1.75-1.975-1.876C10.049.2 9.354.006 8.666 0ZM3.552 5.574c-.218.003-.61.085-.61.328v12.09l.164.176c.113.119.25.174.435.174.254 0 .443-.173 3.349-3.078 2.686-2.686 3.079-2.91 3.079-3.305 0-.396-.393-.62-3.079-3.306-2.861-2.862-3.097-3.08-3.338-3.08Zm13.097.86c-.049.02-.113.164-.142.323-.076.403-.372 1.11-.658 1.566-.14.226-2.239 2.396-5.049 5.222-2.75 2.766-4.91 4.998-5.046 5.216-.456.728-.597 1.39-.469 2.197.222 1.394 1.327 2.68 2.549 2.969.467.11 1.618.093 2.033-.03.208-.063.526-.212.705-.332.503-.338 9.341-9.057 9.647-9.516.449-.675.835-1.071.84-1.976-.006-.594-.131-1.114-1.072-2.306-.51-.652-3.234-3.372-3.338-3.332Z"/></svg>