<svg xmlns="http://www.w3.org/2000/svg" viewBox="0 0 24 24"><path d="M0 12.06v-.311l1.16-.538v.281l-.867.392v.027l.868.402v.281L0 12.059zm3.18-.252h-.266l-.071.409h.303l-.054.271h-.293l-.07.394h-.273l.069-.394h-.362l-.07.394h-.275l.069-.394h-.254l.054-.271h.247l.071-.41h-.281l.054-.27h.274l.071-.42h.274l-.072.42h.363l.071-.42h.276l-.076.42h.276l-.054.27zm-.537 0h-.362l-.074.409h.362zm1.134-.65h1.097v.181h-.9v.62h.806v.179h-.806v.744h-.197v-1.725zm2.695 1.724-.363-.552-.11.005H5.54v.547h-.197v-1.725h.655q.324 0 .5.153.18.15.18.426a.6.6 0 0 1-.1.355.54.54 0 0 1-.289.202l.407.59h-.224zm-.474-.73q.237 0 .363-.103.128-.105.128-.308 0-.196-.128-.298-.126-.104-.363-.104H5.54v.814h.458zm1.305-.995h1.17v.182H7.5v.58h.87v.18H7.5v.6h1.006v.183H7.303zm1.782 0h1.171v.182h-.974v.58h.87v.18h-.87v.6h1.006v.183H9.085zm1.782 0h.24l.658 1.257.65-1.257h.242v1.725h-.185l-.003-1.437-.65 1.255h-.114l-.655-1.255v1.437h-.183zm3.774 1.725-.194-.44h-.94l-.192.44h-.21l.775-1.725h.204l.772 1.725zm-1.052-.623h.779l-.392-.887zm2.848.623-.363-.552-.11.005h-.459v.547h-.197v-1.725h.655q.323 0 .5.153.18.15.18.426a.6.6 0 0 1-.1.355.54.54 0 0 1-.289.202l.407.59h-.224zm-.474-.73q.237 0 .363-.103.128-.105.128-.308 0-.196-.128-.298-.126-.104-.363-.104h-.458v.814h.458zm2.712.73h-.239l-.635-.82-.336.367v.453h-.197v-1.725h.197v1.013l.927-1.013h.237l-.688.752zm.496-1.725h1.17v.182h-.973v.58h.87v.18h-.87v.6h1.005v.183h-1.202zm2.91 1.725-.362-.552-.11.005h-.459v.547h-.197v-1.725h.655q.323 0 .5.153.18.15.18.426 0 .213-.1.355c-.1.142-.164.163-.289.202l.407.59h-.224zm-.473-.73q.237 0 .363-.103.128-.105.128-.308 0-.196-.128-.298-.126-.104-.363-.104h-.458v.814h.458zM24 11.75v.31l-1.16.535v-.281l.867-.402v-.027l-.868-.392v-.28z"/></svg>