<svg xmlns="http://www.w3.org/2000/svg" viewBox="0 0 24 24"><path d="M22.858 6.121a.28.28 0 0 0-.121-.21C22.738 5.91 12.119.032 12.119.03a.25.25 0 0 0-.238 0c-.003 0-10.613 5.878-10.614 5.88a.28.28 0 0 0-.124.212V17.96c.014.056.017.125.07.16.019.08 10.618 5.8 10.67 5.851a.25.25 0 0 0 .234 0c.003-.001 10.614-5.795 10.615-5.798a.29.29 0 0 0 .125-.213zm-17.633 9.33-3.593 2.083V6.54l3.593 2.011zm13.55-6.9 3.593-2.01v10.993l-3.592-2.084zm-.74-.145L12 11.8 5.965 8.405 12 4.935zm-12.32 7.041v-6.62l6.04 3.397v6.545zm6.53 3.322v-6.544l6.04-3.398v6.62zM12 .525l10.11 5.598-3.578 2.003-6.41-3.686a.24.24 0 0 0-.244 0l-6.41 3.686L1.89 6.123zM5.473 15.873l6.282 3.455v4.014l-9.868-5.39zm6.772 7.469v-4.014l6.282-3.455 3.586 2.079z"/></svg>