<svg xmlns="http://www.w3.org/2000/svg" viewBox="0 0 24 24"><path d="M20.741 3.8 8.926 16.573l14.849-6.851A12 12 0 0 0 20.741 3.8M11.975 0c-1.637 0-3.197.328-4.619.921l-1.585 13.36L13.693.124A12 12 0 0 0 11.975 0m11.918 10.459-14.07 7.874 13.201-1.566a12 12 0 0 0 .869-6.308m-5.188 11.527a12.1 12.1 0 0 0 3.8-4.16l-12.374 2.457zM14.417.249 7.53 15.177 20.306 3.36A12 12 0 0 0 14.417.249M12.98 24a12 12 0 0 0 3.774-.945l-6.931-.822zM1.016 7.08a12 12 0 0 0-1.013 3.864l1.867 3.337zm5.298-5.665a12.1 12.1 0 0 0-4.236 3.784l1.743 8.773z"/></svg>