<svg xmlns="http://www.w3.org/2000/svg" viewBox="0 0 24 24"><path d="M4.237.001c-.312-.013-.665.072-.828.457-.158.374-.283 1.188-.34 2.276l1.223.591c-.02-.737.007-1.43.076-2.066-.026.299-.056.96.006 2.039q.029.513.088 1.15.001.036.007.069a46 46 0 0 0 .309 2.412c.057.368.126.752.195 1.16l-.01.01c.014.01.015.018.014.023l.03.16q.044.244.093.494l.108.553.056.289a62 62 0 0 0 .457 2.068q.135.575.287 1.186.146.579.309 1.193.146.543.303 1.117c.003.018.012.036.015.055a146 146 0 0 0 .34 1.185l.049.174c.078.261.158.533.242.805a4 4 0 0 1-.293-.135l-.19-.654c-.02-.077-.042-.148-.062-.225l-.002-.004-.004-.002q-.128-.451-.257-.916-.033-.13-.069-.263l-.314-1.178c-.1-.381-.194-.765-.29-1.154q-.14-.584-.277-1.172-.14-.6-.265-1.203c-.085-.396-.161-.798-.24-1.193a50 50 0 0 1-.211-1.17c-.004-.013-.006-.03-.01-.041l.004-.002q-.086-.58-.174-1.15a61 61 0 0 1-.154-1.204 28 28 0 0 1-.172-2.41l-1.22-.59q-.007.11-.013.23-.018.442-.023.93a45 45 0 0 0 .006 1.157q.014.557.045 1.148.029.503.07 1.022l.002.039.006.004q.006.036.006.076c.033.368.064.739.107 1.115a35 35 0 0 0 .303 2.125q.017.098.035.195a23 23 0 0 0 .547 2.32q.105.356.21.68.096.274.194.545.233.633.512 1.232l.006.004a.3.3 0 0 0 .02.05q.336.727.755 1.395c.01.013.02.033.03.047-.455-.183-1.259-.098-1.253-.097.83.288 1.557.64 2.016 1.175-.183.2-.523.352-.953.477.594.064.924-.039 1.045-.092-.31.26-.483.732-.635 1.24.35-.57.696-.949 1.033-1.094.078.258.162.524.244.788A148 148 0 0 0 5.157 24a.56.56 0 0 0 .43-.312c.13-.282.83-1.775 1.908-3.875.413 1.303.88 2.679 1.386 4.109a.5.5 0 0 0 .076-.465 104 104 0 0 1-1.308-3.945q.232-.45.484-.932.188.062.389.155c.203.186.352.491.482.84a1.52 1.52 0 0 0-.334-1.098c1.335.258 2.547.09 3.287-.81a4 4 0 0 0 .192-.258c-.325.304-.682.404-1.313.273.996-.281 1.523-.617 2.035-1.22q.18-.216.371-.48c-.943.722-1.927.822-2.9.493l-.045-.018c.914.02 2.203-.474 3.092-1.189.41-.33.796-.73 1.17-1.21.28-.359.55-.76.82-1.216q.352-.59.7-1.293a2.8 2.8 0 0 1-.74.137l-.144.008c-.048.002-.093 0-.146.002.885-.198 1.5-.74 1.994-1.447-.24.117-.628.262-1.07.297q-.088.008-.182.006c-.013-.002-.028 0-.047-.002.306-.078.574-.178.81-.309a3 3 0 0 0 .358-.236q.067-.054.13-.106.149-.128.28-.287c.028-.034.056-.063.08-.098q.056-.075.104-.146a8 8 0 0 0 .51-.828c.015-.031.032-.057.046-.088.04-.084.08-.16.11-.227q.064-.149.092-.238a.5.5 0 0 1-.108.051c-.273.112-.727.187-1.086.201q-.006-.001-.013.004h-.067c.72-.214 1.067-.45 1.422-.818a14 14 0 0 0 1.154-1.428c.264-.37.505-.738.692-1.072a7 7 0 0 0 .298-.592q.098-.234.172-.45c-.466.01-.986.011-1.48 0 .495.01 1.015.007 1.484-.005.5-1.485.063-2.262.063-2.262s-.526-1.212-1.4-.851c-.426.175-1.172.73-2.083 1.56l.514 1.45a18 18 0 0 1 1.703-1.602c-.257.22-.807.726-1.615 1.644q-.384.436-.844.997-.027.028-.047.06a51 51 0 0 0-1.666 2.187c-.248.34-.498.704-.765 1.088h-.016c.002.02-.004.028-.01.032l-.101.152c-.104.155-.213.31-.318.47l-.352.534q-.092.134-.186.277c-.184.282-.367.573-.558.873a97 97 0 0 0-1.428 2.338 97 97 0 0 0-1.341 2.343c-.012.017-.02.04-.034.057a197 197 0 0 0-.668 1.223l-.097.181q-.257.475-.52.979c0 .004-.005.008-.006.013q-.039.07-.072.141c-.117.222-.218.424-.45.87a1.4 1.4 0 0 0-.233-.182l.345-.65q.072-.132.143-.27l.04-.077.546-1.001.13-.233v-.006l-.001-.006c.169-.31.345-.62.52-.94q.076-.129.153-.265.338-.592.684-1.197a92 92 0 0 1 2.135-3.504c.247-.386.503-.77.754-1.152.092-.138.182-.272.279-.41a73 73 0 0 1 .48-.701c.007-.012.019-.024.026-.037h.006q.39-.536.773-1.065.417-.559.83-1.09a31 31 0 0 1 1.777-2.075l-.515-1.446q-.091.085-.192.178a32 32 0 0 0-.758.729q-.441.441-.912.935a46 46 0 0 0-1.632 1.838l-.03.033.002.008q-.024.032-.054.064c-.266.323-.538.649-.801.985a39 39 0 0 0-1.445 1.95c-.043.06-.085.126-.127.186a27 27 0 0 0-1.403 2.303q-.197.37-.37.715c-.096.195-.187.395-.278.591q-.315.695-.566 1.399l.002.006a.4.4 0 0 0-.026.058q-.16.455-.29.914-.21.26-.483.46a4 4 0 0 0-.131-.153 5.15 5.15 0 0 0 .824-2.211 6.4 6.4 0 0 0-.016-1.488c-.046-.4-.126-.82-.238-1.274q-.145-.59-.363-1.248-.139.278-.379.545l-.086.094c-.029.032-.06.06-.092.094.434-.674.486-1.397.358-2.148a2.7 2.7 0 0 1-.49.85q-.051.057-.11.116-.013.012-.033.028c.144-.24.25-.467.318-.698a1 1 0 0 0 .04-.146 3 3 0 0 0 .038-.225l.018-.146a2 2 0 0 0-.002-.354q-.003-.059-.01-.113c-.01-.055-.016-.105-.027-.154a7 7 0 0 0-.193-.84c-.01-.028-.015-.056-.026-.084-.027-.079-.048-.149-.072-.209a2 2 0 0 0-.09-.209.5.5 0 0 1-.035.1c-.102.24-.34.57-.557.8q-.006.003-.007.01l-.04.043c.318-.58.39-.946.385-1.398a12 12 0 0 0-.16-1.615 11 11 0 0 0-.232-1.104 6 6 0 0 0-.18-.558 6 6 0 0 0-.172-.391l.002-.004C5.576.341 4.82.124 4.82.124s-.27-.11-.582-.123zm3.38 15.783.032.082v.002c-.06.033-.116.067-.178.097q-.017.007-.039.018a2 2 0 0 0 .186-.2zm-.603 1.626q.197.203.354.32l.07.227a2 2 0 0 0-.246.053l-.03-.098q-.035-.126-.076-.257l-.021-.073zm.26.875a2 2 0 0 1 .271.01l.07.229a.8.8 0 0 1 .247-.004l-.326.627z"/></svg>