<svg xmlns="http://www.w3.org/2000/svg" viewBox="0 0 24 24"><path d="M12.098 3.01c-1.133.277-1.466.474-1.842 1.787.478-.962.84-1.315 1.842-1.787m3.228.076c-.834-.053-1.715.177-2.756.615a4 4 0 0 0-1.199.76c-.31.287-.576.62-.866 1.006a1.3 1.3 0 0 0-.468.095 1.9 1.9 0 0 0-.539.356q-.212.186-.416.383v.002q-.184.18-.363.365c-.945.152-1.72.32-2.41.588a6.3 6.3 0 0 0-1.97 1.217 5.2 5.2 0 0 0-.687.736 5.4 5.4 0 0 0-.503.803c-.13.142-.26.288-.399.414a1.5 1.5 0 0 1-.441.285c-.093.035-.133.058-.137.056-.004-.001-.008-.033-.012-.047.235-.21.267-.55.289-.86.03.034.053.068.082.113q.045.071.1.142l.158.2.055-.249c.046-.208.081-.484.027-.724-.034-.153-.117-.315-.235-.393l.036-.09c.04-.1.08-.204.115-.303l.069-.193-.204.035c-.27.047-.852.366-1.261.791-.152.158-.284.33-.37.514a1 1 0 0 0-.093.59.9.9 0 0 0 .272.498q.044.178.087.316.048.154.112.29c.119.247.31.398.529.468q.272.089.566.02a4 4 0 0 0-.072.69 9 9 0 0 0 .07 1.394q.02.139.045.275l-.107.291-.166.455-.37.365-.343.34-.082.08c-.232.224-.279.27-.213.662.04.241.119.484.242.72.114.216.267.427.463.624.245.245.647.55 1.066.71.245.092.488.138.723.097l-.039.11a4 4 0 0 1-.123.3c-.285.624.008.95.463 1.158.227.104.497.173.748.238l.168.045c.298.08.812.228 1.281.258.513.033.974-.073 1.098-.533.049-.182.078-.322.09-.459a2.3 2.3 0 0 0-.01-.406c.144-.32.21-.423.316-.578l.053-.08c.115-.17.168-.29.188-.426.018-.131.004-.262-.02-.461l-.011-.084a7 7 0 0 0 1.338.05l-.118.061-.055.03c-.395.203-.413.587-.289.984.112.357.343.723.487.945.303.467.592.861.943 1.076.368.226.786.253 1.328-.04.276-.15.363-.302.48-.507q.057-.098.126-.204c.101-.05.382-.296.67-.534l.296-.242q.11.079.27.115c.14.034.305.05.504.065.149.01.635.01.949.01h.227c.324.001.585-.016.783-.128.21-.119.334-.331.361-.71a1.3 1.3 0 0 0-.008-.378 1 1 0 0 0-.136-.312l-.014-.502-.016-.521a2.4 2.4 0 0 0-.068-.536 3.6 3.6 0 0 0-.18-.505c-.053-.127-.096-.245-.138-.36a6 6 0 0 0-.229-.547l.018-.123.181.174.266.258c.203.196.39.373.607.502.226.133.479.21.807.195a1.93 1.93 0 0 0 1.016-.385c.293-.216.528-.509.627-.832l.084-.279.07-.225c.482.082.998.11 1.498.057a3.7 3.7 0 0 0 1.351-.389 3.4 3.4 0 0 0 1.35-1.33h.002v-.002c.355-.616.555-1.34.63-2.088.062-.599.028-1.415-.097-2.2-.11-.701-.295-1.38-.55-1.87a.7.7 0 0 0-.137-.178 1.4 1.4 0 0 0-.51-.31c-.206-.07-.422-.084-.594.006a.5.5 0 0 0-.123.09 3 3 0 0 0-.3.388c-.106.153-.21.307-.337.414-.149.128-.327.202-.502.272a3.5 3.5 0 0 0-.261-.508 5 5 0 0 0-.399-.54 2.2 2.2 0 0 0-.365-.349 5 5 0 0 0-.41-.275c-.407-.255-.754-.559-1.108-.87-.16-.14-.323-.282-.482-.413-.842-.695-1.628-1.031-2.469-1.084m-4.129.004c-.57.137-.68.245-.851.804.273-.41.43-.545.851-.804m3.952.465c.829-.001 1.587.303 2.431 1.013.412.347.774.684 1.192.983-.152.013-.283.04-.455.107.21-.04.451 0 .67.04q.09.059.189.116c.295.174.463.27.662.547.21.294.386.589.541.912q-.15-.055-.262-.09a.57.57 0 0 0-.533.034l-.012.006c-.163.079-.416.17-.586.197a.7.7 0 0 0 .405-.006.56.56 0 0 0-.018.539.3.3 0 0 1-.02-.12.23.23 0 0 1 .249-.208.233.233 0 0 1 .187.33q-.174.031-.353.1a4 4 0 0 0-.237.095 3.7 3.7 0 0 1 1.084-.02q.038.176.073.366l-.137.01-.012.002c-.174-.14-.367-.117-.633-.057-.806.184-.617.637-.988 1.318.385-.47.357-.962.984-1.11.147-.036.247-.078.346-.063-.178.09-.333.237-.394.41-.173.486-.065.895-.254 1.35.234-.407.249-.802.459-1.23.075-.153.354-.4.525-.403l.14-.002c.042.27.068.539.052.761a8.5 8.5 0 0 1-.198 1.24c.213-.272.31-.85.403-1.257.097-.424.07-.934-.014-1.389-.117-.625.527-.522.9-.816.275-.217.463-.564.715-.809.25-.243.644.114.742.352.426 1.03.62 2.65.508 3.69-.126 1.164-.69 2.437-1.719 3.01-1.31.732-2.854.285-4.156-.154-.278-.093-.47-.229-.715-.382.067.3.097.615.008.914-.14.474-.367 1.251.277 1.394.246.055.357.048.704-.13a1.3 1.3 0 0 1-.616.011.4.4 0 0 1-.314-.273c.06.044.16.066.33.107.478.115.932-.114 1.021-.445.052-.194.043-.295.153-.559q.15.046.306.084l-.177.578c-.154.501-.752.904-1.28.895-.488-.009-.797-.314-1.134-.613l-.678-.6a5.2 5.2 0 0 1-1.658-.834c.4.472.673.732 1.232.967-.081.83-.37 1.436-.615 2.23-.111.36-.991 1.8-1.234 1.94-.174.1-1.26 1.016-1.465 1.136-.153.203-.287.483-.516.604-.698.37-1.148-.339-1.523-.936-.171-.272-.645-1.054-.23-1.273.39-.208.61-.357 1.009-.62.059.108.159.212.225.32l-.043-.352a2.8 2.8 0 0 1-.008-.596q.023-.31.047-.62c-.06.21-.179.42-.239.63-.024.084-.045.152-.056.214a7 7 0 0 1-2.682.034 17 17 0 0 0-.185-.926c-.018.278-.007 1.047-.008 1.476-.001.333-.016.448-.188.731-.16.265-.228.325-.453.773.019.283.019.47-.057.739-.125.446-1.386.098-1.718.007-.41-.112-1.256-.278-1.043-.824.187-.48.307-.986.398-1.658-.75-1.08-1.448-2.56-1.582-3.873-.104-1.019-.04-1.646.18-2.27.35-.987.837-1.843 1.62-2.53 1.06-.929 2.049-1.303 3.598-1.539-.373.417-.741.858-1.143 1.33-.406.479-.648.963-.906 1.487-.357.722-.348.996.125 1.63.407.547.627.794.804 1.328-.146.303-.2.56-.25.973.5.545.87.918 1.354 1.033.475.113.872.093 1.297-.125.944-.482 1.816-1.107 2.88-1.132.493-1.211.444-2.222.208-3.393-.162-.8-.227-1.557-.278-2.373-.2.84-.236 1.577-.088 2.414.18 1.008.318 2.124-.18 3.01-.962.073-1.788.658-2.655 1.107-.35.18-.712.198-1.098.092-.358-.098-.6-.334-.986-.78-.006-.446.095-.653.3-1.058.33-.65.695-1.255 1.094-1.894-.49.59-.953 1.084-1.338 1.677-.147-.419-.358-.633-.707-1.105-.34-.461-.375-.662-.12-1.196.255-.536.472-1.008.907-1.478.753-.813 1.443-1.717 2.266-2.518.447-.434.628-.42 1.22-.51a21 21 0 0 0 1.606-.31 23 23 0 0 1-1.553.08h-.015c.506-.646.799-1.006 1.62-1.363.95-.412 1.738-.652 2.47-.652zm.556 2.79c-1.101.276-1.307.739-1.166 1.45.121-.535.335-1.05 1.166-1.45m-3.263.061q-.668.075-1.336.139c-.375.035-.436.03-.702.293-.403.399-.794 1.768-.92 2.316.198-.455.69-1.729 1.069-2.053.105-.09.18-.143.258-.183-.271.455-.252.566-.157 1.176.081-.62.295-.859.647-1.32a9 9 0 0 0 1.14-.368zm10.226.053c-.255.517-.65.95-1.185 1.215-.288.142-.47.093-.791.062.326.094.533.21.853.096.652-.233.967-.756 1.123-1.373m-2.28.834q.035.071.067.144l-.05.041a.6.6 0 0 0-.126-.181zm-3.26.4c-.36.166-.779.126-1.087.334-.271.184-.646.764-.922 1.01.2-.078.394-.212.57-.354.002.22.101.426.27.565a.31.31 0 0 1 .092-.492.312.312 0 0 1 .432.191c-.148.11-.284.238-.397.387a1.7 1.7 0 0 0-.24.44 4.2 4.2 0 0 1 2.002-1.294c-.2-.003-.437.034-.678.114a.73.73 0 0 0-.482-.614c.16-.085.316-.175.44-.287m-1.042 1.64a.7.7 0 0 1-.125-.083.35.35 0 0 0 .125.084zM1.32 8.34c-.953.672-1.19.978-1.062 2.338C.352 9.608.56 9.145 1.32 8.34m-.808.404c-.482.336-.545.475-.5 1.059.105-.482.203-.664.5-1.059m1.779.195c-.07.15-.118.264-.152.381-.147.508.066.962-.395 1.33.217.438.207.612.711.41.195-.078.355-.187.498-.316q-.104.27-.191.545l-.03.094c-.36.153-.834.25-1.015-.13a3.5 3.5 0 0 1-.203-.595c-.594-.615.294-1.427.777-1.719m.123.276c.123.071.156.2.17.375-.073-.074-.132-.122-.227-.112a1.5 1.5 0 0 1 .057-.263m14.87 3.267c-.131.022-.365.07-.495.092-.348.059-.387.142-.441.484l-.086.524a9 9 0 0 1 .228-.568c.084-.184.132-.202.31-.3.127-.068.357-.163.483-.232zm-14.47 2.4c.274.946.738 1.876 1.255 2.657v.014a1 1 0 0 1-.149.369c-.369.493-1.306-.23-1.578-.508-.297-.303-.496-.662-.543-.998-.034-.246-.001-.252.17-.426l.693-.701zm12.405.62c.056.183.101.364.183.558.138.326.205.526.215.875l.032 1.106c.117.206.136.249.115.484-.043.481-.203.513-.625.506-.192-.003-.957-.007-1.15-.023-.274-.024-.429-.05-.512-.112.43-.316 1.162-1.619 1.304-2.068.151-.474.315-.888.438-1.326"/></svg>