<svg xmlns="http://www.w3.org/2000/svg" viewBox="0 0 24 24"><path d="M23.975 10.065a10.5 10.5 0 0 0-.456-2.354 4 4 0 0 1-.364.743 9.42 9.42 0 0 0-3.849-6.264A9.4 9.4 0 0 0 16.982.979a7 7 0 0 0-.338-.112 7.04 7.04 0 0 1 1.425 3.471q.009.066.015.133v.01q.008.068.013.137v.024l.01.137a6 6 0 0 1 .01.235v.18a7.05 7.05 0 0 1-1.268 4.042 6.3 6.3 0 0 1 .075 2.195 6 6 0 0 0 1.164-.401 6 6 0 0 0 .8-.44q.08.272.133.556.112.588.111 1.187a6 6 0 0 1-.07.947 6.2 6.2 0 0 0 1.614-.39q.409-.159.79-.373a6.2 6.2 0 0 1 .1 1.118 6.3 6.3 0 0 1-.135 1.298 6.3 6.3 0 0 0 1.906-.38A10.5 10.5 0 0 0 24 10.88a9 9 0 0 0-.024-.816m-2.808 5.794a6 6 0 0 1-.39.012h-.129a6.3 6.3 0 0 0 .198-1.567 6 6 0 0 0-.04-.705 6.2 6.2 0 0 1-1.944.594 6 6 0 0 1-.573.05 6 6 0 0 0 .115-.928 7 7 0 0 0 .008-.312 6.3 6.3 0 0 0-.142-1.332 6.2 6.2 0 0 1-2.12.776l-.005-.007a6 6 0 0 0 .111-.886 6 6 0 0 0 .01-.34q0-.569-.102-1.128a7.06 7.06 0 0 1-5.117 2.188 7.04 7.04 0 0 1-3.247-.788 6.3 6.3 0 0 0 1.294-.685 6.3 6.3 0 0 1-3.573-5.68 6.3 6.3 0 0 1 .102-1.135 6 6 0 0 1 .302-1.088 6 6 0 0 1 .484-1.002A6.3 6.3 0 0 1 7.164.88 12.2 12.2 0 0 0 4.48 2.55 12.2 12.2 0 0 0 .328 9.181 12.2 12.2 0 0 0 0 12.001a12.15 12.15 0 0 0 1.49 5.851 6.3 6.3 0 0 1 .445-1.713 11.66 11.66 0 0 0 8.585 6.994 6.2 6.2 0 0 1-.804-1.384 11 11 0 0 0 3.126.534q.14.001.283.003a11 11 0 0 0 4.867-1.129 6 6 0 0 1-.724-.478 10.5 10.5 0 0 0 4.32-3.094 10.5 10.5 0 0 0 1.356-2.093 6.3 6.3 0 0 1-1.777.366z"/></svg>