<svg xmlns="http://www.w3.org/2000/svg" viewBox="0 0 24 24"><path d="m2.15 4.318-.454.003c-.15.005-.303.013-.452.04a1.44 1.44 0 0 0-1.06.772c-.07.138-.114.278-.14.43-.028.148-.037.3-.04.45L0 6.222v11.557q0 .104.003.207c.004.15.013.303.04.452q.039.224.142.429a1.44 1.44 0 0 0 .63.63c.138.07.278.115.43.142.148.027.3.036.45.04l.208.003h20.194l.207-.003c.15-.004.303-.013.452-.04s.291-.071.428-.141a1.43 1.43 0 0 0 .631-.631c.07-.138.115-.278.141-.43.027-.148.036-.3.04-.45q.003-.104.003-.208l.001-.246V6.221q0-.104-.004-.207a3 3 0 0 0-.04-.452 1.45 1.45 0 0 0-1.2-1.201 3 3 0 0 0-.452-.04 11 11 0 0 0-.453-.003zm0 .512h19.942q.098 0 .197.003c.115.004.25.01.375.032.109.02.2.05.287.094a.93.93 0 0 1 .407.407 1 1 0 0 1 .094.288c.022.123.028.258.031.374q.003.097.003.197v11.552q0 .097-.003.196c-.003.115-.009.25-.032.375a.93.93 0 0 1-.5.693 1 1 0 0 1-.286.094 3 3 0 0 1-.373.032l-.2.003H1.906q-.1 0-.196-.003a3 3 0 0 1-.375-.032c-.109-.02-.2-.05-.288-.094a.9.9 0 0 1-.406-.407 1 1 0 0 1-.094-.288 2.5 2.5 0 0 1-.032-.373l-.002-.197V6.224q0-.098.002-.197c.004-.114.01-.248.032-.375.02-.108.05-.199.094-.287a.93.93 0 0 1 .407-.406 1 1 0 0 1 .287-.094c.125-.022.26-.029.375-.032q.098-.002.196-.003zm4.71 3.7c-.3.016-.668.199-.88.456-.191.22-.36.58-.316.918.338.03.675-.169.888-.418.205-.258.345-.603.308-.955zm2.207.42v5.493h.852v-1.877h1.18c1.078 0 1.835-.739 1.835-1.812 0-1.07-.742-1.805-1.808-1.805zm.852.719h.982c.739 0 1.161.396 1.161 1.089 0 .692-.422 1.092-1.164 1.092h-.979zm-3.154.3c-.45.01-.83.28-1.05.28-.235 0-.593-.264-.981-.257a1.45 1.45 0 0 0-1.23.747c-.527.908-.139 2.255.374 2.995.249.366.549.769.944.754.373-.014.52-.242.973-.242.454 0 .586.242.98.235.41-.007.667-.366.915-.733.286-.417.403-.82.41-.841-.007-.008-.79-.308-.797-1.209-.008-.754.615-1.113.644-1.135-.352-.52-.9-.578-1.09-.593zm8.204.397c-.99 0-1.606.533-1.652 1.256h.777c.072-.358.369-.586.845-.586.502 0 .803.266.803.711v.309l-1.097.064c-.951.054-1.488.484-1.488 1.184 0 .72.548 1.207 1.332 1.207.526 0 1.032-.281 1.264-.727h.019v.659h.788v-2.76c0-.803-.62-1.317-1.591-1.317m1.94.072 1.446 4.009c0 .003-.073.24-.073.247-.125.41-.33.571-.711.571-.069 0-.206 0-.267-.015v.666c.06.011.267.019.335.019.83 0 1.226-.312 1.568-1.283l1.5-4.214h-.868l-1.012 3.259h-.015l-1.013-3.26zm-1.167 2.189v.316c0 .521-.45.917-1.024.917-.442 0-.731-.228-.731-.579 0-.342.278-.56.769-.593z"/></svg>