<svg xmlns="http://www.w3.org/2000/svg" viewBox="0 0 24 24"><path d="M23.994 6.124a9.2 9.2 0 0 0-.24-2.19c-.317-1.31-1.062-2.31-2.18-3.043a5 5 0 0 0-1.877-.726 10.5 10.5 0 0 0-1.564-.15c-.04-.003-.083-.01-.124-.013H5.986q-.227.014-.455.026c-.747.043-1.49.123-2.193.4-1.336.53-2.3 1.452-2.865 2.78-.192.448-.292.925-.363 1.408a11 11 0 0 0-.1 1.18c0 .032-.007.062-.01.093v12.223q.014.211.027.424c.05.815.154 1.624.497 2.373.65 1.42 1.738 2.353 3.234 2.801.42.127.856.187 1.293.228.555.053 1.11.06 1.667.06h11.03a13 13 0 0 0 1.57-.1c.822-.106 1.596-.35 2.295-.81a5.05 5.05 0 0 0 1.88-2.207c.186-.42.293-.87.37-1.324.113-.675.138-1.358.137-2.04-.002-3.8 0-7.595-.003-11.393zm-6.423 3.99v5.712c0 .417-.058.827-.244 1.206-.29.59-.76.962-1.388 1.14q-.524.15-1.07.173c-.95.045-1.773-.6-1.943-1.536a1.88 1.88 0 0 1 1.038-2.022c.323-.16.67-.25 1.018-.324.378-.082.758-.153 1.134-.24.274-.063.457-.23.51-.516a1 1 0 0 0 .02-.193q0-2.723-.002-5.443a.7.7 0 0 0-.026-.185c-.04-.15-.15-.243-.304-.234-.16.01-.318.035-.475.066q-1.14.226-2.28.456l-2.325.47-1.374.278q-.024.007-.048.013c-.277.077-.377.203-.39.49q-.002.063 0 .13c-.002 2.602 0 5.204-.003 7.805 0 .42-.047.836-.215 1.227-.278.64-.77 1.04-1.434 1.233q-.526.152-1.075.172c-.96.036-1.755-.6-1.92-1.544-.14-.812.23-1.685 1.154-2.075.357-.15.73-.232 1.108-.31.287-.06.575-.116.86-.177q.574-.126.6-.714v-.15q0-4.441.002-8.882c0-.123.013-.25.042-.37.07-.285.273-.448.546-.518.255-.066.515-.112.774-.165q1.1-.224 2.2-.444l2.27-.46q1.005-.202 2.01-.403c.22-.043.442-.088.663-.106.31-.025.523.17.554.482q.012.11.012.223.003 2.866 0 5.732z"/></svg>