<svg xmlns="http://www.w3.org/2000/svg" viewBox="0 0 24 24"><path d="M17.788 18.681c.768 0 .769.71.769.752 0 .289-.105.43-.223.553L14.728 23.6a1.35 1.35 0 0 1-.957.401H.879a.8.8 0 0 1-.424-.123.96.96 0 0 1-.455-.804v-4.392zM23.063.001c.32-.006.65.188.802.45A.83.83 0 0 1 24 .876v12.882c0 .36-.14.705-.395.96L20.06 18.27c-.137.137-.274.274-.603.274-.041 0-.822 0-.822-.768V0zM4.553 5.481s.825 0 .825.77v12.093H0v-8.064c0-.361.14-.708.395-.963L3.95 5.757c.137-.138.274-.275.604-.275M18.299 0v5.377H6.255c-.767 0-.767-.823-.767-.823 0-.33.137-.466.274-.604L9.309.398A1.36 1.36 0 0 1 10.267 0z"/></svg>