<svg xmlns="http://www.w3.org/2000/svg" viewBox="0 0 24 24"><path d="m5.393 10.02-.48 1.959.99.001zm3.892.082v1.187c.549-.002.958.03 1.229-.033.27-.062.404-.217.404-.592 0-.334-.12-.469-.385-.523-.264-.055-.672-.028-1.248-.04zm5.326-.079-.48 1.96h.99zM11.996 0 0 11.998 12.004 24 24 12.004zM5.393 8.896c.366 0 .606.117.775.295.169.18.267.421.35.67l1.07 3.211s.134.276.144.567-.104.599-.6.666c-.355-.054-.536-.156-.657-.35-.122-.194-.184-.482-.305-.91H4.645c-.147.468-.195.757-.295.941s-.254.263-.616.317c-.508-.054-.636-.369-.636-.67s.129-.588.129-.588l1.015-3.152c.08-.246.176-.495.348-.682s.42-.315.803-.315m9.191.002c.366 0 .607.117.775.295.17.18.267.421.35.67l1.072 3.211s.135.276.145.567-.104.599-.6.666c-.356-.054-.536-.156-.658-.35s-.186-.482-.307-.91h-1.525c-.147.468-.193.757-.293.941s-.256.263-.617.317c-.509-.054-.635-.367-.635-.668s.127-.59.127-.59l1.016-3.152c.075-.233.17-.484.343-.674s.424-.323.807-.323m3.346.002c.308 0 .483.114.58.291.097.178.117.418.117.672v3.207c.215.005 1.23 0 1.23 0 .29 0 .53.02.694.106s.252.239.244.504c-.01.361-.18.517-.406.582s-.509.039-.744.039h-1.766c-.375 0-.536-.165-.604-.436-.067-.27-.04-.645-.04-1.062v-2.94c-.014-.254.02-.496.126-.674.107-.177.288-.289.569-.289m-8.645.104h1.098c.254 0 .51-.002.767.084.259.086.52.26.786.613.28.378.35.933.222 1.414s-.456.889-.972.969c.187.348.804 1.283.804 1.283s.066.11.078.266c.012.155-.03.357-.25.539-.388.147-.633.106-.78.03-.149-.078-.2-.192-.2-.192s-.562-.964-.91-1.633h-.643v1.338s.01.154-.064.305c-.075.15-.236.298-.578.285-.327 0-.488-.155-.567-.309S8 13.69 8 13.69V9.861c0-.334.006-.549.17-.68.164-.13.486-.177 1.115-.177"/></svg>