<svg xmlns="http://www.w3.org/2000/svg" viewBox="0 0 24 24"><path d="M18 2H6C3.79 2 2 3.79 2 6v12c0 2.21 1.79 4 4 4h12c2.21 0 4-1.79 4-4V6c0-2.21-1.79-4-4-4m-6 16c-3.31 0-6-2.69-6-6s2.69-6 6-6 6 2.69 6 6-2.69 6-6 6m0-6a2.5 2.5 0 0 0 5 0 2.5 2.5 0 0 0-5 0m6-12H6C2.69 0 0 2.69 0 6v12c0 3.31 2.69 6 6 6h12c3.31 0 6-2.69 6-6V6c0-3.31-2.69-6-6-6m5 18c0 2.76-2.24 5-5 5H6c-2.76 0-5-2.24-5-5V6c0-2.76 2.24-5 5-5h12c2.76 0 5 2.24 5 5zM18 2H6C3.79 2 2 3.79 2 6v12c0 2.21 1.79 4 4 4h12c2.21 0 4-1.79 4-4V6c0-2.21-1.79-4-4-4m-6 16c-3.31 0-6-2.69-6-6s2.69-6 6-6 6 2.69 6 6-2.69 6-6 6m0-6a2.5 2.5 0 0 0 5 0 2.5 2.5 0 0 0-5 0m2.5-2.5a2.5 2.5 0 0 0 0 5 2.5 2.5 0 0 0 0-5M18 2H6C3.79 2 2 3.79 2 6v12c0 2.21 1.79 4 4 4h12c2.21 0 4-1.79 4-4V6c0-2.21-1.79-4-4-4m-6 16c-3.31 0-6-2.69-6-6s2.69-6 6-6 6 2.69 6 6-2.69 6-6 6m0-6a2.5 2.5 0 0 0 5 0 2.5 2.5 0 0 0-5 0m2.5-2.5a2.5 2.5 0 0 0 0 5 2.5 2.5 0 0 0 0-5"/></svg>