<svg xmlns="http://www.w3.org/2000/svg" viewBox="0 0 24 24"><path d="M12 24q-3.258 0-6.07-1.64a12 12 0 0 1-4.29-4.29A11.84 11.84 0 0 1 0 12q0-3.258 1.64-6.07a12 12 0 0 1 4.29-4.29A11.84 11.84 0 0 1 12 0q3.258 0 6.07 1.64a12 12 0 0 1 4.29 4.29A11.84 11.84 0 0 1 24 12q0 3.258-1.64 6.07a12 12 0 0 1-4.29 4.29A11.84 11.84 0 0 1 12 24m2.133-14.227q-.585.422-.82 1.22-.235.796-.094 1.734c.141.938.312 1.222.656 1.793q.516.855 1.23 1.37.715.516 1.454.587.738.07 1.324-.352t.82-1.219.094-1.734a4.8 4.8 0 0 0-.656-1.793 4.6 4.6 0 0 0-1.23-1.371q-.716-.517-1.454-.586a1.9 1.9 0 0 0-1.324.351m2.484 5.18q-.703.281-1.406-.105-.704-.387-1.031-1.207a3 3 0 0 1-.164-.797h.023q.094 0 .234-.047h-.023q.281-.094.387-.445a.92.92 0 0 0-.012-.633.8.8 0 0 0-.164-.305v.024q.28-.352.656-.493.704-.304 1.406.082.704.387 1.02 1.23.316.844.047 1.63-.27.785-.973 1.066m-3.586.235a.83.83 0 0 0-.515-.106.77.77 0 0 0-.47.27l-.187.234a.35.35 0 0 0-.093.258q0 .093.046.187.586 1.102.961 1.524a.12.12 0 0 0 .13.058.18.18 0 0 0 .128-.082q.141-.351.375-1.5l.047-.258v-.07a.38.38 0 0 0-.164-.328zm-4.804-4.641q-.704.093-1.266.68-.562.585-.867 1.476a5.4 5.4 0 0 0-.282 1.887q.024.996.399 1.793t.973 1.195q.597.399 1.3.305t1.266-.668.867-1.465a5.4 5.4 0 0 0 .281-1.887 4.4 4.4 0 0 0-.398-1.793q-.375-.795-.973-1.207a1.8 1.8 0 0 0-1.3-.316m1.828 3.633q.046.89-.399 1.558-.446.669-1.148.739-.703.07-1.242-.493-.54-.562-.61-1.43v-.187q0-.328.07-.633v.024a.8.8 0 0 0 .235.023.7.7 0 0 0 .469-.316.8.8 0 0 0 .14-.598.7.7 0 0 0-.07-.328q.304-.234.727-.305.702-.07 1.242.504c.54.574.554.864.586 1.442M5.602 7.547a1.2 1.2 0 0 0-.329-.305q-.234-.14-.445-.094a.49.49 0 0 0-.328.258 1 1 0 0 0-.117.375l-.281 2.766.304-.516q.375-.585.797-1.008.61-.609 1.172-.796a1.5 1.5 0 0 1-.445-.329c-.12-.104-.227-.243-.328-.351M17.25 5.016a.55.55 0 0 0-.48-.141q-.27.047-.48.398-.12.235-.188.493c-.027.058-.032.125-.047.187l-.024.07q-.164.375-.304.54.68.023 1.312.257a4.8 4.8 0 0 1 1.594.961l.21.211-1.265-2.578a.93.93 0 0 0-.328-.398"/></svg>