<svg xmlns="http://www.w3.org/2000/svg" viewBox="0 0 24 24"><path d="M14.925 1.778c-1.587-.006-2.727.158-4.006.576-.43.14-1.12.411-1.53.6s-1.174.63-1.695.977-1.315.953-1.763 1.341A18 18 0 0 0 4.41 6.794c-.39.448-.936 1.16-1.215 1.58s-.522.747-.542.728c-.082-.082.68-1.553 1.211-2.336l.57-.843-.613.595c-.337.327-.937 1.026-1.335 1.552s-.93 1.33-1.178 1.784a14 14 0 0 0-.777 1.77l-.326.941v.187A4.2 4.2 0 0 0 0 14.13c.003.607.06 1.08.205 1.612v.195l.27.793c.147.436.435 1.083.641 1.435s.684.964 1.06 1.363.978.923 1.338 1.162c1.074.713 2.162 1.14 3.53 1.385.435.077 1.344.143 2.019.148s1.695-.06 2.268-.145 1.564-.306 2.203-.49 1.62-.536 2.184-.784l1.025-.449.651.195c.74.224 4.108.988 4.155.942.016-.016-.367-.826-.852-1.8l-.883-1.772.783-.942a24 24 0 0 0 1.339-1.775 18 18 0 0 0 1.025-1.834c.263-.551.569-1.336.682-1.744.113-.41.252-1.136.307-1.618a7 7 0 0 0-.006-1.735c-.059-.473-.212-1.165-.341-1.536s-.43-1.018-.666-1.438c-.541-.96-1.692-2.131-2.525-2.571-.335-.177-.637-.323-.676-.323-.038 0 .156.18.434.4.558.441 1.246 1.27 1.586 1.912l.223.415-.223-.298c-.122-.163-.559-.637-.972-1.05-.574-.573-.953-.85-1.596-1.168a7.9 7.9 0 0 0-1.834-.623c-.733-.153-1.367-.21-2.43-.213zm-.05 1.096c1.086.002 1.555.05 2.16.211a10 10 0 0 1 1.437.52c.47.224.886.536 1.419 1.07.578.578.847.948 1.165 1.595.228.463.48 1.155.56 1.537s.145 1.035.146 1.453c.003 1.314-.363 2.794-1.04 4.198-.185.381-.526.984-.76 1.338s-.772 1.005-1.196 1.447-.768.832-.768.864.357.604.793 1.27.793 1.25.793 1.296c0 .044-.023.08-.052.08s-.693-.245-1.472-.545-1.531-.546-1.67-.546-.49.107-.784.236c-.967.427-2.771.96-3.742 1.106-.526.08-1.311.14-1.748.133-1.574-.023-2.758-.295-4.114-.948-.794-.382-1.075-.587-1.794-1.307-.65-.652-.94-1.032-1.214-1.599a9 9 0 0 1-.511-1.335c-.213-.838-.193-2.233.046-3.185.108-.431.422-1.24.697-1.797s.764-1.364 1.088-1.794.99-1.163 1.48-1.63A13.8 13.8 0 0 1 9.026 4.26c.974-.486 2.268-.926 3.451-1.174.76-.16 1.355-.212 2.398-.21M10.703 5.28l.041 1.899c.035 1.633.02 1.891-.103 1.843-.08-.03-.805-.485-1.61-1.011s-1.48-.943-1.495-.927C7.454 7.17 6.2 9.303 6.2 9.357c0 .034.736.48 1.635.991s1.636.951 1.636.978-.736.468-1.636.978-1.635.957-1.635.992c0 .053 1.255 2.187 1.337 2.274.016.017.753-.42 1.638-.97l1.61-1-.041 1.887-.04 1.887h2.762l-.071-1.894c-.059-1.558-.048-1.88.06-1.814.072.044.732.453 1.466.91s1.412.872 1.506.923c.145.077.279-.087.869-1.071.49-.82.661-1.184.575-1.233l-1.695-.959-1.574-.89.236-.147c.13-.082.882-.516 1.672-.966s1.448-.824 1.46-.833c.011-.01-.293-.54-.676-1.178-.455-.759-.738-1.138-.815-1.093-.064.039-.496.314-.96.612l-1.518.976-.675.435.07-1.937.07-1.936h-1.381zM2.58 9.244h.003a.05.05 0 0 1 0 .1.05.05 0 0 1-.05-.05.05.05 0 0 1 .047-.05z"/></svg>