<svg xmlns="http://www.w3.org/2000/svg" viewBox="0 0 24 24"><path d="M7.046 13.427v6.395h5.709a5.4 5.4 0 0 0 2.377-.422q1.532-.806 1.532-2.999a2.59 2.59 0 0 0-1.492-2.571 5.8 5.8 0 0 0-2.347-.403zm0-9.26v5.287h5.714a4.7 4.7 0 0 0 2.486-.592q.955-.597.955-2.109 0-1.676-1.263-2.213a8.6 8.6 0 0 0-2.78-.368zm12.761-1.611a6.2 6.2 0 0 1 1.079 3.66 5.43 5.43 0 0 1-1.089 3.531 5.6 5.6 0 0 1-1.791 1.388 5.23 5.23 0 0 1 2.716 2.113 6.47 6.47 0 0 1 .915 3.481 7.07 7.07 0 0 1-1.05 3.854 6.47 6.47 0 0 1-4.316 3.093c-1.093.222-2.207.33-3.322.324H2.361V0H13.72q4.296.07 6.087 2.556"/></svg>