<svg xmlns="http://www.w3.org/2000/svg" viewBox="0 0 24 24"><path d="M22.333 19.849a5.44 5.44 0 0 0-6.5-.829 7.9 7.9 0 0 1-3.837.987A8 8 0 0 1 5 15.91a5.47 5.47 0 0 1-.037 5.359 11.6 11.6 0 0 0 12.671.9 1.825 1.825 0 0 1 2.188.3L21.356 24l2.562-2.568Zm-2.096.404a11.664 11.664 0 0 0 1.931-13.89 1.836 1.836 0 0 1 .3-2.193L24 2.635 21.438.067l-1.58 1.589a5.47 5.47 0 0 0-.827 6.516A8 8 0 0 1 15.916 19l2.086 3c.917-.51 1.471-.981 2.235-1.747m-.005-16.481A11.6 11.6 0 0 0 6.373 1.836a1.8 1.8 0 0 1-.9.235 1.82 1.82 0 0 1-1.291-.536L2.654 0 .091 2.568l1.586 1.583A5.42 5.42 0 0 0 5.476 5.7a5.4 5.4 0 0 0 2.7-.718A7.96 7.96 0 0 1 18.985 8.1l3.083-1.94a10.5 10.5 0 0 0-1.836-2.388M5 15.909l-.034-.062A8 8 0 0 1 8.084 5.015l-2.023-3.03C5.144 2.5 4.527 3 3.763 3.766a11.664 11.664 0 0 0-1.931 13.89 1.836 1.836 0 0 1-.3 2.193L0 21.384l2.562 2.568 1.579-1.589a5.5 5.5 0 0 0 .824-1.094A5.47 5.47 0 0 0 5 15.909"/></svg>