<svg xmlns="http://www.w3.org/2000/svg" viewBox="0 0 24 24"><path d="M21.429 17.055a7.1 7.1 0 0 1-.794 3.246 6.9 6.9 0 0 1-2.181 2.492 6.7 6.7 0 0 1-3.063 1.163 6.65 6.65 0 0 1-3.239-.434 6.8 6.8 0 0 1-2.668-1.932 7 7 0 0 1-1.481-2.983 7.1 7.1 0 0 1 .049-3.345 7 7 0 0 1 1.566-2.937l-4.626 4.73-2.421-2.479 5.201-5.265a3.8 3.8 0 0 0 1.066-2.675V0h3.41v6.613a7.2 7.2 0 0 1-.519 2.794 7 7 0 0 1-1.559 2.353l-.153.156a6.77 6.77 0 0 1 3.49-1.725 6.7 6.7 0 0 1 3.845.5 6.87 6.87 0 0 1 2.959 2.564 7.1 7.1 0 0 1 1.118 3.8m-3.089 0a3.9 3.9 0 0 0-.611-2.133 3.75 3.75 0 0 0-1.666-1.424 3.65 3.65 0 0 0-2.158-.233 3.7 3.7 0 0 0-1.92 1.037 3.85 3.85 0 0 0-1.031 1.955 3.9 3.9 0 0 0 .205 2.213c.282.7.76 1.299 1.374 1.721a3.67 3.67 0 0 0 2.076.647 3.64 3.64 0 0 0 2.635-1.096c.347-.351.622-.77.81-1.231s.285-.956.286-1.456"/></svg>