<svg xmlns="http://www.w3.org/2000/svg" viewBox="0 0 24 24"><path d="M6.501 10.727q.89 0 1.307.587.418.59.418 1.391v.312H5.674a.97.97 0 0 0 .343.596q.274.223.718.223.258 0 .464-.066.245-.082.48-.192l.297.733a1.7 1.7 0 0 1-.644.296q-.379.094-.62.093-.983 0-1.55-.537-.565-.54-.565-1.441 0-.904.51-1.45.512-.546 1.394-.545m8.835 0q.889 0 1.307.587.417.59.417 1.391v.312h-2.552c.038.235.16.447.344.596q.273.223.718.223.257 0 .464-.066a5 5 0 0 0 .48-.192l.297.733a1.7 1.7 0 0 1-.644.296 2.7 2.7 0 0 1-.62.093q-.984 0-1.55-.537-.566-.54-.566-1.441 0-.904.512-1.45.51-.546 1.393-.545m3.875.041c.974 0 1.603.502 1.603 1.26v2.579h-1.027v-.561h-.02c-.215.385-.616.62-1.111.62-.756 0-1.265-.473-1.265-1.136v-.008c0-.683.53-1.083 1.465-1.144l.931-.055v-.231c0-.335-.217-.541-.618-.541-.383 0-.615.18-.664.421l-.007.03h-.939l.004-.04c.056-.696.653-1.194 1.648-1.194m4.789 2.8v1.039h-1.04v-1.039zM1.982 9.308q.773 0 1.257.34.483.339.484 1.14 0 .297-.137.534-.136.24-.355.41.36.188.59.506.23.32.23.81 0 .733-.512 1.146-.51.413-1.362.413H0V9.308zm8.702 0q.867 0 1.483.398.617.397.617 1.231 0 .49-.254.846a1.7 1.7 0 0 1-.652.549l1.304 2.275h-1.077l-1.124-2.025a4 4 0 0 1-.367.015h-.585v2.01H9.022V9.308zM22.448 9.3v5.307h-1.076V9.3zm-2.66 3.661-.777.049c-.397.025-.605.192-.605.46v.007c0 .277.229.442.584.442.46 0 .797-.294.797-.688zM2.17 12.285H1.007v1.489h1.092q.406 0 .652-.188a.62.62 0 0 0 .246-.53q0-.374-.226-.572-.227-.199-.601-.199m4.308-.694a.75.75 0 0 0-.523.19q-.21.193-.273.558h1.584q-.078-.38-.281-.564a.73.73 0 0 0-.507-.184m8.834 0a.75.75 0 0 0-.523.19q-.21.193-.273.558h1.585q-.079-.38-.281-.564a.73.73 0 0 0-.508-.184m-4.659-1.441h-.624v1.62h.64q.452 0 .749-.182.297-.184.296-.604 0-.446-.28-.639-.282-.195-.781-.195m-8.819 0h-.827v1.316h.749q.42 0 .66-.16.237-.158.238-.501 0-.375-.219-.515t-.601-.14"/></svg>