<svg xmlns="http://www.w3.org/2000/svg" viewBox="0 0 24 24"><path d="M11.543 12.989a3.35 3.35 0 0 0-.871-1.375 2.25 2.25 0 0 0-1.474-.503 2.28 2.28 0 0 0-1.541.536 2.95 2.95 0 0 0-.973 1.375 5.6 5.6 0 0 0-.335 1.845 5.4 5.4 0 0 0 .335 1.809c.192.548.528 1.034.973 1.407.441.339.985.516 1.541.503a2.08 2.08 0 0 0 1.945-1.072h-.002a4.9 4.9 0 0 0 .67-2.649 6.5 6.5 0 0 0-.268-1.876M20.381.033H3.587A3.584 3.584 0 0 0 0 3.585V20.38a3.59 3.59 0 0 0 3.587 3.586h16.794c1.986 0 3.601-1.6 3.619-3.586V3.585A3.614 3.614 0 0 0 20.381.033M10.64 3.034h1.911v5.744a3.47 3.47 0 0 0-1.911-.584zm-.438 17.93a5.6 5.6 0 0 1-2.278-.369 3.5 3.5 0 0 1-1.174-.804 4 4 0 0 1-.335-.536l-.033-.134v.302C6.281 21.266 3.4 20.931 3.4 20.931V3.034h3.15v7.442h.034a3.7 3.7 0 0 1 1.541-1.309 4.8 4.8 0 0 1 2.079-.435 4.2 4.2 0 0 1 2.649.871 5.26 5.26 0 0 1 1.675 2.278v-.001c.372.951.565 1.963.569 2.984a8.4 8.4 0 0 1-.571 2.984 5.47 5.47 0 0 1-1.675 2.278 4.16 4.16 0 0 1-2.649.838m9.828-3.111a5.47 5.47 0 0 1-1.675 2.278 4.17 4.17 0 0 1-2.649.838 5.6 5.6 0 0 1-2.278-.37 5 5 0 0 1-.362-.186c.444-.36.837-.778 1.168-1.245.353.127.726.189 1.101.185 2.38 0 3.15-2.502 3.15-4.484 0-1.96-.721-4.523-3.15-4.523a3 3 0 0 0-1.021.163 6.4 6.4 0 0 0-1.017-1.166q.161-.094.331-.176a4.72 4.72 0 0 1 6.403 2.715l-.001.004c.373.951.566 1.963.571 2.984a8.4 8.4 0 0 1-.571 2.983"/></svg>