<svg xmlns="http://www.w3.org/2000/svg" viewBox="0 0 24 24"><path d="M12 .001C5.374.001.001 5.371 0 11.998a12 12 0 0 0 1.7 6.16.13.13 0 0 0 .113.038c.03 0 .048-.07.048-.11a1 1 0 0 0-.033-.13 22 22 0 0 1-.423-2.294 9.8 9.8 0 0 1 .428-3.866c1.101-3.396 3.333-5.7 6.664-6.938a10.3 10.3 0 0 1 3.398-.595.78.78 0 0 1 .856.763c0 .45-.343.737-.85.766a13 13 0 0 0-1.607.165 8.7 8.7 0 0 0-4.864 2.64c-2.083 2.22-2.88 4.86-2.4 7.857a8.7 8.7 0 0 0 2.445 4.785 8.94 8.94 0 0 0 6.37 2.76H12a11.95 11.95 0 0 0 5.613-1.392H12.02a8.4 8.4 0 0 1-1.408-.13 7.71 7.71 0 0 1-6.24-8.824 7.72 7.72 0 0 1 7.034-6.479 7.6 7.6 0 0 1 2.16.137.75.75 0 0 1 .617.876.785.785 0 0 1-.96.602 6 6 0 0 0-.802-.115 6.3 6.3 0 0 0-2.899.504 6.2 6.2 0 0 0-3.705 6.383 6.22 6.22 0 0 0 6.163 5.52h6.99c.68 0 .84.014 1.138-.24q.574-.53 1.077-1.126h-9.33A4.35 4.35 0 0 1 9.78 19.2a4.847 4.847 0 1 1 4.619-8.514.75.75 0 0 1 .317 1.044.766.766 0 0 1-1.066.271 3.333 3.333 0 0 0-4.547 1.243 3.33 3.33 0 0 0-.396 2.179 3.29 3.29 0 0 0 3.275 2.803c3.36.034 6.72 0 10.08 0a.42.42 0 0 0 .28-.144c3.358-5.713 1.45-13.066-4.263-16.425A12 12 0 0 0 12 .001"/></svg>