<svg xmlns="http://www.w3.org/2000/svg" viewBox="0 0 24 24"><path d="M21.722.296A.96.96 0 0 0 21.018 0H2.982a.96.96 0 0 0-.703.296.96.96 0 0 0-.297.702v12q0 1.342.523 2.665.524 1.319 1.3 2.345.775 1.021 1.848 1.993a22 22 0 0 0 1.98 1.609q.907.64 1.893 1.212.986.571 1.4.772c.276.134.5.241.664.311a.92.92 0 0 0 .814 0q.251-.11.667-.311c.275-.134.743-.394 1.401-.772a25 25 0 0 0 1.894-1.212A22 22 0 0 0 18.348 20q1.073-.97 1.847-1.993c.774-1.023.949-1.463 1.3-2.345q.524-1.318.524-2.665V1.001a.95.95 0 0 0-.297-.705m-2.325 12.815c0 4.344-7.397 8.087-7.397 8.087V2.57h7.397v10.54z"/></svg>