<svg xmlns="http://www.w3.org/2000/svg" viewBox="0 0 24 24"><path d="M12 0C5.373 0 0 5.373 0 12s5.373 12 12 12 12-5.373 12-12S18.627 0 12 0m0 .78C18.196.78 23.219 5.803 23.219 12c0 6.196-5.022 11.219-11.219 11.219S.781 18.196.781 12 5.804.78 12 .78m-.678.63q-.494.022-.992.078l-.107 2.944a10 10 0 0 1 .71-.094l.07-1.988-.013-.137.043.13.664 1.489h.606l.664-1.488.04-.131-.01.137.07 1.988c.232.022.473.054.71.094l-.109-2.944a15 15 0 0 0-.992-.078l-.653 1.625-.023.12-.023-.12zm6.696 1.824-1.543 2.428c.195.15.452.371.617.522l1.453-.754.092-.069-.069.094-.752 1.453c.163.175.398.458.53.63l2.43-1.544a16 16 0 0 0-.46-.568L18.777 6.44l-.105.092.078-.115.68-1.356-.48-.48-1.356.68-.115.078.091-.106 1.018-1.539c-.18-.152-.351-.291-.57-.46M5.5 3.785c-.36.037-.638.283-1.393 1.125a19 19 0 0 0-.757.914l2.074 1.967c.687-.76.966-1.042 1.508-1.613.383-.405.6-.87.216-1.317-.208-.242-.558-.295-.85-.175l-.028.01.01-.026a.7.7 0 0 0-.243-.734.72.72 0 0 0-.537-.15zm.006.615c.136-.037.277.06.308.2.032.14-.056.272-.154.382-.22.25-1.031 1.098-1.031 1.098l-.402-.383c.417-.51.861-.974 1.062-1.158a.55.55 0 0 1 .217-.139M12 4.883a7.114 7.114 0 0 0-7.08 6.388v.002a7.122 7.122 0 0 0 8.516 7.697 7.11 7.11 0 0 0 5.68-6.97A7.12 7.12 0 0 0 12 4.885zm-5.537.242q.072-.001.14.043c.088.059.128.16.106.26-.026.119-.125.231-.205.318l-1.045 1.12-.42-.4s.787-.832 1.045-1.099c.102-.106.168-.17.238-.205a.3.3 0 0 1 .14-.037zM12 5.818A6.175 6.175 0 0 1 18.182 12H12v6.182A6.175 6.175 0 0 1 5.818 12H12z"/></svg>