<svg xmlns="http://www.w3.org/2000/svg" viewBox="0 0 24 24"><path d="M6.904 17.287a6.05 6.05 0 0 1-3.76-1.301C4.35 13.27 6.8 9.628 10.144 6.069a6.07 6.07 0 0 1 2.262 7.73c-1.06-.49-2.05-1.107-2.888-1.88l1.83 3.437a6.06 6.06 0 0 1-4.443 1.93M.83 11.212a6.075 6.075 0 0 1 6.076-6.077c.9 0 1.753.196 2.523.546-3.293 2.91-5.843 6.293-7.353 9.218a6.05 6.05 0 0 1-1.246-3.687m12.34 2.912a6.9 6.9 0 0 0 .642-2.912c0-2.4-1.224-4.515-3.084-5.754a50 50 0 0 1 3.582-3.341A31 31 0 0 0 10.11 5.09a6.907 6.907 0 0 0-8.437 10.627C.35 18.579.12 20.878 1.285 21.654c1.249.832 3.963-.677 5.59-3.134 0 0-2.517 2.273-3.901 1.751-.852-.322-.855-1.625-.152-3.492a6.87 6.87 0 0 0 4.083 1.338 6.88 6.88 0 0 0 4.854-1.992l.245.462c3.01-.245 11.996-.483 11.996-.483 0-.431-5.95-.04-10.833-1.98"/></svg>