<svg xmlns="http://www.w3.org/2000/svg" viewBox="0 0 24 24"><path d="M1.418 24v-1.184q1.215-.03 1.948-.187.732-.156 1.122-.53t.53-1.06q.14-.686.14-1.777V4.738q0-1.092-.11-1.762-.108-.67-.435-1.06-.328-.39-.95-.53-.624-.14-1.622-.202V0h9.32q4.207 0 6.546 1.496 2.337 1.497 2.337 4.207 0 2.058-1.293 3.367-1.294 1.31-4.1 2.151v.124q.967.095 1.685.219.716.125 1.277.295.561.172 1.045.421.482.25.95.561 2.775 1.965 2.774 4.925a5.53 5.53 0 0 1-.92 3.07q-.919 1.42-2.571 2.23a6.3 6.3 0 0 1-1.091.452q-.56.17-1.31.28-.748.109-1.728.156-.983.046-2.323.046zm11.315-1.34q5.641 0 5.642-4.831 0-3.522-2.9-4.925a12 12 0 0 0-.966-.374 5.7 5.7 0 0 0-1.09-.233 17 17 0 0 0-1.482-.11q-.857-.03-2.103-.031H8.43v6.951q0 1.902.997 2.727.997.826 3.305.826m-2.556-12.063q.966 0 1.62-.03a10 10 0 0 0 1.122-.11q.468-.078.827-.218t.732-.39q.997-.623 1.418-1.496t.421-2.275q0-2.462-1.2-3.538T11.36 1.464h-2.4q-.53 0-.53.53v8.603z"/></svg>