<svg xmlns="http://www.w3.org/2000/svg" viewBox="0 0 24 24"><path d="M23.226 5.842q0 2.236-1.589 3.869-1.588 1.605-4.633 2.315 1.641.448 2.489 1.474.847 1 .847 2.316 0 2.08-1.324 3.605-1.298 1.527-3.812 2.368-2.515.816-6.063.816-1.324 0-2.118-.079-.027.737-.636 1.106-.61.368-1.562.368c-.952 0-1.077-.14-1.324-.421q-.344-.42-.291-1.237.238-3.684.927-7.71a76 76 0 0 1 1.747-7.816q.185-.659.741-.921.556-.264 1.457-.263 1.614 0 1.615.894 0 .37-.16.842-.687 2.053-1.376 5.58a66 66 0 0 0-.98 6.684q1.271.105 2.066.105 3.706 0 5.427-1.053 1.747-1.079 1.747-2.737 0-1.157-1.006-1.947-.98-.79-3.31-.868-.529-.027-.74-.264-.212-.236-.212-.763 0-.762.317-1.237.318-.473 1.165-.5 1.88-.053 3.39-.552 1.535-.5 2.409-1.395.873-.921.873-2.132 0-1.525-1.509-2.394Q16.289 3 13.165 3q-2.834 0-5.48.737-2.649.71-4.501 1.816-.848.5-1.43.5-.477 0-.742-.316-.237-.342-.238-.842 0-.658.265-1.132.291-.473 1.35-1.079Q4.613 1.421 7.605.711A26.4 26.4 0 0 1 13.721 0q4.792 0 7.148 1.605 2.357 1.605 2.357 4.237"/></svg>