<svg xmlns="http://www.w3.org/2000/svg" viewBox="0 0 24 24"><path d="M0 23.291h19.601v-2.978H2.98V3.689h16.626V14.6h-1.422l2.908 2.909L24 14.599h-1.417V.709H0zm16.148-9.935a3.028 3.028 0 0 0-1.653-1.58 4 4 0 0 0-.916-.254 1.7 1.7 0 0 0 .735-.296q.36-.242.647-.609.288-.37.458-.863.172-.495.171-1.069 0-.971-.377-1.617a2.86 2.86 0 0 0-1.033-1.033 4.6 4.6 0 0 0-1.536-.547 10.3 10.3 0 0 0-1.868-.162q-1.13 0-1.887.054-.753.054-1.329.145v12.933q1.024.125 1.834.171.807.044 1.634.044a12.6 12.6 0 0 0 2.057-.162 5 5 0 0 0 1.723-.592q.747-.432 1.187-1.177t.441-1.914q0-.862-.288-1.472m-5.983-6.035c.91-.111 1.873-.054 2.301.304.38.317.607.599.607 1.42 0 .751-.357 1.195-.608 1.356s-.59.368-1.403.368h-.897zm3.029 8.68c-.449.39-1.114.552-1.816.552-.79 0-1.213-.072-1.213-.072v-3.737h1.132c.711 0 1.438.126 1.832.464.509.437.611.895.611 1.505.001.609-.212.998-.546 1.288"/></svg>