<svg xmlns="http://www.w3.org/2000/svg" viewBox="0 0 24 24"><path d="M2 0a2 2 0 0 0-2 2v20a2 2 0 0 0 2 2h20a2 2 0 0 0 2-2V2a2 2 0 0 0-2-2Zm2 6h2.5v5.22q.885-.95 2.21-.95a3.37 3.37 0 0 1 2.565 1.13c.178.199.327.422.46.66V6h2.505v5.22c.59-.634 1.324-.95 2.21-.95a3.37 3.37 0 0 1 2.566 1.13q.464.516.724 1.22c.175.47.26.965.26 1.495q0 .809-.27 1.52a3.7 3.7 0 0 1-.755 1.234q-.48.524-1.14.83-.65.3-1.415.301-1.381 0-2.186-1.035v.81h-2.5v-1.601a3.6 3.6 0 0 1-1.638 1.525q-.652.3-1.41.301-1.382 0-2.186-1.035v.81H4Zm4.035 6.484a1.57 1.57 0 0 0-1.125.487 1.73 1.73 0 0 0-.474 1.174 1.62 1.62 0 0 0 .468 1.16c.145.145.322.265.522.355q.3.135.629.135a1.57 1.57 0 0 0 1.125-.484q.218-.226.345-.526c.08-.205.125-.41.125-.63a1.68 1.68 0 0 0-.47-1.175q-.225-.225-.51-.36a1.5 1.5 0 0 0-.635-.136m7.74 0a1.57 1.57 0 0 0-1.125.487 1.73 1.73 0 0 0-.474 1.174 1.62 1.62 0 0 0 .469 1.16q.219.219.52.355.3.135.63.135a1.57 1.57 0 0 0 1.125-.484q.217-.226.346-.526c.08-.205.125-.41.125-.63a1.68 1.68 0 0 0-.471-1.175q-.225-.225-.51-.36a1.5 1.5 0 0 0-.635-.136"/></svg>