<svg xmlns="http://www.w3.org/2000/svg" viewBox="0 0 24 24"><path d="M0 2.978h18.593c.021.004.042.012.063.013q.654.027 1.279.218c1.459.451 2.507 1.367 3.117 2.772.454 1.046.5 2.259.316 3.156a4.63 4.63 0 0 1-1.37 2.482q-.02.022-.04.045c.021.026.052.04.077.061a4.77 4.77 0 0 1 1.951 3.564c.001.021.01.042.014.063v.79q-.01.04-.014.08c-.004.046-.002.093-.007.14a5.5 5.5 0 0 1-.21 1.047c-.398 1.278-1.167 2.262-2.336 2.924-.836.474-1.744.686-2.7.687-6.24.004-12.48.002-18.72.002v-4.74h2.988l.001 1.738c.134.016 7.226.01 7.286-.006v-4.668h-3.06v1.425c-.102.019-2.928.014-2.986-.004V8.912h2.986v1.424c.103.019 3.003.014 3.06-.003V5.976H3V7.51H.008Zm13.753 15.05h4.744c.254 0 .505-.023.75-.09.77-.21 1.3-.683 1.546-1.447a2.6 2.6 0 0 0-.007-1.636 2.07 2.07 0 0 0-1.12-1.274 2.55 2.55 0 0 0-1.092-.239h-4.82zm.003-12.058v4.377h4.397a2.5 2.5 0 0 0 .723-.103c.678-.203 1.147-.63 1.376-1.304.145-.428.163-.868.068-1.308-.161-.742-.598-1.251-1.313-1.515a2.7 2.7 0 0 0-.947-.147Z"/></svg>