<svg xmlns="http://www.w3.org/2000/svg" viewBox="0 0 24 24"><path d="M21.34 10.876a1.7 1.7 0 0 0-.419-.781 1.6 1.6 0 0 0-.76-.397 5.2 5.2 0 0 0-1.142-.113c-.107 0-.223.005-.36.014a6 6 0 0 0-.406.04l-.4.054c-.13.018-.25.032-.352.04q-.107-.002-.134-.063V6.94a.12.12 0 0 0-.033-.103.12.12 0 0 0-.103-.035h-1.008a.1.1 0 0 0-.05.009.12.12 0 0 0-.08.13v.044c0 .027-.003.054-.003.09l.004.109v9.72a.12.12 0 0 0 .033.103.12.12 0 0 0 .1.037h1q.135 0 .135-.14v-6.08a.17.17 0 0 1 .12-.1 5.5 5.5 0 0 1 1.217-.112 3.2 3.2 0 0 1 .768.077.9.9 0 0 1 .46.266 1.1 1.1 0 0 1 .223.515 3 3 0 0 1 .058.677V16.9q.002.141.129.14h.995c.09 0 .13-.045.13-.14v-4.764a4.8 4.8 0 0 0-.12-1.26ZM1.389 15.324H.134Q0 15.323 0 15.45v1.267q0 .126.134.125h1.254q.134.001.134-.125V15.45a.118.118 0 0 0-.134-.125m22.478-8.523h-1q-.134-.001-.134.14v9.965a.12.12 0 0 0 .033.103.12.12 0 0 0 .101.037h1q.134.001.134-.14V6.941q0-.141-.134-.14m-9.169 3.045h-.995c-.089 0-.129.045-.129.134v5.915q-.002.107-.129.147a4 4 0 0 1-.504.08 6 6 0 0 1-.585.027 3.7 3.7 0 0 1-.812-.076.93.93 0 0 1-.754-.772 3.6 3.6 0 0 1-.071-.793v-4.53a.117.117 0 0 0-.13-.133h-.995c-.089 0-.129.044-.129.133v4.668a5 5 0 0 0 .13 1.236 1.58 1.58 0 0 0 .459.781 1.9 1.9 0 0 0 .892.415 7 7 0 0 0 1.428.12q.236-.001.531-.023c.295-.022.4-.035.611-.062q.317-.04.625-.094.309-.053.571-.107c.09-.018.13-.062.13-.134v-6.8a.13.13 0 0 0-.144-.133Zm-7.023.56a1.97 1.97 0 0 0-.923-.606 4.7 4.7 0 0 0-1.41-.185 5 5 0 0 0-.736.054 4 4 0 0 1-.473.054q-.107 0-.107-.095V6.937a.12.12 0 0 0-.032-.1.12.12 0 0 0-.098-.034h-1c-.089 0-.129.043-.129.179v9.837c0 .018.04.063.116.09a9 9 0 0 0 .987.208 8.4 8.4 0 0 0 1.222.08 4.6 4.6 0 0 0 1.6-.24 2.1 2.1 0 0 0 .99-.75 3.15 3.15 0 0 0 .505-1.28 10 10 0 0 0 .143-1.829 7 7 0 0 0-.152-1.604 2.55 2.55 0 0 0-.503-1.089m-.72 4.26a2.2 2.2 0 0 1-.263.912 1.1 1.1 0 0 1-.588.483 3.2 3.2 0 0 1-1.031.135q-.222-.001-.513-.022a1.8 1.8 0 0 1-.446-.077.135.135 0 0 1-.094-.149v-4.995a.185.185 0 0 1 .107-.194 4 4 0 0 1 .42-.08 4 4 0 0 1 .615-.04 3.2 3.2 0 0 1 .897.108 1.04 1.04 0 0 1 .571.406 2 2 0 0 1 .297.81 7.7 7.7 0 0 1 .085 1.283 13 13 0 0 1-.054 1.418zM1.388 9.755H.133Q0 9.755 0 9.881v1.267q0 .126.134.125h1.254q.134.001.134-.125V9.881a.118.118 0 0 0-.134-.125"/></svg>