<svg xmlns="http://www.w3.org/2000/svg" viewBox="0 0 24 24"><path d="M12 22.596c6.628 0 12-4.338 12-9.688 0-3.318-2.057-6.248-5.219-7.986-1.286-.715-2.297-1.357-3.139-1.89C14.058 2.025 13.08 1.404 12 1.404c-1.097 0-2.334.785-3.966 1.821a50 50 0 0 1-2.816 1.697C2.057 6.66 0 9.59 0 12.908c0 5.35 5.372 9.687 12 9.687zM10.599 4.715c.334-.759.503-1.58.498-2.409 0-.145.202-.187.23-.029.658 2.783-.902 4.162-2.057 4.624-.124.048-.199-.121-.103-.209a5.8 5.8 0 0 0 1.432-1.977m2.058-.102a5.8 5.8 0 0 0-.782-2.306v-.016c-.069-.123.086-.263.185-.172 1.962 2.111 1.307 4.067.556 5.051-.082.103-.23-.003-.189-.126a5.85 5.85 0 0 0 .23-2.431m1.776-.561a5.7 5.7 0 0 0-1.612-1.806v-.014c-.112-.085-.024-.274.114-.218 2.595 1.087 2.774 3.18 2.459 4.407a.12.12 0 0 1-.049.071.11.11 0 0 1-.153-.026.12.12 0 0 1-.022-.083 5.9 5.9 0 0 0-.737-2.331m-5.087.561c-.617.546-1.282.76-2.063 1-.117 0-.195-.078-.156-.181 1.752-.909 2.376-1.649 2.999-2.778 0 0 .155-.118.188.085 0 .304-.349 1.329-.968 1.874m4.945 11.237a2.96 2.96 0 0 1-.937 1.553c-.346.346-.8.565-1.286.62a2.18 2.18 0 0 1-1.327-.62 2.96 2.96 0 0 1-.925-1.553.24.24 0 0 1 .064-.198.23.23 0 0 1 .193-.069h3.965a.23.23 0 0 1 .19.07c.05.053.073.125.063.197m-5.458-2.176a1.86 1.86 0 0 1-2.384-.245 1.98 1.98 0 0 1-.233-2.447c.207-.319.503-.566.848-.713a1.84 1.84 0 0 1 1.092-.11c.366.075.703.261.967.531a1.98 1.98 0 0 1 .408 2.114 1.93 1.93 0 0 1-.698.869zm8.495.005a1.86 1.86 0 0 1-2.381-.253 1.96 1.96 0 0 1-.547-1.366c0-.384.11-.76.32-1.079.207-.319.503-.567.849-.713a1.84 1.84 0 0 1 1.093-.108c.367.076.704.262.968.534a1.98 1.98 0 0 1 .4 2.117 1.93 1.93 0 0 1-.702.868"/></svg>