<svg xmlns="http://www.w3.org/2000/svg" viewBox="0 0 24 24"><path d="M11.985 1.543a.25.25 0 0 0-.21.116l-.974 1.51a.62.62 0 0 1-.353.261l-.575.164a.75.75 0 0 0-.452.362L6.955 8.474a.74.74 0 0 1-.48.369c-.154.036-.388.087-.621.132a.55.55 0 0 0-.402.323L4.297 11.98a1 1 0 0 1-.51.516l-.424.191a1 1 0 0 0-.542.601s-.648 1.666-1.147 3.167C1.22 17.812.04 21.9.04 21.9a.43.43 0 0 0 .09.492.32.32 0 0 0 .467-.107s1.576-3.373 2.151-4.473a.31.31 0 0 1 .462-.093c.253.165.378.607.663.864a.258.258 0 0 0 .421-.103c.206-.504.69-2.074.851-2.724.136-.54.596-.59.858-.193l.19.234a2.25 2.25 0 0 0 .713.592l.35.185a.5.5 0 0 1 .228.245l.383.897a.75.75 0 0 0 .66.455l.12.005a.75.75 0 0 1 .633.398c.176.331.461.932.704 1.326a.26.26 0 0 0 .473-.06 15.4 15.4 0 0 0 .6-2.06c.14-.717.579-.625.73-.431.055.07.245.357.296.416a.252.252 0 0 0 .459-.097 12.3 12.3 0 0 0 .403-1.905c.039-.29.358-.328.51-.079.164.266.43.741.574 1.023a2.6 2.6 0 0 1 .236.617l.211.951a2.18 2.18 0 0 0 .666 1.128 3.4 3.4 0 0 0 .477.422.268.268 0 0 0 .41-.106c.11-.255.25-.687.334-.935a.25.25 0 0 1 .193-.168c.107-.02.18-.03.333-.07a.84.84 0 0 0 .564-.493l.207-.5a.257.257 0 0 1 .466-.011c.075.135.209.417.272.572a2 2 0 0 1 .089.246l.164.636a2.3 2.3 0 0 0 .29.66l.075.116a2.13 2.13 0 0 0 .785.722.25.25 0 0 0 .35-.122c.234-.546.325-1.36.432-1.884a.285.285 0 0 1 .517-.092 456 456 0 0 1 2.326 3.92.312.312 0 0 0 .541-.309c-.043-.099-1.506-3.787-2.912-7.053-1.285-2.985-2.525-5.575-2.525-5.575a.46.46 0 0 0-.557-.247c-.376.112-.786.357-1.07.456a.54.54 0 0 1-.647-.253c-.347-.636-1.112-2.298-1.815-3.614-.761-1.424-1.726-3.32-2.243-4.069a.25.25 0 0 0-.214-.11"/></svg>