<svg xmlns="http://www.w3.org/2000/svg" viewBox="0 0 24 24"><path d="M2.327.016A2.325 2.325 0 0 0 0 2.34v19.32a2.325 2.325 0 0 0 2.327 2.323h19.346A2.325 2.325 0 0 0 24 21.66V2.34A2.325 2.325 0 0 0 21.673.016zm10.054 3.496h.07a4.32 4.32 0 0 1 3.267 1.462 4.45 4.45 0 0 1 .961 2.365 4.16 4.16 0 0 1-.456 2.27 5.02 5.02 0 0 1 2.424 2.008 5.24 5.24 0 0 1 .73 3.374 4.7 4.7 0 0 1-1.15 2.466 4.84 4.84 0 0 1-2.26 1.535l-4.987 1.439a1.5 1.5 0 0 1-.41.058 1.5 1.5 0 0 1-1.432-1.075L5.524 6.909a1.487 1.487 0 0 1 1.018-1.841l4.956-1.429a3.4 3.4 0 0 1 .883-.127m.248.861a3 3 0 0 0-.855.122L6.94 5.888a.744.744 0 0 0-.51.922l3.53 12.206a.745.745 0 0 0 .921.509l4.664-1.345a4.085 4.085 0 0 0-.896-8.003 3.3 3.3 0 0 0 1.138-2.272 3.48 3.48 0 0 0-.928-2.549 2.99 2.99 0 0 0-2.23-.983"/></svg>