<svg xmlns="http://www.w3.org/2000/svg" viewBox="0 0 24 24"><path d="M19.655 14.262q.421.001.828.064c0 .005-.005.01-.005.014a6 6 0 0 1-.381.786l-1.219 2.106a6.24 6.24 0 0 1-5.411 3.127h-2.432a6.25 6.25 0 0 1-5.412-3.127l-1.218-2.106a6.25 6.25 0 0 1 0-6.252l1.218-2.106a6.24 6.24 0 0 1 5.412-3.127h2.432a6.25 6.25 0 0 1 5.411 3.127l1.219 2.106c.147.252.271.519.381.786 0 .004.005.009.005.014a5.5 5.5 0 0 1-.828.064c-1.816 0-2.501-.607-3.291-1.306-.764-.676-1.711-1.517-3.44-1.517h-1.029c-1.251 0-2.387.455-3.2 1.278-.796.805-1.233 1.904-1.233 3.099v1.411c0 1.196.437 2.295 1.233 3.099.813.823 1.949 1.278 3.2 1.278h1.034c1.729 0 2.676-.841 3.439-1.517.791-.703 1.471-1.306 3.287-1.301m.005-3.237q.6 0 1.179-.11-.003-.007-.002-.014a6.3 6.3 0 0 0-.349-1.218 4.6 4.6 0 0 0 1.986-.819c0-.004-.005-.013-.005-.018a10.6 10.6 0 0 0-1.489-3.03 10.9 10.9 0 0 0-2.331-2.395 10.64 10.64 0 0 0-6.428-2.138c-1.448 0-2.855.28-4.175.841-1.273.543-2.423 1.315-3.407 2.299S2.878 6.552 2.341 7.83a10.7 10.7 0 0 0-.842 4.175c0 1.448.281 2.855.842 4.174.542 1.274 1.314 2.423 2.298 3.407s2.129 1.761 3.407 2.299c1.324.556 2.727.841 4.175.841 2.34 0 4.561-.74 6.428-2.137a10.8 10.8 0 0 0 2.331-2.396 10.8 10.8 0 0 0 1.489-3.03c0-.004.005-.014.005-.018a4.6 4.6 0 0 0-1.986-.819c.161-.395.276-.804.349-1.218.005-.009.005-.014.005-.023a5.85 5.85 0 0 1 2.404 1.035c.685.505.552 1.075.446 1.416C22.184 20.437 17.619 24 12.221 24c-6.625 0-12-5.375-12-12s5.37-12 12-12c5.398 0 9.963 3.563 11.471 8.464.106.341.239.915-.446 1.421a5.8 5.8 0 0 1-2.404 1.034c.128.716.128 1.45 0 2.166a6.3 6.3 0 0 0-1.182-.11c-4.184 0-3.968 2.823-6.736 2.823h-1.029c-1.899 0-3.15-1.357-3.15-3.095v-1.411c0-1.738 1.251-3.094 3.15-3.094h1.034c2.768 0 2.552 2.823 6.731 2.827"/></svg>