<svg xmlns="http://www.w3.org/2000/svg" viewBox="0 0 24 24"><path d="M12 0C5.376 0 0 5.376 0 12s5.376 12 12 12 12-5.375 12-12S18.624 0 12 0m0 .507C18.35.507 23.493 5.65 23.493 12S18.35 23.493 12 23.493.507 18.35.507 12 5.65.507 12 .507m-1.442 1.51q-.077-.006-.07.003c.011.01.309.167.662.349 1.047.539 1.69 1.024 1.658 1.25-.03.21-.095.217-2.12.219-2.014.001-2.201.016-3.047.24-1.095.29-1.708.88-1.902 1.831-.079.387-.079.571-.001 1.017.08.464.215.86.48 1.411.663 1.387 1.845 3.022 3.353 4.642 1.354 1.454 2.114 2.724 2.339 3.912.115.606.066 1.573-.12 2.352-.184.779-.396 1.208-1.032 2.09a5 5 0 0 0-.27.394c0 .012.122-.074.27-.19 1.868-1.458 2.904-2.775 3.264-4.15.084-.32.094-.446.095-1.22 0-.934-.028-1.16-.227-1.824a6.2 6.2 0 0 0-.569-1.324c-.415-.712-1.499-2.221-2.182-3.039-.447-.534-.703-.903-.969-1.39-.656-1.209-.687-2.421-.072-2.836.239-.16.489-.214 1.004-.214.693 0 1.33.156 3.216.783 1.074.357 2.094.58 2.655.58.54 0 .85-.135 1.007-.44.139-.271.114-.691-.062-1.044-.235-.472-.88-1.133-1.515-1.552-.968-.64-2.394-1.256-3.464-1.494-.453-.1-2.03-.332-2.381-.356m1.647 4.312c-.379-.002-.55.06-.755.25-.334.306-.398.597-.254 1.159.19.743.565 1.266 1.845 2.577.388.397.815.857.95 1.023.544.67.938 1.393 1.128 2.072.107.382.11.423.106 1.357-.003.875-.013 1.01-.11 1.486-.155.762-.261 1.057-.748 2.083l-.247.52c-.02.045.018.018.087-.06.22-.25 1.053-1.53 1.287-1.984.416-.802.722-1.782.922-2.951.128-.747.13-1.8.002-2.379-.385-1.755-1.605-3.731-2.893-4.685-.507-.375-.679-.445-1.143-.464zm3.926 1.081a.4.4 0 0 0-.117.036.45.45 0 0 0-.205.183c-.115.222.01.497.576 1.265.384.522.775 1.277.893 1.725.065.247.084.44.084.842 0 .46-.08 1.235-.154 1.494-.048.167.027.092.12-.12.11-.249.508-1.422.61-1.795.1-.368.1-1.124 0-1.524a4.7 4.7 0 0 0-.593-1.288c-.184-.262-.573-.558-.978-.743-.124-.057-.18-.08-.237-.075"/></svg>