<svg xmlns="http://www.w3.org/2000/svg" viewBox="0 0 24 24"><path d="M12.14 4.045c-2.569 0-3.572 3.64-3.572 7.979s1.003 7.931 3.572 7.931c1.541 0 2.855-.903 2.86-1.645a.63.63 0 0 0-.199-.453c-.73-.706-1.016-1.412-1.018-2.034-.005-1.189 1.026-2.074 1.977-2.074 1.306 0 2.077 1.027 2.077 2.357 0 1.26-.537 2.31-1.121 3.15a.2.2 0 0 0-.034.107c0 .065.04.12.098.12q.053.001.122-.065l6.561-6.344c.328-.28.537-.608.537-1.073 0-.468-.21-.794-.537-1.073l-6.561-6.346q-.069-.066-.122-.064c-.059 0-.097.055-.098.12q-.001.054.034.107c.584.84 1.12 1.89 1.12 3.15 0 1.329-.77 2.356-2.076 2.356-.95 0-1.982-.884-1.977-2.073.002-.622.288-1.328 1.018-2.033A.62.62 0 0 0 15 5.69c-.004-.743-1.319-1.646-2.86-1.646m-5.043.537L.537 10.93C.209 11.207 0 11.534 0 12c0 .465.21.793.537 1.073l6.56 6.345c.042.043.083.06.117.06.062 0 .105-.057.103-.123a.2.2 0 0 0-.057-.123C5.72 17.32 4.6 15.126 4.6 12.024c0-3.104 1.12-5.341 2.66-7.255a.19.19 0 0 0 .057-.123c.002-.068-.04-.123-.103-.123-.034 0-.075.017-.117.06"/></svg>