<svg xmlns="http://www.w3.org/2000/svg" viewBox="0 0 24 24"><path d="M12 0c-1.567 0-2.938.84-3.685 2.094l7.368.002A4.28 4.28 0 0 0 12 0m0 2.768a4.29 4.29 0 0 0-4.291 4.287h8.578A4.287 4.287 0 0 0 12 2.768m-4.953.209A4.076 4.076 0 0 0 2.97 7.05h4.076zm9.904.002V7.05l4.072.002a4.073 4.073 0 0 0-4.072-4.075zm-9.904 4.73a4.29 4.29 0 0 0 0 8.578zm9.904 0v8.578a4.29 4.29 0 1 0 0-8.578m-4.955.002a4.288 4.288 0 1 0 .002 8.576 4.288 4.288 0 0 0-.002-8.576m-9.9.603a4.288 4.288 0 0 0-.002 7.371zm19.808 0 .002 7.371a4.29 4.29 0 0 0-.002-7.37M7.047 16.95l-4.074.002a4.07 4.07 0 0 0 4.074 4.07zm9.904 0v4.07a4.07 4.07 0 0 0 4.072-4.068zm-9.242.002a4.29 4.29 0 0 0 8.578 0zm.549 4.953a4.286 4.286 0 0 0 7.371 0z"/></svg>