<svg xmlns="http://www.w3.org/2000/svg" viewBox="0 0 24 24"><path d="M11.959.257A11.9 11.9 0 0 0 3.503 3.76 11.92 11.92 0 0 0 0 12.217a11.9 11.9 0 0 0 1.207 5.243c.72 1.474 1.888 2.944 3.208 4.044.86-.47 1.35-.99 1.453-1.545.1-.533-.134-1.107-.737-1.805a9.03 9.03 0 0 1-2.219-5.937c0-4.988 4.058-9.047 9.047-9.047h.08c4.99 0 9.048 4.059 9.048 9.047a9.03 9.03 0 0 1-2.218 5.936c-.599.693-.84 1.292-.735 1.83.108.556.595 1.068 1.449 1.522 1.322-1.1 2.489-2.57 3.209-4.046A11.9 11.9 0 0 0 24 12.217a11.93 11.93 0 0 0-3.503-8.457A11.92 11.92 0 0 0 12.04.257h-.041zm-.005 4.837a7.07 7.07 0 0 0-3.76 1.075A7.2 7.2 0 0 0 6.15 8.093a7.2 7.2 0 0 0-1.161 2.65 7.2 7.2 0 0 0 .04 3.125 7.1 7.1 0 0 0 1.22 2.607c.154.207.326.396.509.597l.185.202.005.006q.012.01.026.027c.635.738.957 1.533.957 2.36a3.4 3.4 0 0 1-1.788 2.989 12 12 0 0 0 2.685 1.087c.14-.088.614-.441 1.077-1.083a4.9 4.9 0 0 0 .94-2.99 6.6 6.6 0 0 0-.49-2.37 6.7 6.7 0 0 0-1.302-2.033l-.002-.004-.124-.142c-.21-.245-.428-.497-.602-.792a4.1 4.1 0 0 1-.462-1.135 4.26 4.26 0 0 1-.024-1.85 4.25 4.25 0 0 1 .686-1.564 4.22 4.22 0 0 1 3.432-1.773h.085a4.2 4.2 0 0 1 3.432 1.773c.33.466.568 1.007.686 1.565a4.3 4.3 0 0 1-.023 1.849 4.1 4.1 0 0 1-.463 1.135c-.173.295-.391.547-.602.792l-.123.142-.004.004a6.7 6.7 0 0 0-1.301 2.033 6.6 6.6 0 0 0-.49 2.37 4.9 4.9 0 0 0 .94 2.99c.463.642.937.995 1.076 1.083a11.8 11.8 0 0 0 2.687-1.087 3.4 3.4 0 0 1-1.789-2.988c0-.817.313-1.59.956-2.359q.015-.018.027-.03l.006-.004.184-.204c.183-.2.355-.39.51-.596a7.1 7.1 0 0 0 1.22-2.608 7.2 7.2 0 0 0 .04-3.124 7.2 7.2 0 0 0-1.16-2.65 7.2 7.2 0 0 0-2.044-1.924 7.07 7.07 0 0 0-3.762-1.075h-.09zM12 9.97a2.365 2.365 0 0 0-2.362 2.361A2.364 2.364 0 0 0 12 14.691a2.363 2.363 0 0 0 2.36-2.36A2.364 2.364 0 0 0 12 9.968z"/></svg>