<svg xmlns="http://www.w3.org/2000/svg" viewBox="0 0 24 24"><path d="M20.954 7.662c-.021-.05-.172-.196-.172-.196l-.113-.119-1.893-1.974s-.173-.169-.216-.202a.63.63 0 0 0-.357-.108c-.124 0-.316.134-.393.23-.072.092-.132.268-.093.378a1.6 1.6 0 0 0 .155.223l1.37 1.363-3.555.002-.202-.01s-.502.079-.635.124c-.196.067-.415.22-.573.353-.047.04-.217.232-.217.232l-2.28 2.616.72.721 2.218-2.462s.194-.199.237-.234c.145-.117.3-.236.48-.28.06-.014.328-.025.328-.025h3.296l-1.065 1.09s-.158.2-.174.235c-.054.112-.071.312-.016.423.042.083.176.225.27.239.123.017.255.047.363-.017.04-.024.198-.16.198-.16l2.11-2.109s.163-.131.193-.193c.02-.041.035-.099.018-.142zM9.891 12.74l-2.066 2.37s-.242.249-.293.293a1.4 1.4 0 0 1-.454.282c-.053.022-.416.067-.416.067l-2.91.026s-.27.018-.315.027a.67.67 0 0 0-.34.22c-.094.112-.07.37.008.494.069.107.258.183.385.2.042.006.246.016.246.016h3.08s.381-.039.442-.064a2.6 2.6 0 0 0 .728-.43c.087-.07.497-.484.497-.484l2.096-2.328zM3.49 7.28c.042-.006.246-.016.246-.016h3.079s.382.039.443.064c.301.127.48.228.728.43.087.07.497.484.497.484l6.232 6.922s.194.2.238.234c.145.117.299.237.48.28.06.015.328.025.328.025h3.295l-1.065-1.09s-.158-.199-.174-.234c-.054-.112-.07-.312-.015-.423.042-.083.176-.226.269-.239.124-.017.255-.047.364.017.04.024.198.16.198.16l2.11 2.109s.162.131.192.193c.02.04.035.099.018.142-.02.05-.17.197-.17.197l-.114.118-1.893 1.974s-.173.17-.216.202a.63.63 0 0 1-.357.108c-.124 0-.316-.134-.393-.23-.072-.092-.132-.268-.093-.378a1.6 1.6 0 0 1 .155-.223l1.37-1.363-3.555-.002-.202.01s-.502-.079-.635-.124c-.196-.067-.415-.22-.573-.353a5 5 0 0 1-.217-.232l-6.235-7.15s-.242-.248-.293-.293a1.4 1.4 0 0 0-.454-.282c-.053-.022-.416-.066-.416-.066l-2.91-.027s-.27-.018-.315-.026a.67.67 0 0 1-.34-.221c-.095-.111-.07-.37.008-.493.069-.108.258-.184.385-.2zM12 0A12 12 0 0 0 0 12a12 12 0 0 0 12 12 12 12 0 0 0 12-12A12 12 0 0 0 12 0m0 1.295A10.705 10.705 0 0 1 22.705 12 10.705 10.705 0 0 1 12 22.705 10.705 10.705 0 0 1 1.295 12 10.705 10.705 0 0 1 12 1.295"/></svg>