<svg xmlns="http://www.w3.org/2000/svg" viewBox="0 0 24 24"><path d="M20.788 3.832c-.101-.105-.197-.213-.301-.317q-.155-.153-.32-.302A11.9 11.9 0 0 0 12 0a11.93 11.93 0 0 0-8.486 3.514C-1.062 8.09-1.16 15.47 3.213 20.168q.147.162.3.32c.104.103.21.2.317.3A11.92 11.92 0 0 0 12 24c3.206 0 6.22-1.247 8.487-3.512 4.576-4.576 4.673-11.956.301-16.656m-16.655.301A11.06 11.06 0 0 1 12 .874c2.825 0 5.49 1.048 7.55 2.958l-1.001 1.002A9.65 9.65 0 0 0 12 2.292a9.64 9.64 0 0 0-6.865 2.844A9.64 9.64 0 0 0 2.292 12c0 2.448.9 4.753 2.542 6.549L3.831 19.55C-.201 15.191-.101 8.367 4.133 4.133m13.798 1.318v.002l-1.015 1.014A7.35 7.35 0 0 0 12 4.589 7.36 7.36 0 0 0 6.761 6.76 7.36 7.36 0 0 0 4.589 12a7.34 7.34 0 0 0 1.877 4.913l-1.014 1.016A8.77 8.77 0 0 1 3.167 12a8.77 8.77 0 0 1 2.588-6.245A8.77 8.77 0 0 1 12 3.167c2.213 0 4.301.809 5.931 2.284M18.537 12c0 1.745-.681 3.387-1.916 4.622S13.746 18.538 12 18.538a6.5 6.5 0 0 1-4.296-1.621l-.001-.004c-.11-.094-.22-.188-.324-.291a6 6 0 0 1-.293-.326A6.47 6.47 0 0 1 5.466 12c0-1.746.679-3.387 1.914-4.621A6.49 6.49 0 0 1 12 5.465c1.599 0 3.105.576 4.295 1.62.111.096.224.19.326.295q.154.157.295.324A6.48 6.48 0 0 1 18.537 12M7.084 17.534h.001A7.35 7.35 0 0 0 12 19.413a7.35 7.35 0 0 0 5.239-2.174A7.35 7.35 0 0 0 19.412 12a7.36 7.36 0 0 0-1.876-4.916l1.013-1.012A8.78 8.78 0 0 1 20.834 12a8.77 8.77 0 0 1-2.589 6.246A8.76 8.76 0 0 1 12 20.834a8.78 8.78 0 0 1-5.93-2.285zm12.783 2.333A11.05 11.05 0 0 1 12 23.125a11.04 11.04 0 0 1-7.551-2.957l1.004-1.001a9.64 9.64 0 0 0 6.549 2.542 9.64 9.64 0 0 0 6.865-2.846A9.64 9.64 0 0 0 21.71 12a9.64 9.64 0 0 0-2.543-6.548l1.001-1.002c4.031 4.359 3.935 11.182-.301 15.417"/></svg>