<svg xmlns="http://www.w3.org/2000/svg" viewBox="0 0 24 24"><path d="M11.262 18a20.6 20.6 0 0 0 3.246-1.476 21 21 0 0 0 2.852-2.064A14.5 14.5 0 0 0 19.82 12q.492.491.884 1.082.493.59.788 1.18.393.69.786 1.28.296.687.59 1.278a23 23 0 0 1-2.654 2.46 39 39 0 0 1-2.952 1.966A29.6 29.6 0 0 1 10.574 24l-.788-1.18q-.391-.69-.786-1.28-.314-.63-.59-1.278l-.59-1.376A20.4 20.4 0 0 0 11.26 18zm2.754-16.918a30 30 0 0 1 3.246 1.574q1.476.885 2.952 1.966a48 48 0 0 1 2.654 2.46q-.293.69-.59 1.28-.392.687-.786 1.278a6.2 6.2 0 0 1-.788 1.18q-.41.614-.884 1.18a18 18 0 0 0-2.46-2.558 21 21 0 0 0-2.852-2.064 20.4 20.4 0 0 0-6.688-2.36l.59-1.38q.295-.59.59-1.278l.786-1.18.788-1.18q1.77.393 3.442 1.082m-7.574 18q-.787.1-1.474.1H3.492q-.69 0-1.378-.1a34 34 0 0 1-.786-3.54 33 33 0 0 1 0-7.18q.295-1.772.786-3.444l1.378-.196h1.476q.689 0 1.474.098l1.378.196-.59 1.77q-.394 1.476-.59 3.05-.1 1.476-.1 3.05.1 1.572.394 3.048.394 1.575.886 2.952-.69.195-1.378.196"/></svg>