<svg xmlns="http://www.w3.org/2000/svg" viewBox="0 0 24 24"><path d="M15.795 5.522a4.94 4.94 0 0 0-2.485.717.43.43 0 0 1-.236.066q-4.075-.003-8.151-.002a.594.594 0 0 0-.594.45.57.57 0 0 0 .284.66c.112.056.25.082.377.082 2.25.005 4.499.003 6.749.004.044 0 .09.003.152.006l-.09.13a5 5 0 0 0-.674 1.302c-.03.09-.075.113-.166.113-2.545-.003-4.844-.003-7.193-.002a.6.6 0 0 0-.581.456.584.584 0 0 0 .312.668.9.9 0 0 0 .35.069q2.886.004 5.771.003h.123a.2.2 0 0 1-.074.085q-.751.55-1.218 1.356c-.046.08-.095.109-.188.109a5042 5042 0 0 0-7.687-.002.598.598 0 0 0-.566.706c.06.3.3.49.624.49h7.304a5.1 5.1 0 0 0-.074 1.567H7.27c-.233 0-.357.117-.364.349a8 8 0 0 0 0 .474q.011.354.37.355.403.003.807-.001c.075-.002.112.023.142.092.186.428.439.816.75 1.165.082.092.168.18.274.292h-5.01a.6.6 0 0 0-.574.48.585.585 0 0 0 .35.664.8.8 0 0 0 .305.051c5.458.004 10.345.01 15.371-.018a4 4 0 0 0 1.121-.172c2.333-.688 3.704-3.159 3.006-5.566-.434-1.496-1.413-2.504-2.888-3.02-.067-.024-.095-.054-.108-.124a4 4 0 0 0-.098-.39c-.645-2.184-2.653-3.712-4.929-3.664M.758 14.556a.31.31 0 0 0-.323.315c-.004.158-.002.316-.002.474.001.274.119.388.396.388h4.163c.203 0 .351-.125.357-.306a9 9 0 0 0 0-.544c-.006-.192-.14-.327-.327-.327z"/></svg>