<svg xmlns="http://www.w3.org/2000/svg" viewBox="0 0 24 24"><path d="M12.154 0c-1.978.014-3.247.582-3.93 1.015a.577.577 0 0 0-.039.942l6.355 4.941c.56.435 1.38.187 1.61-.485l1.36-3.993a.58.58 0 0 0-.166-.618A7.37 7.37 0 0 0 13.048.03a11 11 0 0 0-.893-.03M4.207 3.515c-.754.41-2.686 1.673-3.682 4.27-.768 2.002-.498 4.218-.286 5.3a.58.58 0 0 0 .78.427L13.242 8.74c.873-.34.877-1.575.006-1.92L4.82 3.479a.7.7 0 0 0-.613.036m15.555.655-3.085 2.737a1.03 1.03 0 0 0 .107 1.625l6.169 4.185c.353.24.835.026.896-.396.162-1.12.303-3.067-.344-4.536-.864-1.958-2.329-3.164-3.024-3.655a.59.59 0 0 0-.72.04m-5.898 5.081a1.02 1.02 0 0 0-.628.18l-11.394 7.65a.73.73 0 0 0-.293.8c.242.868.962 2.674 3.006 4.319 2.044 1.644 4.462 1.823 5.496 1.798a.72.72 0 0 0 .67-.506l4.075-12.893c.22-.698-.311-1.314-.932-1.348m2.612.134c-.491.01-.965.365-1.015.942L14.333 23.16a.58.58 0 0 0 .64.628c1.169-.126 3.569-.592 5.368-2.31a8.8 8.8 0 0 0 2.487-4.448.73.73 0 0 0-.146-.607L17.29 9.766c-.22-.27-.52-.386-.814-.38"/></svg>