<svg xmlns="http://www.w3.org/2000/svg" viewBox="0 0 24 24"><path d="M1.072.142A1.07 1.07 0 0 0 0 1.214v21.572a1.07 1.07 0 0 0 1.072 1.072h21.856A1.07 1.07 0 0 0 24 22.786V1.214A1.07 1.07 0 0 0 22.928.142zm9.736 1.818a.9.9 0 0 1 .828.539.784.784 0 0 1 1.274.493.64.64 0 0 1 .29-.06c.33.008.59.262.625.575a1.32 1.32 0 0 1 .624-.515 1.325 1.325 0 0 1 1.718.71 1.1 1.1 0 0 1 .306-.236 1.1 1.1 0 0 1 1.483.479 1.1 1.1 0 0 1 .12.47.994.994 0 0 1 1.322 1.214.904.904 0 0 1 .874 1.438.784.784 0 0 1 .176 1.356.64.64 0 0 1 .19.224.64.64 0 0 1-.011.613 1.3 1.3 0 0 1 .482.235 1.334 1.334 0 0 1 .258 1.842 1.1 1.1 0 0 1 .35.15 1.1 1.1 0 0 1 .337 1.516 1.1 1.1 0 0 1-.344.344.994.994 0 0 1 .228 1.318 1 1 0 0 1-.605.434.904.904 0 0 1-.803 1.482l-.008-.04a.784.784 0 0 1-1.075.873.64.64 0 0 1-.098.28.63.63 0 0 1-.43.288 1.3 1.3 0 0 1 .023.456 1.334 1.334 0 0 1-1.44 1.173 1.1 1.1 0 0 1 .054.377 1.1 1.1 0 0 1-1.128 1.072 1.1 1.1 0 0 1-.47-.12.994.994 0 0 1-1.696.583.904.904 0 0 1-1.685.075.784.784 0 0 1-1.274-.493.64.64 0 0 1-.29.064.64.64 0 0 1-.621-.58l.004-.007a1.33 1.33 0 0 1-.632.523 1.334 1.334 0 0 1-1.718-.706 1.1 1.1 0 0 1-.306.232 1.1 1.1 0 0 1-1.48-.478 1.1 1.1 0 0 1-.123-.471.994.994 0 0 1-1.318-1.21.904.904 0 0 1-.874-1.442.784.784 0 0 1-.176-1.356.64.64 0 0 1-.194-.224.64.64 0 0 1 .011-.61l.019.004a1.3 1.3 0 0 1-.497-.239 1.334 1.334 0 0 1-.262-1.845 1.1 1.1 0 0 1-.35-.146 1.1 1.1 0 0 1-.337-1.52 1.1 1.1 0 0 1 .347-.34A.994.994 0 0 1 2.88 9a.904.904 0 0 1 .803-1.48.784.784 0 0 1 1.083-.836.64.64 0 0 1 .098-.28.65.65 0 0 1 .433-.288 1.3 1.3 0 0 1-.026-.452A1.334 1.334 0 0 1 6.716 4.49a1.1 1.1 0 0 1-.06-.377 1.1 1.1 0 0 1 1.13-1.073 1.1 1.1 0 0 1 .47.115.994.994 0 0 1 1.696-.579.9.9 0 0 1 .857-.617zM3.683 7.519l.008.041-.004-.04zM17.502 19.61l-.002-.004h-.037zM13.825 3.507l-.008.012.008-.011zm-2.369-.014-.003.003a.9.9 0 0 1-.665.27.9.9 0 0 1-.583-.232.994.994 0 0 1-.986.732 1 1 0 0 1-.362-.075 1.1 1.1 0 0 1-1.061 1.046 1.33 1.33 0 0 1 .123.736 1.33 1.33 0 0 1-.725 1.035 1.1 1.1 0 0 1 .307.795 1.1 1.1 0 0 1-.232.65c.321.18.53.523.523.915a1 1 0 0 1-.07.337.915.915 0 0 1 .82.937 1 1 0 0 1-.01.138.7.7 0 0 1 .157-.01c.343.007.627.25.702.57a.66.66 0 0 1 .38-.111c.31.007.561.224.632.511a.42.42 0 0 1 .381-.015 1.35 1.35 0 0 1 .303-.63.4.4 0 0 1-.12-.143.42.42 0 0 1 .004-.392.665.665 0 0 1-.325-1.117.74.74 0 0 1-.359-.336.74.74 0 0 1 .385-1.023l-.06.026a.9.9 0 0 1-.201-.262.915.915 0 0 1 .623-1.315V6.53a1.02 1.02 0 0 1 .437-1.371 1 1 0 0 1 .553-.112 1.11 1.11 0 0 1 .598-1.054l.06-.026a.6.6 0 0 1-.109-.21.8.8 0 0 1-.455.132.78.78 0 0 1-.662-.396m4.573 1.512a1.33 1.33 0 0 1-.587.46 1.33 1.33 0 0 1-1.255-.142v-.011a1.1 1.1 0 0 1-.553.66 1.1 1.1 0 0 1-.683.113 1.02 1.02 0 0 1-.553.889 1 1 0 0 1-.329.105.92.92 0 0 1-.43 1.169 1 1 0 0 1-.127.056.7.7 0 0 1 .086.13.74.74 0 0 1-.168.89.66.66 0 0 1 .28.283.655.655 0 0 1-.149.796.4.4 0 0 1 .153.164q.027.051.038.101a1.36 1.36 0 0 1 .672-.015.4.4 0 0 1 .056-.142.42.42 0 0 1 .34-.194.665.665 0 0 1 .796-.848.74.74 0 0 1 .112-.478.733.733 0 0 1 1.016-.224.9.9 0 0 1 .127-.306.915.915 0 0 1 1.27-.28 1 1 0 0 1 .179.153 1.02 1.02 0 0 1 1.408-.314 1 1 0 0 1 .374.422c.355-.24.833-.261 1.214-.015a1 1 0 0 1 .209.172.6.6 0 0 1 .082-.108.8.8 0 0 1-.332-.337.78.78 0 0 1 .03-.77.9.9 0 0 1-.553-.455.9.9 0 0 1-.075-.624.994.994 0 0 1-1.117-.511 1 1 0 0 1-.104-.359 1.1 1.1 0 0 1-1.427-.43M5.249 7.37a.8.8 0 0 1-.124.46.78.78 0 0 1-.68.362c.06.235.026.49-.112.71a.9.9 0 0 1-.5.377c.31.325.373.829.12 1.225a1 1 0 0 1-.255.269 1.1 1.1 0 0 1 .351 1.45 1.33 1.33 0 0 1 .691.276 1.33 1.33 0 0 1 .512 1.154c.28-.064.579-.019.84.15a1.1 1.1 0 0 1 .438.53 1.02 1.02 0 0 1 1.05.03 1 1 0 0 1 .257.231.914.914 0 0 1 1.225-.224 1 1 0 0 1 .112.086.7.7 0 0 1 .071-.142.74.74 0 0 1 .852-.306.66.66 0 0 1 .1-.381.664.664 0 0 1 .763-.273.42.42 0 0 1 .246-.373 1.36 1.36 0 0 1-.358-.523v-.008a.4.4 0 0 1-.25.075.42.42 0 0 1-.344-.19.665.665 0 0 1-1.132-.243.74.74 0 0 1-.47.149.733.733 0 0 1-.718-.755.9.9 0 0 1-.329.049.915.915 0 0 1-.855-1.177h-.004a1.016 1.016 0 0 1-.993-1.042 1 1 0 0 1 .168-.534 1.11 1.11 0 0 1-.64-1.035 1.1 1.1 0 0 1 .068-.358 1 1 0 0 1-.1-.019m11.127 2.133a.913.913 0 0 1-1.225.224 1 1 0 0 1-.112-.082.7.7 0 0 1-.067.142.74.74 0 0 1-.852.302.66.66 0 0 1-.105.385.66.66 0 0 1-.762.277.4.4 0 0 1-.063.212.4.4 0 0 1-.075.086 1.36 1.36 0 0 1 .314.564.4.4 0 0 1 .187-.04.42.42 0 0 1 .343.194.665.665 0 0 1 1.136.242.74.74 0 0 1 .467-.153c.41.008.728.348.72.755v.008-.005a.9.9 0 0 1 .326-.052.915.915 0 0 1 .896.941 1 1 0 0 1-.037.236c.564.015 1.008.482.993 1.046a1 1 0 0 1-.168.534 1.11 1.11 0 0 1 .647 1.035 1.1 1.1 0 0 1-.075.362l.004-.007.1.018a.8.8 0 0 1 .124-.46.78.78 0 0 1 .68-.362.9.9 0 0 1 .112-.71.9.9 0 0 1 .504-.373.994.994 0 0 1-.123-1.225 1 1 0 0 1 .257-.269 1.1 1.1 0 0 1-.35-1.453 1.33 1.33 0 0 1-.696-.273h-.003a1.33 1.33 0 0 1-.512-1.158 1.08 1.08 0 0 1-.837-.145 1.1 1.1 0 0 1-.44-.535 1.02 1.02 0 0 1-1.05-.026 1 1 0 0 1-.258-.235m-.094 3.116-.007.066zm-2.864-.259a1.36 1.36 0 0 1-.363.598.42.42 0 0 1 .194.187.42.42 0 0 1-.007.396.665.665 0 0 1 .329 1.113.74.74 0 0 1 .358.336.74.74 0 0 1-.32.994.9.9 0 0 1 .197.261.91.91 0 0 1-.396 1.233 1 1 0 0 1-.224.082v.004a1.02 1.02 0 0 1-.44 1.374 1 1 0 0 1-.55.109 1.11 1.11 0 0 1-.661 1.083.6.6 0 0 1 .112.21h-.004v.003a.8.8 0 0 1 .456-.134.78.78 0 0 1 .661.392.9.9 0 0 1 .665-.27.9.9 0 0 1 .587.236.994.994 0 0 1 .982-.736 1 1 0 0 1 .362.079v.022a1.1 1.1 0 0 1 1.061-1.072 1.33 1.33 0 0 1-.123-.736c.056-.46.34-.837.725-1.035l.003.004a1.1 1.1 0 0 1-.31-.795 1.1 1.1 0 0 1 .232-.654 1.02 1.02 0 0 1-.452-1.251.915.915 0 0 1-.822-.934 1 1 0 0 1 .011-.142.7.7 0 0 1-.157.015.74.74 0 0 1-.698-.572.66.66 0 0 1-.385.112.67.67 0 0 1-.627-.512.4.4 0 0 1-.217.053.4.4 0 0 1-.18-.045zm-.964.93a1.4 1.4 0 0 1-.336.042q-.169 0-.322-.038a.42.42 0 0 1-.06.295.42.42 0 0 1-.343.195.665.665 0 0 1-.792.844.74.74 0 0 1-.112.478.74.74 0 0 1-1.02.224.9.9 0 0 1-.127.306.915.915 0 0 1-1.266.28 1 1 0 0 1-.183-.153v.004a1.02 1.02 0 0 1-1.408.31 1 1 0 0 1-.374-.418c-.355.239-.83.261-1.214.015a1 1 0 0 1-.21-.172.7.7 0 0 1-.081.105.8.8 0 0 1 .336.336.78.78 0 0 1-.034.77.9.9 0 0 1 .553.455.9.9 0 0 1 .075.624.994.994 0 0 1 1.12.515 1 1 0 0 1 .101.355 1.1 1.1 0 0 1 1.431.43 1.33 1.33 0 0 1 .587-.46c.43-.172.896-.104 1.255.142a1.1 1.1 0 0 1 .549-.65 1.1 1.1 0 0 1 .683-.108 1.02 1.02 0 0 1 .553-.893 1 1 0 0 1 .333-.104.916.916 0 0 1 .425-1.17 1 1 0 0 1 .131-.052.7.7 0 0 1-.09-.134.74.74 0 0 1 .169-.886.66.66 0 0 1-.28-.284.67.67 0 0 1 .149-.799.4.4 0 0 1-.15-.164.4.4 0 0 1-.048-.24"/></svg>