<svg xmlns="http://www.w3.org/2000/svg" viewBox="0 0 24 24"><path d="m23.134 8.64-5.973-3.62a.286.286 0 0 0-.412.125l-1.4 3.286 2.842 1.696a.53.53 0 0 1 0 .921l-5.335 3.14-2.267 5.274a.127.127 0 0 0 .052.203.12.12 0 0 0 .134-.035l3.914-2.365 1.545 2.219a.37.37 0 0 0 .309.167h3.708a.37.37 0 0 0 .327-.2.38.38 0 0 0-.018-.386l-2.513-3.852 5.088-3.077q.865-.524.865-1.172V9.813q0-.649-.866-1.172zM13.082 4.35.845 12.052q-.865.523-.845 1.171v1.173q.021.648.866 1.15l6.056 3.496a.286.286 0 0 0 .412-.146l1.36-3.286-2.884-1.633a.52.52 0 0 1-.275-.384.53.53 0 0 1 .254-.537l5.295-3.245 2.183-5.316a.13.13 0 0 0-.04-.142.12.12 0 0 0-.146-.005z"/></svg>