<svg xmlns="http://www.w3.org/2000/svg" viewBox="0 0 24 24"><path d="M23.991 13.05c-.243-6.186-5.244-11.23-11.424-11.515C5.678 1.223 0 6.711 0 13.525c0 2.601.825 5.007 2.231 6.968a4.73 4.73 0 0 0 3.442 1.962c-2.015-2.284-.302-4.193-.302-4.193-.798.386-1.126 1.687-1.126 1.687-1.512-.93-1.163-2.041-1.163-2.041.095-.233.312-.872 1.475-.64 2.252-7.417 9.67-3.552 9.67-3.552-.117-.233-.503-1.555-.503-1.555-4.816-.698-6.444-4.113-6.444-4.113 4.467-1.358 7.185 2.332 7.185 2.332-1.243-3.03-4.23-1.824-5.007-6.794 5.186.862 5.937 4.927 6.043 5.805.074-.17.486-.396 2.189-.296 2.638.153 4.737 2.834 4.737 2.834 0 5.434-6.64 4.123-6.64 8.231 0 .962 1.046.904 1.395 1.37.286.38.164.803.106.94h.629c1.49 0 2.908-.687 3.785-1.892a11.98 11.98 0 0 0 2.29-7.534zm-8.395 9.426c-1.153-.38-2.268-2.982-3.653-2.982 1.94 1.168 1.115 2.718.957 2.982H15.6z"/></svg>