<svg xmlns="http://www.w3.org/2000/svg" viewBox="0 0 24 24"><path d="M1 0a1 1 0 0 0-1 1v22q0 .094.018.184L0 23.199l.025.026c.103.443.5.775.975.775h22a1 1 0 0 0 1-1V1a1 1 0 0 0-1-1zm.707 1h20.582l-2 2H3.707zM23 1.705v20.588l-2-2V3.705zM1 1.707l2 2v16.492l-2 2zM4 4h16v16H4zm3.537 3q-1.51 0-1.51 1.605v2.297q0 .6-.554.6a.47.47 0 0 0-.344.139.5.5 0 0 0-.129.365.5.5 0 0 0 .129.353.47.47 0 0 0 .344.139q.555 0 .554.6v2.297Q6.027 17 7.537 17q.205 0 .334-.148A.5.5 0 0 0 8 16.498a.5.5 0 0 0-.129-.365.44.44 0 0 0-.334-.139q-.564 0-.564-.6v-2.296q0-.69-.297-1.092.148-.207.222-.485.075-.274.075-.619V8.605q0-.6.564-.6a.44.44 0 0 0 .334-.138A.5.5 0 0 0 8 7.512a.53.53 0 0 0-.129-.364A.43.43 0 0 0 7.537 7m8.926 0a.43.43 0 0 0-.334.148.53.53 0 0 0-.129.364.5.5 0 0 0 .129.355.44.44 0 0 0 .334.139q.564 0 .564.6v2.296q0 .345.075.62.073.276.222.484-.296.403-.297 1.092v2.297q0 .6-.564.6a.44.44 0 0 0-.334.138.5.5 0 0 0-.129.365q0 .217.129.354a.43.43 0 0 0 .334.148q1.51 0 1.51-1.605v-2.297q0-.6.554-.6a.44.44 0 0 0 .334-.139.48.48 0 0 0 .139-.353.5.5 0 0 0-.139-.365.44.44 0 0 0-.334-.139q-.554 0-.554-.6V8.605Q17.973 7 16.463 7m-7.25 6a.74.74 0 0 0-.496.227.72.72 0 0 0-.217.529.74.74 0 0 0 .75.744.74.74 0 0 0 .75-.744.72.72 0 0 0-.217-.53A.7.7 0 0 0 9.25 13zm2.75 0a.74.74 0 0 0-.496.227.72.72 0 0 0-.217.529.74.74 0 0 0 .217.53q.228.214.533.214a.74.74 0 0 0 .75-.744.72.72 0 0 0-.217-.53A.7.7 0 0 0 12 13zm2.75 0a.74.74 0 0 0-.496.227.72.72 0 0 0-.217.529.74.74 0 0 0 .217.53q.228.214.533.214a.74.74 0 0 0 .75-.744.72.72 0 0 0-.217-.53.7.7 0 0 0-.533-.226zm-11.1 8h16.68l2 2H1.613z"/></svg>