<svg xmlns="http://www.w3.org/2000/svg" viewBox="0 0 24 24"><path d="M12 0A12 12 0 0 0 0 12a12 12 0 0 0 12 12 12 12 0 0 0 12-12A12 12 0 0 0 12 0m.465 5.814a4.56 4.56 0 0 1 2.756.83c1.215.886 1.465 1.856 1.465 2.5a1.9 1.9 0 0 1-.086.6 2.77 2.77 0 0 1-2.305 1.906 6 6 0 0 1-.654.055c-1 0-1.33-.41-1.33-.87 0-.624.6-1.364 1.035-1.364a.3.3 0 0 1 .154.045.76.76 0 0 0 .375.093.3.3 0 0 0 .11 0 .55.55 0 0 0 .515-.558c0-.55-.625-1.25-2-1.25a5.3 5.3 0 0 0-1.55.244A4.12 4.12 0 0 0 8.685 9.8 4 4 0 0 0 8 12.05 3.95 3.95 0 0 0 8.5 14a4.24 4.24 0 0 0 3.69 2.06h.24c2-.11 2.46-1.09 2.906-1.28a1.5 1.5 0 0 1 .299-.065c.325 0 .745.164 1.035.86a.7.7 0 0 1 .07.3c0 1.145-2.67 2.18-4.22 2.26h-.35A6.38 6.38 0 0 1 6.62 15a5.9 5.9 0 0 1-.77-2.94 6.1 6.1 0 0 1 1.035-3.39 6.2 6.2 0 0 1 3.385-2.5 7.3 7.3 0 0 1 2.195-.356"/></svg>