<svg xmlns="http://www.w3.org/2000/svg" viewBox="0 0 24 24"><path d="M7.988 4.822v.901h1.845v6.337q0 1.213.563 1.875.569.657 1.6.657h1.458v-.97H12.11q-.555 0-.844-.393-.28-.394-.281-1.17V4.823ZM3.459 7.418q-1.626 0-2.546.976Q0 9.369 0 11.096q0 1.725.913 2.702.92.976 2.546.976a3.7 3.7 0 0 0 1-.137q.495-.132.958-.4V13.04q-.406.388-.882.576a3 3 0 0 1-1.076.18q-1.076.001-1.664-.7-.581-.706-.582-2.001 0-1.302.582-2.002t1.664-.7q.582 0 1.038.181a3.1 3.1 0 0 1 .92.588V7.956a4.3 4.3 0 0 0-.97-.406 3.7 3.7 0 0 0-.988-.132m12.855 6.123v1.128H24V13.54zm3.156 2.255-2.302 3.382h1.3l1.694-2.204 1.684 2.204h1.3l-2.301-3.382z"/></svg>