<svg xmlns="http://www.w3.org/2000/svg" viewBox="0 0 24 24"><path d="M16.66 0c-.07 0-.114.034-.164.095a.42.42 0 0 0-.07.43c.19.41.363.83.528 1.25q.014.028.039.068c-.04-.002-.05-.022-.063-.043-.297-.31-.648-.557-.998-.804-.473-.337-.99-.603-1.503-.872a.6.6 0 0 0-.214-.065l-.384-.04c-.202-.025-.355.09-.355.292 0 .108-.046.132-.135.14-.08.004-.187.115-.196.192a.7.7 0 0 0 .228.619c.444.415.873.845 1.303 1.275l.015.007a.1.1 0 0 1 .028.038q-.01.004-.02.003a.06.06 0 0 1-.035-.022q-.004-.003-.005-.007c-.062-.036-.127-.07-.187-.11-.3-.2-.595-.404-.895-.598a.94.94 0 0 0-.461-.17.45.45 0 0 0-.392.143.28.28 0 0 0-.088.253c.016.146.115.237.223.312.502.338.95.734 1.366 1.174.036.038.074.079.115.112.118.096.19.224.262.356.033.06.02.074-.043.074-.428 0-.836.118-1.246.204-.168.036-.334.094-.394.28-.065.21-.096.328.16.392a9.6 9.6 0 0 1 1.49.516.6.6 0 0 1 .117.077c.12.104.23.219.362.303.38.247.77.478 1.22.583.053.012.1.039.15.05.05.015.085.044.095.094.029.178.139.279.305.33.02.006.038.02.06.028.052.017.076.055.093.108q.1.36.212.715c.026.08.002.1-.07.123q-.557.162-1.112.334c-.132.04-.134.043-.067.163l.908 1.635c.127.23.132.23.365.11.024-.012.057-.053.079-.014.02.036.06.089.024.13-.113.129-.19.28-.286.42-.031.045-.031.074-.005.117q.151.25.3.502c.012.019.034.043.03.058l-.123.367a2.5 2.5 0 0 0-.317-.716c-.18-.288-.41-.542-.62-.811q-.051-.059-.11-.115c-.2-.207-.456-.332-.7-.478a1 1 0 0 0-.34-.127c-.374-.08-.746-.11-1.12.004-.075.024-.116.005-.161-.06-.092-.127-.166-.273-.29-.372-.3-.24-.616-.458-.985-.583a3 3 0 0 0-.865-.168 4 4 0 0 0-.463.017c-.396.03-.79.074-1.14.293-.07.043-.15.067-.221.108-.36.194-.716.386-1.016.679a13 13 0 0 0-.897.944c-.322.384-.565.818-.783 1.267-.015.03-.022.07-.07.096l-.12-.744c-.007-.046.022-.043.053-.038.089.01.175.014.264.026.067.01.103-.005.12-.08q.034-.153.067-.311c.082-.397.2-.78.303-1.17.02-.074.007-.1-.07-.12-.381-.09-.763-.192-1.145-.283-.072-.017-.106-.043-.084-.12.087-.298.125-.61.242-.9a.2.2 0 0 1 .056-.087c.098-.076.17-.165.16-.302-.007-.103.041-.168.14-.214.182-.086.358-.187.53-.288a.84.84 0 0 0 .327-.333c.322-.605.59-1.242.98-1.81.033-.051.06-.106.1-.15.252-.264.488-.544.771-.78.089-.074.113-.175.115-.285 0-.128-.074-.217-.151-.305-.075-.087-.151-.161-.279-.147-.028.003-.057-.01-.088-.014.019-.04.05-.048.076-.065q.508-.327 1.016-.658.614-.397 1.232-.794c.052-.034.076-.06.019-.11-.015-.013-.024-.03-.036-.044-.084-.099-.084-.099-.2-.03L8.084 3.693c-.101.062-.101.062-.152-.05-.112-.263-.177-.54-.261-.81-.02-.062-.003-.098.045-.137.289-.23.553-.49.82-.742a.6.6 0 0 0 .186-.37c.022-.17-.09-.259-.244-.196a2 2 0 0 0-.221.105c-.68.375-1.405.632-2.149.848-.043.012-.082.026-.118-.02-.074-.09-.185-.14-.278-.208a.07.07 0 0 0-.063-.015c-.1.027-.204.056-.266.147-.159.233-.358.44-.507.682-.17.28-.333.562-.525.828-.036.05-.05.058-.084-.002L3.63 2.635a3 3 0 0 0-.223-.338c-.094-.118-.209-.176-.358-.16-.026.004-.06-.004-.07.037-.02.11-.07.226-.057.332.034.27.082.542.15.806.114.459.244.912.38 1.364.133.444.282.88.426 1.323.012.038.033.072-.02.103-.067.038-.175.058-.187.125-.012.07.05.15.08.225l.007.017c.024.058.036.144.08.166.057.029.11-.05.162-.082.048-.03.065-.021.087.029q.187.438.38.876a.18.18 0 0 1 .006.137 4 4 0 0 0-.192.72c-.012.07-.038.07-.09.055l-.834-.21c-.123-.032-.123-.032-.137.093v.01q-.09.998-.183 1.994c-.004.06.003.085.068.092.194.024.386.055.578.084.036.005.067.007.058.06-.043.225-.077.453-.125.677a.18.18 0 0 0 .034.163l.2.264c.045.063.08.144.037.209a.2.2 0 0 0-.033.118c.007.415.007.83.026 1.246.01.2.007.403.012.605.01.535.04 1.068.06 1.603.01.262-.036.52-.024.783.002.065.017.1.084.122.16.05.312.116.473.166a.28.28 0 0 1 .185.156.44.44 0 0 1 .038.219c-.002.072.024.115.082.156q.37.267.74.542c.65.48 1.3.963 1.954 1.44.06.045.074.081.038.146-.034.062-.055.135-.089.197-.029.058-.024.094.031.134q.123.089.236.188c.065.055.067.141.048.208-.015.05-.087.005-.132 0-.032-.002-.063-.01-.094-.014-.31-.05-.617-.13-.932-.156-.5-.04-1.003-.084-1.51-.07-.026 0-.067-.024-.074.03-.007.042-.017.088.031.117q.036.021.077.036c.283.098.547.24.807.39.168.095.333.203.518.268.034.012.068.038.108.002q-.416-.33-.833-.665c.04-.029.07-.017.1-.014.332.026.664.072.988.15q1.07.255 2.122.572c.23.07.475.104.682.243.05.033.08.067.074.13.012.014.027.033.01.045-.02.012-.036-.012-.05-.024q-.246-.02-.488-.043c-.463-.046-.924-.11-1.392-.096-.35.01-.701-.015-1.05.01-.494.033-.989.098-1.48.15-.025.003-.063-.002-.063.027 0 .036.014.077.06.087a.6.6 0 0 0 .113.012c.25.01.497.007.746.011.62.015 1.242-.012 1.86.041.224.02.45.01.668.05 1.03.193 2.055.394 3.078.618.12.026.243.045.36.103-.055.05-.127.065-.158.137-.22.506-.363 1.04-.53 1.563-.03.09.03.192.12.216a.28.28 0 0 0 .352-.22q.031-.163.053-.328c.005-.036.017-.055.053-.067.132-.053.26-.108.393-.16a1.6 1.6 0 0 0 .529-.325c.134-.127.247-.274.25-.47 0-.06.014-.099.062-.135.22-.17.418-.365.61-.564a6 6 0 0 1 .6-.533c.024-.02.043-.048.08-.034l.56.221c-.374.228-.73.447-1.082.66q-.026.014-.053.02a.8.8 0 0 0-.338.201c-.375.372-.567.814-.545 1.35.014.36.22.53.57.45.616-.145 1.14-.734 1.233-1.38.024-.18.052-.357-.077-.513a2 2 0 0 0-.178-.195c.02-.012.029-.019.039-.026.777-.463 1.625-.778 2.475-1.07 1.04-.359 2.1-.644 3.164-.918l-.075-.017c-.07.007-.136.015-.206.02a5 5 0 0 0-.872.134l-.016.007a.2.2 0 0 1-.094.015q-.021 0-.048.002c.065-.062.252-.264.303-.25l.002-.005h.005c0-.007.019-.02.019-.02q.024-.047.074-.05a.7.7 0 0 1 .197-.189c.05-.03.103-.062.16-.086h-.001c.16 0 .319-.194.486-.262-.001-.006-.01-.01-.013-.017-.24.034-.476.072-.706.16-.492.181-1.001.323-1.481.534-.742.324-1.482.648-2.195 1.035a1 1 0 0 1-.077.036l-.055-.504c-.005-.034.012-.048.04-.063.632-.334 1.266-.665 1.926-.938.543-.226 1.08-.47 1.626-.691q.003-.009.01-.01h.004q.003.002.005.003c.007.012.002.02-.005.026q-.003.003-.01.005h-.002a3.4 3.4 0 0 0-.372.66c.038.01.053-.003.067-.018q.17-.178.336-.357c.214-.234.44-.458.704-.64.017-.012.045-.022.033-.048-.014-.03-.045-.015-.067-.01-.247.05-.494.096-.74.154-.081.019-.076-.01-.08-.067-.001-.197.028-.39.035-.586a.6.6 0 0 1 .058-.247q.147-.338.297-.675c.05-.113.08-.233.099-.353q.045-.288.074-.58c.03-.3.137-.58.187-.875.065-.374.118-.751.257-1.11.125-.316.245-.633.372-.947.176-.428.399-.833.505-1.29.036-.158.076-.302.004-.458-.04-.084-.052-.18-.081-.271a.4.4 0 0 1-.012-.204c.048-.245.07-.488-.063-.716-.036-.062.008-.1.044-.14.088-.09.093-.131.016-.23-.088-.11-.175-.223-.27-.326-.08-.084-.154-.175-.234-.262-.055-.033-.05-.055.012-.076.14-.048.276-.108.418-.152.08-.024.1-.07.106-.141q.067-.909.139-1.818c.007-.084-.007-.1-.094-.074-.454.144-.907.28-1.363.422-.14.044-.142.044-.204-.093-.231-.52-.411-1.057-.6-1.59a.4.4 0 0 1 .007-.316c.067-.188.024-.377.019-.567a.1.1 0 0 1-.005-.03 9 9 0 0 0-.254-1.547 6 6 0 0 0-.5-1.27c-.228-.432-.473-.86-.737-1.275-.113-.178-.233-.339-.434-.427A.7.7 0 0 0 16.66 0m-2.642.26a.36.36 0 0 1 .2.051 19 19 0 0 1 1.469.805c.247.158.482.338.715.52.11.087.192.217.284.33.038.047.012.09-.024.124-.024.024-.058.039-.087.055-.031.022-.072.04-.06.087.01.04.055.05.09.058a.27.27 0 0 0 .16-.015c.168-.07.31.048.418.166.028.03.04.093.093.074.055-.021.063-.081.058-.137-.012-.15-.05-.297-.084-.444-.09-.377-.27-.718-.418-1.073-.053-.127-.11-.254-.163-.382-.03-.07.01-.132.048-.182.03-.04.08-.005.122.014.152.068.238.19.312.332.08.15.178.29.262.436.144.255.322.495.437.762.168.388.382.758.483 1.176.086.37.208.732.252 1.114.016.144-.01.283.007.422q.05.417-.123.798c-.03.07-.021.136.012.208.252.533.46 1.083.67 1.635.027.072.015.1-.06.123-.482.14-.965.288-1.447.434-.07.022-.092.003-.113-.06q-.184-.487-.353-.967c-.024-.068-.053-.104-.128-.087-.088.022-.136-.017-.175-.096-.062-.127-.113-.28-.216-.36s-.266-.082-.403-.115c-.103-.027-.207-.058-.312-.075a1.4 1.4 0 0 1-.612-.273c-.303-.224-.615-.43-.934-.627-.104-.007-.202-.036-.303-.06-.278-.057-.554-.117-.833-.17-.067-.012-.08-.063-.084-.108-.007-.056.007-.11.065-.144.089-.053.19-.063.29-.08a10 10 0 0 1 1.345-.13c.11-.002.209.04.312.066a.18.18 0 0 0 .166-.03c.216-.143.434-.28.65-.422.034-.021.096-.036.07-.093a.1.1 0 0 0-.015-.022q-.018-.014-.043-.012l-.05.002h-.007a1.16 1.16 0 0 0-.668.2c-.08.05-.26.019-.31-.056-.34-.516-.823-.888-1.282-1.29-.204-.176-.403-.361-.62-.525-.054-.04-.08-.144-.042-.196.048-.072.11-.041.168-.015.185.082.362.175.528.293.564.403 1.17.744 1.772 1.085l.05.027c.092.03.14-.01.125-.106a.27.27 0 0 0-.062-.134c-.488-.574-1.001-1.124-1.506-1.683-.105-.116-.23-.216-.348-.32a.9.9 0 0 1-.22-.278.16.16 0 0 1 .023-.19c.04-.045.077-.055.137-.024q.256.122.483.293.4.303.804.605l.807.603q.032.025.062.05c.05.046.094.094.142.142l.029.029c.019.019.036.045.06.06.055.033.112.062.17.004q.03-.028.03-.055c0-.007.004-.014 0-.021l-.001-.01a.2.2 0 0 0-.043-.072l-.18-.187a5 5 0 0 0-.312-.298q-.525-.435-1.066-.845c-.183-.14-.397-.233-.596-.348-.072-.041-.12-.101-.173-.159a.14.14 0 0 1-.024-.15c.022-.054.075-.051.12-.056zM8.252 1.649a.05.05 0 0 1 .029.005c.048.027.03.077.03.135.013.06-.026.11-.08.16q-.52.481-1.076.922c-.147.118-.327.173-.49.262-.034.017-.053 0-.072-.024q-.179-.232-.358-.463c-.045-.055.017-.053.046-.065.254-.091.504-.195.756-.295.365-.144.696-.35 1.04-.533q.053-.032.105-.063c.024-.01.044-.037.07-.041m-2.619.83a.22.22 0 0 1 .134.064q.106.101.18.228c.173.28.413.506.646.737q.244.245.502.47c.057.05.067.127.098.192.012.024.002.043-.02.055q-.018.01-.03.02c-.142.12-.276.103-.442.019a3.2 3.2 0 0 1-.864-.646q-.015-.014-.03-.024c-.114-.086-.12-.082-.17.05-.052.135-.086.274-.146.404-.022.045.012.094.046.127.038.039.064.099.134.089q.045-.006.055-.055c.017-.08.04-.16.06-.257.262.22.553.39.84.583l-.278.159q-1.071.599-2.139 1.205c-.058.03-.082.038-.106-.034-.273-.847-.56-1.69-.79-2.552-.052-.2-.074-.408-.112-.612-.012-.06.028-.091.067-.113.053-.026.055.036.074.06.377.52.634 1.11.941 1.669.092.168.195.33.293.497.02.03.034.057.082.04.053-.02.043-.052.034-.09-.039-.174-.128-.33-.193-.493a.18.18 0 0 1 .003-.16c.137-.284.33-.531.48-.803.14-.247.317-.468.451-.717a.21.21 0 0 1 .2-.111zm1.774.492q.02.004.036.042c.12.27.201.555.302.83.01.027.012.049-.017.066l-.256.158c-.008.005-.017.007-.046.02-.007-.013-.017-.034-.031-.051l-.54-.62c-.024-.028-.048-.055 0-.081.177-.101.312-.264.499-.35q.035-.018.053-.014m1.929.486a.2.2 0 0 1 .14.046.21.21 0 0 1 .08.218.56.56 0 0 1-.161.29 5.5 5.5 0 0 0-.882 1.093c-.228.36-.453.718-.624 1.11a.8.8 0 0 1-.146.206q-.36.409-.855.638a.17.17 0 0 0-.108.159c-.005.06-.024.118-.029.178a.48.48 0 0 1-.19.38c-.04.032-.045.083-.06.126l-.273.915q0 .011-.002.019c0 .014.002.03-.017.038-.04.01-.077-.002-.113-.021a41 41 0 0 1-1.33-.334c-.055-.012-.108-.03-.166-.036-.088-.012-.096-.053-.055-.12.058-.281.125-.56.298-.797.038-.053.036-.096.002-.154-.19-.317-.334-.658-.492-.99-.026-.054-.017-.08.034-.11A574 574 0 0 0 6.97 4.706c.045-.03.089-.012.132-.022.151-.034.298-.08.43-.163.01-.007.026-.012.03-.022.097-.213.31-.286.49-.37.411-.187.826-.36 1.189-.633a.2.2 0 0 1 .095-.04zm11.443 3.772v.005l.002-.001c-.021.256-.043.498-.062.74l-.043.535c-.005.065-.024.106-.094.13a561 561 0 0 0-3.37 1.17l-.04.009c-.035.005-.054-.012-.08-.055a98 98 0 0 0-.661-1.177c-.03-.05-.038-.077.034-.096l4.254-1.246c.014-.005.03-.007.06-.014m-.41.386c-.154.003-.293.147-.286.293.007.137.124.257.254.252.137-.002.27-.153.267-.302q-.006-.248-.236-.243zm-16.83.87a.1.1 0 0 1 .04.007L5.512 9l1.937.51c.062.017.082.036.06.1l-.278.913c-.01.036-.017.074-.058.074l-.02-.002-1.036-.142q-.338-.046-.675-.093a255 255 0 0 0-2.055-.286c-.043-.012-.058-.038-.05-.098q.078-.713.153-1.43c.003-.011.002-.02.005-.03l.005-.015q.011-.02.038-.02zm8.136.103.113.002c.197.01.389.086.569.166q.12.052.238.108l.057.029q.089.041.173.09l.113.065c.036.025.075.046.108.073q.109.075.207.165.327.301.463.72c.065.202.113.409.13.617.016.202-.044.399-.096.593-.008.03-.02.036-.03.034-.014-.005-.021-.022-.033-.036l-.216-.25a2.1 2.1 0 0 0-1.042-.684 4.2 4.2 0 0 0-.994-.154 3.8 3.8 0 0 0-.804.092c-.211.04-.423.074-.631.113-.137.024-.262.086-.387.14a3 3 0 0 1-.18.077l-.02.004c-.376.132-.695.36-1.024.57-.09.06-.165.14-.243.218l-.01.008-.064.065c-.152.147-.3.296-.464.43-.074.103-.175.175-.268.266q.034-.255.146-.472a5 5 0 0 1 .262-.435q.072-.106.146-.206a7 7 0 0 1 .315-.396q.121-.145.247-.29l.25-.284a1 1 0 0 1 .115-.1l.026-.03c.078-.066.147-.136.238-.21l.012-.01.067-.061c.24-.228.519-.406.797-.583q.042-.028.086-.051l.111-.048q.015-.007.029-.012a3 3 0 0 1 .173-.065l.117-.036c.14-.04.279-.074.416-.117a2.5 2.5 0 0 1 .782-.115m-7.57.449c-.07.004-.153-.003-.215.057a.46.46 0 0 0 .012.665.286.286 0 0 0 .38 0c.145-.127.182-.314.095-.535-.053-.137-.125-.187-.27-.187zm15.846.062c.087-.001.163.053.23.146q.021.014.043.032c.022.019.03.04.053.064.099.113.207.224.31.334a.1.1 0 0 1 .014.024.02.02 0 0 1-.002.022.04.04 0 0 1-.015.014l-.01.015-.002.002q-.002.003-.004.01-.002.004-.003.004h.003v.008c-.145.146-.106.283.01.415.006.012.014.024.014.036.096.127.016.254 0 .382-.003.012-.005.016-.015.02l-.007.004a.1.1 0 0 1-.03-.005l-.01-.003-.251-.077q-.01-.001-.02-.007c-.006 0-.011-.007-.018-.007a.3.3 0 0 1-.118-.02.25.25 0 0 0-.292.05l-.005.02c.04.06.108.075.168.094.245.08.453.23.68.348.052.03.062.092.057.152q-.006.05-.02.103l-.072.31a.13.13 0 0 1-.02.076c.004.168-.114.293-.17.437-.006.012-.011.017-.02.04a3 3 0 0 1-.128.299c0 .007-.01.017-.012.024v-.005q-.001.002-.002.005l-.005.01q-.003.003-.005.007c-.012.045-.02.093-.058.132a2 2 0 0 1-.187.432c-.007.012-.012.012-.017.036-.062.144-.127.317-.19.475q-.02.087-.04.17l-.008.015q-.001.002-.002.005c0 .005-.005.01-.007.014a.45.45 0 0 1-.036.192c-.012.039-.022.082-.034.12l-.005.02-.201.912c-.055.25-.077.504-.118.754-.038.235-.048.477-.106.708-.04.168-.136.324-.213.48-.072.146-.118.302-.207.444l-.007.015-.012.03q-.002.01-.005.018l-.007.033-.002.036q0 .018-.003.036v.036l-.002.072c-.02.257-.053.514-.041.773.002.048-.012.075-.058.09l-.057.023a2 2 0 0 0-.113.048l-.06.024c-.031.012-.05.022-.1.034v-.005s-.006.005-.01.005l-.133.055-.093.038a.6.6 0 0 1-.211.092l-.036.02a25 25 0 0 0-.474.212c-.081.024-.165.072-.247.11-.09.04-.175.075-.264.114q-.209.091-.418.181-.008.002-.016 0c-.128.048-.26.118-.38.173-.048.026-.117.053-.177.077-.11.043-.135.038-.16-.075-.071-.052-.078-.14-.104-.216-.027-.072-.048-.15-.072-.222-.005-.024-.017-.02-.017-.034-.024-.033-.024-.064-.036-.098l-.003-.017c-.007-.005-.007-.012-.01-.02l-.006-.016h.004c-.033-.1-.07-.2-.093-.3-.024-.067-.067-.132-.08-.202a.2.2 0 0 1 0-.07l.008-.033.004-.017c.02-.047.05-.093.075-.14.017-.037.03-.076.048-.114.017-.038.03-.067.048-.115.038-.072.062-.156.11-.24 0-.02.015-.04.02-.058.043-.146.09-.295.149-.437 0-.005-.005-.012-.003-.017.017-.086.098-.117.146-.168v.003c.024-.008.037-.022.049-.022.014-.024.028-.034.043-.048a2 2 0 0 0 .108-.15c.045-.066.086-.136.137-.203.016-.021.03-.055.057-.055q.006 0 .012.002c.039.01.027.055.022.084a.9.9 0 0 0 0 .327c.012.084.026.168.033.252l-.002.038a.6.6 0 0 1 .036.19c.02.082.036.16.06.242.072.15.125.3.173.454l.005-.002c.08.12.163.26.245.39a1 1 0 0 0 .074.09h.005v.02c.024 0 .036.052.072.004-.007-.024-.012-.024-.02-.024a.5.5 0 0 1-.03-.08c-.005-.016-.013-.035-.015-.05l-.012-.05q-.002-.012-.005-.024a.3.3 0 0 0-.01-.048l-.011-.075-.013-.074q-.009-.012-.007-.026-.002-.015-.01-.03-.004-.042-.011-.086l-.022-.172c-.002-.03-.012-.058-.014-.087a3.6 3.6 0 0 1 .036-.941h.014c.029-.144.058-.31.086-.466q.011.001.024.003-.014.391.075.775.002.009.002.017c.036.098.075.197.106.298q.01.032.022.062a.3.3 0 0 0 .055.094c.007.012.02.024.02.036.025.019.037.04.057.06q.02.026.04.053c.05.048.104.093.166.156l-.017-.14q-.008-.063-.016-.134s-.013-.007-.013-.012a1 1 0 0 0-.01-.108l-.04-.33q0-.013.002-.025c0-.01.003-.027.003-.027a3 3 0 0 1-.02-.415l-.002-.017a1.1 1.1 0 0 1-.002-.37c.005-.033.002-.07.005-.103q-.002-.01-.003-.02c0-.158.007-.32.055-.472l.003-.017c.012-.072.024-.158.036-.238q.019-.12.033-.24.006-.05.034-.05.016 0 .04.017l.05.03.076.049q.036.024.07.055.002.004.009.007l.017.012h.005v-.002c.168.084.26.226.374.358a.3.3 0 0 1 .11.15q.111.147.169.323.004.015.01.03c.002.01.007.006.009.03.02.024.03.055.043.084l.034.084.019.04q.007.014.017.024a.07.07 0 0 0 .04.024c.027-.088-.035-.172-.011-.256h.007c0-.024-.007-.025-.007-.037-.024-.156-.044-.31-.11-.453l-.001-.04c-.058-.143-.086-.29-.17-.416a.1.1 0 0 1-.037-.063c-.026-.024-.04-.053-.055-.081l-.038-.063v.017c0-.002-.005-.005-.005-.007v-.003a3 3 0 0 0-.22-.278l-.01-.01c-.01-.01-.02-.01-.03-.033-.057-.024-.112-.096-.17-.147-.007-.007-.014-.01-.02-.017-.004-.004 0-.01-.023-.016-.12-.082-.21-.183-.314-.255-.02-.024-.044-.01-.053-.048.31-.02.61.017.922.036v-.012h.002c.154.024.298.053.437.113.005 0 .01.007.017.007v.005c.096.022.187.065.278.108.02.01.044.04.065.012.017-.024-.01-.046-.024-.065q-.053-.075-.108-.151c-.007-.012-.02-.024-.02-.036-.071-.07-.126-.15-.19-.22l-.06-.063a1.2 1.2 0 0 1-.208-.17c-.012-.008-.024-.022-.036-.022-.03 0-.064-.034-.096-.056q-.047-.03-.096-.062-.018-.01-.036-.02c-.146-.055-.293-.105-.44-.16-.004 0-.013-.003-.013-.005 0 0-.013 0-.017-.002a.1.1 0 0 1-.072-.03.1.1 0 0 1-.027-.035l-.005-.012q-.011-.03-.007-.063a1 1 0 0 0-.012-.22q-.004-.031-.012-.063l-.014-.06-.015-.062-.024-.09s-.01-.002-.01-.01c-.023-.145-.08-.292-.124-.436l-.017-.057a.4.4 0 0 1-.057-.168q0-.028.002-.056l.002-.026q.006-.041.02-.082l.033-.108c0-.005 0-.017.003-.017h-.003c.03-.17.099-.314.147-.468 0-.002.005-.002.005-.005l.01-.01q.003-.002.004-.004a.27.27 0 0 0 .053-.185.3.3 0 0 0-.027-.103q-.025-.063-.06-.127c-.002-.005-.01-.01-.014-.012q-.004-.004-.005-.008a1.2 1.2 0 0 1-.21-.355l-.015-.038c-.005-.005-.005-.01-.008-.017l-.002-.007-.007-.017.002.002-.002-.005.012-.043q.007-.014.014-.026.008-.01.02-.022l.009-.007c.065-.094.125-.192.197-.283a.26.26 0 0 0 .05-.252c-.04-.137-.036-.14.1-.19.025-.01.316-.12.433-.156l.075-.03.019-.006.509-.19q.009-.003.017-.002c.14-.072.293-.118.44-.168.02-.007.037-.015.06-.02.025-.02.097-.035.12-.055.12-.038.217-.093.325-.117a.3.3 0 0 1 .167-.067m-5.432.603a.8.8 0 0 1 .23.036l.014.004c.259.08.523.142.77.26.04.019.084.038.113.077.16.115.307.247.43.405.19.245.38.492.557.773q-.016-.005-.034-.013v-.001a1 1 0 0 1-.185-.103 7 7 0 0 0-.674-.356 1.5 1.5 0 0 0-.331-.1 3.3 3.3 0 0 0-.91-.041c-.084.007-.17 0-.255 0q-.092 0-.091-.092c0-.235.012-.472-.06-.7-.015-.048.014-.068.055-.082a1.1 1.1 0 0 1 .372-.067zm-2.75.773c.423-.015.812.105 1.167.324q.198.121.363.284l.014.013q.184.185.32.41c.08.13.059.272.032.414-.072.406-.316.706-.592.987-.265.269-.596.444-.903.648-.435.29-.932.403-1.438.478-.632.093-1.273.103-1.906.187-.23.029-.464.048-.694.089a1.07 1.07 0 0 0-.68.41c-.062.084-.1.187-.16.303a.53.53 0 0 1 .026-.394 1.12 1.12 0 0 1 .533-.54c.415-.22.879-.262 1.323-.375.36-.091.73-.144 1.087-.242a7.2 7.2 0 0 0 1.426-.55c.24-.125.49-.252.656-.485a.73.73 0 0 0 .12-.557q-.008-.05-.027-.053t-.05.027c-.18.16-.367.314-.571.449-.32.206-.673.33-1.038.42-.58.144-1.166.266-1.764.31a4.8 4.8 0 0 0-1.239.242c-.34.118-.687.235-.96.49-.034.03-.075.057-.13.098l.007-.038-.026.019v-.005q.013-.01.024-.017a.6.6 0 0 1 .084-.2l.646-1.022a.3.3 0 0 1 .041-.053c.334-.33.653-.677 1.023-.965.614-.48 1.284-.855 2.055-1.02.187-.041.377-.07.57-.07.22-.002.443-.01.66-.017zm-7.632.022q.02 0 .048.009c.03.01.062.007.094.01.127.028.26.03.386.062.012 0 .017.002.034.01a2 2 0 0 1 .4.057c.145.02.29.036.433.06.033 0 .062-.002.093.017.005 0 .012-.002.012 0 .168.02.3.03.445.055h-.015v.005c.096.012.16.024.233.036.077.012.156.03.23.03h.003c.007 0 .012.004.017.004l.021.005c.048.002.067.028.075.07.038.227.07.455.117.683 0 .017.01.032.008.046l.02.11.061.332c0 .01 0 .03.003.036v.01c.024.143.05.273.074.41v.046a1.7 1.7 0 0 0-.3.46c-.03.075-.07.152-.1.226l-.006.003c-.024.076-.062.15-.098.223q-.004.001-.007.01c-.005.009-.008.024-.012.03v.003a2.5 2.5 0 0 1-.192.415c-.008.02-.024.039-.024.056-.024.09-.046.182-.092.266a.8.8 0 0 1-.074.226 2 2 0 0 1-.13.394c-.007.019-.019.036-.019.055l-.002.007c-.003.007-.005.02-.01.029a.1.1 0 0 1-.01.03l-.002.01-.038.742.021.008.094-.185c.031-.06.055-.123.09-.185.018-.043.05-.086.05-.13.071-.12.136-.24.21-.35.008-.012.022-.02.03-.043.062-.097.134-.224.208-.334.026-.043.054-.08.078-.123.016-.048.042-.055.064-.076.021-.022.033-.044.081-.065 0 .019.005.036.003.053l-.003.01q-.001.013-.007.028l-.002.01q-.003.01-.005.019l-.002.02c0 .006-.005.01-.003.018l-.003.015h.003c-.022.144-.02.307-.024.458 0 .007-.005.02-.005.024l.005-.002q.032.216.062.432h-.002c.003 0 .005.03.005.043.024.144.055.29.072.437l.002.017q.005.014.005.026c.024.116.11.195.163.296.039.055.08.12.116.168h.002v.002c.12.106.22.214.355.31.02 0 .039.024.058.024h-.002v.012c.048.005.088.043.139.029a.1.1 0 0 0 .026-.012c.007-.005.017-.01.02-.017.011-.022-.01-.034-.027-.041-.197-.125-.166-.33-.19-.521h.008v-.003c.048.046.081.09.122.14a.1.1 0 0 0 .024.026l.05.055q.051.055.108.1c.039.032.08.066.125.09.02.007.039.024.056.024h-.005c.144.07.269.137.4.206a.15.15 0 0 1 .08.036c.048.144.105.288.091.456.005 0 .01.017.012.03a.1.1 0 0 1-.002.03q.026.21-.003.42a.04.04 0 0 1-.002.039c-.003.005 0 .007-.002.012h.002c0 .14-.002.278-.038.415-.003.137-.046.27-.06.406q-.001.007-.005.017c-.008.026-.02.057.038.05v-.002c.13-.136.26-.267.38-.418v.01c.002-.048.03-.073.057-.096.05-.05.1-.13.151-.2q.075-.104.152-.206l.002-.012q.01-.037.029-.046.008-.004.014-.005H9.3a.1.1 0 0 1 .05.02 1 1 0 0 1 .077.048c.144.079.307.132.415.269.012.012.026.014.038.038.05.024.096.08.133.132l.038.036q.004.002.007.005c.19.16.204.246.067.46-.004.007-.012.014-.016.014a.2.2 0 0 1-.024.055l-.02.036-.01.017c-.035.058-.074.118-.088.185a.4.4 0 0 0-.012.168q.04.142.07.286.02.085.028.175c.02.142-.048.228-.168.288v-.002c-.024.002-.026.017-.038.024l-.02.014-.038.026a.2.2 0 0 0-.077.087c0 .007 0 .005-.002.01-.002.004 0 .014-.002.014h.007v.014c-.024.07-.036.12-.048.156q-.005.014-.01.024-.004.01-.01.017-.005.008-.009.012a.05.05 0 0 1-.024.012h-.007a.2.2 0 0 1-.05-.012q-.05-.019-.138-.048-.007-.002-.011-.005l-.012-.004-.027-.012h-.01v-.01h-.002c-.072-.024-.14-.038-.204-.065q-.059-.02-.12-.043c-.05-.012-.1-.036-.151-.036-.14-.048-.281-.072-.416-.12-.011 0-.019.002-.043 0v.002c-.096-.019-.173-.043-.264-.06-.089-.014-.122-.06-.113-.148.005-.037.003-.08.003-.116 0-.012-.003-.017-.003-.04-.014-.025-.036-.053-.055-.085l-.014-.026c-.012-.012-.036-.024-.036-.038-.024-.005-.015-.01-.022-.015-.074-.07-.053-.163-.043-.252l.002-.029.008-.055q.002-.016.004-.026c.039-.15.048-.29-.113-.38-.019-.012-.03-.024-.055-.04v.004a3 3 0 0 0-.225-.165c-.012-.024-.015-.029-.039-.039a1.4 1.4 0 0 1-.31-.227l-.074-.04h.01c-.015-.025-.032-.022-.044-.034-.019-.014-.036-.024-.06-.04-.12-.102-.283-.198-.413-.315-.045-.015-.074-.05-.11-.08v-.004c-.127-.09-.252-.176-.377-.272h.003c-.015 0-.015-.012-.039-.024-.072-.036-.144-.096-.206-.144-.02-.024-.039-.024-.058-.024-.058-.048-.108-.07-.156-.113-.02-.012-.036-.026-.06-.04a2.2 2.2 0 0 1-.396-.29l-.012-.011-.022-.024a.2.2 0 0 1-.038-.081v.019c-.087-.094-.144-.202-.216-.3l-.007-.015a.03.03 0 0 1-.005-.014l-.003-.026a.1.1 0 0 1 .024-.053q.002-.008.003-.02c.024-.153.108-.292.168-.436v-.037s0-.022-.003-.032l-.004-.014-.005-.005a.04.04 0 0 0-.017-.01h-.007a.1.1 0 0 0-.058.022.3.3 0 0 0-.055.043l-.02.015-.014.019-.007.01q-.001.002-.002 0-.001.002-.003 0v.002c-.048.055-.12.103-.182.154-.012.012-.034.026-.034.038v-.002h-.007c-.02.024-.045.024-.072.012l-.31-.137c-.024-.012-.036-.038-.04-.062l-.008-.032-.007-.026v.005c-.036-.168.022-.293.053-.437q.004-.018.005-.036c.024-.14.033-.288.074-.423v-.062c-.02-.154-.022-.305-.033-.46l.002-.078c-.014-.286-.033-.571-.043-.857-.022-.598-.07-1.193-.053-1.79a.64.64 0 0 0-.074-.315 2 2 0 0 0-.099-.164.26.26 0 0 1-.048-.237c.036-.14.063-.284.09-.425.008-.05.021-.084.06-.086zm-.166.38.005.015c.005.032-.007.065-.02.113a.12.12 0 0 1 0-.086zm10.715.003q.195-.004.38.024c.22.017.42.058.55.164q.143.061.28.144.33.2.662.403a.4.4 0 0 1 .118.108l.223.315c.012.016.03.036.015.057a.04.04 0 0 1-.02.014q-.026.004-.05-.011c-.098-.056-.2-.108-.298-.164a4.8 4.8 0 0 0-1.184-.46c-.107-.03-.208-.06-.323-.075l-.152-.034c-.004.003.005.012.017.024q.008.008.012.015a.1.1 0 0 0 .04.033l.02.01c.228.115.613.187.893.317l.058.029c.156.08.298.182.44.29l.268.207c.404.293.65.689.77 1.169q.006.021.01.043l.01.014c.02.03.024.065.017.096q.002.012.005.022c-.005.07-.06.04-.092.04a2.5 2.5 0 0 1-.61-.11h-.006c-.051-.016-.118-.04-.165-.054-.211-.075-.41-.163-.615-.238-.252-.09-.45-.261-.662-.413a8 8 0 0 1-1.001-.816.3.3 0 0 1-.08-.106l-.062-.153-.036-.094-.024-.06-.002-.005q-.004-.004-.003-.01v-.002l-.002-.01a.17.17 0 0 1 .007-.122q.002-.008.005-.014l.005-.017.004-.014q.003-.01.005-.017l.003-.015.002-.017.003-.014.002-.017.002-.014.003-.017.002-.014.003-.017q0-.008.002-.015 0-.008.003-.016v-.266c-.003-.082.026-.114.108-.111q.12.002.243-.005l.075.004q.06-.004.122-.005m.284.532.028.008H15c-.012.008-.028.005-.033.02q-.005-.028.003-.028m.88.342.012.006h.003zm-1.908.177.002.003q.01.004.022.024c.076.154.182.28.3.399.124.12.259.23.389.348q.403.363.818.713c.178.15.392.228.62.288.518.132 1.049.182 1.575.254.139.02.264.065.374.156h-.007q.014.01.024.02c-.296-.043-.59-.04-.886-.046-.324-.007-.641.03-.96.067a1 1 0 0 1-.336-.026c-.308-.07-.598-.195-.89-.317-.328-.14-.601-.353-.861-.588l-.057-.055a1 1 0 0 1-.205-.285l-.002-.006c-.09-.212-.085-.448-.016-.708q.029-.105.062-.21.012-.034.034-.031m-.248 1.18c.065.233.233.396.375.573l.029.039.028.038a.6.6 0 0 0 .106.094c.017.012.03.02.046.033l.02.017a10 10 0 0 0 .539.396l.329.229q.223.153.468.266.06.028.123.055.186.079.379.14l.02.007c.08.02.167.028.25.038q.049.004.092.01a.2.2 0 0 1 .06.024.4.4 0 0 1 .068.05c.074.067.144.163.148.22q0 .015-.002.025-.002.006-.005.01c-.01.016-.024.03-.033.048q-.046.074-.085.153l-.011.027a.31.31 0 0 0 .002.26c.115-.114.218-.236.293-.376a1 1 0 0 0 .086-.201c.01-.027.003-.058.01-.084.01-.03-.024-.07-.01-.09q.001 0 .005-.004l.014-.007q.016-.004.027-.005.027-.004.055-.005.072 0 .14.022c.028.01.019.045.016.072v.005c-.005.086-.04.165-.072.242l-.024.055a1.7 1.7 0 0 1-.192.375c-.118.156-.254.302-.475.31h-.063c-.038 0-.077.01-.115.012a.085.085 0 0 0-.086.057c-.017.039-.04.072-.058.11l-.007.017a1.5 1.5 0 0 1-.408.57q-.12.106-.25.203a2 2 0 0 1-.468.224l-.036.014-.034.015-.02.007q-.016.004-.03.01c-.036.014-.065.035-.046.09.02.06.063.077.118.08q.019 0 .04-.003a.6.6 0 0 0 .15-.033c.048-.017.096-.04.146-.06q.05-.024.103-.041c-.03.122-.045.235-.084.34l-.021.054-.09.192q-.028.064-.062.125c-.115.23-.245.45-.405.655a1.7 1.7 0 0 1-.356.34l-.103.073a3 3 0 0 1-.38.205l-.064.03-.053.02-.043.018q-.06.023-.123.045a3 3 0 0 1-.168.053 5 5 0 0 1-.57.134q-.01.002-.02.003-.082.014-.163.026-.086.013-.176.024a2.2 2.2 0 0 1-.605-.02l-.028-.008a.7.7 0 0 1-.145-.06c-.062-.034-.12-.07-.182-.1a2 2 0 0 1-.13-.073 2 2 0 0 1-.16-.106.63.63 0 0 1-.233-.278 2 2 0 0 0-.092-.194q-.016-.029-.03-.053a3 3 0 0 0-.277-.367 3 3 0 0 0-.125-.142q-.03-.036-.062-.07a7 7 0 0 0-.26-.276l-.067-.067a3 3 0 0 0-.364-.302 3 3 0 0 0-.303-.192l-.06-.04a1.58 1.58 0 0 1-.63-.761c-.043-.093-.107-.122-.22-.124a.6.6 0 0 1-.252-.048l-.002-.002a.5.5 0 0 1-.132-.084l-.026-.016c-.022-.026-.038-.058-.058-.09a5 5 0 0 1-.386-.658q0 .004.003.008l-.006-.013.003.005a4 4 0 0 0-.073-.196l-.036-.086a.4.4 0 0 1-.014-.154l.007-.031q.002-.008.005-.015l.012-.03a.5.5 0 0 1 .127-.14l.067-.05q.07-.05.14-.094.106-.065.218-.123c.271-.14.56-.238.857-.314q.024-.007.053-.012c.033-.008.07-.01.105-.015q.054-.004.106-.005l.106-.002c.016 0 .036 0 .052-.002a18 18 0 0 0 .9-.063q.27-.026.54-.055a3.5 3.5 0 0 0 1.127-.324q.055-.028.11-.055l.063-.034c.144-.077.288-.151.427-.233.014-.02.03-.026.055-.033l.01-.003v.012a.06.06 0 0 1-.02.034l-.021.014c-.14.178-.331.3-.497.45a.4.4 0 0 0-.05.045q-.078.065-.166.137c.209 0 .41-.024.598-.08a1.65 1.65 0 0 0 .869-.6q.155-.205.278-.482m-3.265.016a1.2 1.2 0 0 1-.343.109c-.56.139-1.13.22-1.697.326a2.6 2.6 0 0 0-1.105.487q-.029.024-.062.043-.038.025-.043-.01-.004-.007-.003-.018c-.01-.144.034-.214.166-.274q.27-.124.54-.252c.235-.108.487-.142.742-.168.396-.043.792-.094 1.19-.14l.524-.086zm2.386 1.245h-.026c-.038.01-.036.05-.036.08.003.1.007.202.02.303.01.11.047.219.112.307a.84.84 0 0 0 .51.334c.155.036.155.038.17.2.007.069.016.13.08.17.114.067.227.137.364.146.084.007.17.012.242.068a.6.6 0 0 0 .32.098c.084.007.17.01.254.024.067.012.113-.01.16-.05.239-.197.474-.397.697-.617-.026-.03-.065-.04-.118-.012a6 6 0 0 0-.415.223.3.3 0 0 1-.113.048 4 4 0 0 1-.722.074.7.7 0 0 1-.368-.13c-.067-.043-.134-.105-.146-.201.036-.012.07.002.103.007.127.017.252.063.382.055.312-.02.605-.113.898-.213l.283-.103c.043-.015.055-.03.017-.07-.046-.05-.096-.04-.147-.034a5.6 5.6 0 0 1-1.87-.045c-.18-.034-.372-.046-.442-.27q-.031-.09-.05-.182a.37.37 0 0 0-.094-.17.1.1 0 0 0-.065-.04m-.573.065c-.048 0-.08.05-.103.093-.06.103-.137.196-.207.292-.108.147-.26.178-.418.154a18 18 0 0 0-1.718-.18c-.03-.002-.058-.01-.082.01-.183.134-.367.264-.483.468q.011.005.02.007.027-.004.055-.01.447-.111.922-.072c.398.034.792.113 1.188.168.053.008.106.01.156.036.12.063.18.173.226.29.07.18.09.373.103.565.01.15-.022.278-.144.38a.56.56 0 0 0-.2.278c.154 0 .286.026.387.156.063.08.144.149.223.218a.38.38 0 0 0 .586-.081c.058-.094.113-.19.175-.281.087-.127.17-.264.325-.32.093-.03.052-.076.02-.115-.061-.08-.177-.081-.28-.02-.16.097-.266.239-.381.376a.8.8 0 0 1-.113.115c-.058.04-.108.043-.16-.01-.056-.057-.114-.117-.176-.168-.053-.043-.063-.082-.032-.144a.73.73 0 0 0 .082-.413c-.03-.312-.08-.62-.3-.867-.024-.026-.024-.04.01-.064a.94.94 0 0 0 .408-.701c.007-.075-.007-.135-.067-.156zm4.46.035c.206 0 .388.08.567.182q-.006 0-.012.003l.03.017c-.27.04-.54.06-.81.03-.084-.01-.168-.026-.255-.023-.17.005-.307-.084-.451-.161h.017q-.018-.01-.036-.02.037.003.074.005.042.006.084.015c.238.05.468-.02.704-.043a1 1 0 0 1 .089-.005zm-8.689.714-.016.004c-.05.019-.098.048-.112.115-.048.223.055.437.278.552.1.053.178.127.226.23.016.037.019.106.072.094s.01-.077.021-.103c.008-.135-.019-.25-.127-.32-.08-.05-.11-.12-.14-.201-.038-.106-.047-.223-.134-.307-.02-.021-.036-.064-.069-.064zm1.843.354c-.11.027-.236.053-.353.106q-.123.057-.015.139c.043.034.087.05.14.03a.47.47 0 0 1 .494.097.51.51 0 0 0 .523.087c.106-.036.197-.096.293-.15a.3.3 0 0 1 .113-.04q.216-.022.43-.053c.038-.005.098.01.108-.036.01-.048-.046-.077-.08-.108-.016-.017-.045-.02-.07-.026a.8.8 0 0 0-.436-.015 2.1 2.1 0 0 1-.888 0c-.08-.02-.163-.02-.26-.03zm6.903.889q.008 0 .015.007l.012.014.008.005c.043.034-.007.11-.02.168q-.044.251-.086.502c-.007.048-.012.098-.048.165l-.007-.043-.012.024a5 5 0 0 1-.075-.706c-.002-.053.034-.065.068-.077.048-.016.107-.066.145-.06zm-3.22.902-.022.01c-.19.105-.404.11-.613.137-.088.012-.2-.015-.264.05-.158.156-.293.09-.432-.02q-.01-.008-.024-.014c-.206-.11-.413-.15-.624-.005a.34.34 0 0 1-.267.068c-.074-.02-.131-.015-.19.038-.028.027-.066.048-.1.07-.094.062-.094.072-.007.14.02.018.043.025.067.033.2.06.387.016.562-.08.182-.098.353-.093.518.032.152.112.312.115.48.045a3 3 0 0 1 .653-.213c.034-.005.068-.017.099.01.096.088.187.026.279-.01.036-.015.04-.044.038-.08-.007-.076-.065-.12-.098-.18q-.022-.037-.054-.03zm-4.717.07q.014 0 .032.017.057.055.113.11l.015.014q.027.027.012.06l-.224.45-.024-.008q.001-.006.003-.012c.048-.197.029-.4.055-.6q.004-.03.018-.03zm3.9.588c-.238.007-.48.046-.703.122-.185.063-.392.106-.488.32-.055.124-.048.256-.086.38.017.1.017.197.074.281.017.024.024.063.065.06.043-.002.058-.038.07-.067.043-.09.053-.194.08-.29.047-.156.119-.28.282-.35q.256-.107.516-.206a.2.2 0 0 1 .1-.012c.215.03.438.02.628.146a.08.08 0 0 0 .062.012c.072-.017.08-.04.036-.098a.72.72 0 0 0-.636-.298m-2.218.741.014.017c.094.117.187.218.25.336.15.29.374.501.662.655.135.072.256.172.414.19l.003.001h.018c.017 0 .04-.004.036.023-.003.014-.017.014-.031.012h-.007q-.008 0-.015-.003c-.167.005-.33.033-.493.067q-.127.027-.255.058l-.243.055h-.003c-.033.008-.048.024-.043.058.005.04.02.062.067.072a1.3 1.3 0 0 0 .274.017q.177-.005.353-.034a2.6 2.6 0 0 1 .778-.002c-.43.07-.785.312-1.174.475-.202.084-.358.245-.55.348-.014.017-.022.044-.036.06-.031.04-.036.118-.087.11h-.004c-.005 0-.01.003-.015 0a.6.6 0 0 1-.266-.086c-.03-.019-.022-.055-.022-.089v-.453c0-.032.012-.067-.019-.09-.106-.066-.08-.182-.106-.278-.01-.038.017-.057.039-.08l.278-.31c.063-.068.089-.143.043-.224-.086-.163-.072-.32-.002-.485.055-.13.091-.267.142-.42m4.585.177q.008.004.012.008l.007-.008c.039.022.04.05.05.075q.152.372.3.744c.025.055.03.103-.006.15a.5.5 0 0 0-.077.49c.067.205.019.347-.183.448a.23.23 0 0 1-.12.036.12.12 0 0 1-.088-.03c-.375-.259-.821-.345-1.242-.494-.06-.02-.117-.043-.18-.057-.072-.017-.067-.065-.057-.116.007-.036.026-.04.045-.038.02-.005.046.01.063.014.48.12.965.216 1.428.396q.024.01.043.013c.034-.005.044-.037.039-.082-.01-.108-.02-.214-.144-.27a2.8 2.8 0 0 0-.975-.234q-.074-.006-.15-.01c.239-.144.5-.22.714-.406a1 1 0 0 0 .075-.067l.398-.482zm-1.882 1.133h.02c.03-.002.054.005.057.053 0 .044.01.082-.06.092a2 2 0 0 1-.274.021q-.14 0-.278-.03c-.05-.013-.07-.047-.065-.087.002-.027.02-.027.04-.027a.1.1 0 0 1 .039.003h.18a1.1 1.1 0 0 0 .34-.024zm.036.396q.009 0 .02.005l.844.35c-.132.11-.254.207-.374.303-.221.178-.44.358-.646.553-.05.048-.09.05-.147.014a9 9 0 0 0-1.097-.545c-.165-.07-.34-.098-.511-.158.02-.036.055-.036.084-.046.367-.137.742-.26 1.102-.42.094-.043.187-.007.278.005.137.02.27.021.394-.046a.1.1 0 0 1 .053-.015m-2.161.698a.3.3 0 0 1 .082.018c.197.077.38.185.569.274a.04.04 0 0 1 .029.01q.005.002.005.011v.005q-.002.003-.003.005-.004.004-.007.003l-.01-.003a.03.03 0 0 1-.012-.012l-.862-.214c.074-.059.133-.1.209-.097m8.17.535c-.142-.004-.26.062-.372.15-.03.022-.046.048-.094.017-.105-.072-.206-.053-.295.04a.4.4 0 0 0-.103.186c-.125.504-.252 1.006-.372 1.512-.041.17.048.255.223.23.158-.026.238-.117.264-.32a4 4 0 0 1 .11-.596c.15.187.29.362.433.538.139.17.29.321.494.412.144.065.269.027.382-.074a.19.19 0 0 0 .055-.206.16.16 0 0 0-.158-.125.25.25 0 0 1-.152-.07 2.3 2.3 0 0 1-.362-.396c-.09-.12-.094-.12.026-.202.252-.173.34-.417.322-.71-.014-.219-.132-.346-.34-.38a1 1 0 0 0-.061-.006m-10.733.03c-.04 0-.077.02-.097.075-.019.05-.053.043-.091.038a.75.75 0 0 0-.665.22c-.38.37-.574.813-.552 1.353.014.358.22.53.569.451.689-.16 1.224-.835 1.253-1.582.007-.192-.168-.47-.34-.538a.2.2 0 0 0-.077-.016zm-1.93.058a.94.94 0 0 0-.613.238c-.346.302-.547.693-.646 1.138a.64.64 0 0 0 .075.482c.07.118.158.161.292.135a3.1 3.1 0 0 0 .87-.305.9.9 0 0 0 .225-.168.3.3 0 0 0 .084-.204c0-.075-.033-.1-.103-.104-.07-.002-.13.024-.192.046-.207.075-.408.166-.622.22-.105.027-.14.003-.163-.105a.3.3 0 0 1 .005-.122c.04-.168.098-.33.187-.483a.8.8 0 0 1 .245-.283c.14-.089.283-.137.442-.04.052.03.103.016.15-.013a.35.35 0 0 0 .15-.2q.024-.076-.044-.117a.8.8 0 0 0-.343-.115zm9.2.07a.7.7 0 0 0-.517.206c-.156.161-.183.324-.084.526.074.151.177.28.278.415.072.094.149.187.216.286.048.07.024.125-.058.151a.2.2 0 0 1-.14-.005 1.1 1.1 0 0 1-.373-.23.24.24 0 0 1-.082-.125c-.012-.074-.053-.108-.125-.115-.081-.007-.156-.007-.204.08-.08.138-.057.263.087.393.276.245.605.353.933.38.3.004.485-.267.387-.522-.043-.115-.118-.216-.19-.314-.12-.159-.245-.313-.357-.476-.09-.125-.048-.216.098-.264.135-.043.25-.005.36.08.13.1.24.047.269-.116.017-.086-.03-.144-.09-.194a.68.68 0 0 0-.41-.157zm1.905.06q-.206-.006-.41.016c-.164.02-.32.065-.38.248-.002.01-.014.024-.024.026-.187.048-.252.202-.302.358-.106.346-.2.696-.298 1.042-.024.084.01.14.08.182.054.034.11.032.172.015.324-.08.648-.166.987-.142a.26.26 0 0 0 .127-.029.24.24 0 0 0 .117-.24c-.014-.09-.086-.117-.163-.13a2 2 0 0 0-.177-.016 4 4 0 0 0-.62.052c.03-.228.048-.242.264-.242.16 0 .322-.01.473-.072.1-.043.166-.113.176-.226.007-.076-.025-.122-.104-.124a2 2 0 0 0-.19.002l-.453.04c.024-.052.036-.1.062-.136.044-.062-.007-.178.084-.209.075-.024.164-.007.245-.01.214-.004.427-.007.634-.074a.35.35 0 0 0 .192-.13c.07-.108.043-.18-.082-.185q-.204-.01-.41-.017zm-6.664.008c-.071-.003-.13.042-.185.093a4 4 0 0 0-.392.434l-.367.456c-.02.024-.04.07-.08.05-.03-.014-.018-.055-.014-.086q.016-.164.036-.329c.015-.144.034-.288.01-.432-.031-.173-.156-.22-.295-.113a1 1 0 0 0-.094.091 3 3 0 0 0-.298.414c-.225.348-.432.71-.703 1.027-.05.06-.103.118-.149.182-.048.072-.067.154-.022.23.041.068.11.092.188.087.081-.004.125-.064.168-.122l.626-.852c.012-.015.017-.044.053-.034a1 1 0 0 0-.012.11c-.01.137-.038.274-.01.413.034.16.16.224.306.152a1 1 0 0 0 .204-.152q.176-.168.33-.362c.114-.144.229-.29.349-.447.036.12.022.228.017.336-.012.188-.048.375-.012.565.024.117.091.187.187.194a.44.44 0 0 0 .278-.07c.125-.079.137-.237.02-.343a.2.2 0 0 1-.063-.113c-.026-.13-.004-.257.017-.384.039-.245.115-.485.103-.737-.004-.098-.02-.19-.12-.237a.2.2 0 0 0-.076-.02zm8.04.19c.117-.01.175.063.14.176a.4.4 0 0 1-.07.132c-.128.161-.291.27-.495.353a1.6 1.6 0 0 1 .11-.425c.062-.134.163-.223.315-.237zm-6.651.02a.3.3 0 0 1 .15.034c.076.043.098.146.045.233a.7.7 0 0 1-.185.184 1.5 1.5 0 0 1-.483.243c.07-.216.128-.415.245-.586a.29.29 0 0 1 .228-.108m1.6.091a.5.5 0 0 1 .213.034c.113.046.15.1.149.27a1.26 1.26 0 0 1-.425.818.56.56 0 0 1-.324.136c-.147.012-.262-.08-.247-.228.028-.32.115-.624.33-.876a.44.44 0 0 1 .304-.154m-5.882.003a.5.5 0 0 1 .218.036c.11.043.149.098.144.262a1.24 1.24 0 0 1-.422.818.6.6 0 0 1-.325.14c-.15.011-.266-.082-.252-.233.03-.315.116-.613.325-.86a.44.44 0 0 1 .312-.163"/></svg>