<svg xmlns="http://www.w3.org/2000/svg" viewBox="0 0 24 24"><path d="M12.291 17.883a11.73 11.73 0 0 1-6.174 3.034 2.46 2.46 0 0 1-2.165-.746 12.094 12.094 0 0 1 0-16.358 2.46 2.46 0 0 1 2.173-.746 11.67 11.67 0 0 1 6.29 3.14 27.2 27.2 0 0 0-.698 6.1 27.8 27.8 0 0 0 .574 5.576m9.897-3.938a1.39 1.39 0 0 0-1.525.527A24.7 24.7 0 0 1 8.75 23.41a35.4 35.4 0 0 0 6.429.59 36 36 0 0 0 4.46-.279 3.6 3.6 0 0 0 3.034-2.698c.47-1.884.645-3.883.517-5.813a1.39 1.39 0 0 0-1.001-1.265M20.663 9.61a1.394 1.394 0 0 0 2.526-.746 19.2 19.2 0 0 0-.517-5.888A3.6 3.6 0 0 0 19.638.28 36 36 0 0 0 15.178 0a35.4 35.4 0 0 0-6.429.59 24.64 24.64 0 0 1 11.914 9.02"/></svg>