<svg xmlns="http://www.w3.org/2000/svg" viewBox="0 0 24 24"><path d="M11.992 0C5.374 0 .008 5.381.008 12c0 6.633 5.35 12 11.984 12s12-5.367 12-12-5.381-12-12-12m0 2.504c5.247 0 9.512 4.264 9.512 9.496s-4.265 9.51-9.512 9.51S2.496 17.262 2.496 12a9.493 9.493 0 0 1 9.496-9.496m-.059 2.385c-3.935 0-7.127 3.176-7.127 7.127s3.192 7.14 7.127 7.14c1.968 0 3.756-.79 5.038-2.088a1.89 1.89 0 0 0 0-2.683 1.87 1.87 0 0 0-2.668 0 3.33 3.33 0 0 1-2.37.984c-1.848 0-3.34-1.52-3.34-3.353s1.492-3.34 3.34-3.34V8.66c.925 0 1.758.373 2.37.984.73.731 1.922.731 2.668 0s.745-1.923 0-2.683a7.1 7.1 0 0 0-5.038-2.072m.059 5.754c-.76 0-1.371.612-1.371 1.373s.61 1.37 1.37 1.37 1.372-.625 1.372-1.37-.61-1.373-1.371-1.373"/></svg>