<svg xmlns="http://www.w3.org/2000/svg" viewBox="0 0 24 24"><path d="M23.275 5.265c0-.852-.132-1.703-.36-2.555-.328-1.016-1.081-1.834-2.031-2.194a9.25 9.25 0 0 0-6.092 0 3.17 3.17 0 0 0-2.03 2.194 9.53 9.53 0 0 0 0 5.077c.326 1.015 1.08 1.834 2.03 2.194a8 8 0 0 0 3.046.491c1.049 0 2.063-.196 3.046-.491a3.17 3.17 0 0 0 2.031-2.194c.229-.819.36-1.67.36-2.522m-3.308 0c0 .393-.065.852-.196 1.212-.164.524-.623.95-1.18 1.081a4.2 4.2 0 0 1-1.571 0 1.47 1.47 0 0 1-1.18-1.081 4.03 4.03 0 0 1 0-2.489c.163-.524.622-.95 1.18-1.081a4.2 4.2 0 0 1 1.571 0 1.48 1.48 0 0 1 1.18 1.081q.195.687.196 1.277m-8.745 13.79a9.55 9.55 0 0 0 0-5.077c-.327-1.016-1.081-1.834-2.03-2.195a9.25 9.25 0 0 0-6.092 0 3.17 3.17 0 0 0-2.031 2.195 9.55 9.55 0 0 0 0 5.077c.328 1.015 1.081 1.834 2.031 2.193a9.25 9.25 0 0 0 6.092 0 3.4 3.4 0 0 0 2.03-2.193m-2.948-2.523c0 .393-.066.852-.197 1.212a1.64 1.64 0 0 1-1.179 1.081 4.2 4.2 0 0 1-1.572 0 1.48 1.48 0 0 1-1.179-1.081 4.04 4.04 0 0 1 0-2.489 1.64 1.64 0 0 1 1.179-1.081 4.2 4.2 0 0 1 1.572 0 1.48 1.48 0 0 1 1.179 1.081q.197.639.197 1.277m0-11.3h3.308c0-.851-.131-1.703-.36-2.521-.327-1.016-1.081-1.834-2.03-2.194a9.25 9.25 0 0 0-6.092 0C2.084.909 1.331 1.728 1.068 2.743a9.55 9.55 0 0 0 0 5.077c.328 1.015 1.081 1.834 2.031 2.194.982.36 1.998.492 3.046.492s2.063-.197 3.046-.492a3.17 3.17 0 0 0 2.03-2.194c.033-.131.065-.295.131-.426L8.241 5.953c-.033.196-.065.36-.131.557-.163.524-.622.95-1.179 1.081a4.2 4.2 0 0 1-1.572 0A1.48 1.48 0 0 1 4.18 6.51a4.04 4.04 0 0 1 0-2.489c.164-.524.622-.95 1.179-1.082a4.2 4.2 0 0 1 1.572 0A1.48 1.48 0 0 1 8.11 4.021c.098.425.164.818.164 1.211m4.421 8.779a9.4 9.4 0 0 0-.36 2.555V24h3.308v-7.468c0-.393.065-.852.196-1.212.163-.524.622-.95 1.18-1.081a4.2 4.2 0 0 1 1.571 0 1.48 1.48 0 0 1 1.18 1.081 4.04 4.04 0 0 1 0 2.489c-.164.523-.623.95-1.146 1.08a4.2 4.2 0 0 1-1.572 0c-.099-.031-.229-.064-.327-.098l1.113 3.079c1.049 0 2.063-.197 3.046-.491a3.18 3.18 0 0 0 2.031-2.194 9.55 9.55 0 0 0 0-5.077c-.328-1.016-1.081-1.834-2.031-2.195a9.25 9.25 0 0 0-6.092 0c-1.016.263-1.769 1.082-2.097 2.098"/></svg>