<svg xmlns="http://www.w3.org/2000/svg" viewBox="0 0 24 24"><path d="M17.637 8.66c0-.083-.034-.115-.118-.111-.124.004-.249 0-.373 0a1.5 1.5 0 0 0-1.015.402 2.5 2.5 0 0 0-.462.594q-.079.132-.159.263l-.021-.005q-.006-.045-.008-.092l-.01-.89c0-.065-.008-.11-.094-.112-.477-.01-.953-.016-1.43-.008-.095.001-.118.037-.119.127a385 385 0 0 0 0 6.369c0 .075.028.09.096.09.48.009.96.014 1.439 0 .17-.004.173-.006.175-.18.012-1.167.021-2.334.036-3.5a1.26 1.26 0 0 1 1.011-1.258 3.5 3.5 0 0 1 .938-.052c.095.004.115-.025.114-.114-.003-.29.003-.58.003-.87 0-.217-.004-.435-.003-.652M3.296 9.995a.97.97 0 0 1 .8.475 1.6 1.6 0 0 1 .196.498c.015.07.047.085.111.083.256-.003.511 0 .766 0 .256 0 .511-.005.767.003.095.002.118-.028.109-.117a2.44 2.44 0 0 0-1.4-2.076 3.57 3.57 0 0 0-2.205-.264A2.6 2.6 0 0 0 .493 9.938a4 4 0 0 0-.465 1.671 5 5 0 0 0 .149 1.846 2.6 2.6 0 0 0 1.404 1.713 3.58 3.58 0 0 0 2.269.212c1.391-.289 2.016-1.34 2.185-2.36.015-.088-.002-.127-.108-.125-.463.006-.926.002-1.388.002-.223 0-.223 0-.282.22a1.16 1.16 0 0 1-.985.91 1.14 1.14 0 0 1-1.144-.47 1.8 1.8 0 0 1-.272-.675 5.6 5.6 0 0 1-.062-1.114 2.4 2.4 0 0 1 .084-.655c.155-.604.563-1.18 1.418-1.119m7.91-1.231A3.8 3.8 0 0 0 8.57 8.76a2.87 2.87 0 0 0-1.836 1.862 4.3 4.3 0 0 0-.042 2.618 2.88 2.88 0 0 0 1.862 1.991 3.8 3.8 0 0 0 2.54.043 2.9 2.9 0 0 0 1.838-1.644 3.9 3.9 0 0 0 .315-1.626 5 5 0 0 0-.098-.973 2.96 2.96 0 0 0-1.942-2.268m.056 4.367a1.3 1.3 0 0 1-1.258.865 1.7 1.7 0 0 1-.733-.091 1.42 1.42 0 0 1-.826-.912 3 3 0 0 1-.137-1.076 2.46 2.46 0 0 1 .234-1.14 1.34 1.34 0 0 1 1.193-.777 1.7 1.7 0 0 1 .744.09 1.3 1.3 0 0 1 .786.776 3.1 3.1 0 0 1-.003 2.265zm12.666 1.875a.5.5 0 0 1-.203-.228 1.05 1.05 0 0 1-.093-.462c-.025-1.342-.004-2.686-.038-4.028a1.51 1.51 0 0 0-.547-1.14 2.5 2.5 0 0 0-1.126-.515 5.4 5.4 0 0 0-1.71-.056 2.7 2.7 0 0 0-1.073.32c-.708.403-.985 1.063-1.083 1.83-.011.088.022.101.099.1q.653-.003 1.305-.001c.237 0 .237 0 .297-.225a.85.85 0 0 1 .748-.661 3 3 0 0 1 .784.02.69.69 0 0 1 .622.717.47.47 0 0 1-.285.441 1.5 1.5 0 0 1-.42.101c-.592.1-1.19.161-1.775.294a1.92 1.92 0 0 0-1.386 1.032 2.3 2.3 0 0 0-.194 1.282 1.7 1.7 0 0 0 .89 1.373 2.7 2.7 0 0 0 2.783-.285q.186-.157.368-.318c.056-.048.076-.04.086.035a3.4 3.4 0 0 0 .121.575.11.11 0 0 0 .125.09c.273-.005.546-.002.818-.002v-.008c.273 0 .546.002.818-.002.049 0 .12.023.131-.062.01-.08.034-.167-.062-.217m-2.584-1.072a1.7 1.7 0 0 1-1.068.289.78.78 0 0 1-.698-.984.82.82 0 0 1 .585-.65 6 6 0 0 1 .815-.187 2.7 2.7 0 0 0 .865-.267c.056-.033.066-.003.066.042v.435h.004v.28a1.18 1.18 0 0 1-.569 1.042"/></svg>