<svg xmlns="http://www.w3.org/2000/svg" viewBox="0 0 24 24"><path d="M19.734 11.603a5.665 5.665 0 0 1-1.44 5.033 5.66 5.66 0 0 1-3.789 1.741 5.67 5.67 0 0 1-3.979-1.365 5.66 5.66 0 0 1-1.921-3.684 5.67 5.67 0 0 1 1.17-4.057 5.67 5.67 0 0 1 3.574-2.095 5.67 5.67 0 0 1 4.123.97 5.67 5.67 0 0 1 2.262 3.457M24 6v12a6 6 0 0 1-6 6H6a6 6 0 0 1-6-6V6a6 6 0 0 1 6-6h12a6 6 0 0 1 6 6m-2.172 3.483a9.17 9.17 0 0 0-5.973-5.849c.159.423.239.874.238 1.326a6.6 6.6 0 0 0-4.632-2.564 6.6 6.6 0 0 0-3.265.538 3.78 3.78 0 0 1 2.03 1.533 6.63 6.63 0 0 0-5.611.561 6.6 6.6 0 0 0-1.784 1.581 3.79 3.79 0 0 1 3.262.843 3.78 3.78 0 0 1-2.778 1.039q.232.377.544.689l-.031.051a3.8 3.8 0 0 0-1.68 1.496 3.754 3.754 0 0 0-.029 3.809 1.53 1.53 0 0 1 1.622-1.686c.921.071 1.576.983 1.351 1.88a1.53 1.53 0 0 1-1.386 1.142 6.62 6.62 0 0 0 4.08 3.146 6.6 6.6 0 0 0 1.866.206 3.73 3.73 0 0 1-1.637.711 9.16 9.16 0 0 0 9.282.587 9.2 9.2 0 0 0 3.184-2.684 9.14 9.14 0 0 0 1.676-3.876 9.24 9.24 0 0 0-.329-4.479"/></svg>