<svg xmlns="http://www.w3.org/2000/svg" viewBox="0 0 24 24"><path d="M13.072.412s1.913 3.881 1.563 5.5c0 0 4.987 1.612 5.54 4.272 0 0 2.73-3.594-7.103-9.772M7.908 4.067s1.678 2.625 1.417 4.35l2.818 1.067a17.6 17.6 0 0 0-.991-3.248zm3.784.691a14.16 14.16 0 0 1 .163 13.794 17.7 17.7 0 0 0 .594-6.585c-.017-.186-.031-.368-.053-.55L6.908 7.759a14.1 14.1 0 0 1 1.133 4.465 14 14 0 0 1-1.305 7.347 17.8 17.8 0 0 0 .442-5.988 1 1 0 0 1-.022-.243l-5.133-2.726a11.6 11.6 0 0 1 1.075 3.93A11.79 11.79 0 0 1 0 23.587c21.91-9.29 22.795-3.173 22.795-3.173s1.656-2.164 1.085-4.51C23.128 12.79 11.692 4.759 11.692 4.759zM3.04 7.245s1.629 2.09 1.363 3.815l2.567.637a20 20 0 0 0-.863-2.788z"/></svg>