<svg xmlns="http://www.w3.org/2000/svg" viewBox="0 0 24 24"><path d="M12 1.772a2.045 2.045 0 1 0 0 4.09 2.045 2.045 0 0 0 0-4.09M7.364 5.453a2.047 2.047 0 0 0 0 4.092 2.045 2.045 0 0 0 0-4.092m9.273 0a2.047 2.047 0 0 0 0 4.092 2.045 2.045 0 0 0 0-4.092M1.347 7.637a1.32 1.32 0 0 0-.93.36 1.325 1.325 0 0 0-.145 1.769c.66.864 1.993 2.604 2.652 3.465a5.4 5.4 0 0 1 1.112 3.283c0 1.519.71 2.966 1.949 3.841.767.543 1.614.982 2.515 1.3v-3.933c0-.592.191-1.17.472-1.652a4.15 4.15 0 0 0-1.198-2.496L2.342 8.106c-.261-.29-.625-.469-.996-.47m21.31 0a1.32 1.32 0 0 0-.917.39l-4.545 4.575-.968.974a4.16 4.16 0 0 0-1.199 2.494c.265.455.454.993.472 1.549v4.039a10.3 10.3 0 0 0 2.516-1.303c1.238-.875 1.949-2.323 1.949-3.842a5.4 5.4 0 0 1 1.111-3.285l2.652-3.462a1.327 1.327 0 0 0-.144-1.77 1.31 1.31 0 0 0-.928-.36M12 9.135a2.047 2.047 0 0 0 0 4.092 2.045 2.045 0 0 0 0-4.092m.002 5.728c-1.658 0-3.002 1.28-3.002 2.86v4.091a11.1 11.1 0 0 0 6 0v-4.18c-.049-1.538-1.371-2.77-2.998-2.77"/></svg>