<svg xmlns="http://www.w3.org/2000/svg" viewBox="0 0 24 24"><path d="M4.693 13.638c-.497.568-1.363.63-1.712.63-.648 0-1.144-.164-1.474-.488-.313-.307-.478-.76-.489-1.346-.025-1.358.744-2.762 2.074-2.762.635 0 1.124.455 1.311.644a.34.34 0 0 0 .282.099.38.38 0 0 0 .241-.159c.068-.087.135-.237.138-.401s-.057-.344-.243-.49a2.64 2.64 0 0 0-1.668-.591c-.819 0-1.627.376-2.218 1.033-.621.691-.953 1.63-.935 2.646.015.815.282 1.5.773 1.982.528.518 1.3.791 2.235.791 1.097 0 1.776-.325 2.154-.597a.58.58 0 0 0 .24-.456.7.7 0 0 0-.208-.497c-.23-.248-.448-.101-.503-.037Zm4.97-2.15a8 8 0 0 0-.698-.248q-.237-.072-.45-.131c-.922-.26-1.027-.5-1.017-.68.022-.363.515-.853 1.352-.792.607.045 1.015.509 1.205.781.149.214.371.135.434.095a.6.6 0 0 0 .309-.514.63.63 0 0 0-.209-.488 2.654 2.654 0 0 0-3.347-.273c-.456.323-.744.772-.77 1.202-.064 1.061 1.015 1.366 1.803 1.588.214.061.429.127.667.202 1.14.357 1.173.717 1.092 1.267-.082.556-.696.834-1.685.761-1.029-.076-1.464-.61-1.612-.901-.05-.098-.205-.248-.413-.156-.514.229-.473.731-.26.993.339.416 1.15 1.035 2.667 1.035 1.734 0 2.255-.875 2.378-1.64.092-.572-.022-1.028-.348-1.396-.236-.267-.592-.495-1.101-.706Zm6.777-2.165c-.598-.431-1.393-.61-2.36-.532-.712.058-1.274.243-1.335.263l-.006.002a.44.44 0 0 0-.297.379l-.47 5.201a.34.34 0 0 0 .247.35l.072.02.066.018.086.021a8 8 0 0 0 1.64.183c.972 0 1.765-.23 2.36-.684.764-.583 1.141-1.5 1.118-2.725-.021-1.135-.398-1.974-1.121-2.495Zm-.662 4.461c-.836.639-2.09.562-2.677.481a.13.13 0 0 1-.109-.137l.397-4.248a.11.11 0 0 1 .086-.1c.999-.241 1.777-.168 2.312.218.189.137.348.331.471.568.176.339.277.765.286 1.234.017.916-.24 1.583-.765 1.984Zm8.189-3.374a1.9 1.9 0 0 0-.432-.919c-.399-.465-1.029-.689-1.848-.689-.734 0-1.372.228-1.947.799.007-.086.019-.159.018-.223s-.017-.116-.066-.163c-.048-.045-.077-.067-.127-.077s-.122-.008-.256-.006a.587.587 0 0 0-.589.54s-.325 3.874-.428 5.165a.3.3 0 0 0 .073.228.36.36 0 0 0 .26.131h.387a.224.224 0 0 0 .226-.205l.273-2.929.014-.147a2 2 0 0 1 .082-.412q.021-.068.047-.14c.245-.694.803-1.72 1.971-1.694.84.018 1.449.455 1.385 1.114-.101 1.034-.266 3.1-.358 4.14-.019.209.182.273.252.273h.304a.44.44 0 0 0 .444-.404s.185-2.127.294-3.352l.048-.532a2 2 0 0 0-.026-.5Z"/></svg>