<svg xmlns="http://www.w3.org/2000/svg" viewBox="0 0 24 24"><path d="M0 16.5V1.127C0 .502.506 0 1.127 0h21.748C23.498 0 24 .505 24 1.126V15.95q-1.014-.62-2.372-.62-1.887 0-2.862.886-.974.886-.974 2.226 0 1.468 1.008 2.158.596.413 2.151.765l1.056.237q.926.202 1.36.466.432.27.432.765 0 .846-.872 1.157l-.024.008H20.68a1.53 1.53 0 0 1-.688-.462q-.278-.337-.372-1.021h-1.99q0 .839.325 1.483h-1.681q.294-.595.294-1.32 0-1.334-.892-2.037-.576-.453-1.705-.724l-1.719-.412q-.995-.237-1.299-.413a.86.86 0 0 1-.473-.799q0-.581.48-.906.481-.325 1.286-.325.723 0 1.21.25.732.38.785 1.28h2.003q-.054-1.59-1.167-2.426t-2.69-.836q-1.887 0-2.861.886t-.975 2.226q0 1.468 1.008 2.158.595.413 2.152.765l1.055.237q.927.202 1.36.466.433.27.433.765 0 .846-.873 1.157l-.025.008h-2.223a1.53 1.53 0 0 1-.688-.462q-.278-.337-.372-1.021h-1.99q0 .839.324 1.483H6.611a4.75 4.75 0 0 0 .667-1.801H5.215q-.21.771-.528 1.157-.391.489-1.026.644H2.42q-.675-.173-1.165-.762-.695-.835-.695-2.512t.656-2.595 1.793-.917q1.116 0 1.684.65.318.365.52 1.082H7.3q-.048-.933-.69-1.86-1.164-1.65-3.68-1.65-1.752 0-2.929 1.067zm24 3.654v-1.562h-.518q-.054-.9-.785-1.279-.487-.25-1.21-.25-.806 0-1.286.325-.48.324-.48.906 0 .535.473.799.304.176 1.299.413l1.718.412q.436.105.789.236"/></svg>