<svg xmlns="http://www.w3.org/2000/svg" viewBox="0 0 24 24"><path d="M21.823 7.327a11.9 11.9 0 0 0-2.606-3.814 12.1 12.1 0 0 0-3.866-2.57A12.25 12.25 0 0 0 10.617 0H1.831a.6.6 0 0 0-.609.603v3.764c0 .162.064.312.179.426l4.164 4.123a.61.61 0 0 0 .439.177h4.56c.806 0 1.56.313 2.125.88.557.559.856 1.296.843 2.075-.029 1.571-1.343 2.849-2.931 2.849h-6.74a.61.61 0 0 0-.432.176.62.62 0 0 0-.178.427v3.764c0 .162.063.312.178.427l4.139 4.099a.65.65 0 0 0 .476.21h2.572a12.3 12.3 0 0 0 4.733-.945 12.15 12.15 0 0 0 3.866-2.571 12 12 0 0 0 2.607-3.813c.633-1.479.956-3.051.956-4.67s-.321-3.19-.956-4.669zM2.441 4.118V1.982l2.945 2.755.001 2.297zm4.975 17.813-2.945-2.917v-2.137l2.945 2.755zm-2.004-5.832h5.19c2.248 0 4.107-1.807 4.147-4.03a4.03 4.03 0 0 0-1.192-2.937 4.2 4.2 0 0 0-2.996-1.239H6.606V5.216h3.996c1.831 0 3.553.706 4.849 1.986a6.724 6.724 0 0 1-.152 9.736 6.88 6.88 0 0 1-4.697 1.84H8.275L5.412 16.1zm15.289.1a10.8 10.8 0 0 1-2.345 3.431 10.9 10.9 0 0 1-3.48 2.314 11 11 0 0 1-4.26.847H8.633v-2.814h1.916c2.145 0 4.161-.802 5.675-2.254a7.88 7.88 0 0 0 2.451-5.728c0-2.177-.87-4.21-2.451-5.728-1.514-1.454-3.528-2.254-5.675-2.254h-4.16L3.383 1.202h7.234c1.479 0 2.911.285 4.259.847a11 11 0 0 1 3.48 2.313 10.8 10.8 0 0 1 2.345 3.432c.571 1.33.86 2.743.86 4.202s-.289 2.873-.86 4.203"/></svg>