<svg xmlns="http://www.w3.org/2000/svg" viewBox="0 0 24 24"><path d="M7.618 7.658h10.509a.246.246 0 0 1 .246.246v.656a.246.246 0 0 1-.246.246H7.617a.246.246 0 0 1-.246-.246v-.656a.246.246 0 0 1 .246-.246M9.65 3.182h6.533a.13.13 0 0 1 .133.132v4.52a.13.13 0 0 1-.133.133H9.65a.13.13 0 0 1-.132-.133v-4.52a.13.13 0 0 1 .132-.132m5.832 16.9-1.05.736-1.05-.736.154-4.207h1.791zm-9.606-4.244h-1.78v-.559a1.8 1.8 0 0 1-.515.467Q3.124 16 2.545 16a2.46 2.46 0 0 1-1.671-.646Q0 14.584 0 13.315q0-1.291.895-2.062a2.43 2.43 0 0 1 1.633-.613q.537 0 1.01.228.27.13.558.429V7.688h1.78ZM4.15 13.32a1.1 1.1 0 0 0-.336-.81A1.11 1.11 0 0 0 3 12.174q-.531 0-.873.402a1.12 1.12 0 0 0-.277.743q0 .418.277.744.336.4.873.401.483 0 .817-.33.333-.332.334-.815m8.4 2.518h-1.78v-.559a1.8 1.8 0 0 1-.515.467Q9.8 16 9.22 16a2.46 2.46 0 0 1-1.671-.646q-.874-.77-.874-2.04 0-1.291.896-2.062a2.43 2.43 0 0 1 1.633-.613q.537 0 1.009.228.27.13.559.428v-.493h1.78zm-1.725-2.518a1.1 1.1 0 0 0-.336-.81 1.11 1.11 0 0 0-.814-.335q-.532 0-.874.402a1.12 1.12 0 0 0-.277.743q0 .418.277.744.336.4.874.401.483 0 .816-.33.334-.332.334-.815m8.6.006q0 1.29-.895 2.062a2.43 2.43 0 0 1-1.633.613q-.537 0-1.01-.228a2 2 0 0 1-.558-.429v3.012h-1.78v-7.553h1.78v.559q.24-.315.516-.467.455-.255 1.036-.255.94 0 1.67.646.874.77.874 2.04m-1.85-.006q0-.428-.271-.743a1.1 1.1 0 0 0-.879-.402q-.483 0-.817.331t-.333.814q0 .479.336.812t.814.333q.538 0 .873-.401.277-.325.277-.744M24 12.447a1.75 1.75 0 0 0-.76-.18q-.879 0-1.139.717-.098.26-.098.7v2.154h-1.78v-5.035h1.78v.824q.282-.44.608-.634.44-.26 1.042-.26a5 5 0 0 1 .347.015z"/></svg>