<svg xmlns="http://www.w3.org/2000/svg" viewBox="0 0 24 24"><path d="M17.111 0a3.3 3.3 0 0 0-1.746.55 8.4 8.4 0 0 0-2.748 2.544 6.7 6.7 0 0 1-1.344 0c-.32 0-.788.209-.574.963.215.753.798 1.497.75 1.923a3.7 3.7 0 0 0-.068.805c-.298.472-1.69 2.743-2.113 4.549 0 0 .795-7.967-1.645-9.33s-4.404-.277-5.06 1.52c-1.403 3.832.675 9.825 3.605 14.661s5.713 5.709 7.686 5.795c3.298.145 2.338-.57 3.523-.64s1.012.64 2.984.365c1.438-.208 1.685-1.17 1.141-1.603s-.363-1.484.156-3.72c.519-2.235-.224-6.17-.746-7.183s-.464-1.53.09-2.527a6.2 6.2 0 0 0 .85-2.506 3.9 3.9 0 0 0 0-1.043V5.05s-.344 1.375-1.02 1.869a10 10 0 0 0-.32.244c.067-.257.32-1.34-.041-1.924 0 0-.151 2.488-1.477 2.62-1.326.13-3.202-1.225-3.73-1.77.038.21.068.268.109.43q.066.226.156.445c.186.6.384 1.517.086 2.092-.464.91-1.475 2.313-1.373 4.314a8.5 8.5 0 0 0 .803 3.527c.39.988.493 1.9.416 2.057s.027.961-1.815-.418c-1.84-1.38-2.338-2.807-2.338-2.807a5.9 5.9 0 0 0-.335 2.496 15.5 15.5 0 0 0 .777 3.561S9.335 19.83 9.207 15.91c-.122-3.602 1.986-7.769 2.322-8.41a1.06 1.06 0 0 0 .701.588s-.939-.518-.254-2.526c.686-2.007 2.067-3.794 3.463-4.58A4 4 0 0 1 19.31.785a3.28 3.28 0 0 0-1.933-.78A3 3 0 0 0 17.111 0m-1.39 1.865a1 1 0 0 0-.221.026c-.352.077-.54.49-.297 1a.8.8 0 0 1 .066.361.8.8 0 0 1-.095.355 5 5 0 0 1 .91-.716 4.4 4.4 0 0 1 1.217-.44 1.43 1.43 0 0 1-.725-.22 1.14 1.14 0 0 0-.492-.313 1.1 1.1 0 0 0-.363-.053m4.87.174c-.503 0-1.172.114-1.687.316a1.34 1.34 0 0 0-.761.563c-.279.642 1.417 1.705 2.1 1.506.32-.093.795-.789 1.003-1.395.141-.433.16-.818-.1-.918a1.7 1.7 0 0 0-.554-.072m.225 5.33s-.346 1.181-.59 1.717c-.21.475-.278.436-.435.49a4.4 4.4 0 0 0 .176-.664c.093-.391 0-.494 0-.494a4.2 4.2 0 0 1-.463 1.283 1 1 0 0 1-.64.04c-.26-.107-.305-1.327-.305-1.397a2.5 2.5 0 0 0 1.255-.192 2.5 2.5 0 0 0 1.002-.783"/></svg>