<svg xmlns="http://www.w3.org/2000/svg" viewBox="0 0 24 24"><path d="M5.99 1.62a8.54 8.54 0 0 0-2.54 6.83c.35 4.4 4.51 7.99 8.28 7.99 3.5 0 4.88-3.06 4.54-5.14a4.3 4.3 0 0 0-.95-2.07c.63.34 1.24.77 1.81 1.3 1.52 1.41 2.44 3.23 2.58 5.1.33 4.13-2.73 8.37-7.85 8.37-1.69 0-3.48-.43-4.98-1.14C2.82 20.94 0 16.8 0 12 0 7.57 2.41 3.7 5.99 1.62M12.14 0c1.69 0 3.48.43 4.98 1.14A12 12 0 0 1 24 12c0 4.43-2.41 8.3-5.99 10.38a8.54 8.54 0 0 0 2.54-6.83c-.35-4.4-4.51-7.99-8.28-7.99-3.5 0-4.88 3.06-4.54 5.14a4.3 4.3 0 0 0 .96 2.07 8.7 8.7 0 0 1-1.81-1.3c-1.52-1.41-2.44-3.23-2.59-5.1C3.96 4.24 7.02 0 12.14 0"/></svg>