<svg xmlns="http://www.w3.org/2000/svg" viewBox="0 0 24 24"><path d="M17.963 14.6V9.324h1.222v4.204h2.14v1.07h-3.362zm-9.784-3.288 2.98-2.292q.42.343.841.687l-2.827 2.14.611.535 2.827-2.216q.42.343.841.688a296 296 0 0 1-2.827 2.216l.61.536 2.83-2.295-.001-1.986h1.223v4.204h2.216v1.07h-3.362v-1.987q-1.491 1.146-2.981 2.292l-2.981-2.292c-.144.729-.653 1.36-1.312 1.694a2.7 2.7 0 0 1-.915.276c-.183.022-.367.017-.551.017H3.516V9.325H5.69a2.54 2.54 0 0 1 1.563.557c.454.36.778.872.927 1.43m-3.516-.917v3.21l.953-.001a1.38 1.38 0 0 0 1.036-.523 1.74 1.74 0 0 0 .182-1.889 1.5 1.5 0 0 0-.976-.766c-.166-.04-.338-.03-.507-.032zM11.82 0h.337a11.94 11.94 0 0 1 5.405 1.373 12.1 12.1 0 0 1 4.126 3.557A11.93 11.93 0 0 1 24 11.82v.36a11.96 11.96 0 0 1-3.236 8.033A11.97 11.97 0 0 1 12.182 24h-.361a12 12 0 0 1-4.145-.806 12 12 0 0 1-4.274-2.836A12.06 12.06 0 0 1 .576 15.67 12 12 0 0 1 0 12.181v-.361a11.92 11.92 0 0 1 1.992-6.396 12.2 12.2 0 0 1 4.71-4.172A11.9 11.9 0 0 1 11.82 0m-.153 1.23a10.72 10.72 0 0 0-6.43 2.375 10.8 10.8 0 0 0-3.319 4.573 10.86 10.86 0 0 0 .193 8.12 10.8 10.8 0 0 0 3.546 4.421 10.7 10.7 0 0 0 4.786 1.946c1.456.209 2.955.124 4.376-.26a10.76 10.76 0 0 0 5.075-3.062 10.74 10.74 0 0 0 2.686-5.28 10.9 10.9 0 0 0-.122-4.682 10.77 10.77 0 0 0-7.098-7.626 10.8 10.8 0 0 0-3.693-.525"/></svg>