<svg xmlns="http://www.w3.org/2000/svg" viewBox="0 0 24 24"><path d="M23.922 10.66a11.9 11.9 0 0 0-1.93-5.299 12 12 0 0 0-1.362-1.692A12 12 0 0 0 15.271.455a12 12 0 0 0-2.88-.444c-.237-.005-.474-.015-.71-.004-.345.016-.69.036-1.033.077q-.579.07-1.15.182a11.95 11.95 0 0 0-4.906 2.297A12 12 0 0 0 .394 8.94a12 12 0 0 0-.393 2.883q-.013.765.073 1.526a11.95 11.95 0 0 0 3.103 6.79 11.98 11.98 0 0 0 8.442 3.858c.013 0 .818-.002.868-.004q.777-.032 1.543-.162a11.95 11.95 0 0 0 6.173-3.072 11.98 11.98 0 0 0 3.667-7.028c.053-.406.087-.815.113-1.224.038-.617.006-1.234-.062-1.848zM4.5 11.777c-.052.3-.094.601-.097.906-.003.253-.005.506.004.76.005.148.031.297.051.445.033.252-.067.455-.297.56a.5.5 0 0 1-.227.035c-.217-.019-.433-.05-.65-.077-.073-.01-.147-.017-.22-.03-.017-.003-.04-.025-.042-.041-.041-.249-.086-.497-.115-.747-.024-.206-.03-.413-.043-.62-.006-.118-.014-.236-.013-.355.002-.197.005-.394.017-.59q.021-.327.06-.653.028-.267.083-.529c.062-.29.134-.579.207-.867q.106-.412.273-.804c.08-.187.15-.377.235-.56q.135-.293.295-.573c.12-.21.251-.414.382-.619q.125-.196.26-.384c.074-.102.155-.197.234-.295q.106-.134.217-.263a8 8 0 0 1 .25-.274q.184-.192.373-.378.13-.13.27-.248c.173-.145.346-.293.528-.427q.341-.252.697-.483c.186-.12.375-.235.572-.336.253-.129.513-.244.773-.359q.239-.105.486-.19a11 11 0 0 1 1.312-.359c.279-.05.56-.086.841-.12.194-.023.39-.042.586-.044.312-.003.625-.004.936.019.342.024.683.07 1.023.118.182.026.362.071.54.117.288.075.578.146.86.24.246.08.487.182.724.288.26.116.513.245.767.374.107.054.21.118.311.183.195.124.392.246.58.38.189.135.368.282.55.424q.022.017.05.045c-.165.109-.325.211-.481.318q-.252.175-.5.353-.158.109-.315.219-.194.14-.387.28l-.45.321q-.164.12-.327.243-.195.143-.387.288c-.217.167-.443.138-.643.003a6.5 6.5 0 0 0-1.757-.83 6 6 0 0 0-1.33-.246c-.19-.013-.381-.018-.572-.025a4.4 4.4 0 0 0-.792.047 24 24 0 0 0-.62.105 5 5 0 0 0-.795.225 6 6 0 0 0-.527.218 7 7 0 0 0-.574.294c-.178.103-.347.222-.516.339q-.163.109-.313.233-.222.188-.435.385c-.26.235-.486.5-.697.778-.132.174-.25.36-.368.545a5.8 5.8 0 0 0-.489.967 6.3 6.3 0 0 0-.368 1.271m13.278 5.496q-.264-.181-.527-.366a.5.5 0 0 1-.154-.237l-.222-.55-.21-.532q-.106-.255-.21-.512c-.071-.176-.137-.355-.213-.53-.088-.204-.14-.427-.28-.606a5 5 0 0 0-.288-.337 2.6 2.6 0 0 0-.498-.413c-.14-.09-.298-.12-.457-.148q-.673-.123-1.345-.248l-1.368-.246c-.39-.07-.78-.137-1.166-.218-.258-.054-.494.162-.518.407-.023.246.167.456.375.508.56.141 1.118.293 1.677.442.662.175 1.324.347 1.984.527.22.06.416.173.597.313.22.17.4.375.53.62.084.163.151.336.22.506q.108.266.202.534.139.402.27.806.084.246.16.492.111.356.22.712.075.245.147.49l.184.638q.073.245.144.492.107.363.204.729c.033.126-.065.268-.2.287q-.41.055-.821.104-.273.034-.546.063l-.66.07q-.42.044-.837.09c-.118.012-.236.03-.355.028a1.03 1.03 0 0 1-.688-.261c-.144-.126-.223-.292-.316-.451-.078-.135-.152-.272-.235-.403a13 13 0 0 0-.398-.602c-.134-.187-.28-.365-.423-.544a6 6 0 0 0-.229-.265 7 7 0 0 0-.757-.737 9 9 0 0 0-.641-.488 5.6 5.6 0 0 0-1.755-.803c-.436-.112-.878-.195-1.333-.187a3.5 3.5 0 0 0-.678.07c-.16.034-.309.022-.441-.089-.073-.06-.104-.144-.146-.223-.017-.032-.027-.068-.044-.109.072-.02.143-.042.216-.058a2 2 0 0 1 .227-.042c.195-.023.39-.053.584-.058.281-.007.564-.01.844.012a8 8 0 0 1 1.592.321c.24.076.473.175.704.274.387.166.727.407 1.051.673.214.175.419.36.603.567.225.252.449.506.66.77.15.186.282.389.419.587.228.332.43.681.62 1.037q.072.134.133.272c.064.153.199.2.341.183l.572-.07.7-.08q.405-.04.81-.084.312-.036.624-.08c.117-.018.202-.132.208-.254.006-.108-.045-.2-.077-.296-.089-.272-.184-.542-.276-.813q-.134-.394-.266-.787-.137-.414-.277-.826-.097-.282-.196-.563c-.054-.156-.104-.312-.16-.467q-.101-.278-.208-.555c-.037-.096-.074-.192-.12-.284a1.2 1.2 0 0 0-.482-.514c-.2-.12-.424-.159-.641-.22q-.96-.269-1.92-.533l-.825-.23c-.218-.06-.435-.129-.657-.177-.259-.057-.433-.212-.57-.427a1.3 1.3 0 0 1-.202-.583.87.87 0 0 1 .12-.546.92.92 0 0 1 .44-.382.7.7 0 0 1 .411-.041c.322.06.645.112.968.168.227.04.454.083.681.121q.402.066.803.13.29.05.579.1.336.054.671.11c.195.034.389.073.584.103.126.019.249.042.362.102.054.029.11.06.156.1q.246.219.484.447.212.204.413.42a.95.95 0 0 1 .217.392c.033.115.077.227.117.34l.167.471.212.595q.092.267.185.534l.176.497.188.544.093.268-.013.01zm.708.363a3 3 0 0 1-.37-.169c-.03-.016-.039-.076-.054-.117q-.105-.296-.206-.592l-.23-.664-.23-.653q-.14-.4-.279-.8l-.2-.565q-.054-.152-.113-.304c-.063-.161-.179-.285-.296-.407-.1-.104-.199-.209-.304-.306a18 18 0 0 0-.605-.537c-.149-.125-.334-.167-.522-.197l-.603-.098q-.37-.061-.739-.125l-.665-.113-1.026-.172q-.418-.073-.836-.145c-.197-.033-.393-.075-.591-.089-.11-.007-.226.026-.335.056a.94.94 0 0 0-.395.235q-.178.17-.272.402c-.12.306-.101.606.007.909.071.197.173.376.317.528.142.15.307.258.513.306.248.058.493.129.74.196q.66.18 1.322.362l.842.233.841.235c.266.074.48.224.621.46.07.118.117.252.168.382q.092.235.175.474.118.337.233.675l.194.567.163.489.167.477.19.562.278.816q.016.044.028.088c.01.042-.015.066-.052.07-.167.02-.335.035-.503.054q-.127.017-.253.032-.266.028-.532.058-.283.033-.566.068l-.726.082a.5.5 0 0 1-.122.005.09.09 0 0 1-.057-.037c-.068-.127-.129-.257-.198-.382a12 12 0 0 0-.733-1.196 11 11 0 0 0-.99-1.204 7 7 0 0 0-.595-.552 5.5 5.5 0 0 0-.628-.452 3.3 3.3 0 0 0-.704-.345c-.288-.093-.568-.21-.859-.29-.288-.077-.586-.116-.879-.177-.277-.057-.558-.056-.838-.072-.125-.007-.251.003-.377.01q-.215.011-.428.031a3 3 0 0 0-.247.04c-.16.03-.318.062-.491.096-.051-.16-.107-.319-.154-.481a5.5 5.5 0 0 1-.2-1.027 5.2 5.2 0 0 1-.021-1.028c.033-.479.113-.951.258-1.41.095-.3.2-.599.344-.88.096-.187.191-.374.298-.554.08-.137.178-.265.271-.394q.108-.151.225-.297.106-.126.223-.243.19-.197.392-.383c.09-.084.19-.159.288-.234.105-.08.21-.16.32-.232q.223-.143.45-.275c.135-.078.27-.157.411-.22q.318-.138.643-.257a3 3 0 0 1 .383-.12c.247-.054.495-.104.744-.14.21-.03.423-.052.634-.052q.406 0 .81.042.699.07 1.354.323a6 6 0 0 1 1.819 1.068c.207.175.409.356.583.564q.295.346.57.708c.056.074.081.174.112.266q.108.32.208.643c.086.274.167.55.252.824.064.208.133.414.198.622q.106.347.211.696l.15.477.165.534q.076.244.153.489l.117.39q.057.177.114.355l.291.928.275.865q.017.053.035.105c.02.065-.015.113-.076.09m.157-12.752a.48.48 0 0 1-.272.408.06.06 0 0 1-.054-.005c-.077-.06-.148-.127-.227-.184-.237-.173-.471-.35-.716-.512a9 9 0 0 0-.706-.428c-.246-.132-.502-.244-.756-.358a6 6 0 0 0-.501-.201q-.42-.144-.848-.267a8 8 0 0 0-1.091-.215c-.3-.042-.6-.076-.903-.081-.176-.003-.352-.015-.528-.009q-.42.014-.84.047c-.209.017-.416.05-.623.08q-.434.06-.852.183-.354.103-.705.217a5 5 0 0 0-.422.16 10.6 10.6 0 0 0-1.438.718c-.18.107-.352.232-.525.354a8 8 0 0 0-.394.296 12 12 0 0 0-.962.865c-.114.115-.219.24-.325.363-.11.128-.223.254-.327.387a9 9 0 0 0-.653.956c-.098.164-.187.334-.276.503a9 9 0 0 0-.253.51c-.08.177-.147.358-.216.54a8 8 0 0 0-.311.986c-.074.335-.149.67-.2 1.01a10 10 0 0 0-.047 2.328c.028.268.073.534.11.805-.215 0-.4-.063-.512-.256a.8.8 0 0 1-.08-.242 8 8 0 0 1-.083-.53 13 13 0 0 1-.07-.702 9 9 0 0 1-.021-.723 10.5 10.5 0 0 1 .282-2.28c.092-.394.216-.778.363-1.153.078-.198.151-.398.242-.59q.195-.41.414-.81.159-.289.346-.561c.145-.214.3-.42.455-.627q.152-.203.317-.396.16-.18.328-.353a9 9 0 0 1 .578-.56c.18-.155.359-.31.545-.456.145-.114.299-.216.45-.32.13-.09.258-.18.392-.26a13 13 0 0 1 .975-.531q.22-.103.447-.196c.116-.05.231-.101.35-.142q.372-.125.747-.24c.137-.043.275-.084.416-.112.299-.062.598-.123.9-.17a7 7 0 0 1 .743-.078q.487-.022.976-.015c.216.003.433.022.648.045a9.7 9.7 0 0 1 2.377.532c.432.16.86.332 1.264.56q.42.234.829.49c.206.13.405.276.6.424q.267.2.514.423a.43.43 0 0 1 .13.373z"/></svg>