<svg xmlns="http://www.w3.org/2000/svg" viewBox="0 0 24 24"><path d="M2.357 15.731H.016A13.74 13.74 0 0 0 4.58 24l1.63-1.634a11.45 11.45 0 0 1-3.853-6.635m.509 0a10.95 10.95 0 0 0 3.668 6.254l.03.026 1.124-1.126a9.38 9.38 0 0 1-3.206-5.154Zm6.623 3.349h-.084V8.252h4.222q1.268 0 2.328.41a5.5 5.5 0 0 1 1.825 1.137c.168.159.318.331.461.508.291.363.535.761.722 1.201a5.4 5.4 0 0 1 .418 2.127v.03q0 1.146-.418 2.135a5 5 0 0 1-1.183 1.716 5.6 5.6 0 0 1-1.825 1.146 6.3 6.3 0 0 1-2.328.418zm7.01-7.027a3 3 0 0 0-.513-.738 3 3 0 0 0-1.028-.673 3.6 3.6 0 0 0-1.331-.24l-1.84.001v6.526h1.84q.726 0 1.331-.232a2.84 2.84 0 0 0 1.028-.665q.425-.432.665-1.021.24-.587.24-1.314v-.032q0-.711-.24-1.314c-.043-.107-.101-.199-.152-.298m-16.44-.796h2.35c1.635-7.184 7.887-8.654 9.203-8.922V0A13.78 13.78 0 0 0 .059 11.257m11.553-8.414a10.98 10.98 0 0 0-8.692 8.414h1.624a9.4 9.4 0 0 1 7.068-6.802Zm4.474.092v1.629a9.4 9.4 0 0 1 4.79 3.101l1.127-1.126a11.04 11.04 0 0 0-5.917-3.604m0-2.865v2.352a11.46 11.46 0 0 1 6.267 3.763l1.631-1.636A13.75 13.75 0 0 0 16.086.07"/></svg>