<svg xmlns="http://www.w3.org/2000/svg" viewBox="0 0 24 24"><path d="M17.143 5.182A6.85 6.85 0 0 0 12 7.493a6.86 6.86 0 0 0-5.143-2.311C3.07 5.182 0 8.234 0 12s3.07 6.818 6.857 6.818A6.86 6.86 0 0 0 12 16.507a6.85 6.85 0 0 0 5.143 2.311C20.929 18.818 24 15.766 24 12s-3.07-6.818-6.857-6.818m-6.04 10.05a5.35 5.35 0 0 1-4.246 2.086c-2.954 0-5.348-2.38-5.348-5.318s2.394-5.318 5.348-5.318c1.731 0 3.27.818 4.247 2.087A5.27 5.27 0 0 1 12.206 12a5.27 5.27 0 0 1-1.102 3.231zm8.88-.641h-1.608l-1.049-2.549-1.025 2.549h-1.605l-1.661-5.182h1.833l.779 2.602.972-2.602h1.434l.973 2.602.778-2.602h1.841zM7.058 9.273H4.083v5.454h2.975c1.534 0 3.107-.878 3.107-2.727 0-1.768-1.434-2.727-3.107-2.727m-.161 3.874H5.729v-2.318h1.168c1.062 0 1.44.59 1.44 1.159.001.561-.375 1.159-1.44 1.159"/></svg>