<svg xmlns="http://www.w3.org/2000/svg" viewBox="0 0 24 24"><path d="M1.742 11.982c0-5.668 4.61-10.278 10.276-10.278 1.824 0 3.537.48 5.025 1.317l.814-1.488A11.9 11.9 0 0 0 12.19.003h-.195C5.41.013.072 5.31 0 11.885v.115a11.98 11.98 0 0 0 3.775 8.72l1.185-1.28a10.25 10.25 0 0 1-3.218-7.459zm18.62-8.577-1.154 1.24a10.25 10.25 0 0 1 3.088 7.337c0 5.666-4.61 10.276-10.276 10.276-1.783 0-3.46-.456-4.922-1.258l-.854 1.522A11.95 11.95 0 0 0 12 23.998c6.626 0 12.001-5.373 12.001-12a11.98 11.98 0 0 0-3.638-8.593M1.963 11.982a10.03 10.03 0 0 0 3.146 7.295l1.18-1.276a8.3 8.3 0 0 1-2.586-6.019c0-4.586 3.73-8.315 8.315-8.315 1.483 0 2.875.391 4.082 1.075l.835-1.526a10 10 0 0 0-4.917-1.289C6.475 1.925 1.963 6.437 1.963 11.982m18.37 0c0 4.586-3.73 8.315-8.315 8.315a8.3 8.3 0 0 1-3.962-1.005l-.852 1.516a10 10 0 0 0 4.814 1.229c5.543 0 10.055-4.512 10.055-10.055 0-2.808-1.157-5.347-3.016-7.173l-1.183 1.274a8.28 8.28 0 0 1 2.46 5.899m-1.948 0a6.37 6.37 0 0 1-6.365 6.364 6.3 6.3 0 0 1-3.006-.756l-.848 1.507a8.04 8.04 0 0 0 3.854.977c4.464 0 8.095-3.63 8.095-8.094 0-2.24-.914-4.27-2.39-5.738l-1.179 1.267a6.36 6.36 0 0 1 1.839 4.473m-14.459 0c0 2.301.967 4.382 2.515 5.858l1.173-1.27a6.34 6.34 0 0 1-1.96-4.588 6.37 6.37 0 0 1 6.364-6.364 6.3 6.3 0 0 1 3.144.835l.83-1.517a8.06 8.06 0 0 0-3.974-1.048c-4.461 0-8.092 3.63-8.092 8.094m12.53 0a4.44 4.44 0 0 1-4.438 4.437 4.4 4.4 0 0 1-2.061-.509l-.835 1.488a6.1 6.1 0 0 0 2.896.727 6.15 6.15 0 0 0 6.143-6.143 6.12 6.12 0 0 0-1.768-4.308l-1.162 1.25a4.43 4.43 0 0 1 1.224 3.058m-10.581 0a6.12 6.12 0 0 0 1.888 4.425l1.157-1.25.014.014a4.42 4.42 0 0 1-1.355-3.187 4.436 4.436 0 0 1 4.437-4.437c.808 0 1.564.219 2.217.598l.82-1.498a6.1 6.1 0 0 0-3.037-.806c-3.384-.005-6.141 2.753-6.141 6.141m6.68 0a.538.538 0 0 1-1.074 0 .537.537 0 1 1 1.075 0m-3.94 0a3.4 3.4 0 1 1 6.801 0 3.4 3.4 0 0 1-6.8 0m.149 0a3.256 3.256 0 0 0 3.252 3.252 3.255 3.255 0 0 0 3.254-3.252 3.253 3.253 0 1 0-6.506 0"/></svg>