<svg xmlns="http://www.w3.org/2000/svg" viewBox="0 0 24 24"><path d="M20.317 4.37a19.8 19.8 0 0 0-4.885-1.515.074.074 0 0 0-.079.037c-.21.375-.444.864-.608 1.25a18.3 18.3 0 0 0-5.487 0 13 13 0 0 0-.617-1.25.08.08 0 0 0-.079-.037A19.7 19.7 0 0 0 3.677 4.37a.1.1 0 0 0-.032.027C.533 9.046-.32 13.58.099 18.057a.08.08 0 0 0 .031.057 19.9 19.9 0 0 0 5.993 3.03.08.08 0 0 0 .084-.028c.462-.63.874-1.295 1.226-1.994a.076.076 0 0 0-.041-.106 13 13 0 0 1-1.872-.892.077.077 0 0 1-.008-.128 10 10 0 0 0 .372-.292.07.07 0 0 1 .077-.01c3.928 1.793 8.18 1.793 12.062 0a.07.07 0 0 1 .078.01c.12.098.246.198.373.292a.077.077 0 0 1-.006.127 12.3 12.3 0 0 1-1.873.892.077.077 0 0 0-.041.107c.36.698.772 1.362 1.225 1.993a.08.08 0 0 0 .084.028 19.8 19.8 0 0 0 6.002-3.03.08.08 0 0 0 .032-.054c.5-5.177-.838-9.674-3.549-13.66a.06.06 0 0 0-.031-.03M8.02 15.33c-1.182 0-2.157-1.085-2.157-2.419 0-1.333.956-2.419 2.157-2.419 1.21 0 2.176 1.096 2.157 2.42 0 1.333-.956 2.418-2.157 2.418m7.975 0c-1.183 0-2.157-1.085-2.157-2.419 0-1.333.955-2.419 2.157-2.419 1.21 0 2.176 1.096 2.157 2.42 0 1.333-.946 2.418-2.157 2.418"/></svg>