<svg xmlns="http://www.w3.org/2000/svg" viewBox="0 0 24 24"><path d="M5.219.002a19 19 0 0 0-1.523.046v23.909c.973.068 1.954.055 2.924-.032.284-.94.575-1.879.86-2.818a14.4 14.4 0 0 0 4.193-1.361l3.12 1.507a14 14 0 0 0 2.076-1.58l-1.91-2.49c.83-1.02 1.443-2.16 1.726-3.356l3.57-.686a10.5 10.5 0 0 0-.03-2.287l-3.548-.682a8.25 8.25 0 0 0-1.723-3.355q.957-1.246 1.915-2.488a13.5 13.5 0 0 0-2.043-1.599L11.663 4.26a13.8 13.8 0 0 0-4.187-1.387L6.61.044A19 19 0 0 0 5.22.002m2.33 5.388c3.686.814 6.464 3.746 6.278 6.801-.094 2.897-2.682 5.658-6.243 6.398-.17-.227-.025-.78-.073-1.134L7.506 5.382l.042.01z"/></svg>