<svg xmlns="http://www.w3.org/2000/svg" viewBox="0 0 24 24"><path d="M8.791 0a2 2 0 0 0-.254.016 2.22 2.22 0 0 0-1.95 2.383 2.22 2.22 0 0 0 .666 1.416l-.003.004L9.585 6.02a9.153 9.153 0 0 0 2.78 17.973 9.15 9.15 0 0 0 8.787-9.145l-.116-1.451a9.1 9.1 0 0 0-2.625-5.08h.002L10.336.613l-.002.001A2.22 2.22 0 0 0 8.791 0m2.215 8.548a1.5 1.5 0 0 1 .91.453l4.747 4.773a1.32 1.32 0 0 1 .436.789l.017.21a1.33 1.33 0 0 1-.451.998l-4.779 4.822a1.5 1.5 0 0 1-.999.438 1.49 1.49 0 0 1-1.544-1.366 1.48 1.48 0 0 1 .439-1.176l2.42-2.422H7.175v-.002a1.329 1.329 0 0 1-.173-2.649 1 1 0 0 1 .144-.01l.017.001c1.658.006 3.315.003 4.973.003l-2.28-2.28a1.48 1.48 0 0 1-.498-.993 1.48 1.48 0 0 1 1.303-1.588 1.5 1.5 0 0 1 .345-.001"/></svg>