<svg xmlns="http://www.w3.org/2000/svg" viewBox="0 0 24 24"><path d="M0 4.935a.3.3 0 0 1 .09-.223.26.26 0 0 1 .201-.092h3.921c1.608.122 2.808.582 3.912 1.716 1.11 1.135 1.551 2.422 1.692 4.078.135 1.594-.516 2.974-1.62 4.108a5.4 5.4 0 0 1-1.818 1.28 5.3 5.3 0 0 1-2.166.431H.292a.28.28 0 0 1-.202-.092.3.3 0 0 1-.069-.104.3.3 0 0 1-.02-.123zm2.508 8.84H4.05q1.351-.001 2.244-.973a3.4 3.4 0 0 0 .891-2.39c0-.942-.3-1.737-.89-2.383a2.9 2.9 0 0 0-1.02-.734 2.9 2.9 0 0 0-1.225-.238H2.508zm12.064.062a.32.32 0 0 1 .028.311l-2.324 5.056q-.094.181-.273.18h-.162q-.179.001-.276-.184l-2.28-4.993a.32.32 0 0 1 .033-.316 5.14 5.14 0 0 0 .961-3.17c-.002-.088.133-.123.168-.042l1.44 3.236h.098l1.494-3.354c.035-.078.16-.049.16.036 0 1.147.29 2.282.933 3.24m1.196.728c-1.14-1.128-1.668-2.496-1.668-4.108 0-1.622.525-2.996 1.668-4.133a5.7 5.7 0 0 1 1.91-1.285 5.65 5.65 0 0 1 2.248-.423 5.7 5.7 0 0 1 3.94 1.503q.244.231.017.453l-1.269 1.31c-.14.128-.279.128-.408 0a3.2 3.2 0 0 0-2.199-.825q-1.367-.002-2.28.981a3.27 3.27 0 0 0-.87 2.345c0 .908.27 1.68.882 2.321a3.02 3.02 0 0 0 2.286.96 3.26 3.26 0 0 0 2.181-.776q.226-.193.42.015l1.272 1.343q.21.21-.015.435a5.5 5.5 0 0 1-3.957 1.567 5.7 5.7 0 0 1-2.245-.415 5.8 5.8 0 0 1-1.913-1.27z"/></svg>