<svg xmlns="http://www.w3.org/2000/svg" viewBox="0 0 24 24"><path d="M13.318 0c-6.628 0-12 5.372-12 12 0 2.008.495 3.9 1.368 5.563a14.3 14.3 0 0 1 5.09-3.664c.307-.13.624-.22.948-.28A4.8 4.8 0 0 1 8.443 12a4.875 4.875 0 0 1 7.494-4.11 2.22 2.22 0 0 0 2.055.164 12.05 12.05 0 0 0 4.69-3.554A11.98 11.98 0 0 0 13.318 0M9.426 15.77c-.266.01-.531.069-.783.175a12.04 12.04 0 0 0-4.69 3.555c2.2 2.742 5.576 4.5 9.365 4.5s7.165-1.758 9.364-4.5a12.05 12.05 0 0 0-4.69-3.555 2.22 2.22 0 0 0-2.055.165 4.85 4.85 0 0 1-2.62.765 4.85 4.85 0 0 1-2.618-.765 2.2 2.2 0 0 0-1.273-.34"/></svg>