<svg xmlns="http://www.w3.org/2000/svg" viewBox="0 0 24 24"><path d="m13.882 8.396.026.02 9.95 5.717a12.03 12.03 0 0 1-4.04 7.026A11.93 11.93 0 0 1 12.098 24a11.85 11.85 0 0 1-8.453-3.514A11.95 11.95 0 0 1 .143 12c0-3.204 1.244-6.219 3.501-8.485A11.85 11.85 0 0 1 12.097 0c2.44 0 4.785.733 6.783 2.119a12 12 0 0 1 4.628 6.308l-2.126 1.236a10 10 0 0 0-.262-.87c-1.354-3.83-4.98-6.405-9.023-6.405-5.28 0-9.575 4.313-9.575 9.612s4.295 9.612 9.575 9.612a9.46 9.46 0 0 0 5.66-1.865 9.6 9.6 0 0 0 3.43-4.737l.007-.041L9.59 8.305v7.225l4-2.313 2.06 1.18-5.996 3.47-2.12-1.213v-9.46L9.652 5.97l4.231 2.428z"/></svg>