<svg xmlns="http://www.w3.org/2000/svg" viewBox="0 0 24 24"><path d="M15.272 14.672a1.145 1.91 0 0 1-1.145 1.91 1.145 1.91 0 0 1-1.146-1.91 1.145 1.91 0 0 1 1.146-1.909 1.145 1.91 0 0 1 1.145 1.91m-3.818 0a1.145 1.91 0 0 1-1.145 1.91 1.145 1.91 0 0 1-1.145-1.91 1.145 1.91 0 0 1 1.145-1.909 1.145 1.91 0 0 1 1.145 1.91m3.912-12.599a1.778 1.84 0 0 0-1.775 1.778c-2.547.487-4.057 2.173-4.541 5.045a7.619 6.837 0 0 0-.515.236q-1.67-1.54-3.151-1.472-1.357.066-2.556 1.477a1.778 1.84 0 0 0-1.05-.358A1.778 1.84 0 0 0 0 10.62a1.778 1.84 0 0 0 1.778 1.841 1.778 1.84 0 0 0 1.777-1.84 1.778 1.84 0 0 0-.206-.857c1.054-.47 2.054-.129 3 1.015a7.619 6.837 0 0 0-1.714 4.311 7.619 6.837 0 0 0 7.62 6.838 7.619 6.837 0 0 0 7.617-6.837 7.619 6.837 0 0 0-2.067-4.676q.81-2.25 2.676-2.006a1.778 1.84 0 0 0-.036.371 1.778 1.84 0 0 0 1.777 1.841A1.778 1.84 0 0 0 24 8.78a1.778 1.84 0 0 0-1.778-1.843 1.778 1.84 0 0 0-1.344.638c-.874-.422-1.693-.643-2.452-.639q-1.906.01-3.33 1.815a7.619 6.837 0 0 0-2.547-.485q-.1-2.54 1.2-3.59a1.778 1.84 0 0 0 1.617 1.078 1.778 1.84 0 0 0 1.777-1.84 1.778 1.84 0 0 0-1.777-1.841zm-3.112 8.604c3.615 0 6.545 2.223 6.545 4.965s-2.93 4.963-6.545 4.963-6.546-2.222-6.546-4.963 2.931-4.965 6.546-4.965"/></svg>