<svg xmlns="http://www.w3.org/2000/svg" viewBox="0 0 24 24"><path d="M12 0a11.96 11.96 0 0 0-8.485 3.515A11.96 11.96 0 0 0 0 12.001c0 3.313 1.344 6.311 3.515 8.484A11.96 11.96 0 0 0 12 24a11.96 11.96 0 0 0 8.485-3.515A11.97 11.97 0 0 0 24 12.001c0-3.315-1.344-6.314-3.515-8.486A11.96 11.96 0 0 0 12 0m.052 4.401q1.85 0 3.332.664 1.482.665 2.449 2.096.87 1.262 1.128 2.93.15.975.122 2.811H8.764q.087 2.132 1.482 2.99.848.533 2.042.533 1.266 0 2.057-.65.432-.352.762-.975h3.783q-.15 1.26-1.374 2.56-1.903 2.067-5.33 2.067-2.829 0-4.99-1.743-2.163-1.743-2.162-5.672 0-3.683 1.951-5.646Q8.937 4.401 12.052 4.4zm.001 3.055q-1.426 0-2.211.81t-.987 2.192h6.382q-.1-1.475-.987-2.238-.886-.764-2.197-.764"/></svg>