<svg xmlns="http://www.w3.org/2000/svg" viewBox="0 0 24 24"><path d="M12.023 1.337c2.691 0 5.383-.008 8.075.004a3.84 3.84 0 0 1 2.963 1.308A3.72 3.72 0 0 1 24 4.947a9.7 9.7 0 0 1-.278 2.319c-.357 2.054-.73 4.104-1.094 6.155-.315 1.766-.616 3.535-.948 5.3a5.085 5.085 0 0 1-4.195 3.898 6 6 0 0 1-.743.045q-4.719.005-9.437 0a5.066 5.066 0 0 1-4.979-4.184A3553 3553 0 0 0 .421 7.91C.295 7.21.156 6.517.057 5.814A3.796 3.796 0 0 1 3.105 1.43a5 5 0 0 1 .971-.089q3.974-.011 7.947-.004M9.887 18.023a1.17 1.17 0 0 0 1.22 1.22h1.748a1.176 1.176 0 0 0 1.283-1.285q.002-2.066-.006-4.133a.385.385 0 0 1 .218-.385 4.415 4.415 0 0 0 2.015-4.936 4.52 4.52 0 0 0-5.49-3.166 4.21 4.21 0 0 0-3.035 2.5 4.685 4.685 0 0 0 1.888 5.635.29.29 0 0 1 .164.287c-.007 1.48-.005 2.706-.005 4.263"/></svg>