<svg xmlns="http://www.w3.org/2000/svg" viewBox="0 0 24 24"><path d="M13.057.404a12.1 12.1 0 0 0-5.488 1.322c.148.24.253.506.308.78.283 1.383-.571 2.673-1.894 4.345l-.686.86a1.17 1.17 0 0 1-.912.435 1.15 1.15 0 0 1-.627-.185c-.32-.209-.538-.33-1.234-.783-2.042 4.897-.555 11.211 3.883 14.244 3.543 2.568 8.744 2.833 12.65.944.778-.395 1.528-.838 2.066-1.4a2.79 2.79 0 0 0 .924-2.073 2.788 2.788 0 0 0-4.219-2.393c-.226.109-.447.228-.668.344-.634.334-.747.37-1.437.588-1.996.634-6.033.556-7.066-1.639-.144-.63.424-.786.925-.785 2.992-.007 5.985 0 8.977-.006.78-.003 1.578-.007 2.334-.225 2.302-.594 3.43-2.762 3.027-5.246-.612-3.973-3.577-7.517-7.46-8.633a11.6 11.6 0 0 0-3.403-.494m-7.6.56c-.788 0-1.514.445-1.902 1.073-.396-.325-.928-.514-1.447-.514s-1.05.18-1.482.588a2.02 2.02 0 0 0-.61 1.715c.086.642.431 1.183.989 1.711.683.648 1.685 1.279 2.925 2.057l.05.029a.74.74 0 0 0 .405.121.77.77 0 0 0 .594-.283l.031-.041c1.667-2.07 2.76-3.424 2.47-4.834a2.01 2.01 0 0 0-1.132-1.424 2.15 2.15 0 0 0-.89-.197M1.783 2.509a.619.619 0 1 1 0 1.236.619.619 0 1 1 0-1.236M13.227 6.17c1.688.01 3.458.853 4.175 2.492a.86.86 0 0 1 .07.422c-.05.368-.386.498-.716.498-2.093.013-5.24.005-7.414.002-.288-.01-.372-.066-.39-.066a.54.54 0 0 1-.358-.53c.006-.203.099-.401.194-.58.82-1.54 2.634-2.301 4.439-2.238"/></svg>