<svg xmlns="http://www.w3.org/2000/svg" viewBox="0 0 24 24"><path d="M5.785 3.414a11 11 0 0 1 1.339-.666 10.3 10.3 0 0 1 3.036-.765l1.127 1.274-.525 1.319a8.8 8.8 0 0 0-2.879 1.11l-.195.12-.178-1.737-1.725-.66zm-.49.31 1.789.69.188 1.71a7.3 7.3 0 0 0-2.264 2.73 4 4 0 0 0-.139.3l-1.26-1.529-2.054.434a10.4 10.4 0 0 1 2.063-2.96q.772-.782 1.667-1.376zm11.782 12.052q.292-.485.48-.99l1.938 2.35 3.255-.701a13 13 0 0 1-.662 1.507 11.3 11.3 0 0 1-2.648 3.36 10.6 10.6 0 0 1-3.771 2.107q-.041.012-.083.026l-2.411-2.039.629-2.775.051-.021c1.379-.6 2.457-1.529 3.224-2.835v.011zm4.076-10.971c.199.273.384.56.563.854a12.7 12.7 0 0 1 1.539 4.004c.271 1.41.315 2.829.12 4.252a13 13 0 0 1-.464 2.002l-3.255.699-1.95-2.357a5.9 5.9 0 0 0 .06-2.709 5.77 5.77 0 0 0-1.454-2.85l3.509-.42 1.306-3.476zM1.338 8.584l2.1-.444 1.236 1.509c-.391 1.084-.48 2.21-.285 3.38.045.334.119.656.21.969l-2.22-.505-1.59 1.881a11.3 11.3 0 0 1-.283-2.554q.003-2.176.807-4.199l.016-.039zm3.442 5.934a7.4 7.4 0 0 0 1.409 2.316c.465.539.99.975 1.563 1.319l-2.2 1.261.12 2.864a10.8 10.8 0 0 1-2-1.605 10.9 10.9 0 0 1-2.34-3.6c-.149-.375-.27-.75-.375-1.125l1.635-1.919 2.22.509zm3.452 3.897q.71.354 1.518.54a6.46 6.46 0 0 0 3.529-.141l-.625 2.757 2.387 2.02a12.6 12.6 0 0 1-3.659.401 11.5 11.5 0 0 1-5.231-1.435l-.119-2.882zM20.815 4.364 19.502 7.85l-3.614.435a3 3 0 0 0-.327-.255 7.8 7.8 0 0 0-4.004-1.575c-.346-.029-.675-.029-.99-.029l1.26-3.226L9.1.095c.827-.09 1.637-.104 2.459-.09q.734.021 1.459.113c.68.089 1.351.239 2.015.42 1.405.4 2.685 1.034 3.842 1.93a11.2 11.2 0 0 1 1.94 1.896"/></svg>