<svg xmlns="http://www.w3.org/2000/svg" viewBox="0 0 24 24"><path d="M4.35 1.66q-1.439 0-2.181.893-.744.893-.744 2.605v3.474q0 1.207-.259 1.858-.26.651-.96 1.218-.207.17-.206.278 0 .108.205.277.714.579.967 1.225.254.645.253 1.851v3.462q0 1.725.75 2.618t2.174.892h.882q.568 0 .72-.054.15-.055.15-.271 0-.302-.399-.398l-.483-.109q-1.595-.361-1.595-3.148v-3.293q0-1.87-.906-2.642l-.23-.193q-.168-.145-.168-.217 0-.085.169-.217l.23-.193q.905-.772.905-2.642V5.641q0-1.665.405-2.31t1.685-.995q.387-.11.387-.35 0-.326-.87-.326zm14.419.029q-.87 0-.87.325 0 .242.386.35 1.281.35 1.686.995t.405 2.31v3.294q0 1.869.906 2.641l.229.193q.17.133.17.217 0 .073-.17.217l-.23.193q-.905.773-.905 2.642v3.293q0 2.787-1.595 3.149l-.484.108q-.398.096-.398.398 0 .217.15.272.152.054.72.054h.882q1.425 0 2.174-.893.75-.892.75-2.617v-3.462q0-1.207.253-1.852.254-.645.967-1.224.205-.169.205-.278 0-.108-.205-.277-.702-.567-.961-1.218-.26-.652-.26-1.858V5.187q0-1.712-.743-2.606-.743-.892-2.18-.892zM7.683 9.735c-1.456 0-2.64 1.111-2.64 2.478h1.02c0-.838.727-1.52 1.62-1.52.892 0 1.619.682 1.619 1.52h1.02c0-1.367-1.183-2.478-2.64-2.478zm8.406 0c-1.456 0-2.639 1.111-2.639 2.478h1.02c0-.838.727-1.52 1.62-1.52.892 0 1.62.682 1.62 1.52h1.02c0-1.367-1.185-2.478-2.64-2.478zM9.71 14.36v.561c0 1.277 1.062 2.316 2.366 2.316s2.367-1.039 2.367-2.316v-.56h-.934v.56c0 .877-.76 1.426-1.433 1.426s-1.48-.273-1.48-1.426v-.56z"/></svg>