<svg xmlns="http://www.w3.org/2000/svg" viewBox="0 0 24 24"><path d="M3.25 12.358q.186-.459.38-.918.087.46.185.918zm.129-1.943a46 46 0 0 0-1.396 3.151h.649a.23.23 0 0 0 .216-.154q.075-.205.155-.41h.957l.103.411a.2.2 0 0 0 .195.155h.667a38 38 0 0 1-.752-3.152zm1.935 3.152h.784q.094-1.566.321-3.134h-.783a37 37 0 0 0-.322 3.134m3.23-2.018c-.029.25-.201.407-.467.407h-.388q.042-.41.094-.819h.384c.262 0 .41.134.378.402zm.793-.04q0-.012.003-.023c.037-.318-.026-.56-.172-.734-.17-.206-.461-.318-.871-.318H6.882a28 28 0 0 0-.096.703h.218q-.154 1.215-.226 2.43h.78q.03-.484.07-.97h.278q.193.427.394.856a.2.2 0 0 0 .183.115h.756a53 53 0 0 1-.542-1.137 1.11 1.11 0 0 0 .64-.922m2.093.062c-.031.264-.212.43-.487.43h-.274c.03-.293.062-.572.099-.865h.27c.283 0 .427.134.393.42l-.001.014m-.257-1.137H9.866c-.033.23-.066.473-.096.703h.217a37 37 0 0 0-.224 2.432h.78q.027-.454.065-.909h.3c.669-.009 1.225-.367 1.31-1.12l.002-.017c.083-.703-.326-1.088-1.046-1.088m3.032 1.19h-.866q.067-.594.154-1.19h-.784a36 36 0 0 0-.32 3.134h.784q.034-.605.09-1.209h.867q-.056.604-.09 1.21h.788a37 37 0 0 1 .321-3.135h-.789q-.087.596-.154 1.19m6.068.386a52 52 0 0 1-.847-1.631l-.718.12a36 36 0 0 0-.312 3.07h.773q.047-.821.133-1.642.417.774.865 1.548a.19.19 0 0 0 .163.094h.59a37 37 0 0 1 .32-3.134h-.772a39 39 0 0 0-.196 1.576M.941 11.713q.03-.277.066-.556h1.427q.046-.36.1-.724H.104q-.054.363-.1.725h.218A36 36 0 0 0 0 13.568h.784q.034-.58.087-1.16h.845a.25.25 0 0 0 .236-.221q.024-.236.05-.473H.94zm21.461 1.147q.022-.27.047-.538h.859a.25.25 0 0 0 .237-.221q.021-.223.047-.446h-1.075q.03-.258.062-.515h1.324q.045-.353.097-.707h-2.317a34 34 0 0 0-.097.707h.218a35 35 0 0 0-.225 2.427h2.119q.02-.354.048-.707zm-5.079-.795-.005.049c-.054.542-.293.782-.66.782-.36 0-.59-.332-.535-.874q.001-.024.005-.049c.056-.542.349-.869.71-.869a.46.46 0 0 1 .408.225l-.11.106c.093.15.217.357.188.63m.414-1.202.108-.105c-.212-.243-.52-.383-.903-.383-.818 0-1.52.658-1.616 1.593l-.007.068c-.095.94.463 1.59 1.286 1.59.822 0 1.419-.572 1.513-1.508l.007-.067a1.55 1.55 0 0 0-.388-1.188"/></svg>