<svg xmlns="http://www.w3.org/2000/svg" viewBox="0 0 24 24"><path d="m21.96.066 1.369 2.081q-4.9 1.358-10.787 1.83v3.807h10.194q-.672 6.64-3.504 10.552Q21.09 20.55 24 22.274l-1.7 1.66a25 25 0 0 1-4.582-3.74 21 21 0 0 1-4.993 3.74l-1.528-1.726q3.214-1.818 5.019-3.793-2.4-3.78-3.135-8.312h-.54q.105 8.339-2.885 13.806l-2.002-1.396q2.594-4.546 2.594-12.792V1.897q6.43-.25 11.712-1.83Zm-1.897 10.038h-4.61q.526 3.451 2.292 6.335 1.776-2.791 2.318-6.335M9.405 3.623Q9.22 6.6 8.246 9.8L6.1 9.182q.461-1.332.83-3.2H3.583Q2.648 8.259 1.646 9.97L0 8.18Q1.778 5.032 2.858.092l2.24.646a64 64 0 0 1-.764 2.885Zm-.96 15.754q-2.426 2.423-4.61 3.86l-1.385-1.91q.382-.33.382-1.002V8.431h2.345v10.84q.935-.724 2.318-2.107z"/></svg>