<svg xmlns="http://www.w3.org/2000/svg" viewBox="0 0 24 24"><path d="M8.144 19.182a1.45 1.45 0 0 0-1.237-.868l-1.615-4.976-.37-1.135c-.017.01-.112.052-.13.06-.008.01-.025.01-.033.018a.4.4 0 0 0-.07.037.5.5 0 0 1-.102.043c-.043.016-.078.034-.12.042-.035.01-.07.027-.104.036-.04.01-.083.025-.126.034q-.05.014-.103.026a.6.6 0 0 1-.137.017c-.035.01-.07.01-.103.017-.028 0-.054 0-.08.01h-.16c-.052 0-.095 0-.146-.01-.035 0-.07 0-.095-.01l-.165-.025c-.026-.01-.052-.01-.086-.017a3 3 0 0 1-.25-.06 2.5 2.5 0 0 1-1.633-3.137C1.7 7.97 3.102 7.23 4.417 7.65l.344-1.1A3.673 3.673 0 0 0 .167 8.94a3.674 3.674 0 0 0 2.39 4.59 3.9 3.9 0 0 0 1.624.128l1.634 5.035a1.4 1.4 0 0 0-.232.267 1.47 1.47 0 0 0 .387 2.053 1.47 1.47 0 0 0 2.2-.662 1.57 1.57 0 0 0-.03-1.167zM11.901.412a3.656 3.656 0 0 0-3.62 3.697c.01.54.147 1.09.38 1.58L4.381 8.8a1.5 1.5 0 0 0-.327-.138 1.47 1.47 0 0 0-1.83.997c-.233.78.214 1.596.996 1.83q.155.049.31.05c.404.025.8-.11 1.09-.38.2-.18.354-.4.43-.678a1.44 1.44 0 0 0 .018-.764l4.237-3.08.962-.702c-.017-.018-.077-.086-.094-.103l-.026-.026q-.026-.026-.052-.06a.5.5 0 0 1-.07-.087 2 2 0 0 0-.076-.103c-.026-.026-.043-.06-.07-.086a1 1 0 0 1-.068-.11.6.6 0 0 0-.06-.096 1 1 0 0 1-.06-.12c-.017-.034-.034-.06-.043-.095l-.026-.07c-.006-.017-.014-.042-.023-.06-.01-.034-.025-.07-.034-.094-.016-.044-.025-.096-.042-.147l-.025-.096c-.01-.05-.017-.11-.026-.163 0-.025-.01-.05-.018-.085a2 2 0 0 1-.017-.26 2.5 2.5 0 0 1 2.475-2.526 2.5 2.5 0 0 1 2.526 2.475l1.152-.01C15.576 2.01 13.92.386 11.9.41zm11.908 8.664a3.664 3.664 0 0 0-4.632-2.303 3.8 3.8 0 0 0-1.385.851l-4.28-3.109c.026-.113.034-.233.034-.354a1.483 1.483 0 0 0-1.512-1.435 1.483 1.483 0 0 0-1.436 1.513 1.47 1.47 0 0 0 .744 1.23c.232.128.5.205.782.197.267-.01.525-.086.73-.224l4.239 3.077.962.705.07-.12c.008-.008.008-.025.016-.034.008-.027.025-.044.034-.07.017-.034.034-.06.05-.094a.5.5 0 0 0 .07-.112l.06-.085q.037-.053.086-.104c.026-.026.043-.05.07-.086l.094-.095.077-.078c.018-.017.035-.034.06-.05.018-.018.036-.027.053-.044a.3.3 0 0 1 .086-.06c.04-.026.084-.052.12-.078a.5.5 0 0 1 .084-.05c.052-.027.094-.053.146-.08.026-.008.052-.025.077-.033a2.51 2.51 0 0 1 3.412 1.477 2.507 2.507 0 0 1-1.572 3.17l.37 1.09c1.9-.627 2.93-2.7 2.294-4.615zm-2.166.62a1.474 1.474 0 0 0-1.881-.895 1.5 1.5 0 0 0-.284.14c-.344.214-.584.56-.662.945-.05.258-.043.533.052.8.094.257.24.463.438.627l-1.616 4.976-.37 1.134c.018 0 .112.026.138.026.017 0 .026 0 .043.01.028.008.054.008.08.017q.053.014.104.025c.043.01.086.026.13.035.033.01.068.017.102.034l.12.05c.035.018.07.027.103.044.04.017.076.043.12.06.033.017.06.034.093.052.026.01.043.025.06.043.018.01.035.024.052.033.026.018.06.035.086.06a.6.6 0 0 1 .113.096c.025.016.05.042.077.06.043.033.077.076.12.12.02.016.043.034.06.06.06.06.11.13.164.197a2.505 2.505 0 0 1-.516 3.497 2.507 2.507 0 0 1-3.5-.515l-.927.686c1.205 1.616 3.5 1.96 5.116.757s1.96-3.497.756-5.112a3.8 3.8 0 0 0-1.237-1.058l1.632-5.036a1.48 1.48 0 0 0 1.238-1.968zM18.2 18.905a1.45 1.45 0 0 0-1.315-.558 1.4 1.4 0 0 0-.748.3c-.215.163-.37.378-.465.61H9.243c0 .017.01.12.02.137 0 .018 0 .026.01.043 0 .026.01.052.01.078 0 .034.007.07.007.112 0 .043 0 .086.01.128v.112c0 .043-.01.086-.01.13 0 .034-.01.068-.01.11-.01.044-.02.087-.02.138-.007.035-.007.07-.015.103-.01.025-.01.05-.017.08-.01.014-.01.04-.018.06q-.014.047-.026.1c-.017.043-.034.095-.052.14-.01.032-.025.06-.034.092a3 3 0 0 1-.077.146c-.016.025-.024.05-.033.077a2 2 0 0 1-.138.215 2.504 2.504 0 0 1-3.49.583 2.5 2.5 0 0 1-.585-3.489l-.937-.67a3.66 3.66 0 0 0 .86 5.096 3.656 3.656 0 0 0 5.095-.86c.318-.445.524-.97.628-1.502h5.294a1.48 1.48 0 0 0 2.252.567c.61-.508.73-1.436.232-2.08z"/></svg>