<svg xmlns="http://www.w3.org/2000/svg" viewBox="0 0 24 24"><path d="M12 0a1.007 1.007 0 0 0-1.008 1.008A1.009 1.009 0 1 0 12 0M8.69.541a1 1 0 0 0-.399.047c-.528.17-.82.74-.646 1.27a1.007 1.007 0 1 0 1.918-.624A1 1 0 0 0 8.69.541m6.62 0a1.01 1.01 0 1 0 1.047 1.316 1.01 1.01 0 0 0-.65-1.27 1 1 0 0 0-.396-.046m-4.722 1.45a1 1 0 0 0-.172.009.85.85 0 0 0-.707.973.85.85 0 0 0 .975.707.85.85 0 0 0 .707-.973.854.854 0 0 0-.803-.717m2.824 0a.85.85 0 0 0-.8.716c-.075.464.241.9.704.973.464.073.9-.242.975-.705A.853.853 0 0 0 13.584 2a1 1 0 0 0-.172-.01M5.504 2.1a1 1 0 0 0-.557.191 1.01 1.01 0 1 0 .557-.191m12.992 0a1.007 1.007 0 0 0-.629 1.824 1.01 1.01 0 0 0 1.188-1.633 1 1 0 0 0-.559-.191M7.73 2.887a.8.8 0 0 0-.325.091.85.85 0 0 0-.37 1.145.846.846 0 0 0 1.142.371.853.853 0 0 0 .373-1.144.85.85 0 0 0-.82-.463m8.543 0a.85.85 0 0 0-.82.463.85.85 0 0 0 .372 1.144.846.846 0 0 0 1.143-.37.85.85 0 0 0-.37-1.146.9.9 0 0 0-.325-.091M12 3.563a.71.71 0 0 0-.709.708c0 .393.317.71.709.71a.71.71 0 0 0 .709-.71.71.71 0 0 0-.709-.709m-2.328.38a.7.7 0 0 0-.28.034.71.71 0 0 0-.454.892.71.71 0 0 0 .892.455.71.71 0 0 0 .457-.892.71.71 0 0 0-.615-.489m4.656 0a.71.71 0 1 0 .734.926.71.71 0 0 0-.454-.892.7.7 0 0 0-.28-.034m-11.183.588a1.01 1.01 0 0 0-.854.416 1.01 1.01 0 0 0 .225 1.409c.45.327 1.08.228 1.406-.223.33-.45.231-1.082-.22-1.41a1 1 0 0 0-.557-.192zm17.713 0a1 1 0 0 0-.56.192 1.008 1.008 0 1 0 .559-.191M5.443 4.59a.85.85 0 0 0-.601.25.853.853 0 0 0-.002 1.205.855.855 0 0 0 1.205 0 .855.855 0 0 0 0-1.205.85.85 0 0 0-.602-.25m13.116 0a.85.85 0 0 0-.604.25.853.853 0 0 0 0 1.205.854.854 0 0 0 1.205 0 .85.85 0 0 0 0-1.205.85.85 0 0 0-.601-.25m-11.125.45a.7.7 0 0 0-.393.134.71.71 0 0 0 .834 1.146.707.707 0 0 0 .156-.988.7.7 0 0 0-.597-.293zm9.132 0a.7.7 0 0 0-.597.292c-.23.317-.16.76.156.988a.707.707 0 0 0 .99-.156.708.708 0 0 0-.549-1.125m-5.546.009a.6.6 0 0 0-.12.008.59.59 0 1 0 .676.49.59.59 0 0 0-.557-.498m1.96 0a.59.59 0 0 0-.554.498.59.59 0 1 0 .674-.49.6.6 0 0 0-.12-.008m-3.945.623a.6.6 0 0 0-.228.064.59.59 0 0 0-.258.793.59.59 0 0 0 .795.26.595.595 0 0 0 .26-.797.59.59 0 0 0-.569-.32zm5.932 0a.59.59 0 0 0-.569.32.59.59 0 0 0 .256.795.59.59 0 0 0 .797-.258.59.59 0 0 0-.26-.793.6.6 0 0 0-.224-.064M12 6.188a.49.49 0 0 0-.488.488.49.49 0 1 0 .488-.488m-1.603.261a.5.5 0 0 0-.192.024.487.487 0 1 0 .3.928.49.49 0 0 0 .315-.616.49.49 0 0 0-.424-.336m3.206 0a.49.49 0 0 0-.421.336.49.49 0 0 0 .312.616.488.488 0 0 0 .303-.928.5.5 0 0 0-.194-.024m-7.83.3a.7.7 0 0 0-.597.292.709.709 0 1 0 .988-.158.7.7 0 0 0-.39-.135m12.456 0a.7.7 0 0 0-.393.134.707.707 0 0 0-.158.99.709.709 0 1 0 1.149-.832.7.7 0 0 0-.598-.293m-10.784.107a.6.6 0 0 0-.418.173.59.59 0 0 0 0 .834.59.59 0 0 0 .836 0 .59.59 0 0 0 .002-.836.6.6 0 0 0-.42-.171m9.11 0a.6.6 0 0 0-.418.173.587.587 0 0 0 0 .834.59.59 0 0 0 .834 0 .59.59 0 0 0 .002-.834.6.6 0 0 0-.418-.173M3.799 6.94a.86.86 0 0 0-.82.464.85.85 0 0 0 .372 1.143.85.85 0 1 0 .772-1.516.8.8 0 0 0-.324-.091m16.404 0a.9.9 0 0 0-.326.091.851.851 0 1 0 1.144.373.85.85 0 0 0-.818-.464m-11.35.265a.5.5 0 0 0-.269.092.49.49 0 0 0 .574.79.49.49 0 0 0 .108-.68.48.48 0 0 0-.412-.202m6.294 0a.49.49 0 0 0-.413.201.487.487 0 0 0 .11.682.49.49 0 0 0 .681-.108.49.49 0 0 0-.109-.683.5.5 0 0 0-.27-.092m-3.813.068a.4.4 0 0 0-.08.004.403.403 0 1 0 .08-.004m1.332 0a.4.4 0 0 0-.379.338.41.41 0 0 0 .334.461.403.403 0 0 0 .127-.795.4.4 0 0 0-.082-.004m-11.205.325a1.009 1.009 0 1 0 .396.045 1 1 0 0 0-.396-.046m21.078 0a1 1 0 0 0-.396.045c-.53.173-.821.743-.649 1.273.174.53.741.82 1.27.646a1.007 1.007 0 0 0-.225-1.964m-12.555.1a.4.4 0 0 0-.156.042.403.403 0 0 0-.176.54.4.4 0 0 0 .541.175.4.4 0 0 0 .176-.539.4.4 0 0 0-.385-.219m4.032 0a.4.4 0 0 0-.385.216.4.4 0 0 0 .176.541.4.4 0 0 0 .539-.176.4.4 0 0 0-.176-.54.4.4 0 0 0-.154-.042m-6.305.685a.488.488 0 1 0 .27.092.5.5 0 0 0-.27-.092m8.58 0a.5.5 0 0 0-.271.092.487.487 0 0 0-.108.681.489.489 0 1 0 .79-.572.48.48 0 0 0-.411-.201m-9.986.103a.59.59 0 0 0-.57.322.59.59 0 0 0 .26.794.587.587 0 0 0 .792-.256.593.593 0 0 0-.258-.797.6.6 0 0 0-.224-.063m11.392 0a.6.6 0 0 0-.226.063.593.593 0 0 0-.258.797.59.59 0 0 0 .793.257.59.59 0 0 0 .258-.795.59.59 0 0 0-.567-.322M8.904 8.5a.4.4 0 0 0-.287.12.4.4 0 0 0 .002.568.4.4 0 0 0 .568 0 .4.4 0 0 0 0-.569.4.4 0 0 0-.283-.119m6.194.002a.4.4 0 0 0-.286.117.4.4 0 0 0 .003.569.4.4 0 0 0 .566 0 .4.4 0 0 0 0-.569.4.4 0 0 0-.283-.117M4.59 8.906a.708.708 0 0 0-.158 1.379.707.707 0 0 0 .892-.453.707.707 0 0 0-.455-.893.7.7 0 0 0-.28-.033m14.82 0a.7.7 0 0 0-.28.033.707.707 0 1 0 .438 1.346.71.71 0 0 0 .457-.892.71.71 0 0 0-.615-.487zm-11.283.705a.4.4 0 0 0-.387.22.4.4 0 0 0 .176.538.397.397 0 0 0 .539-.174.4.4 0 0 0-.176-.54.4.4 0 0 0-.152-.044m7.746 0a.4.4 0 0 0-.152.043.4.4 0 0 0-.176.541.403.403 0 0 0 .539.174.4.4 0 0 0 .176-.54.4.4 0 0 0-.387-.218M2.801 9.7a.85.85 0 0 0-.803.717.85.85 0 0 0 .709.973.85.85 0 0 0 .973-.705.85.85 0 0 0-.705-.975 1 1 0 0 0-.174-.01zm18.398 0a1 1 0 0 0-.172.01.85.85 0 0 0-.707.975.85.85 0 0 0 .973.705.85.85 0 0 0 .707-.973.85.85 0 0 0-.8-.717m-14.305.168a.49.49 0 0 0-.421.336.487.487 0 0 0 .314.615.487.487 0 0 0 .615-.312.49.49 0 0 0-.314-.617.5.5 0 0 0-.194-.022m10.211 0a.5.5 0 0 0-.193.022.493.493 0 0 0-.314.617.49.49 0 0 0 .617.312.486.486 0 0 0 .31-.615.48.48 0 0 0-.42-.336M5.611 10.4a.59.59 0 0 0-.554.498.591.591 0 1 0 1.166.188.593.593 0 0 0-.493-.678.6.6 0 0 0-.119-.008m12.778 0a.6.6 0 0 0-.12.008.59.59 0 0 0-.492.678.59.59 0 0 0 .676.49.59.59 0 0 0 .49-.678.59.59 0 0 0-.554-.498m-10.733.514a.404.404 0 0 0-.379.336.4.4 0 0 0 .336.461.4.4 0 0 0 .457-.332.403.403 0 0 0-.334-.463.4.4 0 0 0-.08-.002zm8.688 0a.4.4 0 0 0-.082.004.4.4 0 0 0-.332.461c.034.218.24.366.459.332a.4.4 0 0 0 .334-.459.4.4 0 0 0-.38-.338m-15.336.078a1.008 1.008 0 0 0 0 2.016A1.007 1.007 0 0 0 2.016 12c0-.556-.451-1.008-1.008-1.008zm21.984 0a1.008 1.008 0 1 0-.003 2.017 1.008 1.008 0 0 0 .003-2.017zm-18.72.3a.71.71 0 0 0-.71.708.71.71 0 0 0 .71.709A.71.71 0 0 0 4.98 12a.71.71 0 0 0-.709-.709m15.456 0a.71.71 0 0 0 0 1.417.706.706 0 0 0 .707-.709.707.707 0 0 0-.707-.709m-13.052.218a.49.49 0 0 0-.489.49c0 .269.219.488.489.486a.488.488 0 1 0 0-.976m10.648 0a.49.49 0 0 0-.488.49.486.486 0 0 0 .488.486.487.487 0 0 0 .488-.486.49.49 0 0 0-.488-.49m-1.017.773a.4.4 0 0 0-.377.338.401.401 0 1 0 .793.127.4.4 0 0 0-.334-.459.4.4 0 0 0-.082-.006m-8.614.002a.4.4 0 0 0-.082.004.4.4 0 0 0-.334.46c.035.219.241.366.461.333a.404.404 0 0 0 .334-.46.4.4 0 0 0-.379-.337zm-2.027.133a.6.6 0 0 0-.121.006.59.59 0 0 0-.488.676.59.59 0 0 0 .673.492.59.59 0 0 0 .493-.678.59.59 0 0 0-.557-.496m12.668 0a.59.59 0 0 0-.557.498.59.59 0 1 0 1.166.184.59.59 0 0 0-.49-.676.6.6 0 0 0-.119-.006M2.879 12.6a1 1 0 0 0-.172.01.852.852 0 1 0 .973.707.85.85 0 0 0-.801-.717zm18.242 0a.851.851 0 1 0 .174.01 1 1 0 0 0-.174-.01m-14.14.558a.5.5 0 0 0-.194.022.49.49 0 0 0-.314.617.49.49 0 0 0 .93-.303.49.49 0 0 0-.423-.336m10.04 0a.49.49 0 0 0-.423.336.49.49 0 0 0 .314.615.485.485 0 0 0 .613-.312.49.49 0 0 0-.31-.617.5.5 0 0 0-.194-.022m-8.95.428a.4.4 0 0 0-.153.043.4.4 0 0 0-.176.54.4.4 0 0 0 .537.177.4.4 0 0 0 .176-.54.4.4 0 0 0-.385-.22m7.86 0a.41.41 0 0 0-.388.219.404.404 0 0 0 .176.54.404.404 0 0 0 .543-.175c.1-.196.02-.44-.178-.541a.4.4 0 0 0-.152-.043m-11.22.094a.7.7 0 0 0-.28.033.71.71 0 0 0-.454.894.707.707 0 0 0 .892.454.707.707 0 0 0 .455-.893.71.71 0 0 0-.613-.488m14.578 0a.71.71 0 0 0-.613.49c-.12.372.082.77.455.89a.707.707 0 0 0 .892-.453.71.71 0 0 0-.455-.894.7.7 0 0 0-.279-.033m-13.07.654a.6.6 0 0 0-.225.062.59.59 0 0 0-.26.795.59.59 0 0 0 .795.258.586.586 0 0 0 .258-.793.59.59 0 0 0-.568-.322zm11.562 0a.59.59 0 0 0-.568.32.59.59 0 0 0 .258.795.592.592 0 1 0 .535-1.053.6.6 0 0 0-.225-.062m-16.148.057a1 1 0 0 0-.397.046 1.009 1.009 0 1 0 1.27.647 1.01 1.01 0 0 0-.873-.693m20.734 0a1.01 1.01 0 0 0-.873.693 1.008 1.008 0 1 0 1.27-.646 1 1 0 0 0-.397-.047m-14.691.25a.5.5 0 0 0-.27.093.49.49 0 0 0-.11.682.49.49 0 0 0 .685.11.49.49 0 0 0 .109-.684.5.5 0 0 0-.414-.201m8.648 0a.49.49 0 0 0-.412.2.49.49 0 0 0 .107.684c.219.159.526.11.682-.109a.49.49 0 0 0-.107-.682.5.5 0 0 0-.27-.093m-7.42.054a.4.4 0 0 0-.285.115.4.4 0 0 0 0 .569.403.403 0 0 0 .569.002.403.403 0 0 0 0-.57.4.4 0 0 0-.284-.116m6.192 0a.4.4 0 0 0-.283.117.401.401 0 1 0 .568.569.4.4 0 0 0 0-.569.4.4 0 0 0-.285-.117m-11.42.666a.8.8 0 0 0-.324.09.851.851 0 1 0 .324-.09zm16.648 0a.86.86 0 0 0-.82.463.851.851 0 1 0 1.144-.373.8.8 0 0 0-.324-.09m-6.365.139a.4.4 0 0 0-.154.043.405.405 0 0 0-.174.541.4.4 0 0 0 .539.176.404.404 0 0 0 .176-.541.4.4 0 0 0-.387-.219m-3.918.002a.4.4 0 0 0-.387.217.4.4 0 0 0 .176.54.402.402 0 0 0 .365-.717.4.4 0 0 0-.154-.04m-1.152.316a.49.49 0 0 0-.412.202.487.487 0 1 0 .789.572.49.49 0 0 0-.108-.682.5.5 0 0 0-.27-.092m6.224 0a.5.5 0 0 0-.27.092.489.489 0 1 0 .682.11.49.49 0 0 0-.412-.202m-9.39.016a.7.7 0 0 0-.391.133.71.71 0 0 0-.156.992.704.704 0 0 0 .988.156.707.707 0 0 0 .158-.988.71.71 0 0 0-.6-.293m12.554 0a.71.71 0 0 0-.6.293.705.705 0 0 0 .159.988.706.706 0 0 0 .99-.156.71.71 0 0 0-.158-.992.7.7 0 0 0-.39-.133m-6.98.088a.405.405 0 0 0-.381.342.406.406 0 0 0 .338.459.402.402 0 0 0 .125-.795.4.4 0 0 0-.082-.006m1.406.002a.4.4 0 0 0-.082.004.4.4 0 0 0-.332.46.4.4 0 0 0 .46.335.4.4 0 0 0 .331-.46.4.4 0 0 0-.377-.34m-5.258.039a.6.6 0 0 0-.418.174.59.59 0 0 0 .836.834.59.59 0 0 0 .002-.834.6.6 0 0 0-.42-.174m9.11 0a.6.6 0 0 0-.418.174.587.587 0 0 0 0 .834.59.59 0 0 0 .834 0 .59.59 0 0 0 0-.834.59.59 0 0 0-.416-.174m-6.242.613a.49.49 0 0 0-.422.336.486.486 0 0 0 .314.615.49.49 0 0 0 .615-.312.49.49 0 0 0-.314-.617.5.5 0 0 0-.193-.022m3.375 0a.5.5 0 0 0-.194.022.489.489 0 0 0 .303.93.49.49 0 0 0 .312-.616.49.49 0 0 0-.421-.336m-1.688.26a.49.49 0 0 0-.488.488.488.488 0 1 0 .488-.488m-2.883.312a.59.59 0 0 0-.568.32.593.593 0 0 0 .258.796.59.59 0 0 0 .797-.258.594.594 0 0 0-.258-.795.6.6 0 0 0-.229-.063m5.766 0a.6.6 0 0 0-.227.063.593.593 0 0 0-.26.795c.15.29.507.406.797.258a.59.59 0 0 0 .256-.795.59.59 0 0 0-.566-.32m-11.81.303a1 1 0 0 0-.557.193 1.01 1.01 0 1 0 1.408.223 1.01 1.01 0 0 0-.852-.416m17.855.002a1.009 1.009 0 1 0 .556.192 1 1 0 0 0-.556-.192m-13.446.09a.71.71 0 0 0-.597.293.71.71 0 1 0 .99-.158.7.7 0 0 0-.393-.135m9.036 0a.7.7 0 0 0-.393.135.71.71 0 0 0-.156.99.71.71 0 0 0 .99.158.71.71 0 0 0 .156-.99.7.7 0 0 0-.597-.293m-11.075.162a.85.85 0 0 0-.601.25.85.85 0 1 0 1.203 1.203.852.852 0 0 0-.602-1.453m13.116.002a.86.86 0 0 0-.604.248.85.85 0 0 0 0 1.203.854.854 0 0 0 1.205 0 .85.85 0 0 0 0-1.203.84.84 0 0 0-.601-.248m-7.592.062a.59.59 0 0 0-.066 1.174.59.59 0 0 0 .675-.492.587.587 0 0 0-.49-.674.6.6 0 0 0-.12-.008m2.066 0a.6.6 0 0 0-.119.008.59.59 0 0 0-.488.674c.05.322.35.544.674.492a.59.59 0 0 0 .49-.675.59.59 0 0 0-.557-.498m-3.482.873a.71.71 0 0 0-.613.489.71.71 0 0 0 .455.892.71.71 0 0 0 .894-.455.71.71 0 0 0-.457-.892.7.7 0 0 0-.28-.033m4.898 0a.7.7 0 0 0-.28.032.71.71 0 1 0 .893.457.71.71 0 0 0-.613-.488zM12 19.02a.71.71 0 0 0-.709.709c0 .391.317.709.709.709a.71.71 0 0 0 .709-.71.71.71 0 0 0-.709-.708m-4.15.394a.85.85 0 0 0-.819.463.85.85 0 1 0 1.145-.373.9.9 0 0 0-.326-.09m8.3 0a.9.9 0 0 0-.328.09.852.852 0 1 0 .775 1.516.85.85 0 0 0 .37-1.143.85.85 0 0 0-.817-.463zm-10.576.469a1.01 1.01 0 0 0-.851.416 1.01 1.01 0 0 0 .224 1.408 1.01 1.01 0 0 0 1.409-.223 1.007 1.007 0 0 0-.223-1.408 1 1 0 0 0-.559-.193m12.852 0a1 1 0 0 0-.559.193 1.009 1.009 0 1 0 1.41.223 1.01 1.01 0 0 0-.851-.416m-7.914.426a.854.854 0 0 0-.803.718.85.85 0 1 0 1.68.264.85.85 0 0 0-.705-.973 1 1 0 0 0-.172-.01m2.978 0a.85.85 0 0 0-.879.984.85.85 0 1 0 1.68-.266.85.85 0 0 0-.8-.718m-4.972 1.14a1.01 1.01 0 0 0-.227 1.963 1.008 1.008 0 1 0 .623-1.918 1 1 0 0 0-.396-.045m6.964 0a1 1 0 0 0-.396.045 1.01 1.01 0 0 0-.65 1.27 1.01 1.01 0 0 0 1.921-.621 1.01 1.01 0 0 0-.875-.694M12 21.982A1.01 1.01 0 0 0 12 24a1.007 1.007 0 0 0 1.008-1.008c0-.556-.45-1.01-1.008-1.01"/></svg>