<svg xmlns="http://www.w3.org/2000/svg" viewBox="0 0 24 24"><path d="M13.12 10.254c1.439 0 2.166.775 2.166 2.325 0 .735-.224 1.438-.584 1.846-.359.407-.942.623-1.669.623-.704 0-1.223-.192-1.559-.567-.375-.416-.599-1.119-.599-1.91 0-1.534.759-2.317 2.245-2.317m-.016 1.414c-.567 0-.863.368-.863 1.063 0 .751.304 1.174.839 1.174.536 0 .847-.447.847-1.214 0-.679-.271-1.023-.823-1.023m6.956-1.254v4.474h-1.438v-.471c0-.152.008-.192.048-.48h-.048c-.136.392-.231.56-.415.736-.248.247-.592.375-.975.375-.471 0-.887-.192-1.119-.519-.128-.184-.231-.496-.263-.839a21 21 0 0 1-.016-1.095v-2.181h1.502v2.141c0 .719.008.783.096.935.096.152.263.24.471.24.28 0 .504-.16.591-.416.056-.176.064-.255.064-.759v-2.141zM8.813 14.898V8.952H10.3v5.946zm-2.265 0V8.952H8.07v5.946zM0 9.589h3.61v1.334H1.411v.878H3.61v1.238H1.411v1.859H0zm4.303 5.3v-4.427c.272.104.448.136.727.136.272 0 .488-.04.775-.136v4.427zm.734-4.687q-.867 0-.869-.606c0-.192.09-.375.234-.482s.379-.162.671-.162q.423 0 .625.148a.6.6 0 0 1 .241.498c0 .4-.305.604-.902.604m16.597-.625c0 1.134-.399 1.339-1.142 1.339v.88h.743c-.032.471-.04.759-.04 1.215 0 .807.072 1.214.264 1.518.216.335.639.519 1.199.519.575 0 .95-.152 1.342-.543v-1.039c-.24.304-.495.439-.807.439-.192 0-.36-.079-.439-.207-.088-.136-.12-.344-.12-.711 0-.512-.024-1.191-.024-1.191H24V10.41h-1.39v-.833z"/></svg>