<svg xmlns="http://www.w3.org/2000/svg" viewBox="0 0 24 24"><path d="M1.712 8.72a1.7 1.7 0 0 0-1.21.488A1.68 1.68 0 0 0 0 10.404v3.176a1.68 1.68 0 0 0 .496 1.207 1.7 1.7 0 0 0 1.216.493h20.576v-.016a1.7 1.7 0 0 0 1.21-.487A1.68 1.68 0 0 0 24 13.58v-3.176a1.68 1.68 0 0 0-.502-1.196 1.7 1.7 0 0 0-1.21-.488Zm18.256 1.462c1.136 0 2.048.81 2.048 1.795s-.912 1.794-2.048 1.794-2.048-.683-2.048-1.794c0-1.112.912-1.795 2.048-1.795m-3.344.016a3.2 3.2 0 0 1 .96.143l-.16.524a2.4 2.4 0 0 0-.8-.127c-.992 0-1.792.397-1.792 1.254 0 .858.8 1.255 1.792 1.255a2.4 2.4 0 0 0 .784-.127l.16.524a3.2 3.2 0 0 1-.944.143c-1.52 0-2.464-.683-2.464-1.795s1.104-1.794 2.464-1.794m-14.336.063h2.576v.508h-1.92v.97h1.824v.508H2.944v1.477h-.656Zm3.312 0h.656v3.469H5.6Zm1.504 0h.816l1.088 1.477a9 9 0 0 1 .72 1.16h.016a13 13 0 0 1-.064-1.446v-1.191h.656v3.462H9.6L8.496 12.2a12 12 0 0 1-.752-1.207h-.016c.032.444.032.905.032 1.477v1.238l-.656.016zm4 0h2.576v.524h-1.92v.953h1.824v.524H11.76v.953l1.92-.016v.524h-2.576zm8.864.445c-.768 0-1.392.397-1.392 1.27 0 .874.624 1.271 1.392 1.271s1.392-.572 1.392-1.27c0-.7-.624-1.271-1.392-1.271"/></svg>