<svg xmlns="http://www.w3.org/2000/svg" viewBox="0 0 24 24"><path d="M12.156 0c-3.602 4.89.391 7.768 2.61 11.893-.751 1.527-1.745 3.08-2.733 4.836l-.072.025c-.849-.983-1.99-1.85-3.033-2.967 2.606-5.783-.809-9.812-.809-9.812a12.6 12.6 0 0 0-1.916 2.021c-2.296 3.06-2.027 5.897-2.027 5.897C4.176 19.07 12.125 24 12.125 24a22 22 0 0 0 2.139-1.594c5.864-4.974 5.564-10.513 5.564-10.513.122-4.308-1.622-5.905-4.82-9.014A84 84 0 0 1 12.156 0m.678 18.057a4 4 0 0 1 .14.328 5 5 0 0 0-.14-.328m.266.718a4.3 4.3 0 0 1 .14.791q.037.428-.006.91a5 5 0 0 0 .006-.91 4.5 4.5 0 0 0-.14-.79z"/></svg>