<svg xmlns="http://www.w3.org/2000/svg" viewBox="0 0 24 24"><path d="M8.824 7.287c.008 0 .004 0 0 0m-2.8-1.4c.006 0 .003 0 0 0m16.754 2.161c-.505-1.215-1.53-2.528-2.333-2.943.654 1.283 1.033 2.57 1.177 3.53l.002.02c-1.314-3.278-3.544-4.6-5.366-7.477-.091-.147-.184-.292-.273-.446a4 4 0 0 1-.13-.24 2 2 0 0 1-.172-.46.03.03 0 0 0-.027-.03.04.04 0 0 0-.021 0l-.006.001-.01.005.005-.008c-2.585 1.515-3.657 4.168-3.932 5.856a6.2 6.2 0 0 0-2.305.587.297.297 0 0 0-.147.37c.057.162.24.24.396.17a5.6 5.6 0 0 1 2.008-.523l.067-.005a5.9 5.9 0 0 1 1.957.222l.095.03a6 6 0 0 1 .616.228q.12.054.238.112l.107.055a6 6 0 0 1 .368.211 5.95 5.95 0 0 1 2.034 2.104c-.62-.437-1.733-.868-2.803-.681 4.183 2.09 3.06 9.292-2.737 9.02a5.2 5.2 0 0 1-1.513-.292 4.4 4.4 0 0 1-.538-.232c-1.42-.735-2.593-2.121-2.74-3.806 0 0 .537-2 3.845-2 .357 0 1.38-.998 1.398-1.287-.005-.095-2.029-.9-2.817-1.677-.422-.416-.622-.616-.8-.767a4 4 0 0 0-.301-.227 5.4 5.4 0 0 1-.032-2.842c-1.195.544-2.124 1.403-2.8 2.163h-.006c-.46-.584-.428-2.51-.402-2.913-.006-.025-.343.176-.389.206a8.4 8.4 0 0 0-1.136.974q-.596.606-1.085 1.303a9.8 9.8 0 0 0-1.562 3.52c-.003.013-.11.487-.19 1.073q-.02.135-.037.272a8 8 0 0 0-.069.667l-.002.034-.023.387-.001.06C.386 18.795 5.593 24 12.016 24c5.752 0 10.527-4.176 11.463-9.661q.028-.223.052-.448c.232-1.994-.025-4.09-.753-5.844z"/></svg>