<svg xmlns="http://www.w3.org/2000/svg" viewBox="0 0 24 24"><path d="m19.164 9.228-3.016 2.688v.527l3.016 2.688v-1.228l-1.936-1.723 1.936-1.724zm-6.658.046v1.208l1.905 1.696-1.905 1.695v1.209l2.968-2.645v-.518zM9.781 7.847a6.5 6.5 0 0 0-2.038-.335q-1.008 0-2.03.335a9.2 9.2 0 0 0-2.088 1.017v.723q1.035-.6 2.06-.897a7.4 7.4 0 0 1 2.058-.296q1.026 0 2.052.296a9.5 9.5 0 0 1 2.075.897v-.723a9.2 9.2 0 0 0-2.09-1.017m.014 7.78a7.4 7.4 0 0 1-2.052.296 7.4 7.4 0 0 1-2.057-.296 9.2 9.2 0 0 1-2.061-.897v.723a9.2 9.2 0 0 0 2.088 1.017 6.5 6.5 0 0 0 2.03.335q1.017 0 2.038-.335a9.2 9.2 0 0 0 2.089-1.017v-.723q-1.05.6-2.075.897m.602-11.23h-.51L7.28 6.92h1.19l1.672-1.62 1.671 1.62h1.191l-2.607-2.525m-2.965 13.68v-.824H6.427v.825l.786 1.527h.614zM4.127 10.95v1.216H5.13V10.95zm-1.16-1.695L0 11.901v.518l2.967 2.645v-1.208L1.063 12.16l1.904-1.695zm20.68 3.28q-.352-.45-1.017-.626.593-.154.902-.525.31-.37.31-.926 0-.819-.59-1.314t-1.575-.495q-.33 0-.758.073-.427.072-.974.217v.84q.47-.18.9-.27a4 4 0 0 1 .832-.091q.605 0 .933.278.327.277.328.798 0 .492-.353.768t-.98.276h-.697v.75h.696q.687 0 1.09.346.402.345.402.934 0 .637-.402.976-.403.339-1.153.339a3.6 3.6 0 0 1-.89-.117 4.4 4.4 0 0 1-.91-.358v.909a6 6 0 0 0 .95.249q.484.085.95.085 1.107 0 1.733-.53.626-.532.626-1.463 0-.673-.353-1.123"/></svg>