<svg xmlns="http://www.w3.org/2000/svg" viewBox="0 0 24 24"><path d="m12.178 12.905-1.064 2.519h-.47l1.37-3.22h.322l1.443 3.22h-.47zm10.837 1.5h-1.477a.69.69 0 0 0 .203.481.67.67 0 0 0 .481.181q.41 0 .759-.255v.408a1.4 1.4 0 0 1-.38.181 1.7 1.7 0 0 1-.44.057c-.233 0-.42-.046-.561-.148a1.05 1.05 0 0 1-.345-.39 1.2 1.2 0 0 1-.13-.566q0-.484.271-.78c.181-.205.419-.3.708-.3.277 0 .503.095.667.294q.249.295.25.786v.051zm-1.472-.249h1.064a.6.6 0 0 0-.147-.39.48.48 0 0 0-.356-.136.52.52 0 0 0-.368.136.67.67 0 0 0-.193.39m-1.76-.843v.48l.023-.033c.204-.328.408-.487.606-.487q.237 0 .492.238l-.22.368q-.223-.204-.403-.204c-.135 0-.249.062-.35.192a.72.72 0 0 0-.147.459v1.103h-.42v-2.11h.42zm-1.131.843v.9q-.002.108.073.107c.075-.001.13-.04.238-.113v.25q-.143.09-.226.124a.5.5 0 0 1-.181.034c-.182 0-.283-.068-.317-.21a.92.92 0 0 1-.566.21.503.503 0 0 1-.515-.515.5.5 0 0 1 .141-.357 1 1 0 0 1 .408-.249l.532-.181v-.113q.001-.384-.38-.385-.34.002-.662.35v-.452q.247-.282.696-.283a.83.83 0 0 1 .55.181q.066.06.124.153a.5.5 0 0 1 .068.193c.011.056.017.18.017.356m-.408.849v-.623l-.277.108a.9.9 0 0 0-.3.17.3.3 0 0 0-.09.215q0 .129.084.215.086.084.215.085a.57.57 0 0 0 .368-.17m-1.771-1.692h.447l-.928 2.156h-.141l-.623-1.477-.611 1.477h-.142l-.933-2.156h.447l.554 1.284.532-1.284h.312l.537 1.284zm7.526-4.182c.006.017-.028.062-.056.096-.045.045-.176.198-.696.311-.52.114-1.177.232-1.223.244-.045.005-.135-.012-.186.141l-.623 2.218-.175.04-.198-2.162s-1.228.244-1.353.244l-.311.826-.158.017.033-.838s-.17-.028-.198-.034c-.01 0-.022 0-.028-.017q0-.015.017-.022c.023-.017.17-.108.17-.108l-.368-.752.153-.051.617.634c.113-.051 1.335-.323 1.335-.323l-.685-2.066.176-.033s1.358 1.663 1.466 1.782.18.068.226.057c.045-.012.696-.164 1.217-.272.52-.107.701-.017.763.006.034.011.085.045.085.062m-12.908 6.293a.16.16 0 0 1-.084-.023.147.147 0 0 1-.04-.21c.006-.01.17-.26.498-.65a.146.146 0 0 1 .21-.017c.062.05.073.147.016.21-.317.373-.475.616-.48.622a.13.13 0 0 1-.12.068m1.025-1.228a.14.14 0 0 1-.102-.04.145.145 0 0 1-.006-.21c.187-.192.38-.384.577-.565a.15.15 0 0 1 .21.005.15.15 0 0 1-.006.21c-.192.18-.385.368-.566.554a.13.13 0 0 1-.107.046m1.171-1.081a.13.13 0 0 1-.113-.057.146.146 0 0 1 .023-.21c.209-.169.424-.339.639-.491a.147.147 0 0 1 .21.033.147.147 0 0 1-.035.21 11 11 0 0 0-.622.486.2.2 0 0 1-.102.029m1.296-.945a.14.14 0 0 1-.125-.068.154.154 0 0 1 .046-.21q.34-.222.69-.418a.15.15 0 0 1 .204.056.15.15 0 0 1-.057.204c-.226.13-.458.266-.679.407a.11.11 0 0 1-.079.029m1.392-.781a.149.149 0 0 1-.068-.283q.364-.18.736-.334c.073-.034.164.006.198.08a.15.15 0 0 1-.08.197c-.243.102-.486.21-.718.323a.2.2 0 0 1-.068.017m1.471-.617a.15.15 0 0 1-.141-.102.154.154 0 0 1 .09-.192c.255-.085.515-.17.77-.238a.15.15 0 0 1 .187.102.15.15 0 0 1-.102.187c-.255.068-.51.147-.753.232-.017.011-.034.011-.05.011zm-8.601 2.875.786-.77v.436h.663v.373H9.63v1.042q.002.363.3.362a.95.95 0 0 0 .47-.147v.39a1.04 1.04 0 0 1-.52.136.68.68 0 0 1-.476-.17.5.5 0 0 1-.096-.113.6.6 0 0 1-.062-.164 2 2 0 0 1-.029-.39v-.94H8.85v-.045zM6.666 12.22h.419v1.363a.81.81 0 0 1 .645-.316.67.67 0 0 1 .628.401c.057.125.08.312.08.555v1.205h-.42v-1.307a.6.6 0 0 0-.113-.373.36.36 0 0 0-.3-.142.5.5 0 0 0-.26.074 1.1 1.1 0 0 0-.266.237v1.517h-.418V12.22zm-2.224 1.822q.001-.338.25-.532.246-.197.673-.198h.871v.322h-.424a.7.7 0 0 1 .17.232q.05.103.05.238a.65.65 0 0 1-.096.328.63.63 0 0 1-.243.244c-.102.056-.26.102-.487.135q-.237.036-.237.165-.002.075.09.118c.057.034.164.063.323.097q.389.084.498.135.111.052.198.136a.51.51 0 0 1 .152.38.56.56 0 0 1-.266.48c-.175.12-.418.181-.713.181-.3 0-.543-.062-.718-.18a.55.55 0 0 1-.272-.482q0-.43.526-.554-.21-.137-.209-.266-.002-.103.09-.181a.5.5 0 0 1 .244-.12c-.311-.146-.47-.367-.47-.678m.69 1.482a.6.6 0 0 0-.345.091c-.09.062-.135.136-.135.232q.001.329.588.328a1 1 0 0 0 .43-.079c.102-.057.153-.13.153-.232 0-.096-.062-.181-.192-.238a1.1 1.1 0 0 0-.498-.102m.096-1.85q-.17.002-.289.113a.377.377 0 0 0 0 .55.42.42 0 0 0 .3.107.4.4 0 0 0 .294-.108.36.36 0 0 0 .12-.272.36.36 0 0 0-.12-.277.45.45 0 0 0-.305-.113M3.622 12.43c.068 0 .13.023.175.074a.23.23 0 0 1 .074.175.24.24 0 0 1-.074.175.24.24 0 0 1-.175.074.23.23 0 0 1-.17-.074.24.24 0 0 1-.074-.175q-.001-.093.074-.17a.22.22 0 0 1 .17-.079m-.204.883h.419v2.11h-.419zM2.269 12.22h.419v3.203h-.419zM0 12.22h1.709v.407H.453v.9h1.256v.402H.453v1.494H0Z"/></svg>