<svg xmlns="http://www.w3.org/2000/svg" viewBox="0 0 24 24"><path d="M17.948 20.162a10 10 0 0 1-6.466 2.366 9.99 9.99 0 0 1-7.088-2.933 9.96 9.96 0 0 1-2.933-7.088c0-2.399.84-4.667 2.366-6.466l-.916-1.167A11.45 11.45 0 0 0 0 12.518 11.476 11.476 0 0 0 11.482 24a11.45 11.45 0 0 0 7.644-2.911zM8.331 2.988a10.1 10.1 0 0 1 3.151-.502 9.99 9.99 0 0 1 7.088 2.933 9.96 9.96 0 0 1 2.933 7.088c0 1.09-.174 2.148-.502 3.151l1.134 1.134a11.4 11.4 0 0 0 .829-4.285A11.476 11.476 0 0 0 11.482 1.025c-1.516 0-2.966.294-4.285.829zm1.352 3.456L3.446 0l-.97 1.516a.39.39 0 0 0 .032.458L7.916 8.92zM7.655 14.96l-2.508-1.886-.458.774a.215.215 0 0 0 .033.273l2.115 2.29zm4.503-5.953-.578-.6.153-.611c.065-.273.087-.491.065-.622a2.4 2.4 0 0 0-.273-.687l-5.474 5.866s.371.36.905-.055c.24-.185 1.189-.96 2.203-1.799l.927 1.189zm5.343 5.256.153-.611c.055-.207.087-.382.065-.502a2.6 2.6 0 0 0-.218-.687l-5.866 5.474s.36.371.916 0c.273-.185 1.428-.992 2.584-1.821l6.891 5.365c.131.109.316.12.458.033L24 20.543zm-8.44 2.126c.883-.676 2.115-1.625 3.217-2.475l1.243.97 2.039-2.475-.676-.654.218-.774c.109-.393.153-.698.12-.883a3.3 3.3 0 0 0-.36-.981l-8.069 8.069s.251.207.774 0l2.279 2.104a.25.25 0 0 0 .273.033l.774-.458z"/></svg>