<svg xmlns="http://www.w3.org/2000/svg" viewBox="0 0 24 24"><path d="M.412 3.517c-.038 0-.072 0-.102.01a.3.3 0 0 0-.087.035H.215a.3.3 0 0 0-.113.113.4.4 0 0 0-.053.1c-.008.021-.019.036-.023.067a.4.4 0 0 0-.015.071v-.01H.004v.018L0 3.936l.007-.023v.046L0 4.004v.015h.004l.003-.004v-.003a1.3 1.3 0 0 0 .095.472l.019.046v.007l.06.144.023.06.064.163a19.7 19.7 0 0 0 1.724 3.254L2 8.173l.023.038c.922 1.44 2.037 2.885 3.202 4.095l.037.04c.832.859 1.686 1.6 2.514 2.129a4 4 0 0 0 .37.216l.038.019-.026.019c-1.127 1.64-2.42 2.834-3.742 3.704C2.51 19.763.91 20.172.91 20.172s4.237 1.164 8.887-1.013c3.534-1.664 5.368-4.903 5.787-5.621l2.124-3.61c.333-.458.522-.647.54-.68.065-.065.538-.614 1.524-.946 1.46-.488 3.667-.783 4.188-.832a.11.11 0 0 0 .03-.132.08.08 0 0 0-.056-.05 4 4 0 0 0-.544-.037 9 9 0 0 0-1.399.068 18 18 0 0 0-1.383.204 30 30 0 0 0-1.066.204l-.053.012h-.023a3.5 3.5 0 0 1-.574.037 3 3 0 0 1-.473-.075 7 7 0 0 1-.465-.129 7 7 0 0 0-.484-.143 4.6 4.6 0 0 0-1.463-.152 2.8 2.8 0 0 0-.657.133l-.167.06a2.77 2.77 0 0 0-1.22.972c-.401.536-1.233 2.178-2.374 2.613l-.023-.023h.01a77 77 0 0 0-.9-.829l-.021-.015-.2-.189-.053-.042a61 61 0 0 0-2.307-2.014 28 28 0 0 0-1.504-1.13l-.227-.163a31 31 0 0 0-3.93-2.332c-.114-.064-.23-.102-.36-.166-.038-.016-.076-.038-.102-.038l.196.11-.079-.038h-.01V4.18l-.054-.023-.023-.015-.03-.015a1 1 0 0 1-.102-.05l-.072-.033-.098-.046c-.03-.01-.057-.022-.076-.022a1.3 1.3 0 0 0-.22-.08l-.007-.004-.015-.007h-.007l-.012-.004v-.004h-.022l-.038-.019-.038-.018a.1.1 0 0 0-.034-.012h-.004l-.234-.094a3 3 0 0 0-.242-.087.6.6 0 0 0-.151-.03Zm-.318.967.012.027Zm.012.03c.022.06.041.118.068.17zm.068.174.003.012zM16.757 8.3a.4.4 0 0 1 .113.015.386.386 0 0 1 .269.473.386.386 0 0 1-.473.264.386.386 0 0 1-.264-.468.39.39 0 0 1 .355-.284"/></svg>