<svg xmlns="http://www.w3.org/2000/svg" viewBox="0 0 24 24"><path d="M3.352 10.17a.903.903 0 0 0-.903.903v4.07H1.127v-2.814H0v-1.318h1.128a2.225 2.225 0 0 1 2.224-2.17h1.321v1.322zm7.326 1.84a.25.25 0 0 0-.238.174l-.532 1.834a1.564 1.564 0 0 1-3.001 0l-.532-1.835a.252.252 0 0 0-.477 0l-.532 1.835a1.57 1.57 0 0 1-1.512 1.123h-.368v-1.32h.373a.25.25 0 0 0 .235-.172l.532-1.835a1.57 1.57 0 0 1 3.009 0l.536 1.837a.246.246 0 0 0 .471 0l.532-1.834a1.57 1.57 0 0 1 3.009 0l.532 1.834a.25.25 0 0 0 .235.174h.374v1.319h-.369a1.57 1.57 0 0 1-1.512-1.123l-.532-1.835a.25.25 0 0 0-.233-.176m2.69.906a2.225 2.225 0 1 1 2.225 2.225 2.225 2.225 0 0 1-2.225-2.225m3.128 0a.903.903 0 1 0-.903.903.903.903 0 0 0 .903-.903m4.674.46a1 1 0 0 0 .067-.123.67.67 0 0 1 1.266.308.7.7 0 0 1-.055.262l-.019.04a2.27 2.27 0 0 1-2.034 1.276 2.225 2.225 0 0 1 0-4.45h.098a2.25 2.25 0 0 1 1.014.29V8.842h1.322v3.01a.74.74 0 0 1-.712.721 1.6 1.6 0 0 1-1.07-.373.9.9 0 0 0-.549-.191H20.4a.903.903 0 1 0 .776 1.366zM4.228 11.625a.704.704 0 0 1-.704.704.704.704 0 0 1-.704-.704.704.704 0 0 1 .704-.704.704.704 0 0 1 .704.704m18.398 2.835a.687.687 0 1 0 .687-.674.68.68 0 0 0-.687.674m.123 0a.56.56 0 1 1 .561.583.56.56 0 0 1-.565-.583zm.282.383h.124V14.5h.137l.216.34h.137l-.226-.35a.203.203 0 0 0 .209-.216q.001-.227-.275-.227h-.307zm.124-.688h.158c.084 0 .175.017.175.121 0 .105-.1.138-.21.138h-.129z"/></svg>