<svg xmlns="http://www.w3.org/2000/svg" viewBox="0 0 24 24"><path d="M18.382 7.62 15.381 0l-2.396 5.166c-.509-.174-1.461-.176-1.97 0L8.619 0 5.618 7.62c-.846 2.146-1.622 4.379 0 6.81.597.896 6.375 9.58 6.382 9.57l6.382-9.57c1.622-2.431.846-4.664 0-6.81m-5.007 7.25c-.336-.297-.417-.844-.228-1.54.19-.695.626-1.454 1.23-2.135.603-.682 1.303-1.207 1.972-1.479.667-.271 1.22-.257 1.556.04.336.299.417.846.228 1.54-.19.697-.626 1.455-1.23 2.137-.603.681-1.304 1.206-1.972 1.478s-1.22.258-1.556-.04m.445 4.834c-.157.09-.376.08-.489-.116l-1.328-2.304-.003-.005-1.333 2.311a.32.32 0 0 1-.281.169.41.41 0 0 1-.348-.202.32.32 0 0 1 .005-.331l1.555-2.688a.46.46 0 0 1 .4-.228c.171 0 .322.086.406.23l1.547 2.686c.12.208.016.393-.131.478m-4.751-4.793c-.669-.272-1.369-.797-1.972-1.478-.604-.681-1.04-1.44-1.23-2.136-.19-.695-.108-1.242.228-1.54.176-.156.412-.234.693-.234.254 0 .546.064.863.194.669.272 1.369.797 1.972 1.478.604.681 1.04 1.44 1.23 2.136.189.695.108 1.242-.228 1.54s-.89.312-1.556.04"/></svg>