<svg xmlns="http://www.w3.org/2000/svg" viewBox="0 0 24 24"><path d="M12.17 1.272a.73.73 0 0 0-.718.732v13.914a.73.73 0 0 0 .732.732.73.73 0 0 0 .732-.732V2.004a.73.73 0 0 0-.745-.732M23.246 5.44a.7.7 0 0 0-.277.063l-6.282 2.804a.733.733 0 0 0 0 1.336l6.282 2.814a.7.7 0 0 0 .3.064.732.732 0 0 0 .297-1.4l-4.786-2.145 4.786-2.137a.734.734 0 0 0 .37-.966.73.73 0 0 0-.69-.433m-22.5 5.032a.732.732 0 0 0-.722.915c1.736 6.677 7.775 11.341 14.683 11.341a.732.732 0 0 0 0-1.464A13.706 13.706 0 0 1 1.44 11.02a.73.73 0 0 0-.694-.547"/></svg>