<svg xmlns="http://www.w3.org/2000/svg" viewBox="0 0 24 24"><path d="M12 0a1.667 1.667 0 0 0-1.666 1.666A1.667 1.667 0 0 0 12 3.334a1.667 1.667 0 0 0 1.666-1.668A1.667 1.667 0 0 0 12 0M9.506 1.145A11.57 11.57 0 0 0 .442 12.317a.716.716 0 0 0 1.075.618.7.7 0 0 0 .358-.6 10.14 10.14 0 0 1 5.06-8.666 10 10 0 0 1 2.696-1.074 2.55 2.55 0 0 1-.125-1.452Zm8.015 1.26a.71.71 0 0 0-.695.713.7.7 0 0 0 .34.61 10.13 10.13 0 0 1 4.545 11.587c.314.046.618.15.894.309q.223.127.42.293a11.57 11.57 0 0 0-5.15-13.43.7.7 0 0 0-.354-.082m-5.519 3.791a6.247 6.247 0 1 0 .002 12.494 6.247 6.247 0 0 0-.002-12.494m0 1.43a4.819 4.819 0 0 1 3.41 8.222 4.817 4.817 0 1 1-3.41-8.222m-.01 2.295c-1.412.014-1.896 1.887-.668 2.584l-.435 2.207a.237.237 0 0 0 .234.281h1.772a.236.236 0 0 0 .234-.281l-.438-2.207a1.38 1.38 0 0 0 .692-1.202 1.38 1.38 0 0 0-1.39-1.382zm-9.324 6.242a1.667 1.667 0 0 0-1.666 1.666 1.667 1.667 0 0 0 1.666 1.668 1.667 1.667 0 0 0 1.666-1.668 1.667 1.667 0 0 0-1.666-1.666m18.664 0a1.667 1.667 0 0 0-1.666 1.666 1.667 1.667 0 0 0 1.666 1.668 1.667 1.667 0 0 0 1.666-1.668 1.667 1.667 0 0 0-1.666-1.666M4.655 19.427a2.5 2.5 0 0 1-.702.608 2.6 2.6 0 0 1-.468.207 11.576 11.576 0 0 0 14.208 2.273.713.713 0 0 0 0-1.238.7.7 0 0 0-.703-.012 10.13 10.13 0 0 1-10.052-.05 10.2 10.2 0 0 1-2.283-1.788"/></svg>