<svg xmlns="http://www.w3.org/2000/svg" viewBox="0 0 24 24"><path d="M6.265 12.024a.29.29 0 0 0-.236-.146h-.182a.29.29 0 0 0-.234.146l-1.449 3.025c-.041.079.004.138.094.138h.335c.132 0 .193-.061.228-.134.037-.073.116-.234.13-.266.02-.045.083-.071.175-.071h1.559c.089 0 .148.016.175.071.018.035.098.179.136.256a.24.24 0 0 0 .234.142h.486c.089 0 .13-.069.098-.132-.034-.061-1.549-3.029-1.549-3.029m-.914 2.224c-.089 0-.132-.067-.094-.148l.571-1.222c.039-.081.1-.081.136 0l.555 1.222c.037.081-.006.148-.096.148zm12.105-2.201v3.001c0 .083.073.138.163.138h.396c.089 0 .163-.057.163-.146v-2.998c0-.089-.059-.163-.148-.163h-.411c-.09-.001-.163.054-.163.168m-6.631 1.88c-.051-.073-.022-.154.063-.181 0 0 .342-.102.506-.25q.247-.22.246-.636a1 1 0 0 0-.096-.457.8.8 0 0 0-.27-.303 1.3 1.3 0 0 0-.423-.171c-.165-.035-.386-.047-.386-.047a9 9 0 0 0-.325-.008H8.495a.164.164 0 0 0-.163.163v2.998c0 .089.073.146.163.146h.388c.089 0 .163-.057.163-.146v-1.193s.002 0 .002-.002l.738-.002c.089 0 .205.061.258.134l.766 1.077c.071.096.138.132.228.132h.508c.089 0 .104-.085.073-.128-.032-.038-.794-1.126-.794-1.126m-.311-.61a2 2 0 0 1-.213.028 9 9 0 0 1-.325.006h-.763a.164.164 0 0 1-.163-.163v-.608c0-.089.073-.163.163-.163h.762c.089 0 .236.004.325.006 0 0 .114.004.213.028a.6.6 0 0 1 .24.098.36.36 0 0 1 .126.148.47.47 0 0 1 0 .374.35.35 0 0 1-.126.148.6.6 0 0 1-.239.098m11.803-1.439c-.089 0-.163.059-.163.146v1.919c0 .089-.051.11-.114.047l-1.921-1.992a.38.38 0 0 0-.276-.118h-.362c-.114 0-.163.061-.163.122v3.068c0 .061.059.12.148.12h.362c.089 0 .152-.049.152-.132l.002-2.021c0-.089.051-.11.114-.045l2.004 2.082a.36.36 0 0 0 .279.116h.272a.164.164 0 0 0 .163-.163v-2.986a.164.164 0 0 0-.163-.163zm-7.835 1.87c-.043.079-.116.077-.159 0l-.939-1.724a.26.26 0 0 0-.236-.146h-.51a.164.164 0 0 0-.163.163v2.996c0 .089.059.15.163.15h.317c.089 0 .154-.057.154-.142 0-.041.002-2.179.004-2.179.004 0 1.173 2.177 1.173 2.177a.105.105 0 0 0 .189 0s1.179-2.173 1.181-2.173c.004 0 .002 2.11.002 2.173 0 .087.069.142.159.142h.364c.089 0 .163-.045.163-.163V12.04a.164.164 0 0 0-.163-.163h-.488a.27.27 0 0 0-.244.142zM0 13.529c0 1.616 1.653 1.697 1.984 1.697 1.098 0 1.561-.297 1.58-.309a.29.29 0 0 0 .152-.264v-1.116a.186.186 0 0 0-.187-.187H2.151c-.104 0-.171.083-.171.187v.116c0 .104.067.187.171.187h.797a.14.14 0 0 1 .14.14v.52c-.157.065-.874.274-1.451.136-.836-.199-.901-.89-.901-1.096 0-.173.053-1.043 1.079-1.13.831-.071 1.378.264 1.384.268.098.051.199.014.254-.089l.104-.209c.043-.085.028-.175-.077-.246-.006-.004-.59-.319-1.494-.319C.055 11.813 0 13.354 0 13.529m22.134-2.478h-2.165c-.079 0-.148-.039-.187-.108s-.039-.146 0-.215l1.084-1.874a.21.21 0 0 1 .187-.108.21.21 0 0 1 .187.108l1.084 1.874a.2.2 0 0 1 0 .215.22.22 0 0 1-.19.108m1.488 3.447c.207 0 .378.169.378.378a.38.38 0 0 1-.378.378.38.38 0 0 1-.378-.378.38.38 0 0 1 .378-.378m.002.7c.173 0 .305-.14.305-.321s-.13-.321-.305-.321-.307.14-.307.321c0 .18.13.321.307.321m-.146-.543h.169q.152 0 .152.124c0 .071-.045.122-.114.122l.126.195h-.077l-.124-.195h-.061v.195h-.073v-.441zm.073.189h.085c.055 0 .091-.012.091-.069 0-.051-.045-.065-.091-.065h-.085z"/></svg>