<svg xmlns="http://www.w3.org/2000/svg" viewBox="0 0 24 24"><path d="M22.285 12c0 6.627-5.36 12-11.973 12-2.67 0-5.138-.877-7.13-2.358a11.04 11.04 0 0 0 5.392 1.418c2.78 0 5.455-1.054 7.492-2.945a11.06 11.06 0 0 0 3.5-7.263 8 8 0 0 0 .05-.787c.01-.418-.066-1.08-.075-1.296l-.01.01a24 24 0 0 0-.102-.814h-8.687c-.748 1.398-1.486 2.802-2.226 4.204h6.565a6.9 6.9 0 0 1-1.075 2.019 6.8 6.8 0 0 1-2.403 1.98 6.8 6.8 0 0 1-3.03.709 6.8 6.8 0 0 1-2.358-.425 6.85 6.85 0 0 1-3.263-2.514A6.9 6.9 0 0 1 1.715 12a6.9 6.9 0 0 1 .522-2.631 6.9 6.9 0 0 1 1.486-2.231 6.8 6.8 0 0 1 2.226-1.49 6.9 6.9 0 0 1 2.625-.523 6.82 6.82 0 0 1 4.043 1.32c.663-1.237 1.317-2.479 1.973-3.72a11.03 11.03 0 0 0-11.374-.396A11.94 11.94 0 0 1 10.312 0c6.612 0 11.973 5.373 11.973 12"/></svg>