<svg xmlns="http://www.w3.org/2000/svg" viewBox="0 0 24 24"><path d="m14.326 13.627.034-.034zm-.229.225-.008-.043.005.047Zm-.293-4.662-.003.001h.025zm1.349 10.05.19.702a1.3 1.3 0 0 0-.011-.49.54.54 0 0 0-.179-.211m-2.111.41h.493l-.246-1.015zM9.88 21.609a3.8 3.8 0 0 0 .713-2.418 3.15 3.15 0 0 0-1.021-2.714 2.65 2.65 0 0 0-1.593-.443h-1.74v6.478h1.74a2.3 2.3 0 0 0 1.9-.903m-.46-1.991a3.1 3.1 0 0 1-.4 1.141 1.31 1.31 0 0 1-1.127.57h-.548V17.22h.541a1.35 1.35 0 0 1 1.138.532 2.35 2.35 0 0 1 .406 1.457 2.6 2.6 0 0 1-.01.408m6.616 2.901v.294h-.3l.043.046a8 8 0 0 1-.878.119c.056-.07.07-.13-.108-.138.004-.011.012-.017.017-.027h-.527l-.056-.23-.293-1.211H12.66l-.29 1.21-.056.23h-1.828l.104-.38 1.787-6.478.06-.22h.36a.5.5 0 0 0-.11-.094c-.167-.079-.26.034-.435.01a2.6 2.6 0 0 1-.516-.243.94.94 0 0 1-.569-.546 2 2 0 0 0-.404-.56c-.169-.204-.222-.38-.482-.434-.03-.007.064.215.074.233a5 5 0 0 0 .344.483c.165.232.095.276-.073.051-.192-.257-.415-.513-.581-.786-.063-.103-.051-.17-.155-.267-.1-.095-.232-.14-.333-.23a1.18 1.18 0 0 1-.388-.84 11.4 11.4 0 0 0-2.146 2.122.44.44 0 0 1-.357.187.5.5 0 0 1-.166-.033.436.436 0 0 1-.265-.474l.58-3.563a8.44 8.44 0 0 0-.876 7.31v-2.327h2.039c1.33 0 2.915.6 2.915 3.458a4.1 4.1 0 0 1-.779 2.604 2.7 2.7 0 0 1-.8.675 8.75 8.75 0 0 0 9.345.342h-2.545ZM5.725 6.435a.33.33 0 0 0 .103.23c.017.016.045.014.066.027a.3.3 0 0 0 .164.066l.006-.002.002.001a.33.33 0 0 0 .165-.049l.705-.435.815.59-1.219 7.498a.14.14 0 0 0 .084.15.14.14 0 0 0 .05.009.14.14 0 0 0 .112-.059A13.87 13.87 0 0 1 14.9 9.556a.14.14 0 0 0 .108-.123.14.14 0 0 0-.089-.137L7.957 6.74l-.162-.998.687-.423a.367.367 0 0 0-.017-.575l-.967-.522a.7.7 0 0 0-.097-.278l-.314-.509.29-.178.288.849 3.33-2.228-.163-.477L10.355 0l-.953.637-2.377 1.59.277.814-.332.205-.421-.683a.713.713 0 0 0-.978-.232l-.735.454a.71.71 0 0 0-.232.978l.421.683-.3.185-.293-.862-1.665 1.114-1.665 1.114.64 1.88 1.994-1.335 1.335-.893-.273-.8.172-.107.172-.106.314.509a.7.7 0 0 0 .238.225Zm2.272.61 6.391 2.346a14.42 14.42 0 0 0-7.504 4.503Zm-.11 10.476h-.241v3.507h.247a1.01 1.01 0 0 0 .884-.444 2.33 2.33 0 0 0 .352-1.374 2.07 2.07 0 0 0-.344-1.275 1.06 1.06 0 0 0-.899-.414m7.174-8.475c.011-.089-.04-.1-.166-.185a1.5 1.5 0 0 0-.46-.286c-.207-.04-.287.015-.329.103l.914.335c.017.006.025.025.04.033m-4.01-.124a3.6 3.6 0 0 1 .614.008c.081.01.355.1.43.06a.25.25 0 0 0 .05-.103l-.43-.158a.57.57 0 0 1-.38.055c-.218-.03-.447-.1-.635.087.104.062.39.302.351.051M9.093 11.49a1 1 0 0 0-.06-.073l-.105-.164a1.4 1.4 0 0 0-.278-.38 7 7 0 0 0-.453-.338 7.8 7.8 0 0 1 2.707-2.103L9.66 7.975a8.8 8.8 0 0 0-1.738 1.4l-.583 3.59a15 15 0 0 1 1.754-1.475m5.175-4.832a8.8 8.8 0 0 0-3.57.769l1.751.643a.6.6 0 0 1 .226-.25h-.028a7.8 7.8 0 0 1 2.68-.095c-.12.062-.032.104-.119.167a3.3 3.3 0 0 1-.661.299c.252 0 .863.233.98-.116l-.244-.037a2.2 2.2 0 0 1 .5-.239 7.8 7.8 0 0 1 4.122 2.246h-.023a1.24 1.24 0 0 0-.757.175 1 1 0 0 1-.289.19c-.111.031-.232.004-.343.041-.399.134-.336.978-.862.85-.247-.06-.421-.348-.546-.536-.11-.166-.309-.303-.174-.51-.061.016-.127-.002-.188.01.085-.183.367-.167.414-.26.118-.234-.322-.259-.447-.291.15-.158.226.053.375.017.142-.035-.076-.22-.16-.24-.032-.008-.533.136-.243-.12l-1.074-.676c-.06.251.477.393.652.482-.027.103-.19.254-.315.21-.118-.042-.07-.234-.248-.215-.127.291.269.206.305.384.042.203-.15.117-.223.114-.017-.001-.154-.14-.161-.035-.01.126.218.077.234.204a.9.9 0 0 1-.596-.214.42.42 0 0 1-.277.225l-.023.006a1.4 1.4 0 0 0 .195.055c.149.018.233.222.314.305.054.055.15.173.245.16.15-.02.087-.15.173-.209.233-.159.294.057.387.273a.94.94 0 0 0 .324.409c.072.06.388.277.358.41-.02.09-.38.226-.477.256-.353.11-1.014-.18-1.085.372.137-.05.526-.364.643-.215.053.067-.043.165-.02.232.067.2.223.13.388.099l-.035.018c.225-.114.202-.09.305-.275a1.3 1.3 0 0 1 .131-.25c.164-.149.189-.047.29.068.027.03.277.386.188.368a1.06 1.06 0 0 0-.813.107 2.2 2.2 0 0 1-.437.274c-.04.014-.334.041-.3-.008.051-.073.227-.12.296-.199-.192-.077-.352.094-.502.195-.16.075-.197.213-.333.335-.06.053-.172.063-.23.132-.057.068-.064.175-.117.24-.038.044-.134.017-.174.085-.05.089.047.171.026.235-.04.116-.263.215-.35.299a1.3 1.3 0 0 0-.229.225 2.5 2.5 0 0 1 .102.574c-.09.264-.265-.143-.335-.248-.243-.361-.73-.12-1.061-.09a.728.728 0 0 0-.579 1.023.516.516 0 0 0 .58.245c.216-.044.28-.342.484-.347.373-.01.008.361-.024.497-.03.126.046.138.178.17.097.022.235-.042.319.013a.1.1 0 0 1 .029.045h.418l.06.222.12.444a.4.4 0 0 1 .06 0c.323.082.169-.023.452-.192.192-.114.223.021.354.022.089 0 .145-.127.294-.09.121.03.17.123.314.144.058.009.118-.02.174-.015v-.535h1.706v1.797a.6.6 0 0 0 .107-.076.6.6 0 0 1-.107.076c-.05.028-.098.046-.098.011 0 .023.05.057.098.087.023.015.05.031.06.039.094-.301.248-.108.434-.033a4 4 0 0 0 .52.106 1.4 1.4 0 0 1 .563.244c.128.139.04.364-.055.502-.123.18-.309.25-.386.462a3.4 3.4 0 0 0-.05.526c-.046.253-.084.164-.25.319-.138.13-.001.107-.19.19-.19.083-.358.058-.49.264l.014-.04a1.7 1.7 0 0 0-.11.285 1 1 0 0 1-.06.077v.458h1.817v1.203a8.6 8.6 0 0 0 3.498-6.902 8.73 8.73 0 0 0-8.79-8.671m-1.06 1.376c.165-.06.637-.004.696-.158a4.1 4.1 0 0 0-1.029.227 1 1 0 0 0-.118.08l.25.091c.056-.131.035-.18.2-.24m1.232 2.808c.231-.169.18-.179.096-.447a1.7 1.7 0 0 1-.103-.418 14 14 0 0 0-1.648.51c.2.11.466.181.615.247.131.06.517.14.588.238.097.133-.082.256.118.35a.25.25 0 0 0 .252-.026c.09-.1-.036-.123-.058-.238-.042-.222.027-.134.14-.216m-1.773 5.192-1.786 6.478h1.198l.172-.72.173-.72h1.746l.349 1.44h1.205l-1.746-6.478Zm-.006 3.916.533-2.195a3 3 0 0 0 .086-.566h.027c.002.025.009.048.01.072a4 4 0 0 0 .072.511l.264 1.09.263 1.088Zm-9.464.037h.983v1.265a1.16 1.16 0 0 1-.63.15 1.22 1.22 0 0 1-1.05-.548 2.63 2.63 0 0 1-.388-1.545 2.6 2.6 0 0 1 .433-1.574 1.33 1.33 0 0 1 1.121-.59 2.23 2.23 0 0 1 1.39.433V16.21a3.16 3.16 0 0 0-1.376-.284 2.39 2.39 0 0 0-1.985.962 3.95 3.95 0 0 0-.746 2.49 3.76 3.76 0 0 0 .683 2.384 2.25 2.25 0 0 0 1.867.864 2.87 2.87 0 0 0 1.786-.546V18.82H3.197Zm14.245-3.953h-1.106v6.478h2.923v-1.184h-1.817Z"/></svg>