<svg xmlns="http://www.w3.org/2000/svg" viewBox="0 0 24 24"><path d="m12.648 2.678-.245-.266c.004-.004.29-.268.413-.41.121-.146.342-.484.346-.486l.301.195c-.014.016-.234.359-.375.522-.137.165-.428.432-.44.445m1.577 10.597c-.012-.004-.24-.154-.365-.221-.117-.059-.32-.146-.422-.191l.213-.612-.898-.444-.286.871c-.174.004-.713.053-1.51.389-.959.4-1.688 1.025-1.695 1.029l-.143.125.641.025.02-.016c.006-.006.721-.535 1.119-.705a2.4 2.4 0 0 1 .33-.105 13 13 0 0 0-.6.32c-.199.119-.57.381-.586.393l-.186.129.682.016.018-.01c.012-.008 1.164-.623 1.789-.76l.196-.047c.145-.037.246-.064.422-.064.156 0 .369.021.688.07.398.059.66.158.664.16l.24.094-.322-.436-.012-.008zm-8.98-7.298h-.029l-1.006.916v.03a.97.97 0 0 0 .258.716c.182.196.42.309.686.319h.043a.99.99 0 0 0 .992-.94 1.003 1.003 0 0 0-.944-1.041M5.2 7.808h-.041a.8.8 0 0 1-.33-.085.515.515 0 0 0 .596-.573.514.514 0 0 0-1.022.089.9.9 0 0 1-.045-.28l.912-.833c.446.042.79.431.768.882s-.391.8-.842.8zm9.329-3.725-.293-.195-.41.265-.395-.285-.301.18.404.291-.416.27.297.18.4-.254.387.28.309-.169-.407-.296M24 19.525c-.213-.209-.418-.416-.629-.627-.48-.488-.957-.984-1.418-1.486a32 32 0 0 1-1.582-1.844c-.225-.283-.441-.58-.646-.881a10 10 0 0 1-.668-1.215c-.211-.445-.398-.9-.576-1.356.24.21.463.444.664.692q.032-.322.059-.648l.023-.322c0-.033.012-.066-.008-.096a.5.5 0 0 0-.053-.075 4 4 0 0 0-.406-.413 18 18 0 0 0-.584-.533l-.18-.156a1 1 0 0 0-.086-.074c-.031-.03-.041-.096-.055-.136l-.154-.479c.607.285 1.109.741 1.578 1.215a18 18 0 0 0-.008-.998c0-.029.006-.1-.016-.127-.012-.02-.031-.036-.043-.055a3 3 0 0 0-.357-.314 12 12 0 0 0-.527-.408c-.156-.117-.318-.232-.477-.345-.018-.016-.076-.039-.064-.06l.039-.08c.02-.035.014-.045.053-.029l.17.059c.406.156.779.368 1.143.608a6.6 6.6 0 0 0-.525-1.296 10 10 0 0 0-1.463-2.105 12 12 0 0 0-1.219-1.193 8 8 0 0 0-.699-.533c-.113-.074-.225-.149-.346-.217-.049-.03-.105-.056-.15-.094-.18-.144-.365-.284-.549-.429q.358.147.689.338c-.127-.194-.342-.331-.545-.436a6 6 0 0 0-.967-.378c.113-.12.234-.228.346-.348q.17-.182.33-.372.19-.224.375-.455l-1.156-.726-.48-.303a3.1 3.1 0 0 1-.458.68c-.18.203-.391.369-.6.539q-.286.236-.566.472c-.047.04-.092.085-.145.12-.025.021-.096.004-.127.004H10.7a8 8 0 0 0-.891.068 1 1 0 0 1-.175.008l-.178-.01c-.137-.008-.271-.016-.408-.016-.289-.004-.58 0-.871.025a5 5 0 0 0-.729.112 1.9 1.9 0 0 0-.66.312c-.193.141-.387.32-.504.53s-.17.456-.213.689c-.135.013-.268.01-.4.016a4.618 4.618 0 0 0-1.211.219 3.6 3.6 0 0 0-1.336.75q-.294.272-.539.596c-.02.025-.037.051-.063.068-.01.009-.027.016-.033.027a1 1 0 0 1-.051.076l-.134.212c-.168.285-.276.595-.383.906l-.045.123.033-.021q-.016.101-.025.202l-.008.105v.053l-.066.013c-.135.026-.271.06-.4.101-.12.039-.233.086-.337.15-.105.066-.195.153-.285.239-.318.31-.562.698-.687 1.128a2.3 2.3 0 0 0-.059 1.092.7.7 0 0 0 .107.262c.074.09.199.126.313.095.131-.036.248-.124.371-.187l.314-.157c.455-.226.93-.446 1.438-.525.035-.005.1.067.131.091q.075.057.148.104.164.103.334.181c.262.114.541.174.818.231a8 8 0 0 0 1.529.18q.311.008.625-.018c.225-.02.451-.049.678-.051.25-.005.496.025.74.055q.382.048.764.105c.518.079 1.031.169 1.543.279q-.172.27-.338.545c-.008.013-.072 0-.088 0a1 1 0 0 0-.127 0q-.112.001-.225.019-.316.046-.615.156c-.49.181-.938.483-1.326.833-.221.195-.43.408-.609.641q-.072.097-.139.193.158-.034.318-.07.09-.023.176-.039c.021-.008.029-.016.049-.027q.329-.306.695-.563.165-.122.348-.215a2.5 2.5 0 0 1 .533-.174c-.33.18-.678.35-.977.584-.172.139-.328.291-.49.439l.654-.104c.01 0 .014-.004.023-.01l.17-.094q.17-.095.346-.186c.24-.123.482-.24.732-.34.236-.094.48-.178.732-.225.221-.046.428-.052.648 0 .342.074.67.232.969.414.021.014.035.033.055.014.016-.014.098-.074.09-.092l-.18-.334c-.016-.029-.023-.049-.051-.066l-.131-.077a6 6 0 0 1-.51-.331c-.037-.023-.078-.039-.082-.089-.004-.046.014-.093.029-.136.033-.09.08-.169.131-.248.033-.058.072-.111.109-.166.014-.018.01-.021.031-.014l.119.034c.236.077.469.159.711.22.27.068.545.123.82.176l.048.01c-.056-.03-.091-.09-.132-.136-.023-.03-.035-.05-.074-.06l-.105-.02q-.11-.022-.225-.049a6 6 0 0 1-.777-.209c-.375-.13-.758-.232-1.145-.322a29 29 0 0 0-1.465-.275c-.25-.041-.498-.074-.75-.109-.246-.034-.496-.07-.746-.087-.539-.034-1.074.087-1.615.081-.365-.004-.734-.055-1.096-.105l-.068-.009q.377-.14.75-.285.354-.143.705-.289.19-.079.373-.157c.113-.051.225-.1.328-.17.408-.279.676-.727.975-1.109.273-.361.586-.7.99-.908q.193-.098.4-.156c-.283-.439-.549-.93-.623-1.455l.094.037c.035.012.064.016.072.045l.029.135q.038.135.086.262.109.287.26.551c.219.396.484.766.766 1.12.539.686 1.145 1.305 1.736 1.941.145.158.275.324.41.492q.226.281.457.561c.121.141.234.285.356.426l.094.112c.016.018.037.026.061.036q.907.451 1.822.895c.434.209.869.42 1.309.623.236.109.471.219.711.32a1 1 0 0 0 .098.039c.016.01.029.016.047.023l.016.049q.04.108.076.217.073.211.148.416c.33.912.695 1.814 1.145 2.676.346.656.715 1.301 1.09 1.939a125.615 125.615 0 0 0 2.233 3.63c.146.227.289.459.439.688l.063.094.775-1.141.191-.283a.5.5 0 0 0 .076-.109l-.156-.24c-.291-.451-.584-.898-.871-1.35l-.828-1.283-.105-.166.656.799 1.115 1.35c.121.146.236.289.354.438q.328-.602.662-1.201.13-.247.266-.492M12.13 1.915c.309-.246.563-.563.757-.906l1.178.743.18.112c-.246.3-.496.604-.775.873-.035.034-.074.069-.107.104-.021.025-.047.051-.07.075l-.033.038q-.034-.012-.068-.02a8.585 8.585 0 0 0-1.322-.263 35 35 0 0 0-.578-.058c.275-.234.557-.467.838-.698m-1.754 1.37c.232-.096.482-.15.73-.191a5.5 5.5 0 0 1 1.489-.04q.531.057 1.041.21l-.141.115-.225-.061c-.141-.029-.281-.06-.422-.082a6 6 0 0 0-.749-.065 5 5 0 0 0-1.371.159 4.2 4.2 0 0 0-.879.332 3.1 3.1 0 0 0-.78.582 2.6 2.6 0 0 0-.57.874l-.029.075-.012.038-.068-.011-.082-.011c.234-.719.763-1.286 1.418-1.649a3 3 0 0 1 .65-.279m-3.93.374a1.86 1.86 0 0 1 1.139-.743c.502-.101 1.016-.119 1.525-.107-.525.131-1.05.326-1.488.652a2.3 2.3 0 0 0-1.314.86h-.084q.034-.204.098-.4a1 1 0 0 1 .119-.26m.882.056c-.145.143-.27.303-.391.469-.047.069-.098.153-.18.191-.085.039-.194-.005-.28-.031.224-.279.521-.494.851-.629M2.308 6.585c.08-.16.182-.315.275-.465.016-.027.053-.046.074-.063q.073-.05.143-.106.463-.34.939-.656c.166-.107.33-.213.502-.307q.272-.15.565-.244A7 7 0 0 1 5.874 4.5c.174-.025.361-.057.531-.015q-.494.283-.99.558c-.342.191-.689.367-1.035.552-.332.18-.66.375-.981.577-.336.206-.67.419-1.002.629q-.12.078-.24.155c.045-.125.09-.251.151-.371m1.009 3.056c-.029.056-.134.042-.187.042q-.14-.001-.279.006-.386.022-.758.138c-.475.147-.922.375-1.365.604-.1.055-.203.135-.316.162a.155.155 0 0 1-.166-.063.6.6 0 0 1-.064-.198 1.6 1.6 0 0 1-.033-.368c0-.33.076-.66.215-.96q.145-.315.371-.574c.15-.175.326-.351.539-.45.355-.162.775-.213 1.164-.235q.109-.007.217-.007c.1 0 .217-.016.311.019.074.027.121.105.15.173.045.105.074.225.1.336.061.26.123.525.145.791.01.119.016.239.004.359-.009.073-.014.156-.05.223m2.829-1.973a3.82 3.82 0 0 1-1.276.479 2 2 0 0 1-.293.021c-.101-.003-.193-.036-.293-.067a3 3 0 0 1-.57-.233.5.5 0 0 1-.174-.15.3.3 0 0 1-.023-.174c.012-.231.094-.458.203-.66a1.8 1.8 0 0 1 .84-.775c.879-.396 1.865-.029 2.611.49l.08.061c-.154.165-.311.321-.473.477a4.6 4.6 0 0 1-.634.531M8.31 5.739a9 9 0 0 1-1.356-.738c.449.188.934.3 1.414.37.258.037.521.072.781.08.281.008.564-.021.84-.075a6.1 6.1 0 0 0 1.566-.551c.494-.245.964-.537 1.413-.859q.327-.23.633-.487c.021-.016.174-.161.184-.154l.041.031.537.416q.492.383.988.762c-.906.326-1.826.629-2.752.904-.519.156-1.038.301-1.565.42-.412.098-.834.189-1.256.21-.507.022-1.006-.135-1.47-.33m8.85 3.942c.076.021.145.045.215.067l.094.033q.024.01.045.02l.021.06q.067.218.139.432l-.451-.379-.09-.074c-.021-.016-.045-.021-.029-.046l.059-.114m-.671 1.444.035-.063.027-.046c.012-.018.008-.022.029-.012q.194.081.385.17.36.164.703.364c.107.065.217.135.322.205l.15.105.074.057c.033.027.041.063.057.102q.158.423.338.844.118.284.248.566a11 11 0 0 0-.957-1.045 16 16 0 0 0-1.078-.981l-.323-.264m3.746 6.42-.121.09.008.016.063.094.271.42.904 1.402q.466.721.932 1.445l.309.48.084.133a.3.3 0 0 1 .029.045q-.392.578-.783 1.154-.04.057-.074.111-.36-.558-.715-1.117c-.4-.635-.795-1.277-1.184-1.916a72 72 0 0 1-1.264-2.141 21 21 0 0 1-1.059-2.076 31 31 0 0 1-.811-2.121q.73.29 1.48.521.216.07.436.127l.063.018c.008 0 .014-.039.018-.049q.026-.096.045-.195c.031-.125.051-.254.074-.381.205.428.436.844.701 1.236q.323.471.686.92a33 33 0 0 0 1.643 1.898q.696.742 1.408 1.465l.389.389c.006.006.039.031.037.041l-.031.053-.148.275-.588 1.068q-.27-.327-.541-.658l-1.125-1.361c-.314-.387-.637-.773-.953-1.16l-.186-.225"/></svg>