<svg xmlns="http://www.w3.org/2000/svg" viewBox="0 0 24 24"><path d="M14.088 13.126h-.296V9.858h.998c.815 0 1.094.47 1.094.98s-.28.98-1.094.98h-.701zm0-1.582h.74a.642.642 0 0 0 .733-.705.642.642 0 0 0-.732-.706h-.741zm2.881-.37a1.9 1.9 0 0 0-.653.11v-.262a1.8 1.8 0 0 1 .653-.118c.654 0 .824.297.824.732v1.49h-.17l-.066-.174a1.14 1.14 0 0 1-.657.218.663.663 0 0 1-.763-.702c0-.37.205-.645.776-.68l.575-.035v-.122c0-.318-.113-.457-.519-.457m-.078.85c-.31.03-.445.192-.445.445 0 .196.048.431.462.431a1.06 1.06 0 0 0 .58-.174v-.758zm1.86.493a.25.25 0 0 0-.083.16c0 .11.053.158.166.17l.74.088c.41.044.598.205.598.584 0 .532-.532.74-1.133.74-.61 0-.976-.178-.976-.657a.61.61 0 0 1 .449-.575v-.005a.32.32 0 0 1-.14-.287.4.4 0 0 1 .166-.297.75.75 0 0 1-.349-.714c0-.449.192-.82.85-.82a1.4 1.4 0 0 1 .349.044h.74v.165l-.365.105a.9.9 0 0 1 .126.505c0 .449-.192.82-.85.82a1.4 1.4 0 0 1-.288-.027zm.127.588c-.288.065-.532.2-.532.48 0 .322.244.413.693.413.435 0 .845-.109.845-.48 0-.221-.105-.309-.37-.34zm.727-1.381c0-.288-.056-.554-.566-.554s-.567.266-.567.554.057.553.567.553.566-.266.566-.554zm1.637-.82c.74 0 .828.506.828 1.133v.14h-1.438c.018.379.118.723.61.723a1.7 1.7 0 0 0 .719-.122v.261a1.8 1.8 0 0 1-.719.131c-.736 0-.915-.505-.915-1.133s.179-1.133.915-1.133m-.61 1.024h1.133c0-.387-.022-.753-.523-.753-.506 0-.597.36-.61.753m2.601-.052c.619.057.767.266.767.623 0 .336-.213.671-.876.671a2.2 2.2 0 0 1-.649-.109V12.8a1.9 1.9 0 0 0 .654.1c.453 0 .575-.192.575-.397 0-.2-.061-.34-.492-.374-.632-.057-.763-.28-.763-.58 0-.31.2-.645.815-.645a1.6 1.6 0 0 1 .627.11v.26a1.8 1.8 0 0 0-.631-.1c-.432 0-.523.162-.523.376 0 .19.078.29.496.326m-20.787-.659H1.38a.05.05 0 0 0-.05.05v.522a.05.05 0 0 0 .05.05h.416v.649a1.3 1.3 0 0 1-.351.032c-.305 0-.731-.112-.731-1.048s.443-1.06.86-1.06a1.7 1.7 0 0 1 .614.094.05.05 0 0 0 .06-.05l.12-.504a.05.05 0 0 0-.02-.039 1.7 1.7 0 0 0-.903-.165C.73 9.748 0 10.05 0 11.508s.837 1.675 1.542 1.675a1.74 1.74 0 0 0 .938-.25.04.04 0 0 0 .016-.038v-1.628a.05.05 0 0 0-.05-.05m5.545-1.294a.05.05 0 0 0-.05-.05H7.34a.05.05 0 0 0-.05.05v1.161h-.936V9.923a.05.05 0 0 0-.05-.05h-.6a.05.05 0 0 0-.05.05v3.145a.05.05 0 0 0 .05.05h.6a.05.05 0 0 0 .05-.05v-1.345h.937l-.002 1.345a.05.05 0 0 0 .05.05h.603a.05.05 0 0 0 .05-.05zm-4.389.412a.388.388 0 1 0-.387.392.39.39 0 0 0 .387-.392m-.042 2.068v-1.451a.05.05 0 0 0-.05-.05h-.6a.06.06 0 0 0-.051.056v2.08c0 .06.038.079.087.079h.54c.06 0 .074-.03.074-.08zm6.764-1.497h-.597a.05.05 0 0 0-.05.05v1.542a.67.67 0 0 1-.367.11c-.215 0-.272-.097-.272-.307v-1.344a.05.05 0 0 0-.05-.05h-.604a.05.05 0 0 0-.05.05v1.446c0 .626.348.779.828.779a1.4 1.4 0 0 0 .71-.217 1 1 0 0 0 .022.128.05.05 0 0 0 .044.027l.385-.002a.05.05 0 0 0 .05-.05v-2.112a.05.05 0 0 0-.05-.05zm1.662-.07a1.1 1.1 0 0 0-.569.15V9.923a.05.05 0 0 0-.05-.05h-.602a.05.05 0 0 0-.05.05v3.145a.05.05 0 0 0 .05.05h.418a.05.05 0 0 0 .044-.027 1 1 0 0 0 .025-.144 1.08 1.08 0 0 0 .713.233c.548 0 .862-.278.862-1.248s-.502-1.095-.841-1.095zm-.235 1.771a.7.7 0 0 1-.347-.1v-.996a.8.8 0 0 1 .308-.1c.215-.019.422.046.422.558 0 .54-.094.647-.383.639zm-6.475-1.706h-.45l-.002-.595q.001-.034-.037-.034h-.615q-.036 0-.036.033v.615l-.33.08a.05.05 0 0 0-.035.048v.387a.05.05 0 0 0 .05.05h.315v.93c0 .692.484.76.812.76a1.4 1.4 0 0 0 .357-.06.05.05 0 0 0 .028-.044l.001-.426a.05.05 0 0 0-.05-.05c-.026 0-.094.01-.163.01-.221 0-.296-.102-.296-.236v-.884h.451a.05.05 0 0 0 .05-.05v-.484a.05.05 0 0 0-.05-.05"/></svg>