<svg xmlns="http://www.w3.org/2000/svg" viewBox="0 0 24 24"><path d="M2.77 0A2.763 2.763 0 0 0 0 2.77v18.46A2.763 2.763 0 0 0 2.77 24h18.46A2.763 2.763 0 0 0 24 21.23V2.77A2.763 2.763 0 0 0 21.23 0Zm.922 1.846h5.539c1.023 0 1.846.824 1.846 1.846v16.616a1.84 1.84 0 0 1-1.846 1.846H3.692a1.84 1.84 0 0 1-1.846-1.846V3.692c0-1.022.824-1.846 1.846-1.846m11.077 0h5.539c1.022 0 1.846.824 1.846 1.846v5.539a1.84 1.84 0 0 1-1.846 1.846h-5.539a1.84 1.84 0 0 1-1.846-1.846V3.692c0-1.022.823-1.846 1.846-1.846m1.226 1.846-.946.961h2.964q.223 0 .423-.012a.8.8 0 0 0 .312-.089L14.77 8.528l.725.703 3.923-3.941a1 1 0 0 0-.1.322 3 3 0 0 0-.023.38v3.071l1.014-1.004V3.692Zm-1.226 9.231h5.539c1.022 0 1.846.823 1.846 1.846v5.539a1.84 1.84 0 0 1-1.846 1.846h-5.539a1.84 1.84 0 0 1-1.846-1.846v-5.539c0-1.023.823-1.846 1.846-1.846"/></svg>