<svg xmlns="http://www.w3.org/2000/svg" viewBox="0 0 24 24"><path d="M12.242 8.576a3.5 3.5 0 0 0-1.752.469l-.076.047c-.068.038-.08.132-.025.183l.248.248c.038.039.098.048.14.018a2.9 2.9 0 0 1 1.46-.393c.512 0 1.016.137 1.46.393h.004a.12.12 0 0 0 .14-.018l.253-.248a.115.115 0 0 0-.026-.183l-.08-.047a3.5 3.5 0 0 0-1.746-.469m-.006 1.012c-.375 0-.747.094-1.076.273a.12.12 0 0 0-.055.084c0 .026.009.057.026.074l.273.274a.12.12 0 0 0 .133.025 1.6 1.6 0 0 1 .695-.154c.244 0 .484.056.701.154a.115.115 0 0 0 .131-.025l.266-.266a.11.11 0 0 0 .03-.082v-.008c.004-.025-.014-.055-.044-.072a2.26 2.26 0 0 0-1.08-.277m.01 1.123a.43.43 0 0 0-.44.44c0 .247.183.435.426.435a.46.46 0 0 0 .334-.133.41.41 0 0 0 .116-.303.43.43 0 0 0-.436-.44m-9.77.346c-1.472 0-2.472.884-2.476 2.199 0 .64.235 1.22.644 1.588.427.38.988.562 1.71.562.572 0 1.06-.122 1.372-.224l.057-.018a.04.04 0 0 0 .03-.039v-2.07c.008-.03-.008-.047-.034-.047H2.178a.04.04 0 0 0-.043.043v.576a.04.04 0 0 0 .043.043h.836v.99a2.3 2.3 0 0 1-.62.068c-.952 0-1.544-.575-1.544-1.498 0-.922.618-1.496 1.613-1.496.452 0 .722.088.91.164l.09.038a.04.04 0 0 0 .033 0c.013-.005.017-.013.022-.026l.183-.576c.009-.021-.004-.042-.021-.05l-.069-.032c-.213-.094-.622-.195-1.134-.195m2.895.039c-.026 0-.043.015-.043.04v4.182c0 .026.017.041.043.041H7.96q.041-.001.043-.04v-.598c0-.017-.017-.04-.043-.04h-1.81v-3.544c0-.026-.018-.041-.044-.041zm8.51.004a.04.04 0 0 0-.043.043v4.18a.04.04 0 0 0 .043.042h.7a.04.04 0 0 0 .042-.043v-1.799c0-.448-.003-.81-.016-1.148.154.265.34.56.567.893l1.4 2.08a.04.04 0 0 0 .035.017h.7a.04.04 0 0 0 .043-.043v-4.18a.04.04 0 0 0-.043-.042h-.7a.04.04 0 0 0-.043.043v1.761q-.002.514.022 1.098-.224-.39-.512-.81l-1.414-2.077c-.008-.013-.02-.015-.033-.015zm9.248.277-.727.18a.05.05 0 0 0-.033.043v.63h-.44a.04.04 0 0 0-.042.043v.559a.04.04 0 0 0 .043.043h.443v1.451c0 .401.081.672.252.834.162.17.406.26.709.26.218 0 .414-.029.55-.08l.055-.022c.017-.008.032-.026.028-.043l-.035-.55c0-.013-.01-.027-.018-.032-.008-.008-.02-.007-.033-.007l-.104.025c-.055.013-.154.03-.295.03-.149 0-.293-.035-.293-.44v-1.434h.768a.04.04 0 0 0 .043-.043v-.558a.05.05 0 0 0-.047-.036h-.77v-.81c0-.013-.002-.027-.015-.035-.008-.009-.026-.012-.04-.008m-3.229.789c-.935 0-1.588.691-1.588 1.678 0 .96.655 1.58 1.663 1.58.525 0 .883-.102 1.087-.188l.065-.025c.021-.009.03-.03.025-.05l-.136-.536a.04.04 0 0 0-.022-.025q-.02-.008-.033 0l-.096.039c-.183.072-.409.14-.81.14-.257 0-.855-.077-.932-.756h2.127a.044.044 0 0 0 .043-.037l.014-.095a1.6 1.6 0 0 0 .015-.235c-.004-.691-.376-1.49-1.422-1.49m-8.025.064a.04.04 0 0 0-.043.043v3.05a.04.04 0 0 0 .043.042h.738a.04.04 0 0 0 .043-.043v-3.049a.04.04 0 0 0-.043-.043zm7.982.555c.188 0 .343.052.45.154.14.133.188.325.2.453h-1.362c.05-.192.222-.607.713-.607zm-10.199.025a.453.453 0 0 0-.453.454.453.453 0 0 0 .453.453.453.453 0 0 0 .453-.453.453.453 0 0 0-.453-.453"/></svg>