<svg xmlns="http://www.w3.org/2000/svg" viewBox="0 0 24 24"><path d="M11.998 4.39c-3.825 0-7.15 1.695-8.787 4.16-.39.022-.78.041-1.17.067-.582.041-1.32.56-1.427 1.24L.432 10.99c-.18 1.125-.327 2.011-.426 3.16-.033.403.065.78.262 1.01.263.312.781.386.986.41q1.094.1 2.164.18c1.698 2.302 4.906 3.86 8.58 3.86s6.883-1.56 8.581-3.862c.442-.034.88-.064 1.326-.104.624-.057 1.2-.582 1.338-1.222.18-.821.24-1.14.305-1.55q.037-.197.072-.454c0-.025.017-.114.033-.229.041-.246.1-.64.15-.92l.18-1.207a1.09 1.09 0 0 0-.27-.935c-.214-.246-.585-.419-.954-.443a160 160 0 0 0-1.96-.12c-1.63-2.473-4.962-4.173-8.8-4.173Zm0 .33c3.594 0 6.725 1.547 8.327 3.821l-.428-.02c-.773-.98-1.858-1.807-3.156-2.398-.336.09-.73.173-1.148.238a13.6 13.6 0 0 1 1.101 2.034l-.556-.014a14 14 0 0 0-1.096-1.945c-.828.106-1.772.163-2.757.18v.294h-.433q-.03 0-.06.004v-.299a25 25 0 0 1-2.831-.172 14 14 0 0 0-1.09 1.932l-.28.006h-.106l.007-.108a1.5 1.5 0 0 0-.01-.255 14 14 0 0 1 .93-1.649 11 11 0 0 1-1.173-.238c-1.283.59-2.354 1.406-3.12 2.373q-.218.01-.435.02C5.29 6.26 8.414 4.72 11.998 4.72m-.213.417c-.686.01-1.357.084-2.003.207a12 12 0 0 0-.508.648c.77.082 1.625.13 2.51.14zm.5 0v.986a25 25 0 0 0 2.44-.14c-.28-.378-.477-.608-.51-.649a12 12 0 0 0-1.93-.197m-3.265.37q-.506.135-.986.304c.213.04.443.074.68.107.108-.156.216-.295.306-.41Zm5.967 0c.09.116.188.256.294.403.23-.033.453-.074.666-.107a9 9 0 0 0-.96-.295Zm-3.004 1.92h.476c.189 0 .36.09.475.247a.8.8 0 0 1 .14.607c-.024.205-.057.402-.082.608.5 0 1.01.01 1.51.017.189 0 .362.09.477.246a.8.8 0 0 1 .138.598c-.213 1.666-.468 3.333-.722 5.008-.066.435-.41.77-.78.779-.722.008-1.453.01-2.175.01a.6.6 0 0 1-.485-.246.81.81 0 0 1-.138-.592V14.7c.32-2.421.673-4.844 1.01-7.265.057 0 .106 0 .156-.008zm-5.567.141c.18 0 .33.074.436.213.115.148.156.36.115.582-.402 2.373-.746 4.705-.984 7.02-.214-.008-.42-.025-.633-.033a.65.65 0 0 1-.484-.256.78.78 0 0 1-.157-.575 93 93 0 0 1 1.043-6.91c.214-.008.418-.025.631-.033q.01.002.033-.008m3.884 1.33c.197 0 .362.081.477.23a.84.84 0 0 1 .13.606c-.237 1.683-.475 3.357-.697 5.032-.057.435-.394.764-.763.755a98 98 0 0 1-2.176-.074.66.66 0 0 1-.492-.261.78.78 0 0 1-.157-.575 119 119 0 0 1 .682-4.902c.066-.427.427-.77.805-.78q1.095-.022 2.19-.032m5.54.05c.213.008.427.007.64.015.198 0 .37.09.485.246.123.156.181.37.148.592a132 132 0 0 1-.625 4.234l.871-.023q.358-2.156.631-4.262c.05-.419.394-.737.772-.72l.69.023a87 87 0 0 1-.846 5.574c-.074.41-.426.755-.803.77-.73.034-1.453.067-2.184.09a.55.55 0 0 1-.476-.227.78.78 0 0 1-.123-.584 187 187 0 0 0 .82-5.729M4.185 9.06a.62.62 0 0 1 .492.205.78.78 0 0 1 .123.584q-.11.617-.205 1.222c-.304 0-.606.008-.91.008a.4.4 0 0 1-.387-.402c0-.025.033-.213.033-.213-.31.008-.69.01-1.002.017-.057.238-.475 3.045-.492 3.366.312.016.69.04 1.002.056.115-.64.165-.836.198-1.066-.04-.008-.14-.008-.182-.008-.205-.008-.384-.23-.352-.47.041-.286.082-.549.131-.844H4.07c.213 0 .46.073.402.45-.09.731-.213 1.808-.361 2.653-.082.435-.28.664-.73.672-.436 0-1.569-.08-2.225-.188-.197-.032-.41-.09-.54-.238-.133-.156-.173-.41-.173-.6 0-.508.27-2.668.582-4.318.074-.394.55-.738.935-.779a26 26 0 0 1 2.225-.107m16.548.04h.025c1.256.025 1.814.083 2.142.124.19.024.402.18.508.312.123.148.181.287.157.484q-.077.528-.165 1.07c-.295 0-.59-.01-.886-.01a.416.416 0 0 1-.395-.394c0-.024 0-.057.008-.08.008-.043.025-.084.033-.125l-.894-.025c-.025.18-.13.771-.172 1.025h1.502c.19 0 .361.076.476.215.115.148.164.279.131.533-.123 1.035-.237 1.56-.385 2.102-.098.378-.468.754-.845.795-1.076.123-1.405.133-2.2.174a.54.54 0 0 1-.476-.207.68.68 0 0 1-.115-.557 66 66 0 0 0 .213-1.232c.303-.017.606-.025.91-.034.205-.008.38.165.38.387 0 .033 0 .057-.009.09 0 .04-.01.09-.018.13.296-.007.592-.024.887-.04.033-.18.14-.73.182-.984-.296.008-1.43.007-1.43.007-.197.008-.344-.032-.46-.18-.114-.147-.195-.262-.212-.492.1-.919.31-2.06.352-2.388.05-.402.378-.7.756-.7m-7.937 1.24c-.033.247-.484 3.392-.533 3.745h.918c.04-.255.486-3.383.535-3.744zm-3.324.01c-.304 0-.616.006-.92.006-.041.255-.477 3.343-.51 3.696.304.008.609.007.912.015.025-.246.46-3.357.518-3.718zm-5.55 5.436.454.03c.732.823 1.691 1.522 2.813 2.044a11 11 0 0 1 1.19-.264 14 14 0 0 1-.9-1.613l.57.024c.29.575.6 1.09.88 1.508.862-.115 1.847-.18 2.865-.188v-1.25l.287.002.205-.002v1.25a24 24 0 0 1 2.784.188c.279-.42.587-.935.876-1.51.19-.007.38-.01.568-.018a15 15 0 0 1-.904 1.62q.665.109 1.183.269c1.137-.522 2.11-1.226 2.848-2.057l.443-.033C18.42 17.88 15.417 19.28 12 19.28c-3.417 0-6.414-1.401-8.078-3.494zm7.872 2.033a24 24 0 0 0-2.553.147c.27.377.485.624.56.715.64.115 1.304.189 1.993.197zm.492 0v1.059a12 12 0 0 0 1.914-.198 13 13 0 0 0 .55-.705 25 25 0 0 0-2.464-.156m-3.603.22a14 14 0 0 0-.73.134 9 9 0 0 0 1.076.336c-.1-.132-.223-.29-.346-.47m6.625.01a25 25 0 0 1-.336.46q.541-.133 1.058-.328c-.221-.05-.468-.09-.722-.131z"/></svg>