<svg xmlns="http://www.w3.org/2000/svg" viewBox="0 0 24 24"><path d="M9.67 16.29c.413-.462.63-1.137.63-2.046v-5.08h-.87v.794h-.01a1.63 1.63 0 0 0-.687-.692 2.05 2.05 0 0 0-.967-.231q-.72 0-1.214.274t-.795.703q-.3.43-.43.945-.128.515-.128 1.01 0 .57.155 1.08.156.51.468.897.31.387.773.612.462.225 1.085.225a2.2 2.2 0 0 0 1.015-.252 1.58 1.58 0 0 0 .714-.757h.022v.365q0 .472-.091.859-.092.387-.296.66a1.44 1.44 0 0 1-.515.43 1.7 1.7 0 0 1-.763.156q-.225 0-.472-.048a2 2 0 0 1-.173-.043l-.182-.066-.017-.007v.001C4.562 15.198 3.01 13.7 3.01 12c0-2.71 3.95-4.908 8.822-4.908 2.714 0 5.148.618 6.766 1.69-1.767-1.797-4.934-3.06-8.555-3.06C4.497 5.718 0 8.53 0 11.997c0 2.367 2.095 4.429 5.188 5.5 2.482.085 3.741-.376 4.483-1.208m-.374-3.69q-.09.389-.284.693a1.5 1.5 0 0 1-.51.494 1.5 1.5 0 0 1-.768.188q-.452 0-.752-.188-.301-.188-.484-.494a2.1 2.1 0 0 1-.258-.682 4 4 0 0 1-.075-.752q0-.397.092-.762.09-.366.29-.645.198-.279.51-.445.31-.167.752-.167.43 0 .73.172.3.173.489.456.188.285.273.64.087.354.086.72 0 .386-.09.773m.799 4.214c-.526.477-1.466 1.023-2.747 1.237.857.149 1.76.228 2.693.228 3.607.001 6.766-1.258 8.537-3.043-1.618 1.066-4.042 1.673-6.746 1.673-.643 0-1.134-.023-1.737-.095m5.553-2.082h-1.31v-4.415h-1.645V9.194h4.6v1.123h-1.645zm3.637 0h-1.31V9.194h4.046v1.123h-2.736v1.036h2.395v1.123h-2.395zm-8.222-6.918h.913v6.902h-.913zm12.09 1.543h-.204v.533h-.18v-.533h-.205v-.154h.59zm.08-.154h.265l.118.458h.002l.118-.458H24v.687h-.169v-.522h-.002l-.144.522h-.137l-.144-.522h-.002v.522h-.169z"/></svg>