<svg xmlns="http://www.w3.org/2000/svg" viewBox="0 0 24 24"><path d="M15.82 0c-2.093 0-4.186.8-5.783 2.397a8.14 8.14 0 0 0-2.33 4.761 9 9 0 0 1 .473-.013 8.65 8.65 0 0 1 5.076 1.638 2.66 2.66 0 0 1 .713-2.47c1.046-1.046 2.711-.998 3.715.005a2.772 2.772 0 1 0 3.92-3.922A8.15 8.15 0 0 0 15.82 0m7.078 4.078a3.27 3.27 0 0 1-.941 2.594 3.28 3.28 0 0 1-3.639.674c.312.938.065 1.99-.633 2.687-.99.992-2.663 1.066-3.725.004q-.024-.026-.046-.053l-.003.002A8.18 8.18 0 0 0 2.395 21.603a2.975 2.975 0 0 0 4.206 0c1.162-1.161.87-2.756-.293-3.917-.935-.936-1.122-2.593-.005-3.711.91-.91 2.537-1.17 3.726-.008q.11.108.225.203a8.177 8.177 0 0 0 11.35-.207 8.18 8.18 0 0 0 1.294-9.885M10.725 15.2a2.65 2.65 0 0 1-.702 2.498 2.64 2.64 0 0 1-2.591.658c.21.393.347.809.392 1.237.088.827-.192 1.688-.869 2.365a3.47 3.47 0 0 1-2.773 1 8.18 8.18 0 0 0 9.78-1.353 8.14 8.14 0 0 0 2.329-4.762 8.67 8.67 0 0 1-5.566-1.643"/></svg>