<svg xmlns="http://www.w3.org/2000/svg" viewBox="0 0 24 24"><path d="M3.963 7.235A3.96 3.96 0 0 0 .422 9.419a3.96 3.96 0 0 0 0 3.559 3.96 3.96 0 0 0 3.541 2.184c1.07 0 1.97-.352 2.627-.957.748-.69 1.18-1.71 1.18-2.916a5 5 0 0 0-.07-.806H3.964v1.526h2.14a1.84 1.84 0 0 1-.79 1.205c-.356.241-.814.379-1.35.379-1.034 0-1.911-.697-2.225-1.636a2.38 2.38 0 0 1 0-1.517c.314-.94 1.191-1.636 2.225-1.636a2.15 2.15 0 0 1 1.52.594l1.132-1.13a3.8 3.8 0 0 0-2.652-1.033zm6.501.55v6.9h.886V11.89h1.465q.904 0 1.522-.588a1.91 1.91 0 0 0 .635-1.464 1.92 1.92 0 0 0-.635-1.456 2.13 2.13 0 0 0-1.522-.598zm2.427.85a1.16 1.16 0 0 1 .823.365 1.176 1.176 0 0 1 0 1.686 1.17 1.17 0 0 1-.877.357H11.35V8.635h1.541m4.124 1.175q-1.262 0-1.907.925l.781.491q.432-.626 1.175-.626a1.25 1.25 0 0 1 .856.323 1 1 0 0 1 .366.785v.202q-.51-.29-1.3-.289-.926 0-1.479.434-.555.432-.554 1.165a1.48 1.48 0 0 0 .525 1.156q.525.463 1.305.463.915 0 1.465-.81h.038v.655h.848v-2.909q0-.915-.568-1.44-.57-.525-1.551-.525m2.263.154 1.946 4.422-1.098 2.38h.915L24 9.963h-.965l-1.368 3.391h-.02l-1.406-3.39zm-2.146 2.368q.741 0 1.156.33 0 .558-.44.973a1.41 1.41 0 0 1-.997.414 1.08 1.08 0 0 1-.69-.232.71.71 0 0 1-.293-.578q0-.383.363-.647.36-.26.9-.26Z"/></svg>