<svg xmlns="http://www.w3.org/2000/svg" viewBox="0 0 24 24"><path d="M22.056 8.447a3.894 3.894 0 0 0-5.313 1.419l-3.889 6.72a3.874 3.874 0 0 0 1.415 5.293l.01.005a3.894 3.894 0 0 0 5.312-1.42l3.889-6.718a3.875 3.875 0 0 0-1.416-5.294zm-14.7 12.168c-1.08 1.888-3.514 2.583-5.384 1.493S-.561 18.653.519 16.765s3.494-2.586 5.365-1.496 2.554 3.457 1.474 5.344m4.131-19.228a3.94 3.94 0 0 0-3.267 2.189l-3.67 6.279a5 5 0 0 0-.227.387l-2.746 4.737c1.345-.86 3.09-.993 4.55-.143a4.46 4.46 0 0 1 2.22 4.041l2.77-4.763q.123-.186.224-.385l3.67-6.281a3.86 3.86 0 0 0-1.283-5.55 3.96 3.96 0 0 0-2.24-.511z"/></svg>