<svg xmlns="http://www.w3.org/2000/svg" viewBox="0 0 24 24"><path d="M11.383.617C5.097.617 0 5.714 0 12s5.097 11.383 11.383 11.383S22.763 18.286 22.763 12a11.3 11.3 0 0 0-.878-4.389l-3.203 3.203c.062.387.1.782.1 1.186a7.398 7.398 0 1 1-7.4-7.398c1.499 0 2.889.448 4.054 1.214l2.857-2.857a11.33 11.33 0 0 0-6.91-2.342m9.674.756c-.292 0-.583.112-.805.334q-4.453 4.449-8.9 8.902L9.596 8.854a1.14 1.14 0 0 0-1.61 0l-1.775 1.773a1.14 1.14 0 0 0 0 1.61l4.166 4.163a1.42 1.42 0 0 0 2.012 0L23.666 5.121a1.136 1.136 0 0 0 0-1.61l-1.805-1.804a1.14 1.14 0 0 0-.804-.334"/></svg>