<svg xmlns="http://www.w3.org/2000/svg" viewBox="0 0 24 24"><path d="M12.363 2.54a3 3 0 0 0-.376.022 2.86 2.86 0 0 0-1.589.828c-.562.58-.82 1.115-.773 1.943-.01.264.193 1.023.272 1.274 1.115 3.546 2.09 6.75 3.26 10.279q.12.369.267.72.03.07.048-.004.116-.445.29-.945 1.341-3.863 2.633-7.696a.35.35 0 0 0 .004-.217 163 163 0 0 0-1.49-4.572 2.6 2.6 0 0 0-.704-.933q-.827-.69-1.842-.7Zm9.078.117a2.734 2.734 0 0 0-2.878 1.828l-4.576 13.289a2.734 2.734 0 0 0 1.695 3.475l.12.04a2.734 2.734 0 0 0 3.475-1.694L23.85 6.307a2.734 2.734 0 0 0-1.695-3.476c-.233-.1-.506-.124-.716-.174ZM12.375 3.96a1.396 1.396 0 1 1 0 2.791 1.395 1.395 0 0 1 0-2.79zm8.809.07a1.402 1.402 0 1 1 0 2.803 1.402 1.402 0 0 1 0-2.803M5.419 7.605a3 3 0 0 0-.468.052 2.7 2.7 0 0 0-1.337.627 2.62 2.62 0 0 0-.924 1.833 4 4 0 0 0 0 .648 2.52 2.52 0 0 0 .673 1.52q.331.357.732.648 4.565 3.314 9.108 6.664a.8.8 0 0 0 .158.089q.045-.064.007-.167a17 17 0 0 0-.317-1.066 533 533 0 0 1-2.02-6.251 42 42 0 0 0-.497-1.477c-.967-.849-2.078-1.6-3.023-2.302A3.85 3.85 0 0 0 6.153 7.7a2.4 2.4 0 0 0-.734-.094Zm.02 1.424a1.398 1.398 0 1 1 0 2.796 1.398 1.398 0 0 1 0-2.796m-2.458 6.792q-1.1-.008-1.927.622a2.72 2.72 0 0 0-.95 1.45 2.8 2.8 0 0 0-.09 1.04 2.74 2.74 0 0 0 .695 1.583c.664.578 1.26.85 2 .945q2.13-.008 4.262-.02h.418q3.416-.005 6.706.003.223.008.392-.01.09-.008.092-.077a11 11 0 0 0-.834-.653 489 489 0 0 1-6.57-4.815.24.24 0 0 0-.14-.047q-2.01-.005-4.054-.02zm-.19 1.418a1.402 1.402 0 1 1 0 2.803 1.402 1.402 0 0 1 0-2.803m13.874.002a1.4 1.4 0 1 1 0 2.8 1.4 1.4 0 0 1 0-2.8"/></svg>