<svg xmlns="http://www.w3.org/2000/svg" viewBox="0 0 24 24"><path d="M22.588 7.177h-.005a5.5 5.5 0 0 0-1.546.379H2.056L0 16.526h13.376a2.4 2.4 0 0 0 1.012.296l.006.001h.679q.323-.025.672-.094.601-.118 1.26-.357.496-.181 1.015-.43c.75-.36 1.524-.822 2.283-1.38a15 15 0 0 0 1.328-1.101c.544-.524.957-1.057 1.197-1.538.003-.015.19-.34.222-.708a.84.84 0 0 0-.146-.592.8.8 0 0 0-.365-.252c.476-.39.864-.808 1.118-1.216.297-.477.429-.95.284-1.348a.93.93 0 0 0-.578-.547 1.6 1.6 0 0 0-.4-.083h-.006zm.014.295h.34q.181.016.32.066c.21.076.34.201.401.37.098.268.013.656-.257 1.09-.27.436-.718.907-1.286 1.333l-.313.236.39.03c.232.018.384.09.47.204.004.009.105.11.089.388a1.8 1.8 0 0 1-.193.602c-.217.437-.611.95-1.136 1.457a15 15 0 0 1-1.3 1.076c-.084.06-.924.724-2.235 1.352q-.505.242-.989.418a8 8 0 0 1-1.215.345q-.33.065-.633.088c-.198-.001-.397.003-.594 0-.59-.052-1.055-.259-1.332-.636a1.3 1.3 0 0 1-.2-.399 1.8 1.8 0 0 1-.072-.619c.03-.62.32-1.356.824-2.128.535-.82 1.31-1.68 2.27-2.477q.323-.269.671-.527.433-.316.868-.589c1.07-.673 2.136-1.144 3.082-1.384-.904.295-1.918.795-2.92 1.476l-.108.074a13 13 0 0 0-1.5 1.208c-1.415 1.331-2.163 2.71-1.823 3.518q.036.082.086.159c.366.537 1.271.63 2.419.341a9.3 9.3 0 0 0 1.714-.637c1.265-.629 2.237-1.352 2.448-1.786q.071-.143.025-.239c-.15-.304-1.2-.098-2.473.453q-.154.066-.31.139a10 10 0 0 1 .716-.603q.376-.283.748-.51c1.16-.875 1.747-1.702 1.624-2.01q-.034-.085-.148-.121c-.241-.077-.683.015-1.219.234-.442.182-.95.45-1.465.785l-.083.054-.247.164.142-.26c.21-.386.555-.79.983-1.164a7 7 0 0 1 1.941-1.19c.424-.167.83-.27 1.182-.297h-.251c.2-.043.389-.072.549-.084m-9.939.097c-.058.884.114 2.18.503 3.617a20 20 0 0 0 .386 1.26q-.048.07-.094.14c-.486.744-.77 1.447-.84 2.058a12.7 12.7 0 0 1-.448-2.237 14 14 0 0 1-.057-.678c-.096-1.622.116-3.093.55-4.16m-9.685 1.15h2.219q.278 0 .434.106.152.106.116.273l-.26 1.177h-.77l.252-1.145H3.041l-.948 4.288H4.02l.388-1.752h-.905l.086-.393h1.676l-.48 2.176a.3.3 0 0 1-.034.087.5.5 0 0 1-.205.184q-.2.106-.48.106H1.882q-.278 0-.434-.106-.153-.105-.116-.271l.962-4.35q.037-.168.237-.274l.015-.005a1 1 0 0 1 .432-.1zm3.425 0h2.75q.278 0 .433.106t.118.273l-.514 2.32q-.036.166-.238.272a1 1 0 0 1-.478.107h-2q-.225 1.015-.448 2.029h-.754zm3.8 0h.753l-1.04 4.699h1.803q.03.207.065.408H9.072l1.13-5.106zm-3.137.41-.5 2.258h1.878l.499-2.257zm-1.58 5.051h.023a.5.5 0 0 1 .225.045q.1.045.139.137a.33.33 0 0 1 .018.197l-.005.028h-.217l.002-.026q.01-.075-.02-.118a.1.1 0 0 0-.028-.026.27.27 0 0 0-.138-.03.32.32 0 0 0-.183.043q-.061.041-.074.096c-.008.038.005.058.015.068l.002.002a.5.5 0 0 0 .182.065q.174.043.239.075a.28.28 0 0 1 .136.132.28.28 0 0 1 .015.183.4.4 0 0 1-.098.182.5.5 0 0 1-.186.133.6.6 0 0 1-.24.048.6.6 0 0 1-.26-.048.3.3 0 0 1-.149-.153.38.38 0 0 1-.018-.223l.005-.026h.213l-.002.026a.24.24 0 0 0 .013.118.14.14 0 0 0 .074.07.4.4 0 0 0 .288.006.25.25 0 0 0 .098-.06.16.16 0 0 0 .042-.079.1.1 0 0 0-.005-.065q-.016-.028-.069-.05l-.18-.053a.8.8 0 0 1-.21-.074.26.26 0 0 1-.112-.122.26.26 0 0 1-.01-.16.4.4 0 0 1 .091-.176.45.45 0 0 1 .181-.124.6.6 0 0 1 .204-.04zm1.94.004h.035l.133.015.045.004-.065.164-.013.026-.102-.01q-.045 0-.066.015l-.011.012a.2.2 0 0 0-.028.07l-.007.03h.159l-.041.182H7.31l-.157.704h-.214l.157-.704h-.124l.04-.183h.122l.015-.057a.5.5 0 0 1 .044-.131.28.28 0 0 1 .233-.137m.512.01-.07.315h.138l-.04.183h-.139l-.1.445s-.007.043-.007.065l.024.002.102-.007-.012.164.002.03-.146.016q-.086 0-.13-.03a.13.13 0 0 1-.06-.084q-.003-.01-.004-.03c0-.027.005-.072.023-.15l.094-.42H7.51l.04-.184h.102l.043-.188.242-.128zM1.13 14.2h.832l-.046.207h-.608l-.061.273h.526l-.046.207h-.526l-.113.508H.865zm1.114.292h.026q.08 0 .15.05l.03.02-.115.188-.031-.022a.14.14 0 0 0-.074-.022.1.1 0 0 0-.065.022.2.2 0 0 0-.055.061.6.6 0 0 0-.056.152l-.1.454H1.74l.198-.887h.2l-.01.037q.015-.012.028-.022a.2.2 0 0 1 .088-.031m.636 0h.039q.181 0 .271.125.058.08.058.2 0 .065-.017.142l-.017.065h-.602l-.002.037q0 .069.03.109.014.02.033.033a.16.16 0 0 0 .09.024.2.2 0 0 0 .119-.035.3.3 0 0 0 .096-.105h.229l-.02.044a.49.49 0 0 1-.449.283q-.197 0-.288-.126-.09-.123-.041-.336a.6.6 0 0 1 .188-.34.48.48 0 0 1 .283-.12m.962 0h.04q.18 0 .27.125.058.08.058.2a.7.7 0 0 1-.033.207h-.602l-.002.024c0 .02 0 .026.002.039a.16.16 0 0 0 .027.083l.01.013a.15.15 0 0 0 .114.044.2.2 0 0 0 .118-.035.3.3 0 0 0 .096-.105h.231l-.022.044a.49.49 0 0 1-.449.283q-.197 0-.288-.126c-.079-.108-.059-.256-.04-.336a.6.6 0 0 1 .186-.34.5.5 0 0 1 .284-.12m2.622 0h.039q.185 0 .278.124.091.123.045.332a.7.7 0 0 1-.107.26.51.51 0 0 1-.405.206q-.188 0-.279-.126c-.078-.104-.064-.25-.042-.344a.58.58 0 0 1 .214-.356.5.5 0 0 1 .257-.096m3.245 0q.023 0 .047 0a.5.5 0 0 1 .177.026q.07.029.1.077.027.044.027.113l-.022.135-.04.183a2 2 0 0 0-.045.236.2.2 0 0 0 .01.085l.014.048H9.76l-.009-.028q-.003-.021-.004-.044a.52.52 0 0 1-.29.09q-.15 0-.22-.077a.2.2 0 0 1-.05-.137.3.3 0 0 1 .065-.187.4.4 0 0 1 .1-.088.4.4 0 0 1 .12-.048l.131-.022a1.4 1.4 0 0 0 .231-.043l.004-.013q.012-.058-.002-.08l-.011-.012q-.034-.027-.11-.026-.086 0-.13.028a.24.24 0 0 0-.08.1h-.223l.02-.045a.5.5 0 0 1 .098-.151.4.4 0 0 1 .155-.09.6.6 0 0 1 .155-.03zm.937 0h.026q.08 0 .151.05l.028.02-.114.188-.032-.022a.13.13 0 0 0-.072-.022.12.12 0 0 0-.066.022.2.2 0 0 0-.054.061.6.6 0 0 0-.055.152l-.102.454h-.214l.197-.887h.2l-.008.037q.015-.012.028-.022a.2.2 0 0 1 .087-.031m.634 0h.038q.182 0 .272.125.057.08.057.2a.7.7 0 0 1-.018.142l-.015.065h-.602q-.003.018-.004.037 0 .069.03.109l.018.02a.15.15 0 0 0 .107.037.2.2 0 0 0 .119-.035.3.3 0 0 0 .096-.105h.23l-.022.044a.49.49 0 0 1-.449.283q-.196 0-.286-.126-.09-.123-.042-.336a.6.6 0 0 1 .186-.34.5.5 0 0 1 .285-.12m-3.235.016h.22l.028.534.016-.037.242-.497h.202l.018.523.275-.523h.218l-.48.887h-.198l-.02-.508-.248.508h-.203zm-5.161.168a.24.24 0 0 0-.14.056.3.3 0 0 0-.077.105h.364l.002-.02a.15.15 0 0 0-.016-.078q-.038-.063-.122-.063zm.962 0a.23.23 0 0 0-.14.056.3.3 0 0 0-.076.105h.364l.002-.02a.15.15 0 0 0-.017-.078l-.018-.024a.14.14 0 0 0-.104-.039zm7.445 0a.24.24 0 0 0-.147.057.3.3 0 0 0-.077.104h.366l.002-.02a.15.15 0 0 0-.017-.078.12.12 0 0 0-.098-.06c-.014-.002-.017-.003-.03-.003zm-4.84.004a.25.25 0 0 0-.137.067.4.4 0 0 0-.109.214c-.017.077-.021.155.011.205.02.029.056.06.124.06q.088.001.163-.067a.4.4 0 0 0 .109-.218q.03-.135-.012-.2-.04-.06-.122-.06-.014-.002-.027 0zm3.338.323c-.05.014-.107.025-.181.035a.6.6 0 0 0-.118.026.13.13 0 0 0-.05.035.1.1 0 0 0-.026.048.1.1 0 0 0 0 .037.1.1 0 0 0 .013.023q.023.024.087.024a.3.3 0 0 0 .133-.03.3.3 0 0 0 .098-.085.4.4 0 0 0 .044-.113"/></svg>