<svg xmlns="http://www.w3.org/2000/svg" viewBox="0 0 24 24"><path d="M23.02 10.59a8.6 8.6 0 0 0-.862-3.034 8.9 8.9 0 0 0-1.789-2.445c.337-1.342-.413-2.505-.413-2.505-1.292-.08-2.113.4-2.416.62q-.077-.032-.154-.064-.33-.134-.677-.247-.348-.11-.711-.197a10 10 0 0 0-.875-.161C14.557.753 12.94 0 12.94 0c-1.804 1.145-2.147 2.744-2.147 2.744l-.018.093q-.149.042-.298.088c-.138.042-.275.094-.413.143-.138.055-.275.107-.41.166a9 9 0 0 0-1.557.87l-.063-.029c-2.497-.955-4.716.195-4.716.195-.203 2.658.996 4.33 1.235 4.636a11.6 11.6 0 0 0-.607 2.635C1.636 12.677.953 15.014.953 15.014c1.926 2.214 4.171 2.351 4.171 2.351q.005-.002.006-.005c.285.509.615.994.986 1.446q.235.284.488.548c-.704 2.009.099 3.68.099 3.68 2.144.08 3.553-.937 3.849-1.173a9.8 9.8 0 0 0 3.164.501h.08l.055-.003.107-.002.103-.005.003.002c1.01 1.44 2.788 1.646 2.788 1.646 1.264-1.332 1.337-2.653 1.337-2.94v-.058q-.002-.03-.003-.06.4-.28.758-.6a7.9 7.9 0 0 0 1.415-1.7c1.43.083 2.437-.885 2.437-.885-.236-1.49-1.085-2.216-1.264-2.354l-.018-.013-.016-.013-.031-.02q.013-.137.02-.27.016-.244.016-.48v-.253l-.005-.098-.008-.135a2 2 0 0 0-.01-.13q-.005-.063-.013-.125l-.016-.124-.018-.122a6.2 6.2 0 0 0-2.032-3.73 6 6 0 0 0-3.222-1.46 6 6 0 0 0-.85-.048l-.107.002h-.063l-.044.003-.104.008a4.78 4.78 0 0 0-3.335 1.695c-.332.4-.592.84-.768 1.297a4.6 4.6 0 0 0-.312 1.817l.003.091q.006.083.013.164a3.6 3.6 0 0 0 .698 1.82 3.53 3.53 0 0 0 1.827 1.282c.33.098.66.14.971.137q.06 0 .114-.002l.063-.003q.03-.002.062-.003.05-.004.099-.01.012-.001.028-.003l.031-.005.06-.008a1 1 0 0 0 .112-.02c.036-.008.072-.013.109-.024a2.6 2.6 0 0 0 .914-.415q.042-.03.085-.065a.25.25 0 0 0 .039-.35.244.244 0 0 0-.309-.06l-.078.042q-.135.066-.283.116a2.5 2.5 0 0 1-.475.096q-.04.005-.083.006l-.083.002q-.04 0-.08-.002l-.102-.006h-.012l-.024.006q-.024-.003-.044-.006-.046-.004-.091-.01a2.6 2.6 0 0 1-.724-.213 2.6 2.6 0 0 1-.667-.438 2.52 2.52 0 0 1-.805-1.475 2.3 2.3 0 0 1-.029-.444l.006-.122v-.023l.002-.031q.003-.03.005-.06a3.16 3.16 0 0 1 1.352-2.29 3.1 3.1 0 0 1 .937-.43 3 3 0 0 1 .776-.101h.06l.07.002.045.003h.026l.07.005a4 4 0 0 1 1.635.49 3.94 3.94 0 0 1 1.602 1.662 3.8 3.8 0 0 1 .397 1.414l.005.076.003.075q.002.038.002.075c0 .024.003.052 0 .07v.065l-.002.073-.008.174a6 6 0 0 1-.08.639 5 5 0 0 1-.267.927 5.3 5.3 0 0 1-.624 1.13 5.05 5.05 0 0 1-3.237 2.014 5 5 0 0 1-.649.066l-.039.003h-.287a6.6 6.6 0 0 1-1.716-.265 6.78 6.78 0 0 1-3.4-2.274 6.8 6.8 0 0 1-.746-1.15 6.6 6.6 0 0 1-.714-2.596l-.005-.083-.002-.02v-.056l-.003-.073v-.096l-.003-.104v-.07l.003-.163c.008-.22.026-.45.054-.678a9 9 0 0 1 .28-1.355q.192-.668.473-1.277a7 7 0 0 1 1.456-2.1 6 6 0 0 1 .953-.763q.253-.166.524-.306c.089-.05.182-.091.273-.135q.07-.031.138-.062a7 7 0 0 1 .714-.267l.145-.045c.049-.015.098-.026.148-.041q.147-.042.296-.076c.049-.013.1-.02.15-.033l.15-.032.151-.028.076-.013.075-.01.153-.024c.057-.01.114-.013.171-.023l.169-.021q.055-.006.106-.01l.073-.008.036-.003.042-.002q.086-.006.171-.01l.086-.006h.023l.037-.003.145-.007a8 8 0 0 1 1.708.125 8 8 0 0 1 2.048.68 8.3 8.3 0 0 1 1.672 1.09l.09.077.089.078c.06.052.114.107.171.159q.085.079.166.16.08.08.159.164a8.7 8.7 0 0 1 1.41 1.978c.012.026.028.052.04.078l.04.078.075.156c.023.051.05.1.07.153l.065.15a9 9 0 0 1 .45 1.34.19.19 0 0 0 .201.142.186.186 0 0 0 .172-.184q.015-.37-.024-.856z"/></svg>