<svg xmlns="http://www.w3.org/2000/svg" viewBox="0 0 24 24"><path d="M9.83 7.59c.817.005 1.437.238 1.842.692.383.431.567 1.054.547 1.85l-.014.061a.163.163 0 0 1-.148.095h-1.659a.2.2 0 0 1-.199-.195q.002-.634-.39-.71l-.12-.011c-.342 0-.564.211-.57.579-.007.41.225.783.885 1.423.868.816 1.217 1.539 1.2 2.493-.027 1.544-1.077 2.543-2.673 2.543-.815 0-1.438-.219-1.853-.649-.42-.437-.612-1.078-.572-1.906a.17.17 0 0 1 .049-.112.16.16 0 0 1 .112-.045h1.716a.2.2 0 0 1 .069.017.17.17 0 0 1 .083.098q.008.03.002.06c-.019.298.034.521.151.645a.4.4 0 0 0 .311.121c.317 0 .503-.225.51-.615.006-.337-.102-.634-.682-1.232-.751-.734-1.424-1.492-1.403-2.684a2.48 2.48 0 0 1 .774-1.781c.514-.482 1.216-.737 2.032-.737m-5.783.028c.747-.006 1.334.224 1.742.685.432.487.651 1.221.652 2.182a.162.162 0 0 1-.161.158H4.479a.13.13 0 0 1-.084-.036.13.13 0 0 1-.035-.085c-.014-.623-.188-.946-.532-.984l-.071-.004c-.69.001-1.097.938-1.313 1.458a5.5 5.5 0 0 0-.426 2.301c.015.366.074.88.42 1.093.308.189.747.064 1.013-.146.265-.209.479-.571.569-.901q.02-.07.001-.098-.01-.011-.032-.015l-.504-.004a.18.18 0 0 1-.129-.06.1.1 0 0 1-.025-.05.1.1 0 0 1 0-.056l.316-1.374a.18.18 0 0 1 .157-.134v-.003h3.035l.021.001c.079.01.135.084.134.164v.004l-.316 1.371c-.017.078-.095.135-.184.135h-.381a.064.064 0 0 0-.061.046c-.352 1.194-.829 2.016-1.458 2.509-.536.42-1.195.616-2.077.616-.792 0-1.326-.255-1.779-.758-.598-.666-.845-1.754-.695-3.067.27-2.463 1.546-4.948 4.004-4.948m16.969.132c2.01 0 3.014.912 2.983 2.711-.037 2.108-1.321 3.658-3.254 4.016q-.413.073-.833.068l-.934-.004a.06.06 0 0 0-.058.057q0 .015.008.029a.1.1 0 0 0 .022.021l.794.414q.098.053.076.164l-.207.933c-.017.078-.08.123-.171.123h-1.703a.2.2 0 0 1-.071-.015.2.2 0 0 1-.058-.044.12.12 0 0 1-.025-.107l1.896-8.241c.019-.086.1-.124.172-.124zm-3.743.012a.2.2 0 0 1 .051.033.2.2 0 0 1 .034.052.2.2 0 0 1 .011.059l-.011 8.213a.14.14 0 0 1-.003.058.14.14 0 0 1-.081.091.14.14 0 0 1-.064.013h-1.813a.16.16 0 0 1-.111-.045.2.2 0 0 1-.033-.051.2.2 0 0 1-.012-.06l.039-.797c.002-.087 0-.111-.051-.117l-.068-.002h-1.714c-.124 0-.133.011-.177.125l-.356.857q-.048.09-.192.09h-1.795c-.109 0-.187-.108-.146-.209l3.718-8.199c.025-.049.063-.123.149-.123h2.566q.03 0 .059.012M15.5 9.985c-.008-.032-.034-.029-.055.013a1 1 0 0 0-.04.093l-1.284 3.183-.016.048q-.002.01-.001.019l.007.017a.04.04 0 0 0 .015.012.04.04 0 0 0 .017.006l1.072.014c.119-.01.125-.016.137-.137.002-.043.154-3.231.148-3.268m4.612-.403a.06.06 0 0 0-.04.017.06.06 0 0 0-.018.04.06.06 0 0 0 .03.051l.842.445c.042.023.043.063.029.132-.007.031-.54 2.375-.539 2.377.003.003.019.011.099.011h.036c.895-.036 1.383-1.094 1.401-2.121.009-.555-.18-.896-.523-.946l-.071-.006z"/></svg>