<svg xmlns="http://www.w3.org/2000/svg" viewBox="0 0 24 24"><path d="M5.936 4.694c-.336 0-.675.078-1.013.222q-.51.217-1.007.605a7 7 0 0 0-.97.917c-.313.354-.61.745-.887 1.164-.276.42-.533.867-.78 1.32h-.001v.001q-.358.711-.63 1.455-.268.742-.438 1.497-.166.749-.2 1.465a1 1 0 0 0-.01.091v.095c0 .261.038.53.075.776v.002l.001.002c.068.262.175.504.31.717a1.7 1.7 0 0 0 .537.518q.324.207.776.207.395.001.817-.185c.279-.125.557-.288.834-.479.268-.192.536-.412.794-.66.207-.192.396-.392.583-.59l-.196.608c-.085.293-.18.576-.257.853q-.126.411-.209.738c-.057.216-.096.362-.096.456v.215c0 .241.025.411.104.518a.4.4 0 0 0 .333.152.44.44 0 0 0 .265-.095c.081-.06.15-.137.219-.224v-.002l.002-.001c.057-.087.115-.18.164-.278.05-.101.078-.19.107-.269v-.001l.067-.24.143-.495.19-.662c.076-.247.142-.495.227-.747l.225-.75q.108-.367.203-.661.094-.298.16-.493.031-.097.054-.154l.014-.032.04.018.018-.048q.114-.327.227-.626c.076-.2.152-.4.21-.597a3.8 3.8 0 0 0 .22-1.29.6.6 0 0 0-.05-.255.44.44 0 0 0-.124-.18.5.5 0 0 0-.174-.1.6.6 0 0 0-.19-.03.66.66 0 0 0-.378.127c-.129.086-.225.229-.297.422v.001l-.55 1.764a4 4 0 0 1-.317.513v.001a9.4 9.4 0 0 1-1.71 1.832 3.5 3.5 0 0 1-.6.404 1.06 1.06 0 0 1-.5.146.48.48 0 0 1-.312-.103.64.64 0 0 1-.204-.275 1.6 1.6 0 0 1-.102-.387 3 3 0 0 1-.028-.422c0-.413.066-.874.198-1.394s.312-1.04.539-1.579c.227-.54.492-1.06.786-1.571.293-.511.605-.965.926-1.362.32-.396.64-.706.97-.95.327-.244.62-.362.902-.362a.9.9 0 0 1 .497.145q.226.147.42.496v-.001c.134.259.269.46.385.606.12.15.259.227.408.227a.51.51 0 0 0 .416-.208c.115-.138.17-.327.17-.556q0-.145-.03-.307a.9.9 0 0 0-.14-.334c-.314-.47-.651-.807-1.01-1.024H7.06a2.2 2.2 0 0 0-1.125-.317zm10.961.855a.8.8 0 0 0-.41.12h-.001l-.001.001a.85.85 0 0 0-.318.43l-1.889 4.758-.417 1.045c-.153.38-.295.76-.447 1.148a5 5 0 0 0-.176.551 5 5 0 0 1-.257.215q-.31.24-.589.365h-.002a1.05 1.05 0 0 1-.463.129q-.121-.002-.172-.053c-.035-.033-.056-.084-.056-.166q0-.277.084-.615c.057-.22.132-.451.217-.683a9 9 0 0 1 .274-.69l.276-.644c.086-.2.153-.382.21-.534a1.2 1.2 0 0 0 .089-.377.7.7 0 0 0-.143-.437.47.47 0 0 0-.39-.19.47.47 0 0 0-.378.179 1.5 1.5 0 0 0-.254.42 4 4 0 0 0-.201.537c-.056.19-.131.368-.207.535-.113.25-.246.524-.416.826a6.6 6.6 0 0 1-.565.849q-.31.39-.675.654a1.26 1.26 0 0 1-.75.257q-.124 0-.167-.088a.5.5 0 0 1-.052-.225q.014-.306.112-.643.099-.334.226-.66c.085-.21.18-.424.283-.625.105-.201.2-.391.294-.56v-.001l.248-.47a2 2 0 0 0 .135-.33l.001-.002v-.001c.01-.04.021-.09.021-.145a.4.4 0 0 0-.054-.214v-.001l-.001-.001a.53.53 0 0 0-.335-.238.65.65 0 0 0-.588.103c-.132.091-.231.232-.319.426a23 23 0 0 0-.79 1.817c-.19.505-.323.914-.418 1.229a5 5 0 0 0-.163.7v.001l-.02.231v.002c0 .214.029.4.09.55v.002c.068.147.148.266.249.357a.9.9 0 0 0 .36.191q.199.06.41.059c.311 0 .598-.058.861-.155s.501-.232.714-.396a3.4 3.4 0 0 0 .563-.548c.12-.14.21-.285.3-.427-.04.22-.078.437-.078.614 0 .33.063.57.202.717a.7.7 0 0 0 .523.214q.312 0 .694-.17.38-.17.77-.446.096-.068.19-.141l.005.036a1 1 0 0 0 .15.35h.001l.001.002c.08.099.17.18.291.24a1 1 0 0 0 .45.091 2 2 0 0 0 .787-.175h.002c.268-.125.537-.279.805-.48a9 9 0 0 0 .812-.697l.01-.009q-.068.159-.138.319-.327.724-.674 1.471c-.233.5-.466.994-.684 1.488l-.001.003-.001.002a4 4 0 0 1-.104.278c-.036.092-.085.188-.115.298v.001c-.037.1-.075.198-.095.306-.03.11-.04.217-.04.315 0 .208.059.367.172.447a.67.67 0 0 0 .398.115c.122 0 .234-.03.335-.08v-.001h.001a1 1 0 0 0 .263-.22q.113-.135.198-.308a4 4 0 0 0 .154-.365l.002-.004v-.004q.013-.057.084-.244l.162-.436.19-.512.199-.522.17-.435q.07-.187.095-.255v-.001c.019-.038.048-.095.085-.189l.133-.313.161-.37.172-.38.142-.342.103-.226.001-.001q.13-.255.302-.566v-.001c.123-.207.255-.405.396-.612v-.001c.152-.2.302-.397.463-.585s.33-.347.5-.498c.173-.14.346-.262.521-.345a1.14 1.14 0 0 1 .499-.128c.086 0 .143.018.178.039a.14.14 0 0 1 .042.103c0 .08-.043.207-.144.353v.001c-.104.16-.226.33-.377.519-.162.19-.323.389-.503.597q-.27.315-.514.628a6 6 0 0 0-.412.603v.001a1.5 1.5 0 0 0-.205.53v.007l-.004.022c-.003.01-.006.014-.006.035v.057c0 .257.092.465.274.606.183.152.441.22.76.22q.522 0 .97-.204c.298-.134.605-.316.92-.556h.001c.315-.236.64-.517.991-.843.341-.325.739-.685 1.184-1.08a.85.85 0 0 0 .262-.352q.089-.207.089-.41a.64.64 0 0 0-.082-.324.28.28 0 0 0-.248-.148.4.4 0 0 0-.164.043q-.079.04-.17.101c-.104.033.017.063.03.108-.538.481-1.004.887-1.373 1.206-.38.332-.699.588-.946.788a6 6 0 0 1-.574.41c-.132.079-.233.117-.289.117-.078 0-.132-.02-.156-.043a.14.14 0 0 1-.043-.108.2.2 0 0 1 .035-.075 2 2 0 0 1 .117-.152l.398-.465c.162-.181.324-.381.504-.6.18-.22.35-.447.502-.682.16-.23.285-.467.39-.7.101-.233.156-.455.156-.666a.84.84 0 0 0-.106-.426.9.9 0 0 0-.277-.3c-.11-.08-.238-.14-.375-.181h-.001a1.56 1.56 0 0 0-1.043.073 3 3 0 0 0-.598.332 6 6 0 0 0-.565.45 10 10 0 0 0-.38.378l.036-.176q.021-.109.034-.207v-.001q.014-.1.013-.149a.53.53 0 0 0-.126-.373v-.001h-.002c-.087-.09-.222-.129-.4-.129-.122 0-.24.07-.34.19a2.2 2.2 0 0 0-.263.418 4 4 0 0 0-.202.48l-.133.378v.001q-.07.239-.15.485l-.041.014a.33.33 0 0 0-.136.089l.003-.003c-.118.114-.251.247-.399.389q-.221.213-.464.426c-.162.133-.326.275-.49.407q-.244.195-.471.345-.225.15-.419.241a.8.8 0 0 1-.309.088c-.06 0-.085-.014-.1-.042h-.001a.3.3 0 0 1-.032-.155q-.001-.17.064-.39.063-.219.13-.385l.028-.03.374-.952c.142-.365.294-.746.465-1.152l.513-1.254c.17-.427.342-.84.503-1.234l.475-1.102q.213-.504.37-.848l-.001.002c.059-.117.097-.227.135-.32v-.002a1 1 0 0 0 .055-.297c0-.196-.061-.35-.18-.443a.6.6 0 0 0-.384-.133"/></svg>