<svg xmlns="http://www.w3.org/2000/svg" viewBox="0 0 24 24"><path d="M16.34 0a.2.2 0 0 0-.18.116c-.05.105-.01.23.095.28.503.25.459.692.418.87-.08.352-.391.723-.8.723-.522 0-.772-.263-1.052-.746-.138-.236-.523-.81-1.113-.982a1.615 1.615 0 0 0-1.718.533 1.615 1.615 0 0 0-1.717-.533c-.59.172-.975.746-1.114.982-.28.483-.53.746-1.042.746H8.11a.83.83 0 0 1-.81-.62c-.04-.146-.124-.642.442-.98a.21.21 0 0 0 .071-.286.21.21 0 0 0-.286-.071c-.652.388-.753 1.002-.631 1.447.148.55.637.921 1.21.925h.01c.787 0 1.138-.493 1.404-.952.088-.151.412-.658.871-.79.567-.164 1.17.099 1.407.615a.21.21 0 0 0 .182.121h.024a.21.21 0 0 0 .182-.121c.236-.516.84-.78 1.407-.614.459.135.783.638.87.79.267.462.618.95 1.414.95.479 0 1.046-.357 1.204-1.042.132-.566-.11-1.08-.64-1.34a.2.2 0 0 0-.102-.02zM3.821.093a.21.21 0 0 0-.21.209c0 .115.092.21.21.21H6.41a.21.21 0 0 0 .209-.21.21.21 0 0 0-.21-.21zm13.863 0a.21.21 0 0 0-.209.209c0 .115.095.21.21.21h2.587a.21.21 0 0 0 .21-.21.21.21 0 0 0-.21-.21zM2.904.096a.21.21 0 0 0-.206.21.21.21 0 0 0 .21.208.21.21 0 0 0 .209-.209.21.21 0 0 0-.21-.209zm18.24 0a.21.21 0 0 0-.206.21.21.21 0 0 0 .209.208.21.21 0 0 0 .21-.209.21.21 0 0 0-.21-.209h-.004zm-19.39 0a.21.21 0 0 0-.196.21v2.216c0 .115.091.21.206.21a.21.21 0 0 0 .21-.21V.859l1.015 1.153a.209.209 0 0 0 .313-.273L1.922.167a.21.21 0 0 0-.167-.07zm20.512 0a.21.21 0 0 0-.168.07l-1.38 1.57a.205.205 0 0 0 .02.293.2.2 0 0 0 .29-.02L22.045.855V2.52c0 .114.095.209.21.209a.21.21 0 0 0 .209-.21V.306a.21.21 0 0 0-.197-.208zM8.235.526a.564.564 0 1 0 .563.563.564.564 0 0 0-.563-.563m7.591 0a.564.564 0 0 0 0 1.126.565.565 0 0 0 0-1.126m3.59.224a.21.21 0 0 0-.212.164q-.117.532.134.846c.243.304.635.314.679.314a.21.21 0 0 0 .202-.158c.078-.29.047-.547-.094-.756-.226-.338-.641-.402-.689-.408zM4.581.75q-.01 0-.02.002c-.047.006-.459.07-.688.408q-.209.314-.098.759a.21.21 0 0 0 .202.159c.044 0 .435-.01.678-.314.169-.21.213-.496.135-.847A.21.21 0 0 0 4.581.75m3.654.19a.15.15 0 0 1 .148.149.15.15 0 0 1-.148.148.15.15 0 0 1-.148-.148.15.15 0 0 1 .148-.148zm7.591 0a.15.15 0 0 1 .149.149.15.15 0 0 1-.149.148.15.15 0 0 1-.148-.148.15.15 0 0 1 .148-.148zM4.41 1.234a.4.4 0 0 1-.078.267.4.4 0 0 1-.178.121.4.4 0 0 1 .064-.226.5.5 0 0 1 .192-.162m15.18 0c.07.034.144.088.192.162q.062.095.064.226a.4.4 0 0 1-.176-.121.4.4 0 0 1-.08-.267m-6.593.135a1.3 1.3 0 0 0-.439.07.206.206 0 0 0-.121.267.21.21 0 0 0 .266.125c.034-.013.844-.283 1.464.682.04.06.108.094.176.094.037 0 .077-.01.111-.034a.21.21 0 0 0 .064-.286c-.465-.72-1.07-.918-1.52-.918zm-1.989.003a1.6 1.6 0 0 0-.262.017c-.35.05-.853.25-1.272.901a.207.207 0 0 0 .064.287.2.2 0 0 0 .112.034.21.21 0 0 0 .175-.095c.618-.965 1.427-.695 1.464-.681a.21.21 0 0 0 .267-.125.21.21 0 0 0-.125-.27c-.023-.008-.184-.065-.423-.068m.976.162a.21.21 0 0 0-.205.21.21.21 0 0 0 .209.209.21.21 0 0 0 .209-.21.21.21 0 0 0-.21-.209zm6.779.303c-.2-.007-.455.052-.77.244a3.2 3.2 0 0 0-.533.415c-.513.452-.941.442-.965.442a.208.208 0 0 0-.1.395c.33.155.63.216.9.216.516 0 .928-.226 1.215-.463.458-.378.695-.853.705-.873a.206.206 0 0 0-.081-.27.8.8 0 0 0-.372-.106zm-13.434.002a.8.8 0 0 0-.372.104.206.206 0 0 0-.081.27c.01.02.246.495.705.873.287.237.695.463 1.214.463.274 0 .574-.061.901-.216a.21.21 0 0 0 .112-.24.21.21 0 0 0-.213-.158c-.017 0-.449.013-.962-.44A3.2 3.2 0 0 0 6.1 2.08c-.315-.19-.57-.248-.77-.242zM12 2.114c-.263 0-.469.273-.627.634-1.677.074-3.762 1.157-3.85 1.201-1.427.719-2.898-.638-3.273-1.019-.057-.064-.097-.101-.1-.108a.208.208 0 0 0-.304.283l.26.294c.151.189.343.462.505.79.405.82.412 1.565.024 2.22a8.8 8.8 0 0 0-1.174 1.896c-1.13.368-1.535-.32-1.552-.351 0-.004-.003-.003-.003-.007-.213-.357-.129-.84.195-1.147.25-.236.685-.256.82-.256h.003c.453 0 .918-.071 1.219-.59a1.01 1.01 0 0 0-.156-1.219c-.327-.334-.82-.391-1.258-.148a.206.206 0 0 0-.081.283.206.206 0 0 0 .283.081c.28-.152.564-.125.76.078a.596.596 0 0 1 .09.718c-.185.32-.438.385-.843.385h-.014c-.185 0-.617.027-.961.25V3.335a.21.21 0 0 0-.21-.21.21.21 0 0 0-.208.21v3.509c-.23.412-.243.914-.007 1.32.023.043.168.286.492.468.186.105.453.203.807.203q.193 0 .421-.044c-.364.978-.546 2.03-.553 3.178v.037a9.1 9.1 0 0 0 2.052 5.729 9.45 9.45 0 0 0 4.527 3.047 3.84 3.84 0 0 0-3.634 1.491 1.4 1.4 0 0 0-.192-.206.77.77 0 0 0 .375-.658.767.767 0 0 0-.989-.732 1.2 1.2 0 0 0-.087-.368c-.324-.725-.915-.847-1.445-.904-.175-.02-.765-.108-1.076-.472-.391-.442-.398-1.1-.023-1.525a.208.208 0 1 0-.31-.277c-.51.58-.507 1.474.006 2.082q.102.119.226.209a1.7 1.7 0 0 0-.651.334c-.496.408-.75 1.09-.756 2.017a.21.21 0 0 0 .095.22q.05.03.107.03.022 0 .044-.007h.004q.008 0 .017-.007a.2.2 0 0 0 .033-.013q.004-.002.007-.003a.24.24 0 0 0 .084-.081c.081-.105.415-.237.692-.294 1.083-.236 1.31-.968 1.275-1.32a.208.208 0 1 0-.415.038c0 .003.004.064-.016.155-.051.21-.237.57-.932.722h-.006a2.8 2.8 0 0 0-.55.179q.09-.902.58-1.312c.503-.419 1.167-.3 1.174-.297a.2.2 0 0 0 .064 0 3 3 0 0 0 .277.043c.557.061.897.183 1.11.658.165.375-.047.807-.334 1.023-.145.111-.533.33-.968-.027a.209.209 0 0 0-.267.32c.196.162.415.257.641.284a2.5 2.5 0 0 0-.573.688c-.284.49-.513.752-.895.756v-1.461a.21.21 0 0 0-.209-.21.21.21 0 0 0-.209.21v1.694c0 .084.05.155.122.189.037.027.08.047.128.047h4.858a.21.21 0 0 0 .176-.095.2.2 0 0 0 .06-.1 1.686 1.686 0 0 1 3.192-.223h-.445a1.2 1.2 0 0 0-1.117-.75c-.543 0-1.022.368-1.167.891a.21.21 0 0 0 .145.257.21.21 0 0 0 .256-.145.791.791 0 0 1 1.407-.253h-.121a.21.21 0 0 0-.21.209c0 .114.095.209.21.209h.421l.024.003q.016 0 .027-.003h.837a.21.21 0 0 0 .209-.21q.001-.015-.004-.03a.3.3 0 0 0-.003-.087 2.106 2.106 0 0 0-4.035-.092h-1.09q.132-.42.354-.782.013-.02.027-.04a3.434 3.434 0 0 1 4.862-.97.2.2 0 0 0 .05.025q.133.157.26.33l.058.081q-.03.645.695 1.336.027.077.044.128v.044c0 .115.094.21.209.21a.2.2 0 0 0 .199-.156c0-.003.03-.104.091-.273q.653-.638.648-1.242a7 7 0 0 1 .381-.496 3.4 3.4 0 0 1 1.947-.607 3.42 3.42 0 0 1 3.273 2.413h-1.09a2.1 2.1 0 0 0-2.004-1.461c-.948 0-1.782.637-2.031 1.552a.17.17 0 0 0 0 .1v.018a.21.21 0 0 0 .209.209h1.828a.21.21 0 0 0 .21-.21.21.21 0 0 0-.21-.208h-.664a.791.791 0 0 1 1.41.263.206.206 0 0 0 .253.148.21.21 0 0 0 .152-.253 1.21 1.21 0 0 0-2.288-.159h-.421a1.687 1.687 0 0 1 3.191.223c.004.017.014.034.02.05a.21.21 0 0 0 .2.146h4.95a.21.21 0 0 0 .208-.21v-.067q.005-.03.004-.06.001-.006-.004-.011v-1.582a.21.21 0 0 0-.209-.21.21.21 0 0 0-.209.21v1.417c-.35-.027-.57-.287-.84-.752a2.7 2.7 0 0 0-.54-.658q.28-.06.53-.267a.209.209 0 0 0-.267-.32c-.432.357-.82.138-.968.027-.287-.216-.5-.652-.334-1.023.212-.475.553-.6 1.11-.658q.107-.009.277-.043a.3.3 0 0 0 .067 0c.007 0 .665-.122 1.17.296q.497.41.584 1.316a2.8 2.8 0 0 0-.553-.182h-.007c-.691-.152-.88-.51-.93-.719a.5.5 0 0 1-.018-.155.208.208 0 1 0-.415-.037c-.033.354.193 1.083 1.28 1.32.28.06.633.198.698.303l.034.04.01.007c.01.007.02.017.03.02.003.003.01.007.013.007q.015.01.03.014l.014.003q.021.006.047.007.02 0 .037-.003.006 0 .01-.003.014-.005.034-.01h.004q.014-.006.027-.014l.003-.003c.007-.003.014-.01.017-.013q.006-.004.014-.014l.013-.013c.003-.007.01-.01.013-.017l.01-.017.01-.017q.004-.01.007-.02.004-.01.007-.02.002-.012.004-.017.002-.01.003-.024v-.003c-.003-.955-.26-1.646-.763-2.061a1.7 1.7 0 0 0-.65-.334c.08-.061.158-.132.225-.21.517-.607.52-1.5.007-2.081a.205.205 0 0 0-.293-.017.205.205 0 0 0-.017.293c.374.426.367 1.083-.014 1.536-.31.364-.9.452-1.076.472-.53.057-1.124.179-1.444.904q-.076.168-.088.371a.767.767 0 0 0-1.002.729c0 .29.162.543.402.671a1.6 1.6 0 0 0-.2.216 3.85 3.85 0 0 0-3.62-1.518 9.41 9.41 0 0 0 5.55-4.619 8.9 8.9 0 0 0 1.016-4.153v-.044a8.5 8.5 0 0 0-.644-3.168q.209.039.388.037c.873 0 1.258-.6 1.299-.671a1.3 1.3 0 0 0 .11-1.05q.005-.016.004-.037V3.286a.21.21 0 0 0-.209-.21.21.21 0 0 0-.21.21V6.48c-.353-.307-.866-.34-1.079-.34-.411.003-.668-.062-.857-.385a.59.59 0 0 1 .091-.72c.2-.202.483-.228.76-.077a.209.209 0 0 0 .202-.364c-.439-.243-.931-.182-1.259.148-.323.331-.384.82-.155 1.218.3.517.756.59 1.205.59h.017c.135 0 .57.021.82.257.323.307.408.79.195 1.147q-.001.001-.003.007c-.017.03-.419.712-1.539.354a10.5 10.5 0 0 0-1.093-1.808l-.165.125.165-.128-.067-.088c-.719-1.205.111-2.487.543-3.03l.243-.277a.208.208 0 0 0-.304-.283 3 3 0 0 0-.101.108c-.375.381-1.839 1.73-3.26 1.026l-.04-.027-.02-.014c-1.272-.685-2.527-1.08-3.725-1.18-.155-.355-.36-.625-.62-.625zm-8.509.077a.21.21 0 0 0-.205.21.21.21 0 0 0 .209.209.21.21 0 0 0 .209-.21.21.21 0 0 0-.21-.209zm16.91 0a.21.21 0 0 0-.206.21.21.21 0 0 0 .21.209.21.21 0 0 0 .209-.21.21.21 0 0 0-.21-.209zm-15.017.061c.35.017.8.385.958.543l.01.01c.159.142.318.247.463.324-.73.007-1.212-.55-1.43-.877zm13.324 0a2.6 2.6 0 0 1-.46.513q-.455.374-.97.364c.14-.074.3-.182.461-.324l.01-.01c.159-.158.608-.526.959-.543m-6.718.283c.186.071.473.945.56 1.539.017.118.027.226.027.314a.59.59 0 0 1-1.18 0 3 3 0 0 1 .03-.31c.09-.632.401-1.475.563-1.543m-8.84.313-.02.001c-.047.007-.459.071-.688.408q-.208.315-.098.76a.21.21 0 0 0 .203.158c.043 0 .435-.01.678-.314.168-.209.212-.496.135-.846a.206.206 0 0 0-.21-.167m17.727 0a.21.21 0 0 0-.213.163q-.116.532.135.847c.25.304.641.314.682.317a.21.21 0 0 0 .202-.158q.114-.445-.097-.76c-.226-.337-.641-.401-.689-.408zm-8.11.325c1.082.122 2.212.493 3.363 1.11l.044.03.023.014c.334.169.692.253 1.063.253.392 0 .8-.094 1.211-.283l-1.08 1.231a.76.76 0 0 0-.732.047 7.9 7.9 0 0 0-3.69-1.46 7 7 0 0 0-.203-.942zm-1.556.007c-.101.34-.169.695-.203.938a7.9 7.9 0 0 0-3.735 1.504.75.75 0 0 0-.712-.03L5.429 4.3q.624.28 1.211.28a2.36 2.36 0 0 0 1.066-.253c.02-.01 1.947-1.012 3.506-1.147zm-8.23.152q0 .165-.077.266a.4.4 0 0 1-.179.122q.002-.134.065-.226a.5.5 0 0 1 .192-.162zm18.071 0a.5.5 0 0 1 .193.162c.04.064.064.138.064.226a.4.4 0 0 1-.176-.122.4.4 0 0 1-.08-.266zm-10.05 1.207a.99.99 0 0 0 .79.837v.145A6.47 6.47 0 0 0 7.83 7.036l-.297-.34a.76.76 0 0 0 .037-.77 7.5 7.5 0 0 1 3.432-1.387m1.983 0a7.5 7.5 0 0 1 3.398 1.353.76.76 0 0 0 .044.746l-1.68 1.916a.205.205 0 0 0 .02.294.21.21 0 0 0 .297-.02l1.677-1.913a.75.75 0 0 0 .749-.047 7.5 7.5 0 0 1 1.96 4.15 1.01 1.01 0 0 0-.715.769l-.24.01a6.48 6.48 0 0 0-1.69-4.157.208.208 0 0 0-.307.28 6.07 6.07 0 0 1 1.569 3.63l-2.244-2.236a.208.208 0 0 0-.294.293l2.41 2.409L12 17.954l-5.938-5.938 2.389-2.389a.208.208 0 0 0-.294-.293L5.941 11.55a6.07 6.07 0 0 1 1.855-3.92l1.046 1.194c.04.048.098.071.159.071a.22.22 0 0 0 .138-.05.21.21 0 0 0 .02-.294L8.11 7.353a6.04 6.04 0 0 1 3.428-1.396L9.757 7.72a.208.208 0 0 0 .148.354q.082 0 .149-.06l1.956-1.937 1.9 1.9a.208.208 0 0 0 .293-.294l-1.727-1.727a6.03 6.03 0 0 1 2.976 1.049.21.21 0 0 0 .29-.054.21.21 0 0 0-.054-.29 6.44 6.44 0 0 0-3.468-1.134V5.38c.39-.095.705-.429.765-.84zm-7.75.17 1.013 1.156a.76.76 0 0 0-.058.73 7.9 7.9 0 0 0-2.058 4.399c-.3.047-.698.175-.998.367.118-1.78.715-3.323 1.822-4.693l.016-.023c.351-.58.439-1.242.264-1.937zm13.435.003c-.182.695-.094 1.353.257 1.936l.088.118c.765 1.023 1.663 2.605 1.835 4.575a2.5 2.5 0 0 0-.989-.354 7.9 7.9 0 0 0-2.098-4.44.75.75 0 0 0-.05-.742zm-1.622 1.167h.043c.156.01.287.121.321.27q.006.028.007.057c-.004.004 0 .01 0 .017a.35.35 0 0 1-.24.33.4.4 0 0 1-.108.018h-.033a.344.344 0 0 1-.314-.345.35.35 0 0 1 .324-.348zm-10.186.057h.023c.159 0 .294.108.334.257q.012.045.014.09a.345.345 0 0 1-.32.344h-.028a.347.347 0 0 1-.344-.344q-.001-.023.004-.046.001-.014.003-.027a.345.345 0 0 1 .314-.274m-4.045.938a.621.621 0 1 0 0 1.243.621.621 0 0 0 0-1.243m18.296 0a.621.621 0 1 0 .001 1.243.621.621 0 0 0 0-1.243zM6.46 6.918a.78.78 0 0 0 .756.054l.3.344a6.49 6.49 0 0 0-2.01 4.477l-.17-.01a1.01 1.01 0 0 0-.782-.786A7.5 7.5 0 0 1 6.46 6.918m.223.368a.2.2 0 0 0-.145.064c-.054.054-1.296 1.343-1.508 3.165a.21.21 0 0 0 .185.23h.024a.205.205 0 0 0 .206-.186c.192-1.677 1.38-2.909 1.39-2.919a.21.21 0 0 0-.004-.293.2.2 0 0 0-.148-.06zm10.65.002a.208.208 0 0 0-.15.353c.013.013 1.2 1.244 1.393 2.921a.21.21 0 0 0 .206.186h.023a.21.21 0 0 0 .183-.233c-.21-1.822-1.455-3.111-1.509-3.165a.21.21 0 0 0-.146-.062m-14.516.005c.11 0 .202.09.202.202a.203.203 0 0 1-.202.203.203.203 0 0 1-.203-.203c0-.111.091-.202.203-.202m18.296 0c.112 0 .203.09.203.202a.203.203 0 0 1-.203.203.2.2 0 0 1-.202-.203c0-.111.09-.202.202-.202M1.741 9.026a.206.206 0 0 0-.22.207v3.802a.2.2 0 0 0 .206.206.21.21 0 0 0 .209-.21V9.628c.337.156.668.145.688.145a.205.205 0 0 0 .2-.215.205.205 0 0 0-.217-.2c-.003 0-.455.01-.728-.27a.2.2 0 0 0-.138-.061zm20.5 0a.2.2 0 0 0-.14.062c-.273.28-.721.27-.728.27h-.007a.21.21 0 0 0-.209.199.21.21 0 0 0 .2.215c.02 0 .35.01.687-.145v3.405c0 .114.095.209.21.209a.21.21 0 0 0 .209-.21V9.234a.21.21 0 0 0-.132-.193.2.2 0 0 0-.09-.014zm-10.234.824q-.734 0-1.184.483-.425.451-.449 1.18l-.003.102.003.948h-.003q.001.804.452 1.285.45.482 1.184.483.617 0 1.026-.297a1.08 1.08 0 0 0 .448-.719l.01-1.06c.308-.074.726-.242.989-.64a.173.173 0 0 0-.044-.257.185.185 0 0 0-.256.05c-.334.504-1.043.53-1.08.53h-.017c-.874 0-1.208.746-1.221.777a.186.186 0 0 0 .169.26c.07 0 .138-.041.168-.112.004-.007.233-.52.824-.553v.954a.67.67 0 0 1-.294.49q-.27.188-.712.189c-.35 0-.638-.122-.85-.361q-.324-.36-.324-1.02l.003-1.052q.024-.584.32-.914.325-.36.851-.361.442 0 .712.189.27.186.297.52v.023a.233.233 0 0 0 .466 0v-.024a1.08 1.08 0 0 0-.46-.796q-.408-.299-1.025-.297m7.706 1.542q.091.001.189.017c.455.074.968.381.978.567v.01c-.006.189-.523.496-.978.57a1 1 0 0 1-.189.017.59.59 0 0 1-.59-.59.59.59 0 0 1 .59-.591m-15.361.003a.59.59 0 0 1 .59.59.59.59 0 0 1-.59.591q-.119 0-.257-.03c-.428-.091-.971-.361-.978-.557v-.01c.007-.196.55-.466.978-.553q.143-.03.257-.03zm.981.807.173.01a6.49 6.49 0 0 0 2.405 4.852 7.7 7.7 0 0 0-1.613-.193 7.5 7.5 0 0 1-1.744-3.903 1.01 1.01 0 0 0 .78-.766zm13.402 0c.08.36.354.65.711.749a7.5 7.5 0 0 1-1.747 3.92c-.462 0-.999.054-1.606.186a6.49 6.49 0 0 0 2.399-4.845zm-12.798.276 5.598 5.598a6.09 6.09 0 0 1-5.598-5.598m12.123 0a6.09 6.09 0 0 1-3.533 5.065c-.135.054-.23.097-.276.118-.56.222-1.16.367-1.788.415zM3.137 12.6c.3.196.702.324.999.371a7.9 7.9 0 0 0 1.643 3.92 5 5 0 0 0-1.006.196A8.54 8.54 0 0 1 3.137 12.6m17.723.023a8.5 8.5 0 0 1-.948 3.354q-.305.582-.692 1.117a4.8 4.8 0 0 0-1.002-.2 7.94 7.94 0 0 0 1.643-3.913c.29-.034.692-.158 1-.358zm1.407.878a.21.21 0 0 0-.21.209.21.21 0 0 0 .21.21.21.21 0 0 0 .21-.21.21.21 0 0 0-.21-.21zm-20.55.01a.21.21 0 0 0-.206.209.21.21 0 0 0 .209.21.21.21 0 0 0 .21-.21.21.21 0 0 0-.21-.21h-.004zm20.236.61a.21.21 0 0 0-.209.21c0 .114.095.209.21.209h.333a.21.21 0 0 0 .21-.21.21.21 0 0 0-.21-.208zM1.7 14.129a.21.21 0 0 0-.21.21c0 .114.095.209.21.209h.334a.21.21 0 0 0 .209-.21.21.21 0 0 0-.21-.209zm20.074.59a.21.21 0 0 0-.209.21.21.21 0 0 0 .21.209h.512a.21.21 0 0 0 .21-.21.21.21 0 0 0-.21-.208zM1.7 14.723a.21.21 0 0 0-.21.21c0 .117.095.208.21.208h.513a.21.21 0 0 0 .209-.209.21.21 0 0 0-.21-.209zm19.835.59a.21.21 0 0 0-.21.21c0 .114.095.209.21.209h.752a.21.21 0 0 0 .21-.21.21.21 0 0 0-.21-.209zM1.7 15.32a.21.21 0 0 0-.21.21c0 .114.095.209.21.209h.752a.21.21 0 0 0 .21-.21.21.21 0 0 0-.21-.209zm19.538.59a.21.21 0 0 0-.21.21c0 .114.095.209.21.209h1.05a.21.21 0 0 0 .209-.21.21.21 0 0 0-.21-.208zM1.7 15.917a.21.21 0 0 0-.21.21c0 .114.095.209.21.209h1.05a.21.21 0 0 0 .208-.21.21.21 0 0 0-.209-.209zm19.238.587a.21.21 0 0 0-.21.21c0 .114.095.209.21.209h1.35a.21.21 0 0 0 .209-.21.21.21 0 0 0-.21-.209zM1.7 16.51a.21.21 0 0 0-.21.21c0 .117.095.208.21.208h1.35a.21.21 0 0 0 .209-.209.21.21 0 0 0-.21-.209zm18.877.584a.21.21 0 0 0-.21.209c0 .115.095.21.21.21h.52a.21.21 0 0 0 .209-.21.21.21 0 0 0-.21-.21zm-17.686.01a.21.21 0 0 0-.21.21.21.21 0 0 0 .21.208h.52a.21.21 0 0 0 .209-.209.21.21 0 0 0-.21-.209zm14.891.177c.386.005.78.05 1.162.157a9 9 0 0 1-.554.62c-.283-.077-1.005-.225-1.98-.12-1.06.114-2.618.566-4.21 2.037v-.368a.21.21 0 0 0-.21-.209.21.21 0 0 0-.209.21v.347c-1.582-1.454-3.134-1.903-4.187-2.018-.999-.108-1.73.054-1.997.128a10 10 0 0 1-.523-.587q-.015-.018-.03-.037c1.015-.28 2.125-.131 2.904.054.942.226 1.63.554 1.637.557l.003-.007a6.5 6.5 0 0 0 4.808.004l.02-.01c.088-.038.179-.075.263-.115a9 9 0 0 1 1.35-.432 7.2 7.2 0 0 1 1.753-.211m2.322.407a.21.21 0 0 0-.209.209.21.21 0 0 0 .21.209h1.288c.115 0 .21-.091.21-.21a.21.21 0 0 0-.21-.208zm-17.51.01a.21.21 0 0 0-.21.209c0 .115.095.21.21.21h1.289a.21.21 0 0 0 .209-.21.21.21 0 0 0-.21-.21zm16.974.587a.21.21 0 0 0-.21.209c0 .115.095.21.21.21h1.009a.21.21 0 0 0 .209-.21.21.21 0 0 0-.21-.21zm1.855 0a.21.21 0 0 0-.205.209.21.21 0 0 0 .209.21.21.21 0 0 0 .21-.21.21.21 0 0 0-.21-.21zm-18.86.007a.21.21 0 0 0-.209.209.21.21 0 0 0 .21.209.21.21 0 0 0 .209-.21.21.21 0 0 0-.21-.208m.847 0a.21.21 0 0 0-.209.209c0 .114.095.209.21.209h1.008a.21.21 0 0 0 .21-.21.21.21 0 0 0-.21-.208zm3.547.033q.289 0 .623.037c1.873.21 3.31 1.28 4.211 2.177v.61a1 1 0 0 0-.101.064 7 7 0 0 0-.867-.924c-.85-.753-2.281-1.603-4.258-1.367v.004a9 9 0 0 1-.604-.51 5 5 0 0 1 .996-.09zm10.096.002c.416-.002.755.042.987.086a8 8 0 0 1-.601.506c-1.97-.23-3.394.618-4.244 1.367a7 7 0 0 0-.878.94c-.04-.026-.077-.053-.11-.07v-.594c1.595-1.602 3.18-2.081 4.233-2.2q.329-.035.613-.035m1.86.555a.21.21 0 0 0-.209.21.21.21 0 0 0 .21.208h.573a.21.21 0 0 0 .21-.209.21.21 0 0 0-.21-.209zm1.171 0a.21.21 0 0 0-.209.21.21.21 0 0 0 .21.208.21.21 0 0 0 .208-.209.21.21 0 0 0-.209-.209m-16.181.007a.21.21 0 0 0-.206.209.21.21 0 0 0 .21.21.21.21 0 0 0 .208-.21.21.21 0 0 0-.209-.21zm.597 0a.21.21 0 0 0-.21.209c0 .115.095.21.21.21h.574a.21.21 0 0 0 .209-.21.21.21 0 0 0-.21-.21zm2.71.41c1.225-.008 2.339.424 3.326 1.29.35.307.628.624.837.898a1.3 1.3 0 0 0-.172.236 5.3 5.3 0 0 0-1.259-1.174l.004-.01a.1.1 0 0 0-.03-.007 5 5 0 0 0-2.022-.76 9 9 0 0 1-.803-.472zm9.581 0 .118.001a9 9 0 0 1-.81.476 5.03 5.03 0 0 0-3.066 1.69 5 5 0 0 0-.23.28 1.6 1.6 0 0 0-.168-.24c.209-.272.492-.6.85-.913.98-.863 2.09-1.296 3.306-1.294m-11.727 1.77a.347.347 0 1 1 0 .693.347.347 0 0 1 0-.694zm13.856 0a.347.347 0 1 1 .001.693.347.347 0 0 1 0-.694zm-6.93.445h.004q.033.02.077.05a1.2 1.2 0 0 1 .307.294.8.8 0 0 1 .139.32c.037.247-.068.517-.307.81a3 3 0 0 1-.213.226l-.003.003-.004.003v-.007q-.012-.01-.024-.023a2 2 0 0 1-.178-.193q-.372-.441-.317-.816.003-.03.013-.061a.8.8 0 0 1 .138-.283q.078-.1.166-.176.076-.065.145-.111.03-.02.054-.034.002 0 .003-.003zm.004 1.703c.003-.003 0-.003 0-.007zm0-1.116h.003zm7.625 0q.177 0 .354.05c.459.135.783.638.87.79.108.189.253.438.466.634h-2.331a4 4 0 0 0-.372-.894c.2-.358.595-.577 1.013-.58m-15.125.038c.381.005.713.19.9.512a4 4 0 0 0-.388.924H2.81a2.9 2.9 0 0 0 .418-.59c.088-.152.412-.658.87-.79q.204-.06.396-.056"/></svg>