<svg xmlns="http://www.w3.org/2000/svg" viewBox="0 0 24 24"><path d="M17.17 13.27q.211-.023.416-.023c.7 0 1.228.159 1.599.469q.555.469.555 1.334a2.86 2.86 0 0 1-.43 1.455c-.291.492-.775 1.066-1.46 1.727q-.68.669-1.821 1.592a48 48 0 0 1-2.275 1.742v2.083h9.895V21.24H17.99q.33-.237 1.11-.832.777-.598 1.55-1.311 1.226-1.141 1.822-2.215a4.6 4.6 0 0 0 .597-2.268q0-1.822-1.247-2.815-1.243-.994-3.613-.994-.518-.001-1.036.049V6.04H13.86v4.701H8.965V6.04H5.65v12.846h3.315v-5.661h4.89v5.661h.039q.467-.362.933-.74a29 29 0 0 0 1.826-1.588 15 15 0 0 0 .517-.529zM12.011 23.3A11.327 11.327 0 0 1 .7 11.99 11.305 11.305 0 0 1 12.011.699a11.286 11.286 0 0 1 11.29 11.29v.351H24v-.351A11.985 11.985 0 0 0 12.011 0 12.01 12.01 0 0 0 0 11.989 12.026 12.026 0 0 0 12.011 24h.352v-.7z"/></svg>