<svg xmlns="http://www.w3.org/2000/svg" viewBox="0 0 24 24"><path d="M0 4.124q0-.305.06-.595l1.956 1.734 2.144-2.38L2.246 1.18c.259-.072.53-.114.812-.114a3.06 3.06 0 0 1 3.058 3.037v.021q0 .23-.033.45l2.385 2.112a6.7 6.7 0 0 0-2.013 2.54L3.982 7.037a3 3 0 0 1-.924.145A3.06 3.06 0 0 1 0 4.124m20.942 12.694q-.46.002-.88.129l-2.308-2.044a6.86 6.86 0 0 1-1.819 2.706l1.993 1.765a3 3 0 0 0-.044.502 3.06 3.06 0 0 0 3.935 2.929l-1.992-1.77 2.14-2.365 1.981 1.76q.051-.27.052-.554v-.026a3.057 3.057 0 0 0-3.058-3.032m-3.397-7.592 2.473-2.189c.292.093.601.145.924.145A3.06 3.06 0 0 0 23.94 3.53l-1.956 1.734-2.144-2.38 1.914-1.703a3 3 0 0 0-.812-.114 3.06 3.06 0 0 0-3.058 3.037v.021q0 .23.033.45l-2.385 2.112a6.7 6.7 0 0 1 2.013 2.54zm-11.3 5.677-2.307 2.044A3.057 3.057 0 0 0 0 19.85v.026q0 .284.052.554l1.982-1.76 2.14 2.365-1.993 1.77a3.06 3.06 0 0 0 3.935-2.929 3 3 0 0 0-.044-.502l1.993-1.765a6.86 6.86 0 0 1-1.82-2.706m8.971 2.657a1.076 1.076 0 1 1-1.961.424h-.192a1.076 1.076 0 1 1-2.127 0h-.15A1.105 1.105 0 0 1 9.7 19.23c-.604 0-1.094-.5-1.094-1.115 0-.21.057-.405.156-.572-1.493-1.142-2.474-3.051-2.474-5.213 0-3.497 2.559-6.332 5.713-6.332s5.713 2.835 5.713 6.332c0 2.173-.991 4.091-2.497 5.231zm-4.194-5.914a2 2 0 0 0-.559-.66 1.8 1.8 0 0 0-.918-.264 1.5 1.5 0 0 0-.319.036c-.405.05-.747.327-.983.647-.207.257-.368.569-.372.905-.032.278.024.556.075.828.066.322.293.584.55.774.119.095.29.226.44.116.1-.134.016-.33.107-.478a.5.5 0 0 1 .258-.326c.263-.132.527-.262.808-.355.228-.067.416-.219.61-.349.255-.197.424-.558.303-.874m.996 2.325c-.279-.007-.63 1.237-.574 1.78.175.72.237-.505.574-.506.323.014.275 1.255.53.504.078-.5-.224-1.77-.53-1.778m4.036-.833c.051-.272.107-.55.075-.828-.004-.336-.165-.648-.372-.905-.236-.32-.578-.596-.983-.647a1.5 1.5 0 0 0-.319-.036c-.32-.001-.644.1-.918.264-.235.171-.42.406-.559.66-.121.316.048.677.303.874.194.13.382.282.61.35.28.092.545.222.808.354a.5.5 0 0 1 .258.326c.091.147.007.344.106.478.151.11.322-.021.44-.116.258-.19.485-.452.551-.774"/></svg>