<svg xmlns="http://www.w3.org/2000/svg" viewBox="0 0 24 24"><path d="M18.794 5.327c.48.485 1.118.75 1.797.755h.009a2.5 2.5 0 0 0 1.58-.553 12.1 12.1 0 0 0-3.548-3.615 2.555 2.555 0 0 0 .162 3.413m-.647.71A7.06 7.06 0 0 1 16.058.624a12 12 0 0 0-2.64-.62 9.69 9.69 0 0 0 2.834 7.933 9.92 9.92 0 0 0 7.002 2.893h.036q.358 0 .71-.027c-.09-.92-.283-1.81-.566-2.66a7.27 7.27 0 0 1-5.287-2.106m4.6 7.322a21.6 21.6 0 0 1-7.142-4.717 21.2 21.2 0 0 1-5.283-8.61 12.3 12.3 0 0 0-2.605.66 23.9 23.9 0 0 0 5.992 9.85 24.2 24.2 0 0 0 8.027 5.3q.737.299 1.487.549.486-1.242.696-2.597c-.39-.13-.786-.278-1.172-.435m-1.316 6.145L4.54 2.493a12 12 0 0 0-1.913 1.882l16.907 17.029c.7-.562 1.334-1.2 1.896-1.9zm-10.974-5.885a24.2 24.2 0 0 0-8.027-5.3q-.855-.344-1.725-.624a12 12 0 0 0-.67 2.6 21.56 21.56 0 0 1 8.53 5.224 21.24 21.24 0 0 1 5.216 8.405c.903-.135 1.77-.369 2.596-.692-.18-.553-.377-1.1-.602-1.644a23.8 23.8 0 0 0-5.318-7.969m-2.542 2.606A9.91 9.91 0 0 0 0 13.372c.103.921.314 1.806.61 2.65q.135-.005.27-.004c1.865 0 3.729.705 5.144 2.111a7.06 7.06 0 0 1 2.097 5.044c0 .081-.004.167-.004.248.844.287 1.734.48 2.65.575q.034-.404.036-.814a9.69 9.69 0 0 0-2.888-6.957m-2.538 2.61a2.55 2.55 0 0 0-3.437-.162 12.1 12.1 0 0 0 3.63 3.535c.35-.445.543-.993.548-1.568a2.52 2.52 0 0 0-.741-1.806z"/></svg>