<svg xmlns="http://www.w3.org/2000/svg" viewBox="0 0 24 24"><path d="M8.695 1.23h-.03a3.5 3.5 0 0 0-1.118.23c-.84.34-1.563 1.139-1.971 2.192a5.64 5.64 0 0 0-.123 3.604c.181-.295.396-.577.65-.833q.59-.593 1.368-.916c-.173-.81-.494-3.076 1.187-3.648 0 0-1.37.91-.606 3.45a5 5 0 0 1 .393-.09c-.353-.901-.408-1.661-.159-2.265a2.5 2.5 0 0 1 .504-.64c.264-.271.512-.527.478-.78a.33.33 0 0 0-.181-.221.9.9 0 0 0-.392-.084m9.763 1.9a.35.35 0 0 0-.255.12c-.139.196-.04.533.062.888a2.5 2.5 0 0 1 .146.815c-.095.9-.816 1.602-1.333 2.014q.153.126.308.278c2.02-1.938 1.2-3.432 1.2-3.432 1.34 1.435-.417 3.51-.775 3.905.564.718.887 1.54 1.049 2.383a5.62 5.62 0 0 0 1.607-3.246c.137-1.121-.12-2.162-.706-2.859-.236-.28-.86-.862-1.287-.865zm-8.147 1.147c.315.149.84.473.979 1.029l.024.098-.1-.019c-1.08-.205-1.688.307-1.945.613a2 2 0 0 1 .778-.147 2.9 2.9 0 0 1 1.112.238l.164.077-.176.045q-.642.163-.827.585c-.142.331-.04.71.046.932.282-1.168 1.875-1.374 1.897-1.376h.015a2.71 2.71 0 0 1 2.104 1.37c.029-.354-.024-1.085-.883-1.4l-.146-.058.143-.066c.649-.295 1.848.413 2.275.689-.425-1.121-2.016-1.244-2.032-1.245l-.126-.008.08-.097c.284-.343 1.004-.254 1.39-.176-.974-.772-2.051-.164-2.063-.157l-.097.056v-.11a1.1 1.1 0 0 0-.321-.747.97.97 0 0 0-.353.635l-.007.151-.105-.11c-.695-.728-1.448-.812-1.826-.802zm-.622.963c-1.463-.008-2.64.422-3.494 1.284-1.427 1.44-1.603 3.725-1.603 4.775a3 3 0 0 1 .338-.087 3.8 3.8 0 0 1 1.699.042c.023-.625.212-3.264 1.8-3.193q.087.005.18.02c2.518.405 1.309 4.26 1.161 4.701.461.209.965.389 1.55.506a6.3 6.3 0 0 0 1.76.096c.027-.566.278-4.12 2.448-4.103q.235.002.502.063c1.699.408.958 2.792.735 3.411a3.3 3.3 0 0 1 1.234.183q.39.141.715.409c.294-1.769.28-4.039-1.114-5.687a4.5 4.5 0 0 0-2.01-1.383l-.09-.018c.203.2.368.452.45.773l.041.168-.142-.1c-.014-.01-1.373-.955-2.137-.827 1.04.504.767 1.668.764 1.68l-.047.201-.072-.194a2.56 2.56 0 0 0-2.087-1.476 3.2 3.2 0 0 0-.867.265c-.579.278-.896.685-.946 1.207l-.019.2-.101-.178c-.016-.028-.376-.674-.137-1.234q.18-.416.729-.606c-.347-.12-1.155-.32-1.833.092l-.199.122.11-.207a1.8 1.8 0 0 1 .517-.559 2 2 0 0 1 .723-.321 8 8 0 0 0-.558-.025zm-7.441.99c-.539 0-1.113.124-1.583.552a2.1 2.1 0 0 0-.662 1.434 1.46 1.46 0 0 0 .386 1.083c.722.76 2.206.627 3.19.54h.05l.086-.008c.36-.03.639-.061.869-.094.112-.694.334-1.546.78-2.33a6 6 0 0 1-.114-.406c-.242-.106-.48-.207-.638-.266a9.7 9.7 0 0 0-1.454-.409 5 5 0 0 0-.91-.097zm.146.675c.168-.002.342.023.525.056.287.047.883.21 1.13.497s.985 1.36-.747 1.627c-.564.058-1.464.162-1.895-.296-.393-.422-.23-1.168.172-1.55.269-.251.534-.33.815-.334m6.127 1.86c-.75.023-1.342.905-1.324 1.986a2.7 2.7 0 0 0 .116.74c.4.174.788.394 1.196.626q.314.18.64.357c.451-.325.763-.997.75-1.776C9.88 9.617 9.27 8.742 8.52 8.765m11.906.716a9 9 0 0 0-.434.01h-.051l-.411.025a6 6 0 0 1-.644.737c.097.575.122 1.157.1 1.721.225.105.513.229.923.386l.087.035c.875.34 2.33.907 3.25.47a1.3 1.3 0 0 0 .692-.834 1.75 1.75 0 0 0-.203-1.38c-.498-.772-1.459-.992-2.241-1.102a9 9 0 0 0-1.068-.068M8.59 9.713h.004a.415.415 0 0 1 .411.412.412.412 0 1 1-.415-.412m6.861.22c-.602.027-1.238.573-1.564 1.392-.293.736-.238 1.48.08 1.938.355-.064.696-.14 1.022-.214.392-.09.772-.177 1.145-.233a2.8 2.8 0 0 0 .26-.498c.402-1.009.162-2.039-.536-2.317a1 1 0 0 0-.407-.068m5.644.185c.167 0 .321.014.429.028.497.071.909.164 1.195.623.278.44.221 1.12-.287 1.369-.545.264-1.369-.076-1.895-.287-1.578-.708-.562-1.417-.238-1.594.203-.111.518-.142.796-.14m-5.755.643a.41.41 0 0 1 .403.402.412.412 0 1 1-.421-.402zm-9.624.503a4 4 0 0 0-.766.073c-1.625.309-2.713 2.055-2.647 4.247a6.8 6.8 0 0 0 1.785 4.358c1.308 1.443 3.233 2.365 5.567 2.667v.002c8.105 1.041 9.79-3.28 10.114-4.633.511-2.134-.32-4.387-1.817-4.922-.957-.344-1.876-.13-2.94.117-1.063.247-2.276.528-3.722.24-1.18-.236-2.067-.741-2.85-1.186-.89-.507-1.681-.958-2.724-.963m1.662 2.01c.398-.01.88.315 1.159.797.306.552.22 1.11-.201 1.235s-1.015-.22-1.324-.772-.22-1.11.2-1.235a.6.6 0 0 1 .166-.025m-2.563.944c.518.008 1.132.317 1.56.916.622.871.623 2.038.085 2.421-.537.383-1.57.009-2.191-.861-.623-.87-.622-1.904-.077-2.297.17-.123.387-.182.623-.179m10.738.173c.308.007.543.158.602.427.093.432-.287.993-.862 1.273-.575.278-1.12.154-1.213-.278-.094-.431.287-.993.861-1.273.216-.105.427-.153.612-.149m2.083 1.633c.24.008.45.085.605.238.469.467.239 1.464-.527 2.22-.755.756-1.751.994-2.22.527s-.23-1.464.526-2.22c.472-.474 1.039-.743 1.511-.765a1 1 0 0 1 .105 0M7.317 17.782h.002a.13.13 0 0 1 .066.02.14.14 0 0 1 .047.182.9.9 0 0 1-.216.243 4.2 4.2 0 0 0 3.08 2.122c2.08.291 3.66-.662 4.103-.966a1 1 0 0 1-.148-.26.12.12 0 0 1 .086-.162.15.15 0 0 1 .172.087.72.72 0 0 0 .479.43.145.145 0 0 1 .11.153.15.15 0 0 1-.15.096h-.018a1 1 0 0 1-.338-.16c-.437.323-2.111 1.413-4.315 1.06-2.197-.351-3.087-1.835-3.302-2.263a.9.9 0 0 1-.315.061h-.019l-.004-.004a.127.127 0 0 1-.11-.134.118.118 0 0 1 .124-.13.65.65 0 0 0 .552-.308.13.13 0 0 1 .114-.067"/></svg>