<svg xmlns="http://www.w3.org/2000/svg" viewBox="0 0 24 24"><path d="M3.03 2.37a2 2 0 0 0-.333.02 1 1 0 0 0-.244.067.5.5 0 0 0-.166.088.5.5 0 0 0-.133.144L.652 4.943a4 4 0 0 0-.308.532 2.2 2.2 0 0 0-.2.496q-.077.255-.11.543A6 6 0 0 0 0 7.143q0 .298.066.474a.48.48 0 0 0 .188.266.75.75 0 0 0 .32.123q.2.033.465.031v.002q.276 0 .475-.033a.9.9 0 0 0 .332-.123.56.56 0 0 0 .187-.266q.067-.176.067-.474V5.729L3.547 2.71a.4.4 0 0 0 .045-.154.18.18 0 0 0-.067-.112.34.34 0 0 0-.177-.054 2 2 0 0 0-.319-.022zm4.347 5.61a2 2 0 0 0-.559.065.65.65 0 0 0-.343.205.8.8 0 0 0-.182.387 3.4 3.4 0 0 0-.043.6q0 .343.043.58a.9.9 0 0 0 .182.386.75.75 0 0 0 .343.205q.216.054.559.053a2.2 2.2 0 0 0 .547-.053.75.75 0 0 0 .344-.205.75.75 0 0 0 .183-.387q.053-.235.053-.58a2.8 2.8 0 0 0-.053-.6.7.7 0 0 0-.183-.386.65.65 0 0 0-.344-.205 2 2 0 0 0-.547-.065m4.05 3.69a.34.34 0 0 0-.308.172q-.102.171-.103.605 0 .435.103.617.104.171.309.17h4.779q.194.001.297-.17.101-.171.101-.617 0-.218-.033-.367a.6.6 0 0 0-.08-.24.25.25 0 0 0-.127-.137.34.34 0 0 0-.158-.033zm7.395 0a.34.34 0 0 0-.308.172q-.104.171-.104.605 0 .435.104.617.102.171.308.17H23.6q.194.001.296-.17.104-.171.104-.617 0-.218-.035-.367a.6.6 0 0 0-.08-.24.25.25 0 0 0-.125-.137.34.34 0 0 0-.16-.033zm-11.32 4.29q-.276 0-.475.034a.9.9 0 0 0-.332.123.56.56 0 0 0-.187.266 1.4 1.4 0 0 0-.067.474v1.414L4.994 21.29a.4.4 0 0 0-.045.154q.011.067.067.112.055.043.177.054.133.02.32.022.199.001.33-.022a1 1 0 0 0 .245-.066.5.5 0 0 0 .166-.088.5.5 0 0 0 .133-.144l1.504-2.254a4 4 0 0 0 .308-.532q.132-.242.197-.496.079-.255.112-.543.033-.286.033-.629a1.4 1.4 0 0 0-.066-.474.48.48 0 0 0-.188-.266.75.75 0 0 0-.32-.123 3 3 0 0 0-.465-.031z"/></svg>