<svg xmlns="http://www.w3.org/2000/svg" viewBox="0 0 24 24"><path d="M9.79 22.233c-.967-.097-2-.326-3.043-.759a11 11 0 0 1-1.212-.61c-.362-.207-.657-.458-1.213-.728a6.4 6.4 0 0 0-2.111-.61c-.984-.067-1.038.012-1.319-.075a1.2 1.2 0 0 1-.495-.285 1.4 1.4 0 0 1-.16-.18 1.3 1.3 0 0 1-.195-.4A1 1 0 0 1 0 18.252c0-.157.015-.24.035-.312.076-.278.173-.34.43-.847a6.1 6.1 0 0 0 .618-1.956 5.7 5.7 0 0 0 .055-1.017c-.015-.506-.038-.614-.04-1.045a10.1 10.1 0 0 1 .554-3.286c.206-.607.389-1.007.605-1.433a11.8 11.8 0 0 1 2.935-3.692c.773-.655 1.974-1.5 3.554-2.118a12.4 12.4 0 0 1 3.064-.761c.664-.087 1.807-.124 2.975.053.996.151 2.244.487 3.513 1.2.431.243.681.438 1.014.63.814.47 1.65.705 2.448.801.424.051 1.061.005 1.302.067.147.038.255.086.39.175.113.076.362.277.49.649.061.177.125.608-.098.991l-.156.267c-.05.084-.142.262-.207.396-.661 1.368-.647 2.546-.601 3.263.053.84.05 2.234-.542 3.965-.103.303-.336.931-.702 1.614a12 12 0 0 1-2.537 3.226 12.7 12.7 0 0 1-3.927 2.402c-.897.34-1.583.51-2.302.632-.694.12-1.82.243-3.08.116"/></svg>