<svg xmlns="http://www.w3.org/2000/svg" viewBox="0 0 24 24"><path d="M17.787 11.41h-1.026a.9.9 0 0 0-.052-.284.71.71 0 0 0-.459-.427 1.4 1.4 0 0 0-.913.019.89.89 0 0 0-.535.542 2.3 2.3 0 0 0-.04 1.425.88.88 0 0 0 .535.584 1.5 1.5 0 0 0 .977.027.7.7 0 0 0 .428-.384 1 1 0 0 0 .08-.396h1.031a2 2 0 0 1-.049.351c-.09.365-.346.672-.684.814a3.25 3.25 0 0 1-2.251.104c-.477-.15-.89-.493-1.054-.96a2.4 2.4 0 0 1-.133-.788c0-.388.068-.764.254-1.077.192-.321.486-.569.842-.701a3.06 3.06 0 0 1 2.318.063 1.2 1.2 0 0 1 .698.853q.025.115.033.235m-3.979 2.436H12.72l-.32-.793h-1.834c-.001.001-.315.794-.319.793h-1.09l1.727-3.693c0 .002 1.199 0 1.199 0zm5.483.001h-.977s.005-3.693 0-3.693h.977v1.477h1.976c0 .005-.002-1.478 0-1.477h.979s.003 3.686 0 3.693h-.979v-1.626c0 .005-1.976 0-1.976 0 .002.007 0 1.624 0 1.626m-18.312 0H0s.005-3.693 0-3.693h.979s-.002 1.487 0 1.477h1.976c0 .005-.004-1.478 0-1.477h.978s.004 3.686 0 3.693h-.978v-1.626c0 .005-1.976 0-1.976 0 0 .007-.002 1.625 0 1.626m7.531-.001h-.977v-3.065H6.036s.002-.626 0-.627c.002.001 3.971 0 3.971 0v.627H8.51zm-3.801-3.692h.977v3.692h-.977zm18.312 0H24v3.692h-.979zm-11.537.627-.681 1.68h1.361z"/></svg>