<svg xmlns="http://www.w3.org/2000/svg" viewBox="0 0 24 24"><path d="M18.721 3.048a1.352 1.352 0 0 0-1.38 1.56 6.4 6.4 0 0 0-1.864 3.2l-.77-.001c-.63 0-1.35.003-2.12.016l-7.965-.028A4.394 4.394 0 0 0 3.4 16.463l.002.002-2.096 3.543 4.343-1.48c2.612 1.705 6.279 2.425 10.278 2.425a6.572 6.572 0 0 0 3.058-12.39 4.97 4.97 0 0 1 2.552-1.16 1.352 1.352 0 1 0-.096-1.377c-1.47.188-2.787.861-3.881 1.987q-.33-.083-.67-.134a4.94 4.94 0 0 1 1.331-2.208 1.352 1.352 0 1 0 .5-2.623M4.391 9.167q.08-.001.16.004l.033.001h.033l7.936.028-6.08 5.168-.021.018-.02.018a3 3 0 0 1-2.195.793 3.02 3.02 0 0 1-2.856-3.17 3.014 3.014 0 0 1 3.01-2.86m10.553.017h.455l.528.001a5.2 5.2 0 0 1 5.196 5.196 5.2 5.2 0 0 1-5.196 5.195q-.53 0-1.043-.018c-1.779-1.578-2.676-3.269-2.665-5.026.021-3.025 2.698-5.325 2.725-5.348m-3.628 2.875a7.1 7.1 0 0 0-.474 2.463c-.011 1.722.65 3.36 1.963 4.889a20 20 0 0 1-2.575-.45c-1.076-1.835-1.427-3.545-1.045-5.091Zm-3.659 3.11q.013 1.557.736 3.218c-1.252-.488-2.297-1.124-3.118-1.898a4.4 4.4 0 0 0 2.089-1.071Zm9.237-4.08a1.7 1.7 0 1 0 0 3.4 1.7 1.7 0 0 0 0-3.4m-.431.723a.545.545 0 0 1 .521.708.54.54 0 0 1-.309.341.54.54 0 0 1-.322.032.54.54 0 0 1-.311-.188.55.55 0 0 1-.122-.403.56.56 0 0 1 .09-.25.55.55 0 0 1 .453-.24"/></svg>