<svg xmlns="http://www.w3.org/2000/svg" viewBox="0 0 24 24"><path d="M6.928 16.738v7.233h1.414v-7.233zm10.912 0v7.233h1.414v-7.233zm2.179 0v7.233h1.414v-7.233zm-4.366 0v7.233h1.414v-7.233zm-13.089 0v7.233h1.415v-7.233zm2.183 0v7.233h1.414v-7.233zM24 16.771l-.02 7.178-2.16-.008v-1.257h.827v-4.745h-.814V16.76zm-24-.009.02 7.178 2.16-.008v-1.257h-.827v-4.744h.814v-1.18zm6.928-8.356v7.233h1.414V8.406zm2.182 0v7.233h1.414V8.406zm2.181 0v7.233h1.414V8.406zm4.362 0v7.233h1.414V8.406zm2.187 0v7.233h1.414V8.406zm2.179 0v7.233h1.414V8.406zm-17.455 0v7.233h1.415V8.406zm2.183 0v7.233h1.414V8.406zm8.726 0v7.233h1.415V8.406zM24 8.433l-.02 7.178-2.16-.008v-1.257h.827V9.601h-.814V8.422zM0 8.43l.02 7.178 2.16-.008v-1.257h-.827V9.599h.814v-1.18zM6.928.029v7.233h1.414V.029zm8.725 0v7.233h1.414V.029zm4.366 0v7.233h1.414V.029zm-2.179 0v7.233h1.414V.029zm-15.276 0v7.233h1.415V.029zm2.183 0v7.233h1.414V.029zM24 .055l-.02 7.178-2.16-.009V5.967h.827V1.223h-.814V.044zM0 .052.02 7.23l2.16-.008V5.965h-.827V1.221h.814V.041z"/></svg>