<svg xmlns="http://www.w3.org/2000/svg" viewBox="0 0 24 24"><path d="M12 18.162c-6.627 0-12-2.758-12-6.163 0-3.403 5.373-6.161 12-6.161 6.628 0 12 2.758 12 6.161 0 3.405-5.372 6.163-12 6.163M7.602 7.17C3.701 7.978.973 9.83.973 11.984c0 1.193.838 2.294 2.248 3.176.117.072.194.086.251.083.102-.006.16-.07.201-.146.028-.049.063-.123.097-.197.46-1.084 2.078-4.833 4.203-7.376a1 1 0 0 0 .104-.146c.046-.084.036-.151 0-.192-.058-.065-.224-.065-.475-.016m2.14 1.73c-1.173 2.849 1.047 2.496 1.648 2.363 1.02-.226 1.994-.613 2.774-.925 2.222-.889 3.402-1.78 3.793-2.123a2 2 0 0 0 .108-.099c.055-.058.097-.119.097-.2q0-.14-.237-.223l-.064-.025c-1.698-.541-3.724-.856-5.902-.856-.017 0-.059-.002-.117 0-.26.008-.55.066-.787.189-.778.404-1.116 1.423-1.313 1.899m10.585.003a4 4 0 0 0-.096.198c-.46 1.082-2.077 4.83-4.202 7.373a1 1 0 0 0-.104.147c-.05.084-.039.153 0 .193.057.064.223.065.474.016 3.9-.81 6.628-2.66 6.628-4.815 0-1.193-.836-2.293-2.247-3.175-.116-.073-.194-.087-.25-.083-.103.007-.16.07-.203.146M14.258 15.1c1.173-2.849-1.048-2.494-1.647-2.362-1.022.225-1.996.613-2.775.924-2.223.888-3.402 1.782-3.795 2.123q-.071.063-.106.1c-.057.057-.097.118-.097.2 0 .093.08.17.236.223.012.005.051.022.066.026 1.696.54 3.722.856 5.9.856h.118c.26-.009.552-.068.787-.19.778-.404 1.117-1.423 1.313-1.9"/></svg>