<svg xmlns="http://www.w3.org/2000/svg" viewBox="0 0 24 24"><path d="M10.189 0a3.784 3.784 0 0 0-3.055 5.93l1.741 2.562a1.855 1.855 0 0 0 3.334-.13l1.454-2.929h-.006A3.784 3.784 0 0 0 10.189 0m9.173 4.496a4.2 4.2 0 0 0-1.662.306 4.23 4.23 0 0 0-1.817 1.396l-2.214 2.837q-.038.047-.074.096l-.01.012a2.088 2.088 0 0 0 1.509 3.306l3.614.536-.003-.007a4.26 4.26 0 0 0 4.532-5.807 4.26 4.26 0 0 0-3.875-2.675M3.586 7.242A3.154 3.154 0 0 0 .55 9.628a3.15 3.15 0 0 0 3.903 3.804l2.539-.737a1.545 1.545 0 0 0 .742-2.673L5.79 8.118v.005a3.13 3.13 0 0 0-2.204-.881M13.9 13.959a1.886 1.886 0 0 0-1.858 2.233l.387 3.263.005-.003a3.846 3.846 0 0 0 6.134 2.574 3.846 3.846 0 0 0-.9-6.645l-2.877-1.197a1.9 1.9 0 0 0-.89-.225zm-5.55.08c-.377 0-.75.104-1.076.3L4.06 16.018l.006.003a4.2 4.2 0 0 0-1.593 1.485 4.24 4.24 0 0 0 1.342 5.843 4.24 4.24 0 0 0 5.845-1.332 4.2 4.2 0 0 0 .647-2.172l.108-3.45a2.08 2.08 0 0 0-2.062-2.356z"/></svg>