<svg xmlns="http://www.w3.org/2000/svg" viewBox="0 0 24 24"><path d="M10.598.11C8.954.1 7.555.583 6.943.88a8 8 0 0 0-.351.182C4.782 3.767 4.336 6.699 4.096 7.88c.264.307.527.588.8.85-1.072.038-2.032-.008-2.808-.155-.33.635-.617 1.202-.867 1.73-.222-.523-.406-1.02-.47-1.74-.333.397-.498.778-.556 1.116v.03c-.094.491-.148.973-.177 1.485-.037.68-.015 1.352.058 2.006a12.93 12.93 0 0 0 .277 1.56c.009.033-.008-.015.038.151 0 0 .07.254.072.246.838 2.879 2.312 4.764 4.357 6.381q.15.028.315.047c.313.286.653.561 1.113.88.715.302 1.604.675 2.775.995q.125-.2.342-.422c-.817-.505-1.304-.811-1.974-1.447.954-.069 1.996-.198 3.033-.328v-.004c.078-.667.181-1.268.347-2.024.577.486 1.145.919 1.848 1.434-.05.273-.078.51-.115.855.392.216.682.372.94.502q-.721.135-1.413.239c-.007.588 0 .61.135 1.115.858.298 1.036.339 1.777.51.346-.07.953-.223 1.356-.35h.004c.076-.305.1-.311.279-.766l-.336-.185c.617-.117 1.25-.262 1.877-.43 0 0 .323-.534 1.064-1.896-.182-.156-.61-.51-1.152-.955.313-.825.534-1.423.71-1.922a29 29 0 0 1 .778-.168c.476-1.374.652-1.872 1.506-4.037a33 33 0 0 0-.69-1.168c.204.175.425.364.702.605q.201-.08.402-.166a30 30 0 0 0 2.737-1.295v-.002c.312-1.566.343-2.414.382-3.592-.923-.839-1.54-1.293-2.478-1.972-.745.403-1.6.811-2.559 1.21-.123.052-.247.106-.375.153a28 28 0 0 1-.521 2.688c-.058-.073-.109-.14-.17-.215a48 48 0 0 0-4.473 1.14 39 39 0 0 0-.435 2.635q-.902.193-1.781.346a32 32 0 0 1-1.868-2.336c.216.096.427.19.662.289 1.336-1.036 2.359-1.865 3.29-2.68.332.162.681.33 1.091.526a48 48 0 0 0 2.672-2.307c-.588-1.73-.92-2.413-1.469-3.543l-.976-.273C13.432 1.427 12.939.52 12.939.488A7.4 7.4 0 0 0 10.598.11m6.88.783c-.879.284-1.626.671-1.646.671.25.684.417 1.391.566 2.016.978.502 1.673.974 2.237 1.36.588-.284 1.14-.517 1.652-.684-.149-.912-.355-1.515-.537-2.045-.847-.618-1.636-1.006-2.271-1.318M3.462 3.38l.002.002.002-.002zm.002.002c-.42.414-.822.852-1.192 1.32 0 0-.002.012-.005.016a31 31 0 0 0-.67 1.885q.225.217.549.417c.334-.465.793-1.06 1.142-1.507.17-.542.436-1.253.643-1.78a3 3 0 0 1-.467-.351m11.318.527c.449.925.774 1.67 1.237 2.986a48 48 0 0 1-2.145 1.854l-.61-.293a51 51 0 0 0 2.118-2.016 61 61 0 0 0-.977-2.636zM2.414 9.063c.862.127 1.863.156 2.967.1.724.605 1.557 1.12 2.666 1.657.582.875 1.29 1.805 2.238 2.909a49 49 0 0 0-.982 4.177c.387.372.73.687 1.06.977a22 22 0 0 0-.342 1.902c-1.174.145-2.343.277-3.337.317A22 22 0 0 1 4.57 19.79q-.251.248-.424.484c-1.53-1.43-2.632-3.104-3.29-5.556a4 4 0 0 1-.063-.272c.111-.163.245-.33.39-.502-.031-.762-.06-1.45.01-2.322.291-.732.717-1.584 1.221-2.56m14.832.935.227.291-.03.121.348.291c.682.9 1.132 1.59 1.68 2.547a79 79 0 0 0-1.323 3.55l-.216.05c.09-.267.183-.545.29-.871-1.613-1.574-1.873-1.843-3.337-3.336q-.9.24-1.797.443c.085-.65.199-1.314.35-2.115 2.16-.65 3.791-.96 3.808-.971m-14.09 3.006c-.305 1.126-.383 1.922-.449 2.627.643 1.145 1.344 2.005 1.914 2.695.668.073 1.418.098 2.234.076.07-.912.249-1.807.405-2.603-.854-1.08-1.41-1.988-1.858-2.715a17 17 0 0 1-2.246-.08m19.293 1.043c-.698.429-1.422.843-2.16 1.25-.214.796-.25.916-.685 2.348q.599.362 1.474.947c.643-.349 1.192-.727 1.799-1.098.062-.036.116-.073.174-.105.012 0 .02-.016.023-.028-.013-.013.034-.022.229-.476q.396-.84.668-1.74.014-.046.029-.088c-.385-.378-.392-.374-1.352-1.137zm-3.078 6.281c-.327.356-.784.803-1.133 1.137q.15.226.23.435a12 12 0 0 0 1.39-.584q.002-.001.003-.007c.375-.342.85-.84 1.196-1.204a2.5 2.5 0 0 0-.268-.52c-.465.263-.943.5-1.418.743m-2.523-.523c.292.24.534.44.699.578a96 96 0 0 1-.75 1.338c-.634.164-1.27.306-1.885.416a19 19 0 0 1-1.846-.895c.02-.169.047-.338.079-.517a43 43 0 0 0 3.66-.809z"/></svg>