<svg xmlns="http://www.w3.org/2000/svg" viewBox="0 0 24 24"><path d="M16.432 6.326a5 5 0 0 0-.763.061l1.55.682zm.574.264.869.741.976-.453a5.2 5.2 0 0 0-1.845-.288m-12.884.138a5.2 5.2 0 0 0-2.59 1.41A5.2 5.2 0 0 0 .136 10.65l.096-.01A5.2 5.2 0 0 0 0 12.184q0 .404.06.795l.185-.122a5.18 5.18 0 0 0 1.462 2.85A5.2 5.2 0 0 0 3.7 16.955l.153-2.614a2.6 2.6 0 0 1-.431-.35 2.78 2.78 0 0 1-.823-1.984c0-.35.065-.692.19-1.011l-.134.075a2.8 2.8 0 0 1 .526-.803l-.241-.053a3 3 0 0 1 .305-.364c.244-.244.539-.437.862-.572l.049.495a3 3 0 0 1 .378-.179 2.9 2.9 0 0 1 1.234-.185h.001c.488.032.955.185 1.35.439q.235.15.432.348l5.94 5.706a5.1 5.1 0 0 0 2.812 1.438l.096.278q.376.055.765.055c.763 0 1.5-.164 2.173-.472l-2.352-1.983a2.9 2.9 0 0 1-1.183-.333l-.114-.327a2.6 2.6 0 0 1-.5-.389l-5.94-5.704a5.1 5.1 0 0 0-1.767-1.152L7.47 7.31a5.3 5.3 0 0 0-1.895-.35c-.495 0-.98.07-1.443.203zm12.444.266a5.2 5.2 0 0 0-3.103 1.501l-1.49 1.432 1.745 1.685 1.441-1.387a2.83 2.83 0 0 1 1.974-.842h.067c.735.01 1.424.3 1.942.82.53.53.823 1.235.823 1.983a2.8 2.8 0 0 1-.23 1.113l.215-.013a2.8 2.8 0 0 1-.631.967 2.81 2.81 0 0 1-2.181.79l2.368 1.987a5.2 5.2 0 0 0 1.527-1.062 5.2 5.2 0 0 0 1.48-2.963l-.19.01c.089-.56.071-.982.047-1.27l-4.46-4.04.018-.015-.032.007zm2.401.196-.796.513 4.465 4.105a5.2 5.2 0 0 0-1.518-3.318 5.2 5.2 0 0 0-2.15-1.3M3.833 10.31q.045.345.135.68l.548-.104zm19.147 1.96.116.99a8 8 0 0 0 .4-.784zm-13.967.495L7.58 14.144a2.8 2.8 0 0 1-1.474.776 3 3 0 0 1-.537.05c-.563 0-1.11-.167-1.564-.47l-.164 2.618a5.2 5.2 0 0 0 2.425.247l.514-.611 2.579-.958 1.401-1.344ZM24 13.126l-1.092.857.844-.282q.146-.28.248-.575m-7.446 1.053.004.558.69-.57a5 5 0 0 0-.694.011zm-6.487 1.694-2.619.983.569.399a5.2 5.2 0 0 0 1.866-1.205Zm-3.226 1.07-.575.684a5 5 0 0 0 .68-.136z"/></svg>