<svg xmlns="http://www.w3.org/2000/svg" viewBox="0 0 24 24"><path d="M15.402 11.19c-.701.7-1.838.7-2.54 0a1.796 1.796 0 1 1 2.539 0m.998-3.614a6.17 6.17 0 0 0-4.39-1.818 6.17 6.17 0 0 0-4.392 1.818 6.217 6.217 0 0 0 0 8.782 6.17 6.17 0 0 0 4.39 1.819 6.17 6.17 0 0 0 4.392-1.82 6.217 6.217 0 0 0 0-8.78m1.554 10.33a8.35 8.35 0 0 1-5.945 2.462 8.35 8.35 0 0 1-5.944-2.46c-3.277-3.277-3.277-8.607 0-11.883a8.35 8.35 0 0 1 5.944-2.46 8.35 8.35 0 0 1 5.944 2.46c3.278 3.276 3.278 8.606 0 11.882m4.51-11.293-.137-.292a2.78 2.78 0 0 1 .485-3.007c.018-.014.08-.08.117-.118a.4.4 0 0 0 .053-.069.66.66 0 0 0-.097-.81l-.026-.02a1 1 0 0 0-.18-.11l-.068-.034A19.08 19.08 0 0 0 9.71.443l-.016.022a11.7 11.7 0 0 0-6.012 3.218c-3.75 3.75-4.44 9.403-2.065 13.852.023.043.107.195.123.233a2.78 2.78 0 0 1-.556 2.919l-.072.08a.66.66 0 0 0 0 .934q.09.084.198.146l.01.006a19.08 19.08 0 0 0 13 1.677v.002a11.7 11.7 0 0 0 5.997-3.216c3.709-3.708 4.423-9.277 2.144-13.702"/></svg>