<svg xmlns="http://www.w3.org/2000/svg" viewBox="0 0 24 24"><path d="M0 12.036C-.035 5.397 5.326.036 11.964 0s12 5.326 12.036 11.965S18.674 23.964 12.036 24H12C5.397 24 .036 18.639 0 12.036m.355 0C.355 18.462 5.574 23.68 12 23.68s11.645-5.218 11.645-11.644S18.461.426 12.036.391H12C5.574.391.355 5.61.355 12.036m13.708 8.055a.6.6 0 0 1 .109.207.8.8 0 0 1 .036.247.8.8 0 0 1-.045.279.52.52 0 0 1-.312.33.7.7 0 0 1-.245.042.7.7 0 0 1-.263-.049.5.5 0 0 1-.188-.135.6.6 0 0 1-.112-.209.9.9 0 0 1-.038-.258.8.8 0 0 1 .036-.25.6.6 0 0 1 .113-.207.5.5 0 0 1 .189-.141.65.65 0 0 1 .264-.052.6.6 0 0 1 .269.053.5.5 0 0 1 .187.143m1.438 0a.6.6 0 0 1 .109.207.8.8 0 0 1 .036.247.8.8 0 0 1-.045.279.6.6 0 0 1-.122.204.5.5 0 0 1-.19.126.7.7 0 0 1-.245.042.7.7 0 0 1-.263-.049.5.5 0 0 1-.188-.135.6.6 0 0 1-.112-.209.9.9 0 0 1-.037-.258.8.8 0 0 1 .036-.25.6.6 0 0 1 .112-.207.5.5 0 0 1 .189-.141.65.65 0 0 1 .264-.052.6.6 0 0 1 .269.053.5.5 0 0 1 .187.143m-6.113.516a.3.3 0 0 1 .072.095q.025.054.025.132a.32.32 0 0 1-.117.256.46.46 0 0 1-.304.099.5.5 0 0 1-.3-.1l-.023.074h-.086l-.011-.392h.079a.5.5 0 0 0 .111.212.4.4 0 0 0 .107.085.3.3 0 0 0 .14.035q.11 0 .169-.051t.06-.143a.2.2 0 0 0-.019-.083.2.2 0 0 0-.055-.061.5.5 0 0 0-.093-.047 1 1 0 0 0-.123-.042 2 2 0 0 1-.119-.044.5.5 0 0 1-.113-.066.3.3 0 0 1-.082-.098.3.3 0 0 1-.032-.138q0-.138.103-.234A.39.39 0 0 1 9.052 20a.53.53 0 0 1 .249.058l.026-.06h.082l.018.363h-.079a.37.37 0 0 0-.104-.198.27.27 0 0 0-.194-.076.2.2 0 0 0-.147.047.14.14 0 0 0-.054.114q0 .051.018.086a.15.15 0 0 0 .053.058.4.4 0 0 0 .086.043l.129.045q.076.024.142.056a.5.5 0 0 1 .111.071m.964.504q-.074.03-.141.052a.5.5 0 0 1-.162.021q-.142 0-.2-.072a.32.32 0 0 1-.057-.202v-.764h-.204v-.11h.208v-.351h.208v.351h.324v.11h-.321v.63q0 .072.005.119a.2.2 0 0 0 .024.083.12.12 0 0 0 .055.05.2.2 0 0 0 .099.017 1 1 0 0 0 .162-.018zm.505-.083a.15.15 0 0 1-.047.109.15.15 0 0 1-.11.046.15.15 0 0 1-.11-.046.15.15 0 0 1-.047-.109.15.15 0 0 1 .047-.11.15.15 0 0 1 .11-.047q.065 0 .11.047a.15.15 0 0 1 .047.11m-2.35-.347-.031.479H7.128v-.082q.034-.002.092-.009a.3.3 0 0 0 .074-.016.1.1 0 0 0 .051-.044.2.2 0 0 0 .014-.07v-1.167a.2.2 0 0 0-.012-.067.1.1 0 0 0-.053-.048.5.5 0 0 0-.083-.026l-.083-.014v-.081h1.256v.391h-.086a.5.5 0 0 0-.098-.184q-.076-.098-.145-.107a1 1 0 0 0-.085-.007q-.05-.002-.112-.002h-.255v.645h.183a.4.4 0 0 0 .129-.017.2.2 0 0 0 .071-.055.3.3 0 0 0 .043-.089.6.6 0 0 0 .024-.105h.085v.637h-.085a.6.6 0 0 0-.025-.117.3.3 0 0 0-.042-.088.17.17 0 0 0-.081-.059.4.4 0 0 0-.119-.013h-.183v.486q0 .073.01.116a.1.1 0 0 0 .04.064q.03.02.081.028.052.006.147.006h.099q.062 0 .105-.005a1 1 0 0 0 .089-.016.14.14 0 0 0 .066-.033.7.7 0 0 0 .111-.166q.058-.112.073-.165zm8.455.479H15.89v-.157a1 1 0 0 1 .086-.079 2 2 0 0 1 .24-.163l.145-.08q.09-.048.139-.085a.4.4 0 0 0 .089-.09.3.3 0 0 0 .042-.089.5.5 0 0 0 .016-.151q0-.142-.077-.21a.3.3 0 0 0-.196-.067q-.075 0-.141.029a.23.23 0 0 0-.1.081l.02.087a.4.4 0 0 1 .012.098.1.1 0 0 1-.036.078q-.035.033-.107.033a.1.1 0 0 1-.088-.039.17.17 0 0 1-.031-.106q0-.061.035-.124a.4.4 0 0 1 .098-.115.5.5 0 0 1 .156-.084.6.6 0 0 1 .2-.032q.235 0 .372.105.138.105.138.279a.5.5 0 0 1-.024.152.3.3 0 0 1-.08.122.6.6 0 0 1-.142.1 7 7 0 0 1-.248.116q-.1.043-.185.093a1 1 0 0 0-.141.094h.88zm-4.185 0h-1.072v-.157a1 1 0 0 1 .085-.079 2 2 0 0 1 .386-.243q.09-.048.139-.085a.5.5 0 0 0 .089-.09.3.3 0 0 0 .042-.089.5.5 0 0 0 .016-.151q0-.142-.077-.21a.3.3 0 0 0-.196-.067q-.075 0-.141.029a.23.23 0 0 0-.1.081l.02.087a.4.4 0 0 1 .012.098.1.1 0 0 1-.036.078q-.035.033-.107.033a.1.1 0 0 1-.088-.039.17.17 0 0 1-.031-.106q0-.061.035-.124a.4.4 0 0 1 .098-.115.5.5 0 0 1 .156-.084.6.6 0 0 1 .2-.032.6.6 0 0 1 .372.105q.138.105.138.279a.4.4 0 0 1-.025.152.3.3 0 0 1-.079.122.6.6 0 0 1-.142.1 7 7 0 0 1-.248.116q-.1.043-.186.093a1 1 0 0 0-.14.094h.88zm1.178-.615q0-.272-.093-.422a.29.29 0 0 0-.254-.15.29.29 0 0 0-.256.15q-.094.15-.094.422 0 .259.09.416.09.158.258.158t.259-.158a.83.83 0 0 0 .09-.416m1.438 0q0-.272-.093-.422t-.253-.15a.29.29 0 0 0-.257.15q-.093.15-.094.422 0 .259.09.416.09.158.258.158a.28.28 0 0 0 .259-.158.83.83 0 0 0 .09-.416M5.148 19.456h-.071c-1.811-1.669-2.911-3.941-3.16-6.391.036-.071.071-.071.142-.071l.036.036a9.9 9.9 0 0 0 3.124 6.248c.036.036.036.107 0 .142h-.071zm13.739 0h-.142c-.035-.036-.035-.107 0-.142 1.776-1.634 2.876-3.87 3.125-6.284-.036-.071 0-.107.071-.142.071-.036.106 0 .142.071 0 .035 0 .071-.036.106a10.2 10.2 0 0 1-3.16 6.391M12.142 8.508a3.9 3.9 0 0 0-.284-1.407c.355 0 .675-.071.994-.213 0 .497.107.958.284 1.42-.35 0-.665.069-.98.207.518.242.815 1.446 1.087 1.958l-.462.249c.32.497.568 1.03.675 1.598l.568-.462-.249-.106c.178-.355.462-.639.817-.852.177.213.39.39.603.532a2.27 2.27 0 0 0-.781.852l-.319-.319c-.249.319-.462.71-.604 1.1.036.426 0 .888-.106 1.314a2.65 2.65 0 0 1 1.171-.355q.16-.64.746-.959l-.391-.461c.426-.426 1.243-1.207 1.704-1.314q.64.586.959 1.385a4.1 4.1 0 0 0-1.846.923l-.32-.462a1.57 1.57 0 0 0-.39.852c.532-.035 1.1 0 1.633.071.035-.213.071-.39.035-.603.284-.036 1.42 0 2.059.461-.142.462-.248.959-.248 1.456 0 0-1.314-.568-2.059-.426.071-.213.142-.462.177-.675a4.7 4.7 0 0 0-2.201.32l.71.142a.7.7 0 0 0 .071-.249c.391.071.746.284 1.03.568a1.37 1.37 0 0 0-.426.675 2.6 2.6 0 0 0-1.03-.533l.249-.39c-.32-.036-.639-.071-.959-.036l-.568.391a2.1 2.1 0 0 0-.497.745c.107.142.142.32.142.497.036.284-.106.533-.355.675 0 .39.142.781.391 1.065l.167.107h4.767v.177H5.858v-.177h4.694c.203-.116.357-.218.383-.32a4.2 4.2 0 0 0 0-1.882A2.44 2.44 0 0 0 9.55 14.84c-.213.036-.426.142-.639.249l.355.248a2.27 2.27 0 0 0-.781.852c-.177-.213-.39-.39-.603-.568.177-.355.461-.639.816-.852l.178.178c.142-.107.284-.213.461-.249-.603-.213-1.242-.39-1.881-.461v.639c-.71-.071-1.385 0-2.059.248 0-.071-.213-1.065.035-1.668.249-.604 1.598.035 2.166.142-.036.142-.071.319-.107.461a5.8 5.8 0 0 1 1.349-.071 1.94 1.94 0 0 0-.887-.71 4 4 0 0 1-.852-.523 4 4 0 0 1-.178-.116l.024-.014-.024-.021-.532.284c-.107-.675-.462-1.349-.923-1.846.532-.107 1.029-.32 1.491-.569.071.498.177 1.527.532 1.989a1.05 1.05 0 0 0-.544.163q.077.067.154.13c.316.188.672.327 1.029.417a1.4 1.4 0 0 1 0-.533h-.248a2.7 2.7 0 0 1 .035-.923c.249-.035.497 0 .71.071a1.9 1.9 0 0 0-.213.888H8.13c0 .213.036.39.142.568.462.142.888.461 1.136.887l.959.249c0-.178-.036-.355-.107-.497l-.248.071a1.65 1.65 0 0 0-.426-.817c.213-.106.461-.213.71-.248.142.284.213.568.248.887h-.284c.107.178.178.355.213.568l.568.249a3.19 3.19 0 0 0-.745-2.308l-.568.462C9.55 12 8.45 11.042 8.45 11.042a4.5 4.5 0 0 0 1.171-.853c.675.355 1.172 1.385 1.278 1.669l-.532.284.639.533.248.355c.142-.107.249-.249.355-.426l-.355-.107c.249-.355.391-.745.462-1.171.248.177.533.284.817.319a2.5 2.5 0 0 1-.426 1.207l-.356-.177a1.5 1.5 0 0 1-.355.603c.213.462.355.994.568 1.491 1.279-1.065.924-3.088.675-4.011l-.603.461a4.8 4.8 0 0 0-1.669-1.598c.035-.035.781-.958 1.491-1.136a.44.44 0 0 1 .284.023v.013l.014-.006zm.675 7.823c.035-.142-.036-.284-.178-.355-.142.036-.213.178-.213.32-.035.142.036.284.178.355.142-.036.248-.178.213-.32m-.249-.639c-.248.071-.355.355-.284.746a.81.81 0 0 1 .249-.675c.106-.071.035-.106.035-.106zm5.787-2.059c.071-.248-.249-1.065-.533-1.633a5.36 5.36 0 0 0 2.308-.745c.071.568.249 1.136.533 1.633-.426-.071-1.811.461-2.308.745M5.61 11.787c-.142.178-.178.959-.142 1.491a6 6 0 0 0-2.095-.248c.142-.497.213-.994.142-1.491.319.248 1.598.284 2.095.248m-3.17.07.009.443-.05.001-.005-.054a.2.2 0 0 0-.009-.049.1.1 0 0 0-.025-.033.1.1 0 0 0-.044-.01l-.713.014a.1.1 0 0 0-.04.008q-.016.009-.027.037a.3.3 0 0 0-.014.053.3.3 0 0 0-.008.051l-.049.001-.009-.443.05-.001q0 .022.006.052a.3.3 0 0 0 .012.051q.009.026.028.035a.1.1 0 0 0 .042.008l.712-.013a.1.1 0 0 0 .04-.011.07.07 0 0 0 .027-.035.3.3 0 0 0 .018-.104zm20.033.454a.2.2 0 0 0-.012-.06.2.2 0 0 0-.023-.057q-.018-.024-.067-.032a1 1 0 0 0-.125-.006l-.72.017-.002-.061.792-.614-.508.011a.7.7 0 0 0-.131.014.12.12 0 0 0-.064.035.4.4 0 0 0-.039.132l-.049.001-.01-.403.05-.001a.4.4 0 0 0 .038.117.1.1 0 0 0 .06.032.6.6 0 0 0 .136.006l.485-.011a.2.2 0 0 0 .063-.012.1.1 0 0 0 .049-.031.2.2 0 0 0 .037-.069.2.2 0 0 0 .016-.069l.05-.001.006.281-.737.57.467-.011a.6.6 0 0 0 .132-.014q.046-.012.061-.033a.3.3 0 0 0 .024-.064.3.3 0 0 0 .012-.067l.05-.002.009.4zM15.16 9.976c.674-.355 1.349-1.633 1.349-1.633.319.391.674.71 1.1.994-.213.746-1.065 1.492-1.313 1.634-.107-.142-.213-.285-.355-.391a2.46 2.46 0 0 0-.604 1.065c.071-.426.249-.816.462-1.172zm2.094.639c.568-.355 1.349-1.1 1.527-1.704a5.5 5.5 0 0 0 1.278 1.278c-.497.284-1.491.888-1.811 1.421a2.7 2.7 0 0 0-.994-.995m-15.627-.171a.3.3 0 0 0 .005.06.2.2 0 0 0 .016.06q.014.027.062.04a1 1 0 0 0 .124.021l.717.072-.006.06-.861.513.505.05a.6.6 0 0 0 .132.003q.047-.006.068-.027a.2.2 0 0 0 .035-.062.4.4 0 0 0 .02-.064l.049.004-.04.402-.049-.005a.4.4 0 0 0-.023-.121.1.1 0 0 0-.056-.039 1 1 0 0 0-.135-.023l-.482-.048a.2.2 0 0 0-.065.005.1.1 0 0 0-.051.024.2.2 0 0 0-.046.064.2.2 0 0 0-.025.067l-.049-.005.028-.28.802-.476-.466-.046a.6.6 0 0 0-.133-.002q-.046.006-.064.025a.3.3 0 0 0-.032.061.3.3 0 0 0-.02.065l-.049-.005.04-.398zm12.326-.539c-.107.462-.32.924-.604 1.314a3.6 3.6 0 0 0 .355-1.385l-.568-.142c.355-.461.426-1.491.462-1.988.497.249.994.426 1.526.497-.426.355-.71 1.278-.781 1.917zm8.372.864a.5.5 0 0 1-.147.126.6.6 0 0 1-.204.068.6.6 0 0 1-.216-.005.47.47 0 0 1-.301-.21.46.46 0 0 1 .029-.532.56.56 0 0 1 .344-.188.6.6 0 0 1 .218.005.46.46 0 0 1 .356.572.4.4 0 0 1-.079.164m-.705.003q.068.03.149.035.082.005.179-.01a1 1 0 0 0 .181-.047.5.5 0 0 0 .134-.079.26.26 0 0 0 .089-.244.26.26 0 0 0-.059-.134.3.3 0 0 0-.116-.079.5.5 0 0 0-.149-.029.84.84 0 0 0-.348.054.5.5 0 0 0-.132.078.26.26 0 0 0-.094.247.27.27 0 0 0 .166.208m-12.78-.689c-.497.035-.958.213-1.384.461-.036-.674-.675-1.633-.994-2.13.639-.035 1.775-.603 1.775-.603-.142.639.213 1.633.603 2.272m-6.758-.72-.011.047a.5.5 0 0 0-.134.031.3.3 0 0 0-.064.032.1.1 0 0 0-.037.04l-.04.15.769.172a.1.1 0 0 0 .043 0 .1.1 0 0 0 .036-.027.3.3 0 0 0 .024-.048.3.3 0 0 0 .022-.059l.048.011-.101.453-.048-.01.008-.059a.2.2 0 0 0 .001-.057.06.06 0 0 0-.018-.038.1.1 0 0 0-.042-.02l-.774-.173-.019.091-.009.061q-.002.022.016.052a.5.5 0 0 0 .153.141l-.01.047-.261-.058.187-.837zm3.528.791c-.213-.568-1.101-1.243-1.101-1.243.32-.213.604-.426.852-.71.497.284.888.675 1.136 1.172-.319.213-.639.461-.887.781m15.639-.336-.112-.428.048-.013.017.052a.2.2 0 0 0 .021.046.1.1 0 0 0 .032.026.1.1 0 0 0 .045-.001l.689-.181a.1.1 0 0 0 .038-.018q.014-.012.017-.042.002-.022.002-.054a.3.3 0 0 0-.005-.052l.048-.013.112.429-.047.012-.019-.048q-.011-.028-.024-.048-.015-.022-.035-.027a.1.1 0 0 0-.042.002l-.689.181a.1.1 0 0 0-.037.02.06.06 0 0 0-.018.04q-.002.015 0 .049a.4.4 0 0 0 .007.056zM8.521 8.343c.355-.142.71-.355.994-.639q.159.746.639 1.385c-.284.106-.568.248-.781.461-.142-.461-.462-.887-.852-1.207m-5.672.05.267.113-.27.768-.046-.016.013-.054.006-.046a.06.06 0 0 0-.016-.038.1.1 0 0 0-.037-.022l-.664-.233a.1.1 0 0 0-.041-.007q-.019.001-.038.021a.5.5 0 0 0-.056.086l-.046-.016.251-.715.223.078-.017.049a.3.3 0 0 0-.125.019q-.07.024-.09.061l-.044.11-.051.146.367.129.037-.104a.2.2 0 0 0 .016-.077.1.1 0 0 0-.017-.052.2.2 0 0 0-.042-.042.3.3 0 0 0-.055-.034l.017-.049.362.127-.017.049a.3.3 0 0 0-.071-.009.2.2 0 0 0-.059.006.1.1 0 0 0-.049.034.3.3 0 0 0-.032.065l-.036.105.277.097q.042.014.068.017a.06.06 0 0 0 .044-.01.1.1 0 0 0 .032-.041l.053-.138a1 1 0 0 0 .027-.115q.002-.029-.006-.044a.7.7 0 0 0-.151-.171zm18.91.508-.016-.044a.6.6 0 0 0 .097-.098.4.4 0 0 0 .037-.062.1.1 0 0 0 .009-.054l-.047-.148-.74.268a.1.1 0 0 0-.036.023.07.07 0 0 0-.016.042.3.3 0 0 0 .005.054.3.3 0 0 0 .013.061l-.047.017-.158-.437.047-.016.025.054q.018.036.029.048.015.018.035.023a.1.1 0 0 0 .047-.006l.745-.269-.032-.088-.025-.056q-.01-.02-.042-.035a.4.4 0 0 0-.143-.036.4.4 0 0 0-.062-.001l-.016-.046.251-.091.291.807zm-11.357-.7a4.6 4.6 0 0 0-1.349-1.633c.036-.035.817-.745 1.456-.887s.852 1.384 1.029 1.917l-.603.248a1 1 0 0 1 0 .639c-.036-.177-.071-.39-.142-.568zm8.237-.781c-.355.284-.675.639-.852 1.065a2.2 2.2 0 0 0-.781-.355c.142-.355.39-1.065.639-1.278.355.107.71.284.994.533zM3.647 7.362l-.117.239a6 6 0 0 0-.539.085l-.044.091.281.137a.1.1 0 0 0 .042.012q.02.001.039-.017a.2.2 0 0 0 .028-.035l.027-.045.044.021-.183.375-.044-.022.017-.045a.2.2 0 0 0 .011-.044.06.06 0 0 0-.01-.039.1.1 0 0 0-.036-.028l-.64-.313a.1.1 0 0 0-.042-.012q-.02-.003-.04.016a.5.5 0 0 0-.057.076l-.044-.022.2-.409a.5.5 0 0 1 .063-.1.3.3 0 0 1 .081-.071.2.2 0 0 1 .095-.03.2.2 0 0 1 .108.025.3.3 0 0 1 .083.06.2.2 0 0 1 .046.079.3.3 0 0 1 .013.09 1 1 0 0 1-.009.103l.396-.073a.3.3 0 0 0 .13-.053.2.2 0 0 0 .032-.034l.025-.038zm10.767.413c.213-.426.675-1.633.639-1.988.426.249.923.391 1.42.462a5.4 5.4 0 0 0-.603 1.952c-.462-.248-1.207-.532-1.42-.461zm6.335.419-.183-.365.044-.022a.4.4 0 0 0 .052.074q.026.027.039.02l.013-.008.013-.011.16-.172-.155-.308-.09.009-.118.021-.029.011q-.025.012-.019.058a.4.4 0 0 0 .028.096l-.044.023-.166-.331.044-.023a.2.2 0 0 0 .063.069.17.17 0 0 0 .118.022q.2-.017.445-.041l.439-.042.025.049-.611.675a.2.2 0 0 0-.028.04.2.2 0 0 0-.013.048.2.2 0 0 0 .004.044l.013.042zM2.827 7.368a.2.2 0 0 0-.15-.016q-.07.023-.111.107l-.052.106.379.186.04-.082a.22.22 0 0 0 .015-.17.22.22 0 0 0-.121-.131m18.104.292.274-.305-.407.04zM8.237 7.527s-.604-.888-1.101-1.065c.284-.213.533-.497.71-.781q.693.372 1.065 1.065c-.284.213-.497.497-.674.781M4.263 6.416l-.222.343L4 6.732a.4.4 0 0 0 .037-.083q.01-.035-.002-.043l-.014-.008-.015-.005-.23-.051-.187.29q.03.043.054.072l.078.092.023.019q.024.015.06-.013a.4.4 0 0 0 .069-.073l.041.027-.201.311-.042-.027a.3.3 0 0 0 .018-.042.15.15 0 0 0 0-.104.3.3 0 0 0-.031-.056q-.115-.163-.261-.363l-.258-.358.03-.046.891.185a.14.14 0 0 0 .096-.009.1.1 0 0 0 .037-.026l.029-.032zm9.903.543a2.7 2.7 0 0 0-1.065 0c-.071-.462-.142-1.42.035-1.811a3.1 3.1 0 0 1 1.385.107c-.249.532-.391 1.1-.355 1.704m6.436-.109a.45.45 0 0 1-.401.065.6.6 0 0 1-.169-.092.7.7 0 0 1-.134-.147l-.228-.338.041-.027a.4.4 0 0 0 .063.071.05.05 0 0 0 .039.01.1.1 0 0 0 .041-.016l.589-.397a.1.1 0 0 0 .03-.03q.012-.017.007-.043a.2.2 0 0 0-.013-.047l-.019-.039.041-.027.24.356a.57.57 0 0 1 .098.326.43.43 0 0 1-.058.203.54.54 0 0 1-.167.172m-.095-.141a.6.6 0 0 0 .134-.122.4.4 0 0 0 .072-.142.3.3 0 0 0 .009-.147.4.4 0 0 0-.06-.147l-.068-.096-.626.423q-.053.035-.052.079 0 .044.043.108.05.072.112.11a.3.3 0 0 0 .131.04.4.4 0 0 0 .147-.024.7.7 0 0 0 .158-.082M3.711 6.53l-.402-.083.241.331zm8.857-.317a3.2 3.2 0 0 0-1.278.178 3.8 3.8 0 0 0-.71-1.846c.035-.036 1.029-.426 1.669-.32.639.107.355 1.456.319 1.988m-7.891-.277a.43.43 0 0 1-.303.153.5.5 0 0 1-.185-.026.6.6 0 0 1-.187-.107.6.6 0 0 1-.142-.165.5.5 0 0 1-.063-.183.4.4 0 0 1 .013-.182.47.47 0 0 1 .298-.309l-.018-.052.035-.043.274.22-.036.043a1 1 0 0 0-.107-.045.4.4 0 0 0-.112-.025.3.3 0 0 0-.107.013.2.2 0 0 0-.087.064.28.28 0 0 0-.054.249.5.5 0 0 0 .07.14q.053.073.134.141.073.06.149.093a.5.5 0 0 0 .15.036.3.3 0 0 0 .139-.022.3.3 0 0 0 .112-.083.29.29 0 0 0 .054-.275.4.4 0 0 0-.037-.087l.052-.024q.075.14.06.255a.43.43 0 0 1-.102.221m15.552-.415a.3.3 0 0 0-.047-.038.3.3 0 0 0-.054-.029q-.03-.008-.073.019a1 1 0 0 0-.099.075l-.542.475-.04-.046.213-.979-.382.335a.6.6 0 0 0-.091.094q-.028.038-.028.068 0 .022.022.068a1 1 0 0 0 .033.059l-.037.032-.266-.303.037-.033a.4.4 0 0 0 .105.066.1.1 0 0 0 .067-.014.7.7 0 0 0 .108-.083l.365-.319a.2.2 0 0 0 .04-.05.1.1 0 0 0 .018-.055.3.3 0 0 0-.047-.141l.037-.032.185.212-.2.91.352-.308a.6.6 0 0 0 .092-.096q.027-.039.025-.064A.2.2 0 0 0 20 5.279a1 1 0 0 0-.034-.059l.037-.033.263.301zM5.165 4.342l-.034.033a.5.5 0 0 0-.203-.056q-.035 0-.053.013l-.116.105.553.57a.1.1 0 0 0 .037.023.06.06 0 0 0 .045-.002.5.5 0 0 0 .098-.065l.035.036-.336.327-.035-.036a1 1 0 0 0 .072-.092.06.06 0 0 0 .006-.042.1.1 0 0 0-.024-.041l-.558-.574-.067.067-.041.046q-.015.018-.015.053a.3.3 0 0 0 .006.073.5.5 0 0 0 .045.131l-.035.034-.188-.193.62-.604zm14.122.157a.3.3 0 0 0-.109-.055q-.029-.003-.068.028a1 1 0 0 0-.088.086l-.282.321a.28.28 0 0 1-.252.099.4.4 0 0 1-.122-.036.46.46 0 0 1-.247-.31.25.25 0 0 1 .06-.209l.384-.437a.1.1 0 0 0 .021-.035.1.1 0 0 0-.005-.044.3.3 0 0 0-.051-.076l.032-.037.308.271-.033.037a.4.4 0 0 0-.08-.049.05.05 0 0 0-.042 0 .1.1 0 0 0-.034.027l-.358.407a.3.3 0 0 0-.048.068.2.2 0 0 0-.014.178.3.3 0 0 0 .08.103.3.3 0 0 0 .112.066.2.2 0 0 0 .103.006.2.2 0 0 0 .082-.032.3.3 0 0 0 .063-.054l.266-.303a.6.6 0 0 0 .075-.101q.024-.045.018-.07a.2.2 0 0 0-.032-.064l-.041-.051.033-.037.301.266zM6.206 4.436l-.344.274-.031-.039.04-.036a.2.2 0 0 0 .034-.038.07.07 0 0 0 .01-.039.1.1 0 0 0-.019-.041l-.44-.554a.1.1 0 0 0-.031-.027q-.017-.008-.045.001a.4.4 0 0 0-.096.045l-.031-.038.345-.274.03.038q-.016.014-.036.036l-.034.041a.06.06 0 0 0-.01.043.1.1 0 0 0 .018.038l.441.554q.014.018.033.025a.07.07 0 0 0 .044.001.4.4 0 0 0 .092-.049zm11.858-.874a.5.5 0 0 1-.007.193.6.6 0 0 1-.088.197.6.6 0 0 1-.15.156.49.49 0 0 1-.359.078.5.5 0 0 1-.171-.072.46.46 0 0 1-.2-.31.5.5 0 0 1 .01-.19.6.6 0 0 1 .236-.347.5.5 0 0 1 .177-.077.463.463 0 0 1 .552.372m-.475.521a.5.5 0 0 0 .126-.087.8.8 0 0 0 .115-.138.8.8 0 0 0 .087-.165.5.5 0 0 0 .033-.152.26.26 0 0 0-.119-.231.25.25 0 0 0-.138-.047.3.3 0 0 0-.136.031.5.5 0 0 0-.123.09.9.9 0 0 0-.196.292.5.5 0 0 0-.033.151.3.3 0 0 0 .025.131.26.26 0 0 0 .094.105.26.26 0 0 0 .13.046.3.3 0 0 0 .135-.026M6.645 3.099q.093.022.175.083.083.06.146.159a.6.6 0 0 1 .084.199.5.5 0 0 1 .001.193.46.46 0 0 1-.204.296.46.46 0 0 1-.364.061.5.5 0 0 1-.171-.084.6.6 0 0 1-.141-.153.6.6 0 0 1-.084-.2.5.5 0 0 1-.002-.193.45.45 0 0 1 .071-.169.48.48 0 0 1 .308-.198.5.5 0 0 1 .181.006m.291.643a.5.5 0 0 0-.029-.151.9.9 0 0 0-.199-.305.5.5 0 0 0-.127-.09.26.26 0 0 0-.259.018.25.25 0 0 0-.098.109.3.3 0 0 0-.025.137.5.5 0 0 0 .034.148.85.85 0 0 0 .192.296.5.5 0 0 0 .125.089.26.26 0 0 0 .264-.016.27.27 0 0 0 .122-.235m1.059-1.426a.3.3 0 0 0-.092.079q-.016.027-.002.075a1 1 0 0 0 .045.116l.308.652-.055.025-.883-.473.217.459q.036.078.066.114.029.038.058.045a.2.2 0 0 0 .071-.002 1 1 0 0 0 .066-.016l.021.045-.365.172-.021-.045a.3.3 0 0 0 .051-.039.2.2 0 0 0 .041-.043.1.1 0 0 0 .005-.068 1 1 0 0 0-.05-.127l-.208-.438a.2.2 0 0 0-.037-.053.1.1 0 0 0-.048-.032.2.2 0 0 0-.078-.006.2.2 0 0 0-.07.013l-.021-.044.254-.121.821.442-.2-.423a.6.6 0 0 0-.066-.115q-.03-.036-.055-.041a.2.2 0 0 0-.069.004.3.3 0 0 0-.066.016l-.021-.045.361-.171zm9.026.746-.046-.023a.4.4 0 0 0 0-.133q-.013-.077-.048-.102l-.102-.059-.147-.076-.182.353.101.052a.3.3 0 0 0 .076.027.13.13 0 0 0 .059-.007.1.1 0 0 0 .044-.031.3.3 0 0 0 .045-.054l.047.023-.178.345-.047-.024a.3.3 0 0 0 .02-.068.2.2 0 0 0 .002-.062.1.1 0 0 0-.03-.055.3.3 0 0 0-.064-.044l-.101-.052-.156.302a.1.1 0 0 0-.01.04.07.07 0 0 0 .015.041.3.3 0 0 0 .078.062l-.023.044-.38-.196.023-.044a1 1 0 0 0 .095.035.06.06 0 0 0 .039-.01.1.1 0 0 0 .028-.034l.327-.632a.1.1 0 0 0 .012-.04q.002-.02-.015-.04a.4.4 0 0 0-.079-.068l.023-.044.687.355zm-1.446-.907a.4.4 0 0 0-.06-.007.2.2 0 0 0-.061.004q-.03.009-.052.054a1 1 0 0 0-.045.117l-.21.689-.058-.018-.335-.944-.148.485a.6.6 0 0 0-.028.129.13.13 0 0 0 .012.072.2.2 0 0 0 .055.046 1 1 0 0 0 .059.033l-.015.047-.386-.118.015-.047.064.005q.047.002.06-.005a.1.1 0 0 0 .049-.046 1 1 0 0 0 .048-.128l.142-.464a.2.2 0 0 0 .008-.064.13.13 0 0 0-.014-.056.2.2 0 0 0-.053-.057.2.2 0 0 0-.061-.037l.014-.047.269.082.31.879.136-.447a.5.5 0 0 0 .028-.13q.003-.047-.012-.068a.4.4 0 0 0-.113-.076l.014-.047.383.117zm-5.657.046a.45.45 0 0 1-.072.401.6.6 0 0 1-.144.128.7.7 0 0 1-.184.077l-.395.102-.012-.048q.02-.005.049-.016a.2.2 0 0 0 .04-.02.06.06 0 0 0 .022-.033.1.1 0 0 0-.001-.044l-.178-.688a.1.1 0 0 0-.018-.039.06.06 0 0 0-.038-.022.2.2 0 0 0-.049-.003l-.043.005-.013-.048.417-.107a.56.56 0 0 1 .34.017.4.4 0 0 1 .173.123.5.5 0 0 1 .106.215m-.165.042a.6.6 0 0 0-.07-.167.4.4 0 0 0-.11-.116.36.36 0 0 0-.294-.05l-.113.032.189.733q.015.061.057.076a.2.2 0 0 0 .116-.005.4.4 0 0 0 .141-.069.3.3 0 0 0 .082-.111.4.4 0 0 0 .027-.146.7.7 0 0 0-.025-.177m4.389.062-.045-.001a.2.2 0 0 0-.047.005.06.06 0 0 0-.034.024.1.1 0 0 0-.016.043l-.031.187-.006.048q-.099.025-.193.032a.8.8 0 0 1-.182-.009.48.48 0 0 1-.308-.191.5.5 0 0 1-.076-.176.6.6 0 0 1 .069-.416.48.48 0 0 1 .506-.233.46.46 0 0 1 .24.111l.036-.042.055.009-.052.342-.056-.01a1 1 0 0 0-.017-.117.4.4 0 0 0-.038-.107.24.24 0 0 0-.182-.129.28.28 0 0 0-.252.08.4.4 0 0 0-.089.131.73.73 0 0 0-.063.365.4.4 0 0 0 .041.153.3.3 0 0 0 .229.175.3.3 0 0 0 .191-.027l.018-.071.02-.116a.2.2 0 0 0 .001-.052.06.06 0 0 0-.027-.038.6.6 0 0 0-.119-.043l.009-.05.427.073zm-3.033-.08.019.289-.808.106-.006-.049q.02-.003.054-.013a.2.2 0 0 0 .043-.015.06.06 0 0 0 .027-.031.1.1 0 0 0 .003-.043l-.092-.699a.1.1 0 0 0-.013-.039q-.01-.016-.035-.024a.3.3 0 0 0-.103-.011l-.006-.049.753-.099.031.234-.052.007a.3.3 0 0 0-.073-.103q-.054-.052-.096-.053l-.118.011-.153.02.051.386.109-.014a.2.2 0 0 0 .076-.02.1.1 0 0 0 .039-.039.2.2 0 0 0 .018-.057.2.2 0 0 0 .006-.064l.052-.007.05.381-.052.007a.3.3 0 0 0-.024-.068.2.2 0 0 0-.032-.049.1.1 0 0 0-.052-.029.3.3 0 0 0-.073.001l-.11.015.038.291a.3.3 0 0 0 .016.069.06.06 0 0 0 .029.035q.02.01.051.01l.148-.016.062-.01.052-.017a.1.1 0 0 0 .037-.025.4.4 0 0 0 .053-.109 1 1 0 0 0 .031-.104zm1.76.301-.442-.028.003-.049.055-.001a.2.2 0 0 0 .05-.005.1.1 0 0 0 .035-.023.1.1 0 0 0 .013-.042l.046-.711a.1.1 0 0 0-.005-.041q-.007-.017-.034-.03a.5.5 0 0 0-.102-.031l.003-.049.442.029-.003.049a.3.3 0 0 0-.052.002.3.3 0 0 0-.052.008q-.027.006-.037.024a.1.1 0 0 0-.012.041l-.046.711a.1.1 0 0 0 .007.041.07.07 0 0 0 .033.03q.014.007.046.015.033.01.056.011zm-.84-.495a.3.3 0 0 1 .048.075.3.3 0 0 1 .016.096.27.27 0 0 1-.092.217.35.35 0 0 1-.237.089.4.4 0 0 1-.132-.018.5.5 0 0 1-.115-.047l-.029.051-.055.001-.017-.336.056-.001a1 1 0 0 0 .043.111.4.4 0 0 0 .063.093.3.3 0 0 0 .086.064.26.26 0 0 0 .196.007.2.2 0 0 0 .057-.036.2.2 0 0 0 .032-.055.2.2 0 0 0 .009-.071.2.2 0 0 0-.035-.109.2.2 0 0 0-.101-.076l-.104-.037a2 2 0 0 1-.102-.04.3.3 0 0 1-.131-.095.26.26 0 0 1-.049-.157.24.24 0 0 1 .021-.106.3.3 0 0 1 .063-.088.34.34 0 0 1 .33-.062.6.6 0 0 1 .099.046l.028-.047.055-.002.012.327-.056.001a2 2 0 0 0-.036-.107.4.4 0 0 0-.052-.092.2.2 0 0 0-.074-.062.2.2 0 0 0-.106-.022.16.16 0 0 0-.111.044.13.13 0 0 0-.045.105.2.2 0 0 0 .032.105q.031.041.088.067l.196.076a1 1 0 0 1 .081.039.3.3 0 0 1 .068.052"/></svg>