<svg xmlns="http://www.w3.org/2000/svg" viewBox="0 0 24 24"><path d="M22.182 15.499a1.8 1.8 0 0 1-.354-.036 1.83 1.83 0 0 1-1.208-.863l-.007-.012a.543.543 0 0 1 .2-.716.5.5 0 0 1 .27-.074.53.53 0 0 1 .462.272l.018.03.057.076.075.077a.74.74 0 0 0 .346.167.76.76 0 0 0 .595-.136.72.72 0 0 0 .3-.54.74.74 0 0 0-.208-.577s-1.6-1.661-1.671-1.738a2 2 0 0 1-.193-.23c-.226-.32-.296-.696-.261-1.07a1.7 1.7 0 0 1 .225-.74s.073-.123.095-.155c.084-.123.251-.283.366-.372a2 2 0 0 1 .306-.185 1.75 1.75 0 0 1 2.282.705.52.52 0 0 1 .055.402.53.53 0 0 1-.253.326.5.5 0 0 1-.259.07.53.53 0 0 1-.46-.27.7.7 0 0 0-.466-.33.72.72 0 0 0-.564.128.69.69 0 0 0-.267.498.7.7 0 0 0 .19.54l1.636 1.686a1.83 1.83 0 0 1 .507 1.393c-.047.524-.307 1-.715 1.305a1.84 1.84 0 0 1-1.099.369m-5.175 0a1.76 1.76 0 0 0 1.759-1.76v-3.478a1.759 1.759 0 0 0-3.518 0v3.478a1.76 1.76 0 0 0 1.759 1.76m0-5.935c.378 0 .697.32.697.697v3.478a.7.7 0 0 1-.697.697.69.69 0 0 1-.697-.697v-3.478a.7.7 0 0 1 .697-.697m-7.898.323v5.08a.53.53 0 0 0 1.061 0V12.09Zm2.88 2.025v-2.88a.531.531 0 0 1 1.062 0v5.084zm1.053 2.94v.114a.533.533 0 0 1-1.007.24l-2.92-6.052v-.121a.53.53 0 0 1 .303-.477.525.525 0 0 1 .709.247Zm-7.907.646a1.76 1.76 0 0 0 1.759-1.759v-3.478a1.759 1.759 0 0 0-3.518 0v3.478a1.76 1.76 0 0 0 1.76 1.76m0-5.935a.707.707 0 0 1 .696.697v3.478a.697.697 0 1 1-1.394 0v-3.478a.7.7 0 0 1 .697-.697M0 14.911a.58.58 0 1 0 1.158 0v-5.83A.58.58 0 0 0 0 9.08z"/></svg>