<svg xmlns="http://www.w3.org/2000/svg" viewBox="0 0 24 24"><path d="M6.446 18.824a.74.74 0 1 0-.742-.74.74.74 0 0 0 .742.74m9.186 2.217a1.158 1.158 0 1 0-1.16-1.157 1.16 1.16 0 0 0 1.16 1.157m-4.395.392a.986.986 0 1 0-.988-.984.987.987 0 0 0 .988.985m2.494 2.07a1.158 1.158 0 1 0-1.16-1.157 1.16 1.16 0 0 0 1.16 1.158m-4.545-.394a.986.986 0 1 0-.987-.985.987.987 0 0 0 .987.985m-1.703-2.168a.863.863 0 1 0-.865-.86.863.863 0 0 0 .865.86m2.049-1.674a.863.863 0 1 0-.863-.866.864.864 0 0 0 .863.866m3.631-.296a.986.986 0 1 0-.988-.985.987.987 0 0 0 .988.985m-1.729-2.143a.863.863 0 1 0-.863-.863.864.864 0 0 0 .863.863m-2.939.32a.74.74 0 1 0-.741-.74.74.74 0 0 0 .741.74m-2.519-.32a.616.616 0 1 0-.618-.616.617.617 0 0 0 .618.616m-.025-1.7a.542.542 0 1 0-.543-.542.543.543 0 0 0 .543.542m2.1.024a.616.616 0 1 0-.617-.616.617.617 0 0 0 .617.616m2.37-.467a.74.74 0 1 0-.74-.74.74.74 0 0 0 .74.74m-.469-1.97a.616.616 0 1 0-.617-.617.617.617 0 0 0 .617.616m-1.95.738a.542.542 0 1 0-.545-.542.543.543 0 0 0 .544.542m-1.779.222a.443.443 0 1 0-.444-.444.445.445 0 0 0 .444.444M8.67 7.123a.863.863 0 1 0-.865-.862.863.863 0 0 0 .865.862m2.246-.025a.74.74 0 1 0-.74-.739.74.74 0 0 0 .74.739m-.42-2.61a.74.74 0 1 0-.74-.74.74.74 0 0 0 .74.74M8.25 4.487a.863.863 0 1 0-.865-.862.863.863 0 0 0 .865.862m-2.618.591a.986.986 0 1 0-.99-.985.986.986 0 0 0 .99.985M6.05 7.69a.986.986 0 1 0-.988-.986.987.987 0 0 0 .988.986M3.186 9.093a1.158 1.158 0 1 0-1.16-1.158 1.16 1.16 0 0 0 1.16 1.158M1.383 14.34A1.38 1.38 0 1 0 0 12.96a1.38 1.38 0 0 0 1.383 1.38m2.963-2.365a1.158 1.158 0 1 0-1.16-1.158 1.16 1.16 0 0 0 1.16 1.158m2.866-1.403a.986.986 0 1 0-.989-.986.987.987 0 0 0 .989.986m2.617-.592a.863.863 0 1 0-.868-.86.863.863 0 0 0 .868.86m2.247 0a.74.74 0 1 0-.74-.739.74.74 0 0 0 .74.74m.692-2.488a.616.616 0 1 0-.618-.615.617.617 0 0 0 .618.615m-.42-2.613a.616.616 0 1 0-.618-.616.617.617 0 0 0 .619.616m7.162 11.48a.616.616 0 1 0-.618-.615.616.616 0 0 0 .618.615m-5.755-10.76a.543.543 0 1 0-.543-.542.54.54 0 0 0 .543.542m1.038.834a.443.443 0 1 0-.445-.443.444.444 0 0 0 .445.443M14.2 8.207a.543.543 0 1 0-.543-.542.543.543 0 0 0 .543.542m-.271 2.167a.616.616 0 1 0-.618-.616.617.617 0 0 0 .618.616m.024 4.631a.616.616 0 1 0-.617-.616.617.617 0 0 0 .617.616m1.68 1.182a.542.542 0 1 0-.544-.542.543.543 0 0 0 .543.542m1.16 1.281a.443.443 0 1 0-.445-.443.444.444 0 0 0 .444.443m1.308-.347a.542.542 0 1 0-.543-.542.54.54 0 0 0 .543.542m-1.058-1.697a.616.616 0 1 0-.618-.615.616.616 0 0 0 .618.615m-1.708-1.65a.74.74 0 1 0-.74-.74.74.74 0 0 0 .74.74m5.557 1.38a.74.74 0 1 0-.74-.74.74.74 0 0 0 .74.74m-2.494-.937a.74.74 0 1 0-.74-.739.74.74 0 0 0 .74.74m3.729-.838a.863.863 0 1 0-.864-.861.863.863 0 0 0 .864.861M16.546 12a.863.863 0 1 0-.863-.862.864.864 0 0 0 .863.862m3.087.419a.863.863 0 1 0-.864-.862.863.863 0 0 0 .864.861m3.383-1.404a.986.986 0 1 0-.987-.986.987.987 0 0 0 .987.986m-2.47-.961a.986.986 0 1 0-.988-.985.987.987 0 0 0 .989.985m-3.086-.418a.986.986 0 1 0-.988-.986.987.987 0 0 0 .988.986m3.482-2.489a1.158 1.158 0 1 0-1.16-1.158 1.16 1.16 0 0 0 1.16 1.158m-3.087-.443a1.158 1.158 0 1 0-1.161-1.158 1.16 1.16 0 0 0 1.16 1.158m1.16 16.035a1.38 1.38 0 1 0-1.383-1.377 1.38 1.38 0 0 0 1.383 1.377M17.46 3.255a1.38 1.38 0 1 0-1.384-1.38 1.38 1.38 0 0 0 1.384 1.38"/></svg>