<svg xmlns="http://www.w3.org/2000/svg" viewBox="0 0 24 24"><path d="M12.53.507 5.944 13.856l4.761-5.735 1.827 15.372ZM5.46 3.845 4.932 4.93l1.852.42.519-1.075Zm2.243.528-.525 1.082 1.853.42.514-1.075Zm6 1.377-.518 1.082 1.85.423.521-1.075Zm2.244.528-.516 1.08 1.85.422.521-1.075ZM8.9 12.955a2 2 0 0 0-.195.01l-.24.58c.686-.117.983.076 1.24.79H.003L0 14.837h2.345v.282s-.928-.361-1.722.35c-.62.715-.102 1.414-.102 1.414s.518-.289 1.325-.151c.75.134.712.492.712.492s-.102.442-.705.357c-.607-.092-.561-.698-.561-.698l-.669.442s.258.436.831.576l.49.759h.764l-.577-.744a2 2 0 0 0 .197-.043c1.46-.39.948-1.5-.134-1.787-.75-.197-1.571.17-1.571.17s.111-.925 1.45-.705c.763.135 1.03.436 1.03.436v-1.15h1.504l-.63.295s.332.364.437.83c.102.488-.109.583-.247.593-.075-.066-.494-.646-.494-.646l-.3.256L4.428 17.8h.728l-.774-.964c.167-.013.4-.068.56-.272.107.055.239.101.394.114.475.036.76-.193.76-.193V17.8h.762v-2.964h1.645l-.629.294s.332.364.436.83c.099.489-.111.584-.252.594-.069-.066-.495-.646-.495-.646l-.292.256 1.04 1.633h.734s-.66-.823-.764-.961c.243-.02.632-.132.711-.692.097-.728-.226-1.171-.346-1.308h.9v2.96h.764v-2.96h.397v-.502h-.554c-.3-1.076-.664-1.38-1.25-1.38m4.992.33a.414.414 0 0 0-.413.424c0 .214.182.416.413.416.265 0 .43-.223.43-.416a.42.42 0 0 0-.43-.423m-.77 1.06v.495h2.955q-.616.142-1.027.56c-.137.144-.27.355-.387.643a4 4 0 0 0-.144.38q1.274.006 1.616.129c.16.065.309.147.456.252.184.135.279.269.302.403h-1.731l-.59.594h2.029c.593-.456.882-.823.882-1.115a.53.53 0 0 0-.16-.364c-.233-.23-.548-.384-.939-.453-.206-.033-.57-.055-1.081-.055a8 8 0 0 0 .216-.335c.102-.131.207-.193.305-.193q.407-.001 1.315.505l.597-.6a6 6 0 0 0-.682-.352L24 14.84v-.495zm-7.027.492v.865s.003.23-.456.463c-.2.103-.403.144-.576.157a1 1 0 0 0 .038-.177c.094-.728-.232-1.172-.353-1.308zm7.427.406v2.551h.731v-2.55zm4.551.003v2.551h.735V16.06q.293-.126.587-.124c.207 0 .364.05.479.157.147.158.213.397.19.732l.613-.604c.02-.315-.05-.558-.216-.718a.67.67 0 0 0-.489-.197q-.29.001-.643.194-.31.155-.52.38v-.633zm2.991 0v1.9s.013.372.25.546c.173.115.406.105.406.105h1.984v-1.865c0-.333-.186-.685-.541-.685zm1.79.665c.188.002.167.048.167.355v.85l-1.14-.004s-.109.014-.138-.026c-.036-.046-.02-.098-.02-.348v-.826z"/></svg>