<svg xmlns="http://www.w3.org/2000/svg" viewBox="0 0 24 24"><path d="M7.806 3.845h2.563v5.126H7.806zm-1.531 1.65a2 2 0 0 0-.397-.239 1.1 1.1 0 0 0-.463-.084q-.251 0-.391.102a.33.33 0 0 0-.141.28q0 .138.135.227.134.09.337.17t.439.168q.236.086.439.212.203.125.337.307.135.182.135.457 0 .382-.272.648c-.272.266-.435.289-.761.337v.878h-.478v-.866a2.1 2.1 0 0 1-.615-.158 2 2 0 0 1-.526-.314l.311-.471q.257.173.519.28a1.5 1.5 0 0 0 .574.108q.286 0 .433-.108a.34.34 0 0 0 .146-.286.31.31 0 0 0-.135-.257q-.134-.102-.337-.188a8 8 0 0 0-.436-.173 2.6 2.6 0 0 1-.436-.212 1.2 1.2 0 0 1-.337-.302.7.7 0 0 1-.134-.445q0-.387.262-.633.263-.244.711-.304v-.782h.478v.776q.316.036.54.161t.409.311zM4.11 3.053c-.456.244-.813.601-1.057 1.057s-.373.908-.373 2.154v11.472c0 1.246.129 1.698.373 2.154s.601.813 1.057 1.057.908.373 2.154.373h11.472c1.246 0 1.698-.129 2.154-.373s.813-.601 1.057-1.057.373-.908.373-2.154V6.264c0-1.246-.129-1.698-.373-2.154s-.601-.813-1.057-1.057-.908-.373-2.154-.373H6.264c-1.246 0-1.698.129-2.154.373M6.309.932h11.382c1.87 0 2.548.195 3.231.56.684.366 1.22.902 1.586 1.586.365.683.56 1.361.56 3.231v11.382c0 1.87-.195 2.548-.56 3.231a3.8 3.8 0 0 1-1.586 1.586c-.683.365-1.361.56-3.231.56H6.309c-1.87 0-2.548-.195-3.231-.56a3.8 3.8 0 0 1-1.586-1.586c-.365-.683-.56-1.361-.56-3.231V6.309c0-1.87.195-2.548.56-3.231a3.8 3.8 0 0 1 1.586-1.586c.683-.365 1.361-.56 3.231-.56M2.742.716A4.86 4.86 0 0 0 .716 2.742C.249 3.615 0 4.481 0 6.87v10.26c0 2.389.249 3.255.716 4.128a4.86 4.86 0 0 0 2.026 2.026c.873.467 1.739.716 4.128.716h10.26c2.389 0 3.255-.249 4.128-.716a4.86 4.86 0 0 0 2.026-2.026c.467-.873.716-1.739.716-4.128V6.87c0-2.389-.249-3.255-.716-4.128A4.86 4.86 0 0 0 21.258.716C20.385.249 19.519 0 17.13 0H6.87C4.481 0 3.615.249 2.742.716"/></svg>