<svg xmlns="http://www.w3.org/2000/svg" viewBox="0 0 24 24"><path d="M14.816 22.377c0 .073-.128.132-.286.132-.159 0-.287-.06-.287-.131 0-.073.128-.132.286-.132.159 0 .287.059.287.131m-.738.156c0 .075-.126.136-.281.136s-.282-.061-.282-.136.126-.136.282-.136.281.06.281.136m-.743.14c0 .07-.174.127-.388.127s-.388-.057-.388-.126c0-.07.174-.127.388-.127s.388.057.388.127m-1.136.112c0 .089-.158.16-.354.16s-.354-.071-.354-.16c0-.088.158-.16.354-.16s.354.072.354.16m-1.194.04c0 .096-.237.174-.53.174-.291 0-.528-.078-.528-.175s.237-.175.529-.175.529.078.529.175m1.107-.88c.612-.029.772-.121.791-.325 0 0 .122-.15-.291-.233-.413-.082-.995-.082-.893-.413.102-.335 1.155-.393 1.786-.393s1.345-.039 1.253.301c-.088.34-.549.345-.51.573s.418.16.35.52c-.068.359-1.743.49-2.928.592-1.18.102-1.932-.02-1.743-.34.19-.32 1.573-.252 2.185-.282m-9.97 1.076c.007.045-.127.102-.3.127-.172.025-.317.009-.324-.036-.006-.045.128-.102.3-.127.173-.025.318-.01.325.036m.093.226c.007.053-.148.12-.347.148-.199.03-.366.01-.374-.043s.147-.12.346-.149c.2-.029.367-.01.375.044m.164.204c.008.053-.147.12-.346.148-.199.03-.367.01-.374-.043s.147-.12.346-.149.367-.01.374.044m.739.114c.009.064-.15.138-.355.166-.204.028-.377-.001-.386-.065-.008-.064.15-.138.355-.166.204-.028.377.001.386.065m1.18.13c.007.084-.24.17-.55.196s-.566-.023-.572-.106.239-.17.549-.194.567.022.573.105m1.193.002c.018.084-.2.203-.489.265-.288.063-.536.046-.555-.038-.018-.084.2-.203.49-.265.287-.063.536-.046.554.038m1.246-2.033c.355-.078 1.986-.039 2.03.247.053.292-2.67.544-3.287.631-.617.088-.641.263-.641.263 0 .014-.053.155.35.15.563-.01.956.107.723.379s-2.811.199-3.34 0c-.53-.2-.32-.398-.049-.5.272-.097 1.044-.19 1.937-.36.894-.17 1.928-.728 2.277-.81m6.792-9.734a.646.646 0 1 1-1.291 0 .646.646 0 0 1 1.29 0m-6.233 1.51a.646.646 0 1 1-1.292 0 .646.646 0 0 1 1.291 0m-2.991 6.583c-.354 0-.602-.14-.757-.418a1.3 1.3 0 0 1-.131-.373c-.063-.335-.044-.729.029-1.098.082-.412.228-.796.383-1.039.141-.223.272-.368.389-.465a51 51 0 0 0 .52 1.32c.237.587.455 1.107.616 1.476-.01.02-.025.034-.04.053-.232.31-.557.544-1.009.544m15.016-2.194a.2.2 0 0 0 .019.072c.053.292.233 1.078.354 1.53-1.864.208-4.505.34-7.432.34-2.476 0-4.748-.093-6.515-.248a87 87 0 0 1-.675-1.607c-.597-1.456-1.33-3.393-1.558-4.578-.21-1.092-.462-2.418.116-3.612l-.33-.029c-1.369-.146-1.553-.413-1.626-.524a.38.38 0 0 1-.04-.374c.122-.306.535-.583 1.015-.81a5 5 0 0 0 .136.28c-.437.21-.776.433-.859.646-.02.044-.01.063.005.088.068.097.461.398 2.685.47a.63.63 0 0 1-.5-.504.63.63 0 0 1 .058-.393 6 6 0 0 0-.602.364S1.936 6.765 3.12 6.046a.76.76 0 0 1 .398-.121c.99 0 1.723 2.16 1.723 2.16s-.145.054-.359.15c.262.025.782.146 1.83.569 1.068.432 1.496.46 1.612.46A.63.63 0 0 1 9 9.344l.034.034a23 23 0 0 0 .456-.04q.072-.008.195-.038a.63.63 0 0 1 .286-.583.62.62 0 0 1 .733.044.4.4 0 0 0 .087-.034c.272-.136 1.233-1.16 1.957-2.034a.62.62 0 0 1 .612-.214c.194-.655.97-2.976 2.155-2.976 1.379 0 .578 2.729.442 2.923 0 0-.32-.024-.758-.024-.485 0-1.116.029-1.63.165l.053.039a.624.624 0 0 1 .082.878c-.116.136-.267.32-.442.52.36-.146.733-.306 1.107-.466a49 49 0 0 0 1.724-.792h.01l.004-.01c.442-.213.84-.417 1.175-.606 1.17-.656 1.316-.942 1.33-1.015.01-.048 0-.063-.005-.068-.01-.02-.092-.097-.46-.097-.404 0-.967.092-1.554.219a4 4 0 0 0 .029-.326c.573-.116 1.121-.204 1.529-.204.369 0 .592.068.709.214a.37.37 0 0 1 .068.335c-.044.19-.243.52-1.48 1.214a9 9 0 0 1-.375.204c-.092.053-.194.102-.296.155.558.47.976 1.175 1.238 2.194.53 2.04.937 4.428 1.219 6.321-.462.058-.743.277-.801.631-.063.384.136.592.344.816.224.238.48.505.563 1.107M14.5 5.498c0 .024.004.02.004.02l.063-.117c.044-.073.102-.175.17-.296.073-.122.156-.258.258-.38.048-.057.106-.116.165-.16a.44.44 0 0 1 .184-.082c.02 0 .034-.005.049-.005.014.005.034 0 .048.005.015.005.034.005.049.01l.039.01.01.004c0 .005.004.005.004.01.01.015.015.044.02.078 0 .068-.005.15-.02.223-.01.073-.029.146-.044.214-.033.136-.063.247-.082.33-.024.082-.034.13-.034.13s.034-.033.087-.101c.054-.063.122-.165.195-.291.034-.063.072-.136.102-.219s.058-.175.068-.281a.4.4 0 0 0-.02-.185c-.005-.02-.014-.034-.024-.053l-.015-.025-.02-.024a.4.4 0 0 0-.101-.077l-.01-.005h-.005l-.014-.005h-.005l-.02-.01-.043-.015c-.024-.01-.058-.014-.088-.019s-.063-.005-.092-.005c-.029.005-.063.005-.092.01a.7.7 0 0 0-.32.155c-.088.073-.151.156-.204.238-.102.165-.16.33-.2.471a2 2 0 0 0-.058.35q-.006.058-.005.097m-4.287 3.578a.187.187 0 0 0-.063.252c.014.02.092.131.257.194a.7.7 0 0 0 .252.044c.146 0 .306-.039.471-.112.36-.16 1.238-1.048 2.243-2.257a.184.184 0 0 0-.14-.301.18.18 0 0 0-.141.068c-.433.52-1.656 1.922-2.093 2.146l-.02.01q-.078.03-.15.053l-.223.063-.18-.146a.17.17 0 0 0-.116-.043.2.2 0 0 0-.097.029M9.17 14.304c.058.335.587.524 1.185.427.597-.097 1.038-.451.98-.786s-.587-.525-1.184-.427c-.597.102-1.034.456-.981.786M4.417 7.949l.073.093s-.005-.015-.005-.035c-.005-.019-.005-.048-.014-.087a2 2 0 0 0-.078-.31 2.4 2.4 0 0 0-.175-.418 2 2 0 0 0-.14-.223 1 1 0 0 0-.205-.214c-.048-.03-.097-.063-.165-.083-.014-.004-.034-.004-.053-.01h-.073c-.01 0-.029.006-.034.006l-.029.01-.02.004-.004.005-.01.005a.34.34 0 0 0-.16.136.45.45 0 0 0-.054.175c-.01.106.015.194.035.272.024.077.053.15.082.208a1.5 1.5 0 0 0 .17.272q.036.045.058.068l.024.024-.024-.116c-.014-.073-.039-.18-.058-.301a2 2 0 0 1-.024-.194.6.6 0 0 1 .01-.19.1.1 0 0 1 .024-.053c.01-.005.014-.01.029-.015h.01l.014-.005c.005 0 0 .005 0 .005h.005a.2.2 0 0 1 .063.034c.049.04.102.093.15.15.054.064.102.122.146.185.087.126.175.248.248.35a5 5 0 0 0 .184.252m.355 1.078.034.005c.13.015.553.092 1.592.51.854.344 1.5.52 1.913.52.31 0 .393-.098.422-.132.044-.053.049-.107.044-.136a.19.19 0 0 0-.185-.17.16.16 0 0 0-.082.02l-.088.043h-.116c-.248 0-.762-.082-1.767-.49-1.204-.485-1.646-.539-1.777-.539-.03 0-.039 0-.058.005a.2.2 0 0 0-.117.078.182.182 0 0 0 .15.286zm.043 3.695a2.039 2.039 0 1 0 4.078 0 2.039 2.039 0 0 0-4.078 0m5.525 3.364c-.267.102-.5.247-.704.374.049.218.199.708.631.582.354-.107.15-.733.073-.956m.621.781c.117.044.578.083.534-.475-.014-.195-.029-.33-.038-.423q-.065-.006-.122-.005c-.136 0-.262-.004-.369-.004-.111 0-.17.004-.194.01l-.155.028c.038.253.145.797.344.87m1.787-1.378c.432-.195.432-.525.408-.695-.03-.18-.297-.558-1.38-.568 0 0-.334.782-1.242.928-.908.15-1.296-.025-1.451-.219 0 0-.874.257-.947.81-.073.554.66.749 1.01.554s.873-.616 1.573-.708c.373-.049 1.597.092 2.029-.102m2.47-4.234a2.039 2.039 0 1 0-4.077 0 2.039 2.039 0 0 0 4.078 0M3.117 18.198a3.3 3.3 0 0 0-.024.956c-.66-.14-1.034-.306-1.034-.476s.383-.335 1.058-.48m18.487.038c.573.136.888.287.883.442 0 .248-.767.476-2.063.656.233-.063.495-.233.796-.515a1.5 1.5 0 0 0 .35-.5 1 1 0 0 0 .034-.083m-.35-.072a1.05 1.05 0 0 1-.276.388c-.389.369-.622.447-.753.447-.257 0-.447-.36-.558-1.064-.005-.048-.015-.097-.02-.145-.092-.7-.412-1.04-.645-1.282-.204-.213-.301-.33-.262-.548.053-.316.436-.384.747-.384.146 0 .257.015.257.015h.02c.573.01 1.17.529 1.451 1.252.156.398.219.903.04 1.32M4.71 6.362a2 2 0 0 0-.326-.36c-.01-.398-.01-.757.01-.898.039-.262.69-1.024 1.296-1.607.51-.49 1.486-1.335 2.301-1.5q.189-.037.442-.038c1.554 0 4.7 1.165 4.855 1.32l.01.01c.038-.379.077-.908.01-1.059 0 0 .295.093.349.277 0 0 .733-.738.66-1.655 0 0 .165 0 .184.296 0 0 .53-1.253.918-1.141s-.126 1.86-.403 2.19c0 0 .442-.107.495-.404 0 0 .054.258-.02.403 0 0 .996-.81.957-1.12 0 0 .131.315.092.552 0 0 .826-.66.826-.937 0 0 .126 1.603-1.471 2.19 0 0 .422-.053.626-.092 0 0-.175.228-.442.553q-.242-.152-.563-.15c-.64 0-1.228.485-1.748 1.442.078-.418-.029-.758-.184-.792q-.009-.006-.024-.005c-.16 0-.389.277-.481.69-.092.437.015.806.175.84.058.014.13-.02.204-.088-.15.36-.267.694-.345.932-3.976 1.792-6.505 1.753-7.656 1.573a7 7 0 0 0-.442-.942c-.058-.097-.116-.194-.174-.281 2.776.747 6.476-.65 7.956-1.296-.077-.219-.087-.5-.02-.806.064-.296.195-.549.355-.719a2 2 0 0 0-.072-.242c-.34-.185-3.156-1.234-4.627-1.234-.146 0-.272.015-.379.034-1.3.267-3.277 2.53-3.35 2.85-.024.155-.014.68.005 1.214"/></svg>