<svg xmlns="http://www.w3.org/2000/svg" viewBox="0 0 24 24"><path d="M8.073 24q-.523 0-1.02-.189a2.85 2.85 0 0 1-1.726-3.402l-.015-.006.09-.226L12.399 2.01c.105-.27.057-.91.006-1.267a.5.5 0 0 1 .008-.24l.008-.023.006-.015V.458l.009-.019c.108-.292.45-.439 1.008-.439.673 0 1.602.21 2.551.573.797.307 1.523.689 2.033 1.075.602.45.842.854.707 1.2l-.031.045-.016.015a.8.8 0 0 1-.15.165c-.314.271-.764.735-.84.945l-7.063 18.421-.016-.006a2.87 2.87 0 0 1-2.543 1.561H8.07zm-2.187-3.718-.02.05A2.36 2.36 0 0 0 7.23 23.35q.407.156.837.154c.971 0 1.83-.585 2.188-1.5l.027-.061 6.959-18.09c.146-.39.84-1.02.979-1.14l.016-.016c.012-.015.02-.015.02-.03 0-.06-.061-.27-.557-.645-.479-.36-1.154-.72-1.904-1.005-.868-.328-1.768-.539-2.368-.539-.39 0-.524.082-.545.126v.04c.016.104.147 1.035-.034 1.515l-6.962 18.12zm8.95-11.507s-.964 1.109-1.843 1.509c-.88.398-1.529.293-2.32.756-.789.461-1.188 1.103-1.188 1.103L6.27 20.505c-.348.944.168 2.05 1.125 2.42.96.369 2.04-.12 2.412-1.056zM9.905 18.76c.104-.041.225 0 .266.105.042.104 0 .222-.105.264-.104.043-.225 0-.266-.104a.204.204 0 0 1 .105-.265m-1.014-1.802a.297.297 0 0 1-.397-.155.296.296 0 0 1 .154-.397c.154-.07.335 0 .398.153.074.15.008.314-.155.39zm.286-1.096a.58.58 0 0 1 .287-.758.574.574 0 0 1 .75.285.583.583 0 0 1-.285.757c-.3.126-.629 0-.765-.285zm2.426-2.258a.295.295 0 0 1 .398.15c.07.154 0 .336-.153.399a.297.297 0 0 1-.399-.155.293.293 0 0 1 .154-.397zm-1.293-1.379c.105-.042.226 0 .266.105.043.104 0 .226-.104.266-.104.042-.226 0-.265-.104a.205.205 0 0 1 .103-.267M13.681 1.14c.1-.261.993-.162 1.995.226.999.384 1.729.909 1.63 1.17-.104.264-.997.164-1.996-.221-1.005-.385-1.734-.91-1.632-1.176z"/></svg>