<svg xmlns="http://www.w3.org/2000/svg" viewBox="0 0 24 24"><path d="M.779 9.795h.926v4.986a1.265 1.265 0 0 1-1.344 1.256H0v-.869h.265c.316 0 .52-.147.52-.491V9.795M.779 7.96h.926v.926H.779zm2.444 3.748a.98.98 0 0 1 .971-1.081.98.98 0 0 1 .97 1.081zm2.867.762v-.762l.001-.074a1.877 1.877 0 0 0-1.868-1.868h-.029c-.887 0-1.897.565-1.897 2.365 0 1.885 1.095 2.337 2.043 2.337a2.12 2.12 0 0 0 1.665-.723l-.671-.564a1.45 1.45 0 0 1-1.005.446q-.036.003-.072.002a1.037 1.037 0 0 1-1.029-1.131zm.734-4.047h.925v1.372h.672v.705h-.672v2.681c0 .254.102.344.328.344h.344v.869h-.48a1.06 1.06 0 0 1-1.129-1.128v-2.738H6.35v-.733h.462zm4.673 3.127a.98.98 0 0 1 1.081.971.98.98 0 0 1-1.081.97H9.99V11.55zm-2.483 2.867h2.755a1.77 1.77 0 0 0 1.761-1.761l-.001-.073a1.45 1.45 0 0 0-1.05-1.49c.588-.201.977-.768.954-1.389 0-1.016-.655-1.732-1.913-1.732H9.019v6.456m2.393-5.587a.935.935 0 0 1 1.034.925.936.936 0 0 1-1.034.926H9.996V8.841zm2.647-.881h.926v5.272c0 .209.119.316.344.316h.316v.869h-.406c-.672 0-1.18-.288-1.18-1.129zm1.976 1.835h.925v2.737a.92.92 0 0 0 .912.986.92.92 0 0 0 .911-.986V9.795h.926v4.599h-.926v-.491a1.47 1.47 0 0 1-1.19.565 1.554 1.554 0 0 1-1.542-1.547l.001-.05zm5.096 1.913a.97.97 0 0 1 .971-1.072c.565 0 .943.372.971 1.072zm2.868.762v-.762l.001-.074a1.877 1.877 0 0 0-1.868-1.868h-.03c-.886 0-1.896.565-1.896 2.365 0 1.885 1.095 2.337 2.037 2.337a2.12 2.12 0 0 0 1.66-.745l-.672-.565a1.45 1.45 0 0 1-1.071.448 1.037 1.037 0 0 1-1.029-1.131z"/></svg>