<svg xmlns="http://www.w3.org/2000/svg" viewBox="0 0 24 24"><path d="M13.55 2.194v-.075q0-.525.338-.938.337-.412.862-.412c.525 0 .663.112.938.337s.425.525.45.9q.037.563-.338.938c-.375.375-.55.375-.9.375l-.225.075.075.112-.075.413-.15 1.2q.075.075.075.15l-.15.75q-.075.15-.15.225l-.075.3a23 23 0 0 1-.45 1.575v.15q-.075.375-.112.6t-.263.75q-.15.3 0 .975l.075.075q0 .225.188.525c.188.3.187.375.187.525q.075 1.5-.225 2.55l.15.45q.9.45.525.975l.375.15q.9.45 1.275.787.375.338.75.713.3.075.45.225l.225.075q1.575 1.05 3.15 2.55l.3.225v.075l-.075.15.225.15h.075q.225.15.3.15h.075q.075 0 .15-.075l.15-.075q.15-.15.3-.225h.3q.075 0 0 .075l-.3.15-.375.45h.525l.525.075q.225-.075.375-.15l.375-.225q.225-.075.45.15h.075q.075.075-.075.225l-.9.825q-.375.3-.675.375l-.975.675q-.075.075-.15 0l-.225-.3-.15-.3-.188-.263-.225-.3-.187-.225-.15-.187-.3-.225q-.15 0-.3-.075l-.975-.75q-.225 0-.525-.225-1.125-.975-1.5-1.2l-.45-.3-.9-.15q-.45-.075-1.2-.45l-.6-.3q-.6-.3-.825-.3l-.3-.15q-.3-.075-.45-.15l-.15-.15q-.15 0-.3.075l-1.5.75-1.875.825q-.75.6-1.425.975l-.825.375-1.275.9q-.15.15-.3 0l-.15.15q-.225.075-.3.075l-.3.15v.15H3.2l-.15.225q-.15.3-.3.337t-.187.113a.4.4 0 0 1-.075.112l-.15.15-.225.15-.338-.037-.45.075-.3.075q-.375.075-.6-.113-.225-.187-.375-.562-.15-.225.15-.375l.075-.075q.075-.075.225-.075h.45l.6-.225.3-.075q0-.15.075-.225t.225-.075v-.075a.7.7 0 0 1-.075-.3q-.076-.15-.037-.225.037-.075.075-.075h.037l.075.225q.075.375.225.225l.075-.15q.075-.15.225-.15l.15.15.15-.15-.075-.075q0-.075.075-.075l.3-.3q.375-.45.9-.825 1.05-.825 2.25-1.275.375-.375.825-.375.3-.525.9-1.125.525-.375.75-.525.15-.3.375-.3h.075l.15-.15q.15-.075.225-.15v-.375q0-.375.075-.6t.375-.225l.3-.3q-.15-.3-.15-.675h-.075q-.15-.225-.15-.45-.225-.375-.3-.6H9.65q-.075.225-.375.3l-.075.15q-.3.525-.525.787-.225.263-.825.638-.375.375-.525.825-.075.225 0 .45l-.075.15h.075q0 .15.075.15h.075q.15.075.15.187c0 .112-.075.1-.225.075a.6.6 0 0 1-.337-.15q-.113-.112-.188-.112l-.225.225q-.15.225-.3.187-.15-.037-.075-.112l.075-.075q.075-.15 0-.15l-.6.15q-.075.075-.187 0c-.112-.075-.063-.1.037-.15l.375-.15q0-.075-.075-.075-.3.15-.6.075l-.375-.075-.075-.075q0-.075.075-.075.3.075.75-.075l.525-.225.6-.675.075-.15q.3-.6.638-1.088a3.7 3.7 0 0 1 .712-.787l.075-.3q.15-.3.3-.525t.375-.6l.225-.3q.3-.45.675-.45l.225-.225q.075-.075.075-.225l.15-.15-.075-.075q-.45-.375-.45-.675-.075-.525.338-.9c.413-.375.55-.363.825-.338q.412.038.637.263l.15.15q.075 0 .075.075l.3.15v.225q.15.15.15.225.15-.225.45-.525l.375-1.2q0-.3.15-.6l.15-.225v-.15l.225-.9h.15l.225-.9a.93.93 0 0 0 0-.525l-.3-.75z"/></svg>