<svg xmlns="http://www.w3.org/2000/svg" viewBox="0 0 24 24"><path d="m4.822 13.107.112-.07A1.36 1.36 0 0 1 4.453 12a1.37 1.37 0 0 1 1.374-1.365c.41 0 .776.18 1.03.462l.016-.027c.115-.203.226-.402.31-.6.038-.078.066-.157.097-.233a2.3 2.3 0 0 0-1.452-.517A2.287 2.287 0 0 0 3.533 12c0 .562.205 1.076.544 1.473a3 3 0 0 0 .14-.058c.2-.085.4-.194.605-.308m2.702-2.642a5 5 0 0 1-.312.787 7 7 0 0 1-.118.216 1.4 1.4 0 0 1 .108.532 1.37 1.37 0 0 1-1.88 1.269 6 6 0 0 1-.316.175 5 5 0 0 1-.673.272l-.012.004a2.3 2.3 0 0 0 1.506.56A2.287 2.287 0 0 0 8.122 12a2.26 2.26 0 0 0-.598-1.535m-6.202-.673H2.72v2.754q0 .887-.437 1.31-.438.42-1.36.42A3.7 3.7 0 0 1 0 14.16v-.96a1.4 1.4 0 0 0 .446.076q.474 0 .674-.23.202-.231.202-.795zm7.555 0h1.4v2.55q-.001.56.199.811.2.25.638.25.45 0 .68-.27.229-.266.228-.791v-2.55h1.332v2.55q0 .969-.56 1.45-.559.484-1.68.484-1.11 0-1.673-.486-.564-.487-.563-1.448zm6.914 0h1.687l1.985 4.383h-1.495l-.372-.928h-2.02l-.39.928h-1.385zm.815.978-.68 1.644h1.337zm2.174-.978h1.462l1.17 3.41 1.156-3.41H24l-1.778 4.383h-1.754z"/></svg>