<svg xmlns="http://www.w3.org/2000/svg" viewBox="0 0 24 24"><path d="M11.851 0 .811 4.02l1.56 14.7L11.85 24l9.6-5.28 1.74-14.76zm.062 4.622a6.668 6.75 0 0 1 2.666.572 12.5 12.5 0 0 0-2.59 1.95c-.045-.02-.092-.031-.138-.045a1.2 1.2 0 0 0-.346-.056c-.071 0-.141.01-.21.021a9 9 0 0 1-.615-2.318 6.668 6.75 0 0 1 1.171-.122 6.668 6.75 0 0 1 .062-.002m-1.99.312a9.8 9.8 0 0 0 .69 2.504 1.2 1.2 0 0 0-.328.825 1.2 1.2 0 0 0 .18.63c-.937 1.294-1.656 2.803-1.905 4.31-.01.056-.013.11-.02.166-.282.09-.515.284-.656.54-.987-.333-1.885-.968-2.615-2.022a6.668 6.75 0 0 1-.026-.515 6.668 6.75 0 0 1 4.68-6.438m5.507.709a6.668 6.75 0 0 1 2.53 2.9c-.377.953-1.049 1.892-1.893 2.727a1.24 1.24 0 0 0-.644-.184 1.24 1.24 0 0 0-.768.27 11 11 0 0 1-1.318-1.168c-.333-.35-.637-.73-.921-1.123.19-.215.31-.494.31-.802a1.2 1.2 0 0 0-.159-.586c1.058-1.008 2.112-1.67 2.863-2.034m-3.925 1.982a.62.62 0 0 1 .346.114.62.62 0 0 1 .292.524.62.62 0 0 1-.292.524.63.63 0 0 1-.346.113.634.634 0 0 1-.638-.637c0-.355.283-.638.638-.638m-.441 1.771a1.2 1.2 0 0 0 .675.062q.055.073.112.148a11 11 0 0 0 .921 1.119 12 12 0 0 0 1.446 1.277c-.032.11-.054.224-.054.342a1.2 1.2 0 0 0 .066.38 10 10 0 0 1-2.118 1.042c-.087.029-.173.052-.261.078a7.7 7.7 0 0 1-1.87.332 1.15 1.15 0 0 0-.66-.773q.004-.036.01-.073c.219-1.333.873-2.73 1.733-3.934m7.272.19a6.668 6.75 0 0 1 .245 1.786 6.668 6.75 0 0 1-.259 1.856 10 10 0 0 1-1.666-.63 1.24 1.24 0 0 0-.065-.713 9.4 9.4 0 0 0 1.745-2.3zm-2.913 2.101c.367 0 .657.291.657.658s-.291.657-.657.657-.658-.29-.658-.657.29-.658.658-.658m.837 1.59a11 11 0 0 0 1.802.688 6.668 6.75 0 0 1-6.149 4.157 6.668 6.75 0 0 1-.062-.004 6.668 6.75 0 0 1-.042 0c-.087-.042-.168-.08-.266-.129-.312-.154-.667-.352-.846-.5a3.8 3.8 0 0 1-1.294-2.03c.21-.111.38-.284.487-.495a8.4 8.4 0 0 0 1.96-.306 9 9 0 0 0 .513-.154 11 11 0 0 0 2.341-1.13c.205.143.452.23.719.23a1.25 1.25 0 0 0 .837-.328zm-10.707.116a5.8 5.8 0 0 0 2.212 1.298 1.15 1.15 0 0 0 .857.87 4.6 4.6 0 0 0 1.24 2.222 6.668 6.75 0 0 1-4.31-4.39zm3.327.464c.331 0 .595.263.595.596s-.264.595-.595.595a.59.59 0 0 1-.596-.595.59.59 0 0 1 .596-.596"/></svg>