<svg xmlns="http://www.w3.org/2000/svg" viewBox="0 0 24 24"><path d="M12.043 23.968c.479-.004.953-.029 1.426-.094a11.8 11.8 0 0 0 3.146-.863 12.4 12.4 0 0 0 3.793-2.542 12 12 0 0 0 2.44-3.427 11.8 11.8 0 0 0 1.02-3.476c.149-1.16.135-2.346-.045-3.499a12 12 0 0 0-.793-2.788 11 11 0 0 0-.854-1.617c-1.168-1.837-2.861-3.314-4.81-4.3a13 13 0 0 0-2.172-.87h-.005c.119.063.24.132.345.201.12.074.239.146.351.225a9 9 0 0 1 1.559 1.33c1.063 1.145 1.797 2.548 2.218 4.041.284.982.434 1.998.495 3.017.044.743.044 1.491-.047 2.229-.149 1.27-.554 2.51-1.228 3.596a7.5 7.5 0 0 1-1.903 2.084c-1.244.928-2.877 1.482-4.436 1.114a4 4 0 0 1-.748-.258 4.7 4.7 0 0 1-.779-.45 6 6 0 0 1-1.244-1.105 6.5 6.5 0 0 1-1.049-1.747 7.4 7.4 0 0 1-.494-2.54c-.03-1.273.225-2.553.854-3.67a6.4 6.4 0 0 1 1.663-1.918c.225-.178.464-.333.704-.479l.016-.007a5.1 5.1 0 0 0-1.441-.12 5 5 0 0 0-1.228.24c-.359.12-.704.27-1.019.45a6 6 0 0 0-.733.494c-.211.18-.42.36-.615.555-1.123 1.153-1.768 2.682-2.022 4.256-.15.973-.15 1.96-.091 2.95.105 1.395.391 2.787.945 4.062a8.5 8.5 0 0 0 1.348 2.173 8.14 8.14 0 0 0 3.132 2.23 8 8 0 0 0 2.113.54c.074.015.149.015.209.015zm-2.934-.398a4 4 0 0 1-.45-.228 8.5 8.5 0 0 1-2.038-1.534c-1.094-1.137-1.827-2.566-2.247-4.08a15.2 15.2 0 0 1-.495-3.172 12 12 0 0 1 .046-2.082c.135-1.257.495-2.501 1.124-3.58a6.9 6.9 0 0 1 1.783-2.053 6.2 6.2 0 0 1 1.633-.9 5.36 5.36 0 0 1 3.522-.045c.029 0 .029 0 .045.03.015.015.045.015.06.03.045.016.104.045.165.074.239.12.479.271.704.42a6.3 6.3 0 0 1 2.097 2.502c.42.914.615 1.934.631 2.938.014 1.079-.18 2.157-.645 3.146a6.4 6.4 0 0 1-2.638 2.832c.09.03.18.045.271.075.225.044.449.074.688.074 1.468.045 2.892-.66 3.94-1.647q.293-.27.54-.585c.225-.27.435-.54.614-.823.239-.375.435-.75.614-1.154a8 8 0 0 0 .509-1.664c.196-1.004.211-2.022.149-3.026-.135-2.022-.673-4.045-1.842-5.724a9 9 0 0 0-.555-.719 10 10 0 0 0-1.063-1.034 8.5 8.5 0 0 0-1.363-.915 10 10 0 0 0-1.692-.598l-.3-.06c-.209-.03-.42-.044-.634-.06a9 9 0 0 0-1.015.016c-.704.045-1.412.16-2.112.337C5.799 1.227 2.863 3.566 1.3 6.67A11.8 11.8 0 0 0 .238 9.801a11.8 11.8 0 0 0-.104 3.775c.12 1.02.374 2.023.778 2.977.227.57.511 1.124.825 1.648 1.094 1.783 2.683 3.236 4.51 4.24.688.39 1.408.69 2.157.944.226.074.45.15.689.21z"/></svg>