<svg xmlns="http://www.w3.org/2000/svg" viewBox="0 0 24 24"><path d="M20.614 7.2c-.002-.003-.072-.071-.087-.2a37 37 0 0 0-.568-4.08.66.66 0 0 0-.575-.516l-1.96-.236s-.022-.003-.052 0a.413.413 0 0 0-.413.412v.68c.007.033-.035.015-.041.018A27.5 27.5 0 0 0 12.972.293 1.74 1.74 0 0 0 12.003 0c-.592-.002-.953.293-.97.293C4.278 4.47.56 11.243.417 11.615c-.18.38.032.83.44.934l1.946.374a.67.67 0 0 1 .486.57c.016.343.384 8.015.846 10.005.007.061.174.499.648.499h.014a250 250 0 0 1 3.396-.063.22.22 0 0 0 .218-.219c0-.18-.028-.06-.231-3.956a.41.41 0 0 0-.203-.323 2.1 2.1 0 0 1-1.02-1.695c-.227-5.894.011-8.233-.008-8.233.012-.528.81-.512.783.046-.11 1.809-.09 3.621-.07 5.432.01.62.94.603.929-.017-.035-1.904-.025-3.834.073-5.461.006-.509.794-.53.782.046-.106 1.799-.093 3.601-.07 5.402.01.62.939.605.93-.015.01.011-.085-2.834.072-5.434.012-.528.783-.52.783.046-.152 2.69-.08 5.386 0 8.077a2.1 2.1 0 0 1-.91 1.731.4.4 0 0 0-.174.305s-.047.403.13 2.357c.054.572.116 1.142.177 1.713a.206.206 0 0 0 .206.18 469 469 0 0 1 4.056.009.206.206 0 0 0 .206-.182c.256-2.342.316-3.658.316-3.658a.23.23 0 0 0-.207-.225l-1.341-.185a.47.47 0 0 1-.401-.535c.536-7.81 3.109-10.44 3.109-10.44a1 1 0 0 1 .125-.103.413.413 0 0 1 .627.184.8.8 0 0 1 .033.188c.222 2.454.113 6.63-.024 9.888-.117 2.765-.258 4.936-.258 4.936a.16.16 0 0 0 .16.16q1.115.02 2.228.047a.67.67 0 0 0 .649-.498c.46-1.99.825-9.663.845-10.007a.665.665 0 0 1 .486-.568l1.946-.375a.67.67 0 0 0 .44-.934c-.035-.096-.917-1.852-2.97-4.418"/></svg>