<svg xmlns="http://www.w3.org/2000/svg" viewBox="0 0 24 24"><path d="M.103 7.348Q0 7.348 0 7.45v6.752q0 .102.103.102h.704q.102 0 .103-.103v-1.48l.418-.4 1.502 1.91a.18.18 0 0 0 .143.072h.909q.072 0 .082-.04.02-.062-.02-.102l-1.982-2.462 1.9-1.839q.03-.03.01-.092-.02-.05-.082-.05h-.94q-.07 0-.143.07L.91 11.608V7.45q0-.102-.103-.102zm18.041 0q-.102 0-.102.102v6.752q0 .101.102.101h.705q.102 0 .102-.102V7.45q0-.102-.102-.102zM5.961 9.625q-.848 0-1.634.542-.082.081-.031.143l.368.52q.04.072.133.021.592-.409 1.164-.409.44.001.669.266a.84.84 0 0 1 .2.644q-.991.102-1.482.245-1.245.357-1.246 1.358 0 .634.46 1.042.47.399 1.113.398.705 0 1.154-.337v.143q0 .103.113.102h.704q.102 0 .102-.102v-2.829q0-.99-.674-1.44-.459-.307-1.113-.307m4.323 0q-1.012 0-1.563.787-.47.654-.47 1.594 0 .99.49 1.644.562.745 1.553.745.797 0 1.277-.398v.531q0 1.287-1.236 1.287-.541 0-1.114-.572a.1.1 0 0 0-.071-.03.1.1 0 0 0-.082.03l-.48.48q-.061.093.01.154.204.173.358.29.153.118.265.19.531.296 1.124.296 1.02 0 1.578-.577.557-.578.557-1.69V9.82q0-.102-.102-.102h-.705q-.103 0-.102.102v.204q-.522-.399-1.287-.399m4.802 0q-1.012 0-1.563.787-.47.654-.47 1.594 0 .99.49 1.644.562.745 1.553.745.797 0 1.277-.398v.531q0 1.287-1.236 1.287-.541 0-1.114-.572a.1.1 0 0 0-.071-.03.1.1 0 0 0-.082.03l-.48.48q-.06.093.01.154.204.173.358.29.152.118.266.19.53.296 1.123.296 1.022 0 1.578-.577.557-.578.557-1.69V9.82q0-.102-.102-.102h-.705q-.102 0-.102.102v.204q-.522-.399-1.287-.399zm6.745 0q-.98 0-1.593.634-.664.694-.664 1.695 0 1.063.674 1.747.695.694 1.737.694.97 0 1.705-.551.082-.061 0-.143l-.48-.49q-.06-.062-.153 0-.45.316-1.011.316-.634 0-1.052-.357a1.32 1.32 0 0 1-.43-.838h3.32q.102 0 .102-.102l.01-.224q.052-1.032-.602-1.717a2.08 2.08 0 0 0-1.563-.664m-.02.787a1.2 1.2 0 0 1 .837.317q.368.316.378.786h-2.461q.09-.49.439-.797.346-.306.807-.306m-11.425.102q.93 0 1.185.654v1.685q-.255.654-1.216.654-.47 0-.766-.296-.399-.378-.398-1.206 0-1.491 1.195-1.491m4.802 0q.93 0 1.185.654v1.685q-.256.654-1.216.654-.47 0-.766-.296-.398-.378-.398-1.206 0-1.491 1.195-1.491m-8.359 1.655v1.021q-.429.429-1.144.378a.9.9 0 0 1-.45-.158.52.52 0 0 1-.224-.363q-.051-.399.45-.613.367-.163 1.368-.265"/></svg>