<svg xmlns="http://www.w3.org/2000/svg" viewBox="0 0 24 24"><path d="m3.647 13.643 1.113-2.62m-3.277.747 1.366-1.413H2.14L.577 12.009v-1.652H0v3.286h.577v-.953l.512-.526 1.122 1.479h.7L1.482 11.77zm11.06-.746.567 1.314h-.793l-.217.511h1.221l.334.794h.61l-1.446-3.31h-.535l-1.446 3.31h.592c.373-.88.736-1.741 1.112-2.62zm-7.783 0 .568 1.314h-.794l-.217.511H5.54l.333.794h.61l-1.445-3.31H4.5l-1.445 3.31h.591M24 11.995a1.72 1.72 0 0 0-.479-1.197 1.7 1.7 0 0 0-.54-.364 1.8 1.8 0 0 0-.694-.133 1.72 1.72 0 0 0-1.24.505 1.7 1.7 0 0 0-.356.541 1.7 1.7 0 0 0-.127.658 1.72 1.72 0 0 0 .479 1.196q.225.23.54.364.314.135.694.134a1.72 1.72 0 0 0 1.24-.505 1.7 1.7 0 0 0 .356-.542q.127-.309.127-.657m-.606.01q0 .24-.082.453-.081.213-.227.37a1.06 1.06 0 0 1-.798.34 1.08 1.08 0 0 1-.805-.347 1.2 1.2 0 0 1-.23-.373 1.3 1.3 0 0 1-.082-.453q0-.24.082-.453.081-.213.227-.37a1.06 1.06 0 0 1 .798-.34 1.08 1.08 0 0 1 .805.346q.149.16.23.374.082.213.082.453m-4.14-1.648v3.286h.578v-3.286zm-2.938 3.286h2.305v-.526h-1.728v-2.76h-.577zm-1.455-3.286v3.286h.577v-3.286zm-5.163.93v2.356h.577v-3.286H9.66l-1 1.554-1-1.554h-.614v3.286h.568v-2.347l1.028 1.54h.018l1.038-1.55zm-.499-1.74q4.743-1.527 8.606-1.717c1.125-.056 2.34-.077 3.452.12.397.07.782.18 1.137.356q.425.21.671.51.333-1.155-.53-1.688c-.54-.334-1.272-.413-1.889-.464q-4.09-.336-11.447 2.882zm5.637 5.235q-4.788 1.377-8.656 1.447c-1.126.02-2.341.003-3.446-.228a4.2 4.2 0 0 1-1.125-.391 2 2 0 0 1-.655-.53q-.368 1.144.477 1.703c.53.35 1.26.452 1.874.522q4.078.464 11.53-2.523z"/></svg>