<svg xmlns="http://www.w3.org/2000/svg" viewBox="0 0 24 24"><path d="M15.832 12.017a3.85 3.96 0 0 1-3.85 3.96 3.85 3.96 0 0 1-3.848-3.96 3.85 3.96 0 0 1 3.849-3.96 3.85 3.96 0 0 1 3.849 3.96M11.999 3.47a.72.72 0 0 0-.675.467A8.096 8.096 0 0 0 3.904 12a8.096 8.096 0 0 0 7.42 8.063.72.72 0 0 0 .676.467.72.72 0 0 0 .676-.468A8.096 8.096 0 0 0 20.096 12a8.096 8.096 0 0 0-7.421-8.064.72.72 0 0 0-.675-.467zm.648 1.044A7.52 7.52 0 0 1 19.517 12a7.52 7.52 0 0 1-6.871 7.485.72.72 0 0 0-.647-.401.72.72 0 0 0-.647.401A7.52 7.52 0 0 1 4.482 12a7.52 7.52 0 0 1 6.871-7.486.72.72 0 0 0 .646.401.72.72 0 0 0 .648-.401M12 0a.72.72 0 0 0-.676.467A11.57 11.57 0 0 0 4.33 3.384a.7.7 0 0 0-.283-.06.723.723 0 0 0-.723.724.7.7 0 0 0 .056.28 11.57 11.57 0 0 0-2.913 6.996A.72.72 0 0 0 0 12a.72.72 0 0 0 .468.676 11.57 11.57 0 0 0 2.907 7.012.7.7 0 0 0-.05.263.723.723 0 0 0 .723.723.7.7 0 0 0 .265-.05 11.57 11.57 0 0 0 7.015 2.918.72.72 0 0 0 .672.457.72.72 0 0 0 .676-.467 11.57 11.57 0 0 0 7.012-2.907.7.7 0 0 0 .263.05.723.723 0 0 0 .723-.724.7.7 0 0 0-.05-.265 11.57 11.57 0 0 0 2.918-7.015A.72.72 0 0 0 24 12a.72.72 0 0 0-.468-.676 11.57 11.57 0 0 0-2.907-7.012.7.7 0 0 0 .05-.263.723.723 0 0 0-.724-.723.7.7 0 0 0-.265.05A11.57 11.57 0 0 0 12.671.458.72.72 0 0 0 12-.001zm-.652 1.035a.72.72 0 0 0 .652.41.72.72 0 0 0 .647-.401 11 11 0 0 1 6.632 2.739.7.7 0 0 0-.05.265.723.723 0 0 0 .722.723.7.7 0 0 0 .262-.05 11 11 0 0 1 2.751 6.628.72.72 0 0 0-.41.65.72.72 0 0 0 .401.648 11 11 0 0 1-2.738 6.632.7.7 0 0 0-.266-.05.723.723 0 0 0-.723.722.7.7 0 0 0 .05.262 11 11 0 0 1-6.627 2.752.72.72 0 0 0-.651-.411.72.72 0 0 0-.648.401 11 11 0 0 1-6.632-2.738.7.7 0 0 0 .05-.265.723.723 0 0 0-.722-.723.7.7 0 0 0-.262.05 11 11 0 0 1-2.742-6.633.72.72 0 0 0 .401-.646.72.72 0 0 0-.4-.647 11 11 0 0 1 2.752-6.628.7.7 0 0 0 .25.046.723.723 0 0 0 .724-.723.7.7 0 0 0-.049-.257 11 11 0 0 1 6.626-2.756"/></svg>