<svg xmlns="http://www.w3.org/2000/svg" viewBox="0 0 24 24"><path d="M4.317 1.94a.75.75 0 0 0-.437.144c-.053.037-.097.084-.142.129a.75.75 0 0 0-.22.529L3.52 12.92a.75.75 0 0 0 .522.714l3.725 1.184a.75.75 0 0 0 .67-.11c.051-.037.095-.083.14-.128a.76.76 0 0 0 .22-.53V3.872a.75.75 0 0 0-.523-.713L4.547 1.974a.8.8 0 0 0-.23-.034m.2 1.089L7.796 4.07v4.334L4.519 7.347Zm5.433.194c-.058.04-.107.092-.157.142a.9.9 0 0 0-.26.626l.003 10.184c0 .656-.203 1.265-.544 1.627a1 1 0 0 1-.116.098.97.97 0 0 1-.578.188 1.4 1.4 0 0 1-.433-.076L.672 13.684a.5.5 0 0 0-.145-.023.48.48 0 0 0-.335.14l-.054.054a.473.473 0 0 0 .19.783l7.19 2.326c.234.08.48.122.728.125.404 0 .799-.128 1.126-.366a2.5 2.5 0 0 0 .306-.27c.278-.29.492-.635.625-1.013a3.9 3.9 0 0 0 .226-1.314v-1.443l4.455 1.421v1.856a6 6 0 0 1-.099 1.215q-.094.453-.279.664a1 1 0 0 1-.062.048.57.57 0 0 1-.32.08c-.229 0-.529-.08-.89-.236a.47.47 0 0 0-.522.1l-.055.054a.5.5 0 0 0-.1.147.474.474 0 0 0 .246.621c.48.208.909.313 1.272.313a1.46 1.46 0 0 0 .832-.235c.108-.068.2-.157.29-.246.268-.27.453-.648.563-1.159a6.7 6.7 0 0 0 .126-1.418l-.003-10.534a.89.89 0 0 0-.623-.847l-4.62-1.434a.9.9 0 0 0-.79.13zm.579.865 4.455 1.384v2.476L10.53 6.526zm6.757 2.963a.38.38 0 0 0-.282.11l-.055.055c-.122.124-.17.342-.116.55l2.571 10.48c.07.285.307.331.635.395l.024.005 1.931.135a.32.32 0 0 0 .226-.107l.054-.055a.63.63 0 0 0 .163-.554L19.864 7.587c-.036-.15-.095-.237-.197-.295s-.227-.084-.462-.105zm-6.757.541 4.455 1.42v4.033L10.53 11.62zm-6.012.818 3.278 1.058v4.295l-3.274-1.041ZM15.69 18.8l-.055.054a.5.5 0 0 0-.115.188.474.474 0 0 0 .305.595l7.503 2.4a.5.5 0 0 0 .145.023.47.47 0 0 0 .334-.139l.055-.055a.46.46 0 0 0 .115-.187.47.47 0 0 0-.029-.36.47.47 0 0 0-.275-.234l-7.503-2.4a.47.47 0 0 0-.48.115"/></svg>