<svg xmlns="http://www.w3.org/2000/svg" viewBox="0 0 24 24"><path d="M2.304 19.06c.226.01.454.04.667.12v-.002l.032.012 2.81-2.74.101.138c.146.2.3.38.464.56l.06.067c.043.043.077.086.12.13l.326.325.077.07.07.06a7.46 7.46 0 0 0 4.653 1.775 7.5 7.5 0 0 0 4.009-1.04l.216.225c.25.266.507.533.756.8a8.86 8.86 0 0 1-5.016 1.4 8.83 8.83 0 0 1-5.461-2.063l.01-.015-1.802 1.776A2.246 2.246 0 1 1 0 21.305a2.245 2.245 0 0 1 2.245-2.245zm17.17-11.583a8.83 8.83 0 0 1 1.28 4.826 8.8 8.8 0 0 1-2.208 5.615l.01.01 1.107 1.177c.446-.06.891.094 1.201.42a1.394 1.394 0 0 1-.052 1.966 1.394 1.394 0 0 1-1.966-.052 1.38 1.38 0 0 1-.352-1.22 337 337 0 0 0-1.95-2.069l-.11-.12.129-.103a7 7 0 0 0 .927-.885 7.43 7.43 0 0 0 1.88-4.775 7.44 7.44 0 0 0-.927-3.812l1.03-.98zM3.827 2.225c.395-.006.765.15 1.04.432.31.326.44.782.352 1.22L7.348 6.11l-.128.104a7 7 0 0 0-.928.885 7.49 7.49 0 0 0-.962 8.594l-1.022.996a8.76 8.76 0 0 1-1.287-4.852c.044-2.067.85-4.065 2.203-5.62L4.052 4.993a1.4 1.4 0 0 1-1.203-.42 1.396 1.396 0 0 1 .052-1.967c.217-.204.497-.335.794-.37q.067-.007.133-.01zM21.746.443a2.247 2.247 0 1 1-.7 4.38l-.002.002-.033-.012-3.049 2.894-.102-.138a7 7 0 0 0-.533-.626l-.034-.043-.265-.266-.12-.103-.077-.07-.06-.05-.077-.07a7.46 7.46 0 0 0-4.619-1.752 7.43 7.43 0 0 0-4.003 1.04l-.98-1.022a8.84 8.84 0 0 1 5.016-1.4 8.8 8.8 0 0 1 5.462 2.07h.017l2.02-1.916A2.246 2.246 0 0 1 21.75.444zm-9.79 5.015c.254 0 .507.02.76.05 3.623.455 6.19 3.76 5.744 7.385a6.624 6.624 0 0 1-7.385 5.745 6.624 6.624 0 0 1-5.746-7.385c.432-3.362 3.257-5.783 6.626-5.795zm-.1 2.84c-1.465.116-2.527 1.226-2.565 2.698.027 1.054.565 1.94 1.504 2.425l-.511 2.4h3.421l-.51-2.4c.935-.506 1.49-1.345 1.505-2.422-.02-1.521-1.197-2.667-2.705-2.705zm.052-.016h-.01z"/></svg>