<svg xmlns="http://www.w3.org/2000/svg" viewBox="0 0 24 24"><path d="M21.724 4.973 13.418.328a3.21 3.21 0 0 0-2.828 0L2.276 4.973A3.05 3.05 0 0 0 .862 7.371v9.256a3.05 3.05 0 0 0 1.414 2.4l8.306 4.645a3.21 3.21 0 0 0 2.828 0l8.314-4.645a3.05 3.05 0 0 0 1.414-2.4V7.373a3.05 3.05 0 0 0-1.414-2.4M12 4.921a2.571 2.571 0 1 1 .001 5.143A2.571 2.571 0 0 1 12 4.92zm3.094 13.627a9.1 9.1 0 0 1-3.103.549 9 9 0 0 1-3.076-.55 8.49 8.49 0 0 1-5.486-7.987v-.857c4.646.017 8.074 3.823 8.074 8.51v.198h.926v-.197c0-4.688 3.445-8.51 8.056-8.51.026.29.043.582.086.856a8.5 8.5 0 0 1-5.477 7.988"/></svg>