<svg xmlns="http://www.w3.org/2000/svg" viewBox="0 0 24 24"><path d="M.511 12.946H0v-2.615h.511zm.008-1.299.791-1.316h.571l-.839 1.298.839 1.316h-.57zm3.11.238v1.061h-.511v-2.615h.511v1.061h.843v-1.061h.511v2.615h-.51v-1.061zm3.37 1.061h-.511v-2.615h.621q.297 0 .442.021a.79.79 0 0 1 .587.358.8.8 0 0 1 .117.439.8.8 0 0 1-.167.515.74.74 0 0 1-.453.269l.653 1.014h-.609l-.678-1.212zm0-1.34h.114q.311 0 .474-.112a.38.38 0 0 0 .161-.328q0-.208-.136-.307-.135-.099-.422-.099h-.191zm8.51 1.34h-.502v-2.615h.485L16.574 12v-1.669h.502v2.615h-.475l-1.092-1.72zm2.962-1.313a1.35 1.35 0 0 1 .228-.765q.194-.283.487-.435a1.36 1.36 0 0 1 1.141-.053 1.37 1.37 0 0 1 .731.729 1.4 1.4 0 0 1 .005 1.04q-.097.247-.283.436a1.33 1.33 0 0 1-.963.413q-.292 0-.54-.105a1.3 1.3 0 0 1-.436-.309 1.34 1.34 0 0 1-.37-.951m.535-.018a.85.85 0 0 0 .221.58.8.8 0 0 0 .274.201.8.8 0 0 0 .316.071.76.76 0 0 0 .576-.244.85.85 0 0 0 .232-.608.78.78 0 0 0-.235-.569.76.76 0 0 0-.564-.236.8.8 0 0 0-.582.235.78.78 0 0 0-.238.57m3.389.522.469-.001v.037q0 .165.085.263a.29.29 0 0 0 .227.099.32.32 0 0 0 .241-.092.35.35 0 0 0 .089-.25q0-.252-.36-.362l-.074-.023q-.305-.095-.452-.27a.67.67 0 0 1-.147-.443q0-.368.204-.591a.7.7 0 0 1 .544-.223q.318 0 .506.198c.188.198.196.318.21.555h-.464v-.022a.27.27 0 0 0-.076-.2.27.27 0 0 0-.198-.076q-.126 0-.199.079c-.073.079-.072.124-.072.214q0 .058.015.101.015.045.048.079.074.08.316.15.108.028.165.049.269.091.398.262c.129.171.13.259.13.436q0 .404-.225.649a.77.77 0 0 1-.595.245.73.73 0 0 1-.566-.236q-.212-.24-.219-.627m-5.032 1.337-.07.077a.3.3 0 0 0-.103-.065.3.3 0 0 0-.111-.021.26.26 0 0 0-.2.084q-.08.084-.08.205c0 .121.027.15.08.205q.08.084.2.084a.3.3 0 0 0 .189-.067v-.173h-.155v-.102h.266v.336a.6.6 0 0 1-.147.085.4.4 0 0 1-.152.028.383.383 0 0 1-.395-.395.4.4 0 0 1 .233-.363.43.43 0 0 1 .32-.002.3.3 0 0 1 .125.084m1.091-.094h.143a1 1 0 0 1 .099.006.3.3 0 0 1 .068.022q.048.026.076.076c.028.05.028.072.028.114a.18.18 0 0 1-.048.128.2.2 0 0 1-.128.067l.229.31-.106.045-.252-.365v.347l-.112.009zm.113.1v.238h.04q.072 0 .112-.032a.11.11 0 0 0 .04-.09.1.1 0 0 0-.037-.087.2.2 0 0 0-.111-.03h-.044zm1.738-.119a.38.38 0 0 1 .256.095.403.403 0 0 1-.097.665.4.4 0 0 1-.161.032.4.4 0 0 1-.257-.095.4.4 0 0 1-.138-.302.4.4 0 0 1 .254-.371.4.4 0 0 1 .143-.024m0 .104a.26.26 0 0 0-.2.084q-.08.084-.08.205c0 .121.027.15.08.205q.08.083.201.083a.284.284 0 0 0 .281-.289.28.28 0 0 0-.282-.288m1.563-.095v.426q0 .135.035.191.035.054.117.054c.082 0 .096-.017.12-.052s.037-.092.037-.172v-.436l.108-.01v.473q0 .091-.013.141c-.013.05-.025.061-.045.085a.2.2 0 0 1-.087.059.3.3 0 0 1-.115.022q-.136 0-.203-.076t-.067-.231v-.461zm1.515.01h.199q.128 0 .196.058.067.059.067.169 0 .104-.077.167a.34.34 0 0 1-.213.061l-.057-.003h-.003v.297l-.112.009zm.112.1v.25l.031.004.037.001q.081 0 .124-.032a.11.11 0 0 0 .043-.096q0-.066-.039-.097t-.123-.031h-.073zm-12.03-.704c-.897-.032-2.123-.442-2.377-1.033-.219-.538-.001-1.165 1.034-1.61.615-.256 1.544-.328 2.261-.262 1.016.093 1.985.618 1.986.621v.737l-.001.049s-.315-.285-.709-.515c-.371-.217-.71-.369-1.384-.431-.158-.014-.426-.05-.861.01-.176.025-.423.043-.981.288a2.3 2.3 0 0 0-.476.285 3 3 0 0 0-.223.201c-.159.199-.243.349-.203.62.046.204.137.332.399.527.114.085.127.084.177.11.469.243.843.332 1.378.399m.03-2.294c.9-.004 2.176.356 2.507.937.291.528.156 1.162-.817 1.646-.578.28-1.496.389-2.219.351-1.026-.053-2.062-.54-2.063-.541l-.098-.735-.006-.049s.352.272.776.487c.399.201.758.341 1.438.376.159.009.431.032.857-.044.172-.031.417-.059.94-.325a2 2 0 0 0 .632-.512c.132-.205.196-.358.12-.626-.074-.201-.181-.325-.467-.51-.124-.08-.137-.079-.191-.103-.5-.223-.884-.297-1.428-.343"/></svg>