<svg xmlns="http://www.w3.org/2000/svg" viewBox="0 0 24 24"><path d="M.496 12.919H0V10.38h.496zm.008-1.261.768-1.278h.554l-.814 1.26.814 1.277h-.554zm3.02.23v1.031h-.497V10.38h.497v1.031h.818V10.38h.497v2.539h-.497v-1.031zm3.272 1.031h-.497V10.38h.603q.288 0 .429.02c.141.02.174.035.239.065q.217.102.33.283c.113.181.114.263.114.426a.78.78 0 0 1-.162.5.72.72 0 0 1-.44.261l.635.984h-.592l-.658-1.177zm0-1.301h.11q.303 0 .46-.11a.36.36 0 0 0 .157-.318q0-.202-.132-.298c-.132-.096-.224-.097-.41-.097h-.185zm8.262 1.301h-.488V10.38h.472l1.05 1.621V10.38h.488v2.539h-.461l-1.061-1.67zm2.876-1.275q0-.209.056-.395.057-.186.166-.347a1.29 1.29 0 0 1 1.093-.572q.253 0 .488.098.233.098.419.281.19.19.29.427t.099.499q0 .272-.094.51a1 1 0 0 1-.274.424 1.284 1.284 0 0 1-.936.401q-.283 0-.524-.101-.238-.102-.423-.3a1.3 1.3 0 0 1-.27-.422 1.4 1.4 0 0 1-.09-.503m.519-.018a.83.83 0 0 0 .48.759.7.7 0 0 0 .307.069.74.74 0 0 0 .559-.237.82.82 0 0 0 .226-.591q0-.323-.228-.553a.75.75 0 0 0-.548-.229.78.78 0 0 0-.565.228.76.76 0 0 0-.231.554m3.291.507.455-.002v.037q0 .16.082.256c.082.096.129.096.221.096a.3.3 0 0 0 .234-.089.33.33 0 0 0 .087-.243q0-.245-.35-.351-.045-.013-.071-.023-.296-.092-.439-.262a.65.65 0 0 1-.143-.43q0-.357.198-.574c.198-.217.307-.217.528-.217q.308 0 .491.192.183.193.205.539h-.45v-.021a.27.27 0 0 0-.074-.194.26.26 0 0 0-.192-.074.25.25 0 0 0-.193.076.3.3 0 0 0-.07.208q0 .056.015.098t.046.076q.072.079.307.146.104.028.161.047a.8.8 0 0 1 .386.255q.123.165.124.424 0 .392-.218.63a.75.75 0 0 1-.578.238.7.7 0 0 1-.549-.229q-.208-.233-.213-.609m-4.886 1.298-.067.076a.3.3 0 0 0-.101-.063.3.3 0 0 0-.107-.02.26.26 0 0 0-.195.081q-.078.081-.078.2c0 .119.027.145.078.199a.26.26 0 0 0 .195.082.3.3 0 0 0 .097-.017.3.3 0 0 0 .086-.049v-.168h-.151v-.099h.258v.326a.6.6 0 0 1-.143.083.4.4 0 0 1-.147.028.375.375 0 0 1-.384-.384.4.4 0 0 1 .1-.261.38.38 0 0 1 .284-.123q.08 0 .154.029c.074.029.09.045.121.08m1.06-.091h.139q.058 0 .096.006a.3.3 0 0 1 .067.022.2.2 0 0 1 .074.073.24.24 0 0 1 .027.111q0 .071-.046.124c-.046.053-.073.056-.124.065l.222.301-.103.044-.245-.355v.337l-.109.009zm.109.095v.232h.039q.069 0 .109-.031.038-.032.038-.088c0-.056-.012-.065-.036-.084s-.06-.029-.108-.029zm1.687-.114q.072 0 .135.024a.386.386 0 0 1 .221.5.4.4 0 0 1-.075.122.4.4 0 0 1-.127.091.4.4 0 0 1-.157.032.4.4 0 0 1-.136-.024.3.3 0 0 1-.113-.068.4.4 0 0 1-.099-.134.4.4 0 0 1-.035-.159q0-.083.035-.159a.4.4 0 0 1 .099-.133.36.36 0 0 1 .252-.092m0 .102a.25.25 0 0 0-.194.081.27.27 0 0 0-.078.199q0 .119.078.2c.078.081.116.08.195.08a.27.27 0 0 0 .195-.081q.078-.081.079-.2c.001-.119-.027-.145-.078-.199a.27.27 0 0 0-.197-.08m1.518-.093v.414q0 .13.034.185.033.053.114.053c.081 0 .093-.017.117-.05a.3.3 0 0 0 .036-.167v-.424l.105-.01v.459a.6.6 0 0 1-.012.137.2.2 0 0 1-.044.082.2.2 0 0 1-.084.058.3.3 0 0 1-.112.021q-.131 0-.197-.074c-.066-.074-.065-.124-.065-.224v-.448zm1.471.01h.193q.123 0 .19.056.066.057.065.165 0 .1-.075.161c-.075.061-.119.059-.207.059l-.055-.002h-.002v.288l-.109.009zm.109.096v.244l.03.003q.016.003.036.002.08 0 .12-.032.042-.031.042-.092 0-.064-.038-.094c-.038-.03-.065-.031-.119-.031zm-11.68-.683c-.871-.031-2.061-.428-2.308-1.003-.213-.522-.001-1.13 1.004-1.563.597-.248 1.499-.318 2.195-.254.987.09 1.927.6 1.928.603v.715l-.001.048s-.306-.277-.688-.5c-.36-.211-.69-.359-1.344-.419-.153-.014-.414-.049-.836.01-.171.024-.411.042-.953.28a2.3 2.3 0 0 0-.463.277c-.065.054-.154.13-.216.195-.155.193-.236.339-.197.602.045.198.133.322.387.512.11.082.123.081.172.106.455.236.818.322 1.337.388zm.048-2.231c.873-.004 2.112.346 2.434.91.282.513.152 1.128-.794 1.598-.561.272-1.452.378-2.154.341-.997-.051-2.002-.524-2.004-.525l-.095-.713-.006-.048s.342.265.753.473c.388.195.736.331 1.397.365.154.008.418.031.832-.043.167-.03.405-.058.913-.316a1.9 1.9 0 0 0 .614-.498c.128-.199.19-.347.117-.608-.072-.195-.176-.316-.454-.495-.121-.078-.133-.076-.186-.1-.485-.217-.859-.288-1.386-.334zM24 10.58a.25.25 0 0 1-.035.129.26.26 0 0 1-.094.094.27.27 0 0 1-.129.035.24.24 0 0 1-.129-.035.24.24 0 0 1-.094-.094.26.26 0 0 1-.035-.129q0-.07.035-.13a.263.263 0 0 1 .223-.129.26.26 0 0 1 .223.129.25.25 0 0 1 .035.13m-.05 0a.2.2 0 0 0-.062-.147.2.2 0 0 0-.146-.062.2.2 0 0 0-.147.062.2.2 0 0 0-.061.147q0 .085.061.146.06.061.147.062c.087.001.106-.02.146-.062a.2.2 0 0 0 .062-.146m-.325-.138h.123q.052 0 .076.021c.024.021.024.033.024.056a.07.07 0 0 1-.017.048.1.1 0 0 1-.057.029l.024.012a.1.1 0 0 1 .023.028l.045.08h-.082q-.039-.079-.052-.094c-.013-.015-.018-.015-.028-.015l-.009.001v.109h-.069zm.068.117h.03q.03 0 .041-.01a.03.03 0 0 0 .013-.025.03.03 0 0 0-.011-.025.07.07 0 0 0-.041-.01h-.032z"/></svg>