<svg xmlns="http://www.w3.org/2000/svg" viewBox="0 0 24 24"><path d="M7.467 7.304a.891.891 0 1 0 .045 0zM.25 8.01c-.14 0-.25.121-.25.254v8.178c0 .132.11.253.25.253h8.522c.139 0 .247-.12.247-.254V8.266a.254.254 0 0 0-.248-.254h-.26a1 1 0 0 1 .003.361h.144v7.963H.361V8.372H6.51a1 1 0 0 1-.016-.177q0-.094.018-.184zm.262.512v7.664h7.996V8.523h-.033a1.02 1.02 0 0 1-.489.57.85.85 0 0 1-.474.142.85.85 0 0 1-.475-.142 1.02 1.02 0 0 1-.488-.57zm21.56.252a.7.7 0 0 1 .18.355q.018.094.018.41v1.664q-.414-.39-1.14-.39-.548 0-.97.302-.892.642-.892 2.391 0 .526.14.957.203.615.639.97.46.38 1.088.38.743 0 1.222-.471v.373H24q-.202-.224-.201-.773V8.775Zm-9.632.298q-1.177 0-2.038.862-.93.931-.931 2.513 0 1.41.76 2.354.816 1.02 2.19 1.02a3.1 3.1 0 0 0 1.565-.395q.396-.225.45-.211l-.73-1.195q-.519.57-1.186.57a1.18 1.18 0 0 1-.703-.236q-.708-.51-.708-1.907 0-.492.1-.9.308-1.248 1.318-1.248.646 0 1.034.492l.787-1.142a1 1 0 0 1-.334-.127q-.805-.45-1.574-.45M.56 9.175h2.065q-.246.245-.246.852v1.613l1.262-1.596q.386-.487.386-.728a.4.4 0 0 0-.023-.141h2.201q-.25.14-.627.592-.1.12-.355.435L3.57 12.26l1.973 2.715q.18.247.457.555.074.078.215.187H3.957a.7.7 0 0 0 .025-.18q0-.24-.334-.699l-1.269-1.73v1.754q0 .61.246.855H.561a.8.8 0 0 0 .218-.39q.028-.124.028-.462v-4.838q0-.337-.028-.46a.8.8 0 0 0-.219-.391m16.204 1.639q-.356 0-.658.06l-.598.15q-.423.106-.568.106l.435 1.049q.616-.325 1.174-.324.654 0 .654.752-.325-.018-.457-.018-.927 0-1.441.25-.891.434-.89 1.348 0 .4.14.716.196.444.63.686.415.229.92.225.712-.01 1.164-.471v.373h1.64a.7.7 0 0 1-.186-.36 3 3 0 0 1-.018-.414v-2.148q0-.645-.176-1.084-.36-.896-1.765-.896m-10.211.095h1.726v4.034q0 .316.018.414a.7.7 0 0 0 .185.359H6.55q.15-.162.183-.36.018-.097.018-.413v-3.268q0-.316-.018-.408a.73.73 0 0 0-.18-.358m15.07 1.02q.356 0 .647.246v2.193q-.344.277-.713.276-.707 0-.707-1.211 0-1.504.773-1.504m-4.793 1.648q.184 0 .352.03v.761q-.22.377-.7.377a.67.67 0 0 1-.43-.136.48.48 0 0 1-.189-.399q0-.333.334-.502.264-.131.633-.13"/></svg>