<svg xmlns="http://www.w3.org/2000/svg" viewBox="0 0 24 24"><path d="m10.14 2.358 4.714 2.27-.915 1.584a.27.27 0 0 0-.032.182l.607 3.441a.26.26 0 0 0 .093.16l2.676 2.245c.048.041.11.064.174.064h1.878l.507 2.22a.5.5 0 0 1-.095.415l-5.237 6.567a.5.5 0 0 1-.383.184h-8.4a.5.5 0 0 1-.383-.184L.107 14.939a.5.5 0 0 1-.095-.415l1.869-8.189a.5.5 0 0 1 .266-.333l7.567-3.644a.49.49 0 0 1 .426 0M7.244 16.626h1.667v-2.429l.64-.784 1.822 3.213h1.965l-2.594-4.273 2.462-3.169h-2.065l-1.689 2.473c-.166.265-.342.53-.508.817h-.033v-3.29H7.244zM19.281 2.352l2.975 1.083q.083.031.128.108l1.583 2.742c.029.05.039.108.029.165l-.55 3.118a.24.24 0 0 1-.083.145l-2.426 2.035a.25.25 0 0 1-.157.058h-3.166a.25.25 0 0 1-.158-.058l-2.425-2.035a.24.24 0 0 1-.084-.145l-.55-3.118a.24.24 0 0 1 .029-.165l1.583-2.742a.25.25 0 0 1 .129-.108l2.975-1.083a.24.24 0 0 1 .168 0m-.71 3.404q-.048-.138-.197-.137h-.487V8.57h.79V6.449q.132-.13.278-.2a.7.7 0 0 1 .312-.072q.223 0 .338.136.114.136.114.382V8.57h.787V6.695q0-.246-.064-.452a1 1 0 0 0-.192-.355.9.9 0 0 0-.313-.232 1.2 1.2 0 0 0-.697-.054 1.2 1.2 0 0 0-.436.203 2 2 0 0 0-.184.157z"/></svg>