<svg xmlns="http://www.w3.org/2000/svg" viewBox="0 0 24 24"><path d="M16.64 2.278A27 27 0 0 0 11.997 0 27 27 0 0 0 7.36 2.278C4.848 3.808 3.357 5.27 3.357 5.27a32 32 0 0 0 1.03 7.299c.827 3.153 2.921 8.043 7.61 11.43 4.689-3.387 6.784-8.277 7.61-11.43a32 32 0 0 0 1.036-7.3s-1.491-1.462-4.003-2.992m2.724 10.228a22 22 0 0 1-2.33 5.562 19 19 0 0 1-5.037 5.621 19 19 0 0 1-5.037-5.621 22 22 0 0 1-2.33-5.562 32.5 32.5 0 0 1-1.027-7.13 25 25 0 0 1 3.883-2.884A27.4 27.4 0 0 1 11.997.265a27.4 27.4 0 0 1 4.51 2.225 25 25 0 0 1 3.883 2.887 32.6 32.6 0 0 1-1.026 7.13m-2.922-6.363c-2.18-.82-3.682-1.24-4.447-1.24-.764 0-2.266.424-4.446 1.24-1.255.473-3.058 1.24-3.058 1.24a39 39 0 0 0 .893 4.925c.75 2.857 2.507 7.188 6.61 10.406 4.108-3.218 5.862-7.548 6.611-10.406a39 39 0 0 0 .894-4.925s-1.803-.766-3.057-1.24zm1.84 6.08c-.76 2.9-2.468 6.974-6.286 10.063-3.824-3.089-5.523-7.165-6.286-10.062a38 38 0 0 1-.85-4.632 92 92 0 0 1 2.813-1.136C10.34 5.451 11.497 5.237 12 5.237s1.66.212 4.327 1.219a93 93 0 0 1 2.813 1.136 38 38 0 0 1-.86 4.63zm-3.32 6.243q.329-.471.62-.945l-1.417.564zm1.326-2.198a20 20 0 0 0 .645-1.395l-2.021.832zm1.016-2.347q.256-.717.442-1.372l-2.235.763zm.692-2.349c.112-.47.212-.94.298-1.393l-2.408.744zm-1.735-3.04 2.217.62c.08-.489.141-.932.19-1.294zm-1.282-2.113c-1.871-.647-2.663-.758-2.983-.758s-1.112.11-2.983.758l2.983.917zm-2.983 12.868-1.616.88a17 17 0 0 0 1.616 1.561 17 17 0 0 0 1.616-1.561zm-3.885-8.369 3.882 1.192 3.885-1.192-3.885-1.192zm.37 2.392 3.512 1.192 3.511-1.192-3.51-1.192zm-.748-4.78 4.26 1.19 4.262-1.19-4.262-1.192zm2.808-5.134-.244.242a1.096 1.096 0 0 0 1.528.02v.632h.35v-.638a1.096 1.096 0 0 0 1.528-.02l-.253-.236a.753.753 0 0 1-1.284-.53.75.75 0 0 1 .464-.692.75.75 0 0 1 .82.163l.244-.243a1.1 1.1 0 0 0-1.529-.02v-.63h-.343v.63a1.1 1.1 0 0 0-1.527.02l.243.242a.753.753 0 0 1 1.284.53.75.75 0 0 1-.464.693.75.75 0 0 1-.82-.163ZM8.403 17.517q.289.475.619.945l.79-.377zm-1.344-2.644q.284.686.644 1.395l1.377-.565ZM6.24 12.55q.186.656.442 1.371l1.793-.608Zm-.549-2.369c.087.452.186.922.297 1.392l2.117-.65zm-.371-2.325c.046.36.11.804.189 1.293l2.218-.617ZM9.08 15.7l2.914 1.19 2.914-1.19-2.914-1.194Zm.742 2.387 2.175 1.192 2.176-1.192-2.176-1.193z"/></svg>