<svg xmlns="http://www.w3.org/2000/svg" viewBox="0 0 24 24"><path d="M21.333 4.319C16.56.386 9.453.632 4.973 5.057a7.57 7.57 0 0 0 0 10.8c3.018 2.982 7.912 2.982 10.931 0a3.245 3.245 0 0 0 0-4.628 3.34 3.34 0 0 0-4.685 0 1.114 1.114 0 0 1-1.561 0 1.08 1.08 0 0 1 0-1.543 5.57 5.57 0 0 1 7.808 0 5.41 5.41 0 0 1 0 7.714c-3.881 3.834-10.174 3.834-14.055 0a9.734 9.734 0 0 1-.015-13.87C5.596 1.35 8.638 0 12 0c3.75 0 7.105 1.68 9.333 4.319m-.714 16.136A12.18 12.18 0 0 1 12 24a12.18 12.18 0 0 1-9.333-4.319c4.772 3.933 11.88 3.687 16.36-.738a7.57 7.57 0 0 0 0-10.8c-3.018-2.982-7.912-2.982-10.931 0a3.245 3.245 0 0 0 0 4.628 3.34 3.34 0 0 0 4.685 0 1.114 1.114 0 0 1 1.561 0 1.08 1.08 0 0 1 0 1.543 5.57 5.57 0 0 1-7.808 0 5.41 5.41 0 0 1 0-7.714c3.881-3.834 10.174-3.834 14.055 0a9.734 9.734 0 0 1 .03 13.855"/></svg>