<svg xmlns="http://www.w3.org/2000/svg" viewBox="0 0 24 24"><path d="M10.097 17.876A6.21 6.21 0 0 1 5.834 12c0-3.393 2.773-6.166 6.166-6.166.248 0 .517.021.766.042a9.9 9.9 0 0 1 1.49-2.504 3.58 3.58 0 0 1-.85-2.296c0-.331.042-.662.146-.993A20 20 0 0 0 12 0C5.38 0 0 5.38 0 12c0 4.366 2.338 8.172 5.814 10.283l.124-.062a8.43 8.43 0 0 0 4.159-4.345m6.848-14.979c.662 0 1.262-.352 1.593-.952v-.02a12.3 12.3 0 0 0-3.269-1.49v.02a1.9 1.9 0 0 0-.124.642c0 .993.807 1.8 1.8 1.8M19.924 3c-.662 1.014-1.758 1.634-2.98 1.634a3.5 3.5 0 0 1-.806-.103 3 3 0 0 1-.476-.145 8.8 8.8 0 0 0-1.22 1.945c2.275.993 3.724 3.186 3.724 5.669 0 3.393-2.773 6.166-6.166 6.166h-.145a10.37 10.37 0 0 1-4.117 5.048C9.062 23.71 10.51 24 12 24c6.62 0 12-5.38 12-12 0-3.58-1.572-6.807-4.076-9m-8.848 4.67a4.428 4.428 0 1 0 1.849 8.661 4.428 4.428 0 1 0-1.85-8.66z"/></svg>