<svg xmlns="http://www.w3.org/2000/svg" viewBox="0 0 24 24"><path d="M2.32 0A2.32 2.32 0 0 0 0 2.32v19.36A2.32 2.32 0 0 0 2.32 24h19.36A2.32 2.32 0 0 0 24 21.68V2.32A2.32 2.32 0 0 0 21.68 0zm9.208 3.98-2.27 9.405a3 3 0 0 0-.073.539.85.85 0 0 0 .09.432.7.7 0 0 0 .334.302q.236.115.661.147l-.49 2.008q-1.159 0-1.82-.3-.662-.303-.947-.826a2.4 2.4 0 0 1-.278-1.2q.008-.678.188-1.445l2.074-8.67zm3.9 3.888q.915 0 1.576.277.66.277 1.085.76.425.48.629 1.126t.204 1.379v.001q0 1.19-.392 2.179a5.2 5.2 0 0 1-1.086 1.706 4.8 4.8 0 0 1-1.665 1.118q-.972.4-2.114.4-.555 0-1.11-.098l-.735 2.956H9.403l2.71-11.298q.653-.196 1.494-.351a10 10 0 0 1 1.821-.155m-.31 2.041a4.7 4.7 0 0 0-.98.098l-1.143 4.752q.277.066.685.065.638 0 1.16-.237a2.56 2.56 0 0 0 .89-.661q.366-.424.571-1.02a4 4 0 0 0 .204-1.315q0-.702-.31-1.192t-1.077-.49"/></svg>