<svg xmlns="http://www.w3.org/2000/svg" viewBox="0 0 24 24"><path d="M8.16 0h7.68c2.66 0 3.508 0 4.708.4 1.4.5 2.552 1.65 3.052 3.05.4 1.2.4 2.05.4 4.71v7.68c0 2.66 0 3.51-.4 4.71a5.04 5.04 0 0 1-3.05 3.05c-1.2.4-2.05.4-4.71.4H8.16c-2.66 0-3.51 0-4.71-.4A5.04 5.04 0 0 1 .4 20.55C0 19.35 0 18.5 0 15.84V8.16C0 5.5 0 4.65.4 3.45A5.04 5.04 0 0 1 3.45.4C4.65 0 5.5 0 8.16 0m2.834 6.682v-.297l-.023-.321q0-.138-.091-.412a1.6 1.6 0 0 1-.092-.481q0-.137.115-.23a6 6 0 0 0 .24-.194q.149-.126.424-.126.16 0 .527.046.32 0 .481-.138.069-.045.252-.183c.183-.138.183-.199.183-.32q0-.3-.332-.482-.332-.183-.836-.183l-.94.069q-.32 0-1.214.149t-1.397.149a5 5 0 0 1-.7-.08 5 5 0 0 0-.79-.08q-.252.09-.515.171-.264.08-.263.24l.045.207q.138.297.413.458l.183.091q.137.046.23.046.113 0 .343-.023.184 0 .343.092l.252.229q.184.206.264.4t.08.356q0 .114-.046.39a3 3 0 0 0-.046.434q0 .207.104.596.102.39.103.641-.024.39-.023.78v.778q0 .297.046.779.045.48.045.755l-.045.962-.023 1.535-.07 1.26q0 .253.093.664.09.412.091.664 0 .252-.069.642-.068.39-.068.618 0 .114.023.298a.8.8 0 0 1 0 .275.56.56 0 0 1-.126.263l-.218.264q-.206.252-.458.389-.252.138-.71.16-.458.023-.665.195-.206.172-.206.263 0 .596 1.1.596l.16-.023a35 35 0 0 1 1.317-.137q.333-.023.768-.023h.275q.413.023.825.023h2.2q.32-.024.606-.058a4 4 0 0 1 .516-.034q.297 0 .825.149.526.149.893.103.023 0 .264-.069a1.7 1.7 0 0 1 .47-.068q.022 0 .308.034.287.034.47.034.092 0 .32-.046.574-.114.803-.435a.77.77 0 0 0 .16-.435 4 4 0 0 1-.069-.435 3 3 0 0 1 0-.504q.115-.229.252-.458.115-.298.16-.813.046-.516.081-.687a3 3 0 0 1 .195-.527q.16-.356.16-.607a1 1 0 0 0-.114-.481q-.115-.206-.298-.206-.115 0-.367.206-.114.09-.195.343a3 3 0 0 1-.126.344q-.274.412-.55.802a4 4 0 0 0-.229.435q-.228.48-.366.664-.046.069-.367.344a1.1 1.1 0 0 0-.217.24q-.104.15-.287.47l-.39.206-.274.069a2 2 0 0 0-.367.114q-.229.092-.343.115a1.6 1.6 0 0 1-.298.022q-.207 0-.619-.068a4 4 0 0 0-.664-.069l-.481.023q-.825 0-1.215-.893-.251-.573-.39-1.787a2.3 2.3 0 0 1-.022-.366q0-.184.023-.619 0-.115.057-.48a4 4 0 0 0 .057-.596v-1.604q0-.206.023-.527.024-.32.023-.458a2 2 0 0 0-.023-.343q0-.138-.091-.39a1.2 1.2 0 0 1-.092-.389q0-.114.046-.32.045-.207.046-.321 0-.252-.023-.688a14 14 0 0 1-.023-.687q0-.297.092-.733a3.6 3.6 0 0 0 .091-.71"/></svg>