<svg xmlns="http://www.w3.org/2000/svg" viewBox="0 0 24 24"><path d="M3.128 8.2a3.1 3.1 0 0 0-2.212.92A3.15 3.15 0 0 0 0 11.347a3.14 3.14 0 0 0 .916 2.226l.27.266.014-.014a2.73 2.73 0 0 1 1.932-.795 2.74 2.74 0 0 1 1.931.795l.015.014.266-.27a3.16 3.16 0 0 0 .916-2.226c0-.806-.305-1.612-.916-2.226A3.14 3.14 0 0 0 3.128 8.2m0 .725a2.4 2.4 0 0 1 1.701.707 2.43 2.43 0 0 1 .156 3.252 3.42 3.42 0 0 0-3.72 0 2.45 2.45 0 0 1-.544-1.537c0-.618.234-1.24.706-1.715a2.38 2.38 0 0 1 1.701-.707m5.316.082v6.025h3.167v-1.487H9.928l.004-4.538zm4.247 0v6.022h1.487V9.007zm2.585 0v6.025h1.487V13.15h1.918v-1.41h-1.918v-1.228h3.047l.863 1.545-1.662 2.975h1.662l.813-1.53.696 1.53h1.779l-1.665-2.975L24 9.007h-1.779l-.735 1.686-.735-1.686zM3.128 13.75c-.518 0-1.04.202-1.438.6l.444.443a1.41 1.41 0 0 1 1.996 0l.443-.443c-.4-.398-.92-.6-1.445-.6m0 1.324a.7.7 0 0 0-.507.213l.507.511.508-.511a.7.7 0 0 0-.508-.213"/></svg>