<svg xmlns="http://www.w3.org/2000/svg" viewBox="0 0 24 24"><path d="M21.645 12.057a2.4 2.4 0 0 0-1.803.8l-.138-.054a18 18 0 0 0-2.867-.86 4.808 4.808 0 0 0-9.615 0H7.09a18 18 0 0 0-2.765.836l-.138.054a2.404 2.404 0 1 0 .559 1.07 16.6 16.6 0 0 1 2.578-.776 4.808 4.808 0 0 0 9.357 0 16.6 16.6 0 0 1 2.578.77 2.404 2.404 0 1 0 2.386-1.84M2.414 15.663a1.202 1.202 0 1 1 1.202-1.202 1.2 1.2 0 0 1-1.202 1.202m9.616 0a3.606 3.606 0 1 1 3.605-3.606 3.606 3.606 0 0 1-3.605 3.606m9.615 0a1.202 1.202 0 1 1 1.202-1.202 1.2 1.2 0 0 1-1.202 1.202m-7.812-3.606a1.803 1.803 0 1 1-1.803-1.803 1.803 1.803 0 0 1 1.803 1.803"/></svg>