<svg xmlns="http://www.w3.org/2000/svg" viewBox="0 0 24 24"><path d="m10.15 8.98 1.647.951-5.756 3.345.005-1.911zm1.723-1.001-1.553.902 1.548.893zM6.028 5.33 6.025 6.4l.543.316 3.602 2.079 1.632-.948-2.19-1.279-3.231-1.887-.351-.203zm.072-.983.359.209 6.321 3.65 5.258 3.037 5.858-3.405L11.956.943zm6.002 12.602-.005 1.924 5.858-3.404.005-1.924zm-.077-9.009-.005 1.922 5.94 3.428.005-1.92zm-10.13.945 4.075 2.352 4.031-2.342-4.075-2.353zM24 7.982l-5.858 3.404-.015 3.982 5.858-3.404zm-12.048 10.04.003-1.073L7.6 14.436l-1.565-.903v.001l-.939-.542L.015 10.06.01 11.979l11.94 6.895zm5.935-4.605-5.922-3.411-5.853 3.401 5.917 3.414zm6.072-1.238-11.862 6.864-.01 4.013 11.863-6.894zM11.944 21.27l.005-2.227L.01 12.148 0 16.162l11.94 6.895zM.021 9.802 1.6 8.885.025 7.976zm5.832-3.39.024-1.636.001-.296L.099 7.848l1.647.951zm.041 4.951L1.749 8.97l-.46.267-1.195.695 5.795 3.345z"/></svg>