<svg xmlns="http://www.w3.org/2000/svg" viewBox="0 0 24 24"><path d="M12.001 0C6.174 0 1.448 4.957 1.448 11.072c0 2.09.552 4.042 1.51 5.71.25.279.544.484.965.484 1.339 0 1.268-2.065 2.607-2.065s1.411 2.065 2.75 2.065c1.34 0 1.266-2.065 2.606-2.065.584 0 .928.397 1.24.84-.221-.205-.48-.348-.82-.348-1.196 0-1.307 1.678-2.201 2.141v4.51a1.657 1.657 0 0 0 3.312 0V16.45c.308.433.647.815 1.22.815 1.34 0 1.267-2.065 2.606-2.065.465 0 .774.255 1.04.58a1.1 1.1 0 0 0-.43-.088c-1.159 0-1.297 1.574-2.118 2.094v2.436a1.49 1.49 0 0 0 2.98 0V16.37c.324.466.67.895 1.278.895.796 0 1.093-.73 1.485-1.32a11.5 11.5 0 0 0 1.074-4.874C22.552 4.957 17.828 0 12 0m-.566 2.877c2.88 0 5.214 2.784 5.214 5.807s-1.545 5.15-5.214 5.15-5.215-2.127-5.215-5.15 2.335-5.807 5.215-5.807m-1.403 1.66a1.955 2.158 0 0 0-1.955 2.158 1.955 2.158 0 0 0 1.955 2.158 1.955 2.158 0 0 0 1.955-2.158 1.955 2.158 0 0 0-1.955-2.158m-.326.664a.978.996 0 0 1 .979.996.978.996 0 0 1-.979.996.978.996 0 0 1-.977-.996.978.996 0 0 1 .977-.996m-2.95 10.493c-1.074 0-1.272 1.354-1.95 1.964v1.782a1.49 1.49 0 0 0 2.98 0v-3.182c-.264-.324-.577-.564-1.03-.564"/></svg>