<svg xmlns="http://www.w3.org/2000/svg" viewBox="0 0 24 24"><path d="M5.538 12.015A6.46 6.46 0 0 1 12 5.561a6.46 6.46 0 0 1 6.462 6.454A6.46 6.46 0 0 1 12 18.389a6.46 6.46 0 0 1-6.461-6.374zM22.53 6.262a1.847 1.847 0 0 1-2.472-.42 10.2 10.2 0 0 0-1.877-1.875 1.843 1.843 0 0 1-.421-2.469 12.05 12.05 0 0 1 4.77 4.764m-18.587-.42a1.847 1.847 0 0 1-2.472.42 12.05 12.05 0 0 1 4.77-4.764 1.843 1.843 0 0 1-.42 2.469 10.2 10.2 0 0 0-1.878 1.875M24 12.015c.001 1.14-.16 2.275-.48 3.37a1.844 1.844 0 0 1-1.452-2.043c.115-.88.115-1.773 0-2.654a1.844 1.844 0 0 1 1.451-2.043c.32 1.095.482 2.23.481 3.37m-24 0c0-1.14.162-2.275.482-3.37a1.844 1.844 0 0 1 1.45 2.043c-.115.88-.115 1.773 0 2.654a1.844 1.844 0 0 1-1.45 2.043A12 12 0 0 1 0 12.014Zm17.76 10.518a1.843 1.843 0 0 1 .42-2.47 10.2 10.2 0 0 0 1.878-1.875 1.847 1.847 0 0 1 2.472-.42 12.05 12.05 0 0 1-4.77 4.765m-11.519 0a12.05 12.05 0 0 1-4.77-4.764 1.847 1.847 0 0 1 2.472.42 10.2 10.2 0 0 0 1.877 1.874c.765.587.948 1.663.421 2.47M12.001 24a12 12 0 0 1-3.375-.48 1.846 1.846 0 0 1 2.046-1.45c.882.115 1.775.115 2.657 0a1.846 1.846 0 0 1 2.046 1.449c-1.096.32-2.233.482-3.375.481Zm1.506-22.057c-.945-.136-1.888-.1-2.834-.013A1.85 1.85 0 0 1 8.626.48 12 12 0 0 1 11.999 0h.002c1.142-.001 2.277.16 3.373.48a1.845 1.845 0 0 1-1.867 1.463"/></svg>