<svg xmlns="http://www.w3.org/2000/svg" viewBox="0 0 24 24"><path d="M11.948 0A2.1 2.1 0 0 0 9.85 2.104a2.1 2.1 0 0 0 .356 1.166l.895-.896a.884.884 0 1 1 .565.564l-.895.895A2.096 2.096 0 0 0 13.119.359 2.1 2.1 0 0 0 11.949 0m-.836 6.113a3.26 3.26 0 0 0-.652-1.965L9.295 5.31a1.67 1.67 0 0 1-.317 2.012l.632 1.545a3.28 3.28 0 0 0 1.503-2.754m-3.25 1.666h-.03A1.67 1.67 0 0 1 7.83 4.44a1.67 1.67 0 0 1 .92.275L9.9 3.564a3.28 3.28 0 0 0-4.133 5.094 3.28 3.28 0 0 0 2.728.666zm4.129 1.336c-.728 0-1.452.106-2.15.315l.922 2.252a5.02 5.02 0 1 1-1.127.435l-.91-2.244a7.44 7.44 0 0 0-3.41 9.956v.001a7.44 7.44 0 0 0 9.957 3.41h.001a7.44 7.44 0 0 0 3.412-9.957A7.44 7.44 0 0 0 12 9.113h-.008z"/></svg>