<svg xmlns="http://www.w3.org/2000/svg" viewBox="0 0 24 24"><path d="m.38 10.377-.272-.037c-.048.344-.082.695-.101 1.041l.275.016q.027-.512.098-1.02m3.756-7.088-.184-.205c-.258.232-.509.48-.746.734l.202.188c.231-.248.476-.49.728-.717m1.633-1.23-.146-.235q-.446.28-.863.594l.166.219c.27-.203.554-.399.843-.578m-3.945 16.31q.278.447.593.863l.22-.164a12 12 0 0 1-.58-.844zm-.697-1.967-.255.104q.195.479.431.943l.005.01.245-.125-.005-.01a12 12 0 0 1-.421-.922M.298 9.309l.269.063c.076-.332.168-.664.272-.986l-.261-.087c-.108.332-.202.672-.28 1.01M.274 12.42l-.275.01c.012.348.04.699.083 1.043l.273-.033c-.042-.336-.069-.68-.081-1.02m-.018 2.086c.073.34.162.682.264 1.014l.263-.08q-.15-.49-.258-.99zM11.573.275 11.563 0c-.348.012-.699.039-1.044.082l.034.273q.508-.062 1.02-.08m11.648 8.291c.1.326.186.66.256.992l.27-.059c-.072-.34-.16-.682-.262-1.014zm-5.6-7.177a12 12 0 0 0-.947-.449l-.107.252q.473.2.926.439zM15.693.572q-.499-.159-1.01-.277l-.063.268q.5.115.988.273zm-9.019.973q.449-.226.916-.418L7.486.873q-.478.192-.937.428l-.015.008.125.244zm17.053 10.043.275-.01a12 12 0 0 0-.082-1.045l-.273.033c.041.338.068.682.08 1.022M13.654.105q-.52-.07-1.043-.098l-.014.273c.339.018.683.051 1.019.098zm-4.11.422-.058-.27c-.34.072-.681.16-1.014.264l.081.262c.325-.099.659-.185.991-.256M1.921 5.469l.231.15c.185-.285.384-.566.592-.834l-.217-.17q-.321.416-.606.854M.943 7.318l.253.107c.132-.313.28-.625.439-.924l-.243-.128c-.163.307-.314.625-.449.945m17.28 14.625.145.234c.295-.186.586-.385.863-.594l-.164-.219c-.272.204-.557.4-.844.579m3.025-2.724.217.17c.215-.273.418-.561.607-.854l-.23-.148q-.28.429-.594.832m-1.393 1.496.184.203c.258-.23.51-.479.746-.732l-.201-.188c-.23.248-.477.488-.729.717m2.504-3.211.244.129c.162-.307.314-.625.449-.945l-.254-.107a11 11 0 0 1-.439.923m1.258-3.875.273.039q.073-.52.102-1.043l-.275-.014a11 11 0 0 1-.1 1.018m-.461 1.992.264.086q.161-.499.279-1.01l-.268-.063c-.077.333-.169.665-.275.987m-.703-8.949c.154.303.297.617.424.932l.256-.104a12 12 0 0 0-.436-.953zM8.296 23.418q.498.161 1.009.279l.062-.268a12 12 0 0 1-.986-.273zm2.039.471c.345.049.696.082 1.043.102l.014-.275a12 12 0 0 1-1.019-.098zm6.991-1.44q-.456.232-.926.424l.104.256c.318-.131.639-.275.947-.434l.004-.002-.123-.246zm-12.713-.982c.274.213.562.418.854.605l.149-.23a12 12 0 0 1-.833-.592zm7.804 2.258.009.275a13 13 0 0 0 1.045-.084l-.035-.271c-.336.041-.68.068-1.019.08M6.37 22.604q.463.245.946.449l.107-.254a12 12 0 0 1-.924-.439zm-3.287-2.563c.233.258.48.51.734.746l.188-.201c-.249-.23-.49-.477-.717-.729zm11.362 3.434.059.27a12 12 0 0 0 1.014-.266l-.082-.262c-.325.099-.659.185-.991.258M21.18.129a2.689 2.689 0 1 0 0 5.378 2.689 2.689 0 1 0 0-5.378m-5.856 15.318c0 .471.314.66.852.66.67 0 1.297-.396 1.297-1.016v-.645c-.23.107-.379.141-1.107.24-.735.109-1.042.306-1.042.761M12 2.818a9.18 9.18 0 0 0-9.18 9.18A9.18 9.18 0 1 0 12 2.818m-2.487 13.77H5.771v-6.023h.769v5.346h2.974zm4.13 0h-.619v-.67c-.405.57-.811.793-1.446.793-.843 0-1.38-.463-1.38-1.182v-3.271h.686v3c0 .52.347.85.893.85.719 0 1.181-.578 1.181-1.461v-2.389h.686v4.33zm-.53-8.393a2.69 2.69 0 1 1 5.375.001 2.69 2.69 0 0 1-5.375-.001m5.567 7.856v.52c-.223.059-.33.074-.471.074a.73.73 0 0 1-.711-.57 2.03 2.03 0 0 1-1.471.637c-.877 0-1.422-.463-1.422-1.248 0-.527.256-.916.76-1.123.266-.107.414-.141 1.389-.264.545-.066.719-.191.719-.48v-.182c0-.412-.348-.645-.967-.645-.645 0-.957.24-1.016.77h-.693c.041-1 .686-1.404 1.734-1.404 1.066 0 1.627.412 1.627 1.182v2.412c0 .215.133.338.373.338.041-.002.074-.002.149-.017"/></svg>