<svg xmlns="http://www.w3.org/2000/svg" viewBox="0 0 24 24"><path d="M24 5.072 18.928 24 0 18.928 5.072 0zM8.984 18.402l-.085.375.61.163 1.005-3.75-.641-.172-.731 2.728q-.39.483-1.125.286-.692-.186-.464-1.039l.649-2.422-.641-.172-.654 2.44q-.18.683.039 1.117.222.431.822.592.724.195 1.216-.146m3.818 1.42.672.18.015-.055q-.05-.34.088-.857l.462-1.725q.139-.573-.142-.994-.28-.423-.928-.597a1.9 1.9 0 0 0-.793-.05 1.4 1.4 0 0 0-.652.272.9.9 0 0 0-.343.488l.645.172q.066-.246.344-.357a.97.97 0 0 1 .622-.02q.39.105.54.36.147.252.057.588l-.079.295-.624-.167q-.807-.217-1.342-.01-.53.203-.687.789-.13.48.14.891.274.408.828.557.62.165 1.192-.179-.042.294-.015.42Zm-.934-.774a.8.8 0 0 1-.47-.307.6.6 0 0 1-.075-.526q.184-.69 1.363-.374l.502.135-.206.77a.98.98 0 0 1-.5.3 1.17 1.17 0 0 1-.614.002M21 6.804l-3.786-1.015L16.2 9.575l3.786 1.014zM3.818 16.832l1.207-4.502-.67-.18-1.352 5.047 3.06.82.146-.544-2.39-.64Zm12.944 3.654-.086.375.61.163 1.005-3.75-.641-.172-.731 2.728q-.39.483-1.124.286-.693-.186-.465-1.039l.65-2.422-.642-.172-.654 2.44q-.18.684.04 1.117t.821.592q.725.195 1.217-.146"/></svg>