<svg xmlns="http://www.w3.org/2000/svg" viewBox="0 0 24 24"><path d="M18.483 1.123a1.1 1.1 0 0 0-.752.362 1.09 1.09 0 0 0 .088 1.54 11.96 11.96 0 0 1 4 8.946 7.62 7.62 0 0 1-7.637 7.636 7.62 7.62 0 0 1-7.637-7.636 3.255 3.255 0 0 1 3.273-3.273c1.82 0 3.273 1.45 3.273 3.273a1.09 1.09 0 0 0 1.09 1.09 1.09 1.09 0 0 0 1.092-1.09c0-3-2.455-5.455-5.455-5.455s-5.454 2.455-5.454 5.455c0 5.408 4.408 9.818 9.818 9.818S24 17.379 24 11.971A14.16 14.16 0 0 0 19.272 1.4a1.1 1.1 0 0 0-.789-.277M9.818 2.15C4.408 2.151 0 6.561 0 11.97a14.16 14.16 0 0 0 4.8 10.637 1.09 1.09 0 0 0 1.54-.096 1.09 1.09 0 0 0-.095-1.54 11.96 11.96 0 0 1-4.063-9 7.62 7.62 0 0 1 7.636-7.637 7.62 7.62 0 0 1 7.637 7.636 3.256 3.256 0 0 1-3.273 3.273 3.256 3.256 0 0 1-3.273-3.273 1.09 1.09 0 0 0-1.09-1.09 1.09 1.09 0 0 0-1.092 1.09c0 3 2.455 5.455 5.455 5.455s5.454-2.455 5.454-5.455c0-5.408-4.408-9.818-9.818-9.818z"/></svg>