<svg xmlns="http://www.w3.org/2000/svg" viewBox="0 0 24 24"><path d="M11.267 0C6.791-.015-1.82 10.246 1.397 12.964l.79.669a3.9 3.9 0 0 0-.22 1.792c.084.84.518 1.644 1.22 2.266.666.59 1.542.964 2.392.964 1.406 3.24 4.62 5.228 8.386 5.34 4.04.12 7.433-1.776 8.854-5.182.093-.24.488-1.316.488-2.267 0-.956-.54-1.352-.885-1.352-.01-.037-.078-.286-.172-.586s-.19-.51-.19-.51c.375-.563.382-1.065.332-1.35-.053-.353-.2-.653-.496-.964s-.902-.63-1.753-.868l-.446-.124c-.002-.019-.024-1.053-.043-1.497-.014-.32-.042-.822-.197-1.315-.186-.668-.508-1.253-.911-1.627 1.112-1.152 1.806-2.422 1.804-3.511-.003-2.095-2.576-2.729-5.746-1.416l-.672.285L12.7.504C12.304.159 11.817.002 11.267 0m.073.873q.25 0 .465.058c.297.084 1.28 1.224 1.28 1.224s-1.826 1.013-3.52 2.426c-2.28 1.757-4.005 4.311-5.037 7.082-.811.158-1.526.618-1.963 1.253-.261-.218-.748-.64-.834-.804-.698-1.326.761-3.902 1.781-5.357C5.834 3.44 9.37.867 11.34.873m3.286 3.273c.04-.002.06.05.028.074-.143.11-.299.26-.413.414a.04.04 0 0 0 .031.064c.659.004 1.587.235 2.192.574.041.023.012.103-.034.092-.915-.21-2.414-.369-3.97.01-1.39.34-2.45.863-3.224 1.426-.04.028-.086-.023-.055-.06.896-1.035 1.999-1.935 2.987-2.44.034-.018.07.019.052.052-.079.143-.23.447-.278.678-.007.035.032.063.062.042.615-.42 1.684-.868 2.622-.926m3.023 3.205.056.001a.9.9 0 0 1 .456.146c.534.355.61 1.216.638 1.845.015.36.059 1.229.074 1.478.034.571.184.651.487.751.17.057.33.098.563.164.706.198 1.125.4 1.39.658.157.162.23.333.253.497.083.608-.472 1.36-1.942 2.041-1.607.746-3.557.935-4.904.785l-.471-.053c-1.078-.145-1.693 1.247-1.046 2.201.417.615 1.552 1.015 2.688 1.015 2.604 0 4.605-1.111 5.35-2.072a1 1 0 0 0 .06-.085c.036-.055.006-.085-.04-.054-.608.416-3.31 2.069-6.2 1.571 0 0-.351-.057-.672-.182-.255-.1-.788-.344-.853-.891 2.333.72 3.801.039 3.801.039a.07.07 0 0 0 .042-.072.067.067 0 0 0-.074-.06s-1.911.283-3.718-.378c.197-.64.72-.408 1.51-.345a11 11 0 0 0 3.647-.394c.818-.234 1.892-.697 2.727-1.356.281.618.38 1.299.38 1.299s.219-.04.4.073c.173.106.299.326.213.895-.176 1.063-.628 1.926-1.387 2.72a5.7 5.7 0 0 1-1.666 1.244q-.511.27-1.087.46c-2.863.935-5.794-.093-6.739-2.3a3.6 3.6 0 0 1-.189-.522c-.403-1.455-.06-3.2 1.008-4.299.065-.07.132-.153.132-.256 0-.087-.055-.179-.102-.243-.374-.543-1.669-1.466-1.409-3.254.187-1.284 1.31-2.189 2.357-2.135q.133.007.266.015c.453.027.85.085 1.223.1.625.028 1.187-.063 1.853-.618.225-.187.405-.35.71-.401.028-.005.092-.028.215-.028m.022 2.18a.4.4 0 0 0-.06.005c-.335.054-.347.468-.228 1.04.068.32.187.595.32.765q.264-.031.498 0c.089-.205.104-.557.024-.942-.112-.535-.261-.872-.554-.868m-3.66 1.546a1.72 1.72 0 0 0-1.016.326c-.16.117-.311.28-.29.378.008.032.031.056.088.063.131.015.592-.217 1.122-.25.374-.023.684.094.923.2.239.104.386.173.443.113.037-.038.026-.11-.031-.204-.118-.192-.36-.387-.618-.497a1.6 1.6 0 0 0-.621-.129m4.082.81c-.171-.003-.313.186-.317.42-.004.236.131.43.303.432s.314-.185.318-.42c.004-.236-.132-.429-.304-.432m-3.58.172q-.075 0-.155.008c-.311.05-.483.152-.593.247-.094.082-.152.173-.152.237a.075.075 0 0 0 .075.076c.07 0 .228-.063.228-.063a2 2 0 0 1 1.001-.104c.157.018.23.027.265-.026.01-.016.022-.049-.01-.1-.063-.103-.311-.269-.66-.275zm2.26.4c-.127 0-.235.051-.283.148-.075.154.035.363.246.466.21.104.443.063.52-.09.075-.155-.035-.364-.246-.467a.54.54 0 0 0-.237-.058zm-11.635.024q.072 0 .149.003c.73.04 1.806.6 2.052 2.19.217 1.41-.128 2.843-1.449 3.069q-.185.03-.374.026c-1.22-.033-2.539-1.132-2.67-2.435-.145-1.44.591-2.548 1.894-2.811q.177-.037.398-.042m-.07.927a1.14 1.14 0 0 0-.847.364c-.38.418-.439.988-.366 1.19.027.073.07.094.1.098.064.008.16-.039.22-.2l.017-.052a1.6 1.6 0 0 1 .157-.37.69.69 0 0 1 .955-.199c.266.174.369.5.255.81-.058.161-.154.469-.133.721.043.511.357.717.64.738.274.01.466-.143.515-.256.029-.067.005-.107-.011-.125-.043-.053-.113-.037-.18-.021a.6.6 0 0 1-.16.022.35.35 0 0 1-.294-.148c-.078-.12-.073-.3.013-.504q.017-.041.04-.092c.138-.308.368-.825.11-1.317-.195-.37-.513-.602-.894-.65a1 1 0 0 0-.138-.01z"/></svg>