<svg xmlns="http://www.w3.org/2000/svg" viewBox="0 0 24 24"><path d="M23.769 6.947q.096 0 .16.063a.23.23 0 0 1 .071.161v7.778a.21.21 0 0 1-.07.161.22.22 0 0 1-.161.064H22.07a.23.23 0 0 1-.231-.224v-2.715a.2.2 0 0 0-.063-.154c-.042-.042-.091-.056-.162-.056h-2.377a.25.25 0 0 0-.161.056.21.21 0 0 0-.07.154v2.714c0 .147-.078.225-.232.225h-1.683c-.155 0-.232-.078-.232-.225V7.171q0-.222.232-.224h1.683q.231.002.231.224v2.63q0 .223.232.225h2.377q.098 0 .162-.063a.22.22 0 0 0 .063-.162v-2.63a.21.21 0 0 1 .07-.161.22.22 0 0 1 .161-.063zm-8.374 6.207c.063 0 .119.02.154.063a.22.22 0 0 1 .063.161v1.55a.23.23 0 0 1-.063.161.2.2 0 0 1-.154.064h-5.45c-.154 0-.231-.078-.231-.225V7.171q0-.222.231-.224h1.67q.23.002.23.224v5.78a.19.19 0 0 0 .07.154c.043.042.099.056.162.056h3.318zm-7.75-6.102q.242.107.42.288c.12.119.21.26.288.42q.105.244.105.52v6.648a.2.2 0 0 1-.063.154.2.2 0 0 1-.154.064H6.649a.18.18 0 0 1-.148-.064.23.23 0 0 1-.056-.154V8.883H5.162v6.045a.23.23 0 0 1-.056.154.2.2 0 0 1-.147.064H3.514a.2.2 0 0 1-.155-.064.2.2 0 0 1-.063-.154V8.883H2.013v6.045c0 .147-.07.218-.218.218H.217c-.147 0-.217-.07-.217-.218V7.164q-.002-.219.217-.217H7.12c.189 0 .357.035.526.105zm16.341 9.314q.009.01.007.02v.45q-.002.042-.014.084-.021.04-.042.07a.15.15 0 0 1-.07.042c-.028.014-.056.014-.084.014h-.639a.4.4 0 0 1-.084-.014q-.04-.021-.07-.042a.15.15 0 0 1-.042-.07c-.014-.028-.014-.056-.014-.084v-.842q.002-.042.014-.084c.007-.028.028-.05.042-.07a.15.15 0 0 1 .07-.042c.028-.014.056-.014.084-.014h.75c.008 0 .022 0 .022.007q.009.01.007.02v.24c0 .006 0 .02-.007.02q-.01.009-.021.007h-.603c-.007 0-.021 0-.021.007q-.009.01-.007.021v.59q-.002.01.007.02c.007.008.014.008.02.008h.358q.01.002.021-.007.009-.01.007-.022v-.315c0-.007 0-.021.007-.021q.01-.009.021-.007h.253q.02.002.028.014m-1.466-.568q.041.021.07.042a.15.15 0 0 1 .042.07c.014.028.014.056.014.084v1.024c0 .007 0 .021-.007.021q-.01.009-.02.007h-.253q-.01.002-.021-.007-.009-.01-.007-.02v-.892q.002-.01-.007-.02t-.021-.008h-.358c-.007 0-.021 0-.021.007s-.007.014-.007.021v.891q-.002.033-.035.035h-.253a.034.034 0 0 1-.035-.035v-1.2q.002-.032.035-.034h.821c.014-.007.042 0 .063.014M21.3 17.01q-.002.033-.035.035h-.253a.034.034 0 0 1-.035-.035v-1.2c0-.02.014-.034.035-.034h.253c.02 0 .035.014.035.035zm-.975-.701c-.007.007-.007.007 0 .014l.42.694q.012.01 0 .021c-.006.007-.006.007-.02.007h-.302c-.007 0-.02 0-.028-.007l-.02-.02-.274-.492q-.009-.01-.007 0l-.148.161q-.012.01-.014.029c-.007.014-.007.02-.007.035v.266q-.002.033-.035.035h-.245q-.033-.002-.035-.035v-1.2q.002-.032.035-.034h.252q.033.002.035.035v.54l.47-.547a.1.1 0 0 1 .028-.021q.02-.009.028-.007h.302q.012-.002.014.007.003.012-.007.02zm-1.648-.218q-.009.01-.007.021v.59q-.002.01.007.02c.007.008.014.008.02.008h.583c.007 0 .021 0 .021.007q.009.01.007.02v.24c0 .006 0 .02-.007.02q-.01.009-.021.007h-.722a.4.4 0 0 1-.085-.014 1 1 0 0 1-.07-.042.15.15 0 0 1-.042-.07c-.014-.028-.014-.056-.014-.084v-.849q.002-.042.014-.084a1 1 0 0 1 .042-.07.15.15 0 0 1 .07-.042c.028-.014.057-.014.085-.014h.722c.007 0 .021 0 .021.007q.009.01.007.02v.24c0 .006 0 .02-.007.02q-.01.009-.021.007h-.582c-.007.035-.014.042-.021.042m-.82-.315q.04.002.083.014.041.021.07.042a.15.15 0 0 1 .043.07.4.4 0 0 1 .014.084v1.024c0 .007 0 .021-.007.021q-.01.009-.021.007h-.253c-.007 0-.021 0-.021-.007q-.009-.01-.007-.02v-.324c0-.007 0-.02-.007-.02q-.01-.01-.021-.008h-.358c-.007 0-.02 0-.02.007q-.01.01-.008.021v.323q-.002.033-.035.035h-.252q-.033-.002-.035-.035v-1.024q.002-.042.014-.084a1 1 0 0 1 .042-.07.15.15 0 0 1 .07-.042c.028-.014.056-.014.084-.014zm-.106.603v-.316h-.428v.316zm-1.066-.603c.007 0 .021 0 .021.007q.009.01.007.02v1.2c0 .007 0 .021-.007.021q-.01.009-.021.007h-.253c-.007 0-.02 0-.02-.007-.008-.007-.008-.014-.008-.02v-.422q.002-.01-.007-.02t-.02-.008h-.358c-.007 0-.021 0-.021.007q-.009.01-.007.021v.421q-.002.033-.035.035h-.253a.034.034 0 0 1-.035-.035v-1.2c0-.02.014-.034.035-.034h.253c.02 0 .035.014.035.035v.407c0 .02.014.035.035.035h.357q.01.002.021-.007.009-.01.007-.021v-.407c0-.007 0-.021.007-.021q.01-.009.022-.007h.245zm-1.943.014q.009.01.007.02v.232q.002.01-.007.021-.01.009-.02.007h-.604q-.009-.002-.007.007v.197q-.002.009.007.007h.52q.01-.002.02.007.009.01.007.02v.183c0 .007 0 .021-.007.021q-.01.009-.02.007h-.52q-.009-.002-.007.007v.197q-.002.009.007.007h.604c.006 0 .02 0 .02.007q.009.01.007.02v.225c0 .007 0 .021-.007.021q-.01.009-.02.007h-.899a.034.034 0 0 1-.035-.035v-1.199c0-.007 0-.021.007-.021q.01-.009.021-.007h.898a.1.1 0 0 0 .028.042m-1.255 0q.009.01.007.02v1.025a.4.4 0 0 1-.014.084q-.021.04-.042.07a.15.15 0 0 1-.07.042c-.028.014-.056.014-.085.014h-.638a.4.4 0 0 1-.084-.014q-.04-.021-.07-.042a.15.15 0 0 1-.042-.07c-.014-.028-.014-.056-.014-.084v-1.024q.002-.033.035-.035h.252q.033.002.035.035v.89q-.002.012.007.022t.022.007h.357q.01.002.021-.007.009-.01.007-.021v-.891c0-.007 0-.021.007-.021q.01-.009.021-.007h.253c.02-.007.028 0 .035.007m-1.333.575q.009.01.007.02v.45a.4.4 0 0 1-.014.084q-.021.04-.042.07a.15.15 0 0 1-.07.042c-.028.014-.056.014-.084.014h-.638a.4.4 0 0 1-.084-.014 1 1 0 0 1-.07-.042.15.15 0 0 1-.043-.07c-.014-.028-.014-.056-.014-.084v-.842q.002-.042.014-.084c.007-.028.028-.05.042-.07a.15.15 0 0 1 .07-.042c.029-.014.057-.014.085-.014h.75c.007 0 .021 0 .021.007q.009.01.007.02v.24c0 .006 0 .02-.007.02q-.01.009-.02.007h-.604c-.007 0-.021 0-.021.007q-.009.01-.007.021v.59q-.002.01.007.02t.021.008h.358q.01.002.02-.007c.008-.007.008-.014.008-.022v-.315c0-.007 0-.021.007-.021q.01-.009.02-.007h.253c.007 0 .021.007.028.014m-1.55-.59c.028 0 .056.008.084.015q.042.021.07.042a.15.15 0 0 1 .043.07.4.4 0 0 1 .014.084v1.024c0 .007 0 .021-.007.021q-.01.009-.021.007h-.26c-.007 0-.02 0-.02-.007-.008-.007-.008-.014-.008-.02v-.324c0-.007 0-.02-.007-.02q-.01-.01-.02-.008h-.366c-.007 0-.02 0-.02.007q-.01.01-.008.021v.323q-.002.033-.035.035h-.252q-.033-.002-.035-.035v-1.024q.002-.042.014-.084a1 1 0 0 1 .042-.07.15.15 0 0 1 .07-.042c.028-.014.056-.014.084-.014zm-.112.604v-.316h-.428v.316zm-1.038-.59q.009.012.007.022v.231q.002.01-.007.021-.01.009-.02.007H8.83q-.009-.002-.007.007v.197q-.002.009.007.007h.519q.01-.002.021.007.009.01.007.02v.183c0 .007 0 .021-.007.021q-.01.009-.021.007h-.52q-.008-.002-.006.007v.197q-.002.009.007.007h.604c.006 0 .02 0 .02.007q.009.01.007.02v.225c0 .007 0 .021-.007.021q-.01.009-.02.007h-.899a.034.034 0 0 1-.035-.035v-1.199c0-.007 0-.021.007-.021q.01-.009.021-.007h.898a.1.1 0 0 0 .028.042zm-1.171.948q.01-.002.02.007t.008.02v.24c0 .006 0 .02-.007.02q-.01.009-.021.007h-.779a.034.034 0 0 1-.035-.035v-1.2q.002-.032.035-.034h.253c.02 0 .035.014.035.035v.89q-.002.011.007.022.01.009.021.007h.463zm-1.704.28q.01.01 0 .021c-.007.007-.007.007-.021.007H6.27c-.007 0-.021 0-.028-.007l-.021-.02-.19-.345q-.001-.009-.013-.007H5.8q-.009-.002-.007.007v.337q-.002.033-.035.035h-.252c-.021 0-.036-.014-.036-.035v-1.2c0-.02.015-.034.036-.034h.82q.042.002.084.014.041.021.07.042a.15.15 0 0 1 .043.07.2.2 0 0 1 .014.084v.477a.2.2 0 0 1-.043.126.23.23 0 0 1-.105.077h-.007q-.009.002-.007.014v.007zm-.358-.947h-.435v.309h.435zm-1.241-.294q.042.002.084.014.04.021.07.042a.15.15 0 0 1 .042.07.4.4 0 0 1 .014.084v.842q-.002.042-.014.084-.021.04-.042.07a.15.15 0 0 1-.07.042c-.028.014-.056.014-.084.014h-.64q-.042-.002-.084-.014-.04-.021-.07-.042a.15.15 0 0 1-.042-.07c-.014-.028-.014-.056-.014-.084v-.842q.002-.042.014-.084c.007-.028.028-.05.042-.07a.15.15 0 0 1 .07-.042c.028-.014.056-.014.084-.014zm-.113.308H4.44v.653h.427zm-1.03-.294q.007.01.006.02v1.025q-.002.042-.014.084-.021.04-.042.07a.15.15 0 0 1-.07.042c-.028.014-.056.014-.084.014h-.547a.4.4 0 0 1-.084-.014 1 1 0 0 1-.07-.042.15.15 0 0 1-.042-.07c-.014-.028-.014-.056-.014-.084v-.386q.002-.033.035-.035h.252q.033.002.035.035v.26q-.002.01.007.02t.021.008h.26c.007 0 .02 0 .02-.007.008-.007.008-.014.008-.021v-.891c0-.007 0-.021.007-.021q.01-.009.02-.007h.253c.021-.014.035-.007.042 0zm-1.354-.014q.042.002.084.014.04.021.07.042a.15.15 0 0 1 .042.07.4.4 0 0 1 .014.084v1.024c0 .007 0 .021-.007.021q-.01.009-.02.007h-.253c-.007 0-.021 0-.021-.007q-.009-.01-.007-.02v-.324c0-.007 0-.02-.007-.02q-.01-.01-.021-.008h-.358c-.007 0-.021 0-.021.007q-.009.01-.007.021v.323q-.002.033-.035.035h-.253a.034.034 0 0 1-.035-.035v-1.024q.002-.042.014-.084a1 1 0 0 1 .042-.07.15.15 0 0 1 .07-.042c.028-.014.057-.014.085-.014zm-.112.603v-.316h-.428v.316zm-1.158-.582q.041.021.07.042a.15.15 0 0 1 .043.07.4.4 0 0 1 .014.084v1.024c0 .007 0 .021-.007.021q-.01.009-.021.007h-.253q-.01.002-.021-.007-.009-.01-.007-.02v-.927H.828v.926c0 .007 0 .021-.007.021q-.01.009-.021.007H.568c-.007 0-.021 0-.021-.007q-.009-.01-.007-.02v-.927H.337v.926q-.002.033-.035.035H.049a.034.034 0 0 1-.035-.035v-1.2q.002-.032.035-.034h1.094c.021-.007.05 0 .07.014"/></svg>