<svg xmlns="http://www.w3.org/2000/svg" viewBox="0 0 24 24"><path d="M23.055 7.328a12 12 0 0 0-2.569-3.813A12 12 0 0 0 16.672.944 11.9 11.9 0 0 0 12 0a11.986 11.986 0 0 0-8.485 3.515A12 12 0 0 0 .943 7.328 11.9 11.9 0 0 0 0 12a11.971 11.971 0 0 0 3.514 8.485 12 12 0 0 0 3.813 2.57C8.81 23.686 10.38 24 12 24c1.619 0 3.189-.314 4.671-.944a12 12 0 0 0 3.814-2.564 12 12 0 0 0 2.57-3.811c.63-1.47.944-3.045.944-4.665 0-1.619-.314-3.18-.944-4.664zM12 22.335C6.293 22.335 1.665 17.707 1.665 12S6.293 1.665 12 1.665 22.335 6.293 22.335 12 17.707 22.335 12 22.335m3.242-18.214H8.757q-1.383 0-2.333.975a3.2 3.2 0 0 0-.953 2.334v10.182c0 .449.135.81.4 1.095.267.269.615.42 1.051.42q.668 0 1.079-.405.409-.406.409-1.08V7.08h2.141v10.529q0 .668.391 1.08.388.41 1.059.411.669 0 1.059-.411.39-.412.39-1.08V7.08h2.142v10.529q0 .668.408 1.08.412.41 1.08.411.651 0 1.05-.423.402-.421.401-1.069V7.426q0-1.364-.953-2.336-.949-.973-2.334-.975v.006z"/></svg>