<svg xmlns="http://www.w3.org/2000/svg" viewBox="0 0 24 24"><path d="M4.5 0C2.02 0 0 2.02 0 4.5v15C0 21.98 2.02 24 4.5 24h15c2.48 0 4.5-2.02 4.5-4.5v-15C24 2.02 21.98 0 19.5 0Zm0 1.5h15c1.675 0 3 1.325 3 3v15c0 1.675-1.325 3-3 3h-15c-1.675 0-3-1.325-3-3v-15c0-1.675 1.325-3 3-3m12.791.595q-.712-.001-1.187.401-.45.38-.758 1-.334.664-.501 1.376-.166.713-.355 1.403a232 232 0 0 1-1.283 4.68 36.5 36.5 0 0 1-1.64 4.56 35.6 35.6 0 0 1-1.093-5.059 37 37 0 0 1-.355-5.156q0-.308.047-.592.047-.309.047-.618a1.39 1.39 0 0 0-.689-1.236 2.1 2.1 0 0 0-.688-.308q-.38-.12-.738-.12-.499 0-.926.214a2.9 2.9 0 0 0-.759.547 3.6 3.6 0 0 0-.548.783 3.6 3.6 0 0 0-.307.879 35 35 0 0 0-.405 2.115q-.142 1.044-.45 2.112a51 51 0 0 1-.786 2.353q-.428 1.26-.832 2.543-.405 1.28-.689 2.563-.284 1.26-.284 2.376 0 .524.07 1.046.096.499.335.902.237.405.641.642.404.26 1.02.26.665.002 1.022-.354.38-.333.548-.952.214-.833.214-1.664.023-.854.14-1.685.143-1.14.499-2.209a30 30 0 0 1 .855-2.138q.358 1.354.762 2.66.428 1.308.735 2.663.119.498.214 1.02.095.499.26.999.215.663.666 1.21t1.213.547q.474 0 .972-.143.524-.12.903-.451.166-.143.31-.428c.144-.285.182-.397.261-.618a6.4 6.4 0 0 0 .38-1.187q.143-.546.262-1.116.118-.57.284-1.116.19-.666.427-1.307.263-.665.525-1.306.333-.88.618-1.782.284-.904.545-1.807.285 1.14.38 2.279.095 1.141.118 2.306l.097 2.302q.07 1.14.307 2.283a2.7 2.7 0 0 0 .522 1.163q.404.474 1.166.474.617 0 .996-.284.38-.285.595-.712.212-.429.284-.952.072-.521.073-1.02v-.002q0-1.518-.237-2.989a40 40 0 0 0-.548-2.994 39 39 0 0 1-.642-3.516 30 30 0 0 1-.214-3.565q0-.38.027-.735.047-.38.047-.76 0-.521-.238-.855a1.46 1.46 0 0 0-.57-.547 2.2 2.2 0 0 0-.81-.285 4 4 0 0 0-.855-.093"/></svg>