<svg xmlns="http://www.w3.org/2000/svg" viewBox="0 0 24 24"><path d="M9.678 21.213h4.67v.909h-4.67zm.87 2.787h2.93v-1.409h-2.93zm-.844-5.313c.575.523.881 1.28.83 2.056h2.944a2.58 2.58 0 0 1 .818-2.056zm-3.052-2.17v.683h10.696v-.683zm.478 3.087a3.83 3.83 0 0 0 1.74-.917H7.009zm9.74 0 .121-.917h-1.86c.49.451 1.089.768 1.739.917m-8.666-4.556A74 74 0 0 0 5.913 8.63q.967.153 1.913.405A18.9 18.9 0 0 0 3.51 5.583c1.226 2.378 2.378 5.987 2.965 9.465zm9.326 0c.587-3.478 1.74-7.087 2.961-9.465a18.9 18.9 0 0 0-4.308 3.452q.945-.254 1.913-.405a66 66 0 0 0-2.292 6.418zM6.087 16.17h11.83v-.679H6.087zm5.135-1.144q.468-1.11.77-2.278.305 1.167.773 2.278h2.052c-1.743-2.87-2.234-6.665-2.343-10-.009-.343.13-.43.46-.283l1.053.474A15.5 15.5 0 0 1 11.991 0 15.5 15.5 0 0 1 10 5.217l1.052-.474c.33-.152.457-.06.457.283-.109 3.313-.6 7.109-2.34 10zm-5.135 3.191h11.83v-.678H6.087z"/></svg>