<svg xmlns="http://www.w3.org/2000/svg" viewBox="0 0 24 24"><path d="M12 24a12 12 0 0 1-4.691-.927 12.6 12.6 0 0 1-3.818-2.564A12.6 12.6 0 0 1 .928 16.69 12 12 0 0 1 0 12q0-2.509.927-4.69a12.2 12.2 0 0 1 2.564-3.792A12 12 0 0 1 7.309.955 11.7 11.7 0 0 1 11.999 0q2.51 0 4.692.955a11.65 11.65 0 0 1 3.79 2.563 11.65 11.65 0 0 1 2.564 3.791Q23.999 9.492 24 12q0 2.482-.955 4.69a12 12 0 0 1-2.563 3.819 12.2 12.2 0 0 1-3.791 2.564Q14.509 24 12 24m-7.637-5.864V5.864A9.5 9.5 0 0 0 2.755 8.7q-.572 1.556-.572 3.3c0 1.744.19 2.273.572 3.327a9.6 9.6 0 0 0 1.609 2.81zm1.5-13.772h12.3a9.5 9.5 0 0 0-2.836-1.61A9.7 9.7 0 0 0 12 2.183q-1.746 0-3.327.573a9.6 9.6 0 0 0-2.81 1.609M12 14.727l4.118-8.181h-8.21Zm1.09 2.727h4.364V8.728Zm-6.545 0h4.364L6.545 8.728Zm8.782 3.791a9.5 9.5 0 0 0 2.836-1.609h-12.3a9.6 9.6 0 0 0 2.81 1.61 9.7 9.7 0 0 0 3.326.572 9.7 9.7 0 0 0 3.328-.573m4.309-3.109a9.6 9.6 0 0 0 1.609-2.809A9.7 9.7 0 0 0 21.817 12q0-1.745-.572-3.3a9.5 9.5 0 0 0-1.61-2.836Z"/></svg>