<svg xmlns="http://www.w3.org/2000/svg" viewBox="0 0 24 24"><path d="M12 0a12 12 0 1 0 12 12A12.01 12.01 0 0 0 12 0m-.049.331A11.67 11.67 0 0 1 23.67 12 11.68 11.68 0 0 1 12 23.669 11.669 11.669 0 0 1 11.951.33zM12 1.464A10.56 10.56 0 0 0 1.45 12c0 3.371 1.715 6.617 4.503 8.64a1.5 1.5 0 0 0 .32.183.13.13 0 0 0 .126-.023l.034-.057a.11.11 0 0 0 .035-.092c0-.08-.103-.148-.24-.343a3.17 3.17 0 0 1-.537-1.725 2.53 2.53 0 0 1 .514-1.566c.423.446 1.337 1.246 1.314 1.989s-.789.777-.617 1.394c.103.389.389.229.446.526.08.503.765.834 1.062.788.08-.011.138.046.275.194.137.15.708.183.937.138.228-.046.468.16.914.103s.697-.103.937-.103 2.572-.035 4.115.205c.274.046.354-.08.24-.285-.56-.983-.64-1.806-.32-2.858.57.046 1.394.195 2.468-.457a1.26 1.26 0 0 0 .583-1.085c-.011-.24-.114-.537-.057-.766s.148-.308.24-.366c.411-.297.114-.525.046-.548a.39.39 0 0 0 .125-.526c-.08-.08-.308-.709-.045-.834.262-.126.605-.206.925-.355a.514.514 0 0 0 .275-.685 125 125 0 0 0-1.029-2.4c-.16-.355-.057-.583-.103-.835-.046-.251-.308-.8-.491-1.234-.08-.194.434-.148.046-.868 0-.023.537-.229 0-.629a3 3 0 0 1-.686-.766.114.114 0 0 1 0-.148c.308-.274.32-.663-.012-.857-.331-.195-.514 0-.765.16-.08.057-.126.09-.218.057l-.205-.137c.308-.298.377-.595.354-.64s-.526-.149-1.166.114l-.045-.034c.263-.446.114-.766.102-.79h-.011a9.3 9.3 0 0 1 1.417-1.519h.012c.022-.034.034-.069-.023-.103l-.115-.068A10.56 10.56 0 0 0 12 1.464m-.073.316a10.2 10.2 0 0 1 4.805 1.169.046.046 0 0 1 .012.08 11 11 0 0 0-1.166 1.302 8.35 8.35 0 0 0-3.577-.8A8.49 8.49 0 0 0 3.531 12a8.24 8.24 0 0 0 2.046 5.508 2.6 2.6 0 0 0-.217 1.075 2.9 2.9 0 0 0 .377 1.451C3.268 18.07 1.783 15.097 1.783 12A10.206 10.206 0 0 1 11.926 1.78zm.28.266c-.034 0-.046.023-.057.046l-.103 1.142a.046.046 0 0 0 .046.046h.125c.023.011.046-.011.046-.034l.114-1.143a.06.06 0 0 0-.046-.057zm-1.686.111q-.008 0-.017.003h-.137c-.023.011-.046.034-.035.057l.218 1.132c0 .034.023.045.057.045l.125-.023c.023 0 .046-.022.035-.045l-.217-1.132a.04.04 0 0 0-.03-.037zm3.514.106L13.59 3.36a.046.046 0 0 0 .034.069l.126.034a.06.06 0 0 0 .057-.034l.434-1.075a.046.046 0 0 0-.034-.068l-.137-.023zm-5.313.34-.013.003-.114.034a.046.046 0 0 0-.034.068l.514 1.04.057.023.126-.045a.046.046 0 0 0 .035-.069L8.766 2.63a.05.05 0 0 0-.045-.026zm6.913.134a.05.05 0 0 0-.034.017l-.743.949c-.023.023-.011.057.023.068l.126.046c.023.012.034 0 .057-.011l.743-.949a.06.06 0 0 0-.023-.068l-.126-.046a.1.1 0 0 0-.023-.006m-8.592.639a.03.03 0 0 0-.025.007l-.114.068c-.034.012-.034.046-.011.07l.765.879c.012.023.034.023.057.011l.115-.068a.046.046 0 0 0 .011-.069l-.766-.88a.06.06 0 0 0-.032-.018m4.93.498h.028a8 8 0 0 1 3.383.732 2.6 2.6 0 0 0-.469.297A7.2 7.2 0 0 0 12 4.32 7.69 7.69 0 0 0 4.32 12c0 1.84.571 3.451 1.691 4.8-.057.103-.148.24-.251.4h-.011A7.9 7.9 0 0 1 3.874 12a8.137 8.137 0 0 1 8.098-8.126zm-6.51.618-.102.09a.057.057 0 0 0 0 .08l.971.675c.023.011.046.012.058-.011l.103-.08a.057.057 0 0 0 0-.08l-.972-.674zm10.177.191q.012 0 .018.003c.069.034-.091.64-.446.983-.354.342-.925.708-.982.697-.058-.012.194-.674.491-1.017.3-.365.8-.659.919-.666m-3.616.025a6.5 6.5 0 0 1 2.56.526 3.6 3.6 0 0 0-.423.755c0-.218-.057-.389-.046-.526s-.582.103-1.108.948a2.3 2.3 0 0 0-.252.606c-.011-.32-.08-.56-.103-.56a1.84 1.84 0 0 0-.971 1.006 2.6 2.6 0 0 0-.126.388c-.023-.217-.08-.365-.103-.365s-.674.263-.982 1.017a1.8 1.8 0 0 0-.126.526c-.057-.263-.16-.423-.194-.389-.217.274-.652.4-.87 1.097a1.5 1.5 0 0 0-.079.48c-.091-.228-.229-.366-.263-.366s-.697.629-.8 1.246a1.8 1.8 0 0 0 .023.663c-.126-.206-.286-.343-.354-.549-.103.058-.652.572-.663 1.223a2.3 2.3 0 0 0 .08.697c-.183-.331-.434-.48-.469-.468s-.457.468-.548 1.268a1.4 1.4 0 0 0 .045.526c-.171-.194-.32-.297-.33-.286a2.6 2.6 0 0 0-.413 1.018A7.5 7.5 0 0 1 4.651 12c-.16-4.046 3.235-7.303 7.372-7.292zm4.571.618h.035c.091.011-.218.548-.755.777s-.971.285-1.017.263c-.046-.023.469-.663.914-.858a2 2 0 0 1 .823-.182m-2.643.316q.005-.001.003.004c-.011.045.24.754-.297 1.188a2.4 2.4 0 0 0-.64.732c-.057.102-.217-.572.194-1.212.236-.375.693-.71.74-.712M4.15 5.89a.03.03 0 0 0-.024.018l-.08.103a.046.046 0 0 0 .023.08l1.12.435a.05.05 0 0 0 .045-.023l.092-.103c.023-.023.011-.057-.023-.069l-1.12-.434a.06.06 0 0 0-.033-.007m13.44.1q.073 0 .124.044c.297.298-.331.469-.206.697a3.5 3.5 0 0 0 .858.96c.137.115.16.355-.377.469-.538.114-2.697.674-3.84 1.886-1.429 1.508-2.332 3.463-2.457 3.2-.126-.263-.412-.32-.366-.4 2.045-3.52 5.257-6.298 6.011-6.766a.47.47 0 0 1 .254-.09zm-1.339.113.183.126c.115.068.16.09.103.137C13.943 8.57 12 11.372 11.154 12.72c-.023.046-.068.034-.148.034-.903-.068-1.417 1.017-1.017 2.035-.046.205-.48.605-.515.628-.034.023-.114.16.034.149.15-.012.48-.366.618-.515.045.069.251.229.148.32a7.3 7.3 0 0 1-1.588 1.2c-.297.138.48.24 1.794-.948.08-.069.171.274.286.423-.229.743.331 2.183.24 2.628a.32.32 0 0 1-.32.309c-1.303.034-1.429-.034-2.092.16-.308.091-.228.297-.011.24s.526-.172 1.931-.08c.355.011.743-.069.743-.652s-.411-2.102-.274-2.32a.8.8 0 0 0 .4.16c-.023.515.8 2.172.434 3.086-.137.343-.731.309-1.76.206-1.748-.172-2.32.206-2.354 0-.034-.229.183-.446.183-.937s-.755-1.44-1.269-1.977a2.2 2.2 0 0 0 .903-.218c.754-.354.903-1.154.926-1.188a1.3 1.3 0 0 0-.435-.046l.092-.046c.731-.4.925-1.257.891-1.268a2 2 0 0 0-.457-.034l.229-.08c.777-.309.994-1.177.971-1.212a2 2 0 0 0-.4-.046l.217-.091c.709-.354.96-1.154.926-1.177a1.2 1.2 0 0 0-.377-.046 2.7 2.7 0 0 0 .514-.171c.766-.332 1.017-1.063.983-1.097a1.3 1.3 0 0 0-.343-.057 4 4 0 0 0 .503-.15c.754-.25 1.051-.97 1.006-.982l-.423-.091a2.8 2.8 0 0 0 .754-.149c.812-.274 1.097-.766 1.12-.983a.7.7 0 0 0-.263-.091 3.4 3.4 0 0 0 .538-.138c.754-.308 1.074-1.062 1.097-1.12a3.4 3.4 0 0 0 .445-.182zm-1.28.5a2 2 0 0 1 .229.014c.034.023-.286.56-.811.766s-1.006.217-1.075.171c-.057-.034.492-.651.937-.823a2 2 0 0 1 .72-.127zm-2.468.105c.057-.01.217.664 0 .984-.389.582-.412.377-.834.948-.023.023-.023-.743.125-1.074.24-.538.652-.846.709-.858m-9.36.823-.057.023a.6.6 0 0 1-.057.126.046.046 0 0 0 .034.069l1.2.171c.023 0 .045-.011.045-.034l.07-.115a.046.046 0 0 0-.035-.068zm10.289.233a2 2 0 0 1 .476.065c.058.022-.32.571-.88.742s-1.108.149-1.097.115c.012-.035.469-.675.926-.835a1.9 1.9 0 0 1 .575-.087m-2.152.019c.068-.012.194.651-.046 1.063-.194.343-.377.263-.708.765-.035.046-.126-.411.08-1.04a1.44 1.44 0 0 1 .674-.788m6.96.673c.034.005.06.035.034.104-.114.331-1.04.629-.994.4s0-.251.069-.263c.068-.011.4-.126.857-.24a.1.1 0 0 1 .035-.001zm-1.368.317q.047-.001.054.016c.034.091-.206.685-.537.8s-.537.103-.526.045a1.3 1.3 0 0 0 .057-.468c-.02-.12.739-.389.952-.393m1.286.187a.09.09 0 0 1 .093.069c.423 1.017.595 1.291.56 1.805-.034.515.995 2.457 1.075 2.64s.091.389 0 .48c-.377.332-.949.355-1.178.56s-.17.286-.045.594c.126.31.125.195-.126.263-.251.069-.468.663-1.006.56-.205-.034-.057.092.023.103.297.035.423-.057.526-.16s.252-.274.412-.331.33-.057.342.068c.012.126-.217.24-.308.286.114.057.445.217.16.411-.286.195-.526-.057-.56-.08-.035-.022-.194-.022-.149.035s.595.148.515.251c-.4.537-.07.858-.195 1.406-.126.549-.88.857-1.463.96-1.988.354-3.92-1.326-5.051-2.606.103-.24.091-.548-.012-.434-.102.114-.08.274-.32.331-.445.115-.65-.674-.788-.81-.549-.538-.766-1.304-.446-1.978s1.029-.537 1.303-.126.194.8.388.949c.195.148.55.023.618 0s.194.491.914.468.674-1.222.789-1.325c.982-.96.48-1.818.297-2.012s.114-.411.171-.423a1.49 1.49 0 0 0 1.074-.88s.96-.023 1.303-.708c.092-.183.378.171 1.018-.332a.1.1 0 0 1 .066-.034m-8.085.015c.13-.046.188.654-.016 1.094-.206.445-.331.457-.571.731-.035.046-.206-.423-.046-1.006s.457-.64.606-.8a.1.1 0 0 1 .027-.02zm1.82.027c.247.007.444.077.53.084.137.011-.149.514-.754.731-.606.217-1.029.206-1.109.172-.023-.023.389-.72.846-.903a1.2 1.2 0 0 1 .486-.084zm-8.22.22h-.004l-1.235.115-.045.034-.035.137c0 .035.023.07.057.058l1.223-.115a.034.034 0 0 0 .035-.034 1 1 0 0 0 .045-.125.046.046 0 0 0-.04-.07zm11.806.203c.032.003.044.032.052.083a1.2 1.2 0 0 1-.297.858c-.262.285-.525.263-.663.297-.137.034-.091.263-.274.388-.251.172-.606-.057-.537-.16a5 5 0 0 1 1.314-1.257c.243-.15.352-.215.405-.21zm-6.622.724c.092 0 .24.365.24.674a1.2 1.2 0 0 1-.046.343c-.148.491-.445.708-.605.926a1.8 1.8 0 0 1-.183-.663 1.74 1.74 0 0 1 .594-1.28m2.106.104a2 2 0 0 1 .294.021c.034.035-.217.629-.743.857a2.8 2.8 0 0 1-1.177.206c-.034-.023.503-.731.96-.948a1.8 1.8 0 0 1 .665-.136zm6.614.033c-.56.023-1.211.708-1.417.8-.206.091-.149.171-.023.125.126-.045.674-.537 1.223-.731s.411.206.571.183-.034-.389-.354-.377m-14.262.544-.023.004-1.19.412c-.022.011-.033.023-.033.045 0 .023-.012.092-.012.138a.046.046 0 0 0 .069.045l1.177-.411a.034.034 0 0 0 .034-.034c0-.046.012-.103.012-.15q-.001-.048-.034-.049m14.388.004c-.046.012.045.252-.195.263-.525.034-.948.537-1.268.686a1.5 1.5 0 0 1-.434.16.035.035 0 0 0 .011.068c1.337.183 1.851.126 1.863.08.011-.045-.068-.137-.046-.194a1.3 1.3 0 0 0 .012-.629c-.023-.09.205-.034.205-.148s-.068-.297-.148-.286m-.297.537a.09.09 0 0 1 .091.069 1.2 1.2 0 0 1 0 .457c-.023.103-.628.057-.948.023-.08 0-.206-.011.034-.16s.469-.32.823-.389m-3.848.003c.121.01.24.169.248.34.034.412-.206.64-.446.823s-.354.503-.297.583a.17.17 0 0 0 .217-.103c.171-.377.686-.56.766-.766s.034-.503.023-.64.102-.137.182-.125c.08.011.16.16.206.308.332.857-.491 1.372-.628 1.577-.138.206.125.789-.229 1.006-.457.286-.709-.251-.777-.354a.42.42 0 0 1-.057-.355c.034-.16.057-.377-.046-1.062-.046-.309.571-1.052.72-1.189a.15.15 0 0 1 .118-.043m-5.855.169c.057.205.423.365.423.743a1.7 1.7 0 0 1-.583 1.234 2 2 0 0 1-.251-.869c-.023-.72.274-.971.41-1.108zm2.283.046a2 2 0 0 1 .197.011c.034.011-.206.617-.709.869-.503.251-1.177.285-1.154.228.023-.046.4-.731.846-.937a2 2 0 0 1 .82-.17zm-6.738.875a.1.1 0 0 0-.025.004l-1.074.72c-.023 0-.023.023-.023.046s.011.092.011.137a.057.057 0 0 0 .08.035l1.075-.709c.01-.011.022-.023.01-.034v-.149a.06.06 0 0 0-.054-.05m9.195.438a.06.06 0 0 1 .06.047c.068.468 0 1.12-.411 1.028-.115-.023-.16-.24-.138-.331.023-.092.355-.595.457-.732a.06.06 0 0 1 .032-.012m-3.26.012a2 2 0 0 1 .234.012c.057.022-.194.64-.663.868-.468.229-.743.103-1.223.252.035-.172.343-.743.812-.949a2.1 2.1 0 0 1 .84-.183m-2.44.092c.206.103.446.388.468.937.023.548-.365.994-.525 1.074-.103-.423-.297-.503-.297-.914a2.06 2.06 0 0 1 .354-1.097m4.152.227c-.347.016-.568.511-.518 1.041a.91.91 0 0 0 .583.812c.263.091.069.457.423.457.16 0 .194-.24.103-.275-.08-.034-.057.138-.16.115s-.023-.149-.206-.343-.32-.137-.491-.411c-.172-.275-.035-1.372.354-1.235.388.137.183.572.114.914s.286.32.32.24-.126-.102-.16-.217c-.034-.114.4-.868-.206-1.074a.4.4 0 0 0-.156-.024m7.24.093a.08.08 0 0 0-.066.068 4 4 0 0 1-.08.606c-.046.206.137.457.411.308.274-.148.549-.33.834-.388.069-.011.08-.114.012-.114-.103 0-.515.183-.675.286s-.502.308-.48-.092c.012-.149.103-.503.103-.606 0-.051-.028-.071-.058-.068zm-14.64.772a.05.05 0 0 0-.032.016l-.88.972c-.012.011-.023.034-.012.045a.6.6 0 0 1 .046.138.046.046 0 0 0 .08.023l.869-.96c.011-.012.011-.023.011-.046l-.034-.149a.046.046 0 0 0-.047-.039zm4.976.149a.7.7 0 0 1 .226.016c.023.023-.171.674-.674.937s-1.086.309-1.143.24.172-.777.697-1.006c.329-.142.675-.183.894-.187m-2.523.264c.107.011.59.419.6.997a1.65 1.65 0 0 1-.388 1.052c-.149-.137-.469-.491-.503-.949v-.068c0-.492.217-.983.274-1.029q.006-.004.017-.003m1.985 1.07c.133.003.217.018.204.03-.034.035-.206.663-.708.915a1.38 1.38 0 0 1-.995.148c.263-.297.206-.731.64-.937.279-.129.638-.159.86-.155zm-3.866.133a.06.06 0 0 0-.044.023l-.617 1.177c-.012.012 0 .035 0 .046l.08.137a.046.046 0 0 0 .08-.011l.617-1.166c0-.011.011-.023 0-.046l-.069-.137a.06.06 0 0 0-.047-.023m7.66.829q.022.003.044.028c1.783 1.932 2.915 2.31 3.532 2.492.057.023.046.091.023.16-.286 1.005-.435 1.406 0 2.503.057.148.103.262-.023.24-.88-.16-1.075-.297-3.852-.069-.194.023.069-.388.035-.663.251-.034.663-.148.743-.56.08-.411-.24-.868-.206-.937.4-.766-.023-1.611-.354-3.04-.026-.103.012-.16.057-.154zm-6.873.5c-.017.003-.031.014-.031.031l-.331 1.372c-.012.023 0 .034 0 .046l.114.114a.046.046 0 0 0 .08-.012l.32-1.36c.011-.011 0-.023 0-.034l-.103-.137a.05.05 0 0 0-.049-.02m2.489 2.851c.056.007.111.04.154.083.114.115-.08.32-.103.492-.08.022-.331.034-.274-.309.036-.214.13-.277.223-.266m1.583.096c.155-.01.304.046.297.124-.035.492-.24 1.052.137 1.612.149.217-.594.251-.731-.32-.092-.423-.126-1.143.045-1.314a.4.4 0 0 1 .252-.102m.962.04c.203-.002.475.028.546.05.115.034-.091.777.777 1.12.08.034-.011 1.006-1.28.686-.182-.046-.685-.846-.274-1.806.013-.034.11-.048.23-.05zm1.938.018c.23.031.238.746-.112.866-.674.229-.948-.56-.834-.731.114-.172.503.114.834-.103a.16.16 0 0 1 .112-.032m-3.78.073c.128-.004.245.022.251.085.012.126-.126.617.034 1.165-.034.08-.525.046-.662-.32-.069-.308-.046-.72.057-.834.051-.057.191-.091.32-.096"/></svg>