<svg xmlns="http://www.w3.org/2000/svg" viewBox="0 0 24 24"><path d="M17.708 18.099q-.303.228-.714.228-.363 0-.688-.228-.327-.229-.327-.66V9.626h-.023l-2.984 6.057a1.45 1.45 0 0 1-.385.505q-.217.168-.578.168-.36 0-.577-.168a1.44 1.44 0 0 1-.385-.505L8.063 9.627H8.04v7.811a.75.75 0 0 1-.339.66 1.23 1.23 0 0 1-.7.229q-.412 0-.702-.228-.29-.229-.29-.66V6.958q0-.457.29-.853.288-.396 1.036-.396.555 0 .856.252.3.253.542.757l3.277 6.754h.024l3.253-6.754q.24-.504.543-.757.3-.252.855-.252.748 0 1.036.396.29.398.29.854v10.478q0 .433-.302.66zm-5.732 4.156c5.658 0 10.279-4.64 10.279-10.327 0-5.62-4.603-10.183-10.279-10.183-5.674 0-10.23 4.536-10.23 10.183 0 5.59 4.715 10.327 10.23 10.327m0 1.745C5.495 24 0 18.48 0 11.928 0 5.315 5.34 0 11.976 0S24 5.34 24 11.928C24 18.577 18.6 24 11.976 24"/></svg>