<svg xmlns="http://www.w3.org/2000/svg" viewBox="0 0 24 24"><path d="M23.835 8.428q-.023-.276-.053-.552-.024-.206-.052-.411a.6.6 0 0 0-.104-.243q-.13-.165-.266-.323l-.365-.429a42 42 0 0 0-2.509-2.638A43 43 0 0 0 17.3 1.064a9 9 0 0 0-.336-.257.7.7 0 0 0-.252-.1 22 22 0 0 0-1-.102 45 45 0 0 0-3.71-.158 45 45 0 0 0-4.286.211Q7.503.68 7.29.706a.7.7 0 0 0-.253.1q-.17.127-.337.258a43 43 0 0 0-3.185 2.768A43 43 0 0 0 .641 6.898q-.136.16-.267.324a.6.6 0 0 0-.105.243q-.028.205-.05.41-.03.278-.056.553A41 41 0 0 0 0 12.001a41 41 0 0 0 .163 3.574l.057.552q.02.207.05.41.024.132.104.244a24 24 0 0 0 .633.753 43 43 0 0 0 2.507 2.636A42 42 0 0 0 6.7 22.938q.168.13.337.255a.7.7 0 0 0 .253.102l.426.048q.286.028.574.053a45 45 0 0 0 3.712.157q1.857-.001 3.71-.157.29-.025.573-.053.216-.023.427-.048a.7.7 0 0 0 .252-.102q.172-.125.336-.255a42 42 0 0 0 3.187-2.767 42 42 0 0 0 2.509-2.637l.365-.43q.136-.16.266-.323a.6.6 0 0 0 .104-.243q.028-.205.052-.411A40 40 0 0 0 24 12c0-1.191-.058-2.384-.165-3.573m-1.805 6.601q-.02.235-.044.469l-.044.348a.5.5 0 0 1-.089.205q-.11.139-.225.276l-.31.363a36 36 0 0 1-2.126 2.234q-1.291 1.241-2.7 2.346a8 8 0 0 1-.285.216.55.55 0 0 1-.214.087l-.362.04a38 38 0 0 1-3.63.178q-1.576 0-3.146-.132l-.486-.045-.362-.041a.55.55 0 0 1-.214-.087 10 10 0 0 1-.285-.216q-.19-.15-.376-.3a36 36 0 0 1-2.324-2.046 36 36 0 0 1-2.125-2.234q-.273-.315-.536-.639a.5.5 0 0 1-.089-.205 34 34 0 0 1-.09-.817A35 35 0 0 1 1.83 12q.003-1.515.138-3.029.022-.233.048-.467.018-.175.042-.348a.5.5 0 0 1 .089-.206 21 21 0 0 1 .536-.638 36 36 0 0 1 2.125-2.236 36 36 0 0 1 2.7-2.346q.141-.11.285-.218a.6.6 0 0 1 .214-.084q.423-.052.848-.086a39 39 0 0 1 3.146-.135 39 39 0 0 1 3.63.18q.183.018.362.04a.6.6 0 0 1 .214.085 27 27 0 0 1 .662.517 36 36 0 0 1 2.323 2.047q1.111 1.072 2.126 2.236l.31.364q.116.135.225.274a.5.5 0 0 1 .089.205l.044.349q.023.233.044.467.138 1.514.14 3.029-.001 1.516-.14 3.028m-1.225-3c-.098-.01-.981-.012-1.456-.017-.622-.005-1.042 0-1.246-.001-.06 0-.068-.003-.135 0-.003.047-.003.071-.005.13-.002.043-.01.19-.018.384a21 21 0 0 0-.018 1.116l.001.114c.036.002.616.002 1.007.005.053 0 .057.001.11.003-.001.027 0 .052.001.097 0 .048-.055.74-.088.94-.1.149-.163.23-.367.456-.217.24-.256.3-.934.984-.704.712-2.035 1.867-2.513 2.263a10 10 0 0 0-.303.257s.007-.243-.002-.361c.018-4.565.013-7.807-.004-12.84.008-.114-.005-.209 0-.347.15.117.156.123.259.208.7.594 1.438 1.203 2.024 1.79.81.815 1.156 1.174 1.74 1.863.058.073.069.088.108.15.01.064.01.076.021.157.023.193.062.588.068.696.002.062.009.091.007.151.06.006.1 0 .16.004a55 55 0 0 0 1.557 0c.068 0 .072.002.128 0a1.4 1.4 0 0 0 0-.17 12 12 0 0 0-.097-1.292 3 3 0 0 0-.032-.267c-.05-.068-.081-.1-.128-.155A28 28 0 0 0 18.5 6.02c-1.795-1.721-2.75-2.375-2.75-2.375s-.077-.057-.134-.095c-.075-.014-.058-.01-.13-.02a32 32 0 0 0-2.608-.168c-.124-.004-.16-.007-.293-.001.006.15.002.153-.002.267.014 6.216-.02 10.641-.009 16.813v.188s.088.008.203.004c.734 0 2.167-.08 2.534-.14.142-.022.219-.027.319-.056.075-.043.115-.074.176-.126a37 37 0 0 0 2.616-2.267c.983-.941 1.876-1.96 2.09-2.2.09-.099.15-.176.256-.315.045-.166.034-.215.054-.347.093-1.076.167-1.752.167-2.977-.004-.064-.002-.095-.007-.169-.089-.005-.128-.004-.177-.008m-9.539-8.672c-.152.006-.43-.003-.942.026-.537.031-.85.064-.977.075-.073.007-.117.007-.17.013-.022.048-.019.042-.042.103-.779 1.95-1.788 4.655-2.627 6.666-.042.085-.128.3-.128.3s-.039-.064-.139-.267A85 85 0 0 0 4.67 7.276c-.046-.077-.128-.246-.128-.246s-.123.132-.204.204c-.173.155-.805.878-.93 1.046-.064.083-.085.107-.157.21-.03.117-.036.187-.058.316-.045.257-.153 1.364-.18 2.852.004 1.21.076 2.292.186 3.498l.031.322s.137.186.166.219c.605.71 1.046 1.217 1.463 1.643l.358.365s-.018-.257-.025-.39l-.024-.413c-.082-1.297-.244-3.484-.29-4.621-.008-.144.018-.824.018-.824l1.742 3.508s.13-.315.188-.447c.7-1.754 1.366-3.327 2.05-5.081.047-.11.294-.77.294-.77s.007.712 0 .866c-.034 4.924-.019 7.741-.012 10.444l.001.249c0 .138-.003.156-.003.247.181.03.163.03.261.042.317.04.313.051.686.075.385.024.806.035 1.142.043.086-.004.133-.004.175-.006.003-.08.003-.118.003-.193-.029-6.302.044-16.917.044-16.917s.003-.057 0-.162a3 3 0 0 0-.2.001"/></svg>