<svg xmlns="http://www.w3.org/2000/svg" viewBox="0 0 24 24"><path d="m3.292 5.102-.175-4.047c.527.1 1.156.126 2.588.126 1.733 0 4.02-.1 5.202-.25.503-.051.704-.127 1.03-.303l2.714 2.313c-.251.352-.326.503-.603 1.206-.225.553-1.257 3.745-1.659 5.102 1.86.376 2.89.653 4.297 1.23.177-1.23.201-1.884.201-4.121 0-.578-.024-.905-.1-1.432l4.373.15c-.126.604-.15.855-.176 1.835-.1 2.362-.201 3.493-.453 5.202 1.735.88 1.735.88 2.614 1.357.453.251.553.302.855.402l-1.458 4.7c-.704-.628-1.683-1.307-3.117-2.112-1.255 2.99-3.342 5.178-6.507 6.912-1.056-1.408-1.86-2.262-3.143-3.266 1.86-.88 2.715-1.434 3.696-2.363.955-.93 1.582-1.836 2.186-3.191-1.609-.73-2.639-1.056-4.424-1.434-1.03 3.067-1.858 5.027-2.588 6.208-.98 1.582-2.313 2.413-3.845 2.413-1.18 0-2.387-.529-3.268-1.432C.527 19.276 0 17.844 0 16.185c0-2.463 1.18-4.6 3.242-5.932C4.575 9.4 5.98 9.022 8.218 8.897c.453-1.484.829-2.765 1.18-4.197-1.105.1-2.487.175-4.171.252-.904.024-1.205.05-1.935.15m3.82 7.64c-1.182.2-1.886.577-2.513 1.382a2.86 2.86 0 0 0-.704 1.91c0 .778.378 1.357.855 1.357.577 0 1.23-1.307 2.362-4.65"/></svg>