<svg xmlns="http://www.w3.org/2000/svg" viewBox="0 0 24 24"><path d="M0 9.172h7.556A5.3 5.3 0 0 1 9.45 7.39a5.1 5.1 0 0 1 2.548-.659q1.376 0 2.553.662a5.25 5.25 0 0 1 1.889 1.78H24l-.748.749h-6.4a4.3 4.3 0 0 1 .3.888h5.233l-.749.75h-4.369q.02.289.02.439t-.02.44h3.49l-.748.748H17.15a4 4 0 0 1-.299.884h2.264l-.758.748H16.44a5.3 5.3 0 0 1-1.89 1.786 5.1 5.1 0 0 1-2.552.666q-1.375 0-2.548-.663a5.3 5.3 0 0 1-1.894-1.788H5.642l-.744-.749h2.26a4 4 0 0 1-.296-.884H4.006l-.758-.748h3.49a7 7 0 0 1-.02-.44q0-.15.02-.44h-4.36l-.758-.749H6.86a4.3 4.3 0 0 1 .296-.888H.749zm7.844 1.072a4.4 4.4 0 0 0-.358 1.754q0 .916.358 1.754t.963 1.444q.604.607 1.44.967.834.358 1.751.358t1.753-.359a4.5 4.5 0 0 0 1.443-.966q.605-.607.965-1.444t.36-1.754-.36-1.754a4.6 4.6 0 0 0-.965-1.443 4.6 4.6 0 0 0-1.443-.963 4.4 4.4 0 0 0-1.753-.36q-.916 0-1.751.36-.836.359-1.44.963a4.5 4.5 0 0 0-.963 1.443m.553 2.942h.468l-.013-1.773.566 1.773.52-.003.556-1.76v1.763h.499v-2.377h-.703l-.603 1.895-.615-1.893-.674-.002zm3.134 0h.495v-2.377h-.495zm1.033 0h.477v-1.712l.949 1.712h.575v-2.377h-.468v1.722l-.949-1.722h-.584zm2.548 0h.486v-2.377h-.486z"/></svg>