<svg xmlns="http://www.w3.org/2000/svg" viewBox="0 0 24 24"><path d="M8.91 16.892c-1.039.003-1.931-.63-2.352-1.366-.225-.322-.67-.437-.676 0v2.014q0 1.215-.876 2.1-.85.86-2.078.86-1.2 0-2.077-.86A2.93 2.93 0 0 1 0 17.54V6.46q0-.936.526-1.695a2.86 2.86 0 0 1 1.402-1.088 2.9 2.9 0 0 1 1-.177q1.353 0 2.253 1.063l2.997 3.515c.067.05.263.437.732.437.47 0 .692-.386.758-.437l2.972-3.515Q13.567 3.5 14.918 3.5q.501 0 1.001.177a2.73 2.73 0 0 1 1.377 1.088q.55.758.55 1.695v11.08q0 1.215-.875 2.1-.852.86-2.078.86-1.201 0-2.078-.86a2.93 2.93 0 0 1-.85-2.1v-2.014c-.05-.55-.531-.204-.702 0-.45.843-1.313 1.361-2.352 1.366M21.448 8.61q-1.05 0-1.802-.733-.726-.759-.726-1.822c0-1.063.242-1.307.726-1.796a2.44 2.44 0 0 1 1.802-.758q1.05 0 1.803.758.75.735.75 1.796 0 1.063-.75 1.822-.751.732-1.803.733m.025.507q1.05 0 1.777.758.75.759.751 1.822v6.248q0 1.064-.75 1.821a2.4 2.4 0 0 1-1.778.734q-1.05 0-1.802-.733a2.5 2.5 0 0 1-.75-1.822v-6.248a2.5 2.5 0 0 1 .75-1.822 2.44 2.44 0 0 1 1.802-.758"/></svg>