<svg xmlns="http://www.w3.org/2000/svg" viewBox="0 0 24 24"><path d="M1.402 0C.625 0 0 .625 0 1.402v21.196C0 23.375.625 24 1.402 24h21.196c.777 0 1.402-.625 1.402-1.402V1.402C24 .625 23.375 0 22.598 0zm2.882 5.465h3.038v13.068H4.284v-.986h1.863V6.45H4.284zm12.394 0h3.038v.985h-1.863v11.098h1.863v.986h-3.038zm-7.856 3.55h1.35q.162.662.378 1.418.23.742.472 1.485.257.729.513 1.417.256.69.486 1.229.23-.54.486-1.229.257-.688.5-1.417.256-.742.472-1.485.23-.756.392-1.418h1.296a34 34 0 0 1-1.242 3.78 56 56 0 0 1-1.364 3.24h-1.134a63 63 0 0 1-1.377-3.24 36 36 0 0 1-1.228-3.78"/></svg>