<svg xmlns="http://www.w3.org/2000/svg" viewBox="0 0 24 24"><path d="M14.014 7.37a9 9 0 0 0-.808.025c-.218.017-.434.072-.65.11.229.118.456.213.68.315q.339.155.629.387c-.253-.097-.499-.208-.752-.298a8 8 0 0 0-1.624-.421c-.273-.037-.546-.073-.819.005-.276.078-.354.18-.38.458-.04.46.098.887.281 1.298a4.4 4.4 0 0 0 1.185 1.573 4.6 4.6 0 0 0 1.305.787q.205.078.411.155l-.009.032c-.263-.072-.532-.126-.787-.22a4.1 4.1 0 0 1-1.222-.73 4.2 4.2 0 0 1-1.007-1.22 3.4 3.4 0 0 1-.43-1.609l-.012.005C4.891 7.488.402 11.595.035 11.94l-.034.014q-.002.007.003.016L0 11.974l.005-.002q.007.012.013.024c.087-.019.173-.042.26-.054l.069-.01c.324-.115.655-.205.997-.253.484-.069.985-.159 1.48-.156.468.002.943.074 1.402.153q.193.034.38.087c.335.075.65.21.933.391l.06.03c.403.19.758.47 1.038.811.052.057.141.116.187.178.096.114.142.236.303.363v-1.737h2.01l.939 1.733.942-1.733h2.07v3.357l.343-.226s.375-1 2.116-1.14l1.996-.064c-.308-.637-.307-.637-.159-.83.147-.19 1.28-.314 1.48-.433l2.912-.588c.007-.022.015.012.03.007.072-.022.147-.037.25-.061l.66-.16c.042-.025.093-.034.14-.05.308-.107.577-.245.726-.573.145-.319.339-.616.41-.967.022-.111.003-.208-.078-.288a.73.73 0 0 0-.35-.171c-.421-.173-.84-.35-1.264-.513-.261-.101-.529-.185-.795-.27a31 31 0 0 0-.794-.243q-.366-.106-.736-.205c-.24-.066-.48-.133-.72-.192-.282-.07-.565-.13-.847-.195-.215-.05-.428-.102-.644-.146q-.351-.07-.706-.13c-.302-.053-.602-.112-.905-.153-.366-.05-.734-.082-1.101-.125q-.518-.061-1.038-.07m-3.303.767a.2.2 0 0 1 .056.007c.42.13.83.277 1.216.491.365.203.695.45.979.756.012.013.02.028.036.05l-.645-.293-.021.026.37.551-.022.022a2 2 0 0 0-.665-.322l-.02.02.633.74-.416-.136-.017.02c.163.27.376.505.58.775-.354-.2-.665-.42-.956-.669a4.5 4.5 0 0 1-1.01-1.185c-.107-.19-.201-.385-.222-.606a.5.5 0 0 1 .011-.15.12.12 0 0 1 .113-.097m5.424.668c.154.002.311-.006.464.015.278.037.555.092.832.14.158.027.317.052.474.086q.446.098.89.2.294.068.587.14l-.329.161c-.365.027-.731.055-1.097.057a3.3 3.3 0 0 1-.675-.074c-.28-.058-.514-.196-.652-.466-.02-.04-.09-.063-.14-.078-.18-.054-.362-.1-.544-.168.063-.005.126-.014.19-.013m3.223 2.635.005.02q-.12.031-.239.067c-.455.14-.916.266-1.363.428-.28.101-.544.25-.81.388-.233.119-.315.322-.287.575.019.162.04.324.055.488a1.8 1.8 0 0 1-.288-.701c-.035-.169.058-.273.18-.365.238-.178.496-.318.777-.41.35-.117.702-.233 1.059-.325.251-.065.513-.09.77-.133q.071-.014.141-.032M9.141 13.955v2.676h1.869l.064-.066v-2.61l-.97 1.495z"/></svg>