<svg xmlns="http://www.w3.org/2000/svg" viewBox="0 0 24 24"><path d="M12 .08A12 11.92 0 0 0 0 12a12 11.92 0 0 0 12 11.92A12 11.92 0 0 0 24 12 12 11.92 0 0 0 12 .08M9.463 1.56c.393 0 .763.21.944.57-.013 1.409-.007 2.819-.008 4.23v.001c.013.303-.019.633.004.951s.102.627.341.88c.357.447.942.468 1.45.446h-.003.003c.736.093 1.468-.476 1.519-1.225v-.001c.013-1.74.008-3.479 0-5.218.115-.387.562-.669.973-.617h.006c1.457-.108 3.002.616 3.661 1.953l.001.002c.252.448.328 1.023.381 1.496v4.258a3.4 3.4 0 0 0-.757-.174l-.037-.004v.281h-.022v-.193c0-.148-.13-.265-.285-.265h-.36a.3.3 0 0 0-.102.018c-.002-1.298.007-2.592-.01-3.895v-.001a2.2 2.2 0 0 0-.571-1.358c-.337-.368-.801-.606-1.33-.567l-.03.002v3.995c.104 1.115-.673 2.259-1.791 2.469-.742.09-1.498.028-2.252.047h-.002c-1.184.1-2.306-.88-2.39-2.06-.027-1.475-.004-2.952-.012-4.428v-.032h-.032c-.508-.006-.945.241-1.26.606a2.25 2.25 0 0 0-.534 1.319C6.94 6.383 6.95 7.71 6.948 9.04a.3.3 0 0 0-.156-.045H6.44a.273.273 0 0 0-.28.265v.122h-.007v-.217l-.036.004a3.4 3.4 0 0 0-.733.166V5.273c.007-.371.045-.734.139-1.117.401-1.573 2.014-2.627 3.604-2.588l.082.003.08.001h.003a1 1 0 0 1 .17-.013zM17.275 9h.36c.122 0 .217.088.217.196v10.736c0 .107-.095.196-.218.196h-.36c-.122 0-.217-.089-.217-.196V9.196c0-.108.095-.196.218-.196M6.44 9.064h.353q.062 0 .11.03l.013.007a.2.2 0 0 1 .035.028q.053.053.054.131v10.737c0 .108-.093.196-.212.196H6.44c-.12 0-.212-.088-.212-.196V9.26c0-.108.093-.196.212-.196m11.567.118q.083.011.164.025c2.061.356 3.662 2.656 3.662 5.452 0 2.869-1.686 5.217-3.826 5.476zM6.09 9.241v10.952c-2.14-.259-3.826-2.607-3.826-5.476 0-2.775 1.578-5.063 3.618-5.444l.011-.002.034-.006zm11.83 10.642h.022v.326l.036-.004a3 3 0 0 0 .371-.062.2.2 0 0 1-.09.173l-.002.001v.001s-.618.496-.947.707c-.314.187-.49.338-.758.455a2 2 0 0 1-.19.067 1 1 0 0 1-.14.032h-2.206l-.02-.002a.68.68 0 0 0 .052-.456h2.068s.127-.011.28-.085c.19-.091.39-.225.577-.347.209-.137.403-.283.607-.435q.039-.03.072-.06c.148-.008.268-.12.268-.263zm-5.684.39c.487 0 .928.115 1.244.299.317.184.506.433.506.705s-.19.52-.506.705c-.316.183-.757.299-1.244.299-.488 0-.93-.116-1.245-.3-.317-.183-.506-.433-.506-.704 0-.272.19-.521.506-.705s.757-.3 1.245-.3z"/></svg>