<svg xmlns="http://www.w3.org/2000/svg" viewBox="0 0 24 24"><path d="M11.777 23.997a11.99 11.99 0 0 1-8.98-4.296 12 12 0 0 1-2.406-4.655A12.1 12.1 0 0 1 .273 9.44a11.9 11.9 0 0 1 1.72-4.064 12.06 12.06 0 0 1 4.056-3.799 11.9 11.9 0 0 1 4.13-1.44 12.2 12.2 0 0 1 3.693.007c1.708.27 3.302.89 4.751 1.848.873.577 1.692 1.29 2.385 2.08a11.97 11.97 0 0 1 2.68 5.196c.402 1.718.416 3.556.039 5.291a12 12 0 0 1-4.024 6.643 12 12 0 0 1-4.655 2.407c-.743.195-1.499.316-2.29.367a18 18 0 0 1-.809.026l-.172-.003zm-6.924-6.684a.5.5 0 0 0 .23-.133.55.55 0 0 0 .139-.232c.013-.043.014-.178.018-2.363.004-2.12.005-2.327.018-2.438.033-.298.076-.51.146-.72.101-.303.224-.516.406-.705.14-.144.26-.232.434-.315a1.8 1.8 0 0 1 .504-.148c.114-.017.382-.024.493-.012a1.8 1.8 0 0 1 1.308.807c.166.25.271.528.327.866l.017.106.004 2.438c.004 2.324.005 2.44.019 2.485a.56.56 0 0 0 .133.226.5.5 0 0 0 .201.128c.052.019.068.021.167.021a.46.46 0 0 0 .37-.145.5.5 0 0 0 .149-.3c.006-.042.008-.774.008-2.407 0-1.542.003-2.375.008-2.428q.071-.72.523-1.225c.183-.204.464-.39.73-.482.21-.074.394-.101.626-.095.304.01.55.066.8.186.284.136.514.341.668.597.178.294.28.662.299 1.083.002.053.013.491.023.973.022 1.002.024 1.063.04 1.238.072.787.307 1.426.711 1.935.087.11.311.333.417.417q.651.516 1.532.634c.177.024.507.03.68.012.797-.082 1.53-.463 2.015-1.046.373-.45.606-.99.704-1.64.046-.302.043-.143.046-2.506.003-2.417.007-2.223-.054-2.346a.48.48 0 0 0-.332-.251.58.58 0 0 0-.416.06c-.1.06-.19.183-.22.304-.009.031-.012.478-.016 2.22-.005 2.415 0 2.23-.055 2.51-.18.917-.81 1.522-1.73 1.66a2.4 2.4 0 0 1-.512-.008q-.695-.105-1.13-.557c-.332-.345-.53-.816-.601-1.432-.018-.151-.026-.387-.043-1.212-.018-.853-.026-1.05-.047-1.24-.129-1.123-.68-1.983-1.548-2.417a2.8 2.8 0 0 0-1.121-.294c-.55-.035-1.136.12-1.671.441a3 3 0 0 0-.813.707l-.038.049-.028-.038a3 3 0 0 0-.235-.261c-.457-.433-1.1-.722-1.78-.8a4 4 0 0 0-.65-.001c-.635.07-1.141.286-1.559.666-.48.437-.795 1.103-.912 1.926-.056.393-.057.436-.054 2.915l.002 2.184.022.064a.53.53 0 0 0 .359.339c.078.02.188.02.267 0zm11.99-8.863a.69.69 0 0 0 .546-.505.9.9 0 0 0 .008-.3.69.69 0 0 0-.455-.516.678.678 0 0 0-.895.649c0 .055.005.11.012.142a.684.684 0 0 0 .783.53zm-2.667-.138a.5.5 0 0 0 .32-.265c.046-.092.06-.158.067-.343a2.22 2.22 0 0 1 .617-1.49 1.93 1.93 0 0 1 1.146-.587c.145-.022.434-.024.581-.004q.46.065.822.3c.244.16.474.4.634.663.202.333.326.763.327 1.127q0 .148.036.26a.507.507 0 0 0 .94.068c.053-.111.06-.15.059-.35 0-.198-.01-.318-.043-.514-.217-1.298-1.165-2.294-2.426-2.545a2.5 2.5 0 0 0-.625-.055 3.03 3.03 0 0 0-2.738 1.638 3.3 3.3 0 0 0-.366 1.43c-.01.265.037.418.167.544a.51.51 0 0 0 .482.123"/></svg>