<svg xmlns="http://www.w3.org/2000/svg" viewBox="0 0 24 24"><path d="M12 0C5.372 0 0 5.372 0 12s5.372 12 12 12 12-5.372 12-12S18.628 0 12 0M6.49 5.922a2.083 2.083 0 0 1 2.096 2.064 2.07 2.07 0 0 1-.832 1.674l1.787 4.22L12.5 12.63l-.385-.908a2 2 0 0 1-.281.023A2.083 2.083 0 0 1 9.738 9.68a2.08 2.08 0 0 1 4.16-.032 2.08 2.08 0 0 1-.767 1.627l1.125 2.657 3.53-1.496a2 2 0 0 1-.046-.413 2.08 2.08 0 1 1 2.096 2.063 2.08 2.08 0 0 1-1.535-.664l-3.614 1.53.496 1.173a.554.554 0 0 1-.292.727.555.555 0 0 1-.727-.295l-1.23-2.909-4.883 2.067q.018.127.02.256a2.083 2.083 0 0 1-2.065 2.095 2.083 2.083 0 0 1-2.096-2.064 2.083 2.083 0 0 1 2.065-2.096 2.07 2.07 0 0 1 1.642.79l.904-.383-1.796-4.245a2 2 0 0 1-.202.012 2.08 2.08 0 0 1-2.095-2.062A2.08 2.08 0 0 1 6.49 5.922M6.5 7.14a.861.861 0 1 0 .015 1.722.861.861 0 0 0-.015-1.722m5.313 1.662a.861.861 0 1 0 .012 1.719.861.861 0 0 0-.013-1.72m7.956 2.343a.861.861 0 1 0 .91.854.863.863 0 0 0-.866-.853zM5.985 15.125a.86.86 0 0 0-.853.867.86.86 0 0 0 .865.856.862.862 0 0 0-.012-1.723"/></svg>