<svg xmlns="http://www.w3.org/2000/svg" viewBox="0 0 24 24"><path d="M14.131.047c-.173 0-.334.037-.483.087.316.21.49.49.576.806.007.043.019.074.025.117a1 1 0 0 1 .013.112c.024.545-.143.614-.26.936-.18.415-.13.861.086 1.22a.7.7 0 0 0 .074.137c-.235-1.568 1.073-1.803 1.314-2.293.019-.428-.334-.713-.613-.911a1.37 1.37 0 0 0-.732-.21zM16.102.4c-.024.143-.006.106-.012.18-.006.05-.006.112-.012.161-.013.05-.025.1-.044.149q-.019.075-.05.149l-.067.142c-.02.025-.031.05-.05.075l-.037.055a2 2 0 0 1-.093.124c-.037.038-.068.081-.112.112v.006c-.037.031-.074.068-.118.1-.13.099-.278.173-.415.266-.043.03-.087.056-.124.093a1 1 0 0 0-.118.099c-.043.037-.074.074-.111.118-.031.037-.068.08-.093.124a2 2 0 0 0-.087.13c-.025.05-.043.093-.068.142-.019.05-.037.093-.05.143a2 2 0 0 0-.043.155c-.006.025-.006.056-.012.08-.007.025-.007.05-.013.075 0 .05-.006.105-.006.155q-.002.055.006.111 0 .074.019.155.01.075.03.15c.02.049.032.098.05.148.013.03.031.062.044.087l-1.426-.552c-.241-.068-.477-.13-.719-.186l-.39-.093q-.56-.111-1.128-.167c-.013 0-.019-.006-.031-.006A11 11 0 0 0 8.9 2.855c-.378.025-.756.074-1.134.136a13 13 0 0 0-.837.174l-.279.074c-.092.037-.18.08-.266.118l-.205.093c-.012.006-.024.006-.03.012-.063.031-.118.056-.174.087a3 3 0 0 0-.236.118c-.043.018-.086.043-.124.062l-.055.03q-.085.048-.162.094a2 2 0 0 0-.148.093c-.044.03-.087.055-.124.086-.006.007-.013.007-.019.013-.037.025-.08.056-.118.087l-.012.012-.093.074c-.012.007-.025.019-.037.025-.031.025-.062.056-.093.08-.006.013-.019.02-.025.025-.037.038-.074.069-.111.106-.007 0-.007.006-.013.012a2 2 0 0 0-.111.106c-.007.006-.007.012-.013.012a2 2 0 0 0-.093.1c-.012.012-.03.024-.043.036a1 1 0 0 1-.106.112c-.006.012-.018.019-.024.03-.05.05-.093.1-.143.15l-.018.018c-.1.106-.205.211-.317.304q-.168.15-.347.273a3.8 3.8 0 0 1-.762.421c-.13.056-.267.106-.403.149-.26.056-.527.161-.756.18-.05 0-.105.012-.155.018l-.155.037-.149.056q-.075.03-.148.068c-.044.031-.093.056-.137.087a1 1 0 0 0-.124.106c-.043.03-.087.074-.124.111-.037.043-.074.08-.105.124-.031.05-.068.093-.093.143a1 1 0 0 0-.087.142c-.025.056-.05.106-.068.161q-.028.077-.056.161c-.012.05-.025.1-.03.15 0 .005-.007.012-.007.018-.012.056-.012.13-.019.167C.006 7.95 0 7.986 0 8.03a.66.66 0 0 0 .074.31v.006q.03.056.069.112.035.056.08.111c.031.031.068.069.106.1a1 1 0 0 0 .117.099c.149.13.186.173.378.272.031.019.062.031.1.05.006 0 .012.006.018.006 0 .013 0 .019.006.031a1.3 1.3 0 0 0 .08.298c.02.037.032.074.05.111q.01.02.02.031c.024.05.049.093.073.137l.093.13c.031.037.069.08.106.118s.074.068.118.105c0 0 .006.006.012.006q.055.048.112.087a1 1 0 0 0 .136.08c.043.025.093.05.142.069a1 1 0 0 0 .124.043c.007.006.013.006.025.012.025.007.056.013.08.019-.018.335-.024.65.026.762.055.124.328-.254.6-.688-.036.428-.061.93 0 1.079.069.155.44-.329.763-.862 4.395-1.016 8.405 2.02 8.826 6.31-.08-.67-.905-1.041-1.283-.948-.186.458-.502 1.047-1.01 1.413.043-.41.025-.83-.062-1.24a4 4 0 0 1-.769 1.562c-.588.043-1.177-.242-1.487-.67-.025-.018-.031-.055-.05-.08q-.029-.065-.05-.13a.5.5 0 0 1-.037-.13q-.008-.064-.006-.137v-.093a1 1 0 0 1 .031-.13q.017-.064.044-.13c.024-.043.043-.087.074-.13.105-.298.105-.54-.087-.682a1 1 0 0 0-.118-.062c-.024-.006-.055-.018-.08-.025l-.05-.018a1 1 0 0 0-.13-.031.5.5 0 0 0-.13-.019 1 1 0 0 0-.136-.012c-.031 0-.062.006-.093.006a.5.5 0 0 0-.137.019q-.064.008-.13.024a1 1 0 0 0-.13.044c-.043.018-.08.037-.124.056-.037.018-.074.043-.118.062-1.444.942-.582 3.148.403 3.787-.372.068-.75.148-.855.229l-.013.012q.4.24.837.416c.397.13.818.247 1.004.297v.006a6 6 0 0 0 1.562.112c2.746-.192 4.996-2.281 5.405-5.033l.037.161c.019.112.043.23.056.347v.006q.016.085.025.162v.024q.01.085.012.162.01.102.012.204v.1c0 .03.007.067.007.098 0 .038-.007.075-.007.112v.087c0 .043-.006.08-.006.124q.002.036-.006.08c0 .044-.006.087-.006.137q-.007.027-.006.055l-.02.143q.001.028-.005.056c-.007.062-.019.118-.025.18v.012l-.037.174v.018l-.037.167c0 .007-.007.02-.007.025a2 2 0 0 1-.043.168v.018q-.03.091-.05.174-.008.01-.006.012l-.056.186c-.024.062-.043.118-.068.18s-.043.124-.068.18c-.025.062-.05.117-.074.18h-.007c-.024.055-.05.117-.08.173l-.019.043c-.006.006-.006.013-.012.019a5.9 5.9 0 0 1-1.742 2.082c-.05.031-.099.069-.149.106-.012.012-.03.018-.043.03a3 3 0 0 1-.136.094l.018.037h.007l.26-.037h.006q.241-.039.483-.087c.044-.006.093-.019.137-.031l.087-.019c.043-.006.086-.018.13-.024.037-.013.074-.02.111-.031.62-.15 1.221-.354 1.798-.595a9.9 9.9 0 0 1-3.85 3.142c.714-.05 1.426-.167 2.114-.366a9.9 9.9 0 0 0 5.857-4.68 9.9 9.9 0 0 1-1.667 3.986 9.8 9.8 0 0 0 1.655-1.376 9.82 9.82 0 0 0 2.61-5.268c.21.98.272 1.99.18 2.987 4.474-6.241.371-12.712-1.346-14.416-.006-.013-.012-.019-.012-.031-.006.006-.006.006-.006.012 0-.006 0-.006-.007-.012q-.002.11-.012.223a8 8 0 0 1-.062.415c-.03.136-.068.273-.105.41-.044.13-.093.266-.15.396a5 5 0 0 1-.185.378 5 5 0 0 1-.477.688c-.093.111-.192.21-.292.31a4 4 0 0 1-.18.155l-.142.124a4 4 0 0 1-.347.241 4 4 0 0 1-.366.211q-.195.091-.39.174a4.4 4.4 0 0 1-.818.223c-.143.025-.285.037-.422.05a5 5 0 0 1-.297.012 5 5 0 0 1-.422-.025 3 3 0 0 1-.421-.062 3 3 0 0 1-.415-.105h-.007c.137-.013.273-.025.41-.05a4.5 4.5 0 0 0 .818-.223c.136-.05.266-.112.39-.174.13-.062.248-.13.372-.204q.178-.119.347-.248.168-.13.316-.279c.105-.093.198-.198.291-.304q.14-.167.26-.334c.013-.019.026-.044.038-.062q.095-.15.18-.298a4.3 4.3 0 0 0 .334-.775c.044-.13.075-.266.106-.403.025-.142.05-.278.062-.415.012-.142.025-.285.025-.421 0-.1-.007-.199-.013-.298a7 7 0 0 0-.05-.415 5 5 0 0 0-.092-.415c-.044-.13-.087-.267-.137-.397s-.111-.26-.173-.384q-.102-.187-.211-.366a7 7 0 0 0-.248-.34q-.138-.16-.285-.317a4 4 0 0 0-.161-.155q-.422-.327-.862-.607a1 1 0 0 0-.124-.062 2.4 2.4 0 0 0-.589-.26Z"/></svg>