<svg xmlns="http://www.w3.org/2000/svg" viewBox="0 0 24 24"><path d="M16.082 5.873q-.136 0-.276.01c-.73.05-1.504.281-2.256.64a9.6 9.6 0 0 0-3.024 2.3 7 7 0 0 0-.944 1.343c.393-.019.9-.043 1.023-.043.318-.003.547.097.71.246 0 0 .3-.033.416-.087l.002-.002a2 2 0 0 1 .799-.175c.354-.004.632.071.838.197a.52.52 0 0 1 .361-.15l.783-.01a.5.5 0 0 1 .209.042.5.5 0 0 1 .205-.046l.748-.005q.104 0 .197.039a.5.5 0 0 1 .199-.043l.783-.006a.52.52 0 0 1 .371.15l.102-.05q.369-.166.793-.175h.008c.381 0 .673.09.887.233l.17.142.057-.058a1.2 1.2 0 0 1 .278-.197c-.044-1.63-.56-3.1-1.686-3.82-.514-.334-1.114-.48-1.753-.475m-4.481.039a4 4 0 0 0-.276.008c-.703.048-1.447.263-2.173.598-1.394.646-2.722 1.736-3.588 2.946a7 7 0 0 0-.238.357C3.661 12.5 4.193 15.878 6.52 17.37a4.5 4.5 0 0 0 2.222.695l-.187.007a5.15 5.15 0 0 0 2.457-.435 4 4 0 0 1-.522-.284 4.5 4.5 0 0 1-1.466-1.541 5.1 5.1 0 0 1-.579-1.524h-.12a.518.518 0 0 1-.506-.647l.779-3.061a.52.52 0 0 1 .476-.39q.104-.194.221-.383a8 8 0 0 1 1.118-1.396c.84-.848 1.88-1.572 2.946-2.024l-.002-.003c-.517-.331-1.117-.474-1.755-.472Zm-4.384.036C4.976 5.977 2.259 7.807.969 9.88c-1.666 2.675-1.13 6.055 1.197 7.546 1.34.86 2.988.903 4.459.27a4.4 4.4 0 0 1-.603-.324c-2.324-1.489-2.86-4.866-1.193-7.545.896-1.442 2.482-2.762 4.116-3.445-.51-.308-1.1-.442-1.728-.434m15.314 4.579a.74.74 0 0 0-.521.197q-.202.194-.315.629l-.282 1.11a1.5 1.5 0 0 0-.06.468.37.37 0 0 0 .152.264q.134.102.383.097a.8.8 0 0 0 .288-.057 1.1 1.1 0 0 0 .29-.168l-.06.237a.9.9 0 0 1-.102.264q-.052.062-.156.063-.145.002-.093-.207l-.889.01q-.106.446.122.594.223.152.663.146a2 2 0 0 0 .61-.087 1.1 1.1 0 0 0 .429-.241.9.9 0 0 0 .227-.294 6 6 0 0 0 .18-.619l.603-2.36-.852.005-.124.233a.51.51 0 0 0-.493-.284m-2.414.02a.74.74 0 0 0-.517.195q-.202.195-.315.629l-.284 1.11a1.4 1.4 0 0 0-.06.468.36.36 0 0 0 .152.266q.133.101.381.1a.8.8 0 0 0 .286-.06 1.1 1.1 0 0 0 .294-.166l-.063.235a.8.8 0 0 1-.101.266q-.05.06-.152.063-.147.002-.096-.205l-.904.004v.317c.007.141.039.216.138.282q.227.148.665.142a1.9 1.9 0 0 0 .609-.083 1.2 1.2 0 0 0 .426-.242.9.9 0 0 0 .229-.298 5 5 0 0 0 .182-.617l.6-2.359-.847.004-.126.233a.5.5 0 0 0-.2-.213.6.6 0 0 0-.297-.07zm-1.988.02q-.315.005-.588.128a1.1 1.1 0 0 0-.438.361c-.11.154-.202.365-.268.631l-.23.893c-.055.23-.085.4-.085.52a.67.67 0 0 0 .09.324.55.55 0 0 0 .284.235 1.2 1.2 0 0 0 .49.08 1.4 1.4 0 0 0 .52-.09 1.1 1.1 0 0 0 .393-.264 1.3 1.3 0 0 0 .248-.326 2.5 2.5 0 0 0 .146-.436l.059-.224-.87.009-.104.403a1 1 0 0 1-.113.307.17.17 0 0 1-.159.08q-.08.001-.095-.058-.012-.06.04-.268l.169-.661 1.18-.01.102-.408q.113-.445.075-.69a.56.56 0 0 0-.25-.391q-.213-.144-.596-.144zm-5.59.057q-.314.003-.59.128-.274.125-.441.36-.166.233-.266.632l-.23.895q-.086.34-.085.517a.7.7 0 0 0 .09.327.56.56 0 0 0 .284.233q.202.082.49.081a1.5 1.5 0 0 0 .52-.091q.22-.089.391-.264c.114-.114.2-.223.248-.326a2.5 2.5 0 0 0 .146-.437l.057-.225-.87.006-.104.406a1 1 0 0 1-.114.308.18.18 0 0 1-.156.08q-.082.003-.097-.057-.012-.06.04-.268l.169-.663 1.183-.01.105-.406q.114-.446.075-.692a.56.56 0 0 0-.25-.388q-.212-.151-.596-.146zm-1.93.019a.75.75 0 0 0-.351.085q-.166.086-.31.253l.089-.282-.935.01-.781 3.06.919-.008.527-2.07a2.5 2.5 0 0 1 .132-.424.16.16 0 0 1 .142-.08c.061-.003.091.023.093.066q.003.07-.079.386l-.54 2.12.917-.004.548-2.147q.102-.404.104-.572a.37.37 0 0 0-.12-.284q-.119-.111-.355-.11zm6.252 0-.785.006a20 20 0 0 0-.655 1.763l.26-1.76-.749.005q-.592 1.586-.66 1.763l.248-1.76-.783.011-.391 3.057.983-.01.587-1.485q-.122.89-.185 1.44c0 .016.011.022.01.035h.97zm5.968.428q.08-.002.092.054a1 1 0 0 1-.045.27l-.241.948a1.4 1.4 0 0 1-.116.334c-.03.051-.077.073-.136.077q-.08 0-.09-.06a1 1 0 0 1 .044-.268l.263-1.029a.9.9 0 0 1 .098-.26.16.16 0 0 1 .131-.066m-2.41.018q.082 0 .09.059a.9.9 0 0 1-.043.268l-.243.949a1.4 1.4 0 0 1-.112.337.16.16 0 0 1-.138.075q-.08-.001-.09-.061a1 1 0 0 1 .043-.268l.264-1.03a.7.7 0 0 1 .1-.26.16.16 0 0 1 .13-.07zm-2.393.02h.012q.076 0 .083.071a1.2 1.2 0 0 1-.055.307l-.055.227h-.267l.059-.225a1.5 1.5 0 0 1 .1-.319q.037-.057.123-.06zm-5.583.057q.072 0 .079.069.008.07-.05.308l-.06.226-.263.004.056-.226a1.5 1.5 0 0 1 .104-.32q.034-.058.134-.06zm.442 2.806a1.7 1.7 0 0 1-.38.215l-.005.002q-.299.12-.704.127h-.004q-.407-.001-.69-.121a1.2 1.2 0 0 1-.25-.136.52.52 0 0 1-.418.215l-.917.004a.5.5 0 0 1-.137-.016.5.5 0 0 1-.136.018l-.305.004q.123.59.372 1.124a4.57 4.57 0 0 0 1.675 1.943 4.4 4.4 0 0 0 2.22.694c1.87.082 3.828-.952 5.008-2.846q.209-.335.388-.708l-.014-.008c-.175-.115-.28-.237-.331-.426l-.16.075a2 2 0 0 1-.706.126 1.7 1.7 0 0 1-.698-.122c-.204-.085-.765.091-.982.091h-.97a.5.5 0 0 1-.194-.038.5.5 0 0 1-.211.048l-.986.01a.52.52 0 0 1-.465-.275"/></svg>