<svg xmlns="http://www.w3.org/2000/svg" viewBox="0 0 24 24"><path d="M1.187 3.236Q.002 4.33.002 5.97v15.584q-.03.364.365.364H3.07q.365 0 .365-.364V6.03q0-.608.638-.608H6.29q.608 0 .608.608v15.523q0 .364.425.364h2.643q.364 0 .395-.364V5.97q-.03-1.64-1.185-2.734A4.05 4.05 0 0 0 6.29 2.082H4.073q-1.701 0-2.886 1.154m20.9 18.105q.395-.243.728-.547Q24 19.64 24 18.06v-5.62q-.03-.394-.395-.394h-4.374q-.395 0-.395.394v2.522q0 .395.395.395h.941q.366 0 .365.425v2.278q0 .577-.577.577h-2.248q-.638 0-.638-.577V6.03q0-.607.638-.607h2.248q.577 0 .577.608V8.34q-.03.364.395.394h2.673q.365-.03.395-.394V5.97q0-1.61-1.185-2.734Q21.6 2.082 19.96 2.082h-2.248q-1.671 0-2.855 1.154-1.245 1.124-1.216 2.734v12.09q-.03 1.58 1.216 2.734.333.304.729.547.94.577 2.126.577h2.248q1.185 0 2.126-.577Z"/></svg>