<svg xmlns="http://www.w3.org/2000/svg" viewBox="0 0 24 24"><path d="M22.399 13.37a6 6 0 0 0-.565-.568 6.38 6.38 0 0 0-4.234-1.599h-4.8V6.401a6.38 6.38 0 0 0-1.598-4.234 6 6 0 0 0-.567-.564A6.397 6.397 0 0 0 .002 6.402V11.2a1.6 1.6 0 0 0 1.6 1.599h9.595v4.799a6.37 6.37 0 0 0 .855 3.198l.084.145a6.4 6.4 0 0 0 .662.895 7 7 0 0 0 .564.564 6.5 6.5 0 0 0 .891.658l.146.086a6.41 6.41 0 0 0 7.432-.744 7 7 0 0 0 .566-.566 6.397 6.397 0 0 0 0-8.467zm-11.198-2.171H1.605v-4.8a4.799 4.799 0 0 1 9.596 0zm6.397 11.195a4.77 4.77 0 0 1-3.2-1.225 4 4 0 0 1-.377-.376 4.78 4.78 0 0 1-1.221-3.199v-4.796h4.799a4.799 4.799 0 0 1 0 9.596z"/></svg>