<svg xmlns="http://www.w3.org/2000/svg" viewBox="0 0 24 24"><path d="M6.353 0h11.294A6.353 6.353 0 0 1 24 6.353v11.294A6.353 6.353 0 0 1 17.647 24H6.353A6.353 6.353 0 0 1 0 17.647V6.353A6.353 6.353 0 0 1 6.353 0m7.755 6.913h-.933v6.702a2.9 2.9 0 0 1-.362 1.45c-.24.424-.596.77-1.025 1q-.664.366-1.553.365-.888 0-1.55-.364a2.6 2.6 0 0 1-1.024-1 2.87 2.87 0 0 1-.365-1.45V6.912h-.933v6.767a3.56 3.56 0 0 0 .489 1.862c.327.547.798.994 1.362 1.292q.873.474 2.021.474 1.154 0 2.024-.471a3.47 3.47 0 0 0 1.36-1.293c.33-.565.5-1.21.49-1.864zm3.648 10.22V6.914h-.933v10.22h.933Z"/></svg>