<svg xmlns="http://www.w3.org/2000/svg" viewBox="0 0 24 24"><path d="M12.008 0A823 823 0 0 0 1.59 6.043V18c3.578 2.087 7.238 4.274 10.418 6 3.928-2.267 6.71-3.868 10.402-6v-3.043l-1.045.6v1.8l-1.545.9-1.56-.9v-1.8l1.56-.885v-.002l.268.156a8 8 0 0 0 .404-1.754v-.002a9 9 0 0 0 .072-1.072 10 10 0 0 0-.072-1.127 9 9 0 0 0-.515-1.97v-.003a8.1 8.1 0 0 0-1.301-2.242 7 7 0 0 0-.615-.699 10 10 0 0 0-.846-.728 8 8 0 0 0-1.902-1.116 5 5 0 0 0-.586-.213v-.957q.616.177 1.2.442a9.2 9.2 0 0 1 1.618.943 9.4 9.4 0 0 1 1.158.986q.409.416.774.872c.532.686.97 1.44 1.302 2.244h-.002a9.5 9.5 0 0 1 .645 2.613q.061.476.056.957c0 .314-.014.614-.043.914-.082.838-.37 1.786-.542 2.373l.472.27 1.045-.602V8.986l-1.303-.742v-.002l1.303.744V6c-3.56-2.057-7.212-4.154-10.402-6m8.08 14.826c-.02.052.003.002.004.002zM12.035 1.213l1.56.9v1.801l-1.56.885-1.545-.885h-.002v-.328a8.5 8.5 0 0 0-1.744.516 8.2 8.2 0 0 0-1.889 1.07l-.001.002a7 7 0 0 0-.9.783 9 9 0 0 0-.616.672 8.8 8.8 0 0 0-1.3 2.228l.228.127 1.287-.742 1.203.686c1.929-1.112 3.397-1.961 5.252-3.014l.027.014c1.926 1.114 3.398 1.955 5.238 3.029.028 1.997.014 4.064.014 6.086-1.874 1.084-3.753 2.16-5.28 3.043a860 860 0 0 1-5.294-3.043V8.957l.043-.027-1.203-.688-1.287.744-.229-.129h-.002a8.4 8.4 0 0 0-.53 2.057q-.067.54-.07 1.086.003.517.07 1.027v.002c.015.215.06.429.102.643l-.83.484a7 7 0 0 1-.2-1.199A7 7 0 0 1 2.52 12c0-.329.028-.672.056-1a9.8 9.8 0 0 1 .658-2.6 9.4 9.4 0 0 1 1.303-2.244c.243-.3.5-.57.758-.842q.556-.558 1.203-1.013-1.823-.125 0-.002a9.4 9.4 0 0 1 1.645-.942 9.9 9.9 0 0 1 2.347-.7l-.002-.542-1.043-.601 1.045.6zm0 .773-.887.514v1.027l.887.516.887-.516V2.5Zm-.03 6.928c-.935.532-1.888 1.084-2.689 1.543v3.086c.933.535 1.892 1.095 2.692 1.557.926-.565 1.865-1.093 2.676-1.557v-3.086c-.945-.542-1.857-1.074-2.678-1.543Zm-7.74 5.758 1.546.885v1.8l-.329.186q.219.266.471.5.417.432.902.785a8 8 0 0 0 1.83 1.059h.002a8.1 8.1 0 0 0 2.061.57q.626.087 1.258.086a8.4 8.4 0 0 0 1.332-.1 8.6 8.6 0 0 0 2.017-.572 8 8 0 0 0 1.86-1.1c.172-.114.315-.242.472-.37l.83.47a10 10 0 0 1-.945.787l.946.541 1.302-.756-1.302.758-.946-.543c-.516.37-1.067.69-1.644.955l-.002.002a9.5 9.5 0 0 1-2.588.756q-.662.086-1.33.086a12 12 0 0 1-1.26-.072v.002a9.4 9.4 0 0 1-2.605-.744 9 9 0 0 1-1.688-.971 9.6 9.6 0 0 1-1.775-1.658h-.002l-.412.244-1.56-.9v-1.801zm0 .756-.886.515v1.028l.887.515.886-.515v-1.028zm15.555 0-.902.515v1.028l.902.515.887-.515v-1.028z"/></svg>