<svg xmlns="http://www.w3.org/2000/svg" viewBox="0 0 24 24"><path d="M12.024.017V0L12 .008 11.976 0v.017L.812 3.892l1.605 14.875 9.559 5.207V24l.024-.013.024.013v-.026l9.559-5.207 1.605-14.875zm6.868 14.244q-1.64 3.948-6.031 4.166c-2.829 0-4.661-1.7-4.66-1.7q-1.745-1.359-2.398-3.417c-.695-.76-.702-.841-.774-1.145-.072-.303.045-.388.249-.685q.204-.298.098-.85-.26-.36-.3-1.128 0-.37.496-.783.495-.413.607-.632.083-.119.065-1.031-.006-.897.995-.975c1-.08 1.565-.832 1.879-1.174.21-.228.52-.339.91-.341.551-.026 1.052.185 1.484.62 1.075-.055 2.176.235 3.292.863q2.379 1.414 2.596 3.055-.257 2.158-5.788-.113-2.895.819-2.846 3.552 0 2.508 2.422 3.643c-.787-.772-1.122-1.422-1.01-1.959q2.456 2.906 5.588 2.173c-.92.032-1.65-.264-2.198-.893q2.116-.05 3.998-1.972c-.724.576-1.482.794-2.284.657q3.26-2.563 2.307-5.98l-.002-.006a3.02 3.02 0 0 1 .788 2.03q.023 1.175-.795 2.477.613-.478 1.413-2.047c.23 2.117-.625 3.724-2.574 4.825q.934-.085 2.473-1.23m-5.567-6.63a.319.319 0 1 1 .638 0 .319.319 0 0 1-.638 0"/></svg>