<svg xmlns="http://www.w3.org/2000/svg" viewBox="0 0 24 24"><path d="M23.808 11.808v8.281a3.54 3.54 0 0 1-3.542 3.527h-.46a3.54 3.54 0 0 1-3.083-3.513v-7.282l3.543-1.013-3.66-1.045a4.724 4.724 0 0 0-9.33 1.045v2.362a2.36 2.36 0 0 0 2.362 2.362 3.543 3.543 0 0 1 3.543 3.542V24a3.54 3.54 0 0 0-3.542-3.542 3.54 3.54 0 0 0-3.063 1.76 3.54 3.54 0 0 1-2.382 1.398h-.46A3.54 3.54 0 0 1 .192 20.09V3.543a3.542 3.542 0 0 1 6.323-2.194A11.76 11.76 0 0 1 12 0c6.521 0 11.808 5.287 11.808 11.808m-9.446 0A2.36 2.36 0 0 1 12 14.17a2.362 2.362 0 1 1 2.362-2.362"/></svg>