<svg xmlns="http://www.w3.org/2000/svg" viewBox="0 0 24 24"><path d="M11.999 3.201C5.372 3.201 0 8.528 0 15.101V20.8h2.212v-.568c0-2.666 2.178-4.827 4.866-4.827s4.866 2.16 4.866 4.827v.568h2.212v-.568c0-3.877-3.17-7.019-7.078-7.019A7.08 7.08 0 0 0 2.992 14.5a7.36 7.36 0 0 1 6.568-4.016c4.057 0 7.347 3.264 7.347 7.287V20.8h2.212v-3.03c0-5.235-4.28-9.481-9.56-9.481a9.56 9.56 0 0 0-6.217 2.28A9.8 9.8 0 0 1 12 5.393c5.406 0 9.788 4.346 9.788 9.707v5.7H24v-5.7c-.001-6.573-5.373-11.9-12.001-11.9Z"/></svg>