<svg xmlns="http://www.w3.org/2000/svg" viewBox="0 0 24 24"><path d="M3.357 8.258a3.4 3.4 0 0 0-.845.123l.054-.02a3.4 3.4 0 0 0-.841.346 3 3 0 0 0-.262.168l-.11.078-.025.022-.01.005-.103.084-.115.104-.05.045-.08.08-.099.107-.03.034-.071.086-.034.04-.066.088-.006.008-.072.1-.014.02-.082.132-.074.127-.012.026-.062.12-.067.143-.054.135-.008.02a3.4 3.4 0 0 0-.131.437l-.031.152-.026.149v.013a3 3 0 0 0-.027.303L0 11.68v.04l.004.124.012.156.015.14.01.057.018.108v.004l.025.123.037.15a3 3 0 0 0 .096.297l.056.144a3.4 3.4 0 0 0 .432.745c.014.02.025.024.04.043l.007.01a3.4 3.4 0 0 0 .305.33l.011.013c.1.09.16.132.137.129q.014.008.03.018l.017.017a.7.7 0 0 1-.205-.08.7.7 0 0 0-.39-.088.696.696 0 0 0-.608.947 2 2 0 0 1 .564-.12 2 2 0 0 1 .34.007 2 2 0 0 0 .283.006q.074-.006.147-.018a1.7 1.7 0 0 0 .584-.203 3.4 3.4 0 0 0 .437.17 4.43 4.43 0 0 0 2.989-.193.5.5 0 0 0 .115-.076.2.2 0 0 0 .076.03l1.789.169v.863H8.75v-.734l1.12.105-4.204-.754-.014-.004c-.01-.1-.095-.172-.13-.218a.13.13 0 0 1-.03-.07 1.64 1.64 0 0 0-1.496-1.52.5.5 0 0 0-.18-.193.5.5 0 0 1-.187-.4.56.56 0 0 0-.498.44 1.393 1.393 0 0 1-.377-2.222 1.8 1.8 0 0 1 1.312-.563A1.824 1.824 0 0 1 5.83 10.96a.9.9 0 0 1-.543.32.9.9 0 0 0-.736.748c.35 0 .585.477 1.236.477a.59.59 0 0 0 .547-.367.59.59 0 0 0 .549.367 1.2 1.2 0 0 0 .49-.106v2.002l1.377.327v-1.592l2.193 2.605H12.1v-4.89h-1.38v2.605l-2.19-2.604H7.373v.427c-.283-.05-.556-.255-.65-.52a3.424 3.424 0 0 0-3.366-2.501M22.109 9.96v4.414c0 1.186.766 1.336 1.485 1.336.219 0 .406-.02.406-.02v-1.03s-.078.007-.164.007c-.305 0-.375-.12-.375-.453V9.96zm-6.816 1.932a2 2 0 0 0-.709.128 1.25 1.25 0 0 0-.535.385v-.453h-1.285v3.79h1.347v-1.74q0-.474.244-.704.246-.23.678-.23a3 3 0 0 1 .307.017v-1.193zm.584.06 1.094 3.787h1.306l.477-1.736.45 1.736h1.306l1.094-3.787h-1.186l-.54 1.932-.52-1.932h-1.15l-.542 1.912-.512-1.912zm-12.281 2.14c.03 0 .07.016.117.027.092.023.17.02.15.108a.171.171 0 0 1-.332-.08c.01-.044.033-.056.065-.055"/></svg>