<svg xmlns="http://www.w3.org/2000/svg" viewBox="0 0 24 24"><path d="M13.736 24H24l-5.132-4.919zm-6.021-5.064 5.133 4.918 5.132-4.919zm-6.539-5.272v9.838l5.132-4.919-1.503-1.441zm21.648-1.626-5.132 4.919 5.132 4.919zm-4.844 6.193-5.132-4.92-5.132 4.92zM1.696 13.165l5.132 4.92 5.132-4.92zm20.608-1.625H12.039l5.133 4.919zM6.828 7.541l-5.132 4.92H11.96zm-5.652 4.421 5.132-4.919-5.132-4.919zm21.128-1.127-5.132-4.92-5.133 4.92zm-6.02-5.065H6.02l5.132 4.919zm6.54-5.272-5.132 4.919 5.132 4.92zm-6.539 4.567L11.152.146 6.02 5.065zM10.264 0H0l5.132 4.919z"/></svg>