<svg xmlns="http://www.w3.org/2000/svg" viewBox="0 0 24 24"><path d="M19.355 18.538a68.967 68.959 0 0 0 1.858-2.954.81.81 0 0 0-.062-.9c-.516-.685-1.504-2.075-2.042-3.362-.553-1.321-.636-3.375-.64-4.377a1.7 1.7 0 0 0-.358-1.05l-3.198-4.064a4 4 0 0 1-.076.543c-.106.503-.307 1.004-.536 1.5-.134.29-.29.6-.446.914l-.31.626c-.516 1.068-.997 2.227-1.132 3.59-.124 1.26.046 2.73.815 4.481q.192.016.386.044a6.36 6.36 0 0 1 3.326 1.505c.916.79 1.744 1.922 2.415 3.5zM8.199 22.569q.11.019.22.02c.78.024 2.095.092 3.16.29.87.16 2.593.64 4.01 1.055 1.083.316 2.198-.548 2.355-1.664.114-.814.33-1.735.725-2.58l-.01.005c-.67-1.87-1.522-3.078-2.416-3.849a5.3 5.3 0 0 0-2.778-1.257c-1.54-.216-2.952.19-3.84.45.532 2.218.368 4.829-1.425 7.531zM5.533 9.938q-.035.15-.098.29L2.82 16.059a1.6 1.6 0 0 0 .313 1.772l4.116 4.24c2.103-3.101 1.796-6.02.836-8.3-.728-1.73-1.832-3.081-2.55-3.831zM9.32 14.01c.615-.183 1.606-.465 2.745-.534-.683-1.725-.848-3.233-.716-4.577.154-1.552.7-2.847 1.235-3.95q.17-.35.328-.664c.149-.297.288-.577.419-.86.217-.47.379-.885.46-1.27.08-.38.08-.72-.014-1.043-.095-.325-.297-.675-.68-1.06a1.6 1.6 0 0 0-1.475.36l-4.95 4.452a1.6 1.6 0 0 0-.513.952l-.427 2.83c.672.59 2.328 2.316 3.335 4.711q.136.317.253.653"/></svg>