<svg xmlns="http://www.w3.org/2000/svg" viewBox="0 0 24 24"><path d="M7.921 11.382v.376h.009a.7.7 0 0 1 .362-.336q.247-.105.543-.105.329 0 .574.118t.406.319a1.4 1.4 0 0 1 .244.464q.082.263.082.558t-.08.558a1.3 1.3 0 0 1-.241.459 1.1 1.1 0 0 1-.406.308 1.35 1.35 0 0 1-.568.113 1.5 1.5 0 0 1-.488-.091 1 1 0 0 1-.239-.132.7.7 0 0 1-.189-.207h-.009v1.432H7.45v-3.835zm1.671.986a1 1 0 0 0-.159-.33.8.8 0 0 0-.274-.231.85.85 0 0 0-.392-.086q-.235 0-.4.091a.8.8 0 0 0-.268.239 1 1 0 0 0-.151.335 1.6 1.6 0 0 0 .003.775 1 1 0 0 0 .156.335.8.8 0 0 0 .276.233q.17.088.411.088.242 0 .402-.091a.74.74 0 0 0 .26-.241q.099-.15.142-.343.044-.193.044-.397a1.3 1.3 0 0 0-.05-.377m2.951 1.611q-.319.236-.803.236a1.5 1.5 0 0 1-.591-.107 1.2 1.2 0 0 1-.421-.301 1.3 1.3 0 0 1-.256-.461 2.2 2.2 0 0 1-.096-.585q0-.316.099-.579.1-.263.278-.456a1.25 1.25 0 0 1 .424-.3q.245-.107.537-.107.38 0 .63.153t.402.39.209.516.047.532h-2.127q-.006.182.044.345a.8.8 0 0 0 .159.289.8.8 0 0 0 .28.201q.17.075.401.075a.83.83 0 0 0 .486-.134.65.65 0 0 0 .25-.408h.462q-.095.465-.414.701m-.114-1.78a.79.79 0 0 0-.743-.477.8.8 0 0 0-.326.062.7.7 0 0 0-.249.169.8.8 0 0 0-.164.249 1 1 0 0 0-.071.302h1.628a1 1 0 0 0-.075-.305m1.327-.817v.44h.009q.292-.505.928-.505.282 0 .469.075t.304.21q.116.134.163.32c.047.186.047.261.047.411v1.827h-.471v-1.879a.55.55 0 0 0-.154-.408.58.58 0 0 0-.424-.15 1 1 0 0 0-.372.065.7.7 0 0 0-.262.183.8.8 0 0 0-.157.276 1.1 1.1 0 0 0-.052.346v1.568h-.471v-2.777h.443zm5.174 2.747a1.7 1.7 0 0 1-.644.131q-.513 0-.922-.174a2 2 0 0 1-.691-.48 2.1 2.1 0 0 1-.431-.719q-.15-.413-.15-.89 0-.489.15-.909.15-.419.43-.731t.69-.49a2.3 2.3 0 0 1 .922-.177q.344 0 .665.101t.581.297a1.6 1.6 0 0 1 .634 1.144h-.937q-.087-.366-.338-.55a1 1 0 0 0-.606-.183q-.331 0-.563.125c-.232.125-.279.196-.375.337a1.4 1.4 0 0 0-.209.48 2.3 2.3 0 0 0 0 1.092q.066.26.21.468t.375.333.563.125q.488 0 .754-.241.266-.24.31-.698h-.987v-.717h1.872v2.358h-.623l-.1-.495a1.44 1.44 0 0 1-.58.463M21.825 9.8v3.55H24v.809h-3.154V9.8zM3.801 13.98q.079.045.164.085.4.186.933.186.532 0 .933-.186c.401-.186.491-.292.67-.503q.269-.317.404-.728.135-.412.135-.856 0-.445-.135-.856a2.1 2.1 0 0 0-.404-.728 2 2 0 0 0-.67-.506 2.2 2.2 0 0 0-.933-.189q-.533 0-.933.189l-.03.015c1.425-1.199 4.034-2.001 7.017-2.001 2.512 0 4.765.516 6.263 1.412-1.635-1.501-4.566-2.555-7.918-2.556C4.162 6.757 0 9.103 0 11.999s4.161 5.243 9.294 5.244c3.338.001 6.262-1.051 7.901-2.541-1.498.89-3.741 1.397-6.244 1.397-3.078-.001-5.759-.856-7.15-2.119m.395-3.638q.294-.156.702-.156t.702.156.483.412q.187.256.276.577a2.43 2.43 0 0 1 0 1.3q-.088.321-.276.576a1.4 1.4 0 0 1-.483.412q-.295.155-.702.155a1.5 1.5 0 0 1-.702-.155 1.4 1.4 0 0 1-.483-.412 1.8 1.8 0 0 1-.276-.576 2.43 2.43 0 0 1 0-1.3 1.7 1.7 0 0 1 .276-.577q.188-.256.483-.412"/></svg>