<svg xmlns="http://www.w3.org/2000/svg" viewBox="0 0 24 24"><path d="M11.992 0 1.603 6v12L12 24l10.397-5.992V6zM10.97 1.534 8.458 5.878H3.443l7.526-4.344M8.046 6.595 6.87 8.634 3.343 6.595zM7.13 9.603 11.275 12 7.13 14.397 5.748 12zm-.611-.351L5.343 11.29 2.985 7.214zm-4.1-1.595L4.932 12 2.42 16.343zm2.916 5.06 1.175 2.039-3.526 2.038zm1.535 2.648 1.176 2.039H3.343zm-3.427 2.756h5.015l2.511 4.344zM11.64 22.2l-2.35-4.078h2.351V22.2m0-4.794h-2.77l-1.383-2.397 4.145-2.397v4.794zm0-6.023L7.496 8.985l1.382-2.397h2.763v4.794m0-5.504H9.29l2.351-4.076zm5.832 3.374L21 7.214l-2.351 4.076zM18.237 12l-1.382 2.397L12.71 12l4.145-2.397zm-1.122-3.366L15.94 6.595h4.702zm3.428-2.756h-5.015l-2.504-4.344zm-8.19-4.076 2.35 4.076h-2.351zm0 4.793h2.763l1.382 2.397-4.145 2.397zm0 6.023 4.145 2.397-1.382 2.39h-2.763zm0 5.504h2.351l-2.351 4.076zm.672 4.344 2.504-4.344h5.015zm2.917-5.061 1.175-2.039 3.527 2.039zm1.534-2.657 1.176-2.038L21 16.786zm4.1 1.595L19.06 12l2.511-4.343v8.687"/></svg>