<svg xmlns="http://www.w3.org/2000/svg" viewBox="0 0 24 24"><path d="m10.184 23.25.002-.01-.033-.017-8.388-4.611a1.68 1.68 0 0 1-.873-1.475V6.864c0-.614.335-1.18.873-1.476l9.424-5.18a1.69 1.69 0 0 1 1.622 0l8.31 4.568.022.012.006.002-.004-.001 1.09.599c.538.296.873.862.873 1.476v10.273c0 .614-.335 1.179-.873 1.475l-8.388 4.611-.03.016-1.006.553a1.69 1.69 0 0 1-1.622 0l-1.003-.552zm.603-1.158-.005-.001.012.006a.388.388 0 0 0 .558-.338l.001-9.147a.39.39 0 0 0-.202-.34L2.763 7.661a.39.39 0 0 0-.576.341v9.135c0 .141.077.272.201.34l8.394 4.613zm-1.983-5.129-.005.003-1.959-1.031-.003-.004.001-.01c.023-.305.153-.525.346-.632.194-.107.45-.101.72.041.272.143.508.397.671.691s.252.628.229.935zM5.71 15.177l-.005.002-1.96-1.031-.002-.004.001-.01c.022-.304.152-.524.346-.632s.449-.101.72.042.508.396.671.69c.162.294.252.628.229.935zm14.981-8.999-.003-.018a.38.38 0 0 0-.191-.25l-8.31-4.567a.39.39 0 0 0-.374 0L3.503 5.91a.39.39 0 0 0-.193.423l.009.007-.009-.007c.022.1.083.194.183.253l8.32 4.572a.39.39 0 0 0 .374 0l8.321-4.573a.385.385 0 0 0 .183-.407M3.319 6.34l-.005-.006-.004-.003zm-.467-1.56-.003.002q.004.006.005.006zm.007.007-.003.001h-.002z"/></svg>