<svg xmlns="http://www.w3.org/2000/svg" viewBox="0 0 24 24"><path d="M18.971 13.486a7.6 7.6 0 0 0-.54-1.043V6.415a6.38 6.38 0 0 0-1.88-4.535A6.37 6.37 0 0 0 12.017 0h-.002a6.37 6.37 0 0 0-4.536 1.878 6.38 6.38 0 0 0-1.88 4.537v.877h2.57v-.877c0-1.026.4-1.992 1.127-2.72a3.82 3.82 0 0 1 2.72-1.125 3.85 3.85 0 0 1 3.847 3.845v3.508A7.5 7.5 0 0 0 12 8.865a7.54 7.54 0 0 0-5.35 2.216 7.54 7.54 0 0 0-2.216 5.35 7.54 7.54 0 0 0 2.215 5.35A7.54 7.54 0 0 0 12 24a7.54 7.54 0 0 0 5.35-2.216 7.54 7.54 0 0 0 2.216-5.35c0-1.021-.2-2.012-.595-2.946zM12 21.428a5.003 5.003 0 0 1-4.997-4.996A5.003 5.003 0 0 1 12 11.435a5 5 0 0 1 4.997 4.997A5 5 0 0 1 12 21.428m2.145-4.973a2.12 2.12 0 1 1-4.24 0 2.12 2.12 0 0 1 4.24 0"/></svg>