<svg xmlns="http://www.w3.org/2000/svg" viewBox="0 0 24 24"><path d="M19.35.37h-1.86a4.63 4.63 0 0 0-4.652 4.624v5.609H4.652A4.63 4.63 0 0 0 0 15.23v3.721c0 2.569 2.083 4.679 4.652 4.679h1.86c2.57 0 4.652-2.11 4.652-4.679v-3.72c0-.063 0-.158-.005-.158H8.373v3.88c0 1.026-.835 1.886-1.861 1.886h-1.86c-1.027 0-1.861-.864-1.861-1.886V15.23a1.84 1.84 0 0 1 1.86-1.833h14.697c2.57 0 4.652-2.11 4.652-4.679V4.997A4.63 4.63 0 0 0 19.35.37m1.861 8.345c0 1.026-.835 1.886-1.861 1.886h-3.721V4.997a1.84 1.84 0 0 1 1.86-1.833h1.86a1.84 1.84 0 0 1 1.862 1.833zm-8.373 9.706v.03c0 .746.629 1.344 1.396 1.344s1.395-.594 1.395-1.34v-3.384h-2.791z"/></svg>