<svg xmlns="http://www.w3.org/2000/svg" viewBox="0 0 24 24"><path d="M12.002 0a5.988 5.988 0 1 1 0 11.975 5.988 5.988 0 0 1 0-11.975m9.723 13.026h-.03l-4.527-2.242a.67.67 0 0 0-.876.268 22.4 22.4 0 0 1-4.306 5.217 22.4 22.4 0 0 1-4.286-5.2.67.67 0 0 0-.876-.269l-4.535 2.226h-.03a.67.67 0 0 0-.248.902 28.9 28.9 0 0 0 4.55 5.933l-.002.001q.037.037.075.072.502.504 1.027.981.123.11.247.217c.315.278.632.555.96.82.144.117.295.227.441.341.277.216.552.434.837.639q.66.478 1.346.917a.96.96 0 0 0 1.007.017 29 29 0 0 0 1.428-.98q.1-.077.2-.153.538-.397 1.06-.82c.234-.19.46-.39.688-.588.17-.147.34-.291.506-.442.295-.268.58-.545.864-.825.061-.06.127-.118.188-.179l-.004-.002a28.9 28.9 0 0 0 4.565-5.949.67.67 0 0 0-.269-.902"/></svg>