<svg xmlns="http://www.w3.org/2000/svg" viewBox="0 0 24 24"><path d="M11.926 10.016c-1.324.328-2.286 1.499-2.09 2.56.285 1.542 2.736 1.892 4.092.59.493-.47.7-.886.7-1.433.022-1.247-1.269-2.056-2.702-1.717m.843 1.29c.492.438.054 1.456-.624 1.456-.47 0-.711-.241-.711-.722 0-.722.831-1.193 1.335-.733zm-2.32-4.496a6.41 6.41 0 0 0-4.376 3.83 4.7 4.7 0 0 0 .175 3.325 6.9 6.9 0 0 0 2.21 2.473 7.7 7.7 0 0 0 3.15 1.094c3.786.35 7.08-3.075 6.346-6.608a5.47 5.47 0 0 0-4.08-4.125c-.788-.208-2.626-.197-3.425.011m3.49 1.762a3.5 3.5 0 0 1 2.2 2.155c.076.262.12.744.087 1.258a3.06 3.06 0 0 1-.416 1.52 4.75 4.75 0 0 1-2.057 1.959c-.569.274-.733.306-1.827.306-1.072 0-1.269-.032-1.827-.295-1.882-.875-2.702-2.79-1.925-4.486a4.8 4.8 0 0 1 5.765-2.417m-3.643-4.836a9.7 9.7 0 0 0-2.91 1.05c-1.86.963-3.337 2.407-4.168 4.092a6.17 6.17 0 0 0-.733 3.5c.098 2.069.787 3.513 2.483 5.197 1.422 1.4 2.823 2.189 4.912 2.757 1.204.329 3.447.318 4.672-.01a9.35 9.35 0 0 0 6.685-6.576c.251-.962.262-2.877.01-3.829a8.6 8.6 0 0 0-6.039-5.973 8.2 8.2 0 0 0-2.57-.328c-1.084-.022-1.828.01-2.342.12m4.07 1.214a6.67 6.67 0 0 1 3.25 1.959 6.02 6.02 0 0 1 2.034 4.77c.033 4.277-3.326 7.538-7.778 7.56-1.85 0-3.283-.45-4.65-1.467A6.53 6.53 0 0 1 5.099 9.59c1.707-3.61 5.635-5.58 9.267-4.639ZM11.379.574c-3.413.503-6.017 1.805-8.15 4.048A11.74 11.74 0 0 0 .297 9.797a8.6 8.6 0 0 0-.285 2.691c0 1.368.033 1.794.24 2.571a12.5 12.5 0 0 0 2.134 4.158 12.47 12.47 0 0 0 11.302 4.102 12.21 12.21 0 0 0 9.091-6.903 11 11 0 0 0 1.204-4.912c.043-1.259.01-1.718-.165-2.571a9.33 9.33 0 0 0-2.746-5.153A10.7 10.7 0 0 0 15.668.826c-.875-.22-3.49-.372-4.289-.252m3.862 1.838a9.85 9.85 0 0 1 7.32 6.849 12.3 12.3 0 0 1 0 4.463 11.3 11.3 0 0 1-8.064 7.878 8.4 8.4 0 0 1-2.735.273 8.4 8.4 0 0 1-2.538-.23 10.9 10.9 0 0 1-7.483-7.297 7 7 0 0 1-.307-2.462c-.01-1.236.033-1.619.241-2.34 1.061-3.655 4.136-6.302 8.391-7.189a17 17 0 0 1 5.175.055"/></svg>