<svg xmlns="http://www.w3.org/2000/svg" viewBox="0 0 24 24"><path d="M12.588 3.11a8.8 8.8 0 0 1 3.417.919 8.8 8.8 0 0 1 2.706 2.094 9.1 9.1 0 0 1 1.715 2.963 8.65 8.65 0 0 1 .465 3.502 8.2 8.2 0 0 1-.307 1.848 9 9 0 0 1-.674 1.703 20 20 0 0 1-1.47 2.412 17.6 17.6 0 0 1-1.762 2.118 18.6 18.6 0 0 1-4.286 3.281l-.037.026a.2.2 0 0 1-.109.023.3.3 0 0 1-.159-.097.27.27 0 0 1-.062-.173q0-.045.012-.085a.2.2 0 0 1 .037-.062q.416-.59.686-1.235a5.4 5.4 0 0 0 .368-1.359.12.12 0 0 0-.038-.085.11.11 0 0 0-.085-.038 9 9 0 0 1-.795.062 5 5 0 0 1-.796-.037 8.82 8.82 0 0 1-6.123-3.013 9.1 9.1 0 0 1-1.715-2.963 8.7 8.7 0 0 1-.465-3.502 8.2 8.2 0 0 1 .306-1.848 8.6 8.6 0 0 1 .675-1.68q.66-1.296 1.469-2.436a18 18 0 0 1 1.76-2.119A18.8 18.8 0 0 1 11.609.05l.038-.025a.2.2 0 0 1 .11-.025.3.3 0 0 1 .157.098.26.26 0 0 1 .062.174.2.2 0 0 1-.012.084.2.2 0 0 1-.036.061 6.5 6.5 0 0 0-.687 1.237q-.269.649-.366 1.358 0 .05.036.086a.12.12 0 0 0 .085.037q.393-.05.795-.06.407-.014.798.034zm-.807 12.367a3.32 3.32 0 0 0 2.521-.855 3.4 3.4 0 0 0 1.176-2.4 3.36 3.36 0 0 0-.856-2.535 3.3 3.3 0 0 0-2.4-1.162 3.36 3.36 0 0 0-2.534.855 3.3 3.3 0 0 0-1.164 2.4 3.38 3.38 0 0 0 .846 2.535q.942 1.09 2.411 1.162"/></svg>