<svg xmlns="http://www.w3.org/2000/svg" viewBox="0 0 24 24"><path d="M11.258 2.399a.78.78 0 0 0-.69.45L5.589 14.413h.001l1.715 6.311c.138.606.742.986 1.349.848l2.604-.591-.4-5.013v-.001l-5.267-1.553 5.267.753zm.001 0 .397 12.769 5.271-.754L11.95 2.848a.78.78 0 0 0-.69-.45M.441 7.534c-.311.003-.561.35-.38.666l5.724 9.986-.968-3.562a.8.8 0 0 1 .037-.526l1.46-3.39L.66 7.591a.45.45 0 0 0-.22-.058Zm19.173 1.68-3.42 1.476 1.468 3.408a.8.8 0 0 1 .038.526l-.924 3.4 5.62-8.81zm2.783 0-.67 2.464 1.796.853a.333.333 0 0 0 .435-.46zm-5.47 5.2-5.268 1.555-.4 5.013 2.605.591a1.127 1.127 0 0 0 1.348-.848z"/></svg>