<svg xmlns="http://www.w3.org/2000/svg" viewBox="0 0 24 24"><path d="M3.157 11.485a1.254 1.254 0 0 0-1.18-1.324H0v3.58h1.084v-1.1h.66q.25 0 .496-.059c.497-.103.87-.52.917-1.025zm-1.081.005a.35.35 0 0 1-.337.301c-.081.007-.15.007-.23.007h-.425v-.777h.632a.36.36 0 0 1 .36.326.7.7 0 0 1 0 .143m3.678 1.45c0-.278-.01-.51-.01-.786a1.7 1.7 0 0 0-.057-.42.67.67 0 0 0-.332-.43 1 1 0 0 0-.316-.118 2.6 2.6 0 0 0-1.065-.02q-.15.023-.29.082a.77.77 0 0 0-.455.5.6.6 0 0 0-.024.261.1.1 0 0 0 .014.048l.86.02a.4.4 0 0 1 .025-.153.26.26 0 0 1 .162-.162.5.5 0 0 1 .342 0 .23.23 0 0 1 .156.157.15.15 0 0 1-.02.13.2.2 0 0 1-.1.078l-.074.024q-.17.045-.343.075a7 7 0 0 0-.276.05 3 3 0 0 0-.365.095.8.8 0 0 0-.295.173.62.62 0 0 0-.205.393.8.8 0 0 0 .012.3.71.71 0 0 0 .51.54c.276.083.573.067.84-.044a.83.83 0 0 0 .344-.248q.028.089.057.176.019.048.051.087h.948a.4.4 0 0 1-.068-.207q-.02-.3-.026-.6m-.956-.088a.4.4 0 0 1-.067.193.4.4 0 0 1-.182.145.6.6 0 0 1-.21.054.5.5 0 0 1-.163-.013.24.24 0 0 1-.12-.074.2.2 0 0 1-.057-.106.17.17 0 0 1 .064-.174.3.3 0 0 1 .105-.063q.142-.053.288-.093.177-.052.342-.13a1 1 0 0 1 0 .261M8.06 11.14a1.04 1.04 0 0 0-.755.054 1.7 1.7 0 0 0-.393.262l-.023-.27H5.97v2.56h.982v-1.42a.4.4 0 0 1 .06-.222.383.383 0 0 1 .482-.16c.081.032.142.1.167.183q.02.065.02.131v1.484h1.01V12.09a1.2 1.2 0 0 0-.06-.394.82.82 0 0 0-.572-.558zm5.95 1.25a1.1 1.1 0 0 0-.42-.23l-.106-.03a5 5 0 0 0-.58-.123 2 2 0 0 1-.156-.03.3.3 0 0 1-.068-.024.117.117 0 0 1-.059-.152v-.008a.22.22 0 0 1 .131-.105.5.5 0 0 1 .316 0c.107.03.178.133.17.244h.902a.9.9 0 0 0-.055-.31.55.55 0 0 0-.184-.255.9.9 0 0 0-.242-.138 1.2 1.2 0 0 0-.262-.073 2.6 2.6 0 0 0-.642-.037 2 2 0 0 0-.366.054 1.1 1.1 0 0 0-.444.211.7.7 0 0 0-.28.526.7.7 0 0 0 .052.316.68.68 0 0 0 .393.393q.135.054.278.082l.554.104q.105.016.205.051c.06.018.103.07.113.131a.19.19 0 0 1-.052.176.3.3 0 0 1-.17.086.5.5 0 0 1-.262-.025.4.4 0 0 1-.105-.06.26.26 0 0 1-.089-.132.4.4 0 0 1-.02-.138h-.932v.055a.77.77 0 0 0 .256.555 1 1 0 0 0 .426.24c.33.098.676.12 1.014.065q.241-.035.455-.148a1 1 0 0 0 .176-.118.78.78 0 0 0 .246-.852.63.63 0 0 0-.193-.302zm6.198-2.226h.957v.676h-.957zm0 1.024h.957v2.558h-.957zm2.872 1.505a1 1 0 0 1-.018.154.4.4 0 0 1-.096.2.3.3 0 0 1-.185.097.36.36 0 0 1-.316-.1.53.53 0 0 1-.152-.26 1.17 1.17 0 0 1 .012-.703.4.4 0 0 1 .178-.232.36.36 0 0 1 .407.017c.092.068.153.17.17.284h.874a.8.8 0 0 0-.09-.417 1.12 1.12 0 0 0-.724-.564 1.7 1.7 0 0 0-.806-.02c-.48.094-.863.456-.984.93a1.4 1.4 0 0 0-.03.621q.034.226.151.42c.095.171.227.32.385.435.19.148.416.24.655.262q.27.03.538-.025a1.24 1.24 0 0 0 .685-.38.93.93 0 0 0 .263-.719zm-3.704-1.553a1.04 1.04 0 0 0-.755.054 1.7 1.7 0 0 0-.393.262l-.03-.27h-.919v2.56h.984v-1.429a.43.43 0 0 1 .06-.22.39.39 0 0 1 .484-.16c.08.032.14.1.164.182a.5.5 0 0 1 .021.14v1.483h1.016V12.09a1.2 1.2 0 0 0-.06-.394.82.82 0 0 0-.572-.558zm-7.879 1.8c0-.278-.01-.51-.012-.786q0-.214-.054-.42a.68.68 0 0 0-.333-.43 1 1 0 0 0-.315-.118 2.6 2.6 0 0 0-1.067-.02q-.15.023-.289.082a.77.77 0 0 0-.456.5.6.6 0 0 0-.025.261.2.2 0 0 0 .015.048l.86.02a.4.4 0 0 1 .024-.153.26.26 0 0 1 .163-.162.5.5 0 0 1 .342 0 .23.23 0 0 1 .156.157.15.15 0 0 1-.02.13.2.2 0 0 1-.099.078l-.075.024q-.17.045-.343.075a6 6 0 0 0-.274.05 3 3 0 0 0-.366.095.8.8 0 0 0-.296.173.62.62 0 0 0-.21.393.8.8 0 0 0 .012.3c.056.26.252.468.508.54.277.083.575.067.842-.044a.8.8 0 0 0 .335-.245q.025.087.057.173c.01.032.03.062.052.087h.948a.4.4 0 0 1-.054-.207 14 14 0 0 1-.026-.6m-.97-.084a.44.44 0 0 1-.07.19.37.37 0 0 1-.167.144.7.7 0 0 1-.205.054.5.5 0 0 1-.175-.015.25.25 0 0 1-.122-.073.2.2 0 0 1-.055-.105.17.17 0 0 1 .057-.17.3.3 0 0 1 .105-.063 5 5 0 0 1 .288-.093q.177-.053.344-.13.015.13 0 .261m5.483-1.72a1.9 1.9 0 0 0-.577 0 1.33 1.33 0 0 0-.747.371 1.2 1.2 0 0 0-.383.798c-.02.185-.003.372.048.551.073.278.24.522.47.693.147.117.32.197.504.235.26.055.527.055.787 0 .184-.038.36-.118.507-.235.23-.17.396-.415.468-.693a1.4 1.4 0 0 0 .05-.55 1.2 1.2 0 0 0-.383-.799 1.33 1.33 0 0 0-.743-.37zm.06 1.814a.39.39 0 0 1-.513.193.37.37 0 0 1-.194-.193 1 1 0 0 1-.072-.246 1.4 1.4 0 0 1 .012-.515.7.7 0 0 1 .1-.247.374.374 0 0 1 .622 0 .6.6 0 0 1 .105.247q.052.257.01.515a.9.9 0 0 1-.07.246"/></svg>