<svg xmlns="http://www.w3.org/2000/svg" viewBox="0 0 24 24"><path d="M12.01 0a.46.46 0 0 0-.29.1s-.724.561-1.193.967-.922.886-.922.886a.93.93 0 0 0-.271.615l.108 3.344c0 .2-.157.205-.226 0l-.868-2.106c-.06-.187-.21-.214-.334-.054a13 13 0 0 0-1.121 1.573 12.6 12.6 0 0 0-.777 1.717.76.76 0 0 0 .1.624l1.762 2.341c.124.16.093.363-.082.253l-1.844-.994c-.17-.11-.312-.033-.307.163a6.9 6.9 0 0 0 .307 1.898 7.6 7.6 0 0 0 2.034 2.91 14.3 14.3 0 0 1 2.83 4.159 3.54 3.54 0 0 1 2.16 0 14.5 14.5 0 0 1 2.811-4.15 7.7 7.7 0 0 0 1.926-2.63c.252-.7.39-1.435.415-2.178v-.01c0-.195-.132-.271-.307-.162l-1.835.994c-.17.11-.215-.093-.09-.253l1.762-2.332a.7.7 0 0 0 .127-.298.8.8 0 0 0-.018-.335q-.345-.938-.823-1.817a13 13 0 0 0-1.075-1.482c-.125-.155-.27-.124-.335.063l-.859 2.124c-.064.187-.23.183-.226 0l.1-3.335a.94.94 0 0 0-.253-.642s-.513-.512-.922-.886A25 25 0 0 0 12.299.1a.46.46 0 0 0-.29-.1zM4.108 14.77c-.129 0-.173.081-.1.182l.778 1.41c.073.105.002.2-.109.117L2.98 15.114a1.4 1.4 0 0 0-.524-.208 1.4 1.4 0 0 0-.56.028c-.378.059-.923.171-.923.171a.24.24 0 0 0-.144.09.26.26 0 0 0-.055.172s.045.549.09.913a1.34 1.34 0 0 0 .462.977l1.771 1.256c.11.073.03.181-.09.136l-1.582-.353c-.12-.045-.181-.001-.144.136 0 0 .258.714.488 1.184q.291.552.66 1.058a.5.5 0 0 0 .162.126.5.5 0 0 0 .2.063l1.906.046c.125 0 .152.144.037.18l-1.22.452c-.12.037-.13.13-.028.208.357.253.75.465 1.157.624.72.231 1.484.289 2.233.18a9 9 0 0 0 1.636-.379 4 4 0 0 1-.036-.46 3.5 3.5 0 0 1 .307-1.42c.2-.446.494-.838.859-1.166h-.018a.6.6 0 0 0-.027-.19 4.9 4.9 0 0 0-.796-2.07 5.3 5.3 0 0 0-.913-.913c-.1-.077-.194-.042-.199.081l-.09 1.284c0 .123-.144.128-.18 0l-.57-1.799a.5.5 0 0 0-.29-.29 9 9 0 0 0-1.166-.315c-.524-.092-1.283-.145-1.283-.145zm15.783.028s-.76.044-1.284.136a9 9 0 0 0-1.175.316.5.5 0 0 0-.172.117.5.5 0 0 0-.117.172l-.57 1.8c-.037.118-.176.113-.18 0l-.091-1.285c0-.123-.089-.158-.19-.08a5.3 5.3 0 0 0-.922.912 4.8 4.8 0 0 0-.795 2.052v.19a3.47 3.47 0 0 1 1.157 2.594 4 4 0 0 1-.027.452 9 9 0 0 0 1.636.389 5 5 0 0 0 2.233-.19c.407-.16.791-.362 1.148-.615.1-.077.092-.171-.028-.208l-1.22-.452c-.115-.036-.079-.176.045-.18l1.899-.046a.55.55 0 0 0 .37-.198c.227-.328.425-.667.606-1.022.235-.456.497-1.184.497-1.184.037-.119-.034-.181-.154-.136l-1.573.353c-.124.046-.196-.063-.09-.136l1.78-1.256a1.34 1.34 0 0 0 .461-.976c.047-.379.091-.913.091-.913l-.009-.018a.26.26 0 0 0-.054-.163.25.25 0 0 0-.145-.1s-.544-.108-.922-.162a1.4 1.4 0 0 0-.56-.027c-.186.03-.366.097-.524.198l-1.7 1.374c-.101.082-.182-.003-.108-.126l.777-1.41c.078-.1.039-.177-.09-.172m-7.883 4.646c-.455 0-.905.13-1.283.38a2.3 2.3 0 0 0-.85 1.021 2.27 2.27 0 0 0 .506 2.486 2.32 2.32 0 0 0 2.504.497 2.29 2.29 0 0 0 1.42-2.106c0-.604-.238-1.19-.67-1.618a2.3 2.3 0 0 0-1.627-.66"/></svg>