<svg xmlns="http://www.w3.org/2000/svg" viewBox="0 0 24 24"><path d="M16.18 11.477a3.66 3.66 0 0 1-3.658-3.655c0-2.015 1.64-3.657 3.658-3.657s3.654 1.64 3.654 3.657a3.66 3.66 0 0 1-3.654 3.654m-.002 8.359a3.66 3.66 0 0 1-3.656-3.656 3.66 3.66 0 0 1 3.656-3.656 3.66 3.66 0 0 1 3.656 3.656 3.66 3.66 0 0 1-3.656 3.656m0-6.588a2.934 2.934 0 0 0-2.931 2.932 2.934 2.934 0 0 0 2.931 2.931 2.934 2.934 0 0 0 2.932-2.931 2.934 2.934 0 0 0-2.932-2.932m-8.36 6.588a3.66 3.66 0 0 1-3.655-3.656 3.66 3.66 0 0 1 3.656-3.656 3.66 3.66 0 0 1 3.656 3.656 3.66 3.66 0 0 1-3.656 3.656m0-6.588a2.935 2.935 0 0 0-2.93 2.932 2.934 2.934 0 0 0 2.93 2.931 2.934 2.934 0 0 0 2.932-2.931 2.934 2.934 0 0 0-2.931-2.932m0-1.772A3.66 3.66 0 0 1 4.164 7.82a3.66 3.66 0 0 1 3.656-3.656 3.66 3.66 0 0 1 3.656 3.656 3.66 3.66 0 0 1-3.656 3.656m0-6.587a2.935 2.935 0 0 0-2.93 2.931 2.935 2.935 0 0 0 2.93 2.932A2.934 2.934 0 0 0 10.75 7.82 2.934 2.934 0 0 0 7.82 4.89M3.002 0A3.004 3.004 0 0 0 0 3v18c0 1.654 1.346 3 3.001 3h17.994a3.006 3.006 0 0 0 3.003-3V3c0-1.653-1.346-3-3.003-3Z"/></svg>