<svg xmlns="http://www.w3.org/2000/svg" viewBox="0 0 24 24"><path d="M22.92 3.984a5.9 5.9 0 0 0-1.2-2.09A5.8 5.8 0 0 0 19.814.49a5.5 5.5 0 0 0-4.542 0c-1.425.642-2.55 1.912-3.062 3.413a6 6 0 0 0-.268 1.158 7.6 7.6 0 0 0-.047 1.167l.02 2.247.034 4.496.011 2.248c.002.375-.002.75.004 1.124.002.186.008.378.007.56.002.18-.01.36-.014.541a8 8 0 0 1-.138 1.082q-.113.542-.34 1.044a5.6 5.6 0 0 1-1.263 1.792c-1.076.998-2.549 1.543-3.992 1.416a5.1 5.1 0 0 1-2.073-.605 5.25 5.25 0 0 1-1.654-1.427 6 6 0 0 1-.594-.936 5.4 5.4 0 0 1-.412-1.034 5.2 5.2 0 0 1-.167-2.195c.053-.362.137-.72.248-1.063q.173-.51.428-.982.246-.458.574-.86a4.3 4.3 0 0 1 .7-.71c1.007-.846 2.343-1.21 3.707-1.214 1.412.002 2.825.024 4.238.015l-.01-1.535c-1.408.03-2.815.128-4.22.235a7.2 7.2 0 0 0-2.287.569 6.4 6.4 0 0 0-1.04.57 6 6 0 0 0-1.66 1.646 6 6 0 0 0-.57 1.025 7.3 7.3 0 0 0-.62 2.267 7.6 7.6 0 0 0 .152 2.412c.187.805.518 1.57.976 2.258a6.4 6.4 0 0 0 1.79 1.788 6.1 6.1 0 0 0 2.412.92c.108.02.215.03.322.041.106.012.213.024.326.027q.168.011.335.01a5.8 5.8 0 0 0 1.658-.24 6.8 6.8 0 0 0 1.253-.504c.402-.21.78-.47 1.135-.76a7.05 7.05 0 0 0 1.864-2.492q.074-.161.136-.327a5.5 5.5 0 0 0 .219-.67 9.4 9.4 0 0 0 .25-1.384c.017-.233.04-.465.047-.697l.01-.302.015-.28.053-1.125.049-2.248.095-4.495.046-2.248.004-.282.002-.067.002-.047.005-.094a4 4 0 0 1 .223-1.087 3.9 3.9 0 0 1 .754-1.252 3.5 3.5 0 0 1 1.164-.856 3.4 3.4 0 0 1 1.402-.298c.487-.009.97.087 1.416.282.457.2.867.491 1.205.858.34.372.614.812.79 1.296.178.492.257 1.016.23 1.539a4 4 0 0 1-.378 1.529 3.77 3.77 0 0 1-2.35 2.016 4 4 0 0 1-.783.149l-.1.006c-.036.003-.06.006-.11.007l-.271.007-.543.015-2.02.056-.037 1.766 2.057.028.543.007.27.004.29-.003a5.6 5.6 0 0 0 3.29-1.204 5.8 5.8 0 0 0 1.523-1.861 6.2 6.2 0 0 0 .384-4.757"/></svg>