<svg xmlns="http://www.w3.org/2000/svg" viewBox="0 0 24 24"><path d="M4.583 11.902q0 .579-.143 1.064t-.414.84a1.85 1.85 0 0 1-.676.552q-.405.196-.93.196-.4 0-.716-.2t-.494-.512v2.118H.836a.9.9 0 0 1-.311-.058.8.8 0 0 1-.267-.165.8.8 0 0 1-.187-.258Q0 15.328 0 15.132v-2.9q0-.597.138-1.095.138-.499.432-.855t.747-.551 1.086-.196q.48 0 .88.2.401.2.69.53.29.329.45.756t.16.881m-1.228.312q0-.855-.28-1.237-.281-.383-.86-.383-.498 0-.76.387t-.263 1.01q0 .72.325 1.112t.859.392q.436 0 .707-.352.272-.351.272-.93m5.47 2.234q-.373 0-.591-.205t-.218-.596V11.69q0-.294-.076-.503t-.205-.338a.8.8 0 0 0-.302-.192 1.1 1.1 0 0 0-.37-.062q-.142 0-.293.058t-.28.191-.21.347-.08.534v2.723H5.81q-.427 0-.623-.213-.196-.214-.196-.588V8.04h.374q.427 0 .636.214t.21.551v1.37q.062-.106.173-.217a2 2 0 0 1 .244-.205 1.4 1.4 0 0 1 .294-.156.9.9 0 0 1 .33-.062q.934 0 1.45.538.516.539.516 1.562v2.812zm5.56-2.545q0 .578-.142 1.063-.143.485-.414.841a1.85 1.85 0 0 1-.677.552q-.404.196-.93.196-.4 0-.716-.2t-.494-.512v2.118h-.373a.9.9 0 0 1-.312-.058.8.8 0 0 1-.267-.165.8.8 0 0 1-.187-.258q-.07-.151-.07-.347v-2.9q0-.597.137-1.095.138-.498.432-.854.293-.356.747-.552t1.086-.196q.48 0 .88.2.401.2.69.53.29.329.45.756t.16.881m-1.228.312q0-.855-.28-1.237t-.86-.383q-.497 0-.76.387t-.262 1.01q0 .721.324 1.112t.86.392q.435 0 .707-.351t.27-.93m6.032.347q0 .462-.169.818t-.458.601-.668.37-.796.124h-.658q-1.7 0-1.7-1.45V8.6q.107-.036.303-.085a9 9 0 0 1 .422-.093 6 6 0 0 1 .463-.071q.236-.027.423-.027h.738q.436 0 .801.111t.632.32.413.508.147.672q0 .507-.258.832t-.712.458q.232.062.427.204.196.143.343.325t.227.396.08.41m-1.326-2.519q0-.195-.084-.333a.64.64 0 0 0-.218-.218q-.134-.08-.303-.116a1.6 1.6 0 0 0-.338-.036h-.454a2 2 0 0 0-.258.023l-.267.04v1.379h.935q.409 0 .698-.174t.29-.565m.097 2.554q0-.498-.253-.685-.254-.187-.788-.187h-.97v1.255q0 .16.151.271.152.111.383.111h.498q.499 0 .739-.209t.24-.556m6.04-.035q0 .462-.169.818t-.458.6-.668.37-.796.125h-.658q-1.7 0-1.7-1.45V8.6q.107-.036.303-.085a9 9 0 0 1 .422-.093 6 6 0 0 1 .463-.071q.236-.027.423-.027h.738q.436 0 .8.111.366.111.633.32t.413.508q.147.298.147.672 0 .507-.258.832t-.712.458q.232.062.427.204a1.8 1.8 0 0 1 .343.325q.147.183.227.396t.08.41m-1.326-2.519q0-.195-.084-.333a.64.64 0 0 0-.218-.218q-.134-.08-.303-.116a1.6 1.6 0 0 0-.338-.036h-.454a2 2 0 0 0-.258.023l-.267.04v1.379h.934q.41 0 .699-.174t.29-.565m.097 2.554q0-.498-.254-.685-.253-.187-.787-.187h-.97v1.255q0 .16.151.271t.383.111h.498q.498 0 .739-.209.24-.209.24-.556m.195 3.081h-.122v-.73h.282q.135 0 .203.05.069.049.069.16 0 .099-.056.144-.056.046-.139.055l.21.321h-.14l-.192-.312h-.115zm.137-.414.066-.003a.14.14 0 0 0 .054-.015.1.1 0 0 0 .038-.034q.014-.022.014-.063 0-.033-.015-.053a.1.1 0 0 0-.039-.03.2.2 0 0 0-.052-.013l-.055-.003h-.148v.214zm.654.037q0 .148-.053.27a.6.6 0 0 1-.144.208.7.7 0 0 1-.21.134.7.7 0 0 1-.25.048q-.146 0-.268-.05a.6.6 0 0 1-.208-.14.6.6 0 0 1-.137-.208.7.7 0 0 1-.05-.262q0-.148.053-.27a.6.6 0 0 1 .144-.208.7.7 0 0 1 .212-.135.7.7 0 0 1 .253-.047.7.7 0 0 1 .251.047.7.7 0 0 1 .21.134.6.6 0 0 1 .144.209q.053.122.053.27m-.144 0a.6.6 0 0 0-.039-.22.5.5 0 0 0-.11-.174.5.5 0 0 0-.163-.112.5.5 0 0 0-.202-.04.5.5 0 0 0-.204.04.5.5 0 0 0-.164.112.5.5 0 0 0-.11.173.6.6 0 0 0-.04.22q0 .114.036.213a.5.5 0 0 0 .104.173.5.5 0 0 0 .163.117q.095.043.215.043a.5.5 0 0 0 .202-.04.5.5 0 0 0 .163-.112.5.5 0 0 0 .11-.172q.04-.1.04-.221"/></svg>