<svg xmlns="http://www.w3.org/2000/svg" viewBox="0 0 24 24"><path d="M5.463 3.476C6.69 5.225 7.497 7.399 7.68 9.798a12.9 12.9 0 0 1-.672 5.254 4.3 4.3 0 0 1 2.969-1.523q.075-.005.148-.008c.08-.491.47-3.45-.977-6.68-1.068-2.386-3-3.16-3.685-3.365m1.777.037s2.406 1.066 3.326 5.547c.607 2.955.049 4.836-.402 5.773a7.35 7.35 0 0 1 4.506-1.994c.86-.065 1.695.02 2.482.233-.1-.741-.593-3.414-2.732-5.92-3.263-3.823-7.18-3.64-7.18-3.64Zm14.817 9.701-17.92 3.049a2.28 2.28 0 0 1 1.535 2.254 2.3 2.3 0 0 1-.106.61c.055-.027 2.689-1.275 6.342-2.034 3.238-.673 5.723-.36 6.285-.273a6.46 6.46 0 0 1 3.864-3.606m-6.213 4.078c-2.318 0-4.641.495-6.614 1.166-2.868.976-2.951 1.348-5.55 1.043C1.844 19.286 0 18.386 0 18.386s2.406 1.97 4.914 2.127c1.986.125 3.505-.822 5.315-1.414 2.661-.871 4.511-.97 6.253-.975C19.361 18.116 24 19.353 24 19.353s-2.11-1.044-5.033-1.72a14 14 0 0 0-3.123-.34Z"/></svg>