<svg xmlns="http://www.w3.org/2000/svg" viewBox="0 0 24 24"><path d="M2.222 10.831a.037.037 0 0 1 .038-.04.6.6 0 0 1 .44.216 1.04 1.04 0 0 1 .21.62.035.035 0 0 1-.04.037c-.474-.062-.593-.22-.648-.833m-.147 0a.037.037 0 0 0-.04-.04.6.6 0 0 0-.44.216 1.04 1.04 0 0 0-.207.62.035.035 0 0 0 .041.037c.47-.062.59-.22.646-.833m-.648 1.002a.036.036 0 0 0-.039.035 1.04 1.04 0 0 0 .21.625.6.6 0 0 0 .438.22.037.037 0 0 0 .039-.04c-.056-.613-.175-.772-.648-.84m.795.844a.037.037 0 0 0 .038.04.6.6 0 0 0 .44-.216 1.04 1.04 0 0 0 .21-.633.036.036 0 0 0-.04-.039c-.474.072-.593.23-.648.843zm2.616-1.846a.037.037 0 0 0-.038-.04.6.6 0 0 0-.44.216 1.04 1.04 0 0 0-.21.62.035.035 0 0 0 .04.037c.473-.062.593-.22.648-.833m.795.844a.035.035 0 0 0 .04-.037 1.04 1.04 0 0 0-.209-.625.6.6 0 0 0-.44-.216.037.037 0 0 0-.039.04c.056.607.175.765.648.832zm-.648 1.003a.037.037 0 0 0 .039.04.6.6 0 0 0 .44-.216 1.04 1.04 0 0 0 .21-.634.036.036 0 0 0-.041-.039c-.473.072-.592.23-.648.843zm-.794-.844a.036.036 0 0 0-.041.039 1.04 1.04 0 0 0 .21.624.6.6 0 0 0 .44.215.037.037 0 0 0 .038-.04c-.055-.612-.175-.771-.647-.839Zm17.22-.964a.29.29 0 0 0-.288.289v.88a.29.29 0 1 0 .577 0v-.88a.29.29 0 0 0-.288-.294zm-2.15-.395a.29.29 0 0 0-.288.289v1.27a.29.29 0 1 0 .577 0V10.76a.29.29 0 0 0-.29-.288Zm4.3 0a.29.29 0 0 0-.287.289v1.27a.29.29 0 1 0 .577 0V10.76a.29.29 0 0 0-.29-.288Zm-5.15 1.568a.29.29 0 0 1-.29.29h-2.745v.105a.29.29 0 0 1-.578 0 2.4 2.4 0 0 1 .05-.454c.262-1.447 2.012-1.974 3.061-1.03a1.5 1.5 0 0 1 .502 1.08zm-2.885-.296h2.25a1 1 0 0 0-.26-.376 1.3 1.3 0 0 0-.891-.322 1.22 1.22 0 0 0-1.099.698m-5.262-1.276a2.05 2.05 0 0 0-1.801 1.035 1.35 1.35 0 0 0-.783-.24 1.36 1.36 0 0 0-.664.17 4.3 4.3 0 0 0-.794-1.912.7.7 0 0 1-.097-.15c.013-.96-1.153-1.406-1.832-.724l-.052.056A1 1 0 0 1 4.11 8.7a5 5 0 0 0-.58-.029 7 7 0 0 0-.708.04c-.646-.763-1.9-.339-1.886.657a.7.7 0 0 1-.098.15 4.4 4.4 0 0 0-.836 2.249.29.29 0 0 0 .576.05A3.8 3.8 0 0 1 1.3 9.87a.8.8 0 0 0 .209-.502.43.43 0 0 1 .269-.431.51.51 0 0 1 .6.136c.151.185.31.241.63.193a5 5 0 0 1 .522-.026 5 5 0 0 1 .522.026c.338.05.492-.018.643-.208a.51.51 0 0 1 .583-.12.43.43 0 0 1 .27.431.8.8 0 0 0 .215.502 3.8 3.8 0 0 1 .724 1.947c.02.198 0 .37.174.47a.29.29 0 0 0 .4-.12.754.754 0 0 1 1.251.01.29.29 0 0 0 .528-.068 1.45 1.45 0 0 1 1.424-1.06 1.48 1.48 0 0 1 1.253.656.29.29 0 1 0 .482-.32 2.05 2.05 0 0 0-1.735-.914m13.721 2.927a1.405 1.405 0 0 1-1.273.989 1.64 1.64 0 0 1-1.3-.546c-.632.723-1.86.749-2.39-.068-.522.372-1.326.614-2.113.614-1.06-.035-1.58-.388-2.298-.956-.764-.712-1.852-.145-2.355.738v1.206a.29.29 0 0 1-.577 0v-1.532a2.09 2.09 0 0 1-1.415.544 2.05 2.05 0 0 1-1.801-1.035 1.37 1.37 0 0 1-1.55.01c-.587 1.096-1.817 1.724-3.377 1.724-1.229 0-2.25-.386-2.916-1.085v1.372a.29.29 0 0 1-.578 0v-2.3a.3.3 0 0 1 .12-.24.29.29 0 0 1 .416.096c.458 1.025 1.528 1.577 2.953 1.583s2.704-.63 2.997-1.78a.29.29 0 0 1 .148-.166.29.29 0 0 1 .376.12c.248.45 1.01.45 1.258 0a.29.29 0 0 1 .492-.02.3.3 0 0 1 .04.09 1.487 1.487 0 0 0 2.846 0 .29.29 0 0 1 .562.007c.014.035.006.43.007.475.44-.421 1.002-.7 1.5-.7.92-.031 1.235.565 1.878.923a2.55 2.55 0 0 0 1.276.353c.857 0 1.652-.311 2.058-.749a.292.292 0 0 1 .42.162c.242.785 1.383.79 1.755-.017a.288.288 0 0 1 .523-.031 1.04 1.04 0 0 0 1.01.635.83.83 0 0 0 .76-.587.289.289 0 0 1 .55.176zM7.68 13.81a.29.29 0 0 0-.288.29v1.274a.29.29 0 1 0 .577 0V14.1a.29.29 0 0 0-.289-.29"/></svg>