<svg xmlns="http://www.w3.org/2000/svg" viewBox="0 0 24 24"><path d="M23.214 9.193a.74.74 0 0 0-.488.276c-.072.093-.124.205-.215.46a246 246 0 0 1-.792 2.17 41 41 0 0 0-.408 1.147 3 3 0 0 1-.053.167 8 8 0 0 1-.228-.553 179 179 0 0 0-1.23-3.074c-.08-.202-.094-.228-.157-.32a.6.6 0 0 0-.328-.247c-.07-.022-.08-.022-.485-.022h-.413v.893l.157.002c.185 0 .218.012.284.087.037.04.091.166.476 1.076l.653 1.54.332.776c.18.435.406.982.408.994l.01.04c.01.042-.018.123-.12.369-.197.47-.3.644-.495.813q-.389.345-.807.21a3 3 0 0 1-.427-.206 1 1 0 0 0-.177-.086l-.094.162c-.05.086-.095.16-.1.168-.02.024-.21.376-.21.387 0 .03.215.177.387.264a1.9 1.9 0 0 0 .903.215c.32 0 .56-.055.827-.19.42-.212.704-.57.982-1.242.12-.287.56-1.374 1.22-3.01.81-2.003.784-1.94.862-2.098.074-.148.106-.185.198-.234.047-.024.063-.027.183-.032L24 10.09v-.903h-.364c-.2-.002-.39 0-.422.006M10.32 9.17c-.492.05-.865.169-1.238.389a2.75 2.75 0 0 0-.856.834 2.6 2.6 0 0 0-.39 1.098 5 5 0 0 0 .004.844c.044.348.112.579.252.862.1.2.157.292.285.45a2.86 2.86 0 0 0 1.71.984c.124.02.166.022.48.022.38 0 .5-.011.753-.072.422-.101.742-.256 1.137-.55.064-.048.157-.115.206-.15.065-.045.09-.07.09-.084a.2.2 0 0 0-.04-.088 1.5 1.5 0 0 0-.124-.204c-.013-.017-.02-.031-.017-.031s-.002-.01-.013-.022c-.01-.01-.017-.024-.015-.03q.003-.006-.002-.007-.01-.001-.018-.02a7 7 0 0 0-.157-.26l-.032-.051-.314.21a4 4 0 0 1-.448.278c-.17.08-.36.145-.535.18a1.4 1.4 0 0 1-.359.027 1.6 1.6 0 0 1-.62-.093 2.4 2.4 0 0 1-.506-.258 2.2 2.2 0 0 1-.362-.36 1.7 1.7 0 0 1-.307-.64 2 2 0 0 1-.066-.532c0-.2.02-.343.07-.544.053-.208.101-.324.21-.504.28-.462.714-.746 1.245-.816a3 3 0 0 1 .533-.005c.131.015.281.052.367.092a.74.74 0 0 1 .317.267c.042.072.086.274.086.397v.06h.854v-.29c0-.321-.01-.392-.067-.541-.087-.225-.316-.462-.563-.586a2.7 2.7 0 0 0-.545-.194c-.213-.05-.328-.062-.656-.064a7 7 0 0 0-.349.002m-4.765.028c-.004.004-.007.19-.007.413v.407h.256c.283 0 .3.003.363.068.067.072.063-.088.062 1.92 0 1.882.002 2.11.037 2.246q.075.299.356.364c.107.024.608.045.62.025.001-.004 0-1.12-.005-2.478l-.006-2.47-.02-.076q-.072-.26-.259-.352c-.13-.065-.139-.066-.797-.07a12 12 0 0 0-.6.003m7.484.006a10 10 0 0 0-.003.44l.003.427h.17c.13 0 .184.006.232.018.17.046.263.123.401.326a111 111 0 0 1 .952 1.405.1.1 0 0 1 .017.04c0 .006-.41.634-.908 1.395l-.908 1.39c0 .002.26.004.576.004h.575l.643-1.003.655-1.02c.011-.015.026.003.144.175.072.106.373.565.67 1.02l.536.828h.572c.541 0 .57-.002.562-.018l-.912-1.395c-.78-1.196-.9-1.382-.89-1.398.005-.01.216-.333.47-.717.48-.723.531-.795.662-.896a1 1 0 0 1 .142-.084l.085-.041.418-.01v-.893h-.384c-.412 0-.483.006-.626.05a.8.8 0 0 0-.36.222c-.072.073-.108.124-.226.323a48 48 0 0 1-.838 1.335c-.02-.012-.25-.372-.765-1.197-.225-.36-.266-.42-.352-.501-.197-.19-.406-.237-1.05-.237-.198 0-.26.003-.263.012M.461 7.104a.4.4 0 0 0-.168.042.5.5 0 0 0-.276.338c-.02.072-.018-.307-.014 4.27v2.875l.529-.002.526-.003V11.89h.45c.8-.002 1.372-.015 1.557-.037a2.1 2.1 0 0 0 .72-.2 2.03 2.03 0 0 0 .803-.71 2.2 2.2 0 0 0 .392-1.058 5 5 0 0 0 0-.79 2.19 2.19 0 0 0-.783-1.465 2.4 2.4 0 0 0-.95-.452 4 4 0 0 0-.461-.066A73 73 0 0 0 .46 7.105Zm2.15.953a1.5 1.5 0 0 1 .688.24c.09.058.265.227.338.326.164.219.252.453.28.743.014.125.014.11 0 .235-.028.29-.116.524-.28.743a1.9 1.9 0 0 1-.338.327 1.5 1.5 0 0 1-.693.24c-.124.013-.108.013-.233 0a1.5 1.5 0 0 1-.692-.24 2 2 0 0 1-.34-.327 1.4 1.4 0 0 1-.28-.743c-.012-.125-.012-.11 0-.235.03-.29.118-.524.28-.743a2 2 0 0 1 .34-.327c.2-.133.507-.237.706-.24a.4.4 0 0 0 .074-.01.1.1 0 0 1 .038-.002c.008.002.059.008.112.013m-.13.58a.64.64 0 0 0-.422.428.9.9 0 0 0 0 .332c.047.16.163.304.302.376.11.057.163.07.294.07s.182-.013.294-.07a.63.63 0 0 0 .302-.376.9.9 0 0 0 0-.332.64.64 0 0 0-.43-.43.9.9 0 0 0-.34.003zM6.46 7.15a.63.63 0 0 0-.443.445 1 1 0 0 0-.015.155c0 .183.053.312.18.438a.56.56 0 0 0 .437.179 1 1 0 0 0 .156-.015.63.63 0 0 0 .446-.446.9.9 0 0 0 0-.311.63.63 0 0 0-.446-.447.9.9 0 0 0-.316.002z"/></svg>