<svg xmlns="http://www.w3.org/2000/svg" viewBox="0 0 24 24"><path d="m11.96 17.804 7.959-3.396-7.049 7.241a14.4 14.4 0 0 0-.91-3.844zM24 11.118a44.2 44.2 0 0 0-15.087 1.92 14.6 14.6 0 0 1 2.535 3.621c4.042-2.25 9.646-5.123 12.552-5.531v-.015zm-12.574.275.207-.06a40 40 0 0 0 4.523-1.656 16.6 16.6 0 0 0 4.159-2.367 9 9 0 0 0 2.915-4.122c.12-.267.211-.549.267-.837-2.024 2.76-10.041 3.048-10.041 3.048l1.89-1.734A26.4 26.4 0 0 0 0 8.645a14.44 14.44 0 0 1 8.139 3.634c1.086-.336 2.196-.576 3.286-.879v-.006z"/></svg>