<svg xmlns="http://www.w3.org/2000/svg" viewBox="0 0 24 24"><path d="M13.277.002c-.079-.01-.193.024-.31.09a2.4 2.4 0 0 0-.415.311c-.301.274-.65.68-.985 1.176-.672.99-1.31 2.356-1.485 3.785-.12.977-.154 1.849-.074 2.578a5.9 5.9 0 0 1 1.956-.338c.922 0 1.804.218 2.618.613.197-.637.34-1.395.445-2.246.175-1.429-.1-2.907-.499-4.028a6.7 6.7 0 0 0-.653-1.378 2.3 2.3 0 0 0-.321-.401c-.097-.092-.199-.153-.277-.162m-6.81 2.965a.6.6 0 0 0-.288.117l-.013.011a.9.9 0 0 0-.177.327c-.051.15-.094.344-.126.565a8.2 8.2 0 0 0-.044 1.637c.08 1.222.397 2.665 1.079 3.769q.141.224.294.442c.726-.776 1.567-1.385 2.488-1.768-.1-.79-.06-1.714.066-2.744.038-.31.1-.616.176-.916a6.5 6.5 0 0 0-1.692-1.08 4.6 4.6 0 0 0-1.29-.366 1.8 1.8 0 0 0-.474.006zm11.751 1.789a5 5 0 0 0-.687.06 6 6 0 0 0-2.132.76 8 8 0 0 1-.036.437c-.11.888-.258 1.684-.475 2.364.848.468 1.614 1.13 2.267 1.94.823-.85 1.43-2.05 1.787-3.13.187-.57.304-1.1.35-1.514.022-.207.027-.38.017-.51-.01-.133-.042-.206-.04-.202a.4.4 0 0 0-.114-.072 1.5 1.5 0 0 0-.375-.1 3.4 3.4 0 0 0-.562-.033m-6.254 3.139c-2.014 0-3.83 1.087-5.147 2.834-1.316 1.748-2.131 4.16-2.131 6.807 0 2.65.806 4.258 2.131 5.218C8.132 23.707 9.96 24 11.964 24s3.831-.293 5.147-1.246c1.326-.96 2.133-2.568 2.133-5.218 0-2.647-.816-5.059-2.133-6.806-1.317-1.748-3.134-2.835-5.147-2.835m-3.297 5.209a1.282 1.282 0 0 1 .292 2.518c.115.094.177.201.164.307-.032.265-.521.424-1.09.354-.571-.07-1.007-.342-.974-.607.024-.198.302-.336.678-.364a1.282 1.282 0 0 1 .93-2.208m6.284.22a1.282 1.282 0 0 1 .726 2.303c.437.058.757.244.757.466 0 .267-.466.483-1.04.483s-1.04-.216-1.04-.483c0-.098.063-.189.17-.265a1.282 1.282 0 0 1 .427-2.505zm-6.318.215a.822.822 0 1 0 .028 1.645.822.822 0 0 0-.028-1.645m6.284.22a.822.822 0 1 0 .027 1.644.822.822 0 0 0-.027-1.644m-6.543.109a.338.338 0 1 1-.023.677.338.338 0 0 1 .023-.677m6.284.22a.339.339 0 1 1-.018 0zm-3.91 1.179c.17.252.432.404.808.447.372.043.694-.05.976-.28a.145.145 0 1 1 .183.226c-.344.28-.745.394-1.192.343-.445-.051-.79-.24-1.016-.574a.145.145 0 1 1 .24-.162z"/></svg>