<svg xmlns="http://www.w3.org/2000/svg" viewBox="0 0 24 24"><path d="M9.947 22.915c0 .6-1.207 1.085-2.7 1.085-1.492 0-2.698-.485-2.698-1.085s1.206-1.086 2.699-1.086 2.699.485 2.699 1.086m-.018-.906V.789S9.593.58 9.06.33A7 7 0 0 0 8.1.07 8 8 0 0 0 6.986 0a8 8 0 0 0-1.043.144 6 6 0 0 0-.786.272A6 6 0 0 0 4.56.79v21.223c.609-.462 1.668-.684 2.687-.684 1.015 0 2.072.22 2.68.68zm1.906-17.195c.66 0 1.192-1 1.192-2.237S12.494.34 11.835.34c-.66 0-1.192 1-1.192 2.237s.533 2.237 1.192 2.237m.045 4.488c-.66 0-1.192 1.102-1.192 2.464 0 1.363.533 2.465 1.192 2.465.66 0 1.192-1.102 1.192-2.465s-.532-2.464-1.192-2.464m7.556-2.16a12 12 0 0 0-.142-1.026 12 12 0 0 0-.27-.994 12 12 0 0 0-.388-.939q-.226-.44-.492-.859a11 11 0 0 0-.578-.76 10 10 0 0 0-.647-.65 9.6 9.6 0 0 0-1.412-.941 9.6 9.6 0 0 0-1.412-.492 11 11 0 0 0-.65-.102 6 6 0 0 0-.626-.053c.433.486.708 1.294.708 2.25 0 1-.3 1.836-.767 2.313.224.041.575.163.708.212.215.096.432.211.641.344.356.258.543.471.73.77.263.474.31.856.247 1.287-.135.651-.495 1.035-.937 1.33a4.3 4.3 0 0 1-.623.297c-.087.026-.438.13-.694.158.453.521.74 1.418.74 2.48 0 1.042-.278 1.923-.716 2.448.114-.002.22-.003.35-.007.414-.037.9-.107 1.395-.207.314-.085.862-.25 1.531-.55a9 9 0 0 0 1.422-.996q.32-.32.605-.673a9 9 0 0 0 .504-.782q.217-.428.39-.876.154-.463.262-.951.086-.495.129-1.003c.02-.343-.001-.686-.008-1.028"/></svg>