<svg xmlns="http://www.w3.org/2000/svg" viewBox="0 0 24 24"><path d="M17.801 0q-.007-.002-.02.017a34 34 0 0 0-1.451 2.245l.231-.662a.034.034 0 0 0-.058-.033l-.52.648a.1.1 0 0 0-.042.004l.353-.727a.037.037 0 0 0-.061-.04l-1.073 1.23q-.08.024-.07-.007c.313-.871.874-1.732 1.345-2.53a.05.05 0 0 0 .008-.028q0-.016-.005-.027-.02-.04-.047-.005c-.143.192-.422.71-.602.817a.031.031 0 0 1-.047-.025q0-.008.003-.013l.123-.281a.024.024 0 0 0-.025-.034.03.03 0 0 0-.017.009c-.417.53-.75 1.137-1.099 1.714-.225.373-.637.983-.902 1.515L11.13 8.52l-.934 1.756C9.44 9.075 8.838 7.75 8.15 6.503c-.15-.273-.353-.59-.518-.89a.03.03 0 0 0-.024-.014H7.59a.016.016 0 0 0-.015.021l.154.409a.06.06 0 0 1-.008.053l-.082.107a.08.08 0 0 0-.013.07l.15.505q.033.11-.024.01c-.295-.515-.566-1.099-.845-1.646q-.012-.025-.03-.004-.014.016-.003.037.317.644.504 1.16.004.01-.007.01h-.019a.01.01 0 0 1-.01-.007l-.387-.746a.037.037 0 0 0-.07.015.2.2 0 0 0 .07.174c.01.008.007.024-.005.027l-.024.008a.035.035 0 0 1-.041-.015l-.261-.432a.044.044 0 0 0-.076.002.04.04 0 0 0-.003.032l.46 1.592q.008.025-.019.025-.029 0-.048-.042l-.47-1.017a.027.027 0 0 0-.051.017c.06.335.166.55.177.975q.006.198.248.735c.047.106.061.23.106.337a.009.009 0 0 1-.016.008c-.302-.554-.496-1.088-.902-1.61a.034.034 0 0 0-.06.031c.065.203.096.38.192.592.125.277.103.564.206.814q.075.183.168.36a126 126 0 0 0 2.19 4.587c.02.039.015.095.016.137l-.34.53-1.024 1.834-.86 1.58-.339.614a.024.024 0 0 0 .035.032l.176-.118q.056-.039.035.027a3 3 0 0 1-.295.659q-.027.043.024.033l.173-.035c.003.155-.192.464-.257.64-.01.024.01.05.037.046a.04.04 0 0 0 .024-.015l.482-.714c.121.169-.044.328-.094.486a.044.044 0 0 0 .072.044l.322-.31q.04-.037.058.014l.018.05a.045.045 0 0 0 .082.01l.194-.31a.034.034 0 0 1 .06.028l-.306.876a.031.031 0 0 0 .054.031l.906-1.054a4.2 4.2 0 0 1-.462.956.04.04 0 0 0-.007.022.1.1 0 0 0 .007.024q.02.033.043.001.369-.518.707-1.057a.3.3 0 0 1 .117-.087l.016.15q.008.08.048.012c.176-.295.396-.556.57-.838q.476-.775 1.074-1.47.03-.035.05.004l.11.202c.264.588.538 1.185.864 1.768.405.722.911 1.815 1.38 2.683q.282.52.568 1.04c.33.6.617 1.26.936 1.888.16.336.348.716.67.792q.047.01.03-.034l-.687-1.839q.412.331.682.747.03.049.065.051a.042.042 0 0 0 .045-.048l-.173-1.104q-.015.04 0 0l.11-.156c.093.13.228.224.314.365q.34.567.805 1.024a.05.05 0 0 0 .082-.023.1.1 0 0 0 0-.023c-.174-.731-.567-1.452-.783-2.215q-.075-.266.11-.06.34.375.64.786.463.633.123-.073a14 14 0 0 0-.508-.924c-.643-1.281-1.338-2.527-1.997-3.8-.573-1.108-1.197-2.192-1.73-3.305a.2.2 0 0 1-.019-.065l-.006-.059q.175-.18.358-.488.179-.298.786-1.162c.107-.152.313-.39.457-.63q.148-.248.589-.821c1.077-1.402 2.239-2.795 3.184-4.227a.022.022 0 1 0-.036-.026l-.427.52a.043.043 0 0 1-.077-.024l-.008-.13q-.004-.078-.055-.019l-.497.582h-.033c.008-.035.002-.072.02-.105q.492-.908 1.032-1.8a.044.044 0 0 0-.07-.054q-.139.148-.269.335-.087.125-.144.05l.573-1.097a.024.024 0 0 0-.04-.025l-1.1 1.567-.672.938q-.02.026-.047.01-.028-.016-.01-.049.476-.807.609-1.062.357-.523.647-1.124c.117-.244.33-.514.429-.813a.03.03 0 0 0-.05-.027l-.604.773.392-.78q.368-.686.804-1.4c.204-.333.358-.658.518-1q.003-.006-.001-.01l-.015-.014q-.018-.02-.03.003a24 24 0 0 1-1.123 1.598.9.9 0 0 0-.14.27q-.01.033-.031.006l-.014-.014q-.03-.024-.012-.059.24-.479.415-.984a.3.3 0 0 0 .021-.072q-.016-.119-.097-.029l-.448.491q-.039.054-.009-.044a.1.1 0 0 1 .02-.04c.229-.335.416-.755.588-1.05q.331-.564.646-1.138a.1.1 0 0 0 .01-.045Q17.809.001 17.801 0"/></svg>