<svg xmlns="http://www.w3.org/2000/svg" viewBox="0 0 24 24"><path d="M2 0a2 2 0 0 0-2 2v20a2 2 0 0 0 2 2h20a2 2 0 0 0 2-2V2a2 2 0 0 0-2-2Zm10.193 5.5h2.499l1.967 2.872L18.854 5.5h2.482l-3.579 4.592 3.91 4.813h-2.638l-2.395-3.064-2.15 3.064h-2.579l3.579-4.813zm-5.045.004q1.98.05 3.3 1.371 1.318 1.321 1.37 3.317-.052 1.997-1.37 3.328-1.32 1.33-3.3 1.38H4.346v3.768H2.5v-8.476q.049-1.995 1.359-3.317 1.31-1.321 3.29-1.37Zm0 1.864q-1.196.03-1.985.823-.787.794-.817 2v2.847h2.802q1.212-.028 2.003-.826.791-.799.82-2.02-.029-1.206-.82-2-.79-.795-2.003-.824"/></svg>