<svg xmlns="http://www.w3.org/2000/svg" viewBox="0 0 24 24"><path d="M2.021 0C.967 0 .111.883.111 1.973v20.054c0 1.09.857 1.973 1.91 1.973H21.98c1.054 0 1.91-.884 1.91-1.973V1.973C23.89.883 23.034 0 21.98 0H2.02zM10.1 4.648a.7.7 0 0 1 .304.127 1.2 1.2 0 0 1 .356.373.21.21 0 0 1 .084.163c.165.388.135.857-.149 1.203-.19.232-.429.305-.648.263a.24.24 0 0 1-.096.04c-.41.13-.884-.218-.994-.663-.065-.26-.087-.674.076-.908a.4.4 0 0 1 .082-.086 1 1 0 0 1 .05-.264c.077-.214.256-.214.425-.148a1 1 0 0 1 .09-.006 2 2 0 0 1 .158.008.28.28 0 0 1 .262-.102m8.43 0c.098.012.204.06.304.127a1.2 1.2 0 0 1 .355.373.21.21 0 0 1 .084.163c.166.388.136.857-.148 1.203-.19.232-.43.305-.648.263a.24.24 0 0 1-.096.04c-.41.13-.885-.218-.994-.663-.065-.26-.087-.674.076-.908a.4.4 0 0 1 .082-.086 1 1 0 0 1 .049-.264c.077-.214.256-.214.424-.148a1 1 0 0 1 .091-.006 2 2 0 0 1 .159.008.28.28 0 0 1 .261-.102zm-13.159.16c.224-.013.461.063.649.198a1 1 0 0 1 .23.223l.059.039c.341.244.312.679.074.992l-.004.008a.91.91 0 0 1-.897.558c-.302-.008-.611-.084-.82-.271-.2-.143-.34-.356-.332-.627a.13.13 0 0 1 .092-.127 1.04 1.04 0 0 1 .342-.6.7.7 0 0 1 .607-.393m8.682.003c.224-.014.461.06.648.195a1 1 0 0 1 .229.224l.058.04c.342.244.315.679.076.992l-.005.006a.91.91 0 0 1-.895.558c-.302-.008-.614-.084-.822-.271a.73.73 0 0 1-.33-.627.13.13 0 0 1 .092-.125 1.04 1.04 0 0 1 .34-.6.7.7 0 0 1 .61-.393zm-8.282.496.034.04.011.005a.13.13 0 0 1 .088.076.6.6 0 0 1 .225.125.7.7 0 0 0-.078-.135 1.2 1.2 0 0 0-.28-.111m8.68 0 .033.04.012.005c.039.007.07.038.088.076a.6.6 0 0 1 .225.125.7.7 0 0 0-.079-.135 1.2 1.2 0 0 0-.279-.111m-4.553.119a2 2 0 0 0-.005.295c.075-.042.081-.17.064-.262a.3.3 0 0 0-.059-.033m8.428 0a2 2 0 0 0-.004.295c.076-.042.08-.17.063-.262l-.02-.014-.039-.02zM5.55 5.65l-.086.028.01.04c.057-.032.133-.028.175.028l-.003-.057a.3.3 0 0 1-.075-.023Q5.56 5.66 5.55 5.65m8.68 0-.086.028.011.04c.057-.032.134-.028.176.028l-.004-.057a.3.3 0 0 1-.074-.023zm-9.032.088q.004.026.01.053l.023.078q-.04-.044-.033-.13zm8.68.002a1 1 0 0 0 .033.13q-.04-.043-.033-.13m-3.18.02-.011.017a.38.38 0 0 1-.13.237l-.001.006a.12.12 0 0 1-.04.119l-.029.064a2 2 0 0 1-.148.285.6.6 0 0 0 .217-.205c.1-.156.147-.34.142-.523m8.43 0-.012.017a.38.38 0 0 1-.129.237q0 .002-.002.006c.013.043-.005.088-.039.119l-.029.064a2 2 0 0 1-.148.285.57.57 0 0 0 .216-.205c.1-.156.148-.34.143-.523m-9.961.039a1 1 0 0 0 .004.133c.017.185.078.383.219.513a.6.6 0 0 0 .086.067 1 1 0 0 1-.143-.278 2.6 2.6 0 0 1-.166-.435m8.43 0a1 1 0 0 0 .004.133c.017.185.078.383.218.513a.6.6 0 0 0 .086.067 1 1 0 0 1-.142-.278 2.5 2.5 0 0 1-.166-.435m-11.67.146a.4.4 0 0 1-.028.065l.036.068a.24.24 0 0 0-.008-.133m8.681 0a1 1 0 0 1-.029.065l.035.068a.24.24 0 0 0-.006-.133m-9.09.41a.6.6 0 0 1-.18.038l-.013.015a.5.5 0 0 0 .229-.013l-.035-.04zm8.68 0a.6.6 0 0 1-.18.038l-.013.015a.5.5 0 0 0 .228-.013zm-4.308 2.3a1.06 1.06 0 0 1 1.052 1.072v8.58c0 .592-.47 1.072-1.052 1.072s-1.055-.48-1.055-1.072v-8.58c0-.592.472-1.072 1.055-1.073zm8.431 0a1.06 1.06 0 0 1 1.053 1.072v8.58c0 .592-.47 1.072-1.053 1.072-.582 0-1.054-.48-1.054-1.072v-8.58c0-.592.472-1.072 1.054-1.073zm-12.95.105c.224-.013.461.06.649.195a1 1 0 0 1 .23.225l.059.039c.341.244.312.679.074.992l-.004.006a.91.91 0 0 1-.897.558c-.302-.007-.611-.083-.82-.271-.2-.142-.34-.354-.332-.625a.13.13 0 0 1 .092-.127 1.04 1.04 0 0 1 .342-.6.7.7 0 0 1 .607-.393zm8.682 0c.224-.013.461.06.648.195a1 1 0 0 1 .229.225l.058.039c.342.244.315.679.076.992l-.005.006a.91.91 0 0 1-.895.558c-.302-.007-.614-.083-.822-.271a.73.73 0 0 1-.33-.625.13.13 0 0 1 .092-.127 1.04 1.04 0 0 1 .34-.6.7.7 0 0 1 .61-.393zm-8.282.496.034.043.011.002a.13.13 0 0 1 .088.076.6.6 0 0 1 .225.125.7.7 0 0 0-.078-.133 1.2 1.2 0 0 0-.28-.113m8.68 0 .033.043.012.002c.039.007.07.038.088.076a.6.6 0 0 1 .225.125.7.7 0 0 0-.079-.133 1.2 1.2 0 0 0-.279-.113M5.55 9.6l-.086.027.01.041c.057-.032.133-.029.175.027l-.003-.054a.3.3 0 0 1-.075-.026Q5.56 9.608 5.55 9.6m8.68 0-.086.027.011.041c.057-.032.134-.029.176.027l-.004-.054a.3.3 0 0 1-.074-.026zm-9.032.09a.6.6 0 0 0 .032.123.16.16 0 0 1-.032-.124zm8.68 0a.6.6 0 0 0 .031.123.17.17 0 0 1-.031-.124zm-7.951.206a.4.4 0 0 1-.028.063l.036.07a.24.24 0 0 0-.008-.133m8.681 0a.4.4 0 0 1-.029.063l.035.07a.24.24 0 0 0-.006-.133m-9.09.409a.6.6 0 0 1-.18.037v.002l-.013.015a.55.55 0 0 0 .229-.015zm8.68 0a.6.6 0 0 1-.18.037v.002l-.013.015a.55.55 0 0 0 .228-.015zm-8.525 2.64c.582 0 1.053.48 1.053 1.073v4.289c0 .592-.47 1.072-1.053 1.072-.582 0-1.055-.48-1.055-1.072v-4.29c0-.592.473-1.072 1.055-1.072m8.432 0c.581 0 1.054.48 1.054 1.073v4.289c0 .592-.473 1.072-1.054 1.072-.583 0-1.053-.48-1.053-1.072v-4.29c0-.592.47-1.072 1.053-1.072"/></svg>