<svg xmlns="http://www.w3.org/2000/svg" viewBox="0 0 24 24"><path d="M1.713.002A1.713 1.713 0 0 0 0 1.715a1.713 1.713 0 0 0 1.713 1.713 1.713 1.713 0 0 0 1.714-1.713A1.713 1.713 0 0 0 1.713.002m6.861 0a1.713 1.713 0 0 0-1.713 1.713 1.713 1.713 0 0 0 1.713 1.713 1.713 1.713 0 0 0 1.713-1.713A1.713 1.713 0 0 0 8.574.002m6.857 0a1.713 1.713 0 0 0-1.714 1.713 1.713 1.713 0 0 0 1.714 1.713 1.713 1.713 0 0 0 1.713-1.713A1.713 1.713 0 0 0 15.431.002m6.856 0a1.713 1.713 0 0 0-1.713 1.713 1.713 1.713 0 0 0 1.713 1.713A1.713 1.713 0 0 0 24 1.715 1.713 1.713 0 0 0 22.287.002M1.713 6.859A1.713 1.713 0 0 0 0 8.572a1.713 1.713 0 0 0 1.713 1.713 1.713 1.713 0 0 0 1.714-1.713A1.713 1.713 0 0 0 1.713 6.86Zm6.861 0a1.71 1.71 0 0 0-1.713 1.713v13.713c0 .947.765 1.713 1.713 1.713s1.713-.766 1.713-1.713V8.572a1.71 1.71 0 0 0-1.713-1.713m6.857 0a1.713 1.713 0 0 0-1.714 1.713 1.713 1.713 0 0 0 1.714 1.713 1.713 1.713 0 0 0 1.713-1.713 1.713 1.713 0 0 0-1.713-1.713m6.856 0c-.947 0-1.713.765-1.713 1.713v13.713c0 .947.766 1.713 1.713 1.713S24 23.232 24 22.285V8.572a1.71 1.71 0 0 0-1.713-1.713M1.713 13.715C.766 13.715 0 14.48 0 15.428v6.857c0 .947.766 1.713 1.713 1.713s1.714-.766 1.714-1.713v-6.857c0-.948-.766-1.713-1.714-1.713m13.718 0c-.948 0-1.714.765-1.714 1.713v6.857c0 .947.766 1.713 1.714 1.713.947 0 1.713-.766 1.713-1.713v-6.857c0-.948-.766-1.713-1.713-1.713"/></svg>