<svg xmlns="http://www.w3.org/2000/svg" viewBox="0 0 24 24"><path d="M12.902 1.906a10.07 10.07 0 0 0-7.88 3.707 10 10 0 0 0-.284.357l.004-.003q.35-.295.717-.445l.058-.023c.3-.112.602-.147.9-.088 1.44.289 2.19 2.609 1.676 5.183-.515 2.574-2.1 4.427-3.54 4.139-1.01-.202-1.679-1.405-1.813-2.992v-.005.052a9 9 0 0 0 0 .4v.073l.002.059a11 11 0 0 0 .043.643 10 10 0 0 0 .961 3.443c.06.126.03.276-.078.363l-.277.226a.91.91 0 0 0-.29.97q0 .008.006.017a1 1 0 0 0 .06.142l.05-.04.23-.173a.261.261 0 1 1 .315.416l-.245.186-.037.028 1.177 1.448a.91.91 0 0 0 1.275.131l.258-.21a.3.3 0 0 1 .374 0 10.05 10.05 0 0 0 6.528 2.181 10.04 10.04 0 0 0 5.572-1.855.3.3 0 0 1 .38.025l.163.156a.91.91 0 0 0 1.179.059l-.004-.004-.21-.197a.262.262 0 0 1 .358-.382l.225.21 1.26-1.326a.91.91 0 0 0-.033-1.282l-.263-.25a.3.3 0 0 1-.054-.36 10.06 10.06 0 0 0 1.103-6.671c.3-.278.853-.824 1.069-1.292.231-.502.29-1.02-.323-.792-.476.177-.842.29-1.286.19-1.417-3.593-4.847-6.193-8.851-6.4a10 10 0 0 0-.473-.014zM2.265 6.246a1.228 1.228 0 0 0-1.083 1.765 1.23 1.23 0 1 0 .755 2.236c.176-.124.305-.29.394-.47.187.342.46.627.779.823a6 6 0 0 0 .017.6c.102 1.228.62 2.16 1.4 2.316 1.114.223 2.34-1.21 2.738-3.2.4-1.99-.18-3.784-1.295-4.007-.434-.087-.885.08-1.298.432-.45.383-.854.988-1.14 1.73q-.015-.002-.03-.007c-.14-.04-.214-.131-.311-.152a1.23 1.23 0 0 0-.926-2.065zm2.862 1.245q.08 0 .16.015c.726.143 1.104 1.312.844 2.608-.26 1.298-1.058 2.23-1.783 2.085-.493-.098-.824-.67-.905-1.433.18.07.37.113.56.122.526.024.87-.154 1.14-.513.345-.465.083-1.753-.375-1.92-.356-.13-.567.027-.884.05a2.5 2.5 0 0 1 .557-.72c.22-.185.453-.292.686-.295z"/></svg>