<svg xmlns="http://www.w3.org/2000/svg" viewBox="0 0 24 24"><path d="M5.684 12a.63.63 0 0 1-.631-.632V4.421c0-.349.282-.632.631-.632h2.37q.69 0 1.287.139.61.125 1.053.44.454.303.715.82.26.502.26 1.246 0 .718-.273 1.247a2.4 2.4 0 0 1-.715.869 3.1 3.1 0 0 1-1.053.503q-.598.165-1.273.164h-.46a.63.63 0 0 0-.632.632v1.52a.63.63 0 0 1-.632.631Zm1.279-4.888c0 .349.283.632.632.632h.343q1.56 0 1.56-1.31 0-.642-.404-.907-.39-.264-1.156-.264h-.343a.63.63 0 0 0-.632.631Zm6.3 13.098a.63.63 0 0 1-.631-.631v-6.947a.63.63 0 0 1 .631-.632h2.203q.66 0 1.216.1.57.09.984.328.414.24.647.63.246.39.246.982 0 .278-.09.554a1.5 1.5 0 0 1-.26.516 1.86 1.86 0 0 1-1.076.7.03.03 0 0 0-.023.03c0 .015.01.028.025.03q.887.167 1.346.626.466.465.466 1.297 0 .63-.246 1.083a2.15 2.15 0 0 1-.685.755 3.4 3.4 0 0 1-1.036.441 5.5 5.5 0 0 1-1.268.139zm1.271-5.542c0 .349.283.631.632.631h.21q.698 0 1.009-.264t.31-.743q0-.453-.323-.642-.31-.202-.984-.202h-.222a.63.63 0 0 0-.632.632Zm0 3.463c0 .349.283.631.632.631h.39q1.528 0 1.528-1.108 0-.54-.376-.78-.361-.24-1.152-.24h-.39a.63.63 0 0 0-.632.632zM1.389 0C.629 0 0 .629 0 1.389V15.03a1.4 1.4 0 0 0 1.389 1.39H8.21a.63.63 0 0 0 .63-.632.63.63 0 0 0-.63-.63H1.389c-.078 0-.125-.05-.125-.128V1.39c0-.078.047-.125.125-.125H15.03c.078 0 .127.047.127.125v6.82a.63.63 0 0 0 .631.63.63.63 0 0 0 .633-.63V1.389A1.4 1.4 0 0 0 15.032 0ZM15.79 7.578a.63.63 0 0 0-.632.633.63.63 0 0 0 .631.63h6.822c.078 0 .125.05.125.128V22.61c0 .078-.047.125-.125.125H8.97c-.077 0-.127-.047-.127-.125v-6.82a.63.63 0 0 0-.631-.63.63.63 0 0 0-.633.63v6.822A1.4 1.4 0 0 0 8.968 24h13.643c.76 0 1.389-.629 1.389-1.389V8.97a1.4 1.4 0 0 0-1.389-1.39Z"/></svg>