<svg xmlns="http://www.w3.org/2000/svg" viewBox="0 0 24 24"><path d="M9.854 14.5 5 9.647.854 5.5A.5.5 0 0 0 0 5.854V8.44a.5.5 0 0 0 .146.353L5 13.647l.147.146L9.854 18.5l.146.147v-.049q.098.047.207.049h2.586a.5.5 0 0 0 .353-.854zm0-5-4-4a.49.49 0 0 0-.409-.144.52.52 0 0 0-.356.21.5.5 0 0 0-.089.288V8.44a.5.5 0 0 0 .147.353l9 9a.5.5 0 0 0 .853-.354v-2.585a.5.5 0 0 0-.146-.354zm1-4a.5.5 0 0 0-.854.354V8.44a.5.5 0 0 0 .147.353l4 4a.5.5 0 0 0 .853-.354V9.854a.5.5 0 0 0-.146-.354zm12.647 11.515a3.86 3.86 0 0 1-2.232-1.1l-4.708-4.707a.5.5 0 0 0-.854.354v6.585a.5.5 0 0 0 .5.5H23.5a.5.5 0 0 0 .5-.5v-.6c0-.276-.225-.497-.499-.532m-5.394.032a.8.8 0 1 1 0-1.6.8.8 0 0 1 0 1.6M.854 15.5a.5.5 0 0 0-.854.354v2.293a.5.5 0 0 0 .5.5h2.293c.222 0 .39-.135.462-.309a.49.49 0 0 0-.109-.545zM5 14.647.854 10.5a.5.5 0 0 0-.854.353v2.586a.5.5 0 0 0 .146.353L4.854 18.5l.146.147h2.793a.5.5 0 0 0 .353-.854z"/></svg>