<svg xmlns="http://www.w3.org/2000/svg" viewBox="0 0 24 24"><path d="M12 0c-.563 0-1.127.215-1.557.645L.645 10.443c-.86.86-.86 2.254 0 3.114l9.798 9.798c.86.86 2.254.86 3.114 0l9.798-9.798c.86-.86.86-2.254 0-3.114L13.557.645A2.2 2.2 0 0 0 12 0m0 1.74c.493 0 .987.186 1.361.56l8.339 8.34c.75.75.75 1.973 0 2.722L13.361 21.7c-.374.375-.868.56-1.361.56s-.987-.185-1.361-.56L2.3 13.361a1.93 1.93 0 0 1 0-2.722L10.639 2.3c.374-.375.868-.56 1.361-.56m0 .62c-.333 0-.664.127-.92.382L2.742 11.08a1.295 1.295 0 0 0 0 1.84l8.338 8.338a1.296 1.296 0 0 0 1.84 0l8.338-8.338a1.295 1.295 0 0 0 0-1.84L12.92 2.742A1.3 1.3 0 0 0 12 2.36M9.207 7.624h3.959q.824 0 1.4.238.578.24.942.633.362.393.527.897a3.34 3.34 0 0 1 0 2.084q-.165.51-.527.902a2.6 2.6 0 0 1-.942.633q-.576.239-1.4.238h-2.043v3.156H9.207zm1.916 1.484v2.657h1.514q.332 0 .64-.05a1.5 1.5 0 0 0 .547-.193 1.05 1.05 0 0 0 .38-.404q.141-.26.142-.682 0-.42-.143-.681a1.05 1.05 0 0 0-.379-.404 1.5 1.5 0 0 0-.547-.194 4 4 0 0 0-.64-.049z"/></svg>