<svg xmlns="http://www.w3.org/2000/svg" viewBox="0 0 24 24"><path d="M12 0C5.427 0 .1 5.372.102 12c0 6.628 5.327 12 11.898 12s11.898-5.374 11.898-12c0-6.628-5.327-12-11.898-12m1.408 7.16h1.127v3.914l.268-.185a3.57 3.57 0 0 1 2.252-.7q.015.001.029.003a3.493 3.493 0 0 1 3.297 3.673c-.216 3.54-5.07 4.585-6.625 1.395-.376-.776-.348-.484-.375-4.506zm-4.732.133a3.43 3.43 0 0 1 2.13.754 3.5 3.5 0 0 1-4.263 5.55c-.08-.053-.19-.106-.27-.16-.026 0-.027.857-.027 1.93v1.93H5.12v-3.19c0-3.861.001-4.076.377-4.828A3.6 3.6 0 0 1 7.91 7.375q.381-.085.766-.082m-.069 1.103a2.319 2.319 0 1 0 .59.08 2.2 2.2 0 0 0-.59-.08m8.42 2.897a2.379 2.379 0 0 0-.775 4.666 2.378 2.378 0 0 0 1.258-4.586 1.5 1.5 0 0 0-.483-.08"/></svg>