<svg xmlns="http://www.w3.org/2000/svg" viewBox="0 0 24 24"><path d="M1.372 0C.618 0 0 .618 0 1.372v21.256C0 23.383.618 24 1.37 24h21.257c.754 0 1.371-.617 1.371-1.372V1.372C24 .618 23.382 0 22.628 0zm11.96 4.485h.031a.854.854 0 0 1 .854.854.854.854 0 0 1-.854.854.854.854 0 0 1-.854-.854.854.854 0 0 1 .822-.854m-4.447.094h.007a.76.76 0 0 1 .76.76.76.76 0 0 1-.76.759.76.76 0 0 1-.759-.76.76.76 0 0 1 .752-.76m-4.463.095a.665.665 0 0 1 .664.665.665.665 0 0 1-.664.664.665.665 0 0 1-.665-.664.665.665 0 0 1 .665-.665m11.176 1.951a.95.95 0 0 1 .95.95.95.95 0 0 1-.95.947.95.95 0 0 1-.949-.948.95.95 0 0 1 .95-.949m-4.502.094h.032a.855.855 0 0 1 .855.854.855.855 0 0 1-.855.855.855.855 0 0 1-.855-.855.855.855 0 0 1 .823-.854m-4.446.095h.007a.76.76 0 0 1 .76.76.76.76 0 0 1-.76.76.76.76 0 0 1-.759-.76.76.76 0 0 1 .752-.76m11.167 1.951h.018a1.044 1.044 0 0 1 1.043 1.044 1.044 1.044 0 0 1-1.043 1.044 1.044 1.044 0 0 1-1.044-1.044 1.044 1.044 0 0 1 1.026-1.043m-4.454.095a.95.95 0 0 1 .95.95.95.95 0 0 1-.95.948.95.95 0 0 1-.949-.948.95.95 0 0 1 .95-.95m-4.47.095a.854.854 0 0 1 .854.854.854.854 0 0 1-.855.854.854.854 0 0 1-.854-.854.854.854 0 0 1 .854-.854m11.176 1.951a1.14 1.14 0 0 1 1.139 1.139 1.14 1.14 0 0 1-1.139 1.138 1.14 1.14 0 0 1-1.139-1.138 1.14 1.14 0 0 1 1.139-1.139m-4.47.095a1.044 1.044 0 0 1 1.043 1.044 1.044 1.044 0 0 1-1.043 1.043 1.044 1.044 0 0 1-1.044-1.043 1.044 1.044 0 0 1 1.044-1.044m-4.471.094a.95.95 0 0 1 .95.949.95.95 0 0 1-.95.949.95.95 0 0 1-.95-.949.95.95 0 0 1 .95-.949m6.706 2.046a1.14 1.14 0 0 1 1.139 1.14 1.14 1.14 0 0 1-1.14 1.137 1.14 1.14 0 0 1-1.138-1.138 1.14 1.14 0 0 1 1.139-1.139m-4.489.095h.018a1.044 1.044 0 0 1 1.044 1.043 1.044 1.044 0 0 1-1.044 1.044 1.044 1.044 0 0 1-1.044-1.044 1.044 1.044 0 0 1 1.026-1.043m-4.46.284h.007a.76.76 0 0 1 .76.76.76.76 0 0 1-.76.76.76.76 0 0 1-.759-.76.76.76 0 0 1 .752-.76m6.68 1.857h.033a1.14 1.14 0 0 1 1.14 1.138 1.14 1.14 0 0 1-1.14 1.139 1.14 1.14 0 0 1-1.139-1.14 1.14 1.14 0 0 1 1.106-1.137m-8.915.379h.007a.76.76 0 0 1 .76.759.76.76 0 0 1-.76.76.76.76 0 0 1-.759-.76.76.76 0 0 1 .752-.76m4.47 0h.008a.76.76 0 0 1 .76.759.76.76 0 0 1-.76.76.76.76 0 0 1-.76-.76.76.76 0 0 1 .753-.76M4.417 17.99h.007a.76.76 0 0 1 .76.76.76.76 0 0 1-.76.759.76.76 0 0 1-.76-.759.76.76 0 0 1 .753-.76zm4.47 0h.006a.76.76 0 0 1 .76.76.76.76 0 0 1-.76.76.76.76 0 0 1-.759-.76.76.76 0 0 1 .752-.76m4.477.002a.76.76 0 0 1 .538.222.76.76 0 0 1 0 1.073.76.76 0 0 1-1.075 0 .76.76 0 0 1 0-1.073.76.76 0 0 1 .537-.222"/></svg>