<svg xmlns="http://www.w3.org/2000/svg" viewBox="0 0 24 24"><path d="M11.558 1.034C5.174 1.034 0 6.21 0 12.592c0 1.258.201 2.47.574 3.597l.002-.007a12.4 12.4 0 0 1 .53-1.787l.011-.03q.129-.333.277-.66l.084-.181q.12-.256.253-.507.053-.102.108-.203c.02-.038.044-.073.064-.11q.14-.25.29-.493l.075-.114q.187-.292.393-.573l.035-.05q.217-.289.451-.563l.1-.118q.232-.266.481-.517l.099-.097a10 10 0 0 1 .546-.503c.74-2.48 3.005-4.285 5.686-4.285 1.079 0 2.152.31 3.071.873a6 6 0 0 1 2.211 2.407l.007.015.04.074v.003l.004.002a10 10 0 0 1 1.567 1.198q.06.054.12.109c.002 0 .006.005.007.006l-.002-.006-.001-.004v-.003l.042-.084c.377-2.384 1.43-4.102 2.67-4.102.934 0 1.762.975 2.276 2.476l.005.016.001.002q.218.236.424.521l.007.01.021.067-.02-.078c-1.542-4.569-5.863-7.857-10.952-7.857zM9.927 5.477C7.586 5.52 5.34 7.132 4.574 9.365l-.012.034a10 10 0 0 1 1.315-.895c2.806-1.656 6.479-1.646 9.278.016-.895-1.653-2.631-2.819-4.5-3.004a5 5 0 0 0-.728-.039m9.834.5a1.4 1.4 0 0 0-.39.067c-1.265.562-1.719 2.073-2.031 3.303l-.016.072c.365-.62.808-1.215 1.396-1.642.835-.687 2.105-.655 2.916.053.308.326.141.008.031-.22-.342-.75-1.025-1.653-1.906-1.634zM12.35 8.315l-1.07 3.27-.002.005-.006.002-4.498 1.112h-.009l4.456 1.087q.159.166.36.28h.002q.063.035.129.065l.01.005q.062.026.126.047l.021.008q.06.019.12.032l.033.008a1.7 1.7 0 0 0 .318.033 1.55 1.55 0 0 0 1.43-.948c.08-.186.123-.39.123-.604v-.011l-.001-.012a2 2 0 0 0-.01-.16l-.001-.002a2 2 0 0 0-.026-.153l-.001-.004a1.5 1.5 0 0 0-.096-.288v-.003a1.5 1.5 0 0 0-.348-.49v-.003zm3.148.626c.048 1.008.036 2.046-.1 3.057-.17 2.018-1.19 3.798-1.972 5.616l-.03.08-.035.086c1.51-1.522 3.17-3.04 3.969-5.082.383-.636.118-1.342-.115-1.976-.17-.877-1.069-1.278-1.717-1.781m6.172.572-.588 2.688a2 2 0 0 0-.047.2q-.004.03-.01.06a2 2 0 0 0-.016.222l-.002.031h.003c0 .628.297 1.136.663 1.137a.4.4 0 0 0 .182-.045l.027-.015a1 1 0 0 0 .07-.047q.019-.016.036-.033a.8.8 0 0 0 .137-.168l.03-.054a1 1 0 0 0 .052-.108l.017-.04q.03-.08.053-.166l.002-.002.001-.003.404-.451-.407-.456v.001l-.02-.063zm-4.381.856c.69 1.716.85 3.707.091 5.43-.49 1.368-1.587 2.463-1.874 3.905q1.096.172 2.21.186c2.166.029 4.332-.42 6.284-1.365-2.04-2.869-4.121-5.755-6.711-8.156m-4.948.977a.583.583 0 1 1 0 1.166.583.583 0 0 1 0-1.166m9.352.37c.138 0 .249.19.249.426s-.111.426-.249.426c-.137 0-.248-.19-.248-.426 0-.235.11-.426.248-.426m-4.044.184a5 5 0 0 1-.05.29l-.006.023q-.016.076-.033.128c-.48 1.417-1.275 2.52-2.36 3.697q-.221.239-.459.484a59 59 0 0 1-1.196 1.205c-.112.11-.259.261-.425.436-.103.287-.22.61-.318.95q-.065-.023-.131-.049c-2.108-.815-3.519-1.904-3.519-1.904s1.086 1.414 2.915 2.74q.265.192.522.339c-.075 1.194.452 2.34 2.83 2.682a4.8 4.8 0 0 0 1.228.008l-.01-.029-.004-.01s-.167-.133-.379-.377a3.8 3.8 0 0 1-.584-.897 3.4 3.4 0 0 1-.266-.862 3.2 3.2 0 0 1-.006-.972q.025-.18.072-.366c.093-.374.255-.772.507-1.192l.002-.003.241-.404c1.103-1.86 1.797-3.275 1.506-5.441a9 9 0 0 0-.078-.476zm4.681.779.003.036v.01q-.001.019-.003.038.002-.02.003-.043 0-.02-.003-.04zm-.012.275zl-.002.01-.002.014zm1.353 5.928c-2.553 1.138-5.44 1.44-8.192 1.007-.14 1.108.384 2.218 1.214 2.93l.012.01c2.703-.433 4.975-2.168 6.966-3.946z"/></svg>