<svg xmlns="http://www.w3.org/2000/svg" viewBox="0 0 24 24"><path d="M0 9.508q0-.064.028-.09.027-.025.086-.025h.329q.105 0 .127.101l.032.119q.137-.133.33-.21a1 1 0 0 1 .396-.079q.442 0 .7.326.257.325.257.88 0 .38-.127.665-.128.285-.347.437a.85.85 0 0 1-.502.154q-.187 0-.355-.06a.9.9 0 0 1-.288-.164v1.003q0 .065-.025.09t-.09.025H.115q-.06 0-.086-.025-.028-.025-.028-.09zm1.113.32a.87.87 0 0 0-.447.124v1.206a.83.83 0 0 0 .447.124q.256 0 .376-.174.121-.175.121-.55 0-.381-.118-.555-.12-.174-.379-.174zm2.248-.087q.182-.202.344-.286a.73.73 0 0 1 .345-.085h.063q.064 0 .092.025t.027.09v.385q0 .06-.025.087t-.089.027l-.082-.004a1.4 1.4 0 0 0-.383.025q-.15.03-.256.076v1.54q0 .06-.025.087-.024.028-.089.028h-.437q-.06 0-.087-.028-.027-.027-.028-.087V9.508q0-.064.028-.09.027-.025.087-.025h.328q.105 0 .128.1zm1.526-.71a.4.4 0 0 1-.278-.096.34.34 0 0 1-.105-.262q0-.165.105-.26a.4.4 0 0 1 .278-.097q.173 0 .278.096t.105.261a.34.34 0 0 1-.105.262.4.4 0 0 1-.278.096m-.333.477q0-.064.027-.09.029-.025.087-.025h.438q.064 0 .089.025c.025.025.025.047.025.09v2.113q0 .06-.025.087-.025.028-.09.028h-.437q-.06 0-.087-.028-.027-.027-.027-.087zm1.837.11q.242-.16.435-.227.195-.067.4-.067.41 0 .579.294.232-.157.438-.225.205-.069.424-.069.319 0 .495.179.175.18.175.5v1.618q0 .06-.025.087-.025.028-.089.027h-.438q-.06 0-.086-.027-.028-.027-.028-.087V10.15q0-.312-.278-.312-.246 0-.497.119v1.664q0 .06-.025.087-.025.028-.09.027h-.437q-.06 0-.086-.027-.028-.027-.028-.087V10.15q0-.312-.278-.312-.255 0-.502.123v1.66q0 .06-.025.087-.025.028-.089.027h-.438q-.059 0-.086-.027t-.027-.087V9.508q0-.064.027-.09t.086-.025h.329q.104 0 .128.101zm4.387 1.16a1.8 1.8 0 0 1-.451-.05q.027.305.185.44.157.132.476.132.127 0 .249-.016a3 3 0 0 0 .362-.078l.023-.002q.078 0 .078.105v.211q0 .073-.02.103a.17.17 0 0 1-.08.053 2 2 0 0 1-.708.128q-.565 0-.868-.312-.304-.31-.304-.893 0-.597.31-.935.31-.34.862-.34.424 0 .664.206a.69.69 0 0 1 .24.55q0 .345-.258.52-.258.178-.76.177zm.064-.99q-.437 0-.506.54.183.037.406.037.232 0 .337-.071t.105-.218q0-.29-.342-.289zm2.948 1.946a.2.2 0 0 1-.075-.011.1.1 0 0 1-.05-.037.3.3 0 0 1-.038-.071l-.777-2.04-.023-.063a.2.2 0 0 1-.009-.05q0-.07.091-.07h.454q.073 0 .107.028.034.027.052.092l.468 1.622.477-1.622a.18.18 0 0 1 .052-.092q.034-.027.107-.027h.44q.091 0 .091.068a.2.2 0 0 1-.009.05l-.022.065-.777 2.039a.3.3 0 0 1-.039.07.1.1 0 0 1-.047.038.2.2 0 0 1-.078.01zm2.02-2.703a.4.4 0 0 1-.277-.097.34.34 0 0 1-.105-.26q0-.165.105-.262a.4.4 0 0 1 .277-.096q.172 0 .277.096.104.096.104.261t-.104.261a.4.4 0 0 1-.277.097m-.218 2.703q-.06 0-.086-.028-.028-.027-.028-.087V9.507q0-.064.028-.09.027-.024.086-.024h.436q.063 0 .089.025.024.025.024.09v2.111q0 .06-.024.087-.026.028-.09.028zm1.948.05a.87.87 0 0 1-.513-.153.97.97 0 0 1-.334-.426 1.6 1.6 0 0 1-.116-.63q0-.569.268-.91a.86.86 0 0 1 .709-.341.98.98 0 0 1 .622.206V8.458q0-.064.027-.09.027-.024.087-.025h.436q.063 0 .088.025t.025.09v3.161q0 .06-.025.087-.025.028-.088.028h-.364a.14.14 0 0 1-.084-.023.14.14 0 0 1-.043-.078l-.027-.105a.96.96 0 0 1-.668.256m.218-.504a.76.76 0 0 0 .418-.128v-1.21a.87.87 0 0 0-.45-.114q-.24 0-.358.18-.119.182-.118.548 0 .367.124.546.126.178.384.178m2.588-.51q-.253 0-.44-.05.027.302.18.432.154.13.465.13.125 0 .242-.016a3 3 0 0 0 .354-.076l.022-.002q.075 0 .075.103v.207q0 .072-.02.101a.17.17 0 0 1-.077.052 1.9 1.9 0 0 1-.69.126q-.551 0-.846-.306-.296-.306-.296-.876 0-.585.302-.917.303-.333.84-.333.414 0 .647.203a.68.68 0 0 1 .234.539q0 .337-.251.51-.252.173-.74.173zm.063-.97q-.428 0-.494.53.178.036.396.036.225 0 .329-.07.102-.069.102-.213 0-.285-.333-.284zm2.442 2.003q-.54 0-.845-.328-.304-.327-.304-.914 0-.582.304-.91.305-.327.845-.327c.54 0 .642.109.845.327q.304.328.304.91 0 .586-.304.914-.305.328-.845.328m0-.514q.477 0 .477-.728 0-.724-.477-.724t-.477.724q0 .729.477.728m-6.844 1.886c.405-.306.944-.408 1.39-.408.418 0 .756.09.828.185.15.2-.039 1.584-.775 2.244-.112.102-.22.047-.17-.087.166-.442.536-1.436.36-1.677-.175-.242-1.158-.115-1.6-.058-.068.008-.107-.02-.112-.061v-.023c.004-.036.03-.078.079-.115m-10.184-.172a.105.105 0 0 1 .106-.091q.04 0 .089.028a11.8 11.8 0 0 0 6.194 1.772c1.52 0 3.19-.34 4.726-1.043.232-.105.426.164.2.346-1.371 1.09-3.359 1.67-5.07 1.67-2.397 0-4.557-.956-6.191-2.547a.17.17 0 0 1-.054-.097Z"/></svg>