<svg xmlns="http://www.w3.org/2000/svg" viewBox="0 0 24 24"><path d="M22.787 15.292c-.336-.43-2.222-.204-3.069-.103-.257.031-.296-.193-.065-.356 1.504-1.056 3.968-.75 4.255-.397.288.357-.076 2.827-1.485 4.007-.217.18-.423.084-.327-.155.317-.792 1.027-2.566.69-2.996m-1.093 1.248c-2.627 1.94-6.437 2.97-9.717 2.97-4.597 0-8.737-1.7-11.87-4.528-.246-.222-.026-.525.27-.353 3.38 1.967 7.559 3.151 11.876 3.151a23.6 23.6 0 0 0 9.06-1.854c.444-.188.816.293.381.614m.482-5.038q-1.142 0-1.755-.626-.613-.627-.613-1.797 0-1.198.627-1.88t1.741-.682q.858 0 1.341.415.484.414.484 1.105t-.52 1.046q-.522.355-1.535.355-.525 0-.912-.101.055.617.373.884.318.268.963.268.259 0 .502-.033a6 6 0 0 0 .733-.157l.046-.004q.156 0 .156.212v.424q0 .147-.04.207a.34.34 0 0 1-.162.106 4 4 0 0 1-1.429.258m-.304-2.893q.47 0 .682-.143t.212-.438q0-.58-.69-.58-.885 0-1.024 1.087.37.075.82.074m-9.84 2.755q-.12 0-.176-.055-.055-.056-.055-.175V6.886q0-.129.055-.18.056-.05.176-.05h.663q.212 0 .258.202l.074.249q.488-.322.88-.456.391-.135.806-.134.83 0 1.17.59a3.8 3.8 0 0 1 .885-.452q.414-.138.857-.138.645 0 1 .36.354.359.354 1.004v3.253q0 .12-.05.175t-.18.055h-.885q-.12 0-.175-.055-.055-.056-.055-.175V8.176q0-.627-.562-.627-.498 0-1.005.24v3.345q0 .12-.05.175t-.18.055h-.884q-.12 0-.176-.055-.054-.056-.055-.175V8.176q0-.627-.562-.627-.516 0-1.013.249v3.336q0 .12-.051.175t-.18.055zM9.987 5.927q-.35 0-.562-.193-.212-.194-.212-.525 0-.332.212-.526.211-.193.562-.193.35 0 .562.193a.68.68 0 0 1 .212.526q0 .33-.212.525-.212.193-.562.193m-.443 5.437q-.12 0-.175-.055-.055-.056-.055-.176V6.886q0-.129.055-.18.056-.05.175-.05h.885q.129 0 .18.05c.051.05.05.094.05.18v4.247q0 .12-.05.176t-.18.055zm-3.681 0q-.12 0-.176-.055-.054-.056-.055-.175V6.886q0-.129.055-.18.056-.05.176-.05h.663q.212 0 .258.202l.12.497q.368-.405.695-.575.328-.17.696-.17h.13q.128 0 .183.05.056.051.056.18v.773q0 .12-.051.176-.051.054-.18.055a2 2 0 0 1-.166-.01 3 3 0 0 0-.258-.009q-.21 0-.516.06-.303.06-.515.152v3.097q0 .12-.051.175t-.18.055zM.344 13.262q-.12 0-.175-.05-.055-.052-.055-.18V6.886q0-.129.055-.18t.175-.05h.664q.21 0 .258.202l.064.24a2 2 0 0 1 .668-.424 2.1 2.1 0 0 1 .797-.157q.894 0 1.414.654.521.655.521 1.77 0 .765-.258 1.336-.258.57-.7.88a1.73 1.73 0 0 1-1.014.308q-.377 0-.719-.12a1.7 1.7 0 0 1-.58-.331v2.018q0 .128-.05.18-.052.05-.18.05zm2.018-2.81q.516 0 .76-.35.245-.351.245-1.106 0-.765-.24-1.115t-.765-.35q-.48 0-.903.248v2.424q.405.249.903.249"/></svg>