<svg xmlns="http://www.w3.org/2000/svg" viewBox="0 0 24 24"><path d="M10.808 5.764a.812.812 0 1 0-.812.812.81.81 0 0 0 .812-.812m3.196-.812a.812.812 0 1 0 .811.812.81.81 0 0 0-.811-.812m-.876 2.154a1.686 1.686 0 0 1-2.257 0 .21.21 0 0 0-.286.31 2.065 2.065 0 0 0 2.83 0 .21.21 0 1 0-.286-.31M11.947 0A7.16 7.16 0 0 0 4.79 7.158v1.385l.002.03a1.7 1.7 0 0 0-1.389 1.646 2.4 2.4 0 0 0-.33 1.22v9.178a2.415 2.415 0 0 0 1.785 2.328A1.77 1.77 0 0 0 6.473 24h2.005a1.76 1.76 0 0 0 1.577-.967h3.681c.301.594.91.968 1.576.967h2.008a1.77 1.77 0 0 0 1.59-1 2.41 2.41 0 0 0 2.018-2.38V11.44a2.4 2.4 0 0 0-.315-1.197v-.01a1.69 1.69 0 0 0-1.23-1.625V7.16A7.16 7.16 0 0 0 12.223 0Zm.032 2.559h.214a4.48 4.48 0 0 1 4.483 4.48v1.504h-1.008a1.67 1.67 0 0 0-1.174.48H9.527a1.68 1.68 0 0 0-1.183-.48h-.848V7.039a4.48 4.48 0 0 1 4.483-4.48m.025 9.492v.004a1.974 1.974 0 0 1 1.105 3.603.31.31 0 0 0-.132.299l.486 3.297a.3.3 0 0 1-.07.246.31.31 0 0 1-.235.107h-2.316a.31.31 0 0 1-.305-.353l.484-3.297a.29.29 0 0 0-.129-.295 1.975 1.975 0 0 1 .885-3.598 2 2 0 0 1 .227-.013"/></svg>