<svg xmlns="http://www.w3.org/2000/svg" viewBox="0 0 24 24"><path d="M10.056 24a17 17 0 0 1-3.457-.698c-1.244-.364-2.899-1-2.913-2.319 0-.946.54-1.755 1.675-2.477a16 16 0 0 1 1.6-.844 40 40 0 0 1 2.2-.928V4.98l-4.41-.476v12.652a.85.85 0 0 1-.895.846.85.85 0 0 1-.904-.846V3.496a.906.906 0 0 1 .904-.903 1 1 0 0 1 .096.014l6.198.67a.9.9 0 0 1 .8.9v11.826a61 61 0 0 0 2.399-1.03c2.27-1.036 3.799-2.091 4.668-3.237 1.056-1.374 1.218-3.075 1.168-4.259a6.26 6.26 0 0 0-1.254-3.515 5.5 5.5 0 0 0-2.095-1.725 6.2 6.2 0 0 0-1.663-.486c-.6-.082-.896-.51-.864-.938s.384-.75.888-.8c.863-.071 1.503.147 2.375.536a7.76 7.76 0 0 1 2.86 2.32 8.17 8.17 0 0 1 1.6 4.522 9 9 0 0 1-.485 3.481 7.4 7.4 0 0 1-1.088 1.966c-1.584 2.065-4.39 3.34-5.31 3.764-.868.4-2.8 1.2-3.18 1.352V23.1a.9.9 0 0 1-.31.682.92.92 0 0 1-.567.218zm-.896-5.318c-.552.2-1.4.512-1.72.66-.32.147-1.215.565-1.61.91-.1.085-.417.385-.339.629s.446.374 1.904.766c.518.14 1.125.274 1.765.4z"/></svg>