<svg xmlns="http://www.w3.org/2000/svg" viewBox="0 0 24 24"><path d="M12.094 4.636c-2.066 0-3.682.204-4.922.57l.091-.084c.038-.037-.05-.062-.228-.068-.534-.018-1.867.143-2.99.705C2.772 6.358-.073 9.504 0 9.69s1.46 1.345 1.872 1.795c.262.3 1.048 2.959 1.76 2.51.188-.131.265-.651.33-1.293.058.497.115 1.013.193 1.48.112.749 1.087 1.347 1.2 2.059.138 1.014.76 1.723 1.98 2.174.484.668 1.238.33 1.8.634.9.487 1.91.262 2.92.262 1.012 0 1.985.186 2.92-.3.577-.3 1.32.03 1.81-.58 1.225-.45 1.831-1.164 1.972-2.19.112-.712 1.048-1.31 1.16-2.059.064-.38.11-.802.158-1.203.057.5.13.904.291 1.016.674.449 1.498-2.21 1.76-2.51.412-.45 1.797-1.608 1.872-1.795.074-.188-2.808-3.333-4.08-3.932-1.124-.562-2.457-.723-2.991-.705-.167.005-.245.029-.225.062-1.174-.308-2.672-.48-4.61-.48m.03.5c2.203 0 3.848.225 5.01.615.133.045.238.098.358.147.69.715 1.624 1.83 2.014 3.117.025.08.04.166.063.248v.008c.045.77.316 1.417.23 1.99-.153.998-.228 1.973-.373 2.84l-.002.004v.004c-.029.192-.218.476-.478.807-.261.33-.596.702-.682 1.248v.006l-.002.003c-.1.733-.42 1.2-1.17 1.582.125-.444.205-1.055.205-1.963.037-1.123.077-1.572-.86-2.695a5.53 5.53 0 0 0-2.792-1.898c-.111-.39-.722-.836-1.551-.836s-1.415.422-1.535.82a5.53 5.53 0 0 0-2.846 1.914c-.936 1.123-.86 1.61-.86 2.696 0 .903.08 1.513.203 1.96-.77-.384-1.107-.856-1.207-1.58v-.01c-.087-.553-.437-.923-.707-1.253s-.462-.617-.49-.801l-.002-.004V14.1c-.144-.867-.22-1.84-.373-2.838v-.002c-.085-.573.183-1.22.229-1.99v.015c.013-.143.017-.24.025-.37.36-1.16 1.153-2.173 1.805-2.876a6 6 0 0 1 .724-.289c1.192-.391 2.86-.615 5.063-.615M6.913 8.94a1.647 1.647 0 0 0-1.635 1.648 1.647 1.647 0 0 0 1.648 1.647 1.7 1.7 0 0 0 .442-.06q.523-.564 1.111-1.042a1.7 1.7 0 0 0 .094-.545 1.647 1.647 0 0 0-1.647-1.648zm10.297 0a1.647 1.647 0 0 0-1.637 1.648 1.65 1.65 0 0 0 .15.684q.47.396.895.848a1.7 1.7 0 0 0 .604.115 1.647 1.647 0 0 0 1.646-1.647 1.647 1.647 0 0 0-1.646-1.648zm-9.871.486a.41.41 0 0 1 .41.412.41.41 0 0 1-.41.412.41.41 0 0 1-.413-.412.41.41 0 0 1 .413-.412m9.47 0a.41.41 0 0 1 .413.412.41.41 0 0 1-.412.412.41.41 0 0 1-.412-.412.41.41 0 0 1 .412-.412m-5.109 1.486a.15.3 17.23 0 1 .03.004.15.3 17.23 0 1 .054.33.15.3 17.23 0 1-.232.243.15.3 17.23 0 1-.053-.33.15.3 17.23 0 1 .201-.247m.672.022a.3.15 75.54 0 1 .205.254.3.15 75.54 0 1-.07.328.3.15 75.54 0 1-.22-.252.3.15 75.54 0 1 .07-.328.3.15 75.54 0 1 .015-.002m-.316.476s.035.226.185.301.862-.15.862-.15c-.337.262-.973.263-.973.338v.373c0 .408.026 1.461-.031 1.685.823.005 2.09 1.126 2.09 2.508v.075c-.038-1.348-1.61-2.434-2.096-2.434-.487 0-2.06 1.048-2.098 2.434v-.075c0-1.362 1.233-2.47 2.057-2.506-.07-.551-.073-1.137-.073-1.687V11.9a5 5 0 0 0-.656-.237c.185.033.371.05.545.05.15-.076.188-.302.188-.302M9.015 12.76h.008a.15.15 0 0 1 .15.15.15.15 0 0 1-.15.151.15.15 0 0 1-.15-.15.15.15 0 0 1 .142-.15m1.124 0h.007a.15.15 0 0 1 .15.15.15.15 0 0 1-.15.151.15.15 0 0 1-.15-.15.15.15 0 0 1 .143-.15m3.67 0h.007a.15.15 0 0 1 .15.15.15.15 0 0 1-.15.151.15.15 0 0 1-.15-.15.15.15 0 0 1 .143-.15m1.123 0h.008a.15.15 0 0 1 .15.15.15.15 0 0 1-.15.151.15.15 0 0 1-.15-.15.15.15 0 0 1 .142-.15m-5.653.899h.008a.15.15 0 0 1 .148.15.15.15 0 0 1-.148.15.15.15 0 0 1-.15-.15.15.15 0 0 1 .142-.15m5.391 0h.006a.15.15 0 0 1 .15.15.15.15 0 0 1-.15.15.15.15 0 0 1-.149-.15.15.15 0 0 1 .143-.15"/></svg>