<svg xmlns="http://www.w3.org/2000/svg" viewBox="0 0 24 24"><path d="M11.911 23.994c-1.31 0-2.605-.232-3.831-.705-3.4-1.024-6.2-3.865-7.433-7.58-1.23-3.708-.685-7.654 1.459-10.554C4.062 2.038 7.677.094 11.742.008c4.064-.079 7.758 1.703 9.882 4.785a12.07 12.07 0 0 1 2.369 7.145c.138 3.733-1.75 7.368-5.052 9.728-2.147 1.535-4.61 2.328-7.03 2.328m.11-22.314q-.121 0-.244.002c-3.5.074-6.599 1.725-8.29 4.415-1.856 2.516-2.31 5.893-1.25 9.086 1.06 3.197 3.448 5.636 6.386 6.523 3.025 1.165 6.496.633 9.345-1.402 2.847-2.035 4.473-5.144 4.351-8.318v-.032c0-2.214-.73-4.41-2.055-6.185-1.78-2.58-4.84-4.09-8.243-4.09zM9.406 20.246v-4.578a2.66 2.66 0 0 1-.952.863 2.6 2.6 0 0 1-1.29.344q-1.524 0-2.63-1.33-1.097-1.33-1.097-3.646 0-1.408.444-2.527.451-1.119 1.299-1.69A3.26 3.26 0 0 1 7.052 7.1q1.587 0 2.5 1.46V7.31h1.306v12.935H9.406zm-4.477-8.285q0 1.805.694 2.711.694.9 1.662.9.928 0 1.597-.855.67-.863.67-2.615 0-1.866-.71-2.81-.703-.94-1.654-.941-.944 0-1.605.88-.653.872-.654 2.73m9.55 4.702h-1.346V3.755h1.452v4.604q.92-1.259 2.347-1.258.79 0 1.492.351c.464.222.864.558 1.161.978q.46.625.718 1.514.258.89.258 1.902 0 2.404-1.088 3.716-1.09 1.312-2.614 1.312-1.517 0-2.379-1.382v1.17m-.016-4.746q0 1.683.42 2.432.684 1.223 1.854 1.223.952 0 1.646-.898.693-.907.693-2.695 0-1.83-.67-2.703-.66-.871-1.605-.872-.95 0-1.645.907-.694.9-.694 2.607"/></svg>