<svg xmlns="http://www.w3.org/2000/svg" viewBox="0 0 24 24"><path d="M3.57 8.343a3.7 3.7 0 0 0-1.376.269 3.6 3.6 0 0 0-1.14.738 3.5 3.5 0 0 0-.773 1.102A3.3 3.3 0 0 0 0 11.814a3.3 3.3 0 0 0 .281 1.357 3.5 3.5 0 0 0 .775 1.107A3.64 3.64 0 0 0 3.6 15.29a3.7 3.7 0 0 0 .987-.13 3.7 3.7 0 0 0 .888-.374l.687.698a.58.58 0 0 0 .824 0 .58.58 0 0 0 0-.817l-.624-.624a3.5 3.5 0 0 0 .613-1.022 3.3 3.3 0 0 0 .226-1.208 3.3 3.3 0 0 0-.282-1.362 3.5 3.5 0 0 0-.775-1.102A3.6 3.6 0 0 0 5 8.612a3.7 3.7 0 0 0-1.398-.27h-.031zm11.306.185v1.484h-.765v1.063h.765v2.142q0 .628.159 1.028a1.56 1.56 0 0 0 .433.63 1.5 1.5 0 0 0 .643.317 2.7 2.7 0 0 0 .694.086h.853v-1.013h-.736a1.3 1.3 0 0 1-.352-.048.7.7 0 0 1-.291-.169.8.8 0 0 1-.2-.324 1.6 1.6 0 0 1-.074-.519v-2.13h1.666v-1.063h-1.66V8.528zM9.4 8.856a.69.69 0 0 0-.69.691.69.69 0 0 0 .69.69.69.69 0 0 0 .691-.69.69.69 0 0 0-.69-.691zm2.771 0a.69.69 0 0 0-.69.691.69.69 0 0 0 .69.69.69.69 0 0 0 .691-.69.69.69 0 0 0-.69-.691zm-8.6.538h.03a2.35 2.35 0 0 1 .93.187 2.35 2.35 0 0 1 1.264 1.28 2.5 2.5 0 0 1 .186.957 2.4 2.4 0 0 1-.186.957 2.4 2.4 0 0 1-.506.767 2.36 2.36 0 0 1-1.688.698 2.3 2.3 0 0 1-.93-.186 2.4 2.4 0 0 1-.755-.512 2.43 2.43 0 0 1-.699-1.723 2.44 2.44 0 0 1 .699-1.727 2.4 2.4 0 0 1 .756-.511 2.3 2.3 0 0 1 .898-.187zm17.648.773a2.7 2.7 0 0 0-1.02.201 2.5 2.5 0 0 0-.815.552 2.4 2.4 0 0 0-.525.814 2.7 2.7 0 0 0-.186.998 2.6 2.6 0 0 0 .186.997 2.5 2.5 0 0 0 .525.814 2.4 2.4 0 0 0 .815.546 2.7 2.7 0 0 0 1.059.2 2.4 2.4 0 0 0 .518-.056 2.5 2.5 0 0 0 .46-.146 2.4 2.4 0 0 0 .394-.213 2.4 2.4 0 0 0 .329-.263l.065.53H24v-4.829h-.976l-.068.533a2.5 2.5 0 0 0-.322-.26 2.3 2.3 0 0 0-.394-.217 2.6 2.6 0 0 0-.462-.145 2.4 2.4 0 0 0-.521-.056zm-12.375.844v4.138h1.113V11.01zm2.77 0v4.138h1.114V11.01zm9.72.145h.024a1.56 1.56 0 0 1 1.098.445 1.5 1.5 0 0 1 .334.495 1.6 1.6 0 0 1 .121.631 1.6 1.6 0 0 1-.121.64 1.6 1.6 0 0 1-.331.498 1.5 1.5 0 0 1-.49.324 1.64 1.64 0 0 1-1.207 0 1.5 1.5 0 0 1-.493-.324 1.5 1.5 0 0 1-.333-.5 1.6 1.6 0 0 1-.122-.638 1.6 1.6 0 0 1 .12-.637 1.5 1.5 0 0 1 .328-.495 1.5 1.5 0 0 1 .49-.323 1.6 1.6 0 0 1 .581-.116z"/></svg>