<svg xmlns="http://www.w3.org/2000/svg" viewBox="0 0 24 24"><path d="M12 0C5.373 0 0 5.373 0 12s5.373 12 12 12c3.398 0 6.467-1.413 8.65-3.683a2.8 2.8 0 0 1-1.147-.454c-.714-.477-1.348-.927-1.682-1.674-1.294 1.38-3.053 1.835-5.182 2.05-4.31.436-8.045-1.49-8.498-6.3-.192-2.045.263-3.989 1.18-5.582l-.533-2.1c-.087-.366.25-.713.605-.627l1.846.448a7.25 7.25 0 0 1 3.89-1.638 7.1 7.1 0 0 1 3.57.563l1.735-1.05c.326-.197.74.026.771.417l.1 2.474c1.334 1.409 2.242 3.332 2.448 5.517.116 1.233-.012 2.177-.34 3.078-.152.421-.198.777.078 1.13.268.34.692 1.003 1.165.892.71-.167 1.472-.123 1.942.171A11.95 11.95 0 0 0 24 12c0-6.627-5.373-12-12-12m-.073 5.727a5 5 0 0 0-.614.027 5.2 5.2 0 0 0-4.494 3.849l-1.318-.2-.014.259 1.298.14c-.036.15-.065.24-.086.393l-1.132.09.01.203L6.68 10.4a4 4 0 0 0-.033.456l-1.008.412.05.25.96-.45c.002.135.008.206.02.342.267 2.837 2.637 3.398 5.468 3.111s5.052-1.311 4.785-4.148c-.013-.136-.032-.207-.055-.34l1.04.226.024-.229-1.091-.207c-.034-.168-.077-.27-.126-.432l1.12-.138-.015-.202-1.15.141a5 5 0 0 0-.167-.426l1.267-.404-.04-.253-1.347.466a4.96 4.96 0 0 0-4.455-2.848"/></svg>