<svg xmlns="http://www.w3.org/2000/svg" viewBox="0 0 24 24"><path d="M11.969 0v.001A12 12 0 0 0 1.697 5.844a11.99 11.99 0 0 0-.124 12.084 12 12 0 0 0 9.787 6.037 6.2 6.2 0 0 0 1.366-.005 12 12 0 0 0 9.572-5.821 12 12 0 0 0 1.694-5.97 1 1 0 0 0 .008-.126v-.034a1 1 0 0 0-.006-.11 12 12 0 0 0-1.416-5.56A12 12 0 0 0 12.28.002q-.12-.002-.24-.001zm.008.84c1.229 0 2.065.274 2.065.513 0 .24-.857.548-2.056.548s-2.091-.29-2.091-.53c0-.235.823-.517 1.998-.53zm2.874.368a11.2 11.2 0 0 1 4.996 2.835c-1.968-.754-4.83-1.17-7.604-1.2-1.347 0-2.703.09-3.977.26a1 1 0 0 0-1.247-.274 1 1 0 0 0-.518.57c-.862.18-1.653.402-2.335.663a11.2 11.2 0 0 1 4.916-2.83 1 1 0 0 0-.01.138c0 1.234 2.022 1.336 2.914 1.336.89 0 2.88-.12 2.88-1.336q-.002-.084-.015-.163zm-2.608 2.44c4.789.06 8.31 1.152 9.126 2.25q.037.055.073.111a.73.73 0 0 1 .107.363c0 .826-1.731 1.706-4.446 2.23a36 36 0 0 0-4.809-.362q-.894.001-1.787.045l-2.24-3.883c.136-.166.208-.346.23-.524a30 30 0 0 1 3.746-.23m-5.694.557a.99.99 0 0 0 .946.574q.07.005.137 0L9.697 8.33c-.956.064-1.894.16-2.787.292-2.742-.529-4.437-1.43-4.437-2.25 0-.096.027-.193.072-.29q.076-.119.153-.235c.516-.62 1.902-1.223 3.851-1.642m15.546 2.979a11.1 11.1 0 0 1 1 3.353c-.874-.668-2.314-1.2-4.043-1.584 1.46-.448 2.566-1.045 3.043-1.77m-20.17.031c.489.729 1.599 1.32 3.045 1.762-1.729.385-3.159.915-4.03 1.57q.098-.746.3-1.487a11 11 0 0 1 .685-1.845m10.352 1.813q.439.005.864.02c-.444.018-.895.031-1.36.031a32 32 0 0 1-.827-.02l-.004-.009a40 40 0 0 1 1.327-.022zm4.918.38c3.65.552 5.954 1.615 5.997 2.58v.046c-.053.963-2.38 2-5.943 2.553a28 28 0 0 0-3.333-.42L12.38 11.53l-.944-1.636q.163.005.327.008c1.875 0 3.771-.171 5.432-.493zm-10.374.016a27 27 0 0 0 3.767.44l1.158 1.99 1.31 2.268a32 32 0 0 0-.813-.024c-1.895 0-3.811.173-5.485.499-3.462-.535-5.7-1.53-5.913-2.46v-.263c.214-.935 2.522-1.92 5.976-2.45m16.27 4.077a11.2 11.2 0 0 1-.977 3.295c-.467-.72-1.535-1.302-2.937-1.739 1.68-.387 3.064-.912 3.913-1.556m-22.144.02c.852.652 2.233 1.173 3.89 1.553-1.39.436-2.444 1.009-2.921 1.702a11.2 11.2 0 0 1-.969-3.256m11.296 1.365q.658.013 1.283.049l.008.014a40 40 0 0 1-1.788.04 39 39 0 0 1-1.435-.042 31 31 0 0 1 1.932-.06m5.092.523c2.613.54 4.22 1.41 4.231 2.218a.7.7 0 0 1-.103.35l-.036.055c-.406.611-1.697 1.22-3.565 1.66a.99.99 0 0 0-.82-.42 1 1 0 0 0-.155 0l-2.078-3.57c.868-.07 1.717-.167 2.527-.293M6.67 15.42c1.603.248 3.346.387 5.06.408.758 0 1.52-.023 2.272-.068l2.235 3.888a1.05 1.05 0 0 0-.2.386c-1.275.186-2.709.299-4.256.299-4.702-.059-8.179-1.1-9.087-2.172a11 11 0 0 1-.186-.294.7.7 0 0 1-.05-.24c.01-.8 1.637-1.667 4.212-2.207zm13.264 4.468q-.092.094-.187.186a11.15 11.15 0 0 1-4.721 2.69c.05-.12.08-.245.08-.375 0-.557-.486-1.031-1.252-1.322a29 29 0 0 0 2.295-.246c.25.415.775.663 1.32.408a.99.99 0 0 0 .58-.766c.69-.163 1.325-.356 1.885-.575m-15.784.048c1.592.61 3.765.996 6.001 1.14-.745.286-1.215.748-1.215 1.296v.017q.002.195.082.374a11.2 11.2 0 0 1-4.868-2.827m7.87 1.596c1.389 0 2.263.497 2.28.857.013.257-.457.574-1.225.734a11 11 0 0 1-2.198-.008c-.715-.174-1.135-.49-1.135-.726 0-.343.89-.857 2.279-.857"/></svg>