<svg xmlns="http://www.w3.org/2000/svg" viewBox="0 0 24 24"><path d="M1.316 9.955Q0 9.955 0 11.018v1.95q0 1.057 1.316 1.057h2.57c0-.006.15.005.378-.029-.215-.309-.612-.643-.983-.912l-.068-.049h-1.6v-2.113h2.131v1.793c.64.2 1.08.455 1.379.7q.075-.194.076-.446v-1.951q0-1.005-1.176-1.06v-.003zm4.965.053q-.232 0-.357.13c-.147.154-.117.347-.131.354v3.518h1.445l-.011-2.406c.006-.036.032-.088.142-.075 0 0 .043.002.06.034.28.445 2.104 2.447 2.104 2.447h1.5v-4.002H9.57v2.328c-.022.053-.095.044-.13.006-.259-.4-1.251-1.764-1.569-2.2-.02-.024-.125-.134-.355-.134Zm6.584 0q-.549 0-.844.23a.77.77 0 0 0-.302.639v3.133h1.527v-1.067h2.14v1.067h1.53v-3.133q0-.407-.297-.639-.296-.23-.846-.23zm5.918 0q-.549 0-.846.232a.77.77 0 0 0-.302.62v3.15h1.53v-1.045h2.47q1.007.001 1.008-.809v-1.283q-.002-.462-.248-.664c-.28-.222-.743-.188-.704-.201zm4.725.072a.47.47 0 0 0 .023.94.47.47 0 0 0 .469-.47.47.47 0 0 0-.469-.47zm.002.068h.021c.222.001.4.182.4.403a.4.4 0 0 1-.4.398.4.4 0 0 1-.4-.398c0-.214.167-.391.379-.403m-.19.141v.533h.073v-.236q.06-.001.12.002c.033.007.065.046.07.05.044.059.08.123.12.184h.088l-.092-.144a.4.4 0 0 0-.058-.07.2.2 0 0 0-.043-.028.2.2 0 0 0 .113-.049.144.144 0 0 0 .014-.175c-.022-.036-.056-.067-.166-.067zm.073.059h.168c.15 0 .134.14.058.168-.074.019-.151.006-.226.01zm-10.147.7h2.14v1.159h-2.14zm5.897 0h1.943v1.038h-1.943zm-16.358 1.54c.48.304 1.352.907 1.64 1.457h1.089c-.186-.331-.814-1.13-2.729-1.457"/></svg>