<svg xmlns="http://www.w3.org/2000/svg" viewBox="0 0 24 24"><path d="M21.693 3.162H3.33L0 6.49v14.348h20.671L24 17.51V3.162zM12.785 18.4l-1.562.728-1.35-2.217c-.196.057-.499.09-.924.09q-2.37 0-3.305-1.276c-.622-.85-.932-2.2-.932-4.033q.002-2.76.949-4.098.945-1.34 3.288-1.341c1.562 0 2.658.441 3.28 1.333.63.883.94 2.25.94 4.098q-.002 1.828-.384 2.945c-.261.752-.679 1.325-1.268 1.718zm4.736-1.587q-1.287 0-1.766-.59-.482-.588-.483-2.232v-3.534H14.11V9.051h1.162V6.843h1.644V9.05h2.094v1.415h-2.094v3.346c0 .622.05 1.03.14 1.227.09.204.326.303.695.303l1.243-.05.073 1.326q-1.006.195-1.546.196m-8.58-9.08q-1.425-.002-1.963.94c-.352.63-.532 1.629-.532 3.011 0 1.374.172 2.364.515 2.953s1.006.892 1.98.892c.973 0 1.628-.295 1.971-.876.335-.58.507-1.57.507-2.953 0-1.39-.172-2.396-.523-3.026s-1.006-.94-1.955-.94Z"/></svg>