<svg xmlns="http://www.w3.org/2000/svg" viewBox="0 0 24 24"><path d="M23.067 16.664a12.1 12.1 0 0 1-6.404 6.404A12 12 0 0 1 12 24v-2.797a8.6 8.6 0 0 0 3.546-.747 9.5 9.5 0 0 0 2.983-1.927 11.4 11.4 0 0 0 1.927-2.922A9.15 9.15 0 0 0 21.204 12a8.6 8.6 0 0 0-.746-3.545 8.93 8.93 0 0 0-4.911-4.912 9.53 9.53 0 0 0-7.091 0 9.48 9.48 0 0 0-4.911 4.912A9.8 9.8 0 0 0 2.798 12H0a12 12 0 0 1 .932-4.662A12.1 12.1 0 0 1 7.336.933a12.12 12.12 0 0 1 9.326 0 11.5 11.5 0 0 1 3.792 2.609 11.5 11.5 0 0 1 2.613 3.796 12.12 12.12 0 0 1 0 9.326M11.998 9.886V7.089a4.79 4.79 0 0 0-3.483 1.43A4.7 4.7 0 0 0 7.025 12a4.6 4.6 0 0 0 1.49 3.478 4.81 4.81 0 0 0 6.799.165 5 5 0 0 0 .165-.165A4.34 4.34 0 0 0 16.91 12H14.11a2.06 2.06 0 0 1-.621 1.492 2.02 2.02 0 0 1-1.492.622A2.123 2.123 0 0 1 9.884 12a2.02 2.02 0 0 1 .622-1.492 2.06 2.06 0 0 1 1.492-.621m5.972 8.08a7.04 7.04 0 0 0 1.806-2.676 7.5 7.5 0 0 0 .684-3.296 7.66 7.66 0 0 0-.684-3.295A8.45 8.45 0 0 0 15.3 4.223a7.5 7.5 0 0 0-3.295-.683v2.797a5.3 5.3 0 0 1 3.98 1.679 5.4 5.4 0 0 1 1.677 3.979 5.658 5.658 0 0 1-11.315 0H3.548a8.4 8.4 0 0 0 .616 3.298 9.3 9.3 0 0 0 4.54 4.538 9.04 9.04 0 0 0 6.59 0 8 8 0 0 0 2.676-1.864"/></svg>