<svg xmlns="http://www.w3.org/2000/svg" viewBox="0 0 24 24"><path d="M13.743 12a1.742 1.742 0 1 1-3.484 0 1.742 1.742 0 0 1 3.484 0m5.585-1.65 1.267-.732a9 9 0 0 0-.861-2.084 9 9 0 0 0-1.369-1.789l-2.014 1.163a6.7 6.7 0 0 0-2.103-1.219 8.3 8.3 0 0 0-1.627 2.322c2.242-.152 4.557.66 6.707 2.339zm-9.562 8.82v1.464a9 9 0 0 0 2.235.295 9 9 0 0 0 2.234-.29v-2.326a6.7 6.7 0 0 0 2.106-1.211 8.3 8.3 0 0 0-1.197-2.57c-.989 2.017-2.85 3.616-5.378 4.638m-4.354-5.962c.947.247 1.894.33 2.825.248C6.983 11.591 6.528 9.18 6.908 6.48L5.64 5.747a9 9 0 0 0-1.373 1.788 9 9 0 0 0-.865 2.08l2.014 1.163a6.7 6.7 0 0 0-.004 2.43zm13.173.014a6.7 6.7 0 0 0 .004-2.43 8.3 8.3 0 0 0-2.824-.25c1.253 1.866 1.708 4.277 1.328 6.978l1.267.732a9 9 0 0 0 1.374-1.788 9 9 0 0 0 .865-2.08zm-13.912.428-1.267.731c.198.728.487 1.429.861 2.084a9 9 0 0 0 1.369 1.789L7.65 17.09a6.7 6.7 0 0 0 2.102 1.219 8.3 8.3 0 0 0 1.628-2.322c-2.242.152-4.557-.659-6.707-2.338zm9.562-8.821V3.366A9 9 0 0 0 12 3.07a9 9 0 0 0-2.234.29v2.326A6.7 6.7 0 0 0 7.66 6.898c.26.944.66 1.806 1.197 2.57.989-2.018 2.85-3.617 5.378-4.639zM24 12c0 6.627-5.373 12-12 12S0 18.627 0 12 5.373 0 12 0s12 5.373 12 12m-1.535 0C22.465 6.23 17.77 1.535 12 1.535S1.535 6.23 1.535 12 6.23 22.465 12 22.465 22.465 17.77 22.465 12"/></svg>