<svg xmlns="http://www.w3.org/2000/svg" viewBox="0 0 24 24"><path d="m21.893 20.79-2.289-1.332 1.547-.895a2.4 2.4 0 0 0 1.2-2.08V7.098l-.003-.059a2.4 2.4 0 0 0-1.198-2.027l-3.899-2.255-4.21-2.436a3 3 0 0 0-.237-.118L12.77.187l-.093-.036-.052-.019q-.043-.014-.085-.027l-.062-.019-.079-.02-.072-.017-.073-.013-.079-.013-.068-.008-.087-.008-.063-.004L11.9 0h-.03l-.082.001-.076.002-.093.007-.064.006q-.055.007-.11.016-.021.005-.044.009l-.154.034a2.4 2.4 0 0 0-.602.245L5.536 3.277l-3 1.736a2.41 2.41 0 0 0-1.201 2.083v9.385a2.4 2.4 0 0 0 1.2 2.08l8.108 4.693a2.4 2.4 0 0 0 2.4.002l1.804-1.044 2.302 1.339c1.03.599 2.687.599 3.716 0l1.03-.6c1.027-.597 1.027-1.562-.002-2.161m-10.71-2.695-4.46-2.583a1.32 1.32 0 0 1-.66-1.143V9.206c0-.236.063-.464.177-.662l.002.001c.116-.2.282-.368.482-.485l4.459-2.58q.139-.079.289-.122l.034-.01q.053-.013.105-.022.034-.007.068-.013.046-.004.093-.006.042-.002.083-.004.054.001.11.007.029.002.058.005.056.009.11.022.028.005.055.012.059.017.115.04l.045.015q.078.033.154.076l4.46 2.58c.198.116.364.283.48.483l.002.003-.003.002c.116.201.177.43.177.661v5.161c0 .15-.028.295-.076.433a1.32 1.32 0 0 1-.583.71l-4.46 2.582a1.31 1.31 0 0 1-1.316 0"/></svg>