<svg xmlns="http://www.w3.org/2000/svg" viewBox="0 0 24 24"><path d="M12.7 1.088 12 0l-.7 1.088c-.751 1.168-7.342 11.525-7.342 15.366C3.958 20.615 7.565 24 12 24s8.042-3.385 8.042-7.546c0-3.84-6.591-14.197-7.342-15.366M12 22.335c-3.516 0-6.377-2.638-6.377-5.881C5.623 13.908 9.732 6.756 12 3.1c2.268 3.656 6.377 10.809 6.377 13.355 0 3.242-2.861 5.88-6.377 5.88m4.957-6.017c0 2.548-2.22 4.615-4.957 4.615s-4.957-2.067-4.957-4.615q.001-.245.058-.549s1.306-2.616 4.847 0c2.999 2.215 4.95 0 4.95 0q.058.304.059.549"/></svg>