<svg xmlns="http://www.w3.org/2000/svg" viewBox="0 0 24 24"><path d="M7.679.626c-.5 0-.948.112-1.33.333-.367.213-.675.53-.917.942-.226.386-.393.856-.496 1.396-.197 1.042-.155 2.346.124 3.77q.053.271.116.542a17 17 0 0 0-.644.209C3.187 8.287 2.062 8.9 1.279 9.59c-.406.358-.72.736-.935 1.124A2.6 2.6 0 0 0 0 11.97c0 .846.469 1.703 1.355 2.48.835.733 2.015 1.372 3.412 1.85q.195.066.395.128a17 17 0 0 0-.128.61c-.266 1.399-.297 2.68-.09 3.703.107.53.277.99.506 1.37.243.404.552.716.917.927.386.222.839.335 1.348.335.692 0 1.467-.206 2.302-.61.818-.398 1.653-.967 2.482-1.691a13 13 0 0 0 .391-.356h6.146q1.302 0 2.246-.38.943-.38 1.548-1.023t.887-1.534A6.2 6.2 0 0 0 24 15.871c0-1.188-.215-2.172-.642-2.96q-.634-1.167-1.867-1.514a.03.03 0 0 1-.02-.033.03.03 0 0 1 .016-.03 3.5 3.5 0 0 0 1.411-1.442q.498-.935.498-2.25c0-1.447-.366-2.523-1.095-3.238q-1.093-1.073-2.906-1.072h-6.512a16 16 0 0 0-.308-.282c-.861-.763-1.72-1.363-2.552-1.78C9.169.844 8.38.627 7.679.627m.007 1.7c.434 0 .995.17 1.623.492.68.35 1.419.87 2.134 1.505l.136.123a26 26 0 0 0-1.846 2.302c-1.016.1-1.992.248-2.907.441a15 15 0 0 1-.092-.434L6.73 6.74c-.218-1.114-.271-2.131-.153-2.942.101-.696.328-1.194.624-1.365a.96.96 0 0 1 .484-.107m5.16 3.217v12.912l-.765-.946-.5-.617c-.253-.312-.657-.889-1.14-1.624a29 29 0 0 1-.794-1.282l-.015-.025c-.23-.398-.403-.72-.54-.977a39 39 0 0 1-.507-.981l.03-.058.002-.004a31 31 0 0 1 .566-1.098l.001-.003.208-.402.306-.507.002-.004q.172-.293.353-.584l.21-.348c.281-.464.507-.803.863-1.294.191-.264.373-.496.661-.856v-.001l.015-.018.005-.007q.176-.225.351-.437l.004-.005.002-.003a83 83 0 0 1 .683-.831zm2.391.252h3.829q.963.001 1.474.536c.51.535.51.974.51 1.852 0 .78-.19 1.375-.567 1.794-.378.419-.85.624-1.417.624h-3.829c-.014 0-.025-.015-.025-.033v-4.74c0-.018.011-.033.025-.033M8.498 8.616a32 32 0 0 0-.793 1.375 23 23 0 0 1-.417-1.16 23 23 0 0 1 1.21-.215m-2.865.634c.288.892.649 1.816 1.072 2.748a26 26 0 0 0-1.087 2.79 12 12 0 0 1-.3-.098c-1.162-.397-2.13-.91-2.798-1.482-.512-.438-.817-.9-.817-1.236 0-.345.305-.79.838-1.22.62-.502 1.503-.96 2.551-1.326a15 15 0 0 1 .541-.176m9.604 3.543h4.149c.718 0 1.27.224 1.67.692s.597 1.125.597 1.988c0 .877-.2 1.56-.597 2.037q-.591.723-1.67.722h-4.149c-.014 0-.025-.015-.025-.033v-5.373c0-.019.01-.033.025-.033M7.707 14a31 31 0 0 0 .818 1.411 22 22 0 0 1-1.252-.209q.195-.591.434-1.202m-.894 2.844c.902.185 1.89.324 2.94.414a26 26 0 0 0 1.862 2.317q-.117.108-.236.212c-.917.803-1.839 1.382-2.664 1.677l-.018.007c-.37.13-.7.196-.98.196q-.313 0-.498-.106c-.3-.173-.532-.66-.639-1.336-.124-.789-.08-1.782.126-2.872q.049-.255.107-.509"/></svg>