<svg xmlns="http://www.w3.org/2000/svg" viewBox="0 0 24 24"><path d="M16.738 1.263c.626 0 1.183.192 1.624.581.417.369.692.88.842 1.507.253 1.054.169 2.505-.222 4.398a1 1 0 0 1-.06.195q1.068.28 1.906.626c1.352.559 2.301 1.264 2.817 2.158.313.542.427 1.12.31 1.696-.11.546-.415 1.04-.882 1.482-.784.745-2.08 1.396-3.91 2.002a1 1 0 0 1-.236.05q.302 1.093.424 2.013c.193 1.452.056 2.629-.46 3.524-.314.543-.758.93-1.316 1.118-.528.177-1.107.16-1.725-.023-1.039-.308-2.253-1.106-3.696-2.39a1.1 1.1 0 0 1-.195-.228 15 15 0 0 1-1.491 1.335c-1.16.894-2.247 1.364-3.28 1.364-.626 0-1.183-.19-1.624-.58-.417-.37-.692-.88-.842-1.507-.253-1.054-.169-2.506.222-4.398a1 1 0 0 1 .072-.224 15 15 0 0 1-1.844-.61C1.82 14.793.871 14.088.355 13.194c-.313-.542-.427-1.12-.31-1.697.11-.545.415-1.039.882-1.482.784-.744 2.08-1.396 3.91-2.002q.107-.034.215-.048a15 15 0 0 1-.403-1.936c-.193-1.452-.056-2.629.46-3.524.314-.543.758-.93 1.316-1.118.528-.177 1.107-.16 1.725.023 1.039.308 2.253 1.106 3.696 2.39q.076.067.137.147.765-.772 1.475-1.32c1.16-.893 2.247-1.364 3.28-1.364M7.359 13.761a.342.342 0 0 0-.582.106q-1.926 5.154-.809 7.11 1.143 1.998 4.953-1.33l.077-.068.053-.059a.35.35 0 0 0-.016-.427 36 36 0 0 1-2.074-2.743 34 34 0 0 1-1.502-2.425l-.06-.106zm10.46 2.534-.067.005a36 36 0 0 1-3.363.437 33 33 0 0 1-2.808.1h-.12l-.07.006a.343.343 0 0 0-.198.554q3.43 4.204 5.647 4.203 2.268 0 1.326-4.928l-.02-.1-.02-.066a.34.34 0 0 0-.374-.206zm-6.231-1.137H9.385l.252.44a.63.63 0 0 0 .548.318h1.403zm3.087 0h-2.203v.758h1.403a.63.63 0 0 0 .548-.317zM19 9.098a.355.355 0 0 0-.379.226 36 36 0 0 1-1.352 3.184 34 34 0 0 1-1.366 2.525l-.063.106-.03.064a.345.345 0 0 0 .155.412.36.36 0 0 0 .237.044q5.537-.892 6.687-2.846 1.176-1.998-3.72-3.666l-.1-.033zm-11.118-.76-.082.003q-5.537.892-6.687 2.846-1.176 1.998 3.72 3.666l.1.033.069.016a.355.355 0 0 0 .379-.226 36 36 0 0 1 1.352-3.184 34 34 0 0 1 1.366-2.525l.063-.106.03-.064a.345.345 0 0 0-.155-.412.36.36 0 0 0-.237-.044zm3.707 5.051H8.37l.507.885h2.71v-.885zm4.102 0h-3.218v.885h2.71zm-4.102-1.768H7.862l-.073.128a.63.63 0 0 0 0 .628l.073.128h3.726zm4.61 0h-3.726v.884h3.726l.073-.128a.63.63 0 0 0 0-.628zm-4.61-1.768h-2.71l-.508.884h3.218zm3.595 0h-2.711v.884h3.218zm2.849-6.83q-1.143-1.998-4.953 1.33l-.077.068-.053.059a.35.35 0 0 0 .016.427q1.153 1.389 2.074 2.743.78 1.147 1.502 2.425l.06.106.04.058a.342.342 0 0 0 .582-.106q1.926-5.154.809-7.11m-6.444 5.188h-1.403a.63.63 0 0 0-.548.317l-.253.44h2.204zm2.287 0h-1.403v.757h2.204l-.253-.44a.63.63 0 0 0-.548-.317m-6.59-5.937q-2.266 0-1.326 4.928l.02.1.02.065c.06.146.214.235.375.207a36 36 0 0 1 3.363-.437 33 33 0 0 1 2.807-.1h.12l.07-.006a.343.343 0 0 0 .198-.554Q9.504 2.274 7.286 2.274"/></svg>