<svg xmlns="http://www.w3.org/2000/svg" viewBox="0 0 24 24"><path d="M6.93 13.688a.343.343 0 0 1 .468.132l.063.106q.72 1.277 1.5 2.426a36 36 0 0 0 2.074 2.742.346.346 0 0 1-.039.484l-.074.066c-2.543 2.223-4.191 2.665-4.953 1.333-.746-1.305-.477-3.672.808-7.11a.34.34 0 0 1 .153-.18M17.75 16.3a.34.34 0 0 1 .395.27l.02.1q.942 4.93-1.325 4.93c-1.48 0-3.36-1.402-5.649-4.203a.33.33 0 0 1-.074-.222c0-.188.156-.34.344-.34h.121a33 33 0 0 0 2.809-.098q1.606-.128 3.359-.437m.871-6.977a.353.353 0 0 1 .445-.21l.102.034q4.895 1.665 3.719 3.664-1.148 1.957-6.684 2.848a.36.36 0 0 1-.238-.047.343.343 0 0 1-.125-.476l.062-.106a34 34 0 0 0 1.367-2.523q.717-1.484 1.352-3.184M7.797 8.34a.36.36 0 0 1 .238.047.343.343 0 0 1 .125.476l-.062.106a34 34 0 0 0-1.367 2.523q-.717 1.483-1.352 3.184a.353.353 0 0 1-.445.21l-.102-.034q-4.895-1.666-3.719-3.664Q2.261 9.23 7.797 8.34m5.281-3.984c2.543-2.223 4.192-2.664 4.953-1.332.746 1.304.477 3.671-.808 7.109a.34.34 0 0 1-.153.18.343.343 0 0 1-.468-.133l-.063-.106a35 35 0 0 0-1.5-2.426 36 36 0 0 0-2.074-2.742.346.346 0 0 1 .039-.484ZM7.285 2.274q2.22 0 5.649 4.203a.35.35 0 0 1 .078.218.35.35 0 0 1-.348.344l-.117-.004a35 35 0 0 0-2.809.102 36 36 0 0 0-3.363.437.343.343 0 0 1-.394-.273l-.02-.098q-.944-4.929 1.324-4.93m2.871 5.812h3.688a.64.64 0 0 1 .55.316l1.848 3.22a.64.64 0 0 1 0 .628l-1.847 3.223a.64.64 0 0 1-.551.316h-3.688a.63.63 0 0 1-.547-.316L7.758 12.25a.64.64 0 0 1 0-.629L9.61 8.402a.63.63 0 0 1 .546-.316m3.23.793a.64.64 0 0 1 .552.316l1.39 2.426a.64.64 0 0 1 0 .629l-1.39 2.43a.64.64 0 0 1-.551.316h-2.774a.63.63 0 0 1-.546-.316l-1.395-2.43a.64.64 0 0 1 0-.629l1.395-2.426a.63.63 0 0 1 .546-.316Zm-.491.867h-1.79a.62.62 0 0 0-.546.316l-.899 1.56a.64.64 0 0 0 0 .628l.899 1.563a.63.63 0 0 0 .547.316h1.789a.63.63 0 0 0 .547-.316l.898-1.563a.64.64 0 0 0 0-.629l-.898-1.558a.62.62 0 0 0-.547-.317m-.477.828c.227 0 .438.121.547.317l.422.73a.63.63 0 0 1 0 .629l-.422.734a.63.63 0 0 1-.547.317h-.836a.63.63 0 0 1-.547-.317l-.422-.734a.63.63 0 0 1 0-.629l.422-.73a.63.63 0 0 1 .547-.317zm-.418.817a.55.55 0 0 0-.473.273.55.55 0 0 0 0 .547.54.54 0 0 0 .473.27.54.54 0 0 0 .473-.27.55.55 0 0 0 0-.547.55.55 0 0 0-.473-.273Zm-4.422.546h.98M18.982 7.75c.39-1.894.476-3.344.222-4.398-.148-.63-.422-1.137-.84-1.508-.441-.39-1-.582-1.625-.582-1.035 0-2.12.472-3.281 1.367a15 15 0 0 0-1.473 1.316 1 1 0 0 0-.136-.144c-1.446-1.285-2.66-2.082-3.7-2.39-.617-.184-1.195-.2-1.722-.024-.559.187-1.004.574-1.317 1.117-.515.894-.652 2.074-.46 3.527q.119.885.402 1.934a1 1 0 0 0-.215.047C3.008 8.62 1.71 9.269.926 10.015c-.465.442-.77.938-.883 1.481-.113.578 0 1.156.312 1.7.516.894 1.465 1.597 2.817 2.155q.813.334 1.844.61a1 1 0 0 0-.07.226c-.391 1.891-.477 3.344-.223 4.395.148.629.425 1.14.84 1.508.44.39 1 .582 1.625.582 1.035 0 2.12-.473 3.28-1.364q.715-.556 1.489-1.336a1.2 1.2 0 0 0 .195.227c1.446 1.285 2.66 2.082 3.7 2.39.617.184 1.195.2 1.722.024.559-.187 1.004-.574 1.317-1.117.515-.894.652-2.074.46-3.527a15 15 0 0 0-.425-2.012 1.2 1.2 0 0 0 .238-.047c1.828-.61 3.125-1.258 3.91-2.004.465-.441.77-.937.883-1.48.113-.578 0-1.157-.312-1.7-.516-.894-1.465-1.597-2.817-2.156a15 15 0 0 0-1.906-.625 1 1 0 0 0 .059-.195"/></svg>