<svg xmlns="http://www.w3.org/2000/svg" viewBox="0 0 24 24"><path d="M12 .029a12.12 12.12 0 0 0-8.484 3.504v.003C1.291 5.76 0 8.855 0 11.998s1.285 6.244 3.516 8.465l.001.002a12.17 12.17 0 0 0 8.479 3.505H12c3.148 0 6.255-1.283 8.482-3.508l.002-.002A12.08 12.08 0 0 0 24 12.005V12a12.06 12.06 0 0 0-3.518-8.464A12.12 12.12 0 0 0 12 .03zm0 1.336c.48 0 .96.046 1.435.113-2.03.566-3.765 1.622-5.554 1.949a7.4 7.4 0 0 1-2.225.044C7.482 2.135 9.74 1.364 12 1.364zm4.135 1.072q.26.002.521.023a10.6 10.6 0 0 1 2.883 2.022c.092.09.173.194.262.289a10.3 10.3 0 0 1-4.442 1.178c-2.43.06-4.958-.794-7.69-.823a12.7 12.7 0 0 0-4.362.744c.32-.457.672-.893 1.062-1.293 1.223.322 2.5.39 3.748.164h.002c2.264-.412 4.133-1.625 6.049-2.08a8.3 8.3 0 0 1 1.967-.225zM20.67 5.84a10.9 10.9 0 0 1 1.433 2.824 11 11 0 0 0-1.35-.644h-.001a11.3 11.3 0 0 0-6.62-.493h-.003c-1.489.345-2.841.968-4.154 1.524q-.701.297-1.399.553a11 11 0 0 0-1.445-.257h-.002a9.6 9.6 0 0 0-4.194.55 8 8 0 0 1-1.244-.536 11 11 0 0 1 .53-1.557C3.892 6.927 5.773 6.44 7.654 6.46c2.445.026 4.992.89 7.738.822h.004A11.6 11.6 0 0 0 20.67 5.84m-4.031 2.742a10 10 0 0 1 3.625.681 10 10 0 0 1 2.283 1.282q.055.378.082.758a10.7 10.7 0 0 0-2.244-.329 10.3 10.3 0 0 0-3.201.38c-.697.199-1.353.464-1.989.76-1.087-.371-2.166-.86-3.277-1.336a35 35 0 0 0-1.324-.538c1.3-.552 2.554-1.113 3.834-1.41a10 10 0 0 1 2.21-.248zM5.873 10.644q.562-.022 1.125.032c1.475.148 2.935.704 4.393 1.33.717.309 1.453.625 2.203.928-1.1.604-2.156 1.225-3.237 1.7-1.05-.393-2.131-.757-3.302-.917-1.835-.25-3.717.06-5.387.828a10.5 10.5 0 0 1-.32-2.3c.403-.3.828-.57 1.28-.79a8.3 8.3 0 0 1 3.245-.81zm14.463 1.667c.775.029 1.547.16 2.29.379a10.7 10.7 0 0 1-.304 1.893c-.67.439-1.383.808-2.139 1.08-1.828.658-3.85.79-5.75.374-.78-.17-1.557-.45-2.341-.75 1.889-.973 3.598-2.12 5.457-2.646h.002a9 9 0 0 1 2.785-.33M5.504 14.976a8 8 0 0 1 1.369.065c2.354.323 4.617 1.719 7.275 2.302.357.078.717.134 1.078.178q-.525.15-1.043.332v.002h-.001c-1.283.462-2.455 1.042-3.637 1.388-2.151.625-4.443.54-6.543-.23a10.7 10.7 0 0 1-1.926-3.18 8.6 8.6 0 0 1 3.428-.858zm16.144 1.5c-.067.145-.133.29-.207.433-.221-.017-.442-.04-.664-.048.298-.112.584-.251.871-.385m-1.7 1.703a16 16 0 0 1 .696.016c-.333.464-.696.911-1.105 1.323h-.002v.002c-1.966 1.963-4.754 3.113-7.535 3.113a10.8 10.8 0 0 1-5.793-1.725c1.57.19 3.173.065 4.71-.382h.003c1.332-.39 2.526-.987 3.71-1.414a16.1 16.1 0 0 1 5.315-.934z"/></svg>