<svg xmlns="http://www.w3.org/2000/svg" viewBox="0 0 24 24"><path d="M19.586 0q-1.226.001-2.073.565-.846.565-1.213 1.68a3 3 0 0 0-.112.437 8 8 0 0 0-.078.53 9 9 0 0 0-.05.727q-.014.423-.013 1.016a31.121 31.123 0 0 0 .014 1.017 9 9 0 0 0 .05.727 8 8 0 0 0 .077.53h-.005a3 3 0 0 0 .113.438q.368 1.114 1.214 1.68.847.564 2.075.564c.8 0 1.536-.213 2.105-.603.57-.39.94-.916 1.175-1.65.076-.235.135-.558.177-.93a11 11 0 0 0 .043-1.207v-.82q0-.142-.14-.142h-3.064q-.14 0-.14.141v.956q0 .14.14.14h1.666q.084.001.084.086c0 .36 0 .62-.036.865-.038.244-.1.447-.147.606-.108.385-.348.664-.638.876s-.738.35-1.227.35c-.545 0-.901-.15-1.21-.353-.306-.203-.517-.454-.67-.915a3.1 3.1 0 0 1-.147-.762 17.366 17.367 0 0 1-.034-.656q-.015-.39-.014-.939a26.401 26.403 0 0 1 .014-.938 16 16 0 0 1 .035-.656 3.2 3.2 0 0 1 .148-.76 1.9 1.9 0 0 1 .742-1.01c.344-.244.593-.352 1.137-.352.508 0 .815.096 1.144.303.33.207.528.492.764.925q.069.141.198.07l1.044-.43q.113-.072.042-.199a3.6 3.6 0 0 0-.466-.742 3 3 0 0 0-.679-.607 3.3 3.3 0 0 0-.903-.41A4 4 0 0 0 19.586 0M8.217 5.836c-1.69 0-3.036.086-4.297.086-1.146 0-2.291 0-3.007-.029v.831l1.088.2c.744.144 1.174.488 1.174 2.264v11.288c0 1.777-.43 2.12-1.174 2.263l-1.088.2v.832c.773-.029 2.12-.086 3.465-.086 1.29 0 2.951.057 3.667.086v-.831l-1.49-.2c-.773-.115-1.174-.487-1.174-2.264v-4.784c.688.057 1.29.057 2.206.057 1.748 3.123 3.41 5.472 4.355 6.56.86 1.032 2.177 1.691 3.839 1.691.487 0 1.003-.086 1.318-.23v-.744c-1.031 0-2.063-.716-2.808-1.518-1.26-1.376-2.95-3.582-4.355-6.074 2.32-.545 4.04-2.722 4.04-4.9 0-3.208-2.492-4.698-5.758-4.698zm-.515 1.29c2.406 0 3.839 1.26 3.839 3.552 0 2.263-1.547 3.782-4.097 3.782-.974 0-1.404-.03-2.063-.086v-7.19c.66-.059 1.547-.059 2.32-.059z"/></svg>