<svg xmlns="http://www.w3.org/2000/svg" viewBox="0 0 24 24"><path d="M24 0H0v24h24zM3.006 19.476h9v1.5h-9zm9.824-9.392h-.98V8.432h1.264l.324-1.908h-1.136V4.872h1.416l.324-1.864h1.704l-.332 1.864h1.88l.324-1.864h1.7l-.304 1.864h.98v1.652h-1.28l-.324 1.908h1.136v1.652h-1.42l-.336 1.936h-1.7l.332-1.936h-1.868l-.32 1.936h-1.72zM3.014 3.008H7.15q1.716 0 2.632.912c.529.553.808 1.3.772 2.064v.028a2.8 2.8 0 0 1-.536 1.784 3.07 3.07 0 0 1-1.404.992l2.204 3.224h-2.32L6.63 9.24H5.014v2.772h-2zm13.672 5.424.328-1.908h-1.876l-.32 1.908zM7.014 7.408c.415.014.821-.129 1.136-.4a1.2 1.2 0 0 0 .4-.928v-.028a1.16 1.16 0 0 0-.4-.968 1.84 1.84 0 0 0-1.148-.32H5.014v2.592z"/></svg>