<svg xmlns="http://www.w3.org/2000/svg" viewBox="0 0 24 24"><path d="M4.304.4C2.779.4 1.09.55 0 .814v15c.308.171.843.28 1.563.28.74 0 1.255-.108 1.543-.28V10.58a15 15 0 0 0 2.121.151h.33l2.86 5.059c.432.195 1.029.302 1.935.302.803 0 1.38-.11 1.647-.302L8.563 9.955c1.42-.8 2.326-2.27 2.326-4.496C10.89 1.827 8.423.4 4.304.4zm15.454 0c-1.379 0-2.624.27-3.69.794-2.455 1.203-3.961 3.738-3.961 7.363 0 4.825 2.655 7.716 7.166 7.716.9 0 1.587-.302 2.005.255.42.557-.358 1.217-.775 1.51-1.634 1.155-5.722-.102-9.49-.48C5.598 17.015.925 16.301.145 19.193c-.41 1.526.123 2.501.642 3.05C1.832 23.348 3.67 23.6 5.132 23.6a14 14 0 0 0 2.05-.156 1.31 1.31 0 0 0 1.024-.806 1.24 1.24 0 0 0-.212-1.256 1.35 1.35 0 0 0-1.235-.453c-1.501.271-3.622.869-4.435.011-.274-.291-.226-1.004 0-1.226.605-.875 4.493-.539 8.413-.029 4.33.434 8.402 1.86 10.945.635.996-.48 2.318-1.194 2.318-3.792H24q0-1.72-.448-3.38-2.072.282-3.288.295c-2.845 0-4.869-1.449-4.869-5.097S17.44 3.19 20.412 3.19c1.201 0 2.129.251 3.14.734.107-.924-.105-2.161-.59-2.853C22.182.61 20.96.4 19.758.4zM4.51 3.189c2.058 0 3.21.711 3.21 2.442 0 1.682-1.09 2.355-2.88 2.355a10.3 10.3 0 0 1-1.771-.15v-4.52a8 8 0 0 1 1.44-.127"/></svg>