<svg xmlns="http://www.w3.org/2000/svg" viewBox="0 0 24 24"><path d="M9.419 10.32v-.645c0-.531.437-.968.968-.968h3.225a.96.96 0 0 1 .552.175 2.3 2.3 0 0 0-.904.47h-2.873a.325.325 0 0 0-.323.323v3.224c0 .177.146.323.323.323h2.921l.048.067v.578h-2.969a.973.973 0 0 1-.968-.968v-1.934h-5.13l.08.967h3.115v.645H4.423l.058.698a8.8 8.8 0 0 0 2.001.347 8 8 0 0 1 2.625.564c.138.04.244.146.288.276a4.2 4.2 0 0 0-1.771-.395H6.88c-.25 0-.485.065-.688.18a9.5 9.5 0 0 1-1.654-.286l.147 1.772q.4-.067.798-.15c.018.224.09.434.203.616q-.471.1-.947.179l.09 1.09c.03.332.31.589.643.591h2.101c-.335.14-.626.364-.846.645H5.472a1.3 1.3 0 0 1-1.285-1.183l-.548-6.556H2.358l.758 7.578c.081.821.78 1.453 1.605 1.451h1.565q.002.181.033.355c-.293.04-.566.141-.806.29h-.792a2.257 2.257 0 0 1-2.246-2.032l-.794-7.933-.001-.032c0-.088.036-.169.094-.228l2.58-2.58a.32.32 0 0 1 .228-.094h1.023a1 1 0 0 1-.056-.323.97.97 0 0 1 .713-.933 1 1 0 0 1-.068-.357c0-.53.437-.967.968-.967h1.29a.972.972 0 0 1 .922 1.26 1 1 0 0 1 .436-.258 1 1 0 0 1-.068-.357c0-.531.437-.968.967-.968h1.29a.973.973 0 0 1 .913 1.29h1.667c.331 0 .639.17.816.449a.95.95 0 0 1 .474-.126h2.58a.972.972 0 0 1 .912 1.29h.461l-.282-.174 1.876-3.051h-2.645V3.87h.637a5 5 0 0 0-.027-.323c-.64-.002-.853-.011-1.57-.04l-.09-.004a2.7 2.7 0 0 1-.673-.089.45.45 0 0 1-.267-.189.4.4 0 0 1-.041-.282.46.46 0 0 1 .238-.274q.089-.048.181-.089h-3.87v1.29h4.837v.645H2.579l1.087 1.766-.549.338-1.389-2.258a.3.3 0 0 1-.048-.169C1.68 1.802 3.205 0 5.227 0h.078c.403 0 .747.275.855.645h11.679A.895.895 0 0 1 18.693 0h.078c2.023 0 3.548 1.802 3.548 4.192a.32.32 0 0 1-.067.196L20.191 7.74h.193c.53 0 .967.437.967.967a.97.97 0 0 1-.22.614l1.083 1.082c.065.06.106.145.106.239l-.001.032-.794 7.933a2.26 2.26 0 0 1-2.188 2.032 2.05 2.05 0 0 0-.805-.29q.032-.174.032-.355h.714a1.614 1.614 0 0 0 1.604-1.451l.76-7.578h-1.283l-.546 6.556a1.303 1.303 0 0 1-1.287 1.183h-.403a2 2 0 0 0-.319-.328v-.317h.722a.65.65 0 0 0 .643-.591l.004-.054c-.578 0-1.099-.002-1.636-.018v-.645c.553.017 1.091.018 1.69.018l.08-.96a8 8 0 0 0-1.77.237v-.665a9 9 0 0 1 1.824-.219l.081-.971q-.956.012-1.905.105v-.647a23 23 0 0 1 1.958-.103l.081-.969h-1.521q.201-.302.298-.645h1.276l.081-.967h-1.276a2.3 2.3 0 0 0-.129-.645h2.079a.324.324 0 0 0 .322-.323.323.323 0 0 0-.322-.322.325.325 0 0 1-.323-.323c0-.177.146-.322.323-.322a.324.324 0 0 0 .322-.323.323.323 0 0 0-.322-.322h-1.935a.325.325 0 0 1-.323-.323c0-.177.146-.322.323-.322a.324.324 0 0 0 .322-.323.323.323 0 0 0-.322-.322h-2.58a.32.32 0 0 0-.277.161.32.32 0 0 1-.279.161h-.089a.323.323 0 0 1-.322-.322.325.325 0 0 0-.323-.323h-2.58a.323.323 0 0 1-.322-.322c0-.177.145-.323.322-.323a.324.324 0 0 0 .323-.322.325.325 0 0 0-.323-.323h-1.29a.323.323 0 0 0 0 .645c.177 0 .323.146.323.323a.324.324 0 0 1-.323.322h-.645a.32.32 0 0 0-.302.218.32.32 0 0 1-.305.215.33.33 0 0 1-.179-.054.3.3 0 0 0-.181-.056h-.645a.325.325 0 0 1-.323-.323c0-.177.146-.322.323-.322a.324.324 0 0 0 .322-.323.323.323 0 0 0-.322-.322h-1.29a.324.324 0 0 0-.323.322c0 .177.146.323.323.323a.323.323 0 0 1 0 .645h-.645a.324.324 0 0 0-.323.322c0 .177.146.323.323.323a.323.323 0 0 1 0 .645H4.904a.324.324 0 0 0-.322.322c0 .177.146.323.322.323s.323.145.323.322a.325.325 0 0 1-.323.323H4.26a.324.324 0 0 0-.323.322c0 .177.146.323.323.323h1.289a.3.3 0 0 0 .081-.013.3.3 0 0 1 .162 0 .4.4 0 0 0 .08.013h2.58a.324.324 0 0 0 .322-.323.323.323 0 0 0-.322-.322h-.968V9.03h.968a.97.97 0 0 1 .911 1.29zm3.225-6.45V1.29h-1.29v2.58zm-10.309 0h1.609c.089-1.854.936-2.52 1.452-2.754A.25.25 0 0 0 5.55.89a.246.246 0 0 0-.244-.245h-.079C3.662.645 2.46 2.01 2.335 3.87m2.255 0h6.119V2.257c-1.154 0-2.459.001-3.508.003h-.077q.099.06.208.119.19.1.368.223a.43.43 0 0 1 .18.536.45.45 0 0 1-.258.228 2.1 2.1 0 0 1-.696.123c-.793.043-1.475.055-2.309.058q-.018.153-.027.323m14.663-.969c-.226-.759-.637-1.071-.917-1.198a.9.9 0 0 1-.434-.413h-4.613v.645c1.274 0 3.003 0 4.155.002h.055q.195-.01.385.032a.515.515 0 0 1 .44.528.54.54 0 0 1-.265.373c.494.021.727.029 1.194.031M6.096 1.29a.9.9 0 0 1-.434.413c-.279.127-.691.439-.917 1.198a41 41 0 0 0 2.103-.054 2 2 0 0 1-.295-.207.63.63 0 0 1-.235-.405.58.58 0 0 1 .417-.572c.132-.04.271-.056.409-.048h.055c1.051-.002 2.356-.003 3.51-.003V1.29zm-3.315 9.03h.566a1 1 0 0 1-.056-.323q0-.108.024-.212zm17.273-6.45h1.609C21.538 2.01 20.337.645 18.771.645h-.078a.245.245 0 0 0-.244.244.25.25 0 0 0 .154.226c.516.235 1.362.901 1.451 2.755m-6.698 12.638a5.4 5.4 0 0 1-1.062.19q-.296.037-.593.069l-.167.014a4 4 0 0 0-.289-.618q.193-.022.386-.037.29-.032.58-.068a4.8 4.8 0 0 0 1.145-.222zm-.284-3.609h-2.363a.323.323 0 0 1-.322-.322v-2.58c0-.177.145-.322.322-.322h2.24a2.2 2.2 0 0 0-.359.645h-1.558v1.934h1.627q.096.212.236.403zm-5.467 5.147.005-.01v.008zM3.292 11.61v.644h-.645v-.644zm1.29 7.094v.645h-.645v-.645zm16.769-7.417v.645h-.645v-.645zm-1.29 7.417v.645h-.645v-.645zM8.774 11.932v.645h-.645v-.645zm3.548-1.29v1.29h-.645v-1.29zM4.064 6.927l.395.642-.549.338-.395-.642zm14.18 13.902c.875 0 1.586.712 1.586 1.585 0 .875-.711 1.586-1.586 1.586H6.606a1.586 1.586 0 0 1 0-3.171h.427a1.6 1.6 0 0 1-.247-.845c0-.785.574-1.437 1.324-1.563v-.786c0-.385-.172-.744-.473-.986l-.034-.028a1.16 1.16 0 0 0-.723-.254c-.497 0-.902-.404-.902-.9s.405-.9.902-.9h.744c.836 0 1.653.288 2.304.812a3.63 3.63 0 0 1 1.363 2.842v.177h2.565v-5.272l-.557-.764a1.76 1.76 0 0 1-.342-1.045v-.233a1.78 1.78 0 0 1 1.781-1.775h1.418a1.78 1.78 0 0 1 1.781 1.775v.233c0 .379-.118.739-.341 1.045l-.559.764v5.376a1.59 1.59 0 0 1 1.027 1.482c0 .311-.092.599-.246.845zm-3.385-5.232a.263.263 0 0 1-.021-.372l.345-.389v-.794a1.8 1.8 0 0 1-.586-.196v4.552h1.7v-4.552a1.8 1.8 0 0 1-.585.196v.794l.345.389a.264.264 0 0 1-.023.372.26.26 0 0 1-.175.068.27.27 0 0 1-.198-.089l-.214-.241-.214.241a.27.27 0 0 1-.198.089.27.27 0 0 1-.176-.068m-6.758.475a2 2 0 0 1 .75 1.563v.763h1.7v-.177a3 3 0 0 0-.076-.662l-.406-.062a1.67 1.67 0 0 1-1.398-1.438l-.072-.585a3 3 0 0 0-.975-.167H6.88a.16.16 0 0 0-.162.16.16.16 0 0 0 .162.159c.431 0 .852.149 1.186.418zm8.342 7.188a3.01 3.01 0 0 1 2.057-1.616l.06-.012a.8.8 0 0 0-.316-.063H6.606a.847.847 0 0 0 0 1.691h.558l-.007-.006a.82.82 0 0 1-.265-.604c0-.409.307-.76.714-.816l.985-.136a1.116 1.116 0 0 1 1.197 1.497l-.025.065zm-8.817-3.672a.84.84 0 0 0-.099.396c0 .466.379.845.846.845h4.31a1.524 1.524 0 0 1 2.267-1.097l.199.113c.374.214.636.574.73.984h.599a.847.847 0 0 0 0-1.691h-4.935l-.125.202a2.15 2.15 0 0 1-1.831 1.017c-.348 0-.701-.085-1.028-.261zm6.072-8.271c0 .22.068.431.199.608l.709.971a1.044 1.044 0 0 0 1.682 0l.71-.971c.13-.177.199-.388.199-.608v-.233c0-.451-.293-.835-.698-.976v.301a.265.265 0 0 1-.265.265.265.265 0 0 1-.264-.265v-.359h-.258v.684a.265.265 0 0 1-.265.265.265.265 0 0 1-.264-.265v-.684h-.258v.359a.265.265 0 0 1-.265.265.265.265 0 0 1-.264-.265v-.301a1.04 1.04 0 0 0-.698.976zm1.157.309a.3.3 0 0 1-.303.301.3.3 0 0 1-.302-.301.303.303 0 0 1 .605 0m1.672.012a.303.303 0 0 1-.303.302.3.3 0 0 1-.302-.302.302.302 0 0 1 .605 0"/></svg>