<svg xmlns="http://www.w3.org/2000/svg" viewBox="0 0 24 24"><path d="M24 16.375a3.05 3.05 0 0 1-.246 1.231 3.11 3.11 0 0 1-1.672 1.66 3.1 3.1 0 0 1-1.225.247 3.7 3.7 0 0 1-.71-.073 4 4 0 0 1-.739-.218 3.2 3.2 0 0 1-.676-.37 2 2 0 0 1-.507-.515.46.46 0 0 1-.08-.275.44.44 0 0 1 .152-.346.5.5 0 0 1 .346-.138.6.6 0 0 1 .201.04.4.4 0 0 1 .186.17.05.05 0 0 0 .016.032l.064.065a1.8 1.8 0 0 0 .798.507 3 3 0 0 0 .943.154 2.1 2.1 0 0 0 .846-.17 2.2 2.2 0 0 0 1.16-1.16 2.1 2.1 0 0 0 .176-.841v-1.109a3.1 3.1 0 0 1-.985.637 3.1 3.1 0 0 1-1.193.234 3.05 3.05 0 0 1-1.231-.246 3.14 3.14 0 0 1-1.66-1.66 3 3 0 0 1-.247-1.232v-2.544a3.1 3.1 0 0 1 .247-1.225 3.2 3.2 0 0 1 .668-1 3.2 3.2 0 0 1 .986-.669 3.15 3.15 0 0 1 2.463 0 3.1 3.1 0 0 1 1.668 1.668 3.1 3.1 0 0 1 .246 1.225v5.92zm-.967-5.92a2.1 2.1 0 0 0-.17-.846 2.2 2.2 0 0 0-1.16-1.16 2.2 2.2 0 0 0-1.692 0 2.2 2.2 0 0 0-1.166 1.16 2.1 2.1 0 0 0-.168.845v2.531a2.1 2.1 0 0 0 .168.853 2.2 2.2 0 0 0 .468.693 2.2 2.2 0 0 0 .694.467 2.2 2.2 0 0 0 1.692 0 2.2 2.2 0 0 0 1.16-1.16 2.1 2.1 0 0 0 .174-.853zm-7.252 5.356a.44.44 0 0 1-.154.363.51.51 0 0 1-.66 0 .43.43 0 0 1-.153-.363v-5.356a2.1 2.1 0 0 0-.17-.846 2.2 2.2 0 0 0-1.16-1.16 2.2 2.2 0 0 0-1.692 0 2.2 2.2 0 0 0-1.16 1.16 2.1 2.1 0 0 0-.17.846v5.356a.43.43 0 0 1-.152.363.51.51 0 0 1-.661 0 .43.43 0 0 1-.153-.363v-5.356a3.1 3.1 0 0 1 .246-1.225 3.2 3.2 0 0 1 .67-1 3.2 3.2 0 0 1 .984-.669 3.15 3.15 0 0 1 2.464 0 3.1 3.1 0 0 1 1.667 1.668 3.1 3.1 0 0 1 .247 1.225zm-8.383 0a.44.44 0 0 1-.152.363.51.51 0 0 1-.662 0 .43.43 0 0 1-.152-.363V7.956a.44.44 0 0 1 .152-.363.51.51 0 0 1 .662 0 .44.44 0 0 1 .152.363zM4.982 8.44a.46.46 0 0 1-.145.338.48.48 0 0 1-.355.142.5.5 0 0 1-.339-.145l-.016-.017a.2.2 0 0 0-.032-.024.1.1 0 0 1-.033-.025 1.9 1.9 0 0 0-1.24-.43q-.871 0-1.363.595-.491.596-.492 1.693v5.243a.44.44 0 0 1-.153.363.53.53 0 0 1-.33.123.53.53 0 0 1-.33-.123.43.43 0 0 1-.153-.363v-5.243A4.4 4.4 0 0 1 .18 9.303a3 3 0 0 1 .53-1.031 2.55 2.55 0 0 1 .878-.706 2.8 2.8 0 0 1 1.231-.257 3.1 3.1 0 0 1 1.065.209 2.6 2.6 0 0 1 .934.58.48.48 0 0 1 .163.343zm2.76-3.128a.826.826 0 0 1-.826.827.826.826 0 0 1-.827-.827.826.826 0 0 1 .827-.826.826.826 0 0 1 .826.826"/></svg>