<svg xmlns="http://www.w3.org/2000/svg" viewBox="0 0 24 24"><path d="M20.056.641c-.482-.419-1.183-.615-2.27-.64-.988-.021-2.16.193-3.49.63-.198.07-.357.18-.499.318A64 64 0 0 0 9.89 4.953l-.096.105a.09.09 0 0 0-.011.107c.02.035.061.052.1.044l.14-.031a60 60 0 0 1 6.009-.971.46.46 0 0 1 .362.117.47.47 0 0 1 .15.352 55 55 0 0 0 .214 5.88l.01.126a.09.09 0 0 0 .072.08q.009.003.021.005a.1.1 0 0 0 .079-.04l.071-.102a56 56 0 0 1 3.614-4.61.74.74 0 0 0 .208-.416c.4-2.572-.221-4.475-.776-4.958M15.659 6.17l-.002-.122a.1.1 0 0 0-.061-.085.1.1 0 0 0-.102.026l-.081.092A58.3 58.3 0 0 0 6.92 19.048l-.052.11a.09.09 0 0 0 .015.104.1.1 0 0 0 .065.029.1.1 0 0 0 .037-.007l.112-.046a56 56 0 0 1 5.796-2.037.44.44 0 0 0 .269-.222c.849-1.655 2.82-4.86 2.82-4.86.05-.072.037-.18.037-.18s-.338-3.831-.36-5.77M6.732 17.341c.068-.131.378-.73.448-.862l.013-.024a59.3 59.3 0 0 1 7.526-10.989l.08-.094a.1.1 0 0 0 .011-.104.09.09 0 0 0-.094-.048l-.122.017a60 60 0 0 0-5.757 1.085.76.76 0 0 0-.338.205 65 65 0 0 0-4.02 5.354.47.47 0 0 0-.068.316c.013.098.312 2.402.767 4.17-1.127 3.242-2.133 7.515-2.133 7.515a.1.1 0 0 0 .013.08.09.09 0 0 0 .074.038h.641a.1.1 0 0 0 .093-.061l.043-.12a60 60 0 0 1 2.227-5.27c.192-.398.596-1.208.596-1.208Zm3.825 1.489-.16.053c-1.025.34-2.543.866-3.905 1.493a.33.33 0 0 0-.12.13l-.092.213-.004.01c-.154.348-.363.87-.454 1.083l-.07.168a.07.07 0 0 0 .017.077.06.06 0 0 0 .046.02q.014 0 .03-.007l.164-.079c.374-.176.846-.445 1.339-.68l.017-.01a886 886 0 0 0 2.641-1.255s.103-.054.156-.157l.478-.96a.07.07 0 0 0-.009-.077.07.07 0 0 0-.073-.022z"/></svg>