<svg xmlns="http://www.w3.org/2000/svg" viewBox="0 0 24 24"><path d="M4.957 10.225a3.405 3.405 0 0 1 3.4-3.403 3.406 3.406 0 0 1 3.402 3.403 1.235 1.235 0 1 1-2.469 0 .932.932 0 0 0-1.865 0 1.234 1.234 0 1 1-2.468 0m14.086 5.717c0 .684-.552 1.236-1.234 1.236H6.357a1.234 1.234 0 0 1-1.234-1.236c0-.684.553-1.237 1.234-1.237H17.81c.682 0 1.234.553 1.234 1.237m-5.35-5.025a1.235 1.235 0 0 1 .333-1.714l2.862-1.933a1.23 1.23 0 0 1 1.715.328 1.235 1.235 0 0 1-.334 1.715l-2.862 1.933c-.545.383-1.335.238-1.715-.329m7.839 7.602a.88.88 0 0 1-.258.623l-2.128 2.127a.88.88 0 0 1-.623.258H5.477a.88.88 0 0 1-.623-.258l-2.128-2.127a.88.88 0 0 1-.258-.623V5.482a.88.88 0 0 1 .258-.623l2.128-2.128a.88.88 0 0 1 .623-.258h13.046a.88.88 0 0 1 .623.258l2.128 2.128a.88.88 0 0 1 .258.623zm1.81-15.083L20.565.658A2.25 2.25 0 0 0 18.977 0H5.022a2.25 2.25 0 0 0-1.588.658L.657 3.436A2.25 2.25 0 0 0 0 5.023v13.955c0 .595.237 1.166.658 1.587l2.778 2.778c.42.42.991.657 1.587.657h13.954a2.25 2.25 0 0 0 1.588-.657l2.778-2.778A2.24 2.24 0 0 0 24 18.977V5.023a2.25 2.25 0 0 0-.657-1.587"/></svg>