<svg xmlns="http://www.w3.org/2000/svg" viewBox="0 0 24 24"><path d="M3.29 9.198c.138-.024.235-.17.235-.32a.31.31 0 0 0-.183-.3s-.088-.06-.577-.06C1.059 8.519 0 9.599 0 11.337v3.799a.356.356 0 0 0 .711 0v-3.798c0-1.378.847-2.189 2.136-2.137.086.004.335.025.443-.002m17.89-.693c-1.64 0-2.83 1.19-2.83 2.832v3.798a.356.356 0 1 0 .71 0v-3.798c0-1.222.892-2.109 2.12-2.109 1.222 0 2.109.887 2.109 2.109v3.798a.355.355 0 1 0 .711 0v-3.798c0-1.641-1.186-2.832-2.82-2.832m-6.897 0c-1.837 0-3.33 1.578-3.33 3.518 0 1.912 1.493 3.467 3.33 3.467 1.843 0 3.343-1.555 3.343-3.467 0-1.94-1.5-3.518-3.343-3.518m2.62 3.518c0 1.533-1.176 2.781-2.62 2.781s-2.62-1.248-2.62-2.781c0-1.562 1.175-2.832 2.62-2.832 1.444 0 2.62 1.27 2.62 2.832M6.872 8.505c-1.836 0-3.33 1.578-3.33 3.518 0 1.912 1.494 3.467 3.33 3.467 1.844 0 3.343-1.555 3.343-3.467 0-1.94-1.5-3.518-3.343-3.518m2.62 3.518c0 1.533-1.175 2.781-2.62 2.781-1.444 0-2.62-1.248-2.62-2.781 0-1.562 1.176-2.832 2.62-2.832s2.62 1.27 2.62 2.832"/></svg>