<svg xmlns="http://www.w3.org/2000/svg" viewBox="0 0 24 24"><path d="M8.513 12.27 2.6 18.177a.24.24 0 0 1-.174.072l-.02-.001a.25.25 0 0 1-.178-.102 12 12 0 0 1-.889-1.452.25.25 0 0 1 .045-.287l5.638-5.628a9.4 9.4 0 0 0 2.776-6.694.245.245 0 0 1 .49 0v3.911a6 6 0 0 1-1.774 4.274zM18 .842a.24.24 0 0 0-.245 0 .25.25 0 0 0-.122.212v10.855a6 6 0 0 0 1.773 4.273l1.997 1.995a.25.25 0 0 0 .173.072l.021-.001a.26.26 0 0 0 .18-.102A11.9 11.9 0 0 0 24 11.21c0-4.255-2.298-8.228-6-10.367zM6.367 4.085V1.054A.244.244 0 0 0 6 .842C2.3 2.982 0 6.954 0 11.21c0 .34.018.705.056 1.115.01.094.072.174.161.208a.3.3 0 0 0 .084.014.25.25 0 0 0 .172-.071l4.123-4.118a6 6 0 0 0 1.771-4.273m10.614 14.52a9.4 9.4 0 0 1-2.778-6.696V7.996a.245.245 0 1 0-.489 0 9.4 9.4 0 0 1-2.776 6.696l-5.915 5.905a.24.24 0 0 0-.071.193.24.24 0 0 0 .102.18A11.93 11.93 0 0 0 12 23.192a11.93 11.93 0 0 0 6.947-2.222.24.24 0 0 0 .1-.18.24.24 0 0 0-.068-.193z"/></svg>