<svg xmlns="http://www.w3.org/2000/svg" viewBox="0 0 24 24"><path d="M21.364 9.897c0-.448-.029-.896-.096-1.325 0-.028-.009-.057-.009-.086-.582-3.785-3.452-6.894-7.228-7.723a.96.96 0 1 0-1.144 1.144v3.519c0 .057.028.114.076.152a.2.2 0 0 0 .105.029c.019 0 .048 0 .067-.01l1.411-.534a.7.7 0 0 0 .41.286v1.659c-.715.878-1.602 1.669-2.546 2.375l-1.077-2.499a.73.73 0 0 0 .333-.61.734.734 0 1 0-.734.734h.038l1.125 2.603c-.658.477-1.335.906-2.002 1.297l-3.204-.963a.16.16 0 0 0-.114.01l-.954.372a.734.734 0 1 0 .143.438c0-.028-.009-.057-.009-.086l.896-.352 2.794.839a33.5 33.5 0 0 1-4.873 2.231l-.171.057a.92.92 0 0 0-.553-.181h-.029a8.7 8.7 0 0 1-.677-3.366c0-.572.057-1.135.162-1.678H7.69a.726.726 0 0 0 .706.543.734.734 0 0 0 0-1.468.73.73 0 0 0-.706.543h-4.1c.772-3.137 3.251-5.644 6.455-6.388a.98.98 0 0 0 .82.467c.534 0 .963-.429.963-.963S11.399 0 10.865 0a.97.97 0 0 0-.944.763c-4.205.953-7.285 4.739-7.285 9.125a9.3 9.3 0 0 0 .735 3.642.967.967 0 0 0 .372 1.602v3.757c0 .067.019.134.057.191l.21.143 2.851 2.012v2.403c0 .2.162.362.362.362h9.535c.2 0 .362-.162.362-.362v-2.403l2.861-2.012.21-.153a.34.34 0 0 0 .057-.19v-3.786a.958.958 0 0 0 .353-1.535 9 9 0 0 0 .763-3.662m-1.383 3.366h-.086a.96.96 0 0 0-.334 1.86v3.509l-3.003 2.117a.36.36 0 0 0-.153.295v2.022a.21.21 0 0 1-.21.209H15.08a.21.21 0 0 1-.21-.209v-.725c0-.191-.133-.362-.324-.382a.367.367 0 0 0-.401.363v.753c0 .115-.095.21-.209.21h-1.364a.21.21 0 0 1-.21-.21v-1.116c0-.19-.133-.362-.324-.381a.366.366 0 0 0-.4.362v1.145a.21.21 0 0 1-.21.209h-1.364a.21.21 0 0 1-.209-.209v-.744c0-.191-.134-.362-.325-.382a.366.366 0 0 0-.4.363v.753c0 .115-.095.21-.21.21H7.805a.21.21 0 0 1-.21-.21v-2.021a.37.37 0 0 0-.153-.296l-2.994-2.117v-3.547a.96.96 0 0 0 .563-.877c0-.057-.01-.114-.019-.172.381-.133 3.289-1.173 6.15-2.956 3.871-2.412 6.017-5.149 6.264-7.961a8.74 8.74 0 0 1 3.157 5.473c-.048 4.777-8.372 7.723-8.458 7.752-.019.009-.067.019-.105.038-.105-.019-.21-.038-.324-.057-.076-.019-.162-.029-.239-.048-.124-.019-.247-.048-.371-.076-.02-.01-.048-.01-.067-.01l-.143-.028c-.057-.01-.115-.029-.172-.039a5 5 0 0 1-.391-.095c-.238-.057-.467-.124-.696-.181-.219-.067-.448-.124-.658-.191H8.92a6 6 0 0 1-.467-.152 1 1 0 0 0-.153-.048c-.076-.029-.143-.048-.209-.067a3 3 0 0 1-.344-.124h-.009a6 6 0 0 1-.458-.171c-.143-.058-.267-.105-.362-.143-.096-.048-.181-.077-.229-.105-.057-.029-.086-.038-.086-.038s.019.028.057.066c.038.048.096.115.181.191.077.076.182.172.306.267s.267.2.419.305h.01a2.1 2.1 0 0 0-.096.61c0 1.097.897 1.993 1.993 1.993.849 0 1.573-.534 1.86-1.287l.295.029c.172.009.334.009.486.009.01 0 .019.01.029.01l1.611 1.64c.41.41 1.049.477 1.526.162l2.517-1.411a.8.8 0 0 0 .363-.658v-2.899c.972-.772 1.85-1.688 2.422-2.727a8.1 8.1 0 0 1-.601 2.145m-7.799 5.87-.002-.002q-.002-.003-.008-.003l-.013-.009-.003-.002a.03.03 0 0 1-.013-.009c-.01 0-.019-.009-.029-.009-.009 0-.019-.01-.019-.01-.009 0-.019 0-.028-.009h-.115c-.009 0-.019 0-.028.009-.01 0-.019.01-.019.01-.01 0-.019.009-.029.009-.009 0-.019.01-.029.02-.009 0-.009.009-.019.009l-.038.038-.772.963a.276.276 0 0 0 .219.448.28.28 0 0 0 .219-.104l.01-.01a.7.7 0 0 1 1.097 0l.009.01a.287.287 0 0 0 .391.047.277.277 0 0 0 .048-.391l-.782-.953c-.01-.01-.019-.019-.019-.029l-.019-.019zm-1.622-2.265c-.038.076-.095.152-.143.219a1.256 1.256 0 0 1-1.907 0 1.23 1.23 0 0 1-.295-.81c0-.077.009-.144.019-.22.152.076.314.153.476.229.22.095.449.191.687.267a9 9 0 0 0 1.163.315m-6.503-2.184a.5.5 0 0 1-.305-.114.449.449 0 0 1-.133-.506.47.47 0 0 1 .429-.295c.085 0 .162.028.229.067a.46.46 0 0 1 .228.4.46.46 0 0 1-.066.229.42.42 0 0 1-.382.219m16.21-.181a.48.48 0 0 1-.362.181.47.47 0 0 1-.334-.143.47.47 0 0 1-.124-.315c0-.2.124-.371.305-.429a.5.5 0 0 1 .162-.028.48.48 0 0 1 .458.372.3.3 0 0 1 .009.095.7.7 0 0 1-.114.267m-5.845-9.869c0 .029.009.048.009.067l-1.163.438V1.897a.92.92 0 0 0 .658-.457 8.5 8.5 0 0 1 2.823 1.201c-.01 1.411-.554 2.708-1.412 3.881V5.34a.73.73 0 0 0 .544-.706c0-.4-.324-.734-.734-.734a.74.74 0 0 0-.725.734m-3.48-1.735a.734.734 0 0 0-.735.696l-1.458.534a.19.19 0 0 0-.134.181v.925H7.442a.73.73 0 0 0-.705-.544.735.735 0 1 0 0 1.469.73.73 0 0 0 .705-.544h1.364a.19.19 0 0 0 .19-.19v-.983l1.288-.476c.124.238.372.4.648.4a.734.734 0 0 0 .734-.734.725.725 0 0 0-.724-.734m-.41-2.241a.46.46 0 0 1 .343-.153.468.468 0 1 1-.258.859.48.48 0 0 1-.209-.382.45.45 0 0 1 .124-.324m2.097.305a.467.467 0 0 1 .801-.324.462.462 0 0 1-.076.696.43.43 0 0 1-.267.086.45.45 0 0 1-.458-.458"/></svg>