<svg xmlns="http://www.w3.org/2000/svg" viewBox="0 0 24 24"><path d="M5.224 10.525c-1.215.4-3.32 1.384-3.943 1.934q-.103.09-.207.194c-.49.43-.76.851-.89 1.285A4.4 4.4 0 0 0 0 15.208c-.005.842.247 1.369.247 1.369.714 1.428 2.416 2.4 4.21 2.963 1.777.593 5.622.289 7.521.046 5.091-.684 8.389-1.657 10.319-3.237C23.924 15.042 24 13.644 24 13.127a1.5 1.5 0 0 0-.02-.219c-.032-.553-.258-1.62-1.49-2.38a3 3 0 0 0-.33-.197q-.187-.098-.375-.186l-.035-.027-.191-.078a12 12 0 0 0-.629-.264c-.515-.225-.971-.387-1.372-.477a70 70 0 0 1-.041-1.703c0-.7-.244-1.08-.441-1.277-.12-.119-.557-.265-.997-.4a19 19 0 0 0-.93-.287l-.079-.027v.005l-.417-.12h-.001l-.448-.128-.094-.015-.033-.01-.07-.02-.028-.008-.641-.19-.091-.012v-.003l-.213-.057v-.004l-.32-.09v-.001a18 18 0 0 0-.669-.167 70 70 0 0 0-2.689-.502c-.182-.046-1.367-.152-1.367-.152a6 6 0 0 0-1.106.023 4 4 0 0 0-.779.19c-.113.024-.245.103-.383.216a1.4 1.4 0 0 0-.177.146l-.002.002-.125.12-.007.008c-.217.217-.36.412-.454.584-.174.249-.304.479-.341.61-.032.119-.129.578-.228 1.044-.091.432-.184.871-.228 1.054-.048.2-.334.906-.601 1.567-.124.304-.243.598-.334.83m14.384.642c0-.06.076-.06.076.015 0 0 0 .016-.003.036l.003.025c0 .03 0 .456-.03.957q-.013.207-.031.426c-.011.144-.023.289-.03.425-.007.225-.008.431-.007.59.007.154.007.246.007.246v.106c0 .259-.152.593-.396.745l-.04.026h-.001l-.021.013a1.8 1.8 0 0 1-.409.23c-.22.106-.516.223-.942.339-.836.243-1.459.35-1.869.395-1.003.122-2.188.182-3.601.182-.29 0-1.414 0-1.687-.015-3.739-.106-5.988-1.23-5.988-2.036v-.106s.32-2.478.32-2.63.09-.273.09-.182v.06q0 .045.002.093.003.015.008.025t.006.02c.32 1.018 3.45 1.717 7.279 1.717h.638l.205-.003h.001c1.15-.012 3.818-.042 5.842-.954.35-.228.578-.456.578-.745"/></svg>