<svg xmlns="http://www.w3.org/2000/svg" viewBox="0 0 24 24"><path d="M2.429 10.42c-.52 0-1.091.318-1.45.619l.029.04c.556-.39 1.33-.644 1.544-.263.112.201-.079.607-.348.928.065-.142.022-.414-.353-.414-.624 0-1.851.826-1.851 1.672 0 .339.235.56.622.56 1.035 0 2.44-1.698 2.44-2.551 0-.301-.173-.59-.633-.59zm8.738.714v1.903h.454v-.306l.345-.229.628.535h.626l-.91-.764.891-.595h-.68l-.9.619v-1.163zm-7.464.19v1.712h.453v-.543h.98l.546.544h.58l-.589-.575a.77.77 0 0 0 .399-.196.49.49 0 0 0 .14-.357.5.5 0 0 0-.23-.433q-.228-.153-.634-.153zm-1.853.207c.297 0 .274.265.1.492l-.096.106c-.345.34-.664.52-.88.52v-.001c-.179 0-.265-.138-.22-.297.093-.33.69-.82 1.096-.82m17.228.09h-.012a1.3 1.3 0 0 0-.403.063.8.8 0 0 0-.292.166v-.172h-.45v1.902h.455v-.711a.8.8 0 0 0 .293.163 1.3 1.3 0 0 0 .397.061 1.3 1.3 0 0 0 .498-.092.8.8 0 0 0 .349-.26.65.65 0 0 0 0-.769.8.8 0 0 0-.349-.259 1.3 1.3 0 0 0-.486-.092m-9.133 0h-.011a.96.96 0 0 0-.44.096.7.7 0 0 0-.29.258v-.297h-.432v1.359h.454v-.568a.45.45 0 0 1 .081-.271.5.5 0 0 1 .22-.17.8.8 0 0 1 .312-.057.56.56 0 0 1 .261.06.44.44 0 0 1 .18.167.5.5 0 0 1 .065.248v.59h.456v-.663a.7.7 0 0 0-.117-.414.7.7 0 0 0-.314-.254 1.1 1.1 0 0 0-.425-.084m6.667 0a1.5 1.5 0 0 0-.523.094.87.87 0 0 0-.364.263.6.6 0 0 0-.132.378.6.6 0 0 0 .133.385.85.85 0 0 0 .385.26q.252.092.594.091a2.6 2.6 0 0 0 .418-.03q.185-.03.397-.085v-.33a6 6 0 0 1-.398.087 2.4 2.4 0 0 1-.4.03q-.267 0-.45-.073-.18-.073-.224-.213l1.569.003v-.078a.7.7 0 0 0-.131-.42.8.8 0 0 0-.36-.27 1.5 1.5 0 0 0-.514-.092m7.388 0a1.5 1.5 0 0 0-.582.111q-.247.108-.342.284v-.338h-.449v1.359h.454v-.5a.39.39 0 0 1 .144-.306.9.9 0 0 1 .357-.18 1.5 1.5 0 0 1 .418-.052zm-9.66 0a1.5 1.5 0 0 0-.524.094.87.87 0 0 0-.363.263.6.6 0 0 0-.133.378.6.6 0 0 0 .134.385.85.85 0 0 0 .385.26q.252.092.594.092a2.6 2.6 0 0 0 .418-.03q.184-.032.397-.086v-.33a5 5 0 0 1-.398.087 2.4 2.4 0 0 1-.4.03q-.267 0-.45-.072-.18-.074-.224-.213l1.569.002v-.078a.7.7 0 0 0-.131-.42.8.8 0 0 0-.36-.27 1.5 1.5 0 0 0-.515-.092zm6.958 0a1.5 1.5 0 0 0-.523.094.87.87 0 0 0-.364.263.6.6 0 0 0-.132.378.6.6 0 0 0 .134.385.85.85 0 0 0 .385.26q.252.092.594.092a2.6 2.6 0 0 0 .418-.03q.184-.032.397-.086v-.33q-.22.056-.398.087a2.4 2.4 0 0 1-.4.03 1.2 1.2 0 0 1-.45-.072q-.18-.074-.224-.213l1.569.002v-.078a.7.7 0 0 0-.131-.42.8.8 0 0 0-.36-.27 1.5 1.5 0 0 0-.515-.092m-17.142.057h1.15a.7.7 0 0 1 .304.054.18.18 0 0 1 .115.177q0 .121-.115.176a.7.7 0 0 1-.304.056h-1.15zm3.837 0v.645a.36.36 0 0 1-.07.222.46.46 0 0 1-.197.146.8.8 0 0 1-.287.052.7.7 0 0 1-.279-.052.45.45 0 0 1-.192-.148.37.37 0 0 1-.07-.22v-.645h-.456v.645a.7.7 0 0 0 .123.407.8.8 0 0 0 .35.268q.225.095.53.095t.532-.095a.8.8 0 0 0 .35-.268.7.7 0 0 0 .122-.407v-.645zm6.343.243q.21 0 .354.083a.35.35 0 0 1 .178.217h-1.09a.35.35 0 0 1 .188-.22q.15-.08.37-.08m2.272 0q.21 0 .355.083a.35.35 0 0 1 .177.217h-1.09a.35.35 0 0 1 .189-.22q.15-.08.37-.08zm4.687 0q.21 0 .354.083a.35.35 0 0 1 .177.217h-1.089a.36.36 0 0 1 .188-.22q.15-.08.37-.08m-2.293.033a.9.9 0 0 1 .29.05.46.46 0 0 1 .203.143.33.33 0 0 1 .071.209.34.34 0 0 1-.07.211.46.46 0 0 1-.204.142.9.9 0 0 1-.312.05 1 1 0 0 1-.305-.044.5.5 0 0 1-.227-.137.31.31 0 0 1-.086-.222.3.3 0 0 1 .086-.22.54.54 0 0 1 .228-.135 1 1 0 0 1 .304-.047z"/></svg>