<svg xmlns="http://www.w3.org/2000/svg" viewBox="0 0 24 24"><path d="m23.835 11.703-1.008-.623-.028-.294.866-.807a.348.348 0 0 0-.116-.578l-1.106-.414a9 9 0 0 0-.087-.285l.69-.96a.346.346 0 0 0-.226-.544l-1.166-.19a9 9 0 0 0-.14-.261l.49-1.076a.34.34 0 0 0-.028-.336.35.35 0 0 0-.3-.154l-1.185.041a7 7 0 0 0-.188-.227l.273-1.153a.347.347 0 0 0-.417-.417l-1.153.273-.228-.188.041-1.184a.344.344 0 0 0-.49-.328l-1.076.49-.262-.14-.19-1.167a.348.348 0 0 0-.545-.226l-.96.69a9 9 0 0 0-.285-.086L14.597.453a.348.348 0 0 0-.578-.116l-.807.867a9 9 0 0 0-.294-.028L12.295.168a.346.346 0 0 0-.59 0l-.623 1.008-.294.028L9.98.337a.346.346 0 0 0-.578.116l-.414 1.106-.285.086-.959-.69a.348.348 0 0 0-.545.226l-.19 1.167a9 9 0 0 0-.262.14l-1.076-.49a.346.346 0 0 0-.49.328l.041 1.184a8 8 0 0 0-.228.187l-1.153-.272a.347.347 0 0 0-.417.417l.271 1.153-.186.227-1.184-.042a.346.346 0 0 0-.328.49l.49 1.077a9 9 0 0 0-.14.262l-1.166.19a.348.348 0 0 0-.226.544l.69.958-.087.286-1.106.414a.348.348 0 0 0-.116.578l.866.807a9 9 0 0 0-.028.294l-1.008.623a.344.344 0 0 0 0 .59l1.008.623q.012.147.028.294l-.866.807a.346.346 0 0 0 .116.578l1.106.415q.042.144.087.285l-.69.959a.345.345 0 0 0 .227.544l1.166.19q.069.132.14.262l-.49 1.076a.346.346 0 0 0 .328.49l1.183-.041q.093.115.187.227l-.27 1.154a.346.346 0 0 0 .416.417l1.153-.272q.113.096.228.187l-.041 1.184a.344.344 0 0 0 .49.327l1.076-.49q.13.073.262.14l.19 1.167a.348.348 0 0 0 .545.227l.959-.69a9 9 0 0 0 .285.086l.414 1.107a.345.345 0 0 0 .578.115l.808-.865.294.03.623 1.006a.347.347 0 0 0 .59 0l.623-1.007q.148-.013.294-.03l.807.866a.348.348 0 0 0 .578-.115l.414-1.107a9 9 0 0 0 .285-.087l.959.69a.345.345 0 0 0 .545-.226l.19-1.166.262-.14 1.076.49a.347.347 0 0 0 .49-.328l-.041-1.184a7 7 0 0 0 .227-.187l1.153.272a.347.347 0 0 0 .417-.416l-.272-1.155q.095-.112.187-.227l1.184.041a.344.344 0 0 0 .328-.49l-.49-1.076q.072-.13.141-.262l1.166-.19a.348.348 0 0 0 .226-.544l-.69-.959.087-.285 1.106-.414a.346.346 0 0 0 .116-.579l-.866-.807q.016-.147.028-.294l1.008-.624a.344.344 0 0 0 0-.589zm-6.742 8.355a.714.714 0 0 1 .299-1.396.714.714 0 1 1-.3 1.396zm-.342-2.314a.65.65 0 0 0-.771.5l-.358 1.669a8.7 8.7 0 0 1-3.619.78 8.7 8.7 0 0 1-3.695-.815L7.95 18.21a.65.65 0 0 0-.772-.5l-1.473.317a9 9 0 0 1-.761-.898h7.167c.081 0 .136-.014.136-.088v-2.536c0-.074-.054-.088-.136-.088h-2.096v-1.608h2.268c.206 0 1.106.059 1.393 1.209.09.353.288 1.504.424 1.873.134.413.683 1.238 1.268 1.238h3.572a1 1 0 0 0 .13-.013 9 9 0 0 1-.813.952zm-9.914 2.28a.714.714 0 1 1-.3-1.396.714.714 0 0 1 .3 1.396M4.117 8.997a.714.714 0 1 1-1.303.58.714.714 0 0 1 1.304-.58m-.834 1.981 1.534-.682a.65.65 0 0 0 .33-.858l-.316-.715h1.244v5.602H3.567a8.8 8.8 0 0 1-.284-3.348zm6.734-.543V8.784h2.96c.153 0 1.08.177 1.08.87 0 .574-.712.78-1.296.78zm10.757 1.486q0 .329-.024.651h-.9c-.09 0-.127.059-.127.148v.413c0 .973-.548 1.184-1.03 1.238-.457.052-.964-.191-1.027-.472-.27-1.518-.72-1.843-1.43-2.403.882-.56 1.799-1.386 1.799-2.492 0-1.193-.82-1.945-1.377-2.315-.783-.516-1.65-.62-1.883-.62H5.468a8.77 8.77 0 0 1 4.907-2.77l1.098 1.152a.65.65 0 0 0 .918.02l1.227-1.173a8.78 8.78 0 0 1 6.004 4.276l-.84 1.898a.65.65 0 0 0 .33.859l1.618.718q.042.43.042.872zm-9.3-9.6a.713.713 0 1 1 .984 1.032.714.714 0 0 1-.984-1.031m8.339 6.71a.71.71 0 0 1 .939-.362.714.714 0 1 1-.94.364z"/></svg>