<svg xmlns="http://www.w3.org/2000/svg" viewBox="0 0 24 24"><path d="M23.981 5.105a.31.31 0 0 0-.407-.174l-2.338.815a24 24 0 0 1-3.13.822c-2.163.395-3.716-1.337-3.716-1.337a.32.32 0 0 0-.36-.102 5 5 0 0 0-.455.174A13.15 13.15 0 0 1 15.277.507a.264.264 0 0 0 0-.372.37.37 0 0 0-.408-.113 27 27 0 0 0-4.196 2.601C7.796 4.86 6.195 7.137 5.997 9.421c-.15 1.858 1.073 3.075 2.242 4.196l.204.198a4.5 4.5 0 0 1-.287 3.59c-1.044 2.303-3.357 4.311-6.259 5.396-.911.348-1.678.6-1.678.6a.31.31 0 0 0-.204.371A.32.32 0 0 0 .32 24h.078a34.3 34.3 0 0 0 6.594-2.356l.599-.3c3.717-1.93 5.7-4.196 5.929-6.69.156-1.588-.786-2.655-1.799-3.596 1.295-1.799 5.491-3.225 5.521-3.225l4.143-1.44a37 37 0 0 0 2.398-.844.3.3 0 0 0 .18-.42zm-11.012.521a10.2 10.2 0 0 0-3.513 2.728 3.3 3.3 0 0 1-.227-1.54c.155-1.709 1.984-3.693 2.266-3.993a30 30 0 0 1 2.793-1.756 12.8 12.8 0 0 0-1.349 4.561Zm-7.715 16.12a10.6 10.6 0 0 0 3.513-4.094 5.74 5.74 0 0 0 .557-2.878 3.04 3.04 0 0 1 .87 2.26c-.228 2.182-2.926 3.74-2.95 3.765-.647.342-1.312.653-1.99.947m7.607-7.146c-.15 1.715-1.247 3.178-2.745 4.389a4 4 0 0 0 .677-1.883c.156-1.636-.989-2.775-2.11-3.866s-2.188-2.158-2.062-3.723c.156-1.834 1.3-3.47 2.697-4.856a5.2 5.2 0 0 0-.76 2.128c-.205 2.009 1.144 3.25 2.313 4.34 1.169 1.092 2.11 1.96 1.984 3.471zm-1.654-4.016a9.4 9.4 0 0 1-1.45-1.57c1.096-1.757 3.596-2.902 4.327-3.196a5.15 5.15 0 0 0 2.848 1.397c-.612.222-4.34 1.535-5.725 3.37"/></svg>