<svg xmlns="http://www.w3.org/2000/svg" viewBox="0 0 24 24"><path d="M15.601 5.53c-1.91.035-3.981.91-5.63 2.56-2.93 2.93-2.083 8.53-1.088 9.525.805.804 6.595 1.843 9.526-1.088a10 10 0 0 0 .584-.643q.064-.437.489-1.106a1.9 1.9 0 0 1-.537.176q-.217.398-.676.855-.53.503-.76.656a.8.8 0 0 1-.437.152q-.524 0-.494-.924-.33.474-.612.7a.9.9 0 0 1-.578.224q-.292 0-.496-.273a1.03 1.03 0 0 1-.193-.507 4 4 0 0 1-.726.583q-.335.197-.74.197-.45 0-.727-.288a.98.98 0 0 1-.257-.524v.004q-.45.414-.79.611a1.3 1.3 0 0 1-.649.197.7.7 0 0 1-.571-.275q-.218-.275-.218-.739 0-.695.302-1.67.301-.976.733-1.797l.842-.312a.2.2 0 0 1 .06-.013q.095 0 .157.14.06.142.061.38 0 .677-.312 1.31-.31.633-.974 1.352-.027.345-.027.474 0 .289.106.458.107.17.282.169a.7.7 0 0 0 .382-.13q.198-.127.602-.523.04-.626.482-1.142.487-.57 1.08-.569.308 0 .494.16a.52.52 0 0 1 .186.417q0 .687-1.459 1.114.133.646.693.646a.8.8 0 0 0 .417-.117q.194-.115.575-.497.048-.378.259-.728.273-.45.701-.73.427-.278.756-.278.415 0 .58.381l.677-.374h.186l-.292.971q-.225.732-.226 1.004 0 .285.202.285.129 0 .285-.137.156-.138.437-.42v.001q.215-.233.392-.494-.285-.127-.285-.375 0-.255.174-.545.173-.29.479-.29.258 0 .258.265 0 .209-.149.596.55-.06.961-.842l.228-.01c1.059-2.438.828-5.075-.83-6.732-1.019-1.02-2.408-1.5-3.895-1.471m4.725 8.203a9 9 0 0 1-1.333 2.151 1 1 0 0 0-.012.147q0 .252.14.423.139.17.34.17.444-.001 1.254-.787-.002.06-.003.121 0 .219.036.666l.733-.172q0-.3.01-.474.016-.236.066-.517.03-.166.152-.315l.186-.216a5 5 0 0 1 .378-.397q.093-.083.162-.13a.26.26 0 0 1 .123-.046q.083 0 .083.106 0 .105-.156.497-.292.73-.292 1.084 0 .262.136.418a.45.45 0 0 0 .358.155q.548 0 1.313-.808v-.381q-.542.64-.784.64-.163 0-.163-.2 0-.15.195-.65.285-.73.285-1.048a.46.46 0 0 0-.112-.319.36.36 0 0 0-.282-.127q-.247 0-.567.233-.319.234-.863.84.08-.393.335-1.08l-.809.156a6.5 6.5 0 0 0-.399 1.074q-.06.234-.092.48a8 8 0 0 1-.49.45.38.38 0 0 1-.229.08.21.21 0 0 1-.174-.082.35.35 0 0 1-.064-.222q0-.15.056-.343t.249-.731l.308-.849zm-17.21-2.927c-.863-.016-1.67.263-2.261.854-1.352 1.352-1.07 3.827.631 5.527 1.7 1.701 4.95 1.21 5.527.632.467-.466 1.07-3.827-.631-5.527-.957-.957-2.158-1.465-3.267-1.486zm12.285.358h.166v.21H15.4zm.427 0h.166v.865l.46-.455h.195l-.364.362.428.684h-.198l-.357-.575-.164.166v.41h-.166zm1.016 0h.166v.21h-.166zm.481.122h.166v.288h.172v.135h-.172v.717q0 .056.02.075.018.02.074.02a.2.2 0 0 0 .078-.01v.141a1 1 0 0 1-.136.014.23.23 0 0 1-.15-.043.15.15 0 0 1-.052-.123v-.79h-.141v-.136h.141zm-3.562.258q.121 0 .207.038.085.036.13.11a.26.26 0 0 1 .045.173h-.176q-.009-.167-.208-.167a.3.3 0 0 0-.164.041.13.13 0 0 0-.06.117q0 .053.045.088.045.036.15.06l.16.039a.47.47 0 0 1 .224.105q.07.069.07.186a.3.3 0 0 1-.052.175.33.33 0 0 1-.152.116.6.6 0 0 1-.226.041q-.205 0-.309-.088-.103-.089-.109-.269h.176q.006.056.017.084a.2.2 0 0 0 .034.054q.066.065.204.065a.3.3 0 0 0 .177-.045.14.14 0 0 0 .067-.119.12.12 0 0 0-.038-.09.3.3 0 0 0-.124-.055l-.156-.038a1 1 0 0 1-.159-.05.4.4 0 0 1-.098-.061.2.2 0 0 1-.058-.083.3.3 0 0 1-.016-.108q0-.144.109-.232a.45.45 0 0 1 .29-.087m1.035 0a.5.5 0 0 1 .202.043.35.35 0 0 1 .187.212.6.6 0 0 1 .023.126h-.168a.26.26 0 0 0-.078-.168.24.24 0 0 0-.17-.06.25.25 0 0 0-.155.05.3.3 0 0 0-.1.144.7.7 0 0 0-.034.224.6.6 0 0 0 .035.214.3.3 0 0 0 .101.135.26.26 0 0 0 .157.048q.213 0 .256-.252h.167a.5.5 0 0 1-.065.22.35.35 0 0 1-.146.138.5.5 0 0 1-.216.048.45.45 0 0 1-.246-.066.44.44 0 0 1-.161-.192.7.7 0 0 1-.057-.293q0-.128.032-.233a.5.5 0 0 1 .095-.182.4.4 0 0 1 .15-.117.45.45 0 0 1 .191-.04zm.603.03h.166v1.046H15.4zm1.443 0h.166v1.046h-.166zm-5.05.618q-.121 0-.356.611-.232.61-.459 1.71.422-.468.683-1.05.262-.58.262-.999a.46.46 0 0 0-.036-.197q-.038-.075-.093-.075zm4.662 1.797q-.332 0-.629.563-.296.564-.296 1.038 0 .18.088.29a.27.27 0 0 0 .223.111q.332 0 .625-.565.294-.566.294-1.043a.46.46 0 0 0-.083-.29.27.27 0 0 0-.222-.104m-2.848.007q-.219 0-.417.333-.2.332-.2.866.849-.238.849-.881 0-.318-.232-.318"/></svg>