<svg xmlns="http://www.w3.org/2000/svg" viewBox="0 0 24 24"><path d="M8.213 4.27A3.62 3.62 0 0 0 4.59 7.893q.001.097.008.2a2.4 2.4 0 0 0-.973-.204 2.416 2.416 0 0 0-2.418 2.418q.001.095.008.191A.722.722 0 0 0 0 11.023c0 .4.324.713.725.721h3.548a4.19 4.19 0 0 1 3.823-2.406c.817 0 1.58.24 2.228.644a5.7 5.7 0 0 1 1.514-2.125A3.627 3.627 0 0 0 8.213 4.27m7.367 3.136a4.95 4.95 0 0 0-4.902 4.254 3.384 3.384 0 0 0-5.732 3.541C3.77 15.44 2.9 16.351 2.9 17.435c0 1.269 1.189 2.295 2.659 2.295.648 0 1.242-.202 1.703-.537l5.437-5.345a3.36 3.36 0 0 1 2.28-.887 3.387 3.387 0 0 1 3.382 3.293q.001-.002-.004-.004c.029.54-.25 1.084-.77 1.383-.724.418-1.632.196-2.029-.492-.4-.692-.136-1.59.588-2.008a1.6 1.6 0 0 1 .526-.19 2.417 2.417 0 1 0-.305 4.78l-.004-.006.069-.008h4.744v.018c1.452-.065 2.824-1.401 2.824-3.03 0-1.668-1.426-3.029-3.094-3.029h-.008c-.27.483-.597.764-.968 1.066.389-.71.611-1.518.611-2.382a4.97 4.97 0 0 0-1.459-3.495 4.93 4.93 0 0 0-3.502-1.45Z"/></svg>