<svg xmlns="http://www.w3.org/2000/svg" viewBox="0 0 24 24"><path d="m13.716 17.261 6.873 6.582L24 20.282l-6.824-6.536a9.1 9.1 0 0 0 1.143-4.43c0-5.055-4.105-9.159-9.16-9.159S0 4.261 0 9.316s4.104 9.159 9.159 9.159a9.1 9.1 0 0 0 4.557-1.214M9.159 2.773a6.546 6.546 0 0 1 6.543 6.543 6.545 6.545 0 0 1-6.543 6.542 6.545 6.545 0 0 1-6.542-6.542 6.545 6.545 0 0 1 6.542-6.543M7.26 5.713a4.065 4.065 0 0 1 4.744.747 4.06 4.06 0 0 1 .707 4.749l1.157.611a5.38 5.38 0 0 0-.935-6.282 5.38 5.38 0 0 0-6.274-.987z"/></svg>