<svg xmlns="http://www.w3.org/2000/svg" viewBox="0 0 24 24"><path d="M11.866 11.277h-.177l-.703-.001v-.001c-1.337-.002-3.426-.009-3.845-.011v-7.37c2.111.089 4.044.121 4.044.121l.304 1.556c.001 0-.745.007-2.361-.03v1.394l1.486.022v1.31L9.128 8.25v1.452c.832.008 1.595.013 2.411.014l1.99-5.615c.3-.008 1.573-.041 1.886-.054l2.637 7.225c-.661.003-1.331-.009-1.993-.006l-.448-1.302q-1.14.012-2.281.016l-.445 1.293c-.355 0-.685 0-1.019.004m2.607-4.625-.693 2.015q.691-.006 1.38-.016zm4.389-1.197q-1.079.066-2.157.112l.307-1.594q2.854-.158 5.694-.497l.306 1.645q-1.079.106-2.16.192l-.01 5.953c-.66.006-1.32-.001-1.98.004zM6.533 9.069c0 1.246-.901 2.401-2.674 2.401-1.61 0-2.42-.752-2.42-.752V8.699c1.101 1.043 3.266 1.745 3.266.482 0-.96-3.266-1.125-3.266-3.518 0-1.342 1.247-2.186 2.675-2.186 1.009 0 1.855.193 2.065.258l-.083 1.772c-.884-.521-2.801-.763-2.801.134 0 .992 3.239 1.002 3.238 3.428m14.861 11.155-1.957-3.596v3.433c-.673-.053-1.982-.133-1.982-.133V12.5l1.982.004c-.007 1.059.008 2.118 0 3.176l2.028-3.18h2.233l-2.314 3.569L24 20.525a91 91 0 0 0-2.606-.301M9.132 18.231q1.338-.029 2.678-.029l-.307 1.561c-.869.003-3.428.062-4.358.122v-7.374h4.038l.307 1.536s-.973-.007-2.358-.008v1.399l1.481-.013v1.323l-1.481.018zm5.162-.001c.707.015 1.905.054 2.682.082l-.32 1.573a87 87 0 0 0-4.349-.121v-7.253l4.051.002.306 1.551-2.371-.015v1.389q.691.006 1.379.017v1.321q-.689-.015-1.379-.025zM3.617 15.549l2.604-.059v4.445s-.7.032-2.26.178C1.746 20.321 0 19.022 0 16.468c0-3.034 2.222-3.993 4.225-3.993.868 0 1.379.016 1.667.031l.328 1.723s-.58-.122-1.673-.122c-1.24 0-2.585.415-2.585 2.078 0 1.791.745 2.392 2.556 2.228l-.001-1.536-1.206.059z"/></svg>