<svg xmlns="http://www.w3.org/2000/svg" viewBox="0 0 24 24"><path d="M13.91 2.505c-.873-1.448-2.972-1.448-3.844 0L6.904 7.92a15.48 15.48 0 0 1 8.53 12.811h-2.221A13.3 13.3 0 0 0 5.784 9.814l-2.926 5.06a7.65 7.65 0 0 1 4.435 5.848H2.194a.365.365 0 0 1-.298-.534l1.413-2.402a5.2 5.2 0 0 0-1.614-.913L.296 19.275a2.18 2.18 0 0 0 .812 2.999 2.24 2.24 0 0 0 1.086.288h6.983a9.32 9.32 0 0 0-3.845-8.318l1.11-1.922a11.47 11.47 0 0 1 4.95 10.24h5.915a17.24 17.24 0 0 0-7.885-15.28l2.244-3.845a.37.37 0 0 1 .504-.13c.255.14 9.75 16.708 9.928 16.9a.365.365 0 0 1-.327.543h-2.287q.043.918 0 1.831h2.297a2.206 2.206 0 0 0 1.922-3.31z"/></svg>