<svg xmlns="http://www.w3.org/2000/svg" viewBox="0 0 24 24"><path d="M12.026 0 1.595 5.992v12.016L12.026 24l10.38-5.992V5.992zM12 3.484l7.43 4.227v8.578l-7.43 4.227-7.348-4.182-.08-8.623zm.049.59q-1.465.845-2.928 1.692v.254l2.608 1.523v.482l.402-.232.256.15v-.336c.884-.506 1.807-1.04 2.568-1.48.004-.123.003-.253.004-.373zM8.335 6.14c-.97.553-1.931 1.122-2.893 1.691v3.402l2.893 1.67.402-.232V9.754l2.49-1.44V7.83zm7.443.088-2.892 1.67v.337l2.636 1.541v3.067l.256.148 2.893-1.67V7.918zM12.13 8.37l-2.893 1.672v3.424q1.447.833 2.893 1.67l2.893-1.672v-3.402zm-6.197 3.723q-.246.143-.49.285v3.402l2.892 1.672.402-.232v-2.918l.473-.274-.473-.273v-.508l-.402.233c-.825-.478-1.69-.976-2.402-1.387m12.248.086-2.403 1.388-.255-.148v.334l-.493.285.493.287v3.067l.255.148 2.893-1.672v-3.402zm-8.47 2.138q-.236.138-.474.274v3.424l2.893 1.67 2.893-1.67v-3.403l-.49-.287-2.403 1.389z"/></svg>