<svg xmlns="http://www.w3.org/2000/svg" viewBox="0 0 24 24"><path d="M14.435 0c-.602.01-1.08.26-1.369.475-.385.286-.509.45-1.093.452-.583.001-.707-.162-1.094-.447S9.77-.15 8.866.096s-1.354.905-1.544 1.346-.216.646-.72.939-.695.213-1.172.16c-.478-.053-1.275.01-1.936.674s-.72 1.461-.664 1.939.135.666-.155 1.172-.493.532-.934.725a2.339 2.339 0 0 0-.945 3.561c.287.386.451.51.453 1.093s-.163.707-.448 1.094-.628 1.109-.383 2.013.905 1.354 1.346 1.545.645.215.938.72.214.694.161 1.171a2.34 2.34 0 0 0 2.613 2.6c.477-.056.666-.135 1.172.156s.532.493.725.933.645 1.1 1.55 1.34 2.016-.22 2.01-.395c-.004-.176-.748.127-1.493-.342s-.692-.759-.856-1.134-.458-1.08-1.279-1.55c-.82-.471-1.576-.369-1.983-.322s-.434.13-.853-.288c-.42-.417-.337-.444-.291-.851.045-.407.142-1.163-.333-1.981s-1.18-1.109-1.556-1.271c-.376-.163-.44-.103-.595-.675s-.07-.555.172-.885c.243-.33.707-.935.704-1.881-.002-.946-.469-1.55-.713-1.88-.244-.328-.33-.31-.177-.882.152-.573.217-.514.592-.678s1.08-.458 1.55-1.278c.471-.82.37-1.577.322-1.983s-.13-.434.288-.854.444-.338.852-.293c.407.045 1.163.145 1.98-.33.818-.475 1.107-1.18 1.27-1.556.162-.376.105-.44.676-.595s.556-.071.885.172c.33.242.936.706 1.881.704s1.55-.47 1.878-.713c.328-.245.31-.33.883-.178s.515.217.68.593c.164.375.458 1.079 1.278 1.55s1.576.369 1.983.322.434-.13.854.288.336.444.29.85-.142 1.164.333 1.982 1.18 1.107 1.556 1.27.44.104.595.676.07.555-.172.885-.707.935-.704 1.88.469 1.55.713 1.878c.244.329.33.31.177.883-.152.573-.217.515-.592.68s-1.08.458-1.55 1.278-.37 1.576-.322 1.983.13.434-.288.854-.444.336-.852.29c-.407-.044-1.163-.142-1.98.333-.818.475-1.11 1.18-1.272 1.556-.135.312-.121.41-.44.523a1 1 0 0 0-.16-.073c-.528-.199-.597.07-1.03.392-.389.29-.667.324-.65.706a.5.5 0 0 0-.1 0c-.088.01-.123.024-.217-.03-.094-.053-.098-.091-.134-.172a.43.43 0 0 0-.287-.248c-.167-.045-.373.04-.372.073 0 .032.139-.024.277.063s.127.14.158.21c.03.07.085.2.237.287s.291.068.366.06c.058-.007.075-.017.114.013.116.396.395.352.88.534.527.199.689.437 1.121.115.317-.236.286-.407.209-.685a2.35 2.35 0 0 0 1.243-1.243c.19-.441.215-.645.72-.938s.694-.214 1.171-.16a2.338 2.338 0 0 0 2.6-2.613c-.055-.478-.135-.666.155-1.172s.494-.532.934-.725a2.338 2.338 0 0 0 .945-3.561c-.287-.386-.451-.51-.452-1.093-.002-.584.162-.708.447-1.095s.628-1.108.383-2.013A2.34 2.34 0 0 0 22.236 7c-.441-.19-.645-.215-.938-.72s-.214-.694-.161-1.172a2.34 2.34 0 0 0-2.613-2.6c-.477.055-.666.136-1.172-.155s-.532-.493-.724-.933a2.34 2.34 0 0 0-1.55-1.34 2.3 2.3 0 0 0-.643-.08Zm-1.534 4.463a91 91 0 0 0-1.975.019.25.25 0 0 0-.244.248v.671h-.914v-.67a.25.25 0 0 0-.244-.25H8.12a.25.25 0 0 0-.244.25V7.7c0 .132.108.248.244.248h1.403a.25.25 0 0 0 .244-.249v-.67h.914v.67c0 .133.108.249.244.249h.58v3.591c-.404.203-.695.599-.695 1.08v5.727a1.232 1.232 0 0 0 2.464 0V12.62c0-.481-.29-.877-.693-1.08V7.95h.687l.037-.033c.111-.098.147-.219.265-.37.115-.149.293-.321.594-.476.836-.284 1.41-.075 1.793.18.192.128.333.269.428.368.047.05.079.086.115.118l.035.026c.015.009.038.025.09.02.051-.005.105-.06.116-.093s.009-.05.008-.066c-.015-.223-.13-1.68-1.715-2.518l-.003-.002-.003-.002a17 17 0 0 0-1.013-.416 7 7 0 0 0-.413-.14 1.4 1.4 0 0 0-.262-.058l-.023-.007-.036-.006-.094-.005a9 9 0 0 0-.286-.006z"/></svg>