<svg xmlns="http://www.w3.org/2000/svg" viewBox="0 0 24 24"><path d="M12 0C5.373 0 0 5.373 0 12a12 12 0 0 0 .033.88c1.07-.443 2.495-.679 4.322-.679h5.762q-.25.914-1.142 1.436-.798.462-1.823.463h-.927q-1.335 0-2.32.463-1.287.605-1.286 1.789-.001 1.34 1.774 2.1a7.4 7.4 0 0 0 2.927.581q1.976 0 3.297-.867 1.535-.996 1.535-2.857 0-1.281-.976-3.676-.975-2.395-.975-3.723 0-4.186 6.916-4.324c.641-.01 1.337-.005 1.916-.004q.888 0 1.66.147A12 12 0 0 0 12 0m4.758 5.691q-1.809 0-1.809 1.506 0 .772 1.067 3.451 1.065 2.68 1.064 4.198 0 3.249-3.607 4.875-2.69 1.196-6.297 1.197c-1.268 0-2.442-.114-3.543-.316A12 12 0 0 0 12 24c6.627 0 12-5.373 12-12a12 12 0 0 0-.781-4.256 3.4 3.4 0 0 1-.832.77h-4.371l1.425-2.828a300 300 0 0 0-2.683.005"/></svg>