<svg xmlns="http://www.w3.org/2000/svg" viewBox="0 0 24 24"><path d="M23.451 3.672q.16.158.277.348c.178.293.272.628.272.97v9.604c0 .342-.095.679-.274.971a1.9 1.9 0 0 1-.383.444c-.335.286-.76.443-1.201.443H11.727a9.77 9.77 0 0 1-5.2 4.365l-.136.049-.135-.052a9.74 9.74 0 0 1-4.499-3.526A9.7 9.7 0 0 1 0 11.701a9.8 9.8 0 0 1 .227-2.1l.052-.237.236-.058q.083-.02.162-.042a12 12 0 0 0 5.568-3.262l.04-.043.232-.239v-.73c0-.343.095-.68.274-.972q.117-.19.278-.346a1.84 1.84 0 0 1 1.193-.537h13.994a1.84 1.84 0 0 1 1.195.537m-15.075.346q-.05 0-.098.004h-.142l.023.021 6.815 6.029a.435.435 0 0 0 .576 0l6.815-6.029.023-.021h-.146a1 1 0 0 0-.098-.004zm-.898.605a.95.95 0 0 0-.072.367v1.586a12 12 0 0 0 4.938 2.681l.114.029.057.015.237.058.051.239a9 9 0 0 1 .1.565l.417-.369zM2.329 16.719a9.05 9.05 0 0 0 4.074 3.312 9 9 0 0 0 5.68-10.036 12.74 12.74 0 0 1-5.555-3.169 12.75 12.75 0 0 1-5.583 3.177 9 9 0 0 0-.161 1.698 9.04 9.04 0 0 0 1.545 5.018m10.684-5.098a9.7 9.7 0 0 1-.837 3.944h10.212l-.028-.025-5.826-5.153-.985.87a.43.43 0 0 1-.575 0l-.985-.87-.984.87q.008.182.008.364m10.029 3.339a.9.9 0 0 0 .072-.366l.001-9.603a1 1 0 0 0-.071-.364l-5.84 5.168zM6.609 8.206a10.24 10.24 0 0 0 4.379 2.464q.11.607.118 1.223v.082a7.23 7.23 0 0 1-1.705 4.655l-.007.008a7.23 7.23 0 0 1-2.97 2.095 7.26 7.26 0 0 1-4.515-6.692q0-.689.129-1.365a10.25 10.25 0 0 0 4.486-2.551zm-3.177 5.053 2.752 2.752h.001l3.831-3.831-.847-.846-2.983 2.984-1.908-1.907z"/></svg>