<svg xmlns="http://www.w3.org/2000/svg" viewBox="0 0 24 24"><path d="M11.913 6.126c3.042 0 5.639 1.042 7.497 2.753l.034-.01q.35-.109.597-.222.79-.365 2.076-1.496-.209 1.97-.449 2.891a12 12 0 0 1-.397 1.197 9.5 9.5 0 0 1 1.024 2.803c.733 3.634-.522 5.24-3.436 6.138q.033.162.052.348c.104 1.063-.44 2.78-1.092 2.78-.43 0-.709-.592-1.008-1.456-.093 1-.554 2.148-1.088 2.148-.575 0-.88-1.06-1.326-2.413C14.171 22.65 13.83 24 13.227 24c-.611 0-.275-1.906-1.308-2.714-5.233.282-9.634-1.63-9.634-7.15a6.7 6.7 0 0 1 .688-2.927q-.12-.232-.222-.457Q2.229 9.614 1.5 7.31q1.866 1.377 2.863 1.64.1.027.208.047C6.314 7.27 8.92 6.126 11.913 6.126m-1.221 7.446c-1.768 0-3.202 1.376-3.202 3.074s1.434 3.075 3.202 3.075 3.201-1.377 3.201-3.075c0-1.656-1.362-3.005-3.069-3.072zm4.544 3.84c-.535 0-.817 1.13-.817 1.636 0 .396.134.615.353.654.531.05.369-.716.634-.716.282 0 .612.783.888.677.328-.194.202-.615.089-.947-.399-.837-.612-1.304-1.147-1.304m3.48-4.02c-1.218 0-2.205 1.208-2.205 2.7 0 1.491.987 2.7 2.205 2.7s2.207-1.209 2.207-2.7-.988-2.7-2.207-2.7M11.1 15a1.8 1.8 0 1 1-.3 3.575 1.8 1.8 0 0 0 0-3.55 2 2 0 0 1 .3-.025m7.5-.6c.828 0 1.5.806 1.5 1.8s-.672 1.8-1.5 1.8q-.154 0-.3-.036c.685-.167 1.2-.893 1.2-1.764 0-.87-.515-1.597-1.2-1.764q.146-.036.3-.036m.17-11.152.195.125a.19.19 0 0 1 .057.26l-1.434 2.193a.19.19 0 0 1-.26.056l-.194-.124a.19.19 0 0 1-.057-.26l1.434-2.194a.19.19 0 0 1 .26-.056zm-13.906.333 1.164 1.65c.06.084.04.202-.045.262l-.192.132a.19.19 0 0 1-.26-.046l-1.165-1.65a.19.19 0 0 1 .046-.262l.19-.132a.19.19 0 0 1 .262.046M12.41 0l.348 2.896 1.287-1.431.036 3.565-.255-.057a9.5 9.5 0 0 0-2.028-.246 5.8 5.8 0 0 0-1.692.24l-.285.086.23-4.46 1.18 2.205z"/></svg>