<svg xmlns="http://www.w3.org/2000/svg" viewBox="0 0 24 24"><path d="M6.342 0A6.35 6.35 0 0 0 0 6.342v11.316A6.35 6.35 0 0 0 6.342 24h11.317A6.35 6.35 0 0 0 24 17.658V6.342A6.35 6.35 0 0 0 17.659 0Zm0 2.15h11.317a4.197 4.197 0 0 1 4.192 4.192v11.316a4.197 4.197 0 0 1-4.192 4.192H6.342a4.197 4.197 0 0 1-4.193-4.192V6.341A4.197 4.197 0 0 1 6.342 2.15m.718 3.488c-.763 0-1.384.621-1.384 1.384v10.004c0 .763.62 1.384 1.384 1.384h10.005c.762 0 1.383-.621 1.383-1.384V7.022c0-.37-.144-.717-.406-.979a1.38 1.38 0 0 0-.978-.405Zm.765 2.15h8.474v8.473H7.825Z"/></svg>