<svg xmlns="http://www.w3.org/2000/svg" viewBox="0 0 24 24"><path d="M12 0C5.373 0 0 5.373 0 12s5.373 12 12 12 12-5.373 12-12S18.627 0 12 0m7.928 4.966.042.876-.916.157q-1.058.291-1.843.813c-.785.522-.966.73-1.33 1.148a6.2 6.2 0 0 0-.888 1.339l-.016.036q-.364.76-.65 1.599a5 5 0 0 1 1.31-.812l.033-.012q.78-.335 1.864-.335 1.259.001 2.111.884c.852.883.853 1.355.853 2.298q0 2.113-1.624 3.659c-1.624 1.546-2.414 1.547-3.992 1.547q-1.883 0-3.003-1.122c-1.12-1.122-1.12-1.743-1.12-2.981q0-3.544 2.52-6.073c2.52-2.529 3.895-2.692 6.65-3.023zM7.925 9.103q.652 0 1.211.081c.388.055.739.159 1.065.307l-.024-.01c.286.13.524.322.705.56l.003.004q.253.348.252.844c-.001.496-.118.614-.356.852q-.356.356-.933.356-.497 0-.828-.272c-.331-.272-.399-.394-.537-.642q-.206-.38-.327-.784c-.121-.404-.146-.493-.197-.674q-.601.037-1.094.459c-.493.422-.495.629-.495 1.046q0 .38.116.596c.116.216.184.265.311.358l.003.002c.162.115.348.217.544.296l.018.006c.151.069.431.177.714.279l.132.041q1.167.433 1.76 1.038.48.492.569 1.241c-.008-.117.117 1.109.018.183q.005.084.006.171 0 .649-.289 1.245c-.289.596-.464.728-.818.992a4.3 4.3 0 0 1-1.336.646l-.03.007q-.774.22-1.967.221-1.083 0-1.789-.184c-.706-.184-.845-.282-1.12-.474q-.422-.289-.575-.617c-.153-.328-.155-.425-.155-.617q0-.524.373-.916c.373-.392.58-.391.991-.391q.515 0 .863.278.356.291.574.691l.006.012c.136.244.259.528.352.824l.009.032c.035.09.106.322.172.556l.034.139q.97.001 1.469-.436c.499-.437.498-.691.498-1.196q0-.333-.15-.558c-.15-.225-.234-.283-.399-.398q-.248-.162-.635-.315c-.387-.153-.513-.198-.765-.289q-1.039-.369-1.644-1.023c-.605-.654-.605-.978-.605-1.628v-.013c0-.391.093-.76.259-1.087l-.006.014q.255-.51.794-.944.532-.414 1.348-.661c.816-.247 1.179-.249 1.906-.249zm8.017 1.874q-.494 0-.933.199c-.439.199-.605.397-.934.792q-.06.274-.21 1.055c-.15.781-.152 1.162-.152 1.923q.001 1.166.365 1.82c.364.654.566.655.968.655q.939 0 1.628-1.295h.002q.69-1.296.69-3.144 0-.928-.402-1.468c-.402-.54-.608-.538-1.022-.538z"/></svg>