<svg xmlns="http://www.w3.org/2000/svg" viewBox="0 0 24 24"><path d="M12 0A12 12 0 0 0 0 12a12 12 0 0 0 12 12 12 12 0 0 0 12-12A12 12 0 0 0 12 0M8.363 3.808q.743 0 1.286.264.542.265.9.7.357.438.523.919.165.48.165.937 0 .419-.207.753t-.515.334a.5.5 0 0 1-.427-.2q-.146-.202-.317-.659-.22-.654-.529-1.02-.309-.367-.991-.367-.634 0-1.022.398a1.32 1.32 0 0 0-.388.958q0 .345.132.599.133.252.363.433.232.18.469.284.237.102.782.3.683.228 1.237.504.553.276.942.67.388.393.606.997.015.047.03.097a12 12 0 0 1-.036-.903q0-1.396.293-2.502.294-1.104.84-1.89.548-.785 1.284-1.195a3.2 3.2 0 0 1 1.57-.411q1.018 0 1.81.56a3.8 3.8 0 0 1 1.216 1.382q.423.825.423 1.556 0 .402-.206.71-.205.306-.496.307-.325 0-.489-.214-.163-.213-.362-.735-.33-.861-.78-1.289a1.54 1.54 0 0 0-1.104-.427q-1.046 0-1.665 1.1-.62 1.098-.62 3.122 0 1.352.275 2.25.274.896.776 1.34.502.442 1.177.442.73 0 1.236-.502.505-.502.762-1.474.108-.459.268-.747.16-.29.514-.289.303 0 .52.293.216.293.216.726 0 .552-.197 1.193a4.7 4.7 0 0 1-.62 1.26 3.3 3.3 0 0 1-1.078 1.003q-.657.386-1.53.386-.662 0-1.205-.172a2.9 2.9 0 0 1-.984-.537 3.9 3.9 0 0 1-.813-.96 6.4 6.4 0 0 1-.564-1.22 8 8 0 0 1-.246-.887q.001.052.004.105 0 1.05-.378 1.887-.377.837-1.104 1.31t-1.724.474q-1.195 0-1.972-.648-.55-.466-.893-1.243a3.7 3.7 0 0 1-.344-1.51q0-.427.206-.73.206-.304.525-.304.258 0 .437.236.18.237.306.702.153.552.333.922.179.37.503.611.326.24.854.24.727 0 1.181-.484.455-.486.455-1.21 0-.576-.245-.934a1.6 1.6 0 0 0-.634-.548 8.5 8.5 0 0 0-1.038-.402q-.87-.292-1.455-.682a2.75 2.75 0 0 1-.93-1.064Q5.33 8.04 5.33 7.039q0-.954.363-1.694a2.6 2.6 0 0 1 1.052-1.139q.688-.398 1.619-.398Zm9.43 12.702h.137q.06 0 .09.03a.4.4 0 0 1 .067.129l.045.118a.3.3 0 0 1 .027.083q0 .035-.043.035a.2.2 0 0 1-.124-.04 1 1 0 0 1-.138-.168.8.8 0 0 1-.111-.166q0-.021.051-.021zm-4.97.501a.16.16 0 0 1 .103.033q.042.032.068.086a1 1 0 0 1 .043.111l.045.16.385 1.331q.045.152.045.221a.22.22 0 0 1-.043.132q-.043.06-.103.06a.1.1 0 0 1-.06-.018.2.2 0 0 1-.043-.048.5.5 0 0 1-.037-.093l-.033-.11-.07-.259h-.6l-.07.265q-.04.155-.07.209t-.096.054q-.055 0-.1-.058a.2.2 0 0 1-.042-.13q0-.043.01-.088l.033-.125.377-1.34.038-.138a1 1 0 0 1 .049-.135.24.24 0 0 1 .067-.087.16.16 0 0 1 .103-.033zm2.502 0a.16.16 0 0 1 .104.033q.041.033.067.086a1 1 0 0 1 .043.111l.045.16.385 1.331q.045.152.045.221a.22.22 0 0 1-.043.132q-.043.06-.103.06a.1.1 0 0 1-.06-.018.14.14 0 0 1-.043-.048.5.5 0 0 1-.036-.093l-.033-.11-.07-.259h-.6l-.07.265a1.2 1.2 0 0 1-.07.209.1.1 0 0 1-.096.054q-.057 0-.1-.058a.2.2 0 0 1-.043-.13q0-.043.01-.088l.033-.125.377-1.34.039-.138a1 1 0 0 1 .048-.135.24.24 0 0 1 .067-.087.16.16 0 0 1 .104-.033m1.05 0q.068 0 .11.063a.35.35 0 0 1 .041.191v1.502h.605q.073 0 .112.05a.2.2 0 0 1 .038.123.2.2 0 0 1-.038.123q-.038.047-.111.047h-.721q-.098 0-.14-.06-.043-.061-.043-.196v-1.59a.36.36 0 0 1 .04-.19q.041-.063.108-.063zm1.675 0a.16.16 0 0 1 .104.033q.042.032.067.086a1 1 0 0 1 .043.111l.045.16.385 1.331q.045.152.045.221a.22.22 0 0 1-.043.132q-.042.06-.103.06a.1.1 0 0 1-.06-.018.14.14 0 0 1-.042-.048.5.5 0 0 1-.037-.093l-.033-.11-.07-.259h-.6l-.07.265a1.2 1.2 0 0 1-.07.209.1.1 0 0 1-.096.054q-.056 0-.1-.058a.2.2 0 0 1-.043-.13q0-.043.01-.088l.033-.125.377-1.34.039-.138a1 1 0 0 1 .048-.135.24.24 0 0 1 .068-.087.16.16 0 0 1 .103-.033m-6.683 0q.18 0 .319.1a.7.7 0 0 1 .214.247q.075.147.074.278 0 .072-.036.127t-.087.055q-.057 0-.086-.038a.6.6 0 0 1-.064-.132.6.6 0 0 0-.138-.229.27.27 0 0 0-.194-.076q-.184 0-.293.196-.11.195-.11.556 0 .24.049.4a.5.5 0 0 0 .137.24.3.3 0 0 0 .207.078q.129 0 .217-.09a.57.57 0 0 0 .135-.262.5.5 0 0 1 .047-.133.1.1 0 0 1 .09-.051q.054 0 .092.052a.2.2 0 0 1 .038.13.7.7 0 0 1-.034.212.8.8 0 0 1-.11.225.6.6 0 0 1-.19.18.5.5 0 0 1-.269.069.7.7 0 0 1-.212-.031.5.5 0 0 1-.173-.097.7.7 0 0 1-.144-.172 1 1 0 0 1-.1-.217 1.5 1.5 0 0 1-.061-.257 2 2 0 0 1-.02-.29q0-.25.051-.446.052-.197.148-.337a.7.7 0 0 1 .227-.213.55.55 0 0 1 .276-.074m-4.117 0q.229 0 .393.13a.8.8 0 0 1 .249.371q.084.24.084.564 0 .24-.046.434a1.1 1.1 0 0 1-.139.34.65.65 0 0 1-.227.219.6.6 0 0 1-.308.076.61.61 0 0 1-.538-.298 1.1 1.1 0 0 1-.138-.342 2 2 0 0 1-.047-.432q0-.238.049-.437a1.1 1.1 0 0 1 .141-.338.65.65 0 0 1 .225-.213.6.6 0 0 1 .302-.073Zm-1.493.001a.55.55 0 0 1 .235.047.53.53 0 0 1 .29.457.25.25 0 0 1-.038.135q-.038.06-.093.06a.09.09 0 0 1-.078-.036.5.5 0 0 1-.058-.118.6.6 0 0 0-.097-.182q-.056-.066-.18-.066a.25.25 0 0 0-.187.071.23.23 0 0 0-.071.171.22.22 0 0 0 .09.185.4.4 0 0 0 .086.05q.044.019.143.054.124.04.226.09a.7.7 0 0 1 .172.12.5.5 0 0 1 .11.178q.04.107.04.263a.8.8 0 0 1-.07.336.54.54 0 0 1-.516.318.56.56 0 0 1-.36-.115.6.6 0 0 1-.163-.221.65.65 0 0 1-.063-.27q0-.075.038-.13a.11.11 0 0 1 .096-.054.1.1 0 0 1 .08.042q.033.043.055.126a1 1 0 0 0 .061.164q.033.066.092.11a.26.26 0 0 0 .156.042q.133 0 .216-.086a.3.3 0 0 0 .083-.217.3.3 0 0 0-.045-.166.3.3 0 0 0-.116-.098 2 2 0 0 0-.19-.072 1.1 1.1 0 0 1-.265-.122.5.5 0 0 1-.17-.19.64.64 0 0 1-.062-.299q0-.171.066-.303a.47.47 0 0 1 .192-.203.6.6 0 0 1 .295-.071m2.65.034h.704q.072 0 .106.045.035.044.035.116a.2.2 0 0 1-.035.118q-.034.044-.105.044h-.589v.528h.492q.069 0 .102.043a.18.18 0 0 1 .034.115.18.18 0 0 1-.034.114q-.035.042-.102.042h-.492v.68q0 .129-.041.191-.042.063-.107.063-.066 0-.108-.063a.35.35 0 0 1-.042-.192v-1.587q0-.09.019-.147a.15.15 0 0 1 .06-.083.2.2 0 0 1 .104-.027zm1.076 0h.95q.077 0 .115.049a.2.2 0 0 1 .038.125.2.2 0 0 1-.039.125q-.038.048-.114.047h-.326v1.498q0 .13-.041.192-.042.063-.107.063-.067 0-.109-.063a.35.35 0 0 1-.041-.192v-1.496h-.326q-.077 0-.114-.048a.2.2 0 0 1-.037-.125.2.2 0 0 1 .039-.127q.038-.046.112-.046zm4.1 0h.95q.077 0 .115.049a.2.2 0 0 1 .038.125.2.2 0 0 1-.038.125q-.039.047-.115.047h-.326v1.498q0 .13-.041.192-.041.063-.107.063c-.066 0-.08-.021-.108-.063a.35.35 0 0 1-.042-.192v-1.496h-.326q-.076 0-.113-.048a.2.2 0 0 1-.038-.125.2.2 0 0 1 .039-.127q.039-.046.112-.046zm-6.334.297a.3.3 0 0 0-.165.047.4.4 0 0 0-.13.138.8.8 0 0 0-.087.23 1.4 1.4 0 0 0-.031.315q0 .175.031.318a.8.8 0 0 0 .09.236q.057.095.132.14.075.047.164.047a.32.32 0 0 0 .21-.08.54.54 0 0 0 .154-.248q.056-.169.056-.413a1.3 1.3 0 0 0-.052-.393.54.54 0 0 0-.149-.252.33.33 0 0 0-.223-.085m5.572.11-.219.85h.441zm2.502 0-.218.85h.44zm2.725 0-.218.85h.44zm-6.858 2.39h.392l-.96.96-.197-.195zm.636 0h.392l-1.279 1.279-.196-.196zm.636 0h.392l-1.597 1.596-.196-.195zm.635 0h.393l-1.915 1.915-.196-.197z"/></svg>