<svg xmlns="http://www.w3.org/2000/svg" viewBox="0 0 24 24"><path d="M21.212 4.282Q23.989 7.588 23.989 12q0 4.272-2.602 7.489a934 934 0 0 1-2.101-2.095c-1.477-1.477-1.792-3.293-1.792-5.278 0-2.224.127-3.486 1.577-4.935l2.478-2.478a13 13 0 0 0-.337-.421m-17.7 16.193Q.806 17.779.188 14.213A12 12 0 0 1 .011 12q0-.42.017-.802 0-.039.022-.078.23-3.901 2.767-6.865-.163.19-.316.387S3.852 5.988 4.83 6.965c1.408 1.409 1.726 3.215 1.726 5.151 0 1.985-.249 3.762-1.781 5.295-1.035 1.035-2.119 2.124-2.119 2.124q.169.204.349.404c.029-.027 1.297-1.348 2.123-2.175 1.638-1.637 1.928-3.528 1.928-5.648 0-2.072-.365-3.997-1.873-5.504a620 620 0 0 0-2.366-2.357q.252-.294.523-.576l3.117 3.106-.194.195 1.903 1.898.547-.549L6.81 6.432l-.196.196L3.495 3.52c.01-.009.436-.416.643-.597.009.011 2.28 2.283 2.28 2.283 1.538 1.537 3.5 1.955 5.621 1.955 2.18 0 4.134-.442 5.731-2.038.907-.908 2.153-2.149 2.162-2.16.17.151.491.461.56.528l.013.013-3.111 3.028-.001.002-.197-.194-1.876 1.903.552.543 1.875-1.903-.197-.194 3.109-3.026q.29.305.553.619c-.03.025-2.495 2.546-2.495 2.546-1.556 1.556-1.723 2.9-1.723 5.288 0 2.121.361 4.054 1.939 5.632a577 577 0 0 0 2.133 2.124c-.183.208-.599.645-.613.66l-3.066-3.174.195-.196-1.995-1.986-.546.549 1.995 1.986.195-.196 3.065 3.172c-.021.019-.385.362-.552.506-.01-.013-1.974-1.978-1.974-1.978-1.842-1.842-3.299-2.039-5.731-2.039-2.338 0-3.92.239-5.632 1.95-.944.944-2.078 2.085-2.089 2.099-.275-.23-.649-.594-.649-.594l3.019-3.024.199.192 1.854-1.925-.558-.538-1.854 1.926.199.191zM12 8.672A3.33 3.33 0 0 0 8.672 12 3.33 3.33 0 0 0 12 15.328 3.33 3.33 0 0 0 15.328 12 3.33 3.33 0 0 0 12 8.672M4.52 2.6Q7.737 0 12.011 0q4.32 0 7.541 2.639s-1.215 1.209-2.136 2.13c-1.496 1.496-3.334 1.892-5.377 1.892-1.985 0-3.829-.37-5.267-1.809zm14.837 18.909a10 10 0 0 1-.342.256Q15.983 24 12.011 24q-3.978 0-6.993-2.235-.156-.111-.31-.227s1.096-1.101 2.053-2.058c1.602-1.602 3.09-1.804 5.278-1.804 2.28 0 3.651.166 5.377 1.892z"/></svg>