<svg xmlns="http://www.w3.org/2000/svg" viewBox="0 0 24 24"><path d="M12.422.002a12 12 0 0 0-.527.002c-2.811.077-5.6 1.13-7.797 3.152a.783.783 0 0 0-.012 1.133l.002.002.004.004a.78.78 0 0 0 1.056 0 10.5 10.5 0 0 1 6.854-2.744 10.43 10.43 0 0 1 6.854 2.379.777.777 0 1 0 .99-1.198 11.95 11.95 0 0 0-7.424-2.73M6.996 9.668c-1.3 0-1.908 1.135-2.352 1.965-.376.712-.636 1.146-.976 1.146s-.593-.435-.975-1.146c-.278-.521-.618-1.16-1.154-1.567-.49-.366-1.191-.006-1.191.608v.125c0 .222.118.407.289.54.216.171.417.532.685 1.032.444.83 1.052 1.965 2.352 1.965S5.582 13.2 6.025 12.37c.382-.712.635-1.144.98-1.144.346 0 .598.432.98 1.144.443.83 1.056 1.965 2.35 1.965s1.905-1.135 2.349-1.965c.376-.712.629-1.144.974-1.144.346 0 .599.432.98 1.144.444.83 1.053 1.965 2.352 1.965 1.3 0 1.908-1.135 2.352-1.965.381-.712.638-1.144.978-1.144s.6.432.98 1.144c.28.52.625 1.161 1.16 1.568.49.367 1.192.005 1.192-.609h-.01v-.123a.7.7 0 0 0-.289-.543c-.216-.17-.423-.53-.691-1.031-.443-.83-1.052-1.965-2.352-1.965s-1.908 1.135-2.351 1.965c-.382.712-.635 1.146-.98 1.146-.346 0-.598-.434-.98-1.146-.443-.83-1.056-1.965-2.35-1.965s-1.905 1.135-2.348 1.965c-.377.712-.63 1.146-.975 1.146s-.597-.434-.978-1.146c-.444-.83-1.053-1.965-2.352-1.965m12.283 10.025a10.35 10.35 0 0 1-6.781 2.744 10.33 10.33 0 0 1-6.922-2.377.78.78 0 0 0-1 1.195A11.9 11.9 0 0 0 12.203 24l.012-.01h.33a11.9 11.9 0 0 0 7.797-3.156.79.79 0 0 0 0-1.14.78.78 0 0 0-1.063 0"/></svg>