<svg xmlns="http://www.w3.org/2000/svg" viewBox="0 0 24 24"><path d="M22.406 10.9a7.1 7.1 0 0 0-3.377-2.358v-.085c0-4.035-3.156-7.324-7.047-7.324-3.893 0-7.05 3.282-7.05 7.325v.1C2.081 9.492 0 12.268 0 15.542c0 4.035 3.159 7.325 7.05 7.325a6.9 6.9 0 0 0 4.952-2.108 6.89 6.89 0 0 0 4.947 2.108c3.884 0 7.051-3.282 7.051-7.325a7.57 7.57 0 0 0-1.594-4.643zM16.95 21.014c-2.903 0-5.267-2.456-5.267-5.474a.91.91 0 0 0-.89-.924.906.906 0 0 0-.892.925c0 1.368.367 2.651.994 3.748a5.16 5.16 0 0 1-3.845 1.733c-2.904 0-5.27-2.457-5.27-5.474 0-3.016 2.366-5.473 5.27-5.473.63 0 1.241.117 1.827.335.007 0 .013.007.02.007.203.071.489.21.578.287a.86.86 0 0 0 1.249-.1.94.94 0 0 0-.097-1.3c-.39-.342-.995-.575-1.144-.63a6.8 6.8 0 0 0-2.425-.443q-.169-.002-.338.007c.12-2.916 2.433-5.247 5.27-5.247 2.903 0 5.267 2.456 5.267 5.474a5.57 5.57 0 0 1-2.215 4.463.95.95 0 0 0-.21 1.283c.171.25.45.39.727.39a.86.86 0 0 0 .516-.172 7.38 7.38 0 0 0 2.709-4.02c2.035.785 3.449 2.829 3.449 5.139-.007 3.01-2.371 5.466-5.283 5.466"/></svg>