<svg xmlns="http://www.w3.org/2000/svg" viewBox="0 0 24 24"><path d="M23.678 10.007a.31.31 0 0 0 .016.62.31.31 0 0 0 .306-.308.31.31 0 0 0-.302-.312zm.016.043a.27.27 0 0 1 .27.269.27.27 0 1 1-.27-.27zm-9.503.053-.614 1.863-.013.04-.013-.04-.624-1.855h-.619l.986 2.74h.508l.618-1.788.013-.037.013.037.619 1.787h.507l.986-2.74h-.603l-.622 1.856-.015.04-.013-.04-.613-1.863zm-5.48.006v2.743h.258V10.11zm-7.823 0-.038.002c-.481 0-.85.306-.85.712 0 .41.26.63.898.759.6.12.715.279.715.526 0 .288-.26.49-.631.49a1.23 1.23 0 0 1-.923-.37l-.02-.02v.313a1.48 1.48 0 0 0 .923.31c.524 0 .89-.302.89-.738.005-.393-.257-.614-.872-.738-.619-.127-.739-.288-.739-.541 0-.27.255-.464.608-.464a1.1 1.1 0 0 1 .759.287l.022.018v-.318a1.3 1.3 0 0 0-.742-.227zm4.92.002v2.747h.284v-2.081l1.813 2.08h.063v-2.746h-.272v2.106l-1.828-2.106zm11.672 0-.642 1.721c-.637.117-1.051.393-.848.943.278.76 1.549 1.218 1.549 1.218s-1.285-.801-.613-1.34c.296-.238.819-.414 1.313-.54l.278.719h.541l-.322-.833c.403-.08.708-.122.708-.122s-.36-.043-.785-.077l-.653-1.69zm2.136 0v2.721h1.554v-.49h-1.034v-2.231zm2.106 0v2.721h1.555v-.49H22.24v-2.231zm-17.953.008h-.042a1.3 1.3 0 0 0-.67.176 1.3 1.3 0 0 0-.491.499 1.4 1.4 0 0 0-.185.69 1.3 1.3 0 0 0 .397.953 1.32 1.32 0 0 0 .971.395 1.35 1.35 0 0 0 1.359-1.356 1.3 1.3 0 0 0-.397-.965 1.34 1.34 0 0 0-.942-.392m7.3.002a1.38 1.38 0 0 0-.96.392 1.3 1.3 0 0 0-.4.96 1.38 1.38 0 0 0 .33.923 1.35 1.35 0 0 0 1.077.454 1.5 1.5 0 0 0 .65-.136 1.5 1.5 0 0 0 .265-.185v-.338a1.16 1.16 0 0 1-.899.412 1.13 1.13 0 0 1-.823-.325 1.07 1.07 0 0 1-.325-.794 1.1 1.1 0 0 1 .146-.565 1.1 1.1 0 0 1 .41-.402 1.16 1.16 0 0 1 .576-.15 1.2 1.2 0 0 1 .515.12 1.1 1.1 0 0 1 .4.314v-.35a1.5 1.5 0 0 0-.26-.185 1.5 1.5 0 0 0-.66-.145zm12.661.009h-.174v.37h.094v-.142h.035l.085.142.11-.002-.103-.153a.1.1 0 0 0 .068-.102.11.11 0 0 0-.115-.113m-.026.063a.05.05 0 0 1 .046.054q0 .048-.054.048h-.046v-.101h.054zm-19.97.178h.006a1.1 1.1 0 0 1 .548.153 1.1 1.1 0 0 1 .405.399 1.1 1.1 0 0 1 .143.553 1.1 1.1 0 0 1-.143.564 1.05 1.05 0 0 1-.4.399 1.1 1.1 0 0 1-.553.145 1.087 1.087 0 0 1-1.091-1.095 1.1 1.1 0 0 1 .144-.564 1.11 1.11 0 0 1 .94-.554zm14.015.465.368.931q-.048-.001-.097-.004a7 7 0 0 0-.622.01h-.018z"/></svg>