<svg xmlns="http://www.w3.org/2000/svg" viewBox="0 0 24 24"><path d="M8.55 9.888c.921 0 1.658.23 2.221.742.385.349.6.846.594 1.367a1.9 1.9 0 0 1-.594 1.373c-.527.484-1.348.742-2.22.742s-1.68-.258-2.215-.742a1.8 1.8 0 0 1-.603-1.373c0-.518.218-1.015.603-1.367.5-.454 1.384-.742 2.214-.742m.003 3.67c.461 0 .888-.161 1.188-.458.3-.3.433-.66.433-1.103 0-.424-.148-.821-.433-1.103-.294-.29-.733-.454-1.188-.454s-.893.163-1.19.454c-.285.282-.434.679-.434 1.103a1.56 1.56 0 0 0 .434 1.103c.297.294.733.457 1.19.457M3.712 11.59q.24.061.466.163a1.4 1.4 0 0 1 .379.258c.197.206.309.482.306.767a.96.96 0 0 1-.379.778 2.1 2.1 0 0 1-.709.349 3.7 3.7 0 0 1-1.194.17c-.352 0-.546-.041-.813-.097l-.077-.016a4.7 4.7 0 0 1-.858-.278.07.07 0 0 0-.042-.012.084.084 0 0 0-.082.084v.203H.121v-1.478h.524a.76.76 0 0 0 .137.418c.212.26.44.36.657.44.367.12.752.184 1.136.196.553 0 .876-.134.946-.163l.009-.004.006-.002c.062-.023.312-.114.312-.392 0-.274-.234-.334-.387-.373l-.022-.005c-.17-.046-.562-.088-.99-.133l-.152-.016c-.485-.051-.97-.127-1.197-.175-.498-.11-.694-.292-.816-.405l-.008-.008a1.02 1.02 0 0 1-.276-.7c0-.496.34-.796.758-.98.445-.2.975-.289 1.439-.289.82.003 1.487.27 1.727.394.097.052.145-.012.145-.06v-.149h.527v1.288h-.472a.9.9 0 0 0-.294-.491 1.3 1.3 0 0 0-.297-.179 3.1 3.1 0 0 0-1.251-.245c-.443 0-.867.085-1.08.215q-.199.124-.2.306c0 .173.146.242.22.263.196.06.632.103.971.137l.204.021c.327.033 1.012.124 1.315.2zm18.167-.997v-.479H24v.47h-.476c-.172 0-.242.033-.372.179l-1.427 1.63a.1.1 0 0 0-.019.07v.742a1 1 0 0 0 .012.103.15.15 0 0 0 .1.09 1 1 0 0 0 .13.01h.486v.47H19.86v-.47h.46a1 1 0 0 0 .13-.01.16.16 0 0 0 .104-.09 1 1 0 0 0 .009-.1v-.742c0-.025 0-.025-.033-.064L19.119 10.8c-.076-.079-.206-.206-.406-.206h-.458v-.47h2.588v.47h-.312c-.07 0-.118.07-.058.146l.879 1.051c.009.012.015.012.027.003s.894-1.045.9-1.054a.09.09 0 0 0-.018-.128.1.1 0 0 0-.06-.018zm-6.284-.003h.485c.221 0 .26.085.263.291l.028 1.566-2.582-2.324h-1.845v.47h.412c.297 0 .318.164.318.31v2.213c0 .128.001.295-.182.295h-.506v.467h2.164v-.47h-.528c-.212 0-.22-.097-.224-.303v-1.882l2.973 2.651h.757l-.04-2.996c.004-.218.019-.291.243-.291h.473v-.47h-2.209Z"/></svg>