<svg xmlns="http://www.w3.org/2000/svg" viewBox="0 0 24 24"><path d="m17.683 16.148-.114.114q-.354.355-.748.666l-.298.235a.11.11 0 0 1-.176-.11l.12-.53a3.3 3.3 0 0 0-.084-1.746l-.064-.195a7 7 0 0 0-.257-.671l-1.387-3.27-.149-.445a2 2 0 0 1-.093-.425l-.025-.223a2.07 2.07 0 0 1 .59-1.696l.115-.114a8 8 0 0 1 .747-.666l.299-.235a.11.11 0 0 1 .126-.007c.04.025.06.071.049.117l-.119.53a3.3 3.3 0 0 0 .083 1.746l.064.195q.111.342.257.671l1.387 3.27.15.445q.068.207.093.425l.025.223a2.07 2.07 0 0 1-.591 1.696m-3.997 1.073-.146.147q-.446.447-.941.838l-.39.307a.12.12 0 0 1-.192-.12l.154-.687a4.17 4.17 0 0 0-.105-2.205l-.08-.248a9 9 0 0 0-.325-.848L9.91 10.28l-.188-.56a2.6 2.6 0 0 1-.117-.532l-.032-.285a2.59 2.59 0 0 1 .74-2.124l.146-.147q.446-.447.941-.838l.39-.307a.12.12 0 0 1 .138-.007.12.12 0 0 1 .054.127l-.154.687a4.17 4.17 0 0 0 .105 2.205l.08.248q.142.432.325.848l1.75 4.125.188.56q.086.26.117.532l.032.285a2.59 2.59 0 0 1-.74 2.124zM9 16.148l-.114.114a8 8 0 0 1-.747.666l-.299.235a.11.11 0 0 1-.175-.11l.12-.53a3.3 3.3 0 0 0-.084-1.746l-.064-.195a7 7 0 0 0-.257-.671l-1.387-3.27-.15-.445a2 2 0 0 1-.093-.425l-.025-.223a2.07 2.07 0 0 1 .591-1.696l.114-.114a8 8 0 0 1 .748-.666l.298-.235a.11.11 0 0 1 .127-.007.11.11 0 0 1 .049.117l-.12.53a3.3 3.3 0 0 0 .084 1.746l.064.195q.111.342.257.671l1.387 3.27.149.445q.069.207.093.425l.025.223a2.07 2.07 0 0 1-.59 1.696zM12 0C5.373 0 0 5.373 0 12s5.373 12 12 12 12-5.373 12-12S18.627 0 12 0"/></svg>