<svg xmlns="http://www.w3.org/2000/svg" viewBox="0 0 24 24"><path d="M21.163 13.184a2.9 2.9 0 0 0-.678.084 8.74 8.74 0 0 0-6.917-6.445 8 8 0 0 0-.441-.067c.026-.825.064-1.779 1.278-2.636l-.192-.484s-2.37.735-2.639 2.76c-.117-.551-1.22-1.24-1.767-1.371l-.272.438s.724.362.901 1.361a8.74 8.74 0 0 0-6.92 6.44 2.834 2.834 0 1 0-1.362 5.502 2.84 2.84 0 0 0 1.72-.114 8.7 8.7 0 0 0 .92 1.712l2.352-1.585c-.638-.807-1.02-1.988-1.087-3.173-.07-1.294.244-2.576 1.07-3.33 1.702-1.449 3.556-.788 4.713.6h.312c1.16-1.388 3.017-2.048 4.713-.6.825.754 1.14 2.038 1.07 3.33-.065 1.185-.448 2.366-1.087 3.173l2.353 1.585a8.7 8.7 0 0 0 .922-1.712 2.833 2.833 0 0 0 2.082-5.27 2.8 2.8 0 0 0-1.044-.198M2.786 16.848a.836.836 0 0 1 0-1.672.84.84 0 0 1 .469.144q.01.66.09 1.314c-.148.134-.374.233-.559.214m18.427 0a.84.84 0 0 1-.558-.215 13 13 0 0 0 .09-1.314.835.835 0 0 1 1.304.693c.007.457-.383.858-.836.836"/></svg>