<svg xmlns="http://www.w3.org/2000/svg" viewBox="0 0 24 24"><path d="M21.969 9.57a10.4 10.4 0 0 0-1.242-2.85 24 24 0 0 0 1.172-1.8L19.072 2.1a24 24 0 0 0-1.85 1.21 10.3 10.3 0 0 0-2.76-1.138c-.12-.72-.267-1.448-.456-2.173H10c-.187.71-.327 1.42-.447 2.131A10.3 10.3 0 0 0 6.708 3.26 23 23 0 0 0 4.93 2.101L2.102 4.928c.341.582.707 1.138 1.087 1.68a10.3 10.3 0 0 0-1.32 2.988 25 25 0 0 0-1.868.403v4c.58.152 1.157.274 1.737.38a10.3 10.3 0 0 0 1.281 3.26c-.32.462-.629.937-.917 1.432l2.829 2.828a21 21 0 0 0 1.38-.88 10.3 10.3 0 0 0 3.341 1.391q.144.795.348 1.59h4c.142-.544.258-1.086.36-1.63a10.3 10.3 0 0 0 3.257-1.407c.472.326.96.642 1.457.936l2.827-2.828a25 25 0 0 0-1.004-1.56 10.3 10.3 0 0 0 1.2-3.11c.633-.11 1.268-.24 1.902-.405V10a24 24 0 0 0-2.03-.428m-2.915 5.19a7.6 7.6 0 0 1-4.052 4.398 7.54 7.54 0 0 1-5.99.08c-1.887-.79-3.454-2.382-4.175-4.34a7.55 7.55 0 0 1 .288-5.944 7.6 7.6 0 0 1 3.824-3.647 7.56 7.56 0 0 1 6.119.082 7.6 7.6 0 0 1 3.643 3.55 7.56 7.56 0 0 1 .343 5.82m-1.688-.142a1.52 1.52 0 1 1-2.838-.396l-1.2-.897a2.08 2.08 0 0 1-2.418.437l-.96 1.495a1.283 1.283 0 1 1-.405-.259l.96-1.496a2.07 2.07 0 0 1-.7-2.122l-2.063-.808a.96.96 0 0 1-.873.39.96.96 0 1 1 1.052-.858v.02l2.06.81a2.07 2.07 0 0 1 2.675-.943l.97-1.665a1.04 1.04 0 0 1-.281-1.048 1.035 1.035 0 1 1 .695 1.288l-.973 1.665c.846.633 1.082 1.8.548 2.712l1.2.892a1.5 1.5 0 0 1 .76-.404 1.52 1.52 0 0 1 1.792 1.187z"/></svg>