<svg xmlns="http://www.w3.org/2000/svg" viewBox="0 0 24 24"><path d="M12 0C5.383 0 0 5.383 0 12s5.383 12 12 12c6.616 0 12-5.383 12-12S18.616 0 12 0m0 1.144c5.995 0 10.856 4.86 10.856 10.856S17.996 22.856 12 22.856 1.144 17.996 1.144 12 6.004 1.144 12 1.144M8.37 5.868a7 7 0 0 0-.423.005c-.983.056-1.573.517-1.735 1.472-.115.665-.096 1.348-.143 2.017q-.018.526-.115 1.038c-.134.609-.397.798-1.016.83a3 3 0 0 0-.244.042v1.463c1.126.055 1.278.452 1.37 1.629.033.429-.013.858.015 1.287.018.406.073.808.156 1.2.259 1.075 1.307 1.435 2.575 1.218v-1.283c-.203 0-.383.005-.558 0-.43-.013-.591-.12-.632-.535-.056-.535-.042-1.08-.075-1.62-.064-1.001-.175-1.988-1.153-2.625.503-.37.868-.812.983-1.398.083-.41.134-.821.166-1.237.028-.415-.023-.84.014-1.25.06-.665.102-.937.9-.91.12 0 .235-.017.369-.027v-1.31q-.239-.001-.454-.006m7.593.009a4.3 4.3 0 0 0-.813.06v1.274c.245 0 .434 0 .623.005.328.004.577.13.61.494.032.332.031.669.064 1.006.065.669.101 1.347.217 2.007.102.544.475.95.941 1.283-.817.549-1.057 1.333-1.098 2.215-.023.604-.037 1.213-.069 1.822-.028.554-.222.734-.78.748-.157.004-.31.018-.484.028v1.305c.327 0 .627.019.927 0 .932-.055 1.495-.507 1.68-1.412q.117-.748.138-1.504c.032-.461.028-.927.074-1.384.069-.715.397-1.01 1.112-1.057a1 1 0 0 0 .199-.046v-1.463c-.12-.014-.204-.027-.291-.032-.536-.023-.804-.203-.937-.71a5 5 0 0 1-.152-.993c-.037-.618-.033-1.241-.074-1.86-.08-1.192-.794-1.753-1.887-1.786m-6.89 5.28a.844.844 0 0 0-.083 1.684h.055a.83.83 0 0 0 .877-.78v-.046a.845.845 0 0 0-.83-.858zm2.911 0a.81.81 0 0 0-.834.78c0 .027 0 .05.004.078 0 .503.342.826.859.826.507 0 .826-.332.826-.853-.005-.503-.342-.836-.855-.831m2.963 0a.86.86 0 0 0-.876.835c0 .47.378.849.849.849h.009c.425.074.853-.337.881-.83.023-.457-.392-.854-.863-.854"/></svg>