<svg xmlns="http://www.w3.org/2000/svg" viewBox="0 0 24 24"><path d="M7.508 0q-.43 0-.86.002-.362.001-.724.01-.198.005-.395.015A9 9 0 0 0 4.348.15 5.5 5.5 0 0 0 2.85.645 5.04 5.04 0 0 0 .645 2.848c-.245.48-.4.972-.495 1.5-.093.52-.122 1.05-.136 1.576a35 35 0 0 0-.012.724Q0 7.078 0 7.508v8.984q0 .431.002.862.002.36.012.722c.014.526.043 1.057.136 1.576.095.528.25 1.02.495 1.5a5.03 5.03 0 0 0 2.205 2.203c.48.244.97.4 1.498.495.52.093 1.05.124 1.576.138q.362.01.724.01.43.003.86.002h8.984q.43 0 .86-.002.362 0 .724-.01a10.5 10.5 0 0 0 1.578-.138 5.3 5.3 0 0 0 1.498-.495 5.04 5.04 0 0 0 2.203-2.203c.245-.48.4-.972.495-1.5.093-.52.124-1.05.138-1.576q.01-.361.01-.722.003-.431.002-.862V7.508q0-.43-.002-.86a34 34 0 0 0-.01-.724 10.5 10.5 0 0 0-.138-1.576 5.3 5.3 0 0 0-.495-1.5A5.04 5.04 0 0 0 21.152.645 5.3 5.3 0 0 0 19.654.15a10.5 10.5 0 0 0-1.578-.138 35 35 0 0 0-.722-.01Q16.923 0 16.492 0zm6.035 3.41c4.114 2.47 6.545 7.162 5.549 11.131-.024.093-.05.181-.076.272l.002.001c2.062 2.538 1.5 5.258 1.236 4.745-1.072-2.086-3.066-1.568-4.088-1.043a7 7 0 0 1-.281.158l-.02.012-.002.002c-2.115 1.123-4.957 1.205-7.812-.022a12.57 12.57 0 0 1-5.64-4.838c.649.48 1.35.902 2.097 1.252 3.019 1.414 6.051 1.311 8.197-.002C9.651 12.73 7.101 9.67 5.146 7.191a10.6 10.6 0 0 1-1.005-1.384c2.34 2.142 6.038 4.83 7.365 5.576C8.69 8.408 6.208 4.743 6.324 4.86c4.436 4.47 8.528 6.996 8.528 6.996.154.085.27.154.36.213q.128-.322.224-.668c.708-2.588-.09-5.548-1.893-7.992z"/></svg>