<svg xmlns="http://www.w3.org/2000/svg" viewBox="0 0 24 24"><path d="M3.382 0C1.513 0 0 1.547 0 3.455v17.09C0 22.451 1.513 24 3.382 24h17.236C22.487 24 24 22.452 24 20.544V3.454C24 1.548 22.485 0 20.618 0zm4.541 6.789q1.275 0 2.104.456c.829.456.827.68.826 1.132q0 .486-.29.764c-.29.278-.467.276-.81.276q-.289 0-.937-.188c-.648-.188-.76-.19-.98-.19q-.545 0-.87.255a.81.81 0 0 0-.324.67q0 .656 1.431 1.107l.518.161q1.542.517 2.248 1.304c.706.787.708 1.177.712 1.958q-.01 1.616-1.156 2.615c-1.146.999-1.773 1.001-3.022 1.001q-1.438 0-2.457-.517c-1.019-.517-1.018-.748-1.018-1.21-.012-.3.108-.592.328-.797s.512-.302.881-.302q.273 0 1.144.273c.871.273 1.07.274 1.468.274.318.01.627-.106.864-.319a1.03 1.03 0 0 0 .347-.789 1.04 1.04 0 0 0-.357-.82q-.356-.308-1.52-.663-1.69-.502-2.36-1.192c-.67-.69-.671-1.079-.67-1.856q0-1.498 1.085-2.452c1.085-.954 1.662-.952 2.815-.951m6.338 2.886c.254-.01.504.078.697.245q.267.244.512.908l1.344 3.592 1.465-3.793a1.85 1.85 0 0 1 .432-.723.9.9 0 0 1 .63-.229 1.17 1.17 0 0 1 .848.307q.314.306.314.83a1.6 1.6 0 0 1-.05.374l-.004.002a3.5 3.5 0 0 1-.146.45l-3.626 8.619q-.229.546-.465.757a.84.84 0 0 1-.577.21q-.544 0-.862-.31c-.318-.31-.32-.486-.321-.841q0-.206.051-.405.054-.215.148-.414l.98-2.125-2.404-5.607a1.3 1.3 0 0 1-.09-.292 2 2 0 0 1-.028-.374 1.15 1.15 0 0 1 .332-.84c.214-.223.511-.348.82-.341"/></svg>