<svg xmlns="http://www.w3.org/2000/svg" viewBox="0 0 24 24"><path d="m13.44 8.927-.889.37.056.117a.6.6 0 0 1 .212-.054q.076.001.126.046.05.042.072.16.022.119.022.634v2.736q0 .284-.042.381a.3.3 0 0 1-.118.142q-.079.046-.286.045v.12h1.481v-.12q-.231 0-.32-.048a.3.3 0 0 1-.126-.142q-.04-.09-.04-.378V8.927zm-11.722.34q-.494 0-.84.147-.35.15-.534.436a1.1 1.1 0 0 0-.185.612q0 .508.393.864.276.252.968.422.537.135.688.191a.7.7 0 0 1 .31.183q.087.106.088.259 0 .232-.21.41-.212.175-.628.176-.393 0-.625-.197-.23-.199-.307-.619L0 12.23q.084.72.517 1.096.434.378 1.244.378.556-.002.93-.156a1.26 1.26 0 0 0 .781-1.169 1.3 1.3 0 0 0-.171-.684 1.2 1.2 0 0 0-.472-.437q-.3-.16-.927-.31-.628-.147-.79-.286a.326.326 0 0 1 .009-.524q.21-.157.586-.156.361 0 .542.145.181.147.237.471l.864-.028q-.019-.591-.425-.949-.407-.353-1.208-.353zm21.808.33a.475.475 0 1 0-.002.95.475.475 0 0 0 .002-.95m0 .072a.4.4 0 0 1 .401.403c0 .116-.05.22-.128.294l-.086-.135a.4.4 0 0 0-.065-.078.2.2 0 0 0-.048-.03.2.2 0 0 0 .127-.057.14.14 0 0 0 .043-.109.2.2 0 0 0-.025-.091.13.13 0 0 0-.067-.055.3.3 0 0 0-.123-.02h-.266v.606h.08v-.268h.091q.03 0 .045.003.02.005.036.014.018.014.04.043.023.03.059.083l.08.125h.043a.4.4 0 0 1-.237.08.405.405 0 0 1-.404-.405c0-.224.18-.403.404-.403m-.157.191h.191q.067 0 .097.027a.09.09 0 0 1 .03.07.1.1 0 0 1-.016.055.08.08 0 0 1-.047.035.2.2 0 0 1-.085.013h-.17zm-15.037.6q-.616-.001-1.023.514v-.455h-.754v3.105h.814v-1.401c0-.348.022-.583.063-.713a.6.6 0 0 1 .234-.306.67.67 0 0 1 .385-.118q.167 0 .287.082.119.08.17.229.055.148.054.646v1.581h.816V11.7a2.5 2.5 0 0 0-.046-.55.9.9 0 0 0-.16-.343.83.83 0 0 0-.341-.25 1.3 1.3 0 0 0-.499-.097m2.65 0a1.7 1.7 0 0 0-.826.2 1.4 1.4 0 0 0-.571.586 1.7 1.7 0 0 0-.202.793q0 .534.202.904.201.374.588.566.388.194.814.194.69-.001 1.144-.463.455-.464.455-1.167 0-.697-.451-1.156-.449-.457-1.154-.457zm7.315.05q-.527 0-.865.323a1.02 1.02 0 0 0-.336.77q0 .29.147.534c.1.162.24.285.423.379q-.334.281-.429.44a.55.55 0 0 0-.092.271q0 .102.071.184t.24.187a10 10 0 0 0-.329.355c-.113.145-.19.253-.226.336a.4.4 0 0 0-.034.157q0 .178.246.343.437.284 1.071.284.825 0 1.337-.477.349-.326.35-.694a.61.61 0 0 0-.183-.45.84.84 0 0 0-.49-.227 9 9 0 0 0-.878-.053 4 4 0 0 1-.46-.027q-.159-.023-.212-.075-.056-.054-.056-.112a.4.4 0 0 1 .05-.159.9.9 0 0 1 .186-.221q.234.072.459.07.54 0 .864-.301a.96.96 0 0 0 .323-.722q0-.37-.187-.61h.394c.097 0 .15-.002.167-.01a.06.06 0 0 0 .035-.025.3.3 0 0 0 .018-.12.2.2 0 0 0-.02-.105.1.1 0 0 0-.033-.028 1 1 0 0 0-.166-.008h-.639a1.3 1.3 0 0 0-.746-.21zm-2.752 0q-.378 0-.714.194a1.44 1.44 0 0 0-.546.61 1.8 1.8 0 0 0-.205.825q0 .571.34 1.03a1.29 1.29 0 0 0 1.09.543q.419 0 .76-.211.344-.21.54-.627.194-.414.194-.821 0-.577-.354-1.022a1.34 1.34 0 0 0-1.105-.522zm-12.182.009 1.174 3.113a1.2 1.2 0 0 1-.21.431q-.135.168-.419.167-.154 0-.344-.04l.067.645q.228.05.464.052.232-.001.418-.052a1 1 0 0 0 .31-.138.9.9 0 0 0 .224-.234 2.2 2.2 0 0 0 .205-.414l.199-.545 1.085-2.985h-.844l-.722 2.204-.74-2.204zm16.631.078v.122a.8.8 0 0 1 .245.091q.052.043.136.157.108.152.158.255l1.088 2.275-.213.526q-.119.292-.236.393-.118.103-.217.104a1 1 0 0 1-.167-.05 1 1 0 0 0-.3-.07c-.105 0-.19.025-.25.084a.29.29 0 0 0-.092.22q0 .146.126.257a.46.46 0 0 0 .322.112q.27.002.56-.223.29-.224.469-.664l1.226-3.014a1.6 1.6 0 0 1 .113-.254.6.6 0 0 1 .145-.146.5.5 0 0 1 .188-.053v-.122h-.978v.122q.14 0 .197.023a.17.17 0 0 1 .083.057.15.15 0 0 1 .023.087q0 .136-.056.271l-.675 1.671-.737-1.53q-.11-.225-.11-.356a.21.21 0 0 1 .074-.16.35.35 0 0 1 .224-.063h.068v-.122zm-1.753.08q.26.001.43.217.224.293.224.815 0 .398-.16.584a.52.52 0 0 1-.41.188.53.53 0 0 1-.43-.216q-.223-.286-.223-.802c0-.268.054-.461.163-.59a.52.52 0 0 1 .406-.197zm-2.798.054q.362-.002.598.312.346.46.346 1.263 0 .643-.209.905a.65.65 0 0 1-.528.264q-.429-.002-.691-.477c-.174-.32-.263-.695-.263-1.135q0-.406.11-.669a.73.73 0 0 1 .285-.361.67.67 0 0 1 .352-.102m-4.463.395q.323.001.543.247.216.244.216.703 0 .468-.216.712a.7.7 0 0 1-.543.248.7.7 0 0 1-.542-.248q-.22-.242-.22-.708 0-.463.22-.707a.7.7 0 0 1 .542-.247m6.66 2.498q.398.056 1.142.08.51.01.68.083t.17.241q0 .235-.282.442-.284.208-.874.208-.622-.001-.951-.204-.191-.115-.19-.277c0-.078.024-.169.076-.26a1.5 1.5 0 0 1 .228-.313z"/></svg>