<svg xmlns="http://www.w3.org/2000/svg" viewBox="0 0 24 24"><path d="M11.575.007A11.993 11.993 0 0 0 3.52 20.481l.124.121 6.532-12.11H3.188l1.227 2.066a.63.63 0 0 1 .076.49.68.68 0 0 1-.65.506.64.64 0 0 1-.544-.298L1.474 8.188a.63.63 0 0 1-.095-.342v-.027a.65.65 0 0 1 .642-.628h9.256c.167 0 .368.06.47.14l.01.008a.73.73 0 0 1 .22.942L4.908 21.388a.7.7 0 0 1-.14.182 11.99 11.99 0 0 0 14.225.185h-5.632a.744.744 0 0 1-.744-.744v-.015a.744.744 0 0 1 .744-.744h7.352a11.994 11.994 0 0 0-.232-16.733 12 12 0 0 0-1.618-1.358l-.003.006-.033.099c-.233.433-2.941 5.33-3.838 6.951l-.329.595c-.753 1.302-1.099 2.767-.925 3.92a3.8 3.8 0 0 0 .657 1.624 3.91 3.91 0 0 0 2.55 1.593 4 4 0 0 0 .682.058 3.98 3.98 0 0 0 2.405-.798 3.8 3.8 0 0 0 1.48-2.412 3.78 3.78 0 0 0-.7-2.892 4.01 4.01 0 0 0-2.583-1.581l-.177-.026a.7.7 0 0 1-.614-.718.7.7 0 0 1 .233-.503.7.7 0 0 1 .549-.172 5.4 5.4 0 0 1 3.735 2.182 5.18 5.18 0 0 1 .942 3.943 5.18 5.18 0 0 1-2.18 3.418 5.4 5.4 0 0 1-3.088.963h-.001a5.5 5.5 0 0 1-.915-.078 5.3 5.3 0 0 1-3.472-2.174 5.6 5.6 0 0 1-.425-.706c-.717-1.416-.753-3.07-.102-4.785a18 18 0 0 1 .758-1.678l4.078-7.45.096-.117.004-.008a12 12 0 0 0-.98-.467 12 12 0 0 0-5.093-.94z"/></svg>