<svg xmlns="http://www.w3.org/2000/svg" viewBox="0 0 24 24"><path d="M10.914 3.828 7.248.164C7.125.04 6.878-.001 6.713.04A13.25 13.25 0 0 0 .041 6.67a.45.45 0 0 0 .124.534l3.664 3.664c.124.124.371.082.412-.122a7.9 7.9 0 0 1 2.217-4.33 7.9 7.9 0 0 1 4.332-2.216c.165 0 .247-.247.124-.37m9.266 7.08 3.666-3.664c.123-.123.165-.37.123-.534A13.25 13.25 0 0 0 17.339.04a.45.45 0 0 0-.29-.03.45.45 0 0 0-.246.153l-3.665 3.664c-.124.123-.082.371.123.412a7.9 7.9 0 0 1 4.332 2.215 7.9 7.9 0 0 1 2.216 4.33c0 .164.248.247.371.123m3.666 5.887L20.18 13.09c-.123-.123-.37-.082-.412.124-.535 3.336-3.17 6.01-6.548 6.546-.205.041-.288.288-.123.412l3.666 3.663c.122.124.37.165.534.124a13.17 13.17 0 0 0 6.63-6.628c.125-.206.084-.412-.081-.536M3.83 13.09.164 16.795c-.124.124-.165.371-.124.536a13.17 13.17 0 0 0 6.63 6.628.45.45 0 0 0 .29.03.45.45 0 0 0 .246-.154l3.666-3.663c.123-.124.082-.371-.124-.412a7.9 7.9 0 0 1-4.333-2.215 7.9 7.9 0 0 1-2.216-4.33c0-.166-.247-.247-.37-.125z"/></svg>