<svg xmlns="http://www.w3.org/2000/svg" viewBox="0 0 24 24"><path d="M12.079 1.137a12 12 0 0 0-.913.032c-1.497.08-2.957.504-4.321 1.109.28-.001.588-.048.839.108.308.171.45.527.744.711.419.163.87.007 1.297-.04a7.04 7.04 0 0 1 4 .74c.788.414 1.5.96 2.152 1.563 1.005.884 1.831 1.948 2.827 2.842.324.289.698.525 1.103.683.949.373 1.998.344 2.953.692.301.101.571.27.844.43-.164-.537-.34-1.07-.562-1.586a12.04 12.04 0 0 0-4.88-5.588 11.9 11.9 0 0 0-6.083-1.696ZM4.988 3.4a11.94 11.94 0 0 0-3.99 4.943A12.1 12.1 0 0 0 .004 13.4c0 2.995.006 5.99-.002 8.984-.016.163.083.301.15.441 1.158.071 2.322.014 3.483.03-.57-.207-1.224-.547-1.334-1.207-.18-.953.278-1.878.77-2.664.789-1.228 1.834-2.263 2.91-3.238 1.308-1.132 2.754-2.092 4.238-2.975.397-.256.855-.458 1.14-.85-.26.021-.514.085-.75.195-.988.43-1.924.967-2.847 1.52-.88.545-1.767 1.084-2.594 1.709-.58.414-1.12.877-1.68 1.316-.124-.94-.348-1.862-.584-2.78-.29-1.219-.477-2.475-.396-3.73.06-1.285.47-2.562 1.234-3.602.294-.431.7-.775.978-1.217.24-.377-.12-.768-.09-1.161-.006-.3.193-.54.358-.772zm15.56 8.85a4 4 0 0 0-.498.028c-1.316.16-2.574.614-3.798 1.105-2.741 1.152-5.388 2.576-7.741 4.404-.938.75-1.865 1.545-2.56 2.534-.209.33-.472.733-.323 1.136.191.265.547.312.85.353 1.055.094 2.114-.078 3.145-.298a20.1 20.1 0 0 0 5.923-2.359c1.375-.794 2.703-1.68 3.896-2.73.668-.606 1.312-1.26 1.773-2.043.213-.376.401-.787.392-1.228.003-.249-.024-.56-.265-.697-.24-.152-.515-.2-.794-.205m3.426.076c-.79 1.992-2.352 3.548-3.97 4.898a27 27 0 0 1-4.556 2.964c-2.185 1.22-4.537 2.177-6.999 2.66 5.035.022 10.07.004 15.106.009.226.031.457-.143.441-.38.007-2.865 0-5.73.003-8.594.001-.52.007-1.04-.025-1.557zm-11.257 3.431c.36.77.401 1.697.054 2.478a3 3 0 0 1-1.768 1.647 3.03 3.03 0 0 1-3.066-.701c1.402-1.382 3.06-2.478 4.78-3.424"/></svg>