<svg xmlns="http://www.w3.org/2000/svg" viewBox="0 0 24 24"><path d="M12.005.605h-.09l-.028.001h-.064l-.03.001-.07.001-.02.001-.09.003h-.022l-.07.003-.03.001-.063.003L11.4.62l-.09.005-.09.006h-.015l-.01.001-.064.005-.03.002-.07.005-.02.002-.088.008-.02.001-.07.007-.027.003-.065.006-.025.003-.088.01-.09.01-.023.003-.066.008-.008.002-.015.002h-.003l-.073.01-.015.002-.05.007-.04.006-.014.002-.073.01-.024.005-.07.01-.02.004-.088.015-.035.006-.018.004-.035.006-.02.003-.07.013-.02.004-.08.015h-.003l-.004.001-.005.001-.087.018-.007.002H9.57l-.034.008-.043.01-.018.002L9.4.89l-.013.003-.09.02-.09.02-.01.003-.08.02-.011.003-.087.022-.092.024-.088.024-.01.002-.084.024h-.003l-.09.026-.091.027H8.56l-.073.023-.01.003-.005.002h-.003l-.028.01-.19.062-.08.025-.257.091-.075.027a8 8 0 0 0-.305.12q-.03.01-.061.023l-.144.06a13 13 0 0 0-.53.24l-.07.034-.08.04q-.256.128-.506.267-.231.27-.45.548l-.06.08-.036.043.005-.003q-.054.073-.11.146-.117.154-.231.31-.085.12-.167.243-.123.175-.24.355-.08.126-.158.25c-.074.12-.15.24-.22.362q-.076.128-.148.258c-.07.126-.141.25-.21.38q-.067.13-.132.26a16 16 0 0 0-.187.379q-.067.144-.132.29a16 16 0 0 0-.433 1.063l-.05.128.009-.012q-.192.534-.348 1.084l-.107.049-.015.006a5 5 0 0 0-.56.307l-.035.022a5 5 0 0 0-.493.37l-.045.038a5 5 0 0 0-.427.427l-.044.05a5 5 0 0 0-.366.488l-.025.04a5 5 0 0 0-.302.553l-.01.024a5 5 0 0 0-.227.606l-.003.013q-.091.311-.14.64v.01a4.7 4.7 0 0 0 0 1.318v.01q.049.328.14.64l.004.014q.092.312.226.605l.01.024q.134.288.303.554l.024.038q.168.259.368.49l.041.049q.2.226.426.426l.048.04q.232.2.49.367l.04.027q.267.17.557.304l.015.006q.295.135.61.228l.017.005q.311.09.637.138l.012.002a4.7 4.7 0 0 0 1.315 0l.012-.002q.327-.047.637-.138l.017-.005a5 5 0 0 0 .609-.227l.017-.008q.289-.134.555-.303l.042-.027q.256-.167.49-.366l.045-.04q.228-.2.429-.43l.039-.044q.2-.234.37-.493l.02-.035a5 5 0 0 0 .306-.557l.01-.021q.134-.295.227-.61l.002-.008q.091-.312.14-.64v-.02a4.7 4.7 0 0 0 .04-.881v-.002q-.001-.074-.01-.147l-.006-.085a4 4 0 0 0-.028-.222v-.005a4.6 4.6 0 0 0-.304-1.098v-.001q-.045-.105-.094-.21l-.002-.003-.083-.165-.02-.04-.07-.123-.05-.085-.037-.06-.087-.137-.012-.016A4.7 4.7 0 0 0 7.14 8.635q-.027-.017-.053-.033l-.096-.055q-.053-.032-.11-.063l-.044-.022a4.6 4.6 0 0 0-1.368-.464 13.7 13.7 0 0 1 3.39-5.233 10.3 10.3 0 0 1 3.147-.493c5.7 0 10.329 4.629 10.33 10.329v.002c0 2.13-.647 4.11-1.753 5.756l-.013.018C18.5 21.46 14.682 23.57 9.503 23.02l.02.016c5.2 1.138 9.375-.545 11.882-3.46l-.018.026a11 11 0 0 0 .308-.372q.026-.035.054-.071.141-.183.275-.37l.1-.146a11 11 0 0 0 .506-.816l.076-.133q.26-.48.469-.981l.062-.158a11 11 0 0 0 .314-.901q.025-.08.047-.157a10 10 0 0 0 .136-.527l.003-.018q.057-.256.103-.516l.025-.16a11 11 0 0 0 .108-.95q.008-.09.012-.177.014-.272.015-.545C24.001 5.982 18.626.605 12.005.605m.232 3.277c1.363 1.373 2.135 3.205 2.41 5.229.104.765-.046 1.61-.77 2.13-.058.333.115.696.267 1.055.388.92.98 1.757 1.408 2.642.384.798-.632 1.388-1.374 1.63a6 6 0 0 1-.275.084c.048.383.274.67.215 1.003a.98.98 0 0 1-.372.6s.28.878-.38 1.26c-.152.087-.33.104-.364.34-.064.468-.134.926-.504 1.307q-.084.085-.177.159c4.326-.152 7.97-3.507 8.372-7.93.435-4.794-3.104-9.04-7.9-9.476a9 9 0 0 0-.556-.034zm-1.973.17a8.7 8.7 0 0 0-2.003.672c.388.134.736.316.97.534 1.09 1.01 1.629 2.003 1.93 3.383.267 1.218.395 1.809-.245 2.253-.865.6.923 3.164 1.272 3.906-.46.592-1.062.579-1.38.743-.176.09-.103.426-.074.685.028.254.26.413.133.61-.114.175-.55.188-.737.31.182.2.585.399.53.658-.04.2-.492.166-.666.622-.093.245-.045.698-.238.927-.448.53-.917.62-1.85.517a16 16 0 0 1-.908-.127 8.6 8.6 0 0 0 2.263 1.137c.25.082.517.11.78.082.492-.046.834-.226 1.166-.62.22-.26.165-.776.27-1.054.199-.52.713-.478.76-.706.06-.296-.398-.523-.604-.75.214-.138.707-.153.838-.353.145-.223-.12-.404-.152-.693-.032-.294-.115-.676.085-.78.36-.186 1.045-.172 1.569-.844-.397-.844-2.43-3.76-1.447-4.442.728-.506.583-1.177.28-2.563-.344-1.57-.957-2.698-2.195-3.847a2.2 2.2 0 0 0-.347-.26"/></svg>