<svg xmlns="http://www.w3.org/2000/svg" viewBox="0 0 24 24"><path d="M15.78 8.348c-.77 0-1.396.615-1.396 1.37 0 1.075.406 2.058 1.075 2.813.277.312.598.584.956.807a5 5 0 0 0 .736-3.874q-.009-.043-.02-.087a1.39 1.39 0 0 0-1.35-1.029zm-8.612 3.958q.208.55.533 1.032c.356-.223.678-.495.955-.807a4.22 4.22 0 0 0 1.076-2.813c0-.755-.626-1.37-1.397-1.37-.65 0-1.195.438-1.35 1.029q-.01.043-.02.086a5 5 0 0 0 .205 2.843zm15.501-.67L24 12.29a5.87 5.87 0 0 1-5.243 3.18 6 6 0 0 1-1.926-.32 6.75 6.75 0 0 1-4.774 1.963 6.74 6.74 0 0 1-4.774-1.964 6 6 0 0 1-1.926.32A5.87 5.87 0 0 1 0 12.054l1.362-.595a4.38 4.38 0 0 0 3.995 2.549q.487-.002.946-.102a6.45 6.45 0 0 1-.945-3.367 6.5 6.5 0 0 1 .19-1.554c.328-1.208 1.45-2.098 2.786-2.098l.079.002q.121.003.242.016c1.444.157 2.565 1.357 2.565 2.814 0 1.958-.999 3.687-2.522 4.724a5.24 5.24 0 0 0 3.36 1.21 5.25 5.25 0 0 0 3.358-1.21c-1.523-1.037-2.522-2.767-2.522-4.724 0-1.458 1.122-2.658 2.564-2.814q.12-.013.242-.016l.08-.002a2.88 2.88 0 0 1 2.832 2.286 6.48 6.48 0 0 1-.8 4.733q.457.1.945.102c1.71 0 3.191-.967 3.91-2.372z"/></svg>