<svg xmlns="http://www.w3.org/2000/svg" viewBox="0 0 24 24"><path d="M16.206 7.794C15.64 3.546 14.204 0 12 0S8.361 3.546 7.794 7.794C3.546 8.36 0 9.796 0 12s3.546 3.639 7.794 4.206C8.36 20.453 9.796 24 12 24s3.639-3.546 4.206-7.794C20.454 15.64 24 14.204 24 12s-3.547-3.64-7.794-4.206m-8.55 7.174c-4.069-.587-6.44-1.932-6.44-2.969s2.372-2.381 6.44-2.969c-.09.98-.137 1.98-.137 2.97s.047 1.99.137 2.968M12 1.215c1.036 0 2.381 2.372 2.969 6.44a32.7 32.7 0 0 0-5.938 0c.587-4.068 1.932-6.44 2.969-6.44m4.344 13.753c-.2.03-1.022.126-1.23.146a57 57 0 0 1-.145 1.23c-.588 4.068-1.933 6.44-2.97 6.44-1.036 0-2.38-2.372-2.968-6.44-.03-.2-.126-1.022-.147-1.23a32 32 0 0 1 0-6.23 31.8 31.8 0 0 1 7.46.146c4.068.587 6.442 1.933 6.442 2.969-.001 1.036-2.374 2.382-6.442 2.97z"/></svg>