<svg xmlns="http://www.w3.org/2000/svg" viewBox="0 0 24 24"><path d="M7.27 23.896 4.5 21.124a.35.35 0 0 1 0-.5l2.772-2.77a.35.35 0 0 1 .5 0l2.772 2.772a.35.35 0 0 1 0 .5l-2.772 2.77a.35.35 0 0 1-.5 0zm4.48-4.48-2.772-2.772a.35.35 0 0 1 0-.498l2.772-2.772a.35.35 0 0 1 .5 0l2.77 2.772a.35.35 0 0 1 0 .5l-2.77 2.77a.35.35 0 0 1-.499 0zm4.48-4.48-2.77-2.772a.35.35 0 0 1 0-.498l2.771-2.772a.35.35 0 0 1 .5 0l2.77 2.772a.35.35 0 0 1 0 .498l-2.772 2.772a.35.35 0 0 1-.5 0h.002zm-8.876.084-2.772-2.77a.35.35 0 0 1 0-.499l2.772-2.773a.35.35 0 0 1 .5 0l2.772 2.772a.35.35 0 0 1 0 .498l-2.772 2.774a.35.35 0 0 1-.5 0zm4.48-4.48L9.062 7.77a.35.35 0 0 1 0-.5l2.772-2.772a.35.35 0 0 1 .5 0l2.77 2.772a.35.35 0 0 1 0 .498l-2.77 2.772a.35.35 0 0 1-.499 0v-.002.001zM7.44 6.15 4.666 3.37a.35.35 0 0 1 0-.5L7.44.104a.35.35 0 0 1 .5 0l2.772 2.772a.35.35 0 0 1 0 .5L7.938 6.142a.35.35 0 0 1-.5 0l.002.006z"/></svg>