<svg xmlns="http://www.w3.org/2000/svg" viewBox="0 0 24 24"><path d="M19.878 12.482c-.043.03-.06.038-.074.051q-.975.97-1.943 1.945c-.04.04-.061.119-.061.18-.005.602-.003 1.203-.003 1.805 0 .035.007.07.013.13.303-.295.584-.575.873-.846.106-.1.18-.207.226-.346.256-.778.519-1.553.779-2.33.062-.186.12-.374.19-.589m-4.345 1.916c.068-.061.105-.092.139-.126l2.001-1.95q1.536-1.49 3.068-2.982a.44.44 0 0 0 .108-.183q.35-1.17.693-2.343c.044-.148.084-.298.135-.477-.047.033-.064.041-.077.054q-.883.876-1.765 1.753-1.023 1.024-2.045 2.05-1.086 1.084-2.169 2.172a.3.3 0 0 0-.079.19c-.008.456-.007.912-.009 1.368zM23.543.024 23.512 0q-.34.349-.683.695-1.418 1.422-2.839 2.842c-1.058 1.056-2.12 2.108-3.177 3.164a1196 1196 0 0 0-3.466 3.473.3.3 0 0 0-.073.19c-.01.558-.01 1.117-.013 1.675 0 .042.006.083.01.144.04-.033.068-.05.09-.073q1.56-1.53 3.116-3.062l3.432-3.384c.898-.885 1.799-1.77 2.695-2.657a.45.45 0 0 0 .11-.181c.15-.492.293-.985.438-1.478l.39-1.324M4.148 12.48c.013.064.017.101.029.135q.489 1.44.985 2.877a.6.6 0 0 0 .146.227q.452.453.914.897c.11.107.227.207.355.323-.23.225-.427.423-.63.617-.06.057-.081.107-.048.19.115.287.223.578.334.868q.082.214.166.427l.06.035 1.1-1.173 1.221 1.284c-.006.007-.027.033-.05.056q-.772.772-1.547 1.54c-.062.062-.073.111-.038.19.061.137.11.28.166.419l.352.879 2.158-2.125 1.18 1.208-2.634 2.636c.032.003.054.008.076.008.621 0 1.243.002 1.865-.003a.27.27 0 0 0 .163-.072c.16-.148.314-.303.47-.456l1.117-1.1c.042.04.078.07.112.103.488.48.974.96 1.468 1.434.055.053.15.09.227.09.544.008 1.088.005 1.632.005h.13zm12.148 9.842c.031-.04.043-.05.047-.061.166-.425.327-.852.497-1.275.038-.093-.016-.133-.067-.183q-1.853-1.845-3.703-3.691-2.384-2.383-4.766-4.768Q5.636 9.678 2.97 7.011c-.19-.19-.374-.389-.56-.584l-.042.03c.009.045.013.091.026.135.242.824.482 1.648.73 2.47.041.134.09.287.184.383.703.71 1.418 1.41 2.13 2.113q1.584 1.566 3.17 3.13a.32.32 0 0 1 .105.255c-.007.427-.006.855-.007 1.282v.5q.023.014.047.027l.917-.992c.068.058.098.08.125.107.356.351.71.705 1.07 1.052a.35.35 0 0 1 .118.28c-.006.524-.004 1.049-.004 1.573 0 .047.004.093.008.175l.96-.928c.027.013.037.015.044.022q.619.606 1.233 1.217a.22.22 0 0 1 .058.14c.002.302-.005.603-.006.903-.002.26 0 .518 0 .818l.966-.933zm1.258-3.252-1.059-1.138-.942.91v-.207c0-.48.002-.96-.003-1.442 0-.063-.013-.144-.052-.185-.406-.431-.818-.856-1.242-1.295l-.984.953v-.192c0-.52.002-1.04-.003-1.559a.3.3 0 0 0-.062-.181c-.39-.42-.787-.832-1.215-1.281l-.95 1.037-.056-.037q-.005-.067-.007-.135c0-.549.006-1.098-.002-1.647a.38.38 0 0 0-.097-.238 1129 1129 0 0 0-3.293-3.275L2.77 4.38c-.451-.447-.908-.89-1.355-1.342a.7.7 0 0 1-.16-.268C.988 1.89.73 1.004.47.121.462.09.462.058.458.027L.495 0C.66.174.823.353.993.523q2.545 2.541 5.09 5.082 2.296 2.296 4.591 4.594 2.071 2.07 4.142 4.137 1.619 1.615 3.233 3.235c.035.035.065.115.05.156-.16.432-.33.86-.497 1.29-.003.008-.012.014-.048.053"/></svg>