<svg xmlns="http://www.w3.org/2000/svg" viewBox="0 0 24 24"><path d="M6.62 12a2.29 2.29 0 0 1 2.292-2.295h-.013A2.29 2.29 0 0 1 11.189 12a2.29 2.29 0 0 1-2.29 2.291h.013A2.29 2.29 0 0 1 6.62 12m10.72-4.062h4.266a2.29 2.29 0 0 0 2.29-2.291 2.29 2.29 0 0 0-2.29-2.296H17.34a2.29 2.29 0 0 0-2.291 2.296 2.29 2.29 0 0 0 2.29 2.29zM2.688 20.645h8.285a2.29 2.29 0 0 0 2.291-2.292 2.29 2.29 0 0 0-2.29-2.295H2.687a2.29 2.29 0 0 0-2.291 2.295 2.29 2.29 0 0 0 2.29 2.292zm10.881-6.354h.81l1.894-4.586H15.19l-1.154 3.008h-.013l-1.135-3.008h-1.154zm4.208 0h1.011V9.705h-1.011zm2.878 0h3.235v-.93h-2.223v-.933h1.99v-.934h-1.99v-.855h2.107v-.934h-3.112zM1.31 7.941h1.01V4.247h1.31v-.895H0v.895h1.31zm3.747 0h1.011V5.959h1.958v1.984h1.011v-4.59h-1.01v1.711H6.061V3.351H5.057zm5.348 0h3.242v-.933H11.41v-.934h1.99v-.933h-1.99v-.856h2.107v-.934h-3.112zM.162 14.296h1.005v-3.52h.013l1.167 3.52h.765l1.206-3.52h.013v3.52h1.011v-4.59H3.82L2.755 12.7h-.013L1.686 9.705H.156zm14.534 6.353h1.641a3.2 3.2 0 0 0 .98-.149 2.5 2.5 0 0 0 .824-.437 2.1 2.1 0 0 0 .567-.713 2.2 2.2 0 0 0 .223-.983 2.4 2.4 0 0 0-.218-1.07 1.96 1.96 0 0 0-.586-.716 2.4 2.4 0 0 0-.873-.392 4.4 4.4 0 0 0-1.046-.13h-1.519zm1.013-3.656h.596a2.3 2.3 0 0 1 .606.08 1.5 1.5 0 0 1 .503.244 1.2 1.2 0 0 1 .34.412 1.3 1.3 0 0 1 .13.587 1.55 1.55 0 0 1-.13.658 1.1 1.1 0 0 1-.347.433 1.4 1.4 0 0 1-.518.238 2.8 2.8 0 0 1-.649.07h-.538zm4.686 3.656h1.88a3 3 0 0 0 .613-.064 1.7 1.7 0 0 0 .554-.214 1.2 1.2 0 0 0 .402-.39 1.1 1.1 0 0 0 .155-.606 1.2 1.2 0 0 0-.071-.415 1 1 0 0 0-.204-.34 1.1 1.1 0 0 0-.317-.24 1.3 1.3 0 0 0-.413-.13v-.012a1.2 1.2 0 0 0 .575-.366.96.96 0 0 0 .216-.648 1.1 1.1 0 0 0-.149-.603 1 1 0 0 0-.389-.354 1.7 1.7 0 0 0-.54-.169 4.5 4.5 0 0 0-.6-.041h-1.712zm1.011-3.734h.687a1.4 1.4 0 0 1 .24.022.8.8 0 0 1 .22.075.43.43 0 0 1 .16.147.4.4 0 0 1 .061.236.5.5 0 0 1-.055.233.43.43 0 0 1-.146.156.6.6 0 0 1-.204.084 1 1 0 0 1-.23.026h-.745zm0 1.835h.765a2 2 0 0 1 .266.02 1 1 0 0 1 .26.07.5.5 0 0 1 .204.152.4.4 0 0 1 .08.26.5.5 0 0 1-.06.253.5.5 0 0 1-.16.168.6.6 0 0 1-.217.09 1 1 0 0 1-.237.027H21.4z"/></svg>