<svg xmlns="http://www.w3.org/2000/svg" viewBox="0 0 24 24"><path d="m3.002 0 1.99 7.387 1.576 1.576v.576l.975 1.924c.806-1.53 2.844-2.064 4.312-.969l.202.15.2-.15c1.47-1.095 3.508-.561 4.315.969l.975-1.926v-.69l1.46-1.46L20.999 0l-3.633 1.86v3.257c-.655-.395-2.981-1.691-5.308-1.691-2.494 0-4.987 1.489-5.422 1.762V1.859zm6.111 10.229a.324.324 0 0 0-.326.322v.998c0 .267.22.484.49.484h.56c.305 0 .594-.12.81-.332a1.12 1.12 0 0 0 .335-.797v-.353a.325.325 0 0 0-.328-.323zm5.291.392a.514.514 0 0 0-.517.51c0 .28.232.51.517.51a.514.514 0 0 0 .518-.51.513.513 0 0 0-.518-.51m-7.836.023L5.103 16.06l1.497 2.95 1.375-5.103.197-.097zm10.979 0-1.604 3.165.198.097 1.375 5.104 1.496-2.951zm-5.49 1.805-1.828.903-1.649 8.843L12.057 24l3.476-1.805-1.646-8.843zm-2.389 1.18-1.27.625-1.654 6.137 1.469 1.049zm4.78 0 1.454 7.81 1.467-1.048-1.652-6.137zm-3.016.084h1.28v.451a.62.62 0 0 1-.187.445.64.64 0 0 1-.453.186.65.65 0 0 1-.453-.186.62.62 0 0 1-.187-.445z"/></svg>