<svg xmlns="http://www.w3.org/2000/svg" viewBox="0 0 24 24"><path d="M22.368 12.858a43 43 0 0 1-2.612 1.818c-.893.568-1.683.977-2.378 1.22-.695.245-1.167.198-1.413-.132q-.347-.627-.028-1.826.315-1.201.893-2.485.572-1.174.99-2.39.417-1.217.4-2.458-.019-1.238-.758-2.47-.65-1.006-1.94-1.508c-.863-.337-1.823-.504-2.883-.492a9.5 9.5 0 0 0-3.148.58 6.8 6.8 0 0 0-2.23 1.402q-1.011.94-1.6 2.345c-.134.341-.221.794-.27 1.346a18 18 0 0 0-.082 1.49c-.004.444-.008.678-.004.698q-.648.447-1.481 1.096-.835.647-1.64 1.552a15.4 15.4 0 0 0-1.437 1.973q-.59.981-.727 1.505c-.048.143-.008.532.119 1.183.127.643.457 1.386 1 2.227q.818 1.263 2.617 2.331.02.017.09-.067a1 1 0 0 0 .084-.087 7 7 0 0 1-.43-.476c-.261-.302-.515-.699-.757-1.175a2.9 2.9 0 0 1-.31-1.52q.072-1.097 1.394-2.006 1.326-.917 4.53-1.592c.606-.155 1.131-.385 1.58-.707q.674-.471.706-.532c-.167 1.703.14 3.26.901 4.653a12.1 12.1 0 0 0 2.537 3.176l9.906-9.878L24 11.6c-.472.37-1.012.79-1.632 1.258M9.438 7.363q-.233.619-.466 1.243-.226.624-.246.707c.028.048.127.163.282.337.163.171.254.286.282.342q.019.151-.17.707c-.124.37-.374.647-.739.838q-.72.27-1.346.103c-.417-.103-.75-.242-1.008-.413-.254-.175-.388-.266-.396-.286l4.032-4.39.016.142q-.01.052-.242.67z"/></svg>