<svg xmlns="http://www.w3.org/2000/svg" viewBox="0 0 24 24"><path d="M0 0v24h24V0Zm5.732 6.106c.036.168.053.456.053.752v.615c0 .095-.012.223-.012.26.211-.2.56-.335.873-.335.392 0 .706.17.803.442.06.174.078.276.078.572v2.158h-.789V8.496c0-.307-.084-.42-.314-.42-.2 0-.458.12-.639.283v2.211h-.818V7.002c0-.29-.024-.578-.06-.705zm-4.205.275h3.02l-.139.701h-1v3.488h-.857V7.082H1.527Zm7.891 1.037c.355 0 .691.121.89.326.284.29.41.704.41 1.35v.187H8.936v.024c0 .476.235.748.65.748q.415 0 .784-.309l.315.483c-.357.287-.732.427-1.164.427-.887 0-1.46-.627-1.46-1.595.001-.557.116-.924.387-1.225.253-.284.56-.416.97-.416m.013.59c-.308 0-.483.242-.483.67v.011h.934v-.037c0-.229-.023-.348-.096-.463a.4.4 0 0 0-.355-.181m5.959 3.642c.035.17.054.457.054.752v.614c0 .096-.013.223-.013.26.21-.2.56-.333.875-.333.39 0 .704.17.8.44.06.177.078.279.078.574v2.158h-.789v-2.074c0-.306-.085-.422-.314-.422-.199 0-.457.122-.637.285v2.211h-.82v-3.568c0-.29-.024-.578-.06-.705zm-13.893.276h.893l.36 1.652c.17.784.224 1.38.224 1.38.017-.163.09-.761.216-1.339l.373-1.693h.922l.389 1.875c.078.391.18 1.11.18 1.11.011-.134.143-.986.228-1.395l.344-1.59h.885l-1.012 4.222h-.922l-.375-1.703a11 11 0 0 1-.197-1.217s-.073.59-.201 1.206l-.348 1.715h-.957Zm12.043.17c-.03.282-.047.62-.047.933h.723l-.205.555h-.518v1.549c0 .391.072.494.35.494.072 0 .144-.02.289-.06l.101.48c-.237.097-.447.14-.658.14-.41 0-.734-.18-.83-.453-.048-.134-.055-.194-.055-.476v-1.676h-.306v-.553h.306c0-.3 0-.5.03-.728zm7.883.86c.072.126.113.265.127.438.115-.155.306-.323.459-.39a.7.7 0 0 1 .263-.049c.122 0 .174.012.301.066l-.22.713a.47.47 0 0 0-.237-.06c-.181 0-.344.083-.492.258v2.183h-.81v-2.062c0-.415-.048-.729-.114-.903zm-13.6.007c.355 0 .694.121.893.326.283.29.41.706.41 1.35v.185H7.342v.026c0 .475.235.746.65.746.278 0 .536-.103.783-.307l.315.482c-.356.289-.73.428-1.164.428-.886 0-1.46-.627-1.46-1.596 0-.555.115-.924.386-1.224.253-.284.56-.416.97-.416zm11.131 0c.356 0 .693.121.893.326.282.29.41.706.41 1.35v.185H18.47v.026c0 .475.236.746.652.746q.414 0 .783-.307l.313.482c-.356.289-.729.428-1.163.428-.885 0-1.459-.627-1.459-1.596 0-.555.114-.924.385-1.224.254-.284.562-.416.971-.416m-8.053.002c.518 0 .874.192.994.535.042.126.061.223.055.555l-.018 1.037v.053c0 .33.055.456.29.632l-.428.494c-.187-.078-.356-.216-.434-.375-.06.06-.127.122-.187.164-.151.109-.367.168-.62.168-.688 0-1.062-.35-1.062-.964 0-.723.5-1.059 1.48-1.059.061 0 .117-.001.182.004v-.127c0-.342-.066-.457-.361-.457-.259 0-.56.128-.89.352l-.345-.58c.164-.103.284-.163.503-.252.3-.128.559-.18.841-.18m-3.066.588c-.307 0-.48.242-.48.67v.011h.933v-.037c0-.229-.024-.348-.096-.463-.079-.121-.194-.181-.357-.181m11.103 0c-.29.014-.455.256-.455.67v.011h.936v-.037c0-.229-.026-.348-.098-.463-.078-.121-.193-.181-.355-.181zm-7.832 1.21c-.561.001-.754.105-.754.471 0 .241.152.405.358.405.15 0 .3-.079.42-.211l.014-.664zM5.912 17.29c.035.17.055.457.055.754v.613c0 .096-.012.223-.012.26.21-.2.56-.332.873-.332.392 0 .704.168.8.44.061.175.079.277.079.574v2.156h-.79V19.68c0-.307-.083-.422-.312-.422-.199 0-.458.12-.638.283v2.213h-.82v-3.569c0-.29-.025-.577-.061-.705zm15.684.004c.03.169.043.37.043.803V20.5c0 .53.005.601.052.686.03.053.098.084.164.084.03 0 .046-.001.088-.012l.139.482a1.3 1.3 0 0 1-.48.084c-.345 0-.62-.16-.717-.422-.061-.155-.073-.251-.073-.691v-2.3c0-.405-.013-.652-.043-.93zm-18.057.182c.415 0 .83.133 1.06.332l-.378.572q-.317-.235-.668-.235a.87.87 0 0 0-.713.362c-.163.24-.235.59-.235 1.078 0 .572.048.891.174 1.121.17.308.447.469.809.469.246 0 .47-.071.717-.27l.384.53c-.331.27-.685.39-1.162.39-.579 0-1.024-.186-1.367-.578-.338-.38-.508-.885-.508-1.5 0-.524.092-.94.283-1.3.327-.61.929-.972 1.604-.972zm8.512 1.115a.8.8 0 0 1 .113.385c.12-.083.223-.156.355-.229.163-.083.373-.13.553-.13.344 0 .647.178.742.445.043.114.06.247.06.439v2.254h-.796v-2.008c0-.35-.06-.451-.27-.451-.162 0-.372.109-.56.277v2.182h-.809v-2.237c0-.265-.034-.516-.105-.722zm3.144 0a.8.8 0 0 1 .113.385c.121-.083.224-.156.356-.229.164-.083.375-.13.555-.13.343 0 .644.178.74.445.044.114.06.247.06.439v2.254h-.794v-2.008c0-.35-.062-.451-.272-.451-.162 0-.375.109-.56.277v2.182h-.81v-2.237c0-.265-.035-.516-.106-.722zm-5.531.012c.516 0 .873.192.992.537.043.126.063.224.057.554l-.018 1.037v.053c0 .332.054.457.29.633l-.43.494c-.187-.079-.355-.217-.432-.375-.06.061-.127.122-.188.164-.15.109-.367.168-.62.168-.688 0-1.061-.35-1.061-.963 0-.723.5-1.062 1.482-1.062.06 0 .116 0 .182.006v-.125c0-.345-.067-.457-.363-.457-.26 0-.561.126-.891.35l-.346-.58c.164-.103.285-.163.502-.253.302-.127.56-.182.844-.182m9.27 0c.354 0 .693.122.892.327.283.288.41.704.41 1.347v.188h-1.783v.025c0 .475.235.746.65.746q.415-.001.784-.308l.314.484c-.356.289-.73.426-1.164.426-.886 0-1.457-.627-1.457-1.596 0-.555.114-.922.385-1.222.253-.285.56-.416.968-.416m.012.59c-.306 0-.48.24-.48.67v.011h.933v-.035c0-.23-.023-.351-.095-.465-.08-.121-.194-.182-.358-.182m-9.078 1.211c-.56 0-.75.104-.75.471 0 .242.148.404.354.404.15 0 .301-.08.422-.213l.011-.662z"/></svg>