<svg xmlns="http://www.w3.org/2000/svg" viewBox="0 0 24 24"><path d="M7.002 7.891a.677.677 0 0 0-.106 1.05.7.7 0 0 0 1.066-.103.68.68 0 0 0 .117-.379l.001-.001a.68.68 0 0 0-.203-.483.7.7 0 0 0-.875-.084m10.239.403a1.27 1.27 0 0 0-.881-.342h-1.466v8.195h1.148v-3.559h.318c.675 0 1.27-.68 1.27-1.337l-.001-2.106a1.22 1.22 0 0 0-.388-.851m-.654 3.052c0 .334-.283.334-.543.334V8.87h.158c.301 0 .384.198.384.71zm4.162 4.798.001-.001h-.001zm-1.384-6.666c-.848 0-1.376.407-1.376 1.103v1.283h1.078v-.934c.009-.289-.023-.708.31-.708.307 0 .256.506.256.724 0 1.639-1.65 1.023-1.65 2.308v2.207c0 .498.247.763.755.763.417 0 .614-.141.859-.532h.068a1 1 0 0 0 .065.451h1.02v-5.559c-.001-.679-.536-1.106-1.385-1.106m.304 5.561a.315.315 0 0 1-.317.293.3.3 0 0 1-.107-.011.3.3 0 0 1-.162-.134.3.3 0 0 1-.03-.101v-1.713c.003-.328.287-.517.613-.693h.003zm3.268-7.109v2.039h-.027a1.05 1.05 0 0 0-.842-.503c-.428 0-.809.247-.809.722v5.253c-.013.551.371.782.809.782.322-.038.612-.212.798-.477h.071v.396H24V7.93zm-.001 6.992c-.013.352-.154.411-.326.411-.158 0-.29-.102-.29-.411v-4.168c0-.259.097-.384.29-.384.158 0 .313.039.326.391zM0 8.951h1.09v7.169h1.177V8.951h1.078V7.92H0zm5.504.518a.84.84 0 0 0-.799.475h-.046V7.905H3.604v8.224h1.064v-5.388c0-.174.046-.379.317-.379.245 0 .298.165.298.389v5.379H6.35v-5.602c0-.693-.116-1.059-.846-1.059m1.352.083h1.06v6.583h-1.06zm3.448-.069a.88.88 0 0 0-.799.465h-.044v-.389H8.404v6.581h1.054v-5.334c0-.185.014-.43.342-.43.245 0 .282.22.282.43v5.336h1.068v-5.496c.001-.693.01-1.163-.846-1.163m4.193.079H13.43l-.611 3.033h-.101V7.928h-1.065v8.215h1.065v-3.476h.101l.622 3.476h1.091l-.676-3.604z"/></svg>