<svg xmlns="http://www.w3.org/2000/svg" viewBox="0 0 24 24"><path d="M24 13.594c-.116.393-.29.764-.439 1.143a871 871 0 0 1-1.293 3.233q-.15.37-.297.741a.91.91 0 0 1-.848.573.91.91 0 0 1-.844-.578c-1.94-4.853-3.19-7.97-5.101-12.752a.9.9 0 0 1 .032-.76.9.9 0 0 1 .602-.462q.027-.007.052-.015h4.247q.02.007.04.012a.9.9 0 0 1 .66.567l.743 1.858 1.945 4.865c.17.428.36.847.5 1.286zM4.998 4.714q.072.018.143.041a.86.86 0 0 1 .544.506A911 911 0 0 1 6.94 8.394c.629 1.57 1.255 3.14 1.886 4.71a.9.9 0 0 1 0 .699L6.85 18.725a.9.9 0 0 1-.329.406.92.92 0 0 1-1.028-.003.9.9 0 0 1-.342-.434c-.394-1-.796-1.997-1.195-2.995-1.078-2.727-2.17-5.448-3.258-8.171q-.311-.78-.625-1.56a.91.91 0 0 1 .45-1.177 2 2 0 0 1 .238-.077zm7.627 0c.147.03.286.092.407.18a.95.95 0 0 1 .3.412q1.22 3.051 2.44 6.1.336.843.676 1.684a.93.93 0 0 1 0 .724l-1.958 4.882c-.13.323-.364.524-.71.577-.429.064-.813-.148-.968-.524-.981-2.438-1.954-4.88-2.93-7.32q-.816-2.05-1.637-4.1c-.181-.453-.356-.91-.546-1.36a.91.91 0 0 1 .027-.769.9.9 0 0 1 .607-.472l.045-.014Z"/></svg>