<svg xmlns="http://www.w3.org/2000/svg" viewBox="0 0 24 24"><path d="M21.576 1.742q-.077 0-.152.008c-1.724.137-3.14 1.095-4.098 2.773a8 8 0 0 0-.53 1.126c-.659-.396-1.624-.825-2.706-.825q-.305 0-.602.046c-.729.112-2.949.453-4.497 1.938-.77.74-1.333 1.733-1.687 2.49-.861-.7-2.262-1.565-3.924-1.565-.737 0-1.459.172-2.147.513-.78.355-1.239 1.496-1.233 2.4.005.701.288 1.223.777 1.433a.8.8 0 0 0 .321.054c.736 0 3.983-.568 5.928-.938l1.662 4.448.081.08.214.212.767.762.974.97c-.153.118-.319.25-.486.392-.914.773-1.321 1.388-1.321 1.886 0 1.016 1.629 2.313 2.955 2.313.302 0 .585-.11.841-.229l.535-.416c.415-.383.758-.935 1.027-1.484 1.002-.094 1.966-.459 2.773-.871l1.013-.584c.684-.44 1.121-.819 1.165-.857l.167-.147.269-6.285L18.1 7.202c.821-.301 1.848-.687 2.799-1.058 2.667-1.042 2.771-1.185 2.881-1.336.291-.402.293-.932.007-1.495-.394-.772-1.329-1.571-2.211-1.571m0 1.041c.39 0 1.025.496 1.284 1.003.084.165.107.294.095.366-.539.301-3.252 1.358-5.268 2.094.428-1.228 1.488-3.278 3.827-3.459l.022-.002q.02-.002.04-.002M14.09 5.865c.967 0 1.851.461 2.385.812.197.13.348.245.436.317l.017.045.01.029.182.488 1.493 3.995-.097 2.281c-.858-.114-1.604-.115-2.285-.015a6 6 0 0 0-1.043.247l-.206.073-.629-1.534-.426-1.04-2.139-5.221a10 10 0 0 1 1.858-.443 3 3 0 0 1 .444-.034m-2.727.641 2.072 5.056.426 1.041.7 1.706c-1.103.498-2.128 1.306-3.361 2.364l-.925-.921-.692-.687-.047-.126-1.475-3.948-.159-.427c.044-.121.114-.302.208-.52.297-.69.839-1.754 1.602-2.485.491-.472 1.077-.81 1.651-1.053m1.013.158a.233.233 0 1 0 .232.233.23.23 0 0 0-.232-.233m.39.845a.234.234 0 0 0-.233.233.233.233 0 0 0 .466 0 .234.234 0 0 0-.233-.233m.325.781a.233.233 0 0 0-.233.232.233.233 0 0 0 .466 0 .233.233 0 0 0-.233-.232m-9.711.483c1.41 0 2.64.809 3.365 1.416-1.978.376-4.892.877-5.597.902-.057-.067-.106-.226-.108-.452-.004-.646.339-1.32.626-1.447l.021-.01a3.8 3.8 0 0 1 1.693-.409m12.7.38a1.6 1.6 0 0 0-.887.264 1.62 1.62 0 0 0-.703 1.028c-.089.425-.007.859.23 1.222a1.62 1.62 0 0 0 1.363.737 1.627 1.627 0 0 0-.003-3.251m0 .91a.715.715 0 0 1 .392 1.315.7.7 0 0 1-.389.116.715.715 0 0 1-.702-.862.71.71 0 0 1 .31-.452.7.7 0 0 1 .389-.117m-5.23.951c-.316 0-.623.091-.888.265a1.62 1.62 0 0 0-.703 1.027c-.089.425-.007.859.23 1.222a1.62 1.62 0 0 0 2.25.473c.364-.237.613-.602.703-1.027a1.61 1.61 0 0 0-.23-1.223 1.62 1.62 0 0 0-1.362-.737m0 .91a.716.716 0 0 1 .701.863.715.715 0 0 1-.699.568.71.71 0 0 1-.6-.324.7.7 0 0 1-.102-.538.71.71 0 0 1 .31-.452.7.7 0 0 1 .39-.117m6.315 2.275q.123-.002.251.001.507.01 1.08.089l-.123 2.881a11 11 0 0 1-1.386.935c-.641.367-1.426.728-2.246.901a4.7 4.7 0 0 1-1.104.104l-.034-.034a426 426 0 0 0-2.024-2.026l-.055-.055c1.452-1.245 2.574-2.11 3.874-2.522a5.7 5.7 0 0 1 1.053-.227q.343-.042.714-.047m-.237.203a.233.233 0 1 0 0 .466.233.233 0 0 0 0-.466m.845 0a.233.233 0 0 0 0 .466.233.233 0 0 0 0-.466m-.609 1.287c-.44.069-1.343.456-2.137.826-.793.369-1.476.722-1.476.722 1.795 1.468 3.8-.765 3.613-1.548m-5.699 2.717a358 358 0 0 1 1.572 1.577l.055.056-.028.144c-.24.399-.506.716-.777.848a.95.95 0 0 1-.415.087c-.897 0-1.881-.897-1.914-1.216.054-.25.714-.894 1.507-1.496"/></svg>