<svg xmlns="http://www.w3.org/2000/svg" viewBox="0 0 24 24"><path d="M21.474 0H2.526C1.131 0 0 1.18 0 2.637v18.726C0 22.819 1.131 24 2.526 24h18.948C22.869 24 24 22.82 24 21.363V2.637C24 1.181 22.869 0 21.474 0m-11.01 5.388q.595-.607 1.474-.607.854 0 1.448.607.595.606.595 1.476c0 .87-.198 1.072-.595 1.476a1.95 1.95 0 0 1-1.448.607q-.879 0-1.474-.607-.594-.606-.594-1.476c0-.87.198-1.072.594-1.476m3.13 11.49a4.9 4.9 0 0 1-2.018 2.136q-.724.422-1.19-.026-.438-.422.26-1.002.387-.29.646-.738.258-.449.336-.923.026-.21-.181-.21-.517-.027-1.06-.581t-.543-1.37q0-.87.594-1.477a2.02 2.02 0 0 1 1.5-.633q.828 0 1.448.633.62.605.724 1.37.207 1.424-.517 2.822z"/></svg>