<svg xmlns="http://www.w3.org/2000/svg" viewBox="0 0 24 24"><path d="M12 3.848C5.223 3.848 0 7.298 0 12s5.224 8.152 12 8.152S24 16.702 24 12s-5.223-8.152-12-8.152m7.334 3.839c0 1.08-1.725 1.913-4.488 2.246-.26-2.58-1.005-4.279-1.963-4.913 2.948.184 6.45 1.227 6.45 2.667zM12 16.401c-.96 0-1.746-1.5-1.808-4.389q.866.071 1.808.072.942 0 1.807-.072c-.061 2.89-.847 4.389-1.807 4.389m0-6.308q-.886 0-1.69-.054c.261-1.728.92-3.15 1.69-3.15s1.428 1.422 1.689 3.15q-.803.053-1.689.054m-.882-5.075c-.956.633-1.706 2.333-1.964 4.915C6.391 9.6 4.665 8.767 4.665 7.687c0-1.44 3.504-2.49 6.453-2.669M2.037 11.68a5.27 5.27 0 0 1 1.048-3.164c.27 1.547 2.522 2.881 5.972 3.37V12c0 3.772.879 6.203 2.087 6.97-5.107-.321-9.107-3.48-9.107-7.29m10.823 7.29c1.207-.767 2.087-3.198 2.087-6.97v-.115c3.447-.488 5.704-1.826 5.972-3.37a5.26 5.26 0 0 1 1.049 3.165c-.004 3.81-4.008 6.969-9.109 7.29z"/></svg>