<svg xmlns="http://www.w3.org/2000/svg" viewBox="0 0 24 24"><path d="M10.705 0C7.54 0 4.902 2.285 4.349 5.291a4.525 4.525 0 0 0-4.107 4.5 4.525 4.525 0 0 0 4.52 4.52h6.761a.625.625 0 1 0 0-1.25H4.761a3.273 3.273 0 0 1-3.27-3.27A3.273 3.273 0 0 1 6.59 7.08a.625.625 0 0 0 .7-1.035 4.5 4.5 0 0 0-1.68-.69 5.22 5.22 0 0 1 5.096-4.104 5.22 5.22 0 0 1 5.174 4.57 5 5 0 0 0-.488.305.625.625 0 1 0 .731 1.013 3.25 3.25 0 0 1 1.912-.616 3.28 3.28 0 0 1 3.203 2.61.625.625 0 0 0 1.225-.251 4.53 4.53 0 0 0-4.428-3.61 4.5 4.5 0 0 0-.958.105C16.556 2.328 13.9 0 10.705 0m5.192 10.64a.9.9 0 0 0-.462.108.9.9 0 0 0-.313.29 1.3 1.3 0 0 0-.175.427 2.4 2.4 0 0 0-.054.514q0 .271.054.517.055.246.175.43a.9.9 0 0 0 .313.297q.19.11.462.11.27 0 .46-.11a.9.9 0 0 0 .309-.296q.12-.185.173-.431.054-.246.054-.517 0-.27-.054-.514a1.3 1.3 0 0 0-.173-.426.9.9 0 0 0-.309-.291.9.9 0 0 0-.46-.108m6.486 0a.9.9 0 0 0-.462.108.9.9 0 0 0-.313.29 1.3 1.3 0 0 0-.175.427 2.4 2.4 0 0 0-.053.514q0 .271.053.517.055.246.175.43a.9.9 0 0 0 .313.297q.19.11.462.11.27 0 .46-.11a.9.9 0 0 0 .31-.296q.117-.185.172-.431t.054-.517q0-.27-.054-.514a1.3 1.3 0 0 0-.173-.426.9.9 0 0 0-.308-.291.9.9 0 0 0-.461-.108m-8.537.068-.84.618.313.43.476-.368v1.877h.603v-2.557zm6.486 0-.841.618.314.43.477-.368v1.877h.603v-2.557zm-4.435.445q.119 0 .193.084.074.085.114.21.039.125.054.269a2.5 2.5 0 0 1 0 .533q-.015.145-.054.27a.6.6 0 0 1-.114.21.24.24 0 0 1-.193.085.25.25 0 0 1-.195-.086.6.6 0 0 1-.118-.209 1.3 1.3 0 0 1-.056-.27 2.7 2.7 0 0 1 0-.533q.015-.144.056-.27a.6.6 0 0 1 .118-.209.25.25 0 0 1 .195-.084m6.486 0q.12 0 .193.084.074.085.114.21t.054.269a2.5 2.5 0 0 1 0 .533q-.014.145-.054.27a.6.6 0 0 1-.114.21.24.24 0 0 1-.193.085.25.25 0 0 1-.195-.086.6.6 0 0 1-.117-.209 1.3 1.3 0 0 1-.056-.27 2.6 2.6 0 0 1 0-.533q.014-.144.056-.27a.6.6 0 0 1 .117-.209.25.25 0 0 1 .195-.084m-2.191 3.51a.93.93 0 0 0-.463.109.9.9 0 0 0-.312.291q-.12.182-.175.426a2.4 2.4 0 0 0-.054.514q0 .27.054.516t.175.432a.9.9 0 0 0 .312.296.9.9 0 0 0 .463.11q.27 0 .46-.11a.9.9 0 0 0 .308-.296 1.3 1.3 0 0 0 .174-.432q.054-.245.054-.516 0-.27-.054-.514a1.3 1.3 0 0 0-.174-.426.9.9 0 0 0-.309-.291.9.9 0 0 0-.46-.108zm-6.402.07-.841.617.314.43.476-.369v1.878h.604v-2.557zm2.125 0-.841.617.314.43.477-.369v1.878h.603v-2.557zm2.116 0-.84.617.313.43.477-.369v1.878h.603v-2.557zm2.16.443q.12 0 .194.085a.6.6 0 0 1 .114.21q.04.124.053.269a2.6 2.6 0 0 1 0 .532 1.3 1.3 0 0 1-.053.27.6.6 0 0 1-.114.21.24.24 0 0 1-.193.085.25.25 0 0 1-.196-.085.6.6 0 0 1-.117-.21 1.3 1.3 0 0 1-.056-.27 2.6 2.6 0 0 1 0-.532q.014-.145.056-.27a.6.6 0 0 1 .117-.209.25.25 0 0 1 .196-.085zm-6.729 3.073a.7.7 0 0 0-.335.078.66.66 0 0 0-.227.211.9.9 0 0 0-.127.31q-.04.177-.04.373c0 .196.013.256.04.375a.9.9 0 0 0 .127.313.65.65 0 0 0 .227.215q.138.08.335.08a.66.66 0 0 0 .334-.08.65.65 0 0 0 .225-.215q.086-.135.125-.313a1.8 1.8 0 0 0 .04-.375q0-.195-.04-.373a.9.9 0 0 0-.125-.31.66.66 0 0 0-.225-.21.67.67 0 0 0-.334-.08zm3.086 0a.7.7 0 0 0-.336.078.66.66 0 0 0-.226.211.9.9 0 0 0-.127.31 1.7 1.7 0 0 0-.04.373q0 .197.04.375a.9.9 0 0 0 .127.313q.088.135.226.215.14.08.336.08a.66.66 0 0 0 .334-.08.65.65 0 0 0 .224-.215q.087-.135.126-.313a1.75 1.75 0 0 0 0-.748 1 1 0 0 0-.126-.31.66.66 0 0 0-.224-.21.67.67 0 0 0-.334-.08zm5.108 0a.7.7 0 0 0-.336.078.66.66 0 0 0-.226.211.9.9 0 0 0-.127.31q-.04.177-.04.373c0 .196.013.256.04.375a.9.9 0 0 0 .127.313q.087.135.226.215.14.08.336.08t.334-.08a.65.65 0 0 0 .224-.215q.087-.135.126-.313a1.8 1.8 0 0 0 .04-.375q0-.195-.04-.373a1 1 0 0 0-.126-.31.66.66 0 0 0-.224-.21.67.67 0 0 0-.334-.08zm-6.658.05-.61.448.227.311.346-.266v1.362h.438v-1.856zm3.068 0-.61.448.227.311.346-.266v1.362h.438v-1.856zm5.108 0-.611.448.228.311.346-.266v1.362h.438v-1.856zm-9.712.322q.087 0 .14.062a.4.4 0 0 1 .083.151 1 1 0 0 1 .04.196 2 2 0 0 1 0 .386 1 1 0 0 1-.04.197.4.4 0 0 1-.083.152.18.18 0 0 1-.14.061.18.18 0 0 1-.141-.06.4.4 0 0 1-.085-.153 1 1 0 0 1-.041-.197 2 2 0 0 1 0-.386 1 1 0 0 1 .04-.196.4.4 0 0 1 .086-.151.18.18 0 0 1 .141-.062m3.086 0q.086 0 .14.062a.4.4 0 0 1 .082.151 1 1 0 0 1 .04.196 2 2 0 0 1 0 .386 1 1 0 0 1-.04.197.4.4 0 0 1-.082.152.18.18 0 0 1-.14.061.18.18 0 0 1-.141-.06.4.4 0 0 1-.086-.153 1 1 0 0 1-.04-.197 2 2 0 0 1-.011-.195q0-.086.01-.191a1 1 0 0 1 .041-.196.4.4 0 0 1 .086-.151.18.18 0 0 1 .141-.062m5.108 0q.087 0 .14.062a.4.4 0 0 1 .082.151 1 1 0 0 1 .04.196 2 2 0 0 1 0 .386 1 1 0 0 1-.04.197.4.4 0 0 1-.082.152.18.18 0 0 1-.14.061.18.18 0 0 1-.142-.06.4.4 0 0 1-.085-.153 1 1 0 0 1-.04-.197 2 2 0 0 1-.011-.195q0-.086.01-.191a1 1 0 0 1 .04-.196.5.5 0 0 1 .086-.151.18.18 0 0 1 .142-.062m-1.684 1.814a.7.7 0 0 0-.336.079.66.66 0 0 0-.227.21.9.9 0 0 0-.127.31 1.7 1.7 0 0 0 0 .748 1 1 0 0 0 .127.314q.088.135.227.215.14.08.336.08a.66.66 0 0 0 .334-.08.65.65 0 0 0 .224-.215q.087-.135.126-.314a1.7 1.7 0 0 0-.001-.747.9.9 0 0 0-.125-.31.65.65 0 0 0-.224-.211.67.67 0 0 0-.334-.079m3.063 0a.7.7 0 0 0-.336.079.7.7 0 0 0-.227.21.9.9 0 0 0-.127.31 1.7 1.7 0 0 0 0 .748.9.9 0 0 0 .127.314.66.66 0 0 0 .227.215q.138.08.336.08a.65.65 0 0 0 .334-.08.65.65 0 0 0 .223-.215q.087-.135.126-.314a1.7 1.7 0 0 0 0-.747.9.9 0 0 0-.126-.31.65.65 0 0 0-.223-.211.67.67 0 0 0-.334-.079m-1.545.05-.611.448.228.312.346-.267v1.363h.438v-1.856zm-1.518.323q.086 0 .14.061a.4.4 0 0 1 .082.152 1 1 0 0 1 .04.195 2 2 0 0 1 0 .387 1 1 0 0 1-.04.197.4.4 0 0 1-.082.152.18.18 0 0 1-.14.06.18.18 0 0 1-.142-.06.4.4 0 0 1-.085-.152 1 1 0 0 1-.04-.197 2 2 0 0 1-.011-.195q0-.087.01-.192a1 1 0 0 1 .041-.195q.03-.09.085-.152a.18.18 0 0 1 .142-.061m3.063 0q.086 0 .14.061a.4.4 0 0 1 .082.152 1 1 0 0 1 .04.195 2 2 0 0 1 0 .387 1 1 0 0 1-.04.197.4.4 0 0 1-.083.152.18.18 0 0 1-.14.06.18.18 0 0 1-.141-.06.4.4 0 0 1-.085-.152 1 1 0 0 1-.04-.197 2 2 0 0 1 0-.387 1 1 0 0 1 .04-.195q.03-.09.085-.152a.18.18 0 0 1 .142-.061m-9.713.185a.47.47 0 0 0-.232.055.46.46 0 0 0-.157.146.6.6 0 0 0-.089.215 1.2 1.2 0 0 0-.027.259q0 .135.027.26a.7.7 0 0 0 .089.216q.06.094.157.149a.46.46 0 0 0 .232.056q.136-.001.231-.056a.45.45 0 0 0 .156-.149.7.7 0 0 0 .087-.217 1.2 1.2 0 0 0 0-.518.7.7 0 0 0-.087-.215.45.45 0 0 0-.156-.146.46.46 0 0 0-.23-.055zm1.052.035-.423.31.158.217.24-.185v.944h.303v-1.286zm-1.052.224q.06 0 .097.042a.3.3 0 0 1 .057.105.7.7 0 0 1 .028.136q.006.073.007.133 0 .06-.007.135a.7.7 0 0 1-.028.136.3.3 0 0 1-.057.105.12.12 0 0 1-.097.043.13.13 0 0 1-.098-.043.3.3 0 0 1-.059-.105.6.6 0 0 1-.028-.136 1.4 1.4 0 0 1 0-.268.6.6 0 0 1 .028-.136.3.3 0 0 1 .06-.105.13.13 0 0 1 .097-.042m3.775 1.394a.46.46 0 0 0-.232.054.45.45 0 0 0-.157.146.6.6 0 0 0-.088.214 1.2 1.2 0 0 0 0 .519.6.6 0 0 0 .088.217.46.46 0 0 0 .157.15.46.46 0 0 0 .232.054.45.45 0 0 0 .232-.055.45.45 0 0 0 .155-.149.7.7 0 0 0 .087-.217 1.2 1.2 0 0 0 0-.519.6.6 0 0 0-.087-.214.45.45 0 0 0-.155-.146.46.46 0 0 0-.232-.054m1.052.034-.423.31.158.216.24-.185v.945h.303V22.68zm-1.052.223q.06 0 .098.043a.3.3 0 0 1 .057.105.6.6 0 0 1 .027.135 1.3 1.3 0 0 1 0 .268.7.7 0 0 1-.027.137.3.3 0 0 1-.057.105.12.12 0 0 1-.098.042.13.13 0 0 1-.098-.042.3.3 0 0 1-.059-.105.6.6 0 0 1-.028-.137 1.4 1.4 0 0 1 0-.268.6.6 0 0 1 .028-.135.3.3 0 0 1 .06-.105.12.12 0 0 1 .097-.043"/></svg>