<svg xmlns="http://www.w3.org/2000/svg" viewBox="0 0 24 24"><path d="M23.267 0H.737A.737.737 0 0 0 0 .737v3.09h12a8.177 8.177 0 0 1 6.803 12.705h5.177V.737A.733.733 0 0 0 23.267 0M3.827 12a8.15 8.15 0 0 1 1.37-4.532H0v15.8A.733.733 0 0 0 .737 24h22.53a.733.733 0 0 0 .733-.733v-3.094H12A8.173 8.173 0 0 1 3.827 12m14.115-.207a9.2 9.2 0 0 1-2.282.554 4 4 0 0 0-.024-.92A9.7 9.7 0 0 0 17.6 9.112a.882.882 0 0 0-1.49-.944 8.8 8.8 0 0 1-1.215 1.549 3.6 3.6 0 0 0-.756-.721 7.3 7.3 0 0 0-.124-1.545 12.4 12.4 0 0 0-.561-2.012.88.88 0 0 0-1.131-.525.84.84 0 0 0-.323.203.89.89 0 0 0-.207.928c.08.21.147.398.207.61q.131.424.22.796a8 8 0 0 1 .127.912 3.4 3.4 0 0 0-.917.024A9.8 9.8 0 0 0 9.113 6.42a.884.884 0 0 0-.944 1.494 8.8 8.8 0 0 1 1.553 1.195 3.7 3.7 0 0 0-.725.756 9.5 9.5 0 0 0-3.557.69.882.882 0 0 0 .606 1.656 9.3 9.3 0 0 1 2.318-.57c0 .12-.02.24-.02.359a4 4 0 0 0 .044.558 9.7 9.7 0 0 0-1.968 2.314.88.88 0 0 0 .745 1.354.88.88 0 0 0 .749-.399 8.6 8.6 0 0 1 1.195-1.549 4 4 0 0 0 .756.725 7 7 0 0 0 .128 1.541 12 12 0 0 0 .561 2.012.88.88 0 0 0 .825.561.9.9 0 0 0 .302-.052.9.9 0 0 0 .319-.207.88.88 0 0 0 .207-.924c-.076-.215-.147-.398-.207-.613q-.132-.422-.215-.797a7 7 0 0 1-.143-.872H12a4 4 0 0 0 .562-.04 9.7 9.7 0 0 0 2.31 1.964.882.882 0 1 0 .943-1.49 9 9 0 0 1-1.549-1.214 3.7 3.7 0 0 0 .725-.757h.203a10 10 0 0 0 3.35-.69.884.884 0 0 0-.602-1.66zM13.96 12v.16a1.95 1.95 0 0 1-.693 1.35 2 2 0 0 1-.243.175 2 2 0 0 1-1.032.29h-.16a1.95 1.95 0 0 1-1.345-.689 2 2 0 0 1-.18-.247 2 2 0 0 1-.29-1.031v-.16a2 2 0 0 1 .047-.298 2 2 0 0 1 .642-1.048 3 3 0 0 1 .247-.179 2 2 0 0 1 1.031-.29h.16a2 2 0 0 1 .302.047 2 2 0 0 1 1.048.646 2 2 0 0 1 .175.242A2 2 0 0 1 13.975 12z"/></svg>