<svg xmlns="http://www.w3.org/2000/svg" viewBox="0 0 24 24"><path d="M11.909.01C9.832.153 7.89 1.617 7.89 1.617s4.235-1.383 5.42.752c.861 1.552-.133 3.989-1.67 6.6-1.418-1.212-5.21-4.035-8.73-3.038C-1.528 7.187.43 13.176.43 13.176S.45 8.632 2.803 8.14c1.71-.358 3.673 1.364 5.63 3.664-1.567 1.005-5.368 3.815-5.526 7.545C2.705 24.048 8.883 24 8.883 24s-4.224-1.424-3.955-3.863c.196-1.773 2.403-3.148 5.149-4.338.451 1.833 1.894 6.393 5.316 7.701 4.313 1.648 6.176-4.37 6.176-4.37s-2.627 3.662-4.816 2.647c-1.59-.737-2.189-3.308-2.448-6.343 1.845.127 6.536.137 8.811-2.785 2.867-3.681-2.158-7.353-2.158-7.353s2.597 3.687.976 5.5c-1.178 1.317-3.755 1.103-6.66.417.689-1.753 2.146-6.31.129-9.423C14.45.32 13.155-.074 11.909.01m-1.266 2.487c-.547 0-1.097.072-1.557.162.78.292 1.413.754 1.862 1.361a3.6 3.6 0 0 1 .646 1.524 10 10 0 0 0 .524-1.475 1.25 1.25 0 0 0-.186-1.039 1.23 1.23 0 0 0-.93-.523 5 5 0 0 0-.359-.01m9.713 4.283c-.032.849-.263 1.606-.691 2.228a3.5 3.5 0 0 1-1.219 1.098 10 10 0 0 0 1.115.065q.214 0 .418-.01a1.2 1.2 0 0 0 .912-.502 1.28 1.28 0 0 0 .198-1.065c-.164-.657-.459-1.302-.733-1.814M3.362 9.626a1.23 1.23 0 0 0-1.143.802c-.245.629-.378 1.33-.451 1.91.785-1.018 1.825-1.582 2.967-1.582a3.4 3.4 0 0 1 .494.036 9.6 9.6 0 0 0-1.211-.965 1.2 1.2 0 0 0-.656-.201m12.953 8.546c.12.576.26 1.076.424 1.512a1.21 1.21 0 0 0 1.135.795 1.25 1.25 0 0 0 .666-.202c.559-.362 1.07-.848 1.463-1.273a4.4 4.4 0 0 1-1.211.178 3.47 3.47 0 0 1-2.477-1.01m-8.168.428a10 10 0 0 0-1.272.877 1.24 1.24 0 0 0-.449.95 1.27 1.27 0 0 0 .451.981c.51.431 1.122.78 1.64 1.03-.465-.707-.711-1.46-.724-2.221a3.6 3.6 0 0 1 .354-1.617"/></svg>