<svg xmlns="http://www.w3.org/2000/svg" viewBox="0 0 24 24"><path d="M6.155 12.058q0 .755.285 1.392t.771 1.106 1.123.738q.655.252 1.375.252.721 0 1.359-.252a3.6 3.6 0 0 0 1.14-.738 3.37 3.37 0 0 0 1.073-2.498 3.37 3.37 0 0 0-1.073-2.498 3.4 3.4 0 0 0-1.14-.721 3.5 3.5 0 0 0-1.359-.269q-.72 0-1.374.269-.638.251-1.124.72a3.5 3.5 0 0 0-.771 1.107 3.4 3.4 0 0 0-.285 1.392m-3.437 0q0-1.408.52-2.616a6.5 6.5 0 0 1 1.441-2.13 6.5 6.5 0 0 1 2.197-1.408q1.29-.52 2.833-.52 1.527 0 2.817.52a6.5 6.5 0 0 1 2.213 1.409 6.54 6.54 0 0 1 1.979 4.745q0 1.408-.52 2.632a6.45 6.45 0 0 1-1.459 2.113 6.7 6.7 0 0 1-2.213 1.425q-1.29.503-2.817.503-1.543 0-2.833-.503a6.7 6.7 0 0 1-2.197-1.425 6.6 6.6 0 0 1-1.442-2.113 6.7 6.7 0 0 1-.52-2.632ZM10.144.008a11.86 11.86 0 0 0-7.805 2.569l1.523.857C5.67 2.1 7.955 1.53 10.144 1.625V.007Zm8.09 3.616C16.331 1.625 13.856.388 11.191.102V1.72a10.73 10.73 0 0 1 5.901 3.046zm3.427 7.805c-.095-2.475-1.047-4.95-2.665-7.043l-1.142 1.142c1.332 1.808 2.094 3.807 2.189 5.9h1.618Zm-2.665 8.185c1.618-2.094 2.57-4.568 2.665-7.043h-1.618c-.095 2.094-.857 4.093-2.19 5.901zm-7.805 4.284c2.57-.286 5.14-1.523 7.043-3.522l-1.142-1.142c-1.618 1.713-3.712 2.76-5.901 3.046zm-8.852-2.475a11.87 11.87 0 0 0 7.805 2.57v-1.618c-2.19.095-4.378-.476-6.282-1.809z"/></svg>