<svg xmlns="http://www.w3.org/2000/svg" viewBox="0 0 24 24"><path d="M1.125 0C.502 0 0 .502 0 1.125v21.75C0 23.498.502 24 1.125 24h21.75c.623 0 1.125-.502 1.125-1.125V1.125C24 .502 23.498 0 22.875 0zm17.363 9.75q.918 0 1.627.111a6.4 6.4 0 0 1 1.306.34v2.458a4 4 0 0 0-.643-.361 5 5 0 0 0-.717-.26 5.5 5.5 0 0 0-1.426-.2q-.45 0-.819.086a2.1 2.1 0 0 0-.623.242q-.254.156-.393.374a.9.9 0 0 0-.14.49q0 .294.156.529.156.234.443.444c.287.21.423.276.696.41q.41.203.926.416.705.296 1.266.628.561.333.963.753.402.418.614.957.213.538.214 1.253 0 .986-.373 1.656a3.03 3.03 0 0 1-1.012 1.085 4.4 4.4 0 0 1-1.487.596q-.85.18-1.79.18a10 10 0 0 1-1.84-.164 5.5 5.5 0 0 1-1.512-.493v-2.63a5.03 5.03 0 0 0 3.237 1.2q.5 0 .872-.09.373-.09.623-.25.249-.162.373-.38a1.02 1.02 0 0 0-.074-1.089 2.1 2.1 0 0 0-.537-.5 5.6 5.6 0 0 0-.807-.444 28 28 0 0 0-1.007-.436q-1.377-.575-2.053-1.405t-.676-2.005q0-.92.369-1.582.368-.662 1.004-1.089a4.5 4.5 0 0 1 1.47-.629 7.5 7.5 0 0 1 1.77-.201m-15.113.188h9.563v2.166H9.506v9.646H6.789v-9.646H3.375z"/></svg>