<svg xmlns="http://www.w3.org/2000/svg" viewBox="0 0 24 24"><path d="M23.163 0h-1.488v1.488h1.488zm-5.207 10.423V7.44h2.976v2.977h2.975v.943c0 1.091-.092 2.383-.306 3.398-.12.567-.3 1.13-.512 1.672a12 12 0 0 1-.741 1.56 11.7 11.7 0 0 1-1.246 1.775l-.025.03-.042.049c-.115.134-.228.268-.353.398a12 12 0 0 1-.45.449 11.83 11.83 0 0 1-6.98 3.243A16 16 0 0 1 12 24c-.314-.001-.94-.033-1.252-.065a11.84 11.84 0 0 1-6.98-3.243 12 12 0 0 1-.45-.45c-.131-.135-.25-.274-.368-.415h-.001l-.051-.06a11.7 11.7 0 0 1-1.246-1.777 12 12 0 0 1-.74-1.56 10.6 10.6 0 0 1-.513-1.671c-.214-1.016-.306-2.307-.306-3.397V.186h5.952v10.237s0 .784.01 1.041l.002.06c.012.332.024.658.059.982.098.919.301 1.79.72 2.528.122.213.245.42.392.616a5.99 5.99 0 0 0 3.957 2.34c.202.03.61.055.815.055s.613-.025.815-.055a6 6 0 0 0 3.957-2.34c.148-.196.27-.403.392-.616.419-.737.622-1.61.72-2.528.035-.325.047-.65.06-.983l.002-.059c.01-.257.01-1.041.01-1.041m.742-8.19h2.233v2.231h2.976v2.977h-2.976V4.465h-2.233z"/></svg>