<svg xmlns="http://www.w3.org/2000/svg" viewBox="0 0 24 24"><path d="M17.61.455a3.41 3.41 0 0 0-3.41 3.41 3.41 3.41 0 0 0 3.41 3.41 3.41 3.41 0 0 0 3.41-3.41 3.41 3.41 0 0 0-3.41-3.41M12.92.8C8.923.777 5.137 2.941 3.148 6.451a5 5 0 0 1 .26-.007 4.9 4.9 0 0 1 2.585.737A8.32 8.32 0 0 1 12.688 3.6 4.94 4.94 0 0 1 13.723.834 11 11 0 0 0 12.92.8m9.226 4.994a4.9 4.9 0 0 1-1.918 2.246 8.36 8.36 0 0 1-.273 8.303 4.9 4.9 0 0 1 1.632 2.54 11.16 11.16 0 0 0 .559-13.089M3.41 7.932A3.41 3.41 0 0 0 0 11.342a3.41 3.41 0 0 0 3.41 3.409 3.41 3.41 0 0 0 3.41-3.41 3.41 3.41 0 0 0-3.41-3.41zm2.027 7.866a4.9 4.9 0 0 1-2.915.358 11.1 11.1 0 0 0 7.991 6.698 11.2 11.2 0 0 0 2.422.249 4.88 4.88 0 0 1-.999-2.85 9 9 0 0 1-.836-.136 8.3 8.3 0 0 1-5.663-4.32zm11.405.928a3.41 3.41 0 0 0-3.41 3.41 3.41 3.41 0 0 0 3.41 3.41 3.41 3.41 0 0 0 3.41-3.41 3.41 3.41 0 0 0-3.41-3.41"/></svg>