<svg xmlns="http://www.w3.org/2000/svg" viewBox="0 0 24 24"><path d="M0 9.12v4.705h1.99c-.481-.16-.792-.5-.792-1.076v-2.483h.794v2.414c0 .382.285.606.804.606.454 0 .775-.225.775-.601v-2.42h.794v2.53q-.001.195-.056.358h.565v.672h.808c-.425-.134-.627-.375-.721-.672a1.5 1.5 0 0 1-.051-.372h.817c0 .065.023.175.05.23.101.21.34.302.821.302.552 0 .744-.15.744-.39 0-.298-.152-.403-.738-.514-.106-.018-.372-.069-.533-.1-.707-.134-1.143-.46-1.143-1.061 0-.615.496-1.028 1.56-1.028.91 0 1.336.316 1.52.775.046.12.083.257.083.349h-.818a.5.5 0 0 0-.05-.179c-.096-.202-.294-.307-.753-.307-.6 0-.72.133-.72.34 0 .266.215.371.808.49.183.037.422.088.504.101.721.138 1.097.437 1.097 1.057q0 .163-.044.307h.572v.672h.243v-3.56h.923l1.395 2.337v-2.336h.757v3.56h1.043a1.17 1.17 0 0 1-.622-.474c-.131-.21-.204-.477-.204-.812 0-.307.083-.58.233-.793.258-.375.72-.593 1.304-.593.612 0 1.03.223 1.269.569.2.292.272.676.228 1.079H12.99c0 .122.054.214.146.317.112.121.33.199.623.199.219 0 .379-.04.491-.088.14-.063.209-.15.223-.209h.764c-.063.258-.219.5-.486.672q-.125.078-.287.132h1.598l-.933-2.608h.812l.642 1.989.588-1.989h.865l.603 1.989.627-1.989h.765l-.944 2.608h1.442c-.286-.097-.452-.258-.514-.502a1 1 0 0 1-.029-.268h.773a.4.4 0 0 0 .024.137c.049.126.253.16.676.16.443 0 .58-.078.58-.233 0-.152-.162-.185-.556-.244-.101-.014-.422-.063-.583-.087-.588-.083-.87-.34-.87-.852 0-.476.427-.787 1.288-.787.734 0 1.197.19 1.333.574.034.102.048.267.048.32h-.753a.34.34 0 0 0-.034-.145c-.054-.073-.195-.136-.564-.136-.429 0-.555.068-.555.194 0 .117.083.16.462.22l.622.091c.642.098.925.336.925.837 0 .35-.169.591-.525.721H24V9.12Zm14.874 1.131c.274 0 .388.127.388.371 0 .256-.122.382-.388.382-.268 0-.39-.13-.39-.38 0-.232.12-.373.39-.373m5.912 0c.275 0 .388.127.388.371 0 .256-.122.382-.388.382-.268 0-.39-.13-.39-.38 0-.232.12-.373.39-.373m-8.108.006c.139 0 .22.08.225.168v.032c-.002.092-.073.157-.146.202.033.026.075.064.117.098a.2.2 0 0 0 .039-.11h.204a.33.33 0 0 1-.099.226l.157.12h-.277l-.035-.028a.6.6 0 0 1-.2.035c-.174 0-.33-.032-.336-.165v-.038c.002-.083.08-.134.167-.175a.3.3 0 0 1-.06-.154v-.037c.004-.09.092-.174.244-.174m.676.007h.238s.111.45.111.473c0-.023.108-.473.108-.473h.23s.11.45.11.473c0-.023.11-.473.11-.473h.216l-.205.729h-.243s-.11-.42-.112-.444c-.001.025-.113.444-.113.444h-.242zm2.861 0h.226v.549h.35v.18h-.576zm.687 0h.4c.131 0 .213.032.258.095.045.062.054.123.054.255 0 .156-.011.213-.051.273-.044.067-.12.106-.25.106h-.411zm1.946 0h.62v.172h-.4v.105h.385v.174h-.386v.108h.405v.17h-.624zm.766 0h.449q.131 0 .19.061.065.055.066.19 0 .12-.054.177c-.042.049-.112.072-.201.074l-.225-.001v.228h-.225zm2.428 0h.69v.175H22.5v.554h-.227v-.554h-.231Zm-6.681 0h.461q.143.002.197.077a.24.24 0 0 1 .042.153.27.27 0 0 1-.032.138.14.14 0 0 1-.09.069l.17.292h-.25l-.128-.247h-.15v.247h-.22Zm2.624 0h.46c.098 0 .161.028.198.077a.24.24 0 0 1 .042.153.3.3 0 0 1-.032.138.14.14 0 0 1-.09.069l.17.292h-.25l-.128-.247h-.15v.247h-.22zm3.29 0h.462q.143.002.197.077a.25.25 0 0 1 .042.153.3.3 0 0 1-.032.138.14.14 0 0 1-.09.069l.17.292h-.25l-.128-.247h-.15v.247h-.22zm-8.6.148c-.032 0-.045.022-.048.048v.02q0 .03.03.067c.037-.022.063-.046.065-.075v-.014c-.001-.024-.013-.046-.046-.046m2.199.011c-.12 0-.162.058-.162.204 0 .155.056.206.163.206.102 0 .162-.043.162-.206 0-.144-.04-.204-.163-.204m5.912 0c-.12 0-.161.058-.161.204 0 .155.055.206.161.206.103 0 .163-.043.163-.206 0-.144-.04-.204-.163-.204m-.95.01v.169h.175c.043 0 .064-.014.074-.035a.1.1 0 0 0 .01-.048.1.1 0 0 0-.01-.051q-.018-.034-.07-.034zm-2.712.001v.387h.14c.057 0 .087-.012.112-.042.02-.023.021-.105.021-.165 0-.052-.005-.12-.023-.14-.028-.031-.055-.04-.11-.04zm-1.541.002v.148h.193c.027 0 .05-.006.059-.024a.1.1 0 0 0 .008-.047.1.1 0 0 0-.008-.047c-.01-.023-.032-.03-.064-.03zm2.624 0v.148h.192c.027 0 .051-.006.06-.024a.1.1 0 0 0 .008-.047.1.1 0 0 0-.007-.047c-.012-.023-.034-.03-.066-.03zm3.29 0v.148h.193c.027 0 .051-.006.06-.024a.1.1 0 0 0 .007-.047.1.1 0 0 0-.007-.047c-.01-.023-.033-.03-.065-.03zm-8.897.308c-.033.019-.056.039-.056.06 0 .035.032.048.108.048.021 0 .046-.003.064-.007-.042-.036-.085-.07-.116-.1m-2.913.692v2.39h1.42Zm4.076.345c-.276 0-.48.073-.612.19a.55.55 0 0 0-.166.32h1.498a.47.47 0 0 0-.13-.306c-.113-.111-.298-.204-.59-.204m3.811.294-.033.187c-.005.09-.467 1.443-.508 1.563h1.089c-.042-.12-.504-1.474-.513-1.558zM4.166 13.422c-.14.185-.352.318-.612.403h.612zm3.813.007c-.126.173-.321.308-.581.396h.581ZM0 14.083v.797h24v-.797z"/></svg>