<svg xmlns="http://www.w3.org/2000/svg" viewBox="0 0 24 24"><path d="M0 11.982A12 12 0 1 1 12 24 12 12 0 0 1 0 11.982m11.756 4.11a12 12 0 0 1-2.773-.25 2.12 2.12 0 0 1-1.514-1.218q-.41-.943-.396-2.895a18 18 0 0 1 .127-2.04q.118-.988.236-1.629l.082-.425v-.038a.244.244 0 0 0-.201-.236l-1.544-.246H5.74a.24.24 0 0 0-.235.189 7 7 0 0 0-.089.409c-.088.455-.17.9-.26 1.548a20 20 0 0 0-.176 2.12 11 11 0 0 0 0 1.486q.05 1.977.675 3.155.626 1.179 2.106 1.695 1.482.517 4.135.506h.22q2.655.01 4.134-.506 1.478-.518 2.1-1.695t.678-3.147a11 11 0 0 0 0-1.485 20 20 0 0 0-.176-2.121 30 30 0 0 0-.26-1.548 7 7 0 0 0-.088-.41.24.24 0 0 0-.236-.188h-.04l-1.548.242a.236.236 0 0 0-.203.236v.037l.081.426q.118.643.236 1.63a19 19 0 0 1 .126 2.039q.019 1.95-.396 2.892a2.12 2.12 0 0 1-1.502 1.22 11.8 11.8 0 0 1-2.769.247Z"/></svg>