<svg xmlns="http://www.w3.org/2000/svg" viewBox="0 0 24 24"><path d="M24 12c0 6.627-5.373 12-12 12S0 18.627 0 12 5.373 0 12 0s12 5.373 12 12M12 2.449A9.55 9.55 0 0 0 2.449 12c0 2.09.672 4.024 1.811 5.597L17.597 4.26A9.5 9.5 0 0 0 12 2.449m0 19.102A9.55 9.55 0 0 0 21.551 12c0-2.09-.672-4.024-1.811-5.597L6.403 19.74A9.5 9.5 0 0 0 12 21.551m0-2.816a6.7 6.7 0 0 1-3.34-.885l2.32-2.32a3.674 3.674 0 0 0 4.388-2.06h3.206A6.74 6.74 0 0 1 12 18.734ZM5.265 12A6.735 6.735 0 0 1 15.34 6.15l-2.32 2.32a3.673 3.673 0 0 0-4.55 4.55l-2.32 2.32A6.7 6.7 0 0 1 5.265 12m13.28-1.592h-2.443L17.85 8.66c.309.54.545 1.128.695 1.748"/></svg>