<svg xmlns="http://www.w3.org/2000/svg" viewBox="0 0 24 24"><path d="M0 0v24h24V0zm4.322 2.977 4.37.002a.043.043 0 0 1 .044.04 9543 9543 0 0 1 0 9.165q0 1.126.09 1.957.057.505.287 1.03.503 1.153 1.715 1.405.94.195 1.893-.008c1.166-.248 1.813-1.268 1.96-2.404q.1-.77.1-2.018-.002-4.724.002-9.119 0-.05.049-.05h4.338a.033.033 0 0 1 .033.033v9.869c0 1.465-.17 2.918-.746 4.234-.777 1.775-2.323 2.836-4.195 3.211q-2.55.513-5.07-.013c-2.226-.465-3.808-1.828-4.46-4.03a10.2 10.2 0 0 1-.416-2.586 65 65 0 0 1-.029-1.88q-.003-4.555 0-8.801 0-.037.035-.037"/></svg>