<svg xmlns="http://www.w3.org/2000/svg" viewBox="0 0 24 24"><path d="M14.274 22.332a7.9 7.9 0 0 1-2.22.334h-.107a7.8 7.8 0 0 1-2.237-.34.668.668 0 1 0-.379 1.282 9.3 9.3 0 0 0 2.616.392h.107a9.2 9.2 0 0 0 2.6-.39.667.667 0 1 0-.38-1.278M20.101 5.91v-.04a8.522 8.522 0 0 0-16.207.026v.016c-.752 2.213-.48 5.175.734 7.935 1.66 3.774 4.674 6.406 7.343 6.406h.075c2.669 0 5.682-2.624 7.342-6.406 1.199-2.754 1.47-5.722.713-7.938zm-3.916-3.23c-1.35-.05-2.818.534-4.185 1.676-1.382-1.142-2.85-1.727-4.2-1.676a7.23 7.23 0 0 1 8.385 0m-3.09 15.995a2.6 2.6 0 0 1-2.205 0c-2.277-1.049-2.736-5.266-1.006-9.2A12 12 0 0 1 12 6.198a11.9 11.9 0 0 1 2.112 3.277c1.718 3.934 1.26 8.151-1.017 9.2m-7.26-5.356c-1.09-2.472-1.335-5.071-.684-6.99.347-1.007.932-1.722 1.687-2.072 1.183-.547 2.715-.16 4.183 1.028a13.3 13.3 0 0 0-2.357 3.651c-1.17 2.67-1.428 5.389-.889 7.505a12.7 12.7 0 0 1-1.94-3.122m12.315 0a12.7 12.7 0 0 1-1.94 3.125c.533-2.12.266-4.852-.89-7.508a13.3 13.3 0 0 0-2.356-3.651c1.468-1.188 2.997-1.575 4.18-1.028.758.35 1.334 1.068 1.69 2.072.658 1.905.402 4.518-.695 6.99z"/></svg>