<svg xmlns="http://www.w3.org/2000/svg" viewBox="0 0 24 24"><path d="M16.289 13.898q.541 1.326.543 2.875 0 2.896-1.977 5.063Q12.878 24 9.77 24c-2.082 0-3.778-.72-5.098-2.164q-1.977-2.167-1.978-5.063-.001-2.872 1.869-4.98c1.375-1.55 3.106-2.324 5.204-2.324q1.326.001 2.454.413c-.245.48-.466 1.07-.526 1.704a5 5 0 0 0-1.933-.376q-2.181 0-3.742 1.638T4.459 16.81c0 1 .24 1.931.71 2.795.48.864 1.115 1.53 1.925 2s1.694.705 2.66.705 1.859-.234 2.66-.704a5.06 5.06 0 0 0 1.925-2.001c.835-1.497.962-3.465.298-5.039a5.2 5.2 0 0 0 1.652-.67M20.387.428l-.012-.014c-.758 1.615-2.159 1.917-2.159 1.917-1.401.361-1.892.9-1.892.9-1.402 1.416-.295 3.134-.295 3.134 3.03-.693 4.137-3.186 4.137-3.186-.133 1.682-3.732 3.658-3.732 3.658 1.195 1.173 2.33 1.033 3.083.583.996-.59 1.475-1.895 1.475-1.895.966-2.899-.605-5.097-.605-5.097M7.03 20.474s.428.074.912.052c0 0 10.329-7.021 7.61-14.315l-.04-.118v.007c.033.487-4.484 13.061-8.482 14.374m8.383-15.19C15.049 1.41 12.933 0 12.933 0c1.49 2.513 2.3 4.77 2.481 5.306z"/></svg>