<svg xmlns="http://www.w3.org/2000/svg" viewBox="0 0 24 24"><path d="M2.672 10.63q-.165.001-.3.116t-.14.24q-.01.24.252.24a.4.4 0 0 0 .293-.125.35.35 0 0 0 .115-.23.23.23 0 0 0-.06-.16.2.2 0 0 0-.16-.08zm9.127.636v1.737c0 .327.22.365.344.365a1 1 0 0 0 .074-.006v-.181s-.023.003-.05.003c-.077 0-.166-.03-.166-.226v-1.692zm.63 0v.253h.21v-.253zm4.693.182v.431h-.199v.17h.196v.764c0 .5.347.555.519.555a1 1 0 0 0 .085-.006v-.181s-.026.006-.068.006c-.112 0-.335-.045-.335-.395v-.744h.374v-.17h-.373v-.43zM1.745 11.5q-.425-.015-.575.503a.4.4 0 0 1 .15-.035q.157 0 .138.184-.01.111-.137.324-.129.213-.193.213-.082 0-.151-.328a8 8 0 0 1-.083-.492q-.054-.367-.293-.343-.1.01-.303.193L0 12l.096.13a.6.6 0 0 1 .16-.101q.105 0 .197.346l.165.636q.123.346.302.346.288 0 .705-.569.292-.396.38-.67.115-.09.142-.09.082 0 .082.126 0 .024-.09.356-.088.333-.093.492a.37.37 0 0 0 .07.25.26.26 0 0 0 .218.096q.308 0 .615-.279l.053-.051a.4.4 0 0 0 .085.177q.132.15.447.14-.043-.106-.033-.376c.01-.2.06-.395.147-.574q.132-.274.248-.274.133 0 .124.178-.005.12-.045.275a1.4 1.4 0 0 0-.045.308q-.009.246.105.352.128.12.448.11a.75.75 0 0 1-.039-.317 1.4 1.4 0 0 1 .19-.608q.165-.298.285-.298.11 0 .105.183a2 2 0 0 1-.057.337 2 2 0 0 0-.057.37q-.01.348.289.347.308 0 .614-.279l.01-.01.022.038q.16.26.533.26.5 0 .986-.293l.104-.065a.7.7 0 0 0 .072.122q.188.246.55.246a.95.95 0 0 0 .73-.323q.294-.322.311-.765.014-.327-.142-.534-.165-.226-.486-.226-.5 0-.83.384-.308.348-.284.76 0 .03.004.06l-.034.016q-.39.177-.72.177-.165 0-.248-.12a1.37 1.37 0 0 0 .739-.361q.275-.26.257-.505-.029-.385-.477-.385-.487.001-.844.386-.326.352-.33.742a.7.7 0 0 0 .006.126q-.077.054-.117.054-.087 0-.11-.039-.022-.038-.018-.14 0-.038.057-.294a2.3 2.3 0 0 0 .062-.392q.01-.196-.073-.302-.096-.13-.317-.11a.66.66 0 0 0-.353.144q-.1.077-.206.207l-.069.063a.5.5 0 0 0-.073-.304q-.098-.13-.321-.11a.8.8 0 0 0-.473.216.9.9 0 0 0-.16.193.47.47 0 0 0-.064-.354q-.075-.113-.193-.103-.069.005-.262.192-.265.26-.289.28l.11.13q.129-.098.156-.098.051 0 .042.087-.004.125-.043.348a4 4 0 0 0-.033.24l-.005.003q-.165.143-.229.143-.147 0-.142-.207.07-.45.128-.744a.42.42 0 0 0-.052-.28q-.072-.109-.223-.095-.096.01-.293.193l-.137.13q-.014-.34-.297-.35m13.221.301c-.403 0-.735.294-.735.785 0 .461.335.782.78.782.334 0 .551-.208.551-.208l-.092-.155s-.18.182-.453.182c-.309 0-.57-.208-.578-.592h1.144s.006-.068.006-.104c0-.372-.21-.69-.623-.69m1.334 0c-.27 0-.51.146-.51.413 0 .488.804.408.804.735 0 .157-.14.238-.3.238a.64.64 0 0 1-.444-.182l-.11.146s.19.217.552.217c.299 0 .51-.175.51-.42 0-.493-.804-.403-.804-.734 0-.166.145-.232.297-.232.246 0 .373.137.373.137l.092-.154s-.146-.164-.46-.164m3.2 0c-.403 0-.735.294-.735.785 0 .461.335.782.78.782.334 0 .55-.208.55-.208l-.091-.155s-.181.182-.454.182c-.308 0-.569-.208-.578-.592h1.144s.006-.068.006-.104c0-.372-.21-.69-.622-.69m1.414 0c-.335 0-.53.17-.53.17l.094.154s.175-.143.421-.143c.214 0 .37.099.37.387v.039h-.082c-.258 0-.913.012-.913.517 0 .297.258.443.507.443.373 0 .498-.324.498-.324h.006s-.006.05-.006.125v.164h.192v-.958c0-.375-.198-.574-.557-.574m1.575.023a.61.61 0 0 0-.54.378h-.006s.006-.053.006-.119v-.223h-.199v1.495h.202v-.707q0-.1.02-.2c.063-.228.247-.44.49-.44.281 0 .314.22.314.447v.9h.201v-.707c0-.08.006-.152.027-.217.057-.22.243-.422.471-.422.273 0 .323.202.323.446v.9H24v-.95c0-.37-.133-.58-.495-.58a.61.61 0 0 0-.548.374h-.006c-.045-.247-.187-.375-.462-.375m-3.876.021c-.234 0-.4.172-.471.398h-.006s.006-.053.006-.118v-.265h-.199v1.495h.202v-.63a1 1 0 0 1 .041-.291c.066-.22.223-.387.433-.387.039 0 .074.006.074.006v-.199s-.038-.009-.08-.009m-6.179.015v1.495h.202V11.86zm.371 0 .572 1.495h.22l.569-1.495h-.211l-.412 1.097c-.03.077-.053.179-.053.179h-.006s-.024-.104-.05-.179l-.416-1.097zm-4.338.052q.072 0 .112.108a.6.6 0 0 1 .034.24.95.95 0 0 1-.133.444q-.146.256-.353.256-.092 0-.142-.106a.43.43 0 0 1-.041-.213.97.97 0 0 1 .137-.464q.152-.265.386-.265m-1.722.056q.105 0 .1.13-.005.096-.137.249-.163.177-.39.264a.7.7 0 0 1 .146-.444q.144-.2.28-.199zm8.215.003c.223 0 .412.145.424.457h-.936c.047-.3.263-.457.512-.457m4.534 0c.222 0 .412.145.424.457h-.937c.048-.3.264-.457.513-.457m-9.031.26c-.149 0-.223.111-.223.223 0 .111.074.222.223.222.148 0 .222-.111.222-.222 0-.112-.074-.223-.222-.223m10.72.343h.087v.066c0 .258-.172.555-.457.555-.222 0-.332-.142-.332-.282 0-.33.469-.339.703-.339z"/></svg>