<svg xmlns="http://www.w3.org/2000/svg" viewBox="0 0 24 24"><path d="m7.951 9.821.008-.004c.044-.06.105-.114.13-.18.04-.11.066-.228-.005-.34-.016-.026-.024-.056-.036-.084-.035-.09-.08-.118-.204-.116a.56.56 0 0 0-.281.086 3 3 0 0 0-.298.211c-.05.04-.09.092-.135.137-.06.06-.074.14-.11.21a.46.46 0 0 0-.053.222c.002.094.041.18.113.23.08.054.184.092.29.042a2 2 0 0 0 .216-.116c.133-.086.282-.156.365-.298M24 9.423c-.008-.01-.02-.02-.023-.033a.64.64 0 0 0-.173-.28.3.3 0 0 0-.123-.06c-.039-.01-.082.002-.122-.007a1 1 0 0 0-.688.098c-.217.113-.43.233-.65.341a6 6 0 0 1-.448.192c-.106.042-.167.02-.234-.06-.009-.012-.02-.025-.032-.028-.05-.012-.05-.055-.063-.09-.005-.015-.01-.04-.017-.042-.068-.011-.046-.038-.016-.07.01-.01.015-.023.025-.038-.034-.032-.09-.05-.064-.11.002-.004-.008-.016-.015-.019-.044-.019-.024-.052-.021-.082.005-.057.006-.064.032-.088l-.052-.05.053-.094c-.046-.01-.063-.038-.036-.066.032-.031.027-.06.022-.096-.002-.016-.005-.037.003-.05.02-.03.016-.058.006-.09-.006-.02.006-.044.01-.07q-.07-.029-.042-.104c.005-.012.009-.03.004-.04-.025-.047.002-.081.019-.1-.013-.05-.03-.084-.03-.119a10 10 0 0 1 .002-.412c0-.022.02-.043.031-.066-.03-.053-.03-.053.014-.096-.014-.03-.032-.057-.037-.085-.008-.053.051-.034.07-.054-.008-.05-.02-.095-.022-.14 0-.041-.007-.082.01-.125.014-.038.002-.085.002-.131l-.046.004-.007-.149c-.002-.054.008-.1.066-.102v-.127c-.021-.032-.045-.061-.062-.094-.022-.043.013-.073.041-.107-.057-.027-.067-.073-.08-.123-.016-.063-.03-.142-.075-.18-.042-.036-.077-.085-.131-.109l-.033-.013c-.22-.099-.437-.061-.647.024-.114.046-.218.117-.326.178a.3.3 0 0 0-.07.052q-.117.113-.23.228a1 1 0 0 0-.08.095.75.75 0 0 1-.338.244.36.36 0 0 1-.275-.01c-.066-.029-.117-.039-.179 0a.17.17 0 0 1-.093.018c-.273-.036-.497.075-.682.252a.93.93 0 0 0-.263.547c-.015.107-.015.217-.02.325q-.014.268-.026.536l-.036.682c-.007.138-.009.276-.016.413q-.026.48-.05.961a1 1 0 0 0 .007.182c.023.16.08.25.22.279a.52.52 0 0 0 .331-.028c.088-.041.18-.077.26-.13.099-.066.219-.12.235-.26q.001-.004.004-.008.061-.104.115-.213a.12.12 0 0 0 .013-.072c-.007-.032-.048-.055-.007-.099.019-.02 0-.07.007-.106.007-.039.022-.076.034-.118l-.061-.049.032-.03c-.068-.063-.013-.116.022-.17-.019-.021-.062-.004-.057-.05.012-.12-.027-.244.034-.36.002-.004.005-.013.003-.015-.047-.054-.004-.1.008-.153.03.038.048.006.067-.002l-.011-.068c-.01-.052.002-.11-.054-.148-.013-.008-.016-.051-.006-.07a.4.4 0 0 1 .074-.096c.03-.029.035-.057.02-.094a1 1 0 0 1-.036-.106c-.005-.024-.011-.057 0-.075.012-.018.044-.022.066-.032v-.115l-.04-.026.026-.057c.055.009.055.009.044-.042-.001-.008-.004-.02 0-.024.045-.053.025-.117.033-.176.002-.017 0-.038.01-.049.049-.058.05-.128.056-.188.038-.034.09-.058.1-.093.022-.077.078-.12.134-.164a.2.2 0 0 0 .066-.078.4.4 0 0 1 .102-.137c.068-.054.148-.093.22-.143.11-.076.227-.039.342-.026.023.003.047.025.064.045.066.075.106.164.03.304a.36.36 0 0 0-.01.344c.102.188.009.359.026.538-.04.054-.02.109-.002.164a.07.07 0 0 1 0 .041.5.5 0 0 0-.015.327c.006.018.002.04 0 .061-.01.156-.039.31-.035.467.002.13 0 .258.005.387a.45.45 0 0 0 .118.286c.04.045.095.077.145.111.044.03.049.047.01.08a.4.4 0 0 1-.051.035q-.099.06-.199.116l-.696.39-.996.558q-.294.164-.586.33c-.224.13-.446.264-.671.393-.031.018-.071.022-.106.034-.016.005-.034.01-.046.021a.8.8 0 0 1-.221.14c-.07.033-.14.064-.206.103-.12.073-.238.152-.357.227l-.557.343q-.355.216-.709.435c-.13.081-.255.169-.384.253-.023.015-.05.024-.082.04-.005-.033-.011-.053-.011-.072a6 6 0 0 1 0-.227 3 3 0 0 1 .01-.19c.007-.078.028-.152.013-.233-.013-.07.006-.144.01-.216.005-.051.024-.107.01-.154a.5.5 0 0 1-.013-.208 4 4 0 0 0 .024-.39c0-.046.014-.091.018-.137q.01-.132.02-.263c.02-.201.042-.402.057-.603.016-.201.023-.403.037-.604.008-.115 0-.239.041-.342.044-.11-.008-.218.033-.32-.049-.108.04-.214.004-.321-.002-.005.013-.013.014-.02a.1.1 0 0 0 0-.045c-.003-.02-.014-.039-.014-.058 0-.059-.002-.119.005-.177a.35.35 0 0 0-.09-.284.36.36 0 0 0-.232-.114.7.7 0 0 0-.39.052c-.174.08-.304.197-.34.387a4 4 0 0 0-.05.427c-.017.22-.027.439-.042.658q-.017.214-.038.429c-.007.08.005.163-.047.234a.03.03 0 0 0-.003.022c.034.078.01.158.005.235-.007.152-.036.303-.049.454-.022.254-.062.505-.103.756-.028.176-.08.34-.213.474a.79.79 0 0 1-.503.25.24.24 0 0 1-.252-.131.7.7 0 0 1-.082-.239c-.015-.156-.04-.314.003-.471.005-.02 0-.04 0-.061.002-.047.001-.094.005-.14a4 4 0 0 1 .026-.21c.005-.033.008-.07.024-.1.028-.056.024-.104-.002-.16a.2.2 0 0 1-.019-.126c.014-.085.019-.171.051-.254.032-.084.046-.175.072-.262a.25.25 0 0 1 .048-.103c.04-.042.047-.092.061-.142a.5.5 0 0 1 .044-.113c.03-.051.063-.104.086-.155.024-.052.04-.1.089-.134a.12.12 0 0 0 .036-.058.27.27 0 0 1 .102-.13c.029-.02.067-.038.081-.066.05-.095.123-.177.146-.286.012-.054.01-.111.027-.16a.25.25 0 0 0-.009-.182.2.2 0 0 0-.084-.086.34.34 0 0 0-.237-.023c-.164.047-.337.073-.468.198-.014.013-.037.018-.053.03-.104.083-.216.157-.308.25-.086.088-.15.195-.224.294q-.248.337-.376.733c-.095.288-.133.587-.175.884-.026.188.001.382-.061.566-.01.027-.006.058-.004.088.006.063.018.126.02.19.003.114 0 .228-.001.343-.001.24-.018.48.036.718.026.115.056.23.13.323a.8.8 0 0 0 .602.307c.146.009.29-.011.431-.044.05-.011.099-.036.154-.013.012.005.033-.005.049-.012q.03-.016.06-.031c.076-.031.149-.07.232-.077a.1.1 0 0 0 .039-.014q.163-.109.326-.219c.02-.013.05-.03.068-.024.016.006.028.04.03.064.003.06-.005.122.002.182a1.7 1.7 0 0 1-.003.344.1.1 0 0 1-.044.071q-.225.148-.443.307-.324.242-.644.485a24 24 0 0 1-.384.281q-.202.142-.404.285c-.15.11-.297.224-.448.332-.193.14-.39.274-.584.413-.047.035-.086.08-.131.118q-.087.068-.175.135l-.255.203-.353.282q-.213.172-.426.343c-.076.06-.155.116-.229.178-.114.098-.221.202-.336.298-.142.12-.29.232-.433.35a45 45 0 0 0-.515.432q-.226.191-.447.388-.205.188-.407.38-.247.227-.494.455c-.229.217-.467.425-.661.675l-.214.28a.33.33 0 0 0-.057.217.8.8 0 0 0 .079.322.5.5 0 0 0 .188.202c.154.093.32.111.495.105a.38.38 0 0 0 .257-.113q.116-.108.23-.216.118-.113.234-.228.03-.027.058-.055l.123-.124.073-.077.204-.228c.025-.029.047-.06.074-.086l.596-.589q.068-.068.133-.139l.087-.097c.028-.034.05-.072.08-.103.056-.056.116-.107.172-.163.096-.094.188-.193.288-.284.092-.085.194-.16.288-.243.042-.037.074-.083.112-.123l.246-.252q.01-.008.021-.016.226-.179.447-.36c.21-.171.417-.346.627-.517.14-.114.285-.221.424-.335.203-.166.401-.337.605-.502.116-.095.24-.182.358-.274q.173-.137.347-.274l.489-.377q.234-.181.473-.355c.085-.06.176-.116.28-.155.004.027.01.047.009.066-.003.07-.01.139-.011.208q-.003.312-.002.625l-.001.79q0 .474-.002.948c0 .056.022.117-.027.167-.007.007.002.027.003.041.003.037.009.075.008.112-.004.093-.014.186-.015.279 0 .082.012.163.014.245a7 7 0 0 1-.004.314l-.014.358c-.003.137-.003.275-.009.412-.006.152-.018.304-.023.456-.007.202-.004.404-.016.605-.016.277-.007.55.083.816.031.09.055.184.126.259a.7.7 0 0 0 .34.195q.034.01.066.023c.07.021.132.02.203.015a.4.4 0 0 0 .16-.05q.117-.062.226-.134a.5.5 0 0 0 .118-.13c.022-.03.025-.073.047-.103.023-.031.057-.054.087-.08l-.078-.045q.017-.038.034-.07c.006-.012.024-.023.022-.032-.01-.053.024-.085.06-.121-.03-.017-.074-.028-.077-.046-.01-.053-.051-.082-.077-.12l.042-.075-.05-.018c.094-.003.05-.098.1-.124-.02-.027-.06-.031-.036-.081.014-.03-.033-.06-.076-.06q-.071.002-.073-.067l-.008-.129.058-.026-.002-.014-.065-.01c.077-.022.1-.084.127-.146a.4.4 0 0 1-.077-.256c.002-.026-.003-.06-.054-.053-.043.005-.079-.056-.064-.1.015-.043.031-.082-.01-.124l.057-.025c.025-.063-.03-.12-.011-.18-.044-.029-.047-.067-.02-.11l-.056-.006.048-.124-.1-.105c.03-.066.03-.066.006-.166l.051-.029c-.024-.026-.022-.073-.071-.07-.006 0-.014-.012-.017-.02-.026-.06-.001-.111.064-.135l-.023-.036c-.043-.069-.064-.136.015-.198.01-.008.012-.038.006-.054-.02-.064-.045-.127-.064-.18.02-.054.035-.102.056-.147.018-.04.028-.074-.003-.113-.007-.01.003-.032.005-.053l-.056-.074.08-.02c-.002-.014 0-.03-.007-.035q-.034-.025-.069-.046c0-.037-.007-.076.003-.11.01-.032.037-.059.058-.09-.005-.054-.016-.116-.014-.178.001-.067.015-.133.022-.2q.001-.015-.005-.025c-.025-.024-.023-.048-.017-.08.01-.044.008-.09.01-.136l.016-.473a.4.4 0 0 0-.016-.108c-.013-.039-.02-.075.023-.109.008-.006.009-.032.003-.042-.029-.043-.02-.093-.02-.138a3 3 0 0 1 .004-.356c.005-.052.03-.1-.005-.15-.006-.008-.003-.03.003-.04.029-.05.024-.094-.006-.14-.01-.016-.01-.039-.01-.041.021-.028.049-.058.046-.06-.06-.068-.013-.136.003-.199.015-.059.018-.108-.028-.148.007-.061.058-.117.004-.176-.005-.006.007-.033.017-.046.022-.029.045-.055.014-.092-.006-.007-.002-.023-.001-.034.006-.097.022-.194.016-.29-.005-.086.04-.123.103-.161.053-.033.119-.054.139-.125.002-.009.016-.016.026-.023q.136-.098.274-.191c.202-.136.4-.276.618-.388.088-.045.162-.114.245-.168.19-.123.38-.248.575-.366.219-.133.442-.26.664-.39.26-.152.517-.307.78-.455a94 94 0 0 1 1.162-.639q.39-.209.783-.414.312-.165.627-.329c.178-.092.355-.188.538-.27.27-.12.54-.237.817-.341.262-.1.53-.184.798-.27.226-.073.455-.134.66-.257.215-.128.399-.285.498-.522a.7.7 0 0 1 .073-.124c.005-.008.026-.006.039-.009v-.035c-.04-.05-.04-.05 0-.106zm-7.653-2.757a.4.4 0 0 0 .122.071c.098.039.208.054.3.013.154-.068.3-.16.39-.32a.4.4 0 0 1 .043-.06c.086-.1.17-.199.202-.34a.5.5 0 0 0 .014-.157c-.007-.091-.063-.15-.1-.218-.035-.005-.07-.003-.098-.014a.47.47 0 0 0-.297-.008.9.9 0 0 0-.464.294c-.158.18-.254.387-.17.64a.24.24 0 0 0 .058.1m-.54 5.139a.6.6 0 0 0 .281-.06 9 9 0 0 0 .335-.164.7.7 0 0 0 .255-.219c.05-.07.123-.136.12-.231-.002-.033.014-.067.017-.1.002-.025-.004-.05-.008-.076-.006-.033-.022-.067-.02-.1a18 18 0 0 1 .024-.497c.003-.054.015-.108.023-.161l.074.004c-.017-.023-.031-.038-.041-.054l-.031-.065.105.018c-.021-.03-.027-.054-.043-.061-.054-.023-.055-.064-.054-.105.002-.042-.009-.097.017-.123.064-.063.068-.128.056-.203a1 1 0 0 1-.01-.143q.006-.147.014-.293c0-.005-.007-.01-.008-.016-.002-.028-.012-.058-.003-.083a.17.17 0 0 0 .003-.11.54.54 0 0 1-.005-.278c.014-.056.031-.112.043-.17.002-.008-.018-.02-.029-.033.053-.074.058-.151.064-.227.003-.04-.019-.078.011-.122a.24.24 0 0 0 .033-.13c0-.053.013-.106-.021-.161-.026-.041-.061-.084-.06-.14.003-.091-.051-.144-.156-.15-.139-.01-.278-.007-.403.058a.98.98 0 0 0-.552.773q-.009.09-.022.181c-.04.284-.082.567-.117.85-.039.319-.07.638-.107.957-.026.231-.055.463-.079.695-.015.148-.033.297-.028.444.005.179.108.284.322.295m-10.31 1.223a.33.33 0 0 1 .073-.282c.018-.02.034-.062.024-.08-.024-.04.014-.058.018-.087.006-.03-.028-.06 0-.093.01-.012.01-.033.012-.05.003-.038 0-.077.007-.113l.122-.521c.052-.223.098-.447.156-.669.047-.183.08-.372.166-.544.019-.037.025-.08.046-.116.032-.056.023-.13.081-.173q.012-.012.016-.032l.054-.206c.016-.061.028-.124.098-.152.012-.005.022-.02.027-.034.034-.076.07-.151.07-.237 0-.032-.007-.064-.002-.095.02-.126.051-.25.06-.377a.4.4 0 0 1 .06-.19c.066-.111.089-.235.114-.355.02-.094.068-.168.113-.247.018-.032.03-.054.009-.088a.09.09 0 0 1-.003-.093c.065-.126.095-.262.125-.399a3 3 0 0 1 .06-.23c.027-.088.062-.173.091-.26.03-.086.054-.173.083-.26.02-.062.037-.128.071-.183a.6.6 0 0 0 .08-.203 1 1 0 0 1 .064-.194c.055-.124.116-.247.175-.37.02-.04.045-.077.062-.117a.2.2 0 0 0 .022-.094.35.35 0 0 1 .034-.164c.084-.188.161-.379.249-.565.15-.32.256-.662.468-.953.049-.066.077-.146.12-.216a4.3 4.3 0 0 1 .439-.566c.053-.06.116-.113.176-.17.027.015.047.012.05-.015.01-.072.063-.094.121-.115.013-.005.03-.012.035-.023.019-.046.063-.082.053-.139-.002-.013.005-.03.013-.04.044-.064.092-.124.135-.188a.74.74 0 0 0 .133-.393 1.1 1.1 0 0 0-.043-.352.79.79 0 0 0-.568-.571 1.3 1.3 0 0 0-.246-.056 1 1 0 0 0-.19 0 .95.95 0 0 0-.492.27c-.13.123-.244.258-.335.416a4 4 0 0 0-.248.526l-.146.375c-.037.094-.08.186-.116.281q-.148.39-.293.78c-.093.248-.19.496-.281.745-.06.16-.112.322-.17.482L6.175 6.26c-.02.053-.033.111-.064.157-.048.073-.064.153-.085.234-.026.1-.052.203-.098.296-.077.157-.123.322-.172.488-.033.113-.037.237-.107.34-.011.015-.012.04-.012.06-.002.073.008.149-.049.21q-.004.008-.004.017l-.076.294-.132.465q-.062.22-.119.44c-.018.072-.021.147-.04.219-.027.094-.067.185-.092.28q-.133.5-.262 1.003-.02.067-.037.137l-.106.434q-.023.096-.044.192c-.06.298-.112.597-.177.894-.055.25-.107.501-.143.755-.035.236-.084.47-.126.705q-.024.128-.042.255l-.054.354c-.043.277-.089.553-.13.83-.026.171-.044.343-.07.513-.007.051-.03.1-.048.152-.032-.026-.058-.04-.074-.061a.14.14 0 0 1-.025-.07c-.003-.062 0-.124-.003-.185 0-.013-.01-.03-.021-.035-.038-.016-.033-.046-.034-.076-.003-.106 0-.213-.036-.318-.01-.031 0-.07.003-.106.003-.058.011-.117.01-.176 0-.028-.006-.066-.025-.082-.071-.06-.074-.15-.092-.226a.44.44 0 0 1 .028-.241c.027-.07.034-.129 0-.194l-.02-.049c-.032-.093-.077-.183-.072-.284a.6.6 0 0 0-.04-.217c-.027-.077-.063-.16-.008-.237-.02-.043-.06-.085-.054-.122.017-.137-.057-.246-.1-.364-.016-.044-.032-.081-.016-.112-.02-.039-.045-.067-.051-.097-.015-.08-.014-.16-.034-.24-.03-.116-.034-.238-.055-.357-.022-.125-.075-.246-.038-.377a.04.04 0 0 0-.003-.027c-.025-.049.016-.12-.053-.157-.006-.002.001-.027 0-.04 0-.023.004-.047-.005-.066-.036-.085-.022-.182-.066-.265-.006-.012 0-.03 0-.044q0-.027-.004-.052c-.01-.04-.024-.08-.03-.12-.023-.14-.04-.283-.064-.424a104 104 0 0 0-.16-.923.85.85 0 0 0-.144-.345c-.17-.24-.53-.289-.772-.142a.66.66 0 0 0-.279.342c-.036.095-.06.194-.099.288-.117.287-.174.595-.31.876-.008.109-.057.205-.092.306-.029.081-.041.167-.067.25-.027.088-.063.173-.09.262-.039.13-.096.254-.127.389a.7.7 0 0 1-.116.288c-.025.033-.026.084-.037.126-.015.058-.014.128-.049.17-.053.063-.065.137-.089.208-.012.037-.01.077-.023.113-.058.168-.14.326-.187.5-.054.204-.138.4-.208.6a1 1 0 0 0-.047.163.43.43 0 0 0 .287.49c.182.063.35.022.507-.076.052-.032.093-.081.14-.122-.018-.066.042-.106.058-.163.02-.073.059-.14.084-.213.03-.083.092-.15.104-.242.005-.04.042-.075.065-.113-.022-.016-.006-.036.004-.058.03-.067.068-.133.087-.203.015-.055.02-.11.044-.166.038-.085.035-.187.088-.27-.013-.084.048-.145.08-.21a.33.33 0 0 0 .037-.201c.032-.016.077-.023.066-.077 0-.004.018-.012.025-.02.02-.02.044-.038.055-.063.024-.05.04-.105.062-.156.007-.017.033-.04.042-.037a.4.4 0 0 1 .11.053c.034.024.047.058.027.101-.005.01.001.026.003.045.031-.008.054-.049.083-.012q-.01.041-.017.083a1 1 0 0 0-.004.127c.002.037.016.073.014.109a.12.12 0 0 0 .034.096.24.24 0 0 1 .057.098c.018.078.026.158.039.237l.11.706q.011.075.014.15c.002.091-.018.185.046.267.01.012.006.034.009.052q.04.28.081.557.042.265.082.53.055.361.108.722.038.27.08.538l.12.748c.017.108.052.214.016.324-.007.022-.008.046-.012.065.096.077.102.107.041.21.048 0 .063.03.07.069.025.154.041.31.08.463.005.02.008.045 0 .062a.07.07 0 0 0 .01.082.1.1 0 0 1 .02.05q.046.249.087.498c.03.182.054.366.09.546.044.213.103.423.144.636.036.19.25.391.486.36.2-.025.428-.14.491-.384a6 6 0 0 0 .104-.47c.037-.204.065-.411.094-.617q.06-.406.113-.814c.036-.277.066-.556.101-.833l.098-.754c.013-.097.02-.197.049-.29.026-.085.07-.163.057-.253q.147-.055.064-.131c-.04-.037-.045-.073-.04-.118l.01-.088c.014-.103.034-.206.037-.31.002-.067.019-.134.061-.172.078-.07.07-.165.1-.248.023-.065.01-.144.014-.22-.049-.014-.084-.034-.077-.086.009-.065.012-.131.025-.195.028-.139.062-.276.092-.414a.2.2 0 0 0 0-.079c-.013-.044.003-.073.032-.103a.1.1 0 0 0 .03-.06 3 3 0 0 0 .008-.245c0-.043.011-.079.025-.119.027-.082.074-.161.048-.257-.008-.027.012-.07.033-.096.081-.098.083-.207.056-.32m2.18-.666c-.015-.065-.001-.08.065-.115-.021-.038-.06-.075-.053-.102.017-.067-.016-.12-.034-.176a.23.23 0 0 0-.2-.16.5.5 0 0 0-.195.014 1.2 1.2 0 0 0-.333.157c-.172.11-.3.248-.386.425a1.8 1.8 0 0 0-.16.569c-.019.152-.03.306-.043.459q-.001.021-.001.044-.005.163-.013.327l-.028.504c-.002.039.011.081-.03.113-.008.006-.004.027-.003.041 0 .072.015.146 0 .214-.035.149-.03.299-.037.448-.008.171-.021.342-.026.513-.004.183-.01.366 0 .548.008.162.114.249.288.263a.46.46 0 0 0 .241-.05 2.2 2.2 0 0 0 .391-.253c.031-.024.045-.075.104-.054.006.002.027-.012.028-.02.005-.06.06-.032.097-.044l.02-.083-.084-.005q.008-.049.019-.093c.007-.03.021-.06.026-.09.015-.086.014-.176.044-.256.046-.118.012-.235.021-.352.006-.083-.004-.166.005-.249.014-.138.036-.275.056-.413.01-.068.026-.136.037-.204a2 2 0 0 0 .024-.18c.004-.054 0-.106.025-.16a.5.5 0 0 0 .04-.184c.008-.127.005-.254.007-.381 0-.015-.002-.032.005-.043.055-.088.055-.188.07-.283a.8.8 0 0 0 .019-.18.25.25 0 0 1 .03-.143c.015-.025.031-.06.022-.08a.13.13 0 0 1 .008-.12c-.025-.063-.052-.113-.065-.166m1.132-.94a1.3 1.3 0 0 0-.12.473c-.01.155-.014.31-.021.465q-.011.224-.025.447-.012.14-.026.278c-.004.048.005.1-.012.142a.6.6 0 0 0-.04.268l-.002.008c.004.071-.021.141-.006.214.006.03.001.065-.002.097-.007.064-.037.134-.02.19.032.11.006.217.007.325 0 .094-.035.184-.024.282.012.1.004.203.005.304 0 .082.027.156.066.225.06.107.166.164.269.145.193-.036.402-.137.57-.304a.7.7 0 0 0 .206-.398 4 4 0 0 0 .042-.492q.01-.36.028-.719c.003-.06.026-.124.016-.183-.018-.102.009-.201.008-.302 0-.049.01-.106.053-.134.003-.055-.006-.102.01-.136.028-.06.027-.123.044-.184.009-.033.034-.064.034-.097a.24.24 0 0 1 .046-.133c.103-.16.21-.318.366-.433a7 7 0 0 0 .29-.228c.136-.112.273-.226.26-.431 0-.014.009-.028.008-.042-.003-.036-.001-.075-.014-.107-.028-.067-.064-.13-.097-.195-.048-.095-.13-.124-.229-.124-.096 0-.18.041-.265.081q-.082.042-.168.082c-.054.024-.112.039-.163.068a.8.8 0 0 1-.3.096 1.3 1.3 0 0 0-.455.125.74.74 0 0 0-.34.327"/></svg>