<svg xmlns="http://www.w3.org/2000/svg" viewBox="0 0 24 24"><path d="M13.74 1.053a.5.5 0 0 0-.157.025.5.5 0 0 0-.25.188L7.595 9.562a.5.5 0 0 0-.084.223.5.5 0 0 0 .032.236.5.5 0 0 0 .14.193.5.5 0 0 0 .215.105l3.707.786-.23 4.58a.5.5 0 0 0 .085.3.5.5 0 0 0 .25.189.5.5 0 0 0 .313 0 .5.5 0 0 0 .25-.187l5.738-8.296a.5.5 0 0 0 .084-.223.5.5 0 0 0-.032-.236.5.5 0 0 0-.14-.194.5.5 0 0 0-.215-.104l-3.707-.787.23-4.58a.5.5 0 0 0-.085-.3.5.5 0 0 0-.25-.188.5.5 0 0 0-.156-.026M1.157 9.788c-.307.001-.6.124-.817.34a1.16 1.16 0 0 0-.34.817 1.16 1.16 0 0 0 .334.82l10.842 10.842a1.2 1.2 0 0 0 .377.252 1.2 1.2 0 0 0 .445.088h.004a1.2 1.2 0 0 0 .445-.088 1.2 1.2 0 0 0 .377-.252l10.842-10.843a1.16 1.16 0 0 0 .334-.82 1.16 1.16 0 0 0-.34-.816 1.16 1.16 0 0 0-.817-.34 1.16 1.16 0 0 0-.82.334l-5.4 5.4-.026.02L12 20.14l-4.598-4.597q-.011-.01-.024-.02l-5.401-5.401a1.16 1.16 0 0 0-.82-.334"/></svg>