<svg xmlns="http://www.w3.org/2000/svg" viewBox="0 0 24 24"><path d="M14.342 15.336h-.936v-2.991c.299.167.694.474.936.769zm-7.898 0H5.278L3.755 10.63h1.061l1.048 3.309h.013l1.061-3.309h1.068zm4.7 0h-.89v-.474h-.02a1.05 1.05 0 0 1-.461.429 1.4 1.4 0 0 1-.58.132 1.6 1.6 0 0 1-.616-.099.9.9 0 0 1-.38-.28 1.1 1.1 0 0 1-.194-.442 2.8 2.8 0 0 1-.056-.577v-2.096h.936v1.925q0 .422.132.629t.468.208q.382 0 .554-.227.17-.228.17-.748V11.93h.937zm3.353-2.05-.002-.132 1.18-1.226h1.108l-1.285 1.252 1.43 2.155h-1.134zm2.602-.31q.02-.33.165-.547a1.1 1.1 0 0 1 .369-.349 1.6 1.6 0 0 1 .504-.188 3 3 0 0 1 .564-.056q.256 0 .52.036.265.036.482.142.218.105.356.293t.138.498v1.773q0 .23.026.442a.8.8 0 0 0 .092.316h-.95a1.3 1.3 0 0 1-.065-.329 1.2 1.2 0 0 1-.528.323 2.1 2.1 0 0 1-.62.092q-.244 0-.455-.059a1 1 0 0 1-.37-.185.86.86 0 0 1-.246-.316 1.1 1.1 0 0 1-.09-.455q0-.29.103-.478a.86.86 0 0 1 .264-.3q.161-.113.369-.168t.418-.089a8 8 0 0 1 .415-.053q.204-.02.362-.059a.6.6 0 0 0 .25-.116q.093-.076.087-.221a.5.5 0 0 0-.05-.241.37.37 0 0 0-.132-.138.5.5 0 0 0-.191-.066 2 2 0 0 0-.234-.017q-.277 0-.435.119t-.185.396zm2.162.693a.4.4 0 0 1-.148.082q-.09.03-.191.05a3 3 0 0 1-.214.033q-.113.013-.224.033-.106.02-.208.053a.6.6 0 0 0-.178.089.4.4 0 0 0-.122.142.46.46 0 0 0-.046.218q0 .126.046.211a.36.36 0 0 0 .125.135.5.5 0 0 0 .185.069q.105.02.218.02.277 0 .429-.092a.6.6 0 0 0 .224-.221.7.7 0 0 0 .089-.26q.015-.132.017-.211zm1.542-1.741h.89v.474h.02q.178-.297.46-.432.285-.135.58-.135.377 0 .618.102.24.102.379.283.138.182.194.441.056.263.056.579v2.096h-.936v-1.925q0-.422-.132-.629t-.468-.208q-.382 0-.554.227-.171.227-.171.748v1.786h-.936zm-9.038-.587v3.996h.936v-3.48a12 12 0 0 0-.936-.516m-9.549.17c.542-1.59 3.786-2.172 7.247-1.302 2.075.522 3.77 1.534 4.879 2.535-.503-1.327-2.94-3.22-6.295-3.868-3.795-.734-7.537-.09-8 1.595-.334 1.216 1.134 2.64 3.406 3.615-1.02-.827-1.518-1.755-1.237-2.575m12.127.655V10.63h-.936v.466c.399.357.716.72.936 1.07"/></svg>