<svg xmlns="http://www.w3.org/2000/svg" viewBox="0 0 24 24"><path d="M13.411 15.12h-.875v-2.798c.28.156.649.442.875.719zm-7.383 0H4.936l-1.423-4.4h.992l.979 3.093h.013l.992-3.093h.999zm4.394 0h-.833v-.444h-.017q-.167.278-.432.401c-.265.123-.358.123-.541.123q-.352 0-.576-.093a.85.85 0 0 1-.354-.261 1 1 0 0 1-.181-.412 2.6 2.6 0 0 1-.052-.539v-1.961h.876v1.799q0 .394.123.589.124.194.438.194.356 0 .518-.214.16-.213.159-.699v-1.669h.876zm3.134-1.918-.002-.123 1.104-1.147h1.035l-1.201 1.171 1.337 2.017h-1.061zm2.433-.289q.02-.307.155-.511.136-.203.345-.326a1.5 1.5 0 0 1 .473-.174q.26-.052.526-.052.241 0 .487.034.247.035.451.132a.9.9 0 0 1 .332.274q.13.174.13.466v1.659q0 .216.024.412.025.197.086.295h-.889a1 1 0 0 1-.041-.151 1 1 0 0 1-.021-.157 1.16 1.16 0 0 1-.494.302 2 2 0 0 1-.581.086q-.227-.001-.424-.056a1 1 0 0 1-.346-.173.8.8 0 0 1-.23-.295 1 1 0 0 1-.085-.425.95.95 0 0 1 .095-.447.8.8 0 0 1 .246-.28q.152-.104.345-.158a4.4 4.4 0 0 1 .779-.133q.19-.019.339-.056a.6.6 0 0 0 .235-.108q.087-.072.08-.207a.44.44 0 0 0-.048-.225.3.3 0 0 0-.123-.129.5.5 0 0 0-.179-.063 2 2 0 0 0-.218-.015.67.67 0 0 0-.407.11q-.149.111-.173.369zm2.021.647a.4.4 0 0 1-.138.078 1 1 0 0 1-.179.045q-.096.019-.201.031t-.209.03a2 2 0 0 0-.194.049.6.6 0 0 0-.166.084.4.4 0 0 0-.114.132.4.4 0 0 0-.044.203q0 .117.044.196a.35.35 0 0 0 .116.127q.075.046.173.065t.202.019q.26 0 .402-.086a.6.6 0 0 0 .291-.451q.016-.123.015-.196zm1.443-1.628h.833v.444h.017q.165-.277.431-.403c.266-.126.358-.127.542-.127q.352 0 .576.094a.9.9 0 0 1 .353.266q.13.168.182.412t.051.539v1.961h-.875v-1.799q0-.395-.123-.589-.124-.195-.438-.194-.358 0-.518.213-.161.215-.16.699v1.67h-.875zm-8.451-.55q.452.223.876.483v3.253h-.876zm-8.93.159c-.261.768.203 1.635 1.156 2.408-2.122-.911-3.496-2.244-3.184-3.38.434-1.573 3.932-2.177 7.481-1.491 3.136.606 5.416 2.375 5.884 3.617-1.035-.936-2.621-1.883-4.562-2.37-3.235-.816-6.268-.27-6.775 1.216m11.341.613a4.9 4.9 0 0 0-.875-1.001v-.436h.875zM24 14.652a.47.47 0 0 1-.479.472.473.473 0 0 1-.481-.472c0-.259.214-.466.481-.466.27 0 .479.207.479.466m-.839 0c0 .207.153.373.364.373a.357.357 0 0 0 .356-.369c0-.207-.151-.375-.358-.375a.36.36 0 0 0-.362.371m.287.246h-.108v-.466a1 1 0 0 1 .179-.015c.088 0 .127.015.162.034.026.02.045.056.045.104 0 .052-.039.09-.097.108v.006c.045.017.071.052.086.114.015.072.024.1.035.117h-.117c-.015-.017-.023-.061-.036-.114-.009-.052-.037-.074-.097-.074h-.052zm.002-.266h.052c.06 0 .108-.019.108-.069 0-.043-.031-.071-.1-.071a.2.2 0 0 0-.06.007z"/></svg>