<svg xmlns="http://www.w3.org/2000/svg" viewBox="0 0 24 24"><path d="M16.58 10.238c-.524 0-1 .2-2.465 1.252v5.66c2.54-2.855 3.264-4.808 3.264-5.81-.003-.702-.326-1.102-.8-1.102m.2-3.756c0-1.005-1.146-1.83-2.665-1.929v5.234c1.916-1.127 2.664-2.257 2.664-3.306zm4.51-2.222c-.025-.1-.05-.137-.1-.15l-1.797-.476-.249-1.027c-.012-.05-.025-.088-.074-.1l-1.844-.5-.224-.978a.14.14 0 0 0-.1-.125L12.115.01a.6.6 0 0 0-.237 0L7.09.904a.14.14 0 0 0-.1.125l-.224.978-1.843.5c-.05.012-.062.05-.075.1l-.249 1.026-1.791.477c-.05.013-.075.05-.1.15a13 13 0 0 0-.224 2.43c0 7.215 3.737 13.477 9.317 17.21a.25.25 0 0 0 .2.1.25.25 0 0 0 .2-.1c5.58-3.733 9.317-9.995 9.317-17.21a13 13 0 0 0-.228-2.43zm-9.993 16.321c0 .05-.05.075-.099.025-1.37-1.577-2.292-3.506-2.914-5.61l-.947.603c-.25.176-.448.1-.6-.175-1.27-2.254-2.092-5.961-2.166-8.565a.45.45 0 0 1 .124-.325 12 12 0 0 1 1.096-1.152c.075-.075.15-.026.15.1 0 3.205.547 6.185 1.42 8.14.074.15.149.15.249.074l.273-.175c-.523-2.33-.822-5.435-.747-9.016 0-.125.025-.176.1-.225a9 9 0 0 1 1.195-.627c.124-.05.15-.024.15.075-.07 5.21.354 8.814 1.274 11.694.025.075.1.05.1-.025-.05-1.052-.05-1.978-.05-3.106l-.05-8.99c0-.1.025-.15.125-.175a10 10 0 0 1 1.245-.226.07.07 0 0 1 .055.019.07.07 0 0 1 .02.056zm1.495.025c-.05.05-.1.025-.1-.025V2.976a.07.07 0 0 1 .02-.056.07.07 0 0 1 .055-.02c3.337.226 5.48 1.629 5.48 3.657a3.4 3.4 0 0 1-.872 2.278c1.095.3 1.519 1.127 1.519 2.229.002 1.954-1.418 5.185-6.1 9.542Z"/></svg>