<svg xmlns="http://www.w3.org/2000/svg" viewBox="0 0 24 24"><path d="M23.982 12c0 9.224-9.985 14.989-17.973 10.377A11.98 11.98 0 0 1 .018 12c0-3.386 1.346-6.306 3.444-8.418v.675l.553 3.413v1.07l.077 1.365q-.344 0-.344.159v.09l.344-.09h.076v2.366q.267 2.367.992 4.21.075 1.297.286 1.297.343 1.297.496 1.297a5.5 5.5 0 0 0 2.422 1.865q.516 0 .859-1.296.439-2.799.706-3.414.247.25.858.342v-.091q0-.228-.782-.478.21-1.092.572-1.866.058-1.32 1.354-3.663l.344.09q.075 1.07.286 1.776.782 1.592.782 3.003 0 .546 1.22 3.663.306 2.049.783 2.412h.152q.63 0 1.488-1.615.84-1.821 1.354-2.025 0-.16-.362-.16v-.09q.286 0 .286-.16v-.068l-.076-.091.801-.319q0-.41-.286-.41v-.09h.572v-.16q-.438 0-.572-.477h.133v-.319l-.076-.091q.649 0 .649-.25v-.069h-.134v-.09q.23 0 .343-.478-.63-.205-.629-.41l.553-1.615q0-1.23.439-2.685.495-1.41.706-3.072.456-1.596.938-2.17A11.98 11.98 0 0 1 23.982 12m-5.99-10.377q.881.511 1.65 1.148a34 34 0 0 0-.157 1.736q-.687 1.616-1.507 4.55h-1.411l-.725.07v.181h.362l.286-.09 1.202.158v.092q-.515 1.774-.63 1.774-.667 3.322-1.068 3.322h-.229q-.477-.433-1.068-1.774a.86.86 0 0 0-.21-.57L13.42 9.855q-.324-1.501-.858-2.252-.172-.5-.572-.5h-.134q-.63 0-1.22.887l.076.25q-.268.91-.859 2.116-.915 2.662-1.201 2.662h-.153l-.286-.227q-.725-1.957-.992-5.757h-.134v-.16h.058a1.33 1.33 0 0 1 .515-.75v-.069l-.077-.09-.076.09-.076-.09-.344.09h-.152q-.135 0-.42-1.046v-.183h.496v-.16h-.648q-.208-1.047-1.218-2.494.444-.309.915-.577h.016l.077.068.438-.068h.783q.343 0 .705.25.172-.228.649-.25v-.16h-2.38c3.11-1.667 6.947-1.99 10.51-.392l-.443.142v.16q.36 0 .482-.284.553.25 1.095.562m3.477 3.203h-.134l.035-.295.179.23zM9.719 1.595h.572l.133.159.363-.16.42.069.438-.068v-.16H9.72v.16Zm3.7 1.297v.159l.21.09v-.09l.076-.091q.21 0 .21-.16v-.068h-.21zm-1.144.887h-.058l-.076-.068-.42.227v.16q.915-.205.916-.387V3.62zm-2.842.978q0 .25-.153.25v.16q.897-.295 1.297-.66V4.44l-1.144.318Zm4.482.57v.068l.153.182h.076l.134-.182v-.069l-.077-.09-.286.09Zm2.785.159v.09h.076l.134-.181v-.069h-.076zm-1.354 1.206.152.25q.345 0 .42-.25l-.286-.228q-.286.114-.286.228m1.85.978v.091h.153l.057-.091v-.068l-.057-.091zm-3.128.978v.091h.21l.362-.34v-.07q-.572.115-.572.32ZM2.24 12.13v.341h.153q.21-.16.496-.91v-.068h-.076zm9.328 3.413v.159l.076.091.572-.341v-.16h-.076zm-7.267.887.21.82h.152l-.229-.888h-.133zm7.63 1.07.133.227h.076l.076-.068-.228-.25h-.058v.09Z"/></svg>