<svg xmlns="http://www.w3.org/2000/svg" viewBox="0 0 24 24"><path d="M18.928 14.179q-.32.135-.643.135-.513 0-.923-.178a2 2 0 0 1-.69-.491q-.281-.313-.432-.735c-.151-.422-.149-.586-.149-.911q0-.501.149-.93.15-.43.429-.747a2 2 0 0 1 .69-.501 2.25 2.25 0 0 1 .923-.183q.345.001.664.104.321.104.581.304c.26.2.316.299.427.496a1.7 1.7 0 0 1 .206.676h-.935q-.088-.374-.337-.562a.97.97 0 0 0-.607-.187q-.331 0-.562.128c-.231.128-.28.199-.375.344q-.143.217-.209.491c-.066.274-.066.372-.066.569q0 .28.066.548.066.267.209.479.143.213.375.342c.232.129.342.128.562.128q.488 0 .754-.247.266-.245.311-.714h-.987V11.8h1.872v2.413h-.624l-.1-.505a1.44 1.44 0 0 1-.579.471m2.896-4.429v3.632H24v.828h-3.155V9.75zM2.785 11.999c0-.709.343-1.376.948-1.962l1.109 4.221h.764l1.075-3.815 1.06 3.815h.766l1.321-4.856h-.86l-.861 3.725-1.039-3.726H6.28l-1.039 3.725-.84-3.632c1.489-1.025 3.868-1.69 6.548-1.69 2.512 0 4.764.529 6.261 1.445-1.632-1.535-4.565-2.612-7.915-2.614C4.161 6.635 0 9.036 0 11.999s4.161 5.367 9.293 5.367c3.338 0 6.261-1.075 7.9-2.6-1.497.911-3.741 1.428-6.244 1.428-4.51-.001-8.164-1.877-8.164-4.195m9.194-.553a1.2 1.2 0 0 0-.444-.384 1.4 1.4 0 0 0-.622-.135q-.393 0-.7.14a1.3 1.3 0 0 0-.489.387c-.244.311-.372.75-.372 1.269 0 .23.033.448.097.643a1.5 1.5 0 0 0 .285.515c.261.304.633.465 1.077.465.233 0 .422-.024.581-.074.138-.043.23-.1.306-.149a1.36 1.36 0 0 0 .444-.489c.09-.166.135-.323.145-.403l.007-.055h-.633l-.002.045c-.017.206-.287.574-.769.574-.688 0-.852-.498-.864-.937h2.306v-.05a3.2 3.2 0 0 0-.085-.766 1.8 1.8 0 0 0-.268-.596m-1.139.05c.51 0 .783.275.833.84h-1.651c.025-.458.388-.84.818-.84m4.678.415a1.6 1.6 0 0 0-.268-.515 1.25 1.25 0 0 0-.437-.346 1.4 1.4 0 0 0-.586-.126 1.14 1.14 0 0 0-.531.128 1.1 1.1 0 0 0-.346.28v-1.49h-.631v4.413h.6v-.301a1 1 0 0 0 .211.206q.258.185.626.185c.263 0 .501-.059.7-.176q.269-.157.448-.444a2 2 0 0 0 .235-.584 2.7 2.7 0 0 0 .069-.603 2 2 0 0 0-.09-.627m-.567.717c0 .346-.069.636-.202.84a.68.68 0 0 1-.605.325c-.377 0-.819-.263-.819-1.008 0-.356.045-.631.135-.84.13-.301.351-.446.671-.446.342 0 .572.133.7.41.106.227.12.505.12.719"/></svg>