<svg xmlns="http://www.w3.org/2000/svg" viewBox="0 0 24 24"><path d="M11.943.183c1.872 0 3.654.429 5.252 1.196.251.113.503.248.753.384l-1.096.97-1.643-1.692-2.832 2.483L10.71 1.74 5.503 6.368l3.334 3.635-1.302 1.128 3.29 3.635-1.302 1.128 4.704 5.17 2.785-2.529 2.421 2.71c-.48.361-1.005.723-1.575 1.039a12.04 12.04 0 0 1-5.892 1.534C5.366 23.818 0 18.513 0 11.99-.023 5.51 5.344.182 11.943.182M9.75 11.266l2.855-2.528 2.558 2.821-2.855 2.529zm2.033 4.876 2.832-2.55 2.58 2.821-2.855 2.529zM7.72 6.46l2.854-2.529 2.557 2.822-2.854 2.528zm5.228-1.355 2.124-1.896 1.919 2.099-2.124 1.919zm3.792 8.691 2.123-1.896 1.918 2.121-2.124 1.898zm1.872 4.267 2.124-1.897 1.917 2.1-2.123 1.918zm.868-9.753 1.415-1.264 1.279 1.4-1.416 1.264zm-1.827-4.176 1.416-1.286 1.28 1.422-1.418 1.264zm3.63 8.353 1.416-1.264 1.302 1.4-1.438 1.264zm-6.37-3.138 2.124-1.896 1.918 2.099-2.124 1.897Z"/></svg>