<svg xmlns="http://www.w3.org/2000/svg" viewBox="0 0 24 24"><path d="M21.458 11.005c-.024-.179-.078-.632-.165-1.08a8 8 0 0 0-.255-1.006l-.005-.015a2 2 0 0 0-.151-.315 1.2 1.2 0 0 0-.317-.354 1.57 1.57 0 0 0-1.412-.138 2.03 2.03 0 0 0-.861 1.064c-.238.465-.475.93-.742 1.378a2.6 2.6 0 0 1-.572.7 1.3 1.3 0 0 1-.367.215c-.534.2-.91-.08-1.321-.403-.438-.342-.824-.744-1.274-1.073a1.85 1.85 0 0 0-.983-.43c-.637-.003-1.195.619-1.544 1.078-.195.258-.577.779-.775 1.033a3.4 3.4 0 0 1-.454.458 1.2 1.2 0 0 1-.196.138 1.1 1.1 0 0 1-.48.136 1.57 1.57 0 0 1-.869-.263 3 3 0 0 1-.288-.183l-.035-.027a.469.469 0 0 0-.734.428.4.4 0 0 0 .024.136q.001.004.004.008a.4.4 0 0 0 .093.14c.608.897 1.47 1.55 2.303 1.564a1.5 1.5 0 0 0 .635-.124c.646-.285 1.13-.903 1.67-1.334a1.3 1.3 0 0 1 .776-.33 1.04 1.04 0 0 1 .63.215 2 2 0 0 1 .189.144 9 9 0 0 1 .742.753 10 10 0 0 0 .9.85 2.53 2.53 0 0 0 1.146.56q.069.01.136.014a1.52 1.52 0 0 0 1.002-.314 4.2 4.2 0 0 0 .745-.689 6 6 0 0 0 .463-.664c.07-.112.143-.19.2-.308a6 6 0 0 1-.065.953 10 10 0 0 1-.212 1.288q-.062.253-.135.503-.116.397-.262.786a2 2 0 0 1-.072.188l-.003.007q-.088.23-.192.453a7.005 7.005 0 0 1-12.74-.01q-.106-.225-.195-.459l-.004-.009a10.9 10.9 0 0 1 .426-9.024 13 13 0 0 1 1.635-2.396 8.4 8.4 0 0 1 2.132-1.946q.044-.027.086-.055a4.17 4.17 0 0 1 4.57 0l.086.055a11.3 11.3 0 0 1 1.795 1.588l.002.002.052.053a1.2 1.2 0 0 0 .296.212 1.36 1.36 0 0 0 1.493-.211 1.29 1.29 0 0 0 .137-1.672q-.063-.075-.121-.15a8 8 0 0 0-.722-.763A14 14 0 0 0 15.375.9l-.118-.071A6.1 6.1 0 0 0 12.118 0a5.75 5.75 0 0 0-3.033.841l-.117.071A12.2 12.2 0 0 0 6.003 3.39l-.024.025a15.48 15.48 0 0 0-3.578 9.8 16.6 16.6 0 0 0 .359 3.444 9.487 9.487 0 0 0 18.478.017l.028-.13.002-.012.02-.103a16 16 0 0 0 .286-2.235q.026-.454.026-.91a18 18 0 0 0-.142-2.28z"/></svg>