<svg xmlns="http://www.w3.org/2000/svg" viewBox="0 0 24 24"><path d="M12 24C5.342 24 0 18.582 0 12 0 5.342 5.342 0 12 0s12 5.342 12 12c0 6.582-5.342 12-12 12m0-21.986c-5.497 0-9.987 4.489-9.987 9.986s4.49 9.988 9.987 9.988c5.498 0 9.987-4.49 9.987-9.988S17.498 2.014 12 2.014m5.885 11.148H9.213a.697.697 0 0 1-.698-.691v-1.012c0-.387.311-.697.698-.697h8.748c.387 0 .697.311.697.697v1.006c-.077.387-.387.697-.773.697m-2.246-3.871H6.891a.694.694 0 0 1-.698-.691V7.59c0-.311.31-.621.697-.621h8.748c.31 0 .62.311.62.619v1.006c.001.386-.31.697-.619.697m-8.748 5.418h8.748c.388 0 .696.311.696.697v1.006a.695.695 0 0 1-.691.697H6.891c-.388-.076-.697-.387-.697-.773V15.33c-.001-.31.309-.621.697-.621"/></svg>