<svg xmlns="http://www.w3.org/2000/svg" viewBox="0 0 24 24"><path d="M17.801 13.557q.223.147.417.313c1.854 1.6 3.127 4.656 2.582 7.311-1.091-.255-5.747-1.055-7.638-3.383-.91-1.12-1.366-2.081-1.569-2.885a6 6 0 0 0 .034-.219c.089.198.197.35.313.466.24.24.521.335.766.372.304.046.594-.006.806-.068l.001.001c.05-.015.433-.116.86-.342.325-.173 2.008-.931 3.428-1.566m-7.384 1.435C9.156 16.597 6.6 18.939.614 18.417c.219-1.492 1.31-3.019 2.51-4.11.379-.345.906-.692 1.506-1.009q.428.253.939.486c2.689 1.221 3.903 1.001 4.89.573l.054-.025a6 6 0 0 0-.096.66m4.152-.462c.38-.341.877-.916 1.383-1.559-.389-.15-.866-.371-1.319-.591-.598-.29-1.305-.283-2.073-.315a4.7 4.7 0 0 1-.804-.103q.021-.184.038-.369c.062.104.673.057.871.057.354 0 1.621.034 3.074-.574s2.55-1.706 3.022-3.225c.474-1.52.22-3.091-.168-3.952-.169.709-1.453 2.381-1.926 2.871-.473.489-2.381 2.296-2.972 2.921-.7.74-.688.793-1.332 1.302-.202.19-.499.402-.563.53.027-.338.039-.675.027-.997a8 8 0 0 0-.032-.523c.322-.059.567-.522.567-.861 0-.224-.106-.247-.271-.229.075-.894.382-3.923 1.254-4.281.218.109.831.068.649-.295-.182-.364-.825-.074-1.081.266-.28.374-.956 2.046-.92 4.324-.113.014-.174.033-.322.033-.171 0-.321-.04-.433-.05.034-2.275-.714-3.772-.84-4.169-.12-.375-.491-.596-.781-.596-.146 0-.272.056-.333.179-.182.363.459.417.677.308.706.321 1.156 3.519 1.254 4.277-.125-.006-.199.035-.199.233 0 .311.17.756.452.843l-.007.03s-.287.99-.413 2.189a4.7 4.7 0 0 1-.718-.225c-.714-.286-1.355-.583-2.019-.566s-1.366.023-1.804-.036-.649-.15-.649-.15-.234.365.257 1.075c.42.607 1.055 1.047 1.644 1.18.589.134 1.972.18 2.785-.377.16-.109.317-.228.459-.34a9 9 0 0 0-.013.626c-.289.753-.571 1.993-.268 3.338 0-.001.701-.842.787-2.958q.009-.216.01-.383c.052-.248.103-.518.148-.799.072.135.151.277.234.413.511.842 1.791 1.37 2.383 1.49q.137.029.285.038m-1.12.745c-.188.055-.445.1-.713.059-.21-.031-.45-.11-.655-.316-.169-.168-.312-.419-.401-.789a10 10 0 0 0 .039-.82l.049-.243c.563.855 1.865 1.398 2.476 1.522q.054.011.109.02l-.013.009c-.579.415-.76.503-.891.558m6.333-2.818c-.257.114-4.111 1.822-5.246 2.363.98-.775 3.017-3.59 3.699-4.774 1.062.661 1.468 1.109 1.623 1.441.101.217.09.38.096.515a.57.57 0 0 1-.172.455m-9.213 1.62a2 2 0 0 1-.19.096c-.954.414-2.126.61-4.728-.571-2.023-.918-3.024-2.157-3.371-2.666.476.161 1.471.473 2.157.524.282.021.703.068 1.167.125.021.209.109.486.345.829l.001.001c.451.651 1.134 1.119 1.765 1.262.622.141 2.083.182 2.942-.407a3 3 0 0 0 .132-.093l.001.179a6 6 0 0 0-.221.721m5.512-1.271a18 18 0 0 1-1.326-.589c.437.042 1.054.083 1.692.108q-.182.243-.366.481m.932-1.26q-.18.255-.373.517-.362.026-.709.038a29 29 0 0 1-.741-.048c.608-.065 1.228-.252 1.823-.507m.22-.315c-.809.382-1.679.648-2.507.648-.472 0-.833.018-1.139.039v.001c-.324-.031-.665-.039-1.019-.054l-.152-.009c.102-.002.192-.006.249-.006.363 0 1.662.034 3.151-.589 1.508-.632 2.645-1.773 3.136-3.351.37-1.186.31-2.402.086-3.312.458-.336.86-.651 1.147-.91.501-.451.743-.733.848-.869.199.206.714.864.685 2.138-.036 1.611-.606 3.187-1.501 4.154a9 9 0 0 1-1.321 1.132 12 12 0 0 0-.644-.422l-.089-.055-.051.091c-.184.332-.5.825-.879 1.374M4.763 5.817c-.157 1.144.113 2.323.652 3.099s2.088 2.29 3.614 2.505c.991.14 2.055.134 2.055.134s-.593-.576-1.114-1.66-.948-2.104-1.734-2.786c-.785-.681-1.601-1.416-2.045-1.945s-.59-.86-.59-.86-.656.175-.838 1.513m14.301 4.549a9 9 0 0 0 1.3-1.12c.326-.352.611-.782.845-1.265 1.315.145 2.399.371 2.791.434 0 0-.679 1.971-3.945 3.022l-.016-.035c-.121-.26-.385-.594-.975-1.036m-11.634.859a9 9 0 0 1-.598-.224c-1.657-.693-2.91-1.944-3.449-3.678-.498-1.601-.292-3.251.091-4.269.225.544.758 1.34 1.262 2.01a3.6 3.6 0 0 0-.172.726c-.163 1.197.123 2.428.687 3.24.416.599 1.417 1.62 2.555 2.193q-.192.003-.376.002m-1.758-.077c-.958-.341-1.901-.787-2.697-1.368C-.07 7.559 0 6.827 0 6.827s1.558-.005 3.088.179q.045.189.104.377c.557 1.791 1.851 3.086 3.562 3.803l.047.019a4 4 0 0 1-.267-.026h-.001c-.401-.053-.595-.135-.595-.135l-.157-.069-.092.144zm6.807-1.59c.086.017.136.058.136.145 0 .197-.242.5-.597.597l-.01-.161a.9.9 0 0 0 .283-.243c.078-.099.142-.217.188-.338m-1.591.006c.033.1.076.197.129.282.061.097.134.18.217.24l-.021.083c-.276-.093-.424-.293-.424-.466 0-.078.035-.119.099-.139m-.025-.664c-.275-.816-.795-2.022-1.505-2.179-.296.072-.938.096-.691-.145.246-.24 1.085-.048 1.283.217.145.194.744.806 1.011 1.737l.032.227a.32.32 0 0 0-.13.143m1.454-.266c.251-.99.889-1.639 1.039-1.841.197-.265 1.036-.457 1.283-.217s-.395.217-.691.145c-.69.152-1.2 1.296-1.481 2.109a.4.4 0 0 0-.067-.059.4.4 0 0 0-.092-.043zm4.802-2.708a10 10 0 0 1-.596.705c-.304.315-1.203 1.176-1.963 1.916.647-.955 1.303-1.806 2.184-2.376q.185-.12.375-.245"/></svg>