<svg xmlns="http://www.w3.org/2000/svg" viewBox="0 0 24 24"><path d="M23.55 5.067a2.177 2.177 0 0 0-2.18 2.177v4.867a1.77 1.77 0 0 1-1.76 1.76 1.82 1.82 0 0 1-1.472-.766l-4.971-7.1a2.2 2.2 0 0 0-1.81-.942c-1.134 0-2.154.964-2.154 2.153v4.896c0 .972-.797 1.76-1.76 1.76-.57 0-1.136-.287-1.472-.766L.408 5.16A.224.224 0 0 0 0 5.288v4.245c0 .215.066.423.188.6l5.475 7.818c.324.462.8.805 1.351.93a2.164 2.164 0 0 0 2.645-2.098V11.89c0-.972.787-1.76 1.76-1.76h.002a1.8 1.8 0 0 1 1.472.766l4.972 7.1a2.172 2.172 0 0 0 3.96-1.212v-4.895c.001-.972.789-1.76 1.76-1.76h.195a.22.22 0 0 0 .22-.22V5.287a.22.22 0 0 0-.22-.22Z"/></svg>