<svg xmlns="http://www.w3.org/2000/svg" viewBox="0 0 24 24"><path d="M15.542 12.035c0-.875-.69-1.585-1.542-1.585-.85 0-1.541.71-1.541 1.585 0 .876.69 1.585 1.542 1.585.85 0 1.54-.71 1.54-1.585zM14 12.872c-.437 0-.792-.375-.792-.837 0-.46.355-.836.793-.836.437 0 .792.375.792.836 0 .462-.355.837-.792.837m-9.584-2.208-.927 2.873a.13.13 0 0 1-.115.084H3.29a.16.16 0 0 1-.129-.078l-.95-1.825-.95 1.825a.16.16 0 0 1-.128.078h-.085a.13.13 0 0 1-.115-.084l-.927-2.873c-.022-.07.019-.126.092-.126h.567c.048 0 .1.038.115.084l.469 1.452.805-1.546a.16.16 0 0 1 .129-.078h.057a.16.16 0 0 1 .129.078l.805 1.546.468-1.452a.13.13 0 0 1 .116-.084h.567c.073 0 .114.057.091.126M5.784 13.4a.13.13 0 0 1-.132.133H5.08a.13.13 0 0 1-.132-.133v-2.73c0-.073.059-.132.132-.132h.572a.13.13 0 0 1 .132.132zm.741-2.73v4.315c0 .074.06.133.132.133h.573a.13.13 0 0 0 .132-.133v-1.497c.242.085.51.132.792.132.803 0 1.454-.71 1.454-1.585s-.651-1.585-1.454-1.585c-.394 0-.75.171-1.012.449l-.102-.278a.14.14 0 0 0-.119-.083h-.264a.13.13 0 0 0-.132.132m.837.9a.75.75 0 0 1 .637-.371c.424 0 .767.374.767.836s-.344.837-.767.837c-.24 0-.46-.063-.637-.17zm3.575 1.963h-.572a.13.13 0 0 1-.132-.132V10.67c0-.073.059-.132.132-.132h.264c.048 0 .102.037.118.083l.102.277s.32-.448.87-.448.617.19.571.295l-.197.445c-.025.058-.09.1-.177.066a.73.73 0 0 0-.847.233V13.4a.13.13 0 0 1-.132.132m4.69-10.343a.704.704 0 0 1 .862-.497.704.704 0 1 1-.364 1.36.705.705 0 0 1-.498-.863zm1.846 2.79a.53.53 0 0 1 .194.722.53.53 0 0 1-.722.193.53.53 0 0 1-.194-.722.53.53 0 0 1 .722-.193m.664 10.968a.573.573 0 0 1 0-.81.57.57 0 0 1 .81 0 .573.573 0 0 1 0 .81.573.573 0 0 1-.81 0M15.68 9.571a.242.242 0 0 1-.42-.242.242.242 0 1 1 .42.242m-.42 5.1a.242.242 0 0 1 .42-.242.243.243 0 0 1-.088.331.243.243 0 0 1-.331-.089m3.73-2.67a.517.517 0 1 1-.516-.518.517.517 0 0 1 .517.517m-1.173-8.112a.749.749 0 1 1 1.296.75.749.749 0 0 1-1.296-.75m-5.43 10.575a.154.154 0 1 1 .267.153.154.154 0 0 1-.267-.154m2.804-8.792a.484.484 0 1 1 .935.25.484.484 0 0 1-.593.343.484.484 0 0 1-.342-.593M13.993 7.85a.308.308 0 1 1 0-.617.308.308 0 1 1 0 .617m0 1.013a.198.198 0 1 1 0 .396.198.198 0 0 1 0-.396m0-2.84a.44.44 0 1 1 0-.882.44.44 0 0 1 0 .881m-1.607 3.515a.154.154 0 1 1 .21.056.154.154 0 0 1-.21-.056m1.607 5.602a.198.198 0 1 1 0-.396.198.198 0 0 1 0 .396m0 1.013a.308.308 0 0 1 0 .616.308.308 0 1 1 0-.616m3.494-2.139a.44.44 0 0 1 .602-.16.44.44 0 0 1 .16.6.44.44 0 0 1-.762-.44m-3.494 3.966a.44.44 0 1 1 0 .88.44.44 0 0 1 0-.88m9.577-8.543a.968.968 0 1 1-1.87.502.968.968 0 0 1 1.87-.502m-6.694 6.002a.396.396 0 0 1 .56-.56.396.396 0 0 1 0 .56.396.396 0 0 1-.56 0m.974-4.47a.484.484 0 0 1 .342-.592.484.484 0 1 1 .25.935.484.484 0 0 1-.592-.342m1.407-2.715a.617.617 0 0 1 .617 1.068.617.617 0 0 1-.617-1.068m-.31-.391a.57.57 0 0 1-.81 0 .573.573 0 0 1 0-.81.57.57 0 0 1 .81 0 .573.573 0 0 1 0 .81M17.85 13.03a.484.484 0 0 1 .935.25.484.484 0 1 1-.935-.25M14.83 7.605a.33.33 0 0 1 .404-.234.33.33 0 0 1-.17.638.33.33 0 0 1-.234-.404M21.3 6.77a.88.88 0 0 1 1.203.321.88.88 0 1 1-1.525.881.88.88 0 0 1 .322-1.202zm-3.05 2.777a.44.44 0 1 1-.762.44.44.44 0 1 1 .763-.44m1.324.96a.66.66 0 0 1 .466-.808.66.66 0 0 1 .342 1.275.66.66 0 0 1-.808-.467m0 2.986a.66.66 0 1 1 1.275.341.66.66 0 1 1-1.275-.341m.859-.736a.757.757 0 1 1 0-1.514.757.757 0 0 1 0 1.514m-.676-6.514a.79.79 0 0 1 0-1.121.79.79 0 0 1 1.121 0 .793.793 0 0 1-1.12 1.12M16.534 8.31a.352.352 0 1 1-.61-.353.352.352 0 0 1 .61.352m-.639 5.586a.264.264 0 0 1 .374 0 .265.265 0 0 1 0 .373.264.264 0 0 1-.374 0 .264.264 0 0 1 0-.373m0-4.167a.264.264 0 0 1 .374 0 .264.264 0 1 1-.374 0m.515 3.992a.287.287 0 0 1-.105-.391.286.286 0 0 1 .391-.105.286.286 0 0 1-.286.496m-.486 2.32a.35.35 0 0 1 .129-.48.35.35 0 0 1 .481.128.35.35 0 0 1-.129.481.35.35 0 0 1-.481-.129zm.877-5.659a.286.286 0 0 1-.105.391.287.287 0 0 1-.391-.105.286.286 0 0 1 .496-.286zm-.249.934a.308.308 0 1 1 .596-.16.308.308 0 0 1-.596.16m0 1.366a.308.308 0 1 1 .596.16.308.308 0 0 1-.596-.16m.401-.346a.337.337 0 1 1 0-.673.337.337 0 0 1 0 .673m.483-3.775a.396.396 0 1 1-.56.561.396.396 0 0 1 .56-.56M10.02 20.013a.573.573 0 0 1-.782.21.573.573 0 0 1 .573-.992.573.573 0 0 1 .21.782m4.794-11.068a.22.22 0 1 1-.114.425.22.22 0 0 1 .114-.425m-2.539 11.837a.616.616 0 1 1-1.19-.32.616.616 0 0 1 1.19.32m2.539-5.726a.22.22 0 0 1-.114-.426.22.22 0 1 1 .114.426m-.16 5.874a.66.66 0 0 1-.66.66.66.66 0 0 1-.661-.66.66.66 0 0 1 1.32 0m-1.47-5.922a.177.177 0 0 1-.124-.216.177.177 0 0 1 .216-.124.176.176 0 0 1-.092.34m-.07 1.371a.286.286 0 1 1-.553-.148.286.286 0 0 1 .552.148m-2.796-2.273a.22.22 0 0 1-.381.22.22.22 0 0 1 .08-.3.22.22 0 0 1 .301.08m1.67 1.882a.264.264 0 1 1-.457-.264.264.264 0 0 1 .458.264m.015-1.825a.132.132 0 1 1-.187-.187.133.133 0 0 1 .187 0 .133.133 0 0 1 0 .187m-.996.81a.242.242 0 1 1-.343.342.24.24 0 0 1 0-.342.24.24 0 0 1 .343 0m.078 2.756a.35.35 0 0 1-.481.129.352.352 0 1 1 .481-.129m9.792.029a.793.793 0 0 1 0 1.12.793.793 0 0 1-1.12-1.12.793.793 0 0 1 1.12 0m-1.62-2.01a.617.617 0 0 1-.225-.843.617.617 0 0 1 .842-.225.617.617 0 0 1-.617 1.067m3.245 1.16a.88.88 0 1 1-1.525-.88.88.88 0 0 1 1.525.88m-7.267-.28a.33.33 0 1 1-.17-.637.33.33 0 0 1 .17.638M24 12a1.058 1.058 0 1 1-2.116 0A1.058 1.058 0 0 1 24 12m-.43 2.564a.97.97 0 1 1-1.872-.502.97.97 0 0 1 1.872.502m-6.583 5.881a.704.704 0 1 1-1.36.364.704.704 0 0 1 .498-.862.704.704 0 0 1 .862.498m2.125-1.082a.75.75 0 0 1-.274 1.022.75.75 0 0 1-1.022-.274.75.75 0 0 1 .274-1.023.75.75 0 0 1 1.022.274zm-3.922-1.035a.484.484 0 1 1 .935-.25.484.484 0 0 1-.935.25m2.283-.308a.528.528 0 1 1-.528-.915.528.528 0 0 1 .528.915m-4.76.28a.396.396 0 0 1-.766-.205.396.396 0 0 1 .485-.28.396.396 0 0 1 .28.485m-.897-8.276a.132.132 0 1 1 .187-.187.132.132 0 0 1-.187.187m.076-1.651a.264.264 0 0 1-.265-.458.264.264 0 0 1 .265.458m-.807-4.835a.616.616 0 1 1 1.19-.32.616.616 0 0 1-1.19.32m-.848 6.055a.22.22 0 1 1-.22.381.22.22 0 0 1-.08-.3.22.22 0 0 1 .3-.081zm.77-.908a.242.242 0 0 1-.343.343.242.242 0 0 1 .343-.343m-.532-2.062a.352.352 0 0 1 .61-.352.352.352 0 0 1-.61.352m2.858-3.552a.66.66 0 0 1 1.32 0 .66.66 0 0 1-.66.66.66.66 0 0 1-.66-.66m-.149 5.922a.176.176 0 1 1 .091.34.176.176 0 0 1-.09-.34m-.957-3.573a.396.396 0 0 1 .205.765.396.396 0 0 1-.485-.28.397.397 0 0 1 .28-.485zm.535 1.999a.286.286 0 1 1 .148.553.286.286 0 0 1-.148-.553M9.03 4.559a.57.57 0 0 1 .21-.781.573.573 0 0 1 .572.991.57.57 0 0 1-.782-.21m-.37 10.505a.264.264 0 1 1-.458.264.264.264 0 0 1 .458-.264M4.92 9.46a.46.46 0 0 1 .566-.327.46.46 0 0 1 .327.566.46.46 0 0 1-.566.327.46.46 0 0 1-.327-.567m.9-2.17a.484.484 0 1 1 .178.662.485.485 0 0 1-.178-.662m2.23 10.642a.53.53 0 0 1 0 .747.53.53 0 0 1-.748 0 .53.53 0 0 1 0-.747.53.53 0 0 1 .748 0m-1.373-1.722a.484.484 0 1 1-.839.485.484.484 0 0 1 .839-.485m.626-10.14a.53.53 0 0 1 0-.746.53.53 0 0 1 .747 0 .53.53 0 0 1 0 .747.53.53 0 0 1-.747 0m2.366 1.62a.31.31 0 0 1-.436 0 .31.31 0 0 1 0-.436.31.31 0 0 1 .436 0 .31.31 0 0 1 0 .436m0 8.623a.308.308 0 1 1-.436.435.308.308 0 0 1 .436-.436m-1.466-7.64a.264.264 0 1 1 .457.264.264.264 0 0 1-.458-.264"/></svg>