<svg xmlns="http://www.w3.org/2000/svg" viewBox="0 0 24 24"><path d="M17.637 10.393h2.318l-2.746 3.592h-2.32zm-.175-.351-2.918 3.82a.29.29 0 0 0-.03.307.3.3 0 0 0 .264.166h2.605l2.943-3.848a.28.28 0 0 0 .027-.293.28.28 0 0 0-.25-.152zM9.127 8.175a.09.09 0 0 1 .074-.042h1.52l.219-1.255a.08.08 0 0 1 .082-.066l1.423-.001q.04 0 .062.024a.1.1 0 0 1 .02.069l-.142.812 6.69.005c.037 0 .062.021.075.043.008.015.018.047-.003.076l-.604.79 4.958-.002a.07.07 0 0 1 .057.034.05.05 0 0 1 0 .058l-4.121 5.395c-.047.06-.045.209-.012.272.034.065.151.156.225.156l2.898.003a.08.08 0 0 1 .063.028.08.08 0 0 1 .019.066l-.22 1.26a.08.08 0 0 1-.083.067H11.299l-.18-.001a1 1 0 0 1 .018.193 1.027 1.027 0 1 1-1.027-1.027 1.03 1.03 0 0 1 .9.532l4.495-5.892c.072-.152.036-.207-.003-.296-.028-.068-.137-.138-.255-.136H12.1l-.804 4.59a.08.08 0 0 1-.08.061H9.791a.08.08 0 0 1-.063-.028.08.08 0 0 1-.018-.066l.873-4.982-3.551 6.963a.18.18 0 0 1-.158.091l-1.21.007c-.043 0-.079-.031-.082-.068l-.334-5.058-2.624 5.029a.18.18 0 0 1-.157.091H1.241a.08.08 0 0 1-.081-.072l-.8-7.677a.1.1 0 0 1 .02-.064.09.09 0 0 1 .063-.023h1.649c.045 0 .083.036.083.084l.247 5.01 2.426-5.051a.08.08 0 0 1 .073-.043l1.503-.007c.042 0 .079.032.081.068l.245 5.048zm1.825-1.715a.35.35 0 0 0-.345.29l-.181 1.032H9.147c-.13 0-.247.07-.314.192l-1.8 3.84-.178-3.712a.35.35 0 0 0-.35-.32H4.868a.35.35 0 0 0-.313.193L2.704 11.83l-.183-3.698a.35.35 0 0 0-.35-.35H.351a.35.35 0 0 0-.259.11.37.37 0 0 0-.091.272l.816 7.842a.35.35 0 0 0 .349.311h1.353a.45.45 0 0 0 .396-.237l2.067-3.96.255 3.886a.35.35 0 0 0 .348.311h1.343a.45.45 0 0 0 .396-.239l2.512-4.925-.486 2.778a.36.36 0 0 0 .076.287.35.35 0 0 0 .268.125h1.592a.35.35 0 0 0 .343-.281l.766-4.372h2.735l-4.133 5.41a1.38 1.38 0 0 0-.884-.32c-.76 0-1.381.62-1.381 1.38 0 .761.62 1.38 1.38 1.38a1.39 1.39 0 0 0 1.374-1.222h10.912a.35.35 0 0 0 .344-.291l.25-1.42a.35.35 0 0 0-.078-.286.35.35 0 0 0-.268-.124l-2.83-.002 4.126-5.4a.33.33 0 0 0 .019-.339.33.33 0 0 0-.295-.179h-4.414l.28-.366a.352.352 0 0 0-.29-.547h-6.44l.088-.494a.36.36 0 0 0-.081-.289.34.34 0 0 0-.265-.121z"/></svg>