<svg xmlns="http://www.w3.org/2000/svg" viewBox="0 0 24 24"><path d="m20.105 12.001 3.307-3.708-4.854-1.059.495-4.944-4.55 1.996L12 0 9.495 4.287 4.947 2.291l.494 4.944L.587 8.289l3.305 3.707-3.305 3.713 4.854 1.053-.5 4.945 4.553-1.994L12 24l2.504-4.287 4.55 1.994-.495-4.938 4.854-1.06zm1.605 2.792-2.861-.982-1.899-2.471 2.526.942zm.459-6.096-2.602 2.918-3.066-1.141 1.844-2.612zm-4.288-1.324-1.533 2.179.088-3.162 1.788-2.415zm-3.304-2.399 3.091-1.354L15.9 5.998l-2.943 1.049zm1.187 1.772-.096 3.652-3.341 1.12V7.969zM12 1.308l1.969 3.371L12 7.199l-1.971-2.521zM9.423 4.974l1.619 2.072-2.948-1.048L6.332 3.62zm2.245 2.995v3.549l-3.335-1.12-.102-3.652zM7.564 6.39l.086 3.162-1.532-2.179-.341-3.397zM1.83 8.692l3.824-.83 1.839 2.612-3.065 1.136zm2.694 3.585 2.526-.937-1.9 2.471-2.861.977zm-2.093 3.159 2.929-1 3.045.896-2.622.837zm3.28 5.212.392-3.896 3.111-.982.082 3.31zm3.691-5.708-3.498-1.03 2.226-2.892 3.335 1.126zm2.266 7.191-1.711-2.934-.066-2.771 1.777 2.597zm-1.73-6.8L12 12.532l2.063 2.799L12 18.336zm4.104 3.866-1.715 2.934v-3.107l1.782-2.597zm-1.514-7.052 3.341-1.126 2.221 2.892-3.499 1.03zm2.175 6.935.077-3.31 3.116.982.386 3.901zm3.514-2.912-2.625-.837 3.049-.896 2.928 1.003z"/></svg>