<svg xmlns="http://www.w3.org/2000/svg" viewBox="0 0 24 24"><path d="M.754 9.58a.754.754 0 0 0-.754.758v2.525c0 .42.339.758.758.758h3.135l1.431.799-.326-.799h2.373a.757.757 0 0 0 .758-.758v-2.525a.757.757 0 0 0-.758-.758zm2.709.445h.03a.3.3 0 0 1 .179.067.26.26 0 0 1 .103.19.3.3 0 0 1-.033.16q-.194.36-.322 1.199-.124.813-.094 1.267a.4.4 0 0 1-.039.219.21.21 0 0 1-.176.12c-.086.006-.177-.034-.263-.124q-.465-.474-.735-1.416-.324.638-.478.957-.294.563-.502.578-.134.01-.233-.228-.254-.654-.548-2.524a.3.3 0 0 1 .054-.222c.047-.064.116-.095.21-.102q.253-.02.288.238.156 1.043.336 1.766l.727-1.387q.1-.189.25-.199.219-.015.273.28.125.66.315 1.136.13-1.266.44-1.828a.26.26 0 0 1 .218-.147m1.293.36a1 1 0 0 1 .18.02q.35.074.53.386c.107.18.161.395.161.654q0 .513-.26.94-.299.499-.781.5a1 1 0 0 1-.18-.022.76.76 0 0 1-.531-.384 1.3 1.3 0 0 1-.158-.659q0-.514.258-.937.303-.499.78-.498zm2.084 0a1 1 0 0 1 .18.02q.353.074.53.386c.107.18.16.395.16.654q0 .513-.259.94-.299.499-.781.5a1 1 0 0 1-.18-.022.76.76 0 0 1-.531-.384 1.3 1.3 0 0 1-.16-.659q0-.514.26-.937.303-.499.78-.498zm4.437.047q-.459 0-.718.304-.258.306-.256.856 0 .592.256.906.255.316.744.316.473-.001.728-.316.256-.315.256-.883c0-.568-.087-.673-.26-.879q-.262-.303-.75-.304m-1.466.002a1.13 1.13 0 0 0-.84.326q-.333.33-.332.838-.001.545.328.88t.861.336q.156.001.346-.052v-.54a1.1 1.1 0 0 1-.303.051.55.55 0 0 1-.422-.177.7.7 0 0 1-.16-.48q0-.287.156-.468a.5.5 0 0 1 .397-.181q.153-.001.332.049v-.537a1.4 1.4 0 0 0-.363-.045m12.414 0a1.14 1.14 0 0 0-.84.326q-.333.33-.332.838-.001.545.328.88.33.335.861.336.156.001.346-.052v-.54a1.1 1.1 0 0 1-.303.051.55.55 0 0 1-.422-.177.7.7 0 0 1-.16-.48q0-.287.156-.468a.5.5 0 0 1 .397-.181q.153-.001.332.049v-.537a1.4 1.4 0 0 0-.363-.045m-9.598.06-.29 2.264h.579l.156-1.559.395 1.559h.412l.379-1.555.164 1.555h.603l-.304-2.264h-.791l-.12.508q-.046.195-.087.4l-.067.352a30 30 0 0 0-.258-1.26zm2.768 0-.29 2.264h.579l.156-1.559.396 1.559h.412l.375-1.555.165 1.555h.603l-.305-2.264h-.789l-.119.508q-.046.195-.086.4l-.066.352a30 30 0 0 0-.26-1.26zm3.988 0v2.264h.611v-1.031h.012l.494 1.03h.645l-.489-1.019a.61.61 0 0 0 .37-.552.6.6 0 0 0-.25-.506q-.25-.185-.68-.186zm3.377 0v2.264H24v-.483h-.63v-.414h.54v-.468h-.54v-.416h.626v-.483zm-4.793.004v2.264h1.24v-.483h-.627v-.416h.541v-.468h-.54v-.415h.622v-.482zm2.025.432q.219.003.313.072.093.068.091.227 0 .234-.404.24zm-15.22.011q-.156-.001-.301.211a1.08 1.08 0 0 0-.2.639c0 .096.02.2.06.303.049.13.117.198.196.215q.125.023.27-.106.183-.164.252-.492.023-.116.023-.246 0-.147-.06-.303c-.05-.13-.116-.198-.196-.215a.3.3 0 0 0-.045-.006zm2.083 0q-.155-.001-.3.211a1.08 1.08 0 0 0-.2.639c0 .096.02.2.06.303.049.13.117.198.196.215q.125.023.27-.106.183-.164.252-.492.021-.116.023-.246 0-.147-.06-.303c-.05-.13-.116-.198-.196-.215a.3.3 0 0 0-.045-.006m4.428.006c.233 0 .354.218.354.66-.004.273-.038.46-.098.553a.29.29 0 0 1-.262.139.27.27 0 0 1-.242-.139q-.084-.14-.084-.562c0-.436.11-.65.332-.65Z"/></svg>