<svg xmlns="http://www.w3.org/2000/svg" viewBox="0 0 24 24"><path d="M12.021 1.412c-1.064 0-.611 1.579-.527 2.093 0 .025.086 3.57.102 4.379q.245-.065.477-.12l.321-.08c.015-.782.094-4.166.096-4.184.07-.551.628-2.088-.469-2.088m-.311 12.04c.119-.04.238-.075.345-.11l.23-.071c0-.228.068-3.372.08-3.944a7 7 0 0 0-.732.211zm.392 1.193c-.04.015-.144.059-.21.081-.065.023-.156.06-.156.085 0 .024.066 3.62.066 3.699 0 .744.379.749.379 0 0-.053.076-3.916.076-3.916zM11.247 4.5a5.5 5.5 0 0 0-.834.339c-.297.098-.714.119-1.15.588a6 6 0 0 0-.397.51c-.13.187-.137.49-.238.653-.138.238-.105.37-.105.37v.007a.63.63 0 0 1-.16.295.6.6 0 0 1-.554.221c.198.1.476-.039.476-.039a4 4 0 0 0-.105.393c.222-.501.426-.684.489-.736.095.022.292.013.659-.197.414-.238 1.037-.625 1.213-.87a1.6 1.6 0 0 1 .733-.554q-.018-.565-.027-.98M9.499 6.063l-.215.046.257-.413.3.01zm1.28 8.64c0 .466.345.714.689.913 0-.079-.014-.801-.014-.813.007-.144.146-.231.26-.285a6 6 0 0 1 .545-.208c.103-.036.19-.07.287-.099.69-.208 1.49-.476 1.49-1.31 0-.832-.685-1.19-1.429-1.443 0 .268-.013.66-.019.93.317.119.526.275.526.514 0 .3-.321.476-.549.562a6 6 0 0 1-.28.097 9 9 0 0 0-.565.19 3 3 0 0 0-.28.12c-.328.164-.662.406-.661.832m4.575-8.15c0-.853-.619-1.8-2.136-2.135a4 4 0 0 0-.463-.054c0 .129-.01.424-.01.424 0 .093-.01.434-.012.508a2 2 0 0 1 .292.04c.882.211 1.197.715 1.197 1.217 0 .81-.692 1.117-1.547 1.347l-.282.074c-.258.065-.524.126-.787.197l-.28.08c-.943.287-1.755.742-1.755 1.904s.926 1.588 1.83 1.866l-.02-1.002c-.399-.187-.68-.433-.68-.848 0-.414.256-.65.648-.833a3 3 0 0 1 .279-.108 9 9 0 0 1 .743-.206l.282-.068c1.273-.297 2.701-.696 2.701-2.403m-2.848 9.536c.428.217.824.517.989 1.085.073-.94-.455-1.348-.977-1.623zm7.014-10.8c.46.547 1.263.87 1.733 1.419-.337-1.623-1.59-2.947-3.07-3.264.723.544.879 1.3 1.337 1.845M1.724 9.402c1.02-2.22 2.542-1.75 3.186-3.864-.357.648-2.024.922-2.798 2.585.394-.988.196-2.5.863-3.315C.982 6.278 1.83 8.656 1.724 9.402m1.847 5.324c.183.864-.357 2.112.5 3.304-.886-.992-2.762-1.245-3.526-2.754.952 3.69 3.452 2.928 4.57 3.73-.924-1.328-.168-2.21-1.544-4.28zm-.287 2.315c-.546-2.06.427-2.774-.317-4.75-.077 1.114-.82 1.657-.319 3.69C1.764 14.26.396 13.617 0 12.434c.027 3.235 2.627 3.715 3.284 4.607m3.992 3.452c-.765-1.06-.238-1.658-2.392-3.581.454.702-.015 1.585 1.435 2.958-1.419-.833-3.375-.476-4.32-1.596 1.622 3.103 4.47 1.837 5.277 2.222zm10.405-.622c1.45-1.374.98-2.262 1.435-2.96-2.15 1.924-1.627 2.523-2.392 3.582.807-.386 3.655.88 5.275-2.219-.942 1.122-2.9.763-4.318 1.6zm2.248-1.844c.854-1.19.317-2.44.5-3.304-1.376 2.07-.62 2.952-1.547 4.285 1.124-.801 3.614-.042 4.57-3.73-.764 1.507-2.637 1.76-3.523 2.752zm-3.435 2.612a10.6 10.6 0 0 0-2.35-.357 5.7 5.7 0 0 0-2.143.365 5.7 5.7 0 0 0-2.142-.365 10.6 10.6 0 0 0-2.351.357c-1.294.344-2.411.61-3.386.12.934.833 2.023 1.124 3.598.952 1.31-.14 2.37-.797 3.605-.787h.049a6.6 6.6 0 0 0-2.038 1.584l.595.08s.628-1.26 2.07-1.59c1.443.33 2.07 1.59 2.07 1.59l.595-.08a6.6 6.6 0 0 0-2.038-1.576h.05c1.235-.01 2.293.647 3.603.787 1.575.17 2.665-.126 3.6-.952-.975.487-2.093.22-3.387-.124zM3.055 10.057c-.533 1.024-1.361 1.258-1.27 3.377C1.335 11.55.266 10.854.28 9.652c-.743 3.13 1.242 3.502 1.752 4.814-.075-1.88 1.124-2.26 1.023-4.41M3.8 7.64c-.185.26-.315.37-.81.778a4.02 4.02 0 0 0-1.443 2.353C1.598 9.625.89 7.976 1.36 6.774c-1.824 2.577.105 4.12.173 5.054.474-1.796 1.561-1.81 2.267-4.187m18.651 3.131A4.03 4.03 0 0 0 21.01 8.42c-.495-.408-.625-.519-.81-.778.705 2.38 1.793 2.39 2.26 4.187.069-.933 1.998-2.477.172-5.054.476 1.202-.232 2.85-.18 3.998M24 12.44c-.397 1.183-1.764 1.825-2.649 3.551.501-2.037-.238-2.58-.319-3.69-.743 1.979.238 2.69-.316 4.75.658-.901 3.258-1.381 3.285-4.616zm-3.05-2.382c-.102 2.15 1.099 2.53 1.023 4.404.51-1.31 2.5-1.683 1.752-4.813.014 1.2-1.055 1.904-1.501 3.775.083-2.108-.745-2.342-1.275-3.366M4.481 5.296c.461-.547.617-1.3 1.338-1.845-1.48.317-2.737 1.642-3.07 3.264.464-.555 1.268-.877 1.728-1.425zm14.613.248c.644 2.115 2.166 1.645 3.185 3.864-.106-.746.743-3.124-1.25-4.594.667.817.47 2.327.863 3.315-.777-1.669-2.44-1.943-2.803-2.591zm-5.17 1.195a5 5 0 0 0-1.217-.328v.272a4.8 4.8 0 0 1 1.119.307.7.7 0 0 0 .099-.251m-.308-2.619.081-.073-.154-.065-.407-.008-.106.073-.238-.02v.058a4 4 0 0 1 .419.044l.198-.017zm-.789 8.778c0-.069-.091-.137-.227-.201h-.025c0 .056 0 .332-.008.467.168-.076.26-.157.26-.266M8.114 7.721a1 1 0 0 1 .034-.15.7.7 0 0 1-.167.017zm3.895 11.973a8.303 8.303 0 0 0 .847-16.56c0 .016 0 .033-.01.048l-.044.218a8 8 0 0 1 4.836 2.261l-.917.917.035-.162-.12-.052-.163-.01.034-.106-.11-.375-.23-.25-.713-.378-.062.065-.13.038a2.14 2.14 0 0 1 .379 1.204v.163l.357.446-.167.038.11.167-.312.312-.126-.238a2.1 2.1 0 0 1-.238.467l.07.065-.965.965a3 3 0 0 0-.181-.16 5 5 0 0 1-.284.118l.082.065-.048.048-.12.063-.041.12-.07-.07-.204.067.056.09.14-.038.092.008.007-.05.07-.036.022-.042.126-.036h.099q.03.026.057.053l-.388.369-.028-.04-.4.065-.09.09-.087.01.248-.238-.088-.044-.232.31.068-.008v.12l.084.032.017.12-.14-.028-.145.026-.357-.18-.028 1.417c.833.278 1.708.68 1.708 1.738a1.31 1.31 0 0 1-.595 1.116l-.018.012-.026.018c-.336.221-.767.34-1.14.457l-.011.74c.595.295 1.315.725 1.248 1.955-.008.302-.126.385-.227.413a6 6 0 0 1-1.071.17v.27a6.65 6.65 0 0 0 4.14-1.828l.963.964a8.02 8.02 0 0 1-11.105.023l.964-.964a6.65 6.65 0 0 0 4.082 1.803v-.27a6.38 6.38 0 0 1-3.895-1.723l.257-.258.358.04.188-.202.492.017.073-.17-.018-.073a5 5 0 0 0 2.51 1.003v-.271a4.75 4.75 0 0 1-2.704-1.24l.965-.966a3.4 3.4 0 0 0 .782.525 1 1 0 0 1 .098-.253 3.1 3.1 0 0 1-.69-.463l.969-.967a1.8 1.8 0 0 0 .516.287v-.29a1.5 1.5 0 0 1-.319-.19l.273-.272a7 7 0 0 1-.288-.093l-.184.183a1.5 1.5 0 0 1-.23-.344 3.3 3.3 0 0 1-.477-.254 1.87 1.87 0 0 1-.903-1.64 1.97 1.97 0 0 1 .39-1.25l-.961-.962a4.75 4.75 0 0 1 2.575-1.266q.002-.14-.006-.272a5.02 5.02 0 0 0-2.76 1.35l-.163-.16a5 5 0 0 0-.13.252l.103.103a5.01 5.01 0 0 0-1.364 3.355H5.61a6.38 6.38 0 0 1 1.77-4.325l.433.435h.062a.7.7 0 0 0 .246-.072L7.57 6.8a6.5 6.5 0 0 1 .952-.76 2 2 0 0 1 .068-.2 3 3 0 0 1 .208-.28A6.7 6.7 0 0 0 7.38 6.605l-.964-.964a8 8 0 0 1 4.773-2.237l-.012-.06-.039-.207a8.304 8.304 0 0 0 .867 16.562zm1.799-5.73v-.008zm4.02-8.109a8 8 0 0 1 2.22 5.456h-1.37a6.6 6.6 0 0 0-.714-2.913l.012-.024.094.05.023-.073-.238-.427-.29-.4-.342-.28a8 8 0 0 0-.366-.42zm-1.743 1.747.327.014.079.094-.04.139.451.286.09-.011.583.667.238-.084a6.4 6.4 0 0 1 .595 2.604h-1.364a5 5 0 0 0-.127-1.037l.063-.085.084-.427-.064-.46-.164-.528-.381-.557.093.049.046-.047-.306-.207-.02.068.306.437.172.357.12.357.039.238.063.402-.12.009s-.131-.247-.172-.348l.06-.092-.118-.166v-.167l-.084-.105-.103.013a3 3 0 0 0-.119-.203l.074.037.019-.02-.04-.085.09-.05-.04-.05-.133.05.049-.207-.079-.045-.07.165a5 5 0 0 0-.496-.63zM15.81 10.8l.245-.134.25-.038.055-.119.139-.083.054-.12.042-.2a4 4 0 0 1 .055.215l-.132.394v.133l.192-.255a4.6 4.6 0 0 1 .067.714h-1.19l-.027-.104.14-.11.026-.067.061-.045.162-.017.017-.071zm-1.638-.937.12-.029v-.028l-.12-.082.042-.257.146-.147a3 3 0 0 1 .254.33l-.051.158-.134-.095-.101.027.05.094h.05l-.056.14-.038-.056zm.523 4.531-.296-.083-.088.032-.166-.127-.157-.056c.077-.056.152-.12.225-.176l.238.17.185.099.092.091zm-.15-5.263.965-.965a5 5 0 0 1 .595.802L15.986 9l.006.216.357.228a5 5 0 0 1 .226.61l-.063.092-.13.084-.033.2-.09.05-.074.088-.075-.028h-.133l.077-.104.056-.273.088-.055-.249-.256-.194.066-.044.182-.119.132-.127-.105-.045-.112.072-.045.04.074.06-.023-.026-.119h-.085l-.006.05-.056.011-.303-.356-.102-.077.039-.043.09-.031-.083-.033s-.106.023-.119.023l.06.077h-.152a3 3 0 0 0-.304-.393m.491 5.136-.13-.131.1-.13.125-.257-.048-.071.083-.19-.01-.172-.05-.178-.119-.041-.044.1-.071-.02a3.2 3.2 0 0 0 .286-.498l.119-.052.069-.093.033.038.083-.1-.066-.083.06-.017.112.045h.21l.128-.067.334-.088-.063-.11-.022-.135.179.079.066-.04-.033-.138-.215.087-.238-.05-.184-.375h1.044a4.75 4.75 0 0 1-1.318 3.105l-.142-.144.062-.192-.112-.423zm.185 2.662.128-.276-.05-.119.19-.166v-.1l-.162-.102.133-.265.2-.262-.2-.215h-.15l-.093-.151a8 8 0 0 0 .238-.206l.965.965a6.5 6.5 0 0 1-1.2.899zm1.204-1.273.107-.12-.1-.528-.07-.027.043-.09-.228-.07-.044.187-.023.238-.048.044-.416-.416a5.02 5.02 0 0 0 1.397-3.294h1.365a6.37 6.37 0 0 1-1.797 4.26zm.376.375a6.65 6.65 0 0 0 1.877-4.45h1.364a8 8 0 0 1-2.275 5.415zM8.59 14.708a5 5 0 0 1-.284-.319l.042-.345-.144-.33-.036-.518-.161-.315.033-.195-.195-.375-.17-.085.068-.2-.07-.156.07-.18h.187l.066-.108h.319l.049.094-.06.33-.038.055.119.261-.079.043-.054-.07-.024.027.055.155.094.18h.044l.03-.176-.045-.06v-.109l-.014-.226.06-.397-.065-.107h.229a3.4 3.4 0 0 0 .939 2.162zm-.905-2.667-.128.202h-.222l-.018-.013a5 5 0 0 1-.069-.648h.41l-.098.328zm.449-.937.025-.271.162-.094.289.051.044.053a3 3 0 0 0-.044.469h-.327zm1.389 1.02.068-.034.17.134-.077.063.2.134-.004-.143.107-.177.112.119.119.164-.22.045.095.188.144-.076-.014-.06.107-.072.063-.298a1.8 1.8 0 0 0 .313.476l-.964.965a3.12 3.12 0 0 1-.845-1.812l.197.21h.186zm-.993-3.982.964.965a3.4 3.4 0 0 0-.511.737h-.067l-.136.042h-.047l-.144.134.182-.038.164-.042-.029.063-.144.088H8.69l-.212.162-.205-.016-.296.552.058.11-.16.18-.026.237h-.604a4.75 4.75 0 0 1 1.285-3.174M7.283 15.42l.306.18.063.043-.221.221q-.155-.16-.3-.332zm-.306-3.838c0 .132.017.264.031.394l-.167.038-.034.169-.348.443.009.608-.357.119h-.196a6.4 6.4 0 0 1-.304-1.773zM5.63 13.346l-.08-.016-.075-.084-.383-.034.119.16-.357-.066.092-.085-.086-.086-.256.112-.092.169.036.389.295.7.142.221.08.03-.222-.422-.049-.216.05-.052-.03-.12.134.019.206.311.05.02v-.227l.084.049.018.119.217.057.09-.064.031.021v.166l.095.119.12.026.252.427.153.043.048-.2a6.7 6.7 0 0 0 .94 1.214l-.964.964a8 8 0 0 1-2.311-5.428h1.365a6.7 6.7 0 0 0 .288 1.764m.595-7.514.964.964a6.66 6.66 0 0 0-1.85 4.515H3.975a8 8 0 0 1 2.244-5.48zm9.879-.498-.082-.133-.179-.09-.14.106.18.096.191.146zm-.834 3.85v.105l.237-.07.073-.144-.163-.214.087-.131.22.157.04-.032-.043-.031-.05-.095.09-.053-.088-.119-.207.105-.07.13-.04.113.09.153-.033.072zm-9.868 6.12.018-.061-.119-.267-.145-.053zm5.58-5.127c0 .229.14.39.393.53v-.103l-.16-.159.085-.154.069-.019c0-.266-.01-.565-.012-.608h-.012c-.235.131-.363.288-.363.513"/></svg>