<svg xmlns="http://www.w3.org/2000/svg" viewBox="0 0 24 24"><path d="M3.723.666c-.08-.276.08-.47.356-.47h2.283c.16 0 .31.137.356.274l1.675 6.6h.08L11.491.218A.37.37 0 0 1 11.824 0h.356c.172 0 .287.092.333.218l3.018 6.85h.08L17.286.47a.4.4 0 0 1 .356-.275h2.284c.275 0 .424.195.355.47l-3.683 13.082a.37.37 0 0 1-.356.275h-.31a.38.38 0 0 1-.333-.218l-3.568-7.963h-.058l-3.545 7.963a.4.4 0 0 1-.333.218h-.31a.38.38 0 0 1-.356-.275zm8.308 7.917-2.594 5.818a1.7 1.7 0 0 1-.344.448v.004a1.47 1.47 0 0 1-.688.34l1.4 8.687c.091.16.263.16.367 0l1.79-2.72 1.64 2.708c.104.16.265.16.368 0l1.584-8.698a1.5 1.5 0 0 1-.832-.618l-.02-.03a1 1 0 0 1-.066-.12l-.609-1.366h-.003Z"/></svg>