<svg xmlns="http://www.w3.org/2000/svg" viewBox="0 0 24 24"><path d="m7.707 17.486 1.406-.68zl.69 1.384 1.407-.68-.69-1.384Zm-.69-1.384 1.407-.68zl.691 1.384 1.406-.68-.69-1.384Zm-.691-1.384 1.406-.677zl.69 1.385 1.407-.681-.691-1.381Zm-.69-1.384 1.406-.678zl.69 1.384 1.407-.677-.69-1.385Zm-.69-1.381 1.406-.68zl.69 1.383 1.406-.679-.69-1.383Zm-.692-1.384 1.406-.68zl.69 1.384 1.407-.68-.69-1.384Zm6.981 3.494 1.407-.68zl.69 1.384 1.407-.68-.69-1.384zm-.69-1.382 1.406-.68zl.69 1.384 1.407-.68-.691-1.383zm-.691-1.383 1.406-.68zl.69 1.383 1.407-.68-.69-1.384Zm-.69-1.382 1.406-.68zl.691 1.383 1.406-.68-.69-1.383Zm-.691-1.384 1.406-.68zl.69 1.384 1.407-.68-.69-1.383Zm6.98 3.495 1.406-.681-1.406.68.69 1.384 1.407-.68-.69-1.384zm-.69-1.385 1.406-.68zl.691 1.385 1.406-.681-.69-1.385zm-.691-1.382 1.406-.68zl.69 1.383 1.407-.68-.69-1.383Zm-.69-1.385 1.406-.68zl.69 1.385 1.407-.68-.69-1.384Zm-.691-1.382 1.406-.68zl.69 1.384 1.407-.68-.691-1.385ZM5.66 9.89l1.405-.68zl.69 1.385 1.407-.68-.69-1.384Zm.69 1.385 1.406-.68zl.69 1.383 1.407-.678-.69-1.385zm.69 1.382 1.407-.678zl.691 1.385 1.406-.681-.69-1.383zm.691 1.385 1.406-.681zl.69 1.383 1.407-.679-.69-1.384Zm.69 1.38 1.407-.678zl.69 1.384 1.406-.68-.69-1.384Zm.691 1.385 1.406-.68zl.69 1.384 1.407-.681-.69-1.383zm1.406-.68 1.407-.679-1.407.68.691 1.383 1.406-.678-.69-1.385zm1.407-.679 1.406-.68zl.69 1.385 1.407-.681-.69-1.385zM9.879 7.853l1.406-.681-1.406.68.69 1.384 1.407-.68-.69-1.384Zm.69 1.382 1.407-.68zl.69 1.383 1.407-.68-.691-1.383Zm.69 1.383 1.407-.68zl.69 1.384 1.407-.68-.69-1.383zm.692 1.384 1.406-.681-1.406.68.69 1.384 1.407-.679-.69-1.384zm.69 1.382 1.406-.679-1.407.679.691 1.383 1.406-.678-.69-1.384zm.69 1.383 1.406-.678zl.69 1.385 1.407-.679-.69-1.384zm1.406-.678 1.407-.679zl.69 1.384 1.407-.68-.69-1.384zm1.407-.679 1.406-.68zl.69 1.384 1.407-.68-.691-1.384zm1.405-.68 1.406-.68zl.69 1.384 1.407-.681-.69-1.383zm-.69-1.384 1.407-.68zl.69 1.384 1.407-.68-.69-1.384zm-.69-1.385 1.406-.677zl.69 1.385 1.407-.68-.691-1.383Zm-.69-1.38 1.405-.68-1.406.68.69 1.383 1.407-.679-.69-1.383Zm-.691-1.385 1.406-.678zl.69 1.384 1.406-.678-.69-1.384Zm-.691-1.384 1.406-.677zl.69 1.385 1.407-.678-.69-1.384Zm7.25 5.263q0-1.748-.132-3.017-.133-1.27-.498-1.988-.464-1.405-2.088-1.785-1.293-.344-5.003-.342h-3.182q-3.71 0-5.036.342-1.59.378-2.154 1.785-.63 1.508-.629 5.005v1.887q0 3.498.63 5.006.596 1.373 2.186 1.75 1.292.343 5.003.342h3.182q3.677 0 4.97-.342 1.624-.376 2.121-1.75.365-.72.498-1.987a30 30 0 0 0 .133-3.02zm2.456 5.628q-.2 1.612-.663 2.676a5.6 5.6 0 0 1-1.326 1.765 5.2 5.2 0 0 1-1.955 1.081v.034q-.963.309-2.487.48-1.525.172-3.713.172h-3.215q-5.04 0-6.995-.96-2.188-.996-2.952-3.672-.264-.995-.381-2.78Q0 13.716 0 11.074 0 8.914.182 7.3q.183-1.613.646-2.642a5.7 5.7 0 0 1 1.31-1.766q.813-.739 2.005-1.15h.033q1.857-.652 6.266-.653h3.215q4.84 0 6.962.996a4.9 4.9 0 0 1 1.807 1.407q.745.925 1.11 2.297.2.961.332 2.744T24 12.96q.001 2.13-.197 3.743"/></svg>