<svg xmlns="http://www.w3.org/2000/svg" viewBox="0 0 24 24"><path d="M.121 5.727a.1.1 0 0 0-.034.002L.07 5.73l-.014.007a.1.1 0 0 0-.048.053.1.1 0 0 0-.007.067c.008.037.023.056.04.076q.047.058.142.128.192.148.597.38c.54.306 1.36.712 2.428 1.152 1.053.433 2.318 1.205 3.286 1.911.484.353.894.69 1.165.958.136.133.237.25.293.337a.4.4 0 0 1 .05.1l.002.018c-.7.987-1.113 2.187-.83 4.196.006.038-.03.127-.12.235-.088.108-.216.233-.346.365-.129.133-.26.273-.357.42s-.163.305-.138.471v.001c.013.074.062.14.125.169a.36.36 0 0 0 .2.018c.137-.018.294-.079.453-.145.158-.066.316-.139.437-.183a1 1 0 0 1 .131-.038c0 .021.003.031-.003.065-.01.061-.03.139-.054.225-.048.173-.119.382-.184.588a4 4 0 0 0-.15.57.7.7 0 0 0-.008.222c.01.067.049.141.122.168l.003.001.003.001c.05.015.083.001.116-.012a1 1 0 0 0 .104-.054q.113-.07.266-.191c.202-.16.451-.375.697-.592s.487-.433.673-.594c.093-.08.172-.146.23-.189l.062-.044c1.497.446 3.202.502 4.549.441a21 21 0 0 0 1.687-.144 15 15 0 0 0 .643-.097l.033-.007.087.04.318.144c.265.12.622.28.987.436s.738.307 1.038.41q.226.079.387.114.079.016.143.02a.2.2 0 0 0 .127-.029l.01-.006.007-.008c.176-.19.183-.426.1-.633-.084-.207-.246-.402-.413-.586-.167-.185-.342-.358-.45-.5a.6.6 0 0 1-.104-.178c-.012-.039-.007-.053.005-.07a.2.2 0 0 1 .05 0c.06.005.147.023.25.05.204.054.473.144.741.232.269.089.537.176.75.226q.16.038.276.042.059.002.112-.015a.16.16 0 0 0 .096-.088v-.002l.002-.003c.05-.151-.006-.313-.095-.476-.09-.162-.22-.33-.36-.492-.14-.163-.287-.318-.41-.45a3 3 0 0 1-.249-.292.67.67 0 0 1-.083-.398.54.54 0 0 1 .248-.394 3 3 0 0 1 .268-.14l.51-.24c.4-.187.898-.425 1.381-.69s.95-.557 1.294-.859c.342-.301.575-.619.529-.948-.072-.535-.425-.943-.897-1.25-.471-.305-1.065-.517-1.65-.67a16 16 0 0 0-1.595-.318c-.217-.033-.399-.06-.525-.083a2 2 0 0 1-.144-.032l-.001-.087c0-.083.002-.198 0-.331a6 6 0 0 0-.075-.942c-.056-.33-.15-.646-.331-.86s-.47-.304-.821-.165c-.232.087-.363.288-.418.519-.055.23-.045.497-.01.76.037.26.1.518.156.724.057.206.11.37.119.411.006.027.005.018-.005.026a.2.2 0 0 1-.084.025.4.4 0 0 1-.126-.01c-.037-.01-.062-.03-.057-.023a1 1 0 0 1-.07-.129l-.113-.255a9 9 0 0 0-.32-.67c-.125-.228-.265-.443-.428-.587a.65.65 0 0 0-.27-.15.44.44 0 0 0-.306.036h-.002l-.001.002a.9.9 0 0 0-.45.607c-.055.241-.037.502.004.743.04.242.105.466.145.629.02.081.035.148.038.187.002.012 0 .014 0 .018-.182.114-.274.294-.345.479-.075.194-.137.397-.264.573v.001c-.039.055-.12.105-.247.138a2 2 0 0 1-.49.049c-.392 0-.892-.059-1.413-.142-1.042-.165-2.161-.422-2.733-.457-.43-.025-.837.136-1.146.288-.154.076-.284.15-.376.198a1 1 0 0 1-.096.044c-.997-.993-3.013-2.688-5.25-3.26-.613-.167-1.387-.495-2.015-.78-.314-.142-.591-.274-.796-.37l-.248-.113-.077-.032-.03-.01zm22.7 1.835-.019.005c-.02.009-.025.019-.031.027a.2.2 0 0 0-.026.053 2 2 0 0 0-.052.176 8 8 0 0 0-.188 1.14 1.3 1.3 0 0 0 0 .213.3.3 0 0 0 .016.077.1.1 0 0 0 .047.059.1.1 0 0 0 .044.013.1.1 0 0 0 .043-.018.15.15 0 0 0 .042-.057 1 1 0 0 0 .06-.175c.038-.147.074-.35.103-.557s.05-.421.057-.59a2 2 0 0 0-.002-.214.4.4 0 0 0-.013-.076.1.1 0 0 0-.036-.059q-.008-.01-.024-.015a.1.1 0 0 0-.022-.002zm1.11.212a.1.1 0 0 0-.042.007.2.2 0 0 0-.065.043 1 1 0 0 0-.144.157 5 5 0 0 0-.35.517 4 4 0 0 0-.287.569 1 1 0 0 0-.061.225c-.007.064 0 .129.05.167.03.021.068.015.09.004a.2.2 0 0 0 .06-.048q.058-.06.129-.168a7 7 0 0 0 .31-.54 10 10 0 0 0 .276-.568 3 3 0 0 0 .08-.2 1 1 0 0 0 .02-.067l.003-.03c0-.011 0-.028-.02-.048l-.001-.002-.002-.002a.1.1 0 0 0-.046-.016M19.57 9.629c.182 0 .335.17.335.388 0 .217-.153.387-.335.387s-.334-.17-.334-.387c0-.218.152-.388.334-.388m-.882.34c.079.29.178.512.35.647.163.128.396.173.69.181-.181.13-.346.191-.481.175-.168-.02-.31-.124-.414-.268s-.17-.326-.187-.483a.44.44 0 0 1 .042-.252m2.09 1.78c.054-.004.083.006.091.014l.009.008.01.004c.008.002.004 0 .006.002a.4.4 0 0 1-.112.093 4 4 0 0 1-.58.278 8 8 0 0 1-.657.235c-.059.017-.098.026-.142.037.029-.022.05-.04.089-.065a6 6 0 0 1 .52-.306 4 4 0 0 1 .56-.251 1 1 0 0 1 .206-.049m.241.471a.1.1 0 0 1 .025.003c.026.03.04.058.035.096a.36.36 0 0 1-.071.154 2 2 0 0 1-.399.367c-.163.119-.337.226-.47.302-.048.028-.082.046-.116.064.015-.03.029-.058.056-.099.078-.116.2-.266.332-.409a3 3 0 0 1 .4-.37.8.8 0 0 1 .163-.096.2.2 0 0 1 .045-.012"/></svg>