<svg xmlns="http://www.w3.org/2000/svg" viewBox="0 0 24 24"><path d="M12 0A12 12 0 0 0 0 12a12 12 0 0 0 12 12 12 12 0 0 0 12-12A12 12 0 0 0 12 0m3.914 4.474c.385-.044.145 1.606.053 2.598-.081.868-.127 1.154-.289 2.112-.05.3-.2.687-.669.631-.392-.05-.455-.696-.442-.995.022-.514.303-1.767.393-2.217.116-.578.47-1.957.914-2.12a.2.2 0 0 1 .04-.01m3.226.709c.55.02-.415 1.75-.809 2.664-.276.642-.474 1.156-.832 2.004-.119.282-.484.686-.906.477-.354-.175-.233-.692.024-1.29a16 16 0 0 1 1.062-2.086c.303-.506.934-1.698 1.404-1.766a.3.3 0 0 1 .058-.003zm-9.284.47c.312.022.572.16.75.375.77.932.608 2.532.675 3.748 1.2.065 2.19.21 3.469.584.974.285 2.323.762 3.112 1.275.787.51 1.377 1.172 1.5 2.062.077.552-.343 1.106-.919 1.612-.575.505-1.326.98-2.137 1.426s-1.653.849-2.325 1.162c-1.466.684-3.016 1.35-4.917 1.542-5.155.52-4.592-4.158-4.392-5.704.155-1.205.8-2.942.907-3.259a10 10 0 0 1-.335-1.298c-.073-.404-.113-.87-.02-1.275.092-.398.36-.842.803-1.027.352-.147.61-.089.938.209.27.245.497.608.716.987.317.55.446 1.119.718 1.676.052.108.324.157.482.111.037-.01.077-.103.056-.175-.348-1.191-.597-2.176-.424-3.037.161-.799.842-.974 1.343-.994"/></svg>