<svg xmlns="http://www.w3.org/2000/svg" viewBox="0 0 24 24"><path d="m7.689 15.142-3.672.848c-.377.087-.755.183-1.145.155-.261-.019-.512-.042-.76-.213a1.2 1.2 0 0 1-.332-.36c-.348-.551-.365-1.366-.37-2a6.3 6.3 0 0 1 .332-2.064 2 2 0 0 1 .107-.248 2 2 0 0 1 .126-.216 3 3 0 0 1 .156-.198 1.2 1.2 0 0 1 .399-.283 1.1 1.1 0 0 1 .46-.083c.235.001.513.052.91.173.055.02.123.038.185.057.328.101.705.24 1.15.399q1.027.36 2.046.74l1.212.442q.333.12.64.297c.175.098.328.23.452.387a1.2 1.2 0 0 1 .192.43 1.22 1.22 0 0 1-.872 1.453q-.072.022-.108.03l-1.105.255zM18.82 7.565a2 2 0 0 0-.204-.175 2 2 0 0 0-.208-.14 2 2 0 0 0-.227-.109 1.2 1.2 0 0 0-.482-.08 1.1 1.1 0 0 0-.45.127c-.21.105-.439.273-.742.555-.042.042-.095.089-.142.133-.25.235-.528.525-.86.863a115 115 0 0 0-1.516 1.563l-.897.93a4 4 0 0 0-.446.548 1.5 1.5 0 0 0-.237.545 1.2 1.2 0 0 0 .011.452l.005.02a1.22 1.22 0 0 0 1.418.923 1 1 0 0 0 .11-.021l4.779-1.104c.376-.087.758-.167 1.097-.363.227-.132.443-.262.59-.525a1.2 1.2 0 0 0 .141-.469c.073-.65-.267-1.39-.54-1.963a6.3 6.3 0 0 0-1.2-1.71M8.97.075a9 9 0 0 0-.83.157q-.415.097-.815.223c-.868.285-2.089.807-2.295 1.807-.117.565.16 1.144.373 1.66.26.625.614 1.189.938 1.778.854 1.554 1.724 3.099 2.592 4.645.259.462.542 1.047 1.043 1.286a1 1 0 0 0 .101.038c.225.085.47.102.704.047l.042-.01a1.2 1.2 0 0 0 .566-.34 1 1 0 0 0 .079-.081c.346-.435.345-1.084.376-1.614.104-1.77.214-3.542.301-5.314.033-.671.106-1.333.066-2.01-.033-.557-.037-1.198-.39-1.656-.621-.807-1.947-.74-2.852-.616m2.083 15.95a1.105 1.105 0 0 0-1.23-.414 1 1 0 0 0-.153.064 1.5 1.5 0 0 0-.217.135c-.2.148-.367.34-.52.532-.038.049-.074.114-.12.156l-.768 1.057a114 114 0 0 0-1.291 1.79c-.278.389-.519.718-.709 1.009-.036.054-.073.116-.107.164-.228.352-.357.61-.423.838a1.1 1.1 0 0 0-.046.472c.021.166.077.325.163.467q.069.108.15.207a2 2 0 0 0 .174.183 2 2 0 0 0 .211.173c.53.37 1.111.634 1.722.84a6 6 0 0 0 1.572.3q.136.006.273-.006a2 2 0 0 0 .25-.035 2 2 0 0 0 .245-.071 1.2 1.2 0 0 0 .418-.266c.112-.113.199-.25.254-.4.089-.22.147-.502.185-.92.004-.059.012-.13.018-.195.03-.346.044-.753.067-1.231q.056-1.103.09-2.203l.05-1.306c.01-.3.001-.634-.082-.934a1.4 1.4 0 0 0-.176-.405m8.676 2.045c-.16-.176-.388-.352-.746-.568l-.169-.101c-.298-.18-.658-.369-1.078-.597a121 121 0 0 0-1.943-1.042l-1.151-.61c-.06-.018-.12-.061-.177-.088a2.9 2.9 0 0 0-.699-.25 1.5 1.5 0 0 0-.254-.027 1 1 0 0 0-.165.01 1.11 1.11 0 0 0-.923.914 1.4 1.4 0 0 0 .016.439c.056.306.193.61.335.875l.615 1.152q.512.975 1.043 1.94c.23.421.42.78.598 1.079.034.056.072.116.101.168.218.358.392.584.57.746.114.11.251.195.402.247.158.052.326.07.492.054a2 2 0 0 0 .25-.043q.124-.033.242-.078a2 2 0 0 0 .247-.115 6 6 0 0 0 1.282-.96c.46-.452.866-.945 1.182-1.51q.066-.12.114-.248a3 3 0 0 0 .077-.24 3 3 0 0 0 .043-.252 1.2 1.2 0 0 0-.056-.491 1.1 1.1 0 0 0-.248-.404m2.86 3.742a.85.85 0 0 1-.111.423.85.85 0 0 1-.312.318.84.84 0 0 1-.438.119.85.85 0 0 1-.438-.118.85.85 0 0 1-.312-.317.86.86 0 0 1-.111-.425q0-.23.114-.43a.84.84 0 0 1 .315-.316.85.85 0 0 1 .432-.115.85.85 0 0 1 .43.114.84.84 0 0 1 .315.315.85.85 0 0 1 .116.432m-.12 0q0-.2-.1-.37a.6.6 0 0 0-.27-.27.7.7 0 0 0-.371-.1.7.7 0 0 0-.37.099.75.75 0 0 0-.271.27.7.7 0 0 0-.1.37q0 .199.1.372a.74.74 0 0 0 .27.271.74.74 0 0 0 .37.099.7.7 0 0 0 .37-.1.74.74 0 0 0 .27-.27.7.7 0 0 0 .102-.371m-.577.058.272.452h-.192l-.237-.405h-.155v.405h-.17v-1.02h.3q.19 0 .278.075.09.075.089.227a.3.3 0 0 1-.05.162.3.3 0 0 1-.135.104m-.042-.14a.15.15 0 0 0 .056-.122q0-.086-.049-.122-.05-.039-.156-.038h-.12v.328h.123q.091 0 .146-.047z"/></svg>