<svg xmlns="http://www.w3.org/2000/svg" viewBox="0 0 24 24"><path d="M17.88 0c-.844.545-1.806 1.509-2.363 2.34-1.168 1.743-1.44 2.995-.8 4.863.216.634.576 1.293.836 1.873 1.022 2.278 2.062 4.328 1.81 7.285 2.16-2.761 3.015-3.886 3.926-6.57 1.251-3.688-.007-7.659-3.41-9.791M5.643 4.656a9.3 9.3 0 0 0-3.382.659c-.21 2.657 1.021 7.23 5.516 8.506 1.818.559 3.272.413 5.056.898-.576 1.017-1.41 1.989-1.908 2.974-.494.976-.585 1.943-.54 3.043.047 1.105.302 2.19.548 3.264.924-.2 1.728-.54 2.424-.977 1.832-1.148 2.939-2.985 3.253-4.963l.015-.125v.017l.006-.061.001-.01.014-.16c.01-.123.022-.247.03-.356l.005-.08c.009-.117.017-.233.023-.336l.002-.034v-.002l.001-.032.015-.34q.005-.16.005-.298v-.018a9 9 0 0 0-.014-.508c-.009-.158-.02-.305-.032-.46a11 11 0 0 0-.529-2.662 12 12 0 0 0-.178-.503c-.18-.471-.355-.85-.48-1.145a7 7 0 0 0-.275-.568 10 10 0 0 0-.143-.258 9 9 0 0 0-.435-.693l-.123-.183c-2.025-2.844-5.446-4.62-8.875-4.59"/></svg>