<svg xmlns="http://www.w3.org/2000/svg" viewBox="0 0 24 24"><path d="M15.467.438q-.144-.016-.2.12-.87 2.096-3.067 3.157-1.03.5-1.916.67-1.574.304-2.762.631C3.442 6.135.197 9.2.01 13.59q-.138 3.23 1.657 5.85c2.826 4.127 8.452 5.384 12.722 2.732q3.421-2.126 4.359-6.186a.146.148 84 0 1 .084-.103c.282-.128.582-.226.857-.368q3.122-1.608 4.301-4.96a.181.183 13.8 0 0-.144-.24.25.25 0 0 0-.127.011q-1.406.49-2.909.666a.03.03 0 0 1-.028-.047q2.968-4.024 2.799-9.112-.004-.15-.148-.188a.175.17 28.9 0 0-.174.048q-3.21 3.437-7.715 4.185-.116.018-.063-.086c.805-1.595.766-3.625.145-5.23a.2.2 0 0 0-.158-.123zm-2.151 13.195q.146-.02.053.209a6.6 6.6 0 0 1-1.258 2.003q-1.319 1.445-3.265 1.139a2.95 2.95 0 0 1-1.856-1.111.09.09 0 0 1 .001-.109.15.15 0 0 1 .109-.058c2.184-.205 4.073-1.122 6.092-2.033a.5.5 0 0 1 .124-.04m-12.231.618q.06.006.182.11c.739.624 1.679 1.212 2.644 1.296a.12.12 0 0 1 .095.171c-.556 1.113-1.661.87-2.283.025a4.2 4.2 0 0 1-.665-1.358q-.073-.255.027-.244"/></svg>