<svg xmlns="http://www.w3.org/2000/svg" viewBox="0 0 24 24"><path d="M23.827 11.163a2.2 2.2 0 0 0-.467-.687 2.15 2.15 0 0 0-1.524-.627 2.1 2.1 0 0 0-1.207.365 2.3 2.3 0 0 0-.495.454c-.06.075-.125.175-.163.236a2.7 2.7 0 0 0-.205.464c.006-.27.046-.672.205-.898V8.522a.43.43 0 0 0-.137-.322.44.44 0 0 0-.317-.132.44.44 0 0 0-.323.132.44.44 0 0 0-.13.322v1.733a2.4 2.4 0 0 0-.592-.299 2.12 2.12 0 0 0-1.5.06 2.16 2.16 0 0 0-1.153 1.147l-.024.06a2.2 2.2 0 0 0-.49-.747 2.15 2.15 0 0 0-1.524-.627 2.1 2.1 0 0 0-.843.167 2.2 2.2 0 0 0-.687.46 2.1 2.1 0 0 0-.465.687l-.023.056-.023-.056a2.155 2.155 0 0 0-1.99-1.314q-.452 0-.842.167a2.2 2.2 0 0 0-.686.46q-.3.293-.467.687l-.02.053-.022-.053a2.2 2.2 0 0 0-.467-.687 2.15 2.15 0 0 0-1.523-.627 2.1 2.1 0 0 0-.842.167 2.2 2.2 0 0 0-.642.418v-.072a.463.463 0 0 0-.462-.463H.534a.463.463 0 0 0 0 .926h2.549L.09 14.85a.46.46 0 0 0-.091.275v.302c0 .256.207.463.463.463h3.45a.46.46 0 0 0 .462-.43 2.17 2.17 0 0 0 1.347.472q.669 0 1.195-.36.425-.287.67-.72v.626q0 .191.13.322a.44.44 0 0 0 .324.132q.179 0 .316-.132a.43.43 0 0 0 .138-.322v-1.62h-.002l.002-.003H7.36a.44.44 0 0 0-.418.287l-.074.152a1.23 1.23 0 0 1-.46.532 1.23 1.23 0 0 1-.687.197q-.252 0-.485-.095a1.2 1.2 0 0 1-.4-.27 1.4 1.4 0 0 1-.27-.4 1.2 1.2 0 0 1-.1-.477v-.406h4.028V12a1.24 1.24 0 0 1 .365-.878 1.24 1.24 0 0 1 .89-.365q.251 0 .484.095.233.097.4.27t.269.4.102.478v3.477q0 .192.13.323a.44.44 0 0 0 .324.132q.179 0 .316-.132a.43.43 0 0 0 .137-.323v-.623a2.14 2.14 0 0 0 1.867 1.078q.442 0 .837-.168.393-.166.693-.46a2.1 2.1 0 0 0 .484-.733l.018.047q.167.392.466.687.3.292.687.46.388.166.843.167a2.15 2.15 0 0 0 1.523-.627q.293-.294.467-.687l.024-.06.024.06q.172.392.466.687a2.14 2.14 0 0 0 1.524.627q.442 0 .837-.168a2.2 2.2 0 0 0 .693-.46A2.12 2.12 0 0 0 24 13.782V12a2.1 2.1 0 0 0-.173-.837M1.16 14.965l2.42-3.259q-.019.144-.02.294v1.78q0 .443.174.838.081.185.19.347zm5.818-2.5h-2.51V12a1.24 1.24 0 0 1 .765-1.147q.228-.096.49-.096.253 0 .484.095.235.097.4.27.167.173.27.4.101.227.1.478zm8.057 1.316a1.25 1.25 0 0 1-1.254 1.243q-.252 0-.485-.096a1.2 1.2 0 0 1-.4-.27 1.4 1.4 0 0 1-.269-.4 1.2 1.2 0 0 1-.1-.477V12a1.24 1.24 0 0 1 1.255-1.243q.25 0 .482.095.235.097.4.27.167.173.27.4.1.228.101.478zm4.028 0q0 .25-.1.478a1.4 1.4 0 0 1-.27.4 1.2 1.2 0 0 1-.4.27 1.3 1.3 0 0 1-.484.094 1.23 1.23 0 0 1-.89-.364 1.24 1.24 0 0 1-.366-.878V12q0-.25.102-.478a1.4 1.4 0 0 1 .27-.4 1.2 1.2 0 0 1 .4-.27 1.3 1.3 0 0 1 .484-.095 1.25 1.25 0 0 1 .89.365 1.25 1.25 0 0 1 .364.878zm4.028 0a1.22 1.22 0 0 1-.364.878q-.175.173-.4.27a1.3 1.3 0 0 1-.49.094 1.3 1.3 0 0 1-.485-.095 1.2 1.2 0 0 1-.4-.27 1.4 1.4 0 0 1-.27-.4 1.2 1.2 0 0 1-.1-.477V12a1.24 1.24 0 0 1 1.255-1.243q.25 0 .483.095.234.097.4.27.167.173.27.4.1.228.1.478v1.78z"/></svg>