<svg xmlns="http://www.w3.org/2000/svg" viewBox="0 0 24 24"><path d="M3.612.719A3.62 3.62 0 0 0 0 4.331v15.328a3.627 3.627 0 0 0 3.616 3.612h8.242a.5.5 0 0 0 .228-.042.607.607 0 0 0-.232-1.169H3.612a2.393 2.393 0 0 1-2.393-2.4V6.113h21.566v12.839a.13.13 0 0 1-.12.074h-.743a.16.16 0 0 1-.09-.043.13.13 0 0 1-.04-.095v-2.23q-.005-.002-.004-.006v-.007a.602.602 0 1 0-1.202 0v6.032l.004.001v.002a.6.6 0 0 0 1.202 0v.002-2.385a.12.12 0 0 1 .036-.095.13.13 0 0 1 .094-.04h.744a.12.12 0 0 1 .099.036q.015.015.024.035v2.434a.04.04 0 0 0 .002.023.6.6 0 0 0 .14.38.6.6 0 0 0 .46.213h.01a.59.59 0 0 0 .547-.368l.004-.011a1 1 0 0 0 .023-.074.6.6 0 0 0 .025-.162V4.326A3.615 3.615 0 0 0 20.392.715H3.616Zm0 1.215h16.776a2.383 2.383 0 0 1 2.401 2.393V4.9H1.215v-.57a2.39 2.39 0 0 1 2.397-2.396M6.36 7.28a.21.21 0 0 0-.145.076l-3.964 4.72a.213.213 0 1 0 .327.275l3.964-4.72a.213.213 0 0 0-.182-.35Zm-2.94.12c-.632 0-1.151.52-1.151 1.151 0 .632.52 1.152 1.151 1.152.632 0 1.152-.52 1.152-1.152S4.052 7.4 3.42 7.4m0 .667a.48.48 0 0 1 .485.484.48.48 0 0 1-.485.485.48.48 0 0 1-.484-.485.48.48 0 0 1 .484-.484m1.94 1.939c-.632 0-1.152.52-1.152 1.152s.52 1.15 1.152 1.15 1.151-.518 1.151-1.15c0-.633-.52-1.152-1.151-1.152m0 .667a.48.48 0 0 1 .485.485.48.48 0 0 1-.485.484.48.48 0 0 1-.485-.484.48.48 0 0 1 .485-.485m2.658 1.21a.214.214 0 0 0-.081.41q.039.016.081.016h2.831a.3.3 0 0 0 .086-.02.22.22 0 0 0 .131-.198.213.213 0 0 0-.213-.213h-2.83Zm5.77 4.159a.61.61 0 0 0-.61.61v-.004.004a.61.61 0 0 0 .61.61l.028-.002h1.123a.05.05 0 0 1 .04.005.08.08 0 0 1 .04.058.1.1 0 0 1-.006.037l-1.783 4.453a.7.7 0 0 0-.048.249v.55a.65.65 0 0 0 .192.474.67.67 0 0 0 .474.196h2.09a.7.7 0 0 0 .243-.051.62.62 0 0 0 .386-.578v.004-.004a.626.626 0 0 0-.625-.626l-.014.001h-1.406a.05.05 0 0 1-.038-.005.07.07 0 0 1-.038-.056.1.1 0 0 1 .005-.034l2.056-5.127a.555.555 0 0 0-.516-.762h-2.167a.1.1 0 0 0-.033-.006Zm4.915.03c-.286 0-.613.027-.81.082a.95.95 0 0 0-.466.267 1.2 1.2 0 0 0-.247.525q-.075.322-.076.82 0 .477.01.772.011.24.056.479a1 1 0 0 0 .124.294 1.2 1.2 0 0 0 .19.212q.15.131.324.23.19.11.39.212t.38.211q.172.097.315.23.056.061.104.13a.3.3 0 0 1 .053.091.7.7 0 0 1 .042.24q.01.11.01.303a4 4 0 0 1-.029.525.75.75 0 0 1-.076.285.26.26 0 0 1-.152.12 2.3 2.3 0 0 1-.378.028.8.8 0 0 1-.228-.028.3.3 0 0 1-.143-.129 1 1 0 0 1-.076-.276 5 5 0 0 1-.02-.46q0-.025-.002-.05h-.004a.54.54 0 0 0-.176-.311.517.517 0 0 0-.847.315h-.003q.003.022.002.052v.023l.003.284q0 .543.076.883.085.331.267.525a.9.9 0 0 0 .457.248c.22.054.448.078.675.074.305 0 .698-.027.901-.083a.9.9 0 0 0 .486-.313q.19-.23.266-.635.086-.413.086-1.058 0-.47-.029-.755a1.7 1.7 0 0 0-.085-.47.8.8 0 0 0-.181-.294 1.5 1.5 0 0 0-.276-.22 3 3 0 0 0-.286-.157 4 4 0 0 0-.342-.175 8 8 0 0 1-.343-.184 3 3 0 0 1-.276-.193 1 1 0 0 1-.114-.11.4.4 0 0 1-.057-.139 1.5 1.5 0 0 1-.029-.211v-.346a2.6 2.6 0 0 1 .015-.396.6.6 0 0 1 .067-.23.23.23 0 0 1 .143-.101c.057-.019.216-.028.305-.028q.305 0 .38.175.06.112.066.24c.003.066.004.153.004.245h.003q.005-.004.004 0a.51.51 0 0 0 .516.512.516.516 0 0 0 .515-.512v-.004c-.004-.099-.004-.19-.004-.242a3.2 3.2 0 0 0-.067-.709.9.9 0 0 0-.228-.469.87.87 0 0 0-.457-.258 2.7 2.7 0 0 0-.733-.082Z"/></svg>