<svg xmlns="http://www.w3.org/2000/svg" viewBox="0 0 24 24"><path fill-rule="evenodd" d="M2.75 2A1.75 1.75 0 001 3.75v3.5C1 8.216 1.784 9 2.75 9h18.5A1.75 1.75 0 0023 7.25v-3.5A1.75 1.75 0 0021.25 2H2.75zm18.5 1.5H2.75a.25.25 0 00-.25.25v3.5c0 .138.112.25.25.25h18.5a.25.25 0 00.25-.25v-3.5a.25.25 0 00-.25-.25z"/><path d="M2.75 10a.75.75 0 01.75.75v9.5c0 .138.112.25.25.25h16.5a.25.25 0 00.25-.25v-9.5a.75.75 0 011.5 0v9.5A1.75 1.75 0 0120.25 22H3.75A1.75 1.75 0 012 20.25v-9.5a.75.75 0 01.75-.75z"/><path d="M9.75 11.5a.75.75 0 000 1.5h4.5a.75.75 0 000-1.5h-4.5z"/></svg>