<svg xmlns="http://www.w3.org/2000/svg" viewBox="0 0 24 24"><path d="M20.485 2.515a.75.75 0 00-1.06 1.06A10.465 10.465 0 0122.5 11c0 2.9-1.174 5.523-3.075 7.424a.75.75 0 001.06 1.061A11.965 11.965 0 0024 11c0-3.314-1.344-6.315-3.515-8.485zm-15.91 1.06a.75.75 0 00-1.06-1.06A11.965 11.965 0 000 11c0 3.313 1.344 6.314 3.515 8.485a.75.75 0 001.06-1.06A10.465 10.465 0 011.5 11c0-2.9 1.174-5.524 3.075-7.425zM8.11 7.11a.75.75 0 00-1.06-1.06A6.98 6.98 0 005 11a6.98 6.98 0 002.05 4.95.75.75 0 001.06-1.061 5.48 5.48 0 01-1.61-3.89 5.48 5.48 0 011.61-3.888zm8.84-1.06a.75.75 0 10-1.06 1.06A5.48 5.48 0 0117.5 11a5.48 5.48 0 01-1.61 3.889.75.75 0 101.06 1.06A6.98 6.98 0 0019 11a6.98 6.98 0 00-2.05-4.949zM14 11a2 2 0 01-1.25 1.855v8.395a.75.75 0 01-1.5 0v-8.395A2 2 0 1114 11z"/></svg>