<svg xmlns="http://www.w3.org/2000/svg" viewBox="0 0 24 24"><path fill-rule="evenodd" d="M2.78 2.22a.75.75 0 0 0-1.06 1.06l2.64 2.642a7.525 7.525 0 0 0-1.249 4.557A4.9 4.9 0 0 0 0 15.059C0 17.831 2.229 20 5.017 20h12.414a6.879 6.879 0 0 0 .944-.065l2.845 2.845a.75.75 0 1 0 1.06-1.06L2.78 2.22zM16.94 18.5 5.448 7.01a6.03 6.03 0 0 0-.794 3.853.75.75 0 0 1-.552.869c-1.52.385-2.603 1.712-2.603 3.328 0 1.917 1.532 3.44 3.517 3.44H16.94z"/><path d="M10.836 2.5a7.865 7.865 0 0 0-3.638.88.75.75 0 1 0 .692 1.331A6.365 6.365 0 0 1 10.836 4c2.588 0 4.77 1.5 5.72 3.655l.179.445a.75.75 0 0 0 .696.471c2.843 0 5.069 2.206 5.069 4.965a4.9 4.9 0 0 1-1.684 3.716.75.75 0 0 0 .986 1.13A6.396 6.396 0 0 0 24 13.536c0-3.44-2.652-6.191-6.054-6.445l-.002-.006a.634.634 0 0 0-.01-.022C16.749 4.358 14.026 2.5 10.837 2.5z"/></svg>