<svg xmlns="http://www.w3.org/2000/svg" viewBox="0 0 24 24"><path fill-rule="evenodd" d="M3.75 2A1.75 1.75 0 0 0 2 3.75v16.5c0 .966.784 1.75 1.75 1.75h5.5A1.75 1.75 0 0 0 11 20.25V3.75A1.75 1.75 0 0 0 9.25 2h-5.5zM3.5 3.75a.25.25 0 0 1 .25-.25h5.5a.25.25 0 0 1 .25.25v16.5a.25.25 0 0 1-.25.25h-5.5a.25.25 0 0 1-.25-.25V3.75zM14.75 2A1.75 1.75 0 0 0 13 3.75v16.5c0 .966.784 1.75 1.75 1.75h5.5A1.75 1.75 0 0 0 22 20.25V3.75A1.75 1.75 0 0 0 20.25 2h-5.5zm-.25 1.75a.25.25 0 0 1 .25-.25h5.5a.25.25 0 0 1 .25.25v16.5a.25.25 0 0 1-.25.25h-5.5a.25.25 0 0 1-.25-.25V3.75z"/></svg>