<svg xmlns="http://www.w3.org/2000/svg" viewBox="0 0 24 24"><path fill-rule="evenodd" d="M13.152.682a2.25 2.25 0 012.269 0l.007.004 6.957 4.276a2.276 2.276 0 011.126 1.964v7.516c0 .81-.432 1.56-1.133 1.968l-.002.001-11.964 7.037-.004.003a2.276 2.276 0 01-2.284 0l-.026-.015-6.503-4.502a2.268 2.268 0 01-1.096-1.943V9.438c0-.392.1-.77.284-1.1l.003-.006.014-.026a2.28 2.28 0 01.82-.827h.002L13.152.681zm.757 1.295h-.001L2.648 8.616l6.248 4.247a.776.776 0 00.758-.01h.001l11.633-6.804-6.629-4.074a.75.75 0 00-.75.003zM18 9.709l-3.25 1.9v7.548L18 17.245V9.709zm1.5-.878v7.532l2.124-1.25a.777.777 0 00.387-.671V7.363L19.5 8.831zm-9.09 5.316l2.84-1.66v7.552l-3.233 1.902v-7.612c.134-.047.265-.107.391-.18l.002-.002zm-1.893 7.754V14.33a2.277 2.277 0 01-.393-.18l-.023-.014-6.102-4.147v7.003c0 .275.145.528.379.664l.025.014 6.114 4.232z"/></svg>