<svg xmlns="http://www.w3.org/2000/svg" viewBox="0 0 24 24"><path fill-rule="evenodd" d="M4.75 3A1.75 1.75 0 0 0 3 4.75v9.5c0 .966.784 1.75 1.75 1.75h1.5a.75.75 0 0 0 0-1.5h-1.5a.25.25 0 0 1-.25-.25v-9.5a.25.25 0 0 1 .25-.25h9.5a.25.25 0 0 1 .25.25v1.5a.75.75 0 0 0 1.5 0v-1.5A1.75 1.75 0 0 0 14.25 3h-9.5zm5 5A1.75 1.75 0 0 0 8 9.75v9.5c0 .966.784 1.75 1.75 1.75h9.5A1.75 1.75 0 0 0 21 19.25v-9.5A1.75 1.75 0 0 0 19.25 8h-9.5zM9.5 9.75a.25.25 0 0 1 .25-.25h9.5a.25.25 0 0 1 .25.25v9.5a.25.25 0 0 1-.25.25h-9.5a.25.25 0 0 1-.25-.25v-9.5z"/></svg>