<svg xmlns="http://www.w3.org/2000/svg" viewBox="0 0 24 24"><path d="M11.25 9.331V.75a.75.75 0 011.5 0v8.58l1.949-2.11A.75.75 0 1115.8 8.237l-3.25 3.52a.75.75 0 01-1.102 0l-3.25-3.52A.75.75 0 119.3 7.22l1.949 2.111z"/><path fill-rule="evenodd" d="M2.5 3.75a.25.25 0 01.25-.25h5.5a.75.75 0 100-1.5h-5.5A1.75 1.75 0 001 3.75v11.5c0 .966.784 1.75 1.75 1.75h6.204c-.171 1.375-.805 2.652-1.77 3.757A.75.75 0 007.75 22h8.5a.75.75 0 00.565-1.243c-.964-1.105-1.598-2.382-1.769-3.757h6.204A1.75 1.75 0 0023 15.25V3.75A1.75 1.75 0 0021.25 2h-5.5a.75.75 0 000 1.5h5.5a.25.25 0 01.25.25v11.5a.25.25 0 01-.25.25H2.75a.25.25 0 01-.25-.25V3.75zM10.463 17c-.126 1.266-.564 2.445-1.223 3.5h5.52c-.66-1.055-1.098-2.234-1.223-3.5h-3.074z"/></svg>