<svg xmlns="http://www.w3.org/2000/svg" viewBox="0 0 24 24"><path fill-rule="evenodd" d="M3 3a2 2 0 012-2h9.982a2 2 0 011.414.586l4.018 4.018A2 2 0 0121 7.018V21a2 2 0 01-2 2H4.75a.75.75 0 010-1.5H19a.5.5 0 00.5-.5V8.5h-4a2 2 0 01-2-2v-4H5a.5.5 0 00-.5.5v6.25a.75.75 0 01-1.5 0V3zm12-.5v4a.5.5 0 00.5.5h4a.5.5 0 00-.146-.336l-4.018-4.018A.5.5 0 0015 2.5z"/><path d="M4.53 12.24a.75.75 0 01-.039 1.06l-2.639 2.45 2.64 2.45a.75.75 0 11-1.022 1.1l-3.23-3a.75.75 0 010-1.1l3.23-3a.75.75 0 011.06.04zm3.979 1.06a.75.75 0 111.02-1.1l3.231 3a.75.75 0 010 1.1l-3.23 3a.75.75 0 11-1.021-1.1l2.639-2.45-2.64-2.45z"/></svg>