<svg xmlns="http://www.w3.org/2000/svg" viewBox="0 0 24 24"><path fill-rule="evenodd" d="M2.25 4a.25.25 0 0 0-.25.25v15.5c0 .138.112.25.25.25h3.178L14 10.977a1.75 1.75 0 0 1 2.506-.032L22 16.44V4.25a.25.25 0 0 0-.25-.25H2.25zm3.496 17.5H21.75a1.75 1.75 0 0 0 1.75-1.75V4.25a1.75 1.75 0 0 0-1.75-1.75H2.25A1.75 1.75 0 0 0 .5 4.25v15.5c0 .966.784 1.75 1.75 1.75h3.496zM22 19.75v-1.19l-6.555-6.554a.25.25 0 0 0-.358.004L7.497 20H21.75a.25.25 0 0 0 .25-.25zM9 9.25a1.75 1.75 0 1 1-3.5 0 1.75 1.75 0 0 1 3.5 0zm1.5 0a3.25 3.25 0 1 1-6.5 0 3.25 3.25 0 0 1 6.5 0z"/></svg>