<svg xmlns="http://www.w3.org/2000/svg" viewBox="0 0 24 24"><path fill-rule="evenodd" d="M19.75 17.5a1.75 1.75 0 100 3.5 1.75 1.75 0 000-3.5zm-3.25 1.75a3.25 3.25 0 116.5 0 3.25 3.25 0 01-6.5 0z"/><path fill-rule="evenodd" d="M13.905 1.72a.75.75 0 010 1.06L12.685 4h4.065a3.75 3.75 0 013.75 3.75v8.75a.75.75 0 01-1.5 0V7.75a2.25 2.25 0 00-2.25-2.25h-4.064l1.22 1.22a.75.75 0 01-1.061 1.06l-2.5-2.5a.75.75 0 010-1.06l2.5-2.5a.75.75 0 011.06 0zM4.25 6.5a1.75 1.75 0 100-3.5 1.75 1.75 0 000 3.5zM7.5 4.75a3.25 3.25 0 11-6.5 0 3.25 3.25 0 016.5 0z"/><path fill-rule="evenodd" d="M10.095 22.28a.75.75 0 010-1.06l1.22-1.22H7.25a3.75 3.75 0 01-3.75-3.75V7.5a.75.75 0 011.5 0v8.75a2.25 2.25 0 002.25 2.25h4.064l-1.22-1.22a.75.75 0 111.061-1.06l2.5 2.5a.75.75 0 010 1.06l-2.5 2.5a.75.75 0 01-1.06 0z"/></svg>