<svg xmlns="http://www.w3.org/2000/svg" viewBox="0 0 24 24"><path d="M15 13.25a3.25 3.25 0 1 1 6.5 0 3.25 3.25 0 0 1-6.5 0zm-12.5 6a3.25 3.25 0 1 1 6.5 0 3.25 3.25 0 0 1-6.5 0zm0-14.5a3.25 3.25 0 1 1 6.5 0 3.25 3.25 0 0 1-6.5 0zM5.75 6.5a1.75 1.75 0 1 0-.001-3.501A1.75 1.75 0 0 0 5.75 6.5zm0 14.5a1.75 1.75 0 1 0-.001-3.501A1.75 1.75 0 0 0 5.75 21zm12.5-6a1.75 1.75 0 1 0-.001-3.501A1.75 1.75 0 0 0 18.25 15z"/><path d="M6.5 7.25c0 2.9 2.35 5.25 5.25 5.25h4.5V14h-4.5A6.75 6.75 0 0 1 5 7.25z"/><path d="M5.75 16.75A.75.75 0 0 1 5 16V8a.75.75 0 0 1 1.5 0v8a.75.75 0 0 1-.75.75z"/></svg>