<svg xmlns="http://www.w3.org/2000/svg" viewBox="0 0 24 24"><path fill-rule="evenodd" d="M4.75 3a1.75 1.75 0 1 0 0 3.5 1.75 1.75 0 0 0 0-3.5zM1.5 4.75a3.25 3.25 0 1 1 6.5 0 3.25 3.25 0 0 1-6.5 0zM4.75 17.5a1.75 1.75 0 1 0 0 3.5 1.75 1.75 0 0 0 0-3.5zM1.5 19.25a3.25 3.25 0 1 1 6.5 0 3.25 3.25 0 0 1-6.5 0zm17.75-1.75a1.75 1.75 0 1 0 0 3.5 1.75 1.75 0 0 0 0-3.5zM16 19.25a3.25 3.25 0 1 1 6.5 0 3.25 3.25 0 0 1-6.5 0z"/><path fill-rule="evenodd" d="M4.75 7.25A.75.75 0 0 1 5.5 8v8A.75.75 0 0 1 4 16V8a.75.75 0 0 1 .75-.75zm8.655-5.53a.75.75 0 0 1 0 1.06L12.185 4h4.065A3.75 3.75 0 0 1 20 7.75v8.75a.75.75 0 0 1-1.5 0V7.75a2.25 2.25 0 0 0-2.25-2.25h-4.064l1.22 1.22a.75.75 0 0 1-1.061 1.06l-2.5-2.5a.75.75 0 0 1 0-1.06l2.5-2.5a.75.75 0 0 1 1.06 0z"/></svg>