<svg xmlns="http://www.w3.org/2000/svg" viewBox="0 0 24 24"><path fill-rule="evenodd" d="M5.75 21a1.75 1.75 0 1 1 0-3.5 1.75 1.75 0 0 1 0 3.5zM2.5 19.25a3.25 3.25 0 1 0 6.5 0 3.25 3.25 0 0 0-6.5 0zM5.75 6.5a1.75 1.75 0 1 1 0-3.5 1.75 1.75 0 0 1 0 3.5zM2.5 4.75a3.25 3.25 0 1 0 6.5 0 3.25 3.25 0 0 0-6.5 0zM18.25 15a1.75 1.75 0 1 1 0-3.5 1.75 1.75 0 0 1 0 3.5zM15 13.25a3.25 3.25 0 1 0 6.5 0 3.25 3.25 0 0 0-6.5 0z"/><path fill-rule="evenodd" d="M6.5 7.25c0 2.9 2.35 5.25 5.25 5.25h4.5V14h-4.5A6.75 6.75 0 0 1 5 7.25h1.5z"/><path fill-rule="evenodd" d="M5.75 16.75A.75.75 0 0 0 6.5 16V8A.75.75 0 0 0 5 8v8c0 .414.336.75.75.75z"/></svg>