<svg xmlns="http://www.w3.org/2000/svg" viewBox="0 0 24 24"><path fill-rule="evenodd" d="M12 1C5.925 1 1 5.925 1 12s4.925 11 11 11 11-4.925 11-11S18.075 1 12 1zM2.513 11.5h4.745c.1-3.037 1.1-5.49 2.093-7.204.39-.672.78-1.233 1.119-1.673C6.11 3.329 2.746 7 2.513 11.5zm4.77 1.5H2.552a9.505 9.505 0 007.918 8.377 15.698 15.698 0 01-1.119-1.673C8.413 18.085 7.47 15.807 7.283 13zm1.504 0h6.426c-.183 2.48-1.02 4.5-1.862 5.951-.476.82-.95 1.455-1.304 1.88L12 20.89l-.047-.057a13.888 13.888 0 01-1.304-1.88C9.807 17.5 8.969 15.478 8.787 13zm6.454-1.5H8.759c.1-2.708.992-4.904 1.89-6.451.476-.82.95-1.455 1.304-1.88L12 3.11l.047.057c.353.426.828 1.06 1.304 1.88.898 1.548 1.79 3.744 1.89 6.452zm1.476 1.5c-.186 2.807-1.13 5.085-2.068 6.704-.39.672-.78 1.233-1.118 1.673A9.505 9.505 0 0021.447 13h-4.731zm4.77-1.5h-4.745c-.1-3.037-1.1-5.49-2.093-7.204-.39-.672-.78-1.233-1.119-1.673 4.36.706 7.724 4.377 7.957 8.877z"/></svg>