<svg xmlns="http://www.w3.org/2000/svg" viewBox="0 0 24 24"><path fill-rule="evenodd" d="M19.25 4.5H4.75a.25.25 0 0 0-.25.25v14.5c0 .138.112.25.25.25h.19l9.823-9.823a1.75 1.75 0 0 1 2.475 0l2.262 2.262V4.75a.25.25 0 0 0-.25-.25zm.25 9.56-3.323-3.323a.25.25 0 0 0-.354 0L7.061 19.5H19.25a.25.25 0 0 0 .25-.25v-5.19zM4.75 3A1.75 1.75 0 0 0 3 4.75v14.5c0 .966.784 1.75 1.75 1.75h14.5A1.75 1.75 0 0 0 21 19.25V4.75A1.75 1.75 0 0 0 19.25 3H4.75zM8.5 9.5a1 1 0 1 0 0-2 1 1 0 0 0 0 2zm0 1.5a2.5 2.5 0 1 0 0-5 2.5 2.5 0 0 0 0 5z"/></svg>