<svg xmlns="http://www.w3.org/2000/svg" viewBox="0 0 24 24"><path fill-rule="evenodd" d="M4.801 3.57A1.75 1.75 0 016.414 2.5h11.174c.702 0 1.337.42 1.611 1.067l3.741 8.828c.04.092.06.192.06.293v7.562A1.75 1.75 0 0121.25 22H2.75A1.75 1.75 0 011 20.25v-7.5c0-.1.02-.199.059-.291L4.8 3.571zM6.414 4a.25.25 0 00-.23.153L2.88 12H8a.75.75 0 01.648.372L10.18 15h3.638l1.533-2.628a.75.75 0 01.64-.372l5.13-.051-3.304-7.797a.25.25 0 00-.23-.152H6.414zM21.5 13.445l-5.067.05-1.535 2.633a.75.75 0 01-.648.372h-4.5a.75.75 0 01-.648-.372L7.57 13.5H2.5v6.75c0 .138.112.25.25.25h18.5a.25.25 0 00.25-.25v-6.805z"/></svg>