<svg xmlns="http://www.w3.org/2000/svg" viewBox="0 0 24 24"><path d="M2.5 12c0-5.24 4.288-9.5 9.593-9.5a9.608 9.608 0 0 1 7.197 3.219.75.75 0 0 0 1.12-.998A11.108 11.108 0 0 0 12.093 1C5.973 1 1 5.919 1 12s4.973 11 11.093 11c5.403 0 9.91-3.832 10.893-8.915a.75.75 0 1 0-1.472-.285c-.848 4.381-4.74 7.7-9.421 7.7C6.788 21.5 2.5 17.24 2.5 12z"/><path d="M12 17a1 1 0 1 0 0-2 1 1 0 0 0 0 2zm0-10a.75.75 0 0 1 .75.75v4.5a.75.75 0 0 1-1.5 0v-4.5A.75.75 0 0 1 12 7zm11.28.78a.75.75 0 0 0-1.06-1.06l-3.47 3.47-1.47-1.47a.75.75 0 1 0-1.06 1.06l2 2a.75.75 0 0 0 1.06 0l4-4z"/></svg>