<svg xmlns="http://www.w3.org/2000/svg" viewBox="0 0 24 24"><path fill-rule="evenodd" d="M10.157 1.154a11.07 11.07 0 0 1 3.686 0 .75.75 0 0 1-.25 1.479 9.568 9.568 0 0 0-3.186 0 .75.75 0 0 1-.25-1.48zM6.68 3.205a.75.75 0 0 1-.177 1.046A9.558 9.558 0 0 0 4.25 6.503a.75.75 0 0 1-1.223-.87 11.058 11.058 0 0 1 2.606-2.605.75.75 0 0 1 1.046.177zm10.64 0a.75.75 0 0 1 1.046-.177 11.058 11.058 0 0 1 2.605 2.606.75.75 0 1 1-1.222.869 9.558 9.558 0 0 0-2.252-2.252.75.75 0 0 1-.177-1.046zM2.018 9.543a.75.75 0 0 1 .615.864 9.568 9.568 0 0 0 0 3.186.75.75 0 0 1-1.48.25 11.07 11.07 0 0 1 0-3.686.75.75 0 0 1 .865-.614zm19.964 0a.75.75 0 0 1 .864.614 11.066 11.066 0 0 1 0 3.686.75.75 0 0 1-1.479-.25 9.56 9.56 0 0 0 0-3.186.75.75 0 0 1 .615-.864zM3.205 17.32a.75.75 0 0 1 1.046.177 9.558 9.558 0 0 0 2.252 2.252.75.75 0 1 1-.87 1.223 11.058 11.058 0 0 1-2.605-2.606.75.75 0 0 1 .177-1.046zm17.59 0a.75.75 0 0 1 .176 1.046 11.057 11.057 0 0 1-2.605 2.605.75.75 0 1 1-.869-1.222 9.558 9.558 0 0 0 2.252-2.252.75.75 0 0 1 1.046-.177zM9.543 21.982a.75.75 0 0 1 .864-.615 9.56 9.56 0 0 0 3.186 0 .75.75 0 0 1 .25 1.48 11.066 11.066 0 0 1-3.686 0 .75.75 0 0 1-.614-.865z"/></svg>