<svg xmlns="http://www.w3.org/2000/svg" viewBox="0 0 24 24"><path d="M3.38 8A9.502 9.502 0 0112 2.5a9.502 9.502 0 019.215 7.182.75.75 0 101.456-.364C21.473 4.539 17.15 1 12 1a10.995 10.995 0 00-9.5 5.452V4.75a.75.75 0 00-1.5 0V8.5a1 1 0 001 1h3.75a.75.75 0 000-1.5H3.38zm-.595 6.318a.75.75 0 00-1.455.364C2.527 19.461 6.85 23 12 23c4.052 0 7.592-2.191 9.5-5.451v1.701a.75.75 0 001.5 0V15.5a1 1 0 00-1-1h-3.75a.75.75 0 000 1.5h2.37A9.502 9.502 0 0112 21.5c-4.446 0-8.181-3.055-9.215-7.182z"/><path d="M12 17a1 1 0 100-2 1 1 0 000 2zm0-10a.75.75 0 01.75.75v4.5a.75.75 0 01-1.5 0v-4.5A.75.75 0 0112 7z"/></svg>