<svg xmlns="http://www.w3.org/2000/svg" viewBox="0 0 24 24"><path d="M16.75 8.5a1.25 1.25 0 100-2.5 1.25 1.25 0 000 2.5z"/><path fill-rule="evenodd" d="M15.75 0a8.25 8.25 0 00-7.851 10.79L.513 18.178A1.75 1.75 0 000 19.414v2.836C0 23.217.784 24 1.75 24h1.5A1.75 1.75 0 005 22.25v-1a.25.25 0 01.25-.25h2.735a.75.75 0 00.545-.22l.214-.213A.875.875 0 009 19.948V18.5a.25.25 0 01.25-.25h1.086c.464 0 .91-.184 1.237-.513l1.636-1.636A8.25 8.25 0 1015.75 0zM9 8.25a6.75 6.75 0 114.288 6.287.75.75 0 00-.804.168l-1.971 1.972a.25.25 0 01-.177.073H9.25A1.75 1.75 0 007.5 18.5v1H5.25a1.75 1.75 0 00-1.75 1.75v1a.25.25 0 01-.25.25h-1.5a.25.25 0 01-.25-.25v-2.836a.25.25 0 01.073-.177l7.722-7.721a.75.75 0 00.168-.804A6.73 6.73 0 019 8.25z"/></svg>