<svg xmlns="http://www.w3.org/2000/svg" viewBox="0 0 24 24"><path fill-rule="evenodd" d="M12 10.75a.75.75 0 0 1 .75.75v1a.75.75 0 0 1-1.5 0v-1a.75.75 0 0 1 .75-.75zm0 4a.75.75 0 0 1 .75.75v1a.75.75 0 0 1-1.5 0v-1a.75.75 0 0 1 .75-.75zm0 4a.75.75 0 0 1 .75.75v1a.75.75 0 0 1-1.5 0v-1a.75.75 0 0 1 .75-.75zm0-12a.75.75 0 0 1 .75.75v1a.75.75 0 0 1-1.5 0v-1a.75.75 0 0 1 .75-.75zm0-4a.75.75 0 0 1 .75.75v1a.75.75 0 0 1-1.5 0v-1a.75.75 0 0 1 .75-.75zm9.553 3.314A.75.75 0 0 1 22 6.75v10.5a.75.75 0 0 1-1.256.554l-5.75-5.25a.75.75 0 0 1 0-1.108l5.75-5.25a.75.75 0 0 1 .809-.132zM16.613 12l3.887 3.55v-7.1L16.612 12zM2.447 17.936A.75.75 0 0 1 2 17.25V6.75a.75.75 0 0 1 1.256-.554l5.75 5.25a.75.75 0 0 1 0 1.108l-5.75 5.25a.75.75 0 0 1-.809.132zM7.387 12 3.5 8.45v7.1L7.388 12z"/></svg>