<svg xmlns="http://www.w3.org/2000/svg" viewBox="0 0 24 24"><path fill-rule="evenodd" d="M16.5 6c0 5.799-4.701 10.5-10.5 10.5-.426 0-.847-.026-1.26-.075A8.5 8.5 0 1016.425 4.74c.05.413.075.833.075 1.259zm-1.732-2.04A9.08 9.08 0 0114.999 6a9 9 0 01-11.04 8.768l-.004-.002a9.367 9.367 0 01-.78-.218c-.393-.13-.8.21-.67.602a9.938 9.938 0 00.329.855l.004.01A10.002 10.002 0 0012 22a10.002 10.002 0 004.015-19.16l-.01-.005a9.745 9.745 0 00-.855-.328c-.392-.13-.732.276-.602.67a8.934 8.934 0 01.218.779l.002.005z"/></svg>