<svg xmlns="http://www.w3.org/2000/svg" viewBox="0 0 24 24"><path fill-rule="evenodd" d="M12.292 2.06a.75.75 0 0 0-.584 0L.458 6.81a.75.75 0 0 0 0 1.38L4.25 9.793v3.803a2.901 2.901 0 0 0-1.327.757c-.579.58-.923 1.41-.923 2.43v4.5c0 .248.128.486.335.624.06.04.117.073.22.124.124.062.297.138.52.213.448.149 1.09.288 1.925.288s1.477-.14 1.925-.288c.223-.075.396-.15.52-.213a2.11 2.11 0 0 0 .21-.117A.762.762 0 0 0 8 21.28v-4.5c0-1.018-.344-1.85-.923-2.428a2.9 2.9 0 0 0-1.327-.758v-3.17l5.958 2.516a.75.75 0 0 0 .584 0l5.208-2.2v4.003a2.552 2.552 0 0 1-.079.085 4.057 4.057 0 0 1-.849.65c-.826.488-2.255 1.021-4.572 1.021-.612 0-1.162-.037-1.654-.1a.75.75 0 0 0-.192 1.487c.56.072 1.173.113 1.846.113 2.558 0 4.254-.592 5.334-1.23.538-.316.914-.64 1.163-.896a2.84 2.84 0 0 0 .392-.482h.001A.75.75 0 0 0 19 15v-4.892l4.542-1.917a.75.75 0 0 0 0-1.382l-11.25-4.75zM5 15c-.377 0-.745.141-1.017.413-.265.265-.483.7-.483 1.368v4.022c.299.105.797.228 1.5.228s1.201-.123 1.5-.228V16.78c0-.669-.218-1.103-.483-1.368A1.431 1.431 0 0 0 5 15zm7-3.564L2.678 7.5 12 3.564 21.322 7.5 12 11.436z"/></svg>