<svg xmlns="http://www.w3.org/2000/svg" viewBox="0 0 24 24"><path fill-rule="evenodd" d="M12 3.75a.75.75 0 00-1.255-.555L5.46 8H2.75A1.75 1.75 0 001 9.75v4.5c0 .966.784 1.75 1.75 1.75h2.71l5.285 4.805A.75.75 0 0012 20.25V3.75zM6.255 9.305l4.245-3.86v13.11l-4.245-3.86a.75.75 0 00-.505-.195h-3a.25.25 0 01-.25-.25v-4.5a.25.25 0 01.25-.25h3a.75.75 0 00.505-.195z"/><path d="M16.28 8.22a.75.75 0 10-1.06 1.06L17.94 12l-2.72 2.72a.75.75 0 101.06 1.06L19 13.06l2.72 2.72a.75.75 0 101.06-1.06L20.06 12l2.72-2.72a.75.75 0 00-1.06-1.06L19 10.94l-2.72-2.72z"/></svg>