<svg xmlns="http://www.w3.org/2000/svg" viewBox="0 0 24 24"><path fill-rule="evenodd" d="M12.876.64a1.75 1.75 0 00-1.75 0l-8.25 4.762a1.75 1.75 0 00-.875 1.515v9.525c0 .625.334 1.203.875 1.515l8.25 4.763a1.75 1.75 0 001.75 0l8.25-4.762a1.75 1.75 0 00.875-1.516V6.917a1.75 1.75 0 00-.875-1.515L12.876.639zm-1 1.298a.25.25 0 01.25 0l7.625 4.402-7.75 4.474-7.75-4.474 7.625-4.402zM3.501 7.64v8.803c0 .09.048.172.125.216l7.625 4.402v-8.947L3.501 7.64zm9.25 13.421l7.625-4.402a.25.25 0 00.125-.216V7.639l-7.75 4.474v8.947z"/></svg>