<svg xmlns="http://www.w3.org/2000/svg" viewBox="0 0 24 24"><path fill-rule="evenodd" d="M9.126.64a1.75 1.75 0 011.75 0l8.25 4.762c.103.06.199.128.286.206a.748.748 0 01.554.96c.023.113.035.23.035.35v3.332a.75.75 0 01-1.5 0V7.64l-7.75 4.474V22.36a.75.75 0 01-1.125.65l-8.75-5.052a1.75 1.75 0 01-.875-1.515V6.917c0-.119.012-.236.035-.35a.748.748 0 01.554-.96 1.75 1.75 0 01.286-.205L9.126.639zM1.501 7.638v8.803c0 .09.048.172.125.216l7.625 4.402v-8.947l-7.75-4.474zm8.5 3.175L2.251 6.34l7.625-4.402a.25.25 0 01.25 0l7.625 4.402-7.75 4.474z"/><path d="M16.617 17.5l2.895-2.702a.75.75 0 00-1.024-1.096l-4.285 4a.75.75 0 000 1.096l4.285 4a.75.75 0 101.024-1.096L16.617 19h6.633a.75.75 0 000-1.5h-6.633z"/></svg>