<svg xmlns="http://www.w3.org/2000/svg" viewBox="0 0 24 24"><path fill-rule="evenodd" d="M19.187 3.588a2.75 2.75 0 0 0-3.889 0L5.575 13.31a4.5 4.5 0 1 0 6.364 6.364l8.662-8.662a.75.75 0 0 1 1.061 1.06L13 20.735a6 6 0 0 1-8.485-8.485l9.723-9.723a4.25 4.25 0 1 1 6.01 6.01l-9.193 9.193a2.638 2.638 0 0 1-1.858.779 2.626 2.626 0 0 1-1.854-.779c-.196-.196-.338-.47-.43-.726a2.825 2.825 0 0 1-.168-.946c0-.7.284-1.373.775-1.864l8.132-8.131a.75.75 0 1 1 1.06 1.06l-8.131 8.132a1.144 1.144 0 0 0-.336.803 1.326 1.326 0 0 0 .146.587c.01.018.018.028.02.032.22.215.501.332.786.332.29 0 .58-.121.798-.34l9.192-9.192a2.75 2.75 0 0 0 0-3.89z"/></svg>