<svg xmlns="http://www.w3.org/2000/svg" viewBox="0 0 24 24"><path fill-rule="evenodd" d="M17.263 2.177a1.75 1.75 0 0 1 2.474 0l2.586 2.586a1.75 1.75 0 0 1 0 2.474L19.53 10.03l-.012.013L8.69 20.378a1.75 1.75 0 0 1-.699.409l-5.523 1.68a.75.75 0 0 1-.935-.935l1.673-5.5a1.75 1.75 0 0 1 .466-.756L14.476 4.963l2.787-2.786zm-2.275 4.371-10.28 9.813a.25.25 0 0 0-.067.108l-1.264 4.154 4.177-1.271a.25.25 0 0 0 .1-.059l10.273-9.806-2.94-2.939zM19 8.44l2.263-2.262a.25.25 0 0 0 0-.354l-2.586-2.586a.25.25 0 0 0-.354 0L16.061 5.5 19 8.44z"/></svg>