<svg xmlns="http://www.w3.org/2000/svg" viewBox="0 0 24 24"><path fill-rule="evenodd" d="M7.886 1.553a1.75 1.75 0 0 1 2.869.604l.633 1.629a5.666 5.666 0 0 0 3.725 3.395l3.959 1.131a1.75 1.75 0 0 1 .757 2.92L16.06 15l5.594 5.595a.75.75 0 1 1-1.06 1.06L15 16.061l-3.768 3.768a1.75 1.75 0 0 1-2.92-.757l-1.131-3.96a5.667 5.667 0 0 0-3.395-3.724l-1.63-.633a1.75 1.75 0 0 1-.603-2.869l6.333-6.333zm6.589 12.912-.005.005-.005.005-4.294 4.293a.25.25 0 0 1-.417-.108l-1.13-3.96A7.166 7.166 0 0 0 4.33 9.99L2.7 9.356a.25.25 0 0 1-.086-.41l6.333-6.332a.25.25 0 0 1 .41.086l.633 1.63a7.167 7.167 0 0 0 4.71 4.293l3.96 1.131a.25.25 0 0 1 .108.417l-4.293 4.294z"/></svg>