<svg xmlns="http://www.w3.org/2000/svg" viewBox="0 0 24 24"><path fill-rule="evenodd" d="M4.75 4.5a.25.25 0 00-.25.25v3.5a.75.75 0 01-1.5 0v-3.5C3 3.784 3.784 3 4.75 3h3.5a.75.75 0 010 1.5h-3.5zM15 3.75a.75.75 0 01.75-.75h3.5c.966 0 1.75.784 1.75 1.75v3.5a.75.75 0 01-1.5 0v-3.5a.25.25 0 00-.25-.25h-3.5a.75.75 0 01-.75-.75zM3.75 15a.75.75 0 01.75.75v3.5c0 .138.112.25.25.25h3.5a.75.75 0 010 1.5h-3.5A1.75 1.75 0 013 19.25v-3.5a.75.75 0 01.75-.75zm16.5 0a.75.75 0 01.75.75v3.5A1.75 1.75 0 0119.25 21h-3.5a.75.75 0 010-1.5h3.5a.25.25 0 00.25-.25v-3.5a.75.75 0 01.75-.75z"/></svg>