<svg xmlns="http://www.w3.org/2000/svg" viewBox="0 0 24 24"><path d="M10.75 6.5a.75.75 0 000 1.5h6.5a.75.75 0 000-1.5h-6.5zM6 7.25a.75.75 0 01.75-.75h.5a.75.75 0 010 1.5h-.5A.75.75 0 016 7.25zm4 9a.75.75 0 01.75-.75h6.5a.75.75 0 010 1.5h-6.5a.75.75 0 01-.75-.75zm-3.25-.75a.75.75 0 000 1.5h.5a.75.75 0 000-1.5h-.5z"/><path fill-rule="evenodd" d="M3.25 2A1.75 1.75 0 001.5 3.75v7c0 .372.116.716.314 1a1.742 1.742 0 00-.314 1v7c0 .966.784 1.75 1.75 1.75h17.5a1.75 1.75 0 001.75-1.75v-7c0-.372-.116-.716-.314-1 .198-.284.314-.628.314-1v-7A1.75 1.75 0 0020.75 2H3.25zm0 9h17.5a.25.25 0 00.25-.25v-7a.25.25 0 00-.25-.25H3.25a.25.25 0 00-.25.25v7c0 .138.112.25.25.25zm0 1.5a.25.25 0 00-.25.25v7c0 .138.112.25.25.25h17.5a.25.25 0 00.25-.25v-7a.25.25 0 00-.25-.25H3.25z"/></svg>