<svg xmlns="http://www.w3.org/2000/svg" viewBox="0 0 24 24"><path fill-rule="evenodd" d="M12.077 2.563a.25.25 0 00-.154 0L3.673 5.24a.249.249 0 00-.173.237V10.5c0 5.461 3.28 9.483 8.43 11.426a.2.2 0 00.14 0c5.15-1.943 8.43-5.965 8.43-11.426V5.476a.25.25 0 00-.173-.237l-8.25-2.676zm-.617-1.426a1.75 1.75 0 011.08 0l8.25 2.675A1.75 1.75 0 0122 5.476V10.5c0 6.19-3.77 10.705-9.401 12.83a1.699 1.699 0 01-1.198 0C5.771 21.204 2 16.69 2 10.5V5.476c0-.76.49-1.43 1.21-1.664l8.25-2.675zM13 12.232A2 2 0 0012 8.5a2 2 0 00-1 3.732V15a1 1 0 102 0v-2.768z"/></svg>