<svg xmlns="http://www.w3.org/2000/svg" viewBox="0 0 24 24"><path d="M16.53 9.78a.75.75 0 0 0-1.06-1.06L11 13.19l-1.97-1.97a.75.75 0 0 0-1.06 1.06l2.5 2.5a.75.75 0 0 0 1.06 0l5-5z"/><path fill-rule="evenodd" d="M12.54.637a1.75 1.75 0 0 0-1.08 0L3.21 3.312A1.75 1.75 0 0 0 2 4.976V10c0 6.19 3.77 10.705 9.401 12.83.386.145.812.145 1.198 0C18.229 20.704 22 16.19 22 10V4.976c0-.759-.49-1.43-1.21-1.664L12.54.637zm-.617 1.426a.25.25 0 0 1 .154 0l8.25 2.676a.25.25 0 0 1 .173.237V10c0 5.461-3.28 9.483-8.43 11.426a.2.2 0 0 1-.14 0C6.78 19.483 3.5 15.46 3.5 10V4.976c0-.108.069-.203.173-.237l8.25-2.676z"/></svg>