<svg xmlns="http://www.w3.org/2000/svg" viewBox="0 0 24 24"><path d="M8.456 14.494a.75.75 0 011.068.17 3.08 3.08 0 00.572.492A3.381 3.381 0 0012 15.72c.855 0 1.487-.283 1.904-.562a3.081 3.081 0 00.572-.492l.021-.026a.75.75 0 011.197.905l-.027.034c-.013.016-.03.038-.052.063-.044.05-.105.119-.184.198a4.569 4.569 0 01-.695.566A4.88 4.88 0 0112 17.22a4.88 4.88 0 01-2.736-.814 4.57 4.57 0 01-.695-.566 3.253 3.253 0 01-.236-.261c-.259-.332-.223-.824.123-1.084z"/><path fill-rule="evenodd" d="M12 1C5.925 1 1 5.925 1 12s4.925 11 11 11 11-4.925 11-11S18.075 1 12 1zM2.5 12a9.5 9.5 0 1119 0 9.5 9.5 0 01-19 0z"/><path d="M9 10.75a1.25 1.25 0 11-2.5 0 1.25 1.25 0 012.5 0zM16.25 12a1.25 1.25 0 100-2.5 1.25 1.25 0 000 2.5z"/></svg>