<svg xmlns="http://www.w3.org/2000/svg" viewBox="0 0 24 24"><path d="M12 7a.75.75 0 01.75.75v4.5a.75.75 0 01-1.5 0v-4.5A.75.75 0 0112 7zm0 10a1 1 0 100-2 1 1 0 000 2z"/><path fill-rule="evenodd" d="M7.328 1.47a.75.75 0 01.53-.22h8.284a.75.75 0 01.53.22l5.858 5.858c.141.14.22.33.22.53v8.284a.75.75 0 01-.22.53l-5.858 5.858a.75.75 0 01-.53.22H7.858a.75.75 0 01-.53-.22L1.47 16.672a.75.75 0 01-.22-.53V7.858a.75.75 0 01.22-.53L7.328 1.47zm.84 1.28L2.75 8.169v7.662l5.419 5.419h7.662l5.419-5.418V8.168L15.832 2.75H8.168z"/></svg>