<svg xmlns="http://www.w3.org/2000/svg" viewBox="0 0 24 24"><path fill-rule="evenodd" d="M10.25 0a.75.75 0 0 0 0 1.5h1v1.278a9.955 9.955 0 0 0-5.635 2.276L4.28 3.72a.75.75 0 0 0-1.06 1.06l1.315 1.316A9.962 9.962 0 0 0 2 12.75c0 5.523 4.477 10 10 10s10-4.477 10-10a9.962 9.962 0 0 0-2.535-6.654L20.78 4.78a.75.75 0 0 0-1.06-1.06l-1.334 1.334a9.955 9.955 0 0 0-5.636-2.276V1.5h1a.75.75 0 0 0 0-1.5h-3.5zM12 21.25a8.5 8.5 0 1 0 0-17 8.5 8.5 0 0 0 0 17zm4.03-12.53a.75.75 0 0 1 0 1.06l-2.381 2.382a1.75 1.75 0 1 1-1.06-1.06l2.38-2.382a.75.75 0 0 1 1.061 0z"/></svg>