<svg xmlns="http://www.w3.org/2000/svg" viewBox="0 0 24 24"><path d="M12 19a7 7 0 1 1 0-14 7 7 0 0 1 0 14zm0-1.5a5.5 5.5 0 1 0 0-11 5.5 5.5 0 1 0 0 11zm-5.657.157a.75.75 0 0 1 0 1.06l-1.768 1.768a.749.749 0 0 1-1.275-.326.749.749 0 0 1 .215-.734l1.767-1.768a.75.75 0 0 1 1.061 0zM3.515 3.515a.75.75 0 0 1 1.06 0l1.768 1.768a.749.749 0 0 1-.326 1.275.749.749 0 0 1-.734-.215L3.515 4.575a.75.75 0 0 1 0-1.06zM12 0a.75.75 0 0 1 .75.75v2.5a.75.75 0 0 1-1.5 0V.75A.75.75 0 0 1 12 0zM4 12a.75.75 0 0 1-.75.75H.75a.75.75 0 0 1 0-1.5h2.5A.75.75 0 0 1 4 12zm8 8a.75.75 0 0 1 .75.75v2.5a.75.75 0 0 1-1.5 0v-2.5A.75.75 0 0 1 12 20zm12-8a.75.75 0 0 1-.75.75h-2.5a.75.75 0 0 1 0-1.5h2.5A.75.75 0 0 1 24 12zm-6.343 5.657a.75.75 0 0 1 1.06 0l1.768 1.768a.751.751 0 0 1-.018 1.042.751.751 0 0 1-1.042.018l-1.768-1.767a.75.75 0 0 1 0-1.061zm2.828-14.142a.75.75 0 0 1 0 1.06l-1.768 1.768a.751.751 0 0 1-1.042-.018.751.751 0 0 1-.018-1.042l1.767-1.768a.75.75 0 0 1 1.061 0z"/></svg>