<svg xmlns="http://www.w3.org/2000/svg" viewBox="0 0 16 16"><path d="M8 12a4 4 0 1 1 0-8 4 4 0 0 1 0 8zm0-1.5a2.5 2.5 0 1 0 0-5 2.5 2.5 0 0 0 0 5zm5.657-8.157a.75.75 0 0 1 0 1.061l-1.061 1.06a.749.749 0 0 1-1.275-.326.749.749 0 0 1 .215-.734l1.06-1.06a.75.75 0 0 1 1.06 0zm-9.193 9.193a.75.75 0 0 1 0 1.06l-1.06 1.061a.75.75 0 1 1-1.061-1.06l1.06-1.061a.75.75 0 0 1 1.061 0zM8 0a.75.75 0 0 1 .75.75v1.5a.75.75 0 0 1-1.5 0V.75A.75.75 0 0 1 8 0zM3 8a.75.75 0 0 1-.75.75H.75a.75.75 0 0 1 0-1.5h1.5A.75.75 0 0 1 3 8zm13 0a.75.75 0 0 1-.75.75h-1.5a.75.75 0 0 1 0-1.5h1.5A.75.75 0 0 1 16 8zm-8 5a.75.75 0 0 1 .75.75v1.5a.75.75 0 0 1-1.5 0v-1.5A.75.75 0 0 1 8 13zm3.536-1.464a.75.75 0 0 1 1.06 0l1.061 1.06a.75.75 0 0 1-1.06 1.061l-1.061-1.06a.75.75 0 0 1 0-1.061zM2.343 2.343a.75.75 0 0 1 1.061 0l1.06 1.061a.751.751 0 0 1-.018 1.042.751.751 0 0 1-1.042.018l-1.06-1.06a.75.75 0 0 1 0-1.06z"/></svg>