<svg xmlns="http://www.w3.org/2000/svg" viewBox="0 0 24 24"><path fill-rule="evenodd" d="M.408 15.13a2 2 0 0 1 .59-2.642L17.038 1.33a2 2 0 0 1 2.85.602l2.828 4.644a2 2 0 0 1-.851 2.847l-17.762 8.43a2 2 0 0 1-2.59-.807L.408 15.13zm5.263-4.066 7.842-5.455 2.857 4.76-8.712 4.135-1.987-3.44zm-1.235.86L1.854 13.72a.5.5 0 0 0-.147.66l1.105 1.915a.5.5 0 0 0 .648.201l2.838-1.347-1.862-3.225zm13.295-2.2L14.747 4.75l3.148-2.19a.5.5 0 0 1 .713.151l2.826 4.644a.5.5 0 0 1-.212.712l-3.49 1.656z"/><path d="M17.155 22.87a.75.75 0 0 0 .226-1.036l-4-6.239a.75.75 0 0 0-.941-.278l-2.75 1.25a.75.75 0 0 0-.318.274l-3.25 4.989a.75.75 0 0 0 1.256.819l3.131-4.806.51-.232v5.64a.75.75 0 1 0 1.5 0v-6.22l3.6 5.613a.75.75 0 0 0 1.036.226z"/></svg>