<svg xmlns="http://www.w3.org/2000/svg" viewBox="0 0 24 24"><path fill-rule="evenodd" d="m10.414 15 1.63 4.505a.75.75 0 0 0 1.411-.51l-5.08-14.03a1.463 1.463 0 0 0-2.75 0l-5.08 14.03a.75.75 0 1 0 1.41.51L3.586 15h6.828zm-.544-1.5L7 5.572 4.13 13.5h5.74zm5.076-3.598c.913-1.683 2.703-2.205 4.284-2.205 1.047 0 2.084.312 2.878.885.801.577 1.392 1.455 1.392 2.548v8.12a.75.75 0 0 1-1.5 0v-.06a3.123 3.123 0 0 1-.044.025c-.893.52-2.096.785-3.451.785-1.051 0-2.048-.315-2.795-.948-.76-.643-1.217-1.578-1.217-2.702 0-.919.349-1.861 1.168-2.563.81-.694 2-1.087 3.569-1.087H22v-1.57c0-.503-.263-.967-.769-1.332-.513-.37-1.235-.6-2.001-.6-1.319 0-2.429.43-2.966 1.42a.75.75 0 0 1-1.318-.716zM22 14.2h-2.77c-1.331 0-2.134.333-2.593.726a1.82 1.82 0 0 0-.644 1.424c0 .689.267 1.203.686 1.557.43.365 1.065.593 1.826.593 1.183 0 2.102-.235 2.697-.581.582-.34.798-.74.798-1.134V14.2z"/></svg>