<svg xmlns="http://www.w3.org/2000/svg" viewBox="0 0 24 24"><path fill-rule="evenodd" d="M11.553 3.064A.75.75 0 0 1 12 3.75v16.5a.75.75 0 0 1-1.255.555L5.46 16H2.75A1.75 1.75 0 0 1 1 14.25v-4.5C1 8.784 1.784 8 2.75 8h2.71l5.285-4.805a.75.75 0 0 1 .808-.13zM10.5 5.445l-4.245 3.86a.75.75 0 0 1-.505.195h-3a.25.25 0 0 0-.25.25v4.5c0 .138.112.25.25.25h3a.75.75 0 0 1 .505.195l4.245 3.86V5.445z"/><path d="M18.718 4.222a.75.75 0 0 1 1.06 0c4.296 4.296 4.296 11.26 0 15.556a.75.75 0 0 1-1.06-1.06 9.5 9.5 0 0 0 0-13.436.75.75 0 0 1 0-1.06z"/><path d="M16.243 7.757a.75.75 0 1 0-1.061 1.061 4.5 4.5 0 0 1 0 6.364.75.75 0 0 0 1.06 1.06 6 6 0 0 0 0-8.485z"/></svg>