<svg xmlns="http://www.w3.org/2000/svg" viewBox="0 0 512 512"><!--! Font Awesome Free 7.1.0 by @fontawesome - https://fontawesome.com License - https://fontawesome.com/license/free (Icons: CC BY 4.0, Fonts: SIL OFL 1.1, Code: MIT License) Copyright 2025 Fonticons, Inc.--><path d="M48 56c0-13.3-10.7-24-24-24S0 42.7 0 56v344c0 44.2 35.8 80 80 80h408c13.3 0 24-10.7 24-24s-10.7-24-24-24H80c-17.7 0-32-14.3-32-32zm104 72h208c13.3 0 24-10.7 24-24s-10.7-24-24-24H152c-13.3 0-24 10.7-24 24s10.7 24 24 24m0 64c-13.3 0-24 10.7-24 24s10.7 24 24 24h144c13.3 0 24-10.7 24-24s-10.7-24-24-24zm0 112c-13.3 0-24 10.7-24 24s10.7 24 24 24h272c13.3 0 24-10.7 24-24s-10.7-24-24-24z"/></svg>