<svg xmlns="http://www.w3.org/2000/svg" viewBox="0 0 448 512"><!--! Font Awesome Free 7.1.0 by @fontawesome - https://fontawesome.com License - https://fontawesome.com/license/free (Icons: CC BY 4.0, Fonts: SIL OFL 1.1, Code: MIT License) Copyright 2025 Fonticons, Inc.--><path d="M224 0c-13.3 0-24 10.7-24 24v9.7C118.6 45.3 56 115.4 56 200v14.5c0 37.7-10 74.7-29 107.3L5.1 359.2C1.8 365 0 371.5 0 378.2 0 399.1 16.9 416 37.8 416h372.4c20.9 0 37.8-16.9 37.8-37.8 0-6.7-1.8-13.3-5.1-19L421 321.7c-19-32.6-29-69.6-29-107.3v-14.5c0-84.6-62.6-154.7-144-166.3v-9.7c0-13.3-10.7-24-24-24zm168.4 368H55.5l12.9-22.1C91.7 306 104 260.6 104 214.5V200c0-66.3 53.7-120 120-120s120 53.7 120 120v14.5c0 46.2 12.3 91.5 35.5 131.4zm-236.3 96c9.9 28 36.6 48 67.9 48s58-20 67.9-48z"/></svg>