<svg xmlns="http://www.w3.org/2000/svg" viewBox="0 0 448 512"><!--! Font Awesome Free 7.0.0 by @fontawesome - https://fontawesome.com License - https://fontawesome.com/license/free (Icons: CC BY 4.0, Fonts: SIL OFL 1.1, Code: MIT License) Copyright 2025 Fonticons, Inc.--><path d="M120 0c13.3 0 24 10.7 24 24v40h160V24c0-13.3 10.7-24 24-24s24 10.7 24 24v40h32c35.3 0 64 28.7 64 64v288c0 35.3-28.7 64-64 64H64c-35.3 0-64-28.7-64-64V128c0-35.3 28.7-64 64-64h32V24c0-13.3 10.7-24 24-24m0 112H64c-8.8 0-16 7.2-16 16v288c0 8.8 7.2 16 16 16h320c8.8 0 16-7.2 16-16V128c0-8.8-7.2-16-16-16zm188.4 116.7-80 128c-4.2 6.7-11.4 10.9-19.3 11.3s-15.5-3.2-20.2-9.6l-48-64c-8-10.6-5.8-25.6 4.8-33.6s25.6-5.8 33.6 4.8l27 36 61.4-98.3c7-11.2 21.8-14.7 33.1-7.6s14.7 21.8 7.6 33.1z"/></svg>