<svg xmlns="http://www.w3.org/2000/svg" viewBox="0 0 448 512"><!--! Font Awesome Free 6.6.0 by @fontawesome - https://fontawesome.com License - https://fontawesome.com/license/free (Icons: CC BY 4.0, Fonts: SIL OFL 1.1, Code: MIT License) Copyright 2024 Fonticons, Inc.--><path d="M152 24c0-13.3-10.7-24-24-24s-24 10.7-24 24v40H64C28.7 64 0 92.7 0 128v320c0 35.3 28.7 64 64 64h320c35.3 0 64-28.7 64-64V128c0-35.3-28.7-64-64-64h-40V24c0-13.3-10.7-24-24-24s-24 10.7-24 24v40H152zM48 192h80v56H48zm0 104h80v64H48zm128 0h96v64h-96zm144 0h80v64h-80zm80-48h-80v-56h80zm0 160v40c0 8.8-7.2 16-16 16h-64v-56zm-128 0v56h-96v-56zm-144 0v56H64c-8.8 0-16-7.2-16-16v-40zm144-160h-96v-56h96z"/></svg>