<svg xmlns="http://www.w3.org/2000/svg" viewBox="0 0 448 512"><!--! Font Awesome Free 7.1.0 by @fontawesome - https://fontawesome.com License - https://fontawesome.com/license/free (Icons: CC BY 4.0, Fonts: SIL OFL 1.1, Code: MIT License) Copyright 2025 Fonticons, Inc.--><path d="M224-32c13.3 0 24 10.7 24 24v40h48c13.3 0 24 10.7 24 24s-10.7 24-24 24h-48v80h161.8c21.1 0 38.2 17.1 38.2 38.2 0 6.4-1.6 12.7-4.7 18.3l-86.1 158 48.4 60.5c6.7 8.4 10.4 18.8 10.4 29.6 0 26.2-21.2 47.4-47.4 47.4H79.4C53.2 512 32 490.8 32 464.6c0-10.8 3.7-21.2 10.4-29.6l48.4-60.5L4.7 216.6c-3.1-5.7-4.7-12-4.7-18.4C0 177.1 17.1 160 38.2 160H200V80h-48c-13.3 0-24-10.7-24-24s10.7-24 24-24h48V-8c0-13.3 10.7-24 24-24m-92.2 432-3.6 4.4L80.6 464h286.6l-47.6-59.6-3.6-4.4H131.7zm1.1-48.5.3.5h181.6l.3-.5L393.4 208H54.7L133 351.5z"/></svg>