<svg xmlns="http://www.w3.org/2000/svg" viewBox="0 0 448 512"><!--! Font Awesome Free 7.1.0 by @fontawesome - https://fontawesome.com License - https://fontawesome.com/license/free (Icons: CC BY 4.0, Fonts: SIL OFL 1.1, Code: MIT License) Copyright 2025 Fonticons, Inc.--><path d="M232-32c110.5 0 200 89.5 200 200v127.7c0 18.9-6.1 37.1-17.2 52.2l-5.1 6.2-36.3 40.7 32.1 40.2c6.7 8.4 10.4 18.8 10.4 29.6l-.2 4.8c-2.4 23.9-22.6 42.5-47.1 42.5H79.4l-4.8-.2c-23.9-2.4-42.5-22.6-42.5-47.1 0-10.8 3.7-21.2 10.4-29.6l37.6-47v-24.3c0-24.3 10.1-47.6 27.8-64.2l63.5-59.5H154l-.2.2c-20.3 20.3-49.6 28.2-77.1 21.1l-5.5-1.6c-30.9-10.3-52.3-38-54.9-70.1l-.2-6.4v-1.4c0-19.7 7.1-38.8 19.9-53.8l76.1-88.8V-7.9l.1-2.5C113.4-22.6 123.6-32 136-32zM80.7 464h286.6l-38.4-48H119l-38.4 48zM160 48c0 5.7-2.1 11.3-5.8 15.6l-81.9 95.5c-5.3 6.3-8.3 14.3-8.3 22.6v1.4l.4 5.2c1.9 11.9 10.3 21.9 21.9 25.8l4.5 1.1c10.5 1.9 21.3-1.4 29-9l7.2-7.2 3.7-3c3.9-2.6 8.5-4 13.3-4h88c9.8 0 18.7 6 22.3 15.2s1.3 19.6-5.9 26.3l-107.8 101c-8.1 7.6-12.7 18.1-12.7 29.2v4.3h205.2l40.7-45.8 2.3-2.8c5.1-6.8 7.8-15.2 7.8-23.7L384 168c0-83.9-68.1-152-152-152h-72zm32 72a24 24 0 1 1 0-48 24 24 0 1 1 0 48"/></svg>