<svg xmlns="http://www.w3.org/2000/svg" viewBox="0 0 320 512"><!--! Font Awesome Free 7.1.0 by @fontawesome - https://fontawesome.com License - https://fontawesome.com/license/free (Icons: CC BY 4.0, Fonts: SIL OFL 1.1, Code: MIT License) Copyright 2025 Fonticons, Inc.--><path d="M216 0c13.3 0 24 10.7 24 24s-10.7 24-24 24h-16l81.8 98.1c24.7 29.6 38.2 67 38.2 105.6 0 43.7-17.4 85.7-48.3 116.6l-8.6 8.6 46.5 58.2c6.7 8.4 10.4 18.8 10.4 29.6 0 26.2-21.2 47.4-47.4 47.4L47.4 512C21.2 512 0 490.8 0 464.6c0-10.7 3.7-21.2 10.4-29.6l46.5-58.2-8.6-8.6C17.4 337.4 0 295.4 0 251.7c0-38.6 13.5-75.9 38.2-105.6L120 48h-16c-13.3 0-24-10.7-24-24S90.7 0 104 0zM94.4 406.8 48.7 464h222.7l-45.7-57.1-5.5-6.9H99.9zm62.5-328.1-81.8 98.1c-15.3 18.4-24.6 41-26.7 64.7l-.4 10.2c0 31 12.3 60.7 34.2 82.7l17.7 17.7h120.2c6.2-6.2 12.1-12.1 17.8-17.7 21.9-21.9 34.2-51.6 34.2-82.6l-.4-10.2c-1.5-17-6.7-33.3-15.2-48L209 241c-9.4 9.4-24.6 9.4-33.9 0s-9.4-24.6 0-33.9l51.8-51.8-63.7-76.5-3.1-3.8-3.1 3.8z"/></svg>