<svg xmlns="http://www.w3.org/2000/svg" viewBox="0 0 384 512"><!--! Font Awesome Free 7.1.0 by @fontawesome - https://fontawesome.com License - https://fontawesome.com/license/free (Icons: CC BY 4.0, Fonts: SIL OFL 1.1, Code: MIT License) Copyright 2025 Fonticons, Inc.--><path d="M192-32c66.3 0 120 53.7 120 120 0 27.6-9.3 52.9-24.9 73.2 9.8 3 16.9 12.1 16.9 22.8 0 13.3-10.7 24-24 24h-.6L304 368l53.6 67c6.7 8.4 10.4 18.8 10.4 29.6 0 26.2-21.2 47.4-47.4 47.4H63.4C37.2 512 16 490.8 16 464.6c0-10.8 3.7-21.2 10.4-29.6L80 368l24.6-160h-.6c-13.3 0-24-10.7-24-24 0-10.8 7.1-19.8 16.9-22.8C81.3 140.9 72 115.6 72 88c0-66.3 53.7-120 120-120m-76.1 432-51.2 64h254.7l-51.2-64H116zm36.2-184.7-21 136.7H253l-21-136.7-1.1-7.3h-77.6l-1.1 7.3zM192 16a72 72 0 1 0 0 144 72 72 0 1 0 0-144"/></svg>