<svg xmlns="http://www.w3.org/2000/svg" viewBox="0 0 512 512"><!--! Font Awesome Free 7.1.0 by @fontawesome - https://fontawesome.com License - https://fontawesome.com/license/free (Icons: CC BY 4.0, Fonts: SIL OFL 1.1, Code: MIT License) Copyright 2025 Fonticons, Inc.--><path d="M256 464a208 208 0 1 1 0-416 208 208 0 1 1 0 416m0-464a256 256 0 1 0 0 512 256 256 0 1 0 0-512m-11.3 387.3c6.2 6.2 16.4 6.2 22.6 0l104-104c4.6-4.6 5.9-11.5 3.5-17.4s-8.3-9.9-14.8-9.9h-72V152c0-13.3-10.7-24-24-24h-16c-13.3 0-24 10.7-24 24v104h-72c-6.5 0-12.3 3.9-14.8 9.9s-1.1 12.9 3.5 17.4z"/></svg>