<svg xmlns="http://www.w3.org/2000/svg" viewBox="0 0 512 512"><!--! Font Awesome Free 7.1.0 by @fontawesome - https://fontawesome.com License - https://fontawesome.com/license/free (Icons: CC BY 4.0, Fonts: SIL OFL 1.1, Code: MIT License) Copyright 2025 Fonticons, Inc.--><path d="M448 112c8.8 0 16 7.2 16 16v256c0 8.8-7.2 16-16 16H64c-8.8 0-16-7.2-16-16V128c0-8.8 7.2-16 16-16zM64 64C28.7 64 0 92.7 0 128v256c0 35.3 28.7 64 64 64h384c35.3 0 64-28.7 64-64V128c0-35.3-28.7-64-64-64zm88 144h32c4.4 0 8 3.6 8 8 0 13.3 10.7 24 24 24s24-10.7 24-24c0-30.9-25.1-56-56-56h-32c-30.9 0-56 25.1-56 56v80c0 30.9 25.1 56 56 56h32c30.9 0 56-25.1 56-56 0-13.3-10.7-24-24-24s-24 10.7-24 24c0 4.4-3.6 8-8 8h-32c-4.4 0-8-3.6-8-8v-80c0-4.4 3.6-8 8-8m168 8c0-4.4 3.6-8 8-8h32c4.4 0 8 3.6 8 8 0 13.3 10.7 24 24 24s24-10.7 24-24c0-30.9-25.1-56-56-56h-32c-30.9 0-56 25.1-56 56v80c0 30.9 25.1 56 56 56h32c30.9 0 56-25.1 56-56 0-13.3-10.7-24-24-24s-24 10.7-24 24c0 4.4-3.6 8-8 8h-32c-4.4 0-8-3.6-8-8z"/></svg>