<svg xmlns="http://www.w3.org/2000/svg" viewBox="0 0 576 512"><!--! Font Awesome Free 7.1.0 by @fontawesome - https://fontawesome.com License - https://fontawesome.com/license/free (Icons: CC BY 4.0, Fonts: SIL OFL 1.1, Code: MIT License) Copyright 2025 Fonticons, Inc.--><path d="M80 192c0-88.4 71.6-160 160-160 47.1 0 89.4 20.4 118.7 52.7 10.6-3.1 21.8-4.7 33.3-4.7 66.3 0 120 53.7 120 120 0 13.2-2.1 25.9-6.1 37.8C547.5 258.9 576 302.1 576 352c0 70.7-57.3 128-128 128H144C64.5 480 0 415.5 0 336c0-56.8 32.9-105.9 80.7-129.4-.4-4.8-.7-9.7-.7-14.6M240 80c-61.9 0-112 50.1-112 112 0 8.4.9 16.6 2.7 24.5 2.7 12.1-4.3 24.3-16.1 28.1C75.9 257 48 293.3 48 336c0 53 43 96 96 96h304c44.2 0 80-35.8 80-80 0-37.4-25.7-68.9-60.5-77.6-7.5-1.9-13.6-7.2-16.5-14.3s-2.1-15.2 2-21.7c7-11.1 11-24.2 11-38.3 0-39.8-32.2-72-72-72-11.1 0-21.5 2.5-30.8 6.9-10.5 5-23.1 1.7-29.8-7.8-20.3-28.6-53.7-47.1-91.3-47.1z"/></svg>