<svg xmlns="http://www.w3.org/2000/svg" viewBox="0 0 512 512"><!--! Font Awesome Free 7.1.0 by @fontawesome - https://fontawesome.com License - https://fontawesome.com/license/free (Icons: CC BY 4.0, Fonts: SIL OFL 1.1, Code: MIT License) Copyright 2025 Fonticons, Inc.--><path d="M51.9 384.9C19.3 344.6 0 294.4 0 240 0 107.5 114.6 0 256 0s256 107.5 256 240-114.6 240-256 240c-36.5 0-71.2-7.2-102.6-20L37 509.9c-3.7 1.6-7.5 2.1-11.5 2.1C11.4 512 0 500.6 0 486.5c0-4.3 1.1-8.5 3.1-12.2zm37.3-30.2c12.2 15.1 14.1 36.1 4.8 53.2L76 441l58.5-25.1c11.8-5.1 25.2-5.2 37.1-.3 25.7 10.5 54.2 16.4 84.3 16.4 117.8 0 208-88.8 208-192S373.8 48 256 48 48 136.8 48 240c0 42.8 15.1 82.4 41.2 114.7"/></svg>