<svg xmlns="http://www.w3.org/2000/svg" viewBox="0 0 512 512"><!--! Font Awesome Free 7.1.0 by @fontawesome - https://fontawesome.com License - https://fontawesome.com/license/free (Icons: CC BY 4.0, Fonts: SIL OFL 1.1, Code: MIT License) Copyright 2025 Fonticons, Inc.--><path d="M0 240c0 54.4 19.3 104.6 51.9 144.9L3.1 474.3c-2 3.7-3.1 7.9-3.1 12.2C0 500.6 11.4 512 25.5 512c4 0 7.8-.6 11.5-2.1L153.4 460c31.4 12.9 66.1 20 102.6 20 141.4 0 256-107.5 256-240S397.4 0 256 0 0 107.5 0 240m94 167.9c9.3-17.1 7.4-38.1-4.8-53.2C63.1 322.4 48 282.8 48 240c0-103.2 90.2-192 208-192s208 88.8 208 192-90.2 192-208 192c-30.2 0-58.7-5.9-84.3-16.4-11.9-4.9-25.3-4.8-37.1.3l-58.6 25zM144 272a32 32 0 1 0 0-64 32 32 0 1 0 0 64m144-32a32 32 0 1 0-64 0 32 32 0 1 0 64 0m80 32a32 32 0 1 0 0-64 32 32 0 1 0 0 64"/></svg>