<svg xmlns="http://www.w3.org/2000/svg" viewBox="0 0 512 512"><!--! Font Awesome Free 7.1.0 by @fontawesome - https://fontawesome.com License - https://fontawesome.com/license/free (Icons: CC BY 4.0, Fonts: SIL OFL 1.1, Code: MIT License) Copyright 2025 Fonticons, Inc.--><path d="m203.7 512.9-37.8 26.7c-7.3 5.2-16.9 5.8-24.9 1.7S128 529 128 520v-72H96c-53 0-96-43-96-96V128c0-53 43-96 96-96h320c53 0 96 43 96 96v224c0 53-43 96-96 96H295.6zM268 408.8c8.1-5.7 17.8-8.8 27.7-8.8H416c26.5 0 48-21.5 48-48V128c0-26.5-21.5-48-48-48H96c-26.5 0-48 21.5-48 48v224c0 26.5 21.5 48 48 48h56c10.4 0 19.3 6.6 22.6 15.9.9 2.5 1.4 5.2 1.4 8.1v49.7c32.7-23.1 63.3-44.7 91.9-64.9z"/></svg>