<svg xmlns="http://www.w3.org/2000/svg" viewBox="0 0 512 512"><!--! Font Awesome Free 7.1.0 by @fontawesome - https://fontawesome.com License - https://fontawesome.com/license/free (Icons: CC BY 4.0, Fonts: SIL OFL 1.1, Code: MIT License) Copyright 2025 Fonticons, Inc.--><path d="M61.4 64C27.5 64 0 91.5 0 125.4c0 .9 0 1.7.1 2.6H0v256c0 35.3 28.7 64 64 64h384c35.3 0 64-28.7 64-64V128h-.1c0-.9.1-1.7.1-2.6 0-33.9-27.5-61.4-61.4-61.4zM464 192.3V384c0 8.8-7.2 16-16 16H64c-8.8 0-16-7.2-16-16V192.3l154.8 117.4c31.4 23.9 74.9 23.9 106.4 0zM48 125.4c0-7.4 6-13.4 13.4-13.4h389.2c7.4 0 13.4 6 13.4 13.4 0 4.2-2 8.2-5.3 10.7L280.2 271.5c-14.3 10.8-34.1 10.8-48.4 0L53.3 136.1c-3.3-2.5-5.3-6.5-5.3-10.7"/></svg>