<svg xmlns="http://www.w3.org/2000/svg" viewBox="0 0 576 512"><!--! Font Awesome Free 7.1.0 by @fontawesome - https://fontawesome.com License - https://fontawesome.com/license/free (Icons: CC BY 4.0, Fonts: SIL OFL 1.1, Code: MIT License) Copyright 2025 Fonticons, Inc.--><path d="M41-24.9c-9.4-9.4-24.6-9.4-33.9 0S-2.3-.3 7 9.1l528 528c9.4 9.4 24.6 9.4 33.9 0s9.4-24.6 0-33.9l-96.4-96.4c2.7-2.4 5.4-4.8 8-7.2 46.8-43.5 78.1-95.4 93-131.1 3.3-7.9 3.3-16.7 0-24.6-14.9-35.7-46.2-87.7-93-131.1-47.1-43.7-111.8-80.6-192.6-80.6-56.8 0-105.6 18.2-146 44.2zm135.9 136C209 92.2 246.1 80 288 80c65.2 0 118.8 29.6 159.9 67.7C486.4 183.4 513 226 526.5 256c-13.6 30-40.2 72.5-78.6 108.3-3.1 2.8-6.2 5.6-9.4 8.4L393.8 328c14-20.5 22.2-45.3 22.2-72 0-70.7-57.3-128-128-128-26.7 0-51.5 8.2-72 22.2zm182 182-108-108c11.1-5.8 23.7-9.1 37.1-9.1 44.2 0 80 35.8 80 80 0 13.4-3.3 26-9.1 37.1M103.4 173.2l-34-34C36.8 176 14.4 215 2.5 243.7c-3.3 7.9-3.3 16.7 0 24.6 14.9 35.7 46.2 87.7 93 131.1 47.1 43.7 111.8 80.6 192.6 80.6 37.3 0 71.2-7.9 101.5-20.6L352.2 422c-20 6.4-41.4 10-64.2 10-65.2 0-118.8-29.6-159.9-67.7C89.6 328.6 63 286 49.5 256c10.4-23.1 28.6-53.6 54-82.8z"/></svg>