<svg xmlns="http://www.w3.org/2000/svg" viewBox="0 0 512 512"><!--! Font Awesome Free 6.6.0 by @fontawesome - https://fontawesome.com License - https://fontawesome.com/license/free (Icons: CC BY 4.0, Fonts: SIL OFL 1.1, Code: MIT License) Copyright 2024 Fonticons, Inc.--><path d="M464 256a208 208 0 1 1-416 0 208 208 0 1 1 416 0M256 0a256 256 0 1 0 0 512 256 256 0 1 0 0-512m-95.6 248a24 24 0 1 0 0-48 24 24 0 1 0 0 48m216-24a24 24 0 1 0-48 0 24 24 0 1 0 48 0M192 336c-13.3 0-24 10.7-24 24s10.7 24 24 24h128c13.3 0 24-10.7 24-24s-10.7-24-24-24zm-32-160a48 48 0 1 1 0 96 48 48 0 1 1 0-96m0 128a80 80 0 1 0 0-160 80 80 0 1 0 0 160m144-80a48 48 0 1 1 96 0 48 48 0 1 1-96 0m128 0a80 80 0 1 0-160 0 80 80 0 1 0 160 0"/></svg>