<svg xmlns="http://www.w3.org/2000/svg" viewBox="0 0 512 512"><!--! Font Awesome Free 7.1.0 by @fontawesome - https://fontawesome.com License - https://fontawesome.com/license/free (Icons: CC BY 4.0, Fonts: SIL OFL 1.1, Code: MIT License) Copyright 2025 Fonticons, Inc.--><path d="M464 256a208 208 0 1 0-416 0 208 208 0 1 0 416 0M0 256a256 256 0 1 1 512 0 256 256 0 1 1-512 0m118.3 58.2c-4.2-13.7 7.1-26.2 21.4-26.2h232.6c14.3 0 25.6 12.5 21.4 26.2C375.7 373.1 320.8 416 256 416s-119.7-42.9-137.7-101.8M176 180c-15.5 0-28 12.5-28 28v8c0 11-9 20-20 20s-20-9-20-20v-8c0-37.6 30.4-68 68-68s68 30.4 68 68v8c0 11-9 20-20 20s-20-9-20-20v-8c0-15.5-12.5-28-28-28m132 28v8c0 11-9 20-20 20s-20-9-20-20v-8c0-37.6 30.4-68 68-68s68 30.4 68 68v8c0 11-9 20-20 20s-20-9-20-20v-8c0-15.5-12.5-28-28-28s-28 12.5-28 28"/></svg>