<svg xmlns="http://www.w3.org/2000/svg" viewBox="0 0 640 512"><!--! Font Awesome Free 7.1.0 by @fontawesome - https://fontawesome.com License - https://fontawesome.com/license/free (Icons: CC BY 4.0, Fonts: SIL OFL 1.1, Code: MIT License) Copyright 2025 Fonticons, Inc.--><path d="M504.1 353c8.8 14.2 21.2 26 35.7 34.2C495.1 462 413.4 512 320 512s-175.1-50-219.8-124.8c14.6-8.2 26.9-20 35.8-34.3 34.9 66 104.2 111 184.1 111s149.2-45 184.1-111zm16.4-152.5C496.2 112.6 415.7 48 320 48s-176.2 64.6-200.5 152.5c-10.6-4.8-22.7-6.8-35.4-5l-13.4 1.9C97.2 84.3 198.8 0 320 0s222.8 84.3 249.3 197.4l-13.4-1.9c-12.7-1.8-24.8.2-35.4 5M455.8 320c-19.8 55.9-73.1 96-135.8 96s-116-40-135.8-95.9c-4.1-11.6 7.8-21.4 19.6-17.8 34.7 10.6 74.2 16.5 116.1 16.5 42 0 81.5-6 116.3-16.6 11.8-3.6 23.7 6.1 19.6 17.8M212 208v8c0 11-9 20-20 20s-20-9-20-20v-8c0-37.6 30.4-68 68-68s68 30.4 68 68v8c0 11-9 20-20 20s-20-9-20-20v-8c0-15.5-12.5-28-28-28s-28 12.5-28 28m188-28c-15.5 0-28 12.5-28 28v8c0 11-9 20-20 20s-20-9-20-20v-8c0-37.6 30.4-68 68-68s68 30.4 68 68v8c0 11-9 20-20 20s-20-9-20-20v-8c0-15.5-12.5-28-28-28m240 120.6c0 28.4-23 51.4-51.4 51.4-25.6 0-47.3-18.8-50.9-44.1l-6.7-46.8c-1.5-10.6 7.5-19.6 18.1-18.1l46.7 6.7c25.3 3.6 44.1 25.3 44.1 50.9zm-640 0c0-25.6 18.8-47.3 44.1-50.9l46.8-6.7c10.6-1.5 19.6 7.5 18.1 18.1l-6.7 46.7C98.7 333.2 77 352 51.4 352 23 352 0 329 0 300.6"/></svg>