<svg xmlns="http://www.w3.org/2000/svg" viewBox="0 0 512 512"><!--! Font Awesome Free 7.1.0 by @fontawesome - https://fontawesome.com License - https://fontawesome.com/license/free (Icons: CC BY 4.0, Fonts: SIL OFL 1.1, Code: MIT License) Copyright 2025 Fonticons, Inc.--><path d="M64 48h224c8.8 0 16 7.2 16 16v48h48V64c0-35.3-28.7-64-64-64H64C28.7 0 0 28.7 0 64v320c0 35.3 28.7 64 64 64h112v-48H64c-8.8 0-16-7.2-16-16V64c0-8.8 7.2-16 16-16m176 72c0-13.3-10.7-24-24-24H104c-13.3 0-24 10.7-24 24s10.7 24 24 24h105.6c8.8-8.6 19-15.8 30.2-21.1.1-.9.2-1.9.2-2.9m208 344H288c-8.8 0-16-7.2-16-16V224c0-8.8 7.2-16 16-16h101.5c4.2 0 8.3 1.7 11.3 4.7l58.5 58.5c3 3 4.7 7.1 4.7 11.3V448c0 8.8-7.2 16-16 16M224 224v224c0 35.3 28.7 64 64 64h160c35.3 0 64-28.7 64-64V282.5c0-17-6.7-33.3-18.7-45.3l-58.5-58.5c-12-12-28.3-18.7-45.3-18.7H288c-35.3 0-64 28.7-64 64"/></svg>