<svg xmlns="http://www.w3.org/2000/svg" viewBox="0 0 384 512"><!--! Font Awesome Free 7.1.0 by @fontawesome - https://fontawesome.com License - https://fontawesome.com/license/free (Icons: CC BY 4.0, Fonts: SIL OFL 1.1, Code: MIT License) Copyright 2025 Fonticons, Inc.--><path d="M64 48h112v88c0 39.8 32.2 72 72 72h88v240c0 8.8-7.2 16-16 16H64c-8.8 0-16-7.2-16-16V64c0-8.8 7.2-16 16-16m160 19.9 92.1 92.1H248c-13.3 0-24-10.7-24-24zM64 0C28.7 0 0 28.7 0 64v384c0 35.3 28.7 64 64 64h256c35.3 0 64-28.7 64-64V186.5c0-17-6.7-33.3-18.7-45.3L242.7 18.7C230.7 6.7 214.5 0 197.5 0zm16 288v96c0 17.7 14.3 32 32 32h96c17.7 0 32-14.3 32-32v-24l35 35c3.2 3.2 7.5 5 12 5 9.4 0 17-7.6 17-17v-94.1c0-9.4-7.6-17-17-17-4.5 0-8.8 1.8-12 5l-35 35v-24c0-17.7-14.3-32-32-32h-96c-17.7 0-32 14.3-32 32z"/></svg>