<svg xmlns="http://www.w3.org/2000/svg" viewBox="0 0 576 512"><!--! Font Awesome Free 7.1.0 by @fontawesome - https://fontawesome.com License - https://fontawesome.com/license/free (Icons: CC BY 4.0, Fonts: SIL OFL 1.1, Code: MIT License) Copyright 2025 Fonticons, Inc.--><path d="M208 48H96c-8.8 0-16 7.2-16 16v384c0 8.8 7.2 16 16 16h80v48H96c-35.3 0-64-28.7-64-64V64C32 28.7 60.7 0 96 0h133.5c17 0 33.3 6.7 45.3 18.7l122.5 122.6c12 12 18.7 28.3 18.7 45.3v149.5h-48v-128h-88c-39.8 0-72-32.2-72-72v-88zm140.1 112L256 67.9V136c0 13.3 10.7 24 24 24zM240 380h32c33.1 0 60 26.9 60 60s-26.9 60-60 60h-12v28c0 11-9 20-20 20s-20-9-20-20V400c0-11 9-20 20-20m32 80c11 0 20-9 20-20s-9-20-20-20h-12v40zm96-80h32c28.7 0 52 23.3 52 52v64c0 28.7-23.3 52-52 52h-32c-11 0-20-9-20-20V400c0-11 9-20 20-20m32 128c6.6 0 12-5.4 12-12v-64c0-6.6-5.4-12-12-12h-12v88zm76-108c0-11 9-20 20-20h48c11 0 20 9 20 20s-9 20-20 20h-28v24h28c11 0 20 9 20 20s-9 20-20 20h-28v44c0 11-9 20-20 20s-20-9-20-20z"/></svg>