<svg xmlns="http://www.w3.org/2000/svg" viewBox="0 0 384 512"><!--! Font Awesome Free 7.1.0 by @fontawesome - https://fontawesome.com License - https://fontawesome.com/license/free (Icons: CC BY 4.0, Fonts: SIL OFL 1.1, Code: MIT License) Copyright 2025 Fonticons, Inc.--><path d="M64 48h112v88c0 39.8 32.2 72 72 72h88v240c0 8.8-7.2 16-16 16H64c-8.8 0-16-7.2-16-16V64c0-8.8 7.2-16 16-16m160 19.9 92.1 92.1H248c-13.3 0-24-10.7-24-24zM64 0C28.7 0 0 28.7 0 64v384c0 35.3 28.7 64 64 64h256c35.3 0 64-28.7 64-64V186.5c0-17-6.7-33.3-18.7-45.3L242.7 18.7C230.7 6.7 214.5 0 197.5 0zm157.9 267.6c-4.7 10-.3 21.9 9.7 26.6 19.2 8.9 32.4 28.3 32.4 50.8s-13.2 41.9-32.4 50.8c-10 4.7-14.4 16.6-9.7 26.6s16.6 14.4 26.6 9.7c32.7-15.3 55.5-48.5 55.5-87.1s-22.8-71.9-55.6-87.1c-10-4.7-21.9-.3-26.6 9.7zM104 305c-13.3 0-24 10.7-24 24v32c0 13.3 10.7 24 24 24h16l27.2 34c3 3.8 7.6 6 12.5 6h.3c8.8 0 16-7.2 16-16V281c0-8.8-7.2-16-16-16h-.3c-4.9 0-9.5 2.2-12.5 6L120 305zm119.3 68c9.9-5.4 16.7-16 16.7-28.1s-6.7-22.7-16.7-28.1c-7.8-4.2-15.3 3.3-15.3 12.1v32c0 8.8 7.6 16.3 15.3 12.1"/></svg>