<svg xmlns="http://www.w3.org/2000/svg" viewBox="0 0 384 512"><!--! Font Awesome Free 7.1.0 by @fontawesome - https://fontawesome.com License - https://fontawesome.com/license/free (Icons: CC BY 4.0, Fonts: SIL OFL 1.1, Code: MIT License) Copyright 2025 Fonticons, Inc.--><path d="M176 48H64c-8.8 0-16 7.2-16 16v384c0 8.8 7.2 16 16 16h256c8.8 0 16-7.2 16-16V208h-88c-39.8 0-72-32.2-72-72zm140.1 112L224 67.9V136c0 13.3 10.7 24 24 24zM0 64C0 28.7 28.7 0 64 0h133.5c17 0 33.3 6.7 45.3 18.7l122.5 122.6c12 12 18.7 28.3 18.7 45.3V448c0 35.3-28.7 64-64 64H64c-35.3 0-64-28.7-64-64zm259.4 368H124.6c-15.8 0-28.6-12.8-28.6-28.6 0-6.4 2.1-12.5 6-17.6l67.6-86.9C175 292 183.3 288 192 288s17 4 22.4 10.9l67.6 87c3.9 5 6 11.2 6 17.6 0 15.8-12.8 28.6-28.6 28.6zM112 224a32 32 0 1 1 0 64 32 32 0 1 1 0-64"/></svg>