<svg xmlns="http://www.w3.org/2000/svg" viewBox="0 0 448 512"><!--! Font Awesome Free 7.1.0 by @fontawesome - https://fontawesome.com License - https://fontawesome.com/license/free (Icons: CC BY 4.0, Fonts: SIL OFL 1.1, Code: MIT License) Copyright 2025 Fonticons, Inc.--><path d="M64 80c-8.8 0-16 7.2-16 16v320c0 8.8 7.2 16 16 16h320c8.8 0 16-7.2 16-16V173.3c0-4.2-1.7-8.3-4.7-11.3L320 86.6V176c0 17.7-14.3 32-32 32H128c-17.7 0-32-14.3-32-32V80zm80 0v80h128V80zM0 96c0-35.3 28.7-64 64-64h242.7c17 0 33.3 6.7 45.3 18.7l77.3 77.3c12 12 18.7 28.3 18.7 45.3V416c0 35.3-28.7 64-64 64H64c-35.3 0-64-28.7-64-64zm160 224a64 64 0 1 1 128 0 64 64 0 1 1-128 0"/></svg>