<svg xmlns="http://www.w3.org/2000/svg" viewBox="0 0 512 512"><!--! Font Awesome Free 7.1.0 by @fontawesome - https://fontawesome.com License - https://fontawesome.com/license/free (Icons: CC BY 4.0, Fonts: SIL OFL 1.1, Code: MIT License) Copyright 2025 Fonticons, Inc.--><path d="M448 400H64c-8.8 0-16-7.2-16-16V240h416v144c0 8.8-7.2 16-16 16m16-208H48V96c0-8.8 7.2-16 16-16h138.7c3.5 0 6.8 1.1 9.6 3.2l38.4 28.8c13.8 10.4 30.7 16 48 16H448c8.8 0 16 7.2 16 16zM64 448h384c35.3 0 64-28.7 64-64V144c0-35.3-28.7-64-64-64H298.7c-6.9 0-13.7-2.2-19.2-6.4l-38.4-28.8C230 36.5 216.5 32 202.7 32H64C28.7 32 0 60.7 0 96v288c0 35.3 28.7 64 64 64"/></svg>