<svg xmlns="http://www.w3.org/2000/svg" viewBox="0 0 576 512"><!--! Font Awesome Free 7.1.0 by @fontawesome - https://fontawesome.com License - https://fontawesome.com/license/free (Icons: CC BY 4.0, Fonts: SIL OFL 1.1, Code: MIT License) Copyright 2025 Fonticons, Inc.--><path d="m97.5 400 50-160h379.4l-50 160zm190.7 48H477c21 0 39.6-13.6 45.8-33.7l50-160c9.7-30.9-13.4-62.3-45.8-62.3H147.6c-21 0-39.6 13.6-45.8 33.7l-21.6 68.7V96c0-8.8 7.2-16 16-16h138.7c3.5 0 6.8 1.1 9.6 3.2l38.4 28.8c13.8 10.4 30.7 16 48 16h117.3c8.8 0 16 7.2 16 16h48c0-35.3-28.7-64-64-64H330.9c-6.9 0-13.7-2.2-19.2-6.4l-38.4-28.8C262.2 36.5 248.8 32 234.9 32H96.2c-35.3 0-64 28.7-64 64v288c0 35.3 28.7 64 64 64z"/></svg>