<svg xmlns="http://www.w3.org/2000/svg" viewBox="0 0 512 512"><!--! Font Awesome Free 7.1.0 by @fontawesome - https://fontawesome.com License - https://fontawesome.com/license/free (Icons: CC BY 4.0, Fonts: SIL OFL 1.1, Code: MIT License) Copyright 2025 Fonticons, Inc.--><path d="M64 400h384c8.8 0 16-7.2 16-16V144c0-8.8-7.2-16-16-16H298.7c-17.3 0-34.2-5.6-48-16l-38.4-28.8c-2.8-2.1-6.1-3.2-9.6-3.2H64c-8.8 0-16 7.2-16 16v288c0 8.8 7.2 16 16 16m384 48H64c-35.3 0-64-28.7-64-64V96c0-35.3 28.7-64 64-64h138.7c13.8 0 27.3 4.5 38.4 12.8l38.4 28.8c5.5 4.2 12.3 6.4 19.2 6.4H448c35.3 0 64 28.7 64 64v240c0 35.3-28.7 64-64 64"/></svg>