<svg xmlns="http://www.w3.org/2000/svg" viewBox="0 0 512 512"><!--! Font Awesome Free 7.1.0 by @fontawesome - https://fontawesome.com License - https://fontawesome.com/license/free (Icons: CC BY 4.0, Fonts: SIL OFL 1.1, Code: MIT License) Copyright 2025 Fonticons, Inc.--><path d="M403.1 403.1c67.2-67.2 78.8-168.9 34.9-248l36.7-5.2c4.5-.6 8.8-1.6 13.1-2.8 44.6 94.9 27.7 211.5-50.7 290s-195.1 95.3-290 50.7c1.2-4.2 2.1-8.6 2.8-13.1l5.2-36.7c79.1 43.9 180.8 32.3 248-34.9M75 75c78.4-78.4 195.1-95.3 290-50.7-1.2 4.2-2.1 8.6-2.8 13.1L357 74.1C277.9 30.2 176.2 41.8 109 109S30.2 277.9 74.1 357l-36.7 5.2c-4.5.6-8.8 1.6-13.1 2.8C-20.3 270.1-3.4 153.5 75 75m295.9 131.5c5.8-10.9 21.1-12.4 26.4-1.3 25.6 53.5 16.2 119.6-28.2 163.9-44.3 44.3-110.3 53.7-163.8 28.2-11.1-5.3-9.6-20.6 1.3-26.4 32-17.1 64.2-40.8 93.8-70.4 29.7-29.7 53.4-61.9 70.5-94M93.3 281.9c-1.7-8 2.9-15.9 10.6-18.4l84.6-28c5.7-1.9 12.1-.4 16.3 3.9s5.8 10.6 3.9 16.3l-28 84.6c-2.6 7.7-10.5 12.3-18.4 10.6s-13.4-9-12.7-17.1l3.9-43.1-43.1 3.9c-8.1.7-15.5-4.7-17.1-12.7m201.3-171.5-3.9 43.1 43.1-3.9c8.1-.7 15.5 4.7 17.1 12.7s-2.9 15.9-10.6 18.4l-84.6 28c-5.7 1.9-12.1.4-16.3-3.9s-5.8-10.6-3.9-16.3l28-84.6c2.6-7.7 10.5-12.3 18.4-10.6s13.4 9 12.7 17.1m217.4-59c0 25.6-18.8 47.3-44.1 50.9l-46.8 6.7c-10.6 1.5-19.6-7.5-18.1-18.1l6.7-46.7C413.3 18.8 435 0 460.6 0 489 0 512 23 512 51.4M44.1 409.7l46.8-6.7c10.6-1.5 19.6 7.5 18.1 18.1l-6.7 46.7C98.7 493.2 77 512 51.4 512 23 512 0 489 0 460.6c0-25.6 18.8-47.3 44.1-50.9"/></svg>