<svg xmlns="http://www.w3.org/2000/svg" viewBox="0 0 512 512"><!--! Font Awesome Free 7.1.0 by @fontawesome - https://fontawesome.com License - https://fontawesome.com/license/free (Icons: CC BY 4.0, Fonts: SIL OFL 1.1, Code: MIT License) Copyright 2025 Fonticons, Inc.--><path d="M464 256a208 208 0 1 0-416 0 208 208 0 1 0 416 0M0 256a256 256 0 1 1 512 0 256 256 0 1 1-512 0m372.2 46.3c11.8-3.6 23.7 6.1 19.6 17.8-19.8 55.9-73.1 96-135.8 96s-116-40-135.8-95.9c-4.1-11.6 7.8-21.4 19.6-17.8 34.7 10.6 74.2 16.5 116.1 16.5 42 0 81.5-6 116.3-16.6M144 208a32 32 0 1 1 64 0 32 32 0 1 1-64 0m164 8c0 11-9 20-20 20s-20-9-20-20c0-33.1 26.9-60 60-60h16c33.1 0 60 26.9 60 60 0 11-9 20-20 20s-20-9-20-20-9-20-20-20h-16c-11 0-20 9-20 20"/></svg>