<svg xmlns="http://www.w3.org/2000/svg" viewBox="0 0 384 512"><!--! Font Awesome Free 7.1.0 by @fontawesome - https://fontawesome.com License - https://fontawesome.com/license/free (Icons: CC BY 4.0, Fonts: SIL OFL 1.1, Code: MIT License) Copyright 2025 Fonticons, Inc.--><path d="M96 400c-17.7 0-32 14.3-32 32v48c0 17.7 14.3 32 32 32h224c17.7 0 32-14.3 32-32v-48c0-17.7-14.3-32-32-32zm-22.8-48h64.6l-79.5-88.3c-6.6-7.4-10.3-16.9-10.3-26.8V204c0-16.1 11.9-29.5 27.4-31.7 11.8-1.7 20.6-11.8 20.6-23.8V72c0-13.3 10.7-24 24-24 7.2 0 13.6 3.1 18 8.1 4.6 5.2 11.1 8.1 18 8.1s13.4-3 18-8.1c4.4-5 10.8-8.1 18-8.1 8.5 0 15.9 4.4 20.2 11.1 6.9 10.7 20.9 14.2 32 8 3.5-1.9 7.4-3.1 11.8-3.1 10.6 0 19.7 6.9 22.8 16.6 3.8 11.7 15.9 18.7 28 16 1.7-.4 3.4-.6 5.2-.6 13.3 0 24 10.7 24 24v92.2c0 14.4-3.5 28.5-10.2 41.2L273.6 352h54.3l40.3-76.2c10.4-19.6 15.8-41.5 15.8-63.6V120c0-38.4-30.1-69.8-68.1-71.9C303 28.8 281 16 256 16c-5.7 0-11.2.7-16.5 1.9C226.8 6.8 210.2 0 192 0c-13.1 0-25.4 3.5-36 9.6C145.4 3.5 133.1 0 120 0 80.2 0 48 32.2 48 72v58.7C19.7 143 0 171.2 0 204v32.9c0 21.7 8 42.7 22.6 58.9z"/></svg>