<svg xmlns="http://www.w3.org/2000/svg" viewBox="0 0 448 512"><!--! Font Awesome Free 7.1.0 by @fontawesome - https://fontawesome.com License - https://fontawesome.com/license/free (Icons: CC BY 4.0, Fonts: SIL OFL 1.1, Code: MIT License) Copyright 2025 Fonticons, Inc.--><path d="M48 224c0-97.2 78.8-176 176-176s176 78.8 176 176v44.8c-14.1-8.2-30.5-12.8-48-12.8h-16c-26.5 0-48 21.5-48 48v128c0 26.5 21.5 48 48 48h16c53 0 96-43 96-96V224C448 100.3 347.7 0 224 0S0 100.3 0 224v160c0 53 43 96 96 96h16c26.5 0 48-21.5 48-48V304c0-26.5-21.5-48-48-48H96c-17.5 0-33.9 4.7-48 12.8zm0 128c0-26.5 21.5-48 48-48h16v128H96c-26.5 0-48-21.5-48-48zm352 0v32c0 26.5-21.5 48-48 48h-16V304h16c26.5 0 48 21.5 48 48"/></svg>