<svg xmlns="http://www.w3.org/2000/svg" viewBox="0 0 576 512"><!--! Font Awesome Free 7.1.0 by @fontawesome - https://fontawesome.com License - https://fontawesome.com/license/free (Icons: CC BY 4.0, Fonts: SIL OFL 1.1, Code: MIT License) Copyright 2025 Fonticons, Inc.--><path d="M176 0c-35.3 0-64 28.7-64 64v48H64c-35.3 0-64 28.7-64 64v272c0 35.3 28.7 64 64 64h448c35.3 0 64-28.7 64-64V176c0-35.3-28.7-64-64-64h-48V64c0-35.3-28.7-64-64-64zm-16 64c0-8.8 7.2-16 16-16h224c8.8 0 16 7.2 16 16v72c0 13.3 10.7 24 24 24h72c8.8 0 16 7.2 16 16v272c0 8.8-7.2 16-16 16H336v-80c0-17.7-14.3-32-32-32h-32c-17.7 0-32 14.3-32 32v80H64c-8.8 0-16-7.2-16-16V176c0-8.8 7.2-16 16-16h72c13.3 0 24-10.7 24-24zm-48 160c-8.8 0-16 7.2-16 16v32c0 8.8 7.2 16 16 16h32c8.8 0 16-7.2 16-16v-32c0-8.8-7.2-16-16-16zM96 336v32c0 8.8 7.2 16 16 16h32c8.8 0 16-7.2 16-16v-32c0-8.8-7.2-16-16-16h-32c-8.8 0-16 7.2-16 16m320 0v32c0 8.8 7.2 16 16 16h32c8.8 0 16-7.2 16-16v-32c0-8.8-7.2-16-16-16h-32c-8.8 0-16 7.2-16 16m16-112c-8.8 0-16 7.2-16 16v32c0 8.8 7.2 16 16 16h32c8.8 0 16-7.2 16-16v-32c0-8.8-7.2-16-16-16zM264 104v32h-32c-8.8 0-16 7.2-16 16v16c0 8.8 7.2 16 16 16h32v32c0 8.8 7.2 16 16 16h16c8.8 0 16-7.2 16-16v-32h32c8.8 0 16-7.2 16-16v-16c0-8.8-7.2-16-16-16h-32v-32c0-8.8-7.2-16-16-16h-16c-8.8 0-16 7.2-16 16"/></svg>