<svg xmlns="http://www.w3.org/2000/svg" viewBox="0 0 576 512"><!--! Font Awesome Free 7.1.0 by @fontawesome - https://fontawesome.com License - https://fontawesome.com/license/free (Icons: CC BY 4.0, Fonts: SIL OFL 1.1, Code: MIT License) Copyright 2025 Fonticons, Inc.--><path d="M480 80c8.8 0 16 7.2 16 16v256c0 8.8-7.2 16-16 16H160c-8.8 0-16-7.2-16-16V96c0-8.8 7.2-16 16-16zM160 32c-35.3 0-64 28.7-64 64v256c0 35.3 28.7 64 64 64h320c35.3 0 64-28.7 64-64V96c0-35.3-28.7-64-64-64zm80 112a32 32 0 1 0-64 0 32 32 0 1 0 64 0m140.7 3.8c-4.3-7.3-12.2-11.8-20.7-11.8s-16.4 4.5-20.7 11.8l-46.5 79-17.2-24.6c-4.5-6.4-11.8-10.2-19.7-10.2s-15.2 3.8-19.7 10.2l-56 80c-5.1 7.3-5.8 16.9-1.6 24.8s12.5 13 21.4 13h240c8.6 0 16.6-4.6 20.8-12.1s4.2-16.7-.1-24.1zM48 152c0-13.3-10.7-24-24-24S0 138.7 0 152v296c0 35.3 28.7 64 64 64h360c13.3 0 24-10.7 24-24s-10.7-24-24-24H64c-8.8 0-16-7.2-16-16z"/></svg>