<svg xmlns="http://www.w3.org/2000/svg" viewBox="0 0 640 512"><!--! Font Awesome Free 7.1.0 by @fontawesome - https://fontawesome.com License - https://fontawesome.com/license/free (Icons: CC BY 4.0, Fonts: SIL OFL 1.1, Code: MIT License) Copyright 2025 Fonticons, Inc.--><path d="M386 439.5c-29.2 15.6-62.5 24.5-98 24.5-114.9 0-208-93.1-208-208S173.2 48 288 48c113.2 0 205.2 90.4 207.9 202.9 14.3 1.5 28.6 6 41.9 13.7 2 1.2 4 2.4 5.9 3.7q.3-6.15.3-12.3C544 114.6 429.4 0 288 0S32 114.6 32 256s114.6 256 256 256c41.4 0 80.5-9.8 115.1-27.3-5.8-12.9-12-28.5-17.2-45.2zM256 288c0 8.8 7.2 16 16 16h16c8.8 0 16 7.2 16 16s-7.2 16-16 16h-16c-8.8 0-16 7.2-16 16s7.2 16 16 16h16c8.8 0 16 7.2 16 16s-7.2 16-16 16h-16c-8.8 0-16 7.2-16 16s7.2 16 16 16h32c26.5 0 48-21.5 48-48 0-12.3-4.6-23.5-12.2-32 7.6-8.5 12.2-19.7 12.2-32 0-26.5-21.5-48-48-48h-32c-8.8 0-16 7.2-16 16m-48-48a32 32 0 1 0 0-64 32 32 0 1 0 0 64m152-44h16c11 0 20 9 20 20s9 20 20 20 20-9 20-20c0-33.1-26.9-60-60-60h-16c-33.1 0-60 26.9-60 60 0 11 9 20 20 20s20-9 20-20 9-20 20-20m182.8 154c-2.2-18.3-12.9-34.6-28.9-43.8-28.1-16.2-63.9-6.6-80.1 21.5l-2.7 4.6c-24.5 42.5 7.9 117.9 24.4 150.8 5.1 10.1 15.5 16.1 26.8 15.5 36.7-2.2 118.2-11.7 142.8-54.2l2.7-4.6c16.2-28.1 6.6-63.9-21.5-80.1-16-9.2-35.4-10.4-52.4-3.1l-9.8 4.2-1.3-10.6z"/></svg>