<svg xmlns="http://www.w3.org/2000/svg" viewBox="0 0 512 512"><!--! Font Awesome Free 7.1.0 by @fontawesome - https://fontawesome.com License - https://fontawesome.com/license/free (Icons: CC BY 4.0, Fonts: SIL OFL 1.1, Code: MIT License) Copyright 2025 Fonticons, Inc.--><path d="M464 256a208 208 0 1 0-416 0 208 208 0 1 0 416 0M0 256a256 256 0 1 1 512 0 256 256 0 1 1-512 0m125.2 76.4c-6.5-14 5-28.4 20.4-28.4h220.8c15.4 0 26.8 14.4 20.4 28.4C364 381.8 314 416 256 416s-107.9-34.2-130.8-83.6m-2.6-173.2c4.5-6.8 13.3-9.2 20.6-5.5l79.6 40c5.4 2.7 8.8 8.2 8.8 14.3s-3.4 11.6-8.8 14.3l-79.6 40c-7.3 3.6-16.1 1.3-20.6-5.5s-3.1-15.9 3.1-21.1L159 208l-33.2-27.7c-6.2-5.2-7.6-14.3-3.1-21.1zm263.6 21.1L353 208l33.2 27.7c6.2 5.2 7.6 14.3 3.1 21.1s-13.3 9.2-20.6 5.5l-79.6-40c-5.4-2.7-8.8-8.2-8.8-14.3s3.4-11.6 8.8-14.3l79.6-40c7.3-3.6 16.1-1.3 20.6 5.5s3.1 15.9-3.1 21.1"/></svg>