<svg xmlns="http://www.w3.org/2000/svg" viewBox="0 0 384 512"><!--! Font Awesome Free 7.1.0 by @fontawesome - https://fontawesome.com License - https://fontawesome.com/license/free (Icons: CC BY 4.0, Fonts: SIL OFL 1.1, Code: MIT License) Copyright 2025 Fonticons, Inc.--><path d="M296.5 291.1C321 265.2 336 230.4 336 192c0-79.5-64.5-144-144-144S48 112.5 48 192c0 38.4 15 73.2 39.5 99.1 21.3 22.4 44.9 54 53.3 92.9h102.4c8.4-39 32-70.5 53.3-92.9m34.8 33C307.7 349 288 379.4 288 413.7V432c0 44.2-35.8 80-80 80h-32c-44.2 0-80-35.8-80-80v-18.3c0-34.3-19.7-64.7-43.3-89.6C20 289.7 0 243.2 0 192 0 86 86 0 192 0s192 86 192 192c0 51.2-20 97.7-52.7 132.1M144 184c0 13.3-10.7 24-24 24s-24-10.7-24-24c0-48.6 39.4-88 88-88 13.3 0 24 10.7 24 24s-10.7 24-24 24c-22.1 0-40 17.9-40 40"/></svg>