<svg xmlns="http://www.w3.org/2000/svg" viewBox="0 0 512 512"><!--! Font Awesome Free 7.1.0 by @fontawesome - https://fontawesome.com License - https://fontawesome.com/license/free (Icons: CC BY 4.0, Fonts: SIL OFL 1.1, Code: MIT License) Copyright 2025 Fonticons, Inc.--><path d="M512 48c0-8.3-4.3-16-11.3-20.4s-15.9-4.8-23.3-1.1L352.5 88.1 180 29.4c-13.7-4.7-28.7-3.8-41.9 2.3L13.8 90.3C5.4 94.2 0 102.7 0 112v352c0 8.2 4.2 15.9 11.1 20.3s15.6 4.9 23.1 1.4l127.3-59.9 170.7 56.9c13.7 4.6 28.5 3.7 41.6-2.5l124.4-58.5c8.4-4 13.8-12.4 13.8-21.7zM144 82.1v299l-96 45.2v-299zm48 303.3V84.3l128 43.5v300.3zM368 134l96-47.4v298.2L368 430z"/></svg>