<svg xmlns="http://www.w3.org/2000/svg" viewBox="0 0 512 512"><!--! Font Awesome Free 7.1.0 by @fontawesome - https://fontawesome.com License - https://fontawesome.com/license/free (Icons: CC BY 4.0, Fonts: SIL OFL 1.1, Code: MIT License) Copyright 2025 Fonticons, Inc.--><path d="M112 112c0 35.3-28.7 64-64 64v160c35.3 0 64 28.7 64 64h288c0-35.3 28.7-64 64-64V176c-35.3 0-64-28.7-64-64zM0 128c0-35.3 28.7-64 64-64h384c35.3 0 64 28.7 64 64v256c0 35.3-28.7 64-64 64H64c-35.3 0-64-28.7-64-64zm256 16a112 112 0 1 1 0 224 112 112 0 1 1 0-224m-16 44c-11 0-20 9-20 20 0 9.7 6.9 17.7 16 19.6V276h-4c-11 0-20 9-20 20s9 20 20 20h48c11 0 20-9 20-20s-9-20-20-20h-4v-68c0-11-9-20-20-20z"/></svg>