<svg xmlns="http://www.w3.org/2000/svg" viewBox="0 0 512 512"><!--! Font Awesome Free 7.1.0 by @fontawesome - https://fontawesome.com License - https://fontawesome.com/license/free (Icons: CC BY 4.0, Fonts: SIL OFL 1.1, Code: MIT License) Copyright 2025 Fonticons, Inc.--><path d="M239.3 48.7C132.2 57.2 48 146.8 48 256c0 114.9 93.1 208 208 208 33.3 0 64.7-7.8 92.6-21.7C245.2 418.9 168 326.5 168 216c0-65.8 27.4-125.1 71.3-167.3M0 256C0 114.6 114.6 0 256 0c19.4 0 38.4 2.2 56.7 6.3 9.9 2.2 17.3 10.5 18.5 20.5s-4 19.8-13.1 24.4C257.5 81.4 216 143.9 216 216c0 101.6 82.4 184 184 184 5 0 9.9-.2 14.8-.6 10.1-.8 19.6 4.8 23.8 14.1s2 20.1-5.3 27.1C387.3 484.8 324.8 512 256 512 114.6 512 0 397.4 0 256"/></svg>