<svg xmlns="http://www.w3.org/2000/svg" viewBox="0 0 576 512"><!--! Font Awesome Free 7.1.0 by @fontawesome - https://fontawesome.com License - https://fontawesome.com/license/free (Icons: CC BY 4.0, Fonts: SIL OFL 1.1, Code: MIT License) Copyright 2025 Fonticons, Inc.--><path d="M40 64a24 24 0 1 1 48 0 24 24 0 1 1-48 0m48 59.3c16-6.5 28.9-19.3 35.3-35.3h329.3c6.5 16 19.3 28.9 35.3 35.3v265.3c-16 6.5-28.9 19.3-35.3 35.3H123.3c-6.5-16-19.3-28.9-35.3-35.3zM512 0c-26.9 0-49.9 16.5-59.3 40H123.3C113.9 16.5 90.9 0 64 0 28.7 0 0 28.7 0 64c0 26.9 16.5 49.9 40 59.3v265.3c-23.5 9.5-40 32.5-40 59.3 0 35.3 28.7 64 64 64 26.9 0 49.9-16.5 59.3-40h329.3c9.5 23.5 32.5 40 59.3 40 35.3 0 64-28.7 64-64 0-26.9-16.5-49.9-40-59.3V123.3c23.5-9.5 40-32.5 40-59.3 0-35.3-28.7-64-64-64zm-24 64a24 24 0 1 1 48 0 24 24 0 1 1-48 0M64 424a24 24 0 1 1 0 48 24 24 0 1 1 0-48m424 24a24 24 0 1 1 48 0 24 24 0 1 1-48 0M192 176h88v56h-88zm-8-40c-17.7 0-32 14.3-32 32v72c0 17.7 14.3 32 32 32h104c17.7 0 32-14.3 32-32v-72c0-17.7-14.3-32-32-32zm72 184v24c0 17.7 14.3 32 32 32h104c17.7 0 32-14.3 32-32v-72c0-17.7-14.3-32-32-32h-24c0 14.6-3.9 28.2-10.7 40H384v56h-88v-16.4c-2.6.3-5.3.4-8 .4z"/></svg>