<svg xmlns="http://www.w3.org/2000/svg" viewBox="0 0 640 512"><!--! Font Awesome Free 7.1.0 by @fontawesome - https://fontawesome.com License - https://fontawesome.com/license/free (Icons: CC BY 4.0, Fonts: SIL OFL 1.1, Code: MIT License) Copyright 2025 Fonticons, Inc.--><path d="M48.2 66.8c-.1-.8-.2-1.7-.2-2.5v-.2c0-8.8 7.2-16 16-16 .9 0 1.9.1 2.8.2C74.3 49.6 80 56.2 80 64.1c0 8.8-7.2 16-16 16-7.9 0-14.5-5.7-15.8-13.2zM0 64c0 26.9 16.5 49.9 40 59.3v105.3c-23.5 9.5-40 32.5-40 59.3 0 35.3 28.7 64 64 64 26.9 0 49.9-16.5 59.3-40h201.3c9.5 23.5 32.5 40 59.3 40 35.3 0 64-28.7 64-64 0-26.9-16.5-49.9-40-59.3V123.3c23.5-9.5 40-32.5 40-59.3 0-35.3-28.7-64-64-64C357 0 334 16.5 324.6 40H123.3C113.9 16.5 90.9 0 64 0 28.7 0 0 28.7 0 64m368 0a16 16 0 1 1 32 0 16 16 0 1 1-32 0m-43.3 24c6.5 16 19.3 28.9 35.3 35.3v105.3c-16 6.5-28.9 19.3-35.3 35.3H123.4c-6.5-16-19.3-28.9-35.3-35.3V123.3c16-6.5 28.9-19.3 35.3-35.3zM384 272a16 16 0 1 1 0 32 16 16 0 1 1 0-32M80 288c0 7.9-5.7 14.5-13.2 15.8-.8.1-1.7.2-2.5.2h-.2c-8.8 0-16-7.2-16-16 0-.9.1-1.9.2-2.8 1.3-7.5 7.9-13.2 15.8-13.2 8.8 0 16 7.2 16 16zm436.7-40c6.5 16 19.3 28.9 35.3 35.3v105.3c-16 6.5-28.9 19.3-35.3 35.3H315.4c-6.5-16-19.3-28.9-35.3-35.3v-20.7h-48v20.7c-23.5 9.5-40 32.5-40 59.3 0 35.3 28.7 64 64 64 26.9 0 49.9-16.5 59.3-40h201.3c9.5 23.5 32.5 40 59.3 40 35.3 0 64-28.7 64-64 0-26.9-16.5-49.9-40-59.3V283.3c23.5-9.5 40-32.5 40-59.3 0-35.3-28.7-64-64-64-26.9 0-49.9 16.5-59.3 40H464v9.6c10.7 10.9 19.1 23.9 24.6 38.4h28zm59.3-8a16 16 0 1 1 0-32 16 16 0 1 1 0 32M271.8 450.7a16 16 0 1 1-31.5-5.5 16 16 0 1 1 31.5 5.5m301.5 13c-7.5-1.3-13.2-7.9-13.2-15.8 0-8.8 7.2-16 16-16 7.9 0 14.5 5.7 15.8 13.2v.1c.1.9.2 1.8.2 2.7 0 8.8-7.2 16-16 16-.9 0-1.9-.1-2.8-.2"/></svg>