<svg xmlns="http://www.w3.org/2000/svg" viewBox="0 0 512 512"><!--! Font Awesome Free 7.1.0 by @fontawesome - https://fontawesome.com License - https://fontawesome.com/license/free (Icons: CC BY 4.0, Fonts: SIL OFL 1.1, Code: MIT License) Copyright 2025 Fonticons, Inc.--><path d="M256 48a208 208 0 1 1 0 416 208 208 0 1 1 0-416m0 464a256 256 0 1 0 0-512 256 256 0 1 0 0 512m-56-368c-13.3 0-24 10.7-24 24v176c0 13.3 10.7 24 24 24s24-10.7 24-24v-56h34.4l41 68.3c6.8 11.4 21.6 15 32.9 8.2s15-21.6 8.2-32.9l-30.2-50.3c24.6-11.5 41.6-36.4 41.6-65.3 0-39.8-32.2-72-72-72h-80zm72 96h-48v-48h56c13.3 0 24 10.7 24 24s-10.7 24-24 24z"/></svg>