<svg xmlns="http://www.w3.org/2000/svg" viewBox="0 0 512 512"><!--! Font Awesome Free 7.1.0 by @fontawesome - https://fontawesome.com License - https://fontawesome.com/license/free (Icons: CC BY 4.0, Fonts: SIL OFL 1.1, Code: MIT License) Copyright 2025 Fonticons, Inc.--><path d="M400 406.1V288c0-13.3-10.7-24-24-24s-24 10.7-24 24v152.6c-28.7 15-61.4 23.4-96 23.4s-67.3-8.5-96-23.4V288c0-13.3-10.7-24-24-24s-24 10.7-24 24v118.1C72.6 368.2 48 315 48 256c0-114.9 93.1-208 208-208s208 93.1 208 208c0 59-24.6 112.2-64 150.1M256 512a256 256 0 1 0 0-512 256 256 0 1 0 0 512M152 196h16c11 0 20 9 20 20s9 20 20 20 20-9 20-20c0-33.1-26.9-60-60-60h-16c-33.1 0-60 26.9-60 60 0 11 9 20 20 20s20-9 20-20 9-20 20-20m172 20c0-11 9-20 20-20h16c11 0 20 9 20 20s9 20 20 20 20-9 20-20c0-33.1-26.9-60-60-60h-16c-33.1 0-60 26.9-60 60 0 11 9 20 20 20s20-9 20-20M208 336v32c0 26.5 21.5 48 48 48s48-21.5 48-48v-32c0-26.5-21.5-48-48-48s-48 21.5-48 48"/></svg>