<svg xmlns="http://www.w3.org/2000/svg" viewBox="0 0 576 512"><!--! Font Awesome Free 7.1.0 by @fontawesome - https://fontawesome.com License - https://fontawesome.com/license/free (Icons: CC BY 4.0, Fonts: SIL OFL 1.1, Code: MIT License) Copyright 2025 Fonticons, Inc.--><path d="M425.5 7c-6.9-6.9-17.2-8.9-26.2-5.2S384.5 14.3 384.5 24v56h-48c-88.4 0-160 71.6-160 160 0 46.7 20.7 80.4 43.6 103.4 8.1 8.2 16.5 14.9 24.3 20.4 9.2 6.5 21.7 5.7 30.1-1.9s10.2-20 4.5-29.8c-3.6-6.3-6.5-14.9-6.5-26.7 0-36.2 29.3-65.5 65.5-65.5h46.5v56c0 9.7 5.8 18.5 14.8 22.2s19.3 1.7 26.2-5.2l136-136c9.4-9.4 9.4-24.6 0-33.9zm7 97V81.9l78.1 78.1-78.1 78.1V216c0-13.3-10.7-24-24-24H338c-50.9 0-93.9 33.5-108.3 79.6-3.3-9.4-5.2-19.8-5.2-31.6 0-61.9 50.1-112 112-112h72c13.3 0 24-10.7 24-24m-320-8c-44.2 0-80 35.8-80 80v256c0 44.2 35.8 80 80 80h256c44.2 0 80-35.8 80-80v-24c0-13.3-10.7-24-24-24s-24 10.7-24 24v24c0 17.7-14.3 32-32 32h-256c-17.7 0-32-14.3-32-32V176c0-17.7 14.3-32 32-32h24c13.3 0 24-10.7 24-24s-10.7-24-24-24z"/></svg>