<svg xmlns="http://www.w3.org/2000/svg" viewBox="0 0 576 512"><!--! Font Awesome Free 7.1.0 by @fontawesome - https://fontawesome.com License - https://fontawesome.com/license/free (Icons: CC BY 4.0, Fonts: SIL OFL 1.1, Code: MIT License) Copyright 2025 Fonticons, Inc.--><path d="M285.7-15.8c10.8 2.6 18.4 12.2 18.4 23.3v387.1c0 9-5.1 17.3-13.1 21.4l-147.2 75c-8 4.1-17.7 3.3-25-2s-11-14.2-9.6-23.2l25.2-159.9L20 191.4c-6.4-6.4-8.6-15.8-5.8-24.4s10.1-14.9 19.1-16.3l159.8-25.4L258.8-3.3c5-9.9 16.2-15 27-12.4zm-29.6 123.2L230.3 158c-3.5 6.8-10 11.6-17.6 12.8l-125.5 20 89.8 89.9c5.4 5.4 7.9 13.1 6.7 20.7l-19.8 125.5 92.2-46.9z"/></svg>