<svg xmlns="http://www.w3.org/2000/svg" viewBox="0 0 576 512"><!--! Font Awesome Free 7.1.0 by @fontawesome - https://fontawesome.com License - https://fontawesome.com/license/free (Icons: CC BY 4.0, Fonts: SIL OFL 1.1, Code: MIT License) Copyright 2025 Fonticons, Inc.--><path d="M200.6-7.9c-6.7-4.4-15.1-5.2-22.5-2.2S165.4-.5 163.9 7.3L143 110.6 39.7 131.4c-7.8 1.6-14.4 7-17.4 14.3s-2.2 15.8 2.2 22.5L82.7 256l-58.2 87.8c-4.4 6.7-5.2 15.1-2.2 22.5s9.6 12.8 17.4 14.3L143 401.4l20.9 103.3c1.6 7.8 7 14.4 14.3 17.4s15.8 2.2 22.5-2.2l87.8-58.2 87.8 58.2c6.7 4.4 15.1 5.2 22.5 2.2s12.8-9.6 14.3-17.4L434 401.5l103.2-20.9c7.8-1.6 14.4-7 17.4-14.3s2.2-15.8-2.2-22.5L494.2 256l58.2-87.8c4.4-6.7 5.2-15.1 2.2-22.5s-9.6-12.8-17.4-14.3l-103.4-20.8L413 7.3c-1.6-7.8-7-14.3-14.4-17.4s-15.8-2.2-22.5 2.2l-87.7 58.2zm-13.7 143.6 17-83.9 71.3 47.3c8 5.3 18.5 5.3 26.5 0L373 51.8l17 83.9c1.9 9.5 9.3 16.8 18.8 18.8l83.9 17-47.3 71.3c-5.3 8-5.3 18.5 0 26.5l47.3 71.3-83.9 17c-9.5 1.9-16.9 9.3-18.8 18.8l-17 83.9-71.3-47.3c-8-5.3-18.5-5.3-26.5 0l-71.3 47.3-17-83.9c-1.9-9.5-9.3-16.9-18.8-18.8l-83.9-17 47.3-71.3c5.3-8 5.3-18.5 0-26.5l-47.3-71.3 83.9-17c9.5-1.9 16.8-9.3 18.8-18.8M239.6 256a48.4 48.4 0 1 1 96.8 0 48.4 48.4 0 1 1-96.8 0m144.8 0a96.4 96.4 0 1 0-192.8 0 96.4 96.4 0 1 0 192.8 0"/></svg>