<svg xmlns="http://www.w3.org/2000/svg" viewBox="0 0 512 512"><!--! Font Awesome Free 7.1.0 by @fontawesome - https://fontawesome.com License - https://fontawesome.com/license/free (Icons: CC BY 4.0, Fonts: SIL OFL 1.1, Code: MIT License) Copyright 2025 Fonticons, Inc.--><path d="M64 112c-8.8 0-16 7.2-16 16v256c0 8.8 7.2 16 16 16h384c8.8 0 16-7.2 16-16V128c0-8.8-7.2-16-16-16zM0 128c0-35.3 28.7-64 64-64h384c35.3 0 64 28.7 64 64v256c0 35.3-28.7 64-64 64H64c-35.3 0-64-28.7-64-64zm334.1 49.9c9.4 9.4 9.4 24.6 0 33.9L290 255.9l44.1 44.1c9.4 9.4 9.4 24.6 0 33.9s-24.6 9.4-33.9 0l-44.1-44.1-44.1 44.1c-9.4 9.4-24.6 9.4-33.9 0s-9.4-24.6 0-33.9l44.1-44.1-44.1-44.1c-9.4-9.4-9.4-24.6 0-33.9s24.6-9.4 33.9 0l44.1 44.1 44.1-44.1c9.4-9.4 24.6-9.4 33.9 0"/></svg>