<svg xmlns="http://www.w3.org/2000/svg" viewBox="0 0 448 512"><!--! Font Awesome Free 7.1.0 by @fontawesome - https://fontawesome.com License - https://fontawesome.com/license/free (Icons: CC BY 4.0, Fonts: SIL OFL 1.1, Code: MIT License) Copyright 2025 Fonticons, Inc.--><path d="M166.2-16c-13.3 0-25.3 8.3-30 20.8L120 48H24C10.7 48 0 58.7 0 72s10.7 24 24 24h400c13.3 0 24-10.7 24-24s-10.7-24-24-24h-96L311.8 4.8c-4.7-12.5-16.6-20.8-30-20.8zM32 144v304c0 35.3 28.7 64 64 64h256c35.3 0 64-28.7 64-64V144h-48v304c0 8.8-7.2 16-16 16H96c-8.8 0-16-7.2-16-16V144zm160 72c0-13.3-10.7-24-24-24s-24 10.7-24 24v176c0 13.3 10.7 24 24 24s24-10.7 24-24zm112 0c0-13.3-10.7-24-24-24s-24 10.7-24 24v176c0 13.3 10.7 24 24 24s24-10.7 24-24z"/></svg>