<svg xmlns="http://www.w3.org/2000/svg" viewBox="0 0 576 512"><!--! Font Awesome Free 7.1.0 by @fontawesome - https://fontawesome.com License - https://fontawesome.com/license/free (Icons: CC BY 4.0, Fonts: SIL OFL 1.1, Code: MIT License) Copyright 2025 Fonticons, Inc.--><path d="M64 80c-8.8 0-16 7.2-16 16v288c0 8.8 7.2 16 16 16h3.3c10.4-36.9 44.4-64 84.7-64s74.2 27.1 84.7 64h102.6c4.9-17.4 15.1-32.7 28.7-43.9V96c0-8.8-7.2-16-16-16zm3.3 368H64c-35.3 0-64-28.7-64-64V96c0-35.3 28.7-64 64-64h288c35.3 0 64 28.7 64 64v32h55.4c17 0 33.3 6.7 45.3 18.7l40.6 40.6c12 12 18.7 28.3 18.7 45.3V384c0 35.3-28.7 64-64 64h-3.3c-10.4 36.9-44.4 64-84.7 64s-74.2-27.1-84.7-64H236.7c-10.4 36.9-44.4 64-84.7 64s-74.2-27.1-84.7-64M416 256h112v-23.4c0-4.2-1.7-8.3-4.7-11.3l-40.6-40.6c-3-3-7.1-4.7-11.3-4.7H416zm0 48v32.4c2.6-.2 5.3-.4 8-.4 40.3 0 74.2 27.1 84.7 64h3.3c8.8 0 16-7.2 16-16v-80zM152 464a40 40 0 1 0 0-80 40 40 0 1 0 0 80m272 0a40 40 0 1 0 0-80 40 40 0 1 0 0 80"/></svg>