<svg xmlns="http://www.w3.org/2000/svg" viewBox="0 0 448 512"><!--! Font Awesome Free 7.1.0 by @fontawesome - https://fontawesome.com License - https://fontawesome.com/license/free (Icons: CC BY 4.0, Fonts: SIL OFL 1.1, Code: MIT License) Copyright 2025 Fonticons, Inc.--><path d="M144 128a80 80 0 1 1 160 0 80 80 0 1 1-160 0m208 0a128 128 0 1 0-256 0 128 128 0 1 0 256 0M48 480c0-70.7 57.3-128 128-128h96c70.7 0 128 57.3 128 128v8c0 13.3 10.7 24 24 24s24-10.7 24-24v-8c0-97.2-78.8-176-176-176h-96C78.8 304 0 382.8 0 480v8c0 13.3 10.7 24 24 24s24-10.7 24-24z"/></svg>