<svg xmlns="http://www.w3.org/2000/svg" viewBox="0 0 24 24"><path d="M4.93 4.93A9.97 9.97 0 0 0 2 12c0 2.76 1.12 5.26 2.93 7.07l1.41-1.41A7.94 7.94 0 0 1 4 12c0-2.21.89-4.22 2.34-5.66zm14.14 0-1.41 1.41A7.96 7.96 0 0 1 20 12c0 2.22-.89 4.22-2.34 5.66l1.41 1.41A9.97 9.97 0 0 0 22 12c0-2.76-1.12-5.26-2.93-7.07M7.76 7.76A5.98 5.98 0 0 0 6 12c0 1.65.67 3.15 1.76 4.24l1.41-1.41A4 4 0 0 1 8 12c0-1.11.45-2.11 1.17-2.83zm8.48 0-1.41 1.41A4 4 0 0 1 16 12c0 1.11-.45 2.11-1.17 2.83l1.41 1.41A5.98 5.98 0 0 0 18 12c0-1.65-.67-3.15-1.76-4.24M12 10a2 2 0 0 0-2 2 2 2 0 0 0 2 2 2 2 0 0 0 2-2 2 2 0 0 0-2-2"/></svg>