<svg xmlns="http://www.w3.org/2000/svg" viewBox="0 0 24 24"><path d="M10.63 14.1a7 7 0 0 1 9.27-3.47 7 7 0 0 1 3.47 9.27A6.98 6.98 0 0 1 17 24c-2.7 0-5.17-1.56-6.33-4H1v-2c.06-1.14.84-2.07 2.34-2.82S6.72 14.04 9 14c.57 0 1.11.05 1.63.1M9 4c1.12.03 2.06.42 2.81 1.17S12.93 6.86 12.93 8s-.37 2.08-1.12 2.83-1.69 1.12-2.81 1.12-2.06-.37-2.81-1.12S5.07 9.14 5.07 8s.37-2.08 1.12-2.83S7.88 4.03 9 4m8 18a5 5 0 0 0 5-5 5 5 0 0 0-5-5 5 5 0 0 0-5 5 5 5 0 0 0 5 5m-1-8h1.5v2.82l2.44 1.41-.75 1.3L16 17.69z"/></svg>