<svg xmlns="http://www.w3.org/2000/svg" viewBox="0 0 24 24"><path d="M18.6 6.62c-1.44 0-2.8.56-3.77 1.53L7.8 14.39c-.64.64-1.49.99-2.4.99C3.53 15.38 2 13.87 2 12s1.53-3.38 3.4-3.38c.91 0 1.76.35 2.44 1.03l1.13 1 1.53-1.34L9.22 8.2A5.37 5.37 0 0 0 5.4 6.62C2.42 6.62 0 9.04 0 12s2.42 5.38 5.4 5.38c1.44 0 2.8-.56 3.77-1.53l7.03-6.24c.64-.64 1.49-.99 2.4-.99 1.87 0 3.4 1.51 3.4 3.38s-1.53 3.38-3.4 3.38c-.9 0-1.76-.35-2.44-1.03L15 13.34l-1.5 1.34 1.28 1.12a5.39 5.39 0 0 0 3.82 1.57c2.98 0 5.4-2.41 5.4-5.37 0-3-2.42-5.38-5.4-5.38"/></svg>