<svg xmlns="http://www.w3.org/2000/svg" viewBox="0 0 24 24"><path d="M4.4 16.5c0-.9.3-1.8.8-2.6q.75-1.2 3-2.7c-.9-1.1-1.4-1.9-1.7-2.5-.4-.7-.5-1.3-.5-2 0-1.5.4-2.6 1.3-3.5S9.4 2 10.9 2q1.95 0 3.3 1.2c.9.8 1.3 1.8 1.3 2.9 0 .8-.2 1.5-.6 2.2q-.6 1.05-2.1 2.1l-1.4 1.1 4.3 5.2c.6-1.2.9-2.4.9-3.9h2.2c0 2.3-.5 4.2-1.6 5.7l2.8 3.3h-3l-1.3-1.5c-.7.6-1.4 1-2.3 1.3s-1.8.5-2.7.5c-1.9 0-3.4-.5-4.6-1.5-1.1-1.1-1.7-2.4-1.7-4.1m6.3 3.5q1.95 0 3.6-1.5l-4.7-5.7-.4.3C7.7 14.2 7 15.3 7 16.5c0 1.1.3 1.9 1 2.5s1.5 1 2.7 1M8.5 6.7c0 .9.5 1.9 1.6 3.2l1.6-1.1q.9-.6 1.2-1.2c.2-.4.3-.9.3-1.4 0-.6-.2-1.1-.7-1.5-.4-.4-1-.6-1.7-.6s-1.3.2-1.7.7-.6 1.1-.6 1.9"/></svg>