<svg xmlns="http://www.w3.org/2000/svg" viewBox="0 0 24 24"><path d="M15 15H9v-1h6zm0 1H9v1h6zm0 2H9v1h6zm8-4.5c0 1.25-.44 2.31-1.31 3.19-.88.87-1.94 1.31-3.19 1.31H18v4H6v-4.05c-1.3-.1-2.43-.59-3.39-1.52C1.54 15.38 1 14.09 1 12.58q0-1.95 1.17-3.48C3.34 7.57 4 7.43 5.25 7.15c.42-1.53 1.25-2.77 2.5-3.72S10.42 2 12 2c1.95 0 3.6.68 4.96 2.04S19 7.05 19 9c1.15.13 2.1.63 2.86 1.5q1.14 1.275 1.14 3M6 15.95V11h11V9c0-1.38-.5-2.56-1.46-3.54C14.56 4.5 13.38 4 12 4s-2.56.5-3.54 1.46C7.5 6.44 7 7.62 7 9h-.5c-.97 0-1.79.34-2.47 1.03-.69.68-1.03 1.5-1.03 2.47s.34 1.79 1.03 2.5c.56.54 1.22.85 1.97.95M16 13H8v7h8zm5 .5c0-.7-.24-1.29-.73-1.77S19.2 11 18.5 11H18v5h.5q1.05 0 1.77-.72c.72-.72.73-1.08.73-1.78"/></svg>