<svg xmlns="http://www.w3.org/2000/svg" viewBox="0 0 24 24"><path d="M8.5 16H16q1.25 0 2.13-.87T19 13q0-1.25-.87-2.12T16 10q-.2-1.45-1.32-2.47-1.13-1.03-2.53-1.03-1.27 0-2.31.65T8.3 9q-1.42.13-2.36 1.09T5 12.5 6.03 15q1.02 1 2.47 1m3.5 6q-2.07 0-3.9-.79-1.82-.78-3.17-2.13T2.79 15.9Q2 14.08 2 12t.79-3.9 2.14-3.17T8.1 2.79Q9.93 2 12 2t3.9.79 3.18 2.14 2.13 3.17Q22 9.93 22 12t-.79 3.9q-.78 1.83-2.13 3.18t-3.18 2.13Q14.08 22 12 22m0-2q3.33 0 5.66-2.34Q20 15.33 20 12t-2.34-5.66Q15.33 4 12 4T6.34 6.34Q4 8.68 4 12t2.34 5.66T12 20m-3.5-6q-.62 0-1.06-.44Q7 13.13 7 12.5t.44-1.06Q7.88 11 8.5 11H10v-.5q0-.82.59-1.41T12 8.5t1.41.59.59 1.41V12h2q.43 0 .71.29.29.29.29.71t-.29.71q-.28.29-.71.29m-4-2"/></svg>