<svg xmlns="http://www.w3.org/2000/svg" viewBox="0 0 24 24"><path d="M9 15.9c-2.1-.2-3.9-1-5-2.3-.8 0-1.6-.5-1.9-1.3s0-1.6.7-2.1c.1-3 2.8-6.1 6.9-7.5S18 2.1 20 4.4c.8 0 1.6.5 1.9 1.3s0 1.6-.7 2.1q0 1.2-.6 2.4C19.4 9.5 18 9 16.5 9c-3.9 0-7.2 3-7.5 6.9m13 .6c0 3-2.5 5.5-5.5 5.5S11 19.5 11 16.5s2.5-5.5 5.5-5.5 5.5 2.5 5.5 5.5M13.3 18l2.3-1.5-2.3-1.5q-.3.75-.3 1.5c0 .75.1 1 .3 1.5m2.7-.6-2.1 1.4c.5.6 1.3 1 2.1 1.2zm0-4.3c-.8.1-1.6.5-2.1 1.2l2.1 1.4zm1 2.5 2.1-1.4c-.5-.6-1.3-1-2.1-1.2zm2.1 3.2L17 17.4v2.5c.8-.1 1.6-.5 2.1-1.1m.9-2.3q0-.75-.3-1.5l-2.3 1.5 2.3 1.5q.3-.75.3-1.5"/></svg>