<svg xmlns="http://www.w3.org/2000/svg" viewBox="0 0 24 24"><path d="M20.11 3.89 22 2v5h-5l2.08-2.08c-.53-.69-1.44-1.26-2.72-1.73S13.63 2.5 12 2.5c-1.62 0-3.08.22-4.36.69S5.45 4.23 4.92 4.92L7 7H2V2l1.89 1.89C4.64 3 5.74 2.31 7.2 1.78 8.65 1.25 10.25 1 12 1s3.35.25 4.8.78c1.46.53 2.56 1.22 3.31 2.11m-.38 12.38v.18L19 21.7c-.08.38-.24.69-.5.94-.27.25-.59.36-.97.36h-6.8c-.37 0-.73-.14-1.03-.45l-4.97-4.92.8-.8c.22-.22.47-.33.8-.33h.23l3.44.75V6.5c0-.39.13-.74.43-1.04S11.08 5 11.5 5c.39 0 .74.16 1.04.46s.46.65.46 1.04v6h.78c.1 0 .27.05.52.11l4.54 2.25c.6.28.89.75.89 1.41"/></svg>