<svg xmlns="http://www.w3.org/2000/svg" viewBox="0 0 24 24"><path d="M22.11 21.46 2.39 1.73 1.11 3l1.86 1.86c-.25.1-.47.33-.47.64L2 11.79c-.13 2.04.77 3.99 2.35 5.21-.02-.88.11-1.79.42-2.67L6.8 8.69l1.17 1.17-1.79 4.98a6.09 6.09 0 0 0 1.72 6.63 6.13 6.13 0 0 0 8.66-.55l1.16-1.31 3.12 3.12zM5 9.84l-.5-.25.21-2.91V6.6l1.26 1.26zm4.59 3.91-.43-.38.61-1.71.88.88zm5.35-2.01 3.64-4.12c.35-.4.96-.44 1.35-.09.4.35.44.97.07 1.36l-3.7 4.21zm4.89-1.48c.35-.4.96-.44 1.35-.09.39.33.44.96.09 1.33L18.2 15l-1.35-1.35zm1.85 3.41c.4.33.43.96.08 1.33l-1.66 1.9-1.36-1.36 1.58-1.78c.35-.4.96-.44 1.36-.09M15.55 7c.35-.4.95-.44 1.36-.09.39.35.43.96.09 1.35l-2.6 2.94-1.36-1.36zm-3.89 1.46 2.3-4.71c.23-.47.81-.67 1.28-.44.48.23.68.81.44 1.28l-.38.78c-.33.13-.63.36-.87.63L12 8.78zM9.08 5.88 7.64 4.44l1.33-2.7c.23-.48.8-.67 1.28-.44.47.23.67.8.44 1.28zm.57.57 2.4-4.91a.95.95 0 0 1 1.28-.44c.48.23.67.8.45 1.28l-2.7 5.5z"/></svg>