<svg xmlns="http://www.w3.org/2000/svg" viewBox="0 0 24 24"><path d="M16 3.23Q17.065 2 18.7 2c.91 0 1.67.33 2.3 1s.96 1.43 1 2.3c0 .7-.33 1.51-1 2.46s-1.32 1.74-1.97 2.39q-.975.96-3.03 2.85-2.085-1.89-3.06-2.85c-.975-.96-1.31-1.44-1.97-2.39S10 6 10 5.3c0-.91.32-1.67.97-2.3s1.43-.96 2.34-1c1.07 0 1.96.41 2.69 1.23M22 19v1l-8 2.5-7-1.94V22H1V11h7.97l6.16 2.3A2.89 2.89 0 0 1 17 16h2c1.66 0 3 1.34 3 3M5 20v-7H3v7zm14.9-1.43c-.16-.33-.51-.57-.9-.57h-5.35c-.54 0-1.07-.08-1.58-.25l-2.38-.79.63-1.9 2.38.79c.3.1 2.3.15 2.3.15 0-.37-.23-.7-.57-.83L8.61 13H7v5.5l6.97 1.91z"/></svg>