<svg xmlns="http://www.w3.org/2000/svg" viewBox="0 0 24 24"><path d="M8.4 18.2q.6.75.6 1.8c0 1.7-1.3 3-3 3s-3-1.3-3-3 1.3-3 3-3q.6 0 1.2.3l1.4-1.8c-.9-1-1.3-2.4-1.1-3.7l-2-.7c-.5.8-1.4 1.4-2.5 1.4-1.7 0-3-1.3-3-3s1.3-3 3-3 3 1.3 3 3v.2l2 .7c.6-1.2 1.8-2.1 3.2-2.3V5.9C10 5.6 9 4.4 9 3c0-1.7 1.3-3 3-3s3 1.3 3 3c0 1.4-1 2.6-2.2 2.9v2.2c1.4.2 2.6 1.1 3.2 2.3l2-.7v-.2c0-1.7 1.3-3 3-3s3 1.3 3 3-1.3 3-3 3c-1.1 0-2-.6-2.5-1.4l-2 .7c.2 1.3-.2 2.7-1.1 3.7l1.4 1.8q.6-.3 1.2-.3c1.7 0 3 1.3 3 3s-1.3 3-3 3-3-1.3-3-3q0-1.05.6-1.8l-1.4-1.8c-1.4.8-3 .8-4.4 0z"/></svg>