<svg xmlns="http://www.w3.org/2000/svg" viewBox="0 0 24 24"><path d="M17 17h-2v6h-2v-6h-2.12l-1.54 1.93 2.37 2.36-1.42 1.42-2.36-2.37c-.35-.34-.55-.81-.58-1.3s.12-.98.43-1.36l.54-.68H7l2-4v-3c-.62.47-1.12 1.07-1.47 1.76-.35.7-.53 1.46-.53 2.24H5a7 7 0 0 1 7-7c1.33 0 2.6-.53 3.54-1.46C16.47 4.6 17 3.33 17 2h2c0 1.32-.38 2.62-1.09 3.73A7 7 0 0 1 15 8.31V13zM14 4c0 .4-.12.78-.34 1.11s-.53.59-.89.74a2 2 0 0 1-2.18-.44c-.28-.28-.47-.63-.55-1.02s-.04-.79.11-1.15c.15-.37.41-.68.74-.9S11.6 2 12 2c.53 0 1.04.21 1.41.59.38.37.59.88.59 1.41"/></svg>