<svg xmlns="http://www.w3.org/2000/svg" viewBox="0 0 24 24"><path d="M2 5.27 3.28 4 20 20.72 18.73 22l-4.83-4.83-2.61 2.61a5.003 5.003 0 0 1-7.07 0 5.003 5.003 0 0 1 0-7.07l1.49-1.49c-.01.82.12 1.64.4 2.43l-.47.47a2.98 2.98 0 0 0 0 4.24 2.98 2.98 0 0 0 4.24 0l2.62-2.6-1.62-1.61c-.01.24-.11.49-.29.68-.39.39-1.03.39-1.42 0A4.97 4.97 0 0 1 7.72 11zm10.71-1.05a5.003 5.003 0 0 1 7.07 0 5.003 5.003 0 0 1 0 7.07l-1.49 1.49c.01-.82-.12-1.64-.4-2.42l.47-.48a2.98 2.98 0 0 0 0-4.24 2.98 2.98 0 0 0-4.24 0l-3.33 3.33-1.41-1.42zm.7 4.95c.39-.39 1.03-.39 1.42 0a5 5 0 0 1 1.23 5.06l-1.78-1.77c-.05-.68-.34-1.35-.87-1.87a.973.973 0 0 1 0-1.42"/></svg>