<svg xmlns="http://www.w3.org/2000/svg" viewBox="0 0 24 24"><path d="M2.67 5.3v.61l-.71.3V5.6zm0 5.94v.62l-.71.29v-.59zm0 6.03v.62l-.71.29v-.59zM2.6 7.29v.55l-.57.26v-.54zm0 1.99v.54l-.57.26v-.54zm0 4.03v.53l-.57.26v-.54zm0 2.02v.54l-.57.26v-.53zm1.9-9.69v.72l-1 .37V6zm0 6.02v.71l-1 .37v-.71zm0 6.04v.71l-1 .4v-.71zm-.07-9.98v.66l-.79.3V8zm0 2.01v.64l-.78.3V10zm0 4.01v.64l-.78.31v-.66zm0 2.02v.65l-.78.31v-.66zm1.88-9.67v.85l-1.26.49v-.84zm0 6.02v.85l-1.26.49v-.84zm0 5.97v.85l-1.26.5v-.85zm-.06-9.9v.76l-1.06.4v-.73zm0 2v.75l-1.06.42v-.75zm0 4.01v.75l-1.06.43v-.75zm0 1.95v.76l-1.06.42v-.75zm2.04-10.1v1.12l-1.57.62V6.67zm0 6.02v1.13l-1.57.61v-1.12zm0 5.97v1.12l-1.57.62v-1.11zm-.09-9.9v1.03l-1.31.53V8.66zm0 2v1.02l-1.31.53v-1.03zm0 4.02v1.03l-1.31.52v-1.03zm0 1.95v1.02l-1.31.52v-1.01zm2.14-10.25v1.47L8.61 8V6.56zm0 6.02v1.46l-1.73.7v-1.47zm0 5.97v1.46l-1.73.7v-1.46zm-.08-9.79v1.23l-1.48.59V8.64zm0 1.92v1.23l-1.48.58v-1.22zm0 4.09v1.25l-1.48.57v-1.23zm0 1.94v1.25l-1.48.59V16.6zm2.19-10.88v2l-1.86.77V6c.64-.35 1.26-.65 1.86-.88m0 2.21v1.73l-1.86.78V8.1zm0 1.95v1.76l-1.86.78v-1.76zm0 1.97V13l-1.86.77V12zm0 1.96V15l-1.86.78V14zm0 2v1.75l-1.86.8V16zm0 1.96v1.87c-.73.28-1.35.55-1.86.8v-1.88zm9.59-11.99v14.05c-1.19-.79-2.67-1.18-4.45-1.18-1.47 0-3.12.3-4.94.91v-1.9c.97-.37 2.03-.64 3.19-.8v-4.57c-.98.12-2.04.46-3.19 1.02V11.4c.99-.46 2.06-.77 3.19-.94V6c-1.02.18-2.08.53-3.19 1V5.03C14.27 4.34 15.86 4 17.41 4c1.68 0 3.22.39 4.63 1.18m-1.89 1.23c-.76-.41-1.65-.59-2.73-.59-.13 0-.25.01-.37.02v4.54l.41-.01c.91 0 1.81.13 2.69.43zm0 5.69c-.81-.36-1.72-.54-2.71-.54-.13 0-.26.01-.39.02v4.58h.41c.99 0 1.89.12 2.69.37z"/></svg>