<svg xmlns="http://www.w3.org/2000/svg" viewBox="0 0 24 24"><path d="M21 16.5c0 .38-.21.71-.53.88l-7.9 4.44c-.16.12-.36.18-.57.18s-.41-.06-.57-.18l-7.9-4.44A.99.99 0 0 1 3 16.5v-9c0-.38.21-.71.53-.88l7.9-4.44c.16-.12.36-.18.57-.18s.41.06.57.18l7.9 4.44c.32.17.53.5.53.88zM5 9v6h1.25v-2H7a2 2 0 0 0 2-2 2 2 0 0 0-2-2zm1.25 3v-2h.5a1 1 0 0 1 1 1 1 1 0 0 1-1 1zm3.5-3v6H11v-2h.75l.66 2h1.32l-.79-2.39c.49-.36.81-.95.81-1.61a2 2 0 0 0-2-2zM11 12v-2h.5a1 1 0 0 1 1 1 1 1 0 0 1-1 1zm6-3c-1.38 0-2.5 1.34-2.5 3s1.12 3 2.5 3 2.5-1.34 2.5-3-1.12-3-2.5-3m0 1.25c.76 0 1.38.78 1.38 1.75s-.62 1.75-1.38 1.75-1.37-.78-1.37-1.75.61-1.75 1.37-1.75"/></svg>