<svg xmlns="http://www.w3.org/2000/svg" viewBox="0 0 24 24"><path d="m15.5 14 5 5-1.5 1.5-5-5v-.79l-.27-.28A6.47 6.47 0 0 1 9.5 16 6.5 6.5 0 0 1 3 9.5 6.5 6.5 0 0 1 9.5 3 6.5 6.5 0 0 1 16 9.5c0 1.61-.59 3.09-1.57 4.23l.28.27zm-6-9.5-.55.03c-.24.52-.61 1.4-.88 2.47h2.86c-.27-1.07-.64-1.95-.88-2.47-.18-.03-.36-.03-.55-.03M13.83 7a4.94 4.94 0 0 0-2.68-2.22c.24.53.55 1.3.78 2.22zM5.17 7h1.9c.23-.92.54-1.69.78-2.22A4.94 4.94 0 0 0 5.17 7M4.5 9.5c0 .5.08 1.03.23 1.5h2.14l-.12-1.5.12-1.5H4.73c-.15.47-.23 1-.23 1.5m9.77 1.5c.15-.47.23-1 .23-1.5s-.08-1.03-.23-1.5h-2.14a9.5 9.5 0 0 1 0 3zm-6.4-3-.12 1.5.12 1.5h3.26a9.5 9.5 0 0 0 0-3zm1.63 6.5c.18 0 .36 0 .53-.03.25-.52.63-1.4.9-2.47H8.07c.27 1.07.65 1.95.9 2.47zm4.33-2.5h-1.9c-.23.92-.54 1.69-.78 2.22A4.94 4.94 0 0 0 13.83 12m-8.66 0a4.94 4.94 0 0 0 2.68 2.22c-.24-.53-.55-1.3-.78-2.22z"/></svg>