<svg xmlns="http://www.w3.org/2000/svg" viewBox="0 0 24 24"><path d="M21 11c0 5.55-3.84 10.74-9 12-5.16-1.26-9-6.45-9-12V5l9-4 9 4zm-9 10c3.75-1 7-5.46 7-9.78V6.3l-7-3.12L5 6.3v4.92C5 15.54 8.25 20 12 21m0-12.11c1.6 0 2.89 1.29 2.89 2.89S13.6 14.67 12 14.67s-2.89-1.3-2.89-2.89 1.3-2.89 2.89-2.89M12 6l1.38 2q-.63-.27-1.38-.27c-.75 0-.95.09-1.38.27zM7 8.89l2.4-.2c-.34.31-.66.65-.9 1.07-.25.42-.4.86-.5 1.32zm0 5.78 1.03-2.17c.08.43.24.88.47 1.3.25.43.56.79.9 1.08zm10-5.78-1 2.19c-.1-.46-.26-.9-.5-1.32s-.55-.76-.9-1.08zm0 5.78-2.4.2c.34-.29.65-.65.9-1.07.24-.42.39-.87.47-1.3zm-5 2.88-1.39-1.98c.43.15.89.25 1.39.25s.95-.1 1.37-.25z"/></svg>