<svg xmlns="http://www.w3.org/2000/svg" viewBox="0 0 24 24"><path d="M13 19.92c1.8-.22 3.35-.97 4.65-2.27S19.7 14.8 19.92 13h-3c-.22 1-.68 1.84-1.38 2.54S14 16.7 13 16.92zM10 8h4l3 3h2.92c-.25-1.95-1.13-3.62-2.65-5C15.76 4.66 14 4 12 4s-3.76.66-5.27 2c-1.52 1.38-2.4 3.05-2.65 5H7zm1 11.92v-3c-1-.22-1.84-.68-2.54-1.38S7.3 14 7.08 13h-3c.22 1.77.97 3.3 2.27 4.6S9.2 19.67 11 19.92M12 2c2.75 0 5.1 1 7.05 2.95S22 9.25 22 12s-1 5.1-2.95 7.05S14.75 22 12 22s-5.1-1-7.05-2.95S2 14.75 2 12s1-5.1 2.95-7.05S9.25 2 12 2"/></svg>