<svg xmlns="http://www.w3.org/2000/svg" viewBox="0 0 24 24"><path d="M3 12h4a5 5 0 0 1 5-5 5 5 0 0 1 5 5h4a1 1 0 0 1 1 1 1 1 0 0 1-1 1H3a1 1 0 0 1-1-1 1 1 0 0 1 1-1m2 4h14a1 1 0 0 1 1 1 1 1 0 0 1-1 1H5a1 1 0 0 1-1-1 1 1 0 0 1 1-1m12 4a1 1 0 0 1 1 1 1 1 0 0 1-1 1H7a1 1 0 0 1-1-1 1 1 0 0 1 1-1zm-2-8a3 3 0 0 0-3-3 3 3 0 0 0-3 3zM12 2l2.39 3.42C13.65 5.15 12.84 5 12 5s-1.65.15-2.39.42zM3.34 7l4.16-.35A7.2 7.2 0 0 0 5.94 8.5c-.44.74-.69 1.5-.83 2.29zm17.31 0-1.77 3.79a7.02 7.02 0 0 0-2.38-4.15z"/></svg>