<svg xmlns="http://www.w3.org/2000/svg" width="384" height="448" viewBox="0 0 384 448"><path d="M192 32q52.25 0 96.375 25.75t69.875 69.875T384 224q0 62.75-36.625 112.875T252.75 406.25q-6.75 1.25-10-1.75t-3.25-7.5q0-.75.125-19.125t.125-33.625q0-24.25-13-35.5 14.25-1.5 25.625-4.5t23.5-9.75 20.25-16.625 13.25-26.25T314.5 214q0-29.75-19.75-51.5 9.25-22.75-2-51-7-2.25-20.25 2.75t-23 11l-9.5 6q-23.25-6.5-48-6.5t-48 6.5q-4-2.75-10.625-6.75t-20.875-9.625-21.25-3.375q-11.25 28.25-2 51Q69.5 184.25 69.5 214q0 21.25 5.125 37.5t13.125 26.25 20.125 16.75 23.5 9.75 25.625 4.5q-9.75 9-12.25 25.75-5.25 2.5-11.25 3.75t-14.25 1.25-16.375-5.375T89 318.5q-4.75-8-12.125-13t-12.375-6l-5-.75q-5.25 0-7.25 1.125T51 302.75t2.25 3.5 3.25 3l1.75 1.25q5.5 2.5 10.875 9.5T77 332.75l2.5 5.75q3.25 9.5 11 15.375t16.75 7.5 17.375 1.75 13.875-.875l5.75-1q0 9.5.125 22.125T144.5 397q0 4.5-3.25 7.5t-10 1.75q-58-19.25-94.625-69.375T0 224q0-52.25 25.75-96.375T95.625 57.75 192 32zM72.75 307.75q.75-1.75-1.75-3-2.5-.75-3.25.5-.75 1.75 1.75 3 2.25 1.5 3.25-.5zm7.75 8.5q1.75-1.25-.5-4-2.5-2.25-4-.75-1.75 1.25.5 4 2.5 2.5 4 .75zM88 327.5q2.25-1.75 0-4.75-2-3.25-4.25-1.5-2.25 1.25 0 4.5T88 327.5zM98.5 338q2-2-1-4.75-3-3-5-.75-2.25 2 1 4.75 3 3 5 .75zm14.25 6.25q.75-2.75-3.25-4-3.75-1-4.75 1.75t3.25 3.75q3.75 1.5 4.75-1.5zm15.75 1.25q0-3.25-4.25-2.75-4 0-4 2.75 0 3.25 4.25 2.75 4 0 4-2.75zM143 343q-.5-2.75-4.5-2.25-4 .75-3.5 3.75t4.5 2 3.5-3.5z"/></svg>