<svg xmlns="http://www.w3.org/2000/svg" width="500" height="500" viewBox="0 0 500 500"><path d="M249.865 474.507L340.55 195.41H159.18l90.685 279.097z"/><path d="M249.864 474.506L159.18 195.41H32.088l217.776 279.096z" opacity=".7"/><path d="M32.09 195.41L4.53 280.227a18.773 18.773 0 0 0 6.82 20.99l238.515 173.29L32.09 195.41z" opacity=".5"/><path d="M32.09 195.412h127.09L104.563 27.314c-2.81-8.65-15.047-8.65-17.856 0L32.09 195.412z"/><path d="M249.865 474.506L340.55 195.41h127.09L249.866 474.507z" opacity=".7"/><path d="M467.64 195.41l27.56 84.816a18.772 18.772 0 0 1-6.82 20.99l-238.516 173.29L467.64 195.41z" opacity=".5"/><path d="M467.64 195.412H340.55l54.617-168.098c2.81-8.65 15.047-8.65 17.856 0l54.618 168.098z"/></svg>