<svg xmlns="http://www.w3.org/2000/svg" width="500" height="500" viewBox="0 0 500 500"><path d="M249.865 474.507l90.684-279.097H159.18l90.684 279.097z"/><path d="M249.864 474.506L159.18 195.41H32.088l217.776 279.095z" opacity=".7"/><path d="M32.089 195.41l-27.56 84.816a18.773 18.773 0 0 0 6.822 20.99l238.514 173.29L32.089 195.41z" opacity=".5"/><path d="M32.089 195.412H159.18L104.56 27.314c-2.81-8.65-15.046-8.65-17.855 0L32.089 195.412z"/><path d="M249.865 474.506l90.684-279.095H467.64L249.865 474.506z" opacity=".7"/><path d="M467.641 195.41l27.56 84.816a18.772 18.772 0 0 1-6.822 20.99l-238.515 173.29L467.641 195.41z" opacity=".5"/><path d="M467.64 195.412H340.55l54.618-168.098c2.81-8.65 15.047-8.65 17.856 0l54.618 168.098z"/></svg>