<svg xmlns="http://www.w3.org/2000/svg" xml:space="preserve" id="Calque_1" x="0" y="0" style="enable-background:new 0 0 186.2 52.7" version="1.1" viewBox="0 0 186.2 52.7"><style>.st2{fill:#1a1a1a}</style><defs><filter id="Adobe_OpacityMaskFilter" width="186.2" height="52.7" x="0" y="0" filterUnits="userSpaceOnUse"><feColorMatrix values="1 0 0 0 0 0 1 0 0 0 0 0 1 0 0 0 0 0 1 0"/></filter></defs><mask id="mask0_779_897_00000176751413942590761580000000483179156652774065_" width="186.2" height="52.7" x="0" y="0" maskUnits="userSpaceOnUse"><path d="M197.7-16.7h-209v86h209v-86z" style="fill:#fff;filter:url(#Adobe_OpacityMaskFilter)"/></mask><g style="mask:url(#mask0_779_897_00000176751413942590761580000000483179156652774065_)"><path d="M8.6 21.6c1.3-4.7 4.4-8.7 8.6-11.2l-4-6.8C7.2 7 2.7 12.8.9 19.5l7.7 2.1zM21.7 8.5c1.6-.4 3.2-.6 4.8-.6V0c-2.3 0-4.6.3-6.8.9l2 7.6zM31.3 8.5c4.7 1.3 8.8 4.4 11.2 8.6l6.9-4C45.9 7.1 40.1 2.6 33.3.8l-2 7.7zM0 26.3c0 2.3.3 4.6.9 6.8l7.7-2c-.4-1.6-.6-3.2-.6-4.8H0zM3.5 39.5c1.2 2 2.6 3.8 4.2 5.4l5.6-5.6c-1.1-1.1-2.1-2.4-2.9-3.8l-6.9 4zM13.2 49.1c4 2.3 8.6 3.5 13.2 3.5v-7.9c-3.2 0-6.4-.8-9.2-2.5l-4 6.9zM42.5 35.6c-2.5 4.2-6.5 7.3-11.2 8.6l2.1 7.6C40.2 50 46 45.6 49.5 39.5l-7-3.9zM52.4 33.1c1.2-4.5 1.2-9.2.1-13.7l-7.7 2c.8 3.1.8 6.4-.1 9.6l7.7 2.1zM83.8 23.5c-.9-2.4-3-3.8-5.2-3.8-3.5 0-5.8 2.9-5.8 6.3s2.4 6.4 5.8 6.4c2.2 0 4.1-1.2 5.2-3.6h5.8c-1.3 5.2-5.8 8.5-10.9 8.5-3 0-5.8-1-8.1-3.2-2.3-2.3-3.3-5-3.3-8.3 0-5.7 4.9-10.9 11.1-10.9 3 0 5.4.8 7.5 2.6 2 1.7 3.3 3.7 3.7 5.9h-5.8v.1zM100.3 37.3c-4.9 0-8.7-3.6-8.7-8.6 0-4.9 3.9-8.6 8.7-8.6 4.9 0 8.7 3.6 8.7 8.5s-3.9 8.7-8.7 8.7m3.8-8.5c0-2.2-1.6-4.1-3.9-4.1-2.1 0-3.9 1.9-3.9 4.1 0 2.2 1.7 4.1 3.9 4.1 2.2-.1 3.9-2 3.9-4.1zM124 36.8v-1.7c-.9 1.5-2.5 2.3-4.9 2.3-4.9 0-8.1-3.8-8.1-8.6s3.3-8.6 8-8.6c1.9 0 3.4.6 4.8 1.9v-6.8h4.9v21.5H124zm0-8.1c0-2.2-1.7-4-4.1-4-2.4 0-4.1 1.7-4.1 4 0 2.4 1.7 4.2 4.1 4.2s4.1-1.8 4.1-4.2M144.3 36.8v-1.7h-.1c-.7 1.4-2.6 2.3-4.8 2.3-4.8 0-8.1-3.8-8.1-8.6 0-4.9 3.5-8.6 8.1-8.6 2 0 3.8.8 4.8 2.3h.1v-1.7h4.9v16.1h-4.9zm0-8.1c0-2.3-1.8-4.1-4.1-4.1s-4 1.8-4 4.2c0 2.3 1.8 4.1 4 4.1 2.3 0 4.1-1.8 4.1-4.2M164.2 26.9c-.7-1.5-2-2.3-3.6-2.3-2.2 0-3.7 1.8-3.7 4.1s1.6 4.1 3.9 4.1c1.6 0 2.8-.8 3.5-2.2h4.9c-1 4-4.4 6.7-8.6 6.7-4.8 0-8.6-3.9-8.6-8.6s3.8-8.6 8.5-8.6c4.3 0 7.7 2.7 8.7 6.8h-5zM173 42.2l2.6-6.2-6-15.3h5.2l3.2 9.4h.1l3.1-9.4h5.1l-8.1 21.5H173z" class="st2"/></g></svg>