<svg xmlns="http://www.w3.org/2000/svg" width="269" height="53" fill="none"><path fill="#7094F8" d="M195.566 15.958h7.76l.701.045h.281l.467.04c1.828.123 3.73.526 5.282 1.499 2.471 1.549 3.938 3.992 4.421 6.751.098.563.159 1.133.16 1.703l.043.672-.041.314v.582l-.129 1.166c-.312 2.095-1.089 4.004-2.635 5.556-.628.63-1.486 1.185-2.286 1.6-1.538.797-3.682 1.204-5.423 1.223l-.654.045H195.566V15.958Zm5.61 16.446h2.851c1.007-.001 2.127-.32 2.945-.885 1.388-.957 2.054-2.807 2.057-4.403v-1.12c-.008-.683-.228-1.697-.496-2.33-.348-.826-.805-1.501-1.561-2.04-.822-.587-1.921-.916-2.945-.918h-2.851v11.696Zm58.896-.483c.145.976.947 1.444 1.917 1.434.754-.009 1.79-.495 1.714-1.344-.052-.586-.495-.969-1.013-1.221-.727-.355-1.205-.494-1.963-.736-2.04-.652-4.655-1.494-5.253-3.735a4.03 4.03 0 0 1-.123-.851v-.18c.025-2.084 1.38-3.584 3.272-4.447.843-.385 1.74-.56 2.665-.62l.42-.04.468.042.888.06c2.112.273 3.999 1.407 4.736 3.392.176.475.311 1.02.313 1.524h-4.815c-.047-.24-.09-.463-.233-.672-.293-.431-.856-.543-1.357-.538-.948.01-1.845.817-1.178 1.703.221.293.605.49.945.634.618.262 1.532.492 2.197.66 2.012.51 4.305 1.457 4.831 3.59.057.235.121.613.124.852.011.888-.039 1.493-.395 2.33-.785 1.844-2.733 2.912-4.7 3.253l-.861.12-.729.033-.484-.006-.497-.04c-2.489-.235-4.707-1.55-5.516-3.898-.127-.365-.272-.917-.281-1.3h4.908ZM225.452 37.17c-4.9 0-8.7-3.6-8.7-8.6 0-4.9 3.9-8.6 8.7-8.6 4.9 0 8.7 3.6 8.7 8.5s-3.9 8.7-8.7 8.7Zm3.8-8.5c0-2.2-1.6-4.1-3.9-4.1-2.1 0-3.9 1.9-3.9 4.1 0 2.2 1.7 4.1 3.9 4.1 2.2-.1 3.9-2 3.9-4.1ZM248.355 26.84c-.7-1.5-2-2.3-3.6-2.3-2.2 0-3.7 1.8-3.7 4.1s1.6 4.1 3.9 4.1c1.6 0 2.8-.8 3.5-2.2h4.9c-1 4-4.4 6.7-8.6 6.7-4.8 0-8.6-3.9-8.6-8.6 0-4.7 3.8-8.6 8.5-8.6 4.3 0 7.7 2.7 8.7 6.8h-5Z"/><path fill="#fff" d="M8.6 21.6c1.3-4.7 4.4-8.7 8.6-11.2l-4-6.8C7.2 7 2.7 12.8.9 19.5l7.7 2.1ZM21.7 8.5c1.6-.4 3.2-.6 4.8-.6V0c-2.3 0-4.6.3-6.8.9l2 7.6ZM31.3 8.5c4.7 1.3 8.8 4.4 11.2 8.6l6.9-4C45.9 7.1 40.1 2.6 33.3.8l-2 7.7ZM0 26.3c0 2.3.3 4.6.9 6.8l7.7-2c-.4-1.6-.6-3.2-.6-4.8H0ZM3.5 39.5c1.2 2 2.6 3.8 4.2 5.4l5.6-5.6c-1.1-1.1-2.1-2.4-2.9-3.8l-6.9 4ZM13.2 49.1c4 2.3 8.6 3.5 13.2 3.5v-7.9c-3.2 0-6.4-.8-9.2-2.5l-4 6.9ZM42.5 35.6c-2.5 4.2-6.5 7.3-11.2 8.6l2.1 7.6C40.2 50 46 45.6 49.5 39.5l-7-3.9ZM52.4 33.1c1.2-4.5 1.2-9.2.1-13.7l-7.7 2c.8 3.1.8 6.4-.1 9.6l7.7 2.1ZM83.8 23.5c-.9-2.4-3-3.8-5.2-3.8-3.5 0-5.8 2.9-5.8 6.3s2.4 6.4 5.8 6.4c2.2 0 4.1-1.2 5.2-3.6h5.8c-1.3 5.2-5.8 8.5-10.9 8.5-3 0-5.8-1-8.1-3.2-2.3-2.3-3.3-5-3.3-8.3 0-5.7 4.9-10.9 11.1-10.9 3 0 5.4.8 7.5 2.6 2 1.7 3.3 3.7 3.7 5.9h-5.8v.1ZM100.3 37.3c-4.9 0-8.7-3.6-8.7-8.6 0-4.9 3.9-8.6 8.7-8.6 4.9 0 8.7 3.6 8.7 8.5s-3.9 8.7-8.7 8.7Zm3.8-8.5c0-2.2-1.6-4.1-3.9-4.1-2.1 0-3.9 1.9-3.9 4.1 0 2.2 1.7 4.1 3.9 4.1 2.2-.1 3.9-2 3.9-4.1ZM124 36.8v-1.7c-.9 1.5-2.5 2.3-4.9 2.3-4.9 0-8.1-3.8-8.1-8.6s3.3-8.6 8-8.6c1.9 0 3.4.6 4.8 1.9v-6.8h4.9v21.5H124Zm0-8.1c0-2.2-1.7-4-4.1-4-2.4 0-4.1 1.7-4.1 4 0 2.4 1.7 4.2 4.1 4.2 2.4 0 4.1-1.8 4.1-4.2ZM144.3 35.1h-.1c-.7 1.4-2.6 2.3-4.8 2.3-4.8 0-8.1-3.8-8.1-8.6 0-4.9 3.5-8.6 8.1-8.6 2 0 3.8.8 4.8 2.3h.1v-1.7h4.9v16.1h-4.9v-1.8Zm0-6.4c0-2.3-1.8-4.1-4.1-4.1s-4 1.8-4 4.2c0 2.3 1.8 4.1 4 4.1 2.3 0 4.1-1.8 4.1-4.2ZM164.2 26.9c-.7-1.5-2-2.3-3.6-2.3-2.2 0-3.7 1.8-3.7 4.1s1.6 4.1 3.9 4.1c1.6 0 2.8-.8 3.5-2.2h4.9c-1 4-4.4 6.7-8.6 6.7-4.8 0-8.6-3.9-8.6-8.6 0-4.7 3.8-8.6 8.5-8.6 4.3 0 7.7 2.7 8.7 6.8h-5ZM173 42.2l2.6-6.2-6-15.3h5.2l3.2 9.4h.1l3.1-9.4h5.1l-8.1 21.5H173Z"/></svg>