<svg id="Layer_1" data-name="Layer 1" xmlns="http://www.w3.org/2000/svg" viewBox="0 0 211.93 40"><title>codacy-logo-black</title><path d="M9649.85,2887.91a6.64,6.64,0,0,1,0-13.27,6,6,0,0,1,4.81,2.29l-1.9,1.7a4,4,0,0,0-2.92-1.46,4.12,4.12,0,0,0,0,8.22,4,4,0,0,0,3-1.53l2,1.62A6.11,6.11,0,0,1,9649.85,2887.91Z" transform="translate(-9572.05 -2861)"/><path d="M9669.57,2881.26a6.45,6.45,0,1,1,6.46,6.65A6.56,6.56,0,0,1,9669.57,2881.26Zm10.24,0a3.81,3.81,0,1,0-3.78,4.17A3.85,3.85,0,0,0,9679.81,2881.26Z" transform="translate(-9572.05 -2861)"/><path d="M9698.13,2887.72V2874.8h3.95c4,0,6.48,1.87,6.48,6.3,0,4.23-2.48,6.63-6,6.63h-4.45Zm7.84-6.65c0-2.86-1.35-3.84-3.89-3.84h-1.36v8.07h1.79C9704.78,2885.3,9706,2883.7,9706,2881.07Z" transform="translate(-9572.05 -2861)"/><path d="M9730.36,2884.66h-3.77l-0.88,3.07H9723l4.06-12.92h2.85l4.05,12.92h-2.73Zm-3.18-2.07h2.58l-0.38-1.39c-0.34-1.27-.77-2.79-0.92-3.62a34.51,34.51,0,0,1-.9,3.62Z" transform="translate(-9572.05 -2861)"/><path d="M9754.58,2887.91a6.64,6.64,0,0,1,0-13.27,6,6,0,0,1,4.81,2.29l-1.9,1.7a4,4,0,0,0-2.92-1.46,4.12,4.12,0,0,0,0,8.22,4,4,0,0,0,3-1.53l2,1.62A6.11,6.11,0,0,1,9754.58,2887.91Z" transform="translate(-9572.05 -2861)"/><path d="M9777.68,2887.72v-5.45l-3.55-7.48H9777l1.56,3.9a11.61,11.61,0,0,1,.41,1.13,8.62,8.62,0,0,1,.41-1.13l1.74-3.9H9784l-3.75,7.5v5.43h-2.55Z" transform="translate(-9572.05 -2861)"/><path d="M9578.53,2877.37a14,14,0,0,1,6.53-8.5l-3-5.2a20,20,0,0,0-9.33,12.14Z" transform="translate(-9572.05 -2861)"/><path d="M9588.45,2867.47a14.11,14.11,0,0,1,3.62-.47v-6a20.07,20.07,0,0,0-5.17.67Z" transform="translate(-9572.05 -2861)"/><path d="M9595.71,2867.48a14,14,0,0,1,8.49,6.52l5.2-3a20.06,20.06,0,0,0-12.13-9.32Z" transform="translate(-9572.05 -2861)"/><path d="M9572.05,2881a20,20,0,0,0,.68,5.17l5.8-1.55a14,14,0,0,1-.47-3.62h-6Z" transform="translate(-9572.05 -2861)"/><path d="M9574.73,2891a20,20,0,0,0,3.18,4.13l4.25-4.24a14.22,14.22,0,0,1-2.23-2.89Z" transform="translate(-9572.05 -2861)"/><path d="M9582.06,2898.32a19.89,19.89,0,0,0,10,2.68v-6a13.94,13.94,0,0,1-7-1.87Z" transform="translate(-9572.05 -2861)"/><path d="M9604.19,2888a14,14,0,0,1-8.5,6.51l1.55,5.8a20.06,20.06,0,0,0,12.14-9.31Z" transform="translate(-9572.05 -2861)"/><path d="M9611.4,2886.37a20,20,0,0,0,0-10.37l-5.82,1.55a14,14,0,0,1,0,7.26Z" transform="translate(-9572.05 -2861)"/></svg>