<svg width="384" height="448" viewBox="0 0 384 448" xmlns="http://www.w3.org/2000/svg">
  <path d="M192 32q52.25 0 96.375 25.75t69.875 69.875 25.75 96.375q0 62.75-36.625 112.875t-94.625 69.375q-6.75 1.25-10-1.75t-3.25-7.5q0-0.75 0.125-19.125t0.125-33.625q0-24.25-13-35.5 14.25-1.5 25.625-4.5t23.5-9.75 20.25-16.625 13.25-26.25 5.125-37.625q0-29.75-19.75-51.5 9.25-22.75-2-51-7-2.25-20.25 2.75t-23 11l-9.5 6q-23.25-6.5-48-6.5t-48 6.5q-4-2.75-10.625-6.75t-20.875-9.625-21.25-3.375q-11.25 28.25-2 51-19.75 21.75-19.75 51.5 0 21.25 5.125 37.5t13.125 26.25 20.125 16.75 23.5 9.75 25.625 4.5q-9.75 9-12.25 25.75-5.25 2.5-11.25 3.75t-14.25 1.25-16.375-5.375-13.875-15.625q-4.75-8-12.125-13t-12.375-6l-5-0.75q-5.25 0-7.25 1.125t-1.25 2.875 2.25 3.5 3.25 3l1.75 1.25q5.5 2.5 10.875 9.5t7.875 12.75l2.5 5.75q3.25 9.5 11 15.375t16.75 7.5 17.375 1.75 13.875-0.875l5.75-1q0 9.5 0.125 22.125t0.125 13.625q0 4.5-3.25 7.5t-10 1.75q-58-19.25-94.625-69.375t-36.625-112.875q0-52.25 25.75-96.375t69.875-69.875 96.375-25.75zM72.75 307.75q0.75-1.75-1.75-3-2.5-0.75-3.25 0.5-0.75 1.75 1.75 3 2.25 1.5 3.25-0.5zM80.5 316.25q1.75-1.25-0.5-4-2.5-2.25-4-0.75-1.75 1.25 0.5 4 2.5 2.5 4 0.75zM88 327.5q2.25-1.75 0-4.75-2-3.25-4.25-1.5-2.25 1.25 0 4.5t4.25 1.75zM98.5 338q2-2-1-4.75-3-3-5-0.75-2.25 2 1 4.75 3 3 5 0.75zM112.75 344.25q0.75-2.75-3.25-4-3.75-1-4.75 1.75t3.25 3.75q3.75 1.5 4.75-1.5zM128.5 345.5q0-3.25-4.25-2.75-4 0-4 2.75 0 3.25 4.25 2.75 4 0 4-2.75zM143 343q-0.5-2.75-4.5-2.25-4 0.75-3.5 3.75t4.5 2 3.5-3.5z" fill="white" />
</svg>
