<?xml version="1.0" encoding="UTF-8"?><!DOCTYPE svg PUBLIC "-//W3C//DTD SVG 1.1//EN" "http://www.w3.org/Graphics/SVG/1.1/DTD/svg11.dtd"><svg xmlns="http://www.w3.org/2000/svg" xmlns:xlink="http://www.w3.org/1999/xlink" version="1.1" id="mdi-access-point-network" width="24" height="24" viewBox="0 0 24 24"><path d="M4.93,3.93C3.12,5.74 2,8.24 2,11C2,13.76 3.12,16.26 4.93,18.07L6.34,16.66C4.89,15.22 4,13.22 4,11C4,8.79 4.89,6.78 6.34,5.34L4.93,3.93M19.07,3.93L17.66,5.34C19.11,6.78 20,8.79 20,11C20,13.22 19.11,15.22 17.66,16.66L19.07,18.07C20.88,16.26 22,13.76 22,11C22,8.24 20.88,5.74 19.07,3.93M7.76,6.76C6.67,7.85 6,9.35 6,11C6,12.65 6.67,14.15 7.76,15.24L9.17,13.83C8.45,13.11 8,12.11 8,11C8,9.89 8.45,8.89 9.17,8.17L7.76,6.76M16.24,6.76L14.83,8.17C15.55,8.89 16,9.89 16,11C16,12.11 15.55,13.11 14.83,13.83L16.24,15.24C17.33,14.15 18,12.65 18,11C18,9.35 17.33,7.85 16.24,6.76M12,9A2,2 0 0,0 10,11A2,2 0 0,0 12,13A2,2 0 0,0 14,11A2,2 0 0,0 12,9M11,15V19H10A1,1 0 0,0 9,20H2V22H9A1,1 0 0,0 10,23H14A1,1 0 0,0 15,22H22V20H15A1,1 0 0,0 14,19H13V15H11Z" /></svg>