<svg xmlns="http://www.w3.org/2000/svg" viewBox="0 0 24 24"><path d="M13,12A3.5,3.5 0 0,0 16.5,8.5A3.5,3.5 0 0,0 13,5A3.5,3.5 0 0,0 9.5,8.5A3.5,3.5 0 0,0 13,12M13,7A1.5,1.5 0 0,1 14.5,8.5A1.5,1.5 0 0,1 13,10A1.5,1.5 0 0,1 11.5,8.5A1.5,1.5 0 0,1 13,7M17.26,11.97C18.04,11.03 18.5,9.82 18.5,8.5C18.5,7.18 18.04,5.97 17.26,5.03C17.34,5 17.42,5 17.5,5A3.5,3.5 0 0,1 21,8.5A3.5,3.5 0 0,1 17.5,12C17.42,12 17.34,12 17.26,11.97M5,13V16H3V13H0V11H3V8H5V11H8V13M24,17.25V19H20.96V17.25C20.96,15.77 20.16,14.65 19,13.81C21.46,14.08 24,15.23 24,17.25M13,13.75C10.66,13.75 7,14.92 7,17.25V19H19V17.25C19,14.92 15.34,13.75 13,13.75M9.34,17C10.18,16.42 11.21,15.75 13,15.75C14.79,15.75 15.82,16.42 16.66,17" /></svg>