<?xml version="1.0" encoding="UTF-8"?><!DOCTYPE svg PUBLIC "-//W3C//DTD SVG 1.1//EN" "http://www.w3.org/Graphics/SVG/1.1/DTD/svg11.dtd"><svg xmlns="http://www.w3.org/2000/svg" xmlns:xlink="http://www.w3.org/1999/xlink" version="1.1" id="mdi-account-tie-voice" width="24" height="24" viewBox="0 0 24 24"><path d="M16.75 4.36C18.77 6.56 18.77 9.61 16.75 11.63L15.07 9.94C15.91 8.76 15.91 7.23 15.07 6.05L16.75 4.36M20.06 1C24 5.05 23.96 11.11 20.06 15L18.43 13.37C21.2 10.19 21.2 5.65 18.43 2.63L20.06 1M9 4C11.2 4 13 5.79 13 8S11.2 12 9 12 5 10.21 5 8 6.79 4 9 4M13 14.54C13 15.6 12.71 18.07 10.8 20.83L10 16L10.93 14.12C10.31 14.05 9.66 14 9 14S7.67 14.05 7.05 14.12L8 16L7.18 20.83C5.27 18.07 5 15.6 5 14.54C2.6 15.24 .994 16.5 .994 18V22H17V18C17 16.5 15.39 15.24 13 14.54Z" /></svg>