<?xml version="1.0" encoding="UTF-8"?><!DOCTYPE svg PUBLIC "-//W3C//DTD SVG 1.1//EN" "http://www.w3.org/Graphics/SVG/1.1/DTD/svg11.dtd"><svg xmlns="http://www.w3.org/2000/svg" xmlns:xlink="http://www.w3.org/1999/xlink" version="1.1" id="mdi-account-box-multiple-outline" width="24" height="24" viewBox="0 0 24 24"><path d="M4 6H2V20C2 21.11 2.9 22 4 22H18V20H4V6M18.5 14.25C18.5 12.75 15.5 12 14 12S9.5 12.75 9.5 14.25V15H18.5M14 10.25C15.24 10.25 16.25 9.24 16.25 8S15.24 5.75 14 5.75 11.75 6.76 11.75 8 12.76 10.25 14 10.25M20 2H8C6.9 2 6 2.9 6 4V16C6 17.11 6.9 18 8 18H20C21.11 18 22 17.11 22 16V4C22 2.89 21.1 2 20 2M20 16H8V4H20V16Z" /></svg>