<?xml version="1.0" encoding="UTF-8"?><!DOCTYPE svg PUBLIC "-//W3C//DTD SVG 1.1//EN" "http://www.w3.org/Graphics/SVG/1.1/DTD/svg11.dtd"><svg xmlns="http://www.w3.org/2000/svg" xmlns:xlink="http://www.w3.org/1999/xlink" version="1.1" id="mdi-account-multiple-plus-outline" width="24" height="24" viewBox="0 0 24 24"><path d="M13 11A3 3 0 1 0 10 8A3 3 0 0 0 13 11M13 7A1 1 0 1 1 12 8A1 1 0 0 1 13 7M17.11 10.86A5 5 0 0 0 17.11 5.14A2.91 2.91 0 0 1 18 5A3 3 0 0 1 18 11A2.91 2.91 0 0 1 17.11 10.86M13 13C7 13 7 17 7 17V19H19V17S19 13 13 13M9 17C9 16.71 9.32 15 13 15C16.5 15 16.94 16.56 17 17M24 17V19H21V17A5.6 5.6 0 0 0 19.2 13.06C24 13.55 24 17 24 17M8 12H5V15H3V12H0V10H3V7H5V10H8Z" /></svg>