<?xml version="1.0" encoding="UTF-8"?><!DOCTYPE svg PUBLIC "-//W3C//DTD SVG 1.1//EN" "http://www.w3.org/Graphics/SVG/1.1/DTD/svg11.dtd"><svg xmlns="http://www.w3.org/2000/svg" xmlns:xlink="http://www.w3.org/1999/xlink" version="1.1" id="mdi-account-voice" width="24" height="24" viewBox="0 0 24 24"><path d="M9,5A4,4 0 0,1 13,9A4,4 0 0,1 9,13A4,4 0 0,1 5,9A4,4 0 0,1 9,5M9,15C11.67,15 17,16.34 17,19V21H1V19C1,16.34 6.33,15 9,15M16.76,5.36C18.78,7.56 18.78,10.61 16.76,12.63L15.08,10.94C15.92,9.76 15.92,8.23 15.08,7.05L16.76,5.36M20.07,2C24,6.05 23.97,12.11 20.07,16L18.44,14.37C21.21,11.19 21.21,6.65 18.44,3.63L20.07,2Z" /></svg>