<?xml version="1.0" encoding="UTF-8"?><!DOCTYPE svg PUBLIC "-//W3C//DTD SVG 1.1//EN" "http://www.w3.org/Graphics/SVG/1.1/DTD/svg11.dtd"><svg xmlns="http://www.w3.org/2000/svg" xmlns:xlink="http://www.w3.org/1999/xlink" version="1.1" id="mdi-account-off" width="24" height="24" viewBox="0 0 24 24"><path d="M12,4A4,4 0 0,1 16,8C16,9.95 14.6,11.58 12.75,11.93L8.07,7.25C8.42,5.4 10.05,4 12,4M12.28,14L18.28,20L20,21.72L18.73,23L15.73,20H4V18C4,16.16 6.5,14.61 9.87,14.14L2.78,7.05L4.05,5.78L12.28,14M20,18V19.18L15.14,14.32C18,14.93 20,16.35 20,18Z" /></svg>