<?xml version="1.0" encoding="UTF-8"?><!DOCTYPE svg PUBLIC "-//W3C//DTD SVG 1.1//EN" "http://www.w3.org/Graphics/SVG/1.1/DTD/svg11.dtd"><svg xmlns="http://www.w3.org/2000/svg" xmlns:xlink="http://www.w3.org/1999/xlink" version="1.1" id="mdi-account-child" width="24" height="24" viewBox="0 0 24 24"><path d="M12,2A3,3 0 0,1 15,5A3,3 0 0,1 12,8A3,3 0 0,1 9,5A3,3 0 0,1 12,2M12,9C13.63,9 15.12,9.35 16.5,10.05C17.84,10.76 18.5,11.61 18.5,12.61V18.38C18.5,19.5 17.64,20.44 15.89,21.19V19C15.89,18.05 15.03,17.38 13.31,16.97C12.75,16.84 12.31,16.78 12,16.78C11.13,16.78 10.3,16.95 9.54,17.3C8.77,17.64 8.31,18.08 8.16,18.61C9.5,19.14 10.78,19.41 12,19.41L13,19.31V21.94L12,22C10.63,22 9.33,21.72 8.11,21.19C6.36,20.44 5.5,19.5 5.5,18.38V12.61C5.5,11.61 6.16,10.76 7.5,10.05C8.88,9.35 10.38,9 12,9M12,11A2,2 0 0,0 10,13A2,2 0 0,0 12,15A2,2 0 0,0 14,13A2,2 0 0,0 12,11Z" /></svg>