<?xml version="1.0" encoding="UTF-8"?><!DOCTYPE svg PUBLIC "-//W3C//DTD SVG 1.1//EN" "http://www.w3.org/Graphics/SVG/1.1/DTD/svg11.dtd"><svg xmlns="http://www.w3.org/2000/svg" xmlns:xlink="http://www.w3.org/1999/xlink" version="1.1" id="mdi-account-box-outline" width="24" height="24" viewBox="0 0 24 24"><path d="M19,19H5V5H19M19,3H5A2,2 0 0,0 3,5V19A2,2 0 0,0 5,21H19A2,2 0 0,0 21,19V5C21,3.89 20.1,3 19,3M16.5,16.25C16.5,14.75 13.5,14 12,14C10.5,14 7.5,14.75 7.5,16.25V17H16.5M12,12.25A2.25,2.25 0 0,0 14.25,10A2.25,2.25 0 0,0 12,7.75A2.25,2.25 0 0,0 9.75,10A2.25,2.25 0 0,0 12,12.25Z" /></svg>