<svg xmlns="http://www.w3.org/2000/svg" viewBox="0 0 24 24"><path d="M21.8 14.5c-.5-.8-1.7-1.1-3.7-1.1-.7 0-1.4 0-2.1.1-.5-.3-1-.6-1.4-.9-1-.8-1.9-2.3-2.6-4.1 0 0 0-.1.1-.2.5-2.1 1-4.7 0-5.8-.3-.3-.6-.4-1-.4h-.4c-.6 0-1.1.6-1.3 1.2-.6 2.1-.2 3.3.4 5.2-.4 1.5-.9 3.1-1.8 4.8-.5 1.1-1.1 2.1-1.5 2.9-.6.3-1.1.6-1.4.8-1.9 1.2-2.9 2.6-3 3.4-.1.3-.1.6 0 .8v.1l.8.5c.2.1.5.2.7.2 1.3 0 2.8-1.5 4.8-5 .1 0 .2-.1.3-.1 1.7-.5 3.7-.9 6.5-1.2 1.6.8 3.6 1.2 4.8 1.2.7 0 1.2-.2 1.5-.5.3-.3.4-.7.5-1.1 0-.3 0-.6-.2-.8M3.4 20.9c.1-.6.8-1.7 2-2.7.2-.1.4-.3.8-.5-1.2 1.9-2.1 2.9-2.8 3.2m7.4-17.7c.1-.1.1-.2.2-.2l.2.1c.3.4.3.9.1 1.8v.3c-.1.4-.1.8-.3 1.3-.4-1.5-.4-2.6-.2-3.3m-2 12.6l-.2.1c.1-.5.5-1.1.8-1.7.7-1.4 1.3-2.7 1.6-3.9.7 1.5 1.5 2.6 2.5 3.5.2.2.4.4.7.5-1.4.2-3.3.7-5.4 1.5m12.1-.1h-.4c-.7 0-1.9-.3-3.1-.8.1-.2.3-.2.4-.2 2.3 0 2.9.4 3.1.6.1.1.1.1.1.2s0 .1-.1.2z"/></svg>