<?xml version="1.0" encoding="UTF-8"?><!DOCTYPE svg PUBLIC "-//W3C//DTD SVG 1.1//EN" "http://www.w3.org/Graphics/SVG/1.1/DTD/svg11.dtd"><svg xmlns="http://www.w3.org/2000/svg" xmlns:xlink="http://www.w3.org/1999/xlink" version="1.1" id="mdi-adobe-acrobat" width="24" height="24" viewBox="0 0 24 24"><path d="M21.8 14.5C21.3 13.7 20.1 13.4 18.1 13.4C17.4 13.4 16.7 13.4 16 13.5C15.5 13.2 15 12.9 14.6 12.6C13.6 11.8 12.7 10.3 12 8.5C12 8.5 12 8.4 12.1 8.3C12.6 6.2 13.1 3.6 12.1 2.5C11.8 2.2 11.5 2.1 11.1 2.1H10.7C10.1 2.1 9.6 2.7 9.4 3.3C8.8 5.4 9.2 6.6 9.8 8.5C9.4 10 8.9 11.6 8 13.3C7.5 14.4 6.9 15.4 6.5 16.2C5.9 16.5 5.4 16.8 5.1 17C3.2 18.2 2.2 19.6 2.1 20.4C2 20.7 2 21 2.1 21.2V21.3L2.9 21.8C3.1 21.9 3.4 22 3.6 22C4.9 22 6.4 20.5 8.4 17C8.5 17 8.6 16.9 8.7 16.9C10.4 16.4 12.4 16 15.2 15.7C16.8 16.5 18.8 16.9 20 16.9C20.7 16.9 21.2 16.7 21.5 16.4C21.8 16.1 21.9 15.7 22 15.3C22 15 22 14.7 21.8 14.5M3.4 20.9C3.5 20.3 4.2 19.2 5.4 18.2C5.6 18.1 5.8 17.9 6.2 17.7C5 19.6 4.1 20.6 3.4 20.9M10.8 3.2C10.9 3.1 10.9 3 11 3L11.2 3.1C11.5 3.5 11.5 4 11.3 4.9V5.2C11.2 5.6 11.2 6 11 6.5C10.6 5 10.6 3.9 10.8 3.2M8.8 15.8L8.6 15.9C8.7 15.4 9.1 14.8 9.4 14.2C10.1 12.8 10.7 11.5 11 10.3C11.7 11.8 12.5 12.9 13.5 13.8C13.7 14 13.9 14.2 14.2 14.3C12.8 14.5 10.9 15 8.8 15.8M20.9 15.7H20.5C19.8 15.7 18.6 15.4 17.4 14.9C17.5 14.7 17.7 14.7 17.8 14.7C20.1 14.7 20.7 15.1 20.9 15.3C21 15.4 21 15.4 21 15.5C21 15.6 21 15.6 20.9 15.7Z" /></svg>