<?xml version="1.0" encoding="UTF-8"?><!DOCTYPE svg PUBLIC "-//W3C//DTD SVG 1.1//EN" "http://www.w3.org/Graphics/SVG/1.1/DTD/svg11.dtd"><svg xmlns="http://www.w3.org/2000/svg" xmlns:xlink="http://www.w3.org/1999/xlink" version="1.1" id="mdi-air-purifier" width="24" height="24" viewBox="0 0 24 24"><path d="M11,9A4,4 0 0,1 15,13A4,4 0 0,1 11,17A4,4 0 0,1 7,13A4,4 0 0,1 11,9M11,11A2,2 0 0,0 9,13A2,2 0 0,0 11,15A2,2 0 0,0 13,13A2,2 0 0,0 11,11M7,4H14A4,4 0 0,1 18,8V9H16V8A2,2 0 0,0 14,6H7A2,2 0 0,0 5,8V20H16V18H18V22H3V8A4,4 0 0,1 7,4M16,11C18.5,11 18.5,9 21,9V11C18.5,11 18.5,13 16,13V11M16,15C18.5,15 18.5,13 21,13V15C18.5,15 18.5,17 16,17V15Z" /></svg>