<?xml version="1.0" encoding="UTF-8"?><!DOCTYPE svg PUBLIC "-//W3C//DTD SVG 1.1//EN" "http://www.w3.org/Graphics/SVG/1.1/DTD/svg11.dtd"><svg xmlns="http://www.w3.org/2000/svg" xmlns:xlink="http://www.w3.org/1999/xlink" version="1.1" id="mdi-airbag" width="24" height="24" viewBox="0 0 24 24"><path d="M14,8A5,5 0 0,1 9,13A5,5 0 0,1 4,8A5,5 0 0,1 9,3A5,5 0 0,1 14,8M10.46,15.55L13,18.03L11,18.05L7.5,21.58L6,20.09L10.46,15.55M17,2C18.08,2 19,2.88 19,4C19,5.08 18.12,6 17,6C15.92,6 15,5.12 15,4C15,2.92 15.89,2 17,2M14.41,15H11.59L17.29,20.71L18.71,19.29L14.41,15M15.12,14.29L19.41,18.59L19.63,18.8C19.86,18.42 20,18 20,17.5V9.5A2.5,2.5 0 0,0 17.5,7A2.5,2.5 0 0,0 15,9.5V14.17L15.12,14.29Z" /></svg>