<?xml version="1.0" encoding="UTF-8"?><!DOCTYPE svg PUBLIC "-//W3C//DTD SVG 1.1//EN" "http://www.w3.org/Graphics/SVG/1.1/DTD/svg11.dtd"><svg xmlns="http://www.w3.org/2000/svg" xmlns:xlink="http://www.w3.org/1999/xlink" version="1.1" id="mdi-alarm-note" width="24" height="24" viewBox="0 0 24 24"><path d="M17.4,1.86L16.11,3.39L20.71,7.25L22,5.72L17.4,1.86M6.6,1.86L2,5.71L3.29,7.24L7.88,3.39L6.6,1.86M12,4A9,9 0 0,0 3,13A9,9 0 0,0 12,22C12.33,22 12.67,22 13,21.94V19.94C12.67,20 12.33,20 12,20A7,7 0 0,1 5,13A7,7 0 0,1 12,6C15.1,6 17.83,8.03 18.71,11H20.78C19.85,6.9 16.2,4 12,4M23,15H20V20.5A2.5,2.5 0 0,1 17.5,23A2.5,2.5 0 0,1 15,20.5A2.5,2.5 0 0,1 17.5,18C18.04,18 18.57,18.18 19,18.5V13H23V15M11.5,8V13.25L7.5,15.62L8.25,16.85L13,14V8H11.5Z" /></svg>