<?xml version="1.0" encoding="UTF-8"?><!DOCTYPE svg PUBLIC "-//W3C//DTD SVG 1.1//EN" "http://www.w3.org/Graphics/SVG/1.1/DTD/svg11.dtd"><svg xmlns="http://www.w3.org/2000/svg" xmlns:xlink="http://www.w3.org/1999/xlink" version="1.1" id="mdi-alarm-off" width="24" height="24" viewBox="0 0 24 24"><path d="M8,3.28L6.6,1.86L5.74,2.57L7.16,4M16.47,18.39C15.26,19.39 13.7,20 12,20A7,7 0 0,1 5,13C5,11.3 5.61,9.74 6.61,8.53M2.92,2.29L1.65,3.57L3,4.9L1.87,5.83L3.29,7.25L4.4,6.31L5.2,7.11C3.83,8.69 3,10.75 3,13A9,9 0 0,0 12,22C14.25,22 16.31,21.17 17.89,19.8L20.09,22L21.36,20.73L3.89,3.27L2.92,2.29M22,5.72L17.4,1.86L16.11,3.39L20.71,7.25L22,5.72M12,6A7,7 0 0,1 19,13C19,13.84 18.84,14.65 18.57,15.4L20.09,16.92C20.67,15.73 21,14.41 21,13A9,9 0 0,0 12,4C10.59,4 9.27,4.33 8.08,4.91L9.6,6.43C10.35,6.16 11.16,6 12,6Z" /></svg>