<?xml version="1.0" encoding="UTF-8"?><!DOCTYPE svg PUBLIC "-//W3C//DTD SVG 1.1//EN" "http://www.w3.org/Graphics/SVG/1.1/DTD/svg11.dtd"><svg xmlns="http://www.w3.org/2000/svg" xmlns:xlink="http://www.w3.org/1999/xlink" version="1.1" id="mdi-alphabetical-variant-off" width="24" height="24" viewBox="0 0 24 24"><path d="M12.2 9L10.2 7H13A2 2 0 0 1 15 9V10.5A1.47 1.47 0 0 1 14.64 11.44L13 9.8V9M23 10V9A2 2 0 0 0 21 7H19A2 2 0 0 0 17 9V13.8L20.2 17H21A2 2 0 0 0 23 15V14H21V15H19V9H21V10M15 14.35L22.11 21.46L20.84 22.73L14.46 16.35A2 2 0 0 1 13 17H9V10.89L7 8.89V17H5V13H3V17H1V9A2 2 0 0 1 3 7H5.12L1.12 3L2.39 1.73L9 8.34L11 10.34L11.66 11L15 14.34M5 9H3V11H5M13 14.89L11.11 13H11V15H13Z" /></svg>