<?xml version="1.0" encoding="UTF-8"?><!DOCTYPE svg PUBLIC "-//W3C//DTD SVG 1.1//EN" "http://www.w3.org/Graphics/SVG/1.1/DTD/svg11.dtd"><svg xmlns="http://www.w3.org/2000/svg" xmlns:xlink="http://www.w3.org/1999/xlink" version="1.1" id="mdi-alpha-s-box-outline" width="24" height="24" viewBox="0 0 24 24"><path d="M11,7H15V9H11V11H13A2,2 0 0,1 15,13V15A2,2 0 0,1 13,17H9V15H13V13H11A2,2 0 0,1 9,11V9A2,2 0 0,1 11,7M5,3H19A2,2 0 0,1 21,5V19A2,2 0 0,1 19,21H5A2,2 0 0,1 3,19V5A2,2 0 0,1 5,3M5,5V19H19V5H5Z" /></svg>