<?xml version="1.0" encoding="UTF-8"?><!DOCTYPE svg PUBLIC "-//W3C//DTD SVG 1.1//EN" "http://www.w3.org/Graphics/SVG/1.1/DTD/svg11.dtd"><svg xmlns="http://www.w3.org/2000/svg" xmlns:xlink="http://www.w3.org/1999/xlink" version="1.1" id="mdi-alphabet-tengwar" width="24" height="24" viewBox="0 0 24 24"><path d="M10 7L12.5 3H15L11 7H10M12.5 9C11.96 9 11.46 9.13 11 9.35V9H8V11H9V21H11V12.5C11 11.67 11.67 11 12.5 11C13.33 11 14 11.67 14 12.5V14.5C14 15.33 13.33 16 12.5 16H12V18H12.5C14.43 18 16 16.43 16 14.5V12.5C16 10.57 14.43 9 12.5 9Z" /></svg>