<svg xmlns="http://www.w3.org/2000/svg" viewBox="0 0 24 24"><path d="M15.93 17.09c-.18.16-.43.17-.63.06-.89-.74-1.05-1.08-1.54-1.79-1.47 1.5-2.51 1.95-4.42 1.95-2.25 0-4.01-1.39-4.01-4.17 0-2.18 1.17-3.64 2.86-4.38 1.46-.64 3.49-.76 5.04-.93V7.5c0-.66.05-1.41-.33-1.96-.32-.49-.95-.7-1.5-.7-1.02 0-1.93.53-2.15 1.61-.05.24-.25.48-.47.49l-2.6-.28c-.22-.05-.46-.22-.4-.56.6-3.15 3.45-4.1 6-4.1 1.3 0 3 .35 4.03 1.33C17.11 4.55 17 6.18 17 7.95v4.17c0 1.25.5 1.81 1 2.48.17.25.21.54 0 .71l-2.06 1.78h-.01m-2.7-6.53V10c-1.94 0-3.99.39-3.99 2.67 0 1.16.61 1.95 1.63 1.95.76 0 1.43-.47 1.86-1.22.52-.93.5-1.8.5-2.84m6.93 8.98C18 21.14 14.82 22 12.1 22c-3.81 0-7.25-1.41-9.85-3.76-.2-.18-.02-.43.25-.29 2.78 1.63 6.25 2.61 9.83 2.61 2.41 0 5.07-.5 7.51-1.53.37-.16.66.24.32.51m.91-1.04c-.28-.36-1.85-.17-2.57-.08-.19.02-.22-.16-.03-.3 1.24-.88 3.29-.62 3.53-.33.24.3-.07 2.35-1.24 3.32-.18.16-.35.07-.26-.11.26-.67.85-2.14.57-2.5z"/></svg>