<?xml version="1.0" encoding="UTF-8"?><!DOCTYPE svg PUBLIC "-//W3C//DTD SVG 1.1//EN" "http://www.w3.org/Graphics/SVG/1.1/DTD/svg11.dtd"><svg xmlns="http://www.w3.org/2000/svg" xmlns:xlink="http://www.w3.org/1999/xlink" version="1.1" id="mdi-amplifier-off" width="24" height="24" viewBox="0 0 24 24"><path d="M22.1 21.5L2.4 1.7L1.1 3L3 4.9V21H5C5 21.6 5.4 22 6 22S7 21.6 7 21H17C17 21.6 17.4 22 18 22S19 21.6 19 21H19.1L20.8 22.7L22.1 21.5M5 9V6.9L7.1 9H5M12 19C9.8 19 8 17.2 8 15C8 13.6 8.7 12.4 9.8 11.7L15.3 17.2C14.6 18.3 13.4 19 12 19M14 6V7H12V6H14M10 6C10.6 6 11 6.4 11 7C11 7.2 10.9 7.4 10.8 7.6L9.4 6.2C9.6 6.1 9.8 6 10 6M8.2 5L6.2 3H9C9 2.4 9.4 2 10 2H14C14.6 2 15 2.4 15 3H21V17.8L12.2 9H19V5H8.2M16 6V8H15V6H16M18 6V8H17V6H18Z" /></svg>