<?xml version="1.0" encoding="UTF-8"?><!DOCTYPE svg PUBLIC "-//W3C//DTD SVG 1.1//EN" "http://www.w3.org/Graphics/SVG/1.1/DTD/svg11.dtd"><svg xmlns="http://www.w3.org/2000/svg" xmlns:xlink="http://www.w3.org/1999/xlink" version="1.1" id="mdi-android" width="24" height="24" viewBox="0 0 24 24"><path d="M16.61 15.15C16.15 15.15 15.77 14.78 15.77 14.32S16.15 13.5 16.61 13.5H16.61C17.07 13.5 17.45 13.86 17.45 14.32C17.45 14.78 17.07 15.15 16.61 15.15M7.41 15.15C6.95 15.15 6.57 14.78 6.57 14.32C6.57 13.86 6.95 13.5 7.41 13.5H7.41C7.87 13.5 8.24 13.86 8.24 14.32C8.24 14.78 7.87 15.15 7.41 15.15M16.91 10.14L18.58 7.26C18.67 7.09 18.61 6.88 18.45 6.79C18.28 6.69 18.07 6.75 18 6.92L16.29 9.83C14.95 9.22 13.5 8.9 12 8.91C10.47 8.91 9 9.24 7.73 9.82L6.04 6.91C5.95 6.74 5.74 6.68 5.57 6.78C5.4 6.87 5.35 7.08 5.44 7.25L7.1 10.13C4.25 11.69 2.29 14.58 2 18H22C21.72 14.59 19.77 11.7 16.91 10.14H16.91Z" /></svg>