<svg xmlns="http://www.w3.org/2000/svg" viewBox="0 0 24 24"><path d="M12 2a10 10 0 0110 10 10 10 0 01-10 10A10 10 0 012 12 10 10 0 0112 2m0 2a8 8 0 00-8 8c0 2.09.8 4 2.11 5.41l3.77-7.53 7.53-3.77A7.931 7.931 0 0012 4m0 16a8 8 0 008-8c0-2.09-.8-4-2.11-5.41l-3.77 7.53-7.53 3.77A7.931 7.931 0 0012 20m0-8l-.77-.77L9.7 14.3l3.07-1.53L12 12m0 5.5h1V19h-1v-1.5m3.88-1.61l.71-.71 1.06 1.06-.71.71-1.06-1.06M17.5 12v-1H19v1h-1.5M12 6.5h-1V5h1v1.5M8.12 8.11l-.71.71-1.06-1.06.71-.71 1.06 1.06M6.5 12v1H5v-1h1.5z"/></svg>