<?xml version="1.0" encoding="UTF-8"?><!DOCTYPE svg PUBLIC "-//W3C//DTD SVG 1.1//EN" "http://www.w3.org/Graphics/SVG/1.1/DTD/svg11.dtd"><svg xmlns="http://www.w3.org/2000/svg" xmlns:xlink="http://www.w3.org/1999/xlink" version="1.1" id="mdi-apple-ios" width="24" height="24" viewBox="0 0 24 24"><path d="M2.09 16.8H3.75V9.76H2.09M2.92 8.84C3.44 8.84 3.84 8.44 3.84 7.94C3.84 7.44 3.44 7.04 2.92 7.04C2.4 7.04 2 7.44 2 7.94C2 8.44 2.4 8.84 2.92 8.84M9.25 7.06C6.46 7.06 4.7 8.96 4.7 12C4.7 15.06 6.46 16.96 9.25 16.96C12.04 16.96 13.8 15.06 13.8 12C13.8 8.96 12.04 7.06 9.25 7.06M9.25 8.5C10.96 8.5 12.05 9.87 12.05 12C12.05 14.15 10.96 15.5 9.25 15.5C7.54 15.5 6.46 14.15 6.46 12C6.46 9.87 7.54 8.5 9.25 8.5M14.5 14.11C14.57 15.87 16 16.96 18.22 16.96C20.54 16.96 22 15.82 22 14C22 12.57 21.18 11.77 19.23 11.32L18.13 11.07C16.95 10.79 16.47 10.42 16.47 9.78C16.47 9 17.2 8.45 18.28 8.45C19.38 8.45 20.13 9 20.21 9.89H21.84C21.8 8.2 20.41 7.06 18.29 7.06C16.21 7.06 14.73 8.21 14.73 9.91C14.73 11.28 15.56 12.13 17.33 12.53L18.57 12.82C19.78 13.11 20.27 13.5 20.27 14.2C20.27 15 19.47 15.57 18.31 15.57C17.15 15.57 16.26 15 16.16 14.11H14.5Z" /></svg>