<svg xmlns="http://www.w3.org/2000/svg" viewBox="0 0 24 24"><path d="M6,2A4,4 0 0,1 10,6V8H14V6A4,4 0 0,1 18,2A4,4 0 0,1 22,6A4,4 0 0,1 18,10H16V14H18A4,4 0 0,1 22,18A4,4 0 0,1 18,22A4,4 0 0,1 14,18V16H10V18A4,4 0 0,1 6,22A4,4 0 0,1 2,18A4,4 0 0,1 6,14H8V10H6A4,4 0 0,1 2,6A4,4 0 0,1 6,2M16,18A2,2 0 0,0 18,20A2,2 0 0,0 20,18A2,2 0 0,0 18,16H16V18M14,10H10V14H14V10M6,16A2,2 0 0,0 4,18A2,2 0 0,0 6,20A2,2 0 0,0 8,18V16H6M8,6A2,2 0 0,0 6,4A2,2 0 0,0 4,6A2,2 0 0,0 6,8H8V6M18,8A2,2 0 0,0 20,6A2,2 0 0,0 18,4A2,2 0 0,0 16,6V8H18Z" /></svg>