<?xml version="1.0" encoding="UTF-8"?><!DOCTYPE svg PUBLIC "-//W3C//DTD SVG 1.1//EN" "http://www.w3.org/Graphics/SVG/1.1/DTD/svg11.dtd"><svg xmlns="http://www.w3.org/2000/svg" xmlns:xlink="http://www.w3.org/1999/xlink" version="1.1" id="mdi-arrow-horizontal-lock" width="24" height="24" viewBox="0 0 24 24"><path d="M14.8 7V5.5C14.8 4.1 13.4 3 12 3S9.2 4.1 9.2 5.5V7C8.6 7 8 7.6 8 8.2V11.7C8 12.4 8.6 13 9.2 13H14.7C15.4 13 16 12.4 16 11.8V8.3C16 7.6 15.4 7 14.8 7M13.5 7H10.5V5.5C10.5 4.7 11.2 4.2 12 4.2S13.5 4.7 13.5 5.5V7M6 17V20L2 16L6 12V15H18V12L22 16L18 20V17H6Z" /></svg>