<?xml version="1.0" encoding="UTF-8"?><!DOCTYPE svg PUBLIC "-//W3C//DTD SVG 1.1//EN" "http://www.w3.org/Graphics/SVG/1.1/DTD/svg11.dtd"><svg xmlns="http://www.w3.org/2000/svg" xmlns:xlink="http://www.w3.org/1999/xlink" version="1.1" id="mdi-attachment" width="24" height="24" viewBox="0 0 24 24"><path d="M7.5,18A5.5,5.5 0 0,1 2,12.5A5.5,5.5 0 0,1 7.5,7H18A4,4 0 0,1 22,11A4,4 0 0,1 18,15H9.5A2.5,2.5 0 0,1 7,12.5A2.5,2.5 0 0,1 9.5,10H17V11.5H9.5A1,1 0 0,0 8.5,12.5A1,1 0 0,0 9.5,13.5H18A2.5,2.5 0 0,0 20.5,11A2.5,2.5 0 0,0 18,8.5H7.5A4,4 0 0,0 3.5,12.5A4,4 0 0,0 7.5,16.5H17V18H7.5Z" /></svg>