<?xml version="1.0" encoding="UTF-8"?><!DOCTYPE svg PUBLIC "-//W3C//DTD SVG 1.1//EN" "http://www.w3.org/Graphics/SVG/1.1/DTD/svg11.dtd"><svg xmlns="http://www.w3.org/2000/svg" xmlns:xlink="http://www.w3.org/1999/xlink" version="1.1" id="mdi-av-timer" width="24" height="24" viewBox="0 0 24 24"><path d="M11,17A1,1 0 0,0 12,18A1,1 0 0,0 13,17A1,1 0 0,0 12,16A1,1 0 0,0 11,17M11,3V7H13V5.08C16.39,5.57 19,8.47 19,12A7,7 0 0,1 12,19A7,7 0 0,1 5,12C5,10.32 5.59,8.78 6.58,7.58L12,13L13.41,11.59L6.61,4.79V4.81C4.42,6.45 3,9.05 3,12A9,9 0 0,0 12,21A9,9 0 0,0 21,12A9,9 0 0,0 12,3M18,12A1,1 0 0,0 17,11A1,1 0 0,0 16,12A1,1 0 0,0 17,13A1,1 0 0,0 18,12M6,12A1,1 0 0,0 7,13A1,1 0 0,0 8,12A1,1 0 0,0 7,11A1,1 0 0,0 6,12Z" /></svg>