<?xml version="1.0" encoding="UTF-8"?><!DOCTYPE svg PUBLIC "-//W3C//DTD SVG 1.1//EN" "http://www.w3.org/Graphics/SVG/1.1/DTD/svg11.dtd"><svg xmlns="http://www.w3.org/2000/svg" xmlns:xlink="http://www.w3.org/1999/xlink" version="1.1" id="mdi-axis-x-y-arrow-lock" width="24" height="24" viewBox="0 0 24 24"><path d="M21.8,5C22.4,5 23,5.6 23,6.3V9.8C23,10.4 22.4,11 21.7,11H16.2C15.6,11 15,10.4 15,9.7V6.2C15,5.6 15.6,5 16.2,5V3.5C16.2,2.1 17.6,1 19,1C20.4,1 21.8,2.1 21.8,3.5V5M20.5,5V3.5C20.5,2.7 19.8,2.2 19,2.2C18.2,2.2 17.5,2.7 17.5,3.5V5H20.5M1.74,19.25L3.21,13.79L4.68,16.34L9,13.85V3H11V13.85L17.53,17.61L19,15.03L20.5,20.5L15,21.96L16.53,19.35L10,15.58L5.68,18.07L7.21,20.71L1.74,19.25Z" /></svg>