<?xml version="1.0" encoding="UTF-8"?><!DOCTYPE svg PUBLIC "-//W3C//DTD SVG 1.1//EN" "http://www.w3.org/Graphics/SVG/1.1/DTD/svg11.dtd"><svg xmlns="http://www.w3.org/2000/svg" xmlns:xlink="http://www.w3.org/1999/xlink" version="1.1" id="mdi-baby-face-outline" width="24" height="24" viewBox="0 0 24 24"><path d="M14.5,9.25A1.25,1.25 0 0,1 15.75,10.5A1.25,1.25 0 0,1 14.5,11.75A1.25,1.25 0 0,1 13.25,10.5A1.25,1.25 0 0,1 14.5,9.25M9.5,9.25A1.25,1.25 0 0,1 10.75,10.5A1.25,1.25 0 0,1 9.5,11.75A1.25,1.25 0 0,1 8.25,10.5A1.25,1.25 0 0,1 9.5,9.25M7.5,14H16.5C15.74,15.77 14,17 12,17C10,17 8.26,15.77 7.5,14M1,12C1,10.19 2.2,8.66 3.86,8.17C5.29,5.11 8.4,3 12,3C15.6,3 18.71,5.11 20.15,8.17C21.8,8.66 23,10.19 23,12C23,13.81 21.8,15.34 20.15,15.83C18.71,18.89 15.6,21 12,21C8.4,21 5.29,18.89 3.86,15.83C2.2,15.34 1,13.81 1,12M12,5C8.82,5 6.14,7.12 5.28,10H5A2,2 0 0,0 3,12A2,2 0 0,0 5,14H5.28C6.14,16.88 8.82,19 12,19C15.18,19 17.86,16.88 18.72,14H19A2,2 0 0,0 21,12A2,2 0 0,0 19,10H18.72C17.86,7.12 15.18,5 12,5Z" /></svg>