<?xml version="1.0" encoding="UTF-8"?><!DOCTYPE svg PUBLIC "-//W3C//DTD SVG 1.1//EN" "http://www.w3.org/Graphics/SVG/1.1/DTD/svg11.dtd"><svg xmlns="http://www.w3.org/2000/svg" xmlns:xlink="http://www.w3.org/1999/xlink" version="1.1" id="mdi-baby-carriage-off" width="24" height="24" viewBox="0 0 24 24"><path d="M22 10C22 5.6 18.4 2 14 2V10H22M14.2 11H22C22 12.8 21.4 14.5 20.3 15.9C21 16.5 21.4 17.4 21.5 18.3L14.2 11M20.8 22.7L22.1 21.4L2.4 1.7L1.1 3L9.1 11H7.4L6.5 9H3V11H5.2C5.2 11 7.1 15.1 7.3 15.4C6.3 15.9 5.6 16.9 5.5 18C5.2 19.9 6.6 21.7 8.5 22C10.4 22.3 12.2 20.9 12.5 19H14.6C14.7 19.4 14.8 19.8 15 20.2C15.9 21.9 18.1 22.5 19.7 21.6L20.8 22.7M10.5 18.5C10.5 19.3 9.8 20 9 20S7.5 19.3 7.5 18.5 8.2 17 9 17 10.5 17.7 10.5 18.5M18.1 20C17.2 20 16.5 19.3 16.5 18.5V18.4L18.1 20Z" /></svg>