<?xml version="1.0" encoding="UTF-8"?><!DOCTYPE svg PUBLIC "-//W3C//DTD SVG 1.1//EN" "http://www.w3.org/Graphics/SVG/1.1/DTD/svg11.dtd"><svg xmlns="http://www.w3.org/2000/svg" xmlns:xlink="http://www.w3.org/1999/xlink" version="1.1" id="mdi-baby-buggy" width="24" height="24" viewBox="0 0 24 24"><path d="M17 20A2 2 0 0 1 15 22A2 2 0 0 1 13 20A2 2 0 0 1 15 18A2 2 0 0 1 17 20M7 20A2 2 0 0 1 5 22A2 2 0 0 1 3 20A2 2 0 0 1 5 18A2 2 0 0 1 7 20M17.61 3C16.95 3 16.44 3.2 16 3.5C15.32 3.91 14.88 4.59 14.47 5.07L5.71 15.35C5.16 16 5.62 17 6.47 17H14C15.11 17 16 16.1 16 15V6.38C16.58 5.7 16.93 5 17.61 5C18.38 5 19 5.66 19 6.5V7H21V6.5C21 4.56 19.5 3 17.61 3M8.86 3.09C7.04 3.16 5.23 3.76 3.68 4.9L8.44 9.66L12.32 5.1C12.59 4.78 12.91 4.38 13.3 4C12.14 3.45 10.9 3.15 9.65 3.09C9.39 3.08 9.12 3.08 8.86 3.09Z" /></svg>