<?xml version="1.0" encoding="UTF-8"?><!DOCTYPE svg PUBLIC "-//W3C//DTD SVG 1.1//EN" "http://www.w3.org/Graphics/SVG/1.1/DTD/svg11.dtd"><svg xmlns="http://www.w3.org/2000/svg" xmlns:xlink="http://www.w3.org/1999/xlink" version="1.1" id="mdi-badminton" width="24" height="24" viewBox="0 0 24 24"><path d="M12.3,2C11.33,2.03 10.58,2.84 10.61,3.8C10.62,4.04 10.67,4.27 10.77,4.5L11.06,5.14V5.14C11.1,5.27 11.03,5.41 10.89,5.45C10.8,5.5 10.7,5.45 10.63,5.37L10.21,4.82C9.88,4.4 9.38,4.14 8.85,4.13C7.88,4.11 7.08,4.88 7.06,5.84C7.05,6.26 7.19,6.66 7.45,7L7.87,7.5H7.88C7.96,7.63 7.93,7.79 7.82,7.87C7.73,7.94 7.61,7.94 7.53,7.87L7,7.45C6.66,7.19 6.25,7.05 5.84,7.06C4.88,7.08 4.11,7.88 4.13,8.85C4.14,9.38 4.4,9.88 4.82,10.21L5.39,10.65C5.5,10.75 5.5,10.91 5.38,11C5.31,11.07 5.21,11.09 5.12,11.05H5.11L4.5,10.77C4.27,10.68 4.04,10.62 3.8,10.61C2.84,10.58 2.03,11.34 2,12.31C2,13.03 2.4,13.69 3.06,13.97L14.45,19.04L19.04,14.45L13.97,3.06C13.69,2.39 13,1.97 12.3,2M13.13,6.1C13.55,6.09 13.93,6.33 14.09,6.71L17.14,13.55L13.19,9.61L12.26,7.5C11.96,6.87 12.42,6.12 13.13,6.1M9.85,8.85C10.12,8.85 10.37,8.95 10.56,9.15L15.37,13.96C15.77,14.34 15.78,14.97 15.4,15.37C15,15.77 14.38,15.78 13.96,15.37L9.15,10.56C8.75,10.18 8.74,9.54 9.13,9.15C9.32,8.95 9.58,8.85 9.85,8.85M7.13,12.17C7.26,12.17 7.4,12.21 7.5,12.26L9.63,13.2L13.57,17.14L6.71,14.09C5.69,13.65 6.03,12.14 7.13,12.17M20.28,16.04L16.04,20.28L16.89,21.13C17.65,21.88 18.75,22.17 19.78,21.9C20.81,21.62 21.62,20.81 21.9,19.78C22.17,18.75 21.88,17.65 21.13,16.89L20.28,16.04Z" /></svg>