<?xml version="1.0" encoding="UTF-8"?><!DOCTYPE svg PUBLIC "-//W3C//DTD SVG 1.1//EN" "http://www.w3.org/Graphics/SVG/1.1/DTD/svg11.dtd"><svg xmlns="http://www.w3.org/2000/svg" xmlns:xlink="http://www.w3.org/1999/xlink" version="1.1" id="mdi-bag-personal-outline" width="24" height="24" viewBox="0 0 24 24"><path d="M16,5V4A2,2 0 0,0 14,2H10A2,2 0 0,0 8,4V5A4,4 0 0,0 4,9V20A2,2 0 0,0 6,22H18A2,2 0 0,0 20,20V9A4,4 0 0,0 16,5M10,4H14V5H10V4M12,9L14,11L12,13L10,11L12,9M18,20H6V16H8V18H9V16H18V20M18,15H6V9A2,2 0 0,1 8,7H16A2,2 0 0,1 18,9V15Z" /></svg>