<?xml version="1.0" encoding="UTF-8"?><!DOCTYPE svg PUBLIC "-//W3C//DTD SVG 1.1//EN" "http://www.w3.org/Graphics/SVG/1.1/DTD/svg11.dtd"><svg xmlns="http://www.w3.org/2000/svg" xmlns:xlink="http://www.w3.org/1999/xlink" version="1.1" id="mdi-ballot-outline" width="24" height="24" viewBox="0 0 24 24"><path d="M13,7.5H18V9.5H13V7.5M13,14.5H18V16.5H13V14.5M19,3A2,2 0 0,1 21,5V19A2,2 0 0,1 19,21H5A2,2 0 0,1 3,19V5A2,2 0 0,1 5,3H19M19,19V5H5V19H19M11,6V11H6V6H11M10,10V7H7V10H10M11,13V18H6V13H11M10,17V14H7V17H10Z" /></svg>