<?xml version="1.0" encoding="UTF-8"?><!DOCTYPE svg PUBLIC "-//W3C//DTD SVG 1.1//EN" "http://www.w3.org/Graphics/SVG/1.1/DTD/svg11.dtd"><svg xmlns="http://www.w3.org/2000/svg" xmlns:xlink="http://www.w3.org/1999/xlink" version="1.1" id="mdi-bandage" width="24" height="24" viewBox="0 0 24 24"><path d="M17.73,12L21.71,8.04C22.1,7.65 22.1,7 21.71,6.63L17.37,2.29C17,1.9 16.35,1.9 15.96,2.29L12,6.27L8,2.29C7.8,2.1 7.55,2 7.29,2C7.04,2 6.78,2.1 6.59,2.29L2.25,6.63C1.86,7 1.86,7.65 2.25,8.04L6.23,12L2.25,16C1.86,16.39 1.86,17 2.25,17.41L6.59,21.75C7,22.14 7.61,22.14 8,21.75L12,17.77L15.96,21.75C16.16,21.95 16.41,22.04 16.67,22.04C16.93,22.04 17.18,21.94 17.38,21.75L21.72,17.41C22.11,17 22.11,16.39 21.72,16L17.73,12M12,9A1,1 0 0,1 13,10A1,1 0 0,1 12,11A1,1 0 0,1 11,10A1,1 0 0,1 12,9M7.29,10.96L3.66,7.34L7.29,3.71L10.91,7.33L7.29,10.96M10,13A1,1 0 0,1 9,12A1,1 0 0,1 10,11A1,1 0 0,1 11,12A1,1 0 0,1 10,13M12,15A1,1 0 0,1 11,14A1,1 0 0,1 12,13A1,1 0 0,1 13,14A1,1 0 0,1 12,15M14,11A1,1 0 0,1 15,12A1,1 0 0,1 14,13A1,1 0 0,1 13,12A1,1 0 0,1 14,11M16.66,20.34L13.03,16.72L16.66,13.09L20.28,16.71L16.66,20.34Z" /></svg>