<?xml version="1.0" encoding="UTF-8"?><!DOCTYPE svg PUBLIC "-//W3C//DTD SVG 1.1//EN" "http://www.w3.org/Graphics/SVG/1.1/DTD/svg11.dtd"><svg xmlns="http://www.w3.org/2000/svg" xmlns:xlink="http://www.w3.org/1999/xlink" version="1.1" id="mdi-battery-bluetooth-variant" width="24" height="24" viewBox="0 0 24 24"><path d="M9,2V4H7.33A1.33,1.33 0 0,0 6,5.33V20.67C6,21.4 6.6,22 7.33,22H16.67A1.33,1.33 0 0,0 18,20.67V5.33C18,4.6 17.4,4 16.67,4H15V2H9M11.83,8H12.33L15.18,10.85L13.04,13L15.17,15.14L12.33,18H11.83V14.21L9.54,16.5L8.83,15.79L11.62,13L8.83,10.21L9.54,9.5L11.83,11.79V8M12.83,9.91V11.79L13.77,10.85L12.83,9.91M12.83,14.21V16.08L13.77,15.14L12.83,14.21Z" /></svg>