<?xml version="1.0" encoding="UTF-8"?><!DOCTYPE svg PUBLIC "-//W3C//DTD SVG 1.1//EN" "http://www.w3.org/Graphics/SVG/1.1/DTD/svg11.dtd"><svg xmlns="http://www.w3.org/2000/svg" xmlns:xlink="http://www.w3.org/1999/xlink" version="1.1" id="mdi-bed-outline" width="24" height="24" viewBox="0 0 24 24"><path d="M7 14C8.66 14 10 12.66 10 11C10 9.34 8.66 8 7 8C5.34 8 4 9.34 4 11C4 12.66 5.34 14 7 14M7 10C7.55 10 8 10.45 8 11C8 11.55 7.55 12 7 12C6.45 12 6 11.55 6 11C6 10.45 6.45 10 7 10M19 7H11V15H3V5H1V20H3V17H21V20H23V11C23 8.79 21.21 7 19 7M21 15H13V9H19C20.1 9 21 9.9 21 11Z" /></svg>