<svg xmlns="http://www.w3.org/2000/svg" viewBox="0 0 24 24"><path d="M17.5 13a4.5 4.5 0 00-4.5 4.5 4.5 4.5 0 004.5 4.5 4.5 4.5 0 004.5-4.5 4.5 4.5 0 00-4.5-4.5m0 1.5a3 3 0 013 3 3 3 0 01-.42 1.5L16 14.92a3 3 0 011.5-.42M14.92 16L19 20.08a3 3 0 01-1.5.42 3 3 0 01-3-3 3 3 0 01.42-1.5M12 2c-1.1 0-2 .9-2 2v.29C7.12 5.14 5 7.82 5 11v6l-2 2v1h8.5a6.5 6.5 0 01-.47-2H7v-7a5 5 0 015-5 5 5 0 015 5 6.5 6.5 0 01.5 0 6.5 6.5 0 011.5.18V11c0-3.18-2.12-5.86-5-6.71V4a2 2 0 00-2-2m-2 19a2 2 0 002 2c.5 0 .97-.19 1.33-.5a6.5 6.5 0 01-1.3-1.5z"/></svg>