<?xml version="1.0" encoding="UTF-8"?><!DOCTYPE svg PUBLIC "-//W3C//DTD SVG 1.1//EN" "http://www.w3.org/Graphics/SVG/1.1/DTD/svg11.dtd"><svg xmlns="http://www.w3.org/2000/svg" xmlns:xlink="http://www.w3.org/1999/xlink" version="1.1" id="mdi-bell-plus" width="24" height="24" viewBox="0 0 24 24"><path d="M17 14V17H14V19H17V22H19V19H22V17H19V14M12 2A2 2 0 0 0 10 4A2 2 0 0 0 10 4.29C7.12 5.14 5 7.82 5 11V17L3 19V20H12.35A6 6 0 0 1 12 18A6 6 0 0 1 18 12A6 6 0 0 1 19 12.09V11C19 7.82 16.88 5.14 14 4.29A2 2 0 0 0 14 4A2 2 0 0 0 12 2M10 21A2 2 0 0 0 12 23A2 2 0 0 0 13.65 22.13A6 6 0 0 1 12.81 21Z" /></svg>