<?xml version="1.0" encoding="UTF-8"?><!DOCTYPE svg PUBLIC "-//W3C//DTD SVG 1.1//EN" "http://www.w3.org/Graphics/SVG/1.1/DTD/svg11.dtd"><svg xmlns="http://www.w3.org/2000/svg" xmlns:xlink="http://www.w3.org/1999/xlink" version="1.1" id="mdi-bell-circle" width="24" height="24" viewBox="0 0 24 24"><path d="M12,2A10,10 0 0,1 22,12A10,10 0 0,1 12,22A10,10 0 0,1 2,12A10,10 0 0,1 12,2M17,16V15L16,14V11.39C16,10.3 15.73,9.34 15.21,8.53C14.7,7.72 13.96,7.21 13,7V6.5A1,1 0 0,0 12,5.5A1,1 0 0,0 11,6.5V7C10.04,7.21 9.3,7.72 8.79,8.53C8.27,9.34 8,10.3 8,11.39V14L7,15V16H17M13.5,17H10.5A1.5,1.5 0 0,0 12,18.5A1.5,1.5 0 0,0 13.5,17Z" /></svg>