<?xml version="1.0" encoding="UTF-8"?><!DOCTYPE svg PUBLIC "-//W3C//DTD SVG 1.1//EN" "http://www.w3.org/Graphics/SVG/1.1/DTD/svg11.dtd"><svg xmlns="http://www.w3.org/2000/svg" xmlns:xlink="http://www.w3.org/1999/xlink" version="1.1" id="mdi-bell-check" width="24" height="24" viewBox="0 0 24 24"><path d="M17.75 21.16L15 18.16L16.16 17L17.75 18.59L21.34 15L22.5 16.41L17.75 21.16M3 20V19L5 17V11C5 7.9 7.03 5.18 10 4.29V4C10 2.9 10.9 2 12 2C13.11 2 14 2.9 14 4V4.29C16.97 5.18 19 7.9 19 11V12.08L18 12C14.69 12 12 14.69 12 18C12 18.7 12.12 19.37 12.34 20H3M12 23C10.9 23 10 22.11 10 21H12.8C13.04 21.41 13.33 21.79 13.65 22.13C13.29 22.66 12.69 23 12 23Z" /></svg>