<?xml version="1.0" encoding="UTF-8"?><!DOCTYPE svg PUBLIC "-//W3C//DTD SVG 1.1//EN" "http://www.w3.org/Graphics/SVG/1.1/DTD/svg11.dtd"><svg xmlns="http://www.w3.org/2000/svg" xmlns:xlink="http://www.w3.org/1999/xlink" version="1.1" id="mdi-bell-cancel-outline" width="24" height="24" viewBox="0 0 24 24"><path d="M17.5 13A4.5 4.5 0 0 0 13 17.5A4.5 4.5 0 0 0 17.5 22A4.5 4.5 0 0 0 22 17.5A4.5 4.5 0 0 0 17.5 13M17.5 14.5A3 3 0 0 1 20.5 17.5A3 3 0 0 1 20.08 19L16 14.92A3 3 0 0 1 17.5 14.5M14.92 16L19 20.08A3 3 0 0 1 17.5 20.5A3 3 0 0 1 14.5 17.5A3 3 0 0 1 14.92 16M12 2C10.9 2 10 2.9 10 4C10 4.1 10 4.19 10 4.29C7.12 5.14 5 7.82 5 11V17L3 19V20H11.5A6.5 6.5 0 0 1 11.03 18H7V11A5 5 0 0 1 12 6A5 5 0 0 1 17 11V11A6.5 6.5 0 0 1 17.5 11A6.5 6.5 0 0 1 19 11.18V11C19 7.82 16.88 5.14 14 4.29C14 4.19 14 4.1 14 4C14 2.9 13.11 2 12 2M10 21C10 22.11 10.9 23 12 23C12.5 23 12.97 22.81 13.33 22.5A6.5 6.5 0 0 1 12.03 21Z" /></svg>