<?xml version="1.0" encoding="UTF-8"?><!DOCTYPE svg PUBLIC "-//W3C//DTD SVG 1.1//EN" "http://www.w3.org/Graphics/SVG/1.1/DTD/svg11.dtd"><svg xmlns="http://www.w3.org/2000/svg" xmlns:xlink="http://www.w3.org/1999/xlink" version="1.1" id="mdi-beta" width="24" height="24" viewBox="0 0 24 24"><path d="M9.23,17.59V23.12H6.88V6.72C6.88,5.27 7.31,4.13 8.16,3.28C9,2.43 10.17,2 11.61,2C13,2 14.07,2.34 14.87,3C15.66,3.68 16.05,4.62 16.05,5.81C16.05,6.63 15.79,7.4 15.27,8.11C14.75,8.82 14.08,9.31 13.25,9.58V9.62C14.5,9.82 15.47,10.27 16.13,11C16.79,11.71 17.12,12.62 17.12,13.74C17.12,15.06 16.66,16.14 15.75,16.97C14.83,17.8 13.63,18.21 12.13,18.21C11.07,18.21 10.1,18 9.23,17.59M10.72,10.75V8.83C11.59,8.72 12.3,8.4 12.87,7.86C13.43,7.31 13.71,6.7 13.71,6C13.71,4.62 13,3.92 11.6,3.92C10.84,3.92 10.25,4.16 9.84,4.65C9.43,5.14 9.23,5.82 9.23,6.71V15.5C10.14,16.03 11.03,16.29 11.89,16.29C12.73,16.29 13.39,16.07 13.86,15.64C14.33,15.2 14.56,14.58 14.56,13.79C14.56,12 13.28,11 10.72,10.75Z" /></svg>