<?xml version="1.0" encoding="UTF-8"?><!DOCTYPE svg PUBLIC "-//W3C//DTD SVG 1.1//EN" "http://www.w3.org/Graphics/SVG/1.1/DTD/svg11.dtd"><svg xmlns="http://www.w3.org/2000/svg" xmlns:xlink="http://www.w3.org/1999/xlink" version="1.1" id="mdi-billboard" width="24" height="24" viewBox="0 0 24 24"><path d="M20 22H18V17H20M6 22H4V17H6M23 4V13A2 2 0 0 1 21 15H3A2 2 0 0 1 1 13V4A2 2 0 0 1 3 2H21A2 2 0 0 1 23 4M21 4H3V13H21M20 6H15V8H20M18 9H15V11H18M14 11H4L6.73 7.36L8.73 10.09L9.46 9.55L8.2 7.82L9.91 5.55Z" /></svg>