<?xml version="1.0" encoding="UTF-8"?><!DOCTYPE svg PUBLIC "-//W3C//DTD SVG 1.1//EN" "http://www.w3.org/Graphics/SVG/1.1/DTD/svg11.dtd"><svg xmlns="http://www.w3.org/2000/svg" xmlns:xlink="http://www.w3.org/1999/xlink" version="1.1" id="mdi-bitcoin" width="24" height="24" viewBox="0 0 24 24"><path d="M14.24 10.56C13.93 11.8 12 11.17 11.4 11L11.95 8.82C12.57 9 14.56 9.26 14.24 10.56M11.13 12.12L10.53 14.53C11.27 14.72 13.56 15.45 13.9 14.09C14.26 12.67 11.87 12.3 11.13 12.12M21.7 14.42C20.36 19.78 14.94 23.04 9.58 21.7C4.22 20.36 .963 14.94 2.3 9.58C3.64 4.22 9.06 .964 14.42 2.3C19.77 3.64 23.03 9.06 21.7 14.42M14.21 8.05L14.66 6.25L13.56 6L13.12 7.73C12.83 7.66 12.54 7.59 12.24 7.53L12.68 5.76L11.59 5.5L11.14 7.29C10.9 7.23 10.66 7.18 10.44 7.12L10.44 7.12L8.93 6.74L8.63 7.91C8.63 7.91 9.45 8.1 9.43 8.11C9.88 8.22 9.96 8.5 9.94 8.75L8.71 13.68C8.66 13.82 8.5 14 8.21 13.95C8.22 13.96 7.41 13.75 7.41 13.75L6.87 15L8.29 15.36C8.56 15.43 8.82 15.5 9.08 15.56L8.62 17.38L9.72 17.66L10.17 15.85C10.47 15.93 10.76 16 11.04 16.08L10.59 17.87L11.69 18.15L12.15 16.33C14 16.68 15.42 16.54 16 14.85C16.5 13.5 16 12.7 15 12.19C15.72 12 16.26 11.55 16.41 10.57C16.61 9.24 15.59 8.53 14.21 8.05Z" /></svg>