<?xml version="1.0" encoding="UTF-8"?><!DOCTYPE svg PUBLIC "-//W3C//DTD SVG 1.1//EN" "http://www.w3.org/Graphics/SVG/1.1/DTD/svg11.dtd"><svg xmlns="http://www.w3.org/2000/svg" xmlns:xlink="http://www.w3.org/1999/xlink" version="1.1" id="mdi-blender-software" width="24" height="24" viewBox="0 0 24 24"><path d="M12.58,3.12V3.13C12.27,3.13 11.96,3.22 11.71,3.39C11.21,3.74 11.15,4.32 11.6,4.69L14.46,7L5.73,7.03H5.72C5,7.03 4.3,7.5 4.16,8.1C4,8.71 4.5,9.22 5.26,9.22L9.69,9.21L1.76,15.3C1,15.87 0.77,16.82 1.24,17.42C1.72,18.03 2.73,18.03 3.5,17.42L7.8,13.89C7.8,13.89 7.73,14.37 7.74,14.65C7.74,14.94 7.84,15.5 7.97,15.93C8.26,16.86 8.75,17.71 9.43,18.46C10.13,19.23 11,19.85 12,20.29C13.03,20.76 14.17,21 15.34,21C16.5,21 17.65,20.75 18.69,20.28C19.69,19.84 20.55,19.21 21.25,18.44C21.93,17.69 22.42,16.83 22.71,15.91C22.85,15.44 22.94,14.97 23,14.5C23,14.03 23,13.56 22.94,13.09C22.81,12.18 22.5,11.32 22,10.54C21.56,9.83 21,9.2 20.31,8.67V8.67L13.42,3.38C13.19,3.21 12.89,3.12 12.58,3.12M15.34,9.21C16.5,9.21 17.59,9.59 18.46,10.29C18.9,10.65 19.25,11.07 19.5,11.54C19.77,12 19.94,12.55 20,13.11C20.04,13.67 19.96,14.23 19.77,14.77C19.57,15.31 19.25,15.81 18.82,16.26C17.93,17.16 16.69,17.68 15.34,17.68C14,17.68 12.75,17.17 11.86,16.27C11.43,15.83 11.11,15.32 10.91,14.78C10.72,14.25 10.64,13.69 10.69,13.12C10.74,12.56 10.91,12.03 11.17,11.55C11.43,11.08 11.79,10.66 12.23,10.3C13.09,9.59 14.19,9.21 15.34,9.21M15.44,10.61C14.66,10.61 13.94,10.89 13.41,11.34C12.87,11.8 12.5,12.44 12.47,13.18C12.43,13.93 12.73,14.63 13.26,15.15C13.8,15.68 14.58,16 15.44,16C16.3,16 17.07,15.68 17.62,15.15C18.15,14.63 18.45,13.93 18.41,13.18C18.37,12.44 18,11.8 17.47,11.34C16.94,10.89 16.22,10.61 15.44,10.61Z" /></svg>