<?xml version="1.0" encoding="UTF-8"?><!DOCTYPE svg PUBLIC "-//W3C//DTD SVG 1.1//EN" "http://www.w3.org/Graphics/SVG/1.1/DTD/svg11.dtd"><svg xmlns="http://www.w3.org/2000/svg" xmlns:xlink="http://www.w3.org/1999/xlink" version="1.1" id="mdi-blinds" width="24" height="24" viewBox="0 0 24 24"><path d="M3,2H21A1,1 0 0,1 22,3V5A1,1 0 0,1 21,6H20V13A1,1 0 0,1 19,14H13V16.17C14.17,16.58 15,17.69 15,19A3,3 0 0,1 12,22A3,3 0 0,1 9,19C9,17.69 9.83,16.58 11,16.17V14H5A1,1 0 0,1 4,13V6H3A1,1 0 0,1 2,5V3A1,1 0 0,1 3,2M12,18A1,1 0 0,0 11,19A1,1 0 0,0 12,20A1,1 0 0,0 13,19A1,1 0 0,0 12,18Z" /></svg>