<svg xmlns="http://www.w3.org/2000/svg" viewBox="0 0 24 24"><path d="M13 17a1 1 0 001-1 1 1 0 00-1-1 1 1 0 00-1 1 1 1 0 001 1m0-4a1 1 0 001-1 1 1 0 00-1-1 1 1 0 00-1 1 1 1 0 001 1m0-4a1 1 0 001-1 1 1 0 00-1-1 1 1 0 00-1 1 1 1 0 001 1m4 3.5a.5.5 0 00.5-.5.5.5 0 00-.5-.5.5.5 0 00-.5.5.5.5 0 00.5.5m0-4a.5.5 0 00.5-.5.5.5 0 00-.5-.5.5.5 0 00-.5.5.5.5 0 00.5.5M3 3v2h18V3m-4 13.5a.5.5 0 00.5-.5.5.5 0 00-.5-.5.5.5 0 00-.5.5.5.5 0 00.5.5M9 17a1 1 0 001-1 1 1 0 00-1-1 1 1 0 00-1 1 1 1 0 001 1m-4-3.5A1.5 1.5 0 006.5 12 1.5 1.5 0 005 10.5 1.5 1.5 0 003.5 12 1.5 1.5 0 005 13.5m0-4A1.5 1.5 0 006.5 8 1.5 1.5 0 005 6.5 1.5 1.5 0 003.5 8 1.5 1.5 0 005 9.5M3 21h18v-2H3M9 9a1 1 0 001-1 1 1 0 00-1-1 1 1 0 00-1 1 1 1 0 001 1m0 4a1 1 0 001-1 1 1 0 00-1-1 1 1 0 00-1 1 1 1 0 001 1m-4 4.5A1.5 1.5 0 006.5 16 1.5 1.5 0 005 14.5 1.5 1.5 0 003.5 16 1.5 1.5 0 005 17.5z"/></svg>