<svg xmlns="http://www.w3.org/2000/svg" viewBox="0 0 24 24"><path d="M14 13a1 1 0 00-1 1 1 1 0 001 1 1 1 0 001-1 1 1 0 00-1-1m0 3.5a.5.5 0 00-.5.5.5.5 0 00.5.5.5.5 0 00.5-.5.5.5 0 00-.5-.5M12 20a8 8 0 01-8-8 8 8 0 018-8 8 8 0 018 8 8 8 0 01-8 8m0-18A10 10 0 002 12a10 10 0 0010 10 10 10 0 0010-10A10 10 0 0012 2m5 7.5a.5.5 0 00-.5.5.5.5 0 00.5.5.5.5 0 00.5-.5.5.5 0 00-.5-.5m0 4a.5.5 0 00-.5.5.5.5 0 00.5.5.5.5 0 00.5-.5.5.5 0 00-.5-.5m-3-6a.5.5 0 00.5-.5.5.5 0 00-.5-.5.5.5 0 00-.5.5.5.5 0 00.5.5M14 9a1 1 0 00-1 1 1 1 0 001 1 1 1 0 001-1 1 1 0 00-1-1m-4-1.5a.5.5 0 00.5-.5.5.5 0 00-.5-.5.5.5 0 00-.5.5.5.5 0 00.5.5m-3 6a.5.5 0 00-.5.5.5.5 0 00.5.5.5.5 0 00.5-.5.5.5 0 00-.5-.5m3 3a.5.5 0 00-.5.5.5.5 0 00.5.5.5.5 0 00.5-.5.5.5 0 00-.5-.5m-3-7a.5.5 0 00-.5.5.5.5 0 00.5.5.5.5 0 00.5-.5.5.5 0 00-.5-.5m3 3.5a1 1 0 00-1 1 1 1 0 001 1 1 1 0 001-1 1 1 0 00-1-1m0-4a1 1 0 00-1 1 1 1 0 001 1 1 1 0 001-1 1 1 0 00-1-1z"/></svg>