<?xml version="1.0" encoding="UTF-8"?><!DOCTYPE svg PUBLIC "-//W3C//DTD SVG 1.1//EN" "http://www.w3.org/Graphics/SVG/1.1/DTD/svg11.dtd"><svg xmlns="http://www.w3.org/2000/svg" xmlns:xlink="http://www.w3.org/1999/xlink" version="1.1" id="mdi-book-account" width="24" height="24" viewBox="0 0 24 24"><path d="M18 2H12V9L9.5 7.5L7 9V2H6A2 2 0 0 0 4 4V20A2 2 0 0 0 6 22H18A2 2 0 0 0 20 20V4A2 2 0 0 0 18 2M14 12A2 2 0 1 1 12 14A2 2 0 0 1 14 12M18 20H10V19C10 17.67 12.67 17 14 17S18 17.67 18 19Z" /></svg>