<?xml version="1.0" encoding="UTF-8"?><!DOCTYPE svg PUBLIC "-//W3C//DTD SVG 1.1//EN" "http://www.w3.org/Graphics/SVG/1.1/DTD/svg11.dtd"><svg xmlns="http://www.w3.org/2000/svg" xmlns:xlink="http://www.w3.org/1999/xlink" version="1.1" id="mdi-book-search-outline" width="24" height="24" viewBox="0 0 24 24"><path d="M15.5,12C18,12 20,14 20,16.5C20,17.38 19.75,18.21 19.31,18.9L22.39,22L21,23.39L17.88,20.32C17.19,20.75 16.37,21 15.5,21C13,21 11,19 11,16.5C11,14 13,12 15.5,12M15.5,14A2.5,2.5 0 0,0 13,16.5A2.5,2.5 0 0,0 15.5,19A2.5,2.5 0 0,0 18,16.5A2.5,2.5 0 0,0 15.5,14M13,4V12L10.5,9.75L8,12V4H6V20H10C10.54,20.81 11.23,21.5 12.03,22H6A2,2 0 0,1 4,20V4A2,2 0 0,1 6,2H18A2,2 0 0,1 20,4V11.81C19.42,11.26 18.75,10.81 18,10.5V4H13Z" /></svg>