<?xml version="1.0" encoding="UTF-8"?><!DOCTYPE svg PUBLIC "-//W3C//DTD SVG 1.1//EN" "http://www.w3.org/Graphics/SVG/1.1/DTD/svg11.dtd"><svg xmlns="http://www.w3.org/2000/svg" xmlns:xlink="http://www.w3.org/1999/xlink" version="1.1" id="mdi-book-lock-open" width="24" height="24" viewBox="0 0 24 24"><path d="M18,2H12V9L9.5,7.5L7,9V2H6A2,2 0 0,0 4,4V20A2,2 0 0,0 6,22H18A2,2 0 0,0 20,20V4A2,2 0 0,0 18,2M18,20H10V16H11V14A3,3 0 0,1 14,11A3,3 0 0,1 17,14H15A1,1 0 0,0 14,13A1,1 0 0,0 13,14V16H18V20Z" /></svg>