<?xml version="1.0" encoding="UTF-8"?><!DOCTYPE svg PUBLIC "-//W3C//DTD SVG 1.1//EN" "http://www.w3.org/Graphics/SVG/1.1/DTD/svg11.dtd"><svg xmlns="http://www.w3.org/2000/svg" xmlns:xlink="http://www.w3.org/1999/xlink" version="1.1" id="mdi-bottle-soda-classic-outline" width="24" height="24" viewBox="0 0 24 24"><path d="M10 2V4H10.91C10.65 5.79 9 7.5 8 9V13.77C9.32 14.96 9.32 17.04 8 18.23V20C8 21.11 8.9 22 10 22H14C15.11 22 16 21.11 16 20V18.23C14.68 17.04 14.68 14.96 16 13.77V9C15 7.5 13.35 5.79 13.09 4H14V2M12 6.5C12.24 7 13.54 8.5 13.9 8.91L14 9V13C13.35 13.87 13 14.92 13 16C13 17.08 13.35 18.13 14 19V20H10V19C10.65 18.13 11 17.08 11 16C11 14.92 10.65 13.87 10 13V9L10.1 8.91C10.46 8.5 11.76 7 12 6.5Z" /></svg>