<?xml version="1.0" encoding="UTF-8"?><!DOCTYPE svg PUBLIC "-//W3C//DTD SVG 1.1//EN" "http://www.w3.org/Graphics/SVG/1.1/DTD/svg11.dtd"><svg xmlns="http://www.w3.org/2000/svg" xmlns:xlink="http://www.w3.org/1999/xlink" version="1.1" id="mdi-bottle-soda-outline" width="24" height="24" viewBox="0 0 24 24"><path d="M14.4 9.58C12.9 7.89 13 4 13 4H14V2H10V4H11S11.1 7.89 9.6 9.58A2 2 0 0 0 9 11V20A2 2 0 0 0 11 22H13A2 2 0 0 0 15 20V11A2 2 0 0 0 14.4 9.58M13 20H11V11L11.1 10.91A6.26 6.26 0 0 0 12 9.5A6.26 6.26 0 0 0 12.9 10.91L13 11Z" /></svg>