<?xml version="1.0" encoding="UTF-8"?><!DOCTYPE svg PUBLIC "-//W3C//DTD SVG 1.1//EN" "http://www.w3.org/Graphics/SVG/1.1/DTD/svg11.dtd"><svg xmlns="http://www.w3.org/2000/svg" xmlns:xlink="http://www.w3.org/1999/xlink" version="1.1" id="mdi-box-cutter-off" width="24" height="24" viewBox="0 0 24 24"><path d="M20.84 22.73L12.86 14.75L12.17 15.44L6.66 13.08C6.71 12.65 6.89 12.24 7.22 11.91L8.62 10.5L1.11 3L2.39 1.73L22.11 21.46L20.84 22.73M15.41 12.21L11.16 7.96L16.41 2.71C17.2 1.93 18.46 1.93 19.24 2.71L20.66 4.13C21.44 4.91 21.44 6.17 20.66 6.96L15.41 12.21M17.12 6.25C17.5 6.64 18.15 6.64 18.54 6.25C18.93 5.86 18.93 5.23 18.54 4.83C18.15 4.44 17.5 4.44 17.12 4.83C16.73 5.23 16.73 5.86 17.12 6.25M5 16V21.75L10.81 16.53L5.81 14.53L5 16Z" /></svg>