<?xml version="1.0" encoding="UTF-8"?><!DOCTYPE svg PUBLIC "-//W3C//DTD SVG 1.1//EN" "http://www.w3.org/Graphics/SVG/1.1/DTD/svg11.dtd"><svg xmlns="http://www.w3.org/2000/svg" xmlns:xlink="http://www.w3.org/1999/xlink" version="1.1" id="mdi-briefcase-outline" width="24" height="24" viewBox="0 0 24 24"><path d="M20,6C20.58,6 21.05,6.2 21.42,6.59C21.8,7 22,7.45 22,8V19C22,19.55 21.8,20 21.42,20.41C21.05,20.8 20.58,21 20,21H4C3.42,21 2.95,20.8 2.58,20.41C2.2,20 2,19.55 2,19V8C2,7.45 2.2,7 2.58,6.59C2.95,6.2 3.42,6 4,6H8V4C8,3.42 8.2,2.95 8.58,2.58C8.95,2.2 9.42,2 10,2H14C14.58,2 15.05,2.2 15.42,2.58C15.8,2.95 16,3.42 16,4V6H20M4,8V19H20V8H4M14,6V4H10V6H14Z" /></svg>