<svg xmlns="http://www.w3.org/2000/svg" viewBox="0 0 24 24"><path d="M18 7h-2.81c-.45-.8-1.07-1.5-1.82-2L15 3.41 13.59 2l-2.17 2.17a6.002 6.002 0 00-2.83 0L6.41 2 5 3.41 6.62 5c-.75.5-1.36 1.21-1.81 2H2v2h2.09c-.06.33-.09.66-.09 1v1H2v2h2v1c0 .34.03.67.09 1H2v2h2.81A6.002 6.002 0 0012 19.65V19c0-.57.09-1.14.25-1.69-.66.45-1.45.69-2.25.69a4 4 0 01-4-4v-4a4 4 0 014-4 4 4 0 014 4v4c0 .19 0 .39-.05.58.59-.54 1.29-.96 2.05-1.23V13h2v-2h-2v-1c0-.34-.03-.67-.09-1H18V7m3.34 9l-3.59 3.59L16.16 18 15 19.16l2.75 3 4.75-4.75L21.34 16M12 9v2H8V9h4m0 4v2H8v-2h4z"/></svg>