<?xml version="1.0" encoding="UTF-8"?><!DOCTYPE svg PUBLIC "-//W3C//DTD SVG 1.1//EN" "http://www.w3.org/Graphics/SVG/1.1/DTD/svg11.dtd"><svg xmlns="http://www.w3.org/2000/svg" xmlns:xlink="http://www.w3.org/1999/xlink" version="1.1" id="mdi-bus-stop-covered" width="24" height="24" viewBox="0 0 24 24"><path d="M20 3H7V2H6A1.78 1.78 0 0 0 4.59 3H2V5H3.73C2 10.58 2 22 2 22H7V5H20M22 8.5A2.5 2.5 0 1 0 19 11V22H20V11A2.5 2.5 0 0 0 22 8.5M15 11.5V16H14V22H12.5V17H11.5V22H10V16H9V11.5A1.5 1.5 0 0 1 10.5 10H13.5A1.5 1.5 0 0 1 15 11.5M12 6.5A1.5 1.5 0 1 0 13.5 8A1.5 1.5 0 0 0 12 6.5Z" /></svg>