<?xml version="1.0" encoding="UTF-8"?><!DOCTYPE svg PUBLIC "-//W3C//DTD SVG 1.1//EN" "http://www.w3.org/Graphics/SVG/1.1/DTD/svg11.dtd"><svg xmlns="http://www.w3.org/2000/svg" xmlns:xlink="http://www.w3.org/1999/xlink" version="1.1" id="mdi-cached" width="24" height="24" viewBox="0 0 24 24"><path d="M19,8L15,12H18A6,6 0 0,1 12,18C11,18 10.03,17.75 9.2,17.3L7.74,18.76C8.97,19.54 10.43,20 12,20A8,8 0 0,0 20,12H23M6,12A6,6 0 0,1 12,6C13,6 13.97,6.25 14.8,6.7L16.26,5.24C15.03,4.46 13.57,4 12,4A8,8 0 0,0 4,12H1L5,16L9,12" /></svg>