<?xml version="1.0" encoding="UTF-8"?><!DOCTYPE svg PUBLIC "-//W3C//DTD SVG 1.1//EN" "http://www.w3.org/Graphics/SVG/1.1/DTD/svg11.dtd"><svg xmlns="http://www.w3.org/2000/svg" xmlns:xlink="http://www.w3.org/1999/xlink" version="1.1" id="mdi-calculator-variant" width="24" height="24" viewBox="0 0 24 24"><path d="M9,2H4A2,2 0 0,0 2,4V9A2,2 0 0,0 4,11H9A2,2 0 0,0 11,9V4A2,2 0 0,0 9,2M9,7H4V6H9V7M20,13H15A2,2 0 0,0 13,15V20A2,2 0 0,0 15,22H20A2,2 0 0,0 22,20V15A2,2 0 0,0 20,13M20,19H15V18H20V19M20,17H15V16H20V17M20,2H15A2,2 0 0,0 13,4V9A2,2 0 0,0 15,11H20A2,2 0 0,0 22,9V4A2,2 0 0,0 20,2M20,7H18V9H17V7H15V6H17V4H18V6H20V7M9,13H4A2,2 0 0,0 2,15V20A2,2 0 0,0 4,22H9A2,2 0 0,0 11,20V15A2,2 0 0,0 9,13M8.62,18.91L7.91,19.62L6.5,18.21L5.09,19.62L4.38,18.91L5.79,17.5L4.38,16.09L5.09,15.38L6.5,16.79L7.91,15.38L8.62,16.09L7.21,17.5L8.62,18.91Z" /></svg>