<?xml version="1.0" encoding="UTF-8"?><!DOCTYPE svg PUBLIC "-//W3C//DTD SVG 1.1//EN" "http://www.w3.org/Graphics/SVG/1.1/DTD/svg11.dtd"><svg xmlns="http://www.w3.org/2000/svg" xmlns:xlink="http://www.w3.org/1999/xlink" version="1.1" id="mdi-calendar-month" width="24" height="24" viewBox="0 0 24 24"><path d="M9,10V12H7V10H9M13,10V12H11V10H13M17,10V12H15V10H17M19,3A2,2 0 0,1 21,5V19A2,2 0 0,1 19,21H5C3.89,21 3,20.1 3,19V5A2,2 0 0,1 5,3H6V1H8V3H16V1H18V3H19M19,19V8H5V19H19M9,14V16H7V14H9M13,14V16H11V14H13M17,14V16H15V14H17Z" /></svg>