<?xml version="1.0" encoding="UTF-8"?><!DOCTYPE svg PUBLIC "-//W3C//DTD SVG 1.1//EN" "http://www.w3.org/Graphics/SVG/1.1/DTD/svg11.dtd"><svg xmlns="http://www.w3.org/2000/svg" xmlns:xlink="http://www.w3.org/1999/xlink" version="1.1" id="mdi-calendar-range-outline" width="24" height="24" viewBox="0 0 24 24"><path d="M7,12H9V14H7V12M21,6V20A2,2 0 0,1 19,22H5C3.89,22 3,21.1 3,20V6A2,2 0 0,1 5,4H6V2H8V4H16V2H18V4H19A2,2 0 0,1 21,6M5,8H19V6H5V8M19,20V10H5V20H19M15,14H17V12H15V14M11,14H13V12H11V14Z" /></svg>