<?xml version="1.0" encoding="UTF-8"?><!DOCTYPE svg PUBLIC "-//W3C//DTD SVG 1.1//EN" "http://www.w3.org/Graphics/SVG/1.1/DTD/svg11.dtd"><svg xmlns="http://www.w3.org/2000/svg" xmlns:xlink="http://www.w3.org/1999/xlink" version="1.1" id="mdi-camcorder" width="24" height="24" viewBox="0 0 24 24"><path d="M7 2C4.24 2 2 4.24 2 7V20C2 21.1 2.9 22 4 22H10C11.1 22 12 21.1 12 20V7C12 4.24 9.76 2 7 2M5 20C4.45 20 4 19.55 4 19S4.45 18 5 18 6 18.45 6 19 5.55 20 5 20M7 10C5.34 10 4 8.66 4 7S5.34 4 7 4 10 5.34 10 7 8.66 10 7 10M22 9V14C22 15.1 21.1 16 20 16H13V14H20V9H13V7H20C21.1 7 22 7.9 22 9Z" /></svg>