<?xml version="1.0" encoding="UTF-8"?><!DOCTYPE svg PUBLIC "-//W3C//DTD SVG 1.1//EN" "http://www.w3.org/Graphics/SVG/1.1/DTD/svg11.dtd"><svg xmlns="http://www.w3.org/2000/svg" xmlns:xlink="http://www.w3.org/1999/xlink" version="1.1" id="mdi-camera-metering-matrix" width="24" height="24" viewBox="0 0 24 24"><path d="M4,4H20A2,2 0 0,1 22,6V18A2,2 0 0,1 20,20H4A2,2 0 0,1 2,18V6A2,2 0 0,1 4,4M4,6V18H20V6H4M5.5,7.5H11V9.17C10.15,9.47 9.47,10.15 9.17,11H5.5V7.5M18.5,7.5V11H14.83C14.53,10.15 13.85,9.47 13,9.17V7.5H18.5M18.5,16.5H13V14.83C13.85,14.53 14.53,13.85 14.83,13H18.5V16.5M5.5,16.5V13H9.17C9.47,13.85 10.15,14.53 11,14.83V16.5H5.5M12,10.5A1.5,1.5 0 0,1 13.5,12A1.5,1.5 0 0,1 12,13.5A1.5,1.5 0 0,1 10.5,12A1.5,1.5 0 0,1 12,10.5Z" /></svg>