<?xml version="1.0" encoding="UTF-8"?><!DOCTYPE svg PUBLIC "-//W3C//DTD SVG 1.1//EN" "http://www.w3.org/Graphics/SVG/1.1/DTD/svg11.dtd"><svg xmlns="http://www.w3.org/2000/svg" xmlns:xlink="http://www.w3.org/1999/xlink" version="1.1" id="mdi-candle" width="24" height="24" viewBox="0 0 24 24"><path d="M12.5,2C10.84,2 9.5,5.34 9.5,7A3,3 0 0,0 12.5,10A3,3 0 0,0 15.5,7C15.5,5.34 14.16,2 12.5,2M12.5,6.5A1,1 0 0,1 13.5,7.5A1,1 0 0,1 12.5,8.5A1,1 0 0,1 11.5,7.5A1,1 0 0,1 12.5,6.5M10,11A1,1 0 0,0 9,12V20H7A1,1 0 0,1 6,19V18A1,1 0 0,0 5,17A1,1 0 0,0 4,18V19A3,3 0 0,0 7,22H19A1,1 0 0,0 20,21A1,1 0 0,0 19,20H16V12A1,1 0 0,0 15,11H10Z" /></svg>