<?xml version="1.0" encoding="UTF-8"?><!DOCTYPE svg PUBLIC "-//W3C//DTD SVG 1.1//EN" "http://www.w3.org/Graphics/SVG/1.1/DTD/svg11.dtd"><svg xmlns="http://www.w3.org/2000/svg" xmlns:xlink="http://www.w3.org/1999/xlink" version="1.1" id="mdi-cannabis" width="24" height="24" viewBox="0 0 24 24"><path d="M11.5,22V17.35C11,18.13 10,19.09 8.03,19.81C8.03,19.81 8.53,18.1 9.94,16.95C8.64,17.23 6.68,17.19 4,16C4,16 6.47,14.59 9.28,14.97C7.69,14 5.7,12.08 4.17,8.11C4.17,8.11 8.67,9.34 10.91,13.14C8.88,8.24 12,2 12,2C14.43,7.47 13.91,11.1 13.12,13.1C15.37,9.33 19.83,8.11 19.83,8.11C18.3,12.08 16.31,14 14.72,14.97C17.53,14.59 20,16 20,16C17.32,17.19 15.36,17.23 14.06,16.95C15.47,18.1 15.97,19.81 15.97,19.81C14,19.09 13,18.13 12.5,17.35V22H11.5Z" /></svg>