<svg xmlns="http://www.w3.org/2000/svg" viewBox="0 0 24 24"><path d="M5 13l1.5-4.5h11L19 13m-1.5 5a1.5 1.5 0 01-1.5-1.5 1.5 1.5 0 011.5-1.5 1.5 1.5 0 011.5 1.5 1.5 1.5 0 01-1.5 1.5m-11 0A1.5 1.5 0 015 16.5 1.5 1.5 0 016.5 15 1.5 1.5 0 018 16.5 1.5 1.5 0 016.5 18M18.92 8c-.2-.58-.76-1-1.42-1h-11c-.66 0-1.22.42-1.42 1L3 14v8a1 1 0 001 1h1a1 1 0 001-1v-1h12v1a1 1 0 001 1h1a1 1 0 001-1v-8M7 5a1.5 1.5 0 001.5-1.5C8.5 2.5 7 .8 7 .8S5.5 2.5 5.5 3.5A1.5 1.5 0 007 5m5 0a1.5 1.5 0 001.5-1.5c0-1-1.5-2.7-1.5-2.7s-1.5 1.7-1.5 2.7A1.5 1.5 0 0012 5m5 0a1.5 1.5 0 001.5-1.5c0-1-1.5-2.7-1.5-2.7s-1.5 1.7-1.5 2.7A1.5 1.5 0 0017 5z"/></svg>