<svg xmlns="http://www.w3.org/2000/svg" viewBox="0 0 24 24"><path d="M9.5 0a3 3 0 0 0-3 3 3 3 0 0 0 3 3c1.31 0 2.42-.83 2.83-2h2.17v2h2V4h1V2h-5.17A2.99 2.99 0 0 0 9.5 0m0 2a1 1 0 0 1 1 1 1 1 0 0 1-1 1 1 1 0 0 1-1-1 1 1 0 0 1 1-1m-3 6c-.66 0-1.22.42-1.42 1L3 15v8a1 1 0 0 0 1 1h1a1 1 0 0 0 1-1v-1h12v1a1 1 0 0 0 1 1h1a1 1 0 0 0 1-1v-8l-2.08-6c-.2-.58-.76-1-1.42-1h-11m0 1.5h11L19 14H5l1.5-4.5m0 6.5A1.5 1.5 0 0 1 8 17.5 1.5 1.5 0 0 1 6.5 19 1.5 1.5 0 0 1 5 17.5 1.5 1.5 0 0 1 6.5 16m11 0a1.5 1.5 0 0 1 1.5 1.5 1.5 1.5 0 0 1-1.5 1.5 1.5 1.5 0 0 1-1.5-1.5 1.5 1.5 0 0 1 1.5-1.5z"/></svg>