<?xml version="1.0" encoding="UTF-8"?><!DOCTYPE svg PUBLIC "-//W3C//DTD SVG 1.1//EN" "http://www.w3.org/Graphics/SVG/1.1/DTD/svg11.dtd"><svg xmlns="http://www.w3.org/2000/svg" xmlns:xlink="http://www.w3.org/1999/xlink" version="1.1" id="mdi-car-limousine" width="24" height="24" viewBox="0 0 24 24"><path d="M1,6L2.5,7.5L1,9L2.5,10.5L1,12L2.5,13.5L1,15H15A3,3 0 0,0 18,18A3,3 0 0,0 21,15H23V12C23,10.89 22.11,10 21,10H19L16,6H1M4.62,7.5H10.5V10H4.12L3.12,9L4.62,7.5M12,7.5H15.5L17.46,10H12V7.5M18,13.5A1.5,1.5 0 0,1 19.5,15A1.5,1.5 0 0,1 18,16.5A1.5,1.5 0 0,1 16.5,15A1.5,1.5 0 0,1 18,13.5Z" /></svg>