<?xml version="1.0" encoding="UTF-8"?><!DOCTYPE svg PUBLIC "-//W3C//DTD SVG 1.1//EN" "http://www.w3.org/Graphics/SVG/1.1/DTD/svg11.dtd"><svg xmlns="http://www.w3.org/2000/svg" xmlns:xlink="http://www.w3.org/1999/xlink" version="1.1" id="mdi-car-multiple" width="24" height="24" viewBox="0 0 24 24"><path d="M8,11L9.5,6.5H18.5L20,11M18.5,16A1.5,1.5 0 0,1 17,14.5A1.5,1.5 0 0,1 18.5,13A1.5,1.5 0 0,1 20,14.5A1.5,1.5 0 0,1 18.5,16M9.5,16A1.5,1.5 0 0,1 8,14.5A1.5,1.5 0 0,1 9.5,13A1.5,1.5 0 0,1 11,14.5A1.5,1.5 0 0,1 9.5,16M19.92,6C19.71,5.4 19.14,5 18.5,5H9.5C8.86,5 8.29,5.4 8.08,6L6,12V20A1,1 0 0,0 7,21H8A1,1 0 0,0 9,20V19H19V20A1,1 0 0,0 20,21H21A1,1 0 0,0 22,20V12L19.92,6M14.92,3C14.71,2.4 14.14,2 13.5,2H4.5C3.86,2 3.29,2.4 3.08,3L1,9V17A1,1 0 0,0 2,18H3A1,1 0 0,0 4,17V12.91C3.22,12.63 2.82,11.77 3.1,11C3.32,10.4 3.87,10 4.5,10H4.57L5.27,8H3L4.5,3.5H15.09L14.92,3Z" /></svg>