<?xml version="1.0" encoding="UTF-8"?><!DOCTYPE svg PUBLIC "-//W3C//DTD SVG 1.1//EN" "http://www.w3.org/Graphics/SVG/1.1/DTD/svg11.dtd"><svg xmlns="http://www.w3.org/2000/svg" xmlns:xlink="http://www.w3.org/1999/xlink" version="1.1" id="mdi-car-light-fog" width="24" height="24" viewBox="0 0 24 24"><path d="M13,4.8C9,4.8 9,19.2 13,19.2C17,19.2 22,16.5 22,12C22,7.5 17,4.8 13,4.8M13.1,17.2C12.7,16.8 12,15 12,12C12,9 12.7,7.2 13.1,6.8C16,6.9 20,8.7 20,12C20,15.3 16,17.1 13.1,17.2M6,8V11H8C8,11.3 8,11.7 8,12C8,12.3 8,12.7 8,13H6V16H8.4C8.6,16.7 8.8,17.4 9,18H6V21H4V18H2V16H4V13H2V11H4V8H2V6H4V3H6V6H9C9,6.1 8.9,6.2 8.9,6.4C8.7,6.9 8.5,7.4 8.4,8H6Z" /></svg>