<?xml version="1.0" encoding="UTF-8"?><!DOCTYPE svg PUBLIC "-//W3C//DTD SVG 1.1//EN" "http://www.w3.org/Graphics/SVG/1.1/DTD/svg11.dtd"><svg xmlns="http://www.w3.org/2000/svg" xmlns:xlink="http://www.w3.org/1999/xlink" version="1.1" id="mdi-card-account-details-star-outline" width="24" height="24" viewBox="0 0 24 24"><path d="M20 22.09L22.45 23.58L21.8 20.77L24 18.89L21.11 18.64L20 16L18.87 18.64L16 18.89L18.18 20.77L17.5 23.58L20 22.09M14.08 21H2C.91 20.96 .04 20.09 0 19V5C.04 3.91 .91 3.04 2 3H22C23.09 3.04 23.96 3.91 24 5V15.53C23.42 15 22.75 14.61 22 14.34V5H2V19H14.08C14.03 19.33 14 19.66 14 20C14 20.34 14.03 20.68 14.08 21M14 17H4V15.75C4 14.09 7.34 13.25 9 13.25C10.66 13.25 14 14.09 14 15.75V17M14 11H18V12H14V11M9 7C7.63 7 6.5 8.13 6.5 9.5C6.5 10.87 7.63 12 9 12C10.37 12 11.5 10.87 11.5 9.5C11.5 8.13 10.37 7 9 7M14 9H20V10H14V9M14 7H20V8H14V7Z" /></svg>