<?xml version="1.0" encoding="UTF-8"?><!DOCTYPE svg PUBLIC "-//W3C//DTD SVG 1.1//EN" "http://www.w3.org/Graphics/SVG/1.1/DTD/svg11.dtd"><svg xmlns="http://www.w3.org/2000/svg" xmlns:xlink="http://www.w3.org/1999/xlink" version="1.1" id="mdi-card-bulleted-off" width="24" height="24" viewBox="0 0 24 24"><path d="M3.35,3.58L20.65,20.87L19.23,22.29L16.94,20H4A2,2 0 0,1 2,18V6C2,5.72 2.06,5.46 2.16,5.22L1.23,4.29L2.65,2.87L3.35,3.58M6.6,4H20A2,2 0 0,1 22,6V18C22,18.4 21.88,18.77 21.68,19.08L17.6,15H20V13H15.6L13.6,11H20V9H11.6L6.6,4M9.94,13H9V15H11V14.06L9.94,13M5.94,9H5V11H7V10.06L5.94,9Z" /></svg>