<?xml version="1.0" encoding="UTF-8"?><!DOCTYPE svg PUBLIC "-//W3C//DTD SVG 1.1//EN" "http://www.w3.org/Graphics/SVG/1.1/DTD/svg11.dtd"><svg xmlns="http://www.w3.org/2000/svg" xmlns:xlink="http://www.w3.org/1999/xlink" version="1.1" id="mdi-card-account-mail-outline" width="24" height="24" viewBox="0 0 24 24"><path d="M22,3H2A2,2 0 0,0 0,5V19A2,2 0 0,0 2,21H22A2,2 0 0,0 24,19V5A2,2 0 0,0 22,3M22,19H2V5H22V19M21,6H14V11H21V6M20,8L17.5,9.75L15,8V7L17.5,8.75L20,7V8M9,12A3,3 0 0,0 12,9A3,3 0 0,0 9,6A3,3 0 0,0 6,9A3,3 0 0,0 9,12M9,8A1,1 0 0,1 10,9A1,1 0 0,1 9,10A1,1 0 0,1 8,9A1,1 0 0,1 9,8M15,16.59C15,14.09 11.03,13 9,13C6.97,13 3,14.09 3,16.59V18H15V16.59M5.5,16C6.22,15.5 7.7,15 9,15C10.3,15 11.77,15.5 12.5,16H5.5Z" /></svg>