<svg xmlns="http://www.w3.org/2000/svg" viewBox="0 0 24 24"><path d="M9 20c0 1.11-.89 2-2 2s-2-.89-2-2 .9-2 2-2 2 .9 2 2m8-2c-1.1 0-2 .9-2 2s.9 2 2 2 2-.89 2-2-.89-2-2-2m-9.83-3.25.03-.12.9-1.63h7.45c.75 0 1.41-.41 1.75-1.03l3.86-7.01L19.42 4h-.01l-1.1 2-2.76 5H8.53l-.13-.27L6.16 6l-.95-2-.94-2H1v2h2l3.6 7.59-1.35 2.45c-.16.28-.25.61-.25.96a2 2 0 0 0 2 2h12v-2H7.42c-.13 0-.25-.11-.25-.25M12 9.3l-.6-.5C9.4 6.9 8 5.7 8 4.2 8 3 9 2 10.2 2c.7 0 1.4.3 1.8.8.4-.5 1.1-.8 1.8-.8C15 2 16 2.9 16 4.2c0 1.5-1.4 2.7-3.4 4.6l-.6.5z"/></svg>