<?xml version="1.0" encoding="UTF-8"?><!DOCTYPE svg PUBLIC "-//W3C//DTD SVG 1.1//EN" "http://www.w3.org/Graphics/SVG/1.1/DTD/svg11.dtd"><svg xmlns="http://www.w3.org/2000/svg" xmlns:xlink="http://www.w3.org/1999/xlink" version="1.1" id="mdi-cart-arrow-right" width="24" height="24" viewBox="0 0 24 24"><path d="M9,20A2,2 0 0,1 7,22A2,2 0 0,1 5,20A2,2 0 0,1 7,18A2,2 0 0,1 9,20M17,18A2,2 0 0,0 15,20A2,2 0 0,0 17,22A2,2 0 0,0 19,20A2,2 0 0,0 17,18M7.2,14.63C7.19,14.67 7.19,14.71 7.2,14.75A0.25,0.25 0 0,0 7.45,15H19V17H7A2,2 0 0,1 5,15C5,14.65 5.07,14.31 5.24,14L6.6,11.59L3,4H1V2H4.27L5.21,4H20A1,1 0 0,1 21,5C21,5.17 20.95,5.34 20.88,5.5L17.3,12C16.94,12.62 16.27,13 15.55,13H8.1L7.2,14.63M9,9.5H13V11.5L16,8.5L13,5.5V7.5H9V9.5Z" /></svg>