<?xml version="1.0" encoding="UTF-8"?><!DOCTYPE svg PUBLIC "-//W3C//DTD SVG 1.1//EN" "http://www.w3.org/Graphics/SVG/1.1/DTD/svg11.dtd"><svg xmlns="http://www.w3.org/2000/svg" xmlns:xlink="http://www.w3.org/1999/xlink" version="1.1" id="mdi-cash-100" width="24" height="24" viewBox="0 0 24 24"><path d="M2,5H22V20H2V5M20,18V7H4V18H20M17,8A2,2 0 0,0 19,10V15A2,2 0 0,0 17,17H7A2,2 0 0,0 5,15V10A2,2 0 0,0 7,8H17M17,13V12C17,10.9 16.33,10 15.5,10C14.67,10 14,10.9 14,12V13C14,14.1 14.67,15 15.5,15C16.33,15 17,14.1 17,13M15.5,11A0.5,0.5 0 0,1 16,11.5V13.5A0.5,0.5 0 0,1 15.5,14A0.5,0.5 0 0,1 15,13.5V11.5A0.5,0.5 0 0,1 15.5,11M13,13V12C13,10.9 12.33,10 11.5,10C10.67,10 10,10.9 10,12V13C10,14.1 10.67,15 11.5,15C12.33,15 13,14.1 13,13M11.5,11A0.5,0.5 0 0,1 12,11.5V13.5A0.5,0.5 0 0,1 11.5,14A0.5,0.5 0 0,1 11,13.5V11.5A0.5,0.5 0 0,1 11.5,11M8,15H9V10H8L7,10.5V11.5L8,11V15Z" /></svg>