<?xml version="1.0" encoding="UTF-8"?><!DOCTYPE svg PUBLIC "-//W3C//DTD SVG 1.1//EN" "http://www.w3.org/Graphics/SVG/1.1/DTD/svg11.dtd"><svg xmlns="http://www.w3.org/2000/svg" xmlns:xlink="http://www.w3.org/1999/xlink" version="1.1" id="mdi-cast-off" width="24" height="24" viewBox="0 0 24 24"><path d="M1.6,1.27L0.25,2.75L1.41,3.8C1.16,4.13 1,4.55 1,5V8H3V5.23L18.2,19H14V21H20.41L22.31,22.72L23.65,21.24M6.5,3L8.7,5H21V16.14L23,17.95V5C23,3.89 22.1,3 21,3M1,10V12A9,9 0 0,1 10,21H12C12,14.92 7.08,10 1,10M1,14V16A5,5 0 0,1 6,21H8A7,7 0 0,0 1,14M1,18V21H4A3,3 0 0,0 1,18Z" /></svg>