<?xml version="1.0" encoding="UTF-8"?><!DOCTYPE svg PUBLIC "-//W3C//DTD SVG 1.1//EN" "http://www.w3.org/Graphics/SVG/1.1/DTD/svg11.dtd"><svg xmlns="http://www.w3.org/2000/svg" xmlns:xlink="http://www.w3.org/1999/xlink" version="1.1" id="mdi-cctv" width="24" height="24" viewBox="0 0 24 24"><path d="M18.15,4.94C17.77,4.91 17.37,5 17,5.2L8.35,10.2C7.39,10.76 7.07,12 7.62,12.94L9.12,15.53C9.67,16.5 10.89,16.82 11.85,16.27L13.65,15.23C13.92,15.69 14.32,16.06 14.81,16.27V18.04C14.81,19.13 15.7,20 16.81,20H22V18.04H16.81V16.27C17.72,15.87 18.31,14.97 18.31,14C18.31,13.54 18.19,13.11 17.97,12.73L20.5,11.27C21.47,10.71 21.8,9.5 21.24,8.53L19.74,5.94C19.4,5.34 18.79,5 18.15,4.94M6.22,13.17L2,13.87L2.75,15.17L4.75,18.63L5.5,19.93L8.22,16.63L6.22,13.17Z" /></svg>