<?xml version="1.0" encoding="UTF-8"?><!DOCTYPE svg PUBLIC "-//W3C//DTD SVG 1.1//EN" "http://www.w3.org/Graphics/SVG/1.1/DTD/svg11.dtd"><svg xmlns="http://www.w3.org/2000/svg" xmlns:xlink="http://www.w3.org/1999/xlink" version="1.1" id="mdi-cellphone-sound" width="24" height="24" viewBox="0 0 24 24"><path d="M19.1,8.7C20.9,10.5 20.9,13.3 19.1,15.2L20.1,16.2C22.6,13.9 22.6,10.1 20.1,7.7L19.1,8.7M18,9.8L17,10.8C17.5,11.5 17.5,12.4 17,13.1L18,14.1C19.2,12.9 19.2,11.1 18,9.8M14,1H4A2,2 0 0,0 2,3V21A2,2 0 0,0 4,23H14A2,2 0 0,0 16,21V3A2,2 0 0,0 14,1M14,20H4V4H14V20Z" /></svg>