<?xml version="1.0" encoding="UTF-8"?><!DOCTYPE svg PUBLIC "-//W3C//DTD SVG 1.1//EN" "http://www.w3.org/Graphics/SVG/1.1/DTD/svg11.dtd"><svg xmlns="http://www.w3.org/2000/svg" xmlns:xlink="http://www.w3.org/1999/xlink" version="1.1" id="mdi-cellphone-message" width="24" height="24" viewBox="0 0 24 24"><path d="M11,17V7H4V17H11M11,3A2,2 0 0,1 13,5V19A2,2 0 0,1 11,21H4C2.89,21 2,20.1 2,19V5A2,2 0 0,1 4,3H11M16.5,3H21.5A1.5,1.5 0 0,1 23,4.5V7.5A1.5,1.5 0 0,1 21.5,9H18L15,12V9L15,4.5A1.5,1.5 0 0,1 16.5,3Z" /></svg>