<?xml version="1.0" encoding="UTF-8"?><!DOCTYPE svg PUBLIC "-//W3C//DTD SVG 1.1//EN" "http://www.w3.org/Graphics/SVG/1.1/DTD/svg11.dtd"><svg xmlns="http://www.w3.org/2000/svg" xmlns:xlink="http://www.w3.org/1999/xlink" version="1.1" id="mdi-certificate-outline" width="24" height="24" viewBox="0 0 24 24"><path d="M13 21L15 20L17 21V14H13M17 9V7L15 8L13 7V9L11 10L13 11V13L15 12L17 13V11L19 10M20 3H4A2 2 0 0 0 2 5V15A2 2 0 0 0 4 17H11V15H4V5H20V15H19V17H20A2 2 0 0 0 22 15V5A2 2 0 0 0 20 3M11 8H5V6H11M9 11H5V9H9M11 14H5V12H11Z" /></svg>