<?xml version="1.0" encoding="UTF-8"?><!DOCTYPE svg PUBLIC "-//W3C//DTD SVG 1.1//EN" "http://www.w3.org/Graphics/SVG/1.1/DTD/svg11.dtd"><svg xmlns="http://www.w3.org/2000/svg" xmlns:xlink="http://www.w3.org/1999/xlink" version="1.1" id="mdi-chart-bell-curve" width="24" height="24" viewBox="0 0 24 24"><path d="M9.96,11.31C10.82,8.1 11.5,6 13,6C14.5,6 15.18,8.1 16.04,11.31C17,14.92 18.1,19 22,19V17C19.8,17 19,14.54 17.97,10.8C17.08,7.46 16.15,4 13,4C9.85,4 8.92,7.46 8.03,10.8C7.03,14.54 6.2,17 4,17V2H2V22H22V20H4V19C7.9,19 9,14.92 9.96,11.31Z" /></svg>