<?xml version="1.0" encoding="UTF-8"?><!DOCTYPE svg PUBLIC "-//W3C//DTD SVG 1.1//EN" "http://www.w3.org/Graphics/SVG/1.1/DTD/svg11.dtd"><svg xmlns="http://www.w3.org/2000/svg" xmlns:xlink="http://www.w3.org/1999/xlink" version="1.1" id="mdi-chart-scatter-plot" width="24" height="24" viewBox="0 0 24 24"><path d="M2,2H4V20H22V22H2V2M9,10A3,3 0 0,1 12,13A3,3 0 0,1 9,16A3,3 0 0,1 6,13A3,3 0 0,1 9,10M13,2A3,3 0 0,1 16,5A3,3 0 0,1 13,8A3,3 0 0,1 10,5A3,3 0 0,1 13,2M18,12A3,3 0 0,1 21,15A3,3 0 0,1 18,18A3,3 0 0,1 15,15A3,3 0 0,1 18,12Z" /></svg>