<?xml version="1.0" encoding="UTF-8"?><!DOCTYPE svg PUBLIC "-//W3C//DTD SVG 1.1//EN" "http://www.w3.org/Graphics/SVG/1.1/DTD/svg11.dtd"><svg xmlns="http://www.w3.org/2000/svg" xmlns:xlink="http://www.w3.org/1999/xlink" version="1.1" id="mdi-chat-outline" width="24" height="24" viewBox="0 0 24 24"><path d="M12,3C6.5,3 2,6.58 2,11C2.05,13.15 3.06,15.17 4.75,16.5C4.75,17.1 4.33,18.67 2,21C4.37,20.89 6.64,20 8.47,18.5C9.61,18.83 10.81,19 12,19C17.5,19 22,15.42 22,11C22,6.58 17.5,3 12,3M12,17C7.58,17 4,14.31 4,11C4,7.69 7.58,5 12,5C16.42,5 20,7.69 20,11C20,14.31 16.42,17 12,17Z" /></svg>