<?xml version="1.0" encoding="UTF-8"?><!DOCTYPE svg PUBLIC "-//W3C//DTD SVG 1.1//EN" "http://www.w3.org/Graphics/SVG/1.1/DTD/svg11.dtd"><svg xmlns="http://www.w3.org/2000/svg" xmlns:xlink="http://www.w3.org/1999/xlink" version="1.1" id="mdi-chat-remove" width="24" height="24" viewBox="0 0 24 24"><path d="M15.46 15.88L16.88 14.46L19 16.59L21.12 14.47L22.54 15.88L20.41 18L22.54 20.12L21.12 21.54L19 19.41L16.88 21.54L15.46 20.12L17.59 18L15.47 15.88M12 3C17.5 3 22 6.58 22 11C22 11.58 21.92 12.14 21.78 12.68C20.95 12.25 20 12 19 12C15.69 12 13 14.69 13 18L13.08 18.95L12 19C10.76 19 9.57 18.82 8.47 18.5C5.55 21 2 21 2 21C4.33 18.67 4.7 17.1 4.75 16.5C3.05 15.07 2 13.14 2 11C2 6.58 6.5 3 12 3Z" /></svg>