<?xml version="1.0" encoding="UTF-8"?><!DOCTYPE svg PUBLIC "-//W3C//DTD SVG 1.1//EN" "http://www.w3.org/Graphics/SVG/1.1/DTD/svg11.dtd"><svg xmlns="http://www.w3.org/2000/svg" xmlns:xlink="http://www.w3.org/1999/xlink" version="1.1" id="mdi-checkerboard-remove" width="24" height="24" viewBox="0 0 24 24"><path d="M8 16H12V12H8V16M12 12H16V8H12V12M2 2V22H13.5C13 21.4 12.6 20.7 12.3 20H8V16H4V12H8V8H4V4H8V8H12V4H16V8H20V12.4C20.7 12.7 21.4 13.1 22 13.6V2H2M20.1 14.5L18 16.6L15.9 14.5L14.5 15.9L16.6 18L14.5 20.1L15.9 21.5L18 19.4L20.1 21.5L21.5 20.1L19.4 18L21.5 15.9L20.1 14.5Z" /></svg>