<?xml version="1.0" encoding="UTF-8"?><!DOCTYPE svg PUBLIC "-//W3C//DTD SVG 1.1//EN" "http://www.w3.org/Graphics/SVG/1.1/DTD/svg11.dtd"><svg xmlns="http://www.w3.org/2000/svg" xmlns:xlink="http://www.w3.org/1999/xlink" version="1.1" id="mdi-checkbox-multiple-marked-circle" width="24" height="24" viewBox="0 0 24 24"><path d="M14,2A8,8 0 0,0 6,10A8,8 0 0,0 14,18A8,8 0 0,0 22,10A8,8 0 0,0 14,2M4.93,5.82C3.08,7.34 2,9.61 2,12A8,8 0 0,0 10,20C10.64,20 11.27,19.92 11.88,19.77C10.12,19.38 8.5,18.5 7.17,17.29C5.22,16.25 4,14.21 4,12C4,11.7 4.03,11.41 4.07,11.11C4.03,10.74 4,10.37 4,10C4,8.56 4.32,7.13 4.93,5.82M18.09,6.08L19.5,7.5L13,14L9.21,10.21L10.63,8.79L13,11.17" /></svg>