<?xml version="1.0" encoding="UTF-8"?><!DOCTYPE svg PUBLIC "-//W3C//DTD SVG 1.1//EN" "http://www.w3.org/Graphics/SVG/1.1/DTD/svg11.dtd"><svg xmlns="http://www.w3.org/2000/svg" xmlns:xlink="http://www.w3.org/1999/xlink" version="1.1" id="mdi-chess-knight" width="24" height="24" viewBox="0 0 24 24"><path d="M19,22H5V20H19V22M13,2V2C11.75,2 10.58,2.62 9.89,3.66L7,8L9,10L11.06,8.63C11.5,8.32 12.14,8.44 12.45,8.9C12.47,8.93 12.5,8.96 12.5,9V9C12.8,9.59 12.69,10.3 12.22,10.77L7.42,15.57C6.87,16.13 6.87,17.03 7.43,17.58C7.69,17.84 8.05,18 8.42,18H17V6A4,4 0 0,0 13,2Z" /></svg>