<svg xmlns="http://www.w3.org/2000/svg" viewBox="0 0 24 24"><path d="M15.75 9l1.2-.76c.63.34 1.05 1 1.05 1.76v11.75S10 20 10 11v-1c0-.73.39-1.37.97-1.72l1.46.72L14 8l1.75 1M12 2c1.53 0 2.8 1.15 3 2.64 1 .29 1.81 1.03 2.22 1.99l-1.47.87-1.75-1-1.57 1-1.67-.83c.39-.95 1.19-1.67 2.18-2.01A1.01 1.01 0 0012 4V2m-4 8c0 8 3.63 9.84 6 11.75 0 0-8-1.75-8-10.75v-1c0-.73.39-1.37.97-1.72l1.33.66c-.19.31-.3.67-.3 1.06m.43-2.5l-1.67-.83C7.15 5.72 7.95 5 8.94 4.66A1.01 1.01 0 008 4V2c.77 0 1.47.29 2 .76V4c.43 0 .8.28.94.66C9.95 5 9.15 5.72 8.43 7.5z"/></svg>