<?xml version="1.0" encoding="UTF-8"?><!DOCTYPE svg PUBLIC "-//W3C//DTD SVG 1.1//EN" "http://www.w3.org/Graphics/SVG/1.1/DTD/svg11.dtd"><svg xmlns="http://www.w3.org/2000/svg" xmlns:xlink="http://www.w3.org/1999/xlink" version="1.1" id="mdi-city-variant-outline" width="24" height="24" viewBox="0 0 24 24"><path d="M15,23H13V21H15V23M19,21H17V23H19V21M15,17H13V19H15V17M7,21H5V23H7V21M7,17H5V19H7V17M19,17H17V19H19V17M15,13H13V15H15V13M19,13H17V15H19V13M21,9A2,2 0 0,1 23,11V23H21V11H11V23H9V15H3V23H1V15A2,2 0 0,1 3,13H9V11A2,2 0 0,1 11,9V7A2,2 0 0,1 13,5H15V1H17V5H19A2,2 0 0,1 21,7V9M19,9V7H13V9H19Z" /></svg>