<?xml version="1.0" encoding="UTF-8"?><!DOCTYPE svg PUBLIC "-//W3C//DTD SVG 1.1//EN" "http://www.w3.org/Graphics/SVG/1.1/DTD/svg11.dtd"><svg xmlns="http://www.w3.org/2000/svg" xmlns:xlink="http://www.w3.org/1999/xlink" version="1.1" id="mdi-clipboard-multiple" width="24" height="24" viewBox="0 0 24 24"><path d="M4 7H2V21C2 22.1 2.9 23 4 23H18V21H4M20 3H16.8C16.4 1.8 15.3 1 14 1C12.7 1 11.6 1.8 11.2 3H8C6.9 3 6 3.9 6 5V17C6 18.1 6.9 19 8 19H20C21.1 19 22 18.1 22 17V5C22 3.9 21.1 3 20 3M14 3C14.6 3 15 3.5 15 4C15 4.5 14.5 5 14 5C13.5 5 13 4.5 13 4C13 3.5 13.4 3 14 3Z" /></svg>