<?xml version="1.0" encoding="UTF-8"?><!DOCTYPE svg PUBLIC "-//W3C//DTD SVG 1.1//EN" "http://www.w3.org/Graphics/SVG/1.1/DTD/svg11.dtd"><svg xmlns="http://www.w3.org/2000/svg" xmlns:xlink="http://www.w3.org/1999/xlink" version="1.1" id="mdi-clock-fast" width="24" height="24" viewBox="0 0 24 24"><path d="M15,4A8,8 0 0,1 23,12A8,8 0 0,1 15,20A8,8 0 0,1 7,12A8,8 0 0,1 15,4M15,6A6,6 0 0,0 9,12A6,6 0 0,0 15,18A6,6 0 0,0 21,12A6,6 0 0,0 15,6M14,8H15.5V11.78L17.83,14.11L16.77,15.17L14,12.4V8M2,18A1,1 0 0,1 1,17A1,1 0 0,1 2,16H5.83C6.14,16.71 6.54,17.38 7,18H2M3,13A1,1 0 0,1 2,12A1,1 0 0,1 3,11H5.05L5,12L5.05,13H3M4,8A1,1 0 0,1 3,7A1,1 0 0,1 4,6H7C6.54,6.62 6.14,7.29 5.83,8H4Z" /></svg>