<?xml version="1.0" encoding="UTF-8"?><!DOCTYPE svg PUBLIC "-//W3C//DTD SVG 1.1//EN" "http://www.w3.org/Graphics/SVG/1.1/DTD/svg11.dtd"><svg xmlns="http://www.w3.org/2000/svg" xmlns:xlink="http://www.w3.org/1999/xlink" version="1.1" id="mdi-clock-digital" width="24" height="24" viewBox="0 0 24 24"><path d="M2,6A2,2 0 0,0 0,8V16A2,2 0 0,0 2,18H22A2,2 0 0,0 24,16V8A2,2 0 0,0 22,6M2,8H22V16H2M3,9V10.5H6.25L3,15H4.75L8,10.5V9M9.25,9V10.5H10.75V9M12,9V10.5H13.5V15H15V9M17,9A1,1 0 0,0 16,10V14A1,1 0 0,0 17,15H20A1,1 0 0,0 21,14V10A1,1 0 0,0 20,9M17.5,10.5H19.5V13.5H17.5M9.25,13.5V15H10.75V13.5" /></svg>