<?xml version="1.0" encoding="UTF-8"?><!DOCTYPE svg PUBLIC "-//W3C//DTD SVG 1.1//EN" "http://www.w3.org/Graphics/SVG/1.1/DTD/svg11.dtd"><svg xmlns="http://www.w3.org/2000/svg" xmlns:xlink="http://www.w3.org/1999/xlink" version="1.1" id="mdi-clock-alert-outline" width="24" height="24" viewBox="0 0 24 24"><path d="M12,2C6.47,2 2,6.5 2,12A10,10 0 0,0 12,22C14.25,22 16.33,21.24 18,20V17.28C16.53,18.94 14.39,20 12,20A8,8 0 0,1 4,12A8,8 0 0,1 12,4C15.36,4 18.23,6.07 19.41,9H21.54C20.27,4.94 16.5,2 12,2M11,7V13L16.25,16.15L17,14.92L12.5,12.25V7H11M20,11V18H22V11H20M20,20V22H22V20H20Z" /></svg>