<?xml version="1.0" encoding="UTF-8"?><!DOCTYPE svg PUBLIC "-//W3C//DTD SVG 1.1//EN" "http://www.w3.org/Graphics/SVG/1.1/DTD/svg11.dtd"><svg xmlns="http://www.w3.org/2000/svg" xmlns:xlink="http://www.w3.org/1999/xlink" version="1.1" id="mdi-close-box-multiple" width="24" height="24" viewBox="0 0 24 24"><path d="M4 20H18V22H4C2.9 22 2 21.11 2 20V6H4V20M20.22 2H7.78C6.8 2 6 2.8 6 3.78V16.22C6 17.2 6.8 18 7.78 18H20.22C21.2 18 22 17.2 22 16.22V3.78C22 2.8 21.2 2 20.22 2M19 13.6L17.6 15L14 11.4L10.4 15L9 13.6L12.6 10L9 6.4L10.4 5L14 8.6L17.6 5L19 6.4L15.4 10L19 13.6Z" /></svg>