<?xml version="1.0" encoding="UTF-8"?><!DOCTYPE svg PUBLIC "-//W3C//DTD SVG 1.1//EN" "http://www.w3.org/Graphics/SVG/1.1/DTD/svg11.dtd"><svg xmlns="http://www.w3.org/2000/svg" xmlns:xlink="http://www.w3.org/1999/xlink" version="1.1" id="mdi-closed-caption" width="24" height="24" viewBox="0 0 24 24"><path d="M18,11H16.5V10.5H14.5V13.5H16.5V13H18V14A1,1 0 0,1 17,15H14A1,1 0 0,1 13,14V10A1,1 0 0,1 14,9H17A1,1 0 0,1 18,10M11,11H9.5V10.5H7.5V13.5H9.5V13H11V14A1,1 0 0,1 10,15H7A1,1 0 0,1 6,14V10A1,1 0 0,1 7,9H10A1,1 0 0,1 11,10M19,4H5C3.89,4 3,4.89 3,6V18A2,2 0 0,0 5,20H19A2,2 0 0,0 21,18V6C21,4.89 20.1,4 19,4Z" /></svg>