<svg xmlns="http://www.w3.org/2000/svg" viewBox="0 0 24 24"><path d="M19 12v1.5c2.21 0 4 1.79 4 4 0 .82-.25 1.58-.67 2.21l-1.09-1.09c.17-.34.26-.72.26-1.12A2.5 2.5 0 0 0 19 15v1.5l-2.25-2.25-.03-.03c.06-.05.13-.09 2.28-2.22m0 11v-1.5c-2.21 0-4-1.79-4-4 0-.82.25-1.58.67-2.21l1.09 1.09c-.17.34-.26.72-.26 1.12A2.5 2.5 0 0 0 19 20v-1.5l2.25 2.25.03.03c-.06.05-.13.09-2.28 2.22m-5.97-5H6c-2.21 0-4-1.79-4-4s1.79-4 4-4h.71C7.37 7.69 9.5 6 12 6c3 0 5.4 2.37 5.5 5.32.62-.21 1.3-.32 2-.32 1.28 0 2.47.38 3.5 1-.87-1.1-2.16-1.86-3.65-1.97A7.49 7.49 0 0 0 12 4C9.11 4 6.6 5.64 5.35 8.03A6.004 6.004 0 0 0 6 20h7.5c-.26-.62-.42-1.3-.47-2z"/></svg>