<svg xmlns="http://www.w3.org/2000/svg" viewBox="0 0 24 24"><path d="M15.5 12c2.5 0 4.5 2 4.5 4.5 0 .88-.25 1.71-.69 2.4l3.08 3.1L21 23.39l-3.12-3.07c-.69.43-1.51.68-2.38.68-2.5 0-4.5-2-4.5-4.5s2-4.5 4.5-4.5m0 2a2.5 2.5 0 00-2.5 2.5 2.5 2.5 0 002.5 2.5 2.5 2.5 0 002.5-2.5 2.5 2.5 0 00-2.5-2.5m3.85-5.97C21.95 8.22 24 10.36 24 13c0 1.64-.79 3.1-2 4v-.5a6.5 6.5 0 00-6.5-6.5A6.5 6.5 0 009 16.5c0 .5.06 1 .17 1.5H6a6 6 0 01-6-6c0-3.1 2.34-5.64 5.35-5.97A7.506 7.506 0 0112 2a7.49 7.49 0 017.35 6.03z"/></svg>