<svg xmlns="http://www.w3.org/2000/svg" viewBox="0 0 24 24"><path d="M19 12v1.5c2.21 0 4 1.79 4 4 0 .82-.25 1.58-.67 2.21l-1.09-1.09c.17-.34.26-.72.26-1.12A2.5 2.5 0 0019 15v1.5l-2.25-2.25-.03-.03c.06-.05.13-.09 2.28-2.22m0 11v-1.5c-2.21 0-4-1.79-4-4 0-.82.25-1.58.67-2.21l1.09 1.09c-.17.34-.26.72-.26 1.12A2.5 2.5 0 0019 20v-1.5l2.25 2.25.03.03c-.06.05-.13.09-2.28 2.22m-6-5.5a6.5 6.5 0 016.5-6.5c1.28 0 2.47.38 3.5 1-.87-1.1-2.16-1.86-3.65-1.97A7.49 7.49 0 0012 4C9.11 4 6.6 5.64 5.35 8.03A6.004 6.004 0 006 20h7.5c-.32-.77-.5-1.61-.5-2.5z"/></svg>