<svg xmlns="http://www.w3.org/2000/svg" viewBox="0 0 24 24"><path d="M19.35 10.03A7.49 7.49 0 0012 4C9.11 4 6.6 5.64 5.35 8.03A6.004 6.004 0 000 14a6 6 0 006 6h13a5 5 0 005-5c0-2.64-2.05-4.78-4.65-4.97M13 17h-2v-2h2v2m1.8-5.18c-.3.39-.67.68-1.13.93-.26.16-.43.32-.52.51A1.7 1.7 0 0013 14h-2c0-.55.11-.92.3-1.18.2-.26.55-.57 1.07-.91.26-.16.47-.35.63-.59.15-.23.23-.51.23-.82 0-.32-.09-.56-.27-.74-.18-.2-.46-.29-.76-.29-.27 0-.49.08-.7.23-.15.15-.25.38-.25.69H9.28c-.05-.75.22-1.39.78-1.8C10.6 8.2 11.31 8 12.2 8c.94 0 1.69.23 2.23.68.54.45.81 1.07.81 1.82 0 .5-.15.91-.44 1.32z"/></svg>