<?xml version="1.0" encoding="UTF-8"?><!DOCTYPE svg PUBLIC "-//W3C//DTD SVG 1.1//EN" "http://www.w3.org/Graphics/SVG/1.1/DTD/svg11.dtd"><svg xmlns="http://www.w3.org/2000/svg" xmlns:xlink="http://www.w3.org/1999/xlink" version="1.1" id="mdi-codepen" width="24" height="24" viewBox="0 0 24 24"><path d="M8.21 12L6.88 12.89V11.11L8.21 12M11.47 9.82V7.34L7.31 10.12L9.16 11.36L11.47 9.82M16.7 10.12L12.53 7.34V9.82L14.84 11.36L16.7 10.12M7.31 13.88L11.47 16.66V14.18L9.16 12.64L7.31 13.88M12.53 14.18V16.66L16.7 13.88L14.84 12.64L12.53 14.18M12 10.74L10.12 12L12 13.26L13.88 12L12 10.74M22 12C22 17.5 17.5 22 12 22C6.5 22 2 17.5 2 12C2 6.5 6.5 2 12 2C17.5 2 22 6.5 22 12M18.18 10.12C18.18 10.09 18.18 10.07 18.18 10.05L18.17 10L18.17 10L18.16 9.95C18.15 9.94 18.15 9.93 18.14 9.91L18.13 9.89L18.11 9.85L18.1 9.83L18.08 9.8L18.06 9.77L18.03 9.74L18 9.72L18 9.7L17.96 9.68L17.95 9.67L12.3 5.91C12.12 5.79 11.89 5.79 11.71 5.91L6.05 9.67L6.05 9.68L6 9.7C6 9.71 6 9.72 6 9.72L5.97 9.74L5.94 9.77L5.93 9.8L5.9 9.83L5.89 9.85L5.87 9.89L5.86 9.91L5.84 9.95L5.84 10L5.83 10L5.82 10.05C5.82 10.07 5.82 10.09 5.82 10.12V13.88C5.82 13.91 5.82 13.93 5.82 13.95L5.83 14L5.84 14L5.84 14.05C5.85 14.06 5.85 14.07 5.86 14.09L5.87 14.11L5.89 14.15L5.9 14.17L5.92 14.2L5.94 14.23C5.95 14.24 5.96 14.25 5.97 14.26L6 14.28L6 14.3L6.04 14.32L6.05 14.33L11.71 18.1C11.79 18.16 11.9 18.18 12 18.18C12.1 18.18 12.21 18.15 12.3 18.1L17.95 14.33L17.96 14.32L18 14.3L18 14.28L18.03 14.26L18.06 14.23L18.08 14.2L18.1 14.17L18.11 14.15L18.13 14.11L18.14 14.09L18.16 14.05L18.16 14L18.17 14L18.18 13.95C18.18 13.93 18.18 13.91 18.18 13.88V10.12M17.12 12.89V11.11L15.79 12L17.12 12.89Z" /></svg>