<?xml version="1.0" encoding="UTF-8"?><!DOCTYPE svg PUBLIC "-//W3C//DTD SVG 1.1//EN" "http://www.w3.org/Graphics/SVG/1.1/DTD/svg11.dtd"><svg xmlns="http://www.w3.org/2000/svg" xmlns:xlink="http://www.w3.org/1999/xlink" version="1.1" id="mdi-comment-eye" width="24" height="24" viewBox="0 0 24 24"><path d="M20,12V16C20,17.11 19.11,18 18,18H13.9L10.2,21.71C10,21.89 9.76,22 9.5,22H9A1,1 0 0,1 8,21V18H4A2,2 0 0,1 2,16V6C2,4.89 2.9,4 4,4H9.5C8.95,4.67 8.5,5.42 8.14,6.25L7.85,7L8.14,7.75C9.43,10.94 12.5,13 16,13C17.44,13 18.8,12.63 20,12M16,6C16.56,6 17,6.44 17,7C17,7.56 16.56,8 16,8C15.44,8 15,7.56 15,7C15,6.44 15.44,6 16,6M16,3C18.73,3 21.06,4.66 22,7C21.06,9.34 18.73,11 16,11C13.27,11 10.94,9.34 10,7C10.94,4.66 13.27,3 16,3M16,4.5A2.5,2.5 0 0,0 13.5,7A2.5,2.5 0 0,0 16,9.5A2.5,2.5 0 0,0 18.5,7A2.5,2.5 0 0,0 16,4.5" /></svg>