<?xml version="1.0" encoding="UTF-8"?><!DOCTYPE svg PUBLIC "-//W3C//DTD SVG 1.1//EN" "http://www.w3.org/Graphics/SVG/1.1/DTD/svg11.dtd"><svg xmlns="http://www.w3.org/2000/svg" xmlns:xlink="http://www.w3.org/1999/xlink" version="1.1" id="mdi-compass-outline" width="24" height="24" viewBox="0 0 24 24"><path d="M7,17L10.2,10.2L17,7L13.8,13.8L7,17M12,11.1A0.9,0.9 0 0,0 11.1,12A0.9,0.9 0 0,0 12,12.9A0.9,0.9 0 0,0 12.9,12A0.9,0.9 0 0,0 12,11.1M12,2A10,10 0 0,1 22,12A10,10 0 0,1 12,22A10,10 0 0,1 2,12A10,10 0 0,1 12,2M12,4A8,8 0 0,0 4,12A8,8 0 0,0 12,20A8,8 0 0,0 20,12A8,8 0 0,0 12,4Z" /></svg>