<svg xmlns="http://www.w3.org/2000/svg" viewBox="0 0 24 24"><path d="M10.94 12.09a1.06 1.06 0 10.97-1.14 1.06 1.06 0 00-.97 1.14m2.6 1.12a2.62 2.62 0 01-.96.67l-.01.01a11.17 11.17 0 001.3 3.03 4.83 4.83 0 01-.95.38 4.9 4.9 0 01-.68.14l-.08.01-.1.01-.19.01c-.12 0-.23.03-.37 0a5 5 0 01-.71-.07 5.13 5.13 0 01-.7-.17 4.78 4.78 0 01-.63-.23 5 5 0 01-.53-.32 4.45 4.45 0 01-.43-.3c-.12-.09-.22-.19-.3-.26l-.25-.25s.05.1.21.28c.08.08.16.19.28.3a4.93 4.93 0 00.38.37 5.21 5.21 0 00.51.38 5.08 5.08 0 00.63.36 5.43 5.43 0 00.72.29 5.5 5.5 0 00.78.18c.14.03.28.04.42.05l.19.02h.2a5.5 5.5 0 00.8-.05 5.61 5.61 0 001.32-.35q.24.33.51.64l-.03.02-.21.14h-.04c-.03.03.05 0 .04 0h-.02l-.06.04-.14.07-.07.03-.04.02-.01.01h-.01c-.01.01.05-.01.02 0h-.01l-.15.07q-.08.03-.17.07v.01l-.07.02-.09.03a6.5 6.5 0 01-1.59.39 6.4 6.4 0 01-.94.04h-.12l-.12-.01-.26-.02c-.16-.03-.31-.04-.48-.07a6.59 6.59 0 01-1.83-.63c-.15-.07-.29-.14-.42-.22-.13-.08-.25-.16-.37-.24a6.64 6.64 0 01-.64-.51 6.35 6.35 0 01-.5-.49c-.14-.15-.25-.29-.35-.41-.09-.12-.16-.2-.22-.28l-.06-.1.06.11c.04.07.1.17.18.3.08.13.18.27.32.45a6.5 6.5 0 00.44.55 6.86 6.86 0 00.61.58c.12.1.23.19.36.29.13.1.26.19.4.28a7.12 7.12 0 00.9.49 7.2 7.2 0 00.99.37c.17.06.35.09.53.13l.27.05.11.02.14.02a7.27 7.27 0 001.04.07 7.38 7.38 0 001.85-.26l.09-.03.05-.01.06-.02c.06-.02.12-.03.16-.05l.18-.06.17-.06.15-.04.06-.05h.02l.05-.02.01-.01.03-.01.22-.11.28-.14c.19.18.39.34.59.53 0 0 .97 1 1.5.59.5-.39-.08-1.6-.08-1.6a11.2 11.2 0 00-4.14-5.47m-3.38-1.64l-.01-.01a11.18 11.18 0 00-3.24-.45 4.72 4.72 0 01.43-1.72l.04-.08.04-.08.08-.17c.07-.1.12-.21.19-.31a4.97 4.97 0 01.45-.58 5.05 5.05 0 01.52-.5 4.77 4.77 0 01.54-.4A5.06 5.06 0 019.74 7a4.88 4.88 0 01.48-.22c.15-.06.28-.09.39-.12.21-.06.34-.08.34-.08s-.13.01-.35.03c-.1.02-.25.03-.41.07a4.94 4.94 0 00-.52.14 5.34 5.34 0 00-.59.23 5.08 5.08 0 00-.63.34 5.47 5.47 0 00-.63.45 5.55 5.55 0 00-.57.57c-.09.09-.17.22-.25.33l-.12.15-.06.08-.06.09a5.5 5.5 0 00-.38.71 5.61 5.61 0 00-.41 1.37l-.01.02c-.26.02-.53.05-.8.1v-.14l.01-.25v-.05c0-.04-.01.06-.01.05v-.03l.01-.07.01-.15.01-.08v-.04h.01v-.03c0-.01-.01.03-.01.03l.03-.18.02-.18.01-.02v-.01l-.01.02.01-.01v-.01l.01-.04.01-.1a6.5 6.5 0 01.99-2.38l.06-.09.07-.1.16-.21c.1-.12.19-.25.31-.37a6.61 6.61 0 011.51-1.23c.13-.09.27-.16.4-.22.13-.08.27-.13.4-.19a6.76 6.76 0 01.77-.28 6.5 6.5 0 01.68-.16c.2-.05.38-.06.53-.08.15-.02.27-.02.35-.03l.12-.01h-.12c-.08 0-.2-.01-.35-.01-.15 0-.33 0-.54.02a6.41 6.41 0 00-.71.1 7.03 7.03 0 00-.82.2c-.14.07-.29.1-.43.16-.15.05-.3.12-.45.19a7.26 7.26 0 00-.89.5 7.33 7.33 0 00-.84.64c-.14.12-.27.26-.4.38L5.9 7l-.08.09-.1.1a7.25 7.25 0 00-.6.85 7.38 7.38 0 00-.76 1.71l-.03.09-.01.05-.02.06-.05.18-.04.16-.03.21-.03.13c-.01.02-.01.04-.01.07l-.01.02v.06l-.01.03-.03.25-.04.44c-.26.07-.52.15-.77.24 0 0-1.35.31-1.28.98.08.63 1.41.78 1.41.78a11.21 11.21 0 006.83-.76 2.62 2.62 0 01-.08-1.17m9.54-.73a7.19 7.19 0 00-.17-1.05c-.03-.17-.1-.34-.15-.52l-.08-.24-.04-.12-.05-.14a7.23 7.23 0 00-.46-.94 7.35 7.35 0 00-1.13-1.48l-.07-.07-.05-.03-.03-.05-.14-.12-.12-.11-.15-.12-.12-.1-.05-.05-.01-.01h-.01l-.04-.03-.03-.02-.21-.14-.27-.19q.1-.43.18-.86s.38-1.34-.25-1.6c-.58-.24-1.34.87-1.34.87a11.21 11.21 0 00-2.66 6.33 2.63 2.63 0 011.07.5A11.2 11.2 0 0015.25 8a4.73 4.73 0 01.83.66 4.81 4.81 0 01.45.53l.05.06.05.08.11.17c.06.09.12.19.18.3a4.89 4.89 0 01.48 1.36 4.78 4.78 0 01.1.67 4.88 4.88 0 010 .61 4.76 4.76 0 01-.06.52c-.02.15-.05.29-.08.4-.05.21-.09.34-.09.34l.14-.33c.04-.11.09-.23.13-.37a5.06 5.06 0 00.13-.54 5.34 5.34 0 00.08-.63 5.04 5.04 0 00.01-.72 5.38 5.38 0 00-.33-1.54c-.05-.13-.11-.26-.16-.38L17.18 9l-.04-.07-.05-.1a5.53 5.53 0 00-1.42-1.67c.12-.26.22-.51.33-.78l.03.03.22.12.03.01v.01h.01c.03.02-.05-.05-.04-.02h.01l.01.01.06.04.12.08.05.05.06.02.01.01h.01l-.02-.01h.01l.14.11.14.1.02.02-.01-.01.01.01.04.04.09.05a6.46 6.46 0 011.6 2l.05.1.06.12.11.23c.05.15.12.29.18.45a6.69 6.69 0 01.24.95 6.78 6.78 0 01.11.96c.01.14.01.31 0 .46 0 .18-.01.3-.02.45a6.79 6.79 0 01-.13.81 6.4 6.4 0 01-.2.67c-.04.2-.11.37-.16.51-.06.14-.11.24-.14.31l-.06.12.07-.11c.04-.08.1-.17.17-.3.07-.14.16-.28.24-.49a6.5 6.5 0 00.25-.67 6.93 6.93 0 00.22-.81c.02-.15.05-.31.07-.46.02-.16.04-.32.04-.48a7.1 7.1 0 00-.01-1.03"/></svg>