<svg xmlns="http://www.w3.org/2000/svg" viewBox="0 0 24 24" id="content-save-move-outline"><path d="M17,3H5A2,2 0 0,0 3,5V19A2,2 0 0,0 5,21H11.81C11.27,20.09 11,19.05 11,18C11,17.91 11,17.83 11,17.74C10.04,17.2 9.7,15.97 10.25,15C10.6,14.38 11.27,14 12,14C12.16,14 12.32,14 12.5,14.06C12.97,13.5 13.57,13.03 14.23,12.68C12.4,11.45 9.91,11.94 8.68,13.77C8.24,14.43 8,15.21 8,16C8,17.15 8.5,18.25 9.35,19H5V9H15V5H16.17L19,7.83V12.35C19.74,12.6 20.43,13 21,13.54V7L17,3M13,7H5V5H13V7M13,17H17V14L22,18.5L17,23V20H13V17" /></svg>