<?xml version="1.0" encoding="UTF-8"?><!DOCTYPE svg PUBLIC "-//W3C//DTD SVG 1.1//EN" "http://www.w3.org/Graphics/SVG/1.1/DTD/svg11.dtd"><svg xmlns="http://www.w3.org/2000/svg" xmlns:xlink="http://www.w3.org/1999/xlink" version="1.1" id="mdi-contrast-circle" width="24" height="24" viewBox="0 0 24 24"><path d="M12,20C9.79,20 7.79,19.1 6.34,17.66L17.66,6.34C19.1,7.79 20,9.79 20,12A8,8 0 0,1 12,20M6,8H8V6H9.5V8H11.5V9.5H9.5V11.5H8V9.5H6M12,2A10,10 0 0,0 2,12A10,10 0 0,0 12,22A10,10 0 0,0 22,12A10,10 0 0,0 12,2M12,16H17V14.5H12V16Z" /></svg>