<?xml version="1.0" encoding="UTF-8"?><!DOCTYPE svg PUBLIC "-//W3C//DTD SVG 1.1//EN" "http://www.w3.org/Graphics/SVG/1.1/DTD/svg11.dtd"><svg xmlns="http://www.w3.org/2000/svg" xmlns:xlink="http://www.w3.org/1999/xlink" version="1.1" id="mdi-content-save-move" width="24" height="24" viewBox="0 0 24 24"><path d="M17,3H5A2,2 0 0,0 3,5V19A2,2 0 0,0 5,21H11.81C11.42,20.34 11.17,19.6 11.07,18.84C9.5,18.31 8.66,16.6 9.2,15.03C9.61,13.83 10.73,13 12,13C12.44,13 12.88,13.1 13.28,13.29C15.57,11.5 18.83,11.59 21,13.54V7L17,3M15,9H5V5H15V9M13,17H17V14L22,18.5L17,23V20H13V17" /></svg>