<?xml version="1.0" encoding="UTF-8"?><!DOCTYPE svg PUBLIC "-//W3C//DTD SVG 1.1//EN" "http://www.w3.org/Graphics/SVG/1.1/DTD/svg11.dtd"><svg xmlns="http://www.w3.org/2000/svg" xmlns:xlink="http://www.w3.org/1999/xlink" version="1.1" id="mdi-contactless-payment" width="24" height="24" viewBox="0 0 24 24"><path d="M16.79,23C16.37,22.83 16.07,22.45 16,22C15.95,21.74 16,21.56 16.4,20.84C17.9,18.14 18.67,15.09 18.63,12C18.67,9 17.94,6.07 16.5,3.44C16.29,3 16.1,2.58 15.94,2.13C16,1.75 16.19,1.4 16.5,1.19C16.95,0.95 17.5,1 17.91,1.28C18.19,1.64 18.43,2 18.63,2.42C19.71,4.5 20.44,6.7 20.8,9C21.03,10.81 21.06,12.65 20.89,14.47C20.58,16.81 19.89,19.07 18.83,21.18C18.19,22.46 17.83,23 17.45,23C17.37,23 17.28,23 17.2,23C17.06,23 16.93,23 16.79,23V23M12.43,20.79C11.86,20.63 11.5,20.05 11.62,19.47C11.62,19.35 11.93,18.8 12.21,18.24C13.39,15.97 13.9,13.41 13.67,10.86C13.53,9.03 13,7.25 12.13,5.64C11.5,4.38 11.46,4.18 11.83,3.64C12.27,3.15 13,3.08 13.54,3.5C14.26,4.56 14.83,5.72 15.25,6.94C16.53,10.73 16.33,14.86 14.69,18.5C13.85,20.39 13.26,21 12.43,20.74V20.79M7.93,18.56C7.57,18.4 7.3,18.08 7.2,17.7C7.2,17.5 7.2,17.24 7.65,16.44C9.14,13.74 9.14,10.46 7.65,7.76C7,6.5 7,6.24 7.53,5.76C7.72,5.54 8,5.43 8.3,5.47C8.94,5.47 9.3,5.78 9.84,6.91C10.69,8.47 11.13,10.22 11.12,12C11.16,13.81 10.72,15.61 9.85,17.2C9.31,18.25 9.04,18.5 8.5,18.59C8.31,18.61 8.11,18.59 7.93,18.5V18.56M3.72,16.43C3.39,16.27 3.13,16 3,15.65C2.9,15.3 3,15 3.4,14.36C3.9,13.68 4.14,12.84 4.09,12C4.16,11.15 3.93,10.31 3.44,9.61C3.27,9.36 3.13,9.09 3,8.82C2.89,8.19 3.31,7.59 4,7.47C4.54,7.37 4.92,7.6 5.42,8.36C6.87,10.57 6.87,13.42 5.42,15.63C4.91,16.4 4.33,16.63 3.73,16.43H3.72Z" /></svg>