<svg xmlns="http://www.w3.org/2000/svg" viewBox="0 0 24 24"><path d="M10.08 10.86c.05-.33.16-.62.3-.86.12-.26.34-.47.59-.63.24-.15.53-.22.91-.23.23.01.44.05.62.13.21.09.39.23.53.36.14.15.25.33.34.53.09.2.13.42.13.64h1.8c-.02-.47-.11-.9-.3-1.3-.15-.38-.38-.72-.68-1-.32-.28-.66-.5-1.08-.66-.42-.16-.88-.23-1.39-.23-.65 0-1.22.11-1.7.34-.48.23-.88.55-1.2.92-.32.39-.56.84-.71 1.36-.15.52-.24 1.06-.24 1.64v.27c0 .58.08 1.12.23 1.64.15.52.39.97.71 1.35.32.37.72.69 1.2.91.48.22 1.05.34 1.7.34.47 0 .91-.08 1.32-.23.41-.15.77-.36 1.08-.65.31-.25.56-.56.76-.92.16-.36.27-.74.28-1.15H13.5c0 .21-.07.4-.16.57-.09.19-.21.34-.34.47-.17.13-.34.23-.54.3-.19.07-.39.09-.6.1-.36-.01-.66-.08-.89-.23a1.41 1.41 0 0 1-.59-.64 2.36 2.36 0 0 1-.3-.86 6.74 6.74 0 0 1-.08-1v-.27c0-.37.03-.68.08-1.01M12 2A10 10 0 0 0 2 12a10 10 0 0 0 10 10 10 10 0 0 0 10-10A10 10 0 0 0 12 2m0 18c-4.41 0-8-3.59-8-8s3.59-8 8-8 8 3.59 8 8-3.59 8-8 8z"/></svg>