<?xml version="1.0" encoding="UTF-8"?><!DOCTYPE svg PUBLIC "-//W3C//DTD SVG 1.1//EN" "http://www.w3.org/Graphics/SVG/1.1/DTD/svg11.dtd"><svg xmlns="http://www.w3.org/2000/svg" xmlns:xlink="http://www.w3.org/1999/xlink" version="1.1" id="mdi-counter" width="24" height="24" viewBox="0 0 24 24"><path d="M4,4H20A2,2 0 0,1 22,6V18A2,2 0 0,1 20,20H4A2,2 0 0,1 2,18V6A2,2 0 0,1 4,4M4,6V18H11V6H4M20,18V6H18.76C19,6.54 18.95,7.07 18.95,7.13C18.88,7.8 18.41,8.5 18.24,8.75L15.91,11.3L19.23,11.28L19.24,12.5L14.04,12.47L14,11.47C14,11.47 17.05,8.24 17.2,7.95C17.34,7.67 17.91,6 16.5,6C15.27,6.05 15.41,7.3 15.41,7.3L13.87,7.31C13.87,7.31 13.88,6.65 14.25,6H13V18H15.58L15.57,17.14L16.54,17.13C16.54,17.13 17.45,16.97 17.46,16.08C17.5,15.08 16.65,15.08 16.5,15.08C16.37,15.08 15.43,15.13 15.43,15.95H13.91C13.91,15.95 13.95,13.89 16.5,13.89C19.1,13.89 18.96,15.91 18.96,15.91C18.96,15.91 19,17.16 17.85,17.63L18.37,18H20M8.92,16H7.42V10.2L5.62,10.76V9.53L8.76,8.41H8.92V16Z" /></svg>