<svg xmlns="http://www.w3.org/2000/svg" viewBox="0 0 24 24"><path d="M20,22H4V20C4,17.79 7.58,16 12,16C16.42,16 20,17.79 20,20M8,9H16V10C16,12.19 14.19,14 12,14C9.81,14 8,12.19 8,10M7.5,6C7.5,6 8,5 8.5,4C9,2.95 9.4,2 10.5,2V2C11.1,2 11.64,2.27 12,2.68V2.67C12.37,2.26 12.9,2 13.5,2V2A2,2 0 0,1 15.5,4C16,5 16.5,6 16.5,6H18C18,6 18,5.5 18,5A1,1 0 0,1 19,4A1,1 0 0,1 20,5C20,5.31 20,5.65 20,6A2,2 0 0,1 18,8C14.93,8 9.07,8 6,8A2,2 0 0,1 4,6C4,5.65 4,5.31 4,5A1,1 0 0,1 5,4A1,1 0 0,1 6,5C6,5.5 6,6 6,6" /></svg>