<?xml version="1.0" encoding="UTF-8"?><!DOCTYPE svg PUBLIC "-//W3C//DTD SVG 1.1//EN" "http://www.w3.org/Graphics/SVG/1.1/DTD/svg11.dtd"><svg xmlns="http://www.w3.org/2000/svg" xmlns:xlink="http://www.w3.org/1999/xlink" version="1.1" id="mdi-credit-card-marker" width="24" height="24" viewBox="0 0 24 24"><path d="M18.5 12C16.6 12 15 13.6 15 15.5C15 18.1 18.5 22 18.5 22S22 18.1 22 15.5C22 13.6 20.4 12 18.5 12M18.5 16.8C17.8 16.8 17.3 16.2 17.3 15.6C17.3 14.9 17.9 14.4 18.5 14.4S19.7 15 19.7 15.6C19.8 16.2 19.2 16.8 18.5 16.8M14.55 20H4C2.9 20 2 19.11 2 18V6C2 4.89 2.9 4 4 4H20C21.11 4 22 4.89 22 6V11.3C21.42 10.81 20.74 10.44 20 10.22V8H4V11H15.39C13.96 12 13 13.66 13 15.5C13 17 13.72 18.61 14.55 20Z" /></svg>