<?xml version="1.0" encoding="UTF-8"?><!DOCTYPE svg PUBLIC "-//W3C//DTD SVG 1.1//EN" "http://www.w3.org/Graphics/SVG/1.1/DTD/svg11.dtd"><svg xmlns="http://www.w3.org/2000/svg" xmlns:xlink="http://www.w3.org/1999/xlink" version="1.1" id="mdi-crop-rotate" width="24" height="24" viewBox="0 0 24 24"><path d="M7.47,21.5C4.2,19.93 1.86,16.76 1.5,13H0C0.5,19.16 5.66,24 11.95,24C12.18,24 12.39,24 12.61,23.97L8.8,20.15L7.47,21.5M12.05,0C11.82,0 11.61,0 11.39,0.04L15.2,3.85L16.53,2.5C19.8,4.07 22.14,7.24 22.5,11H24C23.5,4.84 18.34,0 12.05,0M16,14H18V8C18,6.89 17.1,6 16,6H10V8H16V14M8,16V4H6V6H4V8H6V16A2,2 0 0,0 8,18H16V20H18V18H20V16H8Z" /></svg>