<?xml version="1.0" encoding="UTF-8"?><!DOCTYPE svg PUBLIC "-//W3C//DTD SVG 1.1//EN" "http://www.w3.org/Graphics/SVG/1.1/DTD/svg11.dtd"><svg xmlns="http://www.w3.org/2000/svg" xmlns:xlink="http://www.w3.org/1999/xlink" version="1.1" id="mdi-crosshairs-question" width="24" height="24" viewBox="0 0 24 24"><path d="M3.05 13H1V11H3.05C3.5 6.83 6.83 3.5 11 3.05V1H13V3.05C17.17 3.5 20.5 6.83 20.95 11H23V13H20.95C20.5 17.17 17.17 20.5 13 20.95V23H11V20.95C6.83 20.5 3.5 17.17 3.05 13M12 5C8.13 5 5 8.13 5 12S8.13 19 12 19 19 15.87 19 12 15.87 5 12 5M11.13 17.25H12.88V15.5H11.13V17.25M12 6.75C10.07 6.75 8.5 8.32 8.5 10.25H10.25C10.25 9.28 11.03 8.5 12 8.5S13.75 9.28 13.75 10.25C13.75 12 11.13 11.78 11.13 14.63H12.88C12.88 12.66 15.5 12.44 15.5 10.25C15.5 8.32 13.93 6.75 12 6.75Z" /></svg>