<?xml version="1.0" encoding="UTF-8"?><!DOCTYPE svg PUBLIC "-//W3C//DTD SVG 1.1//EN" "http://www.w3.org/Graphics/SVG/1.1/DTD/svg11.dtd"><svg xmlns="http://www.w3.org/2000/svg" xmlns:xlink="http://www.w3.org/1999/xlink" version="1.1" id="mdi-crystal-ball" width="24" height="24" viewBox="0 0 24 24"><path d="M9.38,8.38L11.5,9.34L13.62,8.38L12.66,10.5L13.62,12.62L11.5,11.66L9.38,12.62L10.34,10.5L9.38,8.38M16.5,2.5L17.59,5.41L20.5,6.5L17.59,7.59L16.5,10.5L15.41,7.59L12.5,6.5L15.41,5.41L16.5,2.5M6,19H7V18A1,1 0 0,1 8,17H8.26C6,15.7 4.5,13.28 4.5,10.5A7.5,7.5 0 0,1 12,3C13.05,3 14.05,3.22 14.96,3.61L14.59,4.59L13.17,5.12C12.79,5.04 12.4,5 12,5A5.5,5.5 0 0,0 6.5,10.5A5.5,5.5 0 0,0 12,16C14.91,16 17.3,13.73 17.5,10.87L18.41,8.41L19.12,8.14C19.37,8.88 19.5,9.68 19.5,10.5C19.5,13.28 18,15.7 15.74,17H16A1,1 0 0,1 17,18V19H18A2,2 0 0,1 20,21V22H4V21A2,2 0 0,1 6,19Z" /></svg>