<?xml version="1.0" encoding="UTF-8"?><!DOCTYPE svg PUBLIC "-//W3C//DTD SVG 1.1//EN" "http://www.w3.org/Graphics/SVG/1.1/DTD/svg11.dtd"><svg xmlns="http://www.w3.org/2000/svg" xmlns:xlink="http://www.w3.org/1999/xlink" version="1.1" id="mdi-cupboard-outline" width="24" height="24" viewBox="0 0 24 24"><path d="M7 2C5.9 2 5 2.9 5 4V19C5 20.11 5.9 21 7 21V22H9V21H15V22H17V21C18.11 21 19 20.11 19 19V4C19 2.9 18.11 2 17 2H7M7 4H17V7H7V4M7 9H17V12H7V9M7 14H11V19H7V14M13 14H17V19H13V14M8 15V18H10V15H8M14 15V18H16V15H14Z" /></svg>