<svg xmlns="http://www.w3.org/2000/svg" viewBox="0 0 24 24"><path d="M3 3h3.5C9.54 3 12 5.46 12 8.5c0 2.19-1.29 4.09-3.14 4.97L12.64 21H10.4l-3.52-7H5v7H3V3m3.5 9c1.93 0 3.5-1.57 3.5-3.5S8.43 5 6.5 5H5v7h1.5m14.28 5.37c-.14-.28-.35-.53-.63-.74-.28-.21-.61-.39-1.01-.53s-.85-.27-1.35-.38c-.35-.07-.64-.15-.87-.22-.23-.09-.42-.17-.55-.26a.717.717 0 0 1-.28-.3.934.934 0 0 1-.09-.39c0-.14.04-.28.1-.41a.82.82 0 0 1 .27-.34c.13-.1.27-.18.45-.24s.4-.09.64-.09c.25 0 .47.03.66.11.19.07.35.17.48.29.13.13.22.26.29.42.06.16.11.32.11.49h1.94c0-.39-.08-.75-.24-1.09-.16-.34-.39-.63-.7-.88-.29-.25-.65-.44-1.08-.59-.42-.15-.92-.22-1.46-.22-.51 0-.96.07-1.39.21-.41.14-.77.33-1.07.57-.28.22-.5.52-.66.84s-.23.65-.23 1.01c0 .37.08.69.23.96.16.28.36.52.66.73.25.21.58.38.96.53.38.15.81.26 1.27.36.39.08.71.17.95.26s.43.19.57.29c.13.1.22.24.25.34.07.12.09.25.09.4 0 .31-.13.56-.4.76-.27.2-.66.29-1.19.29-.2 0-.41-.02-.62-.08a1.86 1.86 0 0 1-.56-.24c-.17-.11-.32-.26-.41-.44-.11-.18-.17-.41-.18-.67h-1.89c0 .38.08.71.24 1.05.16.33.39.65.7.93.31.27.69.49 1.15.66.46.17.98.24 1.57.24.54 0 1-.05 1.45-.18.43-.13.8-.32 1.11-.54.31-.23.54-.51.71-.83.17-.32.23-.67.23-1.06s-.07-.74-.22-1.02"/></svg>