<svg xmlns="http://www.w3.org/2000/svg" viewBox="0 0 24 24"><path d="M22.11 21.46 2.39 1.73 1.11 3 6 7.89c-.19.36-.36.73-.5 1.11H3l-1 2h3.05L5 12l.05 1H3l-1 2h3.5c1.25 3.5 4.58 6 8.5 6 1.5 0 2.89-.35 4.12-1l2.72 2.73 1.27-1.27M7 12l.07-1h2.05l2 2H7.07L7 12m7 7c-2.79 0-5.2-1.63-6.33-4h5.45l3.48 3.5c-.81.31-1.68.5-2.6.5m3-5.19-.79-.81h1.14l-.35.81M18.19 11h-3.98l-2-2h6.83l-.85 2M9.7 6.5 8.27 5.07A8.954 8.954 0 0 1 14 3c2.5 0 4.8 1.05 6.43 2.72l-.86 2.04A7.015 7.015 0 0 0 14 5c-1.62 0-3.11.58-4.3 1.5z"/></svg>