<svg xmlns="http://www.w3.org/2000/svg" viewBox="0 0 24 24"><path d="M15 5.5c1.58 0 3 .5 4.2 1.58L21 5.3C19.3 3.77 17.3 3 15 3c-1.95 0-3.7.56-5.24 1.69S7.13 7.25 6.5 9H2l1 2h3.03c-.03.2-.03.53-.03 1s0 .8.03 1H2l1 2h3.5c.63 1.75 1.71 3.19 3.26 4.31S13.05 21 15 21c.92 0 2-.23 3.17-.68s2.13-.99 2.83-1.62l-1.8-1.78C18 18 16.58 18.5 15 18.5c-1.11 0-2.22-.33-3.34-1S9.72 15.97 9.22 15h6.75L15 13H8.56a8.33 8.33 0 0 1-.09-1c0-.22.03-.55.09-1h7.41L15 9H9.22c.5-.97 1.31-1.8 2.44-2.5s2.23-1 3.34-1z"/></svg>