<?xml version="1.0" encoding="UTF-8"?><!DOCTYPE svg PUBLIC "-//W3C//DTD SVG 1.1//EN" "http://www.w3.org/Graphics/SVG/1.1/DTD/svg11.dtd"><svg xmlns="http://www.w3.org/2000/svg" xmlns:xlink="http://www.w3.org/1999/xlink" version="1.1" id="mdi-database-minus" width="24" height="24" viewBox="0 0 24 24"><path d="M15,17H23V19H15V17M12,3C16.42,3 20,4.79 20,7C20,9.21 16.42,11 12,11C7.58,11 4,9.21 4,7C4,4.79 7.58,3 12,3M4,9C4,11.21 7.58,13 12,13C16.42,13 20,11.21 20,9V12C20,13.19 18.95,14.27 17.29,15H13V15.97L12,16C7.58,16 4,14.21 4,12V9M4,14C4,16.21 7.58,18 12,18L13,17.97V20.97L12,21C7.58,21 4,19.21 4,17V14M20,14V15H19.75C19.91,14.68 20,14.35 20,14Z" /></svg>