<?xml version="1.0" encoding="UTF-8"?><!DOCTYPE svg PUBLIC "-//W3C//DTD SVG 1.1//EN" "http://www.w3.org/Graphics/SVG/1.1/DTD/svg11.dtd"><svg xmlns="http://www.w3.org/2000/svg" xmlns:xlink="http://www.w3.org/1999/xlink" version="1.1" id="mdi-desktop-tower-monitor" width="24" height="24" viewBox="0 0 24 24"><path d="M22,18H17A1,1 0 0,1 16,17V7A1,1 0 0,1 17,6H22A1,1 0 0,1 23,7V17A1,1 0 0,1 22,18M22,8H17V9H22V8M22,10H17V11H22V10M9,15V17H10V18H5V17H6V15H2A1,1 0 0,1 1,14V7A1,1 0 0,1 2,6H13A1,1 0 0,1 14,7V14A1,1 0 0,1 13,15H9M12,8H3V13H12V8Z" /></svg>