<?xml version="1.0" encoding="UTF-8"?><!DOCTYPE svg PUBLIC "-//W3C//DTD SVG 1.1//EN" "http://www.w3.org/Graphics/SVG/1.1/DTD/svg11.dtd"><svg xmlns="http://www.w3.org/2000/svg" xmlns:xlink="http://www.w3.org/1999/xlink" version="1.1" id="mdi-deskphone" width="24" height="24" viewBox="0 0 24 24"><path d="M5,3H19A2,2 0 0,1 21,5V19A2,2 0 0,1 19,21H5A2,2 0 0,1 3,19V5A2,2 0 0,1 5,3M15,5V19H19V5H15M5,5V9H13V5H5M5,11V13H7V11H5M8,11V13H10V11H8M11,11V13H13V11H11M5,14V16H7V14H5M8,14V16H10V14H8M11,14V16H13V14H11M11,17V19H13V17H11M8,17V19H10V17H8M5,17V19H7V17H5Z" /></svg>