<?xml version="1.0" encoding="UTF-8"?><!DOCTYPE svg PUBLIC "-//W3C//DTD SVG 1.1//EN" "http://www.w3.org/Graphics/SVG/1.1/DTD/svg11.dtd"><svg xmlns="http://www.w3.org/2000/svg" xmlns:xlink="http://www.w3.org/1999/xlink" version="1.1" id="mdi-developer-board" width="24" height="24" viewBox="0 0 24 24"><path d="M22,9V7H20V5A2,2 0 0,0 18,3H4A2,2 0 0,0 2,5V19A2,2 0 0,0 4,21H18A2,2 0 0,0 20,19V17H22V15H20V13H22V11H20V9H22M18,19H4V5H18V19M6,13H11V17H6V13M12,7H16V10H12V7M6,7H11V12H6V7M12,11H16V17H12V11Z" /></svg>