<?xml version="1.0" encoding="UTF-8"?><!DOCTYPE svg PUBLIC "-//W3C//DTD SVG 1.1//EN" "http://www.w3.org/Graphics/SVG/1.1/DTD/svg11.dtd"><svg xmlns="http://www.w3.org/2000/svg" xmlns:xlink="http://www.w3.org/1999/xlink" version="1.1" id="mdi-dialpad" width="24" height="24" viewBox="0 0 24 24"><path d="M12,19A2,2 0 0,0 10,21A2,2 0 0,0 12,23A2,2 0 0,0 14,21A2,2 0 0,0 12,19M6,1A2,2 0 0,0 4,3A2,2 0 0,0 6,5A2,2 0 0,0 8,3A2,2 0 0,0 6,1M6,7A2,2 0 0,0 4,9A2,2 0 0,0 6,11A2,2 0 0,0 8,9A2,2 0 0,0 6,7M6,13A2,2 0 0,0 4,15A2,2 0 0,0 6,17A2,2 0 0,0 8,15A2,2 0 0,0 6,13M18,5A2,2 0 0,0 20,3A2,2 0 0,0 18,1A2,2 0 0,0 16,3A2,2 0 0,0 18,5M12,13A2,2 0 0,0 10,15A2,2 0 0,0 12,17A2,2 0 0,0 14,15A2,2 0 0,0 12,13M18,13A2,2 0 0,0 16,15A2,2 0 0,0 18,17A2,2 0 0,0 20,15A2,2 0 0,0 18,13M18,7A2,2 0 0,0 16,9A2,2 0 0,0 18,11A2,2 0 0,0 20,9A2,2 0 0,0 18,7M12,7A2,2 0 0,0 10,9A2,2 0 0,0 12,11A2,2 0 0,0 14,9A2,2 0 0,0 12,7M12,1A2,2 0 0,0 10,3A2,2 0 0,0 12,5A2,2 0 0,0 14,3A2,2 0 0,0 12,1Z" /></svg>