<?xml version="1.0" encoding="UTF-8"?><!DOCTYPE svg PUBLIC "-//W3C//DTD SVG 1.1//EN" "http://www.w3.org/Graphics/SVG/1.1/DTD/svg11.dtd"><svg xmlns="http://www.w3.org/2000/svg" xmlns:xlink="http://www.w3.org/1999/xlink" version="1.1" id="mdi-dice-d8-outline" width="24" height="24" viewBox="0 0 24 24"><path d="M12,8.25C13.31,8.25 14.38,9.2 14.38,10.38C14.38,11.07 14,11.68 13.44,12.07C14.14,12.46 14.6,13.13 14.6,13.9C14.6,15.12 13.44,16.1 12,16.1C10.56,16.1 9.4,15.12 9.4,13.9C9.4,13.13 9.86,12.46 10.56,12.07C10,11.68 9.63,11.07 9.63,10.38C9.63,9.2 10.69,8.25 12,8.25M12,12.65A1.1,1.1 0 0,0 10.9,13.75A1.1,1.1 0 0,0 12,14.85A1.1,1.1 0 0,0 13.1,13.75A1.1,1.1 0 0,0 12,12.65M12,9.5C11.5,9.5 11.1,9.95 11.1,10.5C11.1,11.05 11.5,11.5 12,11.5C12.5,11.5 12.9,11.05 12.9,10.5C12.9,9.95 12.5,9.5 12,9.5M21.54,10.8C22.14,11.5 22.14,12.5 21.54,13.2L13.24,21.5C12.54,22.2 11.54,22.2 10.84,21.5L2.54,13.2C1.84,12.5 1.84,11.5 2.54,10.8L10.84,2.5C11.54,1.8 12.54,1.8 13.24,2.5L21.54,10.8M20.34,12L12.04,3.7L3.74,12L12.04,20.3L20.34,12Z" /></svg>