<svg xmlns="http://www.w3.org/2000/svg" viewBox="0 0 24 24"><path d="M11.1 10.5c0-.55.4-1 .9-1s.9.45.9 1-.4 1-.9 1-.9-.45-.9-1m.9 2.15c-.61 0-1.1.49-1.1 1.1 0 .61.49 1.1 1.1 1.1s1.1-.49 1.1-1.1-.49-1.1-1.1-1.1m9.54.55l-8.3 8.3c-.7.7-1.7.7-2.4 0l-8.3-8.3c-.7-.7-.7-1.7 0-2.4l8.3-8.3c.7-.7 1.7-.7 2.4 0l8.3 8.3c.6.7.6 1.7 0 2.4m-6.94.7c0-.77-.46-1.44-1.16-1.83.56-.39.94-1 .94-1.69 0-1.18-1.07-2.13-2.38-2.13s-2.37.95-2.37 2.13c0 .69.37 1.3.93 1.69-.7.39-1.16 1.06-1.16 1.83 0 1.22 1.16 2.2 2.6 2.2s2.6-.98 2.6-2.2z"/></svg>