<svg xmlns="http://www.w3.org/2000/svg" viewBox="0 0 24 24"><path d="M12 8.25c1.31 0 2.38.95 2.38 2.13 0 .69-.38 1.3-.94 1.69.7.39 1.16 1.06 1.16 1.83 0 1.22-1.16 2.2-2.6 2.2-1.44 0-2.6-.98-2.6-2.2 0-.77.46-1.44 1.16-1.83-.56-.39-.93-1-.93-1.69 0-1.18 1.06-2.13 2.37-2.13m0 4.4a1.1 1.1 0 00-1.1 1.1 1.1 1.1 0 001.1 1.1 1.1 1.1 0 001.1-1.1 1.1 1.1 0 00-1.1-1.1m0-3.15c-.5 0-.9.45-.9 1s.4 1 .9 1 .9-.45.9-1-.4-1-.9-1m9.54 1.3c.6.7.6 1.7 0 2.4l-8.3 8.3c-.7.7-1.7.7-2.4 0l-8.3-8.3c-.7-.7-.7-1.7 0-2.4l8.3-8.3c.7-.7 1.7-.7 2.4 0l8.3 8.3m-1.2 1.2l-8.3-8.3-8.3 8.3 8.3 8.3 8.3-8.3z"/></svg>