<?xml version="1.0" encoding="UTF-8"?><!DOCTYPE svg PUBLIC "-//W3C//DTD SVG 1.1//EN" "http://www.w3.org/Graphics/SVG/1.1/DTD/svg11.dtd"><svg xmlns="http://www.w3.org/2000/svg" xmlns:xlink="http://www.w3.org/1999/xlink" version="1.1" id="mdi-dice-d12-outline" width="24" height="24" viewBox="0 0 24 24"><path d="M12,2L1.5,9.64L5.5,22H18.5L22.5,9.64L12,2M17,20H7L3.85,10.4L12,4.47L20.15,10.4L17,20M17,15.75V17H11.66V15.91C11.66,15.91 15.23,12.45 15.23,11.4C15.23,10.12 14.18,10.25 14.18,10.25C13.5,10.3 13,10.87 13,11.55H11.44C11.5,10.09 12.72,8.94 14.27,9C16.74,9 16.77,10.85 16.77,11.3C16.77,13.07 13.58,15.77 13.58,15.77L17,15.75M10.5,17H8.89V10.89L7,11.47V10.19L10.31,9H10.5V17Z" /></svg>