<?xml version="1.0" encoding="UTF-8"?><!DOCTYPE svg PUBLIC "-//W3C//DTD SVG 1.1//EN" "http://www.w3.org/Graphics/SVG/1.1/DTD/svg11.dtd"><svg xmlns="http://www.w3.org/2000/svg" xmlns:xlink="http://www.w3.org/1999/xlink" version="1.1" id="mdi-dice-d6-outline" width="24" height="24" viewBox="0 0 24 24"><path d="M5,3H19A2,2 0 0,1 21,5V19A2,2 0 0,1 19,21H5A2,2 0 0,1 3,19V5A2,2 0 0,1 5,3M5,5V19H19V5H5M13.39,9.53C10.89,9.5 10.86,11.53 10.86,11.53C10.86,11.53 11.41,10.87 12.53,10.87C13.19,10.87 14.5,11.45 14.55,13.41C14.61,15.47 12.77,16 12.77,16C12.77,16 9.27,16.86 9.3,12.66C9.33,7.94 13.39,8.33 13.39,8.33V9.53M11.95,12.1C11.21,12 10.83,12.78 10.83,12.78L10.85,13.5C10.85,14.27 11.39,14.83 12,14.83C12.61,14.83 13.05,14.27 13.05,13.5C13.05,12.73 12.56,12.1 11.95,12.1Z" /></svg>