<?xml version="1.0" encoding="UTF-8"?><!DOCTYPE svg PUBLIC "-//W3C//DTD SVG 1.1//EN" "http://www.w3.org/Graphics/SVG/1.1/DTD/svg11.dtd"><svg xmlns="http://www.w3.org/2000/svg" xmlns:xlink="http://www.w3.org/1999/xlink" version="1.1" id="mdi-dishwasher" width="24" height="24" viewBox="0 0 24 24"><path d="M18,2H6A2,2 0 0,0 4,4V20A2,2 0 0,0 6,22H18A2,2 0 0,0 20,20V4A2,2 0 0,0 18,2M10,4A1,1 0 0,1 11,5A1,1 0 0,1 10,6A1,1 0 0,1 9,5A1,1 0 0,1 10,4M7,4A1,1 0 0,1 8,5A1,1 0 0,1 7,6A1,1 0 0,1 6,5A1,1 0 0,1 7,4M18,20H6V8H18V20M14.67,15.33C14.69,16.03 14.41,16.71 13.91,17.21C12.86,18.26 11.15,18.27 10.09,17.21C9.59,16.71 9.31,16.03 9.33,15.33C9.4,14.62 9.63,13.94 10,13.33C10.37,12.5 10.81,11.73 11.33,11L12,10C13.79,12.59 14.67,14.36 14.67,15.33" /></svg>