<?xml version="1.0" encoding="UTF-8"?><!DOCTYPE svg PUBLIC "-//W3C//DTD SVG 1.1//EN" "http://www.w3.org/Graphics/SVG/1.1/DTD/svg11.dtd"><svg xmlns="http://www.w3.org/2000/svg" xmlns:xlink="http://www.w3.org/1999/xlink" version="1.1" id="mdi-dns" width="24" height="24" viewBox="0 0 24 24"><path d="M7,9A2,2 0 0,1 5,7A2,2 0 0,1 7,5A2,2 0 0,1 9,7A2,2 0 0,1 7,9M20,3H4A1,1 0 0,0 3,4V10A1,1 0 0,0 4,11H20A1,1 0 0,0 21,10V4A1,1 0 0,0 20,3M7,19A2,2 0 0,1 5,17A2,2 0 0,1 7,15A2,2 0 0,1 9,17A2,2 0 0,1 7,19M20,13H4A1,1 0 0,0 3,14V20A1,1 0 0,0 4,21H20A1,1 0 0,0 21,20V14A1,1 0 0,0 20,13Z" /></svg>