<?xml version="1.0" encoding="UTF-8"?><!DOCTYPE svg PUBLIC "-//W3C//DTD SVG 1.1//EN" "http://www.w3.org/Graphics/SVG/1.1/DTD/svg11.dtd"><svg xmlns="http://www.w3.org/2000/svg" xmlns:xlink="http://www.w3.org/1999/xlink" version="1.1" id="mdi-do-not-disturb-off" width="24" height="24" viewBox="0 0 24 24"><path d="M17,11V13H15.54L20.22,17.68C21.34,16.07 22,14.11 22,12A10,10 0 0,0 12,2C9.89,2 7.93,2.66 6.32,3.78L13.54,11H17M2.27,2.27L1,3.54L3.78,6.32C2.66,7.93 2,9.89 2,12A10,10 0 0,0 12,22C14.11,22 16.07,21.34 17.68,20.22L20.46,23L21.73,21.73L2.27,2.27M7,13V11H8.46L10.46,13H7Z" /></svg>