<?xml version="1.0" encoding="UTF-8"?><!DOCTYPE svg PUBLIC "-//W3C//DTD SVG 1.1//EN" "http://www.w3.org/Graphics/SVG/1.1/DTD/svg11.dtd"><svg xmlns="http://www.w3.org/2000/svg" xmlns:xlink="http://www.w3.org/1999/xlink" version="1.1" id="mdi-docker" width="24" height="24" viewBox="0 0 24 24"><path d="M21.81 10.25C21.75 10.21 21.25 9.82 20.17 9.82C19.89 9.82 19.61 9.85 19.33 9.9C19.12 8.5 17.95 7.79 17.9 7.76L17.61 7.59L17.43 7.86C17.19 8.22 17 8.63 16.92 9.05C16.72 9.85 16.84 10.61 17.25 11.26C16.76 11.54 15.96 11.61 15.79 11.61H2.62C2.28 11.61 2 11.89 2 12.24C2 13.39 2.18 14.54 2.58 15.62C3.03 16.81 3.71 17.69 4.58 18.23C5.56 18.83 7.17 19.17 9 19.17C9.79 19.17 10.61 19.1 11.42 18.95C12.54 18.75 13.62 18.36 14.61 17.79C15.43 17.32 16.16 16.72 16.78 16C17.83 14.83 18.45 13.5 18.9 12.35H19.09C20.23 12.35 20.94 11.89 21.33 11.5C21.59 11.26 21.78 10.97 21.92 10.63L22 10.39L21.81 10.25M3.85 11.24H5.61C5.69 11.24 5.77 11.17 5.77 11.08V9.5C5.77 9.42 5.7 9.34 5.61 9.34H3.85C3.76 9.34 3.69 9.41 3.69 9.5V11.08C3.7 11.17 3.76 11.24 3.85 11.24M6.28 11.24H8.04C8.12 11.24 8.2 11.17 8.2 11.08V9.5C8.2 9.42 8.13 9.34 8.04 9.34H6.28C6.19 9.34 6.12 9.41 6.12 9.5V11.08C6.13 11.17 6.19 11.24 6.28 11.24M8.75 11.24H10.5C10.6 11.24 10.67 11.17 10.67 11.08V9.5C10.67 9.42 10.61 9.34 10.5 9.34H8.75C8.67 9.34 8.6 9.41 8.6 9.5V11.08C8.6 11.17 8.66 11.24 8.75 11.24M11.19 11.24H12.96C13.04 11.24 13.11 11.17 13.11 11.08V9.5C13.11 9.42 13.05 9.34 12.96 9.34H11.19C11.11 9.34 11.04 9.41 11.04 9.5V11.08C11.04 11.17 11.11 11.24 11.19 11.24M6.28 9H8.04C8.12 9 8.2 8.91 8.2 8.82V7.25C8.2 7.16 8.13 7.09 8.04 7.09H6.28C6.19 7.09 6.12 7.15 6.12 7.25V8.82C6.13 8.91 6.19 9 6.28 9M8.75 9H10.5C10.6 9 10.67 8.91 10.67 8.82V7.25C10.67 7.16 10.61 7.09 10.5 7.09H8.75C8.67 7.09 8.6 7.15 8.6 7.25V8.82C8.6 8.91 8.66 9 8.75 9M11.19 9H12.96C13.04 9 13.11 8.91 13.11 8.82V7.25C13.11 7.16 13.04 7.09 12.96 7.09H11.19C11.11 7.09 11.04 7.15 11.04 7.25V8.82C11.04 8.91 11.11 9 11.19 9M11.19 6.72H12.96C13.04 6.72 13.11 6.65 13.11 6.56V5C13.11 4.9 13.04 4.83 12.96 4.83H11.19C11.11 4.83 11.04 4.89 11.04 5V6.56C11.04 6.64 11.11 6.72 11.19 6.72M13.65 11.24H15.41C15.5 11.24 15.57 11.17 15.57 11.08V9.5C15.57 9.42 15.5 9.34 15.41 9.34H13.65C13.57 9.34 13.5 9.41 13.5 9.5V11.08C13.5 11.17 13.57 11.24 13.65 11.24" /></svg>