<?xml version="1.0" encoding="UTF-8"?><!DOCTYPE svg PUBLIC "-//W3C//DTD SVG 1.1//EN" "http://www.w3.org/Graphics/SVG/1.1/DTD/svg11.dtd"><svg xmlns="http://www.w3.org/2000/svg" xmlns:xlink="http://www.w3.org/1999/xlink" version="1.1" id="mdi-dots-horizontal-circle" width="24" height="24" viewBox="0 0 24 24"><path d="M12,2A10,10 0 0,1 22,12A10,10 0 0,1 12,22A10,10 0 0,1 2,12A10,10 0 0,1 12,2M12,10.5A1.5,1.5 0 0,0 10.5,12A1.5,1.5 0 0,0 12,13.5A1.5,1.5 0 0,0 13.5,12A1.5,1.5 0 0,0 12,10.5M6.5,10.5A1.5,1.5 0 0,0 5,12A1.5,1.5 0 0,0 6.5,13.5A1.5,1.5 0 0,0 8,12A1.5,1.5 0 0,0 6.5,10.5M17.5,10.5A1.5,1.5 0 0,0 16,12A1.5,1.5 0 0,0 17.5,13.5A1.5,1.5 0 0,0 19,12A1.5,1.5 0 0,0 17.5,10.5Z" /></svg>