<?xml version="1.0" encoding="UTF-8"?><!DOCTYPE svg PUBLIC "-//W3C//DTD SVG 1.1//EN" "http://www.w3.org/Graphics/SVG/1.1/DTD/svg11.dtd"><svg xmlns="http://www.w3.org/2000/svg" xmlns:xlink="http://www.w3.org/1999/xlink" version="1.1" id="mdi-download-lock" width="24" height="24" viewBox="0 0 24 24"><path d="M5 20H14V18H5M19 9H15V3H9V9H5L12 16M22 16A1.08 1.08 0 0 1 23 17V21A1.08 1.08 0 0 1 22 22H17A1.08 1.08 0 0 1 16 21V17A1.08 1.08 0 0 1 17 16V14.5A2.5 2.5 0 0 1 22 14.5V16M21 16V14.5A1.5 1.5 0 0 0 18 14.5V16H21" /></svg>