<?xml version="1.0" encoding="UTF-8"?><!DOCTYPE svg PUBLIC "-//W3C//DTD SVG 1.1//EN" "http://www.w3.org/Graphics/SVG/1.1/DTD/svg11.dtd"><svg xmlns="http://www.w3.org/2000/svg" xmlns:xlink="http://www.w3.org/1999/xlink" version="1.1" id="mdi-dresser-outline" width="24" height="24" viewBox="0 0 24 24"><path d="M4 3C2.9 3 2 3.9 2 5V18C2 19.11 2.9 20 4 20V21H6V20H18V21H20V20C21.11 20 22 19.11 22 18V5C22 3.9 21.11 3 20 3H4M4 5H20V8H4V5M10 6V7H14V6H10M4 10H20V13H4V10M10 11V12H14V11H10M4 15H20V18H4V15M10 16V17H14V16H10Z" /></svg>