<?xml version="1.0" encoding="UTF-8"?><!DOCTYPE svg PUBLIC "-//W3C//DTD SVG 1.1//EN" "http://www.w3.org/Graphics/SVG/1.1/DTD/svg11.dtd"><svg xmlns="http://www.w3.org/2000/svg" xmlns:xlink="http://www.w3.org/1999/xlink" version="1.1" id="mdi-ear-hearing" width="24" height="24" viewBox="0 0 24 24"><path d="M17,20C16.71,20 16.44,19.94 16.24,19.85C15.53,19.5 15.03,18.97 14.53,17.47C14,15.91 13.06,15.18 12.14,14.47C11.35,13.86 10.53,13.23 9.82,11.94C9.29,11 9,9.93 9,9C9,6.2 11.2,4 14,4C16.8,4 19,6.2 19,9H21C21,5.07 17.93,2 14,2C10.07,2 7,5.07 7,9C7,10.26 7.38,11.65 8.07,12.9C9,14.55 10.05,15.38 10.92,16.05C11.73,16.67 12.31,17.12 12.63,18.1C13.23,19.92 14,20.94 15.36,21.65C15.87,21.88 16.43,22 17,22A4,4 0 0,0 21,18H19A2,2 0 0,1 17,20M7.64,2.64L6.22,1.22C4.23,3.21 3,5.96 3,9C3,12.04 4.23,14.79 6.22,16.78L7.63,15.37C6,13.74 5,11.5 5,9C5,6.5 6,4.26 7.64,2.64M11.5,9A2.5,2.5 0 0,0 14,11.5A2.5,2.5 0 0,0 16.5,9A2.5,2.5 0 0,0 14,6.5A2.5,2.5 0 0,0 11.5,9Z" /></svg>