<?xml version="1.0" encoding="UTF-8"?><!DOCTYPE svg PUBLIC "-//W3C//DTD SVG 1.1//EN" "http://www.w3.org/Graphics/SVG/1.1/DTD/svg11.dtd"><svg xmlns="http://www.w3.org/2000/svg" xmlns:xlink="http://www.w3.org/1999/xlink" version="1.1" id="mdi-earth-box" width="24" height="24" viewBox="0 0 24 24"><path d="M5,3C3.89,3 3,3.89 3,5V19A2,2 0 0,0 5,21H19A2,2 0 0,0 21,19V5C21,3.89 20.1,3 19,3H5M15.78,5H19V17.18C18.74,16.38 17.69,15.79 16.8,15.79H15.8V12.79A1,1 0 0,0 14.8,11.79H8.8V9.79H10.8A1,1 0 0,0 11.8,8.79V6.79H13.8C14.83,6.79 15.67,6 15.78,5M5,10.29L9.8,14.79V15.79C9.8,16.9 10.7,17.79 11.8,17.79V19H5V10.29Z" /></svg>