<?xml version="1.0" encoding="UTF-8"?><!DOCTYPE svg PUBLIC "-//W3C//DTD SVG 1.1//EN" "http://www.w3.org/Graphics/SVG/1.1/DTD/svg11.dtd"><svg xmlns="http://www.w3.org/2000/svg" xmlns:xlink="http://www.w3.org/1999/xlink" version="1.1" id="mdi-egg-off-outline" width="24" height="24" viewBox="0 0 24 24"><path d="M22.11 21.46L2.39 1.73L1.11 3L6.1 8C5.1 10.28 4.5 12.76 4.5 14.5C4.5 18.64 7.86 22 12 22C14.23 22 16.22 21 17.59 19.5L20.84 22.73L22.11 21.46M12 20C8.97 20 6.5 17.53 6.5 14.5C6.5 13.08 6.95 11.25 7.63 9.5L16.17 18.06C15.16 19.24 13.67 20 12 20M9.36 6.16L7.92 4.72C9.1 3.11 10.5 2 12 2C16.14 2 19.5 10.36 19.5 14.5C19.5 15.06 19.43 15.6 19.32 16.12L17.5 14.29C17.38 10.46 14.28 4 12 4C11.17 4 10.22 4.87 9.36 6.16Z" /></svg>