<?xml version="1.0" encoding="UTF-8"?><!DOCTYPE svg PUBLIC "-//W3C//DTD SVG 1.1//EN" "http://www.w3.org/Graphics/SVG/1.1/DTD/svg11.dtd"><svg xmlns="http://www.w3.org/2000/svg" xmlns:xlink="http://www.w3.org/1999/xlink" version="1.1" id="mdi-electric-switch-closed" width="24" height="24" viewBox="0 0 24 24"><path d="M20.83 11A3 3 0 0 0 15.18 11H8.82A3 3 0 0 0 3.17 11H1V13H3.17A3 3 0 0 0 8.82 13H15.18A3 3 0 0 0 20.83 13H23V11M6 13A1 1 0 1 1 7 12A1 1 0 0 1 6 13M18 13A1 1 0 1 1 19 12A1 1 0 0 1 18 13Z" /></svg>