<?xml version="1.0" encoding="UTF-8"?><!DOCTYPE svg PUBLIC "-//W3C//DTD SVG 1.1//EN" "http://www.w3.org/Graphics/SVG/1.1/DTD/svg11.dtd"><svg xmlns="http://www.w3.org/2000/svg" xmlns:xlink="http://www.w3.org/1999/xlink" version="1.1" id="mdi-email-newsletter" width="24" height="24" viewBox="0 0 24 24"><path d="M12 .64L8.23 3H5V5L2.97 6.29C2.39 6.64 2 7.27 2 8V18C2 19.11 2.9 20 4 20H20C21.11 20 22 19.11 22 18V8C22 7.27 21.61 6.64 21.03 6.29L19 5V3H15.77M7 5H17V9.88L12 13L7 9.88M8 6V7.5H16V6M5 7.38V8.63L4 8M19 7.38L20 8L19 8.63M8 8.5V10H16V8.5Z" /></svg>