<svg xmlns="http://www.w3.org/2000/svg" viewBox="0 0 24 24"><path d="M3,4H19A2,2 0 0,1 21,6V10.82C20.42,10.26 19.74,9.81 19,9.5V8.37L17.78,9.13C17.36,9.04 16.93,9 16.5,9C13.86,9 11.5,10.6 10.5,13.04L3,8.37V18H10.5C10.81,18.74 11.26,19.42 11.81,20H3C1.89,20 1,19.1 1,18V6C1,4.89 1.89,4 3,4M3,6L11,11L19,6H3M16.5,11C19,11 21,13 21,15.5C21,16.38 20.75,17.21 20.31,17.9L23.39,21L22,22.39L18.88,19.32C18.19,19.75 17.37,20 16.5,20C14,20 12,18 12,15.5C12,13 14,11 16.5,11M16.5,13A2.5,2.5 0 0,0 14,15.5A2.5,2.5 0 0,0 16.5,18A2.5,2.5 0 0,0 19,15.5A2.5,2.5 0 0,0 16.5,13Z" /></svg>