<?xml version="1.0" encoding="UTF-8"?><!DOCTYPE svg PUBLIC "-//W3C//DTD SVG 1.1//EN" "http://www.w3.org/Graphics/SVG/1.1/DTD/svg11.dtd"><svg xmlns="http://www.w3.org/2000/svg" xmlns:xlink="http://www.w3.org/1999/xlink" version="1.1" id="mdi-email-edit-outline" width="24" height="24" viewBox="0 0 24 24"><path d="M19.07 13.88L13 19.94V22H15.06L21.12 15.93M22.7 13.58L21.42 12.3C21.32 12.19 21.18 12.13 21.04 12.13C20.89 12.14 20.75 12.19 20.65 12.3L19.65 13.3L21.7 15.3L22.7 14.3C22.89 14.1 22.89 13.78 22.7 13.58M11 18H4V8L12 13L20 8V10H22V6C22 4.9 21.1 4 20 4H4C2.9 4 2 4.9 2 6V18C2 19.1 2.9 20 4 20H11V18M20 6L12 11L4 6H20Z" /></svg>