<?xml version="1.0" encoding="UTF-8"?><!DOCTYPE svg PUBLIC "-//W3C//DTD SVG 1.1//EN" "http://www.w3.org/Graphics/SVG/1.1/DTD/svg11.dtd"><svg xmlns="http://www.w3.org/2000/svg" xmlns:xlink="http://www.w3.org/1999/xlink" version="1.1" id="mdi-email-multiple-outline" width="24" height="24" viewBox="0 0 24 24"><path d="M2 6V20H20V22H2C.895 22 0 21.11 0 20V6H2M24 4C24 2.9 23.1 2 22 2H6C4.9 2 4 2.9 4 4V16C4 17.1 4.9 18 6 18H22C23.1 18 24 17.1 24 16V4M22 4L14 9L6 4H22M22 16H6V6L14 11L22 6V16Z" /></svg>