<svg xmlns="http://www.w3.org/2000/svg" viewBox="0 0 24 24"><path d="M6 11v1.5h1.5V14H9v-3m3.5-5H11v3h3V7.5h-1.5M9.8 17A5.5 5.5 0 0017 9.8M6.34 6.34a8 8 0 018.74-1.72 4.11 4.11 0 01.65-1.9 10 10 0 00-13 13 4.11 4.11 0 011.9-.65 8 8 0 011.71-8.73m11.32 11.32a8 8 0 01-8.74 1.72 4.11 4.11 0 01-.65 1.9 10 10 0 0013-13 4.11 4.11 0 01-1.9.65 8 8 0 01-1.71 8.73M6 11v1.5h1.5V14H9v-3m.8 6A5.5 5.5 0 0017 9.8M12.5 6H11v3h3V7.5h-1.5M6 11v1.5h1.5V14H9v-3m3.5-5H11v3h3V7.5h-1.5M9.8 17A5.5 5.5 0 0017 9.8M4.93 21a2 2 0 01-2-2 2 2 0 012-2h2v2a2 2 0 01-2 2.07M19.07 2.93a2 2 0 012 2 2 2 0 01-2 2h-2v-2a2 2 0 012-2z"/></svg>