<svg xmlns="http://www.w3.org/2000/svg" viewBox="0 0 24 24"><path d="M7.5 11c0 .28-.22.5-.5.5s-.5-.22-.5-.5.22-.5.5-.5.5.22.5.5m2 3.5c-.28 0-.5.22-.5.5s.22.5.5.5.5-.22.5-.5-.22-.5-.5-.5m0-6.5c.28 0 .5-.22.5-.5S9.78 7 9.5 7s-.5.22-.5.5.22.5.5.5m5 0c.28 0 .5-.22.5-.5s-.22-.5-.5-.5-.5.22-.5.5.22.5.5.5M12 10.5c-.28 0-.5.22-.5.5s.22.5.5.5.5-.22.5-.5-.22-.5-.5-.5m8 .5c0 4.42-3.58 8-8 8s-8-3.58-8-8c0-2.39 1.06-4.53 2.72-6h10.56C18.94 6.47 20 8.61 20 11m-7-3.5c0 .83.67 1.5 1.5 1.5S16 8.33 16 7.5 15.33 6 14.5 6 13 6.67 13 7.5m-5 0C8 8.33 8.67 9 9.5 9S11 8.33 11 7.5 10.33 6 9.5 6 8 6.67 8 7.5M7 13c1.11 0 2-.89 2-2a2 2 0 10-2 2m4.5 2a2 2 0 10-3.999-.001A2 2 0 0011.5 15m.5-2c1.11 0 2-.89 2-2a2 2 0 10-2 2m4.5 2a2 2 0 10-3.999-.001A2 2 0 0016.5 15m2.5-4a2 2 0 10-3.999-.001A2 2 0 0019 11m-2-.5c-.28 0-.5.22-.5.5s.22.5.5.5.5-.22.5-.5-.22-.5-.5-.5m-2.5 4c-.28 0-.5.22-.5.5s.22.5.5.5.5-.22.5-.5-.22-.5-.5-.5z"/></svg>