<svg xmlns="http://www.w3.org/2000/svg" viewBox="0 0 24 24"><path d="M14 4.5c0-.28.22-.5.5-.5s.5.22.5.5-.22.5-.5.5-.5-.22-.5-.5M20 19c0 2.21-1.79 4-4 4H8c-2.21 0-4-1.79-4-4s1.79-4 4-4h.13A8.01 8.01 0 0 1 4 8c0-2.39 1.06-4.53 2.72-6h10.56C18.94 3.47 20 5.61 20 8c0 3-1.67 5.64-4.13 7H16c2.21 0 4 1.79 4 4m-3.5-7a2 2 0 1 0-3.999-.001A2 2 0 0 0 16.5 12m.5-6a2 2 0 1 0-.001 4.001A2 2 0 0 0 17 6m-4-1.5c0 .83.67 1.5 1.5 1.5S16 5.33 16 4.5 15.33 3 14.5 3 13 3.67 13 4.5M12 6a2 2 0 1 0-.001 4.001A2 2 0 0 0 12 6M8 4.5C8 5.33 8.67 6 9.5 6S11 5.33 11 4.5 10.33 3 9.5 3 8 3.67 8 4.5M7 10c1.11 0 2-.89 2-2a2 2 0 1 0-2 2m2.5 4c1.11 0 2-.89 2-2a2 2 0 1 0-2 2m1.5 5c0-1.66-1.34-3-3-3s-3 1.34-3 3 1.34 3 3 3 3-1.34 3-3m8 0c0-1.66-1.34-3-3-3s-3 1.34-3 3 1.34 3 3 3 3-1.34 3-3M17 8.5c.28 0 .5-.22.5-.5s-.22-.5-.5-.5-.5.22-.5.5.22.5.5.5m-2.5 3c-.28 0-.5.22-.5.5s.22.5.5.5.5-.22.5-.5-.22-.5-.5-.5M16 18c-.55 0-1 .45-1 1s.45 1 1 1 1-.45 1-1-.45-1-1-1m-4-9.5c.28 0 .5-.22.5-.5s-.22-.5-.5-.5-.5.22-.5.5.22.5.5.5M8 18c-.55 0-1 .45-1 1s.45 1 1 1 1-.45 1-1-.45-1-1-1M7 7.5c-.28 0-.5.22-.5.5s.22.5.5.5.5-.22.5-.5-.22-.5-.5-.5M9.5 5c.28 0 .5-.22.5-.5S9.78 4 9.5 4s-.5.22-.5.5.22.5.5.5m.5 7c0-.28-.22-.5-.5-.5s-.5.22-.5.5.22.5.5.5.5-.22.5-.5z"/></svg>