<svg xmlns="http://www.w3.org/2000/svg" viewBox="0 0 24 24"><path d="M8 10.5c.83 0 1.5.67 1.5 1.5s-.67 1.5-1.5 1.5-1.5-.67-1.5-1.5.67-1.5 1.5-1.5M8 9c-1.66 0-3 1.34-3 3s1.34 3 3 3 3-1.34 3-3-1.34-3-3-3m8 1.5c.83 0 1.5.67 1.5 1.5s-.67 1.5-1.5 1.5-1.5-.67-1.5-1.5.67-1.5 1.5-1.5M16 9c-1.66 0-3 1.34-3 3s1.34 3 3 3 3-1.34 3-3-1.34-3-3-3m-1.88-.59L12.71 7l1.41-1.41-.71-.71L12 6.29l-1.41-1.41-.71.71L11.29 7 9.88 8.41l.71.71L12 7.71l1.41 1.41.71-.71m0 10L12.71 17l1.41-1.41-.71-.71L12 16.29l-1.41-1.41-.71.71L11.29 17l-1.41 1.41.71.71L12 17.71l1.41 1.41.71-.71m5.62-12.74.76-.74-1.43-1.43-.74.76C16.6 2.85 14.4 2 12 2s-4.6.85-6.33 2.26l-.74-.76L3.5 4.93l.76.74A9.984 9.984 0 0 0 2 12c0 5.5 4.5 10 10 10s10-4.5 10-10c0-2.4-.85-4.6-2.26-6.33M12 20c-4.41 0-8-3.59-8-8s3.59-8 8-8 8 3.59 8 8-3.59 8-8 8z"/></svg>