<svg xmlns="http://www.w3.org/2000/svg" viewBox="0 0 24 24"><path d="M12.5 15c0 .28-.22.5-.5.5s-.5-.22-.5-.5.22-.5.5-.5.5.22.5.5m2.5-4.5c.28 0 .5-.22.5-.5s-.22-.5-.5-.5-.5.22-.5.5.22.5.5.5m-6 0c.28 0 .5-.22.5-.5s-.22-.5-.5-.5-.5.22-.5.5.22.5.5.5m4 8.42V20h-2v-1.08c-3.39-.49-6-3.39-6-6.92s2.61-6.43 6-6.92V4h2v1.08c3.39.49 6 3.42 6 6.92s-2.61 6.43-6 6.92M13 10a2 2 0 104 0c0-1.11-.89-2-2-2s-2 .9-2 2m-6 0a2 2 0 104 0c0-1.11-.89-2-2-2s-2 .9-2 2m2.5 4c0-.83-.67-1.5-1.5-1.5s-1.5.67-1.5 1.5.67 1.5 1.5 1.5 1.5-.67 1.5-1.5m4.5 1c0-1.1-.89-2-2-2s-2 .9-2 2 .9 2 2 2 2-.89 2-2m2 .5c.83 0 1.5-.67 1.5-1.5s-.67-1.5-1.5-1.5-1.5.67-1.5 1.5.67 1.5 1.5 1.5z"/></svg>