<?xml version="1.0" encoding="UTF-8"?><!DOCTYPE svg PUBLIC "-//W3C//DTD SVG 1.1//EN" "http://www.w3.org/Graphics/SVG/1.1/DTD/svg11.dtd"><svg xmlns="http://www.w3.org/2000/svg" xmlns:xlink="http://www.w3.org/1999/xlink" version="1.1" id="mdi-expand-all" width="24" height="24" viewBox="0 0 24 24"><path d="M18,8H8V18H6V8A2,2 0 0,1 8,6H18V8M14,2H4A2,2 0 0,0 2,4V14H4V4H14V2M22,12V20A2,2 0 0,1 20,22H12A2,2 0 0,1 10,20V12A2,2 0 0,1 12,10H20A2,2 0 0,1 22,12M20,15H17V12H15V15H12V17H15V20H17V17H20V15Z" /></svg>