<svg xmlns="http://www.w3.org/2000/svg" viewBox="0 0 24 24"><path d="M23.5,17L18.5,22L15,18.5L16.5,17L18.5,19L22,15.5L23.5,17M12,9A3,3 0 0,1 15,12A3,3 0 0,1 12,15A3,3 0 0,1 9,12A3,3 0 0,1 12,9M12,17C12.5,17 12.97,16.93 13.42,16.79C13.15,17.5 13,18.22 13,19V19.45L12,19.5C7,19.5 2.73,16.39 1,12C2.73,7.61 7,4.5 12,4.5C17,4.5 21.27,7.61 23,12C22.75,12.64 22.44,13.26 22.08,13.85C21.18,13.31 20.12,13 19,13C18.22,13 17.5,13.15 16.79,13.42C16.93,12.97 17,12.5 17,12A5,5 0 0,0 12,7A5,5 0 0,0 7,12A5,5 0 0,0 12,17Z" /></svg>