<?xml version="1.0" encoding="UTF-8"?><!DOCTYPE svg PUBLIC "-//W3C//DTD SVG 1.1//EN" "http://www.w3.org/Graphics/SVG/1.1/DTD/svg11.dtd"><svg xmlns="http://www.w3.org/2000/svg" xmlns:xlink="http://www.w3.org/1999/xlink" version="1.1" id="mdi-eye-circle-outline" width="24" height="24" viewBox="0 0 24 24"><path d="M12,22A10,10 0 0,1 2,12A10,10 0 0,1 12,2A10,10 0 0,1 22,12A10,10 0 0,1 12,22M12,20A8,8 0 0,0 20,12A8,8 0 0,0 12,4A8,8 0 0,0 4,12A8,8 0 0,0 12,20M12,11A1,1 0 0,1 13,12A1,1 0 0,1 12,13A1,1 0 0,1 11,12A1,1 0 0,1 12,11M12,8C14.63,8 17,9.57 18,12C16.62,15.31 12.81,16.88 9.5,15.5C7.92,14.84 6.66,13.58 6,12C7,9.57 9.37,8 12,8M12,9.5A2.5,2.5 0 0,0 9.5,12A2.5,2.5 0 0,0 12,14.5A2.5,2.5 0 0,0 14.5,12A2.5,2.5 0 0,0 12,9.5" /></svg>