<svg xmlns="http://www.w3.org/2000/svg" viewBox="0 0 24 24"><path d="M19.5 1l-1.09 2.41L16 4.5l2.41 1.09L19.5 8l1.1-2.41L23 4.5l-2.4-1.09L19.5 1M12 2C6.5 2 2 6.5 2 12s4.5 10 10 10 10-4.5 10-10c0-1.47-.33-2.87-.9-4.13l-1.24 2.7c.09.47.14.93.14 1.43 0 4.43-3.57 8-8 8s-8-3.57-8-8v-.14a10 10 0 005.74-5.55 9.994 9.994 0 009.09 3.6L17.96 8h-.46c-2.82 0-5.4-1.5-6.84-3.88.44-.07.88-.12 1.34-.12.5 0 .96.05 1.42.13l2.71-1.22A9.86 9.86 0 0012 2M8.09 5a8 8 0 01-3.68 4.5C5.04 7.57 6.37 6 8.09 5M9 11.75A1.25 1.25 0 007.75 13 1.25 1.25 0 009 14.25 1.25 1.25 0 0010.25 13 1.25 1.25 0 009 11.75m6 0A1.25 1.25 0 0013.75 13 1.25 1.25 0 0015 14.25 1.25 1.25 0 0016.25 13 1.25 1.25 0 0015 11.75z"/></svg>