<svg xmlns="http://www.w3.org/2000/svg" viewBox="0 0 24 24"><path d="M18.41 3.41L16 4.5l2.41 1.09L19.5 8l1.1-2.41L23 4.5l-2.4-1.09L19.5 1M12 2C6.5 2 2 6.5 2 12s4.5 10 10 10 10-4.5 10-10c0-1.47-.33-2.87-.9-4.13l-1.24 2.72c.08.46.14.91.14 1.41 0 4.43-3.57 8-8 8s-8-3.57-8-8v-.13a10 10 0 005.74-5.56A10 10 0 0017.5 10a10 10 0 001.33-.09l-1.48-3.26L12.6 4.5l3.53-1.6C14.87 2.33 13.47 2 12 2m-3 9.75A1.25 1.25 0 007.75 13 1.25 1.25 0 009 14.25 1.25 1.25 0 0010.25 13 1.25 1.25 0 009 11.75m6 0A1.25 1.25 0 0013.75 13 1.25 1.25 0 0015 14.25 1.25 1.25 0 0016.25 13 1.25 1.25 0 0015 11.75z"/></svg>