<svg xmlns="http://www.w3.org/2000/svg" viewBox="0 0 24 24"><path d="M12 1a2.5 2.5 0 00-2.5 2.5A2.5 2.5 0 0011 5.79V7H7a2 2 0 00-2 2v.71A2.5 2.5 0 003.5 12 2.5 2.5 0 005 14.29V15H4a2 2 0 00-2 2v1.21A2.5 2.5 0 00.5 20.5 2.5 2.5 0 003 23a2.5 2.5 0 002.5-2.5A2.5 2.5 0 004 18.21V17h4v1.21a2.5 2.5 0 00-1.5 2.29A2.5 2.5 0 009 23a2.5 2.5 0 002.5-2.5 2.5 2.5 0 00-1.5-2.29V17a2 2 0 00-2-2H7v-.71A2.5 2.5 0 008.5 12 2.5 2.5 0 007 9.71V9h10v.71A2.5 2.5 0 0015.5 12a2.5 2.5 0 001.5 2.29V15h-1a2 2 0 00-2 2v1.21a2.5 2.5 0 00-1.5 2.29A2.5 2.5 0 0015 23a2.5 2.5 0 002.5-2.5 2.5 2.5 0 00-1.5-2.29V17h4v1.21a2.5 2.5 0 00-1.5 2.29A2.5 2.5 0 0021 23a2.5 2.5 0 002.5-2.5 2.5 2.5 0 00-1.5-2.29V17a2 2 0 00-2-2h-1v-.71A2.5 2.5 0 0020.5 12 2.5 2.5 0 0019 9.71V9a2 2 0 00-2-2h-4V5.79a2.5 2.5 0 001.5-2.29A2.5 2.5 0 0012 1m0 1.5a1 1 0 011 1 1 1 0 01-1 1 1 1 0 01-1-1 1 1 0 011-1M6 11a1 1 0 011 1 1 1 0 01-1 1 1 1 0 01-1-1 1 1 0 011-1m12 0a1 1 0 011 1 1 1 0 01-1 1 1 1 0 01-1-1 1 1 0 011-1M3 19.5a1 1 0 011 1 1 1 0 01-1 1 1 1 0 01-1-1 1 1 0 011-1m6 0a1 1 0 011 1 1 1 0 01-1 1 1 1 0 01-1-1 1 1 0 011-1m6 0a1 1 0 011 1 1 1 0 01-1 1 1 1 0 01-1-1 1 1 0 011-1m6 0a1 1 0 011 1 1 1 0 01-1 1 1 1 0 01-1-1 1 1 0 011-1z"/></svg>