<?xml version="1.0" encoding="UTF-8"?><!DOCTYPE svg PUBLIC "-//W3C//DTD SVG 1.1//EN" "http://www.w3.org/Graphics/SVG/1.1/DTD/svg11.dtd"><svg xmlns="http://www.w3.org/2000/svg" xmlns:xlink="http://www.w3.org/1999/xlink" version="1.1" id="mdi-fast-forward-10" width="24" height="24" viewBox="0 0 24 24"><path d="M10,12V22H8V14H6V12H10M18,14V20C18,21.11 17.11,22 16,22H14A2,2 0 0,1 12,20V14A2,2 0 0,1 14,12H16C17.11,12 18,12.9 18,14M14,14V20H16V14H14M11.5,3C14.15,3 16.55,4 18.4,5.6L21,3V10H14L16.62,7.38C15.23,6.22 13.46,5.5 11.5,5.5C7.96,5.5 4.95,7.81 3.9,11L1.53,10.22C2.92,6.03 6.85,3 11.5,3Z" /></svg>