<?xml version="1.0" encoding="UTF-8"?><!DOCTYPE svg PUBLIC "-//W3C//DTD SVG 1.1//EN" "http://www.w3.org/Graphics/SVG/1.1/DTD/svg11.dtd"><svg xmlns="http://www.w3.org/2000/svg" xmlns:xlink="http://www.w3.org/1999/xlink" version="1.1" id="mdi-fast-forward-30" width="24" height="24" viewBox="0 0 24 24"><path d="M11.5,3C6.85,3 2.92,6.03 1.53,10.22L3.9,11C4.95,7.81 7.96,5.5 11.5,5.5C13.46,5.5 15.23,6.22 16.62,7.38L14,10H21V3L18.4,5.6C16.55,4 14.15,3 11.5,3M19,14V20C19,21.11 18.11,22 17,22H15A2,2 0 0,1 13,20V14A2,2 0 0,1 15,12H17C18.11,12 19,12.9 19,14M15,14V20H17V14H15M11,20C11,21.11 10.1,22 9,22H5V20H9V18H7V16H9V14H5V12H9A2,2 0 0,1 11,14V15.5A1.5,1.5 0 0,1 9.5,17A1.5,1.5 0 0,1 11,18.5V20Z" /></svg>