<?xml version="1.0" encoding="UTF-8"?><!DOCTYPE svg PUBLIC "-//W3C//DTD SVG 1.1//EN" "http://www.w3.org/Graphics/SVG/1.1/DTD/svg11.dtd"><svg xmlns="http://www.w3.org/2000/svg" xmlns:xlink="http://www.w3.org/1999/xlink" version="1.1" id="mdi-fax" width="24" height="24" viewBox="0 0 24 24"><path d="M11,6H16V8H11V6M8,9V3H19V9A3,3 0 0,1 22,12V18H19V21H8V18H7V9H8M10,5V9H17V5H10M10,15V19H17V15H10M19,11A1,1 0 0,0 18,12A1,1 0 0,0 19,13A1,1 0 0,0 20,12A1,1 0 0,0 19,11M4,9H5A1,1 0 0,1 6,10V17A1,1 0 0,1 5,18H4A2,2 0 0,1 2,16V11A2,2 0 0,1 4,9Z" /></svg>