<?xml version="1.0" encoding="UTF-8"?><!DOCTYPE svg PUBLIC "-//W3C//DTD SVG 1.1//EN" "http://www.w3.org/Graphics/SVG/1.1/DTD/svg11.dtd"><svg xmlns="http://www.w3.org/2000/svg" xmlns:xlink="http://www.w3.org/1999/xlink" version="1.1" id="mdi-feature-search-outline" width="24" height="24" viewBox="0 0 24 24"><path d="M15.5,2C13,2 11,4 11,6.5C11,9 13,11 15.5,11C16.4,11 17.2,10.7 17.9,10.3L21,13.4L22.4,12L19.3,8.9C19.7,8.2 20,7.4 20,6.5C20,4 18,2 15.5,2M4,4A2,2 0 0,0 2,6V20A2,2 0 0,0 4,22H18A2,2 0 0,0 20,20V15L18,13V20H4V6H9.03C9.09,5.3 9.26,4.65 9.5,4H4M15.5,4C16.9,4 18,5.1 18,6.5C18,7.9 16.9,9 15.5,9C14.1,9 13,7.9 13,6.5C13,5.1 14.1,4 15.5,4Z" /></svg>