<?xml version="1.0" encoding="UTF-8"?><!DOCTYPE svg PUBLIC "-//W3C//DTD SVG 1.1//EN" "http://www.w3.org/Graphics/SVG/1.1/DTD/svg11.dtd"><svg xmlns="http://www.w3.org/2000/svg" xmlns:xlink="http://www.w3.org/1999/xlink" version="1.1" id="mdi-file-clock" width="24" height="24" viewBox="0 0 24 24"><path d="M4 2C2.89 2 2 2.89 2 4V20A2 2 0 0 0 4 22H12.41A7 7 0 0 0 16 23A7 7 0 0 0 23 16A7 7 0 0 0 18 9.3V8L12 2H4M11 3.5L16.5 9H11V3.5M16 11A5 5 0 0 1 21 16A5 5 0 0 1 16 21A5 5 0 0 1 11 16A5 5 0 0 1 16 11M15 12V17L18.61 19.16L19.36 17.94L16.5 16.25V12H15Z" /></svg>