<?xml version="1.0" encoding="UTF-8"?><!DOCTYPE svg PUBLIC "-//W3C//DTD SVG 1.1//EN" "http://www.w3.org/Graphics/SVG/1.1/DTD/svg11.dtd"><svg xmlns="http://www.w3.org/2000/svg" xmlns:xlink="http://www.w3.org/1999/xlink" version="1.1" id="mdi-file-search-outline" width="24" height="24" viewBox="0 0 24 24"><path d="M14,2H6A2,2 0 0,0 4,4V20A2,2 0 0,0 6,22H13C12.59,21.75 12.2,21.44 11.86,21.1C11.53,20.77 11.25,20.4 11,20H6V4H13V9H18V10.18C18.71,10.34 19.39,10.61 20,11V8L14,2M20.31,18.9C21.64,16.79 21,14 18.91,12.68C16.8,11.35 14,12 12.69,14.08C11.35,16.19 12,18.97 14.09,20.3C15.55,21.23 17.41,21.23 18.88,20.32L22,23.39L23.39,22L20.31,18.9M16.5,19A2.5,2.5 0 0,1 14,16.5A2.5,2.5 0 0,1 16.5,14A2.5,2.5 0 0,1 19,16.5A2.5,2.5 0 0,1 16.5,19Z" /></svg>