<?xml version="1.0" encoding="UTF-8"?><!DOCTYPE svg PUBLIC "-//W3C//DTD SVG 1.1//EN" "http://www.w3.org/Graphics/SVG/1.1/DTD/svg11.dtd"><svg xmlns="http://www.w3.org/2000/svg" xmlns:xlink="http://www.w3.org/1999/xlink" version="1.1" id="mdi-file-document-edit" width="24" height="24" viewBox="0 0 24 24"><path d="M6,2C4.89,2 4,2.89 4,4V20A2,2 0 0,0 6,22H10V20.09L12.09,18H6V16H14.09L16.09,14H6V12H18.09L20,10.09V8L14,2H6M13,3.5L18.5,9H13V3.5M20.15,13C20,13 19.86,13.05 19.75,13.16L18.73,14.18L20.82,16.26L21.84,15.25C22.05,15.03 22.05,14.67 21.84,14.46L20.54,13.16C20.43,13.05 20.29,13 20.15,13M18.14,14.77L12,20.92V23H14.08L20.23,16.85L18.14,14.77Z" /></svg>