<?xml version="1.0" encoding="UTF-8"?><!DOCTYPE svg PUBLIC "-//W3C//DTD SVG 1.1//EN" "http://www.w3.org/Graphics/SVG/1.1/DTD/svg11.dtd"><svg xmlns="http://www.w3.org/2000/svg" xmlns:xlink="http://www.w3.org/1999/xlink" version="1.1" id="mdi-file-link" width="24" height="24" viewBox="0 0 24 24"><path d="M14 2H6C4.89 2 4 2.89 4 4V20C4 21.11 4.89 22 6 22H18C19.11 22 20 21.11 20 20V8L14 2M11 20H10C8.39 20 6 18.94 6 16C6 13.07 8.39 12 10 12H11V14H10C9.54 14 8 14.17 8 16C8 17.9 9.67 18 10 18H11V20M15 15V17H9V15H15M14 20H13V18H14C14.46 18 16 17.83 16 16C16 14.1 14.33 14 14 14H13V12H14C15.61 12 18 13.07 18 16C18 18.94 15.61 20 14 20M13 9V3.5L18.5 9H13Z" /></svg>