<svg xmlns="http://www.w3.org/2000/svg" viewBox="0 0 24 24"><path d="M19 3a2 2 0 012 2v14a2 2 0 01-2 2H5a2 2 0 01-2-2V5c0-1.11.89-2 2-2h14m-8.41 7.08c-.02.05-.29 1.76-2.09 4.69 0 0-3.5 1.81-2.67 3.17.67 1.06 2.32-.04 3.73-2.67 0 0 1.82-.64 4.23-.82 0 0 3.86 1.74 4.38-.11.52-1.84-3.05-1.44-3.67-1.25 0 0-2.04-1.34-2.5-3.2 0 0 1.13-3.94-.62-3.89-1.75.05-1.09 3.12-.79 4.08m.81 1.05c.03 0 .47 1.2 1.89 2.45 0 0-2.33.46-3.39.92 0 0 1-1.75 1.5-3.37m3.92 2.71c.58-.15 2.32.16 2.26.48-.08.33-2.26-.48-2.26-.48M8.26 15.7c-.53 1.21-1.43 1.98-1.66 1.97-.23-.01.7-1.6 1.66-1.97m3.14-6.94c-.01-.05-.37-2.19 0-2.15.54.06 0 2.1 0 2.15z"/></svg>