<?xml version="1.0" encoding="UTF-8"?><!DOCTYPE svg PUBLIC "-//W3C//DTD SVG 1.1//EN" "http://www.w3.org/Graphics/SVG/1.1/DTD/svg11.dtd"><svg xmlns="http://www.w3.org/2000/svg" xmlns:xlink="http://www.w3.org/1999/xlink" version="1.1" id="mdi-file-certificate-outline" width="24" height="24" viewBox="0 0 24 24"><path d="M14 13V11L12 12L10 11V13L8 14L10 15V17L12 16L14 17V15L16 14M14 2H7A2 2 0 0 0 5 4V18A2 2 0 0 0 7 20H8V18H7V4H13V8H17V18H16V20H17A2 2 0 0 0 19 18V7M14 13V11L12 12L10 11V13L8 14L10 15V17L12 16L14 17V15L16 14M10 23L12 22L14 23V18H10M14 13V11L12 12L10 11V13L8 14L10 15V17L12 16L14 17V15L16 14Z" /></svg>