<?xml version="1.0" encoding="UTF-8"?><!DOCTYPE svg PUBLIC "-//W3C//DTD SVG 1.1//EN" "http://www.w3.org/Graphics/SVG/1.1/DTD/svg11.dtd"><svg xmlns="http://www.w3.org/2000/svg" xmlns:xlink="http://www.w3.org/1999/xlink" version="1.1" id="mdi-filter-menu" width="24" height="24" viewBox="0 0 24 24"><path d="M11 11L16.76 3.62A1 1 0 0 0 16.59 2.22A1 1 0 0 0 16 2H2A1 1 0 0 0 1.38 2.22A1 1 0 0 0 1.21 3.62L7 11V16.87A1 1 0 0 0 7.29 17.7L9.29 19.7A1 1 0 0 0 10.7 19.7A1 1 0 0 0 11 18.87V11M13 16L18 21L23 16Z" /></svg>