<?xml version="1.0" encoding="UTF-8"?><!DOCTYPE svg PUBLIC "-//W3C//DTD SVG 1.1//EN" "http://www.w3.org/Graphics/SVG/1.1/DTD/svg11.dtd"><svg xmlns="http://www.w3.org/2000/svg" xmlns:xlink="http://www.w3.org/1999/xlink" version="1.1" id="mdi-firefox" width="24" height="24" viewBox="0 0 24 24"><path d="M9.27 7.94C9.27 7.94 9.27 7.94 9.27 7.94M6.85 6.74C6.86 6.74 6.86 6.74 6.85 6.74M21.28 8.6C20.85 7.55 19.96 6.42 19.27 6.06C19.83 7.17 20.16 8.28 20.29 9.1L20.29 9.12C19.16 6.3 17.24 5.16 15.67 2.68C15.59 2.56 15.5 2.43 15.43 2.3C15.39 2.23 15.36 2.16 15.32 2.09C15.26 1.96 15.2 1.83 15.17 1.69C15.17 1.68 15.16 1.67 15.15 1.67H15.13L15.12 1.67L15.12 1.67L15.12 1.67C12.9 2.97 11.97 5.26 11.74 6.71C11.05 6.75 10.37 6.92 9.75 7.22C9.63 7.27 9.58 7.41 9.62 7.53C9.67 7.67 9.83 7.74 9.96 7.68C10.5 7.42 11.1 7.27 11.7 7.23L11.75 7.23C11.83 7.22 11.92 7.22 12 7.22C12.5 7.21 12.97 7.28 13.44 7.42L13.5 7.44C13.6 7.46 13.67 7.5 13.75 7.5C13.8 7.54 13.86 7.56 13.91 7.58L14.05 7.64C14.12 7.67 14.19 7.7 14.25 7.73C14.28 7.75 14.31 7.76 14.34 7.78C14.41 7.82 14.5 7.85 14.54 7.89C14.58 7.91 14.62 7.94 14.66 7.96C15.39 8.41 16 9.03 16.41 9.77C15.88 9.4 14.92 9.03 14 9.19C17.6 11 16.63 17.19 11.64 16.95C11.2 16.94 10.76 16.85 10.34 16.7C10.24 16.67 10.14 16.63 10.05 16.58C10 16.56 9.93 16.53 9.88 16.5C8.65 15.87 7.64 14.68 7.5 13.23C7.5 13.23 8 11.5 10.83 11.5C11.14 11.5 12 10.64 12.03 10.4C12.03 10.31 10.29 9.62 9.61 8.95C9.24 8.59 9.07 8.42 8.92 8.29C8.84 8.22 8.75 8.16 8.66 8.1C8.43 7.3 8.42 6.45 8.63 5.65C7.6 6.12 6.8 6.86 6.22 7.5H6.22C5.82 7 5.85 5.35 5.87 5C5.86 5 5.57 5.16 5.54 5.18C5.19 5.43 4.86 5.71 4.56 6C4.21 6.37 3.9 6.74 3.62 7.14C3 8.05 2.5 9.09 2.28 10.18C2.28 10.19 2.18 10.59 2.11 11.1L2.08 11.33C2.06 11.5 2.04 11.65 2 11.91L2 11.94L2 12.27L2 12.32C2 17.85 6.5 22.33 12 22.33C16.97 22.33 21.08 18.74 21.88 14C21.9 13.89 21.91 13.76 21.93 13.63C22.13 11.91 21.91 10.11 21.28 8.6Z" /></svg>