<?xml version="1.0" encoding="UTF-8"?><!DOCTYPE svg PUBLIC "-//W3C//DTD SVG 1.1//EN" "http://www.w3.org/Graphics/SVG/1.1/DTD/svg11.dtd"><svg xmlns="http://www.w3.org/2000/svg" xmlns:xlink="http://www.w3.org/1999/xlink" version="1.1" id="mdi-fire-truck" width="24" height="24" viewBox="0 0 24 24"><path d="M17.04,2C16.85,2 16.66,2.04 16.5,2.14L5.59,8.5H9.55L17.5,3.86C18,3.58 18.13,2.97 17.85,2.5C17.68,2.2 17.38,2 17.04,2M16,8V10H3A2,2 0 0,0 1,12H2V15H1V19H3A3,3 0 0,0 6,22A3,3 0 0,0 9,19H15A3,3 0 0,0 18,22A3,3 0 0,0 21,19H23V12.5L19.5,8H16M18,9.5H19L21.5,12.5V13.5H18V9.5M4,12H7V15H4V12M9,12H12V15H9V12M14,12H16V15H14V12M6,17.5A1.5,1.5 0 0,1 7.5,19A1.5,1.5 0 0,1 6,20.5A1.5,1.5 0 0,1 4.5,19A1.5,1.5 0 0,1 6,17.5M18,17.5A1.5,1.5 0 0,1 19.5,19A1.5,1.5 0 0,1 18,20.5A1.5,1.5 0 0,1 16.5,19A1.5,1.5 0 0,1 18,17.5Z" /></svg>