<?xml version="1.0" encoding="UTF-8"?><!DOCTYPE svg PUBLIC "-//W3C//DTD SVG 1.1//EN" "http://www.w3.org/Graphics/SVG/1.1/DTD/svg11.dtd"><svg xmlns="http://www.w3.org/2000/svg" xmlns:xlink="http://www.w3.org/1999/xlink" version="1.1" id="mdi-fit-to-page-outline" width="24" height="24" viewBox="0 0 24 24"><path d="M20,2H4C2.89,2 2,2.89 2,4V20C2,21.11 2.89,22 4,22H20C21.11,22 22,21.11 22,20V4C22,2.89 21.11,2 20,2M20,20H4V4H20M13,8V10H11V8H9L12,5L15,8M16,15V13H14V11H16V9L19,12M10,13H8V15L5,12L8,9V11H10M15,16L12,19L9,16H11V14H13V16" /></svg>