<?xml version="1.0" encoding="UTF-8"?><!DOCTYPE svg PUBLIC "-//W3C//DTD SVG 1.1//EN" "http://www.w3.org/Graphics/SVG/1.1/DTD/svg11.dtd"><svg xmlns="http://www.w3.org/2000/svg" xmlns:xlink="http://www.w3.org/1999/xlink" version="1.1" id="mdi-flag-variant-outline" width="24" height="24" viewBox="0 0 24 24"><path d="M6,3A1,1 0 0,1 7,4V4.88C8.06,4.44 9.5,4 11,4C14,4 14,6 16,6C19,6 20,4 20,4V12C20,12 19,14 16,14C13,14 13,12 11,12C8,12 7,14 7,14V21H5V4A1,1 0 0,1 6,3M7,7.25V11.5C7,11.5 9,10 11,10C13,10 14,12 16,12C18,12 18,11 18,11V7.5C18,7.5 17,8 16,8C14,8 13,6 11,6C9,6 7,7.25 7,7.25Z" /></svg>