<?xml version="1.0" encoding="UTF-8"?><!DOCTYPE svg PUBLIC "-//W3C//DTD SVG 1.1//EN" "http://www.w3.org/Graphics/SVG/1.1/DTD/svg11.dtd"><svg xmlns="http://www.w3.org/2000/svg" xmlns:xlink="http://www.w3.org/1999/xlink" version="1.1" id="mdi-flask-empty-off" width="24" height="24" viewBox="0 0 24 24"><path d="M20.8 22.7L19.6 21.5C19.1 21.8 18.6 22 18 22H6C4.3 22 3 20.7 3 19C3 18.4 3.2 17.8 3.5 17.4L7.9 9.8L1.1 3L2.4 1.7L22.1 21.4L20.8 22.7M15 7.8V6C15.6 6 16 5.6 16 5V4C16 2.9 15.1 2 14 2H10C8.9 2 8 2.9 8 4V4.8L20.4 17.2L15 7.8Z" /></svg>