<?xml version="1.0" encoding="UTF-8"?><!DOCTYPE svg PUBLIC "-//W3C//DTD SVG 1.1//EN" "http://www.w3.org/Graphics/SVG/1.1/DTD/svg11.dtd"><svg xmlns="http://www.w3.org/2000/svg" xmlns:xlink="http://www.w3.org/1999/xlink" version="1.1" id="mdi-flower" width="24" height="24" viewBox="0 0 24 24"><path d="M3,13A9,9 0 0,0 12,22C12,17 7.97,13 3,13M12,5.5A2.5,2.5 0 0,1 14.5,8A2.5,2.5 0 0,1 12,10.5A2.5,2.5 0 0,1 9.5,8A2.5,2.5 0 0,1 12,5.5M5.6,10.25A2.5,2.5 0 0,0 8.1,12.75C8.63,12.75 9.12,12.58 9.5,12.31C9.5,12.37 9.5,12.43 9.5,12.5A2.5,2.5 0 0,0 12,15A2.5,2.5 0 0,0 14.5,12.5C14.5,12.43 14.5,12.37 14.5,12.31C14.88,12.58 15.37,12.75 15.9,12.75C17.28,12.75 18.4,11.63 18.4,10.25C18.4,9.25 17.81,8.4 16.97,8C17.81,7.6 18.4,6.74 18.4,5.75C18.4,4.37 17.28,3.25 15.9,3.25C15.37,3.25 14.88,3.41 14.5,3.69C14.5,3.63 14.5,3.56 14.5,3.5A2.5,2.5 0 0,0 12,1A2.5,2.5 0 0,0 9.5,3.5C9.5,3.56 9.5,3.63 9.5,3.69C9.12,3.41 8.63,3.25 8.1,3.25A2.5,2.5 0 0,0 5.6,5.75C5.6,6.74 6.19,7.6 7.03,8C6.19,8.4 5.6,9.25 5.6,10.25M12,22A9,9 0 0,0 21,13C16,13 12,17 12,22Z" /></svg>