<?xml version="1.0" encoding="UTF-8"?><!DOCTYPE svg PUBLIC "-//W3C//DTD SVG 1.1//EN" "http://www.w3.org/Graphics/SVG/1.1/DTD/svg11.dtd"><svg xmlns="http://www.w3.org/2000/svg" xmlns:xlink="http://www.w3.org/1999/xlink" version="1.1" id="mdi-flower-outline" width="24" height="24" viewBox="0 0 24 24"><path d="M8.66,13.07C6.92,13.07 5.5,11.66 5.5,9.93C5.5,9.22 5.76,8.54 6.19,8C5.77,7.46 5.5,6.78 5.5,6.07C5.5,4.34 6.93,2.93 8.66,2.93L9.09,2.96C9.56,1.81 10.69,1 12,1C13.31,1 14.44,1.81 14.91,2.96L15.34,2.93C17.07,2.93 18.5,4.34 18.5,6.07C18.5,6.78 18.24,7.46 17.81,8C18.23,8.54 18.5,9.22 18.5,9.93C18.5,11.66 17.07,13.07 15.34,13.07L14.91,13.04C14.44,14.19 13.31,15 12,15C10.69,15 9.56,14.19 9.09,13.04L8.66,13.07M12,13C12.62,13 13.12,12.5 13.14,11.9L13.03,10.81C12.71,10.93 12.36,11 12,11C11.64,11 11.3,10.93 11,10.81L10.86,11.9C10.88,12.5 11.38,13 12,13M15.34,11.07C15.97,11.07 16.5,10.56 16.5,9.92C16.5,9.5 16.23,9.08 15.83,8.89L14.95,8.47C14.83,9.21 14.44,9.85 13.89,10.3L14.7,10.87C14.88,11 15.1,11.07 15.34,11.07M14.69,5.13L13.87,5.69C14.43,6.14 14.82,6.78 14.94,7.5L15.82,7.1C16.23,6.9 16.5,6.5 16.5,6.07C16.5,5.44 15.97,4.93 15.34,4.93C15.11,4.93 14.89,5 14.69,5.13M12,3C11.38,3 10.88,3.5 10.86,4.1L11,5.19C11.3,5.07 11.64,5 12,5C12.36,5 12.71,5.07 13.03,5.19L13.14,4.1C13.12,3.5 12.62,3 12,3M8.66,4.93C8.03,4.93 7.5,5.44 7.5,6.07C7.5,6.5 7.77,6.9 8.17,7.1L9.05,7.5C9.17,6.78 9.56,6.14 10.11,5.69L9.3,5.13C9.12,5 8.9,4.93 8.66,4.93M8.17,8.9C7.77,9.1 7.5,9.5 7.5,9.92C7.5,10.55 8.03,11.06 8.66,11.06C8.89,11.06 9.11,11 9.31,10.86L10.12,10.31C9.56,9.86 9.17,9.22 9.05,8.5L8.17,8.9M12,22A9,9 0 0,1 3,13A9,9 0 0,1 12,22A9,9 0 0,1 21,13A9,9 0 0,1 12,22M14.44,19.56C16.34,18.85 17.85,17.34 18.56,15.44C16.66,16.14 15.15,17.66 14.44,19.56M5.44,15.44C6.15,17.34 7.66,18.85 9.56,19.56C8.86,17.66 7.34,16.15 5.44,15.44Z" /></svg>