<?xml version="1.0" encoding="UTF-8"?><!DOCTYPE svg PUBLIC "-//W3C//DTD SVG 1.1//EN" "http://www.w3.org/Graphics/SVG/1.1/DTD/svg11.dtd"><svg xmlns="http://www.w3.org/2000/svg" xmlns:xlink="http://www.w3.org/1999/xlink" version="1.1" id="mdi-focus-field" width="24" height="24" viewBox="0 0 24 24"><path d="M19 19H15V21H19C20.1 21 21 20.1 21 19V15H19M19 3H15V5H19V9H21V5C21 3.9 20.1 3 19 3M5 5H9V3H5C3.9 3 3 3.9 3 5V9H5M5 15H3V19C3 20.1 3.9 21 5 21H9V19H5V15M7 11H9V13H7V11M11 11H13V13H11V11M15 11H17V13H15V11M7 7H9V9H7V7M11 7H13V9H11V7M15 7H17V9H15V7M7 15H9V17H7V15M11 15H13V17H11V15M15 15H17V17H15V15Z" /></svg>