<?xml version="1.0" encoding="UTF-8"?><!DOCTYPE svg PUBLIC "-//W3C//DTD SVG 1.1//EN" "http://www.w3.org/Graphics/SVG/1.1/DTD/svg11.dtd"><svg xmlns="http://www.w3.org/2000/svg" xmlns:xlink="http://www.w3.org/1999/xlink" version="1.1" id="mdi-folder-star" width="24" height="24" viewBox="0 0 24 24"><path d="M20,6H12L10,4H4A2,2 0 0,0 2,6V18A2,2 0 0,0 4,20H20A2,2 0 0,0 22,18V8A2,2 0 0,0 20,6M17.94,17L15,15.28L12.06,17L12.84,13.67L10.25,11.43L13.66,11.14L15,8L16.34,11.14L19.75,11.43L17.16,13.67L17.94,17Z" /></svg>