<?xml version="1.0" encoding="UTF-8"?><!DOCTYPE svg PUBLIC "-//W3C//DTD SVG 1.1//EN" "http://www.w3.org/Graphics/SVG/1.1/DTD/svg11.dtd"><svg xmlns="http://www.w3.org/2000/svg" xmlns:xlink="http://www.w3.org/1999/xlink" version="1.1" id="mdi-folder-remove" width="24" height="24" viewBox="0 0 24 24"><path d="M10,4L12,6H20A2,2 0 0,1 22,8V18A2,2 0 0,1 20,20H4C2.89,20 2,19.1 2,18V6C2,4.89 2.89,4 4,4H10M12.46,10.88L14.59,13L12.46,15.12L13.88,16.54L16,14.41L18.12,16.54L19.54,15.12L17.41,13L19.54,10.88L18.12,9.46L16,11.59L13.88,9.46L12.46,10.88Z" /></svg>