<?xml version="1.0" encoding="UTF-8"?><!DOCTYPE svg PUBLIC "-//W3C//DTD SVG 1.1//EN" "http://www.w3.org/Graphics/SVG/1.1/DTD/svg11.dtd"><svg xmlns="http://www.w3.org/2000/svg" xmlns:xlink="http://www.w3.org/1999/xlink" version="1.1" id="mdi-folder-account-outline" width="24" height="24" viewBox="0 0 24 24"><path d="M15 14C16.33 14 19 14.67 19 16V17H11V16C11 14.67 13.67 14 15 14M15 13C16.11 13 17 12.11 17 11S16.11 9 15 9C13.9 9 13 9.89 13 11C13 12.11 13.9 13 15 13M22 8V18C22 19.11 21.11 20 20 20H4C2.9 20 2 19.11 2 18V6C2 4.89 2.9 4 4 4H10L12 6H20C21.11 6 22 6.9 22 8M20 8H4V18H20V8Z" /></svg>