<?xml version="1.0" encoding="UTF-8"?><!DOCTYPE svg PUBLIC "-//W3C//DTD SVG 1.1//EN" "http://www.w3.org/Graphics/SVG/1.1/DTD/svg11.dtd"><svg xmlns="http://www.w3.org/2000/svg" xmlns:xlink="http://www.w3.org/1999/xlink" version="1.1" id="mdi-folder-search" width="24" height="24" viewBox="0 0 24 24"><path d="M16.5,12C19,12 21,14 21,16.5C21,17.38 20.75,18.21 20.31,18.9L23.39,22L22,23.39L18.88,20.32C18.19,20.75 17.37,21 16.5,21C14,21 12,19 12,16.5C12,14 14,12 16.5,12M16.5,14A2.5,2.5 0 0,0 14,16.5A2.5,2.5 0 0,0 16.5,19A2.5,2.5 0 0,0 19,16.5A2.5,2.5 0 0,0 16.5,14M9,4L11,6H19A2,2 0 0,1 21,8V11.81C19.83,10.69 18.25,10 16.5,10A6.5,6.5 0 0,0 10,16.5C10,17.79 10.37,19 11,20H3C1.89,20 1,19.1 1,18V6C1,4.89 1.89,4 3,4H9Z" /></svg>