<?xml version="1.0" encoding="UTF-8"?><!DOCTYPE svg PUBLIC "-//W3C//DTD SVG 1.1//EN" "http://www.w3.org/Graphics/SVG/1.1/DTD/svg11.dtd"><svg xmlns="http://www.w3.org/2000/svg" xmlns:xlink="http://www.w3.org/1999/xlink" version="1.1" id="mdi-food-variant-off" width="24" height="24" viewBox="0 0 24 24"><path d="M2.28 3L1 4.27L3.31 6.58C2.91 8.7 2.55 10.8 2.33 12.83C2 16 2 19 2 22H9C9 19 9 16 8.67 12.83C8.63 12.5 8.58 12.15 8.54 11.81L12.73 16H11V18C11 20.21 12.79 22 15 22H18C18.23 22 18.45 22 18.67 21.94L19.73 23L21 21.72M4.82 3L7.53 5.71C7.5 5.47 7.45 5.24 7.4 5H8V3H7M20.55 11.23L17.8 16L21.59 19.76C21.86 19.21 22 18.61 22 18V16H19.87L22.11 12.13Z" /></svg>