<?xml version="1.0" encoding="UTF-8"?><!DOCTYPE svg PUBLIC "-//W3C//DTD SVG 1.1//EN" "http://www.w3.org/Graphics/SVG/1.1/DTD/svg11.dtd"><svg xmlns="http://www.w3.org/2000/svg" xmlns:xlink="http://www.w3.org/1999/xlink" version="1.1" id="mdi-food-fork-drink" width="24" height="24" viewBox="0 0 24 24"><path d="M3,3A1,1 0 0,0 2,4V8L2,9.5C2,11.19 3.03,12.63 4.5,13.22V19.5A1.5,1.5 0 0,0 6,21A1.5,1.5 0 0,0 7.5,19.5V13.22C8.97,12.63 10,11.19 10,9.5V8L10,4A1,1 0 0,0 9,3A1,1 0 0,0 8,4V8A0.5,0.5 0 0,1 7.5,8.5A0.5,0.5 0 0,1 7,8V4A1,1 0 0,0 6,3A1,1 0 0,0 5,4V8A0.5,0.5 0 0,1 4.5,8.5A0.5,0.5 0 0,1 4,8V4A1,1 0 0,0 3,3M19.88,3C19.75,3 19.62,3.09 19.5,3.16L16,5.25V9H12V11H13L14,21H20L21,11H22V9H18V6.34L20.5,4.84C21,4.56 21.13,4 20.84,3.5C20.63,3.14 20.26,2.95 19.88,3Z" /></svg>