<?xml version="1.0" encoding="UTF-8"?><!DOCTYPE svg PUBLIC "-//W3C//DTD SVG 1.1//EN" "http://www.w3.org/Graphics/SVG/1.1/DTD/svg11.dtd"><svg xmlns="http://www.w3.org/2000/svg" xmlns:xlink="http://www.w3.org/1999/xlink" version="1.1" id="mdi-food-off" width="24" height="24" viewBox="0 0 24 24"><path d="M2,5.27L3.28,4L21,21.72L19.73,23L17.73,21H15.5L15.21,18.5L12.97,16.24C12.86,16.68 12.47,17 12,17H3A1,1 0 0,1 2,16A1,1 0 0,1 3,15H8L9.5,16.5L11,15H11.73L10.73,14H2A3,3 0 0,1 5,11H7.73L2,5.27M14,8H16.23L15.1,3.46L16.84,3L18.09,8H22L20.74,18.92L14.54,12.72L14,8M13,18A3,3 0 0,1 10,21H5A3,3 0 0,1 2,18H13Z" /></svg>