<svg xmlns="http://www.w3.org/2000/svg" viewBox="0 0 24 24" id="foursquare"><path d="M17,5L16.57,7.5C16.5,7.73 16.2,8 15.91,8C15.61,8 12,8 12,8C11.53,8 10.95,8.32 10.95,8.79V9.2C10.95,9.67 11.53,10 12,10C12,10 14.95,10 15.28,10C15.61,10 15.93,10.36 15.86,10.71C15.79,11.07 14.94,13.28 14.9,13.5C14.86,13.67 14.64,14 14.25,14C13.92,14 11.37,14 11.37,14C10.85,14 10.69,14.07 10.34,14.5C10,14.94 7.27,18.1 7.27,18.1C7.24,18.13 7,18.04 7,18V5C7,4.7 7.61,4 8,4C8,4 16.17,4 16.5,4C16.82,4 17.08,4.61 17,5M17,14.45C17.11,13.97 18.78,6.72 19.22,4.55M17.58,2C17.58,2 8.38,2 6.91,2C5.43,2 5,3.11 5,3.8C5,4.5 5,20.76 5,20.76C5,21.54 5.42,21.84 5.66,21.93C5.9,22.03 6.55,22.11 6.94,21.66C6.94,21.66 11.65,16.22 11.74,16.13C11.87,16 11.87,16 12,16C12.26,16 14.2,16 15.26,16C16.63,16 16.85,15 17,14.45C17.11,13.97 18.78,6.72 19.22,4.55C19.56,2.89 19.14,2 17.58,2Z" /></svg>