<?xml version="1.0" encoding="UTF-8"?><!DOCTYPE svg PUBLIC "-//W3C//DTD SVG 1.1//EN" "http://www.w3.org/Graphics/SVG/1.1/DTD/svg11.dtd"><svg xmlns="http://www.w3.org/2000/svg" xmlns:xlink="http://www.w3.org/1999/xlink" version="1.1" id="mdi-fuel" width="24" height="24" viewBox="0 0 24 24"><path d="M3,2H6C6.28,2 6.53,2.11 6.71,2.29L8.79,4.38L9.59,3.59C10,3.2 10.5,3 11,3H17C17.5,3 18,3.2 18.41,3.59L19.41,4.59C19.8,5 20,5.5 20,6V19A2,2 0 0,1 18,21H8A2,2 0 0,1 6,19V13L6,12V8C6,7.5 6.2,7 6.59,6.59L7.38,5.79L5.59,4H3V2M11,5V7H17V5H11M11.41,11L9.41,9H8V10.41L10,12.41V15.59L8,17.59V19H9.41L11.41,17H14.59L16.59,19H18V17.59L16,15.59V12.41L18,10.41V9H16.59L14.59,11H11.41M12,13H14V15H12V13Z" /></svg>