<?xml version="1.0" encoding="UTF-8"?><!DOCTYPE svg PUBLIC "-//W3C//DTD SVG 1.1//EN" "http://www.w3.org/Graphics/SVG/1.1/DTD/svg11.dtd"><svg xmlns="http://www.w3.org/2000/svg" xmlns:xlink="http://www.w3.org/1999/xlink" version="1.1" id="mdi-gamepad-square" width="24" height="24" viewBox="0 0 24 24"><path d="M21,6H3A2,2 0 0,0 1,8V16A2,2 0 0,0 3,18H21A2,2 0 0,0 23,16V8A2,2 0 0,0 21,6M11,13H8V16H6V13H3V11H6V8H8V11H11M15.5,15A1.5,1.5 0 0,1 14,13.5A1.5,1.5 0 0,1 15.5,12A1.5,1.5 0 0,1 17,13.5A1.5,1.5 0 0,1 15.5,15M19.5,12A1.5,1.5 0 0,1 18,10.5A1.5,1.5 0 0,1 19.5,9A1.5,1.5 0 0,1 21,10.5A1.5,1.5 0 0,1 19.5,12Z" /></svg>