<?xml version="1.0" encoding="UTF-8"?><!DOCTYPE svg PUBLIC "-//W3C//DTD SVG 1.1//EN" "http://www.w3.org/Graphics/SVG/1.1/DTD/svg11.dtd"><svg xmlns="http://www.w3.org/2000/svg" xmlns:xlink="http://www.w3.org/1999/xlink" version="1.1" id="mdi-gamepad-square-outline" width="24" height="24" viewBox="0 0 24 24"><path d="M21,6H3A2,2 0 0,0 1,8V16A2,2 0 0,0 3,18H21A2,2 0 0,0 23,16V8A2,2 0 0,0 21,6M21,16H3V8H21M6,15H8V13H10V11H8V9H6V11H4V13H6M14.5,12A1.5,1.5 0 0,1 16,13.5A1.5,1.5 0 0,1 14.5,15A1.5,1.5 0 0,1 13,13.5A1.5,1.5 0 0,1 14.5,12M18.5,9A1.5,1.5 0 0,1 20,10.5A1.5,1.5 0 0,1 18.5,12A1.5,1.5 0 0,1 17,10.5A1.5,1.5 0 0,1 18.5,9Z" /></svg>