<svg xmlns="http://www.w3.org/2000/svg" viewBox="0 0 24 24"><path d="M5,8A4,4 0 0,1 9,12A4,4 0 0,1 5,16A4,4 0 0,1 1,12A4,4 0 0,1 5,8M12,1A4,4 0 0,1 16,5A4,4 0 0,1 12,9A4,4 0 0,1 8,5A4,4 0 0,1 12,1M12,15A4,4 0 0,1 16,19A4,4 0 0,1 12,23A4,4 0 0,1 8,19A4,4 0 0,1 12,15M19,8A4,4 0 0,1 23,12A4,4 0 0,1 19,16A4,4 0 0,1 15,12A4,4 0 0,1 19,8M12,3A2,2 0 0,0 10,5A2,2 0 0,0 12,7A2,2 0 0,0 14,5A2,2 0 0,0 12,3M5,10A2,2 0 0,0 3,12A2,2 0 0,0 5,14A2,2 0 0,0 7,12A2,2 0 0,0 5,10M19,10A2,2 0 0,0 17,12A2,2 0 0,0 19,14A2,2 0 0,0 21,12A2,2 0 0,0 19,10Z" /></svg>