<?xml version="1.0" encoding="UTF-8"?><!DOCTYPE svg PUBLIC "-//W3C//DTD SVG 1.1//EN" "http://www.w3.org/Graphics/SVG/1.1/DTD/svg11.dtd"><svg xmlns="http://www.w3.org/2000/svg" xmlns:xlink="http://www.w3.org/1999/xlink" version="1.1" id="mdi-gas-station-outline" width="24" height="24" viewBox="0 0 24 24"><path d="M19.77,7.23L19.78,7.22L16.06,3.5L15,4.56L17.11,6.67C16.17,7.03 15.5,7.93 15.5,9A2.5,2.5 0 0,0 18,11.5C18.36,11.5 18.69,11.42 19,11.29V18.5A1,1 0 0,1 18,19.5A1,1 0 0,1 17,18.5V14A2,2 0 0,0 15,12H14V5A2,2 0 0,0 12,3H6A2,2 0 0,0 4,5V21H14V13.5H15.5V18.5A2.5,2.5 0 0,0 18,21A2.5,2.5 0 0,0 20.5,18.5V9C20.5,8.31 20.22,7.68 19.77,7.23M12,13.5V19H6V12H12V13.5M12,10H6V5H12V10M18,10A1,1 0 0,1 17,9A1,1 0 0,1 18,8A1,1 0 0,1 19,9A1,1 0 0,1 18,10Z" /></svg>