<?xml version="1.0" encoding="UTF-8"?><!DOCTYPE svg PUBLIC "-//W3C//DTD SVG 1.1//EN" "http://www.w3.org/Graphics/SVG/1.1/DTD/svg11.dtd"><svg xmlns="http://www.w3.org/2000/svg" xmlns:xlink="http://www.w3.org/1999/xlink" version="1.1" id="mdi-gate-arrow-right" width="24" height="24" viewBox="0 0 24 24"><path d="M15 5V10H13V6H11V10H9V8H7V20H9V18H11V20H12.09A6 6 0 0 1 12 19A6 6 0 0 1 13 15.69V12H15V13.81A6 6 0 0 1 17 13.09V12H19V13.09A6 6 0 0 1 21 13.81V12H22V10H21V5H19V10H17V5H15M9 12H11V16H9V12M19 16V18H15V20H19V22L22 19L19 16Z" /></svg>