<?xml version="1.0" encoding="UTF-8"?><!DOCTYPE svg PUBLIC "-//W3C//DTD SVG 1.1//EN" "http://www.w3.org/Graphics/SVG/1.1/DTD/svg11.dtd"><svg xmlns="http://www.w3.org/2000/svg" xmlns:xlink="http://www.w3.org/1999/xlink" version="1.1" id="mdi-gauge-full" width="24" height="24" viewBox="0 0 24 24"><path d="M12,2A10,10 0 0,0 2,12A10,10 0 0,0 12,22A10,10 0 0,0 22,12A10,10 0 0,0 12,2M12,4A8,8 0 0,1 20,12C20,14.4 19,16.5 17.3,18C15.9,16.7 14,16 12,16C10,16 8.2,16.7 6.7,18C5,16.5 4,14.4 4,12A8,8 0 0,1 12,4M10,6A1,1 0 0,0 9,7A1,1 0 0,0 10,8A1,1 0 0,0 11,7A1,1 0 0,0 10,6M14,6A1,1 0 0,0 13,7A1,1 0 0,0 14,8A1,1 0 0,0 15,7A1,1 0 0,0 14,6M17.09,8.94C16.96,8.94 16.84,8.97 16.7,9L13.5,10.32L13.23,10.43C12.67,10 11.91,9.88 11.25,10.15C10.23,10.56 9.73,11.73 10.15,12.75C10.56,13.77 11.73,14.27 12.75,13.85C13.41,13.59 13.88,13 14,12.28L14.23,12.18L17.45,10.88L17.47,10.87C18,10.66 18.23,10.08 18.03,9.56C17.87,9.18 17.5,8.93 17.09,8.94M7,9A1,1 0 0,0 6,10A1,1 0 0,0 7,11A1,1 0 0,0 8,10A1,1 0 0,0 7,9Z" /></svg>