<?xml version="1.0" encoding="UTF-8"?><!DOCTYPE svg PUBLIC "-//W3C//DTD SVG 1.1//EN" "http://www.w3.org/Graphics/SVG/1.1/DTD/svg11.dtd"><svg xmlns="http://www.w3.org/2000/svg" xmlns:xlink="http://www.w3.org/1999/xlink" version="1.1" id="mdi-gauge-empty" width="24" height="24" viewBox="0 0 24 24"><path d="M12,2A10,10 0 0,1 22,12A10,10 0 0,1 12,22A10,10 0 0,1 2,12A10,10 0 0,1 12,2M12,4A8,8 0 0,0 4,12C4,14.4 5,16.5 6.7,18C8.1,16.7 10,16 12,16C14,16 15.8,16.7 17.3,18C19,16.5 20,14.4 20,12A8,8 0 0,0 12,4M14,6A1,1 0 0,1 15,7A1,1 0 0,1 14,8A1,1 0 0,1 13,7A1,1 0 0,1 14,6M10,6A1,1 0 0,1 11,7A1,1 0 0,1 10,8A1,1 0 0,1 9,7A1,1 0 0,1 10,6M6.91,8.94C7.04,8.94 7.16,8.97 7.3,9L10.5,10.32L10.77,10.43C11.33,10 12.09,9.88 12.75,10.15C13.77,10.56 14.27,11.73 13.85,12.75C13.44,13.77 12.27,14.27 11.25,13.85C10.59,13.59 10.12,13 10,12.28L9.77,12.18L6.55,10.88L6.53,10.87C6,10.66 5.77,10.08 5.97,9.56C6.13,9.18 6.5,8.93 6.91,8.94V8.94M17,9A1,1 0 0,1 18,10A1,1 0 0,1 17,11A1,1 0 0,1 16,10A1,1 0 0,1 17,9Z" /></svg>