<?xml version="1.0" encoding="UTF-8"?><!DOCTYPE svg PUBLIC "-//W3C//DTD SVG 1.1//EN" "http://www.w3.org/Graphics/SVG/1.1/DTD/svg11.dtd"><svg xmlns="http://www.w3.org/2000/svg" xmlns:xlink="http://www.w3.org/1999/xlink" version="1.1" id="mdi-gauge-low" width="24" height="24" viewBox="0 0 24 24"><path d="M12,2A10,10 0 0,1 22,12A10,10 0 0,1 12,22A10,10 0 0,1 2,12A10,10 0 0,1 12,2M12,4A8,8 0 0,0 4,12C4,14.4 5,16.5 6.7,18C8.1,16.7 10,16 12,16C14,16 15.8,16.7 17.3,18C19,16.5 20,14.4 20,12A8,8 0 0,0 12,4M10,5.89C10.38,5.9 10.74,6.15 10.9,6.54L12.19,9.77L12.29,10C13,10.13 13.59,10.6 13.86,11.26C14.27,12.29 13.77,13.45 12.74,13.86C11.71,14.27 10.55,13.77 10.14,12.74C9.88,12.08 10,11.32 10.43,10.76L10.33,10.5L9.04,7.29L9.03,7.26C8.83,6.75 9.08,6.17 9.59,5.96C9.72,5.91 9.85,5.89 10,5.89V5.89M14,6A1,1 0 0,1 15,7A1,1 0 0,1 14,8A1,1 0 0,1 13,7A1,1 0 0,1 14,6M17,9A1,1 0 0,1 18,10A1,1 0 0,1 17,11A1,1 0 0,1 16,10A1,1 0 0,1 17,9M7,9A1,1 0 0,1 8,10A1,1 0 0,1 7,11A1,1 0 0,1 6,10A1,1 0 0,1 7,9Z" /></svg>