<?xml version="1.0" encoding="UTF-8"?><!DOCTYPE svg PUBLIC "-//W3C//DTD SVG 1.1//EN" "http://www.w3.org/Graphics/SVG/1.1/DTD/svg11.dtd"><svg xmlns="http://www.w3.org/2000/svg" xmlns:xlink="http://www.w3.org/1999/xlink" version="1.1" id="mdi-gesture-pinch" width="24" height="24" viewBox="0 0 24 24"><path d="M13,9A1,1 0 0,1 14,8A1,1 0 0,1 15,9V13.47L16.21,13.6L21.15,15.8C21.67,16.04 22,16.56 22,17.14V21.5C21.97,22.32 21.32,22.97 20.5,23H14C13.62,23 13.26,22.85 13,22.57L8.1,18.37L8.84,17.6C9.03,17.39 9.3,17.28 9.58,17.28H9.8L13,19V9M14,5C15.42,5 16.74,5.76 17.45,7C18.56,8.9 17.91,11.35 16,12.46V11.23C16.64,10.67 17,9.85 17,9A3,3 0 0,0 14,6A3,3 0 0,0 11,9C11,9.85 11.36,10.67 12,11.23V12.46C10.77,11.75 10,10.43 10,9A4,4 0 0,1 14,5M4,9L7,12H5V15H3V12H1L4,9M4,7L1,4H3V1H5V4H7L4,7M9,14C9.73,14 10.41,14.19 11,14.54V15.76C10.47,15.29 9.77,15 9,15A3,3 0 0,0 6,18C6,19 6.5,19.87 7.22,20.42L9.31,22H9A4,4 0 0,1 5,18A4,4 0 0,1 9,14Z" /></svg>