<?xml version="1.0" encoding="UTF-8"?><!DOCTYPE svg PUBLIC "-//W3C//DTD SVG 1.1//EN" "http://www.w3.org/Graphics/SVG/1.1/DTD/svg11.dtd"><svg xmlns="http://www.w3.org/2000/svg" xmlns:xlink="http://www.w3.org/1999/xlink" version="1.1" id="mdi-glass-mug-variant" width="24" height="24" viewBox="0 0 24 24"><path d="M9.5 3C7.56 3 5.85 4.24 5.23 6.08C3.36 6.44 2 8.09 2 10C2 12.21 3.79 14 6 14V22H17V20H20C20.55 20 21 19.55 21 19V11C21 10.45 20.55 10 20 10H18V8C18 5.79 16.21 4 14 4H12.32C11.5 3.35 10.53 3 9.5 3M9.5 5C10.29 5 11.03 5.37 11.5 6H14C15.11 6 16 6.9 16 8H12C10 8 9.32 9.13 8.5 10.63C7.68 12.13 6 12 6 12C4.89 12 4 11.11 4 10C4 8.9 4.89 8 6 8H7V7.5C7 6.12 8.12 5 9.5 5M17 12H19V18H17Z" /></svg>