<?xml version="1.0" encoding="UTF-8"?><!DOCTYPE svg PUBLIC "-//W3C//DTD SVG 1.1//EN" "http://www.w3.org/Graphics/SVG/1.1/DTD/svg11.dtd"><svg xmlns="http://www.w3.org/2000/svg" xmlns:xlink="http://www.w3.org/1999/xlink" version="1.1" id="mdi-globe-model" width="24" height="24" viewBox="0 0 24 24"><path d="M17.36,2.64L15.95,4.06C17.26,5.37 18,7.14 18,9A7,7 0 0,1 11,16C9.15,16 7.37,15.26 6.06,13.95L4.64,15.36C6.08,16.8 7.97,17.71 10,17.93V20H6V22H16V20H12V17.94C16.55,17.43 20,13.58 20,9C20,6.62 19.05,4.33 17.36,2.64M11,3.5A5.5,5.5 0 0,0 5.5,9A5.5,5.5 0 0,0 11,14.5A5.5,5.5 0 0,0 16.5,9A5.5,5.5 0 0,0 11,3.5M11,5.5C12.94,5.5 14.5,7.07 14.5,9A3.5,3.5 0 0,1 11,12.5A3.5,3.5 0 0,1 7.5,9A3.5,3.5 0 0,1 11,5.5Z" /></svg>