<svg xmlns="http://www.w3.org/2000/svg" viewBox="0 0 24 24"><path d="M22 5.5A3.5 3.5 0 0018.5 2 3.5 3.5 0 0015 5.5V6a3 3 0 01-3 3c-2 0-3-3-6-3a4 4 0 00-4 4v1h2v-1a2 2 0 012-2c.86 0 1.42.45 2.32 1.24A5.584 5.584 0 0012 11a5 5 0 005-5v-.5A1.5 1.5 0 0118.5 4 1.5 1.5 0 0120 5.5c-.14.85-.42 1.68-.83 2.44C18.5 9.2 18.11 10.58 18 12c.09 1.37.5 2.71 1.21 3.89.39.65.66 1.36.79 2.11a2 2 0 01-2 2 2 2 0 01-2-2 3.75 3.75 0 00-3.75-3.75A3.75 3.75 0 008.5 18v.5A1.5 1.5 0 017 20a3 3 0 01-3-3v-2h2v-2H0v2h2v2a5 5 0 005 5 3.5 3.5 0 003.5-3.5V18a1.75 1.75 0 011.75-1.75A1.75 1.75 0 0114 18a4 4 0 004 4 4 4 0 004-4c0-2-2-4-2-6s2-4.5 2-6.5z"/></svg>