<?xml version="1.0" encoding="UTF-8"?><!DOCTYPE svg PUBLIC "-//W3C//DTD SVG 1.1//EN" "http://www.w3.org/Graphics/SVG/1.1/DTD/svg11.dtd"><svg xmlns="http://www.w3.org/2000/svg" xmlns:xlink="http://www.w3.org/1999/xlink" version="1.1" id="mdi-google-ads" width="24" height="24" viewBox="0 0 24 24"><path d="M12.25 1.47C11.55 1.42 10.82 1.58 10.17 1.96C8.41 2.97 7.81 5.21 8.82 6.96L16.16 19.66C17.17 21.42 19.41 22 21.17 21C22.92 20 23.5 17.75 22.5 16L15.18 3.3C14.54 2.2 13.43 1.56 12.25 1.47M6.82 6.76L1.5 16A3.67 3.67 0 0 0 1 17.83A3.67 3.67 0 0 0 4.67 21.5A3.67 3.67 0 0 0 7.84 19.66V19.67L11 14.19C9.65 11.89 8.27 9.6 7.03 7.23C6.95 7.08 6.88 6.92 6.83 6.76ZL16.4 5Z" /></svg>