<svg xmlns="http://www.w3.org/2000/svg" viewBox="0 0 24 24"><path d="M8.06 7.78c-.56 0-.89-.05-.98-.14l-.42 6.09c.53.32 1.22.57 2.06.77.84.21 2.06.27 3.66.17 1.59-.09 3.25-.44 4.96-1.03l-.79-9.42c-.88.87-2.17 1.69-3.89 2.44-1.53.65-2.85 1.03-3.94 1.12h-.66m-.09-2.44c-.69.6-.97 1-.84 1.22.09.22.57.28 1.45.19 1.09-.09 2.33-.44 3.7-1.03.94-.41 1.75-.84 2.44-1.31.69-.47 1.16-.86 1.41-1.18.25-.31.34-.53.28-.65-.07-.16-.38-.24-.94-.24-1.13 0-2.53.36-4.22 1.08-1.44.63-2.53 1.27-3.28 1.92m9.37-3.14c.07.13.1.27.1.43L18.61 17c0 1.73-.61 3.09-1.78 4.07-1.19.98-2.8 1.48-4.83 1.48-2 0-3.6-.51-4.8-1.55-1.2-1-1.81-2.36-1.81-4.08l.7-10.45c0-.25.11-.53.33-.84.22-.32.42-.57.61-.75l.33-.29c.97-.81 2.14-1.51 3.52-2.09.93-.42 1.85-.73 2.74-.93.88-.2 1.68-.27 2.38-.19.71.08 1.16.35 1.34.82Z"/></svg>