<svg xmlns="http://www.w3.org/2000/svg" viewBox="0 0 24 24"><path d="M15.5 4.5c0 .56.2 1.04.58 1.43.37.39.84.57 1.42.57.55 0 1-.18 1.41-.57.39-.39.59-.87.59-1.43 0-.53-.2-1-.61-1.41-.39-.4-.89-.59-1.39-.59-.55 0-1 .19-1.4.59-.39.41-.6.88-.6 1.41m6.5 0c0 1-.39 2.19-1.14 3.56-.75 1.38-1.5 2.5-2.25 3.38l-1.11 1.31c-.36-.37-.78-.86-1.28-1.45-.5-.6-1.17-1.63-1.99-3.1C13.4 6.73 13 5.5 13 4.5c0-1.25.42-2.31 1.3-3.19C15.17.44 16.23 0 17.5 0c1.23 0 2.3.44 3.17 1.31.88.88 1.33 1.94 1.33 3.19m-1 7.08V19c0 .5-.2 1-.61 1.39-.39.41-.89.61-1.39.61H5c-.5 0-1-.2-1.39-.61C3.2 20 3 19.5 3 19V5c0-.5.2-1 .61-1.39C4 3.2 4.5 3 5 3h6.2c-.12.63-.2 1.13-.2 1.5 0 1.19.44 2.59 1.28 4.2.85 1.6 1.56 2.8 2.13 3.51.59.74 1.12 1.37 1.62 1.9l1.47 1.59 1.5-1.59c1.27-1.61 1.94-2.47 2-2.53M9 14.5v1.39h2.25C11 17 10.25 17.53 9 17.53c-.69 0-1.27-.25-1.73-.75A2.51 2.51 0 016.56 15c0-.69.24-1.28.71-1.78.46-.5 1.04-.75 1.73-.75.66 0 1.19.2 1.59.61l1.08-1.03c-.75-.69-1.62-1.05-2.62-1.05H9c-1.09 0-2.03.41-2.81 1.19C5.41 12.97 5 13.91 5 15s.41 2.03 1.19 2.81C6.97 18.59 7.91 19 9 19c1.16 0 2.09-.37 2.79-1.09.71-.72 1.05-1.66 1.05-2.82 0-.28-.01-.48-.04-.59H9z"/></svg>