<svg xmlns="http://www.w3.org/2000/svg" viewBox="0 0 24 24" id="google-plus-box"><path d="M5,3H19A2,2 0 0,1 21,5V19A2,2 0 0,1 19,21H5A2,2 0 0,1 3,19V5A2,2 0 0,1 5,3M19.5,12H18V10.5H17V12H15.5V13H17V14.5H18V13H19.5V12M9.65,11.36V12.9H12.22C12.09,13.54 11.45,14.83 9.65,14.83C8.11,14.83 6.89,13.54 6.89,12C6.89,10.46 8.11,9.17 9.65,9.17C10.55,9.17 11.13,9.56 11.45,9.88L12.67,8.72C11.9,7.95 10.87,7.5 9.65,7.5C7.14,7.5 5.15,9.5 5.15,12C5.15,14.5 7.14,16.5 9.65,16.5C12.22,16.5 13.96,14.7 13.96,12.13C13.96,11.81 13.96,11.61 13.89,11.36H9.65Z" /></svg>