<?xml version="1.0" encoding="UTF-8"?><!DOCTYPE svg PUBLIC "-//W3C//DTD SVG 1.1//EN" "http://www.w3.org/Graphics/SVG/1.1/DTD/svg11.dtd"><svg xmlns="http://www.w3.org/2000/svg" xmlns:xlink="http://www.w3.org/1999/xlink" version="1.1" id="mdi-google-circles-extended" width="24" height="24" viewBox="0 0 24 24"><path d="M18,19C16.89,19 16,18.1 16,17C16,15.89 16.89,15 18,15A2,2 0 0,1 20,17A2,2 0 0,1 18,19M18,13A4,4 0 0,0 14,17A4,4 0 0,0 18,21A4,4 0 0,0 22,17A4,4 0 0,0 18,13M12,11.1A1.9,1.9 0 0,0 10.1,13A1.9,1.9 0 0,0 12,14.9A1.9,1.9 0 0,0 13.9,13A1.9,1.9 0 0,0 12,11.1M6,19C4.89,19 4,18.1 4,17C4,15.89 4.89,15 6,15A2,2 0 0,1 8,17A2,2 0 0,1 6,19M6,13A4,4 0 0,0 2,17A4,4 0 0,0 6,21A4,4 0 0,0 10,17A4,4 0 0,0 6,13M12,4A2,2 0 0,1 14,6A2,2 0 0,1 12,8C10.89,8 10,7.1 10,6C10,4.89 10.89,4 12,4M12,10A4,4 0 0,0 16,6A4,4 0 0,0 12,2A4,4 0 0,0 8,6A4,4 0 0,0 12,10Z" /></svg>