<svg xmlns="http://www.w3.org/2000/svg" viewBox="0 0 24 24"><path d="M18 19a2 2 0 01-2-2c0-1.11.89-2 2-2a2 2 0 012 2 2 2 0 01-2 2m0-6a4 4 0 00-4 4 4 4 0 004 4 4 4 0 004-4 4 4 0 00-4-4m-6-1.9a1.9 1.9 0 00-1.9 1.9 1.9 1.9 0 001.9 1.9 1.9 1.9 0 001.9-1.9 1.9 1.9 0 00-1.9-1.9M6 19a2 2 0 01-2-2c0-1.11.89-2 2-2a2 2 0 012 2 2 2 0 01-2 2m0-6a4 4 0 00-4 4 4 4 0 004 4 4 4 0 004-4 4 4 0 00-4-4m6-9a2 2 0 012 2 2 2 0 01-2 2 2 2 0 01-2-2c0-1.11.89-2 2-2m0 6a4 4 0 004-4 4 4 0 00-4-4 4 4 0 00-4 4 4 4 0 004 4z"/></svg>