<svg xmlns="http://www.w3.org/2000/svg" viewBox="0 0 24 24"><path d="M10 12a2 2 0 00-2 2 2 2 0 002 2 2 2 0 002-2 2 2 0 00-2-2M6 8a2 2 0 00-2 2 2 2 0 002 2 2 2 0 002-2 2 2 0 00-2-2m0 8a2 2 0 00-2 2 2 2 0 002 2 2 2 0 002-2 2 2 0 00-2-2m12-8a2 2 0 002-2 2 2 0 00-2-2 2 2 0 00-2 2 2 2 0 002 2m-4 8a2 2 0 00-2 2 2 2 0 002 2 2 2 0 002-2 2 2 0 00-2-2m4-4a2 2 0 00-2 2 2 2 0 002 2 2 2 0 002-2 2 2 0 00-2-2m-4-4a2 2 0 00-2 2 2 2 0 002 2 2 2 0 002-2 2 2 0 00-2-2m-4-4a2 2 0 00-2 2 2 2 0 002 2 2 2 0 002-2 2 2 0 00-2-2z"/></svg>