<?xml version="1.0" encoding="UTF-8"?><!DOCTYPE svg PUBLIC "-//W3C//DTD SVG 1.1//EN" "http://www.w3.org/Graphics/SVG/1.1/DTD/svg11.dtd"><svg xmlns="http://www.w3.org/2000/svg" xmlns:xlink="http://www.w3.org/1999/xlink" version="1.1" id="mdi-graph-outline" width="24" height="24" viewBox="0 0 24 24"><path d="M19.5 17C19.36 17 19.24 17 19.11 17.04L17.5 13.8C17.95 13.35 18.25 12.71 18.25 12C18.25 10.62 17.13 9.5 15.75 9.5C15.61 9.5 15.5 9.5 15.35 9.54L13.74 6.3C14.21 5.84 14.5 5.21 14.5 4.5C14.5 3.12 13.38 2 12 2S9.5 3.12 9.5 4.5C9.5 5.2 9.79 5.84 10.26 6.29L8.65 9.54C8.5 9.5 8.39 9.5 8.25 9.5C6.87 9.5 5.75 10.62 5.75 12C5.75 12.71 6.04 13.34 6.5 13.79L4.89 17.04C4.76 17 4.64 17 4.5 17C3.12 17 2 18.12 2 19.5C2 20.88 3.12 22 4.5 22S7 20.88 7 19.5C7 18.8 6.71 18.16 6.24 17.71L7.86 14.46C8 14.5 8.12 14.5 8.25 14.5C8.38 14.5 8.5 14.5 8.63 14.46L10.26 17.71C9.79 18.16 9.5 18.8 9.5 19.5C9.5 20.88 10.62 22 12 22S14.5 20.88 14.5 19.5C14.5 18.12 13.38 17 12 17C11.87 17 11.74 17 11.61 17.04L10 13.8C10.45 13.35 10.75 12.71 10.75 12C10.75 11.3 10.46 10.67 10 10.21L11.61 6.96C11.74 7 11.87 7 12 7C12.13 7 12.26 7 12.39 6.96L14 10.21C13.54 10.66 13.25 11.3 13.25 12C13.25 13.38 14.37 14.5 15.75 14.5C15.88 14.5 16 14.5 16.13 14.46L17.76 17.71C17.29 18.16 17 18.8 17 19.5C17 20.88 18.12 22 19.5 22S22 20.88 22 19.5C22 18.12 20.88 17 19.5 17M4.5 20.5C3.95 20.5 3.5 20.05 3.5 19.5S3.95 18.5 4.5 18.5 5.5 18.95 5.5 19.5 5.05 20.5 4.5 20.5M13 19.5C13 20.05 12.55 20.5 12 20.5S11 20.05 11 19.5 11.45 18.5 12 18.5 13 18.95 13 19.5M7.25 12C7.25 11.45 7.7 11 8.25 11S9.25 11.45 9.25 12 8.8 13 8.25 13 7.25 12.55 7.25 12M11 4.5C11 3.95 11.45 3.5 12 3.5S13 3.95 13 4.5 12.55 5.5 12 5.5 11 5.05 11 4.5M14.75 12C14.75 11.45 15.2 11 15.75 11S16.75 11.45 16.75 12 16.3 13 15.75 13 14.75 12.55 14.75 12M19.5 20.5C18.95 20.5 18.5 20.05 18.5 19.5S18.95 18.5 19.5 18.5 20.5 18.95 20.5 19.5 20.05 20.5 19.5 20.5Z" /></svg>