<?xml version="1.0" encoding="UTF-8"?><!DOCTYPE svg PUBLIC "-//W3C//DTD SVG 1.1//EN" "http://www.w3.org/Graphics/SVG/1.1/DTD/svg11.dtd"><svg xmlns="http://www.w3.org/2000/svg" xmlns:xlink="http://www.w3.org/1999/xlink" version="1.1" id="mdi-grease-pencil" width="24" height="24" viewBox="0 0 24 24"><path d="M18.62,1.5C18.11,1.5 17.6,1.69 17.21,2.09L10.75,8.55L14.95,12.74L21.41,6.29C22.2,5.5 22.2,4.24 21.41,3.46L20.04,2.09C19.65,1.69 19.14,1.5 18.62,1.5M9.8,9.5L3.23,16.07L3.93,16.77C3.4,17.24 2.89,17.78 2.38,18.29C1.6,19.08 1.6,20.34 2.38,21.12C3.16,21.9 4.42,21.9 5.21,21.12C5.72,20.63 6.25,20.08 6.73,19.58L7.43,20.27L14,13.7" /></svg>