<?xml version="1.0" encoding="UTF-8"?><!DOCTYPE svg PUBLIC "-//W3C//DTD SVG 1.1//EN" "http://www.w3.org/Graphics/SVG/1.1/DTD/svg11.dtd"><svg xmlns="http://www.w3.org/2000/svg" xmlns:xlink="http://www.w3.org/1999/xlink" version="1.1" id="mdi-grill" width="24" height="24" viewBox="0 0 24 24"><path d="M8.06,2C7.88,3.17 8.17,4.16 8.95,4.97C9.45,5.47 9.61,6.14 9.42,7H10.41C10.53,6.45 10.55,6 10.45,5.55C10.36,5.13 10.05,4.63 9.5,4.03C9.05,3.47 8.89,2.8 9.05,2H8.06M10.55,2C10.36,3.17 10.66,4.16 11.44,4.97C11.94,5.47 12.09,6.14 11.91,7H12.89C13,6.45 13.03,6 12.94,5.55C12.84,5.13 12.53,4.63 12,4.03C11.53,3.47 11.38,2.8 11.53,2H10.55M13.08,2C12.89,3.17 13.19,4.16 13.97,4.97C14.47,5.47 14.61,6.14 14.39,7H15.42C15.55,6.45 15.56,6 15.47,5.55C15.38,5.13 15.06,4.63 14.53,4.03C14.06,3.47 13.91,2.8 14.06,2H13.08M5,8C5,9.42 5.39,10.7 6.14,11.84C6.87,12.96 7.91,13.85 9.14,14.39L5.16,20.44C5.06,20.56 5,20.75 5,21C5,21.41 5.16,21.69 5.44,21.84C5.56,21.94 5.75,22 6,22C6.41,22 6.69,21.84 6.84,21.56L7.83,19.97H14.2C14.41,20.55 14.79,21.05 15.28,21.42C15.78,21.8 16.36,22 17,22C17.83,22 18.53,21.69 19.13,21.09C19.72,20.5 20,19.8 20,19C20,18.17 19.72,17.47 19.13,16.88C18.53,16.28 17.83,16 17,16C16.36,16 15.78,16.17 15.28,16.55C14.78,16.92 14.42,17.41 14.2,18H9.14L11.11,14.95C11.27,15 11.56,15 12,15C12.44,15 12.73,15 12.89,14.95L13.88,16.5C14.29,15.96 14.84,15.54 15.47,15.28L14.91,14.39C16.03,13.89 17,13 17.79,11.77C18.59,10.5 19,9.27 19,8H5M17,18C17.3,18 17.53,18.09 17.72,18.28C17.91,18.47 18,18.72 18,19C18,19.27 17.91,19.5 17.72,19.71C17.54,19.91 17.28,20 17,20C16.74,20 16.5,19.91 16.29,19.71C16.09,19.5 16,19.26 16,19C16,18.7 16.09,18.47 16.29,18.28C16.5,18.09 16.73,18 17,18Z" /></svg>