<?xml version="1.0" encoding="UTF-8"?><!DOCTYPE svg PUBLIC "-//W3C//DTD SVG 1.1//EN" "http://www.w3.org/Graphics/SVG/1.1/DTD/svg11.dtd"><svg xmlns="http://www.w3.org/2000/svg" xmlns:xlink="http://www.w3.org/1999/xlink" version="1.1" id="mdi-guitar-electric" width="24" height="24" viewBox="0 0 24 24"><path d="M19.59,3H22V5H20.41L15.12,10.29L13.71,8.9L19.59,3M12,9C12.26,9 12.5,9.1 12.71,9.3L14.71,11.3C14.89,11.5 15,11.73 15,12L14.9,12.4L10.9,20.4C10.71,20.75 10.36,20.93 10,20.93C9.65,20.93 9.29,20.75 9.11,20.4L7.25,16.7L3.55,14.9C3.18,14.7 3,14.35 3,14C3,13.65 3.18,13.3 3.55,13.1L11.55,9.1C11.69,9 11.84,9 12,9M9.35,11.82L8.65,12.5L11.5,15.35L12.18,14.65L9.35,11.82M7.94,13.23L7.23,13.94L10.06,16.77L10.77,16.06L7.94,13.23Z" /></svg>