<?xml version="1.0" encoding="UTF-8"?><!DOCTYPE svg PUBLIC "-//W3C//DTD SVG 1.1//EN" "http://www.w3.org/Graphics/SVG/1.1/DTD/svg11.dtd"><svg xmlns="http://www.w3.org/2000/svg" xmlns:xlink="http://www.w3.org/1999/xlink" version="1.1" id="mdi-hair-dryer" width="24" height="24" viewBox="0 0 24 24"><path d="M22 9A4.32 4.32 0 0 1 19.78 8.45A3.4 3.4 0 0 0 18 8V7A4.32 4.32 0 0 1 20.22 7.55A3.4 3.4 0 0 0 22 8M22 6A3.4 3.4 0 0 1 20.22 5.55A4.32 4.32 0 0 0 18 5V6A3.4 3.4 0 0 1 19.78 6.45A4.32 4.32 0 0 0 22 7M22 10A3.4 3.4 0 0 1 20.22 9.55A4.32 4.32 0 0 0 18 9V10A3.4 3.4 0 0 1 19.78 10.45A4.32 4.32 0 0 0 22 11M10 12.73A70.39 70.39 0 0 0 17 11V4S10.5 2 7.5 2A5.5 5.5 0 0 0 6.12 12.82L7 19H8A3 3 0 0 0 9.46 21.33A3.15 3.15 0 0 1 11 24H12A4.12 4.12 0 0 0 10.09 20.55C9.39 20 9 19.63 9 19H10M7.5 10A2.5 2.5 0 1 1 10 7.5A2.5 2.5 0 0 1 7.5 10Z" /></svg>