<svg xmlns="http://www.w3.org/2000/svg" viewBox="0 0 24 24"><path d="M22 9a4.32 4.32 0 01-2.22-.55A3.4 3.4 0 0018 8V7a4.32 4.32 0 012.22.55A3.4 3.4 0 0022 8m0-2a3.4 3.4 0 01-1.78-.45A4.32 4.32 0 0018 5v1a3.4 3.4 0 011.78.45A4.32 4.32 0 0022 7m0 3a3.4 3.4 0 01-1.78-.45A4.32 4.32 0 0018 9v1a3.4 3.4 0 011.78.45A4.32 4.32 0 0022 11m-12 1.73A70.39 70.39 0 0017 11V4s-6.5-2-9.5-2a5.5 5.5 0 00-1.38 10.82L7 19h1a3 3 0 001.46 2.33A3.15 3.15 0 0111 24h1a4.12 4.12 0 00-1.91-3.45C9.39 20 9 19.63 9 19h1m-2.5-9A2.5 2.5 0 1110 7.5 2.5 2.5 0 017.5 10z"/></svg>