<?xml version="1.0" encoding="UTF-8"?><!DOCTYPE svg PUBLIC "-//W3C//DTD SVG 1.1//EN" "http://www.w3.org/Graphics/SVG/1.1/DTD/svg11.dtd"><svg xmlns="http://www.w3.org/2000/svg" xmlns:xlink="http://www.w3.org/1999/xlink" version="1.1" id="mdi-hand-pointing-right" width="24" height="24" viewBox="0 0 24 24"><path d="M21,9A1,1 0 0,1 22,10A1,1 0 0,1 21,11H16.53L16.4,12.21L14.2,17.15C14,17.65 13.47,18 12.86,18H8.5C7.7,18 7,17.27 7,16.5V10C7,9.61 7.16,9.26 7.43,9L11.63,4.1L12.4,4.84C12.6,5.03 12.72,5.29 12.72,5.58L12.69,5.8L11,9H21M2,18V10H5V18H2Z" /></svg>