<?xml version="1.0" encoding="UTF-8"?><!DOCTYPE svg PUBLIC "-//W3C//DTD SVG 1.1//EN" "http://www.w3.org/Graphics/SVG/1.1/DTD/svg11.dtd"><svg xmlns="http://www.w3.org/2000/svg" xmlns:xlink="http://www.w3.org/1999/xlink" version="1.1" id="mdi-handshake" width="24" height="24" viewBox="0 0 24 24"><path d="M11 6H14L17.29 2.7A1 1 0 0 1 18.71 2.7L21.29 5.29A1 1 0 0 1 21.29 6.7L19 9H11V11A1 1 0 0 1 10 12A1 1 0 0 1 9 11V8A2 2 0 0 1 11 6M5 11V15L2.71 17.29A1 1 0 0 0 2.71 18.7L5.29 21.29A1 1 0 0 0 6.71 21.29L11 17H15A1 1 0 0 0 16 16V15H17A1 1 0 0 0 18 14V13H19A1 1 0 0 0 20 12V11H13V12A2 2 0 0 1 11 14H9A2 2 0 0 1 7 12V9Z" /></svg>