<?xml version="1.0" encoding="UTF-8"?><!DOCTYPE svg PUBLIC "-//W3C//DTD SVG 1.1//EN" "http://www.w3.org/Graphics/SVG/1.1/DTD/svg11.dtd"><svg xmlns="http://www.w3.org/2000/svg" xmlns:xlink="http://www.w3.org/1999/xlink" version="1.1" id="mdi-hand-pointing-down" width="24" height="24" viewBox="0 0 24 24"><path d="M9.9,21V11L6.7,12.69L6.5,12.72C6.19,12.72 5.93,12.6 5.74,12.4L5,11.63L9.9,7.43C10.16,7.16 10.5,7 10.9,7H17.4C18.17,7 18.9,7.7 18.9,8.5V12.86C18.9,13.47 18.55,14 18.05,14.2L13.11,16.4L11.9,16.53V21A1,1 0 0,1 10.9,22A1,1 0 0,1 9.9,21M18.9,5H10.9V2H18.9V5Z" /></svg>