<svg xmlns="http://www.w3.org/2000/svg" viewBox="0 0 24 24"><path d="M20.76,16.34H20.75C21.5,16.77 22,17.58 22,18.5A2.5,2.5 0 0,1 19.5,21H4.5A2.5,2.5 0 0,1 2,18.5C2,17.58 2.5,16.77 3.25,16.34H3.24L11,11.86C11,11.86 11,11 12,10C13,10 14,9.1 14,8A2,2 0 0,0 12,6A2,2 0 0,0 10,8H8A4,4 0 0,1 12,4A4,4 0 0,1 16,8C16,9.86 14.73,11.42 13,11.87L20.76,16.34M4.5,19V19H19.5V19C19.67,19 19.84,18.91 19.93,18.75C20.07,18.5 20,18.21 19.75,18.07L12,13.59L4.25,18.07C4,18.21 3.93,18.5 4.07,18.75C4.16,18.91 4.33,19 4.5,19Z" /></svg>