<?xml version="1.0" encoding="UTF-8"?><!DOCTYPE svg PUBLIC "-//W3C//DTD SVG 1.1//EN" "http://www.w3.org/Graphics/SVG/1.1/DTD/svg11.dtd"><svg xmlns="http://www.w3.org/2000/svg" xmlns:xlink="http://www.w3.org/1999/xlink" version="1.1" id="mdi-headphones-settings" width="24" height="24" viewBox="0 0 24 24"><path d="M12,1A9,9 0 0,1 21,10V17A3,3 0 0,1 18,20H15V12H19V10A7,7 0 0,0 12,3A7,7 0 0,0 5,10V12H9V20H6A3,3 0 0,1 3,17V10A9,9 0 0,1 12,1M15,24V22H17V24H15M11,24V22H13V24H11M7,24V22H9V24H7Z" /></svg>