<?xml version="1.0" encoding="UTF-8"?><!DOCTYPE svg PUBLIC "-//W3C//DTD SVG 1.1//EN" "http://www.w3.org/Graphics/SVG/1.1/DTD/svg11.dtd"><svg xmlns="http://www.w3.org/2000/svg" xmlns:xlink="http://www.w3.org/1999/xlink" version="1.1" id="mdi-head-check-outline" width="24" height="24" viewBox="0 0 24 24"><path d="M13 3C16.88 3 20 6.14 20 10C20 12.8 18.37 15.19 16 16.31V21H9V18H8C6.89 18 6 17.11 6 16V13H4.5C4.08 13 3.84 12.5 4.08 12.19L6 9.66C6.19 5.95 9.23 3 13 3M13 1C8.42 1 4.61 4.43 4.06 8.91L2.5 11C1.92 11.72 1.82 12.72 2.24 13.59C2.6 14.31 3.24 14.8 4 14.95V16C4 17.86 5.28 19.43 7 19.87V23H18V17.47C20.5 15.83 22 13.06 22 10C22 5.04 17.96 1 13 1M12.47 13L9 9.5L10.4 8.09L12.47 10.17L16.6 6L18 7.41L12.47 13Z" /></svg>