<?xml version="1.0" encoding="UTF-8"?><!DOCTYPE svg PUBLIC "-//W3C//DTD SVG 1.1//EN" "http://www.w3.org/Graphics/SVG/1.1/DTD/svg11.dtd"><svg xmlns="http://www.w3.org/2000/svg" xmlns:xlink="http://www.w3.org/1999/xlink" version="1.1" id="mdi-head-dots-horizontal-outline" width="24" height="24" viewBox="0 0 24 24"><path d="M13 3C16.9 3 20 6.1 20 10C20 12.8 18.4 15.2 16 16.3V21H9V18H8C6.9 18 6 17.1 6 16V13H4.5C4.1 13 3.8 12.5 4.1 12.2L6 9.7C6.2 5.9 9.2 3 13 3M13 1C8.4 1 4.6 4.4 4.1 8.9L2.5 11C1.9 11.8 1.9 12.8 2.3 13.6C2.7 14.3 3.3 14.8 4 14.9V16C4 17.9 5.3 19.4 7 19.9V23H18V17.5C20.5 15.8 22 13.1 22 10C22 5 18 1 13 1M10 10C9.4 10 9 9.6 9 9S9.4 8 10 8 11 8.4 11 9 10.6 10 10 10M13 10C12.4 10 12 9.6 12 9S12.4 8 13 8 14 8.4 14 9 13.6 10 13 10M16 10C15.5 10 15 9.6 15 9S15.5 8 16 8 17 8.4 17 9 16.5 10 16 10Z" /></svg>