<?xml version="1.0" encoding="UTF-8"?><!DOCTYPE svg PUBLIC "-//W3C//DTD SVG 1.1//EN" "http://www.w3.org/Graphics/SVG/1.1/DTD/svg11.dtd"><svg xmlns="http://www.w3.org/2000/svg" xmlns:xlink="http://www.w3.org/1999/xlink" version="1.1" id="mdi-head-remove" width="24" height="24" viewBox="0 0 24 24"><path d="M13 3C9.2 3 6.2 5.9 6 9.7L4.1 12.2C3.9 12.5 4.1 13 4.5 13H6V16C6 17.1 6.9 18 8 18H9V21H16V16.3C18.4 15.2 20 12.8 20 10C20 6.1 16.9 3 13 3M15.1 12.5L13 10.4L10.9 12.5L9.5 11.1L11.6 9L9.5 6.9L10.9 5.5L13 7.6L15.1 5.5L16.5 6.9L14.4 9L16.5 11.1L15.1 12.5Z" /></svg>