<?xml version="1.0" encoding="UTF-8"?><!DOCTYPE svg PUBLIC "-//W3C//DTD SVG 1.1//EN" "http://www.w3.org/Graphics/SVG/1.1/DTD/svg11.dtd"><svg xmlns="http://www.w3.org/2000/svg" xmlns:xlink="http://www.w3.org/1999/xlink" version="1.1" id="mdi-head-dots-horizontal" width="24" height="24" viewBox="0 0 24 24"><path d="M13 3C9.23 3 6.19 5.95 6 9.66L4.08 12.19C3.84 12.5 4.08 13 4.5 13H6V16C6 17.11 6.89 18 8 18H9V21H16V16.31C18.37 15.19 20 12.8 20 10C20 6.14 16.88 3 13 3M10 11C9.45 11 9 10.55 9 10S9.45 9 10 9 11 9.45 11 10 10.55 11 10 11M13 11C12.45 11 12 10.55 12 10S12.45 9 13 9 14 9.45 14 10 13.55 11 13 11M16 11C15.45 11 15 10.55 15 10S15.45 9 16 9 17 9.45 17 10 16.55 11 16 11Z" /></svg>