<?xml version="1.0" encoding="UTF-8"?><!DOCTYPE svg PUBLIC "-//W3C//DTD SVG 1.1//EN" "http://www.w3.org/Graphics/SVG/1.1/DTD/svg11.dtd"><svg xmlns="http://www.w3.org/2000/svg" xmlns:xlink="http://www.w3.org/1999/xlink" version="1.1" id="mdi-heart-box-outline" width="24" height="24" viewBox="0 0 24 24"><path d="M12,17L11.28,16.34C8.7,14 7,12.46 7,10.57C7,9.03 8.21,7.82 9.75,7.82C10.62,7.82 11.45,8.23 12,8.87C12.55,8.23 13.38,7.82 14.25,7.82C15.79,7.82 17,9.03 17,10.57C17,12.46 15.3,14 12.72,16.34L12,17M5,3H19A2,2 0 0,1 21,5V19A2,2 0 0,1 19,21H5A2,2 0 0,1 3,19V5A2,2 0 0,1 5,3M5,5V19H19V5H5Z" /></svg>