<?xml version="1.0" encoding="UTF-8"?><!DOCTYPE svg PUBLIC "-//W3C//DTD SVG 1.1//EN" "http://www.w3.org/Graphics/SVG/1.1/DTD/svg11.dtd"><svg xmlns="http://www.w3.org/2000/svg" xmlns:xlink="http://www.w3.org/1999/xlink" version="1.1" id="mdi-heart-broken-outline" width="24" height="24" viewBox="0 0 24 24"><path d="M7.5,5C7.7,5 7.9,5 8.1,5.1L10.5,9.2L6.8,13.8C5.1,11.8 4,10.2 4,8.5C4,6.5 5.5,5 7.5,5M7.5,3C4.4,3 2,5.4 2,8.5C2,12.3 5.4,15.4 10.6,20L12,21.3L9,14.3L13,9.3L9.4,3.3C8.8,3.1 8.2,3 7.5,3M16.5,5C18.5,5 20,6.5 20,8.5C20,11.1 17.4,13.7 13.4,17.3L13.1,15L17.9,9.7L15.6,5.2C15.9,5 16.2,5 16.5,5M16.5,3C15.2,3 13.9,3.5 12.9,4.3L15.5,9.4L11,14.4L12,21.4L13.4,20.1C18.6,15.4 22,12.3 22,8.6C22,5.4 19.6,3 16.5,3Z" /></svg>