<?xml version="1.0" encoding="UTF-8"?><!DOCTYPE svg PUBLIC "-//W3C//DTD SVG 1.1//EN" "http://www.w3.org/Graphics/SVG/1.1/DTD/svg11.dtd"><svg xmlns="http://www.w3.org/2000/svg" xmlns:xlink="http://www.w3.org/1999/xlink" version="1.1" id="mdi-heart-multiple" width="24" height="24" viewBox="0 0 24 24"><path d="M13.5,20C6.9,13.9 3.5,10.8 3.5,7.1C3.5,4 5.9,1.6 9,1.6C10.7,1.6 12.4,2.4 13.5,3.7C14.6,2.4 16.3,1.6 18,1.6C21.1,1.6 23.5,4 23.5,7.1C23.5,10.9 20.1,14 13.5,20M12,21.1C5.4,15.2 1.5,11.7 1.5,7C1.5,6.8 1.5,6.6 1.5,6.4C0.9,7.3 0.5,8.4 0.5,9.6C0.5,13.4 3.9,16.5 10.5,22.4L12,21.1Z" /></svg>