<?xml version="1.0" encoding="UTF-8"?><!DOCTYPE svg PUBLIC "-//W3C//DTD SVG 1.1//EN" "http://www.w3.org/Graphics/SVG/1.1/DTD/svg11.dtd"><svg xmlns="http://www.w3.org/2000/svg" xmlns:xlink="http://www.w3.org/1999/xlink" version="1.1" id="mdi-hexadecimal" width="24" height="24" viewBox="0 0 24 24"><path d="M7 7C5.9 7 5 7.9 5 9V15C5 16.11 5.9 17 7 17H9C10.11 17 11 16.11 11 15V9C11 7.9 10.11 7 9 7H7M7 9H9V15H7V9M17.6 17L15.5 14.9L13.4 17L12 15.6L14.1 13.5L12 11.4L13.4 10L15.5 12.1L17.6 10L19 11.4L16.9 13.5L19 15.6L17.6 17Z" /></svg>