<?xml version="1.0" encoding="UTF-8"?><!DOCTYPE svg PUBLIC "-//W3C//DTD SVG 1.1//EN" "http://www.w3.org/Graphics/SVG/1.1/DTD/svg11.dtd"><svg xmlns="http://www.w3.org/2000/svg" xmlns:xlink="http://www.w3.org/1999/xlink" version="1.1" id="mdi-home-currency-usd" width="24" height="24" viewBox="0 0 24 24"><path d="M12,3L22,12H19V20H5V12H2L12,3M9.22,8.93C8.75,9.4 8.5,10.03 8.5,10.75C8.5,12.43 10.54,13.07 11.76,13.46C13.26,13.93 13.47,14.21 13.5,14.25C13.5,15 12.15,15 12,15V15C11.37,15 11.03,14.88 10.86,14.78C10.67,14.67 10.5,14.5 10.5,14H8.5C8.5,15.43 9.24,16.16 9.85,16.5C10.18,16.7 10.57,16.84 11,16.92V18H13V16.91C14.53,16.61 15.5,15.62 15.5,14.25C15.5,12.67 13.88,12.03 12.36,11.55C10.8,11.06 10.53,10.77 10.5,10.75C10.5,10.5 10.57,10.41 10.64,10.34C10.85,10.13 11.36,10 12,10V10C12.68,10 13.5,10.13 13.5,10.75H15.5C15.5,9.34 14.56,8.37 13,8.09V7H11V8.08C10.26,8.21 9.65,8.5 9.22,8.93Z" /></svg>