<svg xmlns="http://www.w3.org/2000/svg" viewBox="0 0 24 24"><path d="m12 3 10 9h-3v8H5v-8H2l10-9M9.22 8.93c-.47.47-.72 1.1-.72 1.82 0 1.68 2.04 2.32 3.26 2.71 1.5.47 1.71.75 1.74.79 0 .75-1.35.75-1.5.75-.63 0-.97-.12-1.14-.22-.19-.11-.36-.28-.36-.78h-2c0 1.43.74 2.16 1.35 2.5.33.2.72.34 1.15.42V18h2v-1.09c1.53-.3 2.5-1.29 2.5-2.66 0-1.58-1.62-2.22-3.14-2.7-1.56-.49-1.83-.78-1.86-.8 0-.25.07-.34.14-.41.21-.21.72-.34 1.36-.34.68 0 1.5.13 1.5.75h2c0-1.41-.94-2.38-2.5-2.66V7h-2v1.08c-.74.13-1.35.42-1.78.85z"/></svg>