<?xml version="1.0" encoding="UTF-8"?><!DOCTYPE svg PUBLIC "-//W3C//DTD SVG 1.1//EN" "http://www.w3.org/Graphics/SVG/1.1/DTD/svg11.dtd"><svg xmlns="http://www.w3.org/2000/svg" xmlns:xlink="http://www.w3.org/1999/xlink" version="1.1" id="mdi-home-map-marker" width="24" height="24" viewBox="0 0 24 24"><path d="M12,3L2,12H5V20H19V12H22L12,3M12,7.7C14.1,7.7 15.8,9.4 15.8,11.5C15.8,14.5 12,18 12,18C12,18 8.2,14.5 8.2,11.5C8.2,9.4 9.9,7.7 12,7.7M12,10A1.5,1.5 0 0,0 10.5,11.5A1.5,1.5 0 0,0 12,13A1.5,1.5 0 0,0 13.5,11.5A1.5,1.5 0 0,0 12,10Z" /></svg>