<?xml version="1.0" encoding="UTF-8"?><!DOCTYPE svg PUBLIC "-//W3C//DTD SVG 1.1//EN" "http://www.w3.org/Graphics/SVG/1.1/DTD/svg11.dtd"><svg xmlns="http://www.w3.org/2000/svg" xmlns:xlink="http://www.w3.org/1999/xlink" version="1.1" id="mdi-hook-off" width="24" height="24" viewBox="0 0 24 24"><path d="M13,9.86V11.18L15,13.18V9.86C17.14,9.31 18.43,7.13 17.87,5C17.32,2.85 15.14,1.56 13,2.11C10.86,2.67 9.57,4.85 10.13,7C10.5,8.4 11.59,9.5 13,9.86M14,4A2,2 0 0,1 16,6A2,2 0 0,1 14,8A2,2 0 0,1 12,6A2,2 0 0,1 14,4M18.73,22L14.86,18.13C14.21,20.81 11.5,22.46 8.83,21.82C6.6,21.28 5,19.29 5,17V12L10,17H7A3,3 0 0,0 10,20A3,3 0 0,0 13,17V16.27L2,5.27L3.28,4L13,13.72L15,15.72L20,20.72L18.73,22Z" /></svg>