<?xml version="1.0" encoding="UTF-8"?><!DOCTYPE svg PUBLIC "-//W3C//DTD SVG 1.1//EN" "http://www.w3.org/Graphics/SVG/1.1/DTD/svg11.dtd"><svg xmlns="http://www.w3.org/2000/svg" xmlns:xlink="http://www.w3.org/1999/xlink" version="1.1" id="mdi-hops" width="24" height="24" viewBox="0 0 24 24"><path d="M21,12C21,12 12.5,10 12.5,2C12.5,2 21,2 21,12M3,12C3,2 11.5,2 11.5,2C11.5,10 3,12 3,12M12,6.5C12,6.5 13,8.66 15,10.5C14.76,14.16 12,16 12,16C12,16 9.24,14.16 9,10.5C11,8.66 12,6.5 12,6.5M20.75,13.25C20.75,13.25 20,17 18,19C18,19 15.53,17.36 14.33,14.81C15.05,13.58 15.5,12.12 15.75,11.13C17.13,12.18 18.75,13 20.75,13.25M15.5,18.25C14.5,20.25 12,21.75 12,21.75C12,21.75 9.5,20.25 8.5,18.25C8.5,18.25 9.59,17.34 10.35,15.8C10.82,16.35 11.36,16.79 12,17C12.64,16.79 13.18,16.35 13.65,15.8C14.41,17.34 15.5,18.25 15.5,18.25M3.25,13.25C5.25,13 6.87,12.18 8.25,11.13C8.5,12.12 8.95,13.58 9.67,14.81C8.47,17.36 6,19 6,19C4,17 3.25,13.25 3.25,13.25Z" /></svg>