<?xml version="1.0" encoding="UTF-8"?><!DOCTYPE svg PUBLIC "-//W3C//DTD SVG 1.1//EN" "http://www.w3.org/Graphics/SVG/1.1/DTD/svg11.dtd"><svg xmlns="http://www.w3.org/2000/svg" xmlns:xlink="http://www.w3.org/1999/xlink" version="1.1" id="mdi-human-male-height-variant" width="24" height="24" viewBox="0 0 24 24"><path d="M7,2C8.78,2 9.67,4.16 8.42,5.42C7.16,6.67 5,5.78 5,4A2,2 0 0,1 7,2M5.5,7H8.5A2,2 0 0,1 10.5,9V14.5H9V22H5V14.5H3.5V9A2,2 0 0,1 5.5,7M19,8H21L18,4L15,8H17V16H15L18,20L21,16H19M22,2H14V4H22M22,20H14V22H22" /></svg>