<?xml version="1.0" encoding="UTF-8"?><!DOCTYPE svg PUBLIC "-//W3C//DTD SVG 1.1//EN" "http://www.w3.org/Graphics/SVG/1.1/DTD/svg11.dtd"><svg xmlns="http://www.w3.org/2000/svg" xmlns:xlink="http://www.w3.org/1999/xlink" version="1.1" id="mdi-human-handsup" width="24" height="24" viewBox="0 0 24 24"><path d="M5,1C5,3.7 6.56,6.16 9,7.32V22H11V15H13V22H15V7.31C17.44,6.16 19,3.7 19,1H17A5,5 0 0,1 12,6A5,5 0 0,1 7,1M12,1C10.89,1 10,1.89 10,3C10,4.11 10.89,5 12,5C13.11,5 14,4.11 14,3C14,1.89 13.11,1 12,1Z" /></svg>