<?xml version="1.0" encoding="UTF-8"?><!DOCTYPE svg PUBLIC "-//W3C//DTD SVG 1.1//EN" "http://www.w3.org/Graphics/SVG/1.1/DTD/svg11.dtd"><svg xmlns="http://www.w3.org/2000/svg" xmlns:xlink="http://www.w3.org/1999/xlink" version="1.1" id="mdi-hvac" width="24" height="24" viewBox="0 0 24 24"><path d="M8.58 14C8.3 13.55 8.11 13.03 8.06 12.5H15.94C15.89 13.03 15.7 13.55 15.47 14H8.58M12 16C10.97 16 10.08 15.61 9.38 15H14.63C13.92 15.61 13.03 16 12 16M12 8C13.03 8 13.92 8.39 14.63 9H9.38C10.08 8.39 10.97 8 12 8M8.58 10H15.42C15.7 10.45 15.89 10.97 15.94 11.5H8.06C8.11 10.97 8.3 10.45 8.58 10M3 3V21H21V3H3M12 18C8.67 18 6 15.33 6 12S8.67 6 12 6 18 8.67 18 12 15.33 18 12 18Z" /></svg>