<?xml version="1.0" encoding="UTF-8"?><!DOCTYPE svg PUBLIC "-//W3C//DTD SVG 1.1//EN" "http://www.w3.org/Graphics/SVG/1.1/DTD/svg11.dtd"><svg xmlns="http://www.w3.org/2000/svg" xmlns:xlink="http://www.w3.org/1999/xlink" version="1.1" id="mdi-iframe-braces-outline" width="24" height="24" viewBox="0 0 24 24"><path d="M21 2H3C1.9 2 1 2.9 1 4V20C1 21.1 1.9 22 3 22H21C22.1 22 23 21.1 23 20V4C23 2.9 22.1 2 21 2M21 20H3V6H21V20M9 8C7.9 8 7 8.9 7 10C7 11.1 6.1 12 5 12V14C6.1 14 7 14.9 7 16C7 17.1 7.9 18 9 18H11V16H9V15C9 13.9 8.1 13 7 13C8.1 13 9 12.1 9 11V10H11V8M15 8C16.1 8 17 8.9 17 10C17 11.1 17.9 12 19 12V14C17.9 14 17 14.9 17 16C17 17.1 16.1 18 15 18H13V16H15V15C15 13.9 15.9 13 17 13C15.9 13 15 12.1 15 11V10H13V8H15Z" /></svg>