<?xml version="1.0" encoding="UTF-8"?><!DOCTYPE svg PUBLIC "-//W3C//DTD SVG 1.1//EN" "http://www.w3.org/Graphics/SVG/1.1/DTD/svg11.dtd"><svg xmlns="http://www.w3.org/2000/svg" xmlns:xlink="http://www.w3.org/1999/xlink" version="1.1" id="mdi-image-edit-outline" width="24" height="24" viewBox="0 0 24 24"><path d="M22.7 14.3L21.7 15.3L19.7 13.3L20.7 12.3C20.8 12.2 20.9 12.1 21.1 12.1C21.2 12.1 21.4 12.2 21.5 12.3L22.8 13.6C22.9 13.8 22.9 14.1 22.7 14.3M13 19.9V22H15.1L21.2 15.9L19.2 13.9L13 19.9M11.21 15.83L9.25 13.47L6.5 17H13.12L15.66 14.55L13.96 12.29L11.21 15.83M11 19.9V19.05L11.05 19H5V5H19V11.31L21 9.38V5C21 3.9 20.11 3 19 3H5C3.9 3 3 3.9 3 5V19C3 20.11 3.9 21 5 21H11V19.9Z" /></svg>