<?xml version="1.0" encoding="UTF-8"?><!DOCTYPE svg PUBLIC "-//W3C//DTD SVG 1.1//EN" "http://www.w3.org/Graphics/SVG/1.1/DTD/svg11.dtd"><svg xmlns="http://www.w3.org/2000/svg" xmlns:xlink="http://www.w3.org/1999/xlink" version="1.1" id="mdi-image-filter-center-focus-strong-outline" width="24" height="24" viewBox="0 0 24 24"><path d="M17 12C17 7.55 11.62 5.31 8.46 8.46C5.31 11.61 7.55 17 12 17C14.76 17 17 14.76 17 12M12 15C9.33 15 8 11.77 9.88 9.88C11.77 8 15 9.33 15 12C15 13.66 13.66 15 12 15M5 15H3V19C3 20.1 3.9 21 5 21H9V19H5M5 5H9V3H5C3.9 3 3 3.9 3 5V9H5M19 3H15V5H19V9H21V5C21 3.9 20.1 3 19 3M19 19H15V21H19C20.1 21 21 20.1 21 19V15H19" /></svg>