<?xml version="1.0" encoding="UTF-8"?><!DOCTYPE svg PUBLIC "-//W3C//DTD SVG 1.1//EN" "http://www.w3.org/Graphics/SVG/1.1/DTD/svg11.dtd"><svg xmlns="http://www.w3.org/2000/svg" xmlns:xlink="http://www.w3.org/1999/xlink" version="1.1" id="mdi-image-filter-center-focus" width="24" height="24" viewBox="0 0 24 24"><path d="M12,9A3,3 0 0,0 9,12A3,3 0 0,0 12,15A3,3 0 0,0 15,12A3,3 0 0,0 12,9M19,19H15V21H19A2,2 0 0,0 21,19V15H19M19,3H15V5H19V9H21V5A2,2 0 0,0 19,3M5,5H9V3H5A2,2 0 0,0 3,5V9H5M5,15H3V19A2,2 0 0,0 5,21H9V19H5V15Z" /></svg>