<?xml version="1.0" encoding="UTF-8"?><!DOCTYPE svg PUBLIC "-//W3C//DTD SVG 1.1//EN" "http://www.w3.org/Graphics/SVG/1.1/DTD/svg11.dtd"><svg xmlns="http://www.w3.org/2000/svg" xmlns:xlink="http://www.w3.org/1999/xlink" version="1.1" id="mdi-image-edit" width="24" height="24" viewBox="0 0 24 24"><path d="M22.7 14.3L21.7 15.3L19.7 13.3L20.7 12.3C20.8 12.2 20.9 12.1 21.1 12.1C21.2 12.1 21.4 12.2 21.5 12.3L22.8 13.6C22.9 13.8 22.9 14.1 22.7 14.3M13 19.9V22H15.1L21.2 15.9L19.2 13.9L13 19.9M21 5C21 3.9 20.1 3 19 3H5C3.9 3 3 3.9 3 5V19C3 20.1 3.9 21 5 21H11V19.1L12.1 18H5L8.5 13.5L11 16.5L14.5 12L16.1 14.1L21 9.1V5Z" /></svg>