<?xml version="1.0" encoding="UTF-8"?><!DOCTYPE svg PUBLIC "-//W3C//DTD SVG 1.1//EN" "http://www.w3.org/Graphics/SVG/1.1/DTD/svg11.dtd"><svg xmlns="http://www.w3.org/2000/svg" xmlns:xlink="http://www.w3.org/1999/xlink" version="1.1" id="mdi-inbox-arrow-up-outline" width="24" height="24" viewBox="0 0 24 24"><path d="M19 3H5A2 2 0 0 0 3 5V19A2 2 0 0 0 5 21H19A2 2 0 0 0 21 19V5A2 2 0 0 0 19 3M5 19V17H8.13A4.13 4.13 0 0 0 9.4 19M19 19H14.6A4.13 4.13 0 0 0 15.87 17H19M19 15H14V16A2 2 0 0 1 10 16V15H5V5H19M8 11H10V14H14V11H16L12 7" /></svg>