<?xml version="1.0" encoding="UTF-8"?><!DOCTYPE svg PUBLIC "-//W3C//DTD SVG 1.1//EN" "http://www.w3.org/Graphics/SVG/1.1/DTD/svg11.dtd"><svg xmlns="http://www.w3.org/2000/svg" xmlns:xlink="http://www.w3.org/1999/xlink" version="1.1" id="mdi-karate" width="24" height="24" viewBox="0 0 24 24"><path d="M19,1.27C18.04,0.72 16.82,1.04 16.27,2C15.71,2.95 16.04,4.18 17,4.73C17.95,5.28 19.17,4.96 19.73,4C20.28,3.04 19.95,1.82 19,1.27M21.27,9.34L18.7,13.79L16.96,12.79L18.69,9.79L17.14,8.5L14,13.92V22H12V13.39L2.47,7.89L3.47,6.16L11.27,10.66L13.67,6.5L7.28,4.17L8,2.29L14.73,4.74L15,4.84C15.39,5 15.76,5.15 16.12,5.35L16.96,5.84C17.31,6.04 17.65,6.28 17.96,6.54L18.19,6.74L21.27,9.34Z" /></svg>