<?xml version="1.0" encoding="UTF-8"?><!DOCTYPE svg PUBLIC "-//W3C//DTD SVG 1.1//EN" "http://www.w3.org/Graphics/SVG/1.1/DTD/svg11.dtd"><svg xmlns="http://www.w3.org/2000/svg" xmlns:xlink="http://www.w3.org/1999/xlink" version="1.1" id="mdi-kettlebell" width="24" height="24" viewBox="0 0 24 24"><path d="M16.2 10.7L16.8 8.3C16.9 8 17.3 6.6 16.5 5.4C15.9 4.5 14.7 4 13 4H11C9.3 4 8.1 4.5 7.5 5.4C6.7 6.6 7.1 7.9 7.2 8.3L7.8 10.7C6.7 11.8 6 13.3 6 15C6 17.1 7.1 18.9 8.7 20H15.3C16.9 18.9 18 17.1 18 15C18 13.3 17.3 11.8 16.2 10.7M9.6 9.5L9.1 7.8V7.7C9.1 7.7 8.9 7 9.2 6.6C9.4 6.2 10 6 11 6H13C13.9 6 14.6 6.2 14.9 6.5C15.2 6.9 15 7.6 15 7.6L14.5 9.5C13.7 9.2 12.9 9 12 9C11.1 9 10.3 9.2 9.6 9.5Z" /></svg>