<?xml version="1.0" encoding="UTF-8"?><!DOCTYPE svg PUBLIC "-//W3C//DTD SVG 1.1//EN" "http://www.w3.org/Graphics/SVG/1.1/DTD/svg11.dtd"><svg xmlns="http://www.w3.org/2000/svg" xmlns:xlink="http://www.w3.org/1999/xlink" version="1.1" id="mdi-klingon" width="24" height="24" viewBox="0 0 24 24"><path d="M4.79 21.5L4.71 21.24C4.53 20.65 4.47 20.08 4.5 19.4C4.6 18.17 5.14 17.31 5.82 16.59C5.64 16 5.53 15.39 5.53 14.74C5.53 13 6.26 11.44 7.45 10.3C8.33 9.46 9.46 8.86 10.71 8.6C11.37 6.23 11.8 3.8 12 1.5C12.24 3.5 12.65 6.12 13.3 8.58C14.6 8.82 15.76 9.43 16.67 10.3C17.85 11.44 18.59 13 18.59 14.74C18.59 15.35 18.5 15.93 18.33 16.5C19.21 16.92 20.2 17.17 21.5 17.29L21.44 17.44C21.32 17.77 21 18 20.71 18.18L20.69 18.19C20.13 18.57 19.18 19 17.85 19C17.7 19 17.56 19 17.41 19C17.23 19 17.06 18.97 16.9 18.95C16.83 19 16.75 19.1 16.67 19.18C15.5 20.31 13.86 21 12.06 21C10.27 21 8.64 20.31 7.46 19.18C7.42 19.14 7.38 19.1 7.34 19.06C6.34 19.59 5.54 20.33 4.94 21.27L4.8 21.5M6.5 15.94C6.65 15.82 8.2 14.5 8.63 13.78L8.73 13.61C9.65 15 10.4 16.28 11.43 18.08L11.22 18.09C10.08 18.16 9.05 18.37 8.15 18.7C9.17 19.62 10.55 20.19 12.06 20.19C13.54 20.19 14.88 19.65 15.89 18.77C15.64 18.72 15.39 18.65 15.15 18.59C14.38 18.41 13.65 18.22 12.81 18.19L12.62 18.18L12.7 18C13.1 17.2 14.8 14.41 15.23 13.63L15.34 13.81C16 14.77 16.73 15.5 17.58 16.07C17.69 15.64 17.75 15.2 17.75 14.75C17.75 13.25 17.11 11.89 16.09 10.9C15.4 10.24 14.53 9.74 13.55 9.5C13.85 10.5 14.2 11.5 14.59 12.35L14.62 12.4L14.59 12.46C14.2 13.22 13.76 13.95 13.33 14.66C12.94 15.3 12.54 15.96 12.18 16.64L12.08 16.83L11.96 16.65C11.39 15.82 9.75 13.06 9.41 12.5C9.81 11.5 10.15 10.5 10.45 9.5C9.5 9.78 8.7 10.26 8.03 10.9C7 11.88 6.37 13.25 6.37 14.74C6.37 15.16 6.42 15.56 6.5 15.95" /></svg>