<?xml version="1.0" encoding="UTF-8"?><!DOCTYPE svg PUBLIC "-//W3C//DTD SVG 1.1//EN" "http://www.w3.org/Graphics/SVG/1.1/DTD/svg11.dtd"><svg xmlns="http://www.w3.org/2000/svg" xmlns:xlink="http://www.w3.org/1999/xlink" version="1.1" id="mdi-kubernetes" width="24" height="24" viewBox="0 0 24 24"><path d="M13.95 13.5H13.72C13.54 13.61 13.46 13.82 13.54 14L14.4 16.11C15.23 15.58 15.86 14.79 16.19 13.86L13.96 13.5H13.95M10.5 13.79C10.44 13.62 10.29 13.5 10.12 13.5H10.04L7.82 13.87C8.15 14.79 8.78 15.57 9.61 16.1L10.46 14.03V14C10.5 13.95 10.5 13.86 10.5 13.79M12.33 14.6C12.23 14.42 12 14.35 11.82 14.45C11.75 14.5 11.7 14.53 11.67 14.6H11.66L10.57 16.57C11.35 16.83 12.19 16.88 13 16.69C13.14 16.66 13.29 16.62 13.43 16.57L12.34 14.6H12.33M15.78 10.03L14.1 11.5L14.11 11.53C13.95 11.67 13.93 11.91 14.07 12.06C14.12 12.12 14.18 12.16 14.25 12.18L14.26 12.19L16.43 12.81C16.5 11.84 16.29 10.86 15.78 10.03M12.67 10.19C12.68 10.4 12.85 10.56 13.06 10.55C13.14 10.55 13.21 10.53 13.27 10.5H13.28L15.11 9.19C14.41 8.5 13.5 8.07 12.54 7.95L12.67 10.19M10.73 10.5C10.9 10.61 11.13 10.58 11.25 10.41C11.3 10.35 11.32 10.28 11.33 10.2H11.34L11.46 7.95C11.31 7.97 11.16 8 11 8.03C10.2 8.21 9.46 8.61 8.88 9.19L10.72 10.5H10.73M9.74 12.19C9.94 12.14 10.06 11.93 10 11.73C10 11.65 9.95 11.59 9.89 11.54V11.53L8.21 10C7.69 10.86 7.47 11.84 7.58 12.82L9.74 12.2V12.19M11.38 12.85L12 13.15L12.62 12.85L12.77 12.18L12.34 11.65H11.65L11.22 12.18L11.38 12.85M22.27 14.17L20.5 6.5C20.41 6.08 20.13 5.74 19.76 5.56L12.59 2.13C12.22 1.96 11.78 1.96 11.4 2.13L4.24 5.56C3.87 5.74 3.59 6.08 3.5 6.5L1.73 14.17C1.68 14.37 1.68 14.57 1.73 14.76C1.74 14.82 1.76 14.88 1.78 14.94C1.81 15.03 1.86 15.13 1.91 15.21C1.94 15.25 1.96 15.29 2 15.32L6.95 21.5C6.97 21.5 7 21.54 7 21.56C7.1 21.65 7.19 21.72 7.28 21.78C7.4 21.86 7.54 21.92 7.68 21.95C7.79 22 7.91 22 8 22H16.12C16.19 22 16.26 21.97 16.32 21.95C16.37 21.94 16.42 21.92 16.46 21.91C16.5 21.89 16.53 21.88 16.57 21.86C16.62 21.84 16.67 21.81 16.72 21.78C16.84 21.7 16.95 21.6 17.05 21.5L17.2 21.3L22 15.32C22.1 15.2 22.17 15.07 22.22 14.94C22.24 14.88 22.26 14.82 22.27 14.76C22.32 14.57 22.32 14.36 22.27 14.17M14.84 17.16C14.86 17.22 14.88 17.28 14.91 17.33C14.87 17.41 14.85 17.5 14.88 17.59C15 17.83 15.11 18.05 15.26 18.27C15.34 18.38 15.42 18.5 15.5 18.61C15.5 18.64 15.53 18.69 15.54 18.73C15.66 18.93 15.6 19.19 15.39 19.32S14.92 19.37 14.8 19.17C14.79 19.14 14.78 19.12 14.77 19.09C14.75 19.06 14.73 19 14.71 19C14.66 18.85 14.62 18.72 14.59 18.59C14.5 18.34 14.42 18.1 14.29 17.87C14.24 17.8 14.16 17.75 14.08 17.73L14 17.57C12.71 18.05 11.3 18.05 10.03 17.56L9.93 17.74C9.86 17.75 9.79 17.78 9.74 17.83C9.6 18.07 9.5 18.32 9.41 18.6C9.38 18.73 9.34 18.86 9.29 19C9.27 19 9.25 19.07 9.23 19.1C9.15 19.32 8.91 19.44 8.68 19.36C8.46 19.28 8.34 19.04 8.42 18.81C8.43 18.78 8.45 18.76 8.46 18.73C8.5 18.7 8.5 18.65 8.5 18.62C8.59 18.5 8.66 18.39 8.74 18.27C8.9 18.06 9.03 17.82 9.13 17.58C9.14 17.5 9.13 17.41 9.1 17.33L9.17 17.15C8 16.45 7.12 15.36 6.7 14.06L6.5 14.09C6.44 14.04 6.35 14 6.27 14C6 14.05 5.76 14.13 5.5 14.22C5.39 14.28 5.26 14.33 5.13 14.37C5.1 14.38 5.06 14.39 5 14.4C4.78 14.47 4.54 14.35 4.46 14.13C4.39 13.9 4.5 13.66 4.74 13.58C4.76 13.58 4.79 13.57 4.82 13.57V13.56H4.83L4.94 13.54C5.08 13.5 5.22 13.5 5.35 13.5C5.61 13.5 5.87 13.44 6.12 13.38C6.2 13.33 6.26 13.27 6.31 13.19L6.5 13.14C6.29 11.78 6.6 10.41 7.36 9.27L7.22 9.15C7.22 9.06 7.19 8.97 7.14 8.9C6.94 8.73 6.73 8.58 6.5 8.45C6.38 8.39 6.26 8.32 6.14 8.24C6.12 8.22 6.08 8.19 6.06 8.17L6.05 8.16C5.85 8 5.8 7.74 5.94 7.53C6.03 7.43 6.15 7.38 6.29 7.38C6.4 7.39 6.5 7.43 6.59 7.5L6.68 7.57C6.78 7.66 6.87 7.77 6.96 7.87C7.14 8.06 7.33 8.24 7.54 8.39C7.62 8.43 7.71 8.44 7.8 8.42L7.95 8.53C8.7 7.73 9.68 7.17 10.75 6.93C11 6.87 11.27 6.83 11.53 6.81L11.54 6.63C11.61 6.57 11.65 6.5 11.68 6.4C11.69 6.14 11.67 5.88 11.63 5.63C11.6 5.5 11.58 5.36 11.57 5.22V5.1C11.55 4.86 11.72 4.65 11.96 4.62S12.4 4.77 12.43 5V5.22C12.42 5.36 12.4 5.5 12.37 5.63C12.33 5.88 12.31 6.14 12.32 6.4C12.34 6.5 12.39 6.57 12.46 6.62L12.47 6.81C13.83 6.93 15.09 7.54 16.03 8.53L16.19 8.41C16.28 8.43 16.37 8.42 16.45 8.38C16.66 8.23 16.86 8.05 17.03 7.86C17.12 7.76 17.21 7.66 17.31 7.56C17.34 7.54 17.38 7.5 17.41 7.5C17.58 7.32 17.85 7.32 18 7.5C18.19 7.66 18.18 7.93 18 8.1C18 8.12 17.97 8.14 17.94 8.16C17.92 8.18 17.88 8.21 17.85 8.23C17.74 8.31 17.62 8.38 17.5 8.44C17.27 8.57 17.05 8.72 16.86 8.89C16.8 8.96 16.77 9.04 16.78 9.13L16.62 9.27C17.39 10.4 17.7 11.78 17.5 13.13L17.69 13.18C17.73 13.26 17.8 13.32 17.88 13.36C18.13 13.43 18.39 13.47 18.65 13.5H19.06C19.09 13.53 19.14 13.54 19.18 13.55C19.42 13.58 19.58 13.8 19.55 14.04C19.5 14.27 19.31 14.44 19.07 14.41C19.04 14.4 19 14.4 19 14.39V14.38C18.94 14.38 18.9 14.37 18.86 14.36C18.73 14.32 18.61 14.27 18.5 14.21C18.24 14.11 18 14.04 17.73 14C17.64 14 17.56 14 17.5 14.08C17.43 14.07 17.37 14.06 17.31 14.05C16.9 15.36 16 16.46 14.84 17.16Z" /></svg>