<?xml version="1.0" encoding="UTF-8"?><!DOCTYPE svg PUBLIC "-//W3C//DTD SVG 1.1//EN" "http://www.w3.org/Graphics/SVG/1.1/DTD/svg11.dtd"><svg xmlns="http://www.w3.org/2000/svg" xmlns:xlink="http://www.w3.org/1999/xlink" version="1.1" id="mdi-language-markdown" width="24" height="24" viewBox="0 0 24 24"><path d="M20.56 18H3.44C2.65 18 2 17.37 2 16.59V7.41C2 6.63 2.65 6 3.44 6H20.56C21.35 6 22 6.63 22 7.41V16.59C22 17.37 21.35 18 20.56 18M6.81 15.19V11.53L8.73 13.88L10.65 11.53V15.19H12.58V8.81H10.65L8.73 11.16L6.81 8.81H4.89V15.19H6.81M19.69 12H17.77V8.81H15.85V12H13.92L16.81 15.28L19.69 12Z" /></svg>