<?xml version="1.0" encoding="UTF-8"?><!DOCTYPE svg PUBLIC "-//W3C//DTD SVG 1.1//EN" "http://www.w3.org/Graphics/SVG/1.1/DTD/svg11.dtd"><svg xmlns="http://www.w3.org/2000/svg" xmlns:xlink="http://www.w3.org/1999/xlink" version="1.1" id="mdi-leak" width="24" height="24" viewBox="0 0 24 24"><path d="M6,3H3V6A3,3 0 0,0 6,3M14,3H12A9,9 0 0,1 3,12V14C9.08,14 14,9.07 14,3M10,3H8A5,5 0 0,1 3,8V10A7,7 0 0,0 10,3M10,21H12A9,9 0 0,1 21,12V10A11,11 0 0,0 10,21M18,21H21V18A3,3 0 0,0 18,21M14,21H16A5,5 0 0,1 21,16V14A7,7 0 0,0 14,21Z" /></svg>