<?xml version="1.0" encoding="UTF-8"?><!DOCTYPE svg PUBLIC "-//W3C//DTD SVG 1.1//EN" "http://www.w3.org/Graphics/SVG/1.1/DTD/svg11.dtd"><svg xmlns="http://www.w3.org/2000/svg" xmlns:xlink="http://www.w3.org/1999/xlink" version="1.1" id="mdi-led-on" width="24" height="24" viewBox="0 0 24 24"><path d="M11,0V4H13V0H11M18.3,2.29L15.24,5.29L16.64,6.71L19.7,3.71L18.3,2.29M5.71,2.29L4.29,3.71L7.29,6.71L8.71,5.29L5.71,2.29M12,6A4,4 0 0,0 8,10V16H6V18H9V23H11V18H13V23H15V18H18V16H16V10A4,4 0 0,0 12,6M2,9V11H6V9H2M18,9V11H22V9H18Z" /></svg>