<?xml version="1.0" encoding="UTF-8"?><!DOCTYPE svg PUBLIC "-//W3C//DTD SVG 1.1//EN" "http://www.w3.org/Graphics/SVG/1.1/DTD/svg11.dtd"><svg xmlns="http://www.w3.org/2000/svg" xmlns:xlink="http://www.w3.org/1999/xlink" version="1.1" id="mdi-led-strip-variant" width="24" height="24" viewBox="0 0 24 24"><path d="M2.95 3L2 6.91L19.34 11.25L20.29 7.34L2.95 3M6.09 6.89L4.16 6.41L4.64 4.46L6.57 4.94L6.09 6.89M9.94 7.86L8 7.38L8.5 5.42L10.42 5.91L9.94 7.86M13.8 8.82L11.87 8.34L12.35 6.39L14.27 6.87L13.8 8.82M17.65 9.79L15.72 9.31L16.2 7.35L18.13 7.84L17.65 9.79M4.66 12.75L3.71 16.66L21.05 21L22 17.1L4.66 12.75M7.8 16.65L5.88 16.16L6.35 14.21L8.28 14.69L7.8 16.65M11.65 17.61L9.73 17.13L10.2 15.18L12.13 15.66L11.65 17.61M15.5 18.58L13.58 18.09L14.06 16.14L16 16.62L15.5 18.58M19.36 19.54L17.43 19.06L17.91 17.11L19.84 17.59L19.36 19.54M6.25 12.11L11 10.2L17.75 11.89L13 13.8L6.25 12.11Z" /></svg>