<svg xmlns="http://www.w3.org/2000/svg" viewBox="0 0 24 24"><path d="M19.79 15.41c.95-2.17.95-4.66 0-6.82l-2.74 1.24c.6 1.38.6 2.95.01 4.34l2.73 1.24m-4.37-11.2a8.54 8.54 0 00-6.83 0l1.24 2.73c1.39-.59 2.96-.59 4.35.01l1.24-2.74M4.21 8.58a8.564 8.564 0 000 6.84l2.74-1.25c-.6-1.38-.6-2.96 0-4.35L4.21 8.58m4.38 11.21a8.5 8.5 0 006.83-.01l-1.24-2.73a5.5 5.5 0 01-4.34.01l-1.25 2.73M12 2a10 10 0 0110 10 10 10 0 01-10 10A10 10 0 012 12 10 10 0 0112 2m0 6a4 4 0 00-4 4 4 4 0 004 4 4 4 0 004-4 4 4 0 00-4-4z"/></svg>