<svg xmlns="http://www.w3.org/2000/svg" viewBox="0 0 24 24"><path d="M19.79,15.41C20.74,13.24 20.74,10.75 19.79,8.59L17.05,9.83C17.65,11.21 17.65,12.78 17.06,14.17L19.79,15.41M15.42,4.21C13.25,3.26 10.76,3.26 8.59,4.21L9.83,6.94C11.22,6.35 12.79,6.35 14.18,6.95L15.42,4.21M4.21,8.58C3.26,10.76 3.26,13.24 4.21,15.42L6.95,14.17C6.35,12.79 6.35,11.21 6.95,9.82L4.21,8.58M8.59,19.79C10.76,20.74 13.25,20.74 15.42,19.78L14.18,17.05C12.8,17.65 11.22,17.65 9.84,17.06L8.59,19.79M12,2A10,10 0 0,1 22,12A10,10 0 0,1 12,22A10,10 0 0,1 2,12A10,10 0 0,1 12,2M12,8A4,4 0 0,0 8,12A4,4 0 0,0 12,16A4,4 0 0,0 16,12A4,4 0 0,0 12,8Z" /></svg>