<?xml version="1.0" encoding="UTF-8"?><!DOCTYPE svg PUBLIC "-//W3C//DTD SVG 1.1//EN" "http://www.w3.org/Graphics/SVG/1.1/DTD/svg11.dtd"><svg xmlns="http://www.w3.org/2000/svg" xmlns:xlink="http://www.w3.org/1999/xlink" version="1.1" id="mdi-lightbulb-cfl" width="24" height="24" viewBox="0 0 24 24"><path d="M10.5 2C11.88 2 13 3.12 13 4.5V14H14V4.47C14 3.56 13.63 2.7 13 2.05C13.17 2 13.33 2 13.5 2C14.88 2 16 3.12 16 4.5V14H17V17C17 17.55 16.55 18 16 18H8C7.45 18 7 17.55 7 17V14H8V4.5C8 3.12 9.12 2 10.5 2M10.5 4C10.22 4 10 4.22 10 4.5V14H11V4.5C11 4.22 10.78 4 10.5 4M9 20H15V21C15 21.55 14.55 22 14 22H10C9.45 22 9 21.55 9 21V20Z" /></svg>