<?xml version="1.0" encoding="UTF-8"?><!DOCTYPE svg PUBLIC "-//W3C//DTD SVG 1.1//EN" "http://www.w3.org/Graphics/SVG/1.1/DTD/svg11.dtd"><svg xmlns="http://www.w3.org/2000/svg" xmlns:xlink="http://www.w3.org/1999/xlink" version="1.1" id="mdi-lightbulb-group" width="24" height="24" viewBox="0 0 24 24"><path d="M15 14V16A1 1 0 0 1 14 17H10A1 1 0 0 1 9 16V14A5 5 0 1 1 15 14M14 18H10V19A1 1 0 0 0 11 20H13A1 1 0 0 0 14 19M7 19V18H5V19A1 1 0 0 0 6 20H7.17A2.93 2.93 0 0 1 7 19M5 10A6.79 6.79 0 0 1 5.68 7A4 4 0 0 0 4 14.45V16A1 1 0 0 0 5 17H7V14.88A6.92 6.92 0 0 1 5 10M17 18V19A2.93 2.93 0 0 1 16.83 20H18A1 1 0 0 0 19 19V18M18.32 7A6.79 6.79 0 0 1 19 10A6.92 6.92 0 0 1 17 14.88V17H19A1 1 0 0 0 20 16V14.45A4 4 0 0 0 18.32 7Z" /></svg>