<?xml version="1.0" encoding="UTF-8"?><!DOCTYPE svg PUBLIC "-//W3C//DTD SVG 1.1//EN" "http://www.w3.org/Graphics/SVG/1.1/DTD/svg11.dtd"><svg xmlns="http://www.w3.org/2000/svg" xmlns:xlink="http://www.w3.org/1999/xlink" version="1.1" id="mdi-lipstick" width="24" height="24" viewBox="0 0 24 24"><path d="M9 23C8.45 23 8 22.55 8 22V13C8 12.45 8.45 12 9 12H15C15.55 12 16 12.45 16 13V22C16 22.55 15.55 23 15 23H9M10 11C9.45 11 9 10.55 9 10V5.25C9 5.25 11 3 11.75 1C12.83 1.67 13.92 2.33 14.46 3.83C15 5.33 15 7.67 15 10C15 10.55 14.55 11 14 11H10Z" /></svg>