<?xml version="1.0" encoding="UTF-8"?><!DOCTYPE svg PUBLIC "-//W3C//DTD SVG 1.1//EN" "http://www.w3.org/Graphics/SVG/1.1/DTD/svg11.dtd"><svg xmlns="http://www.w3.org/2000/svg" xmlns:xlink="http://www.w3.org/1999/xlink" version="1.1" id="mdi-lock-open-alert" width="24" height="24" viewBox="0 0 24 24"><path d="M6 6C6 3.79 7.79 2 10 2C12.21 2 14 3.79 14 6V9H15C16.11 9 17 9.9 17 11V19C17 20.11 16.11 21 15 21H5C3.9 21 3 20.11 3 19V11C3 9.9 3.9 9 5 9H12V6C12 4.89 11.11 4 10 4C8.9 4 8 4.89 8 6V7H6V6M19 9H21V14H19V9M19 16H21V18H19V16M10 13C8.9 13 8 13.9 8 15C8 16.11 8.9 17 10 17C11.11 17 12 16.11 12 15C12 13.9 11.11 13 10 13Z" /></svg>