<?xml version="1.0" encoding="UTF-8"?><!DOCTYPE svg PUBLIC "-//W3C//DTD SVG 1.1//EN" "http://www.w3.org/Graphics/SVG/1.1/DTD/svg11.dtd"><svg xmlns="http://www.w3.org/2000/svg" xmlns:xlink="http://www.w3.org/1999/xlink" version="1.1" id="mdi-map-plus" width="24" height="24" viewBox="0 0 24 24"><path d="M9,3L3.36,4.9C3.16,4.97 3,5.15 3,5.38V20.5A0.5,0.5 0 0,0 3.5,21C3.55,21 3.6,21 3.66,20.97L9,18.9L13.16,20.36C13.06,19.92 13,19.46 13,19C13,18.77 13,18.54 13.04,18.3L9,16.9V5L15,7.1V14.56C16.07,13.6 17.47,13 19,13C19.7,13 20.37,13.13 21,13.36V3.5A0.5,0.5 0 0,0 20.5,3H20.34L15,5.1L9,3M18,15V18H15V20H18V23H20V20H23V18H20V15H18Z" /></svg>