<?xml version="1.0" encoding="UTF-8"?><!DOCTYPE svg PUBLIC "-//W3C//DTD SVG 1.1//EN" "http://www.w3.org/Graphics/SVG/1.1/DTD/svg11.dtd"><svg xmlns="http://www.w3.org/2000/svg" xmlns:xlink="http://www.w3.org/1999/xlink" version="1.1" id="mdi-map-marker-minus" width="24" height="24" viewBox="0 0 24 24"><path d="M9,11.5A2.5,2.5 0 0,0 11.5,9A2.5,2.5 0 0,0 9,6.5A2.5,2.5 0 0,0 6.5,9A2.5,2.5 0 0,0 9,11.5M9,2C12.86,2 16,5.13 16,9C16,14.25 9,22 9,22C9,22 2,14.25 2,9A7,7 0 0,1 9,2M15,17H23V19H15V17Z" /></svg>