<?xml version="1.0" encoding="UTF-8"?><!DOCTYPE svg PUBLIC "-//W3C//DTD SVG 1.1//EN" "http://www.w3.org/Graphics/SVG/1.1/DTD/svg11.dtd"><svg xmlns="http://www.w3.org/2000/svg" xmlns:xlink="http://www.w3.org/1999/xlink" version="1.1" id="mdi-map-marker-radius-outline" width="24" height="24" viewBox="0 0 24 24"><path d="M12 4C14.2 4 16 5.8 16 8C16 10.1 13.9 13.5 12 15.9C10.1 13.4 8 10.1 8 8C8 5.8 9.8 4 12 4M12 2C8.7 2 6 4.7 6 8C6 12.5 12 19 12 19S18 12.4 18 8C18 4.7 15.3 2 12 2M12 6C10.9 6 10 6.9 10 8S10.9 10 12 10 14 9.1 14 8 13.1 6 12 6M20 19C20 21.2 16.4 23 12 23S4 21.2 4 19C4 17.7 5.2 16.6 7.1 15.8L7.7 16.7C6.7 17.2 6 17.8 6 18.5C6 19.9 8.7 21 12 21S18 19.9 18 18.5C18 17.8 17.3 17.2 16.2 16.7L16.8 15.8C18.8 16.6 20 17.7 20 19Z" /></svg>