<?xml version="1.0" encoding="UTF-8"?><!DOCTYPE svg PUBLIC "-//W3C//DTD SVG 1.1//EN" "http://www.w3.org/Graphics/SVG/1.1/DTD/svg11.dtd"><svg xmlns="http://www.w3.org/2000/svg" xmlns:xlink="http://www.w3.org/1999/xlink" version="1.1" id="mdi-math-integral" width="24" height="24" viewBox="0 0 24 24"><path d="M11.5 19.1C11.3 20.2 10.9 21 10.2 21.5C9.5 22 8.6 22.1 7.5 21.9C7.1 21.8 6.3 21.7 6 21.5L6.5 20C6.8 20.1 7.4 20.3 7.7 20.3C8.8 20.5 9.4 20 9.6 18.8L12 5.2C12.2 4 12.7 3.2 13.4 2.6C14.1 2.1 15.1 1.9 16.2 2.1C16.6 2.2 17.4 2.3 18 2.6L17.5 4C17.3 3.9 16.6 3.8 16.3 3.7C15 3.5 14.3 4.1 14 5.6L11.5 19.1Z" /></svg>