<?xml version="1.0" encoding="UTF-8"?><!DOCTYPE svg PUBLIC "-//W3C//DTD SVG 1.1//EN" "http://www.w3.org/Graphics/SVG/1.1/DTD/svg11.dtd"><svg xmlns="http://www.w3.org/2000/svg" xmlns:xlink="http://www.w3.org/1999/xlink" version="1.1" id="mdi-math-cos" width="24" height="24" viewBox="0 0 24 24"><path d="M4,7A2,2 0 0,0 2,9V15A2,2 0 0,0 4,17H6A2,2 0 0,0 8,15V14H6V15H4V9H6V10H8V9A2,2 0 0,0 6,7H4M11,7A2,2 0 0,0 9,9V15A2,2 0 0,0 11,17H13A2,2 0 0,0 15,15V9A2,2 0 0,0 13,7H11M11,9H13V15H11V9M18,7A2,2 0 0,0 16,9V11A2,2 0 0,0 18,13H20V15H16V17H20A2,2 0 0,0 22,15V13A2,2 0 0,0 20,11H18V9H22V7H18Z" /></svg>