<?xml version="1.0" encoding="UTF-8"?><!DOCTYPE svg PUBLIC "-//W3C//DTD SVG 1.1//EN" "http://www.w3.org/Graphics/SVG/1.1/DTD/svg11.dtd"><svg xmlns="http://www.w3.org/2000/svg" xmlns:xlink="http://www.w3.org/1999/xlink" version="1.1" id="mdi-medal-outline" width="24" height="24" viewBox="0 0 24 24"><path d="M14.94 19.5L12 17.77L9.06 19.5L9.84 16.16L7.25 13.92L10.66 13.63L12 10.5L13.34 13.63L16.75 13.92L14.16 16.16M20 2H4V4L8.86 7.64A8 8 0 1 0 15.14 7.64L20 4M18 15A6 6 0 1 1 10.82 9.12A5.86 5.86 0 0 1 13.18 9.12A6 6 0 0 1 18 15M12.63 7H11.37L7.37 4H16.71Z" /></svg>