<?xml version="1.0" encoding="UTF-8"?><!DOCTYPE svg PUBLIC "-//W3C//DTD SVG 1.1//EN" "http://www.w3.org/Graphics/SVG/1.1/DTD/svg11.dtd"><svg xmlns="http://www.w3.org/2000/svg" xmlns:xlink="http://www.w3.org/1999/xlink" version="1.1" id="mdi-metronome" width="24" height="24" viewBox="0 0 24 24"><path d="M12,1.75L8.57,2.67L4.06,19.53C4.03,19.68 4,19.84 4,20C4,21.11 4.89,22 6,22H18C19.11,22 20,21.11 20,20C20,19.84 19.97,19.68 19.94,19.53L18.58,14.42L17,16L17.2,17H13.41L16.25,14.16L14.84,12.75L10.59,17H6.8L10.29,4H13.71L15.17,9.43L16.8,7.79L15.43,2.67L12,1.75M11.25,5V14.75L12.75,13.25V5H11.25M19.79,7.8L16.96,10.63L16.25,9.92L14.84,11.34L17.66,14.16L19.08,12.75L18.37,12.04L21.2,9.21L19.79,7.8Z" /></svg>