<?xml version="1.0" encoding="UTF-8"?><!DOCTYPE svg PUBLIC "-//W3C//DTD SVG 1.1//EN" "http://www.w3.org/Graphics/SVG/1.1/DTD/svg11.dtd"><svg xmlns="http://www.w3.org/2000/svg" xmlns:xlink="http://www.w3.org/1999/xlink" version="1.1" id="mdi-microsoft-xbox-controller" width="24" height="24" viewBox="0 0 24 24"><path d="M8.75,15.75C6.75,15.75 6,18 4,19C2,19 0.5,16 4.5,7.5H4.75L5.19,6.67C5.19,6.67 8,5 9.33,6.23H14.67C16,5 18.81,6.67 18.81,6.67L19.25,7.5H19.5C23.5,16 22,19 20,19C18,18 17.25,15.75 15.25,15.75H8.75M12,7A1,1 0 0,0 11,8A1,1 0 0,0 12,9A1,1 0 0,0 13,8A1,1 0 0,0 12,7Z" /></svg>