<?xml version="1.0" encoding="UTF-8"?><!DOCTYPE svg PUBLIC "-//W3C//DTD SVG 1.1//EN" "http://www.w3.org/Graphics/SVG/1.1/DTD/svg11.dtd"><svg xmlns="http://www.w3.org/2000/svg" xmlns:xlink="http://www.w3.org/1999/xlink" version="1.1" id="mdi-microsoft-outlook" width="24" height="24" viewBox="0 0 24 24"><path d="M8.56 12.03Q8.56 12.41 8.5 12.76 8.39 13.1 8.2 13.38 8 13.65 7.71 13.81 7.41 13.97 7 13.97 6.58 13.97 6.29 13.8 6 13.63 5.81 13.35 5.62 13.07 5.54 12.72 5.45 12.37 5.45 12 5.45 11.64 5.54 11.28 5.62 10.93 5.81 10.65 6 10.37 6.31 10.2 6.61 10.03 7.03 10.03 7.46 10.03 7.75 10.2 8.05 10.38 8.23 10.66 8.41 10.95 8.5 11.3 8.56 11.66 8.56 12.03M22 12V19.81Q22 20.2 21.73 20.5 21.45 20.75 21.06 20.75H7.94Q7.55 20.75 7.27 20.5 7 20.2 7 19.81V17H2.83Q2.5 17 2.24 16.76 2 16.5 2 16.17V7.83Q2 7.5 2.24 7.24 2.5 7 2.83 7H8.25V4.13Q8.25 3.76 8.5 3.5 8.76 3.25 9.13 3.25H19.87Q20.24 3.25 20.5 3.5 20.75 3.76 20.75 4.13V11.04L21.79 11.64H21.8Q21.88 11.7 21.94 11.8 22 11.89 22 12M17 5.13V7.63H19.5V5.13M17 8.88V11.38H19.5V8.88M17 12.63V14.15L19.54 12.63M12.63 5.13V7.63H15.75V5.13M12.63 8.88V11.38H15.75V8.88M12.63 12.63V14.32L14.64 15.56L15.75 14.9V12.63M9.5 5.13V7H11.27Q11.33 7 11.38 7.04V5.12M7 15.32Q7.73 15.32 8.32 15.06 8.9 14.8 9.31 14.35 9.71 13.9 9.91 13.28 10.12 12.66 10.13 11.94 10.13 11.25 9.92 10.65 9.72 10.06 9.32 9.62 8.93 9.18 8.37 8.93 7.8 8.68 7.08 8.68 6.31 8.68 5.71 8.93 5.12 9.18 4.71 9.63 4.3 10.09 4.09 10.71 3.88 11.34 3.88 12.08 3.88 12.78 4.09 13.38 4.31 13.97 4.71 14.4 5.11 14.83 5.68 15.08 6.26 15.32 7 15.32M8.25 19.5H18.57L12 15.4V16.17Q12 16.5 11.76 16.76 11.5 17 11.17 17H8.25M20.75 19.39V13.36L15.83 16.31Z" /></svg>