<svg xmlns="http://www.w3.org/2000/svg" viewBox="0 0 24 24"><path d="M22 12q0 .43-.03.94-.02.51-.08 1.03-.05.53-.13 1.03t-.2.89q-.06.18-.18.3-.14.11-.34.11-.09 0-.38-.07-.29-.07-.63-.16l-.64-.19q-.3-.09-.43-.12-.21.78-.55 1.62-.33.83-.76 1.62-.43.8-.95 1.5-.52.75-1.09 1.32l-.18.13q-.1.05-.22.05-.21 0-.37-.16l-4.74-4.73H2.85q-.35 0-.6-.25t-.25-.6V7.74q0-.35.25-.6t.6-.25h7.25l4.73-4.73Q15 2 15.21 2q.12 0 .21.05.08.04.17.13.26.26.49.53.22.29.42.57 1.73 2.27 2.46 5 .18-.05.48-.14.3-.09.62-.18.31-.09.59-.16.27-.06.39-.06.2 0 .34.11.12.12.18.3.12.41.21.9.08.5.14 1.01.05.51.09 1.02V12M9.82 9.37q0-.31-.2-.52-.22-.21-.52-.21-.2 0-.38.1-.17.11-.27.29l-1.3 2.44-1.26-2.44q-.12-.23-.32-.31-.2-.08-.44-.08-.31 0-.52.21-.21.21-.21.51 0 .21.1.37l1.75 3.14q.02.04.04.1.01.06.01.11v1.55q0 .37.26.56.25.17.59.17.24 0 .39-.09.14-.09.22-.24.08-.15.11-.34.03-.19.03-.41 0-.28-.02-.52-.02-.26-.02-.48 0-.14.01-.25.01-.1.06-.18l1.8-3.12q.1-.18.1-.36m5.34-5.74L11.8 7q.2.12.3.31.12.19.12.43v2.33l5.5-1.46Q17.34 7.19 16.71 6q-.63-1.23-1.54-2.37m2.56 11.79-5.51-1.47v2.31q0 .24-.12.43-.1.19-.3.31l3.38 3.37q.89-1.08 1.54-2.33t1.01-2.61v-.01m2.74-.58q.13-.7.19-1.41.06-.7.06-1.43 0-.71-.06-1.41t-.19-1.4q-2.07.55-4.12 1.1-2.05.54-4.13 1.1-.01.16-.01.31v.62l.01.31q2.08.56 4.13 1.1t4.12 1.11z"/></svg>