<svg xmlns="http://www.w3.org/2000/svg" viewBox="0 0 24 24"><path d="M12 2a10 10 0 0110 10 10 10 0 01-10 10A10 10 0 012 12 10 10 0 0112 2m8.18 10c0-3.82-2.63-7.04-6.18-7.93V6h-4V4.07A8.185 8.185 0 003.82 12 8.18 8.18 0 0012 20.18 8.18 8.18 0 0020.18 12M7 10.64A1.36 1.36 0 018.36 12 1.36 1.36 0 017 13.36c-.75 0-1.36-.61-1.36-1.36 0-.75.61-1.36 1.36-1.36m10 0A1.36 1.36 0 0118.36 12 1.36 1.36 0 0117 13.36 1.36 1.36 0 0115.64 12 1.36 1.36 0 0117 10.64m-8.64 3.63a1.37 1.37 0 011.37 1.37c0 .75-.61 1.36-1.37 1.36A1.36 1.36 0 017 15.64c0-.76.61-1.37 1.36-1.37m7.28 0c.75 0 1.36.61 1.36 1.37A1.36 1.36 0 0115.64 17c-.76 0-1.37-.61-1.37-1.36a1.37 1.37 0 011.37-1.37M12 15.64A1.36 1.36 0 0113.36 17 1.36 1.36 0 0112 18.36 1.36 1.36 0 0110.64 17 1.36 1.36 0 0112 15.64z"/></svg>