<svg xmlns="http://www.w3.org/2000/svg" viewBox="0 0 24 24" id="mixcloud"><path d="M21.11,18.5C20.97,18.5 20.83,18.44 20.71,18.36C20.37,18.13 20.28,17.68 20.5,17.34C21.18,16.34 21.54,15.16 21.54,13.93C21.54,12.71 21.18,11.53 20.5,10.5C20.28,10.18 20.37,9.73 20.71,9.5C21.04,9.28 21.5,9.37 21.72,9.7C22.56,10.95 23,12.41 23,13.93C23,15.45 22.56,16.91 21.72,18.16C21.58,18.37 21.35,18.5 21.11,18.5M19,17.29C18.88,17.29 18.74,17.25 18.61,17.17C18.28,16.94 18.19,16.5 18.42,16.15C18.86,15.5 19.1,14.73 19.1,13.93C19.1,13.14 18.86,12.37 18.42,11.71C18.19,11.37 18.28,10.92 18.61,10.69C18.95,10.47 19.4,10.55 19.63,10.89C20.24,11.79 20.56,12.84 20.56,13.93C20.56,15 20.24,16.07 19.63,16.97C19.5,17.18 19.25,17.29 19,17.29M14.9,15.73C15.89,15.73 16.7,14.92 16.7,13.93C16.7,13.17 16.22,12.5 15.55,12.25C15.5,12.55 15.43,12.85 15.34,13.14C15.23,13.44 14.95,13.64 14.64,13.64C14.57,13.64 14.5,13.62 14.41,13.6C14.03,13.47 13.82,13.06 13.95,12.67C14.09,12.24 14.17,11.78 14.17,11.32C14.17,8.93 12.22,7 9.82,7C8.1,7 6.56,8 5.87,9.5C6.54,9.7 7.16,10.04 7.66,10.54C7.95,10.83 7.95,11.29 7.66,11.58C7.38,11.86 6.91,11.86 6.63,11.58C6.17,11.12 5.56,10.86 4.9,10.86C3.56,10.86 2.46,11.96 2.46,13.3C2.46,14.64 3.56,15.73 4.9,15.73H14.9M15.6,10.75C17.06,11.07 18.17,12.37 18.17,13.93C18.17,15.73 16.7,17.19 14.9,17.19H4.9C2.75,17.19 1,15.45 1,13.3C1,11.34 2.45,9.73 4.33,9.45C5.12,7.12 7.33,5.5 9.82,5.5C12.83,5.5 15.31,7.82 15.6,10.75Z" /></svg>