<?xml version="1.0" encoding="UTF-8"?><!DOCTYPE svg PUBLIC "-//W3C//DTD SVG 1.1//EN" "http://www.w3.org/Graphics/SVG/1.1/DTD/svg11.dtd"><svg xmlns="http://www.w3.org/2000/svg" xmlns:xlink="http://www.w3.org/1999/xlink" version="1.1" id="mdi-mixed-reality" width="24" height="24" viewBox="0 0 24 24"><path d="M5,3H19A2,2 0 0,1 21,5V19A2,2 0 0,1 19,21H5C3.89,21 3,20.1 3,19V5A2,2 0 0,1 5,3M8.25,15H9.75L10.75,11.57V15H12.25V9H10L9,12.43L8,9H5.75V15H7.25V11.57L8.25,15M13.5,9V15H15V13H16.15L17,15H18.5L17.6,12.9C18.1,12.65 18.5,12.1 18.5,11.5V10.5C18.5,9.65 17.85,9 17,9H13.5M15,10.5H17V11.5H15V10.5Z" /></svg>