<svg xmlns="http://www.w3.org/2000/svg" viewBox="0 0 24 24"><path d="M23.1 22.5L1.4.7.1 2l1.1 1.1c-.1.3-.2.6-.2.9v12c0 1.1.9 2 2 2h7v2H8v2h4v-6H3V4.9l11 11V21c0 .6.5 1 1 1h5.1l1.7 1.7 1.3-1.2M18.5 21c-1.9 0-3.5-1.6-3.5-3.5 0-.2 0-.4.1-.6l1 1c.2 1 1 1.8 2 2l1 1c-.2.1-.4.1-.6.1m2.5-3.5v.3L18.2 15h.3c1.4 0 2.5 1.1 2.5 2.5m2 2.3V10c0-.6-.5-1-1-1h-7c-.6 0-1 .5-1 1v.8l3.4 3.4c.3-.1.7-.2 1.1-.2 1.9 0 3.5 1.6 3.5 3.5 0 .4-.1.8-.2 1.1l1.2 1.2M18.5 13c-.8 0-1.5-.7-1.5-1.5s.7-1.5 1.5-1.5 1.5.7 1.5 1.5-.7 1.5-1.5 1.5M7.2 4l-2-2H21c1.1 0 2 .9 2 2v4h-2V4H7.2z"/></svg>