<?xml version="1.0" encoding="UTF-8"?><!DOCTYPE svg PUBLIC "-//W3C//DTD SVG 1.1//EN" "http://www.w3.org/Graphics/SVG/1.1/DTD/svg11.dtd"><svg xmlns="http://www.w3.org/2000/svg" xmlns:xlink="http://www.w3.org/1999/xlink" version="1.1" id="mdi-mouse-variant" width="24" height="24" viewBox="0 0 24 24"><path d="M14,7H10V2.1C12.28,2.56 14,4.58 14,7M4,7C4,4.58 5.72,2.56 8,2.1V7H4M14,12C14,14.42 12.28,16.44 10,16.9V18A3,3 0 0,0 13,21A3,3 0 0,0 16,18V13A4,4 0 0,1 20,9H22L21,10L22,11H20A2,2 0 0,0 18,13H18V18A5,5 0 0,1 13,23A5,5 0 0,1 8,18V16.9C5.72,16.44 4,14.42 4,12V9H14V12Z" /></svg>