<?xml version="1.0" encoding="UTF-8"?><!DOCTYPE svg PUBLIC "-//W3C//DTD SVG 1.1//EN" "http://www.w3.org/Graphics/SVG/1.1/DTD/svg11.dtd"><svg xmlns="http://www.w3.org/2000/svg" xmlns:xlink="http://www.w3.org/1999/xlink" version="1.1" id="mdi-movie-roll" width="24" height="24" viewBox="0 0 24 24"><path d="M12,2A10,10 0 0,1 22,12A10,10 0 0,1 12,22A10,10 0 0,1 2,12A10,10 0 0,1 12,2M12,4A2.5,2.5 0 0,0 9.5,6.5A2.5,2.5 0 0,0 12,9A2.5,2.5 0 0,0 14.5,6.5A2.5,2.5 0 0,0 12,4M4.4,9.53C3.97,10.84 4.69,12.25 6,12.68C7.32,13.1 8.73,12.39 9.15,11.07C9.58,9.76 8.86,8.35 7.55,7.92C6.24,7.5 4.82,8.21 4.4,9.53M19.61,9.5C19.18,8.21 17.77,7.5 16.46,7.92C15.14,8.34 14.42,9.75 14.85,11.07C15.28,12.38 16.69,13.1 18,12.67C19.31,12.25 20.03,10.83 19.61,9.5M7.31,18.46C8.42,19.28 10,19.03 10.8,17.91C11.61,16.79 11.36,15.23 10.24,14.42C9.13,13.61 7.56,13.86 6.75,14.97C5.94,16.09 6.19,17.65 7.31,18.46M16.7,18.46C17.82,17.65 18.07,16.09 17.26,14.97C16.45,13.85 14.88,13.6 13.77,14.42C12.65,15.23 12.4,16.79 13.21,17.91C14,19.03 15.59,19.27 16.7,18.46M12,10.5A1.5,1.5 0 0,0 10.5,12A1.5,1.5 0 0,0 12,13.5A1.5,1.5 0 0,0 13.5,12A1.5,1.5 0 0,0 12,10.5Z" /></svg>