<svg xmlns="http://www.w3.org/2000/svg" viewBox="0 0 24 24"><path d="M12 2a10 10 0 0110 10 10 10 0 01-10 10A10 10 0 012 12 10 10 0 0112 2m0 2a2.5 2.5 0 00-2.5 2.5A2.5 2.5 0 0012 9a2.5 2.5 0 002.5-2.5A2.5 2.5 0 0012 4M4.4 9.53A2.5 2.5 0 006 12.68c1.32.42 2.73-.29 3.15-1.61a2.5 2.5 0 00-1.6-3.15c-1.31-.42-2.73.29-3.15 1.61m15.21-.03c-.43-1.29-1.84-2-3.15-1.58a2.489 2.489 0 00-1.61 3.15 2.5 2.5 0 003.15 1.6c1.31-.42 2.03-1.84 1.61-3.17m-12.3 8.96c1.11.82 2.69.57 3.49-.55.81-1.12.56-2.68-.56-3.49a2.506 2.506 0 00-3.49.55c-.81 1.12-.56 2.68.56 3.49m9.39 0c1.12-.81 1.37-2.37.56-3.49a2.488 2.488 0 00-3.49-.55 2.497 2.497 0 00-.56 3.49c.79 1.12 2.38 1.36 3.49.55M12 10.5a1.5 1.5 0 00-1.5 1.5 1.5 1.5 0 001.5 1.5 1.5 1.5 0 001.5-1.5 1.5 1.5 0 00-1.5-1.5z"/></svg>