<?xml version="1.0" encoding="UTF-8"?><!DOCTYPE svg PUBLIC "-//W3C//DTD SVG 1.1//EN" "http://www.w3.org/Graphics/SVG/1.1/DTD/svg11.dtd"><svg xmlns="http://www.w3.org/2000/svg" xmlns:xlink="http://www.w3.org/1999/xlink" version="1.1" id="mdi-movie-filter" width="24" height="24" viewBox="0 0 24 24"><path d="M18 4L20 7H17L15 4H13L15 7H12L10 4H8L10 7H7L5 4H4C2.9 4 2 4.9 2 6L2 18C2 19.1 2.9 20 4 20H20C21.1 20 22 19.1 22 18V4H18M11.25 15.25L10 18L8.75 15.25L6 14L8.75 12.75L10 10L11.25 12.75L14 14L11.25 15.25M16.94 11.94L16 14L15.06 11.94L13 11L15.06 10.06L16 8L16.94 10.06L19 11L16.94 11.94Z" /></svg>