<?xml version="1.0" encoding="UTF-8"?><!DOCTYPE svg PUBLIC "-//W3C//DTD SVG 1.1//EN" "http://www.w3.org/Graphics/SVG/1.1/DTD/svg11.dtd"><svg xmlns="http://www.w3.org/2000/svg" xmlns:xlink="http://www.w3.org/1999/xlink" version="1.1" id="mdi-music-box-multiple-outline" width="24" height="24" viewBox="0 0 24 24"><path d="M20,2H8A2,2 0 0,0 6,4V16A2,2 0 0,0 8,18H20A2,2 0 0,0 22,16V4A2,2 0 0,0 20,2M20,16H8V4H20M12.5,15A2.5,2.5 0 0,0 15,12.5V7H18V5H14V10.5C13.58,10.19 13.07,10 12.5,10A2.5,2.5 0 0,0 10,12.5A2.5,2.5 0 0,0 12.5,15M4,6H2V20A2,2 0 0,0 4,22H18V20H4" /></svg>