<?xml version="1.0" encoding="UTF-8"?><!DOCTYPE svg PUBLIC "-//W3C//DTD SVG 1.1//EN" "http://www.w3.org/Graphics/SVG/1.1/DTD/svg11.dtd"><svg xmlns="http://www.w3.org/2000/svg" xmlns:xlink="http://www.w3.org/1999/xlink" version="1.1" id="mdi-music-note-off-outline" width="24" height="24" viewBox="0 0 24 24"><path d="M14 7H18V3H12V7.61L14 9.61M12 10.44L4.41 2.86L3 4.27L12 13.27V13.55A3.94 3.94 0 0 0 8.67 13.23A4 4 0 0 0 10.65 20.95A4.1 4.1 0 0 0 14 16.85V15.27L19.73 21L21.14 19.59M10 19A2 2 0 1 1 12 17A2 2 0 0 1 10 19Z" /></svg>