<?xml version="1.0" encoding="UTF-8"?><!DOCTYPE svg PUBLIC "-//W3C//DTD SVG 1.1//EN" "http://www.w3.org/Graphics/SVG/1.1/DTD/svg11.dtd"><svg xmlns="http://www.w3.org/2000/svg" xmlns:xlink="http://www.w3.org/1999/xlink" version="1.1" id="mdi-music-box-multiple" width="24" height="24" viewBox="0 0 24 24"><path d="M4,6H2V20A2,2 0 0,0 4,22H18V20H4M18,7H15V12.5A2.5,2.5 0 0,1 12.5,15A2.5,2.5 0 0,1 10,12.5A2.5,2.5 0 0,1 12.5,10C13.07,10 13.58,10.19 14,10.5V5H18M20,2H8A2,2 0 0,0 6,4V16A2,2 0 0,0 8,18H20A2,2 0 0,0 22,16V4A2,2 0 0,0 20,2Z" /></svg>