<?xml version="1.0" encoding="UTF-8"?><!DOCTYPE svg PUBLIC "-//W3C//DTD SVG 1.1//EN" "http://www.w3.org/Graphics/SVG/1.1/DTD/svg11.dtd"><svg xmlns="http://www.w3.org/2000/svg" xmlns:xlink="http://www.w3.org/1999/xlink" version="1.1" id="mdi-numeric-9-plus-circle-outline" width="24" height="24" viewBox="0 0 24 24"><path d="M19,11V13H17V15H15V13H13V11H15V9H17V11H19M10,7A2,2 0 0,1 12,9V15C12,16.11 11.1,17 10,17H6V15H10V13H8A2,2 0 0,1 6,11V9C6,7.89 6.9,7 8,7H10M8,9V11H10V9H8M12,2A10,10 0 0,1 22,12A10,10 0 0,1 12,22A10,10 0 0,1 2,12A10,10 0 0,1 12,2M12,4A8,8 0 0,0 4,12A8,8 0 0,0 12,20A8,8 0 0,0 20,12A8,8 0 0,0 12,4Z" /></svg>