<?xml version="1.0" encoding="UTF-8"?><!DOCTYPE svg PUBLIC "-//W3C//DTD SVG 1.1//EN" "http://www.w3.org/Graphics/SVG/1.1/DTD/svg11.dtd"><svg xmlns="http://www.w3.org/2000/svg" xmlns:xlink="http://www.w3.org/1999/xlink" version="1.1" id="mdi-numeric-9-box-multiple" width="24" height="24" viewBox="0 0 24 24"><path d="M15,9H13V7H15V9M3,5V21H19V23H3A2,2 0 0,1 1,21V5H3M15,5H13A2,2 0 0,0 11,7V9C11,10.11 11.9,11 13,11H15V13H11V15H15A2,2 0 0,0 17,13V7C17,5.89 16.1,5 15,5M21,1A2,2 0 0,1 23,3V17A2,2 0 0,1 21,19H7A2,2 0 0,1 5,17V3A2,2 0 0,1 7,1H21Z" /></svg>