<?xml version="1.0" encoding="UTF-8"?><!DOCTYPE svg PUBLIC "-//W3C//DTD SVG 1.1//EN" "http://www.w3.org/Graphics/SVG/1.1/DTD/svg11.dtd"><svg xmlns="http://www.w3.org/2000/svg" xmlns:xlink="http://www.w3.org/1999/xlink" version="1.1" id="mdi-numeric-0-box-multiple-outline" width="24" height="24" viewBox="0 0 24 24"><path d="M21,17V3H7V17H21M21,1A2,2 0 0,1 23,3V17A2,2 0 0,1 21,19H7A2,2 0 0,1 5,17V3A2,2 0 0,1 7,1H21M3,5V21H19V23H3A2,2 0 0,1 1,21V5H3M13,5H15A2,2 0 0,1 17,7V13A2,2 0 0,1 15,15H13A2,2 0 0,1 11,13V7A2,2 0 0,1 13,5M13,7V13H15V7H13Z" /></svg>