<?xml version="1.0" encoding="UTF-8"?><!DOCTYPE svg PUBLIC "-//W3C//DTD SVG 1.1//EN" "http://www.w3.org/Graphics/SVG/1.1/DTD/svg11.dtd"><svg xmlns="http://www.w3.org/2000/svg" xmlns:xlink="http://www.w3.org/1999/xlink" version="1.1" id="mdi-numeric-9-plus-box-outline" width="24" height="24" viewBox="0 0 24 24"><path d="M19,11H17V9H15V11H13V13H15V15H17V13H19V19H5V5H19M19,3H5A2,2 0 0,0 3,5V19A2,2 0 0,0 5,21H19A2,2 0 0,0 21,19V5A2,2 0 0,0 19,3M9,11V10H10V11M12,14V10C12,8.89 11.1,8 10,8H9A2,2 0 0,0 7,10V11C7,12.11 7.9,13 9,13H10V14H7V16H10A2,2 0 0,0 12,14Z" /></svg>