<?xml version="1.0" encoding="UTF-8"?><!DOCTYPE svg PUBLIC "-//W3C//DTD SVG 1.1//EN" "http://www.w3.org/Graphics/SVG/1.1/DTD/svg11.dtd"><svg xmlns="http://www.w3.org/2000/svg" xmlns:xlink="http://www.w3.org/1999/xlink" version="1.1" id="mdi-numeric-8-box-multiple-outline" width="24" height="24" viewBox="0 0 24 24"><path d="M13,11H15V13H13M13,7H15V9H13M13,15H15A2,2 0 0,0 17,13V11.5A1.5,1.5 0 0,0 15.5,10A1.5,1.5 0 0,0 17,8.5V7C17,5.89 16.1,5 15,5H13A2,2 0 0,0 11,7V8.5A1.5,1.5 0 0,0 12.5,10A1.5,1.5 0 0,0 11,11.5V13C11,14.11 11.9,15 13,15M21,17H7V3H21M21,1H7A2,2 0 0,0 5,3V17A2,2 0 0,0 7,19H21A2,2 0 0,0 23,17V3A2,2 0 0,0 21,1M3,5H1V21A2,2 0 0,0 3,23H19V21H3V5Z" /></svg>