<?xml version="1.0" encoding="UTF-8"?><!DOCTYPE svg PUBLIC "-//W3C//DTD SVG 1.1//EN" "http://www.w3.org/Graphics/SVG/1.1/DTD/svg11.dtd"><svg xmlns="http://www.w3.org/2000/svg" xmlns:xlink="http://www.w3.org/1999/xlink" version="1.1" id="mdi-ocr" width="24" height="24" viewBox="0 0 24 24"><path d="M2 5V19H14V17H12C10.89 17 10 16.11 10 15V9C10 7.89 10.89 7 12 7H14V5M14 7V9H16V7M14 9H12V15H14M14 15V17H16V15M5 7H7C8.11 7 9 7.89 9 9V15C9 16.11 8.11 17 7 17H5C3.89 17 3 16.11 3 15V9C3 7.89 3.89 7 5 7M17 7V17H19V13H20V14H21V17H23V14H22V12H23V8H22V7M5 9V15H7V9M19 9H21V11H19Z" /></svg>