<?xml version="1.0" encoding="UTF-8"?><!DOCTYPE svg PUBLIC "-//W3C//DTD SVG 1.1//EN" "http://www.w3.org/Graphics/SVG/1.1/DTD/svg11.dtd"><svg xmlns="http://www.w3.org/2000/svg" xmlns:xlink="http://www.w3.org/1999/xlink" version="1.1" id="mdi-odnoklassniki" width="24" height="24" viewBox="0 0 24 24"><path d="M17.83,12.74C17.55,12.17 16.76,11.69 15.71,12.5C14.28,13.64 12,13.64 12,13.64C12,13.64 9.72,13.64 8.29,12.5C7.24,11.69 6.45,12.17 6.17,12.74C5.67,13.74 6.23,14.23 7.5,15.04C8.59,15.74 10.08,16 11.04,16.1L10.24,16.9C9.1,18.03 8,19.12 7.25,19.88C6.8,20.34 6.8,21.07 7.25,21.5L7.39,21.66C7.84,22.11 8.58,22.11 9.03,21.66L12,18.68C13.15,19.81 14.24,20.9 15,21.66C15.45,22.11 16.18,22.11 16.64,21.66L16.77,21.5C17.23,21.07 17.23,20.34 16.77,19.88L13.79,16.9L13,16.09C13.95,16 15.42,15.73 16.5,15.04C17.77,14.23 18.33,13.74 17.83,12.74M12,4.57C13.38,4.57 14.5,5.69 14.5,7.06C14.5,8.44 13.38,9.55 12,9.55C10.62,9.55 9.5,8.44 9.5,7.06C9.5,5.69 10.62,4.57 12,4.57M12,12.12C14.8,12.12 17.06,9.86 17.06,7.06C17.06,4.27 14.8,2 12,2C9.2,2 6.94,4.27 6.94,7.06C6.94,9.86 9.2,12.12 12,12.12Z" /></svg>