<?xml version="1.0" encoding="UTF-8"?><!DOCTYPE svg PUBLIC "-//W3C//DTD SVG 1.1//EN" "http://www.w3.org/Graphics/SVG/1.1/DTD/svg11.dtd"><svg xmlns="http://www.w3.org/2000/svg" xmlns:xlink="http://www.w3.org/1999/xlink" version="1.1" id="mdi-order-bool-ascending-variant" width="24" height="24" viewBox="0 0 24 24"><path d="M4 13C2.89 13 2 13.89 2 15V19C2 20.11 2.89 21 4 21H8C9.11 21 10 20.11 10 19V15C10 13.89 9.11 13 8 13M8.2 14.5L9.26 15.55L5.27 19.5L2.74 16.95L3.81 15.9L5.28 17.39M4 3C2.89 3 2 3.89 2 5V9C2 10.11 2.89 11 4 11H8C9.11 11 10 10.11 10 9V5C10 3.89 9.11 3 8 3M4 5H8V9H4M12 5H22V7H12M12 19V17H22V19M12 11H22V13H12Z" /></svg>