<?xml version="1.0" encoding="UTF-8"?><!DOCTYPE svg PUBLIC "-//W3C//DTD SVG 1.1//EN" "http://www.w3.org/Graphics/SVG/1.1/DTD/svg11.dtd"><svg xmlns="http://www.w3.org/2000/svg" xmlns:xlink="http://www.w3.org/1999/xlink" version="1.1" id="mdi-package-down" width="24" height="24" viewBox="0 0 24 24"><path d="M5.12,5L5.93,4H17.93L18.87,5M12,17.5L6.5,12H10V10H14V12H17.5L12,17.5M20.54,5.23L19.15,3.55C18.88,3.21 18.47,3 18,3H6C5.53,3 5.12,3.21 4.84,3.55L3.46,5.23C3.17,5.57 3,6 3,6.5V19A2,2 0 0,0 5,21H19A2,2 0 0,0 21,19V6.5C21,6 20.83,5.57 20.54,5.23Z" /></svg>