<?xml version="1.0" encoding="UTF-8"?><!DOCTYPE svg PUBLIC "-//W3C//DTD SVG 1.1//EN" "http://www.w3.org/Graphics/SVG/1.1/DTD/svg11.dtd"><svg xmlns="http://www.w3.org/2000/svg" xmlns:xlink="http://www.w3.org/1999/xlink" version="1.1" id="mdi-palette-outline" width="24" height="24" viewBox="0 0 24 24"><path d="M12,22A10,10 0 0,1 2,12A10,10 0 0,1 12,2C17.5,2 22,6 22,11A6,6 0 0,1 16,17H14.2C13.9,17 13.7,17.2 13.7,17.5C13.7,17.6 13.8,17.7 13.8,17.8C14.2,18.3 14.4,18.9 14.4,19.5C14.5,20.9 13.4,22 12,22M12,4A8,8 0 0,0 4,12A8,8 0 0,0 12,20C12.3,20 12.5,19.8 12.5,19.5C12.5,19.3 12.4,19.2 12.4,19.1C12,18.6 11.8,18.1 11.8,17.5C11.8,16.1 12.9,15 14.3,15H16A4,4 0 0,0 20,11C20,7.1 16.4,4 12,4M6.5,10C7.3,10 8,10.7 8,11.5C8,12.3 7.3,13 6.5,13C5.7,13 5,12.3 5,11.5C5,10.7 5.7,10 6.5,10M9.5,6C10.3,6 11,6.7 11,7.5C11,8.3 10.3,9 9.5,9C8.7,9 8,8.3 8,7.5C8,6.7 8.7,6 9.5,6M14.5,6C15.3,6 16,6.7 16,7.5C16,8.3 15.3,9 14.5,9C13.7,9 13,8.3 13,7.5C13,6.7 13.7,6 14.5,6M17.5,10C18.3,10 19,10.7 19,11.5C19,12.3 18.3,13 17.5,13C16.7,13 16,12.3 16,11.5C16,10.7 16.7,10 17.5,10Z" /></svg>