<svg xmlns="http://www.w3.org/2000/svg" viewBox="0 0 24 24"><path d="M17.5 12a1.5 1.5 0 01-1.5-1.5A1.5 1.5 0 0117.5 9a1.5 1.5 0 011.5 1.5 1.5 1.5 0 01-1.5 1.5m-3-4A1.5 1.5 0 0113 6.5 1.5 1.5 0 0114.5 5 1.5 1.5 0 0116 6.5 1.5 1.5 0 0114.5 8m-5 0A1.5 1.5 0 018 6.5 1.5 1.5 0 019.5 5 1.5 1.5 0 0111 6.5 1.5 1.5 0 019.5 8m-3 4A1.5 1.5 0 015 10.5 1.5 1.5 0 016.5 9 1.5 1.5 0 018 10.5 1.5 1.5 0 016.5 12M12 3a9 9 0 00-9 9 9 9 0 009 9 1.5 1.5 0 001.5-1.5c0-.39-.15-.74-.39-1-.23-.27-.38-.62-.38-1a1.5 1.5 0 011.5-1.5H16a5 5 0 005-5c0-4.42-4.03-8-9-8z"/></svg>