<?xml version="1.0" encoding="UTF-8"?><!DOCTYPE svg PUBLIC "-//W3C//DTD SVG 1.1//EN" "http://www.w3.org/Graphics/SVG/1.1/DTD/svg11.dtd"><svg xmlns="http://www.w3.org/2000/svg" xmlns:xlink="http://www.w3.org/1999/xlink" version="1.1" id="mdi-parachute-outline" width="24" height="24" viewBox="0 0 24 24"><path d="M21.2,10.95L12,23L2.78,10.96L2.87,10.88C3.08,10.67 3.33,10.5 3.58,10.36L10.73,19.69L8.58,13L9.24,11.81L12,20.38L14.73,11.8L15.4,13L13.27,19.69L20.41,10.35C20.66,10.5 20.9,10.64 21.1,10.85L21.2,10.95M12,4C14.5,4 16.77,5.17 18.25,7.03C17.24,7.15 16.28,7.54 15.47,8.13C14.47,7.41 13.26,7 12,7C10.71,7 9.5,7.41 8.5,8.14C7.68,7.55 6.72,7.17 5.71,7.04C7.19,5.17 9.47,4 12,4M12,2C7.09,2 3.03,5.5 2.16,10.17C2.89,9.45 3.89,9 5,9C6.5,9 7.81,9.86 8.5,11.1C9.17,9.86 10.47,9 12,9C13.5,9 14.8,9.85 15.5,11.09C16.16,9.84 17.47,9 19,9C20.09,9 21.09,9.42 21.81,10.14C20.94,5.5 16.88,2 12,2Z" /></svg>