<?xml version="1.0" encoding="UTF-8"?><!DOCTYPE svg PUBLIC "-//W3C//DTD SVG 1.1//EN" "http://www.w3.org/Graphics/SVG/1.1/DTD/svg11.dtd"><svg xmlns="http://www.w3.org/2000/svg" xmlns:xlink="http://www.w3.org/1999/xlink" version="1.1" id="mdi-passport-biometric" width="24" height="24" viewBox="0 0 24 24"><path d="M4,4A2,2 0 0,0 2,6V11H8.13C8.59,9.24 10.18,8 12,8C13.82,8 15.41,9.24 15.87,11H22V6A2,2 0 0,0 20,4H4M12,10A2,2 0 0,0 10,12A2,2 0 0,0 12,14A2,2 0 0,0 14,12A2,2 0 0,0 12,10M2,13V18A2,2 0 0,0 4,20H20A2,2 0 0,0 22,18V13H15.87C15.41,14.76 13.82,16 12,16C10.18,16 8.59,14.76 8.13,13H2Z" /></svg>