<?xml version="1.0" encoding="UTF-8"?><!DOCTYPE svg PUBLIC "-//W3C//DTD SVG 1.1//EN" "http://www.w3.org/Graphics/SVG/1.1/DTD/svg11.dtd"><svg xmlns="http://www.w3.org/2000/svg" xmlns:xlink="http://www.w3.org/1999/xlink" version="1.1" id="mdi-pdf-box" width="24" height="24" viewBox="0 0 24 24"><path d="M12,10.5H13V13.5H12V10.5M7,11.5H8V10.5H7V11.5M20,6V18A2,2 0 0,1 18,20H6A2,2 0 0,1 4,18V6A2,2 0 0,1 6,4H18A2,2 0 0,1 20,6M9.5,10.5A1.5,1.5 0 0,0 8,9H5.5V15H7V13H8A1.5,1.5 0 0,0 9.5,11.5V10.5M14.5,10.5A1.5,1.5 0 0,0 13,9H10.5V15H13A1.5,1.5 0 0,0 14.5,13.5V10.5M18.5,9H15.5V15H17V13H18.5V11.5H17V10.5H18.5V9Z" /></svg>