<svg xmlns="http://www.w3.org/2000/svg" viewBox="0 0 24 24"><path d="M23.71 11.67a17 17 0 00-23.42 0 1 1 0 00-.29.71 1 1 0 00.29.7l2.48 2.48a1 1 0 00.73.29 1 1 0 00.68-.28 11.5 11.5 0 012.66-1.85 1 1 0 00.56-.9v-3.1A14.91 14.91 0 0112 9a14.5 14.5 0 014.59.73v3.1a1 1 0 00.56.9 11.27 11.27 0 012.67 1.85 1 1 0 00.68.28 1 1 0 00.73-.29l2.48-2.48a1 1 0 000-1.42m-18.31.55a13.68 13.68 0 00-1.87 1.28l-1.07-1.08A15.54 15.54 0 015.4 10.5m15.1 3a13.75 13.75 0 00-1.9-1.27v-1.7a14.26 14.26 0 012.95 1.9z"/></svg>