<?xml version="1.0" encoding="UTF-8"?><!DOCTYPE svg PUBLIC "-//W3C//DTD SVG 1.1//EN" "http://www.w3.org/Graphics/SVG/1.1/DTD/svg11.dtd"><svg xmlns="http://www.w3.org/2000/svg" xmlns:xlink="http://www.w3.org/1999/xlink" version="1.1" id="mdi-phone-rotate-portrait" width="24" height="24" viewBox="0 0 24 24"><path d="M9,1H3A2,2 0 0,0 1,3V16A2,2 0 0,0 3,18H4V15H3V3H9V11H11V3A2,2 0 0,0 9,1M23,21V15A2,2 0 0,0 21,13H8A2,2 0 0,0 6,15V21A2,2 0 0,0 8,23H21A2,2 0 0,0 23,21M9,21V15H21V21H9M23,10H21.5C21.5,7 19.69,4.27 16.92,3.09L16,5L14,1A9,9 0 0,1 23,10Z" /></svg>