<?xml version="1.0" encoding="UTF-8"?><!DOCTYPE svg PUBLIC "-//W3C//DTD SVG 1.1//EN" "http://www.w3.org/Graphics/SVG/1.1/DTD/svg11.dtd"><svg xmlns="http://www.w3.org/2000/svg" xmlns:xlink="http://www.w3.org/1999/xlink" version="1.1" id="mdi-phone-voip" width="24" height="24" viewBox="0 0 24 24"><path d="M13,17V19H14A1,1 0 0,1 15,20H22V22H15A1,1 0 0,1 14,23H10A1,1 0 0,1 9,22H2V20H9A1,1 0 0,1 10,19H11V17H13M23.7,7.67C23.88,7.85 24,8.09 24,8.37C24,8.65 23.89,8.9 23.71,9.08L21.23,11.56C21.05,11.74 20.8,11.85 20.5,11.85C20.25,11.85 20,11.75 19.82,11.57C19,10.84 18.13,10.21 17.15,9.72C16.82,9.56 16.59,9.21 16.59,8.82V5.72C15.14,5.25 13.59,5 12,5C10.4,5 8.85,5.25 7.4,5.73V8.83C7.4,9.23 7.17,9.57 6.84,9.73C5.87,10.22 4.97,10.84 4.18,11.58C4,11.75 3.75,11.86 3.5,11.86C3.2,11.86 2.95,11.75 2.77,11.57L0.29,9.09C0.11,8.91 0,8.66 0,8.38C0,8.1 0.11,7.85 0.29,7.67C3.34,4.78 7.46,3 12,3C16.53,3 20.65,4.78 23.7,7.67M11,10V15H10V10H11M12,10H15V13H13V15H12V10M14,12V11H13V12H14Z" /></svg>