<?xml version="1.0" encoding="UTF-8"?><!DOCTYPE svg PUBLIC "-//W3C//DTD SVG 1.1//EN" "http://www.w3.org/Graphics/SVG/1.1/DTD/svg11.dtd"><svg xmlns="http://www.w3.org/2000/svg" xmlns:xlink="http://www.w3.org/1999/xlink" version="1.1" id="mdi-phone-rotate-landscape" width="24" height="24" viewBox="0 0 24 24"><path d="M9,1H3A2,2 0 0,0 1,3V16A2,2 0 0,0 3,18H9A2,2 0 0,0 11,16V3A2,2 0 0,0 9,1M9,15H3V3H9V15M21,13H13V15H21V21H9V20H6V21A2,2 0 0,0 8,23H21A2,2 0 0,0 23,21V15A2,2 0 0,0 21,13M23,10L19,8L20.91,7.09C19.74,4.31 17,2.5 14,2.5V1A9,9 0 0,1 23,10Z" /></svg>