<?xml version="1.0" encoding="UTF-8"?><!DOCTYPE svg PUBLIC "-//W3C//DTD SVG 1.1//EN" "http://www.w3.org/Graphics/SVG/1.1/DTD/svg11.dtd"><svg xmlns="http://www.w3.org/2000/svg" xmlns:xlink="http://www.w3.org/1999/xlink" version="1.1" id="mdi-phone-bluetooth" width="24" height="24" viewBox="0 0 24 24"><path d="M20,15.5C18.75,15.5 17.55,15.3 16.43,14.93C16.08,14.82 15.69,14.9 15.41,15.18L13.21,17.38C10.38,15.94 8.06,13.62 6.62,10.79L8.82,8.59C9.1,8.31 9.18,7.92 9.07,7.57C8.7,6.45 8.5,5.25 8.5,4A1,1 0 0,0 7.5,3H4A1,1 0 0,0 3,4A17,17 0 0,0 20,21A1,1 0 0,0 21,20V16.5A1,1 0 0,0 20,15.5M18,7.21L18.94,8.14L18,9.08M18,2.91L18.94,3.85L18,4.79M14.71,9.5L17,7.21V11H17.5L20.35,8.14L18.21,6L20.35,3.85L17.5,1H17V4.79L14.71,2.5L14,3.21L16.79,6L14,8.79L14.71,9.5Z" /></svg>