<?xml version="1.0" encoding="UTF-8"?><!DOCTYPE svg PUBLIC "-//W3C//DTD SVG 1.1//EN" "http://www.w3.org/Graphics/SVG/1.1/DTD/svg11.dtd"><svg xmlns="http://www.w3.org/2000/svg" xmlns:xlink="http://www.w3.org/1999/xlink" version="1.1" id="mdi-phone-hangup" width="24" height="24" viewBox="0 0 24 24"><path d="M12,9C10.4,9 8.85,9.25 7.4,9.72V12.82C7.4,13.22 7.17,13.56 6.84,13.72C5.86,14.21 4.97,14.84 4.17,15.57C4,15.75 3.75,15.86 3.5,15.86C3.2,15.86 2.95,15.74 2.77,15.56L0.29,13.08C0.11,12.9 0,12.65 0,12.38C0,12.1 0.11,11.85 0.29,11.67C3.34,8.77 7.46,7 12,7C16.54,7 20.66,8.77 23.71,11.67C23.89,11.85 24,12.1 24,12.38C24,12.65 23.89,12.9 23.71,13.08L21.23,15.56C21.05,15.74 20.8,15.86 20.5,15.86C20.25,15.86 20,15.75 19.82,15.57C19.03,14.84 18.14,14.21 17.16,13.72C16.83,13.56 16.6,13.22 16.6,12.82V9.72C15.15,9.25 13.6,9 12,9Z" /></svg>