<?xml version="1.0" encoding="UTF-8"?><!DOCTYPE svg PUBLIC "-//W3C//DTD SVG 1.1//EN" "http://www.w3.org/Graphics/SVG/1.1/DTD/svg11.dtd"><svg xmlns="http://www.w3.org/2000/svg" xmlns:xlink="http://www.w3.org/1999/xlink" version="1.1" id="mdi-pier" width="24" height="24" viewBox="0 0 24 24"><path d="M20,18C18.6,18 17.2,17.5 16,16.7C13.6,18.4 10.4,18.4 8,16.7C6.8,17.5 5.4,18 4,18H2V20H4C5.4,20 6.7,19.6 8,19C10.5,20.3 13.5,20.3 16,19C17.3,19.6 18.6,20 20,20H22V18H20M20,13H19V16.9C18.3,16.8 17.6,16.6 17,16.2V13H12V17C11.3,17 10.7,16.9 10,16.7V13H5V16.9C4.7,17 4.3,17 4,17H3V13H2V11H3V9H5V11H10V9H12V11H17V9H19V11H20V13Z" /></svg>