<?xml version="1.0" encoding="UTF-8"?><!DOCTYPE svg PUBLIC "-//W3C//DTD SVG 1.1//EN" "http://www.w3.org/Graphics/SVG/1.1/DTD/svg11.dtd"><svg xmlns="http://www.w3.org/2000/svg" xmlns:xlink="http://www.w3.org/1999/xlink" version="1.1" id="mdi-pig" width="24" height="24" viewBox="0 0 24 24"><path d="M9.5,9A1.5,1.5 0 0,0 8,10.5A1.5,1.5 0 0,0 9.5,12A1.5,1.5 0 0,0 11,10.5A1.5,1.5 0 0,0 9.5,9M14.5,9A1.5,1.5 0 0,0 13,10.5A1.5,1.5 0 0,0 14.5,12A1.5,1.5 0 0,0 16,10.5A1.5,1.5 0 0,0 14.5,9M12,4L12.68,4.03C13.62,3.24 14.82,2.59 15.72,2.35C17.59,1.85 20.88,2.23 21.31,3.83C21.62,5 20.6,6.45 19.03,7.38C20.26,8.92 21,10.87 21,13A9,9 0 0,1 12,22A9,9 0 0,1 3,13C3,10.87 3.74,8.92 4.97,7.38C3.4,6.45 2.38,5 2.69,3.83C3.12,2.23 6.41,1.85 8.28,2.35C9.18,2.59 10.38,3.24 11.32,4.03L12,4M10,16A1,1 0 0,1 11,17A1,1 0 0,1 10,18A1,1 0 0,1 9,17A1,1 0 0,1 10,16M14,16A1,1 0 0,1 15,17A1,1 0 0,1 14,18A1,1 0 0,1 13,17A1,1 0 0,1 14,16M12,13C9.24,13 7,15.34 7,17C7,18.66 9.24,20 12,20C14.76,20 17,18.66 17,17C17,15.34 14.76,13 12,13M7.76,4.28C7.31,4.16 4.59,4.35 4.59,4.35C4.59,4.35 6.8,6.1 7.24,6.22C7.69,6.34 9.77,6.43 9.91,5.9C10.06,5.36 8.2,4.4 7.76,4.28M16.24,4.28C15.8,4.4 13.94,5.36 14.09,5.9C14.23,6.43 16.31,6.34 16.76,6.22C17.2,6.1 19.41,4.35 19.41,4.35C19.41,4.35 16.69,4.16 16.24,4.28Z" /></svg>