<svg xmlns="http://www.w3.org/2000/svg" viewBox="0 0 24 24"><path d="M22 14h-2c0-2.4-1.8-4.4-4.5-5.4-.5.8-1.4 1.4-2.5 1.4-1.3 0-2.3-.8-2.8-1.8-.2 0-.4.1-.7.1L7 7v2.3c-1.5.9-2.6 2.2-2.9 3.7H2v4h3.1c.5.6 1.1 1.2 1.9 1.7V22h2v-2.4c.9.3 1.9.4 3 .4s2.1-.2 3-.4V22h2v-3.3c1.1-.7 2-1.6 2.5-2.7H22v-2m-10 4c-3.3 0-6-1.8-6-4 0-1.5 1.4-2.9 3.4-3.6.9 1 2.2 1.6 3.6 1.6 1.1 0 2.1-.3 3-1 1.3.8 2 1.9 2 3 0 2.2-2.7 4-6 4m1-15c.6 0 1 .4 1 1s-.4 1-1 1-1-.4-1-1 .4-1 1-1m0-2c-1.7 0-3 1.3-3 3s1.3 3 3 3 3-1.3 3-3-1.3-3-3-3m-3 12c0 .6-.4 1-1 1s-1-.4-1-1 .4-1 1-1 1 .4 1 1"/></svg>