<?xml version="1.0" encoding="UTF-8"?><!DOCTYPE svg PUBLIC "-//W3C//DTD SVG 1.1//EN" "http://www.w3.org/Graphics/SVG/1.1/DTD/svg11.dtd"><svg xmlns="http://www.w3.org/2000/svg" xmlns:xlink="http://www.w3.org/1999/xlink" version="1.1" id="mdi-pizza" width="24" height="24" viewBox="0 0 24 24"><path d="M12,15A2,2 0 0,1 10,13C10,11.89 10.9,11 12,11A2,2 0 0,1 14,13A2,2 0 0,1 12,15M7,7C7,5.89 7.89,5 9,5A2,2 0 0,1 11,7A2,2 0 0,1 9,9C7.89,9 7,8.1 7,7M12,2C8.43,2 5.23,3.54 3,6L12,22L21,6C18.78,3.54 15.57,2 12,2Z" /></svg>