<?xml version="1.0" encoding="UTF-8"?><!DOCTYPE svg PUBLIC "-//W3C//DTD SVG 1.1//EN" "http://www.w3.org/Graphics/SVG/1.1/DTD/svg11.dtd"><svg xmlns="http://www.w3.org/2000/svg" xmlns:xlink="http://www.w3.org/1999/xlink" version="1.1" id="mdi-playlist-music-outline" width="24" height="24" viewBox="0 0 24 24"><path d="M15,6V8H3V6H15M15,10V12H3V10H15M3,16V14H11V16H3M17,6H22V8H19V17A3,3 0 0,1 16,20A3,3 0 0,1 13,17A3,3 0 0,1 16,14C16.35,14 16.69,14.07 17,14.18V6M16,16A1,1 0 0,0 15,17A1,1 0 0,0 16,18A1,1 0 0,0 17,17A1,1 0 0,0 16,16Z" /></svg>