<svg xmlns="http://www.w3.org/2000/svg" viewBox="0 0 24 24"><path d="M21.9,4.26C21.64,3.55 20.96,3.07 20.2,3.07H20.19L18.46,3.07H3.81C3.07,3.07 2.39,3.54 2.12,4.24C2.04,4.45 2,4.66 2,4.88V10.92L2.07,12.12C2.36,14.85 3.78,17.23 5.97,18.9C6,18.93 6.05,18.96 6.09,19H6.11C7.29,19.86 8.6,20.44 10,20.73C10.68,20.86 11.35,20.93 12,20.93C12.63,20.93 13.25,20.87 13.85,20.76C13.93,20.75 14,20.73 14.07,20.72C14.09,20.71 14.11,20.7 14.14,20.69C15.5,20.4 16.76,19.83 17.89,19H17.91C17.95,18.96 18,18.93 18.03,18.9C20.22,17.23 21.64,14.85 21.93,12.12L22,10.92V4.88C22,4.68 21.97,4.47 21.9,4.26M17.67,10.55L12.96,15.06C12.7,15.32 12.35,15.44 12,15.44C11.67,15.44 11.33,15.32 11.06,15.06L6.36,10.55C5.81,10.03 5.79,9.16 6.32,8.61C6.84,8.06 7.71,8.05 8.26,8.57L12,12.17L15.77,8.57C16.31,8.05 17.18,8.07 17.71,8.61C18.23,9.16 18.21,10.03 17.67,10.55Z" /></svg>