<?xml version="1.0" encoding="UTF-8"?><!DOCTYPE svg PUBLIC "-//W3C//DTD SVG 1.1//EN" "http://www.w3.org/Graphics/SVG/1.1/DTD/svg11.dtd"><svg xmlns="http://www.w3.org/2000/svg" xmlns:xlink="http://www.w3.org/1999/xlink" version="1.1" id="mdi-podium" width="24" height="24" viewBox="0 0 24 24"><path d="M12,7.09L14.45,8.58L13.8,5.77L16,3.89L13.11,3.64L12,1L10.87,3.64L8,3.89L10.18,5.77L9.5,8.58L12,7.09M4,13.09L6.45,14.58L5.8,11.77L8,9.89L5.11,9.64L4,7L2.87,9.64L0,9.89L2.18,11.77L1.5,14.58L4,13.09M20,10.09L22.45,11.58L21.8,8.77L24,6.89L21.11,6.64L20,4L18.87,6.64L16,6.89L18.18,8.77L17.5,11.58L20,10.09M15,23H9V10H15V23M7,23H1V17H7V23M23,23H17V13H23V23Z" /></svg>