<?xml version="1.0" encoding="UTF-8"?><!DOCTYPE svg PUBLIC "-//W3C//DTD SVG 1.1//EN" "http://www.w3.org/Graphics/SVG/1.1/DTD/svg11.dtd"><svg xmlns="http://www.w3.org/2000/svg" xmlns:xlink="http://www.w3.org/1999/xlink" version="1.1" id="mdi-pound-box" width="24" height="24" viewBox="0 0 24 24"><path d="M3,5A2,2 0 0,1 5,3H19A2,2 0 0,1 21,5V19A2,2 0 0,1 19,21H5C3.89,21 3,20.1 3,19V5M7,18H9L9.35,16H13.35L13,18H15L15.35,16H17.35L17.71,14H15.71L16.41,10H18.41L18.76,8H16.76L17.12,6H15.12L14.76,8H10.76L11.12,6H9.12L8.76,8H6.76L6.41,10H8.41L7.71,14H5.71L5.35,16H7.35L7,18M10.41,10H14.41L13.71,14H9.71L10.41,10Z" /></svg>