<?xml version="1.0" encoding="UTF-8"?><!DOCTYPE svg PUBLIC "-//W3C//DTD SVG 1.1//EN" "http://www.w3.org/Graphics/SVG/1.1/DTD/svg11.dtd"><svg xmlns="http://www.w3.org/2000/svg" xmlns:xlink="http://www.w3.org/1999/xlink" version="1.1" id="mdi-power-settings" width="24" height="24" viewBox="0 0 24 24"><path d="M15,24H17V22H15M16.56,4.44L15.11,5.89C16.84,6.94 18,8.83 18,11A6,6 0 0,1 12,17A6,6 0 0,1 6,11C6,8.83 7.16,6.94 8.88,5.88L7.44,4.44C5.36,5.88 4,8.28 4,11A8,8 0 0,0 12,19A8,8 0 0,0 20,11C20,8.28 18.64,5.88 16.56,4.44M13,2H11V12H13M11,24H13V22H11M7,24H9V22H7V24Z" /></svg>