<?xml version="1.0" encoding="UTF-8"?><!DOCTYPE svg PUBLIC "-//W3C//DTD SVG 1.1//EN" "http://www.w3.org/Graphics/SVG/1.1/DTD/svg11.dtd"><svg xmlns="http://www.w3.org/2000/svg" xmlns:xlink="http://www.w3.org/1999/xlink" version="1.1" id="mdi-powershell" width="24" height="24" viewBox="0 0 24 24"><path d="M21.83,4C22.32,4 22.63,4.4 22.5,4.89L19.34,19.11C19.23,19.6 18.75,20 18.26,20H2.17C1.68,20 1.37,19.6 1.5,19.11L4.66,4.89C4.77,4.4 5.25,4 5.74,4H21.83M15.83,16H11.83C11.37,16 11,16.38 11,16.84C11,17.31 11.37,17.69 11.83,17.69H15.83C16.3,17.69 16.68,17.31 16.68,16.84C16.68,16.38 16.3,16 15.83,16M5.78,16.28C5.38,16.56 5.29,17.11 5.57,17.5C5.85,17.92 6.41,18 6.81,17.73C14.16,12.56 14.21,12.5 14.26,12.47C14.44,12.31 14.53,12.09 14.54,11.87C14.55,11.67 14.5,11.5 14.38,11.31L9.46,6.03C9.13,5.67 8.57,5.65 8.21,6C7.85,6.32 7.83,6.88 8.16,7.24L12.31,11.68L5.78,16.28Z" /></svg>