<?xml version="1.0" encoding="UTF-8"?><!DOCTYPE svg PUBLIC "-//W3C//DTD SVG 1.1//EN" "http://www.w3.org/Graphics/SVG/1.1/DTD/svg11.dtd"><svg xmlns="http://www.w3.org/2000/svg" xmlns:xlink="http://www.w3.org/1999/xlink" version="1.1" id="mdi-power-plug-off" width="24" height="24" viewBox="0 0 24 24"><path d="M8,3V6.18C11.1,9.23 14.1,12.3 17.2,15.3C17.4,15 17.8,14.8 18,14.4V8.8C18,7.68 16.7,7.16 16,6.84V3H14V7H10V3H8M3.28,4C2.85,4.42 2.43,4.85 2,5.27L6,9.27V14.5C7.17,15.65 8.33,16.83 9.5,18V21H14.5V18C14.72,17.73 14.95,18.33 15.17,18.44C16.37,19.64 17.47,20.84 18.67,22.04C19.17,21.64 19.57,21.14 19.97,20.74C14.37,15.14 8.77,9.64 3.27,4.04L3.28,4Z" /></svg>