<?xml version="1.0" encoding="UTF-8"?><!DOCTYPE svg PUBLIC "-//W3C//DTD SVG 1.1//EN" "http://www.w3.org/Graphics/SVG/1.1/DTD/svg11.dtd"><svg xmlns="http://www.w3.org/2000/svg" xmlns:xlink="http://www.w3.org/1999/xlink" version="1.1" id="mdi-printer-3d-nozzle-alert-outline" width="24" height="24" viewBox="0 0 24 24"><path d="M7 2H17V7H19V13H16.5L13 17H11L7.5 13H5V7H7V2M10 22H2V20H10C10.55 20 11 19.55 11 19V18H13V19C13 20.66 11.66 22 10 22M7 9V11H8.5L12 15L15.5 11H17V9H15V4H9V9H7M21 12V7H23V12H21M21 16V14H23V16H21Z" /></svg>