<?xml version="1.0" encoding="UTF-8"?><!DOCTYPE svg PUBLIC "-//W3C//DTD SVG 1.1//EN" "http://www.w3.org/Graphics/SVG/1.1/DTD/svg11.dtd"><svg xmlns="http://www.w3.org/2000/svg" xmlns:xlink="http://www.w3.org/1999/xlink" version="1.1" id="mdi-printer-alert" width="24" height="24" viewBox="0 0 24 24"><path d="M14,4V8H6V4H14M15,13A1,1 0 0,0 16,12A1,1 0 0,0 15,11A1,1 0 0,0 14,12A1,1 0 0,0 15,13M13,19V15H7V19H13M15,9A3,3 0 0,1 18,12V17H15V21H5V17H2V12A3,3 0 0,1 5,9H15M22,7V12H20V7H22M22,14V16H20V14H22Z" /></svg>