<?xml version="1.0" encoding="UTF-8"?><!DOCTYPE svg PUBLIC "-//W3C//DTD SVG 1.1//EN" "http://www.w3.org/Graphics/SVG/1.1/DTD/svg11.dtd"><svg xmlns="http://www.w3.org/2000/svg" xmlns:xlink="http://www.w3.org/1999/xlink" version="1.1" id="mdi-quality-low" width="24" height="24" viewBox="0 0 24 24"><path d="M14.5,13.5H16.5V10.5H14.5M18,14C18,14.6 17.6,15 17,15H16.25V16.5H14.75V15H14C13.4,15 13,14.6 13,14V10C13,9.4 13.4,9 14,9H17C17.6,9 18,9.4 18,10M19,4H5A2,2 0 0,0 3,6V18A2,2 0 0,0 5,20H19A2,2 0 0,0 21,18V6A2,2 0 0,0 19,4M11,13.5V15H6V9H7.5V13.5H11Z" /></svg>