<?xml version="1.0" encoding="UTF-8"?><!DOCTYPE svg PUBLIC "-//W3C//DTD SVG 1.1//EN" "http://www.w3.org/Graphics/SVG/1.1/DTD/svg11.dtd"><svg xmlns="http://www.w3.org/2000/svg" xmlns:xlink="http://www.w3.org/1999/xlink" version="1.1" id="mdi-quality-medium" width="24" height="24" viewBox="0 0 24 24"><path d="M21,6V18A2,2 0 0,1 19,20H5A2,2 0 0,1 3,18V6A2,2 0 0,1 5,4H19A2,2 0 0,1 21,6M12,10C12,9.5 11.5,9 11,9H6.5C6,9 5.5,9.5 5.5,10V15H7V10.5H8V14H9.5V10.5H10.5V15H12V10M14.5,9A1,1 0 0,0 13.5,10V14A1,1 0 0,0 14.5,15H15.5V16.5H16.75V15H17.5A1,1 0 0,0 18.5,14V10A1,1 0 0,0 17.5,9H14.5M15,10.5H17V13.5H15V10.5Z" /></svg>