<?xml version="1.0" encoding="UTF-8"?><!DOCTYPE svg PUBLIC "-//W3C//DTD SVG 1.1//EN" "http://www.w3.org/Graphics/SVG/1.1/DTD/svg11.dtd"><svg xmlns="http://www.w3.org/2000/svg" xmlns:xlink="http://www.w3.org/1999/xlink" version="1.1" id="mdi-read" width="24" height="24" viewBox="0 0 24 24"><path d="M21.59,11.59L23,13L13.5,22.5L8.42,17.41L9.83,16L13.5,19.68L21.59,11.59M4,16V3H6L9,3A4,4 0 0,1 13,7C13,8.54 12.13,9.88 10.85,10.55L14,16H12L9.11,11H6V16H4M6,9H9A2,2 0 0,0 11,7A2,2 0 0,0 9,5H6V9Z" /></svg>