<?xml version="1.0" encoding="UTF-8"?><!DOCTYPE svg PUBLIC "-//W3C//DTD SVG 1.1//EN" "http://www.w3.org/Graphics/SVG/1.1/DTD/svg11.dtd"><svg xmlns="http://www.w3.org/2000/svg" xmlns:xlink="http://www.w3.org/1999/xlink" version="1.1" id="mdi-receipt" width="24" height="24" viewBox="0 0 24 24"><path d="M3,22L4.5,20.5L6,22L7.5,20.5L9,22L10.5,20.5L12,22L13.5,20.5L15,22L16.5,20.5L18,22L19.5,20.5L21,22V2L19.5,3.5L18,2L16.5,3.5L15,2L13.5,3.5L12,2L10.5,3.5L9,2L7.5,3.5L6,2L4.5,3.5L3,2M18,9H6V7H18M18,13H6V11H18M18,17H6V15H18V17Z" /></svg>