<?xml version="1.0" encoding="UTF-8"?><!DOCTYPE svg PUBLIC "-//W3C//DTD SVG 1.1//EN" "http://www.w3.org/Graphics/SVG/1.1/DTD/svg11.dtd"><svg xmlns="http://www.w3.org/2000/svg" xmlns:xlink="http://www.w3.org/1999/xlink" version="1.1" id="mdi-rename-box" width="24" height="24" viewBox="0 0 24 24"><path d="M18,17H10.5L12.5,15H18M6,17V14.5L13.88,6.65C14.07,6.45 14.39,6.45 14.59,6.65L16.35,8.41C16.55,8.61 16.55,8.92 16.35,9.12L8.47,17M19,3H5C3.89,3 3,3.89 3,5V19A2,2 0 0,0 5,21H19A2,2 0 0,0 21,19V5C21,3.89 20.1,3 19,3Z" /></svg>