<svg xmlns="http://www.w3.org/2000/svg" viewBox="0 0 24 24"><path d="M4,6V16H9V12A2,2 0 0,1 11,10H16A2,2 0 0,1 18,12V16H20V6H4M0,20V18H4A2,2 0 0,1 2,16V6A2,2 0 0,1 4,4H20A2,2 0 0,1 22,6V16A2,2 0 0,1 20,18H24V20H18V20C18,21.11 17.1,22 16,22H11A2,2 0 0,1 9,20H9L0,20M11.5,20A0.5,0.5 0 0,0 11,20.5A0.5,0.5 0 0,0 11.5,21A0.5,0.5 0 0,0 12,20.5A0.5,0.5 0 0,0 11.5,20M15.5,20A0.5,0.5 0 0,0 15,20.5A0.5,0.5 0 0,0 15.5,21A0.5,0.5 0 0,0 16,20.5A0.5,0.5 0 0,0 15.5,20M13,20V21H14V20H13M11,12V19H16V12H11Z" /></svg>