<?xml version="1.0" encoding="UTF-8"?><!DOCTYPE svg PUBLIC "-//W3C//DTD SVG 1.1//EN" "http://www.w3.org/Graphics/SVG/1.1/DTD/svg11.dtd"><svg xmlns="http://www.w3.org/2000/svg" xmlns:xlink="http://www.w3.org/1999/xlink" version="1.1" id="mdi-rewind-30" width="24" height="24" viewBox="0 0 24 24"><path d="M19,14V20C19,21.11 18.11,22 17,22H15A2,2 0 0,1 13,20V14A2,2 0 0,1 15,12H17C18.11,12 19,12.9 19,14M15,14V20H17V14H15M11,20C11,21.11 10.1,22 9,22H5V20H9V18H7V16H9V14H5V12H9A2,2 0 0,1 11,14V15.5A1.5,1.5 0 0,1 9.5,17A1.5,1.5 0 0,1 11,18.5V20M12.5,3C17.15,3 21.08,6.03 22.47,10.22L20.1,11C19.05,7.81 16.04,5.5 12.5,5.5C10.54,5.5 8.77,6.22 7.38,7.38L10,10H3V3L5.6,5.6C7.45,4 9.85,3 12.5,3Z" /></svg>