<?xml version="1.0" encoding="UTF-8"?><!DOCTYPE svg PUBLIC "-//W3C//DTD SVG 1.1//EN" "http://www.w3.org/Graphics/SVG/1.1/DTD/svg11.dtd"><svg xmlns="http://www.w3.org/2000/svg" xmlns:xlink="http://www.w3.org/1999/xlink" version="1.1" id="mdi-robot-vacuum" width="24" height="24" viewBox="0 0 24 24"><path d="M12,2C14.65,2 17.19,3.06 19.07,4.93L17.65,6.35C16.15,4.85 14.12,4 12,4C9.88,4 7.84,4.84 6.35,6.35L4.93,4.93C6.81,3.06 9.35,2 12,2M3.66,6.5L5.11,7.94C4.39,9.17 4,10.57 4,12A8,8 0 0,0 12,20A8,8 0 0,0 20,12C20,10.57 19.61,9.17 18.88,7.94L20.34,6.5C21.42,8.12 22,10.04 22,12A10,10 0 0,1 12,22A10,10 0 0,1 2,12C2,10.04 2.58,8.12 3.66,6.5M12,6A6,6 0 0,1 18,12C18,13.59 17.37,15.12 16.24,16.24L14.83,14.83C14.08,15.58 13.06,16 12,16C10.94,16 9.92,15.58 9.17,14.83L7.76,16.24C6.63,15.12 6,13.59 6,12A6,6 0 0,1 12,6M12,8A1,1 0 0,0 11,9A1,1 0 0,0 12,10A1,1 0 0,0 13,9A1,1 0 0,0 12,8Z" /></svg>