<?xml version="1.0" encoding="UTF-8"?><!DOCTYPE svg PUBLIC "-//W3C//DTD SVG 1.1//EN" "http://www.w3.org/Graphics/SVG/1.1/DTD/svg11.dtd"><svg xmlns="http://www.w3.org/2000/svg" xmlns:xlink="http://www.w3.org/1999/xlink" version="1.1" id="mdi-room-service-outline" width="24" height="24" viewBox="0 0 24 24"><path d="M12,5A2,2 0 0,1 14,7C14,7.24 13.96,7.47 13.88,7.69C17.95,8.5 21,11.91 21,16H3C3,11.91 6.05,8.5 10.12,7.69C10.04,7.47 10,7.24 10,7A2,2 0 0,1 12,5M22,19H2V17H22V19M12,9.5C8.89,9.5 6.25,11.39 5.34,14H18.66C17.75,11.39 15.11,9.5 12,9.5Z" /></svg>