<?xml version="1.0" encoding="UTF-8"?><!DOCTYPE svg PUBLIC "-//W3C//DTD SVG 1.1//EN" "http://www.w3.org/Graphics/SVG/1.1/DTD/svg11.dtd"><svg xmlns="http://www.w3.org/2000/svg" xmlns:xlink="http://www.w3.org/1999/xlink" version="1.1" id="mdi-rotate-right-variant" width="24" height="24" viewBox="0 0 24 24"><path d="M10,4V1L14,5L10,9V6A6,6 0 0,0 4,12L4.08,13H2.06L2,12A8,8 0 0,1 10,4M17,2H20A2,2 0 0,1 22,4V20A2,2 0 0,1 20,22H17A2,2 0 0,1 15,20V4A2,2 0 0,1 17,2M4,15H13V22H4A2,2 0 0,1 2,20V17A2,2 0 0,1 4,15Z" /></svg>