<?xml version="1.0" encoding="UTF-8"?><!DOCTYPE svg PUBLIC "-//W3C//DTD SVG 1.1//EN" "http://www.w3.org/Graphics/SVG/1.1/DTD/svg11.dtd"><svg xmlns="http://www.w3.org/2000/svg" xmlns:xlink="http://www.w3.org/1999/xlink" version="1.1" id="mdi-rotate-3d-variant" width="24" height="24" viewBox="0 0 24 24"><path d="M12,5C16.97,5 21,7.69 21,11C21,12.68 19.96,14.2 18.29,15.29C19.36,14.42 20,13.32 20,12.13C20,9.29 16.42,7 12,7V10L8,6L12,2V5M12,19C7.03,19 3,16.31 3,13C3,11.32 4.04,9.8 5.71,8.71C4.64,9.58 4,10.68 4,11.88C4,14.71 7.58,17 12,17V14L16,18L12,22V19Z" /></svg>