<?xml version="1.0" encoding="UTF-8"?><!DOCTYPE svg PUBLIC "-//W3C//DTD SVG 1.1//EN" "http://www.w3.org/Graphics/SVG/1.1/DTD/svg11.dtd"><svg xmlns="http://www.w3.org/2000/svg" xmlns:xlink="http://www.w3.org/1999/xlink" version="1.1" id="mdi-rotate-left-variant" width="24" height="24" viewBox="0 0 24 24"><path d="M4,2H7A2,2 0 0,1 9,4V20A2,2 0 0,1 7,22H4A2,2 0 0,1 2,20V4A2,2 0 0,1 4,2M20,15A2,2 0 0,1 22,17V20A2,2 0 0,1 20,22H11V15H20M14,4A8,8 0 0,1 22,12L21.94,13H19.92L20,12A6,6 0 0,0 14,6V9L10,5L14,1V4Z" /></svg>