<?xml version="1.0" encoding="UTF-8"?><!DOCTYPE svg PUBLIC "-//W3C//DTD SVG 1.1//EN" "http://www.w3.org/Graphics/SVG/1.1/DTD/svg11.dtd"><svg xmlns="http://www.w3.org/2000/svg" xmlns:xlink="http://www.w3.org/1999/xlink" version="1.1" id="mdi-rugby" width="24" height="24" viewBox="0 0 24 24"><path d="M16.22,16.22C18.25,14.19 19.33,11.5 19.45,8.2C18.36,10.61 16.81,12.81 14.81,14.81C12.81,16.81 10.61,18.36 8.2,19.45C11.5,19.36 14.16,18.28 16.22,16.22M7.78,7.78C5.75,9.81 4.67,12.5 4.55,15.8C5,14.8 5.7,13.65 6.61,12.35C7.5,11.05 8.38,10 9.19,9.19C11.19,7.19 13.39,5.64 15.8,4.55C12.5,4.64 9.84,5.72 7.78,7.78M20.5,3.5C21,4.05 21.34,5.11 21.47,6.7C21.59,8.3 21.35,10.16 20.74,12.3C20.13,14.45 19.11,16.23 17.67,17.67C16.36,19 14.8,19.95 13,20.55C11.21,21.16 9.44,21.47 7.69,21.47C5.56,21.47 4.17,21.14 3.5,20.5C3,19.95 2.66,18.89 2.53,17.3C2.41,15.7 2.65,13.84 3.26,11.7C3.87,9.55 4.89,7.77 6.33,6.33C7.64,5 9.2,4.05 11,3.45C12.79,2.84 14.56,2.53 16.31,2.53C18.44,2.53 19.83,2.86 20.5,3.5Z" /></svg>