<?xml version="1.0" encoding="UTF-8"?><!DOCTYPE svg PUBLIC "-//W3C//DTD SVG 1.1//EN" "http://www.w3.org/Graphics/SVG/1.1/DTD/svg11.dtd"><svg xmlns="http://www.w3.org/2000/svg" xmlns:xlink="http://www.w3.org/1999/xlink" version="1.1" id="mdi-ruler" width="24" height="24" viewBox="0 0 24 24"><path d="M1.39,18.36L3.16,16.6L4.58,18L5.64,16.95L4.22,15.54L5.64,14.12L8.11,16.6L9.17,15.54L6.7,13.06L8.11,11.65L9.53,13.06L10.59,12L9.17,10.59L10.59,9.17L13.06,11.65L14.12,10.59L11.65,8.11L13.06,6.7L14.47,8.11L15.54,7.05L14.12,5.64L15.54,4.22L18,6.7L19.07,5.64L16.6,3.16L18.36,1.39L22.61,5.64L5.64,22.61L1.39,18.36Z" /></svg>