<?xml version="1.0" encoding="UTF-8"?><!DOCTYPE svg PUBLIC "-//W3C//DTD SVG 1.1//EN" "http://www.w3.org/Graphics/SVG/1.1/DTD/svg11.dtd"><svg xmlns="http://www.w3.org/2000/svg" xmlns:xlink="http://www.w3.org/1999/xlink" version="1.1" id="mdi-rv-truck" width="24" height="24" viewBox="0 0 24 24"><path d="M20 8H22V6L20 4H3A2 2 0 0 0 1 6V15A2 2 0 0 0 3 17H4A3 3 0 0 0 7 20A3 3 0 0 0 10 17H15A3 3 0 0 0 21 17H23V12M7 18.5A1.5 1.5 0 0 1 7 15.5A1.5 1.5 0 0 1 7 18.5M9 12H3V9H9M14 15H11V9H14M18 18.5A1.5 1.5 0 1 1 19.5 17A1.54 1.54 0 0 1 18 18.5M17 12V9.5H19.5L21.5 12Z" /></svg>