<?xml version="1.0" encoding="UTF-8"?><!DOCTYPE svg PUBLIC "-//W3C//DTD SVG 1.1//EN" "http://www.w3.org/Graphics/SVG/1.1/DTD/svg11.dtd"><svg xmlns="http://www.w3.org/2000/svg" xmlns:xlink="http://www.w3.org/1999/xlink" version="1.1" id="mdi-saxophone" width="24" height="24" viewBox="0 0 24 24"><path d="M4,2A1,1 0 0,0 3,3A1,1 0 0,0 4,4A3,3 0 0,1 7,7V8.66L7,15.5C7,19.1 9.9,22 13.5,22C17.1,22 20,19.1 20,15.5V13A1,1 0 0,0 21,12A1,1 0 0,0 20,11H14A1,1 0 0,0 13,12A1,1 0 0,0 14,13V15A1,1 0 0,1 13,16A1,1 0 0,1 12,15V11A1,1 0 0,0 13,10A1,1 0 0,0 12,9V8A1,1 0 0,0 13,7A1,1 0 0,0 12,6V5.5A3.5,3.5 0 0,0 8.5,2H4Z" /></svg>