<?xml version="1.0" encoding="UTF-8"?><!DOCTYPE svg PUBLIC "-//W3C//DTD SVG 1.1//EN" "http://www.w3.org/Graphics/SVG/1.1/DTD/svg11.dtd"><svg xmlns="http://www.w3.org/2000/svg" xmlns:xlink="http://www.w3.org/1999/xlink" version="1.1" id="mdi-scanner-off" width="24" height="24" viewBox="0 0 24 24"><path d="M2,5.27L3.28,4L20,20.72L18.73,22L16.73,20H5A2,2 0 0,1 3,18V12.5C3,11.7 3.5,10.9 4.2,10.7L6.57,9.84L2,5.27M6.4,12H8.73L8.11,11.38L6.4,12M5,15V17H13.73L11.73,15H5M19.8,5L20.5,6.9L11.85,10.03L10.3,8.47L19.8,5M19,12A2,2 0 0,1 21,14V18C21,18.34 20.91,18.66 20.76,18.94L19,17.18V15H16.82L13.82,12H19Z" /></svg>