<?xml version="1.0" encoding="UTF-8"?><!DOCTYPE svg PUBLIC "-//W3C//DTD SVG 1.1//EN" "http://www.w3.org/Graphics/SVG/1.1/DTD/svg11.dtd"><svg xmlns="http://www.w3.org/2000/svg" xmlns:xlink="http://www.w3.org/1999/xlink" version="1.1" id="mdi-scatter-plot" width="24" height="24" viewBox="0 0 24 24"><path d="M7,11A3,3 0 0,1 10,14A3,3 0 0,1 7,17A3,3 0 0,1 4,14A3,3 0 0,1 7,11M11,3A3,3 0 0,1 14,6A3,3 0 0,1 11,9A3,3 0 0,1 8,6A3,3 0 0,1 11,3M16.6,14.6C18.25,14.6 19.6,15.94 19.6,17.6A3,3 0 0,1 16.6,20.6C14.94,20.6 13.6,19.25 13.6,17.6A3,3 0 0,1 16.6,14.6Z" /></svg>