<?xml version="1.0" encoding="UTF-8"?><!DOCTYPE svg PUBLIC "-//W3C//DTD SVG 1.1//EN" "http://www.w3.org/Graphics/SVG/1.1/DTD/svg11.dtd"><svg xmlns="http://www.w3.org/2000/svg" xmlns:xlink="http://www.w3.org/1999/xlink" version="1.1" id="mdi-screen-rotation" width="24" height="24" viewBox="0 0 24 24"><path d="M7.5,21.5C4.25,19.94 1.91,16.76 1.55,13H0.05C0.56,19.16 5.71,24 12,24L12.66,23.97L8.85,20.16M14.83,21.19L2.81,9.17L9.17,2.81L21.19,14.83M10.23,1.75C9.64,1.16 8.69,1.16 8.11,1.75L1.75,8.11C1.16,8.7 1.16,9.65 1.75,10.23L13.77,22.25C14.36,22.84 15.31,22.84 15.89,22.25L22.25,15.89C22.84,15.3 22.84,14.35 22.25,13.77L10.23,1.75M16.5,2.5C19.75,4.07 22.09,7.24 22.45,11H23.95C23.44,4.84 18.29,0 12,0L11.34,0.03L15.15,3.84L16.5,2.5Z" /></svg>