<?xml version="1.0" encoding="UTF-8"?><!DOCTYPE svg PUBLIC "-//W3C//DTD SVG 1.1//EN" "http://www.w3.org/Graphics/SVG/1.1/DTD/svg11.dtd"><svg xmlns="http://www.w3.org/2000/svg" xmlns:xlink="http://www.w3.org/1999/xlink" version="1.1" id="mdi-seat-legroom-reduced" width="24" height="24" viewBox="0 0 24 24"><path d="M19.97,19.2C20.15,20.16 19.42,21 18.5,21H14V18L15,14H9A3,3 0 0,1 6,11V3H12V9H17A2,2 0 0,1 19,11L17,18H18.44C19.17,18 19.83,18.5 19.97,19.2M5,12V3H3V12A5,5 0 0,0 8,17H12V15H8A3,3 0 0,1 5,12Z" /></svg>