<?xml version="1.0" encoding="UTF-8"?><!DOCTYPE svg PUBLIC "-//W3C//DTD SVG 1.1//EN" "http://www.w3.org/Graphics/SVG/1.1/DTD/svg11.dtd"><svg xmlns="http://www.w3.org/2000/svg" xmlns:xlink="http://www.w3.org/1999/xlink" version="1.1" id="mdi-seat-legroom-extra" width="24" height="24" viewBox="0 0 24 24"><path d="M4,12V3H2V12A5,5 0 0,0 7,17H13V15H7A3,3 0 0,1 4,12M22.83,17.24C22.45,16.5 21.54,16.27 20.8,16.61L19.71,17.11L16.3,10.13C15.96,9.45 15.27,9 14.5,9H11V3H5V11A3,3 0 0,0 8,14H15L18.41,21L22.13,19.3C22.9,18.94 23.23,18 22.83,17.24Z" /></svg>