<?xml version="1.0" encoding="UTF-8"?><!DOCTYPE svg PUBLIC "-//W3C//DTD SVG 1.1//EN" "http://www.w3.org/Graphics/SVG/1.1/DTD/svg11.dtd"><svg xmlns="http://www.w3.org/2000/svg" xmlns:xlink="http://www.w3.org/1999/xlink" version="1.1" id="mdi-select-multiple" width="24" height="24" viewBox="0 0 24 24"><path d="M18 12H20V14H18V12M14 16H16V18H14V16M20 17C20 17.55 19.55 18 19 18H18V16H20V17M7 4H8V6H6V5C6 4.45 6.45 4 7 4M19 4C19.55 4 20 4.45 20 5V6H18V4H19M14 6V4H16V6H14M10 6V4H12V6H10M10 18V16H12V18H10M7 18C6.45 18 6 17.55 6 17V16H8V18H7M6 12H8V14H6V12M6 8H8V10H6V8M20 8V10H18V8H20M3 8H4V20H16V21C16 21.54 15.57 22 15.03 22H15L3 22C2.45 22 2 21.55 2 21V9C2 8.45 2.45 8 3 8Z" /></svg>