<?xml version="1.0" encoding="UTF-8"?><!DOCTYPE svg PUBLIC "-//W3C//DTD SVG 1.1//EN" "http://www.w3.org/Graphics/SVG/1.1/DTD/svg11.dtd"><svg xmlns="http://www.w3.org/2000/svg" xmlns:xlink="http://www.w3.org/1999/xlink" version="1.1" id="mdi-selection-off" width="24" height="24" viewBox="0 0 24 24"><path d="M0.5,3.77L1.78,2.5L21.5,22.22L20.23,23.5L18.73,22H17V20.27L3.73,7H2V5.27L0.5,3.77M4,2H7V4H5.82L3.83,2H4M22,4V7H20V4H17V2H20A2,2 0 0,1 22,4M20,17H22V20L22,20.17L20,18.18V17M2,20V17H4V20H7V22H4A2,2 0 0,1 2,20M10,2H14V4H10V2M10,20H14V22H10V20M20,10H22V14H20V10M2,10H4V14H2V10Z" /></svg>