<?xml version="1.0" encoding="UTF-8"?><!DOCTYPE svg PUBLIC "-//W3C//DTD SVG 1.1//EN" "http://www.w3.org/Graphics/SVG/1.1/DTD/svg11.dtd"><svg xmlns="http://www.w3.org/2000/svg" xmlns:xlink="http://www.w3.org/1999/xlink" version="1.1" id="mdi-select-multiple-marker" width="24" height="24" viewBox="0 0 24 24"><path d="M7 4H8V6H6V5C6 4.45 6.45 4 7 4M19 4C19.55 4 20 4.45 20 5V6H18V4H19M14 6V4H16V6H14M10 6V4H12V6H10M10 18V16H12V18H10M7 18C6.45 18 6 17.55 6 17V16H8V18H7M6 12H8V14H6V12M6 8H8V10H6V8M20 8V10H18V8H20M3 8H4V20H14.58L16.03 22L3 22C2.45 22 2 21.55 2 21V9C2 8.45 2.45 8 3 8M18.5 12C20.4 12 22 13.6 22 15.5C22 18.1 18.5 22 18.5 22C18.5 22 15 18.1 15 15.5C15 13.6 16.6 12 18.5 12M18.5 16.8C19.2 16.8 19.8 16.2 19.7 15.6C19.7 15 19.1 14.4 18.5 14.4C17.9 14.4 17.3 14.9 17.3 15.6C17.3 16.2 17.8 16.8 18.5 16.8Z" /></svg>