<?xml version="1.0" encoding="UTF-8"?><!DOCTYPE svg PUBLIC "-//W3C//DTD SVG 1.1//EN" "http://www.w3.org/Graphics/SVG/1.1/DTD/svg11.dtd"><svg xmlns="http://www.w3.org/2000/svg" xmlns:xlink="http://www.w3.org/1999/xlink" version="1.1" id="mdi-server-remove" width="24" height="24" viewBox="0 0 24 24"><path d="M4,4H20A1,1 0 0,1 21,5V9A1,1 0 0,1 20,10H4A1,1 0 0,1 3,9V5A1,1 0 0,1 4,4M9,8H10V6H9V8M5,6V8H7V6H5M10.59,17L8,14.41L9.41,13L12,15.59L14.59,13L16,14.41L13.41,17L16,19.59L14.59,21L12,18.41L9.41,21L8,19.59L10.59,17Z" /></svg>