<?xml version="1.0" encoding="UTF-8"?><!DOCTYPE svg PUBLIC "-//W3C//DTD SVG 1.1//EN" "http://www.w3.org/Graphics/SVG/1.1/DTD/svg11.dtd"><svg xmlns="http://www.w3.org/2000/svg" xmlns:xlink="http://www.w3.org/1999/xlink" version="1.1" id="mdi-set-center" width="24" height="24" viewBox="0 0 24 24"><path d="M9,5A7,7 0 0,0 2,12A7,7 0 0,0 9,19C10.04,19 11.06,18.76 12,18.32C12.94,18.76 13.96,19 15,19A7,7 0 0,0 22,12A7,7 0 0,0 15,5C13.96,5 12.94,5.24 12,5.68C11.06,5.24 10.04,5 9,5M9,7C9.34,7 9.67,7.03 10,7.1C8.72,8.41 8,10.17 8,12C8,13.83 8.72,15.59 10,16.89C9.67,16.96 9.34,17 9,17A5,5 0 0,1 4,12A5,5 0 0,1 9,7M15,7A5,5 0 0,1 20,12A5,5 0 0,1 15,17C14.66,17 14.33,16.97 14,16.9C15.28,15.59 16,13.83 16,12C16,10.17 15.28,8.41 14,7.11C14.33,7.04 14.66,7 15,7Z" /></svg>