<?xml version="1.0" encoding="UTF-8"?><!DOCTYPE svg PUBLIC "-//W3C//DTD SVG 1.1//EN" "http://www.w3.org/Graphics/SVG/1.1/DTD/svg11.dtd"><svg xmlns="http://www.w3.org/2000/svg" xmlns:xlink="http://www.w3.org/1999/xlink" version="1.1" id="mdi-shape-oval-plus" width="24" height="24" viewBox="0 0 24 24"><path d="M19 5H22V7H19V10H17V7H14V5H17V2H19V5M11 4L12 4.09V6.14C11.68 6.05 11.34 6 11 6C8.24 6 6 9.13 6 13C6 16.87 8.24 20 11 20C13.76 20 16 16.87 16 13L15.95 12H17.96L18 13C18 17.97 14.87 22 11 22C7.13 22 4 17.97 4 13C4 8.03 7.13 4 11 4Z" /></svg>