<?xml version="1.0" encoding="UTF-8"?><!DOCTYPE svg PUBLIC "-//W3C//DTD SVG 1.1//EN" "http://www.w3.org/Graphics/SVG/1.1/DTD/svg11.dtd"><svg xmlns="http://www.w3.org/2000/svg" xmlns:xlink="http://www.w3.org/1999/xlink" version="1.1" id="mdi-shield-key" width="24" height="24" viewBox="0 0 24 24"><path d="M12,8A1,1 0 0,1 13,9A1,1 0 0,1 12,10A1,1 0 0,1 11,9A1,1 0 0,1 12,8M21,11C21,16.55 17.16,21.74 12,23C6.84,21.74 3,16.55 3,11V5L12,1L21,5V11M12,6A3,3 0 0,0 9,9C9,10.31 9.83,11.42 11,11.83V18H13V16H15V14H13V11.83C14.17,11.42 15,10.31 15,9A3,3 0 0,0 12,6Z" /></svg>