<?xml version="1.0" encoding="UTF-8"?><!DOCTYPE svg PUBLIC "-//W3C//DTD SVG 1.1//EN" "http://www.w3.org/Graphics/SVG/1.1/DTD/svg11.dtd"><svg xmlns="http://www.w3.org/2000/svg" xmlns:xlink="http://www.w3.org/1999/xlink" version="1.1" id="mdi-shoe-print" width="24" height="24" viewBox="0 0 24 24"><path d="M10.74,11.72C11.21,12.95 11.16,14.23 9.75,14.74C6.85,15.81 6.2,13 6.16,12.86L10.74,11.72M5.71,10.91L10.03,9.84C9.84,8.79 10.13,7.74 10.13,6.5C10.13,4.82 8.8,1.53 6.68,2.06C4.26,2.66 3.91,5.35 4,6.65C4.12,7.95 5.64,10.73 5.71,10.91M17.85,19.85C17.82,20 17.16,22.8 14.26,21.74C12.86,21.22 12.8,19.94 13.27,18.71L17.85,19.85M20,13.65C20.1,12.35 19.76,9.65 17.33,9.05C15.22,8.5 13.89,11.81 13.89,13.5C13.89,14.73 14.17,15.78 14,16.83L18.3,17.9C18.38,17.72 19.89,14.94 20,13.65Z" /></svg>