<?xml version="1.0" encoding="UTF-8"?><!DOCTYPE svg PUBLIC "-//W3C//DTD SVG 1.1//EN" "http://www.w3.org/Graphics/SVG/1.1/DTD/svg11.dtd"><svg xmlns="http://www.w3.org/2000/svg" xmlns:xlink="http://www.w3.org/1999/xlink" version="1.1" id="mdi-shopping" width="24" height="24" viewBox="0 0 24 24"><path d="M12,13A5,5 0 0,1 7,8H9A3,3 0 0,0 12,11A3,3 0 0,0 15,8H17A5,5 0 0,1 12,13M12,3A3,3 0 0,1 15,6H9A3,3 0 0,1 12,3M19,6H17A5,5 0 0,0 12,1A5,5 0 0,0 7,6H5C3.89,6 3,6.89 3,8V20A2,2 0 0,0 5,22H19A2,2 0 0,0 21,20V8C21,6.89 20.1,6 19,6Z" /></svg>