<?xml version="1.0" encoding="UTF-8"?><!DOCTYPE svg PUBLIC "-//W3C//DTD SVG 1.1//EN" "http://www.w3.org/Graphics/SVG/1.1/DTD/svg11.dtd"><svg xmlns="http://www.w3.org/2000/svg" xmlns:xlink="http://www.w3.org/1999/xlink" version="1.1" id="mdi-shower-head" width="24" height="24" viewBox="0 0 24 24"><path d="M20,20A1,1 0 0,1 21,21A1,1 0 0,1 20,22A1,1 0 0,1 19,21A1,1 0 0,1 20,20M16,20A1,1 0 0,1 17,21A1,1 0 0,1 16,22A1,1 0 0,1 15,21A1,1 0 0,1 16,20M12,20A1,1 0 0,1 13,21A1,1 0 0,1 12,22A1,1 0 0,1 11,21A1,1 0 0,1 12,20M8,20A1,1 0 0,1 9,21A1,1 0 0,1 8,22A1,1 0 0,1 7,21A1,1 0 0,1 8,20M4,20A1,1 0 0,1 5,21A1,1 0 0,1 4,22A1,1 0 0,1 3,21A1,1 0 0,1 4,20M6,17A1,1 0 0,1 7,18A1,1 0 0,1 6,19H6A1,1 0 0,1 5,18A1,1 0 0,1 6,17H6M10,17A1,1 0 0,1 11,18A1,1 0 0,1 10,19A1,1 0 0,1 9,18A1,1 0 0,1 10,17M14,17A1,1 0 0,1 15,18A1,1 0 0,1 14,19A1,1 0 0,1 13,18A1,1 0 0,1 14,17M18,17A1,1 0 0,1 19,18A1,1 0 0,1 18,19A1,1 0 0,1 17,18A1,1 0 0,1 18,17M8,14A1,1 0 0,1 9,15A1,1 0 0,1 8,16A1,1 0 0,1 7,15A1,1 0 0,1 8,14M12,14A1,1 0 0,1 13,15A1,1 0 0,1 12,16A1,1 0 0,1 11,15A1,1 0 0,1 12,14M16,14A1,1 0 0,1 17,15A1,1 0 0,1 16,16A1,1 0 0,1 15,15A1,1 0 0,1 16,14M19,12H5V10H19V12M17.92,9H6.08C6.5,6.5 8.5,4.5 11,4.08V2H13V4.08C15.5,4.5 17.5,6.5 17.92,9Z" /></svg>