<?xml version="1.0" encoding="UTF-8"?><!DOCTYPE svg PUBLIC "-//W3C//DTD SVG 1.1//EN" "http://www.w3.org/Graphics/SVG/1.1/DTD/svg11.dtd"><svg xmlns="http://www.w3.org/2000/svg" xmlns:xlink="http://www.w3.org/1999/xlink" version="1.1" id="mdi-skull-crossbones-outline" width="24" height="24" viewBox="0 0 24 24"><path d="M15.8,18.5L21.8,20.1L21.4,22L12,19.5L2.6,22L2.1,20.1L8.1,18.5L2,16.9L2.5,15L11.9,17.5L21.3,15L21.8,16.9L15.8,18.5M9.5,6C8.7,6 8,6.7 8,7.5C8,8.3 8.7,9 9.5,9C10.3,9 11,8.3 11,7.5C11,6.7 10.3,6 9.5,6M14.5,6C13.7,6 13,6.7 13,7.5C13,8.3 13.7,9 14.5,9C15.3,9 16,8.3 16,7.5C16,6.7 15.3,6 14.5,6M13,11L12,9L11,11H13M12,1C8.1,1 5,4.1 5,8C5,9.9 5.8,11.6 7,12.9V16H17V12.9C18.2,11.6 19,9.9 19,8C19,4.1 15.9,1 12,1M15,12V14H14V12H13V14H11V12H10V14H9V12H9C7.8,11.1 7,9.7 7,8C7,5.2 9.2,3 12,3C14.8,3 17,5.2 17,8C17,9.6 16.2,11.1 15,12Z" /></svg>