<?xml version="1.0" encoding="UTF-8"?><!DOCTYPE svg PUBLIC "-//W3C//DTD SVG 1.1//EN" "http://www.w3.org/Graphics/SVG/1.1/DTD/svg11.dtd"><svg xmlns="http://www.w3.org/2000/svg" xmlns:xlink="http://www.w3.org/1999/xlink" version="1.1" id="mdi-skype" width="24" height="24" viewBox="0 0 24 24"><path d="M18,6C20.07,8.04 20.85,10.89 20.36,13.55C20.77,14.27 21,15.11 21,16A5,5 0 0,1 16,21C15.11,21 14.27,20.77 13.55,20.36C10.89,20.85 8.04,20.07 6,18C3.93,15.96 3.15,13.11 3.64,10.45C3.23,9.73 3,8.89 3,8A5,5 0 0,1 8,3C8.89,3 9.73,3.23 10.45,3.64C13.11,3.15 15.96,3.93 18,6M12.04,17.16C14.91,17.16 16.34,15.78 16.34,13.92C16.34,12.73 15.78,11.46 13.61,10.97L11.62,10.53C10.86,10.36 10,10.13 10,9.42C10,8.7 10.6,8.2 11.7,8.2C13.93,8.2 13.72,9.73 14.83,9.73C15.41,9.73 15.91,9.39 15.91,8.8C15.91,7.43 13.72,6.4 11.86,6.4C9.85,6.4 7.7,7.26 7.7,9.54C7.7,10.64 8.09,11.81 10.25,12.35L12.94,13.03C13.75,13.23 13.95,13.68 13.95,14.1C13.95,14.78 13.27,15.45 12.04,15.45C9.63,15.45 9.96,13.6 8.67,13.6C8.09,13.6 7.67,14 7.67,14.57C7.67,15.68 9,17.16 12.04,17.16Z" /></svg>