<?xml version="1.0" encoding="UTF-8"?><!DOCTYPE svg PUBLIC "-//W3C//DTD SVG 1.1//EN" "http://www.w3.org/Graphics/SVG/1.1/DTD/svg11.dtd"><svg xmlns="http://www.w3.org/2000/svg" xmlns:xlink="http://www.w3.org/1999/xlink" version="1.1" id="mdi-smart-card-outline" width="24" height="24" viewBox="0 0 24 24"><path d="M22 3H2A2.07 2.07 0 0 0 0 5V19A2.07 2.07 0 0 0 2 21H22A2.07 2.07 0 0 0 24 19V5A2.07 2.07 0 0 0 22 3M22 19H2V5H22M14 17V15.75C14 14.09 10.66 13.25 9 13.25S4 14.09 4 15.75V17H14M9 7A2.5 2.5 0 1 0 11.5 9.5A2.5 2.5 0 0 0 9 7M15 10V13H19V10H15" /></svg>