<?xml version="1.0" encoding="UTF-8"?><!DOCTYPE svg PUBLIC "-//W3C//DTD SVG 1.1//EN" "http://www.w3.org/Graphics/SVG/1.1/DTD/svg11.dtd"><svg xmlns="http://www.w3.org/2000/svg" xmlns:xlink="http://www.w3.org/1999/xlink" version="1.1" id="mdi-smoking" width="24" height="24" viewBox="0 0 24 24"><path d="M2,16H17V19H2V16M20.5,16H22V19H20.5V16M18,16H19.5V19H18V16M18.85,7.73C19.47,7.12 19.85,6.28 19.85,5.35C19.85,3.5 18.35,2 16.5,2V3.5C17.5,3.5 18.35,4.33 18.35,5.35C18.35,6.37 17.5,7.2 16.5,7.2V8.7C18.74,8.7 20.5,10.53 20.5,12.77V15H22V12.76C22,10.54 20.72,8.62 18.85,7.73M16.03,10.2H14.5C13.5,10.2 12.65,9.22 12.65,8.2C12.65,7.18 13.5,6.45 14.5,6.45V4.95C12.65,4.95 11.15,6.45 11.15,8.3A3.35,3.35 0 0,0 14.5,11.65H16.03C17.08,11.65 18,12.39 18,13.7V15H19.5V13.36C19.5,11.55 17.9,10.2 16.03,10.2Z" /></svg>