<?xml version="1.0" encoding="UTF-8"?><!DOCTYPE svg PUBLIC "-//W3C//DTD SVG 1.1//EN" "http://www.w3.org/Graphics/SVG/1.1/DTD/svg11.dtd"><svg xmlns="http://www.w3.org/2000/svg" xmlns:xlink="http://www.w3.org/1999/xlink" version="1.1" id="mdi-smoking-off" width="24" height="24" viewBox="0 0 24 24"><path d="M2,6L9,13H2V16H12L19,23L20.25,21.75L3.25,4.75L2,6M20.5,13H22V16H20.5V13M18,13H19.5V16H18V13M18.85,4.88C19.47,4.27 19.85,3.43 19.85,2.5H18.35C18.35,3.5 17.5,4.35 16.5,4.35V5.85C18.74,5.85 20.5,7.68 20.5,9.92V12H22V9.92C22,7.69 20.72,5.77 18.85,4.88M14.5,8.7H16.03C17.08,8.7 18,9.44 18,10.75V12H19.5V10.41C19.5,8.61 17.9,7.25 16.03,7.25H14.5C13.5,7.25 12.65,6.27 12.65,5.25C12.65,4.23 13.5,3.5 14.5,3.5V2A3.35,3.35 0 0,0 11.15,5.35A3.35,3.35 0 0,0 14.5,8.7M17,15.93V13H14.07L17,15.93Z" /></svg>