<?xml version="1.0" encoding="UTF-8"?><!DOCTYPE svg PUBLIC "-//W3C//DTD SVG 1.1//EN" "http://www.w3.org/Graphics/SVG/1.1/DTD/svg11.dtd"><svg xmlns="http://www.w3.org/2000/svg" xmlns:xlink="http://www.w3.org/1999/xlink" version="1.1" id="mdi-snowflake-alert" width="24" height="24" viewBox="0 0 24 24"><path d="M16.46,9.41L13,7.38V5.12L14.71,3.41L13.29,2L12,3.29L10.71,2L9.29,3.41L11,5.12V7.38L8.5,8.82L6.5,7.69L5.92,5.36L4,5.88L4.47,7.65L2.7,8.12L3.22,10.05L5.55,9.43L7.55,10.56V13.45L5.55,14.58L3.22,13.96L2.7,15.89L4.47,16.36L4,18.12L5.93,18.64L6.55,16.31L8.55,15.18L11,16.62V18.88L9.29,20.59L10.71,22L12,20.71L13.29,22L14.7,20.59L13,18.88V16.62L16.46,14.61M9.5,10.56L12,9.11L14.5,10.56V13.44L12,14.89L9.5,13.44M19,13V7H21V13H19M19,17V15H21V17H19Z" /></svg>