<svg xmlns="http://www.w3.org/2000/svg" viewBox="0 0 24 24"><path d="M12 2A10 10 0 0 0 2 12a10 10 0 0 0 10 10 10 10 0 0 0 10-10A10 10 0 0 0 12 2m0 1c1.76 0 3.4.53 4.78 1.41L16.5 5H12l-1.72-.84.35-1.03c.45-.08.9-.13 1.37-.13m-2.47.38-.34 1.03-2.56 1.28-1.25.25a9.017 9.017 0 0 1 4.15-2.56M13 6h3l2.69 3.59-1.25 2.57-2.63.62-3.28-3.84L13 6m-6.84.66L7 10l-1.22 3.06-2.56.88C3.08 13.31 3 12.67 3 12c0-1.9.59-3.64 1.59-5.09l1.57-.25m14.4 2.56c.29.87.44 1.81.44 2.78 0 1.44-.37 2.79-.97 4H19l-.84-3.34 1.5-3 .9-.44M8 10h3l2.81 3.28L12 16l-3.16.78-2.31-3.09L8 10m4 7 3 2-.87 1.72c-.69.16-1.4.28-2.13.28-1.75 0-3.37-.5-4.75-1.37l1.16-1.72L12 17m7 0h.5c-1 1.5-2.5 2.67-4.19 3.34L16 19l3-2z"/></svg>