<?xml version="1.0" encoding="UTF-8"?><!DOCTYPE svg PUBLIC "-//W3C//DTD SVG 1.1//EN" "http://www.w3.org/Graphics/SVG/1.1/DTD/svg11.dtd"><svg xmlns="http://www.w3.org/2000/svg" xmlns:xlink="http://www.w3.org/1999/xlink" version="1.1" id="mdi-sofa" width="24" height="24" viewBox="0 0 24 24"><path d="M7,6H9A2,2 0 0,1 11,8V12H5V8A2,2 0 0,1 7,6M15,6H17A2,2 0 0,1 19,8V12H13V8A2,2 0 0,1 15,6M1,9H2A1,1 0 0,1 3,10V12A2,2 0 0,0 5,14H19A2,2 0 0,0 21,12V11L21,10A1,1 0 0,1 22,9H23A1,1 0 0,1 24,10V19H21V17H3V19H0V10A1,1 0 0,1 1,9Z" /></svg>