<?xml version="1.0" encoding="UTF-8"?><!DOCTYPE svg PUBLIC "-//W3C//DTD SVG 1.1//EN" "http://www.w3.org/Graphics/SVG/1.1/DTD/svg11.dtd"><svg xmlns="http://www.w3.org/2000/svg" xmlns:xlink="http://www.w3.org/1999/xlink" version="1.1" id="mdi-solar-panel-large" width="24" height="24" viewBox="0 0 24 24"><path d="M3,6H6V3H3V6M8,3V6H11V3H8M13,3V6H16V3H13M18,3V6H21V3H18M21,8H18V11H21V8M21,13H18V16H21V13M16,16V13H13V16H16M11,16V13H8V16H11M6,16V13H3V16H6M3,11H6V8H3V11M13,8V11H16V8H13M8,8V11H11V8H8M3,1H21A2,2 0 0,1 23,3V16A2,2 0 0,1 21,18H15V21H18V23H13V18H11V23H6V21H9V18H3A2,2 0 0,1 1,16V3A2,2 0 0,1 3,1Z" /></svg>