<?xml version="1.0" encoding="UTF-8"?><!DOCTYPE svg PUBLIC "-//W3C//DTD SVG 1.1//EN" "http://www.w3.org/Graphics/SVG/1.1/DTD/svg11.dtd"><svg xmlns="http://www.w3.org/2000/svg" xmlns:xlink="http://www.w3.org/1999/xlink" version="1.1" id="mdi-sort-bool-ascending" width="24" height="24" viewBox="0 0 24 24"><path d="M19 17H22L18 21L14 17H17V3H19V17M7 3C4.79 3 3 4.79 3 7S4.79 11 7 11 11 9.21 11 7 9.21 3 7 3M7 9C5.9 9 5 8.1 5 7S5.9 5 7 5 9 5.9 9 7 8.1 9 7 9M7 13C4.79 13 3 14.79 3 17S4.79 21 7 21 11 19.21 11 17 9.21 13 7 13Z" /></svg>