<?xml version="1.0" encoding="UTF-8"?><!DOCTYPE svg PUBLIC "-//W3C//DTD SVG 1.1//EN" "http://www.w3.org/Graphics/SVG/1.1/DTD/svg11.dtd"><svg xmlns="http://www.w3.org/2000/svg" xmlns:xlink="http://www.w3.org/1999/xlink" version="1.1" id="mdi-source-pull" width="24" height="24" viewBox="0 0 24 24"><path d="M6,3A3,3 0 0,1 9,6C9,7.31 8.17,8.42 7,8.83V15.17C8.17,15.58 9,16.69 9,18A3,3 0 0,1 6,21A3,3 0 0,1 3,18C3,16.69 3.83,15.58 5,15.17V8.83C3.83,8.42 3,7.31 3,6A3,3 0 0,1 6,3M6,5A1,1 0 0,0 5,6A1,1 0 0,0 6,7A1,1 0 0,0 7,6A1,1 0 0,0 6,5M6,17A1,1 0 0,0 5,18A1,1 0 0,0 6,19A1,1 0 0,0 7,18A1,1 0 0,0 6,17M21,18A3,3 0 0,1 18,21A3,3 0 0,1 15,18C15,16.69 15.83,15.58 17,15.17V7H15V10.25L10.75,6L15,1.75V5H17A2,2 0 0,1 19,7V15.17C20.17,15.58 21,16.69 21,18M18,17A1,1 0 0,0 17,18A1,1 0 0,0 18,19A1,1 0 0,0 19,18A1,1 0 0,0 18,17Z" /></svg>