<?xml version="1.0" encoding="UTF-8"?><!DOCTYPE svg PUBLIC "-//W3C//DTD SVG 1.1//EN" "http://www.w3.org/Graphics/SVG/1.1/DTD/svg11.dtd"><svg xmlns="http://www.w3.org/2000/svg" xmlns:xlink="http://www.w3.org/1999/xlink" version="1.1" id="mdi-spa-outline" width="24" height="24" viewBox="0 0 24 24"><path d="M15.5,9.63C14.21,10.32 13.03,11.2 12,12.26C10.97,11.19 9.79,10.31 8.5,9.63C8.74,6.86 9.92,4.14 12.06,2C14.18,4.12 15.31,6.84 15.5,9.63M12,15.45C14.15,12.17 17.82,10 22,10C22,20 12.68,21.88 12,22C11.32,21.89 2,20 2,10C6.18,10 9.85,12.17 12,15.45M12.05,5.19C11.39,6.23 10.93,7.38 10.68,8.58L12,9.55L13.35,8.57C13.12,7.37 12.68,6.22 12.05,5.19M12,19.97C12,19.97 18,19 19.74,12.25C14,14 12,19.1 12,19.1C12,19.1 9,13 4.26,12.26C6,19 12,19.97 12,19.97Z" /></svg>