<?xml version="1.0" encoding="UTF-8"?><!DOCTYPE svg PUBLIC "-//W3C//DTD SVG 1.1//EN" "http://www.w3.org/Graphics/SVG/1.1/DTD/svg11.dtd"><svg xmlns="http://www.w3.org/2000/svg" xmlns:xlink="http://www.w3.org/1999/xlink" version="1.1" id="mdi-space-invaders" width="24" height="24" viewBox="0 0 24 24"><path d="M7,6H5V4H7V6M17,6H19V4H17V6M23,12V18H21V14H19V18H17V16H7V18H5V14H3V18H1V12H3V10H5V8H7V6H9V8H15V6H17V8H19V10H21V12H23M15,10V12H17V10H15M7,12H9V10H7V12M11,18H7V20H11V18M17,18H13V20H17V18Z" /></svg>