<svg xmlns="http://www.w3.org/2000/svg" viewBox="0 0 24 24"><path d="M20.07 19.07l-1.41-1.41A7.955 7.955 0 0021 12c0-2.22-.89-4.22-2.34-5.66l1.41-1.41A9.969 9.969 0 0123 12c0 2.76-1.12 5.26-2.93 7.07m-2.83-2.83l-1.41-1.41A3.99 3.99 0 0017 12c0-1.11-.45-2.11-1.17-2.83l1.41-1.41A5.98 5.98 0 0119 12c0 1.65-.67 3.15-1.76 4.24M4 3h8a2 2 0 012 2v14a2 2 0 01-2 2H4a2 2 0 01-2-2V5a2 2 0 012-2m4 2a2 2 0 00-2 2 2 2 0 002 2 2 2 0 002-2 2 2 0 00-2-2m0 6a4 4 0 00-4 4 4 4 0 004 4 4 4 0 004-4 4 4 0 00-4-4m0 2a2 2 0 012 2 2 2 0 01-2 2 2 2 0 01-2-2 2 2 0 012-2z"/></svg>