<?xml version="1.0" encoding="UTF-8"?><!DOCTYPE svg PUBLIC "-//W3C//DTD SVG 1.1//EN" "http://www.w3.org/Graphics/SVG/1.1/DTD/svg11.dtd"><svg xmlns="http://www.w3.org/2000/svg" xmlns:xlink="http://www.w3.org/1999/xlink" version="1.1" id="mdi-speaker-multiple" width="24" height="24" viewBox="0 0 24 24"><path d="M14,10A3,3 0 0,0 11,13A3,3 0 0,0 14,16A3,3 0 0,0 17,13A3,3 0 0,0 14,10M14,18A5,5 0 0,1 9,13A5,5 0 0,1 14,8A5,5 0 0,1 19,13A5,5 0 0,1 14,18M14,2A2,2 0 0,1 16,4A2,2 0 0,1 14,6A2,2 0 0,1 12,4A2,2 0 0,1 14,2M19,0H9A2,2 0 0,0 7,2V18A2,2 0 0,0 9,20H19A2,2 0 0,0 21,18V2A2,2 0 0,0 19,0M5,22H17V24H5A2,2 0 0,1 3,22V4H5" /></svg>