<?xml version="1.0" encoding="UTF-8"?><!DOCTYPE svg PUBLIC "-//W3C//DTD SVG 1.1//EN" "http://www.w3.org/Graphics/SVG/1.1/DTD/svg11.dtd"><svg xmlns="http://www.w3.org/2000/svg" xmlns:xlink="http://www.w3.org/1999/xlink" version="1.1" id="mdi-spider" width="24" height="24" viewBox="0 0 24 24"><path d="M21.29 16.71L22.71 15.29L19.5 12.11L16.5 11.26L18.41 11L22.6 7.8L21.4 6.2L17.59 9.05L14.91 9.5L18.11 6.31L17 1.76L15 2.24L15.86 5.69L14.76 6.83A3 3 0 0 0 9.24 6.83L8.11 5.69L9 2.24L7 1.76L5.89 6.31L9.09 9.5L6.4 9.05L2.6 6.2L1.4 7.8L5.6 11L7.46 11.31L4.46 12.16L1.29 15.29L2.71 16.71L5.5 13.89L7.87 13.22L4 16.54V22H6V17.46L7.56 16.12A4.5 4.5 0 0 0 16.44 16.12L18 17.46V22H20V16.54L16.13 13.22L18.5 13.89Z" /></svg>