<?xml version="1.0" encoding="UTF-8"?><!DOCTYPE svg PUBLIC "-//W3C//DTD SVG 1.1//EN" "http://www.w3.org/Graphics/SVG/1.1/DTD/svg11.dtd"><svg xmlns="http://www.w3.org/2000/svg" xmlns:xlink="http://www.w3.org/1999/xlink" version="1.1" id="mdi-sprinkler-variant" width="24" height="24" viewBox="0 0 24 24"><path d="M10 10H14V22H10V10M7 9H9V7H7V9M4 8H6V6H4V8M4 11H6V9H4V11M1 13H3V11H1V13M1 7H3V5H1V7M1 10H3V8H1V10M18 11H20V9H18V11M21 10H23V8H21V10M21 5V7H23V5H21M21 13H23V11H21V13M15 9H17V7H15V9M18 8H20V6H18V8M10 7H10.33L11 9H13L13.67 7H14V6H10V7Z" /></svg>