<?xml version="1.0" encoding="UTF-8"?><!DOCTYPE svg PUBLIC "-//W3C//DTD SVG 1.1//EN" "http://www.w3.org/Graphics/SVG/1.1/DTD/svg11.dtd"><svg xmlns="http://www.w3.org/2000/svg" xmlns:xlink="http://www.w3.org/1999/xlink" version="1.1" id="mdi-sprout" width="24" height="24" viewBox="0 0 24 24"><path d="M2,22V20C2,20 7,18 12,18C17,18 22,20 22,20V22H2M11.3,9.1C10.1,5.2 4,6.1 4,6.1C4,6.1 4.2,13.9 9.9,12.7C9.5,9.8 8,9 8,9C10.8,9 11,12.4 11,12.4V17C11.3,17 11.7,17 12,17C12.3,17 12.7,17 13,17V12.8C13,12.8 13,8.9 16,7.9C16,7.9 14,10.9 14,12.9C21,13.6 21,4 21,4C21,4 12.1,3 11.3,9.1Z" /></svg>