<?xml version="1.0" encoding="UTF-8"?><!DOCTYPE svg PUBLIC "-//W3C//DTD SVG 1.1//EN" "http://www.w3.org/Graphics/SVG/1.1/DTD/svg11.dtd"><svg xmlns="http://www.w3.org/2000/svg" xmlns:xlink="http://www.w3.org/1999/xlink" version="1.1" id="mdi-square-root-box" width="24" height="24" viewBox="0 0 24 24"><path d="M5,3C3.89,3 3,3.89 3,5V19A2,2 0 0,0 5,21H19A2,2 0 0,0 21,19V5A2,2 0 0,0 19,3H5M11.24,6H19V8H12.76L10,18H8L6.25,12H5V10H7.75L9,14.28L11.24,6V6M14,10.59L15.79,12.38L17.59,10.59L19,12L17.21,13.79L19,15.59L17.59,17L15.79,15.21L14,17L12.59,15.59L14.38,13.79L12.59,12L14,10.59Z" /></svg>