<?xml version="1.0" encoding="UTF-8"?><!DOCTYPE svg PUBLIC "-//W3C//DTD SVG 1.1//EN" "http://www.w3.org/Graphics/SVG/1.1/DTD/svg11.dtd"><svg xmlns="http://www.w3.org/2000/svg" xmlns:xlink="http://www.w3.org/1999/xlink" version="1.1" id="mdi-star-box-outline" width="24" height="24" viewBox="0 0 24 24"><path d="M15.58,17L12,14.84L8.42,17L9.37,12.93L6.21,10.2L10.38,9.84L12,6L13.62,9.83L17.79,10.19L14.63,12.92L15.58,17M19,3A2,2 0 0,1 21,5V19C21,20.11 20.1,21 19,21H5A2,2 0 0,1 3,19V5A2,2 0 0,1 5,3H19M5,5V19H19V5H5Z" /></svg>