<?xml version="1.0" encoding="UTF-8"?><!DOCTYPE svg PUBLIC "-//W3C//DTD SVG 1.1//EN" "http://www.w3.org/Graphics/SVG/1.1/DTD/svg11.dtd"><svg xmlns="http://www.w3.org/2000/svg" xmlns:xlink="http://www.w3.org/1999/xlink" version="1.1" id="mdi-star-box-multiple" width="24" height="24" viewBox="0 0 24 24"><path d="M4 6V20H18V22H3C2.4 22 2 21.6 2 21V6H4M8 2H20C21.11 2 22 2.9 22 4V16C22 17.11 21.11 18 20 18H8C6.9 18 6 17.11 6 16V4C6 2.9 6.9 2 8 2M16.3 13.3L15.9 10.7L17.8 8.8L15.2 8.4L14 6L12.8 8.4L10.2 8.8L12.1 10.6L11.6 13.2L14 12L16.3 13.3Z" /></svg>