<?xml version="1.0" encoding="UTF-8"?><!DOCTYPE svg PUBLIC "-//W3C//DTD SVG 1.1//EN" "http://www.w3.org/Graphics/SVG/1.1/DTD/svg11.dtd"><svg xmlns="http://www.w3.org/2000/svg" xmlns:xlink="http://www.w3.org/1999/xlink" version="1.1" id="mdi-stocking" width="24" height="24" viewBox="0 0 24 24"><path d="M17,2A2,2 0 0,1 19,4V7A2,2 0 0,1 17,9V17C17,17.85 16.5,18.57 15.74,18.86L9.5,21.77C8.5,22.24 7.29,21.81 6.83,20.81L6,19C5.5,18 5.95,16.8 6.95,16.34L10,14.91V9A2,2 0 0,1 8,7V4A2,2 0 0,1 10,2H17M10,4V7H17V4H10Z" /></svg>