<?xml version="1.0" encoding="UTF-8"?><!DOCTYPE svg PUBLIC "-//W3C//DTD SVG 1.1//EN" "http://www.w3.org/Graphics/SVG/1.1/DTD/svg11.dtd"><svg xmlns="http://www.w3.org/2000/svg" xmlns:xlink="http://www.w3.org/1999/xlink" version="1.1" id="mdi-surround-sound" width="24" height="24" viewBox="0 0 24 24"><path d="M20,4H4A2,2 0 0,0 2,6V18A2,2 0 0,0 4,20H20A2,2 0 0,0 22,18V6A2,2 0 0,0 20,4M7.76,16.24L6.35,17.65C4.78,16.1 4,14.05 4,12C4,9.95 4.78,7.9 6.34,6.34L7.75,7.75C6.59,8.93 6,10.46 6,12C6,13.54 6.59,15.07 7.76,16.24M12,16A4,4 0 0,1 8,12A4,4 0 0,1 12,8A4,4 0 0,1 16,12A4,4 0 0,1 12,16M17.66,17.66L16.25,16.25C17.41,15.07 18,13.54 18,12C18,10.46 17.41,8.93 16.24,7.76L17.65,6.35C19.22,7.9 20,9.95 20,12C20,14.05 19.22,16.1 17.66,17.66M12,10A2,2 0 0,0 10,12A2,2 0 0,0 12,14A2,2 0 0,0 14,12A2,2 0 0,0 12,10Z" /></svg>