<svg xmlns="http://www.w3.org/2000/svg" viewBox="0 0 24 24"><path d="M20 4H4a2 2 0 00-2 2v12a2 2 0 002 2h16a2 2 0 002-2V6a2 2 0 00-2-2M7.76 16.24l-1.41 1.41A7.909 7.909 0 014 12c0-2.05.78-4.1 2.34-5.66l1.41 1.41A6.046 6.046 0 006 12c0 1.54.59 3.07 1.76 4.24M12 16a4 4 0 01-4-4 4 4 0 014-4 4 4 0 014 4 4 4 0 01-4 4m5.66 1.66l-1.41-1.41A6.046 6.046 0 0018 12c0-1.54-.59-3.07-1.76-4.24l1.41-1.41A7.909 7.909 0 0120 12c0 2.05-.78 4.1-2.34 5.66M12 10a2 2 0 00-2 2 2 2 0 002 2 2 2 0 002-2 2 2 0 00-2-2z"/></svg>