<?xml version="1.0" encoding="UTF-8"?><!DOCTYPE svg PUBLIC "-//W3C//DTD SVG 1.1//EN" "http://www.w3.org/Graphics/SVG/1.1/DTD/svg11.dtd"><svg xmlns="http://www.w3.org/2000/svg" xmlns:xlink="http://www.w3.org/1999/xlink" version="1.1" id="mdi-swap-horizontal-variant" width="24" height="24" viewBox="0 0 24 24"><path d="M4,6L8,10V7H16A2,2 0 0,1 18,9A2,2 0 0,1 16,11H8A4,4 0 0,0 4,15A4,4 0 0,0 8,19H16V22L20,18L16,14V17H8A2,2 0 0,1 6,15A2,2 0 0,1 8,13H16A4,4 0 0,0 20,9A4,4 0 0,0 16,5H8V2L4,6Z" /></svg>