<?xml version="1.0" encoding="UTF-8"?><!DOCTYPE svg PUBLIC "-//W3C//DTD SVG 1.1//EN" "http://www.w3.org/Graphics/SVG/1.1/DTD/svg11.dtd"><svg xmlns="http://www.w3.org/2000/svg" xmlns:xlink="http://www.w3.org/1999/xlink" version="1.1" id="mdi-table-headers-eye" width="24" height="24" viewBox="0 0 24 24"><path d="M1 6V19A2 2 0 0 0 3 21H9V11H21V6A2 2 0 0 0 19 4H3A2 2 0 0 0 1 6M3 6H7V9H3M7 19H3V16H7M7 14H3V11H7M9 9V6H13V9M19 9H15V6H19M17 16A1 1 0 1 1 16 17A1 1 0 0 1 17 16M17 13A6.45 6.45 0 0 1 23 17A6.5 6.5 0 0 1 11 17A6.45 6.45 0 0 1 17 13M17 14.5A2.5 2.5 0 1 0 19.5 17A2.5 2.5 0 0 0 17 14.5" /></svg>