<?xml version="1.0" encoding="UTF-8"?><!DOCTYPE svg PUBLIC "-//W3C//DTD SVG 1.1//EN" "http://www.w3.org/Graphics/SVG/1.1/DTD/svg11.dtd"><svg xmlns="http://www.w3.org/2000/svg" xmlns:xlink="http://www.w3.org/1999/xlink" version="1.1" id="mdi-tablet-ipad" width="24" height="24" viewBox="0 0 24 24"><path d="M19,19H4V3H19M11.5,23A1.5,1.5 0 0,1 10,21.5A1.5,1.5 0 0,1 11.5,20A1.5,1.5 0 0,1 13,21.5A1.5,1.5 0 0,1 11.5,23M18.5,0H4.5A2.5,2.5 0 0,0 2,2.5V21.5A2.5,2.5 0 0,0 4.5,24H18.5A2.5,2.5 0 0,0 21,21.5V2.5A2.5,2.5 0 0,0 18.5,0Z" /></svg>