<?xml version="1.0" encoding="UTF-8"?><!DOCTYPE svg PUBLIC "-//W3C//DTD SVG 1.1//EN" "http://www.w3.org/Graphics/SVG/1.1/DTD/svg11.dtd"><svg xmlns="http://www.w3.org/2000/svg" xmlns:xlink="http://www.w3.org/1999/xlink" version="1.1" id="mdi-table-remove" width="24" height="24" viewBox="0 0 24 24"><path d="M15.46,15.88L16.88,14.46L19,16.59L21.12,14.46L22.54,15.88L20.41,18L22.54,20.12L21.12,21.54L19,19.41L16.88,21.54L15.46,20.12L17.59,18L15.46,15.88M4,3H18A2,2 0 0,1 20,5V12.08C18.45,11.82 16.92,12.18 15.68,13H12V17H13.08C12.97,17.68 12.97,18.35 13.08,19H4A2,2 0 0,1 2,17V5A2,2 0 0,1 4,3M4,7V11H10V7H4M12,7V11H18V7H12M4,13V17H10V13H4Z" /></svg>