<?xml version="1.0" encoding="UTF-8"?><!DOCTYPE svg PUBLIC "-//W3C//DTD SVG 1.1//EN" "http://www.w3.org/Graphics/SVG/1.1/DTD/svg11.dtd"><svg xmlns="http://www.w3.org/2000/svg" xmlns:xlink="http://www.w3.org/1999/xlink" version="1.1" id="mdi-table-alert" width="24" height="24" viewBox="0 0 24 24"><path d="M3 4H17C18.11 4 19 4.89 19 6V18C19 19.11 18.11 20 17 20H3C1.9 20 1 19.11 1 18V6C1 4.89 1.9 4 3 4M3 8V12H9V8H3M11 8V12H17V8H11M3 14V18H9V14H3M11 14V18H17V14H11M23 7H21V13H23V7M23 15H21V17H23V15Z" /></svg>