<?xml version="1.0" encoding="UTF-8"?><!DOCTYPE svg PUBLIC "-//W3C//DTD SVG 1.1//EN" "http://www.w3.org/Graphics/SVG/1.1/DTD/svg11.dtd"><svg xmlns="http://www.w3.org/2000/svg" xmlns:xlink="http://www.w3.org/1999/xlink" version="1.1" id="mdi-tag-off-outline" width="24" height="24" viewBox="0 0 24 24"><path d="M6.5 5A1.5 1.5 0 1 0 8 6.5A1.5 1.5 0 0 0 6.5 5M6.5 5A1.5 1.5 0 1 0 8 6.5A1.5 1.5 0 0 0 6.5 5M18.33 8.5L22.92 3.92L21.5 2.5L2.5 21.5L3.92 22.92L8.5 18.33L11.59 21.42A2 2 0 0 0 13 22A2 2 0 0 0 14.41 21.41L21.41 14.41A2 2 0 0 0 22 13A2 2 0 0 0 21.41 11.58M13 20L9.92 16.92L16.92 9.92L20 13M5.61 15.43L7 14L4 11V4H11L14.06 7.06L15.47 5.66L12.41 2.58A2 2 0 0 0 11 2H4A2 2 0 0 0 2 4V11A2 2 0 0 0 2.59 12.42M5 6.5A1.5 1.5 0 1 0 6.5 5A1.5 1.5 0 0 0 5 6.5Z" /></svg>