<?xml version="1.0" encoding="UTF-8"?><!DOCTYPE svg PUBLIC "-//W3C//DTD SVG 1.1//EN" "http://www.w3.org/Graphics/SVG/1.1/DTD/svg11.dtd"><svg xmlns="http://www.w3.org/2000/svg" xmlns:xlink="http://www.w3.org/1999/xlink" version="1.1" id="mdi-tag-remove" width="24" height="24" viewBox="0 0 24 24"><path d="M21.41,11.58L12.41,2.58C12.04,2.21 11.53,2 11,2H4A2,2 0 0,0 2,4V11C2,11.53 2.21,12.04 2.59,12.41L3,12.81C3.9,12.27 4.94,12 6,12A6,6 0 0,1 12,18C12,19.06 11.72,20.09 11.18,21L11.58,21.4C11.95,21.78 12.47,22 13,22C13.53,22 14.04,21.79 14.41,21.41L21.41,14.41C21.79,14.04 22,13.53 22,13C22,12.47 21.79,11.96 21.41,11.58M5.5,7A1.5,1.5 0 0,1 4,5.5A1.5,1.5 0 0,1 5.5,4A1.5,1.5 0 0,1 7,5.5A1.5,1.5 0 0,1 5.5,7M8.12,21.54L6,19.41L3.88,21.54L2.46,20.12L4.59,18L2.46,15.88L3.87,14.47L6,16.59L8.12,14.47L9.53,15.88L7.41,18L9.53,20.12L8.12,21.54Z" /></svg>