<?xml version="1.0" encoding="UTF-8"?><!DOCTYPE svg PUBLIC "-//W3C//DTD SVG 1.1//EN" "http://www.w3.org/Graphics/SVG/1.1/DTD/svg11.dtd"><svg xmlns="http://www.w3.org/2000/svg" xmlns:xlink="http://www.w3.org/1999/xlink" version="1.1" id="mdi-target-variant" width="24" height="24" viewBox="0 0 24 24"><path d="M22.08,11.04H20.08V4H13.05V2H11.04V4H4V11.04H2V13.05H4V20.08H11.04V22.08H13.05V20.08H20.08V13.05H22.08V11.04M18.07,18.07H13.05V16.06H11.04V18.07H6V13.05H8.03V11.04H6V6H11.04V8.03H13.05V6H18.07V11.04H16.06V13.05H18.07V18.07M13.05,12.05A1,1 0 0,1 12.05,13.05C11.5,13.05 11.04,12.6 11.04,12.05C11.04,11.5 11.5,11.04 12.05,11.04C12.6,11.04 13.05,11.5 13.05,12.05Z" /></svg>