<?xml version="1.0" encoding="UTF-8"?><!DOCTYPE svg PUBLIC "-//W3C//DTD SVG 1.1//EN" "http://www.w3.org/Graphics/SVG/1.1/DTD/svg11.dtd"><svg xmlns="http://www.w3.org/2000/svg" xmlns:xlink="http://www.w3.org/1999/xlink" version="1.1" id="mdi-teach" width="24" height="24" viewBox="0 0 24 24"><path d="M20,17A2,2 0 0,0 22,15V4A2,2 0 0,0 20,2H9.46C9.81,2.61 10,3.3 10,4H20V15H11V17M15,7V9H9V22H7V16H5V22H3V14H1.5V9A2,2 0 0,1 3.5,7H15M8,4A2,2 0 0,1 6,6A2,2 0 0,1 4,4A2,2 0 0,1 6,2A2,2 0 0,1 8,4Z" /></svg>