<?xml version="1.0" encoding="UTF-8"?><!DOCTYPE svg PUBLIC "-//W3C//DTD SVG 1.1//EN" "http://www.w3.org/Graphics/SVG/1.1/DTD/svg11.dtd"><svg xmlns="http://www.w3.org/2000/svg" xmlns:xlink="http://www.w3.org/1999/xlink" version="1.1" id="mdi-television-off" width="24" height="24" viewBox="0 0 24 24"><path d="M0.5,2.77L1.78,1.5L21,20.72L19.73,22L16.73,19H16V21H8V19H3A2,2 0 0,1 1,17V5C1,4.5 1.17,4.07 1.46,3.73L0.5,2.77M21,17V5H7.82L5.82,3H21A2,2 0 0,1 23,5V17C23,17.85 22.45,18.59 21.7,18.87L19.82,17H21M3,17H14.73L3,5.27V17Z" /></svg>