<?xml version="1.0" encoding="UTF-8"?><!DOCTYPE svg PUBLIC "-//W3C//DTD SVG 1.1//EN" "http://www.w3.org/Graphics/SVG/1.1/DTD/svg11.dtd"><svg xmlns="http://www.w3.org/2000/svg" xmlns:xlink="http://www.w3.org/1999/xlink" version="1.1" id="mdi-telescope" width="24" height="24" viewBox="0 0 24 24"><path d="M21.9,8.9L20.2,9.9L16.2,3L17.9,2L21.9,8.9M9.8,7.9L12.8,13.1L18.9,9.6L15.9,4.4L9.8,7.9M11.4,12.7L9.4,9.2L5.1,11.7L7.1,15.2L11.4,12.7M2.1,14.6L3.1,16.3L5.7,14.8L4.7,13.1L2.1,14.6M12.1,14L11.8,13.6L7.5,16.1L7.8,16.5C8,16.8 8.3,17.1 8.6,17.3L7,22H9L10.4,17.7H10.5L12,22H14L12.1,16.4C12.6,15.7 12.6,14.8 12.1,14Z" /></svg>