<?xml version="1.0" encoding="UTF-8"?><!DOCTYPE svg PUBLIC "-//W3C//DTD SVG 1.1//EN" "http://www.w3.org/Graphics/SVG/1.1/DTD/svg11.dtd"><svg xmlns="http://www.w3.org/2000/svg" xmlns:xlink="http://www.w3.org/1999/xlink" version="1.1" id="mdi-tennis" width="24" height="24" viewBox="0 0 24 24"><path d="M18,15A4,4 0 0,1 22,19A4,4 0 0,1 18,23A4,4 0 0,1 14,19A4,4 0 0,1 18,15M18,17A2,2 0 0,0 16,19A2,2 0 0,0 18,21A2,2 0 0,0 20,19A2,2 0 0,0 18,17M6.05,14.54C6.05,14.54 7.46,13.12 7.47,10.3C7.11,8.11 7.97,5.54 9.94,3.58C12.87,0.65 17.14,0.17 19.5,2.5C21.83,4.86 21.35,9.13 18.42,12.06C16.46,14.03 13.89,14.89 11.7,14.53C8.88,14.54 7.46,15.95 7.46,15.95L3.22,20.19L1.81,18.78L6.05,14.54M18.07,3.93C16.5,2.37 13.5,2.84 11.35,5C9.21,7.14 8.73,10.15 10.29,11.71C11.86,13.27 14.86,12.79 17,10.65C19.16,8.5 19.63,5.5 18.07,3.93Z" /></svg>