<?xml version="1.0" encoding="UTF-8"?><!DOCTYPE svg PUBLIC "-//W3C//DTD SVG 1.1//EN" "http://www.w3.org/Graphics/SVG/1.1/DTD/svg11.dtd"><svg xmlns="http://www.w3.org/2000/svg" xmlns:xlink="http://www.w3.org/1999/xlink" version="1.1" id="mdi-text-recognition" width="24" height="24" viewBox="0 0 24 24"><path d="M2 4C2 2.9 2.9 2 4 2H8V4H4V8H2V4M22 20C22 21.11 21.11 22 20 22H16V20H20V16H22V20M4 22C2.9 22 2 21.11 2 20V16H4V20H8V22H4M20 2C21.11 2 22 2.9 22 4V8H20V4H16V2H20M9 7V9H11V17H13V9H15V7H9Z" /></svg>