<?xml version="1.0" encoding="UTF-8"?><!DOCTYPE svg PUBLIC "-//W3C//DTD SVG 1.1//EN" "http://www.w3.org/Graphics/SVG/1.1/DTD/svg11.dtd"><svg xmlns="http://www.w3.org/2000/svg" xmlns:xlink="http://www.w3.org/1999/xlink" version="1.1" id="mdi-text-box-check-outline" width="24" height="24" viewBox="0 0 24 24"><path d="M17,21L14.25,18L15.41,16.84L17,18.43L20.59,14.84L21.75,16.25M12.8,21H5C3.89,21 3,20.11 3,19V5C3,3.89 3.89,3 5,3H19C20.11,3 21,3.89 21,5V12.8C20.39,12.45 19.72,12.2 19,12.08V5H5V19H12.08C12.2,19.72 12.45,20.39 12.8,21M12,17H7V15H12M14.68,13H7V11H17V12.08C16.15,12.22 15.37,12.54 14.68,13M17,9H7V7H17" /></svg>