<?xml version="1.0" encoding="UTF-8"?><!DOCTYPE svg PUBLIC "-//W3C//DTD SVG 1.1//EN" "http://www.w3.org/Graphics/SVG/1.1/DTD/svg11.dtd"><svg xmlns="http://www.w3.org/2000/svg" xmlns:xlink="http://www.w3.org/1999/xlink" version="1.1" id="mdi-texture-box" width="24" height="24" viewBox="0 0 24 24"><path d="M20 2H4C2.9 2 2 2.9 2 4V20C2 21.11 2.9 22 4 22H20C21.11 22 22 21.11 22 20V4C22 2.9 21.11 2 20 2M4 6L6 4H10.9L4 10.9V6M4 13.7L13.7 4H18.6L4 18.6V13.7M20 18L18 20H13.1L20 13.1V18M20 10.3L10.3 20H5.4L20 5.4V10.3Z" /></svg>