<?xml version="1.0" encoding="UTF-8"?><!DOCTYPE svg PUBLIC "-//W3C//DTD SVG 1.1//EN" "http://www.w3.org/Graphics/SVG/1.1/DTD/svg11.dtd"><svg xmlns="http://www.w3.org/2000/svg" xmlns:xlink="http://www.w3.org/1999/xlink" version="1.1" id="mdi-theater" width="24" height="24" viewBox="0 0 24 24"><path d="M4,15H6A2,2 0 0,1 8,17V19H9V17A2,2 0 0,1 11,15H13A2,2 0 0,1 15,17V19H16V17A2,2 0 0,1 18,15H20A2,2 0 0,1 22,17V19H23V22H1V19H2V17A2,2 0 0,1 4,15M11,7L15,10L11,13V7M4,2H20A2,2 0 0,1 22,4V13.54C21.41,13.19 20.73,13 20,13V4H4V13C3.27,13 2.59,13.19 2,13.54V4A2,2 0 0,1 4,2Z" /></svg>