<?xml version="1.0" encoding="UTF-8"?><!DOCTYPE svg PUBLIC "-//W3C//DTD SVG 1.1//EN" "http://www.w3.org/Graphics/SVG/1.1/DTD/svg11.dtd"><svg xmlns="http://www.w3.org/2000/svg" xmlns:xlink="http://www.w3.org/1999/xlink" version="1.1" id="mdi-thermometer-chevron-down" width="24" height="24" viewBox="0 0 24 24"><path d="M17.41 12.17L14.24 9L12.83 10.41L17.41 15L22 10.41L20.58 9M10 13V5C10 3.34 8.66 2 7 2S4 3.34 4 5V13C1.79 14.66 1.34 17.79 3 20S7.79 22.66 10 21 12.66 16.21 11 14C10.72 13.62 10.38 13.28 10 13M7 4C7.55 4 8 4.45 8 5V8H6V5C6 4.45 6.45 4 7 4Z" /></svg>