<?xml version="1.0" encoding="UTF-8"?><!DOCTYPE svg PUBLIC "-//W3C//DTD SVG 1.1//EN" "http://www.w3.org/Graphics/SVG/1.1/DTD/svg11.dtd"><svg xmlns="http://www.w3.org/2000/svg" xmlns:xlink="http://www.w3.org/1999/xlink" version="1.1" id="mdi-thermometer-alert" width="24" height="24" viewBox="0 0 24 24"><path d="M17 12V7H19V12H17M17 16V14H19V16H17M13 13V5C13 3.34 11.66 2 10 2S7 3.34 7 5V13C4.79 14.66 4.34 17.79 6 20S10.79 22.66 13 21 15.66 16.21 14 14C13.72 13.62 13.38 13.28 13 13M10 4C10.55 4 11 4.45 11 5V8H9V5C9 4.45 9.45 4 10 4Z" /></svg>