<svg xmlns="http://www.w3.org/2000/svg" viewBox="0 0 24 24"><path d="M3.5 19A1.5 1.5 0 015 20.5 1.5 1.5 0 013.5 22 1.5 1.5 0 012 20.5 1.5 1.5 0 013.5 19m5-3a2.5 2.5 0 012.5 2.5A2.5 2.5 0 018.5 21 2.5 2.5 0 016 18.5 2.5 2.5 0 018.5 16m6-1c-1.19 0-2.27-.5-3-1.35-.73.85-1.81 1.35-3 1.35-1.96 0-3.59-1.41-3.93-3.26A4.02 4.02 0 012 8a4 4 0 014-4l.77.07C7.5 3.41 8.45 3 9.5 3c1.19 0 2.27.5 3 1.35.73-.85 1.81-1.35 3-1.35 1.96 0 3.59 1.41 3.93 3.26A4.02 4.02 0 0122 10a4 4 0 01-4 4l-.77-.07c-.73.66-1.68 1.07-2.73 1.07M6 6a2 2 0 00-2 2 2 2 0 002 2c.33 0 .64-.08.92-.22A2 2 0 006.5 11a2 2 0 002 2c.6 0 1.14-.27 1.5-.69l1.47-1.68L13 12.34c.38.4.91.66 1.5.66 1 0 1.83-.74 2-1.7.34.43.89.7 1.5.7a2 2 0 002-2 2 2 0 00-2-2c-.33 0-.64.08-.92.22A2 2 0 0017.5 7a2 2 0 00-2-2c-.59 0-1.12.26-1.5.66l-1.53 1.71L11 5.69c-.36-.42-.9-.69-1.5-.69-1 0-1.83.74-2 1.7C7.16 6.27 6.61 6 6 6m2.5 11.5a1 1 0 00-1 1 1 1 0 001 1 1 1 0 001-1 1 1 0 00-1-1z"/></svg>