<?xml version="1.0" encoding="UTF-8"?><!DOCTYPE svg PUBLIC "-//W3C//DTD SVG 1.1//EN" "http://www.w3.org/Graphics/SVG/1.1/DTD/svg11.dtd"><svg xmlns="http://www.w3.org/2000/svg" xmlns:xlink="http://www.w3.org/1999/xlink" version="1.1" id="mdi-thumb-up" width="24" height="24" viewBox="0 0 24 24"><path d="M23,10C23,8.89 22.1,8 21,8H14.68L15.64,3.43C15.66,3.33 15.67,3.22 15.67,3.11C15.67,2.7 15.5,2.32 15.23,2.05L14.17,1L7.59,7.58C7.22,7.95 7,8.45 7,9V19A2,2 0 0,0 9,21H18C18.83,21 19.54,20.5 19.84,19.78L22.86,12.73C22.95,12.5 23,12.26 23,12V10M1,21H5V9H1V21Z" /></svg>