<?xml version="1.0" encoding="UTF-8"?><!DOCTYPE svg PUBLIC "-//W3C//DTD SVG 1.1//EN" "http://www.w3.org/Graphics/SVG/1.1/DTD/svg11.dtd"><svg xmlns="http://www.w3.org/2000/svg" xmlns:xlink="http://www.w3.org/1999/xlink" version="1.1" id="mdi-ticket-percent" width="24" height="24" viewBox="0 0 24 24"><path d="M4,4A2,2 0 0,0 2,6V10C3.11,10 4,10.9 4,12A2,2 0 0,1 2,14V18A2,2 0 0,0 4,20H20A2,2 0 0,0 22,18V14A2,2 0 0,1 20,12C20,10.89 20.9,10 22,10V6C22,4.89 21.1,4 20,4H4M15.5,7L17,8.5L8.5,17L7,15.5L15.5,7M8.81,7.04C9.79,7.04 10.58,7.83 10.58,8.81A1.77,1.77 0 0,1 8.81,10.58C7.83,10.58 7.04,9.79 7.04,8.81A1.77,1.77 0 0,1 8.81,7.04M15.19,13.42C16.17,13.42 16.96,14.21 16.96,15.19A1.77,1.77 0 0,1 15.19,16.96C14.21,16.96 13.42,16.17 13.42,15.19A1.77,1.77 0 0,1 15.19,13.42Z" /></svg>