<?xml version="1.0" encoding="UTF-8"?><!DOCTYPE svg PUBLIC "-//W3C//DTD SVG 1.1//EN" "http://www.w3.org/Graphics/SVG/1.1/DTD/svg11.dtd"><svg xmlns="http://www.w3.org/2000/svg" xmlns:xlink="http://www.w3.org/1999/xlink" version="1.1" id="mdi-timer-off" width="24" height="24" viewBox="0 0 24 24"><path d="M3 4L1.75 5.27L4.5 8.03C3.55 9.45 3 11.16 3 13C3 17.97 7.03 22 12 22C13.84 22 15.55 21.45 17 20.5L19.5 23L20.75 21.73L13.04 14L3 4M15 1H9V3H15M21 13C21 14.83 20.45 16.53 19.5 17.94L13 11.45V7H11V9.45L7.05 5.5C8.47 4.55 10.17 4 12 4C14.12 4 16.07 4.74 17.62 5.97L19.04 4.55L20.45 5.97L19.03 7.39C20.26 8.93 21 10.88 21 13Z" /></svg>