<?xml version="1.0" encoding="UTF-8"?><!DOCTYPE svg PUBLIC "-//W3C//DTD SVG 1.1//EN" "http://www.w3.org/Graphics/SVG/1.1/DTD/svg11.dtd"><svg xmlns="http://www.w3.org/2000/svg" xmlns:xlink="http://www.w3.org/1999/xlink" version="1.1" id="mdi-toilet" width="24" height="24" viewBox="0 0 24 24"><path d="M9,22H17V19.5C19.41,17.87 21,15.12 21,12V4A2,2 0 0,0 19,2H15C13.89,2 13,2.9 13,4V12H3C3,15.09 5,18 9,19.5V22M5.29,14H18.71C18.14,15.91 16.77,17.5 15,18.33V20H11V18.33C9,18 5.86,15.91 5.29,14M15,4H19V12H15V4M16,5V8H18V5H16Z" /></svg>