<?xml version="1.0" encoding="UTF-8"?><!DOCTYPE svg PUBLIC "-//W3C//DTD SVG 1.1//EN" "http://www.w3.org/Graphics/SVG/1.1/DTD/svg11.dtd"><svg xmlns="http://www.w3.org/2000/svg" xmlns:xlink="http://www.w3.org/1999/xlink" version="1.1" id="mdi-tooltip-account" width="24" height="24" viewBox="0 0 24 24"><path d="M20,2H4A2,2 0 0,0 2,4V16A2,2 0 0,0 4,18H8L12,22L16,18H20A2,2 0 0,0 22,16V4A2,2 0 0,0 20,2M12,4.3C13.5,4.3 14.7,5.5 14.7,7C14.7,8.5 13.5,9.7 12,9.7C10.5,9.7 9.3,8.5 9.3,7C9.3,5.5 10.5,4.3 12,4.3M18,15H6V14.1C6,12.1 10,11 12,11C14,11 18,12.1 18,14.1V15Z" /></svg>