<?xml version="1.0" encoding="UTF-8"?><!DOCTYPE svg PUBLIC "-//W3C//DTD SVG 1.1//EN" "http://www.w3.org/Graphics/SVG/1.1/DTD/svg11.dtd"><svg xmlns="http://www.w3.org/2000/svg" xmlns:xlink="http://www.w3.org/1999/xlink" version="1.1" id="mdi-toolbox" width="24" height="24" viewBox="0 0 24 24"><path d="M9,5V6H15V5H9M22,18C22,18.53 21.79,19 21.4,19.41C21,19.81 20.55,20 20,20H4C3.45,20 3,19.81 2.6,19.41C2.21,19 2,18.53 2,18V14H7V15H9V14H15V15H17V14H22V18M4.5,7.22C4.84,6.41 5.45,6 6.33,6H7V5C7,4.45 7.18,4 7.57,3.59C7.96,3.2 8.44,3 9,3H15C15.56,3 16.04,3.2 16.43,3.59C16.82,4 17,4.45 17,5V6H17.67C18.55,6 19.16,6.41 19.5,7.22L21.58,12H17V11H15V12H9V11H7V12H2.42L4.5,7.22Z" /></svg>