<?xml version="1.0" encoding="UTF-8"?><!DOCTYPE svg PUBLIC "-//W3C//DTD SVG 1.1//EN" "http://www.w3.org/Graphics/SVG/1.1/DTD/svg11.dtd"><svg xmlns="http://www.w3.org/2000/svg" xmlns:xlink="http://www.w3.org/1999/xlink" version="1.1" id="mdi-tram" width="24" height="24" viewBox="0 0 24 24"><path d="M19,16.94V8.5C19,5.71 16.39,5.1 13,5L13.75,3.5H17V2H7V3.5H11.75L11,5C7.86,5.11 5,5.73 5,8.5V16.94C5,18.39 6.19,19.6 7.59,19.91L6,21.5V22H8.23L10.23,20H14L16,22H18V21.5L16.5,20H16.42C18.11,20 19,18.63 19,16.94M12,18.5A1.5,1.5 0 0,1 10.5,17A1.5,1.5 0 0,1 12,15.5A1.5,1.5 0 0,1 13.5,17A1.5,1.5 0 0,1 12,18.5M17,14H7V9H17V14Z" /></svg>