<?xml version="1.0" encoding="UTF-8"?><!DOCTYPE svg PUBLIC "-//W3C//DTD SVG 1.1//EN" "http://www.w3.org/Graphics/SVG/1.1/DTD/svg11.dtd"><svg xmlns="http://www.w3.org/2000/svg" xmlns:xlink="http://www.w3.org/1999/xlink" version="1.1" id="mdi-transit-connection" width="24" height="24" viewBox="0 0 24 24"><path d="M15,12C15,10.7 14.16,9.6 13,9.18V6.82C14.16,6.4 15,5.3 15,4A3,3 0 0,0 12,1A3,3 0 0,0 9,4C9,5.3 9.84,6.4 11,6.82V9.19C9.84,9.6 9,10.7 9,12C9,13.3 9.84,14.4 11,14.82V17.18C9.84,17.6 9,18.7 9,20A3,3 0 0,0 12,23A3,3 0 0,0 15,20C15,18.7 14.16,17.6 13,17.18V14.82C14.16,14.4 15,13.3 15,12M12,3A1,1 0 0,1 13,4A1,1 0 0,1 12,5A1,1 0 0,1 11,4A1,1 0 0,1 12,3M12,21A1,1 0 0,1 11,20A1,1 0 0,1 12,19A1,1 0 0,1 13,20A1,1 0 0,1 12,21Z" /></svg>