<?xml version="1.0" encoding="UTF-8"?><!DOCTYPE svg PUBLIC "-//W3C//DTD SVG 1.1//EN" "http://www.w3.org/Graphics/SVG/1.1/DTD/svg11.dtd"><svg xmlns="http://www.w3.org/2000/svg" xmlns:xlink="http://www.w3.org/1999/xlink" version="1.1" id="mdi-transcribe" width="24" height="24" viewBox="0 0 24 24"><path d="M20,5A2,2 0 0,1 22,7V17A2,2 0 0,1 20,19H4C2.89,19 2,18.1 2,17V7C2,5.89 2.89,5 4,5H20M18,17V15H12.5L10.5,17H18M6,17H8.5L15.35,10.12C15.55,9.93 15.55,9.61 15.35,9.41L13.59,7.65C13.39,7.45 13.07,7.45 12.88,7.65L6,14.53V17Z" /></svg>