<svg xmlns="http://www.w3.org/2000/svg" viewBox="0 0 24 24"><path d="M19 3a3 3 0 00-2.39 1.21A11.5 11.5 0 0013.75 4l.13 2a9.47 9.47 0 012.12.13A3 3 0 1019 3m0 4a1 1 0 111-1 1 1 0 01-1 1m-10.14.86L7.67 6.25a11.5 11.5 0 013.93-1.88l.5 1.94a9.5 9.5 0 00-3.24 1.55M21 18a3 3 0 11-5.31-1.89 9.47 9.47 0 00-7.1-2.65c-.22.01-.43.04-.65.08a3 3 0 11-3.55-3.48A11.54 11.54 0 016.04 7.7L7.5 9.06a9.34 9.34 0 00-1 1.35 3.04 3.04 0 011.12 1.15c.29-.06.57-.06.88-.1a11.47 11.47 0 018.96 3.59A2.96 2.96 0 0118 15a3 3 0 013 3z"/></svg>