<svg xmlns="http://www.w3.org/2000/svg" viewBox="0 0 24 24"><path d="M6 2h12a2 2 0 012 2v16a2 2 0 01-2 2H6a2 2 0 01-2-2V4a2 2 0 012-2m1 2a1 1 0 00-1 1 1 1 0 001 1 1 1 0 001-1 1 1 0 00-1-1m3 0a1 1 0 00-1 1 1 1 0 001 1 1 1 0 001-1 1 1 0 00-1-1m2 4a6 6 0 00-6 6 6 6 0 006 6 6 6 0 006-6 6 6 0 00-6-6m-3.89 2.5H10c-.24 1.38 0 2.17.58 2.79 1.1 1.07 1.58 2.42 1.31 4.21H10c.24-1.38 0-2.17-.58-2.79-1.1-1.07-1.57-2.42-1.31-4.21m4 0H14c-.24 1.38 0 2.17.58 2.79 1.1 1.07 1.58 2.42 1.31 4.21H14c.24-1.38 0-2.17-.58-2.79-1.1-1.07-1.57-2.42-1.31-4.21z"/></svg>