<?xml version="1.0" encoding="UTF-8"?><!DOCTYPE svg PUBLIC "-//W3C//DTD SVG 1.1//EN" "http://www.w3.org/Graphics/SVG/1.1/DTD/svg11.dtd"><svg xmlns="http://www.w3.org/2000/svg" xmlns:xlink="http://www.w3.org/1999/xlink" version="1.1" id="mdi-ultra-high-definition" width="24" height="24" viewBox="0 0 24 24"><path d="M9,7H11V11H13V7H15V17H13V13H11V17H9V7M17,7H20A3,3 0 0,1 23,10V14A3,3 0 0,1 20,17H17V7M20,15A1,1 0 0,0 21,14V10A1,1 0 0,0 20,9H19V15H20M7,14A3,3 0 0,1 4,17A3,3 0 0,1 1,14V7H3V14A1,1 0 0,0 4,15A1,1 0 0,0 5,14V7H7V14Z" /></svg>