<svg xmlns="http://www.w3.org/2000/svg" viewBox="0 0 24 24"><path d="M14.41 4s.53.39.56.71c0 .1-.24.14-.29.22-.06.07.02.22-.03.28-.06.05-.15.05-.24.2-.08.15-2.34 4.68-2.68 5.22-.14.4-.26 1.83-.36 2.03-.11.19-5.03 7.18-5.21 7.39-.49.58-1.85.25-2.88-.49-.98-.7-1.54-1.86-1.17-2.4.16-.23 5.04-7.24 5.18-7.41.15-.17 1.46-.75 1.78-1.04.4-.49 3.89-4.17 4-4.29.11-.12.08-.22.11-.29.04-.07.2-.05.25-.13.07-.07-.04-.29.07-.32.09-.04.46-.01.91.32m-3.56.44l.89.93-1.48 1.57-.8-1.57c-.08-.15-.18-.15-.24-.2-.05-.06.02-.2-.03-.28-.06-.08-.29-.06-.29-.16 0-.11.15-.45.6-.77 0 0 .56-.36.87-.28.1.03.06.27.13.32.04.1.2.08.23.15.04.06 0 .17.12.29m11.07 12.71c.37.66-.39 1.85-1.42 2.55-1 .69-2.29.84-2.67.3-.17-.22-5.16-7.18-5.27-7.38-.11-.19-.24-1.62-.38-2.03l-.03-.04c.3-.55.92-1.78 1.58-3.08.57.59 1.02 1.09 1.15 1.25.33.28 1.65.86 1.8 1.03.14.17 5.1 7.16 5.24 7.4z"/></svg>