<?xml version="1.0" encoding="UTF-8"?><!DOCTYPE svg PUBLIC "-//W3C//DTD SVG 1.1//EN" "http://www.w3.org/Graphics/SVG/1.1/DTD/svg11.dtd"><svg xmlns="http://www.w3.org/2000/svg" xmlns:xlink="http://www.w3.org/1999/xlink" version="1.1" id="mdi-usb-flash-drive-outline" width="24" height="24" viewBox="0 0 24 24"><path d="M8 13C9.66 13 11 14.34 11 16C11 17.66 9.66 19 8 19C6.34 19 5 17.66 5 16C5 14.34 6.34 13 8 13M8 15C7.45 15 7 15.45 7 16C7 16.55 7.45 17 8 17C8.55 17 9 16.55 9 16C9 15.45 8.55 15 8 15M9.77 4.33L10.5 5.08L14.29 1.29C14.47 1.11 14.72 1 15 1C15.28 1 15.53 1.11 15.71 1.29L22.78 8.36L22.78 8.37C22.92 8.54 23 8.76 23 9C23 9.3 22.87 9.57 22.66 9.76L22.66 9.76L18.93 13.5L19.67 14.23L12.95 20.95C11.68 22.22 9.93 23 8 23C4.13 23 1 19.87 1 16C1 14.07 1.78 12.32 3.05 11.05L9.77 4.33M11.54 19.54L16.84 14.23L9.77 7.16L4.46 12.46C3.56 13.37 3 14.62 3 16C3 18.76 5.24 21 8 21C9.38 21 10.63 20.44 11.54 19.54M15.07 4.69L16.5 6.1L15.07 7.5L13.66 6.1L15.07 4.69M17.9 7.5L19.31 8.93L17.9 10.34L16.5 8.93L17.9 7.5M20.59 9L15 3.41L11.93 6.5L17.5 12.08L20.59 9Z" /></svg>