<?xml version="1.0" encoding="UTF-8"?><!DOCTYPE svg PUBLIC "-//W3C//DTD SVG 1.1//EN" "http://www.w3.org/Graphics/SVG/1.1/DTD/svg11.dtd"><svg xmlns="http://www.w3.org/2000/svg" xmlns:xlink="http://www.w3.org/1999/xlink" version="1.1" id="mdi-vector-curve" width="24" height="24" viewBox="0 0 24 24"><path d="M18.5,2A1.5,1.5 0 0,1 20,3.5A1.5,1.5 0 0,1 18.5,5C18.27,5 18.05,4.95 17.85,4.85L14.16,8.55L14.5,9C16.69,7.74 19.26,7 22,7L23,7.03V9.04L22,9C19.42,9 17,9.75 15,11.04A3.96,3.96 0 0,1 11.04,15C9.75,17 9,19.42 9,22L9.04,23H7.03L7,22C7,19.26 7.74,16.69 9,14.5L8.55,14.16L4.85,17.85C4.95,18.05 5,18.27 5,18.5A1.5,1.5 0 0,1 3.5,20A1.5,1.5 0 0,1 2,18.5A1.5,1.5 0 0,1 3.5,17C3.73,17 3.95,17.05 4.15,17.15L7.84,13.45C7.31,12.78 7,11.92 7,11A4,4 0 0,1 11,7C11.92,7 12.78,7.31 13.45,7.84L17.15,4.15C17.05,3.95 17,3.73 17,3.5A1.5,1.5 0 0,1 18.5,2M11,9A2,2 0 0,0 9,11A2,2 0 0,0 11,13A2,2 0 0,0 13,11A2,2 0 0,0 11,9Z" /></svg>