<?xml version="1.0" encoding="UTF-8"?><!DOCTYPE svg PUBLIC "-//W3C//DTD SVG 1.1//EN" "http://www.w3.org/Graphics/SVG/1.1/DTD/svg11.dtd"><svg xmlns="http://www.w3.org/2000/svg" xmlns:xlink="http://www.w3.org/1999/xlink" version="1.1" id="mdi-vector-polygon" width="24" height="24" viewBox="0 0 24 24"><path d="M2,2V8H4.28L5.57,16H4V22H10V20.06L15,20.05V22H21V16H19.17L20,9H22V3H16V6.53L14.8,8H9.59L8,5.82V2M4,4H6V6H4M18,5H20V7H18M6.31,8H7.11L9,10.59V14H15V10.91L16.57,9H18L17.16,16H15V18.06H10V16H7.6M11,10H13V12H11M6,18H8V20H6M17,18H19V20H17" /></svg>