<?xml version="1.0" encoding="UTF-8"?><!DOCTYPE svg PUBLIC "-//W3C//DTD SVG 1.1//EN" "http://www.w3.org/Graphics/SVG/1.1/DTD/svg11.dtd"><svg xmlns="http://www.w3.org/2000/svg" xmlns:xlink="http://www.w3.org/1999/xlink" version="1.1" id="mdi-vibrate-off" width="24" height="24" viewBox="0 0 24 24"><path d="M8.2,5L6.55,3.35C6.81,3.12 7.15,3 7.5,3H16.5A1.5,1.5 0 0,1 18,4.5V14.8L16,12.8V5H8.2M0,15H2V9H0V15M21,17V7H19V15.8L20.2,17H21M3,17H5V7H3V17M18,17.35L22.11,21.46L20.84,22.73L18,19.85C17.83,20.54 17.21,21 16.5,21H7.5A1.5,1.5 0 0,1 6,19.5V7.89L1.11,3L2.39,1.73L6.09,5.44L8,7.34L16,15.34L18,17.34V17.35M16,17.89L8,9.89V19H16V17.89M22,9V15H24V9H22Z" /></svg>