<?xml version="1.0" encoding="UTF-8"?><!DOCTYPE svg PUBLIC "-//W3C//DTD SVG 1.1//EN" "http://www.w3.org/Graphics/SVG/1.1/DTD/svg11.dtd"><svg xmlns="http://www.w3.org/2000/svg" xmlns:xlink="http://www.w3.org/1999/xlink" version="1.1" id="mdi-video-wireless" width="24" height="24" viewBox="0 0 24 24"><path d="M17,14.5V11A1,1 0 0,0 16,10H4A1,1 0 0,0 3,11V21A1,1 0 0,0 4,22H16A1,1 0 0,0 17,21V17.5L21,21.5V10.5M3,3.86L4.4,5.24C7.5,2.19 12.5,2.19 15.6,5.24L17,3.86C13.14,0.05 6.87,0.05 3,3.86M5.8,6.62L7.2,8C8.75,6.5 11.25,6.5 12.8,8L14.2,6.62C11.88,4.34 8.12,4.34 5.8,6.62Z" /></svg>