<?xml version="1.0" encoding="UTF-8"?><!DOCTYPE svg PUBLIC "-//W3C//DTD SVG 1.1//EN" "http://www.w3.org/Graphics/SVG/1.1/DTD/svg11.dtd"><svg xmlns="http://www.w3.org/2000/svg" xmlns:xlink="http://www.w3.org/1999/xlink" version="1.1" id="mdi-video-off-outline" width="24" height="24" viewBox="0 0 24 24"><path d="M3.41,1.86L2,3.27L4.73,6H4A1,1 0 0,0 3,7V17A1,1 0 0,0 4,18H16C16.21,18 16.39,17.92 16.55,17.82L19.73,21L21.14,19.59L12.28,10.73L3.41,1.86M5,16V8H6.73L14.73,16H5M15,8V10.61L21,16.61V6.5L17,10.5V7A1,1 0 0,0 16,6H10.39L12.39,8H15Z" /></svg>