<?xml version="1.0" encoding="UTF-8"?><!DOCTYPE svg PUBLIC "-//W3C//DTD SVG 1.1//EN" "http://www.w3.org/Graphics/SVG/1.1/DTD/svg11.dtd"><svg xmlns="http://www.w3.org/2000/svg" xmlns:xlink="http://www.w3.org/1999/xlink" version="1.1" id="mdi-view-week" width="24" height="24" viewBox="0 0 24 24"><path d="M13,5H10A1,1 0 0,0 9,6V18A1,1 0 0,0 10,19H13A1,1 0 0,0 14,18V6A1,1 0 0,0 13,5M20,5H17A1,1 0 0,0 16,6V18A1,1 0 0,0 17,19H20A1,1 0 0,0 21,18V6A1,1 0 0,0 20,5M6,5H3A1,1 0 0,0 2,6V18A1,1 0 0,0 3,19H6A1,1 0 0,0 7,18V6A1,1 0 0,0 6,5Z" /></svg>