<svg xmlns="http://www.w3.org/2000/svg" viewBox="0 0 24 24"><path d="M15.07 2H8.93C3.33 2 2 3.33 2 8.93v6.14C2 20.67 3.33 22 8.93 22h6.14c5.6 0 6.93-1.33 6.93-6.93V8.93C22 3.33 20.67 2 15.07 2m3.08 14.27h-1.46c-.55 0-.72-.45-1.69-1.44-.88-.83-1.26-.95-1.47-.95-.29 0-.38.08-.38.5v1.31c0 .35-.11.57-1.04.57-1.54 0-3.25-.94-4.45-2.67-1.81-2.54-2.3-4.46-2.3-4.84 0-.21.07-.41.49-.41h1.47c.37 0 .51.16.65.56.72 2.1 1.92 3.9 2.41 3.9.19 0 .27-.09.27-.55V10.1c-.05-.98-.58-1.07-.58-1.42 0-.18.14-.34.37-.34h2.29c.31 0 .42.16.42.54v2.89c0 .31.13.42.23.42.18 0 .34-.11.67-.45 1.05-1.17 1.8-2.98 1.8-2.98.1-.21.26-.41.65-.41h1.43c.44 0 .54.23.44.54-.18.85-1.96 3.36-1.94 3.36-.16.25-.22.36 0 .65.15.21.66.65 1 1.04.62.71 1.1 1.3 1.23 1.71.11.41-.09.62-.51.62z"/></svg>