<?xml version="1.0" encoding="UTF-8"?><!DOCTYPE svg PUBLIC "-//W3C//DTD SVG 1.1//EN" "http://www.w3.org/Graphics/SVG/1.1/DTD/svg11.dtd"><svg xmlns="http://www.w3.org/2000/svg" xmlns:xlink="http://www.w3.org/1999/xlink" version="1.1" id="mdi-vlc" width="24" height="24" viewBox="0 0 24 24"><path d="M12,1C11.58,1 11.19,1.23 11,1.75L9.88,4.88C10.36,5.4 11.28,5.5 12,5.5C12.72,5.5 13.64,5.4 14.13,4.88L13,1.75C12.82,1.25 12.42,1 12,1M8.44,8.91L7,12.91C8.07,14.27 10.26,14.5 12,14.5C13.74,14.5 15.93,14.27 17,12.91L15.56,8.91C14.76,9.83 13.24,10 12,10C10.76,10 9.24,9.83 8.44,8.91M5.44,15C4.62,15 3.76,15.65 3.53,16.44L2.06,21.56C1.84,22.35 2.3,23 3.13,23H20.88C21.7,23 22.16,22.35 21.94,21.56L20.47,16.44C20.24,15.65 19.38,15 18.56,15H17.75L18.09,15.97C18.21,16.29 18.29,16.69 18.09,16.97C16.84,18.7 14.14,19 12,19C9.86,19 7.16,18.7 5.91,16.97C5.71,16.69 5.79,16.29 5.91,15.97L6.25,15H5.44Z" /></svg>