<?xml version="1.0" encoding="UTF-8"?><!DOCTYPE svg PUBLIC "-//W3C//DTD SVG 1.1//EN" "http://www.w3.org/Graphics/SVG/1.1/DTD/svg11.dtd"><svg xmlns="http://www.w3.org/2000/svg" xmlns:xlink="http://www.w3.org/1999/xlink" version="1.1" id="mdi-volleyball" width="24" height="24" viewBox="0 0 24 24"><path d="M12,2A10,10 0 0,1 22,12A10,10 0 0,1 12,22A10,10 0 0,1 2,12A10,10 0 0,1 12,2M13.6,20.35C15.96,18.04 17.69,15.08 18.5,11.76C17.84,11.62 17.18,11.54 16.5,11.5C15.56,15.11 13.41,18.22 10.5,20.37C11,20.45 11.5,20.5 12,20.5C12.55,20.5 13.08,20.45 13.6,20.35M9.23,20.04C12.23,18.07 14.5,15.05 15.46,11.5C14.71,11.55 13.97,11.65 13.27,11.81C12.18,14.89 9.97,17.44 7.13,18.97C7.77,19.42 8.5,19.78 9.23,20.04M20.5,12.37C20.16,12.23 19.81,12.11 19.46,12C18.76,14.9 17.39,17.53 15.54,19.73C18.36,18.44 20.35,15.64 20.5,12.37M3.56,11.04C3.5,11.35 3.5,11.68 3.5,12C3.5,14.5 4.57,16.73 6.27,18.28C6.86,18 7.41,17.66 7.94,17.29C6.08,15.54 4.58,13.41 3.56,11.04M5.33,6.74C4.73,7.5 4.26,8.35 3.95,9.28C4.92,12.13 6.58,14.66 8.74,16.67C9.25,16.24 9.72,15.77 10.15,15.26C7.74,13.03 6,10.08 5.33,6.74M8.04,4.5C7.36,4.85 6.73,5.3 6.18,5.82C6.71,9.21 8.37,12.23 10.77,14.47C11.17,13.91 11.5,13.32 11.82,12.7C9.68,10.56 8.28,7.69 8.04,4.5M19.96,9.03C18.7,8.68 17.37,8.5 16,8.5C14.1,8.5 12.28,8.85 10.61,9.5C10.96,10.1 11.35,10.67 11.8,11.2C13.12,10.75 14.53,10.5 16,10.5C17.57,10.5 19.08,10.78 20.47,11.29C20.4,10.5 20.23,9.74 19.96,9.03M17.54,5.57C17.03,5.5 16.5,5.5 16,5.5C13.69,5.5 11.47,5.94 9.44,6.73C9.62,7.38 9.86,8 10.14,8.61C11.96,7.89 13.93,7.5 16,7.5C17.18,7.5 18.32,7.63 19.42,7.87C18.93,7 18.29,6.21 17.54,5.57M16,4.5C14.79,3.87 13.44,3.5 12,3.5C10.95,3.5 9.94,3.7 9,4.05C9.04,4.63 9.11,5.2 9.21,5.75C11.31,4.95 13.6,4.5 16,4.5Z" /></svg>