<svg xmlns="http://www.w3.org/2000/svg" viewBox="0 0 24 24"><path d="M12 2a10 10 0 0110 10 10 10 0 01-10 10A10 10 0 012 12 10 10 0 0112 2m1.6 18.35c2.36-2.31 4.09-5.27 4.9-8.59-.66-.14-1.32-.22-2-.26-.94 3.61-3.09 6.72-6 8.87.5.08 1 .13 1.5.13.55 0 1.08-.05 1.6-.15m-4.37-.31c3-1.97 5.27-4.99 6.23-8.54-.75.05-1.49.15-2.19.31-1.09 3.08-3.3 5.63-6.14 7.16.64.45 1.37.81 2.1 1.07m11.27-7.67c-.34-.14-.69-.26-1.04-.37-.7 2.9-2.07 5.53-3.92 7.73a8.529 8.529 0 004.96-7.36M3.56 11.04c-.06.31-.06.64-.06.96 0 2.5 1.07 4.73 2.77 6.28.59-.28 1.14-.62 1.67-.99a18.798 18.798 0 01-4.38-6.25m1.77-4.3c-.6.76-1.07 1.61-1.38 2.54.97 2.85 2.63 5.38 4.79 7.39.51-.43.98-.9 1.41-1.41C7.74 13.03 6 10.08 5.33 6.74M8.04 4.5c-.68.35-1.31.8-1.86 1.32.53 3.39 2.19 6.41 4.59 8.65.4-.56.73-1.15 1.05-1.77a12.956 12.956 0 01-3.78-8.2m11.92 4.53C18.7 8.68 17.37 8.5 16 8.5c-1.9 0-3.72.35-5.39 1 .35.6.74 1.17 1.19 1.7a12.984 12.984 0 018.67.09 8.45 8.45 0 00-.51-2.26m-2.42-3.46C17.03 5.5 16.5 5.5 16 5.5c-2.31 0-4.53.44-6.56 1.23.18.65.42 1.27.7 1.88C11.96 7.89 13.93 7.5 16 7.5a16 16 0 013.42.37 8.545 8.545 0 00-1.88-2.3M16 4.5a8.62 8.62 0 00-4-1c-1.05 0-2.06.2-3 .55.04.58.11 1.15.21 1.7 2.1-.8 4.39-1.25 6.79-1.25z"/></svg>