<?xml version="1.0" encoding="UTF-8"?><!DOCTYPE svg PUBLIC "-//W3C//DTD SVG 1.1//EN" "http://www.w3.org/Graphics/SVG/1.1/DTD/svg11.dtd"><svg xmlns="http://www.w3.org/2000/svg" xmlns:xlink="http://www.w3.org/1999/xlink" version="1.1" id="mdi-wallpaper" width="24" height="24" viewBox="0 0 24 24"><path d="M4,4H11V2H4A2,2 0 0,0 2,4V11H4V4M10,13L6,18H18L15,14L12.97,16.71L10,13M17,8.5A1.5,1.5 0 0,0 15.5,7A1.5,1.5 0 0,0 14,8.5A1.5,1.5 0 0,0 15.5,10A1.5,1.5 0 0,0 17,8.5M20,2H13V4H20V11H22V4A2,2 0 0,0 20,2M20,20H13V22H20A2,2 0 0,0 22,20V13H20V20M4,13H2V20A2,2 0 0,0 4,22H11V20H4V13Z" /></svg>