<?xml version="1.0" encoding="UTF-8"?><!DOCTYPE svg PUBLIC "-//W3C//DTD SVG 1.1//EN" "http://www.w3.org/Graphics/SVG/1.1/DTD/svg11.dtd"><svg xmlns="http://www.w3.org/2000/svg" xmlns:xlink="http://www.w3.org/1999/xlink" version="1.1" id="mdi-wallet-giftcard" width="24" height="24" viewBox="0 0 24 24"><path d="M20,14H4V8H9.08L7,10.83L8.62,12L11,8.76L12,7.4L13,8.76L15.38,12L17,10.83L14.92,8H20M20,19H4V17H20M9,4A1,1 0 0,1 10,5A1,1 0 0,1 9,6A1,1 0 0,1 8,5A1,1 0 0,1 9,4M15,4A1,1 0 0,1 16,5A1,1 0 0,1 15,6A1,1 0 0,1 14,5A1,1 0 0,1 15,4M20,6H17.82C17.93,5.69 18,5.35 18,5A3,3 0 0,0 15,2C13.95,2 13.04,2.54 12.5,3.35L12,4L11.5,3.34C10.96,2.54 10.05,2 9,2A3,3 0 0,0 6,5C6,5.35 6.07,5.69 6.18,6H4C2.89,6 2,6.89 2,8V19C2,20.11 2.89,21 4,21H20C21.11,21 22,20.11 22,19V8C22,6.89 21.11,6 20,6Z" /></svg>