<?xml version="1.0" encoding="UTF-8"?><!DOCTYPE svg PUBLIC "-//W3C//DTD SVG 1.1//EN" "http://www.w3.org/Graphics/SVG/1.1/DTD/svg11.dtd"><svg xmlns="http://www.w3.org/2000/svg" xmlns:xlink="http://www.w3.org/1999/xlink" version="1.1" id="mdi-wallet-plus" width="24" height="24" viewBox="0 0 24 24"><path d="M3 0V3H0V5H3V8H5V5H8V3H5V0H3M9 3V6H6V9H3V19C3 20.1 3.89 21 5 21H19C20.11 21 21 20.11 21 19V18H12C10.9 18 10 17.11 10 16V8C10 6.9 10.89 6 12 6H21V5C21 3.9 20.11 3 19 3H9M12 8V16H22V8H12M16 10.5C16.83 10.5 17.5 11.17 17.5 12C17.5 12.83 16.83 13.5 16 13.5C15.17 13.5 14.5 12.83 14.5 12C14.5 11.17 15.17 10.5 16 10.5Z" /></svg>