<?xml version="1.0" encoding="UTF-8"?><!DOCTYPE svg PUBLIC "-//W3C//DTD SVG 1.1//EN" "http://www.w3.org/Graphics/SVG/1.1/DTD/svg11.dtd"><svg xmlns="http://www.w3.org/2000/svg" xmlns:xlink="http://www.w3.org/1999/xlink" version="1.1" id="mdi-watch" width="24" height="24" viewBox="0 0 24 24"><path d="M6,12A6,6 0 0,1 12,6A6,6 0 0,1 18,12A6,6 0 0,1 12,18A6,6 0 0,1 6,12M20,12C20,9.45 18.81,7.19 16.95,5.73L16,0H8L7.05,5.73C5.19,7.19 4,9.45 4,12C4,14.54 5.19,16.81 7.05,18.27L8,24H16L16.95,18.27C18.81,16.81 20,14.54 20,12Z" /></svg>