<?xml version="1.0" encoding="UTF-8"?><!DOCTYPE svg PUBLIC "-//W3C//DTD SVG 1.1//EN" "http://www.w3.org/Graphics/SVG/1.1/DTD/svg11.dtd"><svg xmlns="http://www.w3.org/2000/svg" xmlns:xlink="http://www.w3.org/1999/xlink" version="1.1" id="mdi-water-outline" width="24" height="24" viewBox="0 0 24 24"><path d="M12,3.77L11.25,4.61C11.25,4.61 9.97,6.06 8.68,7.94C7.39,9.82 6,12.07 6,14.23A6,6 0 0,0 12,20.23A6,6 0 0,0 18,14.23C18,12.07 16.61,9.82 15.32,7.94C14.03,6.06 12.75,4.61 12.75,4.61L12,3.77M12,6.9C12.44,7.42 12.84,7.85 13.68,9.07C14.89,10.83 16,13.07 16,14.23C16,16.45 14.22,18.23 12,18.23C9.78,18.23 8,16.45 8,14.23C8,13.07 9.11,10.83 10.32,9.07C11.16,7.85 11.56,7.42 12,6.9Z" /></svg>