<svg xmlns="http://www.w3.org/2000/svg" viewBox="0 0 24 24"><path d="M3,12H7A5,5 0 0,1 12,7A5,5 0 0,1 17,12H21A1,1 0 0,1 22,13A1,1 0 0,1 21,14H3A1,1 0 0,1 2,13A1,1 0 0,1 3,12M15,12A3,3 0 0,0 12,9A3,3 0 0,0 9,12H15M12,2L14.39,5.42C13.65,5.15 12.84,5 12,5C11.16,5 10.35,5.15 9.61,5.42L12,2M3.34,7L7.5,6.65C6.9,7.16 6.36,7.78 5.94,8.5C5.5,9.24 5.25,10 5.11,10.79L3.34,7M20.65,7L18.88,10.79C18.74,10 18.47,9.23 18.05,8.5C17.63,7.78 17.1,7.15 16.5,6.64L20.65,7M12.71,16.3L15.82,19.41C16.21,19.8 16.21,20.43 15.82,20.82C15.43,21.21 14.8,21.21 14.41,20.82L12,18.41L9.59,20.82C9.2,21.21 8.57,21.21 8.18,20.82C7.79,20.43 7.79,19.8 8.18,19.41L11.29,16.3C11.5,16.1 11.74,16 12,16C12.26,16 12.5,16.1 12.71,16.3Z" /></svg>