<?xml version="1.0" encoding="UTF-8"?><!DOCTYPE svg PUBLIC "-//W3C//DTD SVG 1.1//EN" "http://www.w3.org/Graphics/SVG/1.1/DTD/svg11.dtd"><svg xmlns="http://www.w3.org/2000/svg" xmlns:xlink="http://www.w3.org/1999/xlink" version="1.1" id="mdi-weather-night-partly-cloudy" width="24" height="24" viewBox="0 0 24 24"><path d="M22,10.28C21.74,10.3 21.5,10.31 21.26,10.31C19.32,10.31 17.39,9.57 15.91,8.09C14.25,6.44 13.5,4.19 13.72,2C13.77,1.53 13.22,1 12.71,1C12.57,1 12.44,1.04 12.32,1.12C12,1.36 11.66,1.64 11.36,1.94C9.05,4.24 8.55,7.66 9.84,10.46C8.31,11.11 7.13,12.43 6.69,14.06L6,14A4,4 0 0,0 2,18A4,4 0 0,0 6,22H19A3,3 0 0,0 22,19A3,3 0 0,0 19,16C18.42,16 17.88,16.16 17.42,16.45L17.5,15.5C17.5,15.28 17.5,15.05 17.46,14.83C19.14,14.67 20.77,13.94 22.06,12.64C22.38,12.34 22.64,12 22.88,11.68C23.27,11.13 22.65,10.28 22.04,10.28M19,18A1,1 0 0,1 20,19A1,1 0 0,1 19,20H6A2,2 0 0,1 4,18A2,2 0 0,1 6,16H8.5V15.5C8.5,13.94 9.53,12.64 10.94,12.18C11.1,12.13 11.26,12.09 11.43,12.06C11.61,12.03 11.8,12 12,12C12.23,12 12.45,12.03 12.66,12.07C12.73,12.08 12.8,12.1 12.87,12.13C13,12.16 13.15,12.2 13.28,12.25C13.36,12.28 13.44,12.32 13.5,12.36C13.63,12.41 13.74,12.47 13.84,12.54C13.92,12.59 14,12.64 14.07,12.7C14.17,12.77 14.25,12.84 14.34,12.92C14.41,13 14.5,13.05 14.55,13.12C14.63,13.2 14.69,13.29 14.76,13.37C14.82,13.45 14.89,13.53 14.94,13.62C15,13.71 15.04,13.8 15.09,13.9C15.14,14 15.2,14.08 15.24,14.18C15.41,14.59 15.5,15.03 15.5,15.5V18M16.83,12.86C15.9,11.16 14.08,10 12,10H11.87C11.41,9.19 11.14,8.26 11.14,7.29C11.14,6.31 11.39,5.37 11.86,4.55C12.21,6.41 13.12,8.14 14.5,9.5C15.86,10.88 17.58,11.79 19.45,12.14C18.66,12.6 17.76,12.84 16.83,12.86Z" /></svg>