<?xml version="1.0" encoding="UTF-8"?><!DOCTYPE svg PUBLIC "-//W3C//DTD SVG 1.1//EN" "http://www.w3.org/Graphics/SVG/1.1/DTD/svg11.dtd"><svg xmlns="http://www.w3.org/2000/svg" xmlns:xlink="http://www.w3.org/1999/xlink" version="1.1" id="mdi-weather-snowy-heavy" width="24" height="24" viewBox="0 0 24 24"><path d="M4,16.36C3.86,15.82 4.18,15.25 4.73,15.11L7,14.5L5.33,12.86C4.93,12.46 4.93,11.81 5.33,11.4C5.73,11 6.4,11 6.79,11.4L8.45,13.05L9.04,10.8C9.18,10.24 9.75,9.92 10.29,10.07C10.85,10.21 11.17,10.78 11,11.33L10.42,13.58L12.67,13C13.22,12.83 13.79,13.15 13.93,13.71C14.08,14.25 13.76,14.82 13.2,14.96L10.95,15.55L12.6,17.21C13,17.6 13,18.27 12.6,18.67C12.2,19.07 11.54,19.07 11.15,18.67L9.5,17L8.89,19.27C8.75,19.83 8.18,20.14 7.64,20C7.08,19.86 6.77,19.29 6.91,18.74L7.5,16.5L5.26,17.09C4.71,17.23 4.14,16.92 4,16.36M1,10A5,5 0 0,1 6,5C7,2.65 9.3,1 12,1C15.43,1 18.24,3.66 18.5,7.03L19,7A4,4 0 0,1 23,11A4,4 0 0,1 19,15A1,1 0 0,1 18,14A1,1 0 0,1 19,13A2,2 0 0,0 21,11A2,2 0 0,0 19,9H17V8A5,5 0 0,0 12,3C9.5,3 7.45,4.82 7.06,7.19C6.73,7.07 6.37,7 6,7A3,3 0 0,0 3,10C3,10.85 3.35,11.61 3.91,12.16C4.27,12.55 4.26,13.16 3.88,13.54C3.5,13.93 2.85,13.93 2.47,13.54C1.56,12.63 1,11.38 1,10M14.03,20.43C14.13,20.82 14.5,21.04 14.91,20.94L16.5,20.5L16.06,22.09C15.96,22.5 16.18,22.87 16.57,22.97C16.95,23.08 17.35,22.85 17.45,22.46L17.86,20.89L19.03,22.05C19.3,22.33 19.77,22.33 20.05,22.05C20.33,21.77 20.33,21.3 20.05,21.03L18.89,19.86L20.46,19.45C20.85,19.35 21.08,18.95 20.97,18.57C20.87,18.18 20.5,17.96 20.09,18.06L18.5,18.5L18.94,16.91C19.04,16.5 18.82,16.13 18.43,16.03C18.05,15.92 17.65,16.15 17.55,16.54L17.14,18.11L15.97,16.95C15.7,16.67 15.23,16.67 14.95,16.95C14.67,17.24 14.67,17.7 14.95,17.97L16.11,19.14L14.54,19.55C14.15,19.65 13.92,20.05 14.03,20.43Z" /></svg>