<?xml version="1.0" encoding="UTF-8"?><!DOCTYPE svg PUBLIC "-//W3C//DTD SVG 1.1//EN" "http://www.w3.org/Graphics/SVG/1.1/DTD/svg11.dtd"><svg xmlns="http://www.w3.org/2000/svg" xmlns:xlink="http://www.w3.org/1999/xlink" version="1.1" id="mdi-weather-lightning-rainy" width="24" height="24" viewBox="0 0 24 24"><path d="M4.5,13.59C5,13.87 5.14,14.5 4.87,14.96C4.59,15.44 4,15.6 3.5,15.33V15.33C2,14.47 1,12.85 1,11A5,5 0 0,1 6,6C7,3.65 9.3,2 12,2C15.43,2 18.24,4.66 18.5,8.03L19,8A4,4 0 0,1 23,12A4,4 0 0,1 19,16A1,1 0 0,1 18,15A1,1 0 0,1 19,14A2,2 0 0,0 21,12A2,2 0 0,0 19,10H17V9A5,5 0 0,0 12,4C9.5,4 7.45,5.82 7.06,8.19C6.73,8.07 6.37,8 6,8A3,3 0 0,0 3,11C3,12.11 3.6,13.08 4.5,13.6V13.59M9.5,11H12.5L10.5,15H12.5L8.75,22L9.5,17H7L9.5,11M17.5,18.67C17.5,19.96 16.5,21 15.25,21C14,21 13,19.96 13,18.67C13,17.12 15.25,14.5 15.25,14.5C15.25,14.5 17.5,17.12 17.5,18.67Z" /></svg>