<?xml version="1.0" encoding="UTF-8"?><!DOCTYPE svg PUBLIC "-//W3C//DTD SVG 1.1//EN" "http://www.w3.org/Graphics/SVG/1.1/DTD/svg11.dtd"><svg xmlns="http://www.w3.org/2000/svg" xmlns:xlink="http://www.w3.org/1999/xlink" version="1.1" id="mdi-webcam" width="24" height="24" viewBox="0 0 24 24"><path d="M12,2A7,7 0 0,1 19,9A7,7 0 0,1 12,16A7,7 0 0,1 5,9A7,7 0 0,1 12,2M12,4A5,5 0 0,0 7,9A5,5 0 0,0 12,14A5,5 0 0,0 17,9A5,5 0 0,0 12,4M12,6A3,3 0 0,1 15,9A3,3 0 0,1 12,12A3,3 0 0,1 9,9A3,3 0 0,1 12,6M6,22A2,2 0 0,1 4,20C4,19.62 4.1,19.27 4.29,18.97L6.11,15.81C7.69,17.17 9.75,18 12,18C14.25,18 16.31,17.17 17.89,15.81L19.71,18.97C19.9,19.27 20,19.62 20,20A2,2 0 0,1 18,22H6Z" /></svg>