<?xml version="1.0" encoding="UTF-8"?><!DOCTYPE svg PUBLIC "-//W3C//DTD SVG 1.1//EN" "http://www.w3.org/Graphics/SVG/1.1/DTD/svg11.dtd"><svg xmlns="http://www.w3.org/2000/svg" xmlns:xlink="http://www.w3.org/1999/xlink" version="1.1" id="mdi-whistle" width="24" height="24" viewBox="0 0 24 24"><path d="M8.5,9A6.5,6.5 0 0,0 2,15.5A6.5,6.5 0 0,0 8.5,22A6.5,6.5 0 0,0 15,15.5V13.91L22,12V9H11V11H9V9H8.5M11,2V7H9V2H11M6.35,7.28C5.68,7.44 5.04,7.68 4.43,8L2.14,4.88L3.76,3.7L6.35,7.28M17.86,4.88L16.32,7H13.85L16.24,3.7L17.86,4.88Z" /></svg>