<?xml version="1.0" encoding="UTF-8"?><!DOCTYPE svg PUBLIC "-//W3C//DTD SVG 1.1//EN" "http://www.w3.org/Graphics/SVG/1.1/DTD/svg11.dtd"><svg xmlns="http://www.w3.org/2000/svg" xmlns:xlink="http://www.w3.org/1999/xlink" version="1.1" id="mdi-wifi-star" width="24" height="24" viewBox="0 0 24 24"><path d="M12,6C8.6,6 5.5,7.1 3,9L1.2,6.6C4.2,4.3 8,3 12,3C16,3 19.8,4.3 22.8,6.6L21,9C18.5,7.1 15.4,6 12,6M13,19C13,17.7 13.4,16.4 14.2,15.4C13.5,15.2 12.8,15 12,15C10.7,15 9.4,15.5 8.4,16.2L12,21L13,19.6C13,19.4 13,19.2 13,19M16.8,13.4C17.1,13.3 17.5,13.2 17.9,13.1L19.2,11.4C17.2,9.9 14.7,9 12,9C9.3,9 6.8,9.9 4.8,11.4L6.6,13.8C8.1,12.7 10,12 12,12C13.8,12 15.4,12.5 16.8,13.4M16.5,22.6L17.2,19.8L15,17.9L17.9,17.7L19,15L20.1,17.6L23,17.8L20.8,19.7L21.5,22.5L19,21.1L16.5,22.6Z" /></svg>