<svg xmlns="http://www.w3.org/2000/svg" viewBox="0 0 24 24"><path d="M12 3C7.79 3 3.7 4.42.38 7 4.61 12.3 8.16 16.7 12 21.5c1.21-1.5 2.29-2.85 3.5-4.36V14.5c0-.2 0-.41.04-.61L12 18.3 3.27 7.44C5.91 5.85 8.92 5 12 5c3.07 0 6.08.86 8.71 2.45l-1.88 2.34c.54-.19 1.1-.29 1.67-.29.35 0 .7.04 1.05.12.66-.83 1.45-1.85 2.1-2.62C20.32 4.41 16.22 3 12 3m8.5 9c-1.4 0-2.5 1.1-2.5 2.5V16c-.5 0-1 .5-1 1v4c0 .5.5 1 1 1h5c.5 0 1-.5 1-1v-4c0-.5-.5-1-1-1v-1.5c0-1.4-1.1-2.5-2.5-2.5m0 1c.8 0 1.5.7 1.5 1.5V16h-3v-1.5c0-.8.7-1.5 1.5-1.5z"/></svg>