<svg xmlns="http://www.w3.org/2000/svg" viewBox="0 0 24 24"><path d="M12 3C7.79 3 3.7 4.42.38 7 4.42 12.06 7.89 16.37 12 21.5c1.23-1.53 2.29-2.84 3.5-4.36V14.5c0-1.26.5-2.5 1.34-3.4C15.62 10.53 14 10 12 10c-2.38 0-4.26.75-5.5 1.43L3.27 7.44C5.91 5.85 8.92 5 12 5c3.07 0 6.08.86 8.71 2.45l-1.88 2.34c.54-.19 1.1-.29 1.67-.29.35 0 .7.04 1.04.12.66-.82 1.49-1.86 2.11-2.62C20.32 4.41 16.22 3 12 3m8.5 9c-1.4 0-2.5 1.1-2.5 2.5V16c-.5 0-1 .5-1 1v4c0 .5.5 1 1 1h5c.5 0 1-.5 1-1v-4c0-.5-.5-1-1-1v-1.5c0-1.4-1.1-2.5-2.5-2.5m0 1c.8 0 1.5.7 1.5 1.5V16h-3v-1.5c0-.8.7-1.5 1.5-1.5z"/></svg>