<svg xmlns="http://www.w3.org/2000/svg" viewBox="0 0 24 24"><path d="M12 3C7.79 3 3.7 4.42.38 7 4.42 12.06 7.89 16.37 12 21.5c1.23-1.53 2.29-2.84 3.5-4.36V14.5a5.01 5.01 0 013.19-4.66C17.19 8.96 14.84 8 12 8 9 8 6.68 9 5.2 9.84l-1.93-2.4C5.91 5.85 8.92 5 12 5c3.07 0 6.08.86 8.71 2.45l-1.87 2.34c.53-.19 1.09-.29 1.66-.29.35 0 .7.04 1.04.12.66-.82 1.49-1.86 2.11-2.62C20.32 4.41 16.22 3 12 3m8.5 9c-1.4 0-2.5 1.1-2.5 2.5V16c-.5 0-1 .5-1 1v4c0 .5.5 1 1 1h5c.5 0 1-.5 1-1v-4c0-.5-.5-1-1-1v-1.5c0-1.4-1.1-2.5-2.5-2.5m0 1c.8 0 1.5.7 1.5 1.5V16h-3v-1.5c0-.8.7-1.5 1.5-1.5z"/></svg>