<?xml version="1.0" encoding="UTF-8"?><!DOCTYPE svg PUBLIC "-//W3C//DTD SVG 1.1//EN" "http://www.w3.org/Graphics/SVG/1.1/DTD/svg11.dtd"><svg xmlns="http://www.w3.org/2000/svg" xmlns:xlink="http://www.w3.org/1999/xlink" version="1.1" id="mdi-wikipedia" width="24" height="24" viewBox="0 0 24 24"><path d="M14.97,18.95L12.41,12.92C11.39,14.91 10.27,17 9.31,18.95C9.3,18.96 8.84,18.95 8.84,18.95C7.37,15.5 5.85,12.1 4.37,8.68C4.03,7.84 2.83,6.5 2,6.5C2,6.4 2,6.18 2,6.05H7.06V6.5C6.46,6.5 5.44,6.9 5.7,7.55C6.42,9.09 8.94,15.06 9.63,16.58C10.1,15.64 11.43,13.16 12,12.11C11.55,11.23 10.13,7.93 9.71,7.11C9.39,6.57 8.58,6.5 7.96,6.5C7.96,6.35 7.97,6.25 7.96,6.06L12.42,6.07V6.47C11.81,6.5 11.24,6.71 11.5,7.29C12.1,8.53 12.45,9.42 13,10.57C13.17,10.23 14.07,8.38 14.5,7.41C14.76,6.76 14.37,6.5 13.29,6.5C13.3,6.38 13.3,6.17 13.3,6.07C14.69,6.06 16.78,6.06 17.15,6.05V6.47C16.44,6.5 15.71,6.88 15.33,7.46L13.5,11.3C13.68,11.81 15.46,15.76 15.65,16.2L19.5,7.37C19.2,6.65 18.34,6.5 18,6.5C18,6.37 18,6.2 18,6.05L22,6.08V6.1L22,6.5C21.12,6.5 20.57,7 20.25,7.75C19.45,9.54 17,15.24 15.4,18.95C15.4,18.95 14.97,18.95 14.97,18.95Z" /></svg>