<svg xmlns="http://www.w3.org/2000/svg" viewBox="0 0 24 24"><path d="M12 12l.03-.1 2.55-4.8.17-.1h1.59l.16.1v.2L14 12l2.5 4.7v.2l-.16.1h-1.59l-.17-.1-2.55-4.8L12 12v.1l-2.58 4.8-.17.1H7.66l-.16-.1v-.2L10 12 7.5 7.3v-.2l.16-.1h1.59l.17.1L12 11.9v.1m10.75-.93c.16.28.25.6.25.93 0 .33-.09.65-.25.93L18.08 21c-.36.62-1.02 1-1.73 1h-8.7c-.71 0-1.37-.38-1.73-1l-4.67-8.07c-.16-.28-.25-.6-.25-.93 0-.33.09-.65.25-.93L5.92 3c.36-.62 1.02-1 1.73-1h8.7c.71 0 1.37.38 1.73 1l4.67 8.07m-1.95.18L16.97 4.8c-.29-.5-.83-.8-1.41-.8H8.44c-.58 0-1.12.3-1.41.8L3.2 11.25c-.13.25-.2.49-.2.75s.07.5.2.75l3.83 6.45c.29.5.83.8 1.41.8h7.12c.58 0 1.12-.3 1.41-.8l3.83-6.45c.13-.25.2-.49.2-.75s-.07-.5-.2-.75z"/></svg>