<svg xmlns="http://www.w3.org/2000/svg" viewBox="0 0 24 24"><path d="M4.8 3C3.8 3 3 3.8 3 4.8v14.4c0 1 .8 1.8 1.8 1.8h14.4c1 0 1.8-.8 1.8-1.8V4.8c0-1-.8-1.8-1.8-1.8m-3.13 2h2.04c.12 0 .22.04.26.13.06.09.06.2 0 .31l-4.47 7.92 2.85 5.2c.06.11.06.22 0 .31-.05.08-.14.13-.25.13h-2.03c-.31 0-.47-.21-.56-.39l-2.87-5.26 4.49-7.96c.11-.2.24-.39.54-.39M7.09 7.76H9.1c.31 0 .47.2.57.39l1.39 2.42c-.09.14-2.18 3.85-2.18 3.85-.11.19-.25.39-.56.39H6.3c-.12 0-.21-.05-.26-.14a.413.413 0 010-.31l2.14-3.79L6.82 8.2c-.05-.11-.07-.2-.01-.31.05-.08.15-.13.28-.13z"/></svg>