<?xml version="1.0" encoding="UTF-8"?><!DOCTYPE svg PUBLIC "-//W3C//DTD SVG 1.1//EN" "http://www.w3.org/Graphics/SVG/1.1/DTD/svg11.dtd"><svg xmlns="http://www.w3.org/2000/svg" xmlns:xlink="http://www.w3.org/1999/xlink" version="1.1" id="mdi-xing" width="24" height="24" viewBox="0 0 24 24"><path d="M4.8,3C3.8,3 3,3.8 3,4.8V19.2C3,20.2 3.8,21 4.8,21H19.2C20.2,21 21,20.2 21,19.2V4.8C21,3.8 20.2,3 19.2,3M16.07,5H18.11C18.23,5 18.33,5.04 18.37,5.13C18.43,5.22 18.43,5.33 18.37,5.44L13.9,13.36L16.75,18.56C16.81,18.67 16.81,18.78 16.75,18.87C16.7,18.95 16.61,19 16.5,19H14.47C14.16,19 14,18.79 13.91,18.61L11.04,13.35C11.18,13.1 15.53,5.39 15.53,5.39C15.64,5.19 15.77,5 16.07,5M7.09,7.76H9.1C9.41,7.76 9.57,7.96 9.67,8.15L11.06,10.57C10.97,10.71 8.88,14.42 8.88,14.42C8.77,14.61 8.63,14.81 8.32,14.81H6.3C6.18,14.81 6.09,14.76 6.04,14.67C6,14.59 6,14.47 6.04,14.36L8.18,10.57L6.82,8.2C6.77,8.09 6.75,8 6.81,7.89C6.86,7.81 6.96,7.76 7.09,7.76Z" /></svg>