<?xml version="1.0" encoding="UTF-8"?><!DOCTYPE svg PUBLIC "-//W3C//DTD SVG 1.1//EN" "http://www.w3.org/Graphics/SVG/1.1/DTD/svg11.dtd"><svg xmlns="http://www.w3.org/2000/svg" xmlns:xlink="http://www.w3.org/1999/xlink" version="1.1" id="mdi-yeast" width="24" height="24" viewBox="0 0 24 24"><path d="M18,14A4,4 0 0,1 22,18A4,4 0 0,1 18,22A4,4 0 0,1 14,18L14.09,17.15C14.05,16.45 13.92,15.84 13.55,15.5C13.35,15.3 13.07,15.19 12.75,15.13C11.79,15.68 10.68,16 9.5,16A6.5,6.5 0 0,1 3,9.5A6.5,6.5 0 0,1 9.5,3A6.5,6.5 0 0,1 16,9.5C16,10.68 15.68,11.79 15.13,12.75C15.19,13.07 15.3,13.35 15.5,13.55C15.84,13.92 16.45,14.05 17.15,14.09L18,14M7.5,10A1.5,1.5 0 0,1 9,11.5A1.5,1.5 0 0,1 7.5,13A1.5,1.5 0 0,1 6,11.5A1.5,1.5 0 0,1 7.5,10M9.5,5C7,5 5,7 5,9.5C5,12 7,14 9.5,14C12,14 14,12 14,9.5C14,7 12,5 9.5,5Z" /></svg>