<?xml version="1.0" encoding="UTF-8"?><!DOCTYPE svg PUBLIC "-//W3C//DTD SVG 1.1//EN" "http://www.w3.org/Graphics/SVG/1.1/DTD/svg11.dtd"><svg xmlns="http://www.w3.org/2000/svg" xmlns:xlink="http://www.w3.org/1999/xlink" version="1.1" id="mdi-zodiac-aquarius" width="24" height="24" viewBox="0 0 24 24"><path d="M15,12.41L12,9.41L9,12.41L6,9.41L3.71,11.71L2.29,10.29L6,6.59L9,9.59L12,6.59L15,9.59L18,6.59L21.71,10.29L20.29,11.71L18,9.41L15,12.41M18,15.41L20.29,17.71L21.71,16.29L18,12.59L15,15.59L12,12.59L9,15.59L6,12.59L2.29,16.29L3.71,17.71L6,15.41L9,18.41L12,15.41L15,18.41L18,15.41Z" /></svg>