<svg xmlns="http://www.w3.org/2000/svg" viewBox="0 0 24 24"><path d="M21.223 20.927c-2.032 2.246-6.095 2.97-9.24 2.95-3.145 0-7.208-.704-9.24-2.95-2.109-2.285-2.91-6.329-2.715-10.04.215-3.946 1.563-6.837 3.4-8.42C5.42.768 9.13.104 12.002.123c2.871-.02 6.582.645 8.575 2.345 1.836 1.582 3.184 4.473 3.399 8.418.176 3.693-.645 7.736-2.754 10.041zM11.3 9.754h1.367l-.02-8.634c-.41-.02-.488-.02-.664-.02-.176 0-.273 0-.664.02-.02 0-.02 8.634-.02 8.634zM6.006 21.826c.117-2.032.527-6.7.762-8.576.37-2.285.742-3.008 1.172-4.278.351-1.035 2.168-5.684 3.047-7.852 0 0-2.266.039-4.16.703-1.368.469-2.716 1.367-3.634 2.715-2.149 3.086-1.7 8.497-1.582 9.982.332 3.79 1.855 6.094 4.395 7.305zm11.681.117c-.586-1.563-3.399-8.283-4.923-10.9h-1.582C9.64 13.66 6.846 20.38 6.26 21.943c1.738.742 3.926.918 5.704.937 1.797-.02 3.965-.175 5.723-.937zm3.067-17.405c-.918-1.328-2.266-2.246-3.633-2.715-1.895-.664-4.161-.703-4.161-.703.879 2.168 2.696 6.817 3.047 7.852.43 1.27.801 1.973 1.172 4.278.235 1.875.645 6.544.762 8.576 2.54-1.231 4.063-3.516 4.395-7.326.117-1.465.567-6.876-1.582-9.962z"/></svg>