<svg viewBox="0 0 24 24" xmlns="http://www.w3.org/2000/svg"><path d="m17.388 8.329-.01-.004c-.004-.002-.01-.004-.014-.008a.069.069 0 0 1-.017-.059L17.83 5.3 20.1 7.57l-2.36 1.004a.052.052 0 0 1-.02.004h-.01a.065.065 0 0 1-.013-.01 1.074 1.074 0 0 0-.31-.24zm3.29-.18 2.427 2.425c.504.505.756.757.848 1.048.014.043.025.087.034.131l-5.798-2.455a.456.456 0 0 0-.01-.004c-.023-.01-.05-.02-.05-.044 0-.024.028-.035.051-.044l.008-.004zm3.21 4.383c-.125.235-.37.48-.783.893L20.37 16.16l-3.538-.737-.018-.004c-.032-.005-.065-.01-.065-.039a1.068 1.068 0 0 0-.41-.746c-.014-.015-.01-.037-.006-.058l.001-.009.666-4.085.002-.013c.004-.032.01-.068.038-.068a1.083 1.083 0 0 0 .726-.416c.005-.007.01-.013.017-.017.02-.01.043 0 .064.009l6.04 2.555zm-4.147 4.257-4.498 4.498.77-4.732.001-.007a.083.083 0 0 1 .004-.018c.006-.015.023-.021.038-.027l.008-.003a1.158 1.158 0 0 0 .435-.324c.015-.018.033-.035.056-.038a.056.056 0 0 1 .018 0l3.168.651zm-5.45 5.45-.507.507-5.605-8.101a.265.265 0 0 0-.006-.009c-.009-.012-.018-.024-.016-.038 0-.01.006-.018.013-.026l.007-.008c.017-.025.03-.05.047-.077l.012-.022.002-.002c.009-.015.017-.03.032-.037.013-.007.031-.004.046 0l6.21 1.28a.103.103 0 0 1 .047.02c.008.008.01.017.012.027a1.1 1.1 0 0 0 .643.736c.018.009.01.028.002.049a.149.149 0 0 0-.01.028l-.929 5.673zm-1.059 1.058c-.373.37-.594.566-.843.645a1.252 1.252 0 0 1-.755 0c-.291-.093-.544-.345-1.048-.849l-5.629-5.629 1.47-2.28a.094.094 0 0 1 .026-.03c.015-.01.038-.006.057 0a1.524 1.524 0 0 0 1.025-.052c.017-.006.034-.01.047.002a.119.119 0 0 1 .017.02l5.633 8.174zm-8.817-6.376L3.123 15.63l2.55-1.088a.053.053 0 0 1 .021-.004c.021 0 .034.021.045.04a1.821 1.821 0 0 0 .081.116l.009.01c.007.01.002.02-.005.03l-1.409 2.187zM2.552 15.06.918 13.425a9.457 9.457 0 0 1-.62-.653l4.968 1.03a.526.526 0 0 0 .019.003c.03.005.064.011.064.04 0 .031-.037.046-.068.057l-.014.007zM.013 11.932a1.252 1.252 0 0 1 .056-.31c.093-.291.345-.543.85-1.048l2.09-2.09a1361.72 1361.72 0 0 0 2.895 4.185c.017.023.036.048.017.067a1.74 1.74 0 0 0-.248.33.1.1 0 0 1-.03.039c-.009.005-.018.003-.027.001h-.001L.013 11.931zm3.555-4.008 2.811-2.81c.265.115 1.226.521 2.086.884.651.276 1.244.526 1.43.607.02.008.037.015.045.034.005.011.002.026 0 .038a1.254 1.254 0 0 0 .327 1.144c.019.019 0 .046-.016.069l-.009.013-2.854 4.42a.088.088 0 0 1-.027.032c-.015.01-.036.005-.054 0a1.423 1.423 0 0 0-.34-.046c-.103 0-.214.02-.327.04-.013.002-.024.004-.034-.003a.131.131 0 0 1-.028-.032zm3.38-3.379L10.585.906c.504-.503.756-.756 1.048-.848a1.252 1.252 0 0 1 .755 0c.292.092.544.345 1.048.848l.789.79-2.589 4.008a.097.097 0 0 1-.025.03c-.016.01-.038.006-.057 0a1.313 1.313 0 0 0-1.201.231c-.017.018-.042.008-.064-.002-.338-.147-2.967-1.258-3.343-1.417zm7.827-2.3 2.39 2.39-.576 3.566v.01a.085.085 0 0 1-.005.023c-.006.013-.019.015-.031.019a1.145 1.145 0 0 0-.343.17.096.096 0 0 0-.013.011c-.007.008-.014.015-.025.016a.071.071 0 0 1-.027-.004l-3.641-1.548-.007-.003c-.024-.01-.051-.02-.051-.044a1.376 1.376 0 0 0-.194-.573c-.018-.029-.037-.059-.022-.088zM12.314 7.63l3.414 1.446c.019.009.04.017.047.037a.066.066 0 0 1 0 .035.848.848 0 0 0-.018.165v.096c0 .023-.025.033-.047.043l-.007.002c-.541.231-7.593 3.238-7.603 3.238-.011 0-.022 0-.033-.01-.019-.02 0-.045.017-.07a.476.476 0 0 0 .009-.012l2.805-4.344.005-.007c.016-.026.035-.056.065-.056l.028.004c.064.01.12.017.177.017.426 0 .82-.207 1.058-.561a.1.1 0 0 1 .022-.025c.017-.013.042-.006.061.002zm-3.91 5.75 7.687-3.278s.011 0 .022.01c.042.042.077.07.112.097l.017.01c.015.009.031.019.032.035l-.001.016-.659 4.045-.002.016c-.004.031-.009.067-.038.067a1.082 1.082 0 0 0-.86.53l-.003.005c-.009.014-.017.028-.031.036-.013.006-.03.003-.044 0l-6.13-1.264c-.006-.001-.095-.325-.102-.326z"/></svg>