<svg xmlns="http://www.w3.org/2000/svg" viewBox="0 0 448 512"><!--! Font Awesome Free 6.1.2 by @fontawesome - https://fontawesome.com License - https://fontawesome.com/license/free (Icons: CC BY 4.0, Fonts: SIL OFL 1.1, Code: MIT License) Copyright 2022 Fonticons, Inc.--><path d="M256 96H32C14.33 96 0 81.67 0 64s14.33-32 32-32h224c17.7 0 32 14.33 32 32s-14.3 32-32 32zm0 256H32c-17.67 0-32-14.3-32-32s14.33-32 32-32h224c17.7 0 32 14.3 32 32s-14.3 32-32 32zM0 192c0-17.7 14.33-32 32-32h384c17.7 0 32 14.3 32 32s-14.3 32-32 32H32c-17.67 0-32-14.3-32-32zm416 288H32c-17.67 0-32-14.3-32-32s14.33-32 32-32h384c17.7 0 32 14.3 32 32s-14.3 32-32 32z"/></svg>