<svg xmlns="http://www.w3.org/2000/svg" viewBox="0 0 448 512"><!--! Font Awesome Free 6.1.2 by @fontawesome - https://fontawesome.com License - https://fontawesome.com/license/free (Icons: CC BY 4.0, Fonts: SIL OFL 1.1, Code: MIT License) Copyright 2022 Fonticons, Inc.--><path d="M336 128c-32 0-80.02 16.03-112 32.03-32.01-16-79.1-32.02-111.1-32.03C32 128 .413 210.5.003 288c-.531 99.97 63.99 224 159.1 224 32 0 48-16 64-16s32 16 64 16c96 0 160.4-122.8 159.1-224C447.7 211.6 416 128 336 128zm-16-96V0h-32c-44.2 0-80 35.82-80 80v32h32c44.2 0 80-35.82 80-80z"/></svg>