<svg xmlns="http://www.w3.org/2000/svg" viewBox="0 0 512 512"><!--! Font Awesome Free 6.1.2 by @fontawesome - https://fontawesome.com License - https://fontawesome.com/license/free (Icons: CC BY 4.0, Fonts: SIL OFL 1.1, Code: MIT License) Copyright 2022 Fonticons, Inc.--><path d="M480 32c17.7 0 32 14.33 32 32s-14.3 32-32 32H32C14.33 96 0 81.67 0 64s14.33-32 32-32h448zM32 128h448v288c17.7 0 32 14.3 32 32s-14.3 32-32 32H352V352c0-53.9-43-96-96-96-53.9 0-96 42.1-96 96v128H32c-17.67 0-32-14.3-32-32s14.33-32 32-32V128z"/></svg>