<svg xmlns="http://www.w3.org/2000/svg" viewBox="0 0 512 512"><!--! Font Awesome Free 6.1.1 by @fontawesome - https://fontawesome.com License - https://fontawesome.com/license/free (Icons: CC BY 4.0, Fonts: SIL OFL 1.1, Code: MIT License) Copyright 2022 Fonticons, Inc.--><path d="M216 320.3c-8.672 0-17.3 3.5-23.61 10.38L160 366.1V64.03C160 46.33 145.7 32 128 32S96 46.33 96 64.03v302L63.6 330.7c-11.95-13.01-32.2-13.91-45.22-1.969-13.03 11.95-13.9 32.22-1.969 45.27l87.1 96.09c12.12 13.26 35.06 13.26 47.19 0l87.1-96.09c11.94-13.05 11.06-33.31-1.969-45.27C231.5 323.1 223.7 320.3 216 320.3zm141.7-119.2-7.682 8.004c-10.72 11.16-10.34 28.88.813 39.56 5.405 5.219 12.41 7.812 19.38 7.812 7.343 0 14.72-2.875 20.19-8.625 69.61-72.53 89.6-85.39 89.6-127.8 0-48.6-39.4-88-88-88s-88 39.4-88 88C303.1 156.4 326.1 187.7 357.7 201.1zM392 96c13.23 0 24 10.77 24 24s-10.8 24-24 24-24-10.8-24-24 10.8-24 24-24zm24 320.4v-96.02a32.01 32.01 0 0 0-15.38-27.34 32.078 32.078 0 0 0-31.34-1.062l-32 16.59c-15.69 8.125-21.81 27.44-13.69 43.13C329.3 362.8 340.4 369 352 369v47.41c-17.69 0-32 14.31-32 32s14.31 32 32 32h64c17.69 0 32-14.31 32-32s-14.3-32.01-32-32.01z"/></svg>