<svg xmlns="http://www.w3.org/2000/svg" viewBox="0 0 512 512"><!--! Font Awesome Free 6.1.2 by @fontawesome - https://fontawesome.com License - https://fontawesome.com/license/free (Icons: CC BY 4.0, Fonts: SIL OFL 1.1, Code: MIT License) Copyright 2022 Fonticons, Inc.--><path d="M237.6 183.3c13.03-11.95 13.9-32.22 1.969-45.27L151.6 41.94c-12.12-13.26-35.06-13.26-47.19 0l-87.1 96.09C4.475 151.1 5.35 171.3 18.38 183.3c13.02 11.95 33.27 11.04 45.22-1.969L96 145.9v302c0 17.7 14.33 32.03 31.1 32.03s32-14.33 32-32.03v-302l33.3 35.4c6.312 6.883 14.94 10.38 23.61 10.38 7.69.02 15.49-2.78 21.59-8.38zm120.1 17.8-7.682 8.004c-10.72 11.16-10.34 28.88.813 39.56 5.405 5.219 12.41 7.812 19.38 7.812 7.343 0 14.72-2.875 20.19-8.625 69.61-72.53 89.6-85.39 89.6-127.8 0-48.6-39.4-88-88-88s-88 39.4-88 88C303.1 156.4 326.1 187.7 357.7 201.1zM392 96c13.23 0 24 10.77 24 24s-10.8 24-24 24-24-10.8-24-24 10.8-24 24-24zm24 320.4v-96.02a32.01 32.01 0 0 0-15.38-27.34 32.078 32.078 0 0 0-31.34-1.062l-32 16.59c-15.69 8.125-21.81 27.44-13.69 43.13C329.3 362.8 340.4 369 352 369v47.41c-17.69 0-32 14.31-32 32s14.31 32 32 32h64c17.69 0 32-14.31 32-32s-14.3-32.01-32-32.01z"/></svg>