<svg xmlns="http://www.w3.org/2000/svg" viewBox="0 0 640 512"><!--! Font Awesome Free 6.1.1 by @fontawesome - https://fontawesome.com License - https://fontawesome.com/license/free (Icons: CC BY 4.0, Fonts: SIL OFL 1.1, Code: MIT License) Copyright 2022 Fonticons, Inc.--><path d="M167.1 24v118.1L191 119c9.4-9.3 24.6-9.3 33.1 0 10.2 9.4 10.2 24.6 0 33.1l-64 64c-8.5 10.2-23.7 10.2-33.1 0l-63.97-64c-9.38-8.5-9.38-23.7 0-33.1 9.37-9.3 24.57-9.3 33.94 0l22.13 23.1V24c0-13.25 11.6-24 24-24 14.2 0 24 10.75 24 24zm192 176c0 22.1-17 40-40 40-21.2 0-40-17.9-40-40s18.8-40 40-40c23 0 40 17.9 40 40zm-176 96c0 22.1-17 40-40 40-21.2 0-40-17.9-40-40s18.8-40 40-40c23 0 40 17.9 40 40zm272 0c0-22.1 18.8-40 40-40 23 0 40 17.9 40 40s-17 40-40 40c-21.2 0-40-17.9-40-40zm-256 184c0 17.7-13.4 32-32 32h-48c-16.8 0-32-14.3-32-32v-38.5l-25.97 49.9c-6.29 11.6-20.84 16-32.51 9.7-11.67-6.3-16.04-20.8-9.75-32.5l37.87-70.3C72.09 369.8 101.9 352 134.2 352h19.6c16.3 0 31.9 4.5 45.4 12.6l33.5-62.3c15.4-28.5 45.2-47.2 77.5-47.2h19.6c32.3 0 62.1 18.7 77.5 47.2l33.5 62.3c13.5-8.1 29.1-12.6 45.4-12.6h19.6c32.3 0 62.1 17.8 77.5 46.3l37.8 70.3c6.3 11.7 1.9 26.2-9.7 32.5-11.7 6.3-26.3 1.9-32.5-9.7l-27.8-49.9V480c0 17.7-13.4 32-32 32h-48c-16.8 0-32-14.3-32-32v-38.5l-26 49.9c-6.3 11.6-20.8 16-32.5 9.7-11.7-6.3-16-20.8-9.7-32.5l36.3-67.5c-1.7-1.6-3.2-3.5-4.3-5.7l-27.8-49.9V400c0 17.7-13.4 32-32 32h-48c-16.8 0-32-14.3-32-32v-54.5l-26 49.9c-2 2.2-2.6 4.1-4.3 5.7l36.3 67.5c6.3 11.7 1.9 26.2-9.7 32.5-11.7 6.3-26.3 1.9-32.5-9.7l-27.8-49.9V480zM415 152.1c-9.3-8.5-9.3-23.7 0-33.1 9.4-9.3 24.6-9.3 33.1 0l23 23.1V24c0-13.25 11.6-24 24-24 14.2 0 24 10.75 24 24v118.1L543 119c9.4-9.3 24.6-9.3 33.1 0 10.2 9.4 10.2 24.6 0 33.1l-64 64c-8.5 10.2-23.7 10.2-33.1 0l-64-64z"/></svg>