<svg xmlns="http://www.w3.org/2000/svg" viewBox="0 0 512 512"><!--! Font Awesome Free 6.1.1 by @fontawesome - https://fontawesome.com License - https://fontawesome.com/license/free (Icons: CC BY 4.0, Fonts: SIL OFL 1.1, Code: MIT License) Copyright 2022 Fonticons, Inc.--><path d="m288 82.74 9.4-9.37c12.5-12.49 32.7-12.49 45.2 0 12.5 12.5 12.5 32.73 0 45.23l-64 64c-12.5 12.5-32.7 12.5-45.2 0l-64-64c-12.5-12.5-12.5-32.73 0-45.23 12.5-12.49 32.7-12.49 45.2 0l8.5 9.38V32c0-17.67 15.2-32 32-32C273.7 0 288 14.33 288 32v50.74zM438.6 342.6c-12.5 12.5-32.7 12.5-45.2 0l-64-64c-12.5-12.5-12.5-32.7 0-45.2l64-64c12.5-12.5 32.7-12.5 45.2 0s12.5 32.7 0 45.2l-9.3 8.5H480c17.7 0 32 15.2 32 32 0 18.6-14.3 32-32 32h-50.7l9.3 10.3c12.5 12.5 12.5 32.7 0 45.2zM288 256c0 17.7-14.3 32-32 32s-32-14.3-32-32 14.3-32 32-32 32 14.3 32 32zm-105.4-22.6c12.5 12.5 12.5 32.7 0 45.2l-64 64c-12.5 12.5-32.73 12.5-45.23 0-12.49-12.5-12.49-32.7 0-45.2l9.38-9.4H32c-17.67 0-32-14.3-32-32s14.33-32 32-32h50.74l-9.37-9.4c-12.49-12.5-12.49-32.7 0-45.2 12.5-12.5 32.73-12.5 45.23 0l64 64zm-13.2 205.2c-12.5-12.5-12.5-32.7 0-45.2l64-64c12.5-12.5 32.7-12.5 45.2 0l64 64c12.5 12.5 12.5 32.7 0 45.2s-32.7 12.5-45.2 0l-9.4-9.3V480c0 17.7-14.3 32-32 32s-32-14.3-32-32v-50.7l-9.4 9.3c-12.5 12.5-32.7 12.5-45.2 0z"/></svg>