<svg xmlns="http://www.w3.org/2000/svg" viewBox="0 0 640 512"><!--! Font Awesome Free 6.1.1 by @fontawesome - https://fontawesome.com License - https://fontawesome.com/license/free (Icons: CC BY 4.0, Fonts: SIL OFL 1.1, Code: MIT License) Copyright 2022 Fonticons, Inc.--><path d="m105.4 502.6-96.027-96c-12.497-12.5-12.497-32.7 0-45.2s32.757-12.5 45.257 0L96 402.7V287.1H32c-17.67 0-32-13.4-32-32 0-16.8 14.33-32 32-32h256V109.3l-41.4 41.3c-12.5 12.5-32.7 12.5-45.2 0s-12.5-32.7 0-45.2l96-96.028C303.4 3.371 311.5 0 320 0c8.5 0 16.6 3.372 22.6 9.372l96 96.028c12.5 12.5 12.5 32.7 0 45.2s-32.7 12.5-45.2 0L352 109.3v113.8h74.8c-6.9 15.4-10.8 31.7-10.8 48v16H160v115.6l41.4-41.3c12.5-12.5 32.7-12.5 45.2 0s12.5 32.7 0 45.2l-96 96c-12.5 12.5-32.7 12.5-45.2 0zM96 191.1v-128c0-16.77 14.3-32 32-32s32 15.23 32 32v128H96zm256 128V448c0 17.7-14.3 32-32 32s-32-14.3-32-32V319.1h64zm176-128c44.2 0 80 36.7 80 80v48c17.7 0 32 15.2 32 32.9v128c0 17.7-14.3 32-32 32H448c-17.7 0-32-14.3-32-32V352c0-17.7 14.3-32.9 32-32.9v-48c0-43.3 35.8-80 80-80zm0 48c-17.7 0-32 15.2-32 32v48h64v-48c0-16.8-14.3-32-32-32z"/></svg>