<svg xmlns="http://www.w3.org/2000/svg" viewBox="0 0 512 512"><!--! Font Awesome Free 6.1.2 by @fontawesome - https://fontawesome.com License - https://fontawesome.com/license/free (Icons: CC BY 4.0, Fonts: SIL OFL 1.1, Code: MIT License) Copyright 2022 Fonticons, Inc.--><path d="m502.6 278.6-96 96c-6.2 6.3-14.4 9.4-22.6 9.4s-16.38-3.125-22.62-9.375c-12.5-12.5-12.5-32.75 0-45.25L402.8 288H109.3l41.38 41.38c12.5 12.5 12.5 32.75 0 45.25C144.4 380.9 136.2 384 128 384s-16.38-3.125-22.62-9.375l-96-96c-12.5-12.5-12.5-32.75 0-45.25l96-96c12.5-12.5 32.75-12.5 45.25 0s12.5 32.75 0 45.25L109.3 224h293.5l-41.38-41.38c-12.5-12.5-12.5-32.75 0-45.25s32.75-12.5 45.25 0l96 96c12.43 12.53 12.43 32.73-.07 45.23z"/></svg>