<svg xmlns="http://www.w3.org/2000/svg" viewBox="0 0 576 512"><!--! Font Awesome Free 6.1.1 by @fontawesome - https://fontawesome.com License - https://fontawesome.com/license/free (Icons: CC BY 4.0, Fonts: SIL OFL 1.1, Code: MIT License) Copyright 2022 Fonticons, Inc.--><path d="M239.1 0c27.4 0 48 21.49 48 48v208H416V109.3l-25.4 25.3c-12.5 12.5-32.7 12.5-45.2 0s-12.5-32.7 0-45.23l80-79.997c12.5-12.497 32.7-12.497 45.2 0l80 79.997c12.5 12.53 12.5 32.73 0 45.23s-32.7 12.5-45.2 0L480 109.3V256h48c26.5 0 48 21.5 48 48v96c0 8-2 15.6-5.4 22.2-3.8-1.7-7.8-3.1-12.1-4.1-13.1-3-26.7-9.8-37.3-18.6-22.2-18.7-54.3-20.1-78-3.4-18 12.4-40.2 20.4-59.2 20.4-19.6 0-40.8-7.7-59.2-20.4-22-15.5-51.5-15.5-73.6 0-17.2 11.8-38 20.4-59.2 20.4-19.9 0-41.2-8-59.1-20.4-23.8-16.7-55.89-15.3-78.12 3.4-10.6 8.8-24.19 15.6-37.29 18.6-4.22 1-8.251 2.4-12.051 4.1C1.965 415.6 0 408 0 400v-96c0-26.5 21.49-48 48-48h16V48c0-26.51 21.49-48 48-48h127.1zM384 448c26.9 0 55.4-10.8 77.4-26.1h.1c11.9-8.5 28-7.8 39.2 1.7 14.3 11.9 32.5 21 50.6 25.2 17.2 4 27.9 21.3 23.9 38.5s-22.1 27.9-38.5 23.9c-24.5-5.8-44.8-16.6-58.2-25-29 15.5-61.5 25.8-94.5 25.8-31.9 0-60.6-9.9-80.4-18.9-5.9-2.6-11.1-5.3-15.6-7.7-4.5 2.4-9.7 5.1-15.6 7.7-19.8 9-48.5 18.9-80.4 18.9-33.9 0-65.5-10.3-94.5-25.8-13.38 8.4-33.71 19.2-58.23 25-17.21 4-34.417-6.7-38.428-23.9-4.011-17.2 6.69-34.5 23.898-38.5 18.1-4.2 36.22-13.3 50.57-25.2 11.15-9.5 27.29-10.2 39.19-1.7h.1c22.1 15.3 50.5 26.1 77.4 26.1 27.5 0 55-10.6 77.5-26.1 11.1-7.9 25.9-7.9 37 0 21.6 15.5 50 26.1 77.5 26.1z"/></svg>