<svg xmlns="http://www.w3.org/2000/svg" viewBox="0 0 512 512"><!--! Font Awesome Free 6.1.2 by @fontawesome - https://fontawesome.com License - https://fontawesome.com/license/free (Icons: CC BY 4.0, Fonts: SIL OFL 1.1, Code: MIT License) Copyright 2022 Fonticons, Inc.--><path d="M320 192c0 17.69 14.31 31.1 32 31.1l64 .9c17.69 0 32-14.31 32-32s-14.31-32-32-32V63.98a32.01 32.01 0 0 0-15.38-27.34 32.078 32.078 0 0 0-31.34-1.062l-32 16.59c-15.69 8.125-21.81 27.44-13.69 43.13C329.3 106.3 340.4 112.6 352 112.6V160c-17.7 0-32 14.3-32 32zm72 63.6c-48.6 0-88 39.4-88 88 0 36.44 22.15 67.7 53.71 81.07l-7.682 8.004c-10.72 11.16-10.34 28.88.812 39.56C356.3 477.4 363.3 480 370.2 480c7.344 0 14.72-2.875 20.19-8.625 69.61-72.53 89.6-85.39 89.6-127.8C480 294.1 440.6 255.6 392 255.6zm0 112c-13.23 0-24-10.77-24-24s10.77-24 24-24 24 10.77 24 24-10.8 24-24 24zM39.99 191.7c8.672 0 17.3-3.5 23.61-10.38L96 145.9v302c0 17.7 14.33 32.03 31.1 32.03s32-14.33 32-32.03v-302l33.3 35.4c12 13 32.2 13.9 45.2 2 13.03-11.95 13.9-32.22 1.969-45.27L151.6 41.94c-12.12-13.26-35.06-13.26-47.19 0l-87.1 96.09C4.475 151.1 5.35 171.3 18.38 183.3c6.14 5.6 13.89 8.4 21.61 8.4z"/></svg>