<svg xmlns="http://www.w3.org/2000/svg" viewBox="0 0 448 512"><!--! Font Awesome Free 6.1.1 by @fontawesome - https://fontawesome.com License - https://fontawesome.com/license/free (Icons: CC BY 4.0, Fonts: SIL OFL 1.1, Code: MIT License) Copyright 2022 Fonticons, Inc.--><path d="M417.1 368c-5.937 10.27-16.69 16-27.75 16a31.921 31.921 0 0 1-15.97-4.281L256 311.4V448c0 17.67-14.33 32-31.1 32S192 465.7 192 448V311.4L73.7 379.69C68.67 382.6 63.17 384 57.75 384c-11.06 0-21.81-5.734-27.75-16-8.828-15.31-3.594-34.88 11.72-43.72L159.1 256 41.72 187.7c-15.31-8.8-20.55-28.4-12.62-43.7 7.53-11.5 20.16-17.3 32.55-15.8 4.13.5 8.23 1.9 12.07 4.1L192 200.6V64c0-17.67 14.33-32 32-32s32 14.33 32 32v136.6l118.3-68.29a31.987 31.987 0 0 1 12.07-4.051C398.7 126.7 411.4 132.5 417.1 144c8.828 15.31 3.594 34.88-11.72 43.72L288 256l118.3 68.28c15.3 8.82 20.5 28.42 10.8 43.72z"/></svg>