<svg xmlns="http://www.w3.org/2000/svg" viewBox="0 0 384 512"><!--! Font Awesome Free 6.1.2 by @fontawesome - https://fontawesome.com License - https://fontawesome.com/license/free (Icons: CC BY 4.0, Fonts: SIL OFL 1.1, Code: MIT License) Copyright 2022 Fonticons, Inc.--><path d="M288 358.3c13.98-8.088 17.53-30.04 28.88-41.39 11.35-11.35 33.3-14.88 41.39-28.87 7.98-13.79.166-34.54 4.373-50.29C366.7 222.5 383.1 208.5 383.1 192s-17.27-30.52-21.34-45.73c-4.207-15.75 3.612-36.5-4.365-50.29-8.086-13.98-30.03-17.52-41.38-28.87-11.35-11.35-14.89-33.3-28.87-41.39-13.79-7.979-34.54-.164-50.29-4.375C222.5 17.27 208.5 0 192 0c-16.5 0-30.5 17.27-45.7 21.34-15.8 4.2-36.5-3.61-50.32 4.36C82 33.79 78.46 55.74 67.11 67.08c-11.34 11.35-33.3 14.89-41.39 28.87-7.98 13.75-.16 34.55-4.37 50.25C17.27 161.5 0 175.5 0 192c0 16.5 17.27 30.52 21.34 45.73 4.208 15.75-3.614 36.5 4.362 50.29C33.8 302 55.74 305.5 67.08 316.9c11.35 11.35 14.89 33.3 28.88 41.4 13.79 7.979 34.53.158 50.28 4.369C161.5 366.7 175.5 384 192 384c16.5 0 30.52-17.27 45.74-21.34 15.76-4.16 36.46 3.64 50.26-4.36zM112 192c0-44.27 35.81-80 80-80s80 35.73 80 80c0 44.17-35.81 80-80 80s-80-35.8-80-80zM1.719 433.2a23.982 23.982 0 0 0 3.875 24.25c5.656 6.75 14.53 9.898 23.12 8.148l45.19-9.035 21.43 42.27C99.46 507 107.6 512 116.7 512c.344 0 .664-.012 1.008-.027 9.5-.375 17.65-6.082 21.24-14.88l33.58-82.08c-53.71-4.64-102-28.12-138.2-63.95L1.719 433.2zM349.6 351.1c-36.15 35.83-84.45 59.31-138.2 63.95l33.58 82.08c3.594 8.797 11.74 14.5 21.24 14.88.38-.91-.12-.01 1.08-.01 9.094 0 17.23-4.973 21.35-13.14l21.43-42.28 45.19 9.035c8.594 1.75 17.47-1.398 23.12-8.148a23.98 23.98 0 0 0 3.875-24.25L349.6 351.1z"/></svg>