<svg xmlns="http://www.w3.org/2000/svg" viewBox="0 0 512 512"><!--! Font Awesome Free 6.1.1 by @fontawesome - https://fontawesome.com License - https://fontawesome.com/license/free (Icons: CC BY 4.0, Fonts: SIL OFL 1.1, Code: MIT License) Copyright 2022 Fonticons, Inc.--><path d="M429.6 272.9c0-16.26 16.36-16.81 29.99-16.81l2.931.003c16.64 0 33.14 2.056 49.2 5.834C511.7 259.9 512 258 512 256 512 114.6 397.4 0 256 0c-2.1 0-4.9.258-6.1.305 3.658 15.51 6.111 31.34 6.111 47.54 0 6-.281 12.03-.781 18C254.6 74.19 247.6 80.5 239.3 80.5c-6.091 0-16.03-4.68-16.03-15.97 0-1.733.715-7.153.715-16.69 0-15.26-2.39-30.18-6.225-44.69C106.9 19.79 19.5 107.3 3.08 218.3a173.865 173.865 0 0 0 44.45 5.79c10.07 0 15.59-.811 17.42-.811 6.229 0 16.49 4.657 16.49 15.99 0 16.11-16.13 16.77-29.73 16.77L48.16 256c-16.33 0-32.25-2.445-47.85-6.109C.258 251.1 0 253.9 0 256c0 141.4 114.6 256 256 256 2.066 0 4.062-.258 6.117-.309C258.5 496.2 256 480.4 256 464.2c0-5.688.25-11.38.719-17.03.696-8.538 8.287-14.61 16.49-14.61 7.1 0 15.44 6.938 15.44 15.92 0 2.358-.653 5.88-.653 15.72 0 15.25 2.383 30.16 6.21 44.66 110.8-16.63 198.2-104.1 214.7-215-14.55-3.851-29.59-5.871-44.74-5.871-10.47 0-16.24.895-18.13.895C443.3 288.9 429.6 286.5 429.6 272.9zm-191.4-144c0 27.78-78.3 108.1-108.6 108.1-8.612 0-16.01-6.963-16.01-15.98 0-6.002 3.394-11.75 9.163-14.49 80.3-38.08 76.21-94.5 99.39-94.5 12.557.77 16.057 12.17 16.057 16.87zm159.3 161.7c0 5.965-3.364 11.68-9.131 14.43-78.82 37.57-75.92 95-98.94 95-12.58 0-16.01-11.54-16.01-16.03 0-28 78.29-109.4 108.1-109.4 9.281 0 15.981 7.7 15.981 16z"/></svg>