<svg xmlns="http://www.w3.org/2000/svg" viewBox="0 0 512 512"><!--! Font Awesome Free 6.1.2 by @fontawesome - https://fontawesome.com License - https://fontawesome.com/license/free (Icons: CC BY 4.0, Fonts: SIL OFL 1.1, Code: MIT License) Copyright 2022 Fonticons, Inc.--><path d="M148.7 171.3 64.21 86.83c-28.39 32.16-48.9 71.38-58.3 114.8C19.41 205.4 33.34 208 48 208c38.34 0 73.1-14.1 100.7-36.7zm45.8.6 61.5 61.5L425.2 64.2C380 24.37 320.9 0 256 0c-7.4 0-14.8.492-22.9 1.113C237.8 16.15 240 31.8 240 48c0 47.19-17.2 90.4-45.5 123.9zM208 48c0-14.66-2.623-28.59-6.334-42.09C158.2 15.31 118.1 35.82 86.83 64.21l84.48 84.48C193.9 121.1 208 86.34 208 48zm-36.1 146.5C138.4 222.8 95.19 240 48 240c-16.2 0-31.85-2.236-46.89-6.031C.492 241.2 0 248.6 0 256c0 64.93 24.37 124 64.21 169.2L233.4 256l-61.5-61.5zm145.6 145.6L256 278.6 86.8 447.8C131.1 487.6 191.1 512 256 512c7.438 0 14.75-.492 22.03-1.113C274.2 495.8 272 480.2 272 464c0-47.2 17.2-90.4 45.5-123.9zm45.8.6 84.48 84.48c28.39-32.16 48.9-71.38 58.3-114.8C492.6 306.6 478.7 304 464 304c-38.3 0-73.1 14.1-100.7 36.7zm84.5-253.87L278.6 256l61.52 61.52C373.6 289.2 416.8 272 464 272c16.2 0 31.85 2.236 46.89 6.031C511.5 270.8 512 263.4 512 256c0-64.9-24.4-124.9-64.2-169.17zM304 464c0 14.66 2.623 28.59 6.334 42.09 43.46-9.4 82.67-29.91 114.8-58.3l-84.48-84.48C318.1 390.9 304 425.7 304 464z"/></svg>