<svg xmlns="http://www.w3.org/2000/svg" viewBox="0 0 640 512"><!--! Font Awesome Free 6.1.2 by @fontawesome - https://fontawesome.com License - https://fontawesome.com/license/free (Icons: CC BY 4.0, Fonts: SIL OFL 1.1, Code: MIT License) Copyright 2022 Fonticons, Inc.--><path d="M524 64h92c13.3 0 24 10.75 24 24 0 13.3-10.7 24-24 24H512c-7.6 0-14.7-3.6-19.2-9.6l-24.1-32.09-47 99.89c-3.7 7.9-11.3 13.1-19.9 13.7-8.7.7-17-3.4-21.8-10.6L339.2 112H216c-13.3 0-24-10.7-24-24 0-13.25 10.7-24 24-24h136c8 0 15.5 4.01 19.1 10.69l25.3 36.61 45.9-97.52C445.9 6.163 453.2.98 461.6.125c8.3-.856 16.5 2.74 21.6 9.475L524 64zm-204 96h12.7l20.7 31.1c11.2 16.8 30.6 26.2 50.7 24.7 20.2-1.4 38-13.7 46.6-32l11.2-23.8H544c53 0 96 42.1 96 96v224c0 17.7-14.3 32-32 32s-32-14.3-32-32v-32H64v32c0 17.7-14.33 32-32 32S0 497.7 0 480V96c0-17.67 14.33-32 32-32s32 14.33 32 32v256h224V192c0-17.7 14.3-32 32-32zM96 240c0-44.2 35.8-80 80-80s80 35.8 80 80-35.8 80-80 80-80-35.8-80-80z"/></svg>