<svg xmlns="http://www.w3.org/2000/svg" viewBox="0 0 448 512"><!--! Font Awesome Free 6.1.1 by @fontawesome - https://fontawesome.com License - https://fontawesome.com/license/free (Icons: CC BY 4.0, Fonts: SIL OFL 1.1, Code: MIT License) Copyright 2022 Fonticons, Inc.--><path d="M256 32v19.2c73 14.83 128 79.4 128 156.8v18.8c0 47.1 17.3 92.4 48.5 127.6l7.4 8.3c8.4 9.5 10.5 22.9 5.3 34.4S428.6 416 416 416H32c-12.6 0-24.029-7.4-29.191-18.9-5.162-11.5-3.097-24.9 5.275-34.4l7.416-8.3C46.74 319.2 64 273.9 64 226.8V208c0-77.4 54.1-141.97 128-156.8V32c0-17.67 14.3-32 32-32s32 14.33 32 32zm-32 480c-17 0-33.3-6.7-45.3-18.7S160 464.1 160 448h128c0 16.1-6.7 33.3-18.7 45.3S240.1 512 224 512z"/></svg>