<svg xmlns="http://www.w3.org/2000/svg" viewBox="0 0 640 512"><!--! Font Awesome Free 6.1.1 by @fontawesome - https://fontawesome.com License - https://fontawesome.com/license/free (Icons: CC BY 4.0, Fonts: SIL OFL 1.1, Code: MIT License) Copyright 2022 Fonticons, Inc.--><path d="M347.2 32c10.9 0 22.6 6.44 28.2 16.78l97.9 180.32c12.2-3 25.2-5.1 38.7-5.1 70.7 0 128 57.3 128 128s-57.3 128-128 128-128-57.3-128-128c0-40.9 18.4-75.7 47.1-99.2l-21.7-40.1-84.7 143.5c-4.4 7.3-12.2 11.8-20.7 11.8h-49c-7.9 63.1-61.7 112-127 112C57.31 480 0 422.7 0 352s57.31-128 128-128c10.7 0 21.2 1.3 31.2 3.8l26.6-53.1-22.1-30.7H120c-13.3 0-24-10.7-24-24s10.7-24 24-24h56c7.7 0 14.1 3.71 19.5 9.1l27.4 38.9h149.4l-34.6-64h-26.6c-12.4 0-24-10.75-24-24s11.6-24 24-24h36.1zM440 352c0 39.8 32.2 72 72 72s72-32.2 72-72-32.2-72-72-72c-3.8 0-7.5.3-11.2.9l32.3 59.7c6.3 11.6 2 26.2-9.7 32.5-11.6 6.3-26.2 2-32.5-9.7l-32.3-59.7C447 316.5 440 333.4 440 352zm-331.2-23.4 24.3-48.4c-1.7-.1-3.4-.2-6-.2-38.86 0-72 32.2-72 72s33.14 72 72 72c35.2 0 63.8-23.9 71.1-56h-65c-21.1 0-33.39-21.3-24.4-39.4zm181.5-8.6.1-.1-72.9-101.2L166.8 320h123.5zm-32.9-128 59.6 82.8 48.9-82.8H257.4z"/></svg>