<svg xmlns="http://www.w3.org/2000/svg" viewBox="0 0 576 512"><!--! Font Awesome Free 6.1.2 by @fontawesome - https://fontawesome.com License - https://fontawesome.com/license/free (Icons: CC BY 4.0, Fonts: SIL OFL 1.1, Code: MIT License) Copyright 2022 Fonticons, Inc.--><path d="M575.5 283.5c-13.13-39.11-39.5-71.98-74.13-92.35-17.5-10.37-36.25-16.62-55.25-19.87 6-17.75 10-36.49 10-56.24 0-40.99-14.5-80.73-41-112.2-2.5-3-6.625-3.623-10-1.75-3.25 1.875-4.75 5.998-3.625 9.748 4.5 13.75 6.625 26.24 6.625 38.49 0 67.73-53.76 122.8-120 122.8s-120-55.11-120-122.8c0-12.12 2.25-24.74 6.625-38.49 1.125-3.75-.375-7.873-3.625-9.748-3.375-1.873-7.502-1.25-10 1.75C134.7 34.3 120.1 74.04 120.1 115c0 19.75 3.875 38.49 10 56.24-18.9 3.26-37.78 9.56-55.28 19.86-34.63 20.49-61.01 53.24-74.38 92.35-1.25 3.75.25 7.748 3.5 9.748 3.375 2 7.5 1.375 10-1.5 9.377-10.87 19-19.12 29.25-25.12 57.25-33.87 130.8-13.75 163.9 44.99 33.13 58.61 13.38 133.1-43.88 167.8-10.25 6.123-22 10.37-35.88 13.37-3.627.875-6.377 4.25-6.377 8.123.125 4 2.75 7.248 6.502 7.998 39.75 7.748 80.63.75 115.3-19.74 18-10.5 32.88-24.49 45.25-39.99 12.38 15.5 27.38 29.49 45.38 39.99 34.5 20.49 75.51 27.49 115.1 19.74 3.875-.75 6.375-3.998 6.5-7.998 0-3.873-2.625-7.248-6.375-8.123-13.88-2.873-25.63-7.248-35.75-13.37-57.38-33.87-77.01-109.2-44-167.8 33.13-58.73 106.6-78.85 164-44.99 10.12 6.123 19.75 14.25 29.13 25.12 2.5 2.875 6.752 3.5 10 1.5 3.41-1.998 4.91-5.998 3.51-9.698zm-288.4 36.6c-26.5 0-48-21.49-48-47.99 0-26.49 21.5-47.99 48-47.99s48.01 21.49 48.01 47.99c-.01 26.49-20.61 47.99-48.01 47.99zm97.9 57.5c1.152 22.77 10.74 44.63 27.22 60.92 47.45-35.44 79.13-90.58 83.1-153.4-22.58-6.173-45.69-2.743-65.57 8.76C424.7 326.9 408.5 355.1 385 377.6zm-131.7-245c26.22-6.551 45.37-6.024 69.52.025 21.93-9.777 39.07-28.55 47.48-51.75-25.3-10.895-53-16.935-82.2-16.935-29.18 0-56.96 5.986-82.16 16.84 8.36 22.32 25.46 42.02 47.36 51.82zm-89.5 305.9c16.46-16.26 26.03-38.19 27.14-61.01-23.49-21.59-39.59-50.67-44.71-83.6-19.33-11.19-42.43-15.09-65.56-8.79 3.97 62.8 35.63 118 83.13 153.4z"/></svg>