<svg xmlns="http://www.w3.org/2000/svg" viewBox="0 0 640 512"><!--! Font Awesome Free 6.3.0 by @fontawesome - https://fontawesome.com License - https://fontawesome.com/license/free (Icons: CC BY 4.0, Fonts: SIL OFL 1.1, Code: MIT License) Copyright 2023 Fonticons, Inc.--><path d="M163.2 0c-1.7 0-3.3.7-4.5 1.9-28.2 28.6-45.6 67.8-45.6 111.1 0 24.6 5.6 47.9 15.7 68.7-20.7 2.2-41.2 8.5-60.4 19.3-32.6 18.1-55.7 46-67.9 77.6-.6 1.6-.4 3.4.4 4.9 2.1 3.5 7 4 10 1.3C60.6 239.3 148.8 230.6 193 305s-7.6 144.1-73 163c-4 1.1-5.9 5.6-3.9 9 .9 1.5 2.4 2.6 4.2 2.8 34.3 5.6 70.8.1 103.3-18.1 19.2-10.8 35.2-24.9 47.6-41.3 12.4 16.3 28.3 30.5 47.6 41.3 32.5 18.2 69 23.7 103.3 18.1 1.8-.3 3.3-1.3 4.2-2.8 2.1-3.5.1-7.9-3.9-9-65.4-19-117.3-88.7-73-163s132.5-65.6 182.1-20.2c3 2.7 7.9 2.2 10-1.3.9-1.5 1.1-3.3.4-4.9-12.2-31.6-35.3-59.5-67.8-77.7-19.2-10.7-39.7-17.1-60.4-19.3 10-20.8 15.7-44.1 15.7-68.7 0-43.3-17.4-82.5-45.6-111.1-1.3-1.1-2.9-1.8-4.6-1.8-4.7 0-7.9 4.9-6.3 9.4C397 75.8 363 165.7 271.1 165.7S145.3 75.8 169.3 9.4c1.7-4.5-1.4-9.4-6.1-9.4zM226 256a45.2 45.2 0 1 1 90.4 0 45.2 45.2 0 1 1-90.4 0zm-54.9 137c5.9-11.1 9.2-23.7 8.1-37.5-18.3-17-32-39-38.8-63.8-11.8-7.6-24.7-11.1-37.7-11.7-8.4-.4-17.1.5-25.5 2.6 7.3 53.7 36.4 100.5 78.1 131.2 6.4-6.3 11.8-13.3 15.8-20.8zM271.2 60.2c-27.1 0-53 5.5-76.4 15.5 1.9 7.8 4.7 15.3 8.5 22.1 6.4 11.6 15.7 21.7 28.3 28.5 12.6-3.8 25.9-5.9 39.7-5.9s27.1 2.1 39.7 5.9c12.6-6.8 21.9-16.9 28.3-28.5 3.8-6.8 6.6-14.3 8.5-22.1-23.5-10-49.3-15.5-76.4-15.5zm130.7 231.5c-6.8 24.8-20.4 46.8-38.8 63.8-1.2 13.8 2.1 26.4 8.1 37.5 4 7.5 9.4 14.5 15.8 20.8 41.7-30.7 70.8-77.4 78.1-131.2-8.5-2-17.1-2.9-25.5-2.6-13 .6-25.9 4.1-37.7 11.7z"/></svg>