<svg xmlns="http://www.w3.org/2000/svg" viewBox="0 0 512 512"><!--! Font Awesome Free 6.1.2 by @fontawesome - https://fontawesome.com License - https://fontawesome.com/license/free (Icons: CC BY 4.0, Fonts: SIL OFL 1.1, Code: MIT License) Copyright 2022 Fonticons, Inc.--><path d="m459.1 52.39 45.7 16.83c4.2 1.56 7.2 5.9 7.2 10.45 0 4.48-3.9 8.71-7.2 10.16l-45.7 16.87-16.5 45.8c-1.5 4.4-5.9 7.5-10.5 7.5s-8.9-3.1-10.4-7.5l-16.8-45.8-45.7-16.87c-4.2-1.45-7.2-5.68-7.2-10.16-.9-4.55 2.1-8.89 7.2-10.45l46-16.83 16.5-45.842C423.6 2.623 427.8 0 432.1 0c4.4 0 8.6 2.623 10.5 6.548l16.5 45.842zM406.6 185.4c12.5 12.5 12.5 32.7 0 45.2l-2.8 2.9c7.9 22 12.2 45.8 12.2 69.6C416 418.9 322.9 512 208 512 93.12 512 0 418.9 0 303.1c0-114 93.12-208 208-208 24.7 0 48.5 5.2 70.5 13.1l2.9-2.8c12.5-12.52 32.7-12.52 45.2 0l80 80zM207.1 192c9.7 0 16-7.2 16-16s-6.3-16-16-16h-8c-74.2 0-136 60.9-136 136v8c0 8.8 8.06 16 16 16 9.74 0 16-7.2 16-16v-8c0-57.4 47.5-104 104-104h8z"/></svg>