<svg xmlns="http://www.w3.org/2000/svg" viewBox="0 0 512 512"><!--! Font Awesome Free 6.1.1 by @fontawesome - https://fontawesome.com License - https://fontawesome.com/license/free (Icons: CC BY 4.0, Fonts: SIL OFL 1.1, Code: MIT License) Copyright 2022 Fonticons, Inc.--><path d="M440.8 4.994C441.9 1.99 444.8 0 448 0s6.1 1.99 7.2 4.994l14.1 37.676L507 56.79c3 1.13 5 4 5 7.21s-2 6.08-5 7.21l-37.7 14.12L455.2 123c-1.1 3-4 5-7.2 5s-6.1-2-7.2-5l-14.1-37.67-38.6-14.12c-3-1.13-4.1-4-4.1-7.21s1.1-6.08 4.1-7.21l38.6-14.12 14.1-37.676zM289.4 97.37c12.5-12.49 32.7-12.49 45.2 0l28.7 28.73 17.4-17.4c6.2-6.3 16.4-6.3 22.6 0 6.3 6.2 6.3 16.4 0 22.6l-17.4 17.4 28.7 28.7c12.5 12.5 12.5 32.7 0 45.2l-10.8 10.9c7.9 22 12.2 45.8 12.2 70.5 0 114.9-93.1 208-208 208C93.12 512 0 418.9 0 304S93.12 96 208 96c24.7 0 48.5 4.3 70.5 12.3l10.9-10.93zM95.1 296c0-57.4 47.5-104 104-104h8c9.7 0 16-7.2 16-16s-6.3-16-16-16h-8c-74.2 0-136 60.9-136 136v8c0 8.8 8.06 16 16 16 9.74 0 16-7.2 16-16v-8z"/></svg>