<svg xmlns="http://www.w3.org/2000/svg" viewBox="0 0 448 512"><!--! Font Awesome Free 6.1.2 by @fontawesome - https://fontawesome.com License - https://fontawesome.com/license/free (Icons: CC BY 4.0, Fonts: SIL OFL 1.1, Code: MIT License) Copyright 2022 Fonticons, Inc.--><path d="M352 0H48C21.49 0 0 21.49 0 48v288c0 14.16 6.246 26.76 16 35.54v81.36c-9.393 5.6-16 15.4-16 26.2C0 497.7 14.33 512 31.1 512h320c53.02 0 96-42.98 96-96V96C448 42.98 405 0 352 0zm-27.2 170.4c3.006.43 4.295 4.154 2.004 6.301L306.2 196.9l4.869 28.5c.43 2.434-1.576 4.439-3.725 4.439-.572 0-1.145-.144-1.719-.43L280 215.9l-25.63 13.46c-.572.285-1.145.43-1.719.43-2.146 0-4.152-2.006-3.723-4.44l4.869-28.5-20.62-20.19c-2.291-2.145-1.002-5.87 2.006-6.3l28.64-4.152 12.89-25.92C277.3 138.9 278.7 138.2 280 138.2s2.721.717 3.295 2.148l12.89 25.92L324.8 170.4zM216 72c23.66 0 46.61 6.953 66.36 20.09 3.219 2.141 4.438 6.281 2.906 9.844-1.547 3.547-5.453 5.562-9.172 4.594C268.8 104.8 262.2 104 256 104c-48.5 0-88 39.5-88 88s39.5 88 88 88c6.234 0 12.81-.828 20.09-2.531 3.719-.969 7.625 1.047 9.172 4.594 1.531 3.562.313 7.703-2.906 9.844C262.6 305 239.7 312 216 312c-66.2 0-120-53.8-120-120S149.8 72 216 72zm136 376H64v-64h288c17.67 0 32 14.33 32 32 0 17.7-14.3 32-32 32z"/></svg>