<svg xmlns="http://www.w3.org/2000/svg" viewBox="0 0 448 512"><!--! Font Awesome Free 6.1.2 by @fontawesome - https://fontawesome.com License - https://fontawesome.com/license/free (Icons: CC BY 4.0, Fonts: SIL OFL 1.1, Code: MIT License) Copyright 2022 Fonticons, Inc.--><path d="M267.1 244.5h34.87l-17.37-29.12-17.5 29.12zM352 0H48C21.49 0 0 21.49 0 48v288c0 14.16 6.246 26.76 16 35.54v81.36C6.607 458.5 0 468.3 0 480c0 17.7 14.33 32 31.1 32h320c53.02 0 96-42.98 96-96V96C448 42.98 405 0 352 0zM89.38 125.6c3.62-6.3 10.25-10.2 17.52-10.1h56.38l27.5-46.25c3.62-6 10.22-9.75 17.22-9.75s13.5 3.625 17 9.625l27.75 46.38h56.38c7.25 0 13.88 3.875 17.38 10.12S330 139.5 326.3 145.8L298.6 192l27.75 46.38c3.75 6.125 3.75 13.88.25 20-3.625 6.375-10.25 10.25-17.5 10.25h-56.38l-27.5 46.13A20.023 20.023 0 0 1 208 324.5c-7 0-13.5-3.625-17-9.625L163.3 268.5h-56.4c-7.125 0-13.88-3.875-17.38-10.12s-3.39-13.88.23-20.08L117.4 192l-27.77-46.4c-3.75-6.1-3.75-13.8-.25-20zM352 448H64v-64h288c17.67 0 32 14.33 32 32 0 17.7-14.3 32-32 32zM208 296.6l16.88-28.12H191.3L208 296.6zm-94.9-52.1h34.88l-17.5-29.12-17.38 29.12zm188-105h-34.87l17.5 29.12 17.37-29.12zm-152.2 0h-35.8l18.4 29.1 17.4-29.1zm28 105h62.25L270.6 192l-31.5-52.63h-62.2L145.4 192l31.5 52.5zM208 87.38l-16.7 28.12h33.5L208 87.38z"/></svg>