<svg xmlns="http://www.w3.org/2000/svg" viewBox="0 0 448 512"><!--! Font Awesome Free 6.1.1 by @fontawesome - https://fontawesome.com License - https://fontawesome.com/license/free (Icons: CC BY 4.0, Fonts: SIL OFL 1.1, Code: MIT License) Copyright 2022 Fonticons, Inc.--><path d="M448 336V48c0-26.51-21.5-48-48-48h-48v191.1c0 13.41-15.52 20.88-25.1 12.49L272 160l-54.9 44.5c-9.6 8.3-25.1.9-25.1-13.4V0H96C42.98 0 0 42.98 0 96v320c0 53.02 42.98 96 96 96h320c17.67 0 32-14.33 32-32 0-11.72-6.607-21.52-16-27.1v-81.36c9.8-8.74 16-21.34 16-35.54zm-64 112H96c-17.67 0-32-14.33-32-32s14.33-32 32-32h288v64z"/></svg>