<svg xmlns="http://www.w3.org/2000/svg" viewBox="0 0 512 512"><!--! Font Awesome Free 6.1.2 by @fontawesome - https://fontawesome.com License - https://fontawesome.com/license/free (Icons: CC BY 4.0, Fonts: SIL OFL 1.1, Code: MIT License) Copyright 2022 Fonticons, Inc.--><path d="M176 56c0-13.25 10.7-24 24-24h16c13.3 0 24 10.75 24 24s-10.7 24-24 24h-16c-13.3 0-24-10.75-24-24zm40 48c13.3 0 24 10.7 24 24s-10.7 24-24 24h-16c-13.3 0-24-10.7-24-24s10.7-24 24-24h16zM72 176c13.26 0 24 10.7 24 24s-10.74 24-24 24H56c-13.25 0-24-10.7-24-24s10.75-24 24-24h16zM.001 283.4c0-15.1 12.279-27.4 27.429-27.4H484.6c15.1 0 27.4 12.3 27.4 27.4 0 70.5-44.4 130.7-106.7 154.1l-1.8 13.6c-2 16-15.6 28.9-31.7 28.9H140.2c-16.1 0-29.7-12.9-31.7-28.9l-1.8-13.6C44.36 414.1 0 353.9 0 283.4h.001zM224 200c0-13.3 10.7-24 24-24h16c13.3 0 24 10.7 24 24s-10.7 24-24 24h-16c-13.3 0-24-10.7-24-24zm-96 0c0-13.3 10.7-24 24-24h16c13.3 0 24 10.7 24 24s-10.7 24-24 24h-16c-13.3 0-24-10.7-24-24zm-8-96c13.3 0 24 10.7 24 24s-10.7 24-24 24h-16c-13.25 0-24-10.7-24-24s10.75-24 24-24h16zm200 96c0-13.3 10.7-24 24-24h16c13.3 0 24 10.7 24 24s-10.7 24-24 24h-16c-13.3 0-24-10.7-24-24zm-8-96c13.3 0 24 10.7 24 24s-10.7 24-24 24h-16c-13.3 0-24-10.7-24-24s10.7-24 24-24h16zm104 96c0-13.3 10.7-24 24-24h16c13.3 0 24 10.7 24 24s-10.7 24-24 24h-16c-13.3 0-24-10.7-24-24zm-8-96c13.3 0 24 10.7 24 24s-10.7 24-24 24h-16c-13.3 0-24-10.7-24-24s10.7-24 24-24h16zm-96-72c13.3 0 24 10.75 24 24s-10.7 24-24 24h-16c-13.3 0-24-10.75-24-24s10.7-24 24-24h16z"/></svg>