<svg xmlns="http://www.w3.org/2000/svg" viewBox="0 0 640 512"><!--! Font Awesome Free 6.1.1 by @fontawesome - https://fontawesome.com License - https://fontawesome.com/license/free (Icons: CC BY 4.0, Fonts: SIL OFL 1.1, Code: MIT License) Copyright 2022 Fonticons, Inc.--><path d="M128 96c0 35.3-28.65 64-64 64S0 131.3 0 96c0-35.35 28.65-64 64-64s64 28.65 64 64zm32 160c0-35.3 28.7-64 64-64s64 28.7 64 64-28.7 64-64 64-64-28.7-64-64zm64 16c8.8 0 16-7.2 16-16s-7.2-16-16-16-16 7.2-16 16 7.2 16 16 16zm-96 144c0 35.3-28.65 64-64 64S0 451.3 0 416s28.65-64 64-64 64 28.7 64 64zm-64-16c-8.84 0-16 7.2-16 16s7.16 16 16 16 16-7.2 16-16-7.16-16-16-16zm224 16c0 35.3-28.7 64-64 64s-64-28.7-64-64 28.7-64 64-64 64 28.7 64 64zm-64-16c-8.8 0-16 7.2-16 16s7.2 16 16 16 16-7.2 16-16-7.2-16-16-16zM0 256c0-35.3 28.65-64 64-64s64 28.7 64 64-28.65 64-64 64-64-28.7-64-64zM160 96c0-35.35 28.7-64 64-64s64 28.65 64 64c0 35.3-28.7 64-64 64s-64-28.7-64-64zm320 0c0 35.3-28.7 64-64 64s-64-28.7-64-64c0-35.35 28.7-64 64-64s64 28.65 64 64zm160 0c0 35.3-28.7 64-64 64s-64-28.7-64-64c0-35.35 28.7-64 64-64s64 28.65 64 64zm-64-16c-8.8 0-16 7.16-16 16 0 8.8 7.2 16 16 16s16-7.2 16-16c0-8.84-7.2-16-16-16zm-64 176c0-35.3 28.7-64 64-64s64 28.7 64 64-28.7 64-64 64-64-28.7-64-64zm64 16c8.8 0 16-7.2 16-16s-7.2-16-16-16-16 7.2-16 16 7.2 16 16 16zm64 144c0 35.3-28.7 64-64 64s-64-28.7-64-64 28.7-64 64-64 64 28.7 64 64zm-64-16c-8.8 0-16 7.2-16 16s7.2 16 16 16 16-7.2 16-16-7.2-16-16-16zM352 256c0-35.3 28.7-64 64-64s64 28.7 64 64-28.7 64-64 64-64-28.7-64-64zm64 16c8.8 0 16-7.2 16-16s-7.2-16-16-16-16 7.2-16 16 7.2 16 16 16zm64 144c0 35.3-28.7 64-64 64s-64-28.7-64-64 28.7-64 64-64 64 28.7 64 64zm-64-16c-8.8 0-16 7.2-16 16s7.2 16 16 16 16-7.2 16-16-7.2-16-16-16z"/></svg>