<svg xmlns="http://www.w3.org/2000/svg" viewBox="0 0 576 512"><!--! Font Awesome Free 6.1.2 by @fontawesome - https://fontawesome.com License - https://fontawesome.com/license/free (Icons: CC BY 4.0, Fonts: SIL OFL 1.1, Code: MIT License) Copyright 2022 Fonticons, Inc.--><path d="M0 96c0-17.67 14.33-32 32-32h512c17.7 0 32 14.33 32 32v35.6c0 15.7-12.7 28.4-28.4 28.4-37.4 0-67.6 30.2-67.6 67.6v124.9c-12.9 0-25.8 3.8-36.8 11.6-18 12.4-40.2 20.4-59.2 20.4V256c0-53.9-43-96-96-96-53.9 0-96 42.1-96 96v128l-.9.5c-19-.1-40.3-8-58.2-20.4-11.1-7.8-24-11.7-36.9-11.6V227.6c0-37.4-30.25-67.6-67.56-67.6C12.74 160 0 147.3 0 131.6V96zm384 320c26.9 0 55.4-10.8 77.4-26.1h.1c11.9-8.5 28-7.8 39.2 1.7 14.4 11.9 32.5 21 50.6 25.2 17.2 4 27.9 21.3 23.9 38.5s-22.1 27.9-38.5 23.9c-24.5-5.8-44.8-16.6-58.2-25-29 15.5-61.5 25.8-94.5 25.8-31.9 0-60.6-9.9-80.4-18.9-5.9-2.6-11.1-5.3-15.6-7.7-4.5 2.4-9.7 5.1-15.6 7.7-19.8 9-48.5 18.9-80.4 18.9-33.9 0-65.5-10.3-94.5-25.8-13.37 8.4-33.71 19.2-58.23 25-17.21 4-34.416-6.7-38.427-23.9-4.011-17.2 6.69-34.5 23.897-38.5 18.1-4.2 36.22-13.3 50.57-25.2 11.15-9.5 27.29-10.2 39.19-1.7h.1c22.1 15.3 50.5 26.1 77.4 26.1 27.5 0 55-10.6 77.5-26.1 11.1-7.9 25.9-7.9 37 0 21.6 15.5 50 26.1 77.5 26.1z"/></svg>