<svg xmlns="http://www.w3.org/2000/svg" viewBox="0 0 640 512"><!--! Font Awesome Free 6.1.2 by @fontawesome - https://fontawesome.com License - https://fontawesome.com/license/free (Icons: CC BY 4.0, Fonts: SIL OFL 1.1, Code: MIT License) Copyright 2022 Fonticons, Inc.--><path d="M495.1 351.1c-44.18 0-79.1 35.72-79.1 79.91 0 44.18 35.82 80.09 79.1 80.09s79.1-35.91 79.1-80.09c.9-43.31-34-79.91-79.1-79.91zM242.7 216.4c-30.16 0-102.9 4.15-149.4 41.34-22 17.5-40.25 55.75-54.63 97.5l60.38-22.12a6.205 6.205 0 0 1 2.151-.397c3.33 0 5.935 2.885 5.935 6.04 0 1.3-.443 2.646-1.462 3.855L11 454.7c-7.25 32.4-11 55.5-11 55.5s27.07 1.8 64.45 1.8c65.94 0 163.1-5.499 202.2-35.89 60-47.75 76.63-150.1 76.63-150.1l-86.75-109.2c-.03-.11-5.13-.41-13.83-.41zM607.1.007a31.925 31.925 0 0 0-19.62 6.72L362.7 182.3l-29.88-37.67c-3.248-4.094-7.892-6.058-12.5-6.058-5.891 0-11.73 3.204-14.54 9.26L283.8 195.1l86.75 109.1 50.88-10.72c7.883-1.66 12.72-8.546 12.72-15.71 0-3.412-1.096-6.886-3.478-9.89l-28.16-35.5 225.2-175.2c8.102-6.312 12.35-15.75 12.35-25.29C640 14.94 626.3.007 607.1.007z"/></svg>