<svg xmlns="http://www.w3.org/2000/svg" viewBox="0 0 384 512"><!--! Font Awesome Free 6.2.1 by @fontawesome - https://fontawesome.com License - https://fontawesome.com/license/free (Icons: CC BY 4.0, Fonts: SIL OFL 1.1, Code: MIT License) Copyright 2022 Fonticons, Inc.--><path d="M192 64 160 0h-32L96 64 64 0H48C21.5 0 0 21.5 0 48v208h384V48c0-26.5-21.5-48-48-48H224l-32 64zM0 288v32c0 35.3 28.7 64 64 64h64v64c0 35.3 28.7 64 64 64s64-28.7 64-64v-64h64c35.3 0 64-28.7 64-64v-32H0zm192 176c-8.8 0-16-7.2-16-16s7.2-16 16-16 16 7.2 16 16-7.2 16-16 16z"/></svg>