<svg xmlns="http://www.w3.org/2000/svg" viewBox="0 0 384 512"><!--! Font Awesome Free 6.1.2 by @fontawesome - https://fontawesome.com License - https://fontawesome.com/license/free (Icons: CC BY 4.0, Fonts: SIL OFL 1.1, Code: MIT License) Copyright 2022 Fonticons, Inc.--><path d="M224 0h112c26.5 0 48 21.49 48 48v208H0V48C0 21.49 21.49 0 48 0h16l32 64 32-64h32l32 64 32-64zm160 288v32c0 35.3-28.7 64-64 64h-64v64c0 35.3-28.7 64-64 64s-64-28.7-64-64v-64H64c-35.35 0-64-28.7-64-64v-32h384zM192 464c8.8 0 16-7.2 16-16s-7.2-16-16-16-16 7.2-16 16 7.2 16 16 16z"/></svg>