<svg xmlns="http://www.w3.org/2000/svg" viewBox="0 0 640 512"><!--! Font Awesome Free 6.1.1 by @fontawesome - https://fontawesome.com License - https://fontawesome.com/license/free (Icons: CC BY 4.0, Fonts: SIL OFL 1.1, Code: MIT License) Copyright 2022 Fonticons, Inc.--><path d="M239.1 162.8c8.6-2.7 16.6-2.8 24.9-2.8h112c17.1 0 33.2 4.1 47.5 11.4.6-.7 1.2-1.4 1.9-2l64-64c12.5-12.52 32.7-12.52 45.2 0 12.5 12.5 12.5 32.7 0 45.2l-64 64c-1.5.7-1.3 1.3-2 1.9 6.1 12 10 25.4 11.1 39.5H544c17.7 0 32 14.3 32 32s-14.3 32-32 32h-64c0 9.9-.9 19.5-2.6 28.9l153.4 120.2c10.4 8.2 12.3 23.3 4.1 33.7-8.2 10.4-23.3 12.3-33.7 4.1L9.196 42.89C-1.236 34.71-3.065 19.63 5.112 9.196 13.29-1.236 28.37-3.065 38.81 5.112L239.1 162.8zM416 96v3.56c0 15.74-12.7 28.44-28.4 28.44H252.4c-15.7 0-28.4-12.7-28.4-28.44V96C224 42.98 266.1.001 320 .001c53 0 96 42.979 96 95.999zM160.3 256c.8-10.9 3-19.7 6.4-28.7L304 335.5v143.7c-34.5-3.4-65.8-17.8-90.3-39.6l-63.1 63c-12.5 12.5-32.7 12.5-45.2 0-12.52-12.5-12.52-32.7 0-45.2l64-64c1.8-1.9 3.9-3.5 6-4.8-9.9-20.8-15.4-44-15.4-68.6H96c-17.67 0-32-14.3-32-32s14.33-32 32-32h64.3zM336 479.2V360.7l94.8 74.7c-25.1 24.2-58.1 40.2-94.8 43.8z"/></svg>