<svg xmlns="http://www.w3.org/2000/svg" viewBox="0 0 512 512"><!--! Font Awesome Free 6.1.2 by @fontawesome - https://fontawesome.com License - https://fontawesome.com/license/free (Icons: CC BY 4.0, Fonts: SIL OFL 1.1, Code: MIT License) Copyright 2022 Fonticons, Inc.--><path d="M352 96v3.56c0 15.74-12.7 28.44-28.4 28.44H188.4c-15.7 0-29.3-12.7-29.3-28.44V96c0-53.02 43-96 96-96C309 0 352 42.98 352 96zm-310.63 9.4c12.5-12.52 32.76-12.52 45.26 0l63.97 64c.7.6 1.3 1.3 1.9 2 14.3-7.3 30.4-11.4 46.6-11.4H312c17.1 0 33.2 4.1 47.5 11.4.6-.7 1.2-1.4 1.9-2l64-64c12.5-12.52 32.7-12.52 45.2 0 12.5 12.5 12.5 32.7 0 45.2l-64 64c-1.5.7-1.3 1.3-2 1.9 6.1 12 10 25.4 11.1 39.5H480c17.7 0 32 14.3 32 32s-14.3 32-32 32h-64c0 24.6-5.5 47.8-15.4 68.6 2.1 1.3 4.2 2.9 6 4.8l64 64c12.5 12.5 12.5 32.7 0 45.2s-32.7 12.5-45.2 0l-63.1-63c-24.5 21.8-55.8 36.2-90.3 39.6V240c0-8.8-7.2-16-16.9-16-7.9 0-16 7.2-16 16v239.2c-33.6-3.4-64.9-17.8-89.4-39.6l-63.07 63c-12.5 12.5-32.76 12.5-45.26 0-12.49-12.5-12.49-32.7 0-45.2l64.03-64c1.8-1.9 3.9-3.5 6-4.8-9.9-20.8-15.4-44-15.4-68.6H32c-17.67 0-32-14.3-32-32s14.33-32 32-32h64.3c1.08-14.1 5-27.5 11.1-39.5-.7-.6-1.4-1.2-2-1.9l-64.03-64c-12.49-12.5-12.49-32.7 0-45.2z"/></svg>