<svg xmlns="http://www.w3.org/2000/svg" viewBox="0 0 576 512"><!--! Font Awesome Free 6.1.1 by @fontawesome - https://fontawesome.com License - https://fontawesome.com/license/free (Icons: CC BY 4.0, Fonts: SIL OFL 1.1, Code: MIT License) Copyright 2022 Fonticons, Inc.--><path d="M0 48C0 21.49 21.49 0 48 0h288c26.5 0 48 21.49 48 48v159l-42.4 17H272c-8.8 0-16 7.2-16 16v64c0 .9.1 1.7.2 2.6 2.3 58.1 24.1 144.8 98.7 201.5-5.8 2.5-12.2 3.9-18.9 3.9h-96v-80c0-26.5-21.5-48-48-48s-48 21.5-48 48v80H48c-26.51 0-48-21.5-48-48V48zm80 176c-8.84 0-16 7.2-16 16v32c0 8.8 7.16 16 16 16h32c8.8 0 16-7.2 16-16v-32c0-8.8-7.2-16-16-16H80zm80 48c0 8.8 7.2 16 16 16h32c8.8 0 16-7.2 16-16v-32c0-8.8-7.2-16-16-16h-32c-8.8 0-16 7.2-16 16v32zM64 144c0 8.8 7.16 16 16 16h32c8.8 0 16-7.2 16-16v-32c0-8.8-7.2-16-16-16H80c-8.84 0-16 7.2-16 16v32zm112-48c-8.8 0-16 7.2-16 16v32c0 8.8 7.2 16 16 16h32c8.8 0 16-7.2 16-16v-32c0-8.8-7.2-16-16-16h-32zm80 48c0 8.8 7.2 16 16 16h32c8.8 0 16-7.2 16-16v-32c0-8.8-7.2-16-16-16h-32c-8.8 0-16 7.2-16 16v32zm167.1 81.7c5.7-2.3 12.1-2.3 17.8 0l120 48c9.1 3.7 15.1 12.5 15.1 22.3 0 63.3-25.9 168.8-134.8 214.2-5.9 2.4-12.5 2.4-18.4 0C313.9 464.8 288 359.3 288 296c0-9.8 5.1-18.6 15.1-22.3l120-48zm8.9 48.1v187.9c68.2-33 91.5-99 95.4-150.6L432 273.8z"/></svg>