<svg xmlns="http://www.w3.org/2000/svg" viewBox="0 0 384 512"><!--! Font Awesome Free 6.1.1 by @fontawesome - https://fontawesome.com License - https://fontawesome.com/license/free (Icons: CC BY 4.0, Fonts: SIL OFL 1.1, Code: MIT License) Copyright 2022 Fonticons, Inc.--><path d="M320 112v32c0 8.8-7.2 16-16 16s-16-7.2-16-16v-32c0-8.8 7.2-16 16-16s16 7.2 16 16zM336 0c26.5 0 48 21.49 48 48v416c0 26.5-21.5 48-48 48h-96v-80c0-26.5-21.5-48-48-48s-48 21.5-48 48v80H48c-26.51 0-48-21.5-48-48V48C0 21.49 21.49 0 48 0h288zM64 272c0 8.8 7.16 16 16 16h32c8.8 0 16-7.2 16-16v-32c0-8.8-7.2-16-16-16H80c-8.84 0-16 7.2-16 16v32zm112-48c-8.8 0-16 7.2-16 16v32c0 8.8 7.2 16 16 16h32c8.8 0 16-7.2 16-16v-32c0-8.8-7.2-16-16-16h-32zm80 48c0 8.8 7.2 16 16 16h32c8.8 0 16-7.2 16-16v-32c0-8.8-7.2-16-16-16h-32c-8.8 0-16 7.2-16 16v32zM168 64c-8.8 0-16 7.16-16 16v88c0 13.3 10.7 24 24 24h32c13.3 0 24-10.7 24-24v-24c0-8.8-7.2-16-16-16s-16 7.2-16 16v16h-16V96h32c8.8 0 16-7.16 16-16s-7.2-16-16-16h-48zm88 80c0 26.5 21.5 48 48 48s48-21.5 48-48v-32c0-26.51-21.5-48-48-48s-48 21.49-48 48v32zM61.31 71.12a15.995 15.995 0 0 0-17.95-6.43A16 16 0 0 0 32 80v96c0 8.8 7.16 16 16 16s16-7.2 16-16v-43.2l34.69 52.1c3.91 5.8 11.21 8.5 17.91 6.4 6.8-2 11.4-8.2 11.4-15.3V80c0-8.84-7.2-16-16-16s-16 7.16-16 16v43.2L61.31 71.12z"/></svg>