<svg xmlns="http://www.w3.org/2000/svg" viewBox="0 0 640 512"><!--! Font Awesome Free 6.1.1 by @fontawesome - https://fontawesome.com License - https://fontawesome.com/license/free (Icons: CC BY 4.0, Fonts: SIL OFL 1.1, Code: MIT License) Copyright 2022 Fonticons, Inc.--><path d="M0 48C0 21.49 21.49 0 48 0h288c26.5 0 48 21.49 48 48v416c0 26.5-21.5 48-48 48h-96v-80c0-26.5-21.5-48-48-48s-48 21.5-48 48v80H48c-26.51 0-48-21.5-48-48V48zm80 176c-8.84 0-16 7.2-16 16v32c0 8.8 7.16 16 16 16h32c8.8 0 16-7.2 16-16v-32c0-8.8-7.2-16-16-16H80zm80 48c0 8.8 7.2 16 16 16h32c8.8 0 16-7.2 16-16v-32c0-8.8-7.2-16-16-16h-32c-8.8 0-16 7.2-16 16v32zm112-48c-8.8 0-16 7.2-16 16v32c0 8.8 7.2 16 16 16h32c8.8 0 16-7.2 16-16v-32c0-8.8-7.2-16-16-16h-32zM64 144c0 8.8 7.16 16 16 16h32c8.8 0 16-7.2 16-16v-32c0-8.8-7.2-16-16-16H80c-8.84 0-16 7.2-16 16v32zm112-48c-8.8 0-16 7.2-16 16v32c0 8.8 7.2 16 16 16h32c8.8 0 16-7.2 16-16v-32c0-8.8-7.2-16-16-16h-32zm80 48c0 8.8 7.2 16 16 16h32c8.8 0 16-7.2 16-16v-32c0-8.8-7.2-16-16-16h-32c-8.8 0-16 7.2-16 16v32zm384 48v16c0 44.2-35.8 80-80 80h-16v-16c0-44.2 35.8-80 80-80h16zm-80 208h-16v-16c0-44.2 35.8-80 80-80h16v16c0 44.2-35.8 80-80 80zm0 112h-16v-16c0-44.2 35.8-80 80-80h16v16c0 44.2-35.8 80-80 80zm-48-16v16h-16c-44.2 0-80-35.8-80-80v-16h16c44.2 0 80 35.8 80 80zm-16-96c-44.2 0-80-35.8-80-80v-16h16c44.2 0 80 35.8 80 80v16h-16zm16-128v16h-16c-44.2 0-80-35.8-80-80v-16h16c44.2 0 80 35.8 80 80zm16-240c13.3 0 24 10.75 24 24v104c0 13.3-10.7 24-24 24s-24-10.7-24-24V56c0-13.25 10.7-24 24-24zm96 96c0 13.3-10.7 24-24 24s-24-10.7-24-24V96c0-13.25 10.7-24 24-24s24 10.75 24 24v32zM456 72c13.3 0 24 10.75 24 24v32c0 13.3-10.7 24-24 24s-24-10.7-24-24V96c0-13.25 10.7-24 24-24z"/></svg>