<svg xmlns="http://www.w3.org/2000/svg" viewBox="0 0 640 512"><!--! Font Awesome Free 6.1.2 by @fontawesome - https://fontawesome.com License - https://fontawesome.com/license/free (Icons: CC BY 4.0, Fonts: SIL OFL 1.1, Code: MIT License) Copyright 2022 Fonticons, Inc.--><path d="M336 0c26.5 0 48 21.49 48 48v184.2c-39.1 32.3-64 81.1-64 135.8 0 49.5 20.4 94.2 53.3 126.2-8.8 10.9-22.2 17.8-37.3 17.8h-96v-80c0-26.5-21.5-48-48-48s-48 21.5-48 48v80H48c-26.51 0-48-21.5-48-48V48C0 21.49 21.49 0 48 0h288zM64 272c0 8.8 7.16 16 16 16h32c8.8 0 16-7.2 16-16v-32c0-8.8-7.2-16-16-16H80c-8.84 0-16 7.2-16 16v32zm112-48c-8.8 0-16 7.2-16 16v32c0 8.8 7.2 16 16 16h32c8.8 0 16-7.2 16-16v-32c0-8.8-7.2-16-16-16h-32zm80 48c0 8.8 7.2 16 16 16h32c8.8 0 16-7.2 16-16v-32c0-8.8-7.2-16-16-16h-32c-8.8 0-16 7.2-16 16v32zM80 96c-8.84 0-16 7.2-16 16v32c0 8.8 7.16 16 16 16h32c8.8 0 16-7.2 16-16v-32c0-8.8-7.2-16-16-16H80zm80 48c0 8.8 7.2 16 16 16h32c8.8 0 16-7.2 16-16v-32c0-8.8-7.2-16-16-16h-32c-8.8 0-16 7.2-16 16v32zm112-48c-8.8 0-16 7.2-16 16v32c0 8.8 7.2 16 16 16h32c8.8 0 16-7.2 16-16v-32c0-8.8-7.2-16-16-16h-32zm368 272c0 79.5-64.5 144-144 144s-144-64.5-144-144 64.5-144 144-144 144 64.5 144 144zm-99.3-43.3L480 385.4l-28.7-28.7c-6.2-6.3-16.4-6.3-22.6 0-6.3 6.2-6.3 16.4 0 22.6l40 40c6.2 6.3 16.4 6.3 22.6 0l72-72c6.3-6.2 6.3-16.4 0-22.6-6.2-6.3-16.4-6.3-22.6 0z"/></svg>