<svg xmlns="http://www.w3.org/2000/svg" viewBox="0 0 384 512"><!--! Font Awesome Free 6.1.1 by @fontawesome - https://fontawesome.com License - https://fontawesome.com/license/free (Icons: CC BY 4.0, Fonts: SIL OFL 1.1, Code: MIT License) Copyright 2022 Fonticons, Inc.--><path d="M336 0c26.5 0 48 21.49 48 48v416c0 26.5-21.5 48-48 48h-96v-80c0-26.5-21.5-48-48-48s-48 21.5-48 48v80H48c-26.51 0-48-21.5-48-48V48C0 21.49 21.49 0 48 0h288zM64 272c0 8.8 7.16 16 16 16h32c8.8 0 16-7.2 16-16v-32c0-8.8-7.2-16-16-16H80c-8.84 0-16 7.2-16 16v32zm112-48c-8.8 0-16 7.2-16 16v32c0 8.8 7.2 16 16 16h32c8.8 0 16-7.2 16-16v-32c0-8.8-7.2-16-16-16h-32zm80 48c0 8.8 7.2 16 16 16h32c8.8 0 16-7.2 16-16v-32c0-8.8-7.2-16-16-16h-32c-8.8 0-16 7.2-16 16v32zM237.3 71.12c-3.9-5.86-11.2-8.48-17.9-6.43C212.6 66.73 208 72.95 208 80v96c0 8.8 7.2 16 16 16s16-7.2 16-16v-43.2l34.7 52.1c3.9 5.8 11.2 8.5 17.9 6.4 6.8-2 11.4-8.2 11.4-15.3V80c0-8.84-7.2-16-16-16s-16 7.16-16 16v43.2l-34.7-52.08zM112 80c0-8.84-7.2-16-16-16-8.84 0-16 7.16-16 16v64c0 26.5 21.5 48 48 48s48-21.5 48-48V80c0-8.84-7.2-16-16-16s-16 7.16-16 16v64c0 8.8-7.2 16-16 16s-16-7.2-16-16V80z"/></svg>