<svg xmlns="http://www.w3.org/2000/svg" viewBox="0 0 576 512"><!--! Font Awesome Free 6.1.1 by @fontawesome - https://fontawesome.com License - https://fontawesome.com/license/free (Icons: CC BY 4.0, Fonts: SIL OFL 1.1, Code: MIT License) Copyright 2022 Fonticons, Inc.--><path d="M288 0c134.4 0 224 35.2 224 80v48c17.7 0 32 14.3 32 32v64c0 17.7-14.3 32-32 32v160c0 17.7-14.3 32-32 32v32c0 17.7-14.3 32-32 32h-32c-17.7 0-32-14.3-32-32v-32H192v32c0 17.7-14.3 32-32 32h-32c-17.7 0-32-14.3-32-32v-32c-17.67 0-32-14.3-32-32V256c-17.67 0-32-14.3-32-32v-64c0-17.7 14.33-32 32-32V80c0-44.8 89.6-80 224-80zM128 256c0 17.7 14.3 32 32 32h112V128H160c-17.7 0-32 14.3-32 32v96zm176 32h112c17.7 0 32-14.3 32-32v-96c0-17.7-14.3-32-32-32H304v160zM144 400c17.7 0 32-14.3 32-32s-14.3-32-32-32-32 14.3-32 32 14.3 32 32 32zm288 0c17.7 0 32-14.3 32-32s-14.3-32-32-32-32 14.3-32 32 14.3 32 32 32zM368 64H208c-8.8 0-16 7.16-16 16s7.2 16 16 16h160c8.8 0 16-7.16 16-16s-7.2-16-16-16z"/></svg>