<svg xmlns="http://www.w3.org/2000/svg" viewBox="0 0 512 512"><!--! Font Awesome Free 6.1.2 by @fontawesome - https://fontawesome.com License - https://fontawesome.com/license/free (Icons: CC BY 4.0, Fonts: SIL OFL 1.1, Code: MIT License) Copyright 2022 Fonticons, Inc.--><path d="M256 32c0-17.67 14.3-32 32-32s32 14.33 32 32-14.3 32-32 32-32-14.33-32-32zm-32 24c0 17.67-14.3 32-32 32s-32-14.33-32-32 14.3-32 32-32 32 14.33 32 32zM32 288c0-35.3 28.65-64 64-64h136v-66.5l-203.14 42c-12.98 2.7-25.677-5.7-28.362-18.6-2.686-13 5.659-25.7 18.642-28.4l463.96-96c13-2.69 25.7 5.66 28.4 18.64 2.7 12.98-5.7 25.66-18.6 28.36l-212.9 44V224h136c35.3 0 64 28.7 64 64v160c0 35.3-28.7 64-64 64H96c-35.35 0-64-28.7-64-64V288zm64 0c-8.84 0-16 7.2-16 16v64c0 8.8 7.16 16 16 16h64c8.8 0 16-7.2 16-16v-64c0-8.8-7.2-16-16-16H96zm112 80c0 8.8 7.2 16 16 16h64c8.8 0 16-7.2 16-16v-64c0-8.8-7.2-16-16-16h-64c-8.8 0-16 7.2-16 16v64zm144-80c-8.8 0-16 7.2-16 16v64c0 8.8 7.2 16 16 16h64c8.8 0 16-7.2 16-16v-64c0-8.8-7.2-16-16-16h-64z"/></svg>