<svg xmlns="http://www.w3.org/2000/svg" viewBox="0 0 384 512"><!--! Font Awesome Free 6.1.1 by @fontawesome - https://fontawesome.com License - https://fontawesome.com/license/free (Icons: CC BY 4.0, Fonts: SIL OFL 1.1, Code: MIT License) Copyright 2022 Fonticons, Inc.--><path d="M336 0H48C22.38 0 0 22.38 0 48v416c0 25.6 22.38 48 48 48h288c25.62 0 48-22.38 48-48V48c0-25.62-22.4-48-48-48zM64 208c0-8.8 7.2-16 16-16h32c8.8 0 16 7.2 16 16v32c0 8.8-7.2 16-16 16H80c-8.8 0-16-7.2-16-16v-32zm0 96c0-8.8 7.2-16 16-16h32c8.8 0 16 7.2 16 16v32c0 8.8-7.2 16-16 16H80c-8.8 0-16-7.2-16-16v-32zm160 128c0 8.801-7.199 16-16 16H80c-8.8 0-16-7.2-16-16v-32c0-8.8 7.2-16 16-16h128c8.801 0 16 7.199 16 16v32zm0-96c0 8.801-7.199 16-16 16h-32c-8.8 0-16-7.2-16-16v-32c0-8.8 7.2-16 16-16h32c8.8 0 16 7.2 16 16v32zm0-96c0 8.8-7.2 16-16 16h-32c-8.8 0-16-7.2-16-16v-32c0-8.8 7.2-16 16-16h32c8.8 0 16 7.2 16 16v32zm96 192c0 8.801-7.199 16-16 16h-32c-8.799 0-16-7.199-16-16v-32c0-8.801 7.201-16 16-16h32c8.801 0 16 7.199 16 16v32zm0-96c0 8.801-7.199 16-16 16h-32c-8.799 0-16-7.199-16-16v-32c0-8.8 7.2-16 16-16h32c8.8 0 16 7.2 16 16v32zm0-96c0 8.8-7.2 16-16 16h-32c-8.8 0-16-7.2-16-16v-32c0-8.8 7.2-16 16-16h32c8.8 0 16 7.2 16 16v32zm0-96c0 8.8-7.2 16-16 16H80c-8.8 0-16-7.2-16-16V80c0-8.8 7.2-16 16-16h224c8.8 0 16 7.2 16 16v64z"/></svg>