<svg xmlns="http://www.w3.org/2000/svg" viewBox="0 0 512 512"><!--! Font Awesome Free 6.1.2 by @fontawesome - https://fontawesome.com License - https://fontawesome.com/license/free (Icons: CC BY 4.0, Fonts: SIL OFL 1.1, Code: MIT License) Copyright 2022 Fonticons, Inc.--><path d="M64 64V48c0-8.84 7.16-16 16-16h64c8.8 0 16 7.16 16 16v16h32l50.5-25.24c8.9-4.45 18.7-6.76 28.6-6.76H448c35.3 0 64 28.65 64 64v320c0 35.3-28.7 64-64 64H64c-35.35 0-64-28.7-64-64V128c0-35.35 28.65-64 64-64zm156.6 57.2c-8.9 4.5-18.7 6.8-28.6 6.8H64v64h114.8c22-15.1 48.5-24 77.2-24 28.7 0 55.2 8.9 77.2 24H448V96H271.1l-50.5 25.2zM256 216c-48.6 0-88 39.4-88 88s39.4 88 88 88 88-39.4 88-88-39.4-88-88-88z"/></svg>