<svg xmlns="http://www.w3.org/2000/svg" viewBox="0 0 512 512"><!--! Font Awesome Free 6.1.1 by @fontawesome - https://fontawesome.com License - https://fontawesome.com/license/free (Icons: CC BY 4.0, Fonts: SIL OFL 1.1, Code: MIT License) Copyright 2022 Fonticons, Inc.--><path d="M464 96h-88l-12.38-32.88C356.6 44.38 338.8 32 318.8 32H193.3c-20 0-38 12.38-45 31.12L136 96H48c-26.5 0-48 21.5-48 48v288c0 26.5 21.5 48 48 48h416c26.5 0 48-21.5 48-48V144c0-26.5-21.5-48-48-48zM356.9 366.8C332.4 398.1 295.7 416 256 416c-31.78 0-61.37-11.94-84.58-32.61l-19.28 19.29C143.2 411.6 128 405.3 128 392.7v-76.4c0-5.453 4.359-9.838 9.775-9.99h76.98c12.35.303 18.47 15.27 9.654 24.09l-19.27 19.28C219.3 361.4 237.1 368 256 368c24.8 0 47.78-11.22 63.08-30.78 8.172-10.44 23.25-12.28 33.69-4.125S365.1 356.3 356.9 366.8zM384 259.7c0 5.453-4.359 9.838-9.775 9.99h-76.98c-12.35-.303-18.47-15.27-9.654-24.09l19.27-19.28C292.7 214.6 274.9 208 256 208c-24.8 0-47.78 11.22-63.08 30.78-8.12 10.42-23.22 12.32-33.72 4.12-10.4-8.1-12.3-23.2-4.1-33.7C179.6 177.9 216.3 160 256 160c31.78 0 61.37 11.94 84.58 32.61l19.28-19.29c8.94-8.92 24.14-2.62 24.14 9.98v76.4z"/></svg>