<svg xmlns="http://www.w3.org/2000/svg" viewBox="0 0 512 512"><!--! Font Awesome Free 6.1.1 by @fontawesome - https://fontawesome.com License - https://fontawesome.com/license/free (Icons: CC BY 4.0, Fonts: SIL OFL 1.1, Code: MIT License) Copyright 2022 Fonticons, Inc.--><path d="M497.5 91.1C469.6 33.13 411.8 0 352.4 0c-27.88 0-56.14 7.25-81.77 22.62L243.1 38.1c-15.2 10.02-20.1 29.65-11 44.77l32.76 54.87c8.522 14.2 27.59 20.6 43.88 11.06l27.51-16.37c5.125-3.125 10.95-4.439 16.58-4.439 10.88 0 21.35 5.625 27.35 15.62 9 15.12 3.917 34.59-11.08 43.71L15.6 397.6c-15.25 9.125-20.13 28.62-11 43.87l32.76 54.87c8.522 14.2 27.59 20.66 43.88 11.12l347.4-206.5C500.2 258.1 533.2 167.5 497.5 91.1zm-177.8 13-2.5 2.4L296.7 45c9.75-4.75 19.88-8.125 30.38-10.25l20.63 61.87c-9.91.75-19.51 3.25-28.01 7.48zM145.8 431.7l-60.5-38.5 30.88-18.25 60.5 38.5-30.88 18.25zm107.5-63.8-60.5-38.5 30.88-18.25 60.5 38.5-30.88 18.25zm110.9-66.8-60.5-37.6 30.88-18.25 60.5 38.5-30.88 17.35zm20.5-196.4 46-45.1c8.375 6.5 16 13.1 22.5 22.5l-45.63 45.81c-5.67-10.11-13.67-17.81-22.87-23.21zm82 107.8-59.5-19.75c3.25-5.375 5.875-10.1 7.5-17.12 1-4.5 1.625-9.125 1.75-13.62l60.38 20.12c-2.13 10.37-5.43 20.57-10.13 30.37z"/></svg>