<svg xmlns="http://www.w3.org/2000/svg" viewBox="0 0 576 512"><!--! Font Awesome Free 6.1.2 by @fontawesome - https://fontawesome.com License - https://fontawesome.com/license/free (Icons: CC BY 4.0, Fonts: SIL OFL 1.1, Code: MIT License) Copyright 2022 Fonticons, Inc.--><path d="m555.3 300.1-131-187.3C401.9 81 366.4 64 330.4 64c-22.63 0-45.5 6.75-65.5 20.75-19.7 13.75-33.7 32.75-41.5 53.75C220.5 79.25 171.1 32 111.1 32 49.22 32 0 82.08 0 143.1L-.003 368c0 61.88 50.12 112 112 112s112-50.13 112-112l-.897-149.1c4.1 8.6 8.1 17.1 13.6 25L368 431.3c22.3 31.7 57.8 48.7 93.8 48.7 22.75 0 45.5-6.75 65.5-20.75 51.7-36.15 64.2-107.45 28-159.15zM159.1 256H63.99V144c0-26.5 21.5-48 48-48s48 21.5 48 48v112zm195.7 44.9-65.5-93.63c-7.75-11-10.75-24.5-8.375-37.63 2.375-13.25 9.75-24.87 20.75-32.5C310.1 131.1 320.1 128 330.4 128c16.5 0 31.88 8 41.38 21.5l65.5 93.75-82.48 57.65z"/></svg>