<svg xmlns="http://www.w3.org/2000/svg" viewBox="0 0 448 512"><!--! Font Awesome Free 6.3.0 by @fontawesome - https://fontawesome.com License - https://fontawesome.com/license/free (Icons: CC BY 4.0, Fonts: SIL OFL 1.1, Code: MIT License) Copyright 2023 Fonticons, Inc.--><path d="M248 24c0-13.3-10.7-24-24-24s-24 10.7-24 24v80c0 13.3 10.7 24 24 24s24-10.7 24-24V24zm-94.2 200h140.4c6.8 0 12.8 4.3 15.1 10.6l19 53.4H119.7l19.1-53.4c2.3-6.4 8.3-10.6 15.1-10.6zm-75.3-10.9-28.3 79.3C30.1 300.9 16 320.8 16 344v136c0 17.7 14.3 32 32 32h16c17.7 0 32-14.3 32-32v-32h256v32c0 17.7 14.3 32 32 32h16c17.7 0 32-14.3 32-32V344c0-23.2-14.1-43.1-34.2-51.6l-28.3-79.3C358.1 181.3 328 160 294.2 160H153.8c-33.8 0-64 21.3-75.3 53.1zM96 344a24 24 0 1 1 0 48 24 24 0 1 1 0-48zm232 24a24 24 0 1 1 48 0 24 24 0 1 1-48 0zM7 39c-9.3 9.4-9.3 24.6 0 34l48 48c9.4 9.4 24.6 9.4 33.9 0s9.4-24.6 0-33.9L41 39c-9.4-9.3-24.6-9.3-34 0zm400 0-48 48c-9.4 9.4-9.4 24.6 0 33.9s24.6 9.4 33.9 0l48-48c9.4-9.4 9.4-24.6 0-33.9s-24.6-9.4-33.9 0z"/></svg>