<svg xmlns="http://www.w3.org/2000/svg" viewBox="0 0 640 512"><!--! Font Awesome Free 6.1.2 by @fontawesome - https://fontawesome.com License - https://fontawesome.com/license/free (Icons: CC BY 4.0, Fonts: SIL OFL 1.1, Code: MIT License) Copyright 2022 Fonticons, Inc.--><path d="M640 320v48c0 17.7-14.3 32-32 32h-33.3c-7.6 45.4-47.1 80-94.7 80s-87.1-34.6-94.7-80H254.7c-7.6 45.4-47.1 80-94.7 80s-87.06-34.6-94.67-80H32c-17.67 0-32-14.3-32-32V256c0-27.1 16.81-50.2 40.56-59.6L82.2 92.35C96.78 55.9 132.1 32 171.3 32h181.9c29.2 0 55.9 13.26 75 36.03L528.2 193c63 7.1 111.8 61.8 111.8 126.1v.9zM171.3 96c-13.1 0-24.8 7.1-29.7 20.1L111.3 192H224V96h-52.7zM272 192h173.4l-67.2-84c-6-7.6-16.1-12-25-12H272v96zm253.3 208c1.7-5.9 2.7-10.4 2.7-16 0-26.5-21.5-48-48-48s-48 21.5-48 48c0 5.6.1 10.1 2.7 16 6.6 18.6 24.4 32 45.3 32s38.7-13.4 45.3-32zm-320 0c1.7-5.9 2.7-10.4 2.7-16 0-26.5-21.5-48-48-48s-48 21.5-48 48c0 5.6.1 10.1 2.7 16 6.6 18.6 24.4 32 45.3 32s38.7-13.4 45.3-32z"/></svg>