<svg xmlns="http://www.w3.org/2000/svg" viewBox="0 0 640 512"><!--! Font Awesome Free 6.2.1 by @fontawesome - https://fontawesome.com License - https://fontawesome.com/license/free (Icons: CC BY 4.0, Fonts: SIL OFL 1.1, Code: MIT License) Copyright 2022 Fonticons, Inc.--><path d="M171.3 96H224v96H111.3l30.4-75.9C146.5 104 158.2 96 171.3 96zM272 192V96h81.2c9.7 0 18.9 4.4 25 12l67.2 84H272zm256.2 1-100-125c-18.2-22.8-45.8-36-75-36H171.3C132 32 96.7 55.9 82.2 92.3L40.6 196.4C16.8 205.8 0 228.9 0 256v112c0 17.7 14.3 32 32 32h33.3c7.6 45.4 47.1 80 94.7 80s87.1-34.6 94.7-80h130.6c7.6 45.4 47.1 80 94.7 80s87.1-34.6 94.7-80H608c17.7 0 32-14.3 32-32v-48c0-65.2-48.8-119-111.8-127zm-2.9 207c-6.6 18.6-24.4 32-45.3 32s-38.7-13.4-45.3-32c-1.8-5-2.7-10.4-2.7-16 0-26.5 21.5-48 48-48s48 21.5 48 48c0 5.6-1 11-2.7 16zM160 432c-20.9 0-38.7-13.4-45.3-32-1.8-5-2.7-10.4-2.7-16 0-26.5 21.5-48 48-48s48 21.5 48 48c0 5.6-1 11-2.7 16-6.6 18.6-24.4 32-45.3 32z"/></svg>