<svg xmlns="http://www.w3.org/2000/svg" viewBox="0 0 448 512"><!--! Font Awesome Free 6.1.1 by @fontawesome - https://fontawesome.com License - https://fontawesome.com/license/free (Icons: CC BY 4.0, Fonts: SIL OFL 1.1, Code: MIT License) Copyright 2022 Fonticons, Inc.--><path d="M248 104c0 13.3-10.7 24-24 24s-24-10.7-24-24V24c0-13.25 10.7-24 24-24s24 10.75 24 24v80zm-94.2 56h140.4c32.9 0 63.9 21.3 75.3 53.1l28.3 79.3c20.1 8.5 34.2 28.4 34.2 51.6v136c0 17.7-14.3 32-32 32h-16c-17.7 0-32-14.3-32-32v-32H96v32c0 17.7-14.33 32-32 32H48c-17.67 0-32-14.3-32-32V344c0-23.2 14.08-43.1 34.16-51.6l28.33-79.3C89.86 181.3 120 160 153.8 160zm0 64c-6.7 0-12.8 4.3-15 10.6L119.7 288h208.6l-19.1-53.4c-3.1-6.3-8.3-10.6-15-10.6H153.8zM96 392c13.3 0 24-10.7 24-24s-10.7-24-24-24c-13.25 0-24 10.7-24 24s10.75 24 24 24zm256-48c-13.3 0-24 10.7-24 24s10.7 24 24 24 24-10.7 24-24-10.7-24-24-24zM7.029 39.03c9.371-9.37 24.571-9.37 33.941 0l48 48c9.37 9.37 9.37 24.57 0 33.07-9.37 10.2-24.57 10.2-33.94 0L7.029 72.97c-9.372-9.37-9.372-24.57 0-33.94zm399.971 0c9.4-9.37 24.6-9.37 33.1 0 10.2 9.37 10.2 24.57 0 33.94l-48 47.13c-8.5 10.2-23.7 10.2-33.1 0-9.3-8.5-9.3-23.7 0-33.07l48-48z"/></svg>