<svg xmlns="http://www.w3.org/2000/svg" viewBox="0 0 512 512"><!--! Font Awesome Free 6.1.2 by @fontawesome - https://fontawesome.com License - https://fontawesome.com/license/free (Icons: CC BY 4.0, Fonts: SIL OFL 1.1, Code: MIT License) Copyright 2022 Fonticons, Inc.--><path d="M190.8 277.5c1-3.3 4.1-5.5 7.6-5.5h115.2c3.5 0 6.6 2.2 7.6 5.5l12.9 42.5H177l13.8-42.5zM144 384c0-13.3 10.7-24 24-24s24 10.7 24 24-10.7 24-24 24-24-10.7-24-24zm224 0c0 13.3-10.7 24-24 24s-24-10.7-24-24 10.7-24 24-24 24 10.7 24 24zm144-128v192c0 35.3-28.7 64-64 64H64c-35.35 0-64-28.7-64-64V256C0 114.6 114.6 0 256 0s256 114.6 256 256zM384 512c17.7 0 32-14.3 32-32V376c0-20.8-11.3-38.9-28.2-48.6l-20.9-64.7c-7.5-23.1-29-38.7-53.3-38.7H198.4c-24.3 0-45.8 15.6-53.3 38.7l-21 64.7C107.3 337.1 96 355.2 96 376v104c0 17.7 14.3 32 32 32s32-14.3 32-32v-32h192v32c0 17.7 14.3 32 32 32z"/></svg>