<svg xmlns="http://www.w3.org/2000/svg" viewBox="0 0 576 512"><!--! Font Awesome Free 6.1.2 by @fontawesome - https://fontawesome.com License - https://fontawesome.com/license/free (Icons: CC BY 4.0, Fonts: SIL OFL 1.1, Code: MIT License) Copyright 2022 Fonticons, Inc.--><path d="M0 24C0 10.75 10.75 0 24 0h72c11.5 0 21.4 8.19 23.6 19.51L121.1 32H312v102.1L288.1 111c-8.5-9.3-23.7-9.3-33.1 0-9.3 9.4-9.3 24.6 0 33.1l64 64c9.4 10.2 24.6 10.2 33.1 0l64-64c10.2-8.5 10.2-23.7 0-33.1-8.5-9.3-23.7-9.3-33.1 0l-23 23.1V32h181.8c20.3 0 36.5 20.25 30.8 40.66l-54 192.04c-3.9 13.8-16.5 23.3-30.8 23.3H170.7l9.2 48H488c13.3 0 24 10.7 24 24s-10.7 24-24 24H159.1c-10.6 0-20.5-8.2-22.7-19.5L76.14 48H24C10.75 48 0 37.25 0 24zm224 440c0 26.5-21.5 48-48 48s-48-21.5-48-48 21.5-48 48-48 48 21.5 48 48zm192 0c0-26.5 21.5-48 48-48s48 21.5 48 48-21.5 48-48 48-48-21.5-48-48z"/></svg>