<svg xmlns="http://www.w3.org/2000/svg" viewBox="0 0 512 512"><!--! Font Awesome Free 6.1.2 by @fontawesome - https://fontawesome.com License - https://fontawesome.com/license/free (Icons: CC BY 4.0, Fonts: SIL OFL 1.1, Code: MIT License) Copyright 2022 Fonticons, Inc.--><path d="M288 0c17.7 0 32 14.33 32 32v64c0 17.7-14.3 32-32 32h-80v32h216.1c32.5 0 59.4 23.1 64.1 54.4l22.7 149.7c.7 4.7 1.1 9.5 1.1 14.3V448c0 35.3-28.7 64-64 64H64c-35.35 0-64-28.7-64-64v-69.6c0-4.8.362-9.6 1.083-14.3L23.76 214.4C28.5 183.1 55.39 160 87.03 160h56.07v-32h-80c-16.77 0-32-14.3-32-32V32c0-17.67 15.23-32 32-32H288zM96 48c-8.84 0-16 7.16-16 16s7.16 16 16 16h160c8.8 0 16-7.16 16-16s-7.2-16-16-16H96zM80 448h352c8.8 0 16-7.2 16-16s-7.2-16-16-16H80c-8.84 0-16 7.2-16 16s7.16 16 16 16zm32-232c-13.25 0-24 10.7-24 24s10.75 24 24 24c13.3 0 24-10.7 24-24s-10.7-24-24-24zm96 48c13.3 0 24-10.7 24-24s-10.7-24-24-24-24 10.7-24 24 10.7 24 24 24zm-48 32c-13.3 0-24 10.7-24 24s10.7 24 24 24 24-10.7 24-24-10.7-24-24-24zm144-32c13.3 0 24-10.7 24-24s-10.7-24-24-24-24 10.7-24 24 10.7 24 24 24zm-48 32c-13.3 0-24 10.7-24 24s10.7 24 24 24 24-10.7 24-24-10.7-24-24-24zm144-32c13.3 0 24-10.7 24-24s-10.7-24-24-24-24 10.7-24 24 10.7 24 24 24zm-48 32c-13.3 0-24 10.7-24 24s10.7 24 24 24 24-10.7 24-24-10.7-24-24-24z"/></svg>