<svg xmlns="http://www.w3.org/2000/svg" viewBox="0 0 512 512"><!--! Font Awesome Free 6.1.2 by @fontawesome - https://fontawesome.com License - https://fontawesome.com/license/free (Icons: CC BY 4.0, Fonts: SIL OFL 1.1, Code: MIT License) Copyright 2022 Fonticons, Inc.--><path d="m256 53.46 44.1-46.199c6.9-6.227 15-8.692 24.3-6.442 8.4 2.249 14.9 8.86 17 17.281l15.9 62.5 62-17.53c8.4-2.36 17.4-.02 23.5 6.12 5.3 6.15 8.5 15.14 6.1 23.5l-17.5 62.01 62.5 15.9c8.4 2.1 15 8.6 17.3 17 2.2 8.4-1.1 16.5-6.5 23.4l-46.2 45 46.2 44.1c5.4 6.9 8.7 15 6.5 24.3-2.3 8.4-8.9 14.9-17.3 17l-62.5 15.9 17.5 62c2.4 8.4-.8 17.4-6.1 23.5-6.1 5.3-15.1 8.5-23.5 6.1l-62-17.5-15.9 62.5c-2.1 8.4-8.6 15-17 17.3-9.3 2.2-17.4-1.1-24.3-6.5L256 458.5l-45 46.2c-6.9 5.4-15 8.7-23.4 6.5-8.4-2.3-14.9-8.9-17-17.3l-15.9-62.5-62.01 17.5c-8.36 2.4-17.35-.8-23.5-6.1-6.14-6.1-8.48-15.1-6.12-23.5l17.53-62-62.5-15.9a23.864 23.864 0 0 1-17.281-17c-2.25-9.3.215-17.4 6.442-24.3L53.46 256 7.261 211c-6.227-6.9-8.692-15-6.442-23.4 2.249-8.4 8.86-14.9 17.281-17l62.5-15.9-17.53-62.01a24.028 24.028 0 0 1 6.12-23.5 24.028 24.028 0 0 1 23.5-6.12L154.7 80.6l15.9-62.5a23.865 23.865 0 0 1 17-17.282c8.4-2.249 16.5.216 23.4 6.443l45 46.199z"/></svg>