<svg xmlns="http://www.w3.org/2000/svg" viewBox="0 0 640 512"><!--! Font Awesome Free 6.1.1 by @fontawesome - https://fontawesome.com License - https://fontawesome.com/license/free (Icons: CC BY 4.0, Fonts: SIL OFL 1.1, Code: MIT License) Copyright 2022 Fonticons, Inc.--><path d="M639.4 433.6c-8.374-20.37-31.75-30.12-52.12-21.62l-22.12 9.249-38.75-101.1c47.87-34.1 64.87-100.2 34.5-152.7l-86.62-150.5c-7.999-13.87-24.1-19.75-39.1-13.62l-114.2 47.37L205.8 2.415c-15-6.125-32-.25-40 13.625L79.15 166.5C48.9 219 65.78 284.3 113.6 319.2L74.85 421.1l-22.07-9.2c-20.37-8.499-43.62 1.25-52.12 21.62-1.75 4.124.125 8.749 4.25 10.5l162.4 67.37c3.1 1.75 8.624-.125 10.37-4.249 8.374-20.37-1.25-43.87-21.62-52.37l-22.12-9.124 39.37-103.6c4.5.5 8.874 1.25 13.12 1.25 51.75 0 99.37-32.1 113.4-85.24l20.25-75.36 20.25 75.36c13.1 52.24 61.62 85.24 113.4 85.24 4.25 0 8.624-.75 13.12-1.25l39.25 103.6-22.12 9.124c-20.37 8.499-30.12 31.1-21.62 52.37 1.75 4.124 6.5 5.999 10.5 4.249l162.4-67.37c3.84-1.82 5.84-6.32 4.14-10.42zM275.9 162.1l-112.1-46.5 36.5-63.37 94.5 39.17-18.9 70.7zm88.2 0-18.87-70.74 94.49-39.12 36.5 63.37L364.1 162.1z"/></svg>