<svg xmlns="http://www.w3.org/2000/svg" viewBox="0 0 640 512"><!--! Font Awesome Free 6.2.0 by @fontawesome - https://fontawesome.com License - https://fontawesome.com/license/free (Icons: CC BY 4.0, Fonts: SIL OFL 1.1, Code: MIT License) Copyright 2022 Fonticons, Inc.--><path d="M320 128V49.1L186.6.3c-11.4-4.2-24 .9-29.5 11.7L71.8 181.1c-30.8 61-8 133.8 48.1 167.4l-28 77.4-59.8-22c-12.4-4.5-26.1 1.9-30.7 14.4s1.9 26.3 14.3 30.8l164.6 60.3c12.4 4.5 26.1-1.9 30.6-14.4s-1.9-26.3-14.3-30.8l-59.9-21.9 28-77.3c68.1 11.6 135.7-32.8 150.1-103.6l5.1-24.8 5.1 24.8c14.5 70.8 82 115.2 150.1 103.6l28 77.3-59.9 21.9c-12.4 4.5-18.8 18.3-14.3 30.8s18.2 18.9 30.6 14.4l164.6-60.3c12.4-4.5 18.8-18.3 14.3-30.8s-18.2-18.9-30.6-14.4l-59.9 21.9-28-77.4C576 314.8 598.7 242 568 181L482.9 12C477.4 1.1 464.7-3.9 453.4.3L320 49.1V128zm-35.7 44.4-130.4-47.8 36.3-71.9 110.4 40.4-16.2 79.3zm71.3 0-16.2-79.3 110.4-40.4 36.3 71.9-130.4 47.8z"/></svg>