<svg xmlns="http://www.w3.org/2000/svg" viewBox="0 0 448 512"><!--! Font Awesome Free 6.1.2 by @fontawesome - https://fontawesome.com License - https://fontawesome.com/license/free (Icons: CC BY 4.0, Fonts: SIL OFL 1.1, Code: MIT License) Copyright 2022 Fonticons, Inc.--><path d="M160 80c0-26.51 21.5-48 48-48h32c26.5 0 48 21.49 48 48v352c0 26.5-21.5 48-48 48h-32c-26.5 0-48-21.5-48-48V80zM0 272c0-26.5 21.49-48 48-48h32c26.5 0 48 21.5 48 48v160c0 26.5-21.5 48-48 48H48c-26.51 0-48-21.5-48-48V272zM400 96c26.5 0 48 21.5 48 48v288c0 26.5-21.5 48-48 48h-32c-26.5 0-48-21.5-48-48V144c0-26.5 21.5-48 48-48h32z"/></svg>