<svg xmlns="http://www.w3.org/2000/svg" viewBox="0 0 576 512"><!--! Font Awesome Free 6.1.2 by @fontawesome - https://fontawesome.com License - https://fontawesome.com/license/free (Icons: CC BY 4.0, Fonts: SIL OFL 1.1, Code: MIT License) Copyright 2022 Fonticons, Inc.--><path d="M256 0c35.3 0 64 28.65 64 64v192h16c48.6 0 88 39.4 88 88v32c0 13.3 10.7 24 24 24s24-10.7 24-24V252.3c-32.5-10.2-56-40.5-56-76.3v-32c0-8.8 7.2-16 16-16h16V80c0-8.84 7.2-16 16-16s16 7.16 16 16v48h32V80c0-8.84 7.2-16 16-16s16 7.16 16 16v48h16c8.8 0 16 7.2 16 16v32c0 35.8-23.5 66.1-56 76.3V376c0 39.8-32.2 72-72 72s-72-32.2-72-72v-32c0-22.1-17.9-40-40-40h-16v144c17.7 0 32 14.3 32 32s-14.3 32-32 32H32c-17.67 0-32-14.3-32-32s14.33-32 32-32V64C32 28.65 60.65 0 96 0h160zm-58.4 83.85L85.59 179.9c-5.09 4.3-6.92 11.4-4.6 17.7 2.33 6.2 8.31 10.4 14.11 10.4h58.7l-25 74.9c-2.3 6.9.3 14.4 6.3 18.4 5.9 4 13 3.5 19.3-1.2l112-96c5.1-4.3 6.9-11.4 4.6-17.7-2.3-6.2-8.3-10.4-15-10.4h-57.8l25-74.9c2.3-6.86-.3-14.36-6.3-18.38-6.8-4.01-13.9-3.55-19.3 1.13z"/></svg>