<svg xmlns="http://www.w3.org/2000/svg" viewBox="0 0 448 512"><!--! Font Awesome Free 6.3.0 by @fontawesome - https://fontawesome.com License - https://fontawesome.com/license/free (Icons: CC BY 4.0, Fonts: SIL OFL 1.1, Code: MIT License) Copyright 2023 Fonticons, Inc.--><path d="M80 48 66.7 61.3c-12 12-18.7 28.2-18.7 45.2v132.4c0 10.7 5.3 20.7 14.2 26.6l10.6 7c14.3 9.6 32.7 10.7 48.1 3l3.2-1.6c2.6-1.3 5-2.8 7.3-4.5l49.4-37c6.6-5 15.7-5 22.3 0 10.2 7.7 9.9 23.1-.7 30.3L74.4 350C57.9 361.3 48 380 48 400h320l28.9-159c2.1-11.3 3.1-22.8 3.1-34.3V192C400 86 314 0 208 0H67.8C56.9 0 48 8.9 48 19.8c0 7.5 4.2 14.3 10.9 17.7L80 48zm24 68a20 20 0 1 1 40 0 20 20 0 1 1-40 0zM6.6 473.4c-4.2 4.2-6.6 10-6.6 16C0 501.9 10.1 512 22.6 512h370.8c12.5 0 22.6-10.1 22.6-22.6 0-6-2.4-11.8-6.6-16L368 432H48L6.6 473.4z"/></svg>