<svg xmlns="http://www.w3.org/2000/svg" viewBox="0 0 512 512"><!--! Font Awesome Free 6.1.1 by @fontawesome - https://fontawesome.com License - https://fontawesome.com/license/free (Icons: CC BY 4.0, Fonts: SIL OFL 1.1, Code: MIT License) Copyright 2022 Fonticons, Inc.--><path d="M74.01 208h-10c-8.875 0-16 7.125-16 16v16c0 8.875 7.122 16 15.1 16h16c-.25 43.13-5.5 86.13-16 128h128c-10.5-41.88-15.75-84.88-16-128h15.1c8.875 0 16-7.125 16-16l1.79-16c0-8.875-7.122-16-15.1-16h-10l33.88-90.38c-.18-1.82.12-4.52.12-5.52 0-9-7.4-16.1-16-16.1H144V64h16c8.844 0 16-7.156 16-16s-7.1-16-16-16h-16l.003-16c0-8.844-7.16-16-16-16s-16 7.156-16 16v16H96.01c-8.844 0-16 7.156-16 16s7.15 16 16 16h16v32H55.13c-8.5 0-16.06 6.8-16.06 15.9 0 1.93.352 3.865 1.061 5.711L74.01 208zm265.89 93.8-3.3 82.2h126.8l-3.25-82.25 24.5-20.75c7.25-6.1 11.35-15 11.35-24.5V198c0-3.4-2.6-6-6.9-6h-26.37c-3.375 0-6 2.625-6 6v26h-24.75v-26c.92-3.4-1.68-6-5.08-6h-53.75c-3.375 0-6 2.625-6 6v26H342.4v-26c0-3.4-2.6-6-6-6h-26.38c-3.42 0-6.02 2.6-6.02 6v58.62c0 9.375 4.125 18.25 11.38 24.38l24.52 20.8zM384 304c0-8.9 7.1-16 16-16s16 7.1 16 16v32h-32v-32zM247.1 459.6 224 448v-16c0-8.9-7.1-16-16-16H48c-8.87 0-16 7.1-16 16v16L8.88 459.62C3.375 462.3 0 467.9 0 473.9V496c0 8.9 7.125 16 16 16h224c8.875 0 16-7.125 16-16v-22.12c0-5.98-3.4-11.58-8.9-14.28zm256 0L480 448v-16c0-8.875-7.125-16-16-16H336c-8.875 0-16 7.125-16 16v16l-23.12 11.62c-5.48 2.68-8.88 8.28-8.88 14.28V496c0 8.875 7.125 16 16 16h192c8.875 0 16-7.125 16-16v-22.12c0-5.98-3.4-11.58-8.9-14.28z"/></svg>