<svg xmlns="http://www.w3.org/2000/svg" viewBox="0 0 512 512"><!--! Font Awesome Free 6.1.2 by @fontawesome - https://fontawesome.com License - https://fontawesome.com/license/free (Icons: CC BY 4.0, Fonts: SIL OFL 1.1, Code: MIT License) Copyright 2022 Fonticons, Inc.--><path d="M79.1 64c0-35.35 29.6-64 64-64 36.2 0 64 28.65 64 64s-27.8 64-64 64c-34.4 0-64-28.65-64-64zM104 512c-17.67 0-32-14.3-32-32V300.5L59.09 321c-9.42 15-29.18 19.5-44.13 10.1-14.96-9.4-19.452-29.2-10.037-45L56.6 204.9c17.57-28 48.3-44.9 81.2-44.9h12.4c33 0 63.6 16.9 81.2 44.9l51.7 81.2c9.4 15.8 4.9 35.6-10.1 45-14.9 9.4-34.7 4.9-44.1-10.1L216 300.5V480c0 17.7-14.3 32-32 32s-32-14.3-32-32V352h-16v128c0 17.7-14.3 32-32 32zM432 16v116.3c9.6 5.5 16 15.9 16 27.7v109.3l16-5.3v-56c0-8.8 7.2-16 16-16h16c8.8 0 16 7.2 16 16v84.5c0 6.9-4.4 13-10.9 15.1L448 325.3V352h48c8.8 0 16 7.2 16 16v16c0 8.8-7.2 16-16 16h-44l23 92.1c2.6 10.1-5.1 19.9-15.5 19.9H400c-8.8 0-16-7.2-16-16v-96h-16c-17.7 0-32-14.3-32-32V224c0-17.7 14.3-32 32-32v-32c0-11.8 6.4-22.2 16-27.7V32c-8.8 0-16-7.16-16-16 0-8.836 7.2-16 16-16h32c8.8 0 16 7.164 16 16z"/></svg>