<svg xmlns="http://www.w3.org/2000/svg" viewBox="0 0 512 512"><!--! Font Awesome Free 6.1.1 by @fontawesome - https://fontawesome.com License - https://fontawesome.com/license/free (Icons: CC BY 4.0, Fonts: SIL OFL 1.1, Code: MIT License) Copyright 2022 Fonticons, Inc.--><path d="M256 0C114.6 0 0 114.6 0 256s114.6 256 256 256 256-114.6 256-256S397.4 0 256 0zm-24 152c0-13.2 10.8-24 24-24s24 10.75 24 24v128c0 13.25-10.75 24-24 24s-24-10.7-24-24V152zm24 248c-17.36 0-31.44-14.08-31.44-31.44s14.07-31.44 31.44-31.44 31.44 14.08 31.44 31.44C287.4 385.9 273.4 400 256 400z"/></svg>