<svg xmlns="http://www.w3.org/2000/svg" viewBox="0 0 512 512"><!--! Font Awesome Free 6.1.1 by @fontawesome - https://fontawesome.com License - https://fontawesome.com/license/free (Icons: CC BY 4.0, Fonts: SIL OFL 1.1, Code: MIT License) Copyright 2022 Fonticons, Inc.--><path d="M326.7 403.7c-22 7.9-45.9 12.3-70.7 12.3-24.8 0-48.7-4.4-70.7-12.3-1.2-.1-.6-.2-.8-.3-30.1-11-56.9-28.8-78.6-51.4C70.04 314.6 48 263.9 48 208 48 93.12 141.1 0 256 0s208 93.12 208 208c0 55.9-22.9 106.6-57.9 144-1 1-2 2.1-3 3.1-21.4 21.3-47.4 38.1-76.4 48.6zm-90.8-292.6v6.9c-5.6 1.2-11.8 2.9-15.9 5.1-14.9 6.8-27.9 19.4-31.1 37.7-1.8 10.2-.8 20.1 3.4 29 4.2 8.8 10.7 15 17.3 19.5 11.6 7.9 26.9 12.5 38.6 16l2.2.6c14 4.3 23.4 7.4 29.3 11.7 2.5 1.8 3.4 3.2 3.7 4.1.4.8 1 2.6.3 6.6-.6 3.5-2.5 6.5-8 8.8-6.1 2.6-16 3.9-28.8 1.9-6-1-16.7-4.6-26.2-7.8-2.2-.8-4.4-1.5-6.4-2.2-10.5-3.5-21.8 2.2-25.3 12.7s2.2 21.8 12.7 24.4c1.2 1.3 2.7 1.8 4.4 2.4 7 2.7 20.3 6.9 29.8 9.1v6.4c0 11.1 9 20.1 19.2 20.1 12 0 21-9 21-20.1v-5.5c5.3-1 10.5-3.4 15.3-4.6 15.8-6.7 28.4-19.7 31.7-38.7 1.8-10.4 1-20.4-3-29.5-3.9-9-10.2-15.6-16.9-20.4-12.1-8.9-28.3-13.7-40.4-17.4l-1.7-.2c-13.3-4.3-22.9-7.3-29-11.5-2.6-1.8-3.4-3-3.6-3.5-.2-.4-.8-1.6-.2-5 .4-2 1.9-5.3 8.2-8.1 5.6-2.9 16.4-4.5 28.6-3.5 4.4 1.6 17.9 4.2 21.8 5.2 10.6 2.9 21.6-3.5 24.4-14.2 2.9-10.6-3.5-21.6-14.2-24.4-4.4-1.2-14.4-3.2-21-4.4V112c0-11.1-9-20.1-20.1-20.1-11.1 0-20.1 9-20.1 20.1v-.9zM48 352h15.98c19.45 25.9 44.02 47.7 72.22 64H64v32h384v-32h-72.2c27.3-16.3 52.8-38.1 72.2-64h16c26.5 0 48 21.5 48 48v64c0 26.5-21.5 48-48 48H48c-26.51 0-48-21.5-48-48v-64c0-26.5 21.49-48 48-48z"/></svg>