<svg xmlns="http://www.w3.org/2000/svg" viewBox="0 0 512 512"><!--! Font Awesome Free 6.1.2 by @fontawesome - https://fontawesome.com License - https://fontawesome.com/license/free (Icons: CC BY 4.0, Fonts: SIL OFL 1.1, Code: MIT License) Copyright 2022 Fonticons, Inc.--><path d="M256 0C114.6 0 0 114.6 0 256s114.6 256 256 256 256-114.6 256-256S397.4 0 256 0zm0 128c17.67 0 32 14.33 32 32s-14.33 32-32 32-32-14.3-32-32 14.3-32 32-32zm40 256h-80c-13.2 0-24-10.7-24-24s10.75-24 24-24h16v-64h-8c-13.25 0-24-10.75-24-24s10.8-24 24-24h32c13.25 0 24 10.75 24 24v88h16c13.25 0 24 10.75 24 24s-10.7 24-24 24z"/></svg>