<svg xmlns="http://www.w3.org/2000/svg" viewBox="0 0 384 512"><!--! Font Awesome Free 6.1.1 by @fontawesome - https://fontawesome.com License - https://fontawesome.com/license/free (Icons: CC BY 4.0, Fonts: SIL OFL 1.1, Code: MIT License) Copyright 2022 Fonticons, Inc.--><path d="M336 64h-53.88C268.9 26.8 233.7 0 192 0s-76.9 26.8-90.1 64H48C21.5 64 0 85.48 0 112v352c0 26.5 21.5 48 48 48h288c26.5 0 48-21.48 48-48V112c0-26.52-21.5-48-48-48zm-144 0c17.67 0 32 14.33 32 32s-14.33 32-32 32-32-14.3-32-32c0-17.67 14.3-32 32-32zm80 160H112c-8.8 0-16-7.2-16-16s7.2-16 16-16h160c8.8 0 16 7.2 16 16s-7.2 16-16 16z"/></svg>