<svg xmlns="http://www.w3.org/2000/svg" viewBox="0 0 576 512"><!--! Font Awesome Free 6.1.1 by @fontawesome - https://fontawesome.com License - https://fontawesome.com/license/free (Icons: CC BY 4.0, Fonts: SIL OFL 1.1, Code: MIT License) Copyright 2022 Fonticons, Inc.--><path d="M223.1 0c39.5 0 72.8 22.82 88.1 55.7C325.7 41.07 345.8 32 368 32c38.7 0 70.1 27.48 78.4 64h1.6c35.3 0 64 28.7 64 64s-28.7 64-64 64H127.1c-34.45 0-64-28.7-64-64s29.55-64 64-64c0-53.02 43-96 96-96zM92.58 372.3c-6.82 11.4-21.56 15.1-32.93 8.3-11.36-6.8-15.05-21.6-8.23-32.9l48-80c6.78-11.4 20.68-15.1 32.88-8.3 11.4 6.8 15.1 20.7 8.3 32.9l-48.02 80zM468.3 259.4c11.4 6.8 15.1 20.7 8.3 32.9l-48 80c-6.8 11.4-21.6 15.1-32.9 8.3-11.4-6.8-15.1-21.6-8.3-32.9l48-80c6.8-11.4 20.7-15.1 32.9-8.3zM204.6 372.3c-6.8 11.4-21.6 15.1-32.9 8.3-11.4-6.8-15.1-21.6-8.3-32.9l48-80c6.8-11.4 20.7-15.1 32.9-8.3 11.4 6.8 15.1 20.7 8.3 32.9l-48 80zm151.7-112.9c11.4 6.8 15.1 20.7 8.3 32.9l-48 80c-6.8 11.4-21.6 15.1-32.9 8.3-11.4-6.8-15.1-21.6-8.3-32.9l48-80c6.8-11.4 20.7-15.1 32.9-8.3zM384 448c26.9 0 55.4-10.8 77.4-26.1h.1c11.9-8.5 28-7.8 39.2 1.7 14.3 11.9 32.5 21 50.6 25.2 17.2 4 27.9 21.3 23.9 38.5s-22.1 27.9-38.5 23.9c-24.5-5.8-44.8-16.6-58.2-25-29 15.5-61.5 25.8-94.5 25.8-31.9 0-60.6-9.9-80.4-18.9-5.9-2.6-11.1-5.3-15.6-7.7-4.5 2.4-9.7 5.1-15.6 7.7-19.8 9-48.5 18.9-80.4 18.9-33.9 0-65.5-10.3-94.5-25.8-13.38 8.4-33.71 19.2-58.23 25-17.21 4-34.417-6.7-38.428-23.9-4.011-17.2 6.69-34.5 23.898-38.5 18.1-4.2 36.22-13.3 50.57-25.2 11.15-9.5 27.29-10.2 39.19-1.7h.1c22.1 15.3 50.5 26.1 77.4 26.1 27.5 0 55-10.6 77.5-26.1 11.1-7.9 25.9-7.9 37 0 21.6 15.5 50 26.1 77.5 26.1z"/></svg>