<svg xmlns="http://www.w3.org/2000/svg" viewBox="0 0 640 512"><!--! Font Awesome Free 6.1.2 by @fontawesome - https://fontawesome.com License - https://fontawesome.com/license/free (Icons: CC BY 4.0, Fonts: SIL OFL 1.1, Code: MIT License) Copyright 2022 Fonticons, Inc.--><path d="M96 208c0-61.86 50.14-111.1 111.1-111.1 52.65 0 96.5 36.45 108.5 85.42 19.1-9.22 39.1-14.32 59.5-14.32 4.607 0 9.152.38 13.68.82l24.13-34.76c5.145-7.414.896-17.67-7.984-19.27L317.2 98.78l-16-88.57c-1.6-8.885-11.8-13.129-19.3-7.984L208 53.54 134.1 2.225c-7.5-5.145-17.7-.899-19.3 7.985L98.78 98.78 10.21 114.8c-8.884 1.6-13.132 11.9-7.987 19.3l51.3 73.94L2.224 281.9c-5.145 7.414-.897 17.67 7.983 19.27L98.78 317.2l16.01 88.58c1.604 8.881 11.86 13.13 19.27 7.982l10.71-7.432c2.725-35.15 19.85-66.51 45.83-88.1C137.1 309.8 96 263.9 96 208zm32 0c0 44.18 35.82 80 80 80 9.729 0 18.93-1.996 27.56-5.176 7.002-33.65 25.53-62.85 51.57-83.44C282.8 159.3 249.2 128 208 128c-44.2 0-80 35.8-80 80zm447.2 117.6c.125-2 .745-3.744.745-5.619 0-35.38-28.75-64-63.1-64-12.62 0-24.25 3.749-34.13 9.999-17.62-38.88-56.5-65.1-101.9-65.1-61.75 0-112 50.12-112 111.1 0 3 .753 5.743.878 8.618-49.63 3.75-88.88 44.74-88.88 95.37C175.1 469 218.1 512 271.1 512h272c53 0 96-42.99 96-95.99 0-42.11-26.4-77.41-63.9-90.41z"/></svg>