<svg xmlns="http://www.w3.org/2000/svg" viewBox="0 0 640 512"><!--! Font Awesome Free 6.1.1 by @fontawesome - https://fontawesome.com License - https://fontawesome.com/license/free (Icons: CC BY 4.0, Fonts: SIL OFL 1.1, Code: MIT License) Copyright 2022 Fonticons, Inc.--><path d="M255.7 139.1C244.8 125.5 227.6 116 208 116c-33.14 0-60 26.86-60 59.1 0 25.56 16.06 47.24 38.58 55.88 10.62-11.68 23.92-22.08 39.32-29.88 3.2-22.6 14.7-43.8 29.8-62zm-135.7 36c0-48.6 39.4-87.1 88-87.1 27.8 0 52.29 13.14 68.42 33.27 21.24-15.67 47.22-25.3 75.58-25.3.01 0-.01 0 0 0l-51.6-12.39-13.5-74.943C285.9 3.346 281.3 0 276.5 0c-2.027 0-4.096.593-5.955 1.881l-62.57 43.42L145.4 1.882C143.6.592 141.5 0 139.5 0c-4.818 0-9.399 3.346-10.35 8.636l-13.54 74.95L40.64 97.13c-5.289.956-8.637 5.538-8.637 10.36 0 2.026.592 4.094 1.881 5.951l43.41 62.57L33.88 238.6c-1.29 1.8-1.88 3.9-1.88 5.9 0 4.817 3.347 9.398 8.636 10.35l74.95 13.54 13.54 74.95c.956 5.289 5.537 8.636 10.35 8.636 2.027 0 4.096-.593 5.954-1.882l19.47-13.51c-3.16-10.34-4.934-21.28-4.934-32.64 0-17.17 4.031-33.57 11.14-48.32C141 241.7 120 211.4 120 175.1zm422.5 50.4c-6.875-37.25-39.25-65.5-78.51-65.5-12.25 0-23.88 3-34.25 8-17.5-24.13-45.63-40-77.76-40-53 0-96.01 43-96.01 96 0 .5.25 1.125.25 1.625C219.6 232.1 191.1 265.2 191.1 303.1c0 44.25 35.75 80 80.01 80h256c45.09 0 80.89-34.9 80.89-80 0-38.4-28.3-70.9-65.5-77.6zm9.5 189.6c-7.753 0-15.35 3.752-19.97 10.69l-32 48a23.876 23.876 0 0 0-4.037 13.29C496 501.4 506.9 512 520 512c7.75 0 15.36-3.75 19.98-10.69l32-48a23.876 23.876 0 0 0 4.037-13.29C576 426.6 565.1 415.1 552 415.1zm-96 0a23.981 23.981 0 0 0-19.98 10.69l-32 48a23.876 23.876 0 0 0-4.037 13.29C400 501.4 410.9 512 423.1 512c7.75 0 15.36-3.75 19.98-10.69l32-48a23.876 23.876 0 0 0 4.037-13.29C480 426.6 469.1 415.1 456 415.1zm-96 0c-7.753 0-15.34 3.752-19.97 10.69l-32 48a23.876 23.876 0 0 0-4.037 13.29C304 501.4 314.9 512 327.1 512c7.75 0 15.36-3.75 19.99-10.69l32-48a23.876 23.876 0 0 0 4.037-13.29C384 426.6 373.1 415.1 360 415.1zm-96 0c-7.756 0-15.35 3.752-19.97 10.69l-32 48a23.876 23.876 0 0 0-4.037 13.29C208 501.4 218.9 512 231.1 512c7.75 0 15.36-3.75 19.98-10.69l32-48a23.876 23.876 0 0 0 4.037-13.29C288 426.6 277.1 415.1 264 415.1z"/></svg>