<svg xmlns="http://www.w3.org/2000/svg" viewBox="0 0 576 512"><!--! Font Awesome Free 6.1.2 by @fontawesome - https://fontawesome.com License - https://fontawesome.com/license/free (Icons: CC BY 4.0, Fonts: SIL OFL 1.1, Code: MIT License) Copyright 2022 Fonticons, Inc.--><path d="M80 352c-26.5 0-48 21.5-48 48s21.5 48 48 48 48-21.5 48-48-21.5-48-48-48zm416 0c-26.5 0-48 21.5-48 48s21.5 48 48 48 48-21.5 48-48-21.5-48-48-48zm-119 11.1c4.625-14.5 1.625-30.88-9.75-42.37-11.5-11.5-27.87-14.38-42.37-9.875-7-13.5-20.63-23-36.88-23s-29.88 9.5-36.88 23C236.6 306.2 220.2 309.2 208.8 320.8c-11.5 11.5-14.38 27.87-9.875 42.37-13.5 7-23 20.63-23 36.88s9.5 29.88 23 36.88c-4.625 14.5-1.625 30.88 9.875 42.37 8.25 8.125 19 12.25 29.75 12.25 4.25 0 8.5-1.125 12.62-2.5C258.1 502.5 271.8 512 288 512s29.88-9.5 36.88-23c4.125 1.25 8.375 2.5 12.62 2.5 10.75 0 21.5-4.125 29.75-12.25 11.5-11.5 14.38-27.87 9.75-42.37 13.5-6.98 23-20.68 23-36.88s-9.5-29.9-23-36.9zM544 224c0-53-43-96-96-96-.625 0-1.125.25-1.625.25C447.5 123 448 117.6 448 112c0-44.25-35.8-80-80-80-24.62 0-46.25 11.25-61 28.75C288.4 24.75 251.2 0 208 0 146.1 0 96 50.12 96 112c0 7.25.75 14.25 2.125 21.25C59.75 145.8 32 181.5 32 224c0 53 43 96 96 96h43.38c3.62-8 8.42-15.4 14.82-21.8 13.6-13.4 31.6-21.1 50.8-21.3 13.5-13.1 31.8-20.9 51-20.9s37.5 7.75 51 20.88c19.25.25 37.25 7.875 50.75 21.37C396.2 304.6 401.1 312 404.6 320H448c53 0 96-43 96-96z"/></svg>