<svg xmlns="http://www.w3.org/2000/svg" viewBox="0 0 576 512"><!--! Font Awesome Free 6.1.1 by @fontawesome - https://fontawesome.com License - https://fontawesome.com/license/free (Icons: CC BY 4.0, Fonts: SIL OFL 1.1, Code: MIT License) Copyright 2022 Fonticons, Inc.--><path d="M342.7 352.7c5.75-9.625 9.25-20.75 9.25-32.75 0-35.25-28.75-64-63.1-64-17.25 0-32.75 6.875-44.25 17.87-17.2-29.62-48.4-50.72-85.5-50.72-53 0-96 43.06-96 96.06 0 2 .503 3.687.628 5.687-37.5 13-64.62 48.38-64.62 90.25C-.005 468.1 42.99 512 95.99 512h239.1c44.25 0 79.1-35.75 79.1-80 .91-41.9-30.49-75.8-71.49-79.3zm222.5-54.3c-93 17.75-178.5-53.62-178.5-147.6 0-54.25 28.1-104 76.12-130.9 7.375-4.125 5.375-15.12-2.75-16.63C448.4 1.125 436.7 0 424.1 0 318.2 0 232.2 85.88 232.2 192c0 8.5.625 16.75 1.75 25 5.875 4.25 11.62 8.875 16.75 14.25 11.4-4.75 24.5-7.25 36.4-7.25 52.88 0 95.1 43.13 95.1 96 0 3.625-.25 7.25-.625 10.75 23.62 10.75 42.37 29.5 53.5 52.5 54.38-3.375 103.7-29.25 137.1-70.37 7.025-6.48 1.325-16.08-6.975-14.48z"/></svg>