<svg xmlns="http://www.w3.org/2000/svg" viewBox="0 0 448 512"><!--! Font Awesome Free 6.1.2 by @fontawesome - https://fontawesome.com License - https://fontawesome.com/license/free (Icons: CC BY 4.0, Fonts: SIL OFL 1.1, Code: MIT License) Copyright 2022 Fonticons, Inc.--><path d="m216.6 49.94 1.2 1.24c3.4 3.42 9 3.42 12.4 0l1.2-1.24A61.313 61.313 0 0 1 274.7 32c33.9 0 61.3 27.42 61.3 61.25v4.87c0 11.98-3.3 23.78-9.4 33.98l-18.8 31.3c-1.1 1.8-1.1 3.1-1 4.2.2 1.2.9 2.5 2 3.6s2.4.9 3.6 2c1.1.1 2.4 0 4.2-1l31.3-18.8c10.2-6.1 22-9.4 34-9.4h4.8c33.9 0 61.3 27.4 61.3 61.3 0 16.2-6.5 31.8-17.9 43.3l-1.3 1.2c-3.4 3.4-3.4 9 0 12.4l1.3 1.2c11.4 11.5 17.9 27.1 17.9 43.3 0 33.9-27.4 61.3-61.3 61.3h-4.8c-12 0-23.8-3.3-34-9.4l-31.3-18.8c-1.8-1.1-3.1-1.1-4.2-1-1.2.2-2.5.9-3.6 2s-1.8 2.4-2 3.6c-.1 1.1-.1 2.4 1 4.2l18.8 31.3c6.1 10.2 9.4 22 9.4 34v4.8c0 33.9-27.4 61.3-61.3 61.3-16.2 0-31.8-6.5-43.3-17.9l-1.2-1.3c-3.4-3.4-9-3.4-12.4 0l-1.2 1.3c-11.5 11.4-27.1 17.9-43.3 17.9-33.9 0-61.3-27.4-61.3-61.3v-4.8c0-12 3.3-23.8 9.4-34l18.8-31.3c1-1.8 1.1-3.1 1-4.2-1.1-1.2-.9-2.5-2-3.6s-2.4-1.8-3.6-2c-1.1-.1-2.4-.1-4.2 1l-31.3 18.8c-10.24 6.1-22 9.4-33.98 9.4h-4.87C27.42 368 0 340.6 0 306.7c0-16.2 6.454-31.8 17.94-43.3l1.24-1.2c3.42-3.4 3.42-9 0-12.4l-1.24-1.2C6.454 237.1 0 221.5 0 205.3 0 171.4 27.42 144 61.25 144h4.87c11.98 0 23.74 3.3 33.98 9.4l31.3 18.8c1.8 1 3.1 1.1 4.2 1 1.2-1.1 2.5-.9 3.6-2s.9-2.4 2-3.6c.1-1.1 0-2.4-1-4.2l-18.8-31.3c-6.1-10.2-9.4-22-9.4-33.98v-4.87C112 59.42 139.4 32 173.3 32c16.2 0 31.8 6.45 43.3 17.94z"/></svg>