<svg xmlns="http://www.w3.org/2000/svg" viewBox="0 0 512 512"><!--! Font Awesome Free 6.1.1 by @fontawesome - https://fontawesome.com License - https://fontawesome.com/license/free (Icons: CC BY 4.0, Fonts: SIL OFL 1.1, Code: MIT License) Copyright 2022 Fonticons, Inc.--><path d="M512 302.3c0 35.29-28.99 63.91-64.28 63.91-38.82 0-88.7-22.75-122.4-40.92 18.17 33.7 40.92 83.57 40.92 122.4 0 35.29-28.61 63.91-63.91 63.91-18.1 0-34.45-7.52-46.09-19.63A63.903 63.903 0 0 1 209.7 512c-35.29 0-63.91-28.99-63.91-64.28 0-38.82 22.75-88.7 40.92-122.4-33.7 18.17-83.57 40.92-122.4 40.92C29.02 366.24.4 337.63.4 302.33c0-18.1 7.52-34.45 19.63-46.09C7.676 244.6 0 228 0 209.7c0-35.29 28.99-63.91 64.28-63.91 38.82 0 88.7 22.75 122.4 40.92C168.5 152.1 145.8 103.1 145.8 64.28c0-35.29 28.61-63.91 63.91-63.91 18.1 0 34.45 7.52 46.09 19.63 11.6-12.324 27.3-20 46.5-20 35.29 0 63.91 28.99 63.91 64.28 0 38.82-22.75 88.7-40.92 122.4 33.7-18.17 83.57-40.92 122.4-40.92 35.29 0 63.91 28.61 63.91 63.91 0 18.1-7.52 34.45-19.63 46.09C504.3 267.4 512 283.1 512 302.3z"/></svg>