<svg xmlns="http://www.w3.org/2000/svg" viewBox="0 0 512 512"><!--! Font Awesome Free 6.1.2 by @fontawesome - https://fontawesome.com License - https://fontawesome.com/license/free (Icons: CC BY 4.0, Fonts: SIL OFL 1.1, Code: MIT License) Copyright 2022 Fonticons, Inc.--><path d="M305.8 2.076C314.4 5.932 320 14.52 320 24v40h16c70.7 0 128 57.3 128 128v166.7c28.3 12.3 48 40.5 48 73.3 0 44.2-35.8 80-80 80s-80-35.8-80-80c0-32.8 19.7-61 48-73.3V192c0-35.3-28.7-64-64-64h-16v40c0 9.5-5.6 18.1-14.2 21.9-8.7 3.9-19.7 2.3-25.9-4.1l-80-72c-5-4.5-7.9-11-7.9-17.8 0-6.8 2.9-13.29 7.9-17.84l80-71.999c6.2-6.34 17.2-7.94 25.9-4.084v-.001zM432 456c13.3 0 24-10.7 24-24s-10.7-24-24-24-24 10.7-24 24 10.7 24 24 24zm-320-97.3c28.3 12.3 48 40.5 48 73.3 0 44.2-35.8 80-80 80-44.18 0-80-35.8-80-80 0-32.8 19.75-61 48-73.3V153.3C19.75 140.1 0 112.8 0 80 0 35.82 35.82 0 80 0c44.2 0 80 35.82 80 80 0 32.8-19.7 60.1-48 73.3v205.4zM80 56c-13.25 0-24 10.75-24 24s10.75 24 24 24 24-10.75 24-24-10.75-24-24-24zm0 352c-13.25 0-24 10.7-24 24s10.75 24 24 24 24-10.7 24-24-10.75-24-24-24z"/></svg>