<svg xmlns="http://www.w3.org/2000/svg" viewBox="0 0 512 512"><!--! Font Awesome Free 6.1.1 by @fontawesome - https://fontawesome.com License - https://fontawesome.com/license/free (Icons: CC BY 4.0, Fonts: SIL OFL 1.1, Code: MIT License) Copyright 2022 Fonticons, Inc.--><path d="M320 488c0 9.5-5.6 18.1-14.2 21.9-8.7 3.9-19.7 2.3-25.9-4.1l-80-72c-5-4.5-7.9-11-7.9-17.8 0-6.8 2.9-13.3 7.9-17.8l80-72c6.2-6.4 17.2-8 25.9-4.1 8.6 3.8 14.2 12.4 14.2 21.9v40h16c35.3 0 64-28.7 64-64V153.3c-28.3-13.2-48-40.5-48-73.3 0-44.18 35.8-80 80-80s80 35.82 80 80c0 32.8-19.7 60.1-48 73.3V320c0 70.7-57.3 128-128 128h-16v40zM456 79.1c0-12.36-10.7-24-24-24s-24 11.64-24 24c0 14.15 10.7 24 24 24s24-9.85 24-24zM192 24c0-9.48 5.6-18.068 14.2-21.924a24.14 24.14 0 0 1 25.9 4.085l80 71.999c5 4.55 7.9 11.04 7.9 17.84 0 6.8-2.9 13.3-7.9 17.8l-80 72c-7.1 6.4-17.2 8-25.9 4.1-8.6-3.8-14.2-12.4-14.2-21.9v-40h-16c-35.3 0-64 28.7-64 64v166.7c28.3 12.3 48 40.5 48 73.3 0 44.2-35.8 80-80 80-44.18 0-80-35.8-80-80 0-32.8 19.75-61 48-73.3V192c0-70.7 57.3-128 128-128h16V24zM56 432c0 13.3 10.75 24 24 24s24-10.7 24-24-10.75-24-24-24-24 10.7-24 24z"/></svg>