<svg xmlns="http://www.w3.org/2000/svg" viewBox="0 0 512 512"><!--! Font Awesome Free 6.1.2 by @fontawesome - https://fontawesome.com License - https://fontawesome.com/license/free (Icons: CC BY 4.0, Fonts: SIL OFL 1.1, Code: MIT License) Copyright 2022 Fonticons, Inc.--><path d="M256 0C114.6 0 0 114.6 0 256s114.6 256 256 256 256-114.6 256-256S397.4 0 256 0zM80.72 256h-1.09c-9.078 0-16.4-8.011-15.56-17.34C72.36 146 146.5 72.06 239.3 64.06c9-.78 16.7 6.69 16.7 16.03 0 8.35-6.215 15.28-14.27 15.99C164.7 102.9 103.1 164.3 96.15 241.4c-.75 8.2-7.38 14.6-15.43 14.6zM256 351.1c-53.02 0-96-43-96-95.1s42.98-96 96-96 96 43 96 96-43 95.1-96 95.1zm0-127.1c-17.7 0-32 14.2-32 32s14.3 32 32 32 32-14.25 32-32-14.3-32-32-32z"/></svg>