<svg xmlns="http://www.w3.org/2000/svg" viewBox="0 0 512 512"><!--! Font Awesome Free 6.1.2 by @fontawesome - https://fontawesome.com License - https://fontawesome.com/license/free (Icons: CC BY 4.0, Fonts: SIL OFL 1.1, Code: MIT License) Copyright 2022 Fonticons, Inc.--><path d="M288 256c0 17.7-14.3 32-32 32s-32-14.3-32-32 14.3-32 32-32 32 14.3 32 32zM0 256C0 114.6 114.6 0 256 0s256 114.6 256 256-114.6 256-256 256S0 397.4 0 256zm325.1 50.7 55.5-144.3c7.5-20.3-11.6-38.5-31-31l-144.3 55.5c-8.5 3.2-15.2 9.9-18.4 18.4l-55.5 144.3c-7.5 19.4 10.7 38.5 31 31l144.3-55.5c8.5-3.2 15.2-9.9 18.4-18.4z"/></svg>