<svg xmlns="http://www.w3.org/2000/svg" viewBox="0 0 512 512"><!--! Font Awesome Free 6.1.2 by @fontawesome - https://fontawesome.com License - https://fontawesome.com/license/free (Icons: CC BY 4.0, Fonts: SIL OFL 1.1, Code: MIT License) Copyright 2022 Fonticons, Inc.--><path d="M256 0C114.6 0 0 114.6 0 256s114.6 256 256 256 256-114.6 256-256S397.4 0 256 0zm-56.8 312.6c14.94 15.06 34.8 23.38 55.89 23.38.031 0 0 0 0 0 21.06 0 40.92-8.312 55.83-23.38 9.375-9.375 24.53-9.469 33.97-.156 9.406 9.344 9.469 24.53.156 33.97-24 24.22-55.95 37.56-89.95 37.56 0 0 .032 0 0 0-33.97 0-65.95-13.34-89.95-37.56-49.44-49.88-49.44-131 0-180.9 24-24.22 55.98-37.56 89.95-37.56.032 0 0 0 0 0 34 0 65.95 13.34 89.95 37.56 9.312 9.438 9.25 24.62-.156 33.97-9.438 9.344-24.59 9.188-33.97-.156-14.91-15.06-34.77-23.38-55.83-23.38 0 0 .031 0 0 0-21.09 0-40.95 8.312-55.89 23.38-30.9 31.272-30.9 82.072 0 113.272z"/></svg>