<svg xmlns="http://www.w3.org/2000/svg" viewBox="0 0 640 512"><!--! Font Awesome Free 6.1.1 by @fontawesome - https://fontawesome.com License - https://fontawesome.com/license/free (Icons: CC BY 4.0, Fonts: SIL OFL 1.1, Code: MIT License) Copyright 2022 Fonticons, Inc.--><path d="m634 276.8-9.999-13.88L624 185.7c0-11.88-12.5-19.49-23.12-14.11-10.88 5.375-19.5 13.5-26.38 23l-65.75-90.92C490.6 78.71 461.8 64 431 64H112c-48.63 0-88 39.4-88 88v86.38C9.5 250.1 0 267.9 0 288v32h8c35.38 0 64-28.62 64-64V152c0-16.88 10.5-31.12 25.38-37-.88 4.1-1.38 8.5-1.38 13v304c0 8.875 7.126 16 16 16h63.1c8.875 0 16-7.125 16-16V320c9.376 9.375 20.25 16.5 32 21.88V368c0 8.875 7.253 16 16 16 8.876 0 15.1-7.125 15.1-16v-17.25c9.126 1 12.88 2.25 32-.125V368c0 8.875 7.25 16 16 16 8.876 0 16-7.125 16-16v-26.12c13.6-5.38 24.4-12.68 33.8-21.88l-.001 112c0 8.875 7.125 16 15.1 16h64c8.75 0 16-7.125 16-16V256l31.1 32v41.55c0 12.62 3.752 24.95 10.75 35.45l41.25 62c10.601 13.1 25.301 21 41.201 21 22.5 0 41.88-15.88 46.25-38l21.75-108.6c1.7-8.6-.3-17.5-5.4-24.6zM377.3 167.4l-22.88 22.75C332.5 211.8 302.9 224 272.1 224s-60.6-12.2-82.5-33.9l-22.8-22.7c-15.8-15.6-2.4-39.4 22.1-39.4h166.2c24.5 0 37.9 23.8 22.2 39.4zM576 352c-8.875 0-16-7.125-16-16s7.125-16 16-16 16 7.125 16 16-7.1 16-16 16z"/></svg>