<svg xmlns="http://www.w3.org/2000/svg" viewBox="0 0 384 512"><!--! Font Awesome Free 6.1.2 by @fontawesome - https://fontawesome.com License - https://fontawesome.com/license/free (Icons: CC BY 4.0, Fonts: SIL OFL 1.1, Code: MIT License) Copyright 2022 Fonticons, Inc.--><path d="M159.1 402.7V256c0-17.7 15.2-32 32-32 8.6 0 15.7 2.7 21.2 7.3 10.7-4.7 22.5-7.3 35-7.3 17.2 0 34 5.1 48.4 14.7l10.1 6.7c14.7 9.8 18.6 29.6 8.8 44.4-9.8 14.7-30.5 18.6-44.4 8.8l-10-6.7c-3.9-2.5-8.3-3.9-12.9-3.9-12.9 0-23.3 10.4-23.3 23.3V416c40.1 0 78.3-15.4 106.7-40.7 13.1-11.8 33.4-10.7 45.1 2.5 11.8 13.1 10.7 33.4-2.5 44.3C333.7 458.4 281.4 480 224 480 100.3 480 0 379.7 0 256S100.3 32 224 32c57.4 0 109.7 21.59 149.3 57.04 13.2 11.76 14.3 32.06 2.5 45.16-11.7 13.2-32 14.3-45.1 2.5C302.3 111.4 264.1 96 224 96c-88.4 0-160.9 71.6-160.9 160 0 65.6 40.4 121.1 96 146.7z"/></svg>