<svg xmlns="http://www.w3.org/2000/svg" viewBox="0 0 640 512"><!--! Font Awesome Free 6.3.0 by @fontawesome - https://fontawesome.com License - https://fontawesome.com/license/free (Icons: CC BY 4.0, Fonts: SIL OFL 1.1, Code: MIT License) Copyright 2023 Fonticons, Inc.--><path d="m273.8 45.8 73.7 28-76.3 29.2-76.4-29.3 73.7-28c1.7-.7 3.6-.7 5.3 0zM128.1 87.1v105.5l-3.6 1.2-90.4 34.3c-20.5 7.8-34 27.4-34 49.3v112.1c0 20.9 12.4 39.8 31.5 48.3l90.4 39.7c13.5 5.9 28.9 5.9 42.4 0l106.8-46.9L378 477.5c13.5 5.9 28.9 5.9 42.4 0l90.4-39.7c19.1-8.4 31.5-27.3 31.5-48.3V277.4c0-21.9-13.5-41.5-34-49.3l-90.4-34.3c-1.2-.5-2.4-.9-3.6-1.2V87.1c0-21.9-13.5-41.5-34-49.3L289.9 3.5c-12-4.6-25.3-4.6-37.4 0l-90.4 34.3c-20.5 7.8-34 27.4-34 49.3zm241 111.1-77.5 29.4v-84l77.5-29.7v84.3zm-223.3 37.9 73.7 28-76.4 29.3-76.3-29.3 73.7-28c1.7-.7 3.6-.7 5.3 0zm17.7 192.4v-94.6l77.5-29.7v90.2l-77.5 34.1zm233-192.4c1.7-.7 3.6-.7 5.3 0l73.7 28-76.4 29.3-76.4-29.3 73.7-28zm96.1 160.3-73 32.1v-94.6l77.5-29.7v85.3c0 3-1.8 5.7-4.5 6.9z"/></svg>