<svg xmlns="http://www.w3.org/2000/svg" viewBox="0 0 640 512"><!--! Font Awesome Free 6.2.0 by @fontawesome - https://fontawesome.com License - https://fontawesome.com/license/free (Icons: CC BY 4.0, Fonts: SIL OFL 1.1, Code: MIT License) Copyright 2022 Fonticons, Inc.--><path d="M64 32c0-8.9 3.8-20.9 6.2-27.3C71.2 1.8 74 0 77 0c1.9 0 3.8.7 5.2 2.1L128 45.7l45.8-43.6C175.2.7 177.1 0 179 0c3 0 5.8 1.8 6.8 4.7 2.4 6.5 6.2 18.4 6.2 27.3 0 26.5-21.9 42-29.5 46.6l76.2 72.6c6 5.7 13.9 8.8 22.1 8.8H480c61.4 0 101.6 24 126.2 50 12 12.6 19.9 25.2 24.9 34.9 2.5 4.8 4.3 9 5.5 12.1.6 1.5 1.1 2.8 1.4 3.8.2.5.3.9.4 1.3l.1.5.1.2v.1l-30.2 9.1 30.2-9.1c5.1 16.9-4.5 34.8-21.5 39.8-16.8 5-34.5-4.4-39.7-21.1-.1-.2-.2-.6-.5-1.2-.5-1.3-1.4-3.4-2.8-6.1-2.8-5.4-7.4-12.8-14.4-20.1-4.2-4.4-9.4-9-15.8-13.2v79H192l-40.4-94.3c-3.9-9.2-15.3-12.6-23.6-7l-42.1 28c-9.1 6.1-19.7 9.3-30.7 9.3h-2C23.9 256 0 232.1 0 202.7c0-12.1 4.1-23.8 11.7-33.3l75.9-94.8C78.1 67.4 64 53.2 64 32zm384 320h96v128c0 17.7-14.3 32-32 32h-32c-17.7 0-32-14.3-32-32v-64H288v64c0 17.7-14.3 32-32 32h-32c-17.7 0-32-14.3-32-32V352h256zm129.4-70.8L608 272l-30.6 9.2zm-316.5-70.3c-.9-1.8-2.8-2.9-4.8-2.9s-3.9 1.1-4.8 2.9l-10.5 20.5-23.5 3.3c-2 .3-3.7 1.6-4.3 3.5s-.1 3.9 1.3 5.3l17 16-4 22.6c-.3 1.9.5 3.9 2.1 5s3.8 1.3 5.6.4l21-10.7 21 10.7c1.8.9 4 .8 5.6-.4s2.5-3.1 2.1-5l-4-22.6 17-16c1.5-1.4 2-3.4 1.3-5.3s-2.3-3.2-4.3-3.5l-23.5-3.3-10.5-20.5zm107.2-2.9c-2 0-3.9 1.1-4.8 2.9l-10.5 20.5-23.5 3.3c-2 .3-3.7 1.6-4.3 3.5s-.1 3.9 1.3 5.3l17 16-4 22.6c-.3 1.9.5 3.9 2.1 5s3.8 1.3 5.6.4l21-10.7 21 10.7c1.8.9 4 .8 5.6-.4s2.5-3.1 2.1-5l-4-22.6 17-16c1.5-1.4 2-3.4 1.4-5.3s-2.3-3.2-4.3-3.5l-23.5-3.3-10.5-20.5c-.9-1.8-2.8-2.9-4.8-2.9zm116.8 2.9c-.9-1.8-2.8-2.9-4.8-2.9s-3.9 1.1-4.8 2.9l-10.5 20.5-23.5 3.3c-2 .3-3.7 1.6-4.3 3.5s-.1 3.9 1.3 5.3l17 16-4 22.6c-.3 1.9.5 3.9 2.1 5s3.8 1.3 5.6.4l21-10.7 21 10.7c1.8.9 4 .8 5.6-.4s2.5-3.1 2.1-5l-4-22.6 17-16c1.5-1.4 2-3.4 1.4-5.3s-2.3-3.2-4.3-3.5l-23.5-3.3-10.5-20.5z"/></svg>