<svg xmlns="http://www.w3.org/2000/svg" viewBox="0 0 640 512"><!--! Font Awesome Free 6.1.1 by @fontawesome - https://fontawesome.com License - https://fontawesome.com/license/free (Icons: CC BY 4.0, Fonts: SIL OFL 1.1, Code: MIT License) Copyright 2022 Fonticons, Inc.--><path d="M447.1 224c0-12.56-4.781-25.13-14.35-34.76l-174.9-174.9C249.1 4.786 236.5 0 223.1 0c-11.7 0-24.2 4.786-33.9 14.35L14.35 189.2C4.783 198.9-.001 211.4-.001 223.1c0 12.56 4.785 25.17 14.35 34.8l174.9 174.9c9.625 9.562 22.19 14.35 34.75 14.35s25.13-4.783 34.75-14.35l174.9-174.9c9.551-8.8 13.451-21.3 13.451-33.9zM96 248c-13.25 0-23.1-10.75-23.1-23.1s10.75-23.1 23.1-23.1 24 9 24 22.2-10.7 24-24 24zm128 128c-13.25 0-23.1-10.75-23.1-23.1s10.75-23.1 23.1-23.1 23.1 10.75 23.1 23.1S237.3 376 224 376zm0-128c-13.25 0-23.1-10.75-23.1-23.1s10.75-23.1 23.1-23.1 24 9 24 22.2-10.7 24-24 24zm0-128c-13.25 0-23.1-10.75-23.1-23.1s10.75-23.1 23.1-23.1 23.1 10.75 23.1 23.1S237.3 120 224 120zm128 128c-13.25 0-23.1-10.75-23.1-23.1s10.75-23.1 23.1-23.1 23.1 10.75 23.1 23.1S365.3 248 352 248zm239.1-56H472.4c4.418 10.27 6.604 21.25 6.604 32.23 0 20.7-7.865 41.38-23.63 57.14l-136.2 136.2v46.37C320 490.5 341.5 512 368 512h223.1c26.5 0 47.1-21.5 47.1-47.1V240c.9-26.5-19.7-48-47.1-48zm-112 184c-13.25 0-23.1-10.75-23.1-23.1s10.75-23.1 23.1-23.1 23.1 10.75 23.1 23.1-9 23.1-23.1 23.1z"/></svg>