<svg xmlns="http://www.w3.org/2000/svg" viewBox="0 0 512 512"><!--! Font Awesome Free 6.1.1 by @fontawesome - https://fontawesome.com License - https://fontawesome.com/license/free (Icons: CC BY 4.0, Fonts: SIL OFL 1.1, Code: MIT License) Copyright 2022 Fonticons, Inc.--><path d="M20.04 317.3c-2.04 0-4.04-1.5-4.04-4V150.5c0-2.351 1.91-4.012 4.001-4.012.688 0 1.396.18 2.062.575l76.62 45.1-75.28 122.3c-.813 2.337-2.093 2.837-3.363 2.837zm211.36 87.9L23.2 383.14c-4.27-.482-7.123-4.117-7.123-7.995 0-1.401.373-2.834 1.185-4.161L122.7 215.1l108.7 190.1zM31.1 420.1c0-2.039 1.508-4.068 3.93-4.068.165 0 .335.01.509.03l203.6 22.31v65.66C239.1 508.6 236.2 512 232 512a7.914 7.914 0 0 1-3.363-.756L34.25 423.6c-1.56-.8-3.15-2.2-3.15-3.5zm2.84-303c-1.289-.764-1.938-2.088-1.938-3.417 0-1.281.602-2.567 1.813-3.364l150.8-98.59c.485-.749 2.685-1.089 3.985-1.089 4.32 0 8.003 3.721 8.003 8.022 0 1.379-.379 2.818-1.237 4.214L115.5 165.8l-81.56-48.7zm112.86 58L242.39 6.7C245.5 2.53 250.7 0 255.1 0s10.5 2.53 13.62 7.624l95.59 168.4H146.8zm209.6 32L256 382.8 155.6 207.1h200.8zm119.7 208c2.422 0 3.93 2.029 3.93 4.068 0 1.378-.69 2.761-2.252 3.524l-194.4 87.66a7.966 7.966 0 0 1-3.35.744c-4.2 0-7.994-3.37-7.994-7.994v-65.69l203.6-22.28c.066.868.266-.032.466-.032zm18.7-44.2c.8 1.4 1.2 2.8 1.2 4.2 0 3.872-2.841 7.499-7.128 7.98l-208.2 22.06 108.6-190.1L494.8 370.9zM316.6 22.87c-.858-1.395-1.237-2.834-1.237-4.214 0-4.301 3.683-8.022 8.003-8.022 1.308 0 2.675.341 4.015 1.11l150.8 98.59a3.984 3.984 0 0 1 1.813 3.353 3.977 3.977 0 0 1-1.938 3.429L396.5 165.8 316.6 22.87zM491.1 146.5c2.091 0 4.001 1.661 4.001 4.012v162.8c0 2.483-2.016 4.006-4.053 4.006-1.27 0-2.549-.592-3.353-1.912l-75.28-122.3 76.62-45.1c1.565-1.306 2.265-1.506 2.065-1.506z"/></svg>