<svg xmlns="http://www.w3.org/2000/svg" viewBox="0 0 320 512"><!--! Font Awesome Free 6.1.1 by @fontawesome - https://fontawesome.com License - https://fontawesome.com/license/free (Icons: CC BY 4.0, Fonts: SIL OFL 1.1, Code: MIT License) Copyright 2022 Fonticons, Inc.--><path d="M160 0c17.7 0 32 14.33 32 32v35.68c1.6.21 3.1.44 4.7.67 10.6 1.58 42.2 6.67 55.2 9.96 16.2 4.34 27.5 21.79 23.1 38.89-4.3 17.1-21.7 27.5-38.9 23.2-9.3-3.3-37.6-7.1-48.8-8.7-32.1-4.8-59.6-2.4-78.5 4.8-18.28 7-25.87 16.9-27.88 28-1.94 10.7-.47 16.8 1.29 20.6 1.89 4 5.58 8.5 12.93 13.4 16.26 10.7 41.06 17.9 73.26 26.6l2.8.8c28.4 7.7 63.2 17.2 89 34.3 14.1 9.4 27.4 22.1 35.6 39.7 8.3 17.8 10.1 37.8 6.3 58.2-7 38.9-34 64.3-65.7 77.5-13.6 5.6-28.6 9.2-44.4 11V480c0 17.7-14.3 32-32 32s-32-14.3-32-32v-34.9c-.4 0-.9-1-1.3-.2h-.2c-24.3-3.8-64.43-14.3-91.5-26.3-16.15-7.2-23.42-26.1-16.24-42.3 7.18-16.1 26.09-23.4 41.34-16.2 21.8 9.3 56.2 18.4 76.1 21.5 32 4.8 58.3 2 76.1-5.2 16.9-6.9 24.6-16.9 26.8-28.9 1.9-10.7.5-16.8-1.3-20.6-1.9-4-5.6-8.5-12.9-13.4-16.3-10.7-41.1-17.9-73.3-26.6l-2.8-.8c-28.4-7.7-63.22-17.2-89.04-34.3-14.11-9.4-27.33-22.1-35.54-39.7-8.33-17.8-10.14-37.8-6.27-59.1 7.08-38.9 35.1-63.71 68.01-76.27 13.02-4.97 27.14-8.24 42.04-10V32c0-17.67 14.3-32 32-32z"/></svg>