<svg xmlns="http://www.w3.org/2000/svg" viewBox="0 0 512 512"><!--! Font Awesome Free 6.1.1 by @fontawesome - https://fontawesome.com License - https://fontawesome.com/license/free (Icons: CC BY 4.0, Fonts: SIL OFL 1.1, Code: MIT License) Copyright 2022 Fonticons, Inc.--><path d="M288 167.2v-28.1c-28.25-36.38-47.13-79.29-54.13-125.2C231.7.405 214.8-5.02 206.1 5.481c-22 24.879-37.7 54.219-48.9 86.589 34.2 38.23 80 64.63 130.8 75.13zM400 63.97c-44.25 0-79.1 35.82-79.1 80.08l.001 59.44c-104.4-6.251-193-70.46-233-161.7-6.421-12.54-24.141-13.21-29.891-.96-16.63 35.13-26 74.37-26 115.77 0 70.76 34.11 136.9 85.11 185.9 13.12 12.75 26.13 23.27 38.88 32.77L12.12 411.2c-10.75 2.75-15.5 15.09-9.5 24.47 17.38 26.88 60.42 72.54 153.2 76.29 8 .25 15.99-2.633 22.12-7.883l65.23-56.12 76.84.056c88.38 0 160-71.49 160-159.9l.001-160.2 31.1-63.99L400 63.97zm0 96.13c-8.75 0-16.01-7.259-16.01-16.01 0-8.876 7.261-16.05 16.01-16.05s15.99 7.136 15.99 16.01c.01 8.75-7.19 16.05-15.99 16.05z"/></svg>