<svg xmlns="http://www.w3.org/2000/svg" viewBox="0 0 640 512"><!--! Font Awesome Free 6.1.2 by @fontawesome - https://fontawesome.com License - https://fontawesome.com/license/free (Icons: CC BY 4.0, Fonts: SIL OFL 1.1, Code: MIT License) Copyright 2022 Fonticons, Inc.--><path d="M18.43 255.8 192 224l-91.2 68.6c-10.13 10.2-3 27.4 11.2 27.4h222.7c-9.499-26.5-14.75-54.5-14.75-83.38V194.2L200.3 106.8c-23.8-15.92-55.3-14.05-77 4.4L5.8 227.6C-6.562 238 2.436 258 18.43 255.8zm556.77 34.1-100.7-50.25c-16.25-8.125-26.5-24.75-26.5-43V160h63.99l28.12 22.62c5.99 5.98 14.09 9.38 22.59 9.38h30.1c11.1 0 23.12-6.875 28.5-17.75l14.37-28.62c5.374-10.87 4.25-23.75-2.999-33.5l-74.49-99.37C552.1 4.75 543.5 0 533.5 0H296c-7.1 0-10.6 8.625-5.6 13.62L351.1 64l-58.7 24.75c-5.874 3-5.874 11.37 0 14.37L351.1 128l-.001 108.6c0 72 35.99 139.4 95.99 179.4-195.6 6.75-344.4 41-434.1 60.88-8.124 1.75-13.87 9-13.87 17.38C.046 504 8.045 512 17.79 512h499.1c63.24 0 119.6-47.5 122.1-110.8 3.31-47.2-21.89-90.3-63.79-111.3zM489.1 66.25l45.74 11.38c-2.75 11-12.5 18.88-24.12 18.25-13.02-.63-25.92-12.5-21.62-29.63z"/></svg>