<svg xmlns="http://www.w3.org/2000/svg" viewBox="0 0 512 512"><!--! Font Awesome Free 6.1.1 by @fontawesome - https://fontawesome.com License - https://fontawesome.com/license/free (Icons: CC BY 4.0, Fonts: SIL OFL 1.1, Code: MIT License) Copyright 2022 Fonticons, Inc.--><path d="m431.1 122 70.02-45.91c11.09-7.273 14.19-22.14 6.906-33.25-7.219-11.07-22.09-14.23-33.22-6.924l-106.4 69.73c-49.81-8.787-97.18-9.669-112.4-9.669-.002 0 .002 0 0 0C219.5 96 0 100.6 0 208.3v160.1c0 30.27 27.5 57.68 71.1 77.85v-101.9c0-13.27 10.75-24.03 24-24.03s23.1 10.76 23.1 24.03v118.9C153 472.4 191.1 478.3 231.1 480V376.4c0-13.27 10.75-24.03 24-24.03.002 0-.002 0 0 0 13.25 0 24 10.76 24 24.03V480c40.93-1.668 78.95-7.615 111.1-16.72v-118.9c0-13.27 10.75-24.03 24-24.03s24 10.76 24 24.03v101.9c44.49-20.17 71.1-47.58 71.1-77.85V208.3c1.8-43.4-33.2-69.9-78.2-86.3zm-176 150.5C140.2 272.5 48 243.53 48 208.11s93.12-63.1 207.1-63.1c.002 0-.002 0 0 0 17.5 0 34.47.714 50.71 1.966L242.8 187.1c-11.09 7.273-14.19 22.14-6.906 33.25C240.5 228.3 248.2 232.1 256 232.1c4.5 0 9.062-1.265 13.12-3.923l109.3-71.67c51.77 11.65 85.5 30.38 85.5 51.67C463.1 243.6 370.9 272.5 255.1 272.5z"/></svg>