<svg xmlns="http://www.w3.org/2000/svg" viewBox="0 0 640 512"><!--! Font Awesome Free 6.2.1 by @fontawesome - https://fontawesome.com License - https://fontawesome.com/license/free (Icons: CC BY 4.0, Fonts: SIL OFL 1.1, Code: MIT License) Copyright 2022 Fonticons, Inc.--><path d="M112 96c0-17.7 14.3-32 32-32h16c17.7 0 32 14.3 32 32v320c0 17.7-14.3 32-32 32h-16c-17.7 0-32-14.3-32-32v-32H64c-17.7 0-32-14.3-32-32v-64c-17.7 0-32-14.3-32-32s14.3-32 32-32v-64c0-17.7 14.3-32 32-32h48V96zm416 0v32h48c17.7 0 32 14.3 32 32v64c17.7 0 32 14.3 32 32s-14.3 32-32 32v64c0 17.7-14.3 32-32 32h-48v32c0 17.7-14.3 32-32 32h-16c-17.7 0-32-14.3-32-32V96c0-17.7 14.3-32 32-32h16c17.7 0 32 14.3 32 32zM416 224v64H224v-64h192z"/></svg>