<svg xmlns="http://www.w3.org/2000/svg" viewBox="0 0 640 512"><!--! Font Awesome Free 6.1.2 by @fontawesome - https://fontawesome.com License - https://fontawesome.com/license/free (Icons: CC BY 4.0, Fonts: SIL OFL 1.1, Code: MIT License) Copyright 2022 Fonticons, Inc.--><path d="M418.8 104.2 404.6 32H304.1l-.1 127.1h60.77c16.33-18.4 34.33-37.3 54.03-54.9zM272.1 32.12H171.5L145.9 160.1H272l.1-127.98zm189.2 72.08c18.25 16.25 35.51 33.62 51.14 51.49 5.751-5.623 11.38-11.12 17.38-16.37l21.26-18.98 21.25 18.98c1.125 1 2.125 2.124 3.126 3.124-.125-.75.25-1.5 0-2.249l-24-95.97c-1.625-7.123-8.127-12.12-15.38-12.12H437.2l12.25 61.5L461.3 104.2zM16 160.1l97.26-.022 25.64-127.9H40.01c-7.251 0-13.75 4.999-15.5 12.12L.5 140.2C-2 150.3 5.626 160.1 16 160.1zm324.6 32H32.01l4.001 31.99L16 224.1c-8.748 0-16 7.2-16 16V272c0 8.748 7.251 15.1 16 15.1l28.01.018 20 159.1V464c0 8.8 7.25 16 16 16h32.01c8.752 0 16-7.248 16-15.1v-15.1l208.8-.002c-30.13-33.74-48.73-77.85-48.73-126.3C288.1 285.8 307.9 238.8 340.6 192.1zm210.6-28.8c-14.88 13.25-28.38 27.12-40.26 41.12-19.5-25.74-43.63-51.99-71.01-76.36-70.14 62.73-120 144.2-120 193.6C319.1 409.1 391.6 480 479.1 480s160-70.87 160-158.3c1-36.7-37-112.3-87.9-158.4zm-18.6 229.3c-14.75 10.62-32.88 16.1-52.51 16.1-49.01 0-88.89-33.49-88.89-87.98 0-27.12 16.5-50.99 49.38-91.85 4.751 5.498 67.14 87.98 67.14 87.98l39.76-46.99c2.876 4.874 5.375 9.497 7.75 13.1 18.67 38.54 9.87 85.44-22.63 109.64z"/></svg>