<svg xmlns="http://www.w3.org/2000/svg" viewBox="0 0 512 512"><!--! Font Awesome Free 6.1.2 by @fontawesome - https://fontawesome.com License - https://fontawesome.com/license/free (Icons: CC BY 4.0, Fonts: SIL OFL 1.1, Code: MIT License) Copyright 2022 Fonticons, Inc.--><path d="M336.6 156.5c-9.3-8.4-14-20-9.5-31.2l30.5-76.12c5.1-12.91 20.2-18.82 32.1-11.55 21.2 13 40.3 28.99 56.8 47.39 9.2 10.19 6.4 25.88-5 33.48l-67.6 45c-10.3 6.9-24.1 4.6-33.4-3.6-1.3-1.2-2.6-2.3-3.9-3.4zm-38.9-43.9c-4.5 10.5-16.8 17.2-29 16-4.1-.4-8.4-.6-12.7-.6-4.3 0-8.6.2-12.7.6-12.2 1.2-24.5-5.5-29-16l-31.2-75.78c-4.3-12.8 2.4-27.387 15-30.446C217.3 2.203 236.4 0 256 0s38.7 2.203 57 6.374c13.5 3.059 20.2 17.646 15 30.446l-30.3 75.78zM122.3 37.63c11.9-7.27 27-1.36 32.1 11.55l30.5 76.12c4.5 11.2-.2 22.8-9.5 31.2-1.3 1.1-2.6 2.2-3.9 3.4-9.3 8.2-23.1 10.5-33.4 3.6l-67.58-45c-11.39-7.6-14.2-23.29-5.06-33.48 16.53-18.4 35.64-34.39 56.84-47.39zM379.5 222.1c-3.2-11.4.2-24 10-30.5l68.6-45.8c11.6-7.7 27.5-3.9 33.1 8.9 10.4 24.1 17.2 50.1 19.7 77.3 1.2 13.2-9.6 23.1-22.9 23.1h-80c-13.3 0-23.8-9.9-26.2-23-.7-3.4-1.4-6.7-2.3-10zm-257-30.5c9.8 6.5 13.2 19.1 10 30.5-.9 3.3-1.6 6.6-2.3 10-2.4 13.1-12.9 23.9-26.2 23.9H24c-13.25 0-24.118-10.8-22.893-24 2.529-27.2 9.323-53.2 19.713-77.3 5.54-12.8 21.44-16.6 33.09-8.9l68.59 45.8zM104 288c13.3 0 24 10.7 24 24v48c0 13.3-10.7 24-24 24H24c-13.25 0-24-10.7-24-24v-48c0-13.3 10.75-24 24-24h80zm384 0c13.3 0 24 10.7 24 24v48c0 13.3-10.7 24-24 24h-80c-13.3 0-24-10.7-24-24v-48c0-13.3 10.7-24 24-24h80zM104 416c13.3 0 24 10.7 24 24v48c0 13.3-10.7 24-24 24H24c-13.25 0-24-10.7-24-24v-48c0-13.3 10.75-24 24-24h80zm384 0c13.3 0 24 10.7 24 24v48c0 13.3-10.7 24-24 24h-80c-13.3 0-24-10.7-24-24v-48c0-13.3 10.7-24 24-24h80zm-216 48c0 8.8-7.2 16-16 16s-16-7.2-16-16V192c0-8.8 7.2-16 16-16s16 7.2 16 16v272zm-64 0c0 8.8-7.2 16-16 16s-16-7.2-16-16V224c0-8.8 7.2-16 16-16s16 7.2 16 16v240zm128 0c0 8.8-7.2 16-16 16s-16-7.2-16-16V224c0-8.8 7.2-16 16-16s16 7.2 16 16v240z"/></svg>