<svg xmlns="http://www.w3.org/2000/svg" viewBox="0 0 512 512"><!--! Font Awesome Free 6.1.2 by @fontawesome - https://fontawesome.com License - https://fontawesome.com/license/free (Icons: CC BY 4.0, Fonts: SIL OFL 1.1, Code: MIT License) Copyright 2022 Fonticons, Inc.--><path d="M512 256c0 141.4-114.6 256-256 256S0 397.4 0 256 114.6 0 256 0s256 114.6 256 256zM51.68 295.1l31.73 6.4c7.86 1.6 16-.9 21.69-6.6l15.4-15.4c11.5-12.4 31.1-8.4 38.4 6.3l9.3 18.5c3.9 9.6 14.6 14.8 25.3 14.8 15.2 0 26.1-13.7 21.7-28.3l-5.9-19.9c-4.7-15.4 6.9-30.9 23-30.9h2.3c12.5 0 25.9-6.7 33.3-17.8l10.7-16.1c5.6-8.4 5.3-19.5-.8-27.7l-16.1-21.5c-10.3-13.7-3.3-33.5 13.4-37.7l17-5.1c7.5-1 13.6-6.3 16.5-13.5l16.3-40.91C303.4 52.12 280.2 48 255.1 48c-114 0-208 93.1-208 208 0 13.4 2.16 26.5 4.58 39.1zm398.72 5.3-15.8 4.5c-6.7 1.8-13.8-.9-17.5-6.7l-2-3.1c-6-9.4-16.4-16-27.6-16-11.1 0-22.4 6.6-27.6 16l-6.1 9.5c-1.4 2.2-3.3 4.1-5.6 4.5l-37.1 21c-17.2 10.1-24.6 32.4-17 51.3l6.4 12.4c8.6 19.2 30.7 28.5 49.6 21.1l3.4-1.8c10.1-2.9 21.3-1.3 30 5l1.5 1.1c37.2-29.5 64.1-71.4 74.4-119.5-3-.3-6-.1-9 .7zm-294.3 67.1 32 8c8.6 2.2 17.3-3 19.4-11.6 2.2-8.6-3-17.3-11.6-19.4l-32-8c-8.6-2.2-17.3 3-19.4 11.6-2.2 8.6 3 17.3 11.6 19.4zm80.4-39.4c-2.2 8.6 3 17.3 11.6 19.4 8.6 2.2 17.3-3 19.4-11.6l8-32c2.2-8.6-3-17.3-11.6-19.4-8.6-2.2-17.3 3-19.4 11.6l-8 32zm85.2-207.3-16 32c-4 7.9-.8 17.6 7.1 21.5 7.9 4 17.6.8 21.5-7.1l16-32c4-7.9.8-17.6-7.1-21.5-7.9-4-17.6-.8-21.5 7.1z"/></svg>