<svg xmlns="http://www.w3.org/2000/svg" viewBox="0 0 512 512"><!--! Font Awesome Free 6.1.2 by @fontawesome - https://fontawesome.com License - https://fontawesome.com/license/free (Icons: CC BY 4.0, Fonts: SIL OFL 1.1, Code: MIT License) Copyright 2022 Fonticons, Inc.--><path d="M512 256c0 141.4-114.6 256-256 256S0 397.4 0 256 114.6 0 256 0s256 114.6 256 256zM266.3 48.25 232.5 73.6c-5.3 4.03-8.5 10.35-8.5 17.07v9.05c0 6.78 5.5 12.28 12.3 12.28 2.4 0 4.8-.7 6.8-2.1l41.8-27.84c2-1.34 4.4-2.06 6.8-2.06h1c6.2 0 11.3 5.07 11.3 11.31 0 3-1.2 5.88-3.3 8l-19.9 19.89c-5.8 4.9-12.9 10.2-20.6 12.7l-26.6 8.9c-5.7 1.9-9.6 7.3-9.6 13.4 0 3.7-1.5 7.3-4.1 9.9l-18 18c-6.3 6.3-9.9 15-9.9 24v4.2c0 16.4 13.6 29.7 29.9 29.7 11 0 21.2-6.2 26.1-16l4-8.1c2.5-4.8 7.4-7.9 12.8-7.9 4.6 0 8.8 2.1 11.5 5.7l16.3 21.8c2.1 2.8 5.5 4.5 9.1 4.5 8.4 0 13.9-8.9 10.1-16.4l-1.1-2.3c-3.6-7 0-15.5 7.4-18l21.2-7.1c7.6-2.5 12.7-9.6 12.7-17.6 0-10.3 8.3-18.6 18.6-18.6H400c8.8 0 16 7.2 16 16s-7.2 16-16 16h-20.7c-7.2 0-14.2 2.9-19.3 8l-4.7 4.7c-2.1 2.1-3.3 5-3.3 8 0 6.2 5.1 11.3 11.3 11.3h11.3c6 0 11.8 2.4 16 6.6l6.6 6.6c.9.9 2.8 4.2 2.8 6.8 0 2.6-1.9 5-2.8 6.8l-7.5 7.5c-3.7 2.8-5.7 8.6-5.7 13.7s2 10 5.7 13.7L408 304c10.2 10.2 24.1 16 38.6 16h6.5c7.4-20.2 10.9-41.7 10.9-64 0-111.4-87.6-202.36-197.7-207.75zM438.4 356.1c-3.7-2.6-8.2-4.1-13-4.1-6 0-11.8-2.4-16-6.6l-14.3-14.3c-6.8-6.8-17.2-11.1-28-11.1-9.7 0-19.2-3.5-26.6-9.8l-27.4-22.8c-10.7-9.9-25.5-16.3-40.8-16.3h-20.9c-12.7 0-25 4.6-35.5 11.6L188.5 301c-17.8 11.9-28.5 31.9-28.5 53.3v3.2c0 17 6.7 33.2 18.7 45.2l16 16c8.5 8.5 20 13.3 32 13.3H248c13.3 0 24 10.7 24 24 0 2.5.4 5 1.1 7.3 71.4-5.8 132.5-47.6 165.3-107.2zM164.7 100.7l-32 32c-6.3 6.2-6.3 16.4 0 22.6 6.2 6.3 16.4 6.3 22.6 0l32-32c6.3-6.2 6.3-16.4 0-22.6-6.2-6.26-16.4-6.26-22.6 0z"/></svg>