<svg xmlns="http://www.w3.org/2000/svg" viewBox="0 0 512 512"><!--! Font Awesome Free 6.1.2 by @fontawesome - https://fontawesome.com License - https://fontawesome.com/license/free (Icons: CC BY 4.0, Fonts: SIL OFL 1.1, Code: MIT License) Copyright 2022 Fonticons, Inc.--><path d="M79 96h130c5.967 0 11.37-3.402 13.75-8.662 2.385-5.262 1.299-11.39-2.754-15.59l-65-67.34c-5.684-5.881-16.31-5.881-21.99 0l-65 67.34C63.95 75.95 62.87 82.08 65.25 87.34 67.63 92.6 73.03 96 79 96zm278-4.41c5.686 5.881 16.31 5.881 21.99 0l65-67.34c4.053-4.199 5.137-10.32 2.754-15.59C444.4 3.402 438.1 0 433 0H303c-5.967 0-11.37 3.402-13.75 8.662-2.385 5.262-1.301 11.39 2.752 15.59L357 91.59zM448 128H64c-35.35 0-64 28.65-64 63.1v255.1C0 483.3 28.65 512 64 512h384c35.35 0 64-28.65 64-63.1V192c0-35.3-28.7-64-64-64zm-96 96c26.5.1 48 21.5 48 48 0 26.46-21.47 47.9-48 48-26.5-.1-48-21.5-48-48s21.5-47.9 48-48zm-192 0c26.5.1 48 21.5 48 48 0 26.46-21.47 47.9-48 48-26.5-.1-48-21.5-48-48s21.5-47.9 48-48zm80 224H80v-48c0-26.5 21.5-48 48-48h64c26.51 0 48 21.49 48 48v48zm192 0H272v-48c0-26.51 21.49-48 48-48h64c26.51 0 48 21.49 48 48v48z"/></svg>