<svg xmlns="http://www.w3.org/2000/svg" viewBox="0 0 512 512"><!--! Font Awesome Free 6.1.1 by @fontawesome - https://fontawesome.com License - https://fontawesome.com/license/free (Icons: CC BY 4.0, Fonts: SIL OFL 1.1, Code: MIT License) Copyright 2022 Fonticons, Inc.--><path d="M464 64c26.5 0 48 21.49 48 48 0 15.1-7.1 29.3-19.2 38.4L275.2 313.6a32.1 32.1 0 0 1-38.4 0L19.2 150.4C7.113 141.3 0 127.1 0 112c0-26.51 21.49-48 48-48h416zM217.6 339.2a63.9 63.9 0 0 0 76.8 0L512 176v208c0 35.3-28.7 64-64 64H64c-35.35 0-64-28.7-64-64V176l217.6 163.2z"/></svg>