<svg xmlns="http://www.w3.org/2000/svg" viewBox="0 0 576 512"><!--! Font Awesome Free 6.1.2 by @fontawesome - https://fontawesome.com License - https://fontawesome.com/license/free (Icons: CC BY 4.0, Fonts: SIL OFL 1.1, Code: MIT License) Copyright 2022 Fonticons, Inc.--><path d="M499.6 11.32a24.037 24.037 0 0 1 31.7-8.506c11.1 5.94 15.8 19.506 10.6 31.026L404.8 338.6c2.1 2.3 4.2 4.7 6.3 7.1l97.1-54.6c10.5-5.9 23.7-3.2 30.9 6.4 7.3 9.5 6.3 23-3 30.6l-86.2 87h-71.4c-13.1-36.4-48.7-64-90.5-64s-77.4 27.6-90.5 64h-79.7l-75.46-51.4c-9.75-7.6-13.11-19.6-7.91-30.2 5.21-10.7 17.41-15.9 28.73-12.4l97.24 30.4c2.9-3.9 6.1-7.7 9.3-11.3l-62.3-103.9c-6-10-3.9-23 5.1-30.6 9-7.6 22.2-7.6 31.1.1L246 293.6l4.5-1.2 13.6-142.7c1.2-12.3 11.5-22.6 23.9-22.6 12.4 0 22.7 10.3 23.9 22.6l13.5 141.9L499.6 11.32zM544 447.1c17.7 0 32 15.2 32 32 0 18.6-14.3 32-32 32H32c-17.67 0-32-13.4-32-32 0-16.8 14.33-32 32-32h512zM288-.005c13.3 0 24 10.745 24 23.105v48c0 14.15-10.7 24-24 24s-24-9.85-24-24v-48c0-12.36 10.7-23.105 24-23.105z"/></svg>