<svg xmlns="http://www.w3.org/2000/svg" viewBox="0 0 640 512"><!--! Font Awesome Free 6.1.1 by @fontawesome - https://fontawesome.com License - https://fontawesome.com/license/free (Icons: CC BY 4.0, Fonts: SIL OFL 1.1, Code: MIT License) Copyright 2022 Fonticons, Inc.--><path d="M150.7 92.77C195 58.27 251.8 32 320 32c80.8 0 145.5 36.84 192.6 80.6 46.8 43.4 78.1 94.5 92.9 131.1 3.3 7.9 3.3 16.7 0 24.6-13.4 32.3-40.3 77.8-79.9 118.4l105.2 82.4c10.4 8.2 12.3 23.3 4.1 33.7-8.2 10.4-23.3 12.3-33.7 4.1L9.196 42.89C-1.236 34.71-3.065 19.63 5.112 9.196 13.29-1.236 28.37-3.065 38.81 5.112L150.7 92.77zm72.4 56.73 90.3 70.8c4.2-8.5 6.6-18.1 6.6-29.2 0-10.6-3.9-21.4-8.4-30.7 2.8-.3 5.6-1.3 8.4-1.3 53 0 96 43 96 96 0 14.6-2.9 27.6-8.9 39.4l39.5 30.2c11.1-20.4 17.4-43.8 17.4-69.6 0-78.6-64.5-144-144-144-37.3 0-71.4 15.1-96.9 38.4zm170.5 319.9L54.65 203.7c7.95-13.6 17.43-27.9 28.44-42.2l363.11 286c-16.4 8.9-33.9 16.3-52.6 21.9zM34.46 268.3c-2.72-6.5-3.19-13.8-1.38-20.5l296.12 232c-3.1.1-6.1.2-9.2.2-80.8 0-145.5-36.8-192.6-80.6-46.78-44.3-78.06-95.4-92.94-131.1z"/></svg>