<svg xmlns="http://www.w3.org/2000/svg" viewBox="0 0 640 512"><!--! Font Awesome Free 6.2.1 by @fontawesome - https://fontawesome.com License - https://fontawesome.com/license/free (Icons: CC BY 4.0, Fonts: SIL OFL 1.1, Code: MIT License) Copyright 2022 Fonticons, Inc.--><path d="M38.8 5.1C28.4-3.1 13.3-1.2 5.1 9.2s-6.3 25.5 4.1 33.7l592 464c10.4 8.2 25.5 6.3 33.7-4.1s6.3-25.5-4.1-33.7l-105.2-82.4c39.6-40.6 66.4-86.1 79.9-118.4 3.3-7.9 3.3-16.7 0-24.6-14.9-35.7-46.2-87.7-93-131.1C465.5 68.8 400.8 32 320 32c-68.2 0-125 26.3-169.3 60.8L38.8 5.1zm184.3 144.4c25.5-23.3 59.6-37.5 96.9-37.5 79.5 0 144 64.5 144 144 0 24.9-6.3 48.3-17.4 68.7L408 294.5c5.2-11.8 8-24.8 8-38.5 0-53-43-96-96-96-2.8 0-5.6.1-8.4.4 5.3 9.3 8.4 20.1 8.4 31.6 0 10.2-2.4 19.8-6.6 28.3l-90.3-70.8zm223.1 298-363.1-286c-11 14.4-20.5 28.7-28.4 42.2l339 265.7c18.7-5.5 36.2-13 52.6-21.8zM34.5 268.3c14.9 35.7 46.2 87.7 93 131.1 47 43.8 111.7 80.6 192.5 80.6 3.1 0 6.1-.1 9.2-.2l-296.1-232c-1.8 6.8-1.3 14 1.4 20.5z"/></svg>