<svg xmlns="http://www.w3.org/2000/svg" viewBox="0 0 576 512"><!--! Font Awesome Free 6.2.0 by @fontawesome - https://fontawesome.com License - https://fontawesome.com/license/free (Icons: CC BY 4.0, Fonts: SIL OFL 1.1, Code: MIT License) Copyright 2022 Fonticons, Inc.--><path d="M288 32c-80.8 0-145.5 36.8-192.6 80.6C48.6 156 17.3 208 2.5 243.7c-3.3 7.9-3.3 16.7 0 24.6C17.3 304 48.6 356 95.4 399.4 142.5 443.2 207.2 480 288 480s145.5-36.8 192.6-80.6c46.8-43.5 78.1-95.4 93-131.1 3.3-7.9 3.3-16.7 0-24.6-14.9-35.7-46.2-87.7-93-131.1C433.5 68.8 368.8 32 288 32zm144 224c0 79.5-64.5 144-144 144s-144-64.5-144-144 64.5-144 144-144 144 64.5 144 144zm-144-64c0 35.3-28.7 64-64 64-11.5 0-22.3-3-31.6-8.4-.2 2.8-.4 5.5-.4 8.4 0 53 43 96 96 96s96-43 96-96-43-96-96-96c-2.8 0-5.6.1-8.4.4 5.3 9.3 8.4 20.1 8.4 31.6z"/></svg>