<svg xmlns="http://www.w3.org/2000/svg" viewBox="0 0 512 512"><!--! Font Awesome Free 6.1.2 by @fontawesome - https://fontawesome.com License - https://fontawesome.com/license/free (Icons: CC BY 4.0, Fonts: SIL OFL 1.1, Code: MIT License) Copyright 2022 Fonticons, Inc.--><path d="M0 256C0 114.6 114.6 0 256 0s256 114.6 256 256-114.6 256-256 256S0 397.4 0 256zm256.3 75.8c-47.4 0-92.2-6.9-131.8-19-12.3-3.8-24.3 6.9-19.3 18.7C130.1 390.6 188.4 432 256.3 432c67.9 0 126.1-41.4 151.1-100.5 5-11.8-7-22.5-19.3-18.7-39.7 12.1-84.4 19-131.8 19zm-57-202.7c-17.8-4.7-36.1 5.8-40.9 23.6l-4.3 16.1-17-4.3c-16.9-4.8-35.2 5.8-39.96 23.6-4.76 17.7 5.76 36 23.56 40.8l65.1 17.4c8.6 2.3 17.3-2.7 19.6-11.3l17.5-65.9c4.7-16.9-5.8-35.2-23.6-40zm154.3 23.6c-4.8-17.8-23.1-28.3-40.9-23.6-17.8 4.8-28.3 23.1-23.6 40l17.5 65.9c2.3 8.6 11 13.6 19.6 11.3l65.1-17.4c17.8-4.8 28.3-23.1 23.6-40.8-4.8-17.8-23.1-28.4-40.9-23.6l-16.1 4.3-4.3-16.1z"/></svg>