<svg xmlns="http://www.w3.org/2000/svg" viewBox="0 0 512 512"><!--! Font Awesome Free 6.1.1 by @fontawesome - https://fontawesome.com License - https://fontawesome.com/license/free (Icons: CC BY 4.0, Fonts: SIL OFL 1.1, Code: MIT License) Copyright 2022 Fonticons, Inc.--><path d="M312 208c0-13.3 10.7-24 24-24s24 10.7 24 24-10.7 24-24 24-24-10.7-24-24zM174.5 498.8C73.07 464.7 0 368.9 0 256 0 114.6 114.6 0 256 0s256 114.6 256 256c0 112.9-73.1 208.7-174.5 242.8C346.7 484 352 466.6 352 448v-46.9c24.3-17.6 43.6-41.6 55.4-69.6 5-11.8-7-22.5-19.3-18.7-39.7 12.1-84.4 19-131.8 19-47.4 0-92.2-6.9-131.8-19-12.3-3.8-24.3 6.9-19.3 18.7 11.7 27.8 29.9 51.6 53.9 69.2V448c0 18.6 6.2 36 15.4 50.8zm43.1-262c7.1-5.3 8.5-15.3 3.2-22.4-30.4-40.5-91.2-40.5-121.6 0-5.3 7.1-3.87 17.1 3.2 22.4 7.1 5.3 17.1 3.9 22.4-3.2 17.6-23.5 52.8-23.5 70.4 0 5.3 7.1 15.3 8.5 22.4 3.2zM336 272c35.3 0 64-28.7 64-64s-28.7-64-64-64-64 28.7-64 64 28.7 64 64 64zm-16 130.6V448c0 35.3-28.7 64-64 64s-64-28.7-64-64v-45.4c0-14.7 11.9-26.6 26.6-26.6h2c11.3 0 21.1 7.9 23.6 18.9 2.8 12.6 19.9 12.6 23.6 0 2.5-11 12.3-18.9 23.6-18.9h2c14.7 0 26.6 11.9 26.6 26.6z"/></svg>