<svg xmlns="http://www.w3.org/2000/svg" viewBox="0 0 512 512"><!--! Font Awesome Free 6.1.2 by @fontawesome - https://fontawesome.com License - https://fontawesome.com/license/free (Icons: CC BY 4.0, Fonts: SIL OFL 1.1, Code: MIT License) Copyright 2022 Fonticons, Inc.--><path d="M512 256c0 141.4-114.6 256-256 256S0 397.4 0 256 114.6 0 256 0s256 114.6 256 256zm-104.6 75.5c5-11.8-7-22.5-19.3-18.7-39.7 12.1-84.4 19-131.8 19-47.4 0-92.2-6.9-131.8-19-12.3-3.8-24.3 6.9-19.3 18.7C130.1 390.6 188.4 432 256.3 432c67.9 0 126.1-41.4 151.1-100.5zM152.8 124.6l-16.6 34.7-38.11 5a7.95 7.95 0 0 0-6.57 5.5c-.95 2.9-.13 6.1 2.1 8.2l27.88 26.5-7 37.8c-1.4 3.1.7 6.1 3.2 7.9 2.5 1.9 5.8 2.1 8.5.6l32.9-18.3 34.7 18.3c2.7 1.5 6 1.3 8.5-.6 2.5-1.8 3.7-4.8 3.2-7.9l-7-37.8 27.9-26.5c2.2-2.1 3-5.3 2.1-8.2-1-3-4.4-5.1-6.6-5.5l-38.1-5-16.6-34.7c-1.3-2.8-4.1-4.6-8.1-4.6-2.2 0-5 1.8-6.3 4.6zm192 0-16.6 34.7-38.1 5c-3.1.4-5.6 2.5-6.6 5.5-.9 2.9-.1 6.1 2.1 8.2l27.9 26.5-7 37.8c-1.4 3.1.7 6.1 3.2 7.9 2.5 1.9 5.8 2.1 8.5.6l33.8-18.3 33.8 18.3c2.7 1.5 6 1.3 8.5-.6 2.5-1.8 3.7-4.8 3.2-7.9l-7-37.8 27.9-26.5c2.2-2.1 3-5.3 2.1-8.2-1-3-4.4-5.1-6.6-5.5l-38.1-5-16.6-34.7a7.934 7.934 0 0 0-14.4 0z"/></svg>