<svg xmlns="http://www.w3.org/2000/svg" viewBox="0 0 512 512"><!--! Font Awesome Free 6.2.1 by @fontawesome - https://fontawesome.com License - https://fontawesome.com/license/free (Icons: CC BY 4.0, Fonts: SIL OFL 1.1, Code: MIT License) Copyright 2022 Fonticons, Inc.--><path d="M256 512c141.4 0 256-114.6 256-256S397.4 0 256 0 0 114.6 0 256s114.6 256 256 256zM96.8 314.1c-3.8-13.7 7.4-26.1 21.6-26.1h275.2c14.2 0 25.5 12.4 21.6 26.1C396.2 382 332.1 432 256 432S115.8 382 96.8 314.1zM208.4 192c0 17.7-14.3 32-32 32s-32-14.3-32-32 14.3-32 32-32 32 14.3 32 32zm128 32c-17.7 0-32-14.3-32-32s14.3-32 32-32 32 14.3 32 32-14.3 32-32 32z"/></svg>