<svg xmlns="http://www.w3.org/2000/svg" viewBox="0 0 512 512"><!--! Font Awesome Free 6.1.1 by @fontawesome - https://fontawesome.com License - https://fontawesome.com/license/free (Icons: CC BY 4.0, Fonts: SIL OFL 1.1, Code: MIT License) Copyright 2022 Fonticons, Inc.--><path d="M352 493.4c-29.6 12-62.1 18.6-96 18.6s-66.4-6.6-96-18.6V288c0-8.8-7.2-16-16-16s-16 7.2-16 16v189.8C51.48 433.5 0 350.8 0 256 0 114.6 114.6 0 256 0s256 114.6 256 256c0 94.8-51.5 177.5-128 221.8V288c0-8.8-7.2-16-16-16s-16 7.2-16 16v205.4zM217.6 236.8c7.1-5.3 8.5-15.3 3.2-22.4-30.4-40.5-91.2-40.5-121.6 0-5.3 7.1-3.87 17.1 3.2 22.4 7.1 5.3 17.1 3.9 22.4-3.2 17.6-23.5 52.8-23.5 70.4 0 5.3 7.1 15.3 8.5 22.4 3.2zm99.2-3.2c17.6-23.5 52.8-23.5 70.4 0 5.3 7.1 15.3 8.5 22.4 3.2 7.1-5.3 8.5-15.3 3.2-22.4-30.4-40.5-91.2-40.5-121.6 0-5.3 7.1-3.9 17.1 3.2 22.4 7.1 5.3 17.1 3.9 22.4-3.2zM208 368c0 26.5 21.5 48 48 48s48-21.5 48-48v-32c0-26.5-21.5-48-48-48s-48 21.5-48 48v32z"/></svg>