<svg xmlns="http://www.w3.org/2000/svg" viewBox="0 0 512 512"><!--! Font Awesome Free 6.2.1 by @fontawesome - https://fontawesome.com License - https://fontawesome.com/license/free (Icons: CC BY 4.0, Fonts: SIL OFL 1.1, Code: MIT License) Copyright 2022 Fonticons, Inc.--><path d="M256 512c141.4 0 256-114.6 256-256S397.4 0 256 0 0 114.6 0 256s114.6 256 256 256zm96-112h-8v-40h55.3c-3.8 22.7-23.6 40-47.3 40zm47.3-56H344v-40h8c23.8 0 43.5 17.3 47.3 40zm-71.3 0h-64v-40h64v40zm0 56h-64v-40h64v40zm-80-96v40h-64v-40h64zm0 56v40h-64v-40h64zm-80-16h-55.3c3.8-22.7 23.6-40 47.3-40h8v40zm0 56h-8c-23.8 0-43.5-17.3-47.3-40H168v40zm40.4-192c0 17.7-14.3 32-32 32s-32-14.3-32-32 14.3-32 32-32 32 14.3 32 32zm128 32c-17.7 0-32-14.3-32-32s14.3-32 32-32 32 14.3 32 32-14.3 32-32 32z"/></svg>