<svg xmlns="http://www.w3.org/2000/svg" viewBox="0 0 512 512"><!--! Font Awesome Free 6.1.1 by @fontawesome - https://fontawesome.com License - https://fontawesome.com/license/free (Icons: CC BY 4.0, Fonts: SIL OFL 1.1, Code: MIT License) Copyright 2022 Fonticons, Inc.--><path d="M256 0c141.4 0 256 114.6 256 256S397.4 512 256 512 0 397.4 0 256 114.6 0 256 0zm0 352c34.9 0 67.2 15.8 92.3 42.9 6 6.5 16.1 6.8 22.6.8s6.8-16.1.8-22.6C341.6 340.5 301 320 256 320c-8.8 0-16 7.2-16 16s7.2 16 16 16zm-48 17c0-20-28.4-60.4-41.6-77.7-3.2-4.4-9.6-4.4-12.8 0-13 17.3-41.6 57.7-41.6 77.7 0 26 21.5 47 48 47s48-21 48-47zm95.6-161c0 17.7 13.5 32 32 32 17.7 0 32-14.3 32-32s-14.3-32-32-32c-18.5 0-32 14.3-32 32zm-96 0c0-17.7-14.3-32-32-32-18.5 0-32 14.3-32 32s13.5 32 32 32c17.7 0 32-14.3 32-32z"/></svg>