<svg xmlns="http://www.w3.org/2000/svg" viewBox="0 0 512 512"><!--! Font Awesome Free 6.1.2 by @fontawesome - https://fontawesome.com License - https://fontawesome.com/license/free (Icons: CC BY 4.0, Fonts: SIL OFL 1.1, Code: MIT License) Copyright 2022 Fonticons, Inc.--><path d="M0 256C0 114.6 114.6 0 256 0s256 114.6 256 256-114.6 256-256 256S0 397.4 0 256zm164.1 69.5c-5.8-6.7-15.9-7.4-22.6-1.6-6.7 5.8-7.4 15.9-1.6 22.6 22.2 25.6 61 53.5 115.2 53.5 56 0 94.7-27.9 117-53.5 5.8-6.7 5.1-16.8-1.6-22.6-6.7-5.8-16.8-5.1-22.6 1.6-18 20.7-48.5 42.5-92.8 42.5-42.5 0-73.1-21.8-91-42.5zM176.4 176c-17.7 0-32 14.3-32 32s14.3 32 32 32c17.6 0 32-14.3 32-32s-14.4-32-32-32zm124.4 57.6c17.6-23.5 52.8-23.5 70.4 0 5.3 7.1 15.3 8.5 22.4 3.2 7.1-5.3 8.5-15.3 3.2-22.4-30.4-40.5-91.2-40.5-121.6 0-5.3 7.1-3.9 17.1 3.2 22.4 7.1 5.3 17.1 3.9 22.4-3.2z"/></svg>