<svg xmlns="http://www.w3.org/2000/svg" viewBox="0 0 512 512"><!--! Font Awesome Free 6.1.2 by @fontawesome - https://fontawesome.com License - https://fontawesome.com/license/free (Icons: CC BY 4.0, Fonts: SIL OFL 1.1, Code: MIT License) Copyright 2022 Fonticons, Inc.--><path d="M464 128c-26.5 0-48-21-48-46.99 0-5 1.8-11.27 4.6-18.14.3-.7.6-1.41 1-2.13 8.9-20.23 26.5-44.88 36-57.458a7.882 7.882 0 0 1 12.8-.001C483.4 20.65 512 61.02 512 81.01c0 21.69-14.9 39.79-35.2 45.29-4.1 1.1-8.4 1.7-12.8 1.7zM256 0c51.4 0 99.3 15.15 139.4 41.23-1.5 3.09-3 6.2-4.3 9.3-3.3 8.04-7.1 19.04-7.1 30.48 0 44.39 36.6 78.99 80 78.99 9.6 0 18.8-1.7 27.4-4.8 13.3 30.9 20.6 65 20.6 100.8 0 141.4-114.6 256-256 256S0 397.4 0 256 114.6 0 256 0zm.3 331.8c-47.4 0-92.2-6.9-131.8-19-12.3-3.8-24.3 6.9-19.3 18.7C130.1 390.6 188.4 432 256.3 432c67.9 0 126.1-41.4 151.1-100.5 5-11.8-7-22.5-19.3-18.7-39.7 12.1-84.4 19-131.8 19zm-29.8-100.2c3.3-1.1 5.5-4.2 5.5-7.6 0-17.9-6.7-35.6-16.6-48.8-9.8-13-23.9-23.2-39.4-23.2s-29.6 10.2-39.4 23.2c-9.9 13.2-16.6 30.9-16.6 48.8 0 3.4 2.2 6.5 5.5 7.6 3.2 1.1 6.8 0 8.9-2.8l.2-.3c.2-.2-.5-.5.7-.9-.2-.8 1.6-1.9 2.8-3.3 2.5-2.9 6-6.6 10.2-11.2 8.8-6.9 18.9-13.1 27.7-13.1s18.9 6.2 27.7 13.1c4.2 4.6 7.7 8.3 10.2 11.2 1.2 1.4 2.1 2.5 2.8 3.3.3.4.5.7.7.9l.2.3c2.1 2.8 5.7 3.9 8.9 2.8zm151.1-2.8c2.1 2.8 5.7 3.9 8.9 2.8 3.3-1.1 5.5-4.2 5.5-7.6 0-17.9-6.7-35.6-16.6-48.8-9.8-13-23.9-23.2-39.4-23.2s-29.6 10.2-39.4 23.2c-9.9 13.2-16.6 30.9-16.6 48.8 0 3.4 2.2 6.5 5.5 7.6 3.2 1.1 6.8 0 8.9-2.8l.2-.3c.2-.2-.5-.5.7-.9-.2-.8 1.6-1.9 2.8-3.3 2.5-2.9 6-6.6 10.2-11.2 8.8-6.9 18.9-13.1 27.7-13.1s18.9 6.2 27.7 13.1c4.2 4.6 7.7 8.3 10.2 11.2 1.2 1.4 2.1 2.5 2.8 3.3.3.4.5.7.7.9l.2.3z"/></svg>