<svg xmlns="http://www.w3.org/2000/svg" viewBox="0 0 512 512"><path d="M352 256h-38.61c-15.71-13.44-35.46-23.07-57.39-28v-47.56l-32-3.38-32 3.38V228c-21.93 5-41.68 14.6-57.39 28H16a16 16 0 0 0-16 16v96a16 16 0 0 0 16 16h92.79C129.38 421.73 173 448 224 448s94.62-26.27 115.21-64H352a32 32 0 0 1 32 32 32 32 0 0 0 32 32h64a32 32 0 0 0 32-32 160 160 0 0 0-160-160zM81.59 159.91l142.41-15 142.41 15c9.42 1 17.59-6.81 17.59-16.8v-30.22c0-10-8.17-17.8-17.59-16.81L256 107.74V80a16 16 0 0 0-16-16h-32a16 16 0 0 0-16 16v27.74L81.59 96.08C72.17 95.09 64 102.9 64 112.89v30.22c0 9.99 8.17 17.8 17.59 16.8z"/></svg>