<svg xmlns="http://www.w3.org/2000/svg" viewBox="0 0 384 512"><!--! Font Awesome Free 6.1.2 by @fontawesome - https://fontawesome.com License - https://fontawesome.com/license/free (Icons: CC BY 4.0, Fonts: SIL OFL 1.1, Code: MIT License) Copyright 2022 Fonticons, Inc.--><path d="M224 128V0H48C21.49 0 0 21.49 0 48v416c0 26.5 21.49 48 48 48h288c26.51 0 48-21.49 48-48V160H256.9c-18.6 0-32.9-14.3-32.9-32zm-69.9 225.8c7.812 7.812 7.812 20.5 0 28.31-3.9 3.99-9 5.89-14.1 5.89s-10.23-1.938-14.14-5.844l-48-48c-7.812-7.812-7.812-20.5 0-28.31l48-48c7.812-7.812 20.47-7.812 28.28 0s7.812 20.5 0 28.31L120.3 320l33.8 33.8zm152-48c7.812 7.812 7.812 20.5 0 28.31l-48 48c-3.9 3.99-9 5.89-14.1 5.89s-10.23-1.938-14.14-5.844c-7.812-7.812-7.812-20.5 0-28.31L263.7 320l-33.86-33.84c-7.812-7.812-7.812-20.5 0-28.31s20.47-7.812 28.28 0l47.98 47.95zM256 0v128h128L256 0z"/></svg>