<svg xmlns="http://www.w3.org/2000/svg" viewBox="0 0 384 512"><!--! Font Awesome Free 6.1.1 by @fontawesome - https://fontawesome.com License - https://fontawesome.com/license/free (Icons: CC BY 4.0, Fonts: SIL OFL 1.1, Code: MIT License) Copyright 2022 Fonticons, Inc.--><path d="M224 0v128c0 17.7 14.3 32 32 32h128v288c0 35.3-28.7 64-64 64H64c-35.35 0-64-28.7-64-64V64C0 28.65 28.65 0 64 0h160zM80 224c-22.09 0-40 17.9-40 40v80c0 22.1 17.91 40 40 40h16c22.1 0 40-17.9 40-40v-8c0-8.8-7.2-16-16-16s-16 7.2-16 16v8c0 4.4-3.6 8-8 8H80c-4.42 0-8-3.6-8-8v-80c0-4.4 3.58-8 8-8h16c4.4 0 8 3.6 8 8v8c0 8.8 7.2 16 16 16s16-7.2 16-16v-8c0-22.1-17.9-40-40-40H80zm95.4 86.6 25.4 14.5c4.4 2.6 7.2 7.4 7.2 12.5 0 8-6.4 14.4-14.4 14.4H168c-8.8 0-16 7.2-16 16s7.2 16 16 16h25.6c25.6 0 46.4-20.8 46.4-46.4 0-17.5-8.9-32-23.4-40.2l-25.4-14.5c-4.4-2.6-7.2-7.4-7.2-12.5 0-8 6.4-14.4 14.4-14.4H216c8.8 0 16-7.2 16-16s-7.2-16-16-16h-17.6c-25.6 0-46.4 20.8-46.4 46.4 0 16.6 8.9 32 23.4 40.2zM280 240c0-8.8-7.2-16-16-16s-16 7.2-16 16v31.6c0 34.7 10.3 68.7 29.6 97.6l5.1 7.7c3 4.4 7.9 7.1 13.3 7.1s10.3-2.7 13.3-7.1l5.1-7.7c19.3-28.9 29.6-62.9 29.6-97.6V240c0-8.8-7.2-16-16-16s-16 7.2-16 16v31.6c0 23-5.5 45.6-16 65.9-10.5-20.3-16-42.9-16-65.9V240zM256 0l128 128H256V0z"/></svg>