<svg xmlns="http://www.w3.org/2000/svg" viewBox="0 0 384 512"><!--! Font Awesome Free 6.0.0 by @fontawesome - https://fontawesome.com License - https://fontawesome.com/license/free (Icons: CC BY 4.0, Fonts: SIL OFL 1.1, Code: MIT License) Copyright 2022 Fonticons, Inc.--><path d="M184 208c0-4.406-3.594-8-8-8s-8 3.6-8 8c0 2.062.297 23.31 9.141 50.25C179.1 249.6 184 226.2 184 208zM256 0v128h128L256 0zM80 422.4c0 9.656 10.47 11.97 14.38 6.375C99.27 421.9 108.8 408 120.1 388.6c-14.22 7.969-27.25 17.31-38.02 28.31-1.33 1.39-2.08 3.39-2.08 5.49zM224 128V0H48C21.49 0 0 21.49 0 48v416c0 26.5 21.49 48 48 48h288c26.51 0 48-21.49 48-48V160H256.9c-18.6 0-32.9-14.3-32.9-32zm68 184c24.26 0 44 19.74 44 44 0 24.67-18.94 44-43.13 44-5.994 0-11.81-.953-17.22-2.805-20.06-6.758-38.38-15.96-54.55-27.39-23.88 5.109-45.46 11.52-64.31 19.1-14.43 26.31-27.63 46.15-36.37 58.41C112.1 457.8 100.8 464 87.94 464 65.92 464 48 446.1 48 424.1c0-11.92 3.74-21.82 11.18-29.51 16.18-16.52 37.37-30.99 63.02-43.05 11.75-22.83 21.94-46.04 30.33-69.14-16.33-40-16.53-74-16.53-74.4 0-22.05 17.95-40 40-40 22.06 0 40 17.95 40 40 0 24.1-7.227 55.75-8.938 62.63a587.512 587.512 0 0 1-3.082 9.723c7.83 14.46 17.7 27.21 29.44 38.05C263.1 313.4 284.3 312.1 287.6 312h4.4zm-135.5 42.6c17.98-6.5 36.13-11.44 52.92-15.19-12.42-12.06-22.17-25.12-29.8-38.16a617.231 617.231 0 0 1-23.12 53.35zM292.9 368c6.1 0 11.1-5 11.1-11.1 0-7.5-5.4-12.9-12-12.9h-4c-.344.031-16.83.969-40.95 4.75 11.27 7 24.12 13.19 38.84 18.12 2.11.73 4.61 1.13 7.01 1.13z"/></svg>