<svg xmlns="http://www.w3.org/2000/svg" viewBox="0 0 384 512"><!--! Font Awesome Free 6.1.2 by @fontawesome - https://fontawesome.com License - https://fontawesome.com/license/free (Icons: CC BY 4.0, Fonts: SIL OFL 1.1, Code: MIT License) Copyright 2022 Fonticons, Inc.--><path d="M88 304h-8v-48h8c13.3 0 24 10.7 24 24s-10.7 24-24 24zm104-48h8c8.8 0 16 7.2 16 16v64c0 8.8-7.2 16-16 16h-8v-96zM224 0v128c0 17.7 14.3 32 32 32h128v288c0 35.3-28.7 64-64 64H64c-35.35 0-64-28.7-64-64V64C0 28.65 28.65 0 64 0h160zM64 224c-8.84 0-16 7.2-16 16v128c0 8.8 7.16 16 16 16s16-7.2 16-16v-32h8c30.9 0 56-25.1 56-56s-25.1-56-56-56H64zm96 144c0 8.8 7.2 16 16 16h24c26.5 0 48-21.5 48-48v-64c0-26.5-21.5-48-48-48h-24c-8.8 0-16 7.2-16 16v128zm128-144c-8.8 0-16 7.2-16 16v128c0 8.8 7.2 16 16 16s16-7.2 16-16v-48h32c8.8 0 16-7.2 16-16s-7.2-16-16-16h-32v-32h32c8.8 0 16-7.2 16-16s-7.2-16-16-16h-48zM256 0l128 128H256V0z"/></svg>