<svg xmlns="http://www.w3.org/2000/svg" viewBox="0 0 576 512"><!--! Font Awesome Free 6.1.1 by @fontawesome - https://fontawesome.com License - https://fontawesome.com/license/free (Icons: CC BY 4.0, Fonts: SIL OFL 1.1, Code: MIT License) Copyright 2022 Fonticons, Inc.--><path d="M0 64C0 28.65 28.65 0 64 0h160v128c0 17.7 14.3 32 32 32h128v38.6c-73.9 20.9-128 88.8-128 169.4 0 59.1 29.1 111.3 73.7 143.3-3.1.4-6.4.7-9.7.7H64c-35.35 0-64-28.7-64-64V64zm256 64V0l128 128H256zm320 240c0 79.5-64.5 144-144 144s-144-64.5-144-144 64.5-144 144-144 144 64.5 144 144zm-80-16.9H368c-8.8 0-16 8.1-16 16 0 9.7 7.2 16 16 16h128c8.8 0 16-6.3 16-16 0-7.9-7.2-16-16-16z"/></svg>