<svg xmlns="http://www.w3.org/2000/svg" viewBox="0 0 576 512"><!--! Font Awesome Free 6.1.1 by @fontawesome - https://fontawesome.com License - https://fontawesome.com/license/free (Icons: CC BY 4.0, Fonts: SIL OFL 1.1, Code: MIT License) Copyright 2022 Fonticons, Inc.--><path d="M3.853 22.87A39.994 39.994 0 0 1 40 0h432c15.5 0 29.5 8.904 36.1 22.87 6.7 13.97 4.6 30.5-6 42.46L396.4 195.6C316.2 212.1 255.1 283 255.1 368c0 27.4 7.2 53.4 18.4 76.5-1.7-.8-3.2-1.8-4.7-2.9l-64-48c-8.1-6-12.8-15.5-12.8-25.6v-79.1L9.042 65.33a40 40 0 0 1-5.188-42.46h-.001zM287.1 368c0-79.5 65.4-144 144.9-144s144 64.5 144 144-64.5 144-144 144-144.9-64.5-144.9-144zm204.2-36.7c6.3-6.2 6.3-16.4 0-22.6-6.2-6.3-16.4-6.3-22.6 0L432 345.4l-36.7-36.7c-6.2-6.3-16.4-6.3-22.6 0-6.3 6.2-6.3 16.4 0 22.6l36.7 36.7-36.7 36.7c-6.3 6.2-6.3 16.4 0 22.6 6.2 6.3 16.4 6.3 22.6 0l36.7-36.7 36.7 36.7c6.2 6.3 16.4 6.3 22.6 0 6.3-6.2 6.3-16.4 0-22.6L454.6 368l36.7-36.7z"/></svg>