<svg xmlns="http://www.w3.org/2000/svg" viewBox="0 0 512 512"><!--! Font Awesome Free 6.1.2 by @fontawesome - https://fontawesome.com License - https://fontawesome.com/license/free (Icons: CC BY 4.0, Fonts: SIL OFL 1.1, Code: MIT License) Copyright 2022 Fonticons, Inc.--><path d="M256.1 246c-13.25 0-23.1 10.75-23.1 23.1 1.125 72.25-8.124 141.9-27.75 211.5-3.55 10.7 1.35 31.4 22.25 31.4 10.5 0 20.12-6.875 23.12-17.5 13.5-47.87 30.1-125.4 29.5-224.5-.02-13.2-10.72-24-24.02-24zm-.9-81.7c-62.1-.2-104 47-103.1 101.1.75 47.87-3.75 95.87-13.37 142.5-2.75 12.1 5.624 25.62 18.62 28.37 12.1 2.625 25.62-5.625 28.37-18.62 10.37-50.12 15.12-101.6 14.37-152.1-.39-26.95 19.01-53.45 54.41-53.25 31.37.5 57.24 25.37 57.62 55.5.875 47.1-2.75 96.25-10.62 143.5-2.125 12.1 6.749 25.37 19.87 27.62 19.87 3.25 26.75-15.12 27.5-19.87 8.249-49.1 12.12-101.1 11.25-151.1C359.2 211.1 312.2 165.1 255.2 164.3zm-110.6-19.8c-10.4-8.4-25.4-6.9-33.9 3.4-25.45 31.5-39.32 71.4-38.7 112 .625 37.62-2.375 75.37-8.999 112.1-2.375 12.1 6.249 25.5 19.25 27.87 20.12 3.5 27.12-14.87 27.1-19.37 7.124-39.87 10.5-80.62 9.749-121.4.5-29.8 10.1-57.8 28-80.8 9.3-10.4 7.8-25.4-2.5-33.8zm108.5-62.36c-14.5-.37-30 1.38-44.9 5-12.87 2.1-20.87 15.1-17.87 28.87 3.125 12.87 15.1 20.75 28.1 17.75 11.97-2.46 23.27-3.76 34.97-3.66 75.37 1.125 137.6 61.5 138.9 134.6.5 37.87-1.375 75.1-5.624 113.6-1.5 13.12 7.999 24.1 21.12 26.5 16.75 1.1 25.5-11.87 26.5-21.12a912.394 912.394 0 0 0 5.999-119.7C438.6 165.3 355.1 83.64 253.1 82.14zm253 121.46c-2.875-12.1-15.51-21.25-28.63-18.38-12.1 2.875-21.12 15.75-18.25 28.62 4.75 21.5 4.875 37.5 4.75 61.62-.125 13.25 10.5 24.12 23.75 24.25 13.12 0 24.12-10.62 24.25-23.87.13-22.04.33-44.04-5.87-72.24zm-41-90.7C416.35 43.53 336.7 1.2 251.8 0 182.06-.875 117.6 24.84 69.6 72.96c-46.37 46.37-71.34 108-70.34 173.6l-.125 21.5c.5 13.34 10.875 24.34 24.125 24.74.25.1.5.1.75.1 12.1 0 23.62-10.37 23.1-23.37l.125-23.62C47.38 193.4 67.25 144 104.4 106.9c38.87-38.75 91.37-59.62 147.7-58.87 69.37.1 134.7 35.62 174.6 92.37 7.624 10.87 22.5 13.5 33.37 5.875C470.1 138.6 473.6 123.8 465.1 112.9z"/></svg>