<svg xmlns="http://www.w3.org/2000/svg" viewBox="0 0 640 512"><!--! Font Awesome Free 6.1.1 by @fontawesome - https://fontawesome.com License - https://fontawesome.com/license/free (Icons: CC BY 4.0, Fonts: SIL OFL 1.1, Code: MIT License) Copyright 2022 Fonticons, Inc.--><path d="M349 61.49c7.9-9.88 16.8-20.73 26.5-29.5 5.6-5.12 14.4-5.1 20 .04 24.7 22.68 45.6 52.66 60.3 81.17 14.6 28 24.2 56.7 24.2 76.9 0 87.8-71.3 161.9-160 161.9-89.7 0-160-74.2-160-161.9 0-26.4 12.7-58.6 32.4-90.58 20-32.36 48.1-66.09 81.4-95.786 5.6-4.994 13.3-4.976 19.7.039A543.88 543.88 0 0 1 349 61.49zm41 114.61c-2-4-4-8-7-12l-36 42s-58-74-62-79c-30 37-45 58-45 82 0 49 36 78 80.1 78 18.9 0 34.9-5 49.9-15 30-21 38-63 20-96zm-358 111c0-16.8 14.33-32 32-32h32c17.7 0 32 15.2 32 32 0 18.6-14.3 32-32 32V384h448v-64.9c-17.7 0-32-13.4-32-32 0-16.8 14.3-32 32-32h32c17.7 0 32 15.2 32 32V384c17.7 0 32 14.3 32 32v64c0 17.7-14.3 32-32 32H32c-17.67 0-32-14.3-32-32v-64c0-17.7 14.33-32 32-32v-96.9zM320 480c17.7 0 32-14.3 32-32s-14.3-32-32-32-32 14.3-32 32 14.3 32 32 32zm128-64c-17.7 0-32 14.3-32 32s14.3 32 32 32 32-14.3 32-32-14.3-32-32-32zm-256 64c17.7 0 32-14.3 32-32s-14.3-32-32-32-32 14.3-32 32 14.3 32 32 32z"/></svg>