<svg xmlns="http://www.w3.org/2000/svg" viewBox="0 0 576 512"><!--! Font Awesome Free 6.1.2 by @fontawesome - https://fontawesome.com License - https://fontawesome.com/license/free (Icons: CC BY 4.0, Fonts: SIL OFL 1.1, Code: MIT License) Copyright 2022 Fonticons, Inc.--><path d="M352.8 96.61c54.9 3.99 101.5 26.99 137.2 53.79 39.2 29.4 67.3 64.7 81.7 89.5 5.7 10 5.7 22.2 0 32.2-14.4 24.8-42.5 60.1-81.7 89.5-35.7 26.8-82.3 49.8-137.2 53.8l-77.6 58.2c-10.6 8-25 8.5-36.3 1.5-11.2-7.1-16.9-20.4-14.3-33.4l9.7-48.6c-20.2-9-36.8-19.9-53.2-31.5-14.5-11.5-29-23.9-39.9-36.3l-93.08 54.3c-12.51 7.3-28.36 5.3-38.645-4.9a31.989 31.989 0 0 1-5.258-38.6L50 256 4.217 175.9a31.989 31.989 0 0 1 5.258-38.6c10.285-10.2 26.135-12.2 38.645-4.9l93.08 54.3c10.9-12.4 25.4-24.8 39.9-36.3 16.4-11.6 33-22.5 53.2-31.5l-9.7-48.62C222 57.27 227.7 44 238.9 36.93c11.3-7.08 25.7-6.49 36.3 1.47l77.6 58.21zM416 224c-17.7 0-32 14.3-32 32s14.3 32 32 32 32-14.3 32-32-14.3-32-32-32z"/></svg>