<svg xmlns="http://www.w3.org/2000/svg" viewBox="0 0 384 512"><!--! Font Awesome Free 6.1.2 by @fontawesome - https://fontawesome.com License - https://fontawesome.com/license/free (Icons: CC BY 4.0, Fonts: SIL OFL 1.1, Code: MIT License) Copyright 2022 Fonticons, Inc.--><path d="M352 32c17.7 0 32 14.33 32 32s-14.3 32-32 32h-37.3c-13 0-24.6 7.8-29.6 19.7L240 224h80c17.7 0 32 14.3 32 32s-14.3 32-32 32H213.3l-55.4 132.9C143 456.7 108.1 480 69.33 480H32c-17.67 0-32-14.3-32-32s14.33-32 32-32h37.33c12.92 0 24.57-7.8 29.54-19.7L144 288H64c-17.67 0-32-14.3-32-32s14.33-32 32-32h106.7l55.4-132.92C240.1 55.3 275.9 32 314.7 32H352z"/></svg>