<svg xmlns="http://www.w3.org/2000/svg" viewBox="0 0 512 512"><!--! Font Awesome Free 6.1.1 by @fontawesome - https://fontawesome.com License - https://fontawesome.com/license/free (Icons: CC BY 4.0, Fonts: SIL OFL 1.1, Code: MIT License) Copyright 2022 Fonticons, Inc.--><path d="M16.17 337.5c0 44.98 7.565 83.54 13.98 107.9C35.22 464.3 50.46 496 174.9 496c9.566 0 19.59-.47 29.84-1.271L17.33 307.3c-.8 10.3-1.16 20.4-1.16 30.2zm479.63-163c0-44.98-7.565-83.53-13.98-107.9-4.688-17.54-18.34-31.23-36.04-35.95C435.5 27.91 392.9 16 337 16c-9.564 0-19.59.47-29.84 1.271l187.5 187.5c.84-10.371 1.14-20.471 1.14-30.271zM26.77 248.8l236.3 236.3c142-36.1 203.9-150.4 222.2-221.1L248.9 26.87C106.9 62.96 45.07 177.2 26.77 248.8zM256 335.1c0 9.141-7.474 16-16 16a15.939 15.939 0 0 1-11.31-4.689L164.7 283.3c-3.1-3.1-4.7-7.2-4.7-12.2 0-8.529 6.865-16 16-16a15.93 15.93 0 0 1 11.31 4.688l64.01 64C254.4 327.8 256 331.9 256 335.1zm48-48c0 9.141-7.474 16-16 16a15.939 15.939 0 0 1-11.31-4.689L212.7 235.3c-3.1-3.1-4.7-7.2-4.7-12.2 0-9.141 7.473-16 16-16 4.094 0 8.188 1.562 11.31 4.688l64.01 64.01C302.5 279.8 304 283.9 304 287.1zm-48-112c0-9.141 7.473-16 16-16 4.094 0 8.188 1.562 11.31 4.688l64.01 64.01a15.948 15.948 0 0 1 4.688 11.31c0 9.133-7.468 16-16 16a15.932 15.932 0 0 1-11.31-4.688l-64.01-64.01C257.6 184.2 256 180.1 256 175.1z"/></svg>