<svg xmlns="http://www.w3.org/2000/svg" viewBox="0 0 640 512"><!--! Font Awesome Free 6.3.0 by @fontawesome - https://fontawesome.com License - https://fontawesome.com/license/free (Icons: CC BY 4.0, Fonts: SIL OFL 1.1, Code: MIT License) Copyright 2023 Fonticons, Inc.--><path d="M192 64C86 64 0 150 0 256s86 192 192 192h256c106 0 192-86 192-192S554 64 448 64H192zm304 184c-22.1 0-40-17.9-40-40s17.9-40 40-40 40 17.9 40 40-17.9 40-40 40zm-24 56c0 22.1-17.9 40-40 40s-40-17.9-40-40 17.9-40 40-40 40 17.9 40 40zM168 200c0-13.3 10.7-24 24-24s24 10.7 24 24v32h32c13.3 0 24 10.7 24 24s-10.7 24-24 24h-32v32c0 13.3-10.7 24-24 24s-24-10.7-24-24v-32h-32c-13.3 0-24-10.7-24-24s10.7-24 24-24h32v-32z"/></svg>