<svg xmlns="http://www.w3.org/2000/svg" viewBox="0 0 512 512"><!--! Font Awesome Free 6.1.2 by @fontawesome - https://fontawesome.com License - https://fontawesome.com/license/free (Icons: CC BY 4.0, Fonts: SIL OFL 1.1, Code: MIT License) Copyright 2022 Fonticons, Inc.--><path d="M512 216.3a23.85 23.85 0 0 0-7.031-16.93L482.3 176.8c-4.688-4.686-10.84-7.028-16.1-7.028s-12.31 2.343-16.1 7.028l-5.625 5.625L329.6 69.28l5.625-5.625c4.687-4.688 7.03-10.84 7.03-16.1s-2.343-12.31-7.03-16.1l-22.62-22.62C307.9 2.344 301.8 0 295.7 0s-12.15 2.344-16.84 7.031L154.2 131.5c-4.6 4.7-7 10.8-7 17s2.344 12.25 7.031 16.94l22.62 22.62c4.688 4.688 10.84 7.031 16.1 7.031 6.156 0 12.31-2.344 16.1-7.031l5.625-5.625 113.1 113.1-5.625 5.621c-4.688 4.688-7.031 10.84-7.031 16.1s2.344 12.31 7.031 16.1l22.62 22.62c4.688 4.688 10.81 7.031 16.94 7.031s12.25-2.344 16.94-7.031l124.5-124.6C509.7 228.5 512 222.5 512 216.3zm-284.2 21.8-58.4 59.3c-6.3-6.3-14.5-9.4-22.7-9.4s-16.3 3.1-22.6 9.4L9.4 412.1C3.15 418.348.025 426.53.025 434.72S3.15 451.09 9.4 457.34l45.25 45.25c6.22 6.31 14.41 9.41 22.6 9.41s16.37-3.125 22.62-9.375l114.7-114.7a31.899 31.899 0 0 0 9.376-22.62c0-8.185-3.125-16.37-9.374-22.62l58.43-58.43L227.8 238.1z"/></svg>