<svg xmlns="http://www.w3.org/2000/svg" viewBox="0 0 640 512"><!--! Font Awesome Free 6.1.1 by @fontawesome - https://fontawesome.com License - https://fontawesome.com/license/free (Icons: CC BY 4.0, Fonts: SIL OFL 1.1, Code: MIT License) Copyright 2022 Fonticons, Inc.--><path d="m192.5 55.09 25.4-18.5c10.7-7.8 25.7-5.43 33.5 5.29 7.8 10.72 5.4 25.73-5.3 33.53L217.8 95.1H240c16.9 0 31.7 9.6 40.3 22.8-23 17.8-38.4 44.2-40.1 75.2-27.7 7.9-48.2 33-48.2 62.9v224c0 11.7 3.1 22.6 8.6 32H48c-26.51 0-48-21.5-48-48V144c0-26.5 21.49-48 48-48h22.2L41.88 75.41c-10.72-7.8-13.09-22.81-5.29-33.53 7.8-10.72 22.81-13.09 33.53-5.29l27.43 19.95-8.32-24.95C85.04 19.01 91.84 5.423 104.4 1.232c11.7-4.192 26.2 2.604 30.4 15.178l9.9 29.76 10.7-30.18C159.8 3.493 173.5-3.048 186 1.377c12.5 4.425 19 18.143 14.6 30.633l-8.1 23.08zm151.7 72.01c22.4 0 43.6 11.3 57.3 29.1l30.5 39.6 30.5-39.6c13.7-17.8 34.9-29.1 57.3-29.1 39.7 0 72.2 33 72.2 72 0 9.3-1.4 17.4-4.1 24h4.1c26.5 0 48 22.4 48 48V352H448v-96.9h-32V352H224v-80.9c0-25.6 21.5-48 48-48h4.1c-2.7-6.6-4.1-14.7-4.1-24 0-39 32.5-72 72.2-72zm19.3 58.4c-4.6-6-11.8-10.4-19.3-10.4-13.4 0-24.2 11.8-24.2 24 0 14.2 10.7 24 24 24h49.1l-29.6-37.6zm156.3-10.4c-7.5 0-14.7 4.4-19.3 10.4l-29.6 37.6H520c13.3 0 24-9.8 24-24 0-12.2-10.8-24-24.2-24zM224 464v-80h192v128H272c-26.5 0-48-21.5-48-48zm224 48V384h192v80c0 26.5-21.5 48-48 48H448z"/></svg>