<svg xmlns="http://www.w3.org/2000/svg" viewBox="0 0 576 512"><!--! Font Awesome Free 6.1.2 by @fontawesome - https://fontawesome.com License - https://fontawesome.com/license/free (Icons: CC BY 4.0, Fonts: SIL OFL 1.1, Code: MIT License) Copyright 2022 Fonticons, Inc.--><path d="M574.1 280.4 528.72 98.6c-5.875-23.63-21.62-44-43-55.75-21.5-11.75-46.1-14.13-70.25-6.375L400.22 41.6c-8.375 2.75-12.87 11.88-10 20.25l5 15.13c2.75 8.375 11.88 12.88 20.25 10.13l13.12-4.375c10.88-3.625 23-3.625 33.25 1.75s17.5 14.5 20.38 25.75l38.38 153.9c-22.12-6.875-49.75-12.5-81.13-12.5-34.88 0-73.1 7-114.9 26.75H251.4c-40.9-19.785-80-26.785-114.9-26.785-31.38 0-59 5.625-81.12 12.5l38.38-153.9c2.875-11.25 10.12-20.38 20.5-25.75 10.14-5.33 22.24-5.33 33.14-1.71l13.12 4.375c8.375 2.75 17.5-1.75 20.25-10.13l5-15.13c2.83-8.365-1.67-17.485-10.17-20.235l-15.25-5.125c-23.13-7.75-48.75-5.375-70.13 6.375C68.85 54.62 53.1 75 47.22 98.62L1.875 280.4C.625 285.4 0 290.6 0 295.9v70.25C0 428.1 51.63 480 115.3 480h37.13c60.25 0 110.4-46 114.9-105.4l2.875-38.63h35.75l2.875 38.63C313.3 433.1 363.4 480 423.6 480h37.13c63.62 0 115.2-51 115.2-113.9v-70.2c.07-5.3-.53-10.4-1.83-15.5zm-370.7 89.3c-2 26-24.38 46.25-51 46.25h-37.2C87 415.1 64 393.6 64 366.1v-37.5c18.12-6.5 43.38-13 72.62-13 23.88 0 47.25 4.375 69.88 13l-3.1 41.1zm308.6-3.6c0 27.5-23 49.88-51.25 49.88h-37.13c-26.62 0-49-20.25-51-46.25l-3.125-41.13c22.62-8.625 46.13-13 70-13 29 0 54.38 6.5 72.5 13v37.5z"/></svg>