<svg xmlns="http://www.w3.org/2000/svg" viewBox="0 0 448 512"><!--! Font Awesome Free 6.2.0 by @fontawesome - https://fontawesome.com License - https://fontawesome.com/license/free (Icons: CC BY 4.0, Fonts: SIL OFL 1.1, Code: MIT License) Copyright 2022 Fonticons, Inc.--><path d="M64 0c-8.9 0-17.4 3.7-23.4 10.2s-9.1 15.2-8.5 24.1l28.8 403.4c3 41.9 37.8 74.3 79.8 74.3h166.6c42 0 76.8-32.4 79.8-74.3l28.8-403.4c.6-8.9-2.4-17.6-8.5-24.1S392.9 0 384 0H64zm51 297.5L98.4 64h251.2L333 297.5l-13 6.5c-20.1 10.1-43.9 10.1-64 0s-43.9-10.1-64 0-43.9 10.1-64 0l-13-6.5zM288 196c0-24-33.7-70.1-52.2-93.5-6.1-7.7-17.5-7.7-23.6 0C193.7 125.9 160 172 160 196c0 33.1 28.7 60 64 60s64-26.9 64-60z"/></svg>