<svg xmlns="http://www.w3.org/2000/svg" viewBox="0 0 448 512"><!--! Font Awesome Free 6.2.0 by @fontawesome - https://fontawesome.com License - https://fontawesome.com/license/free (Icons: CC BY 4.0, Fonts: SIL OFL 1.1, Code: MIT License) Copyright 2022 Fonticons, Inc.--><path d="M64 0c-8.9 0-17.4 3.7-23.4 10.2s-9.1 15.2-8.5 24.1l28.8 403.4c3 41.9 37.8 74.3 79.8 74.3h166.6c42 0 76.8-32.4 79.8-74.3l28.8-403.4c.6-8.9-2.4-17.6-8.5-24.1S392.9 0 384 0H64zm41 156.5L98.4 64h251.2l-6.6 92.5-24.2 12.1c-19.4 9.7-42.2 9.7-61.6 0a74.556 74.556 0 0 0-66.4 0c-19.4 9.7-42.2 9.7-61.6 0L105 156.5z"/></svg>