<svg xmlns="http://www.w3.org/2000/svg" viewBox="0 0 320 512"><!--! Font Awesome Free 6.3.0 by @fontawesome - https://fontawesome.com License - https://fontawesome.com/license/free (Icons: CC BY 4.0, Fonts: SIL OFL 1.1, Code: MIT License) Copyright 2023 Fonticons, Inc.--><path d="M40 352c-22.1 0-40 17.9-40 40v48c0 22.1 17.9 40 40 40h48c22.1 0 40-17.9 40-40v-48c0-22.1-17.9-40-40-40H40zm192 0c-22.1 0-40 17.9-40 40v48c0 22.1 17.9 40 40 40h48c22.1 0 40-17.9 40-40v-48c0-22.1-17.9-40-40-40h-48zM40 320h48c22.1 0 40-17.9 40-40v-48c0-22.1-17.9-40-40-40H40c-22.1 0-40 17.9-40 40v48c0 22.1 17.9 40 40 40zm192-128c-22.1 0-40 17.9-40 40v48c0 22.1 17.9 40 40 40h48c22.1 0 40-17.9 40-40v-48c0-22.1-17.9-40-40-40h-48zM40 160h48c22.1 0 40-17.9 40-40V72c0-22.1-17.9-40-40-40H40C17.9 32 0 49.9 0 72v48c0 22.1 17.9 40 40 40zM232 32c-22.1 0-40 17.9-40 40v48c0 22.1 17.9 40 40 40h48c22.1 0 40-17.9 40-40V72c0-22.1-17.9-40-40-40h-48z"/></svg>