<svg xmlns="http://www.w3.org/2000/svg" viewBox="0 0 512 512"><!--! Font Awesome Free 6.1.2 by @fontawesome - https://fontawesome.com License - https://fontawesome.com/license/free (Icons: CC BY 4.0, Fonts: SIL OFL 1.1, Code: MIT License) Copyright 2022 Fonticons, Inc.--><path d="M502.7 39.02 473 9.37c-12.5-12.5-32.74-12.49-45.24.01l-46.24 46.37c-3.875 3.876-6.848 8.507-8.598 13.76l-12.19 36.51L284.5 182.3c-12.1-8.8-25.5-15.8-40.1-19.2-33.4-7.7-67-.8-89.9 22-9.2 9.4-16.2 20.9-20.2 33.5-6 18.5-23.2 32.7-42.16 34.4-23.62 2.4-45.75 11.5-62.62 28.5C-16.1 327-7.86 409 47.64 464.5c55.37 55.38 137.4 63.51 182.9 18 16.1-16.88 26.25-38.85 28.5-62.72 1.75-18.75 15.84-36.16 34.47-42.16 12.5-3.875 24.03-10.87 33.4-20.25 22.87-22.88 29.75-56.38 21.1-89.76-3.375-14.63-10.39-27.99-19.14-40.11l76.25-76.26 36.53-12.17a36.095 36.095 0 0 0 13.77-8.59l46.36-46.29c13.42-12.47 13.42-32.67.92-45.17zM208 352c-26.5 0-48-21.5-48-48s21.5-48 48-48 47.1 21.5 47.1 48c.9 26.5-20.6 48-47.1 48z"/></svg>