<svg xmlns="http://www.w3.org/2000/svg" viewBox="0 0 448 512"><!--! Font Awesome Free 6.1.1 by @fontawesome - https://fontawesome.com License - https://fontawesome.com/license/free (Icons: CC BY 4.0, Fonts: SIL OFL 1.1, Code: MIT License) Copyright 2022 Fonticons, Inc.--><path d="M288 288c17.69 0 32-14.33 32-32v-64c0-17.67-14.31-32-32-32s-32 14.33-32 32v64c0 17.7 14.3 32 32 32zm-64-43.6V160c0-17.67-14.31-32-32-32s-32 14.3-32 32v80h40c8.5 0 16.5 1.7 24 4.4zm-96-4.4V32c0-17.67-14.31-32-32-32S64 14.33 64 32v208.8c2.66-.3 5.26-.8 8-.8h56zm256-48c-17.69 0-32 14.33-32 32v64c0 17.67 14.31 32 32 32s32-14.33 32-32v-64c0-17.7-14.3-32-32-32zm-60.2 117c-10.2 6.1-22.5 11-35.8 11-5.766 0-11.24-1.08-16.55-2.51C268.6 354.6 237.9 384 200 384h-72.9c-7.9 0-15.1-7.2-15.1-16s7.2-16 15.1-16h69.72c15.52 0 42.28-11.29 42.28-40 0-22.1-17-40-39.1-40H72c-22.09 0-40 17.9-40 40v63.41c0 33.13 16 64.56 42.81 84.13l36.41 26.45A136.183 136.183 0 0 0 191.3 512H280c75.11 0 136-60.89 136-136v-32.88c-9.4 5.48-20.3 8.88-32 8.88-27.9 0-51.4-18.9-60.2-43z"/></svg>