<svg xmlns="http://www.w3.org/2000/svg" viewBox="0 0 640 512"><!--! Font Awesome Free 6.1.1 by @fontawesome - https://fontawesome.com License - https://fontawesome.com/license/free (Icons: CC BY 4.0, Fonts: SIL OFL 1.1, Code: MIT License) Copyright 2022 Fonticons, Inc.--><path d="M448 432c0-14.25 8.547-28.14 21.28-34.55l39.56-16.56 15.64-37.52c4.461-9.037 11.45-15.37 19.43-19.23L544 128c0-17.67-14.33-32-32-32s-32 14.33-32 32l-.016 112c0 8.836-7.148 16-15.98 16s-16.07-7.164-16.07-16L448 64c0-17.67-14.33-32-32-32s-32 14.33-32 32l-.064 176c0 8.836-7.105 16-15.94 16s-16.096-7.2-16.096-16l.1-208c0-17.67-14.33-32-32-32s-32 14.33-32 32l-.1 208c0 8.8-7.1 16-15.9 16s-16.1-7.2-16.1-16l.1-176c0-17.67-14.33-32-32-32s-32 14.33-32 32v279.4l-59.7-59.7c-7.8-7.8-18.1-11.7-28.3-11.7-21.32 0-40 17.2-40 40 0 10.23 3.906 20.47 11.72 28.28l113.1 113.1C226.6 491.2 276.9 512 330.3 512H368c42.72 0 81.91-15.32 112.4-40.73l-9.049-3.773C456.6 460.1 448 446.3 448 432zm-98.2-60.4L320 383.1l-12.42 29.78C306.1 415 305.4 416 304 416s-2.969-.994-3.578-2.219L288 383.1l-29.79-12.42c-2.11-.58-2.21-1.28-2.21-3.58 0-1.365.992-2.967 2.209-3.577L288 352l12.42-29.79C301 320.1 302.6 320 304 320s2.967.99 3.578 2.217L320 352l29.79 12.42c1.21.58 2.21 2.18 2.21 2.68 0 2.3-1 3-2.2 4.5zM80 224c2.277 0 4.943-1.656 5.959-3.699l20.7-49.63 49.65-20.71c2.027-1.014 3.682-3.696 3.686-5.958C159.1 141.7 158.3 139.1 156.3 138l-49.6-20.6-20.74-49.7C84.94 65.65 82.28 64 80 64s-4.95 1.65-5.96 3.7l-20.7 49.6L3.695 138c-2.027 1.1-3.683 3.7-3.687 5.1.004 2.262 1.662 4.953 3.688 5.967l49.57 20.67 20.77 49.67C75.05 222.3 77.72 224 80 224zm559.1 208c-.004-2.275-1.657-4.952-3.687-5.968l-49.57-20.67-20.77-49.67C564.9 353.7 562.3 352 560 352c-2.281 0-4.959 1.652-5.975 3.695l-20.7 49.63-49.64 20.71c-2.027 1.016-3.682 3.683-3.686 5.958.004 2.262 1.661 4.954 3.686 5.968l49.57 20.67 20.77 49.67C555.1 510.3 557.7 512 560 512c2.277 0 4.933-1.656 5.949-3.699l20.7-49.63 49.65-20.71C638.3 436.9 639.1 434.3 639.1 432z"/></svg>