<svg xmlns="http://www.w3.org/2000/svg" viewBox="0 0 640 512"><!--! Font Awesome Free 6.1.1 by @fontawesome - https://fontawesome.com License - https://fontawesome.com/license/free (Icons: CC BY 4.0, Fonts: SIL OFL 1.1, Code: MIT License) Copyright 2022 Fonticons, Inc.--><path d="M543.1 128.2V352c0 17.62 14.25 31.99 31.1 31.99h64V128.1l-95.1.1zm48 223.8c-8.75 0-16-7.251-16-15.99 0-8.875 7.25-15.1 16-15.1s15.1 7.122 15.1 15.1c.9 8.79-5.5 15.99-15.1 15.99zM0 128.2v255.7l63.1.045c17.75 0 32-14.28 32-32.03L96 171.9l-55.77-43.71H0zM64 336c0 8.742-7.25 15.99-15.1 15.99S33.8 344.739 33.8 336c0-8.875 7.25-15.1 15.1-15.1S64 327.2 64 336zm64 15.8h18.25l90.5 81.85c27.5 22.37 67.75 18.12 89.1-9.25l18.12 15.25c15.87 12.1 39.37 10.5 52.37-5.371l13.02-16.03L128 196.1v155.7zm367.2 11c-.188-9.101-3.824-18.05-11.44-24.24l-149.2-121.1-11.47 10.51-25.59-20.07 65.33-59.79c6.5-5.871 16.75-5.496 22.62 1 5.1 6.496 5.5 16.62-1 22.62l-26.12 23.87 145.6 118.1c2.875 2.496 5.5 4.996 7.875 7.742V127.1a218.5 218.5 0 0 0-154.5-63.98h-8.613c-7.941 0-15.64 2.97-21.5 8.329L233.7 157.9l-25.4-20 80.85-73.92-6.65.02c-43.47 0-85.16 13.68-120.8 37.45L38.81 5.109A23.96 23.96 0 0 0 24.03 0C16.91 0 9.846 3.156 5.127 9.187-3.06 19.62-1.248 34.72 9.19 42.89l591.1 463.1c10.5 8.203 25.56 6.328 33.69-4.078 8.187-10.44 6.375-25.53-4.062-33.7L495.2 362.8z"/></svg>