<svg xmlns="http://www.w3.org/2000/svg" viewBox="0 0 640 512"><!--! Font Awesome Free 6.1.2 by @fontawesome - https://fontawesome.com License - https://fontawesome.com/license/free (Icons: CC BY 4.0, Fonts: SIL OFL 1.1, Code: MIT License) Copyright 2022 Fonticons, Inc.--><path d="M279.1 40c0-22.09 18.8-40 40-40 23 0 40.9 17.91 40.9 40s-17.9 40-40.9 40c-21.2 0-40-17.91-40-40zm96.7 213c1.7 13.2-7.7 25.2-21.7 26.8-12.3 1.7-24.3-7.7-25.9-21.7l-4.4-35h-7.6l-4.4 35c-1.6 14-13.6 23.4-26.8 21.7-13.1-1.6-22.5-13.6-20.8-26.8l11.1-88.7-19.8 15.8c-10.1 9.5-25.3 8.2-33.8-1.9-8.6-10.2-7.3-25.3 2.8-33.9l27.9-23.6C271.3 104.8 295.3 96 320 96c24.7 0 48.7 8.8 67.6 24.7l27.9 23.6c10.1 8.6 11.4 23.7 2.8 33.9-8.5 10.1-23.7 11.4-33.8 1.9l-19.8-15.8 11.1 88.7zM39.1 64c22.99 0 40 17.91 40 40v160.2c0 17 7.64 33.3 19.64 45.3l51.06 51.1c8.3 8.3 21.3 9.5 31 3.1 12.9-8.7 14.7-26.9 3.8-37.9l-47.2-47.2c-12.5-12.5-12.5-32.7 0-45.2s32.7-12.5 45.2 0l72.6 72.5c21 21 32.8 49.5 32.8 79.2V464c0 26.5-21.5 48-48 48h-66.7c-17 0-33.3-6.7-45.3-18.7l-99.88-99.9C10.11 375.4 0 350.1 0 325.5V104c0-22.09 17.91-40 40-40h-.9zM640 104v221.5c0 24.6-10.1 49.9-28.1 67.9L512 493.3c-12.9 12-28.3 18.7-45.3 18.7H400c-26.5 0-48-21.5-48-48v-78.9c0-29.7 11.8-58.2 32.8-79.2l72.6-72.5c12.5-12.5 32.7-12.5 45.2 0s12.5 32.7 0 45.2l-47.2 47.2c-10.9 11-9.1 29.2 3.8 37.9 9.7 6.4 22.7 5.2 31-3.1l51.1-51.1c12-12 18.7-28.3 18.7-45.3V103.1c0-21.19 17.9-40 40-40s40 18.81 40 40v.9z"/></svg>