<svg xmlns="http://www.w3.org/2000/svg" viewBox="0 0 448 512"><!--! Font Awesome Free 6.1.1 by @fontawesome - https://fontawesome.com License - https://fontawesome.com/license/free (Icons: CC BY 4.0, Fonts: SIL OFL 1.1, Code: MIT License) Copyright 2022 Fonticons, Inc.--><path d="M224 180.4V32c0-17.67-14.31-32-32-32s-32 14.33-32 32v144h40c8.5 0 16.5 1.7 24 4.4zm-96-4.4V64c0-17.67-14.31-32-32-32S64 46.33 64 64v112.8c2.66-.3 5.26-.8 8-.8h56zm160 16c17.69 0 32-14.33 32-32V64c0-17.67-14.31-32-32-32s-32 14.33-32 32v96c0 17.7 14.3 32 32 32zm96-96c-17.69 0-32 14.33-32 32v64c0 17.67 14.31 32 32 32s32-14.34 32-32.02V128c0-17.7-14.3-32-32-32zm-33.1 150.2a64.138 64.138 0 0 1-26.88-33.25C313.7 219.9 301.3 223.9 288 223.9c-7.641 0-14.87-1.502-21.66-3.957C269.1 228.6 272 238.1 272 248c0 39.77-32.25 72-72 72h-72c-8.836 0-16-7.164-16-16 0-8.8 7.2-16 16-16h72c22.09 0 40-17.91 40-40s-17.9-40-40-40H72c-22.09 0-40 17.9-40 40v63.41c0 33.13 16 64.56 42.81 84.13L128 434.2V512h224v-85.09c38.3-24.09 64-66.42 64-114.9V247.1c-9.4 5.5-20.3 8.9-32 8.9-12.3 0-23.5-3.8-33.1-9.8z"/></svg>