<svg xmlns="http://www.w3.org/2000/svg" viewBox="0 0 640 512"><!--! Font Awesome Free 6.1.2 by @fontawesome - https://fontawesome.com License - https://fontawesome.com/license/free (Icons: CC BY 4.0, Fonts: SIL OFL 1.1, Code: MIT License) Copyright 2022 Fonticons, Inc.--><path d="m0 383.9 64 .04c17.75 0 32-14.29 32-32.03V128.3H0v255.6zm48-63.8c8.75 0 16 7.118 16 15.99 0 8.742-7.25 15.99-16 15.99s-16-7.28-16-15.98c0-8.9 7.25-16 16-16zM348.8 64c-7.941 0-15.66 2.969-21.52 8.328L228.9 162.3c-.1.2-.1.4-.3.4-16.6 15.6-16.3 40.5-2.1 56 12.75 13.1 39.38 17.62 56.13 2.75.17-.15.27-.15.37-.25l79.88-73.1c6.5-5.871 16.75-5.496 22.62 1 6 6.496 5.5 16.62-1 22.62l-26.12 23.87L504 313.7c2.875 2.496 5.5 4.996 7.875 7.742V127.1c-40.98-40.96-96.48-63.88-154.4-63.88L348.8 64zm-14.2 153.4-30 27.49c-29.75 27.11-75.25 24.49-101.8-4.371C176 211.2 178.1 165.7 207.3 138.9L289.1 64h-6.6c-57.8 0-113.4 23.08-154.3 63.9l-.2 223.9 18.25.037 90.5 81.82c27.5 22.37 67.75 18.12 90-9.246l18.12 15.24c15.88 12.1 39.38 10.5 52.38-5.371l31.38-38.6 5.374 4.498c13.75 11 33.88 9.002 45-4.748l9.538-11.78c11.12-13.75 9.036-33.78-4.694-44.93L334.6 217.4zm209.4-89V352c0 17.62 14.25 32.05 31.1 32.05L640 384V128.1l-96 .3zM592 352c-8.75 0-16-7.246-16-15.99 0-8.875 7.25-15.99 16-15.99s16 7.18 16 16.08c0 8.7-7.2 15.9-16 15.9z"/></svg>