<svg xmlns="http://www.w3.org/2000/svg" viewBox="0 0 640 512"><!--! Font Awesome Free 6.1.1 by @fontawesome - https://fontawesome.com License - https://fontawesome.com/license/free (Icons: CC BY 4.0, Fonts: SIL OFL 1.1, Code: MIT License) Copyright 2022 Fonticons, Inc.--><path d="M272 191.9c-17.62 0-32 14.35-32 31.97v80.03c0 8.875-7.125 16-16 16s-16-7.125-16-16v-76.5c0-17.37 4.75-34.5 13.75-49.37L299.5 48.41c9-15.12 4.125-34.76-11-43.88-15.4-8.755-32.7-4.401-42.4 9.1-1 .25-.6.25-.7.5L128.1 190c-10.6 15.9-16.1 34.3-16.1 53.3v80.24l-90.13 29.1C8.75 357.9 0 370.1 0 383.9v95.99c0 10.88 8.5 31.1 32 31.1 2.75 0 5.375-.25 8-1l179.3-46.62C269.1 450 304 403.8 304 351.9v-128c0-17.6-14.4-32-32-32zm346.1 161.7-90.1-30v-80.2c0-19-5.5-37.37-16.12-53.25l-117.3-175.9c-.125-.25-.625-.249-.75-.499-9.625-13.5-27.88-17.85-42.38-9.229-15.12 9.125-20 28.76-11 44.01l77.75 129.5C427.3 193 432 210 432 227.5v76.49c0 8.875-7.125 16-16 16s-16-7.125-16-16V223.1c0-17.62-14.38-31.97-32-31.97s-32 14.38-32 31.1v127.1c0 51.87 34.88 98.12 84.75 112.4L600 511c2.6.6 5.4 1 8 1 23.5 0 32-21.25 32-31.1v-95.99c0-14.61-8.7-26.91-21.9-31.31z"/></svg>