<svg xmlns="http://www.w3.org/2000/svg" viewBox="0 0 576 512"><!--! Font Awesome Free 6.1.1 by @fontawesome - https://fontawesome.com License - https://fontawesome.com/license/free (Icons: CC BY 4.0, Fonts: SIL OFL 1.1, Code: MIT License) Copyright 2022 Fonticons, Inc.--><path d="m559.7 392.2-135.1 99.51C406.9 504.8 385 512 362.1 512h-347C6.351 512 0 504.754 0 496.01v-95.99C0 391.272 7.25 384 15.1 384l55.37.024 46.5-37.74c20.1-16.1 47.12-26.25 74.12-26.25h159.1c19.5 0 34.87 17.37 31.62 37.37-2.625 15.75-17.37 26.62-33.37 26.62H271.1c-8.749 0-15.1 7.249-15.1 15.1s7.25 15.1 15.1 15.1h120.6l119.7-88.17c17.8-13.19 42.81-9.342 55.93 8.467C581.3 354.1 577.5 379.1 559.7 392.2z"/></svg>