<svg xmlns="http://www.w3.org/2000/svg" viewBox="0 0 512 512"><!--! Font Awesome Free 6.1.1 by @fontawesome - https://fontawesome.com License - https://fontawesome.com/license/free (Icons: CC BY 4.0, Fonts: SIL OFL 1.1, Code: MIT License) Copyright 2022 Fonticons, Inc.--><path d="m328.7 52.28 103 67.52c17.8 13.1 21.6 38.1 8.5 55.9-13.1 17.8-38.1 21.6-55.9 8.5l-87.7-57.1H191.1c-7.9 0-16 8.1-16 16 0 9.6 8.1 16 16 16h63.1c16 0 29.9 11.8 33.4 27.5 3.2 20-12.1 36.5-32.5 36.5h-112c-27 0-52.23-8.4-73.23-25.4l-46.5-38.6-8.27.9C7.25 160 0 152.7 0 143.1V47.99C0 39.25 7.25 32 15.1 32h251c22.9 0 44.8 7.19 62.6 20.28zM151.3 459.7 16.27 360.2c-17.779-13.1-21.575-38.1-8.467-55.9 13.127-17.8 38.137-21.6 55.937-8.5L183.4 384H304c8.8 0 16-7.2 16-16 0-8.7-7.2-16-16-16h-78.2c-16 0-30.8-10.9-33.4-26.6-3.2-20 12.1-37.4 31.6-37.4h128c27 0 53.1 9.3 74.1 26.3l46.5 37.7H496c8.7 0 16 7.3 16 16v96c0 8.8-7.3 16-16 16H213c-22.9 0-43.9-7.2-61.7-20.3z"/></svg>