<svg xmlns="http://www.w3.org/2000/svg" viewBox="0 0 640 512"><!--! Font Awesome Free 6.1.1 by @fontawesome - https://fontawesome.com License - https://fontawesome.com/license/free (Icons: CC BY 4.0, Fonts: SIL OFL 1.1, Code: MIT License) Copyright 2022 Fonticons, Inc.--><path d="M208 112C208 50.14 258.1 0 320 0s112 50.14 112 112c0 61.9-50.1 112-112 112s-112-50.1-112-112zM80 258.7l60.3 80.3c9.4 12.6 27.4 14.8 39.6 4.8 10.5-8.7 13.2-24.7 6.1-35.5l-21.4-35.8c-8.7-14.5-4.7-33.2 9.1-42.8 13.9-9.6 32.8-6.8 42.4 6.3l47.4 58.1c15.8 19 24.5 44.5 24.5 70V480c0 17.7-14.3 32-32 32h-96c-9.7 0-18.9-4.4-25-12.9L14.02 348.8C4.946 337.4 0 323.3 0 308.8V103.1c0-21.19 17.91-40 40-40s40 18.81 40 40v155.6zM640 104v204.8c0 14.5-4.9 28.6-14.9 40l-121 150.3c-5.2 8.5-14.4 12.9-24.1 12.9h-96c-17.7 0-32-14.3-32-32V364.1c0-25.5 8.7-51 24.5-70L423 236c10.5-13.1 29.4-15.9 43.3-6.3 13.8 9.6 17.8 28.3 9.1 42.8l-22.3 35.8c-6.2 10.8-3.5 26.8 7.1 35.5 12.1 10 30.1 7.8 39.5-4.8l60.3-80.3V104c0-22.09 17.9-40 40-40s40 17.91 40 40z"/></svg>