<svg xmlns="http://www.w3.org/2000/svg" viewBox="0 0 576 512"><!--! Font Awesome Free 6.1.1 by @fontawesome - https://fontawesome.com License - https://fontawesome.com/license/free (Icons: CC BY 4.0, Fonts: SIL OFL 1.1, Code: MIT License) Copyright 2022 Fonticons, Inc.--><path d="M568.2 336.3c-13.12-17.81-38.14-21.66-55.93-8.469l-119.7 88.17h-120.6c-8.748 0-15.1-7.25-15.1-15.99 0-8.75 7.25-16 15.1-16h78.25c15.1 0 30.75-10.88 33.37-26.62 3.25-20-12.12-37.38-31.62-37.38H191.1c-26.1 0-53.12 9.25-74.12 26.25l-46.5 37.74-55.38-.901C7.251 383.1 0 391.3 0 400v95.98C0 504.8 7.251 512 15.1 512h346.1c22.03 0 43.92-7.188 61.7-20.27L558 392.21c19.5-13.11 23.3-38.11 10.2-55.91zM279.3 175c-7.6-1.1-17.6-4.7-26.4-7.9l-4.9-1.7c-12.5-5.3-26.2 2.1-30.6 13.7s2.121 26.2 14.59 30.64l4.655 1.656c8.486 3.061 17.88 6.095 27.39 8.312V232c0 13.25 10.73 24 23.98 24s24-10.75 24-24v-10.4c25.27-5.723 42.88-21.85 46.1-45.72 8.688-50.05-38.89-63.66-64.42-70.95l-5.295-1.83c-26.3-7.46-24.8-10.68-24.1-14.79 1.156-6.766 15.3-10.06 32.21-7.391 4.938.781 11.37 2.547 19.65 5.422 12.53 4.281 26.21-2.312 30.52-14.84s-2.309-26.19-14.84-30.53c-7.602-2.627-13.92-4.358-19.82-5.721V24c0-13.25-10.75-24-24-24s-23.98 10.75-23.98 24v10.52c-25.24 5.71-42.94 21.73-47.94 45.61-7.7 49.47 40.6 63.67 58.8 69.07l6.498 1.875c31.66 9.062 31.15 11.89 30.34 16.64C310.6 174.5 296.5 177.8 279.3 175z"/></svg>