<svg xmlns="http://www.w3.org/2000/svg" viewBox="0 0 640 512"><!--! Font Awesome Free 6.1.1 by @fontawesome - https://fontawesome.com License - https://fontawesome.com/license/free (Icons: CC BY 4.0, Fonts: SIL OFL 1.1, Code: MIT License) Copyright 2022 Fonticons, Inc.--><path d="M608 359.1c-13.25 0-24 10.75-24 24s10.75 24 24 24 24-10.75 24-24-10.7-24-24-24zM477.2 275c-21-47.13-48.49-151.8-73.11-186.8C365.6 33.63 302.5 0 234.1 0H192C86 0 0 86 0 192c0 56.75 24.75 107.6 64 142.9V512h223.1v-32h64.01c35.38 0 64-28.62 64-63.1L320 416c-17.67 0-32-14.33-32-32s14.33-32 32-32h95.98l-.003-32h31.99c23.133 0 38.633-23.9 29.233-45zM336 224c-17.62 0-32-14.38-32-32s14.38-32 32-32 32 14.38 32 32-14.4 32-32 32zm144 135.1c-13.25 0-23.1 10.75-23.1 24s10.75 24 23.1 24 24-10.75 24-24-10.7-24-24-24zm128-48c13.25 0 24-10.75 24-24s-10.75-24-24-24-24 10.75-24 24 10.8 24 24 24zm-64 0c-13.25 0-23.1 10.75-23.1 24s10.75 24 23.1 24 24-10.75 24-24-10.7-24-24-24zm0 96c-13.25 0-23.1 10.75-23.1 24s10.75 24 23.1 24 24-10.75 24-24-10.7-24-24-24zm64 48c-13.25 0-24 10.75-24 24s10.75 24 24 24 24-10.75 24-24-10.7-24-24-24z"/></svg>