<svg xmlns="http://www.w3.org/2000/svg" viewBox="0 0 640 512"><!--! Font Awesome Free 6.1.1 by @fontawesome - https://fontawesome.com License - https://fontawesome.com/license/free (Icons: CC BY 4.0, Fonts: SIL OFL 1.1, Code: MIT License) Copyright 2022 Fonticons, Inc.--><path d="M607.1 311.1c13.25 0 24-10.75 24-23.1s-10.75-23.1-24-23.1S584 275.65 584 288s10.7 23.1 23.1 23.1zm0 96c13.25 0 24-10.78 24-24.03 0-13.25-10.75-23.1-24-23.1s-24 10.78-24 24.03c0 13.2 11.6 23.1 24 23.1zm23.7 62L440.6 320h7.4c23.12 0 38.62-23.87 29.25-44.1-20.1-47.12-48.49-151.7-73.11-186.7C365.6 33.63 302.5 0 234.1 0H192c-42.1 0-80.5 14.26-112.12 37.29L38.81 5.109A23.96 23.96 0 0 0 24.03 0C16.91 0 9.845 3.156 5.126 9.187c-8.187 10.44-6.375 25.53 4.062 33.7l591.1 463.1c10.5 8.203 25.56 6.328 33.69-4.078C643.1 492.4 641.2 477.3 630.8 469.1zm-310.8-54c-17.67 0-31.1-14.33-31.1-31.1s13.4-32.9 31.1-32.9h5.758L18.16 110.9C6.631 135.6 0 162.1 0 191.1 0 247.85 24.75 298.7 64 334v177.1h223.1V480l64.01.001c33.25 0 60.2-25.38 63.37-57.78l-7.932-6.217H320zm223.1-56c13.25 0 24-10.78 24-24.03s-10.75-23.1-24-23.1-24 10.78-24 24.03c0 13.2 11.6 23.1 24 23.1z"/></svg>