<svg xmlns="http://www.w3.org/2000/svg" viewBox="0 0 576 512"><!--! Font Awesome Free 6.1.1 by @fontawesome - https://fontawesome.com License - https://fontawesome.com/license/free (Icons: CC BY 4.0, Fonts: SIL OFL 1.1, Code: MIT License) Copyright 2022 Fonticons, Inc.--><path d="M256 368c0 35.7 10.6 68.9 28.9 96.6l-5.5 5.7c-13 12.9-33.9 12.9-45.9 0L39.71 270.5c-55.93-58-52.94-153.9 9.99-207.82 53.9-46.95 136.8-37.96 186.8 12.99l19.9 20.97 19-20.97c50-50.95 131.9-59.94 187.8-12.99 42.9 37.42 57.5 94.92 43.8 146.02-22.7-10.7-48.2-16.7-75-16.7-97.2 0-176 78.8-176 176zm32 0c0-79.5 64.5-144 144-144s144 64.5 144 144-64.5 144-144 144-144-64.5-144-144zm203.3-36.7c6.3-6.2 6.3-16.4 0-22.6-6.2-6.3-16.4-6.3-22.6 0L432 345.4l-36.7-36.7c-6.2-6.3-16.4-6.3-22.6 0-6.3 6.2-6.3 16.4 0 22.6l36.7 36.7-36.7 36.7c-6.3 6.2-6.3 16.4 0 22.6 6.2 6.3 16.4 6.3 22.6 0l36.7-36.7 36.7 36.7c6.2 6.3 16.4 6.3 22.6 0 6.3-6.2 6.3-16.4 0-22.6L454.6 368l36.7-36.7z"/></svg>