<svg xmlns="http://www.w3.org/2000/svg" viewBox="0 0 512 512"><!--! Font Awesome Free 6.3.0 by @fontawesome - https://fontawesome.com License - https://fontawesome.com/license/free (Icons: CC BY 4.0, Fonts: SIL OFL 1.1, Code: MIT License) Copyright 2023 Fonticons, Inc.--><path d="M443.3 224H508C493.6 108.2 401.8 16.4 286 2v64.7c80.4 13.4 143.9 76.9 157.3 157.3zm64.7 64h-64.7c-13.4 80.4-76.9 143.9-157.3 157.4V510c115.8-14.4 207.6-106.2 222-222zM0 288c14.4 115.8 106.2 207.6 222 222v-64.6c-80.4-13.5-143.9-77-157.3-157.4H0zm0-64h64.7C78.1 143.6 141.6 80.1 222 66.7V2C106.2 16.4 14.4 108.2 0 224zm206-64c0-17.7-14.3-32-32-32s-32 14.3-32 32v192c0 17.7 14.3 32 32 32s32-14.3 32-32v-64h96v64c0 17.7 14.3 32 32 32s32-14.3 32-32V160c0-17.7-14.3-32-32-32s-32 14.3-32 32v64h-96v-64z"/></svg>