<svg xmlns="http://www.w3.org/2000/svg" viewBox="0 0 640 512"><!--! Font Awesome Free 6.1.2 by @fontawesome - https://fontawesome.com License - https://fontawesome.com/license/free (Icons: CC BY 4.0, Fonts: SIL OFL 1.1, Code: MIT License) Copyright 2022 Fonticons, Inc.--><path d="M407 47.03c9.4-9.37 24.6-9.37 33.1 0l18.1 17.18c1.9-.14 3.8-.21 4.9-.21h32c12.1 0 22.8 2.31 32.5 6.48L543 55.03c9.4-9.37 24.6-9.37 33.1 0 10.2 9.37 10.2 24.57 0 33.94L564 101.9c7.6 12.2 11.1 26.7 11.1 42.1 0 10.2 8.3 18.8 17.6 22.1 27.9 13.4 46.4 41.4 46.4 73.9 0 26.2-11.7 49.4-32 64v32c0 8.8-6.3 16-16 16h-32c-7.9 0-16-7.2-16-16v-16h-64v16c0 8.8-6.3 16-16 16h-32c-7.9 0-16-7.2-16-16v-17.6c-10.9-2.4-21.8-8.3-32-14.4-.6-1.1-2-2.3-3.4-3.5-17-14.6-28.6-36.3-28.6-60.5 0-8.8-6.3-16-16-16-7.9 0-16 7.2-16 16 0 44.7 27.1 83.2 64 101.2V352c0 17.7 15.2 32 32 32h32v64c0 17.7-13.4 32-32 32h-64c-16.8 0-32-14.3-32-32v-76c-18.9 7.7-40.5 12-64 12-21.7 0-43.3-4.3-64-12v76c0 17.7-13.4 32-32 32h-64c-16.77 0-32-14.3-32-32V329.1l-17.17 40.6c-5.38 12.2-19.57 17.6-31.68 12.2-12.112-5.4-17.567-19.5-12.183-31.6L23.1 300.9c6.17-11.9 8-24.7 8-37.7 0-107.5 86.1-195.18 192.7-199.07l-.7-.13H288c41.7 0 83.4 12.07 117.2 25.73 1.7-1.83 3.5-3.58 5.3-5.25l-3.5-3.51c-9.3-9.37-9.3-24.57 0-33.94zM455.1 208c-12.4 0-24 10.7-24 24s11.6 24 24 24c14.2 0 24-10.7 24-24s-9.8-24-24-24zm112 48c14.2 0 24-10.7 24-24s-9.8-24-24-24c-12.4 0-24 10.7-24 24s11.6 24 24 24zm-104-128c-7.9 0-16 7.2-16 16s8.1 16 16 16c9.7 0 16-7.2 16-16s-6.3-16-16-16zm64 32c9.7 0 16-7.2 16-16s-6.3-16-16-16c-7.9 0-16 7.2-16 16s8.1 16 16 16z"/></svg>