<svg xmlns="http://www.w3.org/2000/svg" viewBox="0 0 512 512"><!--! Font Awesome Free 6.1.1 by @fontawesome - https://fontawesome.com License - https://fontawesome.com/license/free (Icons: CC BY 4.0, Fonts: SIL OFL 1.1, Code: MIT License) Copyright 2022 Fonticons, Inc.--><path d="M287.1 143.1c0 26.5 21.5 47.1 47.1 47.1 26.5 0 48-21.5 48-47.1S360.7 96 334.2 96c-24.7-.01-47.1 21.5-47.1 47.1zm-111.1 48c26.5 0 47.1-21.5 47.1-47.1S202.5 95.96 176 95.96s-47.1 21.5-47.1 47.1 20.6 48.04 47.1 48.04zm127.1-144c0-25.6-20.6-47.1-48-47.1C228.6 0 208 21.5 208 47.1s21.5 48.89 47.1 48.89c27.4 0 48-21.49 48-48.89zm-59.4 195.5c1.6-12.9-11.8-22.5-24.2-17.1-39.8 17.3-81.7 25.9-122.78 25.3-10.59-.2-18.23 9.9-14.94 19.6 4.99 15.3 8.55 31 10.66 47.3 2.133 16.15-9.387 31.26-26.12 34.23-16.87 2.965-33.7 4.348-50.48 4.152-10.6-.059-18.37 10.05-15.08 19.74 12.4 35.79 16.57 74.93 12.12 114.7-1.723 14.96 13.71 25.67 28.02 19.8 38.47-15.95 78.77-23.81 118.2-23.34 10.58.195 18.36-9.91 15.07-19.6-5.141-15.15-8.68-31.06-10.79-47.34-2.133-16.16 9.371-31.13 26.24-34.09 16.73-2.973 33.57-4.496 50.36-4.301 10.73.078 18.51-10.03 15.22-19.72C242.5 324.7 238.5 283.9 243.7 242.6zm252.5 113.5c-16.78.195-33.61-1.188-50.48-4.152-16.73-2.973-28.25-18.08-26.12-34.23 2.115-16.28 5.67-32.05 10.66-47.32 3.289-9.691-4.35-19.81-14.93-19.62-41.11.648-83.01-7.965-122.7-25.23-6.85-2.969-13.71-1.18-18.47 2.953 1.508 5.836 2.102 11.93 1.332 18.05-4.539 36.23-1.049 72.56 10.12 105.1 3.395 9.988 3.029 20.73-.477 30.52 12.44.5 24.89 1.602 37.28 3.801 16.87 2.957 28.37 17.93 26.24 34.09-2.115 16.27-5.654 32.19-10.79 47.34-3.289 9.691 4.486 19.8 15.07 19.6 39.47-.477 79.77 7.383 118.2 23.34 14.31 5.867 29.74-4.844 28.02-19.8-4.45-39.81-.283-78.95 12.12-114.7C514.5 366.1 506.8 356 496.2 356.1z"/></svg>