<svg xmlns="http://www.w3.org/2000/svg" viewBox="0 0 512 512"><!--! Font Awesome Free 6.1.2 by @fontawesome - https://fontawesome.com License - https://fontawesome.com/license/free (Icons: CC BY 4.0, Fonts: SIL OFL 1.1, Code: MIT License) Copyright 2022 Fonticons, Inc.--><path d="M488.6 23.44c-31.06-31.19-81.76-31.16-112.8.031L24.46 374.8C3.63 394.76-4.73 424.46 2.63 452.4c7.36 27.94 29.07 49.65 57.02 57.01 27.94 7.36 57.64-1 77.6-21.83l351.3-351.3c31.15-31.08 31.25-81.78.05-112.84zm-49.8 94.96c-19.59 19.59-37.39 22.52-51.74 25.01-12.97 2.246-22.33 3.867-34.68 16.22-12.35 12.35-13.97 21.71-16.22 34.69-2.495 14.35-5.491 32.19-25.08 51.78-19.59 19.59-37.43 22.58-51.78 25.08-13 2.22-22.4 3.92-34.7 16.22-12.35 12.35-13.97 21.71-16.22 34.68-2.48 14.32-5.48 32.22-25.08 51.82-19.59 19.59-37.43 22.58-51.78 25.08-13.02 2.22-22.32 3.82-34.69 16.22-6.238 6.238-16.34 6.238-22.58 0-6.238-6.238-6.238-16.35 0-22.58 19.59-19.59 37.43-22.58 51.78-25.07 12.97-2.245 22.33-3.869 34.68-16.22 12.35-12.35 13.97-21.71 16.22-34.69 2.495-14.35 5.492-32.19 25.08-51.78s37.43-22.58 51.78-25.08c12.97-2.246 22.33-3.869 34.68-16.22s13.97-21.71 16.22-34.68c2.495-14.35 5.492-32.19 25.08-51.78 19.59-19.59 37.43-22.58 51.78-25.07 12.97-2.246 22.28-3.815 34.63-16.17 6.238-6.238 16.36-6.238 22.59 0 5.33 6.24 5.33 16.34.03 22.54zM32.44 321.5l290-290-11.48-11.6c-24.95-24.95-63.75-26.57-86.58-3.743L17.1 223.4c-22.83 22.9-21.208 61.7 3.74 86.6l11.6 11.5zm448.16-132-290 290 11.48 11.6c24.95 24.95 63.75 26.57 86.58 3.743l207.3-207.3c22.83-22.83 21.21-61.63-3.743-86.58L480.6 189.5z"/></svg>