<svg xmlns="http://www.w3.org/2000/svg" viewBox="0 0 576 512"><!--! Font Awesome Free 6.1.2 by @fontawesome - https://fontawesome.com License - https://fontawesome.com/license/free (Icons: CC BY 4.0, Fonts: SIL OFL 1.1, Code: MIT License) Copyright 2022 Fonticons, Inc.--><path d="M482.8 134.1c11.2 8.2 15.9 22.6 11.6 35.8-4.3 13.2-16.5 22.1-30.4 22.1h-16.6l.3 73.2c-1.6.9-3.1 1.9-4.5 2.9-18 12.4-40.2 20.4-59.2 20.4-19.6 0-40.8-7.7-59.2-20.4-22-15.5-51.5-15.5-73.6 0-17.2 11.8-38 20.4-59.2 20.4-19.9 0-41.2-8-59.1-20.4-1.6-1.1-3.2-3-4.9-3.1v-73h-16c-13.86 0-26.14-8.9-30.43-22.1-4.29-13.2.4-27.6 11.61-35.8L269.2 6.12c11.2-8.16 26.4-8.16 37.6 0l176 127.98zM269.5 309.9c11.1-7.9 25.9-7.9 37 0 21.6 15.5 50 26.1 77.5 26.1 26.9 0 55.4-10.8 77.4-26.1h.1c11.9-8.5 28-7.8 39.2 1.7 14.3 11.9 32.5 21 50.6 25.2 17.2 4 27.9 21.3 23.9 38.5s-22.1 27.9-38.5 23.9c-24.5-5.8-44.8-16.6-58.2-25-29 15.5-61.5 25.8-94.5 25.8-31.9 0-60.6-9.9-80.4-18.9-5.9-2.6-11.1-5.3-15.6-7.7-4.5 2.4-9.7 5.1-15.6 7.7-19.8 9-48.5 18.9-80.4 18.9-33.9 0-65.5-10.3-94.5-25.8-13.38 8.4-33.71 19.2-58.23 25-17.21 4-34.416-6.7-38.427-23.9-4.012-17.2 6.689-34.5 23.897-38.5 18.1-4.2 36.22-13.3 50.57-25.2 11.15-9.5 27.29-10.2 39.19-1.7h.1c22.1 15.3 50.5 26.1 77.4 26.1 27.5 0 55-10.6 77.5-26.1zm191.9 112h.1c11.9-8.5 28-7.8 39.2 1.7 14.3 11.9 32.5 21 50.6 25.2 17.2 4 27.9 21.3 23.9 38.5s-22.1 27.9-38.5 23.9c-24.5-5.8-44.8-16.6-58.2-25-29 15.5-61.5 25.8-94.5 25.8-31.9 0-60.6-9.9-80.4-18.9-5.9-2.6-11.1-5.3-15.6-7.7-4.5 2.4-9.7 5.1-15.6 7.7-19.8 9-48.5 18.9-80.4 18.9-33.9 0-65.5-10.3-94.5-25.8-13.38 8.4-33.71 19.2-58.23 25-17.21 4-34.417-6.7-38.428-23.9-4.011-17.2 6.69-34.5 23.898-38.5 18.1-4.2 36.22-13.3 50.57-25.2 11.15-9.5 27.29-10.2 39.19-1.7h.1c22.1 15.3 50.5 26.1 77.4 26.1 27.5 0 55-10.6 77.5-26.1 11.1-7.9 25.9-7.9 37 0 21.6 15.5 50 26.1 77.5 26.1 26.9 0 55.4-10.8 77.4-26.1z"/></svg>