<svg xmlns="http://www.w3.org/2000/svg" viewBox="0 0 640 512"><!--! Font Awesome Free 6.1.1 by @fontawesome - https://fontawesome.com License - https://fontawesome.com/license/free (Icons: CC BY 4.0, Fonts: SIL OFL 1.1, Code: MIT License) Copyright 2022 Fonticons, Inc.--><path d="M288 144c0 79.5-64.5 144-144 144C64.47 288 0 223.5 0 144 0 64.47 64.47 0 144 0c79.5 0 144 64.47 144 144zM140.7 99.31 169.4 128H80c-8.84 0-16 7.2-16 16s7.16 16 16 16h89.4l-28.7 28.7c-6.3 6.2-6.3 16.4 0 22.6 6.2 6.3 16.4 6.3 22.6 0l56-56c6.3-6.2 6.3-16.4 0-22.6l-56-56.01c-6.2-6.25-16.4-6.25-22.6 0-6.3 6.25-6.3 16.38 0 22.62zM301 64.42l80.2-58.3c11.2-8.16 26.4-8.16 37.6 0l176 127.98c11.2 8.2 15.9 22.6 11.6 35.8-4.3 13.2-16.5 22.1-30.4 22.1h-16.6l.3 84.4c-2.2-1.6-4.4-3.2-6.5-4.9-22.2-18.7-54.3-20.1-78-3.4-18 12.4-40.2 20.4-59.2 20.4-19.6 0-40.8-7.7-59.2-20.4-22-15.5-51.5-15.5-73.6 0-10 6-21.2 12.6-33 16.2 42.4-32.1 68.9-83 68.9-140.3 0-28.6-5.9-55.68-18.1-79.58zM416 336c26.9 0 55.4-10.8 77.4-26.1h.1c11.9-8.5 28-7.8 39.2 1.7 14.3 11.9 32.5 21 50.6 25.2 17.2 4 27.9 21.3 23.9 38.5s-22.1 27.9-38.5 23.9c-24.5-5.8-44.8-16.6-58.2-25-29 15.5-61.5 25.8-94.5 25.8-31.9 0-60.6-9.9-80.4-18.9-5.9-2.6-11.1-5.3-15.6-7.7-4.5 2.4-9.7 5.1-15.6 7.7-19.8 9-48.5 18.9-80.4 18.9-33.9 0-65.5-10.3-94.5-25.8-13.4 8.4-33.71 19.2-58.23 25-17.21 4-34.42-6.7-38.43-23.9-4.01-17.2 6.69-34.5 23.9-38.5 18.1-4.2 36.22-13.3 50.56-25.2 11.2-9.5 27.3-10.2 39.2-1.7h.1c22.1 15.3 50.5 26.1 77.4 26.1 27.5 0 55-10.6 77.5-26.1 11.1-7.9 25.9-7.9 37 0 21.6 15.5 50 26.1 77.5 26.1zm-77.5 85.9c21.6 15.5 50 26.1 77.5 26.1 26.9 0 55.4-10.8 77.4-26.1h.1c11.9-8.5 28-7.8 39.2 1.7 14.3 11.9 32.5 21 50.6 25.2 17.2 4 27.9 21.3 23.9 38.5s-22.1 27.9-38.5 23.9c-24.5-5.8-44.8-16.6-58.2-25-29 15.5-61.5 25.8-94.5 25.8-31.9 0-60.6-9.9-80.4-18.9-5.9-2.6-11.1-5.3-15.6-7.7-4.5 2.4-9.7 5.1-15.6 7.7-19.8 9-48.5 18.9-80.4 18.9-33.9 0-65.5-10.3-94.5-25.8-13.4 8.4-33.71 19.2-58.23 25-17.21 4-34.42-6.7-38.43-23.9-4.01-17.2 6.69-34.5 23.9-38.5 18.1-4.2 36.22-13.3 50.56-25.2 11.2-9.5 27.3-10.2 39.2-1.7h.1c22.1 15.3 50.5 26.1 77.4 26.1 27.5 0 55-10.6 77.5-26.1 11.1-7.9 25.9-7.9 37 0z"/></svg>