<svg xmlns="http://www.w3.org/2000/svg" viewBox="0 0 640 512"><!--! Font Awesome Free 6.1.1 by @fontawesome - https://fontawesome.com License - https://fontawesome.com/license/free (Icons: CC BY 4.0, Fonts: SIL OFL 1.1, Code: MIT License) Copyright 2022 Fonticons, Inc.--><path d="M288 350.1v1.9h-32c-17.7 0-32 14.3-32 32v88c0 22.1-17.9 40-40 40h-55.9c-1.5 0-3-.1-4.5-.2-1.2.1-2.4.2-3.6.2h-16c-22.09 0-40-17.9-40-40V360c0-.9.03-1.9.09-2.8v-69.6H32.05C14.02 287.6 0 273.5 0 255.5c0-9 3.004-17 10.01-24L266.4 8.016c7-7.014 15-8.016 22-8.016s15 2.004 21.1 7.014L447.3 128.1c-12.4-.9-25 3-34.8 11.8-35.4 31.6-65.6 67.7-87.3 102.8-20.9 33.8-37.2 72.2-37.2 107.4zm221-128.6c7.9-9.9 16.8-20.7 26.5-30.4 5.6-4.2 14.4-4.2 20 .9 24.7 22.7 45.6 52.7 60.3 81.2 14.6 28 24.2 56.7 24.2 76.9 0 87.8-71.3 161.9-160 161.9-89.7 0-160-74.2-160-161.9 0-26.4 12.7-58.6 32.4-90.6 20-32.3 48.1-66.1 81.4-95.8 5.6-5 13.3-4.9 19.7.1 19.8 17.8 38.3 36.9 55.5 57.7zm41 114.6c-2-4-4-8-7-12L507 367s-58-74-62-79c-30 36.1-45 58-45 82 0 49 36 78 81 78 18 0 34-5 49-15.9 30-20.1 38-62.1 20-96z"/></svg>