<svg xmlns="http://www.w3.org/2000/svg" viewBox="0 0 448 512"><!--! Font Awesome Free 6.1.2 by @fontawesome - https://fontawesome.com License - https://fontawesome.com/license/free (Icons: CC BY 4.0, Fonts: SIL OFL 1.1, Code: MIT License) Copyright 2022 Fonticons, Inc.--><path d="M96.06 288.3H351.9l-99.3 205.5c-2.5 5.4-6.6 10-12.5 13.3-4.2 3.2-10.1 4.9-16.1 4.9-6.9 0-11.9-1.7-17-4.9-5.9-3.3-9.1-7.9-11.6-13.3L96.06 288.3zM386.3 164c5.8 2.4 11.1 5.9 15.6 10.4 4.4 4.4 8 9.7 10.4 15.5 2.4 5.8 2.8 11.2 3.7 18.4 0 6.2-1.2 12.5-3.6 18.3-3.3 5.8-5.9 11.1-10.4 15.6-4.4 4.4-9.7 8-15.5 10.4-5.8 2.4-12.1 3.7-18.4 3.7H79.88c-12.72 0-24.92-5.1-33.9-14.1-8.98-9-14.01-22.1-13.98-33.9.03-12.8 5.1-24.9 14.12-33.9s21.23-14 33.95-14h.99c-.66-5.5-1-11-1.02-16.6 0-38.1 15.16-74.69 42.16-101.67C149.2 15.15 185.8 0 223.1 0c39 0 75.6 15.15 102.6 42.13 27 26.98 42.2 63.57 42.2 101.67 0 5.6-.3 11.1-1 16.6h1c6.3 0 12.6 1.2 18.4 3.6z"/></svg>