<svg xmlns="http://www.w3.org/2000/svg" viewBox="0 0 512 512"><!--! Font Awesome Free 6.1.1 by @fontawesome - https://fontawesome.com License - https://fontawesome.com/license/free (Icons: CC BY 4.0, Fonts: SIL OFL 1.1, Code: MIT License) Copyright 2022 Fonticons, Inc.--><path d="M500.3 7.251C507.7 13.33 512 22.41 512 31.1v144c0 27.4-28.7 48-64.9 48-34.4 0-64-20.6-64-48 0-25.6 29.6-48 64-48V71.03l-96 19.2V207.1c0 27.4-27.8 48-64 48-34.4 0-64-20.6-64-48 0-25.6 29.6-48 64-48v-96c0-14.36 11.7-27.49 26.6-30.48l160-32c9.4-1.881 19.2.553 26.6 6.631zM74.66 303.1l11.84-16.9c5.93-8.9 15.9-15.1 26.6-15.1h61.8c10.7 0 20.7 6.2 26.6 15.1l11.8 16.9h25.8c27.4 0 48 22.4 48 48v112c0 27.4-20.6 48-48 48h-192c-25.61 0-47.102-20.6-47.102-48v-112c0-25.6 21.492-48 47.102-48h27.56zm68.44 56c-25.6 0-48 22.4-48 48 0 27.4 22.4 48 48 48 27.4 0 48-20.6 48-48 0-25.6-20.6-48-48-48zm297.2 8H496c6.7 0 12.6 5 14.1 11.3 3.2 6.2 1.5 13.3-3.6 17.6l-128 112c-5.6 4.1-13.9 5.3-19.9.9-6-4.3-8.3-12.3-5.3-19.2l38.4-90.6H336c-6.7 0-12.6-3.2-15-9.5-2.3-6.2-.6-13.3 4.5-18.5l128-112c5.6-4.1 13.9-4.4 19.9 0 6 4.3 8.2 12.3 5.3 19.2l-38.4 88.8zm-323.6-148-96.85-99.9c-27.962-28.94-26.464-76.89 5-103.86C51.82-8.137 93.26-3.642 118.2 21.83l10 10.49 9.5-10.49c25-25.472 65.9-29.967 93.9-6.49 31 26.97 32.5 74.92 4.5 103.86l-96.4 99.9c-6.5 6.5-17 6.5-23 0z"/></svg>