<svg xmlns="http://www.w3.org/2000/svg" viewBox="0 0 640 512"><!--! Font Awesome Free 6.1.2 by @fontawesome - https://fontawesome.com License - https://fontawesome.com/license/free (Icons: CC BY 4.0, Fonts: SIL OFL 1.1, Code: MIT License) Copyright 2022 Fonticons, Inc.--><path d="M444.4 181.1c22.4 15.7 35.6 41.1 35.6 68.7V280c0 4.4 3.6 8 8 8h48c4.4 0 8-3.6 8-8v-30.2c0-43.25-21-83.5-56.38-108.1C463.9 125 448 99.38 448 70.25V8c0-4.375-3.6-8-8-8h-48c-4.4 0-8 3.625-8 8v66.38c0 43.72 24.5 81.62 60.4 106.72zM195 359c-69.9 11.1-135.25 35.8-195 73 83.62 52.2 180.2 80 279 80h88.5L254.8 380.5C240 363.2 217.4 355.4 195 359zM553.3 87.12c-5.7-3.87-9.3-10-9.3-16.87V8c0-4.375-3.6-8-8-8h-48c-4.4 0-8 3.625-8 8v62.25c0 22.13 10.12 43.5 28.62 55.5C550.8 153 576 199.5 576 249.8V280c0 4.4 3.6 8 8 8h48c4.4 0 8-3.6 8-8v-30.2c0-65.6-32.4-126.3-86.7-162.68zM360.9 352c-34.38.125-86.75.25-88.25.25l117.9 137.4C402.6 503.9 420.4 512 439.1 512h88.38l-117.9-137.6C397.4 360.1 379.6 352 360.9 352zm255.1 0H432l117.1 137.6c13 14.3 30.8 22.4 49.5 22.4H616c13.25 0 24-10.75 24-24V376c0-13.2-10.7-24-24-24z"/></svg>