<svg xmlns="http://www.w3.org/2000/svg" viewBox="0 0 576 512"><!--! Font Awesome Free 6.1.2 by @fontawesome - https://fontawesome.com License - https://fontawesome.com/license/free (Icons: CC BY 4.0, Fonts: SIL OFL 1.1, Code: MIT License) Copyright 2022 Fonticons, Inc.--><path d="M278.5 1.457a31.7 31.7 0 0 1 19 0l256 80.003C566.9 85.63 576 98 576 112v37.2l-283.2 88.5c-3.1 1-6.5 1-9.6 0L0 149.2V112c0-13.99 9.097-26.37 22.46-30.54L278.5 1.457zM288 191.2 515.1 120 288 48.76 60.04 120 288 191.2zm14.3 77.1L576 182.8v46.4l-52.8 16.5c-8.4 2.7-13.1 11.6-10.5 20.1 2.7 8.4 11.6 13.1 20.1 10.5l43.2-13.5V400c0 13.1-9.1 26.4-22.5 30.5l-256 80c-6.2 2-12.8 2-19 0l-256.04-80C9.096 426.4 0 413.1 0 399.1V262.8l43.23 13.5c8.44 2.6 17.41-2.1 20.05-10.5 2.63-8.5-2.07-17.4-10.5-20.1L0 229.2v-46.4l273.7 85.5c9.3 2.9 18.4 2.9 28.6 0zm-185.5-2.6c-8.5-2.6-17.43 2.1-20.07 10.5-2.63 8.5 2.07 17.4 10.47 20.1l64 20c8.5 2.6 17.4-2.1 20.1-10.5 2.6-8.5-2.1-17.4-10.5-20.1l-64-20zm352 30.6c8.4-2.7 13.1-11.6 10.5-20.1-2.7-8.4-11.6-13.1-20.1-10.5l-64 20c-8.4 2.7-13.1 11.6-10.5 20.1 2.7 8.4 11.6 13.1 20.1 10.5l64-20zm-224 9.4c-8.5-2.6-17.4 2.1-20.1 10.5-2.6 8.5 2.1 17.4 10.5 20.1l38.5 12c9.3 2.9 18.4 2.9 28.6 0l38.5-12c8.4-2.7 13.1-11.6 10.5-20.1-2.7-8.4-11.6-13.1-20.1-10.5l-38.4 12c-3.1 1-6.5 1-9.6 0l-38.4-12z"/></svg>