<svg xmlns="http://www.w3.org/2000/svg" viewBox="0 0 512 512"><!--! Font Awesome Free 6.1.1 by @fontawesome - https://fontawesome.com License - https://fontawesome.com/license/free (Icons: CC BY 4.0, Fonts: SIL OFL 1.1, Code: MIT License) Copyright 2022 Fonticons, Inc.--><path d="m282.3 343.7-34.2 32.4c-3.6 5.4-9.7 7.9-16.1 7.9h-40v40c0 13.3-10.7 24-24 24h-40v40c0 13.3-10.7 24-24 24H24c-13.25 0-24-10.7-24-24v-80c0-6.4 2.529-12.5 7.029-17L168.3 229.7c-5.4-16.9-8.3-35-8.3-53.7C160 78.8 238.8 0 336 0s176 78.8 176 176-78.8 176-176 176c-18.7 0-36.8-2.9-53.7-8.3zM376 176c22.1 0 40-17.9 40-40s-17.9-40-40-40-40 17.9-40 40 17.9 40 40 40z"/></svg>