<svg xmlns="http://www.w3.org/2000/svg" viewBox="0 0 576 512"><!--! Font Awesome Free 6.1.2 by @fontawesome - https://fontawesome.com License - https://fontawesome.com/license/free (Icons: CC BY 4.0, Fonts: SIL OFL 1.1, Code: MIT License) Copyright 2022 Fonticons, Inc.--><path d="M447.7 65.1c-6.25-3.5-14.29-2.351-19.29 3.024a15.87 15.87 0 0 0-1.958 19.5c16.5 26.25 25.23 56.34 25.23 87.46-.25 53.25-26.74 102.6-71.24 132.4l-76.62 53.35v-20.12l44.01-36.12c3.875-4.125 4.983-10.13 2.858-15.26L342.8 273c33.88-19.25 56.94-55.25 56.94-97 0-40.75-22.06-76.12-54.56-95.75l5.151-11.39c2.375-5.5.983-11.87-3.518-15.1L287.9.007l-59.05 52.77c-4.45 4.243-6.75 10.593-3.65 16.093l5.203 11.32C197.1 99.81 175.9 135.2 175.9 175.1c0 41.75 23.08 77.75 56.95 97l-8.75 18.1c-1.2 5.2-.2 11 3.8 15.3l43.1 36.11v19.91l-75.8-53.42c-44.25-29.5-70.72-78.9-70.97-132.1 0-31.12 8.73-61.2 25.23-87.45 3.84-6.15 2.34-13.8-2.66-19.05-5-5.38-13.6-6.25-20-2.75C48.34 109.6 9.713 205.2 45.34 296c7 18 17.88 34.38 30.5 49l55.92 65.38c4.875 5.75 13.09 7.232 19.71 3.732l79.25-42.25 29.26 20.37-47.09 32.75c-1.625-.375-3.125-1-4.1-1-13.25 0-23.97 10.75-23.97 24s10.72 23.1 23.97 23.1c12.13 0 21.74-9.126 23.36-20.75l40.6-28.25v29.91c-9.375 5.625-15.97 15.37-15.97 27.12 0 17.62 14.37 31.1 31.1 31.1 17.63 0 31.1-14.37 31.1-31.1 0-11.75-6.656-21.52-16.03-27.14v-30.12l40.87 28.48c1.625 11.63 11.23 20.75 23.35 20.75 13.25 0 23.98-10.74 23.98-23.99s-10.73-24-23.98-24c-1.875 0-3.375.625-5 1l-47.09-32.75 29.25-20.37 79.26 42.25c6.625 3.5 14.84 2.018 19.71-3.732l52.51-61.27c18.88-22 33.1-47.49 41.25-75.61C559.6 189.9 521.5 106.2 447.7 65.1zM351.8 176c0 22.25-11.45 41.91-28.82 53.41l-5.613-12.43c-8.75-24.5-8.811-51.11-.061-75.61l7.748-17.12C341.2 135.9 351.8 154.6 351.8 176zm-128 0c0-21.38 10.67-40.16 26.67-51.79l7.848 17.17c8.75 24.63 8.747 51.11-.003 75.61L252.7 229.4c-17.3-11.5-28.9-31.2-28.9-53.4z"/></svg>