<svg xmlns="http://www.w3.org/2000/svg" viewBox="0 0 576 512"><!--! Font Awesome Free 6.1.2 by @fontawesome - https://fontawesome.com License - https://fontawesome.com/license/free (Icons: CC BY 4.0, Fonts: SIL OFL 1.1, Code: MIT License) Copyright 2022 Fonticons, Inc.--><path d="M256 405.1V456c0 13.3-10.7 24-24 24s-24-10.7-24-24v-40.7c-5.3.5-10.6.7-16 .7-16.6 0-32.7-2.1-48-6.9V456c0 13.3-10.7 24-24 24s-24-10.7-24-24v-65.7C38.61 357.1 0 295.1 0 224 0 117.1 85.96 32 192 32c36.3 0 70.3 10.08 99.2 27.6C322.4 78.44 355.9 96 392.3 96H448c70.7 0 128 57.3 128 128v240c0 6.1-4.5 13.2-11.2 15.3-6.6 2.1-13.9-.4-17.9-6.1l-85.3-121.9c-4.5.5-9 .7-13.6.7h-55.7c-36.4 0-69.9 17.6-101.1 36.4-11 6.7-22.8 12.3-35.2 16.7zM448 248c13.3 0 24-10.7 24-24s-10.7-24-24-24-24 10.7-24 24 10.7 24 24 24z"/></svg>