<svg xmlns="http://www.w3.org/2000/svg" viewBox="0 0 512 512"><!--! Font Awesome Free 6.1.2 by @fontawesome - https://fontawesome.com License - https://fontawesome.com/license/free (Icons: CC BY 4.0, Fonts: SIL OFL 1.1, Code: MIT License) Copyright 2022 Fonticons, Inc.--><path d="M264 0c13.3 0 24 10.75 24 24v10.65C368.4 48.14 431.9 111.6 445.3 192h2.7c17.7 0 32 14.3 32 32s-14.3 32-32 32H63.1c-16.77 0-32-14.3-32-32s15.23-32 32-32h3.55C80.14 111.6 143.6 48.14 223.1 34.65V24c0-13.25 11.6-24 24-24H264zM63.1 288h64v128h40V288h64v128H280V288h64v128h40V288h64v132.3c.6.3 1.2-.2 1.8 1.1l48 32c11.7 7.8 16.9 22.4 12.8 35.9-4.1 13.5-16.5 22.7-30.6 22.7H31.1c-13.2 0-25.642-9.2-29.728-22.7-4.087-13.5 1.143-28.1 12.878-35.9l48-32c.57-1.3 1.16-.8.85-1.1V288z"/></svg>