<svg xmlns="http://www.w3.org/2000/svg" viewBox="0 0 576 512"><!--! Font Awesome Free 6.1.2 by @fontawesome - https://fontawesome.com License - https://fontawesome.com/license/free (Icons: CC BY 4.0, Fonts: SIL OFL 1.1, Code: MIT License) Copyright 2022 Fonticons, Inc.--><path d="M312 168c0 13.3-10.7 24-24 24s-24-10.7-24-24V24c0-13.25 10.7-24 24-24s24 10.75 24 24v144zM160 320c0-17.7 14.3-32 32-32h192c17.7 0 32 14.3 32 32v32H160v-32zm-77.26 90.5c8.13-16.2 24.76-26.5 42.96-26.5h324.6c18.2 0 34.8 10.3 43 26.5l27.5 55.2c10.7 20.4-4.8 46.3-28.6 46.3H83.78c-23.79 0-39.26-25.9-28.62-46.3l27.58-55.2zM4.269 138.3c7.541-10.9 22.501-13.6 33.391-6l104.04 72c10.9 7.5 13.6 22.5 6 33.4-7.5 10.9-22.5 13.6-33.4 6l-103.96-72c-10.897-7.5-13.615-22.5-6.071-33.4zm534.031-6c10.9-7.6 25.9-4.9 33.4 6 7.6 10.9 4.9 25.9-6 33.4l-104 72c-10.9 7.6-25.9 4.9-33.4-6-7.6-10.9-4.9-25.9 6-33.4l104-72z"/></svg>