<svg xmlns="http://www.w3.org/2000/svg" viewBox="0 0 512 512"><!--! Font Awesome Free 6.1.1 by @fontawesome - https://fontawesome.com License - https://fontawesome.com/license/free (Icons: CC BY 4.0, Fonts: SIL OFL 1.1, Code: MIT License) Copyright 2022 Fonticons, Inc.--><path d="M512 165.4c0 127.9-70.05 235.3-175.3 270.1-20.04 7.938-41.83 12.46-64.69 12.46-64.9 0-125.2-36.51-155.7-94.47-54.13 49.93-68.71 107-68.96 108.1C44.72 472.6 34.87 480 24.02 480c-1.844 0-3.727-.219-5.602-.656-12.89-3.098-20.84-16.08-17.75-28.96 9.598-39.5 90.47-226.4 335.3-226.4C344.8 224 352 216.8 352 208s-7.2-16-16-16c-107.4 0-185 34.6-239.71 75.6.193-10.82 1.242-21.84 3.535-33.05 13.47-65.81 66.04-119 131.4-134.2 28.33-6.562 55.68-6.013 80.93-.005 56 13.32 118.2-7.412 149.3-61.24 5.664-9.828 20.02-9.516 24.66.828C502.7 76.76 512 121.9 512 165.4z"/></svg>