<svg xmlns="http://www.w3.org/2000/svg" viewBox="0 0 384 512"><!--! Font Awesome Free 6.1.1 by @fontawesome - https://fontawesome.com License - https://fontawesome.com/license/free (Icons: CC BY 4.0, Fonts: SIL OFL 1.1, Code: MIT License) Copyright 2022 Fonticons, Inc.--><path d="M62.36 458.1c-5.59 16.8-23.71 25.8-40.48 20.3-16.764-5.6-25.826-23.8-20.237-40.5L129.6 53.88c5.6-16.76 23.8-25.83 40.5-20.24 16.8 5.59 25.8 23.71 20.3 40.48L62.36 458.1zM261.3 32.44c17.4 2.9 29.2 19.39 26.3 36.82l-64 384.04c-2.9 17.4-19.4 29.2-36.9 26.3-17.4-2.9-29.2-19.4-26.3-36.9l64-383.96c2.9-17.43 19.4-29.21 36.9-26.3zM352 32c17.7 0 32 14.33 32 32v384c0 17.7-14.3 32-32 32s-32-14.3-32-32V64c0-17.67 14.3-32 32-32z"/></svg>