<svg xmlns="http://www.w3.org/2000/svg" viewBox="0 0 640 512"><!--! Font Awesome Free 6.1.2 by @fontawesome - https://fontawesome.com License - https://fontawesome.com/license/free (Icons: CC BY 4.0, Fonts: SIL OFL 1.1, Code: MIT License) Copyright 2022 Fonticons, Inc.--><path d="M185.7 120.3c56.8-44.48 139-40.57 190.4 10.8 44 44 54.8 108.5 30.6 162.4l31.9 24.9 95.9-95.9c31.5-31.5 31.5-83.4 0-114-27.8-27.87-71.8-32.4-103.8-8.6l-1.6 1.1c-14.4 10.3-34.4 6.1-44.6-7.42-10.3-14.38-7-34.37 7.4-44.64l1.6-1.12C451 6.732 529.8 13.25 579.8 63.24c56.5 56.46 56.5 148.06 0 204.46l-90.5 90.5 141.5 110.9c10.4 8.2 12.3 23.3 4.1 33.7-8.2 10.4-23.3 12.3-33.7 4.1L9.196 42.89C-1.236 34.71-3.065 19.63 5.112 9.196 13.29-1.236 28.37-3.065 38.81 5.112L185.7 120.3zm52.4 40.8 115.3 90.6c5.9-26.2-1.7-54.5-21.7-74.5-25.1-25.1-62.6-30.2-93.6-16.1zM263 380c-29.9-29.9-44.3-70.2-42.1-110l185.7 146.4C357.4 431 301.9 418.9 263 380zM116.6 187.9l50.6 39.9-61.7 61.7c-31.51 30.6-31.51 82.5 0 114 27.8 27.9 71.8 31.5 103.8 8.6l1.6-2c14.4-9.4 34.4-6.1 44.6 8.3 10.3 14.4 7 34.4-7.4 44.7l-1.6 1.1c-58.4 41.1-136.3 34.5-186.29-15.4-56.469-56.5-56.469-148.1 0-204.5l56.39-56.4z"/></svg>