<svg xmlns="http://www.w3.org/2000/svg" viewBox="0 0 320 512"><!--! Font Awesome Free 6.1.2 by @fontawesome - https://fontawesome.com License - https://fontawesome.com/license/free (Icons: CC BY 4.0, Fonts: SIL OFL 1.1, Code: MIT License) Copyright 2022 Fonticons, Inc.--><path d="M111.1 191.1H224c17.7 0 32 15.2 32 32 0 18.6-14.3 32-32 32H111.1v32H224c17.7 0 32 15.2 32 32 0 18.6-14.3 32.9-32 32.9H110.8c-2.7 22.2-10 43.6-21.6 62.9l-.68 1.1H288c17.7 0 32 14.3 32 32s-14.3 32-32 32H32c-11.53 0-22.166-6.2-27.846-16.2-5.681-10.1-5.525-22.4.406-32.3l29.76-49.6c5.57-9.3 9.51-19.4 11.69-29.9H32c-17.67 0-32-14.3-32-32s14.33-32 32-32h16v-32H32c-17.67 0-32-14.3-32-32s14.33-32 32-32h16v-31.6C48 89.47 105.5 32 176.4 32c13.8 0 27.5 2.22 39.7 6.59l82 27.05c16.8 5.59 25.8 23.71 20.3 40.46-5.6 16.8-23.8 25.8-40.5 20.3l-81.2-27.1c-6.5-2.18-13.4-3.3-20.3-3.3-35.6 0-64.4 28.8-64.4 64.4l-.9 30.7z"/></svg>