<svg xmlns="http://www.w3.org/2000/svg" viewBox="0 0 512 512"><!--! Font Awesome Free 6.1.2 by @fontawesome - https://fontawesome.com License - https://fontawesome.com/license/free (Icons: CC BY 4.0, Fonts: SIL OFL 1.1, Code: MIT License) Copyright 2022 Fonticons, Inc.--><path d="M416 208c0 45.9-14.9 88.3-40.9 122.7l127.5 126.7c12.5 12.5 12.5 32.7 0 45.2s-32.7 12.5-45.2 0L330.7 375.1c-34.4 26-76.8 40.9-122.7 40.9C93.12 416 0 322.9 0 208 0 93.12 93.12 0 208 0c114.9 0 208 93.12 208 208zm-175.9-89c-8.5-9.3-23.7-9.3-33.1 0-9.3 9.4-9.3 24.6 0 33.1l31.1 31.9H120c-13.3 0-24 10.7-24 24s10.7 24 24 24h118.1L207 263c-9.3 9.4-9.3 24.6 0 33.1 9.4 10.2 24.6 10.2 33.1 0l72-72c10.2-8.5 10.2-23.7 0-33.1l-72-72z"/></svg>