<svg xmlns="http://www.w3.org/2000/svg" viewBox="0 0 448 512"><!--! Font Awesome Free 6.1.2 by @fontawesome - https://fontawesome.com License - https://fontawesome.com/license/free (Icons: CC BY 4.0, Fonts: SIL OFL 1.1, Code: MIT License) Copyright 2022 Fonticons, Inc.--><path d="M128 160v96c0 53 42.1 96 96 96 53 0 96-43 96-96v-96h128v96c0 123.7-100.3 224-224 224S0 379.7 0 256v-96h128zM0 64c0-17.67 14.33-32 32-32h64c17.7 0 32 14.33 32 32v64H0V64zm320 0c0-17.67 14.3-32 32-32h64c17.7 0 32 14.33 32 32v64H320V64z"/></svg>