<svg xmlns="http://www.w3.org/2000/svg" viewBox="0 0 512 512"><!--! Font Awesome Free 6.1.2 by @fontawesome - https://fontawesome.com License - https://fontawesome.com/license/free (Icons: CC BY 4.0, Fonts: SIL OFL 1.1, Code: MIT License) Copyright 2022 Fonticons, Inc.--><path d="M500.3 443.7 380.6 324c27.22-40.41 40.65-90.9 33.46-144.7-12.23-91.55-87.28-166-178.9-177.6C98.96-15.54-15.54 98.98 1.76 235.1c11.6 91.64 86.07 166.7 177.6 178.9 53.81 7.191 104.3-6.235 144.7-33.46l119.7 119.7c15.62 15.62 40.95 15.62 56.57 0 15.57-15.54 15.57-40.94-.03-56.54zM273.7 253.8c-3.9 22.6-21.1 37.5-45.7 42.3v7.9c0 11.03-8.953 20-20 20s-20-9-20-20v-8.8c-9.8-2-19.6-5.3-28.4-8.4l-4.8-1.7c-10.4-3.7-15.9-15.2-12.2-25.6 3.6-10.4 15-15.8 25.5-12.2l5.062 1.812c8.562 3.094 18.25 6.562 25.91 7.719 16.23 2.5 33.47-.031 35.17-9.812 1.219-7.094.406-10.62-31.8-19.84L196.2 225.4c-18.4-6.3-61.7-18.1-53.9-63.2 3.9-22.6 21.2-37.4 45.7-42.2v-8c0-11.03 8.953-20 20-20s20 8.1 20 20v8.695c6.252 1.273 13.06 3.07 21.47 5.992 10.42 3.625 15.95 15.03 12.33 25.47-3.6 10.443-15 15.943-25.5 12.343-8.1-2.8-14.5-4.6-19.5-5.3-16.11-2.594-33.38.031-35.08 9.812-1 5.812-1.719 10 25.7 18.03l6 1.719C238.9 196 281.5 208.2 273.7 253.8z"/></svg>