<svg xmlns="http://www.w3.org/2000/svg" viewBox="0 0 384 512"><!--! Font Awesome Free 6.1.1 by @fontawesome - https://fontawesome.com License - https://fontawesome.com/license/free (Icons: CC BY 4.0, Fonts: SIL OFL 1.1, Code: MIT License) Copyright 2022 Fonticons, Inc.--><path d="M224 64v34.65C314.8 113.9 384 192.9 384 288v160c0 17.7-14.3 32-32 32s-32-14.3-32-32V288c0-59.6-40.8-109.8-96-124v284c0 17.7-14.3 32-32 32s-32-14.3-32-32V164c-55.2 14.2-96 64.4-96 124v160c0 17.7-14.33 32-32 32S0 465.7 0 448V288c0-95.1 69.19-174.1 160-189.35V64c0-17.67 14.3-32 32-32s32 14.33 32 32z"/></svg>