<svg xmlns="http://www.w3.org/2000/svg" viewBox="0 0 576 512"><!--! Font Awesome Free 6.1.1 by @fontawesome - https://fontawesome.com License - https://fontawesome.com/license/free (Icons: CC BY 4.0, Fonts: SIL OFL 1.1, Code: MIT License) Copyright 2022 Fonticons, Inc.--><path d="M408 120c0 54.6-73.1 151.9-105.2 191.1-7.7 10.5-21.9 10.5-29.6 0C241.1 271.9 168 174.6 168 120 168 53.73 221.7 0 288 0s120 53.73 120 120zm-120 32c22.1 0 40-17.9 40-40 0-22.09-17.9-40-40-40s-40 17.91-40 40c0 22.1 17.9 40 40 40zm137.6 27.8c.5-1.2 1-2.4 1.5-3.7l116-46.4c15.8-6.3 32.9 5.3 32.9 22.3v270.8c0 9.8-6 18.6-15.1 22.3L416 503V200.4c3.5-6.9 6.7-13.7 9.6-20.6zm-275.2 0c2.9 6.9 6.1 13.7 9.6 20.6v251.4L32.91 502.7C17.15 508.1 0 497.4 0 480.4V209.6c0-9.8 5.975-19.5 15.09-22.3l122.51-49c2.4 14.2 7.3 28.3 12.8 41.5zm177.4 151.3c13.9-16.5 35.7-44.8 56.2-76.1v249.3l-192-54.9V255c20.5 31.3 42.3 59.6 56.2 76.1 20.5 26.5 59.1 26.5 79.6 0z"/></svg>