<svg xmlns="http://www.w3.org/2000/svg" viewBox="0 0 448 512"><!--! Font Awesome Free 6.1.2 by @fontawesome - https://fontawesome.com License - https://fontawesome.com/license/free (Icons: CC BY 4.0, Fonts: SIL OFL 1.1, Code: MIT License) Copyright 2022 Fonticons, Inc.--><path d="M431.1 31.1H318.5c-21.42 0-32.15 25.85-17 40.97l29.61 29.56-56.65 56.55c-30.03-20.66-65.04-31-100-31-47.99-.002-95.96 19.44-131.1 58.39-60.86 67.51-58.65 175 4.748 240.1C83.66 462.2 129.6 480 175.5 480c45.12 0 90.34-17.18 124.8-51.55 61.11-60.99 67.77-155.6 20.42-224.1l56.65-56.55 29.61 29.56c4.92 4.84 10.92 7.04 16.82 7.04 12.3 0 24.2-9.6 24.2-24V47.1c0-7.94-7.2-16-16.9-16zM243.5 371.9c-18.75 18.71-43.38 28.07-68 28.07-24.63 0-49.25-9.355-68.01-28.07-37.5-37.43-37.5-98.33 0-135.8 18.75-18.71 43.38-28.07 68.01-28.07 24.63 0 49.25 9.357 68 28.07 37.5 37.4 37.5 98.4 0 135.8z"/></svg>