<svg xmlns="http://www.w3.org/2000/svg" viewBox="0 0 512 512"><!--! Font Awesome Free 6.3.0 by @fontawesome - https://fontawesome.com License - https://fontawesome.com/license/free (Icons: CC BY 4.0, Fonts: SIL OFL 1.1, Code: MIT License) Copyright 2023 Fonticons, Inc.--><path d="M321.8 14.8C325.5 5.8 334.3 0 344 0h112c13.3 0 24 10.7 24 24v112c0 9.7-5.8 18.5-14.8 22.2s-19.3 1.7-26.2-5.2l-39-39-24.7 24.7C391 163.3 400 192.6 400 224c0 80.2-59.1 146.7-136.1 158.2 0 .6.1 1.2.1 1.8V407.8h24c13.3 0 24 10.7 24 24s-10.7 24-24 24h-24V487.7h-48V484.7v.3V483.9v.1V473.9v.1V469.6v.4V456h-24c-13.3 0-24-10.7-24-24s10.7-24 24-24h24V387.8v.2V384c0-.6 0-1.2.1-1.8C139.1 370.7 80 304.2 80 224c0-88.4 71.6-160 160-160 39.6 0 75.9 14.4 103.8 38.2L366.1 80 327 41c-6.9-6.9-8.9-17.2-5.2-26.2zM432 48zM240 488h24c0 13.3-10.7 24-24 24s-24-10.7-24-24h24zm96-264a96 96 0 1 0-192 0 96 96 0 1 0 192 0z"/></svg>