<svg xmlns="http://www.w3.org/2000/svg" viewBox="0 0 576 512"><!--! Font Awesome Free 6.1.2 by @fontawesome - https://fontawesome.com License - https://fontawesome.com/license/free (Icons: CC BY 4.0, Fonts: SIL OFL 1.1, Code: MIT License) Copyright 2022 Fonticons, Inc.--><path d="M288 464h-48V338.7L408.8 170c15.5-15.5 4.5-42-17.4-42H24.63c-21.879 0-32.879 26.5-17.379 42l168.7 168.7V464H128c-17.67 0-32 14.33-32 32 0 8.836 7.164 16 15.1 16h191.1c8.836 0 15.1-7.164 15.1-16 2.7-17.7-11.6-32-29.3-32zM432 0c-62.63 0-115.4 40.25-135.1 96h52.5c16.62-28.5 47.25-48 82.62-48 52.88 0 95.1 43 95.1 96s-43.12 96-95.1 96c-14 0-27.25-3.25-39.37-8.625l-35.25 35.25c21.88 13.25 47.25 21.38 74.62 21.38 79.5 0 143.1-64.5 143.1-144S511.5 0 432 0z"/></svg>