<svg xmlns="http://www.w3.org/2000/svg" viewBox="0 0 640 512"><!--! Font Awesome Free 6.1.1 by @fontawesome - https://fontawesome.com License - https://fontawesome.com/license/free (Icons: CC BY 4.0, Fonts: SIL OFL 1.1, Code: MIT License) Copyright 2022 Fonticons, Inc.--><path d="M206.9 245.1c-35.9 10.5-60.1 41.3-57.6 74.2 11.4-12.8 28.8-23.8 50-30.9l7.6-43.3zM95.78 294.9 64.11 115.5c-.37-1.6.26-2.6.26-2.6 57.75-32.13 123.1-48.99 189-48.99 1.625 0 3.113.075 4.738.075 13.1-13.5 31.75-22.75 51.62-26 18.87-3 38.12-4.5 57.25-5.25-9.999-14-24.47-24.27-41.84-27.02-23.87-3.875-47.9-5.732-71.77-5.732-76.74 0-152.4 19.45-220.1 57.07C9.021 70.57-3.853 98.5 1.021 126.6L32.77 306c14.25 80.5 136.3 142 204.5 142 3.625 0 6.777-.298 10.03-.673-13.5-17.13-28.1-40.5-39.5-67.63C160.1 366.8 101.7 328 95.78 294.9zm97.62-137.3c-.8-4.2-2.3-7.9-4.1-11.4-8.249 8.875-20.62 15.75-35.25 18.37-14.62 2.5-28.75.376-39.5-5.249-.5 4-.625 7.998.125 12.12 3.75 21.75 24.5 36.24 46.25 32.37C182.6 200.1 197.3 179.3 193.4 157.6zM606.8 121c-88.87-49.38-191.4-67.38-291.9-51.38-27.4 3.48-49.1 26.23-54.1 53.48L229 303.5c-15.37 87.13 95.33 196.3 158.3 207.3 62.1 11.13 204.5-53.68 219.9-140.8l31.75-179.5c4.95-28.2-7.95-56.1-32.15-69.5zm-273.3 96.8c3.875-21.75 24.62-36.25 46.37-32.37 21.75 3.75 36.25 24.49 32.5 46.12-.75 4.125-2.25 7.873-4.125 11.5-8.249-9-20.62-15.75-35.25-18.37-14.75-2.625-28.75-.376-39.5 5.124-1.395-3.904-.595-7.904.005-12.004zm69.6 198.7c-55.62-9.875-93.49-59.23-88.99-112.1 20.62 25.63 56.25 46.24 99.49 53.87 43.25 7.625 83.74.378 111.9-16.62-13.3 51.05-65.8 84.65-122.4 74.85zm131.3-151.3c-8.249-8.875-20.75-15.75-35.37-18.37-14.62-2.5-28.62-.376-39.5 5.249-.5-4-.625-7.998.125-12.12 3.875-21.75 24.62-36.25 46.37-32.37 21.75 3.875 36.25 24.49 32.37 46.24-.795 4.071-2.295 7.871-3.995 11.371z"/></svg>