<svg xmlns="http://www.w3.org/2000/svg" viewBox="0 0 640 512"><!--! Font Awesome Free 6.1.2 by @fontawesome - https://fontawesome.com License - https://fontawesome.com/license/free (Icons: CC BY 4.0, Fonts: SIL OFL 1.1, Code: MIT License) Copyright 2022 Fonticons, Inc.--><path d="M256 448H64c-35.35 0-64-28.7-64-64V128c0-35.35 28.65-64 64-64h192v384zM64 352c0 17.7 14.33 32 32 32h64c17.7 0 32-14.3 32-32V160c0-17.7-14.3-32-32-32H96c-17.67 0-32 14.3-32 32v192zM288 64h288c35.3 0 64 28.65 64 64v256c0 35.3-28.7 64-64 64H288V64z"/></svg>