<svg xmlns="http://www.w3.org/2000/svg" viewBox="0 0 512 512"><!--! Font Awesome Free 6.1.2 by @fontawesome - https://fontawesome.com License - https://fontawesome.com/license/free (Icons: CC BY 4.0, Fonts: SIL OFL 1.1, Code: MIT License) Copyright 2022 Fonticons, Inc.--><path d="M160 352h192V160H160v192zm288-176h48c8.8 0 16-7.2 16-16s-7.162-16-16-16h-48v-16c0-35.35-28.65-64-64-64h-16V16c0-8.836-7.2-16-16-16-8.836 0-16 7.164-16 16v48h-64V16c0-8.836-7.2-16-16-16s-16 7.164-16 16v48h-64V16c0-8.836-7.2-16-16-16s-16 7.164-16 16v48h-16c-35.35 0-64 28.65-64 64v16H16c-8.836 0-16 7.2-16 16s7.164 16 16 16h48v64H16c-8.836 0-16 7.2-16 16s7.164 16 16 16h48v64H16c-8.836 0-16 7.2-16 16s7.164 16 16 16h48v16c0 35.35 28.65 64 64 64h16v48c0 8.8 7.2 16 16 16 8.838 0 16-7.164 16-16v-48h64v48c0 8.836 7.164 16 16 16 8.838 0 16-7.164 16-16v-48h64v48c0 8.836 7.164 16 16 16 8.838 0 16-7.164 16-16v-48h16c35.35 0 64-28.65 64-64v-16h48c8.838 0 16-7.164 16-16s-7.162-16-16-16h-48v-64h48c8.8 0 16-7.2 16-16s-7.162-16-16-16h-48v-64zm-64 192c0 8.836-7.162 16-16 16H144c-8.8 0-16-7.2-16-16V144c0-8.8 7.2-16 16-16h224c8.8 0 16 7.2 16 16v224z"/></svg>