<svg xmlns="http://www.w3.org/2000/svg" viewBox="0 0 640 512"><!--! Font Awesome Free 6.1.2 by @fontawesome - https://fontawesome.com License - https://fontawesome.com/license/free (Icons: CC BY 4.0, Fonts: SIL OFL 1.1, Code: MIT License) Copyright 2022 Fonticons, Inc.--><path d="M383.1 464H344v-33.77c20.6-2.824 39.99-9.402 57.69-18.72l-43.26-33.91c-14.66 4.65-30.28 7.179-46.68 6.144C245.7 379.6 191.1 317.1 191.1 250.9v-3.777l-48-37.623v38.61c0 89.65 63.97 169.6 151.1 181.7v34.15h-40c-17.67 0-31.1 14.33-31.1 31.1 0 9.74 8.1 16.94 16 16.94h159.1c8.838 0 15.1-7.164 15.1-15.1 1.8-18.6-11.6-32.9-30.2-32.9zm247.7 5.1L471.5 344.2c15.37-25.94 24.53-55.91 24.53-88.21V216c0-13.25-10.75-24-23.1-24-13.25 0-24 10.75-24 24v39.1c0 21.12-5.557 40.77-14.77 58.24l-25.73-20.16c5.234-11.68 8.493-24.42 8.493-38.08h-57.07l-34.45-27c2.914-3.054 6.969-4.998 11.52-4.998h79.1V192H335.1c-8.836 0-15.1-7.164-15.1-15.1s7.164-16 15.1-16l79.1.001V128l-79.1-.002c-8.836 0-15.1-7.163-15.1-15.1s7.164-15.1 15.1-15.1h80c0-54-44.56-97.57-98.93-95.95C264.5 1.614 223.1 47.45 223.1 100v50.23L38.81 5.111A23.956 23.956 0 0 0 24.03 0C16.91 0 9.84 3.158 5.121 9.189-3.067 19.63-1.249 34.72 9.189 42.89l591.1 463.1c10.5 8.203 25.57 6.328 33.69-4.078C643.1 492.4 641.2 477.3 630.8 469.1z"/></svg>