<svg xmlns="http://www.w3.org/2000/svg" viewBox="0 0 384 512"><!--! Font Awesome Free 6.1.1 by @fontawesome - https://fontawesome.com License - https://fontawesome.com/license/free (Icons: CC BY 4.0, Fonts: SIL OFL 1.1, Code: MIT License) Copyright 2022 Fonticons, Inc.--><path d="M282.9 96.53C339.7 102 384 149.8 384 208v208c0 17.7-14.3 32-32 32s-32-14.3-32-32V208c0-26.5-21.5-48-48-48-4.3 0-8.4.6-12.3 1.6L224 261.5V416c0 17.7-14.3 32-32 32-12.4 0-23.1-7.9-28.4-17.3l-21.5 60.1c-5.9 16.6-24.2 25.3-40.9 19.3-16.61-5.9-25.28-24.2-19.34-40.9L160 250.5V208c0-26.5-21.5-48-48-48-26.51 0-48 21.5-48 48v208c0 17.7-14.33 32-32 32S0 433.7 0 416V128c0-17.7 14.33-32 32-32 10.87 0 20.48 5.4 26.26 13.7C74.21 100.1 92.53 96 112 96c31.3 0 59.7 12.9 80 33.6 4.9-5 10.2-9.5 15.1-13.5l34.8-94.86c5.9-16.645 24.2-25.319 40.9-19.375 16.6 5.944 25.3 24.255 19.3 40.895l-19.2 53.77z"/></svg>