<svg xmlns="http://www.w3.org/2000/svg" viewBox="0 0 576 512"><!--! Font Awesome Free 6.2.0 by @fontawesome - https://fontawesome.com License - https://fontawesome.com/license/free (Icons: CC BY 4.0, Fonts: SIL OFL 1.1, Code: MIT License) Copyright 2022 Fonticons, Inc.--><path d="M64 64C28.7 64 0 92.7 0 128v256c0 35.3 28.7 64 64 64h448c35.3 0 64-28.7 64-64V128c0-35.3-28.7-64-64-64H64zm64 320H64v-64c35.3 0 64 28.7 64 64zM64 192v-64h64c0 35.3-28.7 64-64 64zm384 192c0-35.3 28.7-64 64-64v64h-64zm64-192c-35.3 0-64-28.7-64-64h64v64zM288 352c-53 0-96-43-96-96s43-96 96-96 96 43 96 96-43 96-96 96z"/></svg>