<svg xmlns="http://www.w3.org/2000/svg" viewBox="0 0 640 512"><!--! Font Awesome Free 6.1.1 by @fontawesome - https://fontawesome.com License - https://fontawesome.com/license/free (Icons: CC BY 4.0, Fonts: SIL OFL 1.1, Code: MIT License) Copyright 2022 Fonticons, Inc.--><path d="M168.8 462.3c-7.9-3.9-11.1-13.6-7.1-21.5l29.4-60.6v-45.1c0-3.3 2.6-7.4 5.6-10.4l58.4-59.3v-23.2L139.2 343.1C87.82 395.3 0 358.9 0 286.3c0-41.1 30.62-75.7 71.41-80.8l159.89-23.9-49.5-41.3c-5.1-4.2-7.1-11.1-5-17.4l13.9-41.68-29-58.07c-4-7.9-.8-17.513 7.1-21.465 7.9-3.952 17.6-.748 21.5 7.156l32 63.999c1.9 3.8 2.2 8.19.9 12.22l-12.6 37.64 44.5 37.8v-22.6c0-14.8 11-27.3 24.7-31.8V63.67c0-4.5 3.7-8.16 7.3-8.16 5.4 0 9.1 3.66 9.1 8.16v42.43c13.7 4.5 22.9 17 22.9 31.8v22.6l46.3-37.8-12.6-37.64c-1.3-4.03-1-8.42.9-12.22l32-64c3.9-7.903 13.6-11.107 21.5-7.155 7.9 3.951 11.1 13.565 7.1 21.465l-29 58.07 13.9 41.68c2.1 6.3.1 13.2-5 17.4l-49.5 41.3 159.9 23.9c22.4 2.8 41.8 14.5 54.7 31.4-2.8 2.5-5.2 5.4-7.3 8.6-8.6-13-23.3-22.4-40-22.4s-31.4 9.4-40 22.4c-8.6-13-23.3-22.4-40-22.4-21.7 0-40 15.2-45.9 35-10.7 3.2-19.8 10.1-25.9 19.1l-41.1-35v23.2l33.3 32.4c-.3 2-.4 4.1-.4 5.3 0 17.6 8.5 32.3 21.5 40-4 3.5-7.6 6.8-10.6 10.4l-43.8-42.9v50c0 17.7-13.4 32-32 32-16.8 0-32-14.3-32-32v-50l-31.1 32v40.5c0 3.4-.6 5.8-1.7 8.1l-32 64c-3.9 7.9-13.6 11.1-21.5 7.1zM512 255.1c8.8 0 16 8.1 16 16v16h48v-16c0-7.9 7.2-16 16-16s16 8.1 16 16v16h16c8.8 0 16 8.1 16 16 0 9.7-7.2 16-16 16h-16v48h16c8.8 0 16 8.1 16 16 0 9.7-7.2 16-16 16h-16v48h16c8.8 0 16 8.1 16 16 0 9.7-7.2 16-16 16h-16v16c0 9.7-7.2 16-16 16s-16-6.3-16-16v-16h-48v16c0 9.7-7.2 16-16 16s-16-6.3-16-16v-16h-48v16c0 9.7-7.2 16-16 16s-16-6.3-16-16v-16h-16c-8.8 0-16-6.3-16-16 0-7.9 7.2-16 16-16h16v-48h-16c-8.8 0-16-6.3-16-16 0-7.9 7.2-16 16-16h16v-48h-16c-8.8 0-16-6.3-16-16 0-7.9 7.2-16 16-16h16v-16c0-7.9 7.2-16 16-16s16 8.1 16 16v16h48v-16c0-7.9 7.2-16 16-16zm64 112v-48h-48v48h48zm0 80v-48h-48v48h48zm-128-128v48h48v-48h-48zm0 80v48h48v-48h-48z"/></svg>