<svg xmlns="http://www.w3.org/2000/svg" viewBox="0 0 640 512"><!--! Font Awesome Free 6.1.1 by @fontawesome - https://fontawesome.com License - https://fontawesome.com/license/free (Icons: CC BY 4.0, Fonts: SIL OFL 1.1, Code: MIT License) Copyright 2022 Fonticons, Inc.--><path d="M432 0c26.5 0 48 21.49 48 48v144h40v-72c0-13.3 10.7-24 24-24s24 10.7 24 24v72h24c26.5 0 48 21.5 48 48v224c0 26.5-21.5 48-48 48H470.2c.5-.8 1-1.5 1.4-2.3 11.6-21.1 11.2-46.8-1.3-67.3L396.5 320h3.5c8.8 0 16-7.2 16-16v-32c0-8.8-7.2-16-16-16h-32c-3.2 0-6.1.9-8.6 2.5L288 140.1V48c0-26.51 21.5-48 48-48h96zm-64 64c-8.8 0-16 7.16-16 16v32c0 8.8 7.2 16 16 16h32c8.8 0 16-7.2 16-16V80c0-8.84-7.2-16-16-16h-32zm-16 144c0 8.8 7.2 16 16 16h32c8.8 0 16-7.2 16-16v-32c0-8.8-7.2-16-16-16h-32c-8.8 0-16 7.2-16 16v32zm160 96c0 8.8 7.2 16 16 16h32c8.8 0 16-7.2 16-16v-32c0-8.8-7.2-16-16-16h-32c-8.8 0-16 7.2-16 16v32zm16 48c-8.8 0-16 7.2-16 16v32c0 8.8 7.2 16 16 16h32c8.8 0 16-7.2 16-16v-32c0-8.8-7.2-16-16-16h-32zm-85.1 106.9c6.5 10.8 6.8 24.3.7 35.3-6.1 11-17.6 17.8-30.1 17.8H34.46c-13.36 0-23.96-6.8-30.056-17.8-6.097-11-5.848-24.5.652-35.3L194.6 144.7c6.3-10.4 16.5-16.7 29.4-16.7 12 0 23.1 6.3 29.4 16.7l189.5 314.2zm-219.8-270-72.7 121.9 23.7 41.2 48-64h61.7l-60.7-99.1z"/></svg>