<svg xmlns="http://www.w3.org/2000/svg" viewBox="0 0 384 512"><!--! Font Awesome Free 6.1.2 by @fontawesome - https://fontawesome.com License - https://fontawesome.com/license/free (Icons: CC BY 4.0, Fonts: SIL OFL 1.1, Code: MIT License) Copyright 2022 Fonticons, Inc.--><path d="M368 176C368 78.8 289.2 0 192 0S16 78.8 16 176c0 86.26 62.1 157.9 144 172.1V496c0 8.8 7.2 16 16 16h32c8.838 0 16-7.164 16-16V349c81.9-15.1 144-86.7 144-173zm-176 96c-52.93 0-96-43.07-96-96 0-52.94 43.07-95.1 96-95.1 52.94 0 96 43.06 96 95.1 0 52.9-43.1 96-96 96z"/></svg>