<svg xmlns="http://www.w3.org/2000/svg" viewBox="0 0 512 512"><!--! Font Awesome Free 6.1.1 by @fontawesome - https://fontawesome.com License - https://fontawesome.com/license/free (Icons: CC BY 4.0, Fonts: SIL OFL 1.1, Code: MIT License) Copyright 2022 Fonticons, Inc.--><path d="M480 144v240l-96 96H144c-26.5 0-48-21.5-48-48V144c0-26.5 21.5-48 48-48h288c26.5 0 48 21.5 48 48zm-96 120c0-4.4-3.6-8-8-8h-56v-56c0-4.4-3.6-8-8-8h-48c-4.4 0-8 3.6-8 8v56h-56c-4.4 0-8 3.6-8 8v48c0 4.4 3.6 8 8 8h56v56c0 4.375 3.625 8 8 8h48c4.375 0 8-3.625 8-8v-56h56c4.4 0 8-3.6 8-8v-48zM0 360V120C0 53.83 53.83 0 120 0h240c13.3 0 24 10.75 24 24s-10.7 24-24 24H120c-39.7 0-72 32.3-72 72v240c0 13.3-10.75 24-24 24S0 373.3 0 360z"/></svg>