<svg xmlns="http://www.w3.org/2000/svg" viewBox="0 0 640 512"><!--! Font Awesome Free 6.1.1 by @fontawesome - https://fontawesome.com License - https://fontawesome.com/license/free (Icons: CC BY 4.0, Fonts: SIL OFL 1.1, Code: MIT License) Copyright 2022 Fonticons, Inc.--><path d="M32 119.4C12.87 108.4 0 87.69 0 64 0 28.65 28.65 0 64 0c23.69 0 44.4 12.87 55.4 32h209.2c11-19.13 31.7-32 55.4-32 35.3 0 64 28.65 64 64 0 23.69-12.9 44.4-32 55.4v113.2c19.1 11 32 31.7 32 55.4 0 35.3-28.7 64-64 64-23.7 0-44.4-12.9-55.4-32H119.4c-11 19.1-31.71 32-55.4 32-35.35 0-64-28.7-64-64 0-23.7 12.87-44.4 32-55.4V119.4zm64 0v113.2c9.7 5.6 17.8 13.7 23.4 23.4h209.2c5.6-9.7 13.7-17.8 23.4-23.4V119.4c-9.7-5.6-17.8-13.7-23.4-23.4H119.4c-5.6 9.7-13.7 17.8-23.4 23.4zM311.4 480c-11 19.1-31.7 32-55.4 32-35.3 0-64-28.7-64-64 0-23.7 12.9-44.4 32-55.4V352h64v40.6c9.7 5.6 17.8 13.7 23.4 23.4h209.2c5.6-9.7 13.7-17.8 23.4-23.4V279.4c-9.7-5.6-17.8-13.7-23.4-24.3h-46.1c-5.4-14.5-14.6-28-26.5-38.7v-25.3h72.6c11-18.2 31.7-32 55.4-32 35.3 0 64 29.6 64 64 0 24.6-12.9 45.3-32 56.3v113.2c19.1 11 32 31.7 32 55.4 0 35.3-28.7 64-64 64-23.7 0-44.4-12.9-55.4-32H311.4z"/></svg>