<svg xmlns="http://www.w3.org/2000/svg" viewBox="0 0 640 512"><!--! Font Awesome Free 6.1.2 by @fontawesome - https://fontawesome.com License - https://fontawesome.com/license/free (Icons: CC BY 4.0, Fonts: SIL OFL 1.1, Code: MIT License) Copyright 2022 Fonticons, Inc.--><path d="M224 160c8.836 0 16-7.164 16-16 0-8.8-7.2-16-16-16s-16 7.2-16 16 7.2 16 16 16zM96 128c-8.84 0-16 7.2-16 16s7.16 16 16 16 16-7.164 16-16c0-8.8-7.2-16-16-16zm378.4-63.88c-7.6-1.05-14.4 4.95-14.4 12.61 0 5.959 4.188 10.1 9.991 12.36C514.2 99.46 544 160 544 192v112c0 8.844-7.156 16-16 16s-16-7.2-16-16v-92c0-14.87-15.65-24.54-28.94-17.89-28.96 14.48-47.83 42.99-50.51 74.88C403.7 285.6 384 316.3 384 352v32H224c17.67 0 32-14.33 32-32s-14.33-32-32-32h-91.6c-14.46 0-27.37-9.598-31.08-23.57C97.86 283.5 96 269.1 96 256v-1.6c5.1.9 10.3 1.6 15.7 1.6 10.78 0 21.45-2.189 31.36-6.436L160 242.3l16.98 7.271C186.9 253.8 197.6 256 208.3 256c7.176 0 14.11-.928 20.83-2.426C241.7 292 277.4 320 320 320l36.56-.037C363.1 294.7 377.1 272.7 396.2 256H320c0-25.73 17.56-31.61 32.31-32 17.49-.2 31.69-14.4 31.69-32 0-17.67-14.31-32-32-32-15.09 0-32.99 4.086-49.28 13.06.58-4.16 1.28-8.36 1.28-12.76v-16c0-1.684-.424-3.248-.496-4.912C313.2 133.9 320 123.9 320 112c0-8.8-7.2-16-16-16h-11.3c-18.1-37.74-56.4-64-101-64h-63.4C83.68 32 45.44 58.26 27.33 96H16c-8.836 0-16 7.2-16 16 0 11.93 6.816 21.93 16.5 27.43-.08 1.67-.5 3.27-.5 4.87v16c0 19.56 5.926 37.71 16 52.86V256c0 123.7 100.3 224 224 224h160c123.9-1.166 224-101.1 224-226.2-.1-96.9-72.2-176.84-165.6-189.68zM64 160.3v-16C64 108.9 92.86 80 128.3 80h63.32C227.1 80 256 108.9 256 144.3v16c0 26.3-21.4 47.7-47.7 47.7-4.309 0-8.502-.86-12.46-2.558L162.1 191.4c2.586-.307 5.207-.543 7.598-1.631l8.314-3.777C186.9 182.3 192 174.9 192 166.7V160c0-6.723-5.996-12.17-13.39-12.17H141.4c-8.3-.03-13.4 5.47-13.4 12.17v6.701c0 8.15 5.068 15.6 13.09 19.25l8.314 3.777c2.391 1.088 5.012 1.324 7.598 1.631l-32.88 14.08C120.2 207.1 115.1 208 111.7 208 85.38 208 64 186.6 64 160.3z"/></svg>