<svg xmlns="http://www.w3.org/2000/svg" viewBox="0 0 512 512"><!--! Font Awesome Free 6.1.2 by @fontawesome - https://fontawesome.com License - https://fontawesome.com/license/free (Icons: CC BY 4.0, Fonts: SIL OFL 1.1, Code: MIT License) Copyright 2022 Fonticons, Inc.--><path d="M32 64c0-17.67 14.33-32 32-32h384c17.7 0 32 14.33 32 32s-14.3 32-32 32H64c-17.67 0-32-14.33-32-32zm192 128c0-17.7 14.3-32 32-32h192c17.7 0 32 14.3 32 32s-14.3 32-32 32H256c-17.7 0-32-14.3-32-32zm224 96c17.7 0 32 14.3 32 32s-14.3 32-32 32H256c-17.7 0-32-14.3-32-32s14.3-32 32-32h192zM32 448c0-17.7 14.33-32 32-32h384c17.7 0 32 14.3 32 32s-14.3 32-32 32H64c-17.67 0-32-14.3-32-32zm.24-179.4c-8.24-6.4-8.24-18.8 0-25.2l101.96-79.3c10.5-8.2 25.8-.7 25.8 12.6v158.6c0 13.3-15.3 20.8-25.8 12.6L32.24 268.6z"/></svg>