<svg xmlns="http://www.w3.org/2000/svg" viewBox="0 0 512 512"><!--! Font Awesome Free 6.1.2 by @fontawesome - https://fontawesome.com License - https://fontawesome.com/license/free (Icons: CC BY 4.0, Fonts: SIL OFL 1.1, Code: MIT License) Copyright 2022 Fonticons, Inc.--><path d="M272 192v128h32c7 0 13.7 1.5 19.7 4.2L443.8 192h-28.3c.3-5.3.5-10.6.5-16 0-63.9-22.2-121.16-57.1-159.31C450 49.27 493.4 122.6 507.8 173.6c2.7 9.5-5.7 18.4-14.7 18.4h-6L346.8 346.3c3.3 6.5 5.2 13.9 5.2 21.7v96c0 26.5-21.5 48-48 48h-96.9c-25.6 0-48-21.5-48-48v-96c0-7.8 2.8-15.2 6.1-21.7L24.92 192h-6.03C9 192 1.483 183.1 4.181 173.6 18.64 122.6 61.97 49.27 153.1 16.69 118.2 54.84 96 112.1 96 176c0 5.4.16 10.7.47 16h-28.3L188.3 324.2c6-2.7 11.8-4.2 18.8-4.2h32V192H128.5c-.3-5.3-1.4-10.6-1.4-16 0-51 16.8-95.99 41.1-127.57C192.5 16.89 223.8 0 255.1 0c33.1 0 64.4 16.89 88.7 48.43C368.1 80.01 384 125 384 176c0 5.4-.2 10.7-.5 16H272z"/></svg>