<svg xmlns="http://www.w3.org/2000/svg" viewBox="0 0 448 512"><!--! Font Awesome Free 6.1.2 by @fontawesome - https://fontawesome.com License - https://fontawesome.com/license/free (Icons: CC BY 4.0, Fonts: SIL OFL 1.1, Code: MIT License) Copyright 2022 Fonticons, Inc.--><path d="M129.6 208c5.25 31.25 25.62 57.13 53.25 70.38C175.3 259.4 170.3 235 168.8 208h-39.2zm0-32h39.13c1.5-27 6.5-51.38 14.12-70.38C155.3 118.9 134.9 144.8 129.6 176zM224 286.8c7.8-7.5 20.8-34.5 23.4-78.8h-46.9c2.8 44.3 15.8 71.3 23.5 78.8zm41.1-181.2c7.7 19 12.7 43.4 14.2 70.4h39.13c-5.33-31.2-25.63-57.1-53.33-70.4zM384 0H64C28.65 0 0 28.65 0 64v384c0 35.35 28.65 64 64 64h320c35.2 0 64-28.8 64-64V64c0-35.2-28.8-64-64-64zm-48 416H112c-8.7 0-16-7.2-16-16s7.3-16 16-16h224c8.75 0 16 7.25 16 16s-7.2 16-16 16zm-112-96c-70.75 0-128-57.25-128-128S153.25 64 224 64s128 57.25 128 128-57.2 128-128 128zm41.1-41.6c27.62-13.25 48-39.13 53.25-70.38h-39.13C277.8 235 272.8 259.4 265.1 278.4zM200.6 176h46.88c-2.78-44.2-15.68-71.2-23.48-78.75-7.7 7.55-20.8 34.55-23.4 78.75z"/></svg>