<svg xmlns="http://www.w3.org/2000/svg" viewBox="0 0 512 512"><!--! Font Awesome Free 6.2.0 by @fontawesome - https://fontawesome.com License - https://fontawesome.com/license/free (Icons: CC BY 4.0, Fonts: SIL OFL 1.1, Code: MIT License) Copyright 2022 Fonticons, Inc.--><path d="M160 0c-23.7 0-44.4 12.9-55.4 32H48C21.5 32 0 53.5 0 80v320c0 26.5 21.5 48 48 48h144V176c0-44.2 35.8-80 80-80h48V80c0-26.5-21.5-48-48-48h-56.6c-11-19.1-31.7-32-55.4-32zm112 128c-26.5 0-48 21.5-48 48v288c0 26.5 21.5 48 48 48h192c26.5 0 48-21.5 48-48V256h-96c-17.7 0-32-14.3-32-32v-96H272zM160 88c-13.3 0-24-10.7-24-24s10.7-24 24-24 24 10.7 24 24-10.7 24-24 24zm256 40v96h96l-96-96z"/></svg>