<svg xmlns="http://www.w3.org/2000/svg" viewBox="0 0 512 512"><!--! Font Awesome Free 6.1.2 by @fontawesome - https://fontawesome.com License - https://fontawesome.com/license/free (Icons: CC BY 4.0, Fonts: SIL OFL 1.1, Code: MIT License) Copyright 2022 Fonticons, Inc.--><path d="M226.5 92.85c14.3 42.85-.3 86.25-32.6 96.85-32.3 10.5-70.1-15.7-84.4-58.6-14.31-42.84.3-86.18 32.6-96.76 32.3-10.57 70.1 15.62 84.4 58.51zM100.4 198.6c18.8 32.4 14.3 70.1-10.24 84.1-24.51 14.1-59.67-.8-78.53-33.3-18.867-33.3-14.294-70.1 10.21-84.1 24.51-14.1 59.67.8 78.56 33.3zM69.21 401.2C121.6 259.9 214.7 224 256 224c41.3 0 134.4 35.9 186.8 177.2 3.6 9.7 5.2 20.1 5.2 30.5v1.6c0 25.8-20.9 46.7-46.7 46.7-11.5 0-22.9-1.4-34-4.2l-88-22c-16.2-3.8-31.3-3.8-46.6 0l-88 22c-11.1 2.8-22.5 4.2-34 4.2-25.77 0-46.7-20.9-46.7-46.7v-1.6c0-10.4 1.6-20.8 5.21-30.5zM421.8 282.7c-24.5-14-29-51.7-10.2-84.1 18.9-32.5 54.1-47.4 78.6-33.3 24.5 14 29 50.8 10.2 84.1-18.9 32.5-54.1 47.4-78.6 33.3zm-111.7-93c-32.3-10.6-46.9-54-32.6-96.85 14.3-42.89 52.1-69.08 84.4-58.51 32.3 10.58 46.9 53.92 32.6 96.76-14.3 42.9-52.1 69.1-84.4 58.6z"/></svg>