<svg xmlns="http://www.w3.org/2000/svg" viewBox="0 0 576 512"><!--! Font Awesome Free 6.1.1 by @fontawesome - https://fontawesome.com License - https://fontawesome.com/license/free (Icons: CC BY 4.0, Fonts: SIL OFL 1.1, Code: MIT License) Copyright 2022 Fonticons, Inc.--><path d="M96 304.1c0-12.16 4.971-23.83 13.64-32.01l72.13-68.08c1.65-1.555 3.773-2.311 5.611-3.578C177.1 176.8 155 160 128 160H64c-35.35 0-64 28.7-64 64v96c0 17.67 14.33 32 31.1 32l.9 128c0 17.67 14.33 32 32 32h64c17.67 0 32-14.33 32-32v-96.39l-50.36-47.53C100.1 327.9 96 316.2 96 304.1zM480 128c35.38 0 64-28.62 64-64S515.38 0 480 0s-64 28.62-64 64 28.6 64 64 64zm-384 0c35.38 0 64-28.62 64-64S131.4 0 96 0 32 28.62 32 64s28.63 64 64 64zm348.4 167.3-72.1-68a12.035 12.035 0 0 0-13.01-2.299C354.9 226.9 352 231.2 352 236v36H224v-36c0-4.795-2.857-9.133-7.262-11.03-4.438-1.87-9.538-1.87-13.038 2.33l-72.1 68c-4.805 4.535-4.805 12.94 0 17.47l72.12 68.07a12.038 12.038 0 0 0 13.01 2.297C221.1 381.3 224 376.9 224 372.1V336h128v36.14c0 4.795 2.857 9.135 7.262 11.04a12.038 12.038 0 0 0 13.01-2.299l72.12-68.07c4.808-4.511 4.808-12.911.008-17.511zM512 160h-64c-26.1 0-49.98 16.77-59.38 40.42 1.842 1.271 3.969 2.027 5.623 3.588l72.12 68.06C475 280.2 480 291.9 480 304.1c.002 12.16-4.969 23.83-13.64 32.01L416 383.6V480c0 17.67 14.33 32 32 32h64c17.67 0 32-14.33 32-32V352c17.67 0 32-14.33 32-32v-96c0-35.3-28.7-64-64-64z"/></svg>