<svg xmlns="http://www.w3.org/2000/svg" viewBox="0 0 576 512"><!--! Font Awesome Free 6.1.1 by @fontawesome - https://fontawesome.com License - https://fontawesome.com/license/free (Icons: CC BY 4.0, Fonts: SIL OFL 1.1, Code: MIT License) Copyright 2022 Fonticons, Inc.--><path d="M496.1 24.24C501.2 7.093 518.6-3.331 535.8.955 552.9 5.242 563.3 22.62 559 39.76l-8.7 34.87c-11 43.97-40.2 79.57-78.3 99.67V480c0 17.7-14.3 32-32 32s-32-14.3-32-32V352h-16v128c0 17.7-14.3 32-32 32s-32-14.3-32-32V174.3c-38.1-20.1-67.3-55.7-78.3-99.67l-9.6-34.87c-3.4-17.14 7-34.518 24.1-38.805C281.4-3.33 298.8 7.093 303 24.24l8.8 34.86c10.1 40.49 46.5 68 88.2 68s78.1-27.51 88.2-68l7.9-34.86zM352 47.1C352 21.49 373.5 0 400 0s48 21.49 48 47.1c0 27.41-21.5 48-48 48s-48-20.59-48-48zM32.01 48c0-26.51 21.49-48 48-48C106.5 0 128 21.49 128 48s-21.5 48-47.99 48c-26.51 0-48-21.49-48-48zm72.69 80c27.4 0 52.9 14 67.5 37.1l37.4 58.9H240c17.7 0 32 14.3 32 32s-14.3 32-32 32h-48c-11 0-21.1-5.6-27.9-14.9L152 252.7V480c0 17.7-14.3 32-32 32s-32-14.3-32-32V352H72v128c0 17.7-14.32 32-32 32-17.67 0-31.995-14.3-31.995-32V288.6L8 287.1v-96c0-34.4 28.65-64 64-64l32.7.9z"/></svg>