<svg xmlns="http://www.w3.org/2000/svg" viewBox="0 0 640 512"><!--! Font Awesome Free 6.1.1 by @fontawesome - https://fontawesome.com License - https://fontawesome.com/license/free (Icons: CC BY 4.0, Fonts: SIL OFL 1.1, Code: MIT License) Copyright 2022 Fonticons, Inc.--><path d="M360 72c0 22.09-17.9 40-40 40s-40-17.91-40-40 17.9-40 40-40 40 17.91 40 40zm-256 96c0-22.1 17.9-40 40-40s40 17.9 40 40-17.9 40-40 40-40-17.9-40-40zm504 248c17.7 0 32 14.3 32 32s-14.3 32-32 32H32c-17.67 0-32-14.3-32-32s14.33-32 32-32h576zM456 168c0-22.1 17.9-40 40-40s40 17.9 40 40-17.9 40-40 40-40-17.9-40-40zM200 352c0 17.7-14.3 32-32 32h-48c-17.7 0-32-14.3-32-32v-38.5l-26.87 49.9c-6.28 11.6-20.84 16-32.51 9.7-11.67-6.3-16.04-20.8-9.75-32.5l37.88-70.3C72.09 241.8 101.9 224 134.2 224h19.6c16.3 0 31.9 4.5 45.4 12.6l33.5-62.3c15.4-28.5 45.2-46.3 77.5-46.3h19.6c32.3 0 62.1 17.8 77.5 46.3l33.5 62.3c13.5-8.1 29.1-12.6 45.4-12.6h19.6c32.3 0 62.1 17.8 77.5 46.3l37.8 70.3c6.3 11.7 1.9 26.2-9.7 32.5-11.7 6.3-26.2 1.9-32.5-9.7L552 313.5V352c0 17.7-14.3 32-32 32h-48c-17.7 0-32-14.3-32-32v-38.5l-26.9 49.9c-6.3 11.6-20.8 16-32.5 9.7-12.5-6.3-16-20.8-9.7-32.5l36.3-67.5c-1.7-1.6-3.2-3.5-4.3-5.7L376 217.5V272c0 17.7-14.3 32-32 32h-48.9c-16.8 0-32-14.3-32-32v-54.5l-26 49.9c-2 2.2-2.6 4.1-4.3 5.7l36.3 67.5c6.3 11.7 1.9 26.2-9.7 32.5-11.7 6.3-26.2 1.9-32.5-9.7l-27.8-49.9.9 38.5z"/></svg>