<svg xmlns="http://www.w3.org/2000/svg" viewBox="0 0 448 512"><!--! Font Awesome Free 6.1.1 by @fontawesome - https://fontawesome.com License - https://fontawesome.com/license/free (Icons: CC BY 4.0, Fonts: SIL OFL 1.1, Code: MIT License) Copyright 2022 Fonticons, Inc.--><path d="M144 80c0-44.18 35.8-80 80-80s80 35.82 80 80c0 44.2-35.8 80-80 80s-80-35.8-80-80zm292.8 302.8-63.3 78.3c-16.6 21.6-46.8 24.9-67.5 8.4-17.6-14.1-22.7-38.2-13.5-57.8l-.8-.1c-38.9-5.5-74.3-25.1-99.7-54.8V320c0-17.7-14.3-32-32-32s-32 14.3-32 32v48c0 .8 0 1.6.1 2.4l101.4 50.7c23.7 11.8 33.3 40.7 21.4 64.4-11.8 23.7-40.7 33.3-64.4 21.4L27.21 427.3c-1.1-.6-2.19-1.1-3.26-1.8-4.91-2.8-9.16-6.4-12.65-11.4-4.568-4.6-7.808-10.8-9.617-17.5-3.259-12-1.864-25.2 4.776-36.7.639-1.1 1.317-2.1 2.03-3.2L75.56 256.1c26.74-40 71.64-64.1 119.84-64.1h75.2c46.5 0 90.1 22.5 117.2 60.3l50.7 70.9c2.2 3 4 6.2 5.4 9.5 3 6.6 4.3 13.7 3.2 20.8.6 10.6-3.3 21-10.3 29.3zM276 288c-24.3 0-44 19.7-44 44s19.7 44 44 44 44-19.7 44-44-19.7-44-44-44z"/></svg>