<svg xmlns="http://www.w3.org/2000/svg" viewBox="0 0 512 512"><!--! Font Awesome Free 6.1.1 by @fontawesome - https://fontawesome.com License - https://fontawesome.com/license/free (Icons: CC BY 4.0, Fonts: SIL OFL 1.1, Code: MIT License) Copyright 2022 Fonticons, Inc.--><path d="M432.1 96.02c26.51 0 47.99-21.5 47.99-48.01S458.6 0 432.1 0s-47.98 21.5-47.98 48.01 21.48 48.01 47.98 48.01zm79 373.08c0-13.98-11.33-23.95-23.89-23.95-18.89 0-19.23 19.11-46.15 19.11-5.476 0-10.87-1.081-15.87-3.389l-135.8-70.26 49.15-73.82c5.446-8.116 8.09-17.39 8.09-26.63 0-12.4-4.776-24.73-14.09-33.9l-40.38-40.49-106.1-53.1c-.46 3.129-.66 6.329-.66 9.529 0 16.65 6.337 32.78 18.42 44.86l75.03 75.21-45.88 68.76-198-102.23c-3.53-1.8-7.33-2.7-11.04-2.7C9.675 256.1 0 267.8 0 280.1c0 8.673 4.735 17.04 12.96 21.24l392 202.6c11.88 5.501 24.45 8.119 37.08 8.119C480.1 512 511.1 486.7 511.1 469.1zm-392-377.45-10.6 22.55c5.7 2.8 11.7 4.2 17.7 4.2 9.153 0 18.1-3.2 25.06-9.102l47.26 23.51c-.125 0-.125.125-.25.25l114.5 56.76 32.51-13 6.376 19.13c4 12.13 12.63 22.01 24 27.76l58.14 28.1a31.915 31.915 0 0 0 14.26 3.355c18.8 0 31.98-15.43 31.98-31.93 0-11.74-6.461-23.1-17.74-28.7l-52.03-26.1-17.12-51.15C386.6 98.69 364.2 73.99 333.1 73.99c-7.658 0-15.82 1.504-24.43 4.934L227.4 111.3l-62.5-30.97c.009-.346.013-.692.013-1.038 0-14.13-7.468-27.7-20.89-34.53L132.9 66.45l-34.73-7.02c-.34-.07-.64-.08-.98-.08-2.666 0-5.276 2.177-5.276 5.273 0 1.473.648 2.936 1.81 3.961L119.1 91.65z"/></svg>