<svg xmlns="http://www.w3.org/2000/svg" viewBox="0 0 448 512"><!--! Font Awesome Free 6.1.2 by @fontawesome - https://fontawesome.com License - https://fontawesome.com/license/free (Icons: CC BY 4.0, Fonts: SIL OFL 1.1, Code: MIT License) Copyright 2022 Fonticons, Inc.--><path d="M445.2 486.1 327.9 313.5c-3.002 4.529-6.646 8.652-11.12 12-4.414 3.318-9.299 5.689-14.43 7.307l116.4 171.3a15.99 15.99 0 0 0 13.22 7.008c3.125 0 6.247-.898 8.997-2.773C448.3 504.2 450.2 494.3 445.2 486.1zm-302.1-391c26.51 0 48.01-21.49 48.01-47.1S170.5 0 144 0 96 21.49 96 48s21.5 47.1 47.1 47.1zm-47.09 253L64.98 472.3c-4.312 17.16 6.125 34.53 23.28 38.81 2.6.59 5.22.89 7.78.89 14.34 0 27.38-9.703 31-24.23l22.04-88.18-53.07-53.09v1.6zm217.59-79.3-76.78-102.4C218.8 142.3 190.1 128 160 128l-24.4-.9c-36.59 0-69.5 20.33-85.87 53.06L3.387 273.7c-7.905 15.8-1.5 35 14.313 42.9a31.825 31.825 0 0 0 14.28 3.375c11.75 0 23.03-6.469 28.66-17.69l35.38-70.76v56.45c0 8.484 3.375 16.62 9.375 22.63l86.63 86.63v82.75c0 17.67 14.31 32 32 32 17.69 0 32-14.33 32-32v-82.75c0-17.09-6.656-33.16-18.75-45.25L192 306.8v-93.5l70.38 93.88c10.59 14.11 30.62 16.98 44.78 6.406C321.3 303 324.2 282.9 313.6 268.8z"/></svg>