<svg xmlns="http://www.w3.org/2000/svg" viewBox="0 0 640 512"><!--! Font Awesome Free 6.1.2 by @fontawesome - https://fontawesome.com License - https://fontawesome.com/license/free (Icons: CC BY 4.0, Fonts: SIL OFL 1.1, Code: MIT License) Copyright 2022 Fonticons, Inc.--><path d="M431.1 48c0-26.51 22.4-48 48-48 27.4 0 48 21.49 48 48s-20.6 48-48 48c-25.6 0-48-21.49-48-48zm8 464c-16.8 0-32-14.3-32-32V256.9l-27.7 47.6c-9.1 15.1-28.7 20-43.9 10.9-15.1-9.1-20-28.7-10.9-43.9l58.2-96.9c17.4-28.9 48.6-46.6 82.3-46.6h29.8c33.7 0 64.9 17.7 82.3 46.6l58.2 96.9c9.1 15.2 4.2 34.8-10.9 43.9-15.2 9.1-34.8 4.2-43.9-10.9l-29.5-47.6V480c0 17.7-13.4 32-32 32-16.8 0-32-14.3-32-32V352h-16v128c0 17.7-13.4 32-32 32zM220.3 92.05l76.1-23.12c6.3-1.9 13.1.21 17.2 5.34 4.1 5.12 4.6 12.22.5 17.91l-38.6 69.12 55.2 38-24.4 40.5-50.5 7.8 5.6 79.4c.4 6.6-3.1 12.7-9 15.6-5.9 2.8-13 1.8-17.8-2.7l-59.5-53.8-57.7 53.8c-4.8 4.5-11.9 5.5-17.77 2.7-5.9-2.9-9.48-9-9.01-15.6l5.59-79.4-78.66-12.2c-6.47-1-11.682-5.8-13.14-12.2-1.459-6.4 1.128-13.1 6.53-16.8l65.56-45.1-39.49-69.12a16.008 16.008 0 0 1 1.38-17.91 16.007 16.007 0 0 1 17.16-5.34l76.15 23.12 29.4-73.96c2.5-6.99 8.3-10.99 14-10.99 7.5 0 13.3 4 15.8 10.99l29.4 73.96z"/></svg>