<svg xmlns="http://www.w3.org/2000/svg" viewBox="0 0 512 512"><!--! Font Awesome Free 6.1.2 by @fontawesome - https://fontawesome.com License - https://fontawesome.com/license/free (Icons: CC BY 4.0, Fonts: SIL OFL 1.1, Code: MIT License) Copyright 2022 Fonticons, Inc.--><path d="M304 48c0 26.51-21.5 48-48 48s-48-21.49-48-48 21.5-48 48-48 48 21.49 48 48zm-56 304v128c0 17.7-14.3 32-32 32s-32-14.3-32-32V256.9l-28.6 47.6c-9.1 15.1-28.7 20-43.9 10.9-15.13-9.1-20.03-28.7-10.9-43.9l58.2-96.9c17.4-28.9 48.6-46.6 82.3-46.6h29.8c33.7 0 64.9 17.7 82.3 46.6l58.2 96.9c9.1 15.2 4.2 34.8-10.9 43.9-15.2 9.1-34.8 4.2-43.9-10.9L328 256.9V480c0 17.7-14.3 32-32 32s-32-14.3-32-32V352h-16zM7.029 7.029c9.371-9.372 24.571-9.372 33.941 0L120.1 87.03c10.2 9.37 10.2 24.57 0 33.07-8.5 10.2-23.7 10.2-33.07 0L7.029 40.97c-9.372-9.37-9.372-24.57 0-33.941zm463.971 0c9.4-9.372 24.6-9.372 33.1 0 10.2 9.371 10.2 24.571 0 33.941l-80 79.13c-8.5 10.2-23.7 10.2-33.1 0-9.3-8.5-9.3-23.7 0-33.07l80-80.001zM7.029 471l80.001-80c9.37-9.3 24.57-9.3 33.07 0 10.2 9.4 10.2 24.6 0 33.1l-79.13 80c-9.37 10.2-24.57 10.2-33.941 0-9.372-8.5-9.372-23.7 0-33.1zM391 424.1c-9.3-8.5-9.3-23.7 0-33.1 9.4-9.3 24.6-9.3 33.1 0l80 80c10.2 9.4 10.2 24.6 0 33.1-8.5 10.2-23.7 10.2-33.1 0l-80-80z"/></svg>