<svg xmlns="http://www.w3.org/2000/svg" viewBox="0 0 448 512"><!--! Font Awesome Free 6.1.2 by @fontawesome - https://fontawesome.com License - https://fontawesome.com/license/free (Icons: CC BY 4.0, Fonts: SIL OFL 1.1, Code: MIT License) Copyright 2022 Fonticons, Inc.--><path d="M256 0c17.7 0 32 14.33 32 32v9.84c0 54.61-27.9 104.66-72.5 133.56l.2.4 56.8 79.3H360c15.1 0 29.3 8 38.4 20.1l43.2 57.6c10.6 14.1 7.7 33.3-6.4 44.8-14.1 10.6-34.2 7.7-44.8-6.4L352 319.1h-97.4l92.3 143.5c9.6 14.9 5.3 34.7-9.5 44.3-14.9 9.6-34.7 5.3-44.3-9.5L132.5 249.2c-2.9 9.2-5.4 18.9-5.4 29v72.9c0 18.6-13.4 32-32 32-16.77 0-32-13.4-32-32v-72.9c0-65.2 40.5-123.7 101-147.9 36.2-14.5 59-49.51 59-88.46V32c0-17.67 15.2-32 32.9-32zM32 80c0-26.51 21.49-48 48-48 26.5 0 48 21.49 48 48 0 26.5-21.5 48-48 48-26.51 0-48-21.5-48-48z"/></svg>