<svg xmlns="http://www.w3.org/2000/svg" viewBox="0 0 576 512"><!--! Font Awesome Free 6.1.2 by @fontawesome - https://fontawesome.com License - https://fontawesome.com/license/free (Icons: CC BY 4.0, Fonts: SIL OFL 1.1, Code: MIT License) Copyright 2022 Fonticons, Inc.--><path d="M144 48c0-26.51 21.5-48 48-48s48 21.49 48 48-21.5 48-48 48-48-21.49-48-48zM15.52 315.4C.37 306.3-4.531 286.7 4.573 271.5l58.277-96.9C80.2 145.7 111.4 128 145.1 128H181c28.6 0 55.7 12.7 73.9 34.7l73.7 88.9c11.3 13.6 9.4 33.7-4.2 45-13.6 11.3-33.7 9.4-45-4.2L232 235.3V480c0 17.7-14.3 32-32 32s-32-14.3-32-32V352h-16v128c0 17.7-14.3 32-32 32s-32-14.3-32-32V256.9l-28.57 47.6c-9.1 15.1-28.76 20-43.91 10.9zM480 240c0 26.5-21.5 48-48 48s-48-21.5-48-48 21.5-48 48-48 48 21.5 48 48zm-16 104c0-30.9 25.1-56 56-56s56 25.1 56 56v102.1c0 36.4-29.5 65.9-65.9 65.9-17.5 0-34.3-6.9-46.7-19.3L408.8 438l-28.2 56.3c-7.9 15.8-27.1 22.2-42.9 14.3-15.8-7.9-22.2-27.1-14.3-42.9l48-96c3.7-9.2 13.3-15.6 23.5-17.3 10.1-1.6 20.5 1.7 27.7 9l41.4 41.3V344zM288 48c0-8.84 7.2-16 16-16h56c8.8 0 16 7.16 16 16s-7.2 16-16 16h-56c-8.8 0-16-7.16-16-16zm47.2 73.7c7.9 3.9 11.1 13.6 7.1 21.5-3.9 7.9-13.6 11.1-21.5 7.1l-48-24c-7.9-3.9-11.1-13.6-7.1-21.5 3.9-7.86 13.6-11.06 21.5-7.11l48 24.01z"/></svg>