<svg xmlns="http://www.w3.org/2000/svg" viewBox="0 0 448 512"><!--! Font Awesome Free 6.1.2 by @fontawesome - https://fontawesome.com License - https://fontawesome.com/license/free (Icons: CC BY 4.0, Fonts: SIL OFL 1.1, Code: MIT License) Copyright 2022 Fonticons, Inc.--><path d="M128 39c0-13.9 9.1-23.83 22.9-24.91L302.7 1.443C312 .666 320 8.027 320 17.39V47.1c0 9.74-7.2 16-16 16H152.1C139.2 63.1 128 52.81 128 39zm174.4 56.1c1.1 6.1 1.6 11.4 1.6 16 0 45.1-35.8 80-80 80s-80-34.9-80-80c0-4.6.6-9.9 1.6-16h156.8zm71.2 365.2L320 369.7V480c0 1.3-.1 2.5-.2 3.8L145.5 234.9c16.6-7.1 34.7-11.8 53.3-11.8h50.4c15.9 0 31.4 3.7 45.8 8.8l94.9-164.19c-7.7-4.41-10.3-14.2-5.9-21.85 4.4-7.65 14.2-10.28 21.9-5.86l27.7 16c7.6 4.42 10.2 14.21 5.8 21.86l-56.3 96.04 2.5 1c15.3 8.8 20.5 28.4 11.7 43.7L360.6 282c2 2.9 3.9 5.8 5.7 8.8l76.1 128.9c11.3 19 5 43.5-14 54.7-19.1 11.3-43.6 5-54.8-14.1zM264 319.1c13.3 0 24-9.8 24-24 0-12.4-10.7-24-24-24s-24 11.6-24 24c0 14.2 10.7 24 24 24zM160 512c-17.7 0-32-14.3-32-32V369.7l-53.56 90.6c-11.23 19.1-35.76 25.4-54.78 14.1C.638 463.2-5.669 438.7 5.569 419.7L81.7 290.8c9.36-16.7 21.7-29.3 36-40L299.1 510c-3.5 1.3-7.2 2-11.1 2H160z"/></svg>