<svg xmlns="http://www.w3.org/2000/svg" viewBox="0 0 512 512"><!--! Font Awesome Free 6.1.2 by @fontawesome - https://fontawesome.com License - https://fontawesome.com/license/free (Icons: CC BY 4.0, Fonts: SIL OFL 1.1, Code: MIT License) Copyright 2022 Fonticons, Inc.--><path d="M460.7 249.6c5.877 4.25 12.47 6.393 19.22 6.393 10.76 0 32.05-8.404 32.05-31.97 0-9.74-4.422-19.36-12.8-25.65l-111.5-83.48c-13.75-10.25-29.04-18.42-45.42-23.79l-63.66-21.23-26.12-52.12c-5.589-11.17-16.9-17.64-28.63-17.64-17.8 0-31.99 14.47-31.99 32.01 0 4.803 1.086 9.674 3.374 14.25l29.12 58.12c5.75 11.38 15.55 19.85 27.67 23.98l16.45 5.522L227.3 154.6c-21.8 10.9-35.4 32.8-35.4 57.2v53.1l-74.1 24.7a31.949 31.949 0 0 0-21.85 30.3c0 12.05 6.004 19.05 10.33 23.09L67.6 328.85C41.23 319.4 49.11 295 23.97 295 5.3 295 0 312.16 0 319.09c0 8.553 13.68 41.32 51.13 54.88l364.1 132.8C425.7 510.2 435.7 512 445.7 512c12.5 0 24.97-2.732 36.47-8.232 8.723-3.997 13.85-12.71 13.85-21.77 0-18.67-17.15-23.96-24.06-23.96-3.375 0-6.73.75-9.998 2.248-5.111 2.486-10.64 3.702-16.21 3.702-4.511 0-9.049-.798-13.41-2.364l-90.68-33.12c8.625-4.125 15.53-11.76 17.78-21.89l21.88-101.1a47.973 47.973 0 0 0 1.05-10c0-14.91-6.906-29.31-19.17-38.4l-52.01-39 66.01-30.5L460.7 249.6zm-144.4 51.7-19.66 92a28.61 28.61 0 0 0-.592 5.911c0 4.968 1.264 9.691 3.333 14.01l-169.5-61.49c2.625-.25 5.492-.445 8.117-1.32l85-28.38c19.63-6.5 32.77-24.73 32.77-45.48v-20.53L316.3 301.3zM431.9 95.99c26.5 0 48-21.5 48-47.1S458.4 0 431.9 0s-48 21.5-48 47.1 21.5 48.89 48 48.89z"/></svg>