<svg xmlns="http://www.w3.org/2000/svg" viewBox="0 0 320 512"><!--! Font Awesome Free 6.0.0 by @fontawesome - https://fontawesome.com License - https://fontawesome.com/license/free (Icons: CC BY 4.0, Fonts: SIL OFL 1.1, Code: MIT License) Copyright 2022 Fonticons, Inc.--><path d="M207.9 95.99C234.4 95.99 255 74.5 255 48S234.4 0 207.9 0s-48.8 21.49-48.8 47.99 22.3 48 48.8 48zM73.61 385.7c-3.25 8.125-7.998 15.5-14.25 21.49L9.37 457.31c-6.249 6.246-9.373 14.46-9.373 22.68C0 505.1 22.93 512 31.99 512c8.186 0 16.37-3.125 22.62-9.375l59.36-59.48c6.125-6 10.87-13.37 14.25-21.49l13.5-33.74c-55.36-60.23-38.74-41.74-47.49-53.74L73.61 385.7zM320 273.9c0-11.77-6.392-23.15-17.57-28.74l-23.24-11.88-9.79-29.38c-5.552-16.8-33.04-75.89-102.9-75.89-35.58 0-55.44 10.22-92.58 25.26-21.56 8.63-39.18 25.13-49.68 46.13L17.62 213c-2.29 4.6-3.38 9.5-3.38 14.3 0 17.25 13.78 31.97 31.63 31.97 11.6 0 22.78-6.455 28.37-17.63l6.748-13.62c3.5-7 9.248-12.5 16.5-15.38L124.2 201.8l-15.1 60.7c-1.3 5.1-1.9 10.4-1.9 15.5 0 15.79 5.886 31.29 16.8 43.24l59.86 65.51c7.25 7.875 12.37 17.38 14.87 27.62l18.37 73.39c3.609 14.45 16.69 24.2 31.04 24.2 19.31 0 32.01-16.13 32.01-32.05 0-2.531-.305-5.097-.943-7.652l-22.25-89.01c-2.625-10.38-7.748-20.01-14.87-27.76l-45.49-49.76 17.12-68.63 5.498 16.5c5.375 16.13 16.75 29.38 31.74 37.01l23.24 11.75a31.307 31.307 0 0 0 14.13 3.375C304.8 305.8 320 292.5 320 273.9z"/></svg>