<svg xmlns="http://www.w3.org/2000/svg" viewBox="0 0 448 512"><!--! Font Awesome Free 6.1.2 by @fontawesome - https://fontawesome.com License - https://fontawesome.com/license/free (Icons: CC BY 4.0, Fonts: SIL OFL 1.1, Code: MIT License) Copyright 2022 Fonticons, Inc.--><path d="M400 224h-44l-26.12-53.25c-12.5-25.5-35.38-44.25-61.75-51L197 98.63c-7.5-1.79-15.9-2.66-22.5-2.66-20.88 0-41.33 6.81-58.26 19.78L76.5 146.3c-8.19 6.2-12.49 15.7-12.49 25.3 0 17.11 13.67 32.02 32.02 32.02 6.808 0 13.67-2.158 19.47-6.616l39.63-30.38c5.92-4.488 13.01-6.787 19.53-6.787 2.017 0 3.981.22 5.841.662l14.62 4.25-37.5 87.5C154.1 260.3 152.5 268.8 152.5 277.2c0 22.09 11.49 43.52 31.51 55.29l85 50.13-27.5 87.75a32.105 32.105 0 0 0-1.458 9.55c0 13.65 8.757 26.31 22.46 30.58 3.088 1 6.388 1.5 9.488 1.5 13.62 0 26.25-8.75 30.5-22.5l31.75-101a47.433 47.433 0 0 0 1.796-12.93c0-16.57-8.661-32.51-23.55-41.44l-61.13-36.12 31.25-78.38 20.25 41.5C310.9 277.4 327.9 288 345.1 288H400c17.62 0 32-14.38 32-32 0-17.7-14.4-32-32-32zM288 96c26.5 0 48-21.5 48-48S314.5 0 288 0s-48 21.5-48 48 21.5 48 48 48zM129.8 317.5 114.9 352H48c-17.62 0-32 14.38-32 32s14.38 32 32 32h77.5c19.25 0 36.5-11.5 44-29.12l8.875-20.5-10.75-6.25C150.4 349.9 137.6 334.8 129.8 317.5z"/></svg>