<svg xmlns="http://www.w3.org/2000/svg" viewBox="0 0 320 512"><!--! Font Awesome Free 6.0.0 by @fontawesome - https://fontawesome.com License - https://fontawesome.com/license/free (Icons: CC BY 4.0, Fonts: SIL OFL 1.1, Code: MIT License) Copyright 2022 Fonticons, Inc.--><path d="M160 96c26.5 0 48-21.5 48-48S186.5 0 160.9 0c-26.5 0-48 21.5-48 48s20.6 48 47.1 48zm155.1 175-61.19-97.95C236.3 144.9 205.8 128 172.5 128h-25c-33.3 0-63.75 16.9-81.44 45.1L4.873 271c-9.375 15-4.812 34.8 10.157 44.1 15.03 9.375 34.75 4.812 44.09-10.19l32.62-52.19L47.1 384h40v96c0 17.67 14.33 32 32 32s31.1-14.33 31.1-32v-96h16v96c0 17.67 14.33 32 32 32s32-14.33 32-32v-96h40l-43.76-131.3 32.63 52.22C266.9 314.7 277.4 320 288 320c5.781 0 11.66-1.562 16.94-4.859C319.9 305.8 324.5 286 315.1 271z"/></svg>