<svg xmlns="http://www.w3.org/2000/svg" viewBox="0 0 640 512"><!--! Font Awesome Free 6.1.1 by @fontawesome - https://fontawesome.com License - https://fontawesome.com/license/free (Icons: CC BY 4.0, Fonts: SIL OFL 1.1, Code: MIT License) Copyright 2022 Fonticons, Inc.--><path d="M256 41.84c0 54.61-27.9 104.66-72.5 133.56l.2.4 56.8 79.3h70.6c16 0 30.2 8 39.3 20.1l43.2 57.6c10.6 14.1 7.7 33.3-6.4 44.8-14.1 10.6-34.2 7.7-44.8-6.4l-39.3-52.1h-80.5l92.3 143.5c9.6 14.9 5.3 34.7-9.5 44.3-14.9 9.6-34.7 5.3-44.3-9.5L100.5 249.2c-2.93 9.2-5.4 18.9-5.4 29v72.9c0 18.6-13.43 32-32 32-16.77 0-32-13.4-32-32v-72.9c0-65.2 40.55-123.7 101-147.9 36.2-14.5 59-49.51 59-88.46V32c0-17.67 15.2-32 32-32 18.6 0 32 14.33 32 32l.9 9.84zM96 79.1c0 27.4-21.49 48-48 48s-48-20.6-48-48c0-25.61 21.49-48 48-48s48 22.39 48 48zm368 207-39.3 36.1c-1.6-2.9-3.4-5.8-5.5-8.6l-37.1-48.3 2.1-17.7-18.4-2.8c-14.6-13.3-33.7-21.7-54.7-21.7h-18.5c-.1.6-.1.3-.2.1-2.3-6.4 1.1-13.1 6.5-16.8l65.6-45.1L325 92.18c-3.2-5.69-2.7-12.79 1.4-17.91 4.1-5.13 10.9-7.24 17.2-5.34l76.1 23.12 29.4-73.96C451.6 11.1 457.4 8 464 8s12.4 3.1 14.9 10.09l29.4 73.96 76.1-23.12c6.3-1.9 13.1.21 17.2 5.34 4.1 5.12 4.6 12.22.5 17.91l-38.6 69.12 65.6 45.1c5.4 3.7 7.9 10.4 6.5 16.8-1.5 6.4-6.7 11.2-13.2 12.2l-78.6 12.2 5.6 79.4c.4 6.6-3.1 12.7-9 15.6-5.9 2.8-13 1.8-17.8-2.7L464 286.1z"/></svg>