<svg xmlns="http://www.w3.org/2000/svg" viewBox="0 0 576 512"><!--! Font Awesome Free 6.1.2 by @fontawesome - https://fontawesome.com License - https://fontawesome.com/license/free (Icons: CC BY 4.0, Fonts: SIL OFL 1.1, Code: MIT License) Copyright 2022 Fonticons, Inc.--><path d="M336 96c26.5 0 48-21.5 48-48S362.5 0 336 0s-48 21.5-48 48 21.5 48 48 48zm216 320c-13.25 0-24 10.75-24 24s-10.75 24-24 24h-69.5L460 285.6c11.75-4.75 20.04-16.31 20.04-29.69 0-17.75-14.38-31.95-32.01-31.95l-43.9-.04-26.11-53.22c-12.5-25.5-35.5-44.12-61.75-50.87l-71.22-21.15a95.632 95.632 0 0 0-22.59-2.692c-20.86 0-41.25 6.854-58.16 19.72L124.6 146.2c-8.3 6.3-13.5 14.9-13.5 25.4 0 14.71 8.712 21.23 9.031 21.6L66.88 464H24c-13.25 0-24 10.8-24 24s10.75 24 24 24h480c39.75 0 72-32.25 72-72 0-13.2-10.7-24-24-24zm-260.4 47.9h-96.9l43.1-90.97-21.99-12.1c-12.13-7.25-21.99-16.89-29.49-27.77l-62.48 131.7L99.5 464l52.25-261.4c4.125-1 8.112-2.846 11.74-5.596l39.81-30.45c5.821-4.485 12.86-6.771 19.38-6.771 2.021 0 4.015.212 5.878.656l14.73 4.383L205.8 252.2c-3.5 8.1-5.1 16.7-5.1 25.1 0 22.06 11.42 43.37 31.41 55.22l84.97 50.15-25.48 81.23zm110.5.1-43.58-.125 23.6-75.48a47.775 47.775 0 0 0 1.805-13.03c0-16.53-8.558-32.43-23.41-41.34l-61.21-36.1 31.32-78.23 20.26 41.36c8 16.25 24.86 26.89 43.11 26.89L427.3 288l-25.2 176z"/></svg>