<svg xmlns="http://www.w3.org/2000/svg" viewBox="0 0 512 512"><!--! Font Awesome Free 6.1.1 by @fontawesome - https://fontawesome.com License - https://fontawesome.com/license/free (Icons: CC BY 4.0, Fonts: SIL OFL 1.1, Code: MIT License) Copyright 2022 Fonticons, Inc.--><path d="M352 48c0-26.51 21.5-48 48-48s48 21.49 48 48-21.5 48-48 48-48-21.49-48-48zm-47.4 157.4c-15.2 6.8-27.2 19.2-33.4 34.7l-1.5 3.8c-6.6 16.4-25.2 24.4-41.6 17.8-16.4-6.6-24.4-25.2-17.8-41.6l1.5-3.8c12.4-30.9 36.4-55.8 66.9-69.4l11-4.9c20.8-9.2 42.4-14 66-14 44.6 0 84.8 26.8 101.9 67.9l14.5 36.8 22.2 10.7c15.8 7.9 22.2 27.1 14.3 42.9-7.9 15.8-27.1 22.2-42.9 14.3L439 287.3c-10.3-5.2-18.4-13.9-22.8-24.5l-9.6-23-19.3 65.5 49.5 54.1c5.4 5.9 9.3 13 11.2 20.8l23 92c4.3 17.2-6.1 34.6-23.2 38.8-17.2 4.3-34.6-6.1-39.7-23.2l-21.2-88.2-70.6-77.1c-14.8-16.1-21.2-38.6-14.7-59.7l16.9-63.5c-.9.4-1.9.8-2.8 1.2l-11.1 4.9zm-11.9 138.8 40.7 44.4-14.5 36.2c-2.4 6.1-6 11.6-10.6 16.1l-61.7 61.7c-12.5 12.5-32.7 12.5-45.2 0s-12.5-32.7 0-45.2l59.3-59.4 25-62.4c2.1 3 4.5 5.8 7 8.6zm-69.6-70.1c8.6 4.5 11.2 14.2 6.8 21l-43.8 76.7c-.7 2.7-1.8 5.4-3.2 7.9l-64 110.9c-8.9 15.3-28.46 20.5-43.76 11.7l-55.43-32C4.407 461.4-.837 441.9 7.999 426.6L71.1 315.7c9.74-15.3 29.3-20.5 44.6-12.6l54.4 32.3 32-56.3c4.5-6.8 14.2-9.4 21-5z"/></svg>