<svg xmlns="http://www.w3.org/2000/svg" viewBox="0 0 512 512"><!--! Font Awesome Free 6.1.1 by @fontawesome - https://fontawesome.com License - https://fontawesome.com/license/free (Icons: CC BY 4.0, Fonts: SIL OFL 1.1, Code: MIT License) Copyright 2022 Fonticons, Inc.--><path d="M182.2.1C191.7-.953 200 6.466 200 16v14.13c0 8.78-7.1 15.92-15.9 16H72.74C63.48 46.04 56 38.52 56 29.24c0-8.6 6.47-15.83 15.02-16.78L182.2.1zM192 96c0 35.3-28.7 64-64 64-35.35 0-64-28.7-64-64 0-6.2.88-12.2 2.53-17.87H189.5C191.1 83.8 192 89.8 192 96zM32 256c0-18.8 8.09-35.7 20.97-47.4l144.23 111c-1.7.3-3.4.4-5.2.4H64c-17.67 0-32-14.3-32-32v-32zm190.2 42.5L85.05 192.9c3.56-.6 7.22-1.8 10.95-1.8h64c35.3 0 64 29.6 64 64v32c0 4.6-.6 8.1-1.8 11.4zM320 96c0-35.35 28.7-64.9 64-64.9s64 29.55 64 64.9c0 35.3-28.7 64-64 64s-64-28.7-64-64zm96 96c35.3 0 64 28.7 64 64v32c0 17.7-14.3 32-32 32H320c-17.7 0-32-14.3-32-32v-32c0-35.3 28.7-64 64-64h64zM151.8 506.1c-10 8.7-25.1 7.7-33.9-2.3-8.7-10-7.7-25.1 2.3-33.9l15.9-13.9-113-.9c-12.36 0-23.1-9.9-23.1-24 0-12.4 10.75-24 24-24l112.1.9-15.9-13.9c-10-8.8-11-23.9-2.3-33.9 8.8-10 23.9-11 33.9-2.3l64 56c5.2 4.6 8.2 11.2 8.2 17.2 0 7.8-3 14.4-8.2 19l-64 56zm144.4-92.2 64-56c10-8.7 25.1-7.7 33.9 2.3 8.7 10 7.7 25.1-2.3 33.9l-15.9 13H488c13.3 0 24 11.6 24 24 0 14.1-10.7 24-24 24H375.9l15.9 14.8c10 8.8 11 23.9 2.3 33.9-8.8 10-23.9 11-33.9 2.3l-64-56c-6.1-4.6-8.2-11.2-8.2-19 0-6 2.1-12.6 8.2-17.2z"/></svg>