<svg xmlns="http://www.w3.org/2000/svg" viewBox="0 0 576 512"><!--! Font Awesome Free 6.1.1 by @fontawesome - https://fontawesome.com License - https://fontawesome.com/license/free (Icons: CC BY 4.0, Fonts: SIL OFL 1.1, Code: MIT License) Copyright 2022 Fonticons, Inc.--><path d="M482.3 192c34.2 0 93.7 29 93.7 64 0 36-59.5 64-93.7 64H365.7L265.2 495.9c-5.7 9.9-16.3 16.1-27.8 16.1h-56.2c-10.6 0-18.3-10.2-15.4-20.4L214.9 320H112l-43.2 57.6c-3.02 4-7.76 6.4-12.8 6.4H14.03C6.284 384 0 377.7 0 369.1c0-.4.182-1.7.54-3L32 256 .54 145.9C.182 144.6 0 143.3 0 142c0-7.7 6.284-14 14.03-14H56c5.04 0 9.78 2.4 12.8 6.4L112 192h102.9L165.8 20.4C162.9 10.17 170.6 0 181.2 0h56.2c11.5 0 22.1 6.153 27.8 16.12L365.7 192h116.6z"/></svg>