<svg xmlns="http://www.w3.org/2000/svg" viewBox="0 0 448 512"><!--! Font Awesome Free 6.1.1 by @fontawesome - https://fontawesome.com License - https://fontawesome.com/license/free (Icons: CC BY 4.0, Fonts: SIL OFL 1.1, Code: MIT License) Copyright 2022 Fonticons, Inc.--><path d="M304 368h-55.7l38.45-89.7c2.938-6.859.719-14.84-5.312-19.23-6.096-4.422-14.35-4.031-19.94.89l-128 111.1a15.979 15.979 0 0 0-4.439 17.67 15.993 15.993 0 0 0 14.97 10.38H199.7l-38.45 89.7c-2.938 6.86-.719 14.84 5.312 19.23C169.4 510.1 172.7 512 175.1 512c3.781 0 7.531-1.328 10.53-3.953l128-111.1a15.979 15.979 0 0 0 4.439-17.67C316.6 372.1 310.7 368 304 368zm69.3-141.4c6.6-10 10.7-21.7 10.7-34.6 0-35.38-28.62-64-64-64h-5.875C317.8 118 320 107.3 320 96c0-53-43-96-96-96-5.1 0-10.1.75-15.1 1.5C218.3 14.62 224 30.62 224 48c0 44.13-35.9 80-80 80h-16c-35.37 0-64 28.6-64 64 0 12.88 4.117 24.58 10.72 34.55C31.98 236.3 0 274.3 0 320c0 53.02 42.98 96 96 96h12.79c-4.033-4.414-7.543-9.318-9.711-15.1-7.01-18.64-1.645-39.96 13.32-53.02l127.9-111.9C249.1 228.2 260.3 223.1 271.1 224c10.19 0 19.95 3.174 28.26 9.203 18.23 13.27 24.76 36.1 15.89 57.71l-19.33 45.1h7.195c19.89 0 37.95 12.51 44.92 31.11C355.3 384 351 402.8 339.1 416H352c53.02 0 96-42.98 96-96 0-45.7-32-83.7-74.7-93.4z"/></svg>