<svg xmlns="http://www.w3.org/2000/svg" viewBox="0 0 512 512"><!--! Font Awesome Free 6.1.2 by @fontawesome - https://fontawesome.com License - https://fontawesome.com/license/free (Icons: CC BY 4.0, Fonts: SIL OFL 1.1, Code: MIT License) Copyright 2022 Fonticons, Inc.--><path d="M448 192H64c-35.35 0-64 28.7-64 64v96c0 17.67 14.33 32 32 32h32v96c0 17.67 14.33 32 32 32h320c17.67 0 32-14.33 32-32v-96h32c17.67 0 32-14.33 32-32v-96c0-35.3-28.7-64-64-64zm-64 256H128v-96h256v96zm48-152c-13.25 0-24-10.75-24-24 0-13.27 10.75-24 24-24s24 10.73 24 24c0 13.3-10.7 24-24 24zM128 64h229.5L384 90.51V160h64V77.25c0-8.484-3.375-16.62-9.375-22.62l-45.25-45.25C387.4 3.375 379.2 0 370.8 0H96C78.34 0 64 14.33 64 32v128h64V64z"/></svg>