<svg xmlns="http://www.w3.org/2000/svg" viewBox="0 0 448 512"><!--! Font Awesome Free 6.2.1 by @fontawesome - https://fontawesome.com License - https://fontawesome.com/license/free (Icons: CC BY 4.0, Fonts: SIL OFL 1.1, Code: MIT License) Copyright 2022 Fonticons, Inc.--><path d="M48 32C21.5 32 0 53.5 0 80v96c0 26.5 21.5 48 48 48h96c26.5 0 48-21.5 48-48V80c0-26.5-21.5-48-48-48H48zm80 64v64H64V96h64zM48 288c-26.5 0-48 21.5-48 48v96c0 26.5 21.5 48 48 48h96c26.5 0 48-21.5 48-48v-96c0-26.5-21.5-48-48-48H48zm80 64v64H64v-64h64zM256 80v96c0 26.5 21.5 48 48 48h96c26.5 0 48-21.5 48-48V80c0-26.5-21.5-48-48-48h-96c-26.5 0-48 21.5-48 48zm64 16h64v64h-64V96zm32 352v32h32v-32h-32zm96 0h-32v32h32v-32zm-32-160v32h-64v-32h-96v192h64v-96h32v32h96V288h-32z"/></svg>