<svg xmlns="http://www.w3.org/2000/svg" viewBox="0 0 448 512"><!--! Font Awesome Free 6.1.1 by @fontawesome - https://fontawesome.com License - https://fontawesome.com/license/free (Icons: CC BY 4.0, Fonts: SIL OFL 1.1, Code: MIT License) Copyright 2022 Fonticons, Inc.--><path d="M96 96c-53.02 0-96 42.1-96 96s42.98 96 96 96c11.28 0 21.95-2.305 32-5.879V288c0 35.3-28.7 64-64 64-17.67 0-32 14.33-32 32s14.33 32 32 32c70.58 0 128-57.42 128-128v-96c0-53.9-43-96-96-96zm352 96c0-53.02-42.98-96-96-96s-96 42.98-96 96 42.98 96 96 96c11.28 0 21.95-2.305 32-5.879V288c0 35.3-28.7 64-64 64-17.67 0-32 14.33-32 32s14.33 32 32 32c70.58 0 128-57.42 128-128v-96z"/></svg>