<svg xmlns="http://www.w3.org/2000/svg" viewBox="0 0 640 512"><!--! Font Awesome Free 6.1.2 by @fontawesome - https://fontawesome.com License - https://fontawesome.com/license/free (Icons: CC BY 4.0, Fonts: SIL OFL 1.1, Code: MIT License) Copyright 2022 Fonticons, Inc.--><path d="M312.3 32.09C137.6 36.22 0 183.3 0 358v106c0 8.8 7.164 16 16 16h32c8.84 0 16-7.2 16-16V357.1C64 213.9 181.2 93.6 324.4 96 463.5 98.4 576 212.3 576 352v112c0 8.836 7.164 16 16 16h32c8.838 0 16-7.164 16-16V352c0-179.9-147.7-324.16-327.7-319.91zm1.2 192.11C244.8 227.6 192 286.9 192 355.7V464c0 8.8 7.2 16 16 16h32c8.8 0 16-7.2 16-16V354.3c0-34.06 25.65-63.85 59.64-66.11C352.9 285.7 384 315.3 384 352v112c0 8.836 7.164 16 16 16h32c8.838 0 16-7.164 16-16V352c0-72.7-61-131.5-134.5-127.8zm-.3-96.1C191.4 131.7 96 234.9 96 356.8V464c0 8.8 7.2 16 16 16h32c8.8 0 16-7.2 16-16V355.9c0-86.64 67.24-160.5 153.8-163.8 91-3.4 166.2 69.6 166.2 159.9v112c0 8.836 7.164 16 16 16h32c8.838 0 16-7.164 16-16V352c0-125.8-104.2-227.7-230.8-223.9z"/></svg>