<svg xmlns="http://www.w3.org/2000/svg" viewBox="0 0 384 512"><!--! Font Awesome Free 6.1.1 by @fontawesome - https://fontawesome.com License - https://fontawesome.com/license/free (Icons: CC BY 4.0, Fonts: SIL OFL 1.1, Code: MIT License) Copyright 2022 Fonticons, Inc.--><path d="M13.97 2.196a24.005 24.005 0 0 1 25.65 3.582L80 40.39l40.4-34.612c9-7.704 22.2-7.704 31.2 0L192 40.39l40.4-34.612c9-7.704 22.2-7.704 31.2 0L304 40.39l40.4-34.612A23.92 23.92 0 0 1 370 2.196C378.5 6.113 384 14.63 384 24v464c0 9.4-5.5 17.9-14 21.8-8.5 3.9-18.5 2.5-25.6-3.6L304 471.6l-40.4 34.6c-9 7.7-22.2 7.7-31.2 0L192 471.6l-40.4 34.6c-9 7.7-22.2 7.7-31.2 0L80 471.6l-40.38 34.6a24.04 24.04 0 0 1-25.65 3.6A23.948 23.948 0 0 1 0 488V24C0 14.63 5.456 6.112 13.97 2.196zM96 144c-8.84 0-16 7.2-16 16s7.16 16 16 16h192c8.8 0 16-7.2 16-16s-7.2-16-16-16H96zm0 224h192c8.8 0 16-7.2 16-16s-7.2-16-16-16H96c-8.84 0-16 7.2-16 16s7.16 16 16 16zm0-128c-8.84 0-16 7.2-16 16s7.16 16 16 16h192c8.8 0 16-7.2 16-16s-7.2-16-16-16H96z"/></svg>