<svg xmlns="http://www.w3.org/2000/svg" viewBox="0 0 512 512"><!--! Font Awesome Free 6.1.2 by @fontawesome - https://fontawesome.com License - https://fontawesome.com/license/free (Icons: CC BY 4.0, Fonts: SIL OFL 1.1, Code: MIT License) Copyright 2022 Fonticons, Inc.--><path d="M256 160c-53.1 0-96 42.9-96 96s42.92 96 96 96 96-42.92 96-96-42.9-96-96-96zm0 128c-17.7 0-32-14.3-32-32s14.33-32 32-32 32 14.33 32 32-14.3 32-32 32zm0-288C114.6 0 0 114.6 0 256s114.6 256 256 256 256-114.6 256-256S397.4 0 256 0zm0 384c-70.75 0-128-57.25-128-128s57.25-128 128-128 128 57.25 128 128-57.2 128-128 128z"/></svg>