<svg xmlns="http://www.w3.org/2000/svg" viewBox="0 0 512 512"><!--! Font Awesome Free 6.2.1 by @fontawesome - https://fontawesome.com License - https://fontawesome.com/license/free (Icons: CC BY 4.0, Fonts: SIL OFL 1.1, Code: MIT License) Copyright 2022 Fonticons, Inc.--><path d="M352 96h64c17.7 0 32 14.3 32 32v256c0 17.7-14.3 32-32 32h-64c-17.7 0-32 14.3-32 32s14.3 32 32 32h64c53 0 96-43 96-96V128c0-53-43-96-96-96h-64c-17.7 0-32 14.3-32 32s14.3 32 32 32zm-7.5 177.4c4.8-4.5 7.5-10.8 7.5-17.4s-2.7-12.9-7.5-17.4l-144-136c-7-6.6-17.2-8.4-26-4.6S160 110.5 160 120v72H32c-17.7 0-32 14.3-32 32v64c0 17.7 14.3 32 32 32h128v72c0 9.6 5.7 18.2 14.5 22s19 2 26-4.6l144-136z"/></svg>