<svg xmlns="http://www.w3.org/2000/svg" viewBox="0 0 512 512"><!--! Font Awesome Free 6.1.2 by @fontawesome - https://fontawesome.com License - https://fontawesome.com/license/free (Icons: CC BY 4.0, Fonts: SIL OFL 1.1, Code: MIT License) Copyright 2022 Fonticons, Inc.--><path d="M32 160h319.9l.08 72c0 9.547 5.651 18.19 14.41 22a24.037 24.037 0 0 0 25.93-4.406l112-104c10.24-9.5 10.24-25.69 0-35.19l-112-104a24.038 24.038 0 0 0-25.93-4.408 23.997 23.997 0 0 0-14.41 22L351.9 96H32c-17.69 0-32 14.3-32 31.1S14.31 160 32 160zm448 192H160.1l-.1-72.9c0-9.547-5.652-18.19-14.41-22-8.69-2.9-18.89-1.2-25.89 5.3l-112 104c-10.24 9.5-10.24 25.69 0 35.19l112 104a24.03 24.03 0 0 0 25.93 4.406C154.4 506.2 160 497.5 160 488l.1-72H480c17.69 0 32-14.31 32-32s-14.3-32-32-32z"/></svg>