<svg xmlns="http://www.w3.org/2000/svg" viewBox="0 0 640 512"><!--! Font Awesome Free 6.1.2 by @fontawesome - https://fontawesome.com License - https://fontawesome.com/license/free (Icons: CC BY 4.0, Fonts: SIL OFL 1.1, Code: MIT License) Copyright 2022 Fonticons, Inc.--><path d="M64 116.8c0-15.8 20.53-22.01 29.31-9.7l98.69 148V116.8c0-15.8 20.5-22.01 29.3-9.7l98.7 148V116.8c0-15.8 20.5-22.01 29.3-9.7l98.7 148V116.8c0-15.8 20.5-22.01 29.3-9.7l129.5 195.1c14.2 21.3-1 48.9-26.6 48.9H64V116.8zm544 266.3c17.7 0 32 15.2 32 32 0 18.6-14.3 32-32 32H32c-17.67 0-32-13.4-32-32 0-16.8 14.33-32 32-32h576z"/></svg>