<svg xmlns="http://www.w3.org/2000/svg" viewBox="0 0 640 512"><!--! Font Awesome Free 6.1.2 by @fontawesome - https://fontawesome.com License - https://fontawesome.com/license/free (Icons: CC BY 4.0, Fonts: SIL OFL 1.1, Code: MIT License) Copyright 2022 Fonticons, Inc.--><path d="M9.375 233.4C3.375 239.4 0 247.5 0 256v128c0 8.5 3.375 16.62 9.375 22.62S23.5 416 32 416h32V224H32c-8.5 0-16.62 3.4-22.625 9.4zM464 96H352V32c0-17.62-14.38-32-32-32s-32 14.38-32 32v64H176c-44.2 0-80 35.8-80 80v272c0 35.38 28.62 64 64 64h320c35.38 0 64-28.62 64-64V176c0-44.2-35.7-80-80-80zM256 416h-64v-32h64v32zm-32-120c-22.1 0-40-17.9-40-40s17.9-40 40-40 40 17.9 40 40-17.9 40-40 40zm128 120h-64v-32h64v32zm96 0h-64v-32h64v32zm-32-120c-22.12 0-40-17.88-40-40s17.9-40 40-40 40 17.9 40 40-17.9 40-40 40zm214.6-62.6c-6-6-14.1-9.4-22.6-9.4h-32v192h32c8.5 0 16.62-3.375 22.62-9.375S640 392.5 640 384V256c0-8.5-3.4-16.6-9.4-22.6z"/></svg>