<svg xmlns="http://www.w3.org/2000/svg" viewBox="0 0 512 512"><!--! Font Awesome Free 6.1.2 by @fontawesome - https://fontawesome.com License - https://fontawesome.com/license/free (Icons: CC BY 4.0, Fonts: SIL OFL 1.1, Code: MIT License) Copyright 2022 Fonticons, Inc.--><path d="m156.6 384.9-30.9-31.8c-8.5-7.6-11.5-20-8.6-31.3 3-8.9 7-20.5 12.7-33.8H24c-8.62 0-16.586-4.6-20.854-12.1a23.961 23.961 0 0 1 .211-24.1l52.473-88.5c12.96-21.9 36.5-36.2 61.97-36.2H200c2.4-3.1 4.8-6.8 7.2-10.4C289.1-4.07 411.1-8.142 483.9 5.275c11.7 2.139 20.7 11.155 22.8 22.785 13.4 72.84 9.4 194.84-111.4 276.74-3.5 2.4-8.2 4.8-11.3 6.3v83.1c0 25.5-13.4 49-35.3 62l-88.5 52.4c-7.4 4.4-16.6 4.5-24.1.3-7.5-4.3-12.1-12.3-12.1-20.9V380.8c-14.1 4.8-26.4 8.9-35.7 11.9-11.2 3.6-23.4.5-31.7-7.8zM384 167.1c22.1 0 40-17 40-40 0-21.2-17.9-40-40-40s-40 18.8-40 40c0 23 17.9 40 40 40z"/></svg>