<svg xmlns="http://www.w3.org/2000/svg" viewBox="0 0 384 512"><!--! Font Awesome Free 6.1.1 by @fontawesome - https://fontawesome.com License - https://fontawesome.com/license/free (Icons: CC BY 4.0, Fonts: SIL OFL 1.1, Code: MIT License) Copyright 2022 Fonticons, Inc.--><path d="M240 32c79.5 0 144 64.47 144 144 0 79.5-64.5 144-144 144H128v32h160c17.7 0 32 14.3 32 32s-14.3 32-32 32H128v32c0 17.7-14.3 32-32 32-17.67 0-32-14.3-32-32v-32H32c-17.67 0-32-14.3-32-32s14.33-32 32-32h32v-32H32c-17.67 0-32-14.3-32-32s14.33-32 32-32h32V64c0-17.67 14.33-32 32-32h144zm80 144c0-44.2-35.8-80-80-80H128v160h112c44.2 0 80-35.8 80-80z"/></svg>