<svg xmlns="http://www.w3.org/2000/svg" viewBox="0 0 512 512"><!--! Font Awesome Free 6.1.2 by @fontawesome - https://fontawesome.com License - https://fontawesome.com/license/free (Icons: CC BY 4.0, Fonts: SIL OFL 1.1, Code: MIT License) Copyright 2022 Fonticons, Inc.--><path d="M320 96H192l-47.4-71.12C137.5 14.24 145.1 0 157.9 0h196.2c12.8 0 20.4 14.24 13.3 24.88L320 96zm-128 32h128c3.8 2.5 8.1 5.3 12.1 8.4C389.7 172.7 512 250.9 512 416c0 53-43 96-96 96H96c-53.02 0-96-43-96-96 0-165.1 122.3-243.3 179-279.6 4.9-3.1 9.2-5.9 13-8.4zm84.1 96c0-11.1-9-20.1-21-20.1-10.2 0-19.2 9-19.2 20.1v6c-5.6 1.2-11.8 2.9-15.9 5.1-14.9 6.8-27.9 19.4-31.1 37.7-1.8 10.2-.8 20.1 3.4 29 4.2 8.8 10.7 15 17.3 19.5 11.6 7.9 26.9 12.5 38.6 16l2.2.6c14 4.3 23.4 7.4 29.3 11.7 2.5 1.8 3.4 3.2 3.7 4.1.4.8 1 2.6.3 6.6-.6 3.5-2.5 6.5-8 8.8-6.1 2.6-16 3.9-28.8 1.9-6-1-16.7-4.6-26.2-7.8-2.2-.8-4.4-1.5-6.4-2.2-10.5-3.5-21.8 2.2-25.3 12.7s2.2 21.8 12.7 24.4c1.2 1.3 2.7 1.8 4.4 2.4 7 2.7 20.3 6.9 29.8 9.1v6.4c0 11.1 9 20.1 19.2 20.1 12 0 21-9 21-20.1v-5.5c5.3-1 10.5-3.4 15.3-4.6 15.8-6.7 28.4-19.7 31.7-38.7 1.8-10.4 1-20.4-3-29.5-3.9-9-10.2-15.6-16.9-20.4-12.1-8.9-28.3-13.7-40.4-17.4l-1.7-.2c-13.3-4.3-22.9-7.3-29-11.5-2.6-1.8-3.4-3-3.6-3.5-.2-.4-.8-1.6-.2-5 .4-2 1.9-5.3 8.2-8.1 5.6-2.9 16.4-4.5 28.6-3.5 4.4 1.6 17.9 4.2 21.8 5.2 10.6 2.9 21.6-3.5 24.4-14.2 2.9-10.6-3.5-21.6-14.2-24.4-4.4-1.2-14.4-3.2-21-4.4V224z"/></svg>