<svg xmlns="http://www.w3.org/2000/svg" viewBox="0 0 640 512"><!--! Font Awesome Free 6.2.1 by @fontawesome - https://fontawesome.com License - https://fontawesome.com/license/free (Icons: CC BY 4.0, Fonts: SIL OFL 1.1, Code: MIT License) Copyright 2022 Fonticons, Inc.--><path d="M117.9 62.4c-16.8-5.6-25.8-23.7-20.2-40.5s23.7-25.8 40.5-20.2l113 37.7C265 15.8 290.7 0 320 0c44.2 0 80 35.8 80 80 0 3-.2 5.9-.5 8.8l122.6 40.9c16.8 5.6 25.8 23.7 20.2 40.5s-23.7 25.8-40.5 20.2l-135.4-45.2c-4.5 3.2-9.3 5.9-14.4 8.2V480c0 17.7-14.3 32-32 32H128c-17.7 0-32-14.3-32-32s14.3-32 32-32h160V153.3c-21-9.2-37.2-27-44.2-49l-125.9-42zm396.3 211c-.4-.8-1.3-1.3-2.2-1.3s-1.7.5-2.2 1.3L435.1 416h153.8l-74.7-142.7zM512 224c18.8 0 36 10.4 44.7 27l77.8 148.5c3.1 5.8 6.1 14 5.5 23.8-.7 12.1-4.8 35.2-24.8 55.1-20.3 20.2-53 33.6-103.2 33.6s-82.9-13.4-103.2-33.5c-20-20-24.2-43-24.8-55.1-.6-9.8 2.5-18 5.5-23.8L467.3 251c8.7-16.6 25.9-27 44.7-27zm-384-80c-.9 0-1.7.5-2.2 1.3L51.1 288h153.8l-74.7-142.7c-.4-.8-1.3-1.3-2.2-1.3zm44.7-21 77.8 148.5c3.1 5.8 6.1 14 5.5 23.8-.7 12.1-4.8 35.2-24.8 55.1-20.3 20.2-53 33.6-103.2 33.6s-82.9-13.4-103.2-33.5c-20-20-24.2-43-24.8-55.1-.6-9.8 2.5-18 5.5-23.8L83.3 123c8.7-16.6 25.9-27 44.7-27s36 10.4 44.7 27z"/></svg>