<svg xmlns="http://www.w3.org/2000/svg" viewBox="0 0 640 512"><!--! Font Awesome Free 6.3.0 by @fontawesome - https://fontawesome.com License - https://fontawesome.com/license/free (Icons: CC BY 4.0, Fonts: SIL OFL 1.1, Code: MIT License) Copyright 2023 Fonticons, Inc.--><path d="M116.9 62.4c-16.8-5.6-25.8-23.7-20.2-40.5s23.7-25.8 40.5-20.2l113 37.7C264 15.8 289.7 0 319 0c44.2 0 80 35.8 80 80 0 3-.2 5.9-.5 8.8l122.6 40.9c16.8 5.6 25.8 23.7 20.2 40.5s-23.7 25.8-40.5 20.2l-135.4-45.2c-4.5 3.2-9.3 5.9-14.4 8.2V480c0 17.7-14.3 32-32 32H127c-17.7 0-32-14.3-32-32s14.3-32 32-32h160V153.3c-21-9.2-37.2-27-44.2-49l-125.9-42zM199.4 288 127 163.8 54.6 288h144.8zM127 384c-62.9 0-115.2-34-126-78.9-2.6-11 1-22.3 6.7-32.1l95.2-163.2c5-8.6 14.2-13.8 24.1-13.8s19.1 5.3 24.1 13.8L246.3 273c5.7 9.8 9.3 21.1 6.7 32.1C242.2 350 189.9 384 127 384zm382.8-92.2L437.4 416h144.9l-72.5-124.2zm126 141.3C625 478 572.7 512 509.8 512s-115.2-34-126-78.9c-2.6-11 1-22.3 6.7-32.1l95.2-163.2c5-8.6 14.2-13.8 24.1-13.8s19.1 5.3 24.1 13.8L629.1 401c5.7 9.8 9.3 21.1 6.7 32.1z"/></svg>