<svg xmlns="http://www.w3.org/2000/svg" viewBox="0 0 640 512"><!--! Font Awesome Free 6.1.1 by @fontawesome - https://fontawesome.com License - https://fontawesome.com/license/free (Icons: CC BY 4.0, Fonts: SIL OFL 1.1, Code: MIT License) Copyright 2022 Fonticons, Inc.--><path d="M85 250.5C-2 424.7.9 416.4.9 432c-.897 44.1 56.35 80 127.1 80s128-35.88 128-79.1c0-16.12 1.375-8.752-85.12-181.5-17.58-36.1-68.08-36.3-85.88-.9zM55.96 416l71.98-143.1L200.09 416H55.96zM554.9 122.5c-17.62-35.25-68.08-35.37-85.83 0-87 174.2-85.04 165.9-85.04 181.5 0 44.12 57.25 79.1 128 79.1s127.1-35.87 127.1-79.1c-.03-16.1 2.27-8.7-84.23-181.5zM439.1 288l72.04-143.1L583.22 288H439.1zm56 160H352V153.3c20.83-9.117 36.72-26.93 43.78-48.77l126.3-42.11c16.77-5.594 25.83-23.72 20.23-40.48-5.578-16.73-23.62-25.86-40.48-20.23l-113.3 37.76C374.59 15.98 349.24.06 319.95.06c-44.18 0-79.1 35.82-79.1 80 0 2.961.559 5.771.871 8.648L117.9 129.7c-16.8 5.6-25.85 23.7-20.26 40.4 4.469 13.41 16.95 21.88 30.36 21.88 3.344 0 6.768-.519 10.13-1.644L273.8 145.1c4.4 3.2 8.3 6 14.2 8.2V496c0 8.8 7.2 16 16 16h223.1c8.838 0 16-7.164 16-15.1 0-27.4-20.6-48.9-48-48.9z"/></svg>