<svg xmlns="http://www.w3.org/2000/svg" viewBox="0 0 640 512"><!--! Font Awesome Free 6.3.0 by @fontawesome - https://fontawesome.com License - https://fontawesome.com/license/free (Icons: CC BY 4.0, Fonts: SIL OFL 1.1, Code: MIT License) Copyright 2023 Fonticons, Inc.--><path d="M521.1 62.4c16.8-5.6 25.8-23.7 20.2-40.5S517.6-3.9 500.9 1.6l-113 37.7C374 15.8 348.3 0 319 0c-44.2 0-80 35.8-80 80 0 3 .2 5.9.5 8.8l-122.6 40.8c-16.8 5.6-25.8 23.7-20.2 40.5s23.7 25.8 40.5 20.2l135.5-45.2c4.5 3.2 9.3 5.9 14.4 8.2V480c0 17.7 14.3 32 32 32H511c17.7 0 32-14.3 32-32s-14.3-32-32-32H351V153.3c21-9.2 37.2-27 44.2-49l125.9-42zM438.6 288 511 163.8 583.4 288H438.6zm72.4 96c62.9 0 115.2-34 126-78.9 2.6-11-1-22.3-6.7-32.1l-95.2-163.2c-5-8.6-14.2-13.8-24.1-13.8s-19.1 5.3-24.1 13.8l-95.2 163.3c-5.7 9.8-9.3 21.1-6.7 32.1C395.8 350 448.1 384 511 384zm-382.8-92.2L200.6 416H55.7l72.4-124.2zM2.2 433.1C13 478 65.3 512 128.2 512s115.2-34 126-78.9c2.6-11-1-22.3-6.7-32.1l-95.3-163.2c-5-8.6-14.2-13.8-24.1-13.8s-19.1 5.3-24.1 13.8L8.9 401.1c-5.7 9.8-9.3 21.1-6.7 32.1z"/></svg>