<svg xmlns="http://www.w3.org/2000/svg" viewBox="0 0 640 512"><!--! Font Awesome Free 6.1.2 by @fontawesome - https://fontawesome.com License - https://fontawesome.com/license/free (Icons: CC BY 4.0, Fonts: SIL OFL 1.1, Code: MIT License) Copyright 2022 Fonticons, Inc.--><path d="M336 160h16c8.8 0 16 7.2 16 16s-7.2 16-16 16h-32c-8.8 0-16-7.2-16-16v-32c0-8.8 7.2-16 16-16s16 7.2 16 16v16zM302.2 5.374c9.9-7.165 24.8-7.165 35.6 0l139 92.686 125.6 27.04c22 5.8 37.6 25.2 37.6 47.7v98.3c0-61-50.1-112-112-112s-112 51-112 112v25.5c-19.1 11-32 31.7-32 55.4h-64c-35.3 0-64 28.7-64 64v96h64H48c-26.51 0-48-21.5-48-48V172.8c0-22.5 15.63-41.9 37.59-47.7L163.2 98.06l139-92.686zM80 272c0 8.8 7.16 16 16 16h32c8.8 0 16-7.2 16-16v-64c0-8.8-7.2-16-16-16H96c-8.84 0-16 7.2-16 16v64zm0 128c0 8.8 7.16 16 16 16h32c8.8 0 16-7.2 16-16v-64c0-8.8-7.2-16-16-16H96c-8.84 0-16 7.2-16 16v64zm240-136c48.6 0 88-39.4 88-88s-39.4-88-88-88-88 39.4-88 88 39.4 88 88 88zm208-72c44.2 0 80 35.8 80 80v48c17.7 0 32 14.3 32 32v128c0 17.7-14.3 32-32 32H448c-17.7 0-32-14.3-32-32V352c0-17.7 14.3-32 32-32v-48c0-44.2 35.8-80 80-80zm0 48c-17.7 0-32 14.3-32 32v48h64v-48c0-17.7-14.3-32-32-32z"/></svg>