<svg xmlns="http://www.w3.org/2000/svg" viewBox="0 0 640 512"><!--! Font Awesome Free 6.1.1 by @fontawesome - https://fontawesome.com License - https://fontawesome.com/license/free (Icons: CC BY 4.0, Fonts: SIL OFL 1.1, Code: MIT License) Copyright 2022 Fonticons, Inc.--><path d="M320 128c8.8 0 16 7.2 16 16v16h16c8.8 0 16 7.2 16 16s-7.2 16-16 16h-32c-8.8 0-16-7.2-16-16v-32c0-8.8 7.2-16 16-16zm156.8-29.94 125.6 27.04c22 5.8 37.6 25.2 37.6 47.7V464c0 26.5-21.5 48-48 48H48c-26.51 0-48-21.5-48-48V172.8c0-22.5 15.63-41.9 37.59-47.7L163.2 98.06l139-92.686c9.9-7.165 24.8-7.165 35.6 0l139 92.686zM256 512h128v-96c0-35.3-28.7-64-64-64s-64 28.7-64 64v96zM96 192c-8.84 0-16 7.2-16 16v64c0 8.8 7.16 16 16 16h32c8.8 0 16-7.2 16-16v-64c0-8.8-7.2-16-16-16H96zm400 80c0 8.8 7.2 16 16 16h32c8.8 0 16-7.2 16-16v-64c0-8.8-7.2-16-16-16h-32c-8.8 0-16 7.2-16 16v64zM96 320c-8.84 0-16 7.2-16 16v64c0 8.8 7.16 16 16 16h32c8.8 0 16-7.2 16-16v-64c0-8.8-7.2-16-16-16H96zm400 80c0 8.8 7.2 16 16 16h32c8.8 0 16-7.2 16-16v-64c0-8.8-7.2-16-16-16h-32c-8.8 0-16 7.2-16 16v64zM320 88c-48.6 0-88 39.4-88 88s39.4 88 88 88 88-39.4 88-88-39.4-88-88-88z"/></svg>