<svg xmlns="http://www.w3.org/2000/svg" viewBox="0 0 640 512"><!--! Font Awesome Free 6.1.2 by @fontawesome - https://fontawesome.com License - https://fontawesome.com/license/free (Icons: CC BY 4.0, Fonts: SIL OFL 1.1, Code: MIT License) Copyright 2022 Fonticons, Inc.--><path d="m476.8 98.06 125.6 27.04c22 5.8 37.6 25.2 37.6 47.7v94c-31.9-45.2-84.5-75.7-144-75.7-38.5 0-74.2 13.3-103.1 34.3 9.5-14.1 15.1-31.1 15.1-50.3 0-47.7-39.4-88-88-88s-88 40.3-88 88c0 49.5 39.4 88 88 88 15.6 0 30.2-4 42.9-10.2-23.5 27-38.8 61.4-42.2 99.1h-.7c-35.3 0-64 28.7-64 64v96h64H48c-26.51 0-48-21.5-48-48V172.8c0-22.5 15.63-41.9 37.59-47.7L163.2 98.06l139-92.686c9.9-7.165 24.8-7.165 35.6 0l139 92.686zM96 192c-8.84 0-16 7.2-16 16v64c0 8.8 7.16 16 16 16h32c8.8 0 16-7.2 16-16v-64c0-8.8-7.2-16-16-16H96zm0 128c-8.84 0-16 7.2-16 16v64c0 8.8 7.16 16 16 16h32c8.8 0 16-7.2 16-16v-64c0-8.8-7.2-16-16-16H96zm224-192c8.8 0 16 7.2 16 16v16h16c8.8 0 16 7.2 16 16s-7.2 16-16 16h-32c-8.8 0-16-7.2-16-16v-32c0-8.8 7.2-16 16-16zm32 240c0-79.5 64.5-144 144-144s144 64.5 144 144-64.5 144-144 144-144-64.5-144-144zm166.6 0 36.7-36.7c6.3-6.2 6.3-16.4 0-22.6-6.2-6.3-16.4-6.3-22.6 0L496 345.4l-36.7-36.7c-6.2-6.3-16.4-6.3-22.6 0-6.3 6.2-6.3 16.4 0 22.6l36.7 36.7-36.7 36.7c-6.3 6.2-6.3 16.4 0 22.6 6.2 6.3 16.4 6.3 22.6 0l36.7-36.7 36.7 36.7c6.2 6.3 16.4 6.3 22.6 0 6.3-6.2 6.3-16.4 0-22.6L518.6 368z"/></svg>