<svg xmlns="http://www.w3.org/2000/svg" viewBox="0 0 640 512"><!--! Font Awesome Free 6.1.1 by @fontawesome - https://fontawesome.com License - https://fontawesome.com/license/free (Icons: CC BY 4.0, Fonts: SIL OFL 1.1, Code: MIT License) Copyright 2022 Fonticons, Inc.--><path d="m320 366.5 17.75-29.62-35.5.001L320 366.5zm62.5-55 36.75-.001-18.38-30.75L382.5 311.5zM48 0C21.5 0 0 14.38 0 32v448c0 17.62 21.5 32 48 32s48-14.4 48-32V32C96 14.38 74.5 0 48 0zm371.2 200.5h-36.8l18.5 30.79 18.3-30.79zm-198.4 111 36.87-.001-18.5-30.87L220.8 311.5zm66.3 0h65.8l33.25-55.5-33.25-55.5h-65.8L253.9 256l33.2 55.5zM592 0c-26.5 0-48 14.38-48 32v448c0 17.62 21.5 32 48 32s48-14.38 48-32V32c0-17.62-21.5-32-48-32zM128 480h384V32H128v448zm66.8-294.1c3.75-6.625 10.87-10.75 18.5-10.75l59.4-.05 29.12-48.67c3.78-7.33 10.78-10.33 17.28-10.33 7.375-.125 14.25 3.916 17.1 10.17l29.25 48.87 59.5-.002c7.625 0 14.62 4.124 18.38 10.75s3.626 14.75-.25 21.25l-29.25 48.87 29.38 48.1c4 6.5 4.002 14.62.251 21.12-3.75 6.625-10.87 10.75-18.5 10.75l-59.5.002-29.12 48.67c-3.75 6.5-10.62 10.33-18.12 10.46-7.375 0-14.25-3.874-18-10.25l-29.25-48.87-59.5.002c-7.625 0-14.62-4.124-18.37-10.75S191.3 311.4 195.1 304.9l29.25-48.87L195 207c-3.9-6.5-4-14.6-.2-21.1zm124.3-40.4-16.9 29.6 35.37-.001L319.1 145.5zm-61.6 55h-36.7l18.38 30.83 18.32-30.83z"/></svg>