<svg xmlns="http://www.w3.org/2000/svg" viewBox="0 0 256 512"><!--! Font Awesome Free 6.1.1 by @fontawesome - https://fontawesome.com License - https://fontawesome.com/license/free (Icons: CC BY 4.0, Fonts: SIL OFL 1.1, Code: MIT License) Copyright 2022 Fonticons, Inc.--><path d="M224.5 337.4c15.66-14.28 26.09-33.12 29.8-55.82 14.46-88.44-64.67-112.4-117-128.2l-12.6-3.88c-59.03-18.3-63.59-30.1-59.87-52.71 1.531-9.344 5.715-16.19 13.21-21.56 14.74-10.56 39.94-13.87 69.23-9.029 10.74 1.75 24.36 5.686 41.66 12.03 16.58 6 34.98-2.438 41.04-19.06 6.059-16.59-2.467-34.97-19.05-41.06-21.39-7.842-38.35-12.62-53.28-15.06-46.47-7.781-88.1-.531-116.9 20.19C19.46 38.52 5.965 60.39 1.686 86.48-5.182 128.6 9.839 156 31.47 174.7c-15.6 13.4-26.064 33.1-29.784 55.8C-12.59 317.9 67.36 342.7 105.7 354.6l12.99 3.967c64.71 19.56 76.92 29.09 72.42 56.59-1.279 7.688-4.84 18.75-21.23 26.16-15.27 6.906-37.01 8.406-61.4 4.469-16.74-2.656-37.32-10.5-55.49-17.41l-9.773-3.719c-16.52-6.156-34.95 2.25-41.16 18.75-6.184 16.56 2.186 34.1 18.74 41.19l9.463 3.594c21.05 8 44.94 17.12 68.02 20.75 12.21 2.031 24.14 3.032 35.54 3.032 23.17 0 44.28-4.157 62.4-12.34 31.95-14.44 52.53-40.75 58.02-74.12C261.1 383.6 246.8 356.3 224.5 337.4zM64.83 240.8c3.303-20.28 21.22-28.1 38.09-31.04.926.29 15.81 4.852 15.81 4.852 64.71 19.56 76.92 29.09 72.39 56.62-3.291 20.2-21.12 28.07-37.93 31.04-5.488-1.746-28.49-8.754-28.49-8.754C65.67 275.2 61.11 263.4 64.83 240.8z"/></svg>