<svg xmlns="http://www.w3.org/2000/svg" viewBox="0 0 512 512"><!--! Font Awesome Free 6.0.0 by @fontawesome - https://fontawesome.com License - https://fontawesome.com/license/free (Icons: CC BY 4.0, Fonts: SIL OFL 1.1, Code: MIT License) Copyright 2022 Fonticons, Inc.--><path d="m466.5 83.71-192-80C269.6 1.67 261.3 0 256 0c-5.3 0-13.5 1.67-18.4 3.702l-192 80C27.7 91.1 16 108.6 16 127.1c0 257.2 189.2 384 239.1 384 51.1 0 240-128.2 240-384 .9-18.5-10.8-36-28.6-43.39zM256 446.5l.023-381.1c.006-.023 0 0 0 0l175.9 73.17C427.8 319.7 319 417.1 256 446.5z"/></svg>