<svg xmlns="http://www.w3.org/2000/svg" viewBox="0 0 640 512"><!--! Font Awesome Free 6.1.1 by @fontawesome - https://fontawesome.com License - https://fontawesome.com/license/free (Icons: CC BY 4.0, Fonts: SIL OFL 1.1, Code: MIT License) Copyright 2022 Fonticons, Inc.--><path d="M0 155.2c0-7.3 2.153-14.4 6.188-20.5L81.75 21.37A47.957 47.957 0 0 1 121.7 0h396.6c16.1 0 31 8.021 39.9 21.37l75.6 113.33c4 6.1 6.2 13.2 6.2 20.5 0 19.3-14.8 35.1-33.7 36.7-20.2-19.7-47.8-31.9-78.3-31.9s-58.2 12.2-78.4 32H36.84C16.5 192 0 175.5 0 155.2zM384 224v240c0 26.5-21.5 48-48 48H112c-26.51 0-48-21.5-48-48V224h64v160h192V224h64zm144-32c44.2 0 80 35.8 80 80v48c17.7 0 32 14.3 32 32v128c0 17.7-14.3 32-32 32H448c-17.7 0-32-14.3-32-32V352c0-17.7 14.3-32 32-32v-48c0-44.2 35.8-80 80-80zm0 48c-17.7 0-32 14.3-32 32v48h64v-48c0-17.7-14.3-32-32-32z"/></svg>