<svg xmlns="http://www.w3.org/2000/svg" viewBox="0 0 640 512"><!--! Font Awesome Free 6.1.1 by @fontawesome - https://fontawesome.com License - https://fontawesome.com/license/free (Icons: CC BY 4.0, Fonts: SIL OFL 1.1, Code: MIT License) Copyright 2022 Fonticons, Inc.--><path d="M129.1 480H128v-96h224l-106.8 64.1c-34.8 20-74.6 31.9-116.1 31.9zM352 128H128V32h1.1c41.5 0 81.3 11.03 116.1 31.92L352 128zm-248 0c26.2 0 49.4 12.6 64 32h288c69.3 0 135 22.7 179.2 81.6 6.4 8.5 6.4 20.3 0 28.8C591 329.3 525.3 352 456 352H168c-14.6 19.4-37.8 32-64 32h-8v96H80c-26.51 0-48-21.5-48-48v-48h8c-22.09 0-40-17.9-40-40V168c0-22.1 17.89-40 39.96-40H32V80c0-26.51 21.49-48 48-48h16v96h8zm372.4 80c-3.3 0-4.4 1.1-4.4 4.4v87.2c0 2.4 1.1 4.4 4.4 4.4 19.7 0 35.6-15.9 35.6-35.6v-24.8c0-19.7-15.9-35.6-35.6-35.6z"/></svg>