<svg xmlns="http://www.w3.org/2000/svg" viewBox="0 0 640 512"><!--! Font Awesome Free 6.1.2 by @fontawesome - https://fontawesome.com License - https://fontawesome.com/license/free (Icons: CC BY 4.0, Fonts: SIL OFL 1.1, Code: MIT License) Copyright 2022 Fonticons, Inc.--><path d="M192 160c0 17.7-14.3 32-32 32s-32-14.3-32-32v-32c0-53.02 42.1-96 96-96 53 0 96 42.98 96 96v7.8c0 20.8-1.2 41.6-3.6 62.3l122.4-36.8c11.4-3.4 23.8-.2 31.3 8.4 9.2 8.6 12 21.1 8.3 32.4l-18 53H544c17.7 0 32 15.2 32 32 0 18.6-14.3 32-32 32H416c-10.3 0-19.9-4-26-12.4-6-8.3-7.6-19.1-4.4-28.8l12.5-37.5-94.4 28.3c-11.8 52.8-31.5 103.5-58.4 150.5l-13.9 24.3c-12.9 22.6-36.9 36.5-62.9 36.5-40 0-73.4-32.5-73.4-72.5v-71.9c0-42.4 28.7-79.8 69.3-91.9l84.4-25.4c4.8-27.2 6.3-54.8 6.3-82.5V128c0-17.7-13.4-32-32-32-16.8 0-32 14.3-32 32l.9 32zm-32 175.6v71.9c0 4.7 3.8 8.5 8.5 8.5 3 0 5.9-1.6 7.4-4.3l13.9-24.3c17.5-30.8 31.6-63.3 42-97.1l-49 13.8c-13.5 4.9-22.8 17.4-22.8 31.5zM24 368h40v39.5c0 2.9.11 5.7.34 8.5H24c-13.25 0-24-10.7-24-24s10.75-24 24-24zm592 48H283.5c8.2-15.7 15.7-31.7 22.4-48H616c13.3 0 24 10.7 24 24s-10.7 24-24 24z"/></svg>