<svg xmlns="http://www.w3.org/2000/svg" viewBox="0 0 512 512"><!--! Font Awesome Free 6.1.1 by @fontawesome - https://fontawesome.com License - https://fontawesome.com/license/free (Icons: CC BY 4.0, Fonts: SIL OFL 1.1, Code: MIT License) Copyright 2022 Fonticons, Inc.--><path d="M223.1 32c0-17.67 15.2-32 32-32C273.7 0 288 14.33 288 32h153.4c4.2 0 8.3 1.69 11.3 4.69l48 48c6.2 6.24 6.2 16.41 0 22.61l-48 48c-3 3-7.1 4.7-11.3 4.7H63.1c-16.77 0-32-14.3-32-32V64c0-17.67 15.23-32 32-32h160zM480 320c0 17.7-14.3 32-32 32H70.63c-4.25 0-8.32-1.7-11.32-4.7l-48-48c-6.245-6.2-6.245-16.4 0-22.6l48-48c3-3 7.07-5.6 11.32-5.6H223.1v-32H288v32h160c17.7 0 32 15.2 32 32V320zM255.1 512c-16.8 0-32-14.3-32-32v-96H288v96c0 17.7-14.3 32-32.9 32z"/></svg>