<svg xmlns="http://www.w3.org/2000/svg" viewBox="0 0 448 512"><!--! Font Awesome Free 6.0.0 by @fontawesome - https://fontawesome.com License - https://fontawesome.com/license/free (Icons: CC BY 4.0, Fonts: SIL OFL 1.1, Code: MIT License) Copyright 2022 Fonticons, Inc.--><path d="M368 128c0 44.4-25.4 83.5-64 106.4V256c0 17.7-14.3 32-32 32h-96c-17.7 0-32-14.3-32-32v-21.6c-38.6-22.9-64-62-64-106.4C80 57.31 144.5 0 224 0s144 57.31 144 128zm-200 48c17.7 0 32-14.3 32-32s-14.3-32-32-32-32 14.3-32 32 14.3 32 32 32zm112-64c-17.7 0-32 14.3-32 32s14.3 32 32 32 32-14.3 32-32-14.3-32-32-32zM3.379 273.7c7.901-15.8 27.121-22.2 42.931-14.3L224 348.2l177.7-88.8c15.8-7.9 35-1.5 42.9 14.3 7.9 15.8 1.5 35-14.3 42.9L295.6 384l134.7 67.4c15.8 7.9 22.2 27.1 14.3 42.9-7.9 15.8-27.1 22.2-42.9 14.3L224 419.8 46.31 508.6c-15.81 7.9-35.03 1.5-42.931-14.3-7.904-15.8-1.497-35 14.311-42.9L152.4 384 17.69 316.6c-15.808-7.9-22.215-27.1-14.311-42.9z"/></svg>