<svg xmlns="http://www.w3.org/2000/svg" viewBox="0 0 512 512"><!--! Font Awesome Free 6.2.0 by @fontawesome - https://fontawesome.com License - https://fontawesome.com/license/free (Icons: CC BY 4.0, Fonts: SIL OFL 1.1, Code: MIT License) Copyright 2022 Fonticons, Inc.--><path d="M208 96c26.5 0 48-21.5 48-48S234.5 0 208 0s-48 21.5-48 48 21.5 48 48 48zm112 160c35.3 0 64-28.7 64-64s-28.7-64-64-64-64 28.7-64 64 28.7 64 64 64zm96-224c0-17.7-14.3-32-32-32s-32 14.3-32 32 14.3 32 32 32 32-14.3 32-32zm0 160c0 27.6-11.7 52.5-30.4 70.1 36.5 13.6 62.4 48.7 62.4 89.9 0 53-43 96-96 96H160c-53 0-96-43-96-96s43-96 96-96h88.4c-15.2-17-24.4-39.4-24.4-64H96c-53 0-96 43-96 96v128c0 53 43 96 96 96h320c53 0 96-43 96-96V288c0-53-43-96-96-96zm-256 96c-35.3 0-64 28.7-64 64s28.7 64 64 64h192c35.3 0 64-28.7 64-64s-28.7-64-64-64H160z"/></svg>