<svg xmlns="http://www.w3.org/2000/svg" viewBox="0 0 640 512"><!--! Font Awesome Free 6.3.0 by @fontawesome - https://fontawesome.com License - https://fontawesome.com/license/free (Icons: CC BY 4.0, Fonts: SIL OFL 1.1, Code: MIT License) Copyright 2023 Fonticons, Inc.--><path d="M115.2 0C84.7 0 58.5 21.5 52.5 51.4l-51.2 256C-6.6 347 23.6 384 64 384h217v64h-64c-17.7 0-32 14.3-32 32s14.3 32 32 32h192c17.7 0 32-14.3 32-32s-14.3-32-32-32h-64v-64h217c40.4 0 70.7-36.9 62.8-76.6l-51.2-256C567.5 21.5 541.3 0 510.8 0H115.2zm138.7 64h118.2l10.4 104h-139l10.4-104zm-58.6 104H94.4l20.8-104h90.4l-10.3 104zM84.8 216h105.7l-10.4 104H64l20.8-104zm153.9 0h148.6l10.4 104H228.3l10.4-104zm196.8 0h105.7L562 320H446l-10.5-104zm96-48H430.7L420.3 64h90.4l31.4-6.3-31.3 6.3 20.8 104z"/></svg>