<svg xmlns="http://www.w3.org/2000/svg" viewBox="0 0 576 512"><!--! Font Awesome Free 6.1.1 by @fontawesome - https://fontawesome.com License - https://fontawesome.com/license/free (Icons: CC BY 4.0, Fonts: SIL OFL 1.1, Code: MIT License) Copyright 2022 Fonticons, Inc.--><path d="M568.3 192c-29 .125-135 6.124-213.9 82.1-33.2 30.6-53.4 64.2-66.4 95.8-13-31.63-33.25-65.25-66.38-94.87C142.8 198.2 36.75 192.2 7.75 192 3.375 192 0 195.4 0 199.9c.25 27.88 7.125 126.2 88.75 199.3C172.8 481 256 479.1 288 479.1s115.2 1.025 199.3-80.85C568.9 326 575.8 227.7 576 199.9c0-4.5-3.4-7.9-7.7-7.9zM288 302.6a271.533 271.533 0 0 1 44.13-50.5c19-18.62 39.5-33.37 60.25-45.25-16.5-70.5-51.75-133-96.75-172.3-4.125-3.5-11-3.5-15.12 0-45 39.25-80.25 101.6-96.75 172.1 20.37 11.75 40.5 26.12 59.25 44.37A290.397 290.397 0 0 1 288 302.6z"/></svg>