<svg xmlns="http://www.w3.org/2000/svg" viewBox="0 0 640 512"><!--! Font Awesome Free 6.1.1 by @fontawesome - https://fontawesome.com License - https://fontawesome.com/license/free (Icons: CC BY 4.0, Fonts: SIL OFL 1.1, Code: MIT License) Copyright 2022 Fonticons, Inc.--><path d="M624.5 347.7c-32.63-12.5-57.38 4.241-75.38 16.49-17 11.5-23.25 14.37-31.38 11.37-8.125-3.125-10.88-9.358-15.88-29.36-3.375-13.12-7.5-29.47-18-42.72 2.25-3 4.5-5.875 6.375-8.625C500.5 304.5 513.8 312 532 312c33.1 0 50.87-25.75 61.1-42.88C604.6 253 609 248 616 248c13.3 0 24-10.7 24-24s-10.75-24-24-24c-34 0-50.88 25.75-62 42.88C543.4 259 539 264 532 264c-17.25 0-37.5-61.38-97.25-101.9L452 127.6c33.4-2.1 60-29.63 60-63.63C512 28.6 483.4 0 448 0s-64 28.6-64 63.97c0 13 4 25.15 10.62 35.28L376.5 135.5c-17-4.6-35.6-7.5-56.5-7.5s-39.5 2.9-56.5 7.5l-18.1-36.25C252 89.13 256 76.97 256 63.97 256 28.6 227.4 0 192 0s-64 28.6-64 63.97c0 34 26.5 61.53 60 63.63l17.25 34.5C145.6 202.5 125.1 264 108 264c-7 0-11.31-5-21.94-21.12C74.94 225.8 57.1 200 24 200c-13.25 0-24 10.8-24 24s10.75 24 24 24c7 0 11.37 5 21.1 21.12C57.12 286.3 73.1 312 108 312c18.25 0 31.5-7.5 41.75-17.12 1.85 2.72 4.15 5.62 6.35 8.62-10.5 13.25-14.62 29.59-18 42.72-5 20-7.75 26.23-15.88 29.36-8.125 3-14.37.131-31.37-11.37-18.12-12.25-42.75-28.87-75.38-16.49-12.38 4.75-18.62 18.61-13.88 30.98 4.625 12.38 18.62 18.62 30.88 13.87 8.28-2.97 14.41-.17 31.53 11.33 13.5 9.125 30.75 20.86 52.38 20.86 7.125 0 14.88-1.248 23-4.373 32.63-12.5 40-41.34 45.25-62.46 2.25-8.75 4-14.49 6-18.86 16.62 13.62 37 25.86 61.63 34.23C242.3 410.3 220.1 464 192 464c-13.25 0-24 10.74-24 23.99S178.8 512 192 512c66.75 0 97-88.55 107.4-129.1 6.7.7 13.5 1.1 20.6 1.1s13.88-.47 20.62-1.096C351 423.4 381.3 512 448 512c13.25 0 24-10.74 24-23.99S461.3 464 448 464c-28 0-50.25-53.74-60.25-90.74 24.75-8.375 45-20.56 61.63-34.19 2 4.375 3.75 10.11 6 18.86 5.375 21.12 12.62 49.96 45.25 62.46 8.25 3.125 15.88 4.373 23 4.373 21.62 0 38.83-11.74 52.46-20.86 17-11.5 23.29-14.37 31.42-11.37 12.38 4.75 26.25-1.492 30.88-13.87C643.1 366.3 637 352.5 624.5 347.7zM192 79.97c-8.875 0-16-7.125-16-16s7.1-15.99 16-15.99 16 7.118 16 15.99-7.1 16-16 16zm256-31.99c8.875 0 16 7.118 16 15.99s-7.125 16-16 16-16-7.125-16-16 7.1-15.99 16-15.99z"/></svg>