<svg xmlns="http://www.w3.org/2000/svg" viewBox="0 0 576 512"><!--! Font Awesome Free 6.1.1 by @fontawesome - https://fontawesome.com License - https://fontawesome.com/license/free (Icons: CC BY 4.0, Fonts: SIL OFL 1.1, Code: MIT License) Copyright 2022 Fonticons, Inc.--><path d="M563.3 401.6c2.608 8.443-2.149 17.4-10.62 19.1l-15.35 4.709c-8.48 2.6-17.47-2.139-20.08-10.59L493.2 338l-79.79-31.8 53.47 62.15c5.08 5.904 6.972 13.89 5.08 21.44l-28.23 110.1c-2.151 8.57-10.87 13.78-19.47 11.64l-15.58-3.873c-8.609-2.141-13.84-10.83-11.69-19.4l25.2-98.02-38.51-44.77c.153 2.205.663 4.307.663 6.549 0 53.02-43.15 96-96.37 96S191.6 405 191.6 352c0-2.242.512-4.34.663-6.543l-38.51 44.76 25.2 98.02c2.15 8.574-3.084 17.26-11.69 19.4l-15.58 3.873c-8.603 2.141-17.32-3.072-19.47-11.64l-28.23-110.1a23.936 23.936 0 0 1 5.08-21.44l53.47-62.15-79.79 31.8-24.01 77.74c-2.608 8.447-11.6 13.19-20.08 10.59l-15.35-4.709c-8.478-2.6-13.23-11.55-10.63-19.1l27.4-88.69a24.067 24.067 0 0 1 14.09-15.24L158.9 256 54.2 214.27c-6.77-2.67-11.94-9.17-14.09-15.17l-27.39-88.7c-2.608-8.443 2.149-17.4 10.62-19.1l15.35-4.709c8.48-2.6 17.47 2.139 20.08 10.59l24.01 77.74 79.79 31.8L109.1 143.6c-5.1-5.9-7-13.9-5.1-21.4l28.23-110.1C134.381 3.53 143.1-1.68 151.7.46l15.58 3.873C175.9 6.494 181.1 15.18 178.1 23.76l-24.3 98.04 53.9 62.6.154-24.44C206.1 123.4 228.9 91.77 261.4 80.43c5.141-1.793 10.5 2.215 10.5 7.641V112h32.12V88.09c0-5.443 5.394-9.443 10.55-7.641C345.9 91.39 368.3 121 368.3 155.9c0 1.393-.179 2.689-.25 4.064l.25 24.436 53.91-62.66-25.2-98.02c-2.151-8.574 3.084-17.26 11.69-19.4L424.28.447c8.603-2.141 17.32 3.072 19.47 11.64l28.23 110.1c1.894 7.543 0 15.53-5.08 21.44l-53.47 62.15 79.79-31.8 24.01-77.74c2.608-8.447 11.6-13.19 20.08-10.59l15.35 4.709c8.478 2.6 13.23 11.55 10.63 19.1l-27.4 88.69a24.067 24.067 0 0 1-14.09 15.24L417.1 256l104.7 41.73a24.047 24.047 0 0 1 14.07 15.21l27.43 88.66z"/></svg>