<svg xmlns="http://www.w3.org/2000/svg" viewBox="0 0 448 512"><!--! Font Awesome Free 6.1.1 by @fontawesome - https://fontawesome.com License - https://fontawesome.com/license/free (Icons: CC BY 4.0, Fonts: SIL OFL 1.1, Code: MIT License) Copyright 2022 Fonticons, Inc.--><path d="M384 32H64C28.65 32 0 60.65 0 96v320c0 35.35 28.65 64 64 64h320c35.35 0 64-28.65 64-64V96c0-35.35-28.7-64-64-64zm-48 328c0 13.25-10.75 24-24 24s-24-10.7-24-24v-80H160v80c0 13.3-10.7 24-24 24s-24-10.7-24-24V152c0-13.2 10.8-24 24-24s24 10.8 24 24v80h128v-80c0-13.2 10.8-24 24-24s24 10.75 24 24v208z"/></svg>