<svg xmlns="http://www.w3.org/2000/svg" viewBox="0 0 448 512"><!--! Font Awesome Free 6.1.1 by @fontawesome - https://fontawesome.com License - https://fontawesome.com/license/free (Icons: CC BY 4.0, Fonts: SIL OFL 1.1, Code: MIT License) Copyright 2022 Fonticons, Inc.--><path d="M384 32c35.3 0 64 28.65 64 64v320c0 35.3-28.7 64-64 64H64c-35.35 0-64-28.7-64-64V96c0-35.35 28.65-64 64-64h320zM128 224c-17.7 0-32 14.3-32 32v96c0 17.7 14.3 32 32 32s32-14.3 32-32v-96c0-17.7-14.3-32-32-32zm64 128c0 17.7 14.3 32 32 32s32-14.3 32-32V160c0-17.7-14.3-32-32-32s-32 14.3-32 32v192zm128-64c-17.7 0-32 14.3-32 32v32c0 17.7 14.3 32 32 32s32-14.3 32-32v-32c0-17.7-14.3-32-32-32z"/></svg>