<svg xmlns="http://www.w3.org/2000/svg" viewBox="0 0 640 512"><!--! Font Awesome Free 6.1.2 by @fontawesome - https://fontawesome.com License - https://fontawesome.com/license/free (Icons: CC BY 4.0, Fonts: SIL OFL 1.1, Code: MIT License) Copyright 2022 Fonticons, Inc.--><path d="M640 299.3V432c0 26.5-21.5 48-48 48H64c-17.67 0-32-14.3-32-32s14.33-32 32-32h384v-48H96c-17.67 0-32-14.3-32-32V219.4L33.8 214C14.24 210.5 0 193.5 0 173.7c0-8.9 2.878-17.5 8.201-24.6l35.629-47.5C76.67 57.77 128.2 32 182.9 32c27 0 53.7 6.29 77.8 18.36L586.9 213.5c32.6 16.2 53.1 48.6 53.1 85.8zM448 288l-320-57.1V304h320v-16z"/></svg>