<svg xmlns="http://www.w3.org/2000/svg" viewBox="0 0 512 512"><!--! Font Awesome Free 6.1.2 by @fontawesome - https://fontawesome.com License - https://fontawesome.com/license/free (Icons: CC BY 4.0, Fonts: SIL OFL 1.1, Code: MIT License) Copyright 2022 Fonticons, Inc.--><path d="m489.1 363.3-24.03 41.59c-6.635 11.48-21.33 15.41-32.82 8.78l-129.1-74.56V488c0 13.25-10.75 24-24.02 24H231.1c-13.27 0-24.02-10.75-24.02-24V339.1L78.87 413.7c-11.49 6.629-26.19 2.698-32.82-8.78l-24.03-41.59c-6.635-11.48-2.718-26.14 8.774-32.77L159.9 256 30.8 181.5c-11.5-6.7-15.41-21.3-8.78-32.8l24.03-41.59c6.635-11.48 21.33-15.41 32.82-8.781l129.1 74.56L207.1 24c0-13.25 10.75-24 24.02-24h48.04c13.27 0 24.02 10.75 24.02 24v148.9l129.1-74.56c11.49-6.629 26.19-2.698 32.82 8.78l24.02 41.59c6.637 11.48 2.718 26.14-8.774 32.77L352.1 256l129.1 74.53c11.5 6.67 15.4 21.27 7.9 32.77z"/></svg>