<svg xmlns="http://www.w3.org/2000/svg" viewBox="0 0 512 512"><!--! Font Awesome Free 6.3.0 by @fontawesome - https://fontawesome.com License - https://fontawesome.com/license/free (Icons: CC BY 4.0, Fonts: SIL OFL 1.1, Code: MIT License) Copyright 2023 Fonticons, Inc.--><path d="M388.2 309.5 367.1 344h42.3l-21.1-34.5zM355.4 256l-54-88H178.6l-54 88 54 88h122.8l54-88zm65.7 0 53.4 87c3.6 5.9 5.5 12.7 5.5 19.6 0 20.7-16.8 37.4-37.4 37.4H332.7l-56.2 91.5c-7.7 12.8-21.6 20.5-36.5 20.5s-28.8-7.7-36.6-20.5L147.3 400H37.4C16.8 400 0 383.2 0 362.6c0-6.9 1.9-13.7 5.5-19.6l53.4-87-53.4-87C1.9 163.1 0 156.3 0 149.4 0 128.8 16.8 112 37.4 112h109.9l56.2-91.5C211.2 7.7 225.1 0 240 0s28.8 7.7 36.6 20.5l56.1 91.5h109.9c20.7 0 37.4 16.8 37.4 37.4 0 6.9-1.9 13.7-5.5 19.6l-53.4 87zm-54-88 21.1 34.5 21.2-34.5h-42.3zM267 112l-27-44-27 44h54zm-154.1 56H70.6l21.1 34.5 21.2-34.5zM91.8 309.5 70.6 344h42.3l-21.1-34.5zM213 400l27 44 27-44h-54z"/></svg>