<svg xmlns="http://www.w3.org/2000/svg" viewBox="0 0 448 512"><!--! Font Awesome Free 6.1.1 by @fontawesome - https://fontawesome.com License - https://fontawesome.com/license/free (Icons: CC BY 4.0, Fonts: SIL OFL 1.1, Code: MIT License) Copyright 2022 Fonticons, Inc.--><path d="M276 256c0-6.6 5.4-12 12-12s12 5.4 12 12v96c0 6.6-5.4 12-12 12s-12-5.4-12-12v-96zM272 0c17.7 0 32 14.33 32 32s-14.3 32-32 32h-16v34.45c37.5 5.75 71.7 21.55 99.7 44.55l21.7-21.6c12.5-12.5 32.7-12.5 45.2 0s12.5 32.7 0 45.2l-24.1 24.2C419.7 223.3 432 262.2 432 304c0 114.9-93.1 208-208 208S16 418.9 16 304c0-104 76.32-190.2 176-205.55V64h-16c-17.7 0-32-14.33-32-32s14.3-32 32-32h96zm16 204c-28.7 0-52 23.3-52 52v96c0 28.7 23.3 52 52 52s52-23.3 52-52v-96c0-28.7-23.3-52-52-52zm-116 52.5v2.3c0 3.6-1.3 7.1-3.7 9.8l-39.1 43.9c-13.7 15.4-21.2 35.3-21.2 55.8V384c0 11 8.1 20 20 20h64c11 0 20-9 20-20 0-11.9-9-20-20-20h-43.8c.9-9.2 4.7-17.9 10.9-24.9l39.1-43.9c8.9-10.1 12.9-23 12.9-36.4v-2.3c0-29-22.6-52.5-51.6-52.5-22.7 0-42.7 14.5-49.9 35.9l-.6 1.8c-3.5 10.5 2.2 21.8 12.7 24.4 10.5 4.4 21.8-1.3 24.4-11.8l1.5-1.7c1.7-5.1 6.5-8.6 11.9-8.6 6.9 0 11.6 5.6 11.6 12.5h.9z"/></svg>