<svg xmlns="http://www.w3.org/2000/svg" viewBox="0 0 512 512"><!--! Font Awesome Free 6.2.1 by @fontawesome - https://fontawesome.com License - https://fontawesome.com/license/free (Icons: CC BY 4.0, Fonts: SIL OFL 1.1, Code: MIT License) Copyright 2022 Fonticons, Inc.--><path d="M256 496c132.5 0 240-107.5 240-240S388.5 16 256 16 16 123.5 16 256s107.5 240 240 240zM235.3 76.7 256 97.4l20.7-20.7c6.2-6.2 16.4-6.2 22.6 0s6.2 16.4 0 22.6L278.6 120l45.4 45.4 33.4-33.4-16.7-16.7c-6.2-6.2-6.2-16.4 0-22.6s16.4-6.2 22.6 0l16.7 16.7 8.7-8.7c6.2-6.2 16.4-6.2 22.6 0s6.2 16.4 0 22.6l-8.7 8.7 16.7 16.7c6.2 6.2 6.2 16.4 0 22.6s-16.4 6.2-22.6 0L380 154.6 346.6 188l45.4 45.4 20.7-20.7c6.2-6.2 16.4-6.2 22.6 0s6.2 16.4 0 22.6L414.6 256l20.7 20.7c6.2 6.2 6.2 16.4 0 22.6s-16.4 6.2-22.6 0L392 278.6 346.6 324l33.4 33.4 16.7-16.7c6.2-6.2 16.4-6.2 22.6 0s6.2 16.4 0 22.6L402.6 380l8.7 8.7c6.2 6.2 6.2 16.4 0 22.6s-16.4 6.2-22.6 0l-8.7-8.7-16.7 16.7c-6.2 6.2-16.4 6.2-22.6 0s-6.2-16.4 0-22.6l16.7-16.7-33.4-33.4-45.4 45.4 20.7 20.7c6.2 6.2 6.2 16.4 0 22.6s-16.4 6.2-22.6 0L256 414.6l-20.7 20.7c-6.2 6.2-16.4 6.2-22.6 0s-6.2-16.4 0-22.6l20.7-20.7-45.4-45.4-33.4 33.4 16.7 16.7c6.2 6.2 6.2 16.4 0 22.6s-16.4 6.2-22.6 0L132 402.6l-8.7 8.7c-6.2 6.2-16.4 6.2-22.6 0s-6.2-16.4 0-22.6l8.7-8.7-16.7-16.7c-6.2-6.2-6.2-16.4 0-22.6s16.4-6.2 22.6 0l16.7 16.7 33.4-33.4-45.4-45.4-20.7 20.7c-6.2 6.2-16.4 6.2-22.6 0s-6.2-16.4 0-22.6L97.4 256l-20.7-20.7c-6.2-6.2-6.2-16.4 0-22.6s16.4-6.2 22.6 0l20.7 20.7 45.4-45.4-33.4-33.4-16.7 16.7c-6.2 6.2-16.4 6.2-22.6 0s-6.2-16.4 0-22.6l16.7-16.7-8.7-8.7c-6.2-6.2-6.2-16.4 0-22.6s16.4-6.2 22.6 0l8.7 8.7 16.7-16.7c6.2-6.2 16.4-6.2 22.6 0s6.2 16.4 0 22.6L154.6 132l33.4 33.4 45.4-45.4-20.7-20.7c-6.2-6.2-6.2-16.4 0-22.6s16.4-6.2 22.6 0zM210.6 188l45.4 45.4 45.4-45.4-45.4-45.4-45.4 45.4zm68 68 45.4 45.4 45.4-45.4-45.4-45.4-45.4 45.4zM256 278.6 210.6 324l45.4 45.4 45.4-45.4-45.4-45.4zM233.4 256 188 210.6 142.6 256l45.4 45.4 45.4-45.4z"/></svg>