<svg xmlns="http://www.w3.org/2000/svg" viewBox="0 0 512 512"><!--! Font Awesome Free 6.1.1 by @fontawesome - https://fontawesome.com License - https://fontawesome.com/license/free (Icons: CC BY 4.0, Fonts: SIL OFL 1.1, Code: MIT License) Copyright 2022 Fonticons, Inc.--><path d="m188.1 210.8-45.25 45.25 45.25 45.25 45.25-45.25-45.25-45.25zm113.1-22.7-45.25-45.25-45.25 45.25 45.25 45.25 45.25-45.25zm-90.5 135.8 45.25 45.25 45.25-45.25-46.1-45.3-44.4 45.3zM256 16C123.5 16 16 123.5 16 256s107.5 240 240 240 240-107.5 240-240S388.5 16 256 16zm186.6 279.6-11.25 11.25c-3.125 3.125-8.25 3.125-11.38 0L391.8 278.6l-45.25 45.25 34 33.88 16.88-16.88c3.125-3.125 8.251-3.125 11.38 0l11.25 11.25c3.125 3.125 3.125 8.25 0 11.38l-16.88 16.88 16.88 17c3.125 3.125 3.125 8.25 0 11.38l-11.25 11.25c-3.125 3.125-8.251 3.125-11.38 0l-16.88-17-17 17c-3.125 3.125-8.25 3.125-11.38 0l-11.25-11.25c-3.125-3.125-3.125-8.25 0-11.38l17-17-34-33.88-45.25 45.25 28.25 28.25c3.125 3.125 3.125 8.25 0 11.38l-11.25 11.25c-3.125 3.125-8.25 3.125-11.38 0l-28.25-28.25-28.34 28.24c-3.125 3.125-8.25 3.125-11.38 0l-11.25-11.25c-3.125-3.125-3.125-8.25 0-11.38l28.25-28.25-45.25-45.25-33.88 34 16.88 16.88c3.125 3.125 3.125 8.25 0 11.38l-11.25 11.25c-3.125 3.125-8.25 3.125-11.38 0L131.6 403.1l-16.1 16.88c-3.125 3.125-8.25 3.125-11.38 0l-11.25-11.25c-3.125-3.125-3.125-8.25 0-11.38l17-16.88-17-17c-3.125-3.125-3.125-8.25 0-11.38l11.25-11.25c3.125-3.125 8.25-3.125 11.38 0l16.1 17 33.88-34-45.28-45.24-28.25 28.25c-3.125 3.125-8.25 3.125-11.38 0l-11.2-11.25c-3.125-3.125-3.125-8.25 0-11.38l28.25-28.25-28.25-28.25c-3.125-3.125-3.125-8.25 0-11.38l11.25-11.25c3.125-3.125 8.25-3.125 11.38 0l28.25 28.25 45.25-45.25-34-34-16.88 17c-3.125 3.125-8.25 3.125-11.38 0l-11.25-11.25c-3.125-3.125-3.125-8.25 0-11.38l16.88-17-16.88-16.88c-3.125-3.125-3.125-8.25 0-11.38l11.25-11.25c3.125-3.125 8.25-3.125 11.38 0l16.88 17 17-17c3.125-3.125 8.25-3.125 11.38 0l11.25 11.25c3.125 3.125 3.125 8.25 0 11.38l-17 16.88 34 34 45.25-45.25L205.1 92c-3.125-3.125-3.125-8.25 0-11.38l11.25-11.25c3.125-3.125 8.25-3.125 11.38 0l28.25 28.25 28.25-28.25c3.125-3.125 8.25-3.125 11.38 0l11.25 11.25c3.125 3.125 3.125 8.25 0 11.38l-28.25 28.25 45.25 45.25 34-34-17-16.88c-3.125-3.125-3.125-8.25 0-11.38l11.25-11.25c3.125-3.125 8.25-3.125 11.38 0l17 16.88 16.88-16.88c3.125-3.125 8.251-3.125 11.38 0L420 103.24c3.125 3.125 3.125 8.25 0 11.38l-17 16.88 17 17c3.125 3.125 3.125 8.25 0 11.38l-11.25 11.25c-3.125 3.125-8.251 3.125-11.38 0l-16.88-17-34 34 45.25 45.25 28.25-28.25c3.125-3.125 8.25-3.125 11.38 0l11.25 11.25c3.125 3.125 3.125 8.25 0 11.38l-28.25 28.25 28.25 28.25c3.08 3.14 3.08 8.24-.02 11.34zm-164-39.6 45.25 45.25L369.1 256l-45.25-45.25L278.6 256z"/></svg>