<svg xmlns="http://www.w3.org/2000/svg" viewBox="0 0 640 512"><!--! Font Awesome Free 6.1.1 by @fontawesome - https://fontawesome.com License - https://fontawesome.com/license/free (Icons: CC BY 4.0, Fonts: SIL OFL 1.1, Code: MIT License) Copyright 2022 Fonticons, Inc.--><path d="M192 160c0 17.7-14.3 32-32 32s-32-14.3-32-32 14.3-32 32-32 32 14.3 32 32zM160 0c6.3 0 12 3.708 14.6 9.467l24.8 55.423 56.7-21.66c5.9-2.25 12.6-.83 17 3.63 4.5 4.46 5.9 11.13 3.7 17.02l-21.7 56.72 55.4 24.8c5.8 1.7 9.5 8.3 9.5 14.6 0 6.3-3.7 12-9.5 14.6l-55.4 24.8 21.7 56.7c2.2 5.9.8 12.6-3.7 17-4.4 4.5-11.1 5.9-17 3.7l-56.7-21.7-24.8 55.4c-2.6 5.8-8.3 9.5-14.6 9.5-6.3 0-12.9-3.7-14.6-9.5l-24.8-55.4-56.72 21.7c-5.89 2.2-12.56.8-17.02-3.7-4.46-4.4-5.88-11.1-3.63-17l21.66-56.7-55.423-24.8C3.708 172 0 166.3 0 160c0-6.3 3.708-12.9 9.467-14.6l55.423-24.8-21.66-56.72a16.001 16.001 0 0 1 3.63-17.02 16.001 16.001 0 0 1 17.02-3.63l56.72 21.66 24.8-55.423C147.1 3.708 153.7 0 160 0zm0 224c35.3 0 64-28.7 64-64s-28.7-64-64-64-64 28.7-64 64 28.7 64 64 64zm344 224h104c17.7 0 32 14.3 32 32s-14.3 32-32 32H32c-17.67 0-32-14.3-32-32s14.33-32 32-32h424V272c0-17.7-14.3-32-32-32s-32 14.3-32 32v21.4c14.8 7.7 24 23.1 24 44.6 0 19.3-21.5 52.1-48 78-26.5-25.9-48-58.4-48-78 0-21.5 9.2-36.9 24-44.6v-22.3c0-43.3 35.8-80 80-80 11.4 0 22.2 3.3 32 7.6v-23.6c0-43.3 35.8-80 80-80s80 36.7 80 80v54.3c14.8 7.7 24 23.1 24 44.6 0 19.3-21.5 52.1-48 78-26.5-25.9-48-58.4-48-78 0-21.5 9.2-36.9 24-44.6v-54.3c0-16.8-14.3-32-32-32s-32 15.2-32 32V448z"/></svg>