<svg xmlns="http://www.w3.org/2000/svg" viewBox="0 0 512 512"><!--! Font Awesome Free 6.1.1 by @fontawesome - https://fontawesome.com License - https://fontawesome.com/license/free (Icons: CC BY 4.0, Fonts: SIL OFL 1.1, Code: MIT License) Copyright 2022 Fonticons, Inc.--><path d="M256 159.1c-53.02 0-95.1 42.98-95.1 95.1s41.2 96.9 95.1 96.9 95.1-42.98 95.1-95.1-42.1-96.9-95.1-96.9zM509.3 347l-63.2-91.9 63.15-91.01c6.332-9.125 1.104-21.74-9.826-23.72l-109-19.7-19.7-109c-1.975-10.93-14.59-16.16-23.72-9.824L256 65.89 164.1 2.736c-9.125-6.332-21.74-1.107-23.72 9.824L121.6 121.6 12.56 141.3c-10.927 1.9-16.156 14.6-9.824 22.8L65.89 256 2.74 347.01c-6.332 9.125-1.105 21.74 9.824 23.72l109 19.7 19.7 109c1.975 10.93 14.59 16.16 23.72 9.824L256 446.1l91.01 63.15c9.127 6.334 21.75 1.107 23.72-9.822l19.7-109 109-19.7C510.4 368.8 515.6 356.1 509.3 347zM256 383.1c-70.69 0-127.1-57.31-127.1-127.1 0-70.69 57.31-127.1 127.1-127.1S383.1 186.2 383.1 256c0 70.7-56.4 127.1-127.1 127.1z"/></svg>