<svg xmlns="http://www.w3.org/2000/svg" viewBox="0 0 512 512"><!--! Font Awesome Free 6.1.1 by @fontawesome - https://fontawesome.com License - https://fontawesome.com/license/free (Icons: CC BY 4.0, Fonts: SIL OFL 1.1, Code: MIT License) Copyright 2022 Fonticons, Inc.--><path d="M480 160V32c0-11.09-5.75-21.37-15.17-27.22-9.43-5.828-21.23-6.328-31.13-1.39l-32 16c-15.81 7.906-22.22 27.12-14.31 42.94C392.1 73.55 404.3 80.01 416 80.01v80c-17.67 0-32 14.31-32 32s14.33 32 32 32h64c17.67 0 32-14.31 32-32S497.7 160 480 160zm-160-32c17.67 0 32-14.31 32-32s-14.33-32-32-32l-32-.002a32.012 32.012 0 0 0-26.22 13.66L176 200.2 90.22 77.67A32.01 32.01 0 0 0 64 64.01H32c-17.67 0-32 14.32-32 32s14.33 32 32 32h15.34L136.9 256 47.3 384H32c-17.67 0-32 14.31-32 32s14.33 31.1 32 31.1l32-.002a31.99 31.99 0 0 0 26.22-13.65L176 311.8l85.78 122.5C267.8 442.9 277.6 448 288 448l32 .002c17.67 0 32-14.31 32-31.1s-14.33-32-32-32h-15.34l-89.6-128 89.6-127.1H320z"/></svg>