<svg xmlns="http://www.w3.org/2000/svg" viewBox="0 0 512 512"><!--! Font Awesome Free 6.1.2 by @fontawesome - https://fontawesome.com License - https://fontawesome.com/license/free (Icons: CC BY 4.0, Fonts: SIL OFL 1.1, Code: MIT License) Copyright 2022 Fonticons, Inc.--><path d="M0 32C0 14.33 14.33 0 32 0h128c17.7 0 32 14.33 32 32v384c0 53-43 96-96 96-53.02 0-96-43-96-96V32zm128 32H64v64h64V64zM64 256h64v-64H64v64zm32 184c13.3 0 24-10.7 24-24s-10.7-24-24-24c-13.25 0-24 10.7-24 24s10.75 24 24 24zm128-24V154l75.4-75.37c12.5-12.5 32.8-12.5 45.3 0l90.5 90.47c12.5 12.5 12.5 32.8 0 45.3L223.6 425.9c.3-3.2.4-6.6.4-9.9zm150.8-96H480c17.7 0 32 14.3 32 32v128c0 17.7-14.3 32-32 32H182.8l192-192z"/></svg>