<svg xmlns="http://www.w3.org/2000/svg" viewBox="0 0 640 512"><!--! Font Awesome Free 6.1.2 by @fontawesome - https://fontawesome.com License - https://fontawesome.com/license/free (Icons: CC BY 4.0, Fonts: SIL OFL 1.1, Code: MIT License) Copyright 2022 Fonticons, Inc.--><path d="M309.8 3.708a15.883 15.883 0 0 1 20.4 0l121 100.792c18.3 15.2 28.8 37.7 28.8 60.6V512h-96V384c0-35.3-28.7-64-64-64s-64 28.7-64 64v128h-96V165.1c0-22.9 10.5-45.4 28.8-60.6l121-100.792zM326.1 124.3c-2.2-5.4-10-5.4-13.1 0l-15.8 28.1-32.3-.3c-6.2 0-10.1 6.7-7 12.1l16.4 26.9-16.4 28.7c-3.1 5.4.8 12.1 7 12.1l32.3-.3 15.8 28.1c3.1 5.4 10.9 5.4 13.1 0l16.7-28.1 32.3.3c6.2 0 10.1-6.7 7-12.1l-16.4-28.7 16.4-26.9c3.1-5.4-.8-12.1-7-12.1l-32.3.3-16.7-28.1zM512 244.5l28.1-31.2c3-3.4 7.4-5.3 11.9-5.3s8.9 1.9 11.9 5.3l63.8 70.9c7.9 7.9 12.3 20.2 12.3 32.1V448c0 35.3-28.7 64-64 64h-64V244.5zm-384 0V512H64c-35.35 0-64-28.7-64-64V316.3c0-11.9 4.389-24.2 12.32-32.1l63.79-70.9c3.03-3.4 7.35-5.3 11.89-5.3 4.54 0 8.86 1.9 11.89 5.3L128 244.5z"/></svg>