<svg xmlns="http://www.w3.org/2000/svg" viewBox="0 0 512 512"><!--! Font Awesome Free 6.1.2 by @fontawesome - https://fontawesome.com License - https://fontawesome.com/license/free (Icons: CC BY 4.0, Fonts: SIL OFL 1.1, Code: MIT License) Copyright 2022 Fonticons, Inc.--><path d="m504.1 71.03-64-64c-9.375-9.375-24.56-9.375-33.94 0s-9.375 24.56 0 33.94L422.1 56 384 94.06l-55.03-55.03c-9.375-9.375-24.56-9.375-33.94 0-8.467 8.467-8.873 21.47-2.047 30.86l149.1 149.1C446.3 222.1 451.1 224 456 224a23.93 23.93 0 0 0 16.97-7.031c9.375-9.375 9.375-24.56 0-33.94L417.9 128 456 89.94l15.03 15.03C475.7 109.7 481.9 112 488 112s12.28-2.344 16.97-7.031c9.33-9.379 9.33-24.559-.87-33.939zM208.8 154.1l58.56 58.56c6.25 6.25 6.25 16.38 0 22.62C264.2 238.4 260.1 240 256 240s-8.2-1.6-11.3-4.7l-58.6-58.5-41.3 41.3 58.56 58.56c6.25 6.25 6.25 16.38 0 22.62C200.2 302.4 196.1 304 192 304s-8.2-1.6-11.3-4.7l-58.6-58.5-39.35 39.3C70.74 292.1 64 308.4 64 325.4v88.68L7.03 471.05c-9.375 9.375-9.375 24.56 0 33.94C11.72 509.7 17.86 512 24 512s12.28-2.344 16.97-7.031L97.94 448h88.69c16.97 0 33.25-6.744 45.26-18.75l187.6-187.6-149.1-149.1-61.59 61.55z"/></svg>