<svg xmlns="http://www.w3.org/2000/svg" viewBox="0 0 640 512"><!--! Font Awesome Free 6.1.1 by @fontawesome - https://fontawesome.com License - https://fontawesome.com/license/free (Icons: CC BY 4.0, Fonts: SIL OFL 1.1, Code: MIT License) Copyright 2022 Fonticons, Inc.--><path d="M159.1 191.1C78 191.1 11.6 249.61-.8 325.9c.042 5.6 4.167 10.1 9.165 10.1h303.3c4.998 0 8.996-4.5 8.248-9.25C307.4 250.5 241.1 191.1 159.1 191.1zM311.5 368H8.365c-4.998 0-9.123 4.5-8.248 9.25C12.49 453.5 78.88 512 159.1 512s147.4-58.5 159.8-134.8c1.8-4.7-2.4-9.2-7.4-9.2zm51.4-302.26c-3.502-3.502-9.504-3.252-12.25.75-45.52 62.76-40.52 150.4 15.88 206.9 56.52 56.51 144.2 61.39 206.1 15.88 4.002-2.875 4.252-8.877.75-12.25L362.9 65.74zm230.5-19.13c-56.52-56.51-144.2-61.39-206.1-16-4.002 2.877-4.252 8.877-.75 12.25l211.3 211.4c3.5 3.502 9.504 3.252 12.25-.75 44.7-62.71 39.8-150.41-16.7-206.9z"/></svg>