<svg xmlns="http://www.w3.org/2000/svg" viewBox="0 0 512 512"><!--! Font Awesome Free 6.1.1 by @fontawesome - https://fontawesome.com License - https://fontawesome.com/license/free (Icons: CC BY 4.0, Fonts: SIL OFL 1.1, Code: MIT License) Copyright 2022 Fonticons, Inc.--><path d="M416 287.1c27.99 0 53.68 9.254 74.76 24.51 14.03-29.82 21.06-62.13 21.06-94.43 0-103.1-79.37-218.1-216.5-218.1-59.94 0-120.4 23.71-165.5 68.95l-54.66 54.8c-1.55 2.47-2.58 3.27-4.02 5.67l230.7 230.7c20.96-42 63.96-72.1 114.16-72.1zm-125.7 105L51.7 153.5c-12.96 22.7-19.4 45.9-19.4 68.4 0 30.53 11.71 59.94 34.29 82.58l36.6 36.7-92.38 81.32C3.633 428.755 0 437.52 0 446.31c0 8.027 3.032 16.07 9.164 22.24l34.05 34.2a31.17 31.17 0 0 0 22.15 9.205c8.749 0 17.47-3.649 23.7-10.86l81.03-92.85 35.95 36.04c23.62 23.68 54.41 35.23 85.37 35.23 4.532 0 9.205-.268 13.72-.76-10.56-18.61-17.12-39.89-17.12-62.81C288 408.1 288.1 400.5 290.3 392.1zM415.1 320c-52.99 0-95.99 42.1-95.99 95.1 0 52.1 42.99 95.99 95.99 95.99 52.1 0 95.99-42.1 95.99-95.99.01-52.1-42.99-95.1-95.99-95.1z"/></svg>