<svg xmlns="http://www.w3.org/2000/svg" viewBox="0 0 640 512"><!--! Font Awesome Free 6.1.1 by @fontawesome - https://fontawesome.com License - https://fontawesome.com/license/free (Icons: CC BY 4.0, Fonts: SIL OFL 1.1, Code: MIT License) Copyright 2022 Fonticons, Inc.--><path d="M576 64H64C28.8 64 0 92.8 0 128v256c0 35.2 28.8 64 64 64h512c35.2 0 64-28.8 64-64V128c0-35.2-28.8-64-64-64zM64 296c0-4.4 3.63-8 8-8h16c4.38 0 8 3.6 8 8v16c0 4.4-3.62 8-8 8H72c-4.37 0-8-3.6-8-8v-16zm272 88H80c-8.8 0-16-7.2-16-16s7.2-16 15.1-16h256c8.801 0 16 7.199 16 16 .9 8.8-6.3 16-15.1 16zm-208-72v-16c0-4.4 3.6-8 8-8h16c4.4 0 8 3.6 8 8v16c0 4.4-3.6 8-8 8h-16c-4.4 0-8-3.6-8-8zm64 0v-16c0-4.4 3.6-8 8-8h16c4.4 0 8 3.6 8 8v16c0 4.4-3.6 8-8 8h-16c-4.4 0-8-3.6-8-8zm64 0v-16c0-4.4 3.6-8 8-8h16c4.4 0 8 3.6 8 8v16c0 4.4-3.6 8-8 8h-16c-4.4 0-8-3.6-8-8zm96 0c0 4.4-3.6 8-8 8h-16c-4.4 0-8-3.6-8-8v-16c0-4.4 3.6-8 8-8h16c4.4 0 8 3.6 8 8v16zm0-74.3c0 10.2-7.6 18.3-17.1 18.3H81.07C71.6 256 64 247.9 64 237.7v-91.4c0-10.2 7.6-18.3 17.07-18.3h253.9c9.43 0 17.03 8.1 17.03 18.3v91.4zM560 384H400c-8.801 0-16-7.201-16-16 0-8.801 7.199-16 16-16h160c8.801 0 16 7.199 16 16 0 8.8-7.2 16-16 16z"/></svg>