<svg xmlns="http://www.w3.org/2000/svg" viewBox="0 0 512 512"><!--! Font Awesome Free 6.1.2 by @fontawesome - https://fontawesome.com License - https://fontawesome.com/license/free (Icons: CC BY 4.0, Fonts: SIL OFL 1.1, Code: MIT License) Copyright 2022 Fonticons, Inc.--><path d="M159.1 322.9V112c0-8.9-6.2-16-15.1-16-8.9 0-16 7.1-16 16v210.9c-22 7.875-35.25 30.38-31.25 53.38C100.6 399.4 120.6 416.1 144 416.1c23.37 0 43.37-16.71 47.25-39.83 3.95-22.97-10.15-45.47-32.15-53.37zm96-210.9C255.1 50.13 205.9 0 144 0 82.13 0 32 50.13 32 112v166.5C12.25 303.3 0 334 0 368c0 79.5 64.5 144 144 144s143.1-64.5 143.1-144c0-34-12.25-64.88-32-89.5V112zm-35.2 281.4c-11.8 32.7-41.5 53.7-75.9 53.7-34.38 0-65-21.84-75.88-54.59C57.25 360.8 68.5 324.9 96 304.3V112c0-26.5 21.5-48.01 48-48.01S191.1 85.5 191.1 112v192.3c28.4 20.6 39.6 56.5 28.8 89.1zM504.1 124l-64-80c-12.12-15.19-37.84-15.19-49.97 0l-64 80c-11.05 13.81-8.812 33.94 5 45 13.75 11.03 33.94 8.781 44.97-5l7.9-8.8V448c0 17.69 14.33 32 32 32s32-14.31 32-32V155.2l7 8.8c6.312 7.906 15.61 12 25 12 7.016 0 14.08-2.281 19.97-7 13.83-11.1 16.03-31.2 4.13-45z"/></svg>