<svg xmlns="http://www.w3.org/2000/svg" viewBox="0 0 512 512"><!--! Font Awesome Free 6.3.0 by @fontawesome - https://fontawesome.com License - https://fontawesome.com/license/free (Icons: CC BY 4.0, Fonts: SIL OFL 1.1, Code: MIT License) Copyright 2023 Fonticons, Inc.--><path d="M96 112c0-26.5 21.5-48 48-48s48 21.5 48 48v164.5c0 17.3 7.1 31.9 15.3 42.5 10.5 13.6 16.7 30.5 16.7 49 0 44.2-35.8 80-80 80s-80-35.8-80-80c0-18.5 6.2-35.4 16.7-48.9 8.2-10.7 15.3-25.3 15.3-42.6V112zM144 0C82.1 0 32 50.1 32 112v164.4c0 .1-.1.3-.2.6-.2.6-.8 1.6-1.7 2.8C11.2 304.2 0 334.8 0 368c0 79.5 64.5 144 144 144s144-64.5 144-144c0-33.2-11.3-63.8-30.1-88.1-.9-1.2-1.5-2.2-1.7-2.8-.1-.3-.2-.5-.2-.6V112C256 50.1 205.9 0 144 0zm0 416c26.5 0 48-21.5 48-48 0-20.9-13.4-38.7-32-45.3V272c0-8.8-7.2-16-16-16s-16 7.2-16 16v50.7c-18.6 6.6-32 24.4-32 45.3 0 26.5 21.5 48 48 48zm336-64h-32V64c0-17.7-14.3-32-32-32s-32 14.3-32 32v288h-32c-12.9 0-24.6 7.8-29.6 19.8s-2.2 25.7 6.9 34.9l64 64c6 6 14.1 9.4 22.6 9.4s16.6-3.4 22.6-9.4l64-64c9.2-9.2 11.9-22.9 6.9-34.9S492.8 352 479.8 352z"/></svg>