<svg xmlns="http://www.w3.org/2000/svg" viewBox="0 0 640 512"><!--! Font Awesome Free 6.2.1 by @fontawesome - https://fontawesome.com License - https://fontawesome.com/license/free (Icons: CC BY 4.0, Fonts: SIL OFL 1.1, Code: MIT License) Copyright 2022 Fonticons, Inc.--><path d="M152.1 41.8c9.9-8.9 10.7-24 1.8-33.9s-24-10.7-33.9-1.8l-80 72c-5.1 4.6-8 11.1-8 17.9s2.9 13.3 7.9 17.8l80 72c9.9 8.9 25 8.1 33.9-1.8s8.1-25-1.8-33.9L118.5 120H488c39.8 0 72 32.2 72 72v40c0 13.3 10.7 24 24 24s24-10.7 24-24v-40c0-66.3-53.7-120-120-120H118.5L152 41.8zm187.3 124.7c-11.5-8.7-27.3-8.7-38.8 0l-168 128c-6.6 5-11 12.5-12.3 20.7l-24 160c-1.4 9.2 1.3 18.6 7.4 25.6s14.9 11.1 24.2 11.1H320V352l96 160h96c9.3 0 18.2-4.1 24.2-11.1s8.8-16.4 7.4-25.6l-24-160c-1.2-8.2-5.6-15.7-12.3-20.7l-168-128z"/></svg>