<svg xmlns="http://www.w3.org/2000/svg" viewBox="0 0 512 512"><!--! Font Awesome Free 6.1.1 by @fontawesome - https://fontawesome.com License - https://fontawesome.com/license/free (Icons: CC BY 4.0, Fonts: SIL OFL 1.1, Code: MIT License) Copyright 2022 Fonticons, Inc.--><path d="M483.1 162.6 229.8 415.9h-99.87l-88.99 89.02c-9.249 9.377-24.5 9.377-33.87 0-9.374-9.252-9.374-24.51 0-33.88l88.99-89.02v-100.9l49.05-49.39 51.6 51.59c3.125 3.126 7.218 4.688 11.31 4.688s8.187-1.563 11.31-4.688c6.25-6.252 6.25-16.38 0-22.63L167.6 209.1l41.24-41.52 51.81 51.81c3.125 3.126 7.218 4.688 11.31 4.688s8.187-1.563 11.31-4.688c6.249-6.252 6.249-16.38 0-22.63L231.4 144.8l41.24-41.52 52.02 52.02c3.125 3.126 7.218 4.688 11.31 4.688s8.187-1.563 11.31-4.688c6.249-6.252 6.249-16.38 0-22.63l-52.09-52.09 49.68-50.02c36.37-36.51 94.37-40.88 131.9-10.25 49.43 40.8 42.13 107.49 6.33 142.29z"/></svg>