<svg xmlns="http://www.w3.org/2000/svg" viewBox="0 0 640 512"><!--! Font Awesome Free 6.1.1 by @fontawesome - https://fontawesome.com License - https://fontawesome.com/license/free (Icons: CC BY 4.0, Fonts: SIL OFL 1.1, Code: MIT License) Copyright 2022 Fonticons, Inc.--><path d="M160 224h320v-54.7c-28.3-13.2-48-40.5-48-73.3 0-44.18 35.8-80 80-80s80 35.82 80 80c0 32.8-19.7 60.1-48 73.3V224h64c17.7 0 32 14.3 32 32s-14.3 32-32 32H352v54.7c28.3 12.3 48 40.5 48 73.3 0 44.2-35.8 80-80 80s-80-35.8-80-80c0-32.8 19.7-61 48-73.3V288H32c-17.67 0-32-14.3-32-32s14.33-32 32-32h64v-54.7C67.75 156.1 48 128.8 48 96c0-44.18 35.82-80 80-80 44.2 0 80 35.82 80 80 0 32.8-19.7 60.1-48 73.3V224zm-32-104c13.3 0 24-10.7 24-24 0-13.25-10.7-24-24-24s-24 10.75-24 24c0 13.3 10.7 24 24 24zm384-48c-13.3 0-24 10.75-24 24 0 13.3 10.7 24 24 24s24-10.7 24-24c0-13.25-10.7-24-24-24zM320 440c13.3 0 24-10.7 24-24s-10.7-24-24-24-24 10.7-24 24 10.7 24 24 24z"/></svg>