<svg xmlns="http://www.w3.org/2000/svg" viewBox="0 0 576 512"><!--! Font Awesome Free 6.1.2 by @fontawesome - https://fontawesome.com License - https://fontawesome.com/license/free (Icons: CC BY 4.0, Fonts: SIL OFL 1.1, Code: MIT License) Copyright 2022 Fonticons, Inc.--><path d="M224 0c17.7 0 32 14.33 32 32v32H0V32C0 14.33 14.33 0 32 0h192zM0 96h256v392c0 13.3-10.7 24-24 24s-24-10.7-24-24v-8H48v8c0 13.3-10.75 24-24 24S0 501.3 0 488V96zm176 144v64c0 8.8 7.2 16 16 16s16-7.2 16-16v-64c0-8.8-7.2-16-16-16s-16 7.2-16 16zM544 0c17.7 0 32 14.33 32 32v32H320V32c0-17.67 14.3-32 32-32h192zM320 96h256v392c0 13.3-10.7 24-24 24s-24-10.7-24-24v-8H368v8c0 13.3-10.7 24-24 24s-24-10.7-24-24V96zm176 144v64c0 8.8 7.2 16 16 16s16-7.2 16-16v-64c0-8.8-7.2-16-16-16s-16 7.2-16 16z"/></svg>