<svg xmlns="http://www.w3.org/2000/svg" viewBox="0 0 512 512"><!--! Font Awesome Free 6.1.2 by @fontawesome - https://fontawesome.com License - https://fontawesome.com/license/free (Icons: CC BY 4.0, Fonts: SIL OFL 1.1, Code: MIT License) Copyright 2022 Fonticons, Inc.--><path d="M0 80V0l71.37 23.79C87.68 29.23 104.8 32 121.1 32H390c17.2 0 34.3-2.77 50.6-8.21L512 0v80c0 26.5-21.5 48-48 48h-16v64h-64v-64h-96v64h-64v-64h-96v64H64v-64H48c-26.51 0-48-21.5-48-48zm32 208c-17.67 0-32-14.3-32-32s14.33-32 32-32h448c17.7 0 32 14.3 32 32s-14.3 32-32 32h-32v192c0 17.7-14.3 32-32 32s-32-14.3-32-32V288H128v192c0 17.7-14.3 32-32 32-17.67 0-32-14.3-32-32V288H32z"/></svg>