<svg xmlns="http://www.w3.org/2000/svg" viewBox="0 0 512 512"><!--! Font Awesome Free 6.1.2 by @fontawesome - https://fontawesome.com License - https://fontawesome.com/license/free (Icons: CC BY 4.0, Fonts: SIL OFL 1.1, Code: MIT License) Copyright 2022 Fonticons, Inc.--><path d="M241.7 3.378c9-4.504 19.6-4.504 28.6 0l160 80.002c15.8 7.9 22.2 27.12 14.3 42.92-5.6 11.2-16.9 16.8-28.6 17.7v80c0 17.7-14.3 32-32 32h-4.9l32 192H480c17.7 0 32 14.3 32 32s-14.3 32-32 32H32c-17.67 0-32-14.3-32-32s14.33-32 32-32h68.9l32-192H128c-17.7 0-32-14.3-32-32v-80c-11.73-.9-23.02-6.5-28.62-17.7-7.91-15.8-1.5-35.02 14.31-42.92L241.7 3.378zM314.5 448 256 399.2 197.5 448h117zM193.1 284.3l62.9 52.5 62.9-52.5-4.7-28.3H197.8l-4.7 28.3zm-9.2 54.9-11.1 66.9 45.7-38.1-34.6-28.8zM293.5 368l45.7 38.1-11.1-66.9-34.6 28.8zM176 128c-8.8 0-16 7.2-16 16s7.2 16 16 16h160c8.8 0 16-7.2 16-16s-7.2-16-16-16H176z"/></svg>