<svg xmlns="http://www.w3.org/2000/svg" viewBox="0 0 640 512"><!--! Font Awesome Free 6.1.1 by @fontawesome - https://fontawesome.com License - https://fontawesome.com/license/free (Icons: CC BY 4.0, Fonts: SIL OFL 1.1, Code: MIT License) Copyright 2022 Fonticons, Inc.--><path d="M96 64c0-35.35 28.7-64 64-64h106.3c26.2 0 49.7 15.93 59.5 40.23L373.7 160H480v-33.8c0-24.8 5.8-49.32 16.9-71.54l2.5-4.97c7.9-15.81 27.1-22.22 42.9-14.31 15.8 7.9 22.2 27.12 14.3 42.93l-2.5 4.97C547.5 96.61 544 111.3 544 126.2V160h56c22.1 0 40 17.9 40 40v45.4c0 16.5-8.5 31.9-22.6 40.7l-43.3 27.1c-14.2-5.9-29.8-9.2-46.1-9.2-39.3 0-74.1 18.9-96.9 48H352c0 17.7-14.3 32-32 32h-8.2c-1.7 4.8-3.6 9.5-6.7 14.1l6.7 5.8c12.5 12.5 12.5 32.7 0 45.2l-22.7 22.7c-12.5 12.5-32.7 12.5-45.2 0l-5.8-6.7c-4.6 3.1-9.3 5-14.1 6.7v8.2c0 17.7-14.3 32-32 32h-32c-17.7 0-32-14.3-32-32v-8.2c-4.8-1.7-9.5-3.6-14.1-6.7l-5.8 6.7c-12.48 12.5-32.74 12.5-45.24 0l-22.62-22.7c-12.5-12.5-12.5-32.7 0-45.2l5.79-5.8c-2.18-4.6-4.13-9.3-5.84-14.1H32c-17.67 0-32-14.3-32-32v-32c0-17.7 14.33-32 32-32h8.19c1.71-4.8 3.66-9.5 5.84-14.1l-5.79-5.8c-12.5-12.5-12.5-32.7 0-45.2l22.62-22.7c8.96-8.9 21.92-11.5 33.14-7.6V64zm64 0v96h144.7l-38.4-96H160zm16 192c-44.2 0-80 35.8-80 80s35.8 80 80 80 80-35.8 80-80-35.8-80-80-80zm264 168c0-29.8 14.8-56.1 37.4-72 14.3-10.1 31.8-16 50.6-16 2.7 0 5.3.1 7.9.3 44.9 4 80.1 41.8 80.1 87.7 0 48.6-39.4 88-88 88s-88-39.4-88-88zm88 24c13.3 0 24-10.7 24-24s-10.7-24-24-24-24 10.7-24 24 10.7 24 24 24z"/></svg>