<svg xmlns="http://www.w3.org/2000/svg" viewBox="0 0 640 512"><!--! Font Awesome Free 6.1.2 by @fontawesome - https://fontawesome.com License - https://fontawesome.com/license/free (Icons: CC BY 4.0, Fonts: SIL OFL 1.1, Code: MIT License) Copyright 2022 Fonticons, Inc.--><path d="M496 32c26.5 0 48 21.49 48 48v240h64c17.7 0 32 14.3 32 32s-14.3 32-32 32H286.9c-7.8-54.3-54.5-96-110.9-96-56.4 0-103.1 41.7-110.87 96H48c-26.51 0-48-21.5-48-48V80c0-26.51 21.49-48 48-48h448zM64 112v152.2c9.83-8.1 20.55-15.2 32-21V112c0-8.8-7.16-16-16-16s-16 7.2-16 16zm112 112c5.4 0 10.7.2 16 .7V112c0-8.8-7.2-16-16-16s-16 7.2-16 16v112.7c5.3-.5 10.6-.7 16-.7zm80 19.2c11.4 5.8 22.2 12.9 32 21V112c0-8.8-7.2-16-16-16s-16 7.2-16 16v131.2zM352 112v192c0 8.8 7.2 16 16 16s16-7.2 16-16V112c0-8.8-7.2-16-16-16s-16 7.2-16 16zm128 0c0-8.8-7.2-16-16-16s-16 7.2-16 16v192c0 8.8 7.2 16 16 16s16-7.2 16-16V112zM96 400c0-44.2 35.8-80 80-80s80 35.8 80 80-35.8 80-80 80-80-35.8-80-80zm80 32c17.7 0 32-14.3 32-32s-14.3-32-32-32-32 14.3-32 32 14.3 32 32 32z"/></svg>