<svg xmlns="http://www.w3.org/2000/svg" viewBox="0 0 448 512"><!--! Font Awesome Free 6.1.1 by @fontawesome - https://fontawesome.com License - https://fontawesome.com/license/free (Icons: CC BY 4.0, Fonts: SIL OFL 1.1, Code: MIT License) Copyright 2022 Fonticons, Inc.--><path d="M86.76 48c-12.15 0-23.64 5.52-31.23 15.01L42.74 78.99c-8.28 10.35-23.38 12.03-33.733 3.75-10.35-8.28-12.028-23.38-3.748-33.73L18.04 33.03A87.999 87.999 0 0 1 86.76 0H361.2c25.9 0 52.1 12.15 67.9 33.03l13.6 15.98c8.3 10.35 6.6 25.45-4.6 33.73-9.5 8.28-24.6 6.6-32.8-3.75l-12.8-15.98A40.064 40.064 0 0 0 361.2 48H248v48h40c53 0 96 42.1 96 96v160c0 30.6-14.3 57.8-36.6 75.4l65.5 65.5c7 7 2 19.1-8.8 19.1h-38.8c-8.5 0-16.7-3.4-22.7-9.4L288 448H160l-54.6 54.6c-6.03 6-14.17 9.4-22.66 9.4h-39.7c-9.98 0-14.98-12.1-7.92-19.1l65.48-65.5C78.3 409.8 64 382.6 64 352V192c0-53.9 42.1-96 96-96h40V48H86.76zM160 160c-17.7 0-32 14.3-32 32v32c0 17.7 14.3 32 32 32h128c17.7 0 32-14.3 32-32v-32c0-17.7-14.3-32-32-32H160zm0 160c-17.7 0-32 14.3-32 32s14.3 32 32 32 32-14.3 32-32-14.3-32-32-32zm128 64c17.7 0 32-14.3 32-32s-14.3-32-32-32-32 14.3-32 32 14.3 32 32 32z"/></svg>