<svg xmlns="http://www.w3.org/2000/svg" viewBox="0 0 448 512"><!--! Font Awesome Free 6.1.2 by @fontawesome - https://fontawesome.com License - https://fontawesome.com/license/free (Icons: CC BY 4.0, Fonts: SIL OFL 1.1, Code: MIT License) Copyright 2022 Fonticons, Inc.--><path d="M352 0c53 0 96 42.98 96 96v256c0 47.1-35.2 87.7-81.1 94.9l46 46c7 7 2 19.1-8.8 19.1h-38.8c-8.5 0-16.7-3.4-22.7-9.4L288 448H160l-54.6 54.6c-6.03 6-14.17 9.4-22.65 9.4H43.04c-9.98 0-14.98-12.1-7.92-19.1l46.02-46C35.18 439.7 0 399.1 0 352V96C0 42.98 42.98 0 96 0h256zM64 224c0 17.7 14.33 32 32 32h80c17.7 0 32-14.3 32-32v-96c0-17.7-14.3-32-32-32H96c-17.67 0-32 14.3-32 32v96zM272 96c-17.7 0-32 14.3-32 32v96c0 17.7 14.3 32 32 32h80c17.7 0 32-14.3 32-32v-96c0-17.7-14.3-32-32-32h-80zM96 320c-17.67 0-32 14.3-32 32s14.33 32 32 32c17.7 0 32-14.3 32-32s-14.3-32-32-32zm256 64c17.7 0 32-14.3 32-32s-14.3-32-32-32-32 14.3-32 32 14.3 32 32 32z"/></svg>