<svg xmlns="http://www.w3.org/2000/svg" viewBox="0 0 640 512"><!--! Font Awesome Free 6.0.0 by @fontawesome - https://fontawesome.com License - https://fontawesome.com/license/free (Icons: CC BY 4.0, Fonts: SIL OFL 1.1, Code: MIT License) Copyright 2022 Fonticons, Inc.--><path d="M64 48c0-26.51 21.49-48 48-48h256c26.5 0 48 21.49 48 48v208h192v96c17.7 0 32 14.3 32 32s-14.3 32-32 32h-32c0 53-43 96-96 96-53.9 0-96-43-96-96H256c0 53-43 96-96 96-53.9 0-96-43-96-96V288h144c8.8 0 16-7.2 16-16s-7.2-16-16-16H16c-8.836 0-16-7.2-16-16s7.164-16 16-16h224c8.8 0 16-7.2 16-16s-7.2-16-16-16H48c-8.84 0-16-7.2-16-16s7.16-16 16-16h224c8.8 0 16-7.2 16-16s-7.2-16-16-16H16c-8.836 0-16-7.2-16-16s7.164-16 16-16h48V48zm96 416c26.5 0 48-21.5 48-48s-21.5-48-48-48-48 21.5-48 48 21.5 48 48 48zm320-96c-26.5 0-48 21.5-48 48s21.5 48 48 48 48-21.5 48-48-21.5-48-48-48zm-13.3-208H400V96h66.7c17 0 32.4 6.7 45.3 18.7l77.3 77.3c12 12 18.7 28.3 18.7 45.3V288h-64v-50.7L466.7 160z"/></svg>