<svg xmlns="http://www.w3.org/2000/svg" viewBox="0 0 640 512"><!--! Font Awesome Free 6.1.1 by @fontawesome - https://fontawesome.com License - https://fontawesome.com/license/free (Icons: CC BY 4.0, Fonts: SIL OFL 1.1, Code: MIT License) Copyright 2022 Fonticons, Inc.--><path d="M640 0v400c0 61.9-50.1 112-112 112-61 0-110.5-48.7-112-109.3L48.41 502.9c-17.05 4.6-34.64-5.4-39.284-22.5-4.646-17 5.414-34.6 22.464-39.3L352 353.8V64c0-35.35 28.7-64 64-64h224zM528 352c-26.5 0-48 21.5-48 48s21.5 48 48 48 48-21.5 48-48-21.5-48-48-48zM23.11 207.7c-4.57-17.1 5.56-34.6 22.63-39.2l46.36-12.4 20.7 77.3c2.3 8.5 11.1 12.7 19.6 11.3l30.9-8.3c8.5-2.3 13.6-11.1 11.3-19.6l-20.7-77.3 46.4-12.4c17.1-4.6 34.6 5.6 39.2 22.6l41.4 154.6c4.6 17.1-5.6 34.6-22.6 39.2l-154.6 41.4c-17.06 4.6-34.6-5.6-39.18-22.6L23.11 207.7z"/></svg>