<svg xmlns="http://www.w3.org/2000/svg" viewBox="0 0 640 512"><!--! Font Awesome Free 6.1.1 by @fontawesome - https://fontawesome.com License - https://fontawesome.com/license/free (Icons: CC BY 4.0, Fonts: SIL OFL 1.1, Code: MIT License) Copyright 2022 Fonticons, Inc.--><path d="M0 48C0 21.49 21.49 0 48 0h320c26.5 0 48 21.49 48 48v48h50.7c17 0 32.4 6.7 45.3 18.7l77.3 77.3c12 12 18.7 28.3 18.7 45.3V352c17.7 0 32 14.3 32 32s-14.3 32-32 32h-32c0 53-43 96-96 96-53.9 0-96-43-96-96H256c0 53-43 96-96 96-53.9 0-96-43-96-96H48c-26.51 0-48-21.5-48-48V48zm544 208v-18.7L466.7 160H416v96h128zM160 464c26.5 0 48-21.5 48-48s-21.5-48-48-48-48 21.5-48 48 21.5 48 48 48zm320-96c-26.5 0-48 21.5-48 48s21.5 48 48 48 48-21.5 48-48-21.5-48-48-48zM256.1 95.03c-8.5-9.37-23.7-9.37-33.1 0-9.3 9.37-9.3 24.57 0 33.07l39.1 39.9H96c-13.25 0-24 10.7-24 24s10.75 24 24 24h166.1L223 255c-9.3 9.4-9.3 24.6 0 33.1 9.4 10.2 24.6 10.2 33.1 0l80-80c10.2-8.5 10.2-23.7 0-33.1l-80-79.97z"/></svg>