<svg xmlns="http://www.w3.org/2000/svg" viewBox="0 0 640 512"><!--! Font Awesome Free 6.1.2 by @fontawesome - https://fontawesome.com License - https://fontawesome.com/license/free (Icons: CC BY 4.0, Fonts: SIL OFL 1.1, Code: MIT License) Copyright 2022 Fonticons, Inc.--><path d="M320 32c23.7 0 44.4 12.87 55.4 32h51.8c25.3 0 48.2 14.9 58.5 38l52.8 118.8c-.4 1.1.9 2.1 1.3 3.2h4.2c35.3 0 64 28.7 64 64v32c17.7 0 32 14.3 32 32s-14.3 32-32 32h-32c0 53-43 96-96 96-53.9 0-96-43-96-96H256c0 53-43 96-96 96-53.9 0-96-43-96-96H32c-17.67 0-32-14.3-32-32s14.33-32 32-32v-32c-17.67 0-32-14.3-32-32v-96c0-17.7 14.33-32 32-32V96c0-35.35 28.65-64 64-64h224zm64 96v96h85.9l-42.7-96H384zM160 336c-26.5 0-48 21.5-48 48s21.5 48 48 48 48-21.5 48-48-21.5-48-48-48zm320 96c26.5 0 48-21.5 48-48s-21.5-48-48-48-48 21.5-48 48 21.5 48 48 48zM253.3 135.1c-3.9-5.8-11.2-8.5-17.9-6.4-6.8 2-11.4 8.2-11.4 15.3v96c0 8.8 7.2 16 16 16s16-7.2 16-16v-43.2l34.7 52.1c3.9 5.8 11.2 8.5 17.9 6.4 6.8-2 11.4-8.2 11.4-15.3v-96c0-8.8-7.2-16-16-16s-16 7.2-16 16v43.2l-34.7-52.1zM128 144c0-8.8-7.2-16-16-16s-16 7.2-16 16v64c0 26.5 21.5 48 48 48s48-21.5 48-48v-64c0-8.8-7.2-16-16-16s-16 7.2-16 16v64c0 8.8-7.2 16-16 16s-16-7.2-16-16v-64z"/></svg>