<svg xmlns="http://www.w3.org/2000/svg" viewBox="0 0 640 512"><!--! Font Awesome Free 6.1.2 by @fontawesome - https://fontawesome.com License - https://fontawesome.com/license/free (Icons: CC BY 4.0, Fonts: SIL OFL 1.1, Code: MIT License) Copyright 2022 Fonticons, Inc.--><path d="M32 96c0-35.35 28.65-64 64-64h224c23.7 0 44.4 12.87 55.4 32h51.8c25.3 0 48.2 14.9 58.5 38l52.8 118.8c-.4 1.1.9 2.1 1.3 2.3h4.2c35.3 0 64 29.6 64 64v32c17.7 0 32 15.2 32 32.9s-14.3 32-32 32h-32c0 53-43 96-96 96-53.9 0-96-43-96-96H256c0 53-43 96-96 96-53.9 0-96-43-96-96H32c-17.67 0-32-14.3-32-32s14.33-32.9 32-32.9v-32c-17.67 0-32-13.4-32-32v-96c0-16.8 14.33-32 32-32V96zm437.9 128-42.7-96H384v96h85.9zM160 432c26.5 0 48-21.5 48-48s-21.5-48-48-48-48 21.5-48 48 21.5 48 48 48zm320-96c-26.5 0-48 21.5-48 48s21.5 48 48 48 48-21.5 48-48-21.5-48-48-48z"/></svg>