<svg xmlns="http://www.w3.org/2000/svg" viewBox="0 0 512 512"><!--! Font Awesome Free 6.1.2 by @fontawesome - https://fontawesome.com License - https://fontawesome.com/license/free (Icons: CC BY 4.0, Fonts: SIL OFL 1.1, Code: MIT License) Copyright 2022 Fonticons, Inc.--><path d="M271.1 364v40c0 6.625 5.375 12 12 12h40c6.625 0 12-5.375 12-12v-40c0-6.625-5.375-12-12-12h-40c-5.8 0-12 5.4-12 12zm96 0v40c0 6.625 5.375 12 12 12h40c6.625 0 12-5.375 12-12v-40c0-6.625-5.375-12-12-12h-40c-5.8 0-12 5.4-12 12zm-92-108h-40c-6.625 0-12 5.375-12 12v40c0 6.625 5.376 12 12 12h39.1c6.625 0 12-5.375 12-12v-40c.9-6.6-3.6-12-11.1-12zM83.96 448h-40c-6.625 0-12 5.375-12 12v40c0 6.625 5.375 12 12 12h40c6.625 0 12-5.375 12-12v-40c0-6.6-5.37-12-12-12zm91.14-84v40c0 6.625 5.375 12 12 12h40c6.625 0 12-5.375 12-12v-40c0-6.625-5.375-12-12-12h-40c-5.8 0-12 5.4-12 12zm196-108h-40c-6.625 0-12 5.375-12 12v40c0 6.625 5.372 12 11.1 12h39.1c6.625 0 12-5.375 12-12v-40c1.8-6.6-2.7-12-10.2-12zm96 0h-40c-6.625 0-12 5.375-12 12v40c0 6.625 5.369 12 11.99 12h39.1c6.625 0 12.01-5.375 12.01-12v-40c.9-6.6-3.6-12-11.1-12zm-96 192h-232c-6.625 0-12 5.375-12 12v40c0 6.625 5.375 12 12 12h232c6.625 0 12-5.375 12-12v-40c0-6.6-4.5-12-12-12zm-192-192h-40c-6.625 0-12 5.375-12 12v40c0 6.625 5.38 12 12 12h39.1c6.625 0 11.1-5.375 11.1-12v-40c1.8-6.6-2.7-12-10.2-12zm288 192h-40c-6.625 0-12 5.375-12 12v40c0 6.625 5.375 12 12 12h40c6.625 0 12-5.375 12-12v-40c0-6.6-4.5-12-12-12zM79.96 364v40c0 6.625 5.375 12 12 12h40c6.625 0 12-5.375 12-12v-40c0-6.625-5.375-12-12-12h-40c-6.62 0-12 5.4-12 12zm4-108h-40c-6.625 0-12 5.375-12 12v40c0 6.625 5.383 12 12.01 12h40c6.625 0 11.99-5.375 11.99-12v-40c0-6.6-5.37-12-12-12zM504.9 102.9C367.7-34.31 144.3-34.32 7.083 102.9c-7.975 7.973-9.375 20.22-3.391 29.74l42.17 67.47c6.141 9.844 18.47 13.88 29.35 9.632l84.36-33.74C169.5 172.1 175.6 161.1 174.5 151.3l-5.303-53.27c56.15-19.17 117.4-19.17 173.6.006L337.5 151.3c-1.139 10.59 4.997 20.78 14.96 24.73l84.35 33.73c10.83 4.303 23.22.16 29.33-9.615l42.18-67.48c5.98-9.465 4.58-21.765-3.42-29.765z"/></svg>