<svg xmlns="http://www.w3.org/2000/svg" viewBox="0 0 384 512"><!--! Font Awesome Free 6.2.0 by @fontawesome - https://fontawesome.com License - https://fontawesome.com/license/free (Icons: CC BY 4.0, Fonts: SIL OFL 1.1, Code: MIT License) Copyright 2022 Fonticons, Inc.--><path d="m178.3 5.7-138 138c-5.3 5.3-8.3 12.5-8.3 20 0 15.6 12.7 28.3 28.3 28.3H144v208c0 8.8-7.2 16-16 16H32c-17.7 0-32 14.3-32 32v32c0 17.7 14.3 32 32 32h96c61.9 0 112-50.1 112-112V192h83.7c15.6 0 28.3-12.7 28.3-28.3 0-7.5-3-14.7-8.3-20l-138-138C202 2 197.1 0 192 0s-10 2-13.7 5.7z"/></svg>