<svg xmlns="http://www.w3.org/2000/svg" viewBox="0 0 640 512"><!--! Font Awesome Free 6.1.2 by @fontawesome - https://fontawesome.com License - https://fontawesome.com/license/free (Icons: CC BY 4.0, Fonts: SIL OFL 1.1, Code: MIT License) Copyright 2022 Fonticons, Inc.--><path d="M512 448H127.1c-16.8 0-31.1 14.3-31.1 31.1s14.3 32.9 31.1 32.9h384c18.6 0 32.9-14.3 32.9-32s-14.3-32-32-32zM592 0H48C21.5 0 0 21.5 0 48v320c0 26.5 21.5 48 48 48h544c26.5 0 48-21.5 48-48V48c0-26.5-21.5-48-48-48zm-16 352H64V64h512v288z"/></svg>