<svg xmlns="http://www.w3.org/2000/svg" viewBox="0 0 576 512"><!--! Font Awesome Free 6.1.1 by @fontawesome - https://fontawesome.com License - https://fontawesome.com/license/free (Icons: CC BY 4.0, Fonts: SIL OFL 1.1, Code: MIT License) Copyright 2022 Fonticons, Inc.--><path d="M255.1 301.7V432c0 8.814-7.188 16-16 16-7.814 0-13.19-5.314-15.1-10.69a31.894 31.894 0 0 0-40.81-19.5c-16.69 5.875-25.41 24.19-19.5 40.79 12.11 32 42.51 53.4 75.41 53.4 45 0 80.9-35.9 80.9-80.9V300.8c-9.094-7.908-19.81-13.61-32-13.61-12.3.91-22.4 5.71-32.9 14.51zm320.6-20.8C547.1 144.5 437.3 62.61 320 49.91v-17.9C320 14.32 305.69 0 288 0s-32.9 14.31-32.9 32.01v17.91C138.3 62.61 29.48 144.5.295 280.9c-2.221 9.2 8.5 21.2 18.685 11.3 52-55.01 107.7-52.39 158.6 37.01 5.312 9.502 14.91 8.625 19.72 0C217.5 293.9 242.2 256 287.1 256c58.5 0 88.19 68.82 90.69 73.2 4.812 8.625 14.41 9.502 19.72 0 51-89.52 107.1-91.39 158.6-37.01 11.19 10.01 21.79-2.09 19.59-11.29z"/></svg>