<svg xmlns="http://www.w3.org/2000/svg" viewBox="0 0 512 512"><!--! Font Awesome Free 6.1.1 by @fontawesome - https://fontawesome.com License - https://fontawesome.com/license/free (Icons: CC BY 4.0, Fonts: SIL OFL 1.1, Code: MIT License) Copyright 2022 Fonticons, Inc.--><path d="M512 256c0 6.797-2.891 13.28-7.938 17.84l-80 72C419.6 349.9 413.8 352 408 352a24.07 24.07 0 0 1-9.766-2.078C389.6 346.1 384 337.5 384 328v-40h-96v96l40-.001c9.484 0 18.06 5.578 21.92 14.23s2.25 18.78-4.078 25.83l-72 80C269.3 509.1 262.8 512 255.1 512s-13.28-2.89-17.84-7.937l-71.1-80c-6.328-7.047-7.938-17.17-4.078-25.83s12.44-14.23 21.92-14.23l39.1.001V288H128v40c0 9.484-5.578 18.06-14.23 21.92-3.17 1.38-6.47 2.08-9.77 2.08a24.004 24.004 0 0 1-16.06-6.156l-80-72A24.03 24.03 0 0 1 0 256c0-6.8 2.891-13.28 7.938-17.84l80-72C95 159.8 105.1 158.3 113.8 162.1c8.6 3.8 14.2 12.4 14.2 21.9v40h95.1v-96l-39.1-.001c-9.484 0-18.06-5.578-21.92-14.23S159.8 94.99 166.2 87.94l71.1-80c9.125-10.09 26.56-10.09 35.69 0l72 80c6.328 7.047 7.938 17.17 4.078 25.83S336.628 128 327.148 128l-40 .001V224H384v-40c0-9.484 5.578-18.06 14.23-21.92 8.656-3.812 18.77-2.266 25.83 4.078l80 72A24.055 24.055 0 0 1 512 256z"/></svg>