<svg xmlns="http://www.w3.org/2000/svg" viewBox="0 0 640 512"><!--! Font Awesome Free 6.1.1 by @fontawesome - https://fontawesome.com License - https://fontawesome.com/license/free (Icons: CC BY 4.0, Fonts: SIL OFL 1.1, Code: MIT License) Copyright 2022 Fonticons, Inc.--><path d="M274.7 304H173.3C77.61 304 0 381.6 0 477.3 0 496.5 15.52 512 34.66 512h378.7c19.14 0 34.64-15.5 34.64-34.7 0-95.7-77.6-173.3-173.3-173.3zM224 256c70.7 0 128-57.31 128-128S294.7 0 224 0 96 57.31 96 128s57.3 128 128 128zm353.9-32.9 47.03-47.03c9.375-9.375 9.375-24.56 0-33.94s-24.56-9.375-33.94 0L544 190.1l-47.03-47.03c-9.375-9.375-24.56-9.375-33.94 0s-9.375 24.56 0 33.94l47.03 47.03-47.03 47.03c-9.375 9.375-9.375 24.56 0 33.94 9.373 9.373 24.56 9.381 33.94 0L544 257.9l47.03 47.03c9.373 9.373 24.56 9.381 33.94 0 9.375-9.375 9.375-24.56 0-33.94L577.9 223.1z"/></svg>