<svg xmlns="http://www.w3.org/2000/svg" viewBox="0 0 640 512"><!--! Font Awesome Free 6.1.2 by @fontawesome - https://fontawesome.com License - https://fontawesome.com/license/free (Icons: CC BY 4.0, Fonts: SIL OFL 1.1, Code: MIT License) Copyright 2022 Fonticons, Inc.--><path d="M48 136c0 13.3-10.75 24-24 24S0 149.3 0 136V32C0 14.33 14.33 0 32 0h104c13.3 0 24 10.75 24 24s-10.7 24-24 24H48v88zm79.8 40c0-26.5 21.5-48 48-48s48 21.5 48 48-21.5 48-48 48-48-21.5-48-48zm90.9 80c9.1 0 17.8 2.3 25.3 6.4-32.4 11.9-57.2 39.5-65.2 73.6h-56.1c-14.8 0-26.7-11.9-26.7-26.7 0-29.4 23.9-53.3 53.3-53.3h69.4zm298.6 80h-56.1c-8-34.1-32.8-61.7-66.1-73.6 8.4-4.1 17.1-6.4 26.2-6.4h69.4c29.4 0 53.3 23.9 53.3 53.3 0 14.8-11.9 26.7-26.7 26.7zM432 360c0 13.3-10.7 24-24 24H232c-13.3 0-24-10.7-24-24 0-8.4 1.4-16.5 4.1-24 8.6-24.3 29-42.6 55-47.9 4.8.2 8.8-.1 12.9-.1h80c4.1 0 8.1.3 12 .1 26 5.3 47.3 23.6 55.9 47.9 2.7 7.5 4.1 15.6 4.1 24zm-16-184c0-26.5 21.5-48 48-48s48 21.5 48 48-21.5 48-48 48-48-21.5-48-48zm-32 16c0 35.3-28.7 64-64 64s-64-28.7-64-64 28.7-64 64-64 64 28.7 64 64zm96-168c0-13.25 10.7-24 24-24h104c17.7 0 32 14.33 32 32v104c0 13.3-10.7 24-24 24s-24-10.7-24-24V48h-88c-13.3 0-24-10.75-24-24zM48 464h88c13.3 0 24 10.7 24 24s-10.7 24-24 24H32c-17.67 0-32-14.3-32-32V376c0-13.3 10.75-24 24-24s24 10.7 24 24v88zm456 0h88v-88c0-13.3 10.7-24 24-24s24 10.7 24 24v104c0 17.7-14.3 32-32 32H504c-13.3 0-24-10.7-24-24s10.7-24 24-24z"/></svg>