<svg xmlns="http://www.w3.org/2000/svg" viewBox="0 0 640 512"><!--! Font Awesome Free 6.1.1 by @fontawesome - https://fontawesome.com License - https://fontawesome.com/license/free (Icons: CC BY 4.0, Fonts: SIL OFL 1.1, Code: MIT License) Copyright 2022 Fonticons, Inc.--><path d="M512 160c44.18 0 80-35.82 80-80S556.2 0 512 0c-44.18 0-80 35.82-80 80s35.8 80 80 80zm-384 0c44.18 0 80-35.82 80-80S172.2 0 128 0C83.82 0 48 35.82 48 80s35.82 80 80 80zm191.9 160c57.41 0 103.1-46.56 103.1-104s-46.54-104-103.1-104c-57.41 0-103.1 46.56-103.1 104-.9 57.4 45.7 104 103.1 104zm48.1 80c0-16.69 3.398-32.46 8.619-47.36-2.319-.14-4.419-.64-6.719-.64h-99.8C191.6 352 128 411.7 128 485.3c0 14.8 12.7 26.7 28.4 26.7h266.1c-33-26.4-54.5-66.5-54.5-112zM183.9 216c0-5.449.982-10.63 1.609-15.91C174.6 194.1 162.6 192 149.9 192H88.08C39.44 192 0 233.8 0 285.3 0 295.6 7.887 304 17.62 304h199.5c-20.42-23.8-33.22-54.3-33.22-88zm368-24h-61.84c-12.8 0-24.88 3.037-35.86 8.24.6 5.26 1.6 10.36 1.6 15.76 0 21.47-5.625 41.38-14.65 59.34C462.2 263.4 486.1 256 512 256c42.48 0 80.27 18.74 106.6 48h3.756C632.1 304 640 295.6 640 285.3c0-51.5-39.4-93.3-88.1-93.3zm66.2 174.7c-5.025-16.01-13.59-30.62-24.75-42.71a5.368 5.368 0 0 0-6.699-1.023l-19.17 11.07c-8.096-6.887-17.4-12.28-27.45-15.82V295.1c0-2.514-1.861-4.746-4.281-5.213-16.56-3.723-33.5-3.629-49.32 0-1.53 1.313-3.33 3.613-3.33 5.213v22.24c-10.05 3.537-19.36 8.932-27.45 15.82l-19.26-11.07c-2.139-1.303-4.932-.838-6.697 1.023-11.17 12.1-19.73 26.71-24.66 42.71-.744 2.512.28 5.117 2.42 6.326l19.17 11.17a90.449 90.449 0 0 0 0 31.64l-19.17 11.17c-2.234 1.209-3.164 3.816-2.42 6.328 4.932 16.01 13.49 30.52 24.66 42.71 1.766 1.863 4.467 2.328 6.697 1.025l19.26-11.07c8.094 6.887 17.4 12.28 27.45 15.82v22.24c0 2.514 1.77 4.746 4.188 5.211 16.66 3.723 33.5 3.629 49.32 0 2.42-.465 4.281-2.697 4.281-5.211v-22.24c10.05-3.535 19.36-8.932 27.45-15.82l19.17 11.07c2.141 1.303 5.025.838 6.699-1.025 11.17-12.1 19.73-26.7 24.75-42.71.744-2.512-.277-5.119-2.512-6.328l-19.17-11.17a86.164 86.164 0 0 0 0-31.64l19.17-11.17c2.254-.349 3.254-2.949 1.654-5.449zM512 432c-17.67 0-32-14.33-32-32s14.33-32 32-32 32 14.33 32 32c0 17.7-14.3 32-32 32z"/></svg>