<svg xmlns="http://www.w3.org/2000/svg" viewBox="0 0 448 512"><path d="M319.41 320 224 415.39 128.59 320C57.1 323.1 0 381.6 0 453.79A58.21 58.21 0 0 0 58.21 512h331.58A58.21 58.21 0 0 0 448 453.79C448 381.6 390.9 323.1 319.41 320zM224 304a128 128 0 0 0 128-128V65.82a32 32 0 0 0-20.76-30L246.47 4.07a64 64 0 0 0-44.94 0l-84.77 31.79A32 32 0 0 0 96 65.82V176a128 128 0 0 0 128 128zM184 71.67a5 5 0 0 1 5-5h21.67V45a5 5 0 0 1 5-5h16.66a5 5 0 0 1 5 5v21.67H259a5 5 0 0 1 5 5v16.66a5 5 0 0 1-5 5h-21.67V115a5 5 0 0 1-5 5h-16.66a5 5 0 0 1-5-5V93.33H189a5 5 0 0 1-5-5zM144 160h160v16a80 80 0 0 1-160 0z"/></svg>