<svg xmlns="http://www.w3.org/2000/svg" viewBox="0 0 448 512"><!--! Font Awesome Free 6.2.1 by @fontawesome - https://fontawesome.com License - https://fontawesome.com/license/free (Icons: CC BY 4.0, Fonts: SIL OFL 1.1, Code: MIT License) Copyright 2022 Fonticons, Inc.--><path d="M96 128V70.2c0-13.3 8.3-25.3 20.8-30l96-36c7.2-2.7 15.2-2.7 22.5 0l96 36c12.5 4.7 20.8 16.6 20.8 30V128h-.3c.2 2.6.3 5.3.3 8v40c0 70.7-57.3 128-128 128s-128-57.3-128-128v-40c0-2.7.1-5.4.3-8H96zm48 48c0 44.2 35.8 80 80 80s80-35.8 80-80v-16H144v16zm-14.9 147.2 83.2 88.4c6.3 6.7 17 6.7 23.3 0l83.2-88.4c73.7 14.9 129.1 80 129.1 158.1 0 17-13.8 30.7-30.7 30.7H30.7C13.8 512 0 498.2 0 481.3c0-78.1 55.5-143.2 129.1-158.1zM208 48v16h-16c-4.4 0-8 3.6-8 8v16c0 4.4 3.6 8 8 8h16v16c0 4.4 3.6 8 8 8h16c4.4 0 8-3.6 8-8V96h16c4.4 0 8-3.6 8-8V72c0-4.4-3.6-8-8-8h-16V48c0-4.4-3.6-8-8-8h-16c-4.4 0-8 3.6-8 8z"/></svg>