<svg xmlns="http://www.w3.org/2000/svg" viewBox="0 0 640 512"><!--! Font Awesome Free 6.1.2 by @fontawesome - https://fontawesome.com License - https://fontawesome.com/license/free (Icons: CC BY 4.0, Fonts: SIL OFL 1.1, Code: MIT License) Copyright 2022 Fonticons, Inc.--><path d="M112.1 79.03c10.2 9.37 10.2 24.57 0 33.07-8.5 10.2-23.7 10.2-33.07 0L7.029 40.97c-9.372-9.37-9.372-24.57 0-33.941 9.371-9.372 24.571-9.372 33.941 0L112.1 79.03zM599 7.029c9.4-9.372 24.6-9.372 33.1 0 10.2 9.371 10.2 24.571 0 33.941l-72 71.13c-8.5 10.2-23.7 10.2-33.1 0-9.3-8.5-9.3-23.7 0-33.07l72-72.001zM7.029 471l72.001-72c9.37-9.3 24.57-9.3 33.07 0 10.2 9.4 10.2 24.6 0 33.1l-71.13 72c-9.37 10.2-24.57 10.2-33.941 0-9.372-8.5-9.372-23.7 0-33.1zM527 432.1c-9.3-8.5-9.3-23.7 0-33.1 9.4-9.3 24.6-9.3 33.1 0l72 72c10.2 9.4 10.2 24.6 0 33.1-8.5 10.2-23.7 10.2-33.1 0l-72-72zM256 192c0-35.3 28.7-64 64-64s64 28.7 64 64-28.7 64-64 64-64-28.7-64-64zm9.5 97.5c.8-.2 1.6-.4 1.6-1.4 4.8.2 8.8-.1 12.9-.1h80c4.1 0 8.1.3 12 .1 24.6 5 44.9 21.6 54.3 43 .6 2.2 1.1 3.5 1.6 4.9 2.7 7.5 4.1 15.6 4.1 24 0 13.3-10.7 24-24 24H232c-13.3 0-24-10.7-24-24 0-8.4 1.4-16.5 4.1-24 8.3-23.5 28.5-41.4 53.4-46.5zM127.8 176c0-26.5 21.5-48 48-48s48 21.5 48 48-21.5 48-48 48-48-21.5-48-48zm90.9 80c9.1 0 17.8 2.3 25.3 6.4-32.4 11.9-57.2 39.5-65.2 73.6h-56.1c-14.8 0-26.7-11.9-26.7-26.7 0-29.4 23.9-53.3 53.3-53.3h69.4zm298.6 80h-56.1c-8-34.1-32.8-61.7-66.1-73.6 8.4-4.1 17.1-6.4 26.2-6.4h69.4c29.4 0 53.3 23.9 53.3 53.3 0 14.8-11.9 26.7-26.7 26.7zM416 176c0-26.5 21.5-48 48-48s48 21.5 48 48-21.5 48-48 48-48-21.5-48-48z"/></svg>