<svg xmlns="http://www.w3.org/2000/svg" viewBox="0 0 640 512"><!--! Font Awesome Free 6.1.1 by @fontawesome - https://fontawesome.com License - https://fontawesome.com/license/free (Icons: CC BY 4.0, Fonts: SIL OFL 1.1, Code: MIT License) Copyright 2022 Fonticons, Inc.--><path d="M223.8 176c0 26.5-21.5 48-48 48s-48-21.5-48-48 21.5-48 48-48 48 21.5 48 48zM96 309.3c0-29.4 23.9-53.3 53.3-53.3h69.4c9.1 0 17.8 2.3 25.3 6.4-32.4 11.9-57.2 39.5-65.2 73.6h-56.1c-14.8 0-26.7-11.9-26.7-26.7zm299.1-46.9c8.4-4.1 17.1-6.4 26.2-6.4h69.4c29.4 0 53.3 23.9 53.3 53.3 0 14.8-11.9 26.7-26.7 26.7h-56.1c-8-34.1-32.8-61.7-66.1-73.6zM372 288.1c26 5.3 47.3 23.6 55.9 47.9 2.7 7.5 4.1 15.6 4.1 24 0 13.3-10.7 24-24 24H232c-13.3 0-24-10.7-24-24 0-8.4 1.4-16.5 4.1-24 8.6-24.3 29-42.6 55-47.9 4.8.2 8.8-.1 12.9-.1h80c4.1 0 8.1.3 12 .1zM512 176c0 26.5-21.5 48-48 48s-48-21.5-48-48 21.5-48 48-48 48 21.5 48 48zm-256 16c0-35.3 28.7-64 64-64s64 28.7 64 64-28.7 64-64 64-64-28.7-64-64zM544 0c53 0 96 42.98 96 96v320c0 53-43 96-96 96H96c-53.02 0-96-43-96-96V96C0 42.98 42.98 0 96 0h448zM64 416c0 17.7 14.33 32 32 32h448c17.7 0 32-14.3 32-32V96c0-17.67-14.3-32-32-32H96c-17.67 0-32 14.33-32 32v320z"/></svg>