<svg xmlns="http://www.w3.org/2000/svg" viewBox="0 0 512 512"><!--! Font Awesome Free 6.1.2 by @fontawesome - https://fontawesome.com License - https://fontawesome.com/license/free (Icons: CC BY 4.0, Fonts: SIL OFL 1.1, Code: MIT License) Copyright 2022 Fonticons, Inc.--><path d="m45.63 79.75 6.37 1.5v58.5C45 143.9 40 151.3 40 160c0 8.375 4.625 15.38 11.12 19.75L35.5 242c-1.75 6.9 2.13 14 7.63 14h41.75c5.5 0 9.375-7.125 7.625-13.1L76.88 179.8C83.38 175.4 88 168.4 88 160c0-8.75-5-16.12-12-20.25V87.13l52 12.5.001 60.37c0 70.75 57.25 128 128 128s127.1-57.25 127.1-128L384 99.62l82.25-19.87c18.25-4.375 18.25-27 0-31.5l-190.4-46c-13-3-26.62-3-39.63 0l-190.6 46c-18.12 4.38-18.12 27.13.01 31.5zM359.2 312.8 256 416 152.8 312.8C82.87 335.1 32 400 32 477.3c0 19.2 15.53 34.7 34.67 34.7h378.7c19.13 0 34.63-15.5 34.63-34.7 0-77.3-50.9-142.2-120.8-164.5z"/></svg>