<svg xmlns="http://www.w3.org/2000/svg" viewBox="0 0 640 512"><!--! Font Awesome Free 6.1.1 by @fontawesome - https://fontawesome.com License - https://fontawesome.com/license/free (Icons: CC BY 4.0, Fonts: SIL OFL 1.1, Code: MIT License) Copyright 2022 Fonticons, Inc.--><path d="M512 160c44.18 0 80-35.82 80-80S556.2 0 512 0c-44.18 0-80 35.82-80 80s35.8 80 80 80zm-21.9 32c-12.8 0-24.88 3.037-35.86 8.24.56 5.26 1.56 10.36 1.56 15.76 0 33.71-12.78 64.21-33.16 88h199.7c9.76 0 17.66-8.4 17.66-18.7 0-51.5-39.4-93.3-88.1-93.3h-61.8zm-93.5 93.5c16.8-18.3 27.2-42.6 27.2-69.5 0-57.44-46.54-104-103.1-104-35.93 0-67.07 18.53-85.59 46.3l-42.01-32.2c9.3-13 14.9-28.86 14.9-46.1 0-44.18-35.8-80-80-80-24.2 0-45.48 10.97-60.04 27.95L38.81 5.109A23.96 23.96 0 0 0 24.03 0C16.91 0 9.846 3.156 5.127 9.188-3.061 19.62-1.248 34.72 9.189 42.89l591.1 463.1c10.5 8.203 25.56 6.328 33.69-4.078 8.188-10.44 6.375-25.53-4.062-33.7L396.6 285.5zM270.1 352C191.6 352 128 411.7 128 485.3c0 14.8 12.7 26.7 28.4 26.7h327.2c11.62 0 21.54-6.583 25.95-15.96L325.7 352h-55.6zm-84-108.8L121.6 192H88.08C39.44 192 0 233.8 0 285.3 0 295.6 7.887 304 17.62 304h199.5c-14.72-17.2-25.32-37.9-31.02-60.8z"/></svg>