<svg xmlns="http://www.w3.org/2000/svg" viewBox="0 0 448 512"><!--! Font Awesome Free 6.1.1 by @fontawesome - https://fontawesome.com License - https://fontawesome.com/license/free (Icons: CC BY 4.0, Fonts: SIL OFL 1.1, Code: MIT License) Copyright 2022 Fonticons, Inc.--><path d="M221.6 148.7c3.1 12.6 3.2 25.8.5 38.5-2.8 11.9-8.5 24.7-16.5 34.9-14.5 16.5-32.6 27-54.5 32V472c0 10.6-3.3 20.8-10.8 28.3-7.5 7.5-17.7 11.7-29.2 11.7-9.7 0-19.88-4.2-27.39-11.7-7.5-7.5-12.61-17.7-12.61-28.3V254.1c-20.14-4-39.14-15.2-52.8-31.7a84.89 84.89 0 0 1-16.545-34.9 85.607 85.607 0 0 1 .548-38.7L32.51 12.45c.85-3.852 3.1-7.253 6.31-9.55C42.02.602 45.97-.43 49.89.003c3.93.427 7.57 2.3 10.21 5.256A15.99 15.99 0 0 1 64.16 16v144h17.37L98.62 11.91c.4-3.275 1.98-6.289 4.48-8.476 2.4-2.186 5.6-3.394 8-3.394 4.2 0 7.4 1.208 9.8 3.394 2.5 2.187 3.2 5.201 4.5 8.476L142.5 160h16.6V16c0-3.93 2.3-7.732 4-10.683 3.5-2.951 7.1-4.843 11-5.314 3.9-.43 7 .616 11.1 2.933 3.2 2.317 5.4 5.741 6.3 9.614l30.1 136.15zM448 472c0 10.6-4.2 20.8-11.7 28.3-7.5 7.5-17.7 11.7-28.3 11.7-10.6 0-20.8-4.2-28.3-11.7-7.5-7.5-11.7-17.7-11.7-28.3V352h-16.8c-8.4 0-16.8-1.7-24.6-4.9-7.7-3.3-14.8-8-20.8-14-5.9-6-10.6-13.1-14.7-20.9-2.3-7.8-3.9-16.2-3.9-24.6l-.1-113.8c.9-36.9 12-73 32.7-103.52 20.7-30.57 50-54.23 84.3-67.941 4-1.938 10.1-2.66 15.3-2.1 5.2.56 10.2 2.381 14.5 5.307 4.3 2.926 7.9 6.864 10.3 11.484 2.5 4.61 2.9 9.75 3.8 14.97v440z"/></svg>