<svg xmlns="http://www.w3.org/2000/svg" viewBox="0 0 640 512"><!--! Font Awesome Free 6.1.1 by @fontawesome - https://fontawesome.com License - https://fontawesome.com/license/free (Icons: CC BY 4.0, Fonts: SIL OFL 1.1, Code: MIT License) Copyright 2022 Fonticons, Inc.--><path d="M32 399.1c0 26.51 21.49 47.1 47.1 47.1h287.1c19.57 0 36.34-11.75 43.81-28.56L32 121.8v277.3zm598.8 70-89.21-69.92 15.99 11.02c21.22 14.59 50.41-.297 50.41-25.8V127.5c0-25.41-29.07-40.37-50.39-25.76L448 177.3v148.5l-32-25.08v-188.7c0-26.51-21.49-47.1-47.1-47.1h-255L38.81 5.111A23.956 23.956 0 0 0 24.03 0C16.91 0 9.84 3.158 5.121 9.189-3.066 19.63-1.249 34.72 9.189 42.89l591.1 463.1c10.5 8.203 25.57 6.328 33.69-4.078C643.1 492.4 641.2 477.3 630.8 469.1z"/></svg>