<svg xmlns="http://www.w3.org/2000/svg" viewBox="0 0 640 512"><!--! Font Awesome Free 6.1.1 by @fontawesome - https://fontawesome.com License - https://fontawesome.com/license/free (Icons: CC BY 4.0, Fonts: SIL OFL 1.1, Code: MIT License) Copyright 2022 Fonticons, Inc.--><path d="m280.1 22.03 25.7-17.369c1.3-.946 2.6-1.753 4.1-2.415C313.1.731 316.6-.003 319.1 0c4.3-.003 7.8.73 11 2.246 1.5.663 2.8 1.47 4.1 2.415L359 22.03c33.1 23.77 71.8 41.49 111.8 52.39l23 6.29c1.8.46 3.6 1.12 5.2 1.97 3.2 1.65 5.1 3.98 8.1 6.75 3.7 4.95 5.6 11.27 4.7 17.77-.4 1.9-1.2 5.4-2.5 7.8-1.6 3.2-4 5.1-6.7 8.1-4.3 3.2-10.5 5-15.1 4.9H480v56.1l11.7 9.2c21.1 16.7 44.9 29.6 70.5 38.1l28.9 9.7c1.6.5 3.1 1.1 4.6 1.9 3.1 1.8 5.7 4.2 7.8 6.1 2 3.7 3.4 6.9 4.1 10.5.5 2.6.6 5.4.1 8.2-.5 2.8-1.4 5.5-3.6 7.9-.9 3.1-3.3 5.8-6.1 7.8s-6.9 3.4-9.6 4.1c-1.6.3-3.3.4-5 .4H544v65.9c20.5 22.8 47.4 39.1 77.4 46.7C632 403 640 412.6 640 424c0 13.3-10.7 24-24 24h-40v32c0 17.7-14.3 32-32 32s-32-14.3-32-32v-32H352v32c0 17.7-14.3 32-32 32s-32-14.3-32-32v-32H128v32c0 17.7-14.3 32-32 32-17.67 0-32-14.3-32-32v-32H24c-13.25 0-24-10.7-24-24 0-11.4 7.962-21 18.63-23.4C48.61 393 75.51 376.7 96 353.9V288H56.55c-1.68 0-3.35-.1-4.98-.4-3.54-.7-6.8-2.1-9.61-4.1-2.8-2-5.19-4.7-6.93-7.8-1.34-2.4-2.27-5.1-2.72-7.9-.46-2.8-.41-5.6.1-8.2.66-3.6 2.1-6.8 4.12-10.5 2.02-1.9 4.66-4.3 7.81-6.1 1.44-.8 2.98-1.4 4.6-1.9l28.87-9.7c25.59-8.5 49.39-21.4 70.49-38.1l11.7-9.2V128h-7.5c-5.5.1-10.8-1.7-15.1-4.9-2.7-3-5.1-4.9-6.7-8.1-1.3-2.4-2.1-5.9-2.5-7.8-.9-6.5 1-12.82 4.7-17.77 2.1-2.77 4.9-5.1 7.2-6.75 2.5-.85 4.3-1.51 6.1-1.97l23-6.29c40-10.9 77.8-28.62 110.9-52.39zM223.1 128v64H416v-64H223.1zm-64 224H480v-64H159.1v64z"/></svg>