<svg xmlns="http://www.w3.org/2000/svg" viewBox="0 0 640 512"><!--! Font Awesome Free 6.2.1 by @fontawesome - https://fontawesome.com License - https://fontawesome.com/license/free (Icons: CC BY 4.0, Fonts: SIL OFL 1.1, Code: MIT License) Copyright 2022 Fonticons, Inc.--><path d="M144 160c44.2 0 80 35.8 80 80s-35.8 80-80 80-80-35.8-80-80 35.8-80 80-80zm119.8 160c15.3-22.9 24.2-50.4 24.2-80 0-79.5-64.5-144-144-144S0 160.5 0 240s64.5 144 144 144h352c79.5 0 144-64.5 144-144S575.5 96 496 96s-144 64.5-144 144c0 29.6 8.9 57.1 24.2 80H263.8zm232.2 0c-44.2 0-80-35.8-80-80s35.8-80 80-80 80 35.8 80 80-35.8 80-80 80z"/></svg>