<svg xmlns="http://www.w3.org/2000/svg" viewBox="0 0 576 512"><!--! Font Awesome Free 6.1.1 by @fontawesome - https://fontawesome.com License - https://fontawesome.com/license/free (Icons: CC BY 4.0, Fonts: SIL OFL 1.1, Code: MIT License) Copyright 2022 Fonticons, Inc.--><path d="M301.2 34.85c-11.5-5.188-25.02-3.122-34.44 5.253L131.8 160H48c-26.51 0-48 21.49-48 47.1v95.1c0 26.51 21.49 47.1 48 47.1h83.84l134.9 119.9a32.023 32.023 0 0 0 21.26 8.094c4.438 0 8.972-.937 13.17-2.844 11.5-5.156 18.82-16.56 18.82-29.16V64c-.89-12.59-7.29-24-18.79-29.15zM513.9 255.1l47.03-47.03c9.375-9.375 9.375-24.56 0-33.94s-24.56-9.375-33.94 0L480 222.1 432.1 175c-9.375-9.375-24.56-9.375-33.94 0s-9.375 24.56 0 33.94l47.03 47.03L398.16 303c-9.375 9.375-9.375 24.56 0 33.94 9.373 9.373 24.56 9.381 33.94 0L480 289.9l47.03 47.03c9.373 9.373 24.56 9.381 33.94 0 9.375-9.375 9.375-24.56 0-33.94L513.9 255.1z"/></svg>