<svg xmlns="http://www.w3.org/2000/svg" viewBox="0 0 512 512"><!--! Font Awesome Free 6.1.2 by @fontawesome - https://fontawesome.com License - https://fontawesome.com/license/free (Icons: CC BY 4.0, Fonts: SIL OFL 1.1, Code: MIT License) Copyright 2022 Fonticons, Inc.--><path d="m3.682 149.1 49.638 21.6 20.7 49.6c1.016 2.043 3.698 3.696 5.977 3.696.008 0-.008 0 0 0 2.271-.016 4.934-1.661 5.946-3.696l20.72-49.63 49.62-20.71c2.023-1.008 3.68-3.681 3.691-5.947C159.1 141.7 158.3 139 156.3 138l-49.4-20.6-.4-.4-20.56-49.3c-1.01-2.04-3.67-3.68-5.94-3.7-.008 0 .008 0 0 0-2.279 0-4.966 1.649-5.981 3.692L53.32 117.3 3.682 138C1.652 139.1 0 141.7 0 144s1.652 4.9 3.682 5.1zM511.1 368c-.004-2.273-1.658-4.95-3.687-5.966l-49.57-20.67-20.77-49.67C436.9 289.7 434.3 288 432 288c-2.281 0-4.948 1.652-5.964 3.695l-20.7 49.63-49.64 20.71c-2.027 1.016-3.684 3.683-3.687 5.956.004 2.262 1.662 4.954 3.687 5.966l49.57 20.67 20.77 49.67C427.1 446.3 429.7 448 432 448c2.277 0 4.944-1.656 5.96-3.699l20.69-49.63 49.65-20.71c2-1.061 2.8-3.661 2.8-5.961zm-304-304 12.42 29.78C221 95.01 222.6 96 223.1 96s2.965-.992 3.575-2.219L239.1 64l29.78-12.42c1.219-.61 2.215-2.219 2.215-3.578 0-1.367-.996-2.969-2.215-3.578L239.1 32 227.6 2.219C226.1.992 225.4 0 223.1 0s-2.1.992-2.7 2.219L207.1 32l-28.9 12.42c-2.1.61-2.2 2.21-2.2 3.58 0 1.359.993 2.969 2.21 3.578L207.1 64zm192 127.1c8.875 0 15.1-7.127 15.1-16v-28l91.87-101.7c5.75-6.371 5.5-15.1-.5-22.12L487.8 4.774c-6.125-6.125-15.75-6.375-22.12-.625L186.6 255.1H144c-8.875 0-15.1 7.125-15.1 15.1v36.88l-117.5 106c-13.5 12.25-14.14 33.34-1.145 46.34l41.4 41.41c12.1 12.1 34.13 12.36 46.37-1.133l279.2-309.5H399.1z"/></svg>