<svg xmlns="http://www.w3.org/2000/svg" viewBox="0 0 640 512"><!--! Font Awesome Free 6.1.1 by @fontawesome - https://fontawesome.com License - https://fontawesome.com/license/free (Icons: CC BY 4.0, Fonts: SIL OFL 1.1, Code: MIT License) Copyright 2022 Fonticons, Inc.--><path d="M0 488V171.3c0-26.1 15.93-49.7 40.23-59.4L308.1 4.753a32.087 32.087 0 0 1 23.8 0L599.8 111.9c24.3 9.7 40.2 33.3 40.2 59.4V488c0 13.3-10.7 24-24 24h-48c-13.3 0-24-10.7-24-24V223.1c0-16.8-14.3-32-32-32H128c-17.7 0-32 15.2-32 32V488c0 13.3-10.75 24-24 24H24c-13.25 0-24-10.7-24-24zm152 24c-13.3 0-24-10.7-24-24v-56h384v56c0 13.3-10.7 24-24 24H152zm-24-176h384v64H128v-64zm0-112h384v80H128v-80z"/></svg>