<svg xmlns="http://www.w3.org/2000/svg" viewBox="0 0 512 512"><!--! Font Awesome Free 6.1.1 by @fontawesome - https://fontawesome.com License - https://fontawesome.com/license/free (Icons: CC BY 4.0, Fonts: SIL OFL 1.1, Code: MIT License) Copyright 2022 Fonticons, Inc.--><path d="M416.1 128.1c-8.5 10.2-23.7 10.2-33.1 0-9.3-8.5-9.3-23.7 0-33.07l88-88.001c9.4-9.372 24.6-9.372 33.1 0 10.2 9.371 10.2 24.571 0 33.941l-88 87.13zm-88.9 102-31.9 31c28.5 3.6 56.2 15.9 78.1 37.7l21.7 22.7-21.7 22.6c-37.5 37.5-98.3 37.5-135.8 0l-12.2-12.2-31.9 31.9c27.6 2.7 56.2 15 78 36.9l22.7 22.6-22.7 22.6c-37.5 37.5-98.2 37.5-135.7 0l-12.3-12.2-68.87 68.9c-12.5 12.5-32.76 12.5-45.258 0-12.496-12.5-12.496-32.7 0-45.2l68.918-68.9L67.88 378c-37.49-37.4-37.49-98.2 0-135.7l22.63-22.7 22.59 22.7c21 21 33.2 47.4 36.6 74.8l30.4-30.5-10.4-10.4c-37.5-37.5-37.5-98.3 0-135.7l22.6-22.7 21.8 22.7c21 20.9 34 47.4 37.4 74.8l30.4-30.5-10.4-10.4c-37.5-37.5-37.5-98.28 0-135.77L294.2 16l22.6 22.63c4.5 4.52 8.6 9.31 12.3 14.3L375 7.03c9.4-9.373 24.6-9.373 33.1 0 10.2 9.37 10.2 24.57 0 33.94L350.7 99.2c5.2 21.5 4.7 44-1.4 65.3 20.3-5.8 41.8-7.4 62.4-2.1L471 103c9.4-9.34 24.6-9.34 33.1 0 10.2 9.4 10.2 24.6 0 33.1l-45.3 47.1c5.7 4 11.2 8.7 16.4 13.8l22.6 22.6-22.6 22.7c-37.5 37.5-98.3 37.5-135.8 0l-12.2-12.2z"/></svg>