<svg xmlns="http://www.w3.org/2000/svg" viewBox="0 0 448 512"><!--! Font Awesome Free 6.1.2 by @fontawesome - https://fontawesome.com License - https://fontawesome.com/license/free (Icons: CC BY 4.0, Fonts: SIL OFL 1.1, Code: MIT License) Copyright 2022 Fonticons, Inc.--><path d="M416 48c0 26.51-21.5 48-48 48s-48-21.49-48-48 21.5-48 48-48 48 21.49 48 48zm-243.2 6.4c9.5-7.11 22.1-8.4 32.8-3.35l116.5 54.85c29.2 13.7 36.8 51.6 15.3 75.5L299.1 224H416c9.6 0 18.7 4.3 24.7 11.7 6.1 7.4 8.6 17.2 6.7 26.6l-32 160c-3.5 17.3-20.3 28.5-37.7 25.1-17.3-3.5-28.5-20.3-25.1-37.7L376.1 288h-69.4c8.6 19.6 13.3 41.2 13.3 64 0 88.4-71.6 160-160 160C71.63 512 0 440.4 0 352s71.63-160 160-160c11.1 0 21.1 1.1 32.4 3.3l54.2-54.2-50.8-23.9-48.6 36.4c-14.1 10.6-34.2 7.7-44.8-6.4-10.6-14.1-7.74-34.2 6.4-44.8l64-48zM160 448c53 0 96-43 96-96 0-53.9-43-96-96-96-53.9 0-96 42.1-96 96 0 53 42.1 96 96 96z"/></svg>