<svg xmlns="http://www.w3.org/2000/svg" viewBox="0 0 640 512"><!--! Font Awesome Free 6.1.2 by @fontawesome - https://fontawesome.com License - https://fontawesome.com/license/free (Icons: CC BY 4.0, Fonts: SIL OFL 1.1, Code: MIT License) Copyright 2022 Fonticons, Inc.--><path d="M319.1 351.1c-35.35 0-64 28.66-64 64.01s28.66 64.01 64 64.01 64-28.66 64-64.01-27.8-64.01-64-64.01zm.9-160c-70.25 0-137.9 25.6-190.5 72.03-13.2 12.57-14.5 32.77-2.8 46.07 11.8 13.2 32 14.5 45.2 2.8 40.9-36.1 93.5-56 148.1-56s107.3 19.88 148.1 56c6.1 5.4 13.7 8 21.2 8a31.99 31.99 0 0 0 24-10.81c11.7-13.29 10.5-33.49-2.8-45.19-52.6-46.4-120.2-72.9-190.5-72.9zm310.2-34.4C546.3 76.28 436.2 32 320 32S93.69 76.28 9.844 156.7c-12.75 12.25-13.16 32.5-.938 45.25 12.22 12.78 32.47 13.12 45.25.938C125.1 133.1 220.4 96 320 96s193.1 37.97 265.8 106.9c6.3 5.9 14.2 8.9 22.2 8.9 8.406 0 16.81-3.281 23.09-9.844C643.3 189.2 642.9 168.1 630.2 156.7z"/></svg>