<svg xmlns="http://www.w3.org/2000/svg" viewBox="0 0 512 512"><!--! Font Awesome Free 6.1.1 by @fontawesome - https://fontawesome.com License - https://fontawesome.com/license/free (Icons: CC BY 4.0, Fonts: SIL OFL 1.1, Code: MIT License) Copyright 2022 Fonticons, Inc.--><path d="M32 192h320c52.94 0 96-43.06 96-96S404.94 0 352 0h-32c-17.69 0-32 14.31-32 32s14.31 32 32 32h32c17.66 0 32 14.34 32 32s-14.34 32-32 32H32c-17.69 0-32 14.3-32 32s14.31 32 32 32zm128 128H32c-17.69 0-32 14.31-32 32s14.31 32 32 32h128c17.66 0 32 14.34 32 32s-14.34 32-32 32h-32c-17.69 0-32 14.31-32 32s14.31 32 32 32h32c52.94 0 96-43.06 96-96s-43.1-96-96-96zm256-96H32c-17.69 0-32 14.3-32 32s14.31 32 32 32h384c17.66 0 32 14.34 32 32s-14.34 32-32 32h-32c-17.69 0-32 14.31-32 32s14.31 32 32 32h32c52.94 0 96-43.06 96-96s-43.1-96-96-96z"/></svg>