<svg xmlns="http://www.w3.org/2000/svg" viewBox="0 0 320 512"><!--! Font Awesome Free 6.1.2 by @fontawesome - https://fontawesome.com License - https://fontawesome.com/license/free (Icons: CC BY 4.0, Fonts: SIL OFL 1.1, Code: MIT License) Copyright 2022 Fonticons, Inc.--><path d="M232 464h-40.01V346.7c68.52-15.88 118-79.86 111.4-154.1L287.5 14.5C286.8 6.25 279.9 0 271.8 0H48.23C40.1 0 33.22 6.25 32.47 14.5L16.6 192.6C9.975 266.85 59.48 330.8 128 346.8V464H87.98c-22.13 0-40.01 17.88-40.01 40 0 4.375 3.625 8 8.002 8h208c4.377 0 8.002-3.625 8.002-8C272 481.9 254.1 464 232 464zm-51.6-163.8a91.58 91.58 0 0 1-41.48-.037C91.88 289.2 60.09 245.2 64.38 197.1L77.7 48h164.6l13.3 149.2c4.279 48.01-27.5 91.93-74.46 102.8l-.74.2z"/></svg>