<svg xmlns="http://www.w3.org/2000/svg" viewBox="0 0 512 512"><!--! Font Awesome Free 6.1.1 by @fontawesome - https://fontawesome.com License - https://fontawesome.com/license/free (Icons: CC BY 4.0, Fonts: SIL OFL 1.1, Code: MIT License) Copyright 2022 Fonticons, Inc.--><path d="M507.6 122.8c-2.904-12.09-18.25-16.13-27.04-7.338l-76.55 76.56h-83.1v-83.1l76.55-76.56c8.791-8.79 4.75-24.14-7.336-27.04-23.69-5.693-49.34-6.111-75.92.248-61.45 14.7-109.4 66.9-119.2 129.3-5.204 25.93-2.704 51.83 5.096 75.23L22 388.2C-6.12 416.32-6.12 461.89 22 490c13.16 14.1 31.56 22 49.1 22s36.84-7.031 50.91-21.09l178.1-178.1c23.46 7.736 49.31 10.24 76.17 6.004 62.41-9.84 114.6-57.8 129.3-119.2 8.12-27.514 7.72-53.114 2.02-76.814zM80 456c-13.25 0-24-10.75-24-24 0-13.26 10.75-24 24-24s24 10.74 24 24c0 13.3-10.75 24-24 24z"/></svg>