<svg xmlns="http://www.w3.org/2000/svg" viewBox="0 0 512 512"><!--! Font Awesome Free 6.2.1 by @fontawesome - https://fontawesome.com License - https://fontawesome.com/license/free (Icons: CC BY 4.0, Fonts: SIL OFL 1.1, Code: MIT License) Copyright 2022 Fonticons, Inc.--><path d="M272 288h-64c-44.2 0-80 35.8-80 80 0 8.8 7.2 16 16 16h192c8.836 0 16-7.164 16-16 0-44.2-35.8-80-80-80zm-32-32c35.35 0 64-28.65 64-64s-28.65-64-64-64c-35.34 0-64 28.65-64 64s28.7 64 64 64zm256 64h-16v96h16c8.836 0 16-7.164 16-16v-64c0-8.8-7.2-16-16-16zm0-256h-16v96h16c8.8 0 16-7.2 16-16V80c0-8.84-7.2-16-16-16zm0 128h-16v96h16c8.8 0 16-7.2 16-16v-64c0-8.8-7.2-16-16-16zM384 0H96C60.65 0 32 28.65 32 64v384c0 35.35 28.65 64 64 64h288c35.35 0 64-28.65 64-64V64c0-35.35-28.7-64-64-64zm16 448c0 8.836-7.164 16-16 16H96c-8.836 0-16-7.164-16-16V64c0-8.838 7.164-16 16-16h288c8.836 0 16 7.162 16 16v384z"/></svg>