<svg xmlns="http://www.w3.org/2000/svg" viewBox="0 0 512 512"><!--! Font Awesome Free 6.1.2 by @fontawesome - https://fontawesome.com License - https://fontawesome.com/license/free (Icons: CC BY 4.0, Fonts: SIL OFL 1.1, Code: MIT License) Copyright 2022 Fonticons, Inc.--><path d="M256 112c30.88 0 56-25.12 56-56S286.9 0 256 0s-56.9 25.12-56.9 56 26 56 56.9 56zm255.1 85.4c0-5.178-2.509-10.2-7.096-13.26L476.4 168.2c-2.5-1.75-5.497-2.62-8.497-2.62-5.501.125-10.63 2.87-13.75 7.245-9.001 12-23.16 19.13-38.16 19.13-3.125 0-6.089-.253-9.089-.878-23.13-4.25-38.88-26.25-38.88-49.75C367.1 134 361.1 128 354.6 128h-38.75c-6.001 0-11.63 4-12.88 9.875C298.2 160.1 278.7 176 255.1 176c-22.75 0-42.25-15.88-47-38.12-.4-5.88-5.9-9.88-12-9.88h-38.75c-8.25 0-14.25 6-14.25 13.4 0 18.49-13.66 50.62-47.95 50.62-15.13 0-29.3-7.118-38.3-19.24-2.25-4.38-7.19-7.08-12.7-7.18-3 0-5.931.895-8.432 2.645l-28.63 16C2.509 187.2 0 192.3 0 197.4c0 2.438.558 4.901 1.72 7.185L109.9 432h53.13L69.85 236.4c8.5 2.4 17.26 3.6 26.13 3.6 2.432 0 56.83 1.503 84.76-52.5 17.36 23 45.86 36.5 75.16 36.5 29.38 0 57.01-13.38 75.26-36.25C336.1 197.6 360.6 240 416 240c8.751 0 17.5-1.125 26-3.5L349 432h53.13l108.1-227.4c1.17-2.3.87-4.8.87-7.2zM424 464H87.98c-13.26 0-24 10.75-24 23.1s10.74 24.9 24 24.9h336c13.26 0 24-10.75 24-23.1S437.3 464 424 464z"/></svg>