<svg xmlns="http://www.w3.org/2000/svg" viewBox="0 0 384 512"><!--! Font Awesome Free 6.1.1 by @fontawesome - https://fontawesome.com License - https://fontawesome.com/license/free (Icons: CC BY 4.0, Fonts: SIL OFL 1.1, Code: MIT License) Copyright 2022 Fonticons, Inc.--><path d="m44 320.6 14.5 6.5c-17.01 20.24-26.44 45.91-26.44 72.35l.06 32.55h48v-32c0-24.75 14-47.5 36.13-58.63L154.38 318c13.25-6.625 21.75-20.25 21.75-35.13v-58.75l-15.37 9c-5.16 2.68-8.86 7.28-10.26 12.78L143 271c-2.25 7.625-8 13.88-15.38 16.75L117.1 292c-3.1 1.3-6.4 1.9-9.7 1.9-3.626 0-7.263-.751-10.66-2.254L63.5 276.9c-9.38-4.3-15.5-13.7-15.5-24V140.5c0-5.125 2.125-10.12 5.75-13.88l7.375-7.375L49.5 96c-1-1.88-1.5-4-1.5-6.12 0-5.5 4.38-9.88 9.88-9.88h105c86.75 0 156.1 70.38 156.1 157.1V432h48.06l-.063-194.9C367.9 124 276 32 162.9 32H57.88C25.88 32 0 57.88 0 89.88c0 8.5 1.75 16.88 5.125 24.62C1.75 122.8 0 131.6 0 140.5v112.4c0 29.3 17.25 55.9 44 67.7zM80.12 164c0 11 8.875 20 20 20 11 0 20-9 20-20s-9-20-20-20c-11.12 0-20 9-20 20zM360 464H23.1C10.75 464 0 474.7 0 487.1S10.75 512 23.1 512H360c13.3 0 24-10.7 24-24s-10.7-24-24-24z"/></svg>