<svg xmlns="http://www.w3.org/2000/svg" viewBox="0 0 512 512"><!--! Font Awesome Free 6.1.1 by @fontawesome - https://fontawesome.com License - https://fontawesome.com/license/free (Icons: CC BY 4.0, Fonts: SIL OFL 1.1, Code: MIT License) Copyright 2022 Fonticons, Inc.--><path d="M280.2 150.2c-7.1-6.4-18.1-8-25.9-4.1s-15.2 12.4-15.2 21l.002 56L152 224c-13.2 0-24 10.8-24 24v16c0 13.3 10.8 24 24 24l88-.9v56c0 9.531 5.656 18.16 14.38 22a24.025 24.025 0 0 0 25.91-4.375l96-88.75C381.2 268.3 384 261.9 384 255.2c-.313-7.781-2.875-13.25-7.844-17.75L280.2 150.2zM256 0C114.6 0 0 114.6 0 256s114.6 256 256 256 256-114.6 256-256S397.4 0 256 0zm0 464c-114.7 0-208-93.31-208-208S141.3 48 256 48s208 93.31 208 208-93.3 208-208 208z"/></svg>