<svg xmlns="http://www.w3.org/2000/svg" viewBox="0 0 512 512"><!--! Font Awesome Free 6.3.0 by @fontawesome - https://fontawesome.com License - https://fontawesome.com/license/free (Icons: CC BY 4.0, Fonts: SIL OFL 1.1, Code: MIT License) Copyright 2023 Fonticons, Inc.--><path d="M160 256c0-53.9 42.1-96 96-96 53 0 96 42.1 96 96 0 53-43 96-96 96-53.9 0-96-43-96-96zm352 0c0 141.4-114.6 256-256 256S0 397.4 0 256 114.6 0 256 0s256 114.6 256 256zM256 48C141.1 48 48 141.1 48 256s93.1 208 208 208 208-93.1 208-208S370.9 48 256 48z"/></svg>