<svg xmlns="http://www.w3.org/2000/svg" viewBox="0 0 512 512"><!--! Font Awesome Free 6.2.1 by @fontawesome - https://fontawesome.com License - https://fontawesome.com/license/free (Icons: CC BY 4.0, Fonts: SIL OFL 1.1, Code: MIT License) Copyright 2022 Fonticons, Inc.--><path d="M116 157.1c0-8.9 9.6-14.7 17.5-10.4l89.9 47.9c10.7 5.7 10.7 21.1 0 26.8l-89.9 47.9c-7.9 4.3-17.5-1.5-17.5-10.4 0-2.8.1-5.5 2.8-7.7l36-43.2-36-43.2c-2.7-2.2-2.8-4.9-2.8-7.7zm262.5-10.4c7.9-4.3 17.5 1.5 17.5 10.4 0 2.8-1 5.5-2.8 7.7l-36 43.2 36 43.2c1.8 2.2 2.8 4.9 2.8 7.7 0 8.9-9.6 14.7-17.5 10.4l-89.9-47.9c-10.7-5.7-10.7-21.1 0-26.8l89.9-47.9zM512 256c0 141.4-114.6 256-256 256S0 397.4 0 256 114.6 0 256 0s256 114.6 256 256zM256 48C141.1 48 48 141.1 48 256c0 81.7 47.13 152.4 115.7 186.4-2.4-8.4-3.7-17.2-3.7-26.4v-23.3c-24.9-17.6-43.1-41.4-54.8-69.2-5-11.8 7-22.5 19.3-18.7 39.6 12.1 84.4 19 131.8 19 47.4 0 92.1-6.9 131.8-19 12.3-3.8 24.3 6.9 19.3 18.7-11.8 28-31.1 52-55.4 69.6V416c0 9.2-1.3 18-3.7 26.4 68.6-34 115.7-104.7 115.7-187.3 0-114-93.1-208-208-208v.9zm64 368v-37.4c0-14.7-11.9-26.6-26.6-26.6h-2c-11.3 0-21.1 7.9-23.6 18.9-3.7 12.6-20.8 12.6-23.6 0-2.5-11-12.3-18.9-23.6-18.9h-2c-14.7 0-26.6 11.9-26.6 26.6V416c0 35.3 28.7 64 64 64s64-28.7 64-64z"/></svg>