<svg xmlns="http://www.w3.org/2000/svg" viewBox="0 0 512 512"><!--! Font Awesome Free 6.1.1 by @fontawesome - https://fontawesome.com License - https://fontawesome.com/license/free (Icons: CC BY 4.0, Fonts: SIL OFL 1.1, Code: MIT License) Copyright 2022 Fonticons, Inc.--><path d="M192 352c0-35.3 28.7-64 64-64s64 28.7 64 64-28.7 64-64 64-64-28.7-64-64zm-89-217c9.4-9.3 24.6-9.3 33.1 0l23.9 23.1 23-23.1c9.4-9.3 24.6-9.3 33.1 0 10.2 9.4 10.2 24.6 0 33.1L193.9 192l22.2 23c10.2 9.4 10.2 24.6 0 33.1-8.5 10.2-23.7 10.2-33.1 0l-23-22.2-23.9 22.2c-8.5 10.2-23.7 10.2-33.1 0-9.34-8.5-9.34-23.7 0-33.1l23.1-23-23.1-23.9c-9.34-8.5-9.34-23.7 0-33.1zm192 0c9.4-9.3 24.6-9.3 33.1 0l23.9 23.1 23-23.1c9.4-9.3 24.6-9.3 33.1 0 10.2 9.4 10.2 24.6 0 33.1L385.9 192l22.2 23c10.2 9.4 10.2 24.6 0 33.1-8.5 10.2-23.7 10.2-33.1 0l-23-22.2-23.9 22.2c-8.5 10.2-23.7 10.2-33.1 0-9.3-8.5-9.3-23.7 0-33.1l23.1-23-23.1-23.9c-9.3-8.5-9.3-23.7 0-33.1zm217 121c0 141.4-114.6 256-256 256S0 397.4 0 256 114.6 0 256 0s256 114.6 256 256zM256 48C141.1 48 48 141.1 48 256s93.1 208 208 208 208-93.1 208-208S370.9 48 256 48z"/></svg>