<svg xmlns="http://www.w3.org/2000/svg" viewBox="0 0 512 512"><!--! Font Awesome Free 6.1.1 by @fontawesome - https://fontawesome.com License - https://fontawesome.com/license/free (Icons: CC BY 4.0, Fonts: SIL OFL 1.1, Code: MIT License) Copyright 2022 Fonticons, Inc.--><path d="M349.5 308.4c18.7-5.3 35.9 12 24.6 28.1-23.7 38.1-67.8 62.6-118.2 62.6-50.3 0-94.4-24.5-119-62.6-10.4-16.1 6.8-33.4 25.4-28.1 29 6.7 60.5 10.4 93.6 10.4 33.1 0 64.7-3.7 93.6-10.4zM238.9 177.1 221.4 243c-2.3 8.6-11 13.6-19.6 11.3l-65.1-17.4c-17.8-4.8-28.3-23.1-23.6-40.8 4.8-17.8 23.1-28.4 40-23.6l17 4.3 4.3-16.1c4.8-17.8 23.1-28.3 40.9-23.6 17.8 4.8 28.3 23.1 23.6 40zm103-.3 16.1-4.3c17.8-4.8 36.1 5.8 40.9 23.6 4.7 17.7-5.8 36-23.6 40.8l-65.1 17.4c-8.6 2.3-17.3-2.7-19.6-11.3l-17.5-65.9c-4.7-16.9 5.8-35.2 23.6-40 17.8-4.7 36.1 5.8 40.9 23.6l4.3 16.1zM512 256c0 141.4-114.6 256-256 256S0 397.4 0 256 114.6 0 256 0s256 114.6 256 256zM256 48C141.1 48 48 141.1 48 256s93.1 208 208 208 208-93.1 208-208S370.9 48 256 48z"/></svg>