<svg xmlns="http://www.w3.org/2000/svg" viewBox="0 0 512 512"><!--! Font Awesome Free 6.2.1 by @fontawesome - https://fontawesome.com License - https://fontawesome.com/license/free (Icons: CC BY 4.0, Fonts: SIL OFL 1.1, Code: MIT License) Copyright 2022 Fonticons, Inc.--><path d="M328.4 393.5c-9.7 9.1-24.9 8.6-33.9-1.1-7.4-7.9-20.1-16.4-38.5-16.4s-31.1 8.5-38.5 16.4c-9 9.7-24.2 10.2-33.9 1.1-9.7-9-10.2-24.2-1.1-33.9 14.2-15.3 38.9-31.6 73.5-31.6s59.3 16.3 73.5 31.6c9.1 9.7 8.6 24.9-1.1 33.9zM144.4 240c0-8.8 3.5-16.8 9.3-22.6l-30.8-10.2c-8.3-2.8-12.9-11.9-10.1-20.3 2.8-8.3 11.9-12.9 20.3-10.1l96 32c8.3 2.8 12 11.9 10.1 20.3-2.8 8.3-11.9 12-20.3 10.1l-10.8-3.6c.2 1.4.3 2.9.3 4.4 0 17.7-14.4 32-32 32-17.7 0-32-14.3-32-32zm224 0c0 17.7-14.4 32-32 32-17.7 0-32-14.3-32-32 0-1.6.1-3.2.3-4.7l-11.6 3.9c-8.4 1.9-17.5-1.8-20.3-10.1-2.8-8.4 1.8-17.5 10.1-20.3l96-32c8.4-2.8 17.5 1.8 20.3 10.1 1.9 8.4-1.8 17.5-10.1 20.3l-30.2 10c5.8 5.8 9.5 13.9 9.5 22.8zM0 256C0 114.6 114.6 0 256 0s256 114.6 256 256-114.6 256-256 256S0 397.4 0 256zm256 208c114.9 0 208-93.1 208-208S370.9 48 256 48 48 141.1 48 256s93.1 208 208 208z"/></svg>