<svg xmlns="http://www.w3.org/2000/svg" viewBox="0 0 512 512"><!--! Font Awesome Free 6.2.0 by @fontawesome - https://fontawesome.com License - https://fontawesome.com/license/free (Icons: CC BY 4.0, Fonts: SIL OFL 1.1, Code: MIT License) Copyright 2022 Fonticons, Inc.--><path d="M344 288c30.9 0 56 25.1 56 56s-25.1 56-56 56H168c-30.9 0-56-25.1-56-56s25.1-56 56-56h176zm-176 32c-13.3 0-24 10.7-24 24s10.7 24 24 24h8v-48h-8zm40 48h32v-48h-32v48zm96-48h-32v48h32v-48zm32 48h8c13.3 0 24-10.7 24-24s-10.7-24-24-24h-8v48zM208.4 208c0 17.7-14.4 32-32 32-17.7 0-32-14.3-32-32s14.3-32 32-32c17.6 0 32 14.3 32 32zm96 0c0-17.7 14.3-32 32-32 17.6 0 32 14.3 32 32s-14.4 32-32 32c-17.7 0-32-14.3-32-32zM0 256C0 114.6 114.6 0 256 0s256 114.6 256 256-114.6 256-256 256S0 397.4 0 256zM256 48C141.1 48 48 141.1 48 256s93.1 208 208 208 208-93.1 208-208S370.9 48 256 48z"/></svg>