<svg xmlns="http://www.w3.org/2000/svg" viewBox="0 0 512 512"><!--! Font Awesome Free 6.1.2 by @fontawesome - https://fontawesome.com License - https://fontawesome.com/license/free (Icons: CC BY 4.0, Fonts: SIL OFL 1.1, Code: MIT License) Copyright 2022 Fonticons, Inc.--><path d="M345.3 472.1c2 7.6 5.6 14.3 10.4 19.7-30.6 13-64.3 20.2-99.7 20.2C114.6 512 0 397.4 0 256S114.6 0 256 0s256 114.6 256 256c0 29.3-4.9 57.4-14 83.7-11.1-5.6-23.5-6.6-36.2-5.1-2.1-5.2-4.8-10-7.9-14.5 6.6-20.2 10.1-41.7 10.1-64.1 0-114.9-93.1-208-208-208S48 141.1 48 256s93.1 208 208 208c29.4 0 57.5-6.1 82.9-17.2l6.4 25.3zm-56.6-137.8c-4.3 5.2-10.2 9.7-16.8 13.4-2.7 1.6-5.6 3-8.7 4.3 3.1 1.3 6 2.7 8.7 4.3 6.6 2.8 12.5 8.2 16.8 13.4 4.2 5.1 7.3 11.4 7.3 18.3s-3.1 13.2-7.3 18.3c-4.3 5.2-10.2 9.7-16.8 13.4-13.2 7.4-30.5 12.3-47.9 12.3-3.6 0-6.8-2.5-7.7-6-1-3.5.6-7.2 3.8-9l.2-.1c.2-.1.5-.3.9-.6.8-.4 2-1.2 3.4-2.1 2.8-1.8 6.6-4.5 10.2-7.6 3.8-3.1 7.2-6.6 9.7-10 1.6-3.6 3.5-6.4 3.5-8.6 0-2.2-1.9-5.9-3.5-8.6-2.5-4.3-5.9-6.9-9.7-10-3.6-3.1-7.4-5.8-10.2-7.6-1.4-.9-2.6-1.7-3.4-2.1-.4-.3-.7-.5-.9-.6l-.2-1c-2.5-.5-4.1-3.2-4.1-6.1 0-2.9 1.6-5.6 4.1-7l.2-.1c.2-.1.5-.3.9-.6.8-.4 2-1.2 3.4-2.1 2.8-1.8 6.6-4.5 10.2-7.6 3.8-3.1 7.2-6.5 9.7-10 1.6-3.6 3.5-6.4 3.5-8.6 0-2.2-1.9-5.9-3.5-8.6-2.5-4.3-5.9-6.9-9.7-10-3.6-3.1-7.4-5.8-10.2-7.6-1.4-.9-2.6-1.7-3.4-2.1-.4-.3-.7-.5-.9-.6l-.2-1c-3.2-.9-4.8-4.6-3.8-9 .9-2.6 4.1-5.1 7.7-5.1 17.4 0 34.7 4.9 47.9 12.3 6.6 2.8 12.5 8.2 16.8 13.4 4.2 5.1 7.3 11.4 7.3 18.3s-3.1 13.2-7.3 18.3zM144.4 208c0-17.7 14.3-32 32-32 17.6 0 32 14.3 32 32s-14.4 32-32 32c-17.7 0-32-14.3-32-32zm191.2 12c-11.5 0-19.9 3.8-25.4 9.7-7.5 8-20.2 8.4-28.3.9-8-7.6-8.4-20.2-.9-28.3 14.6-15.5 35.3-22.3 54.6-22.3 18.5 0 40.1 6.8 54.6 22.3 7.6 8.1 7.2 20.7-.9 28.3-8.1 7.5-20.7 7.1-28.3-.9-5.4-5.9-14.7-9.7-25.4-9.7zm103.8 153.3 20.1-5.7c22.2-6.2 45.1 7.6 51.1 30.8 5.9 23.3-7.3 47.2-29.5 53.4l-85 23.8c-8.6 2.4-17.5-2.7-19.8-11.4l-22.9-89.3c-5.9-23.3 7.3-47.2 29.5-53.4 22.3-6.2 45.1 7.6 50.2 30.8l6.3 21z"/></svg>