<svg xmlns="http://www.w3.org/2000/svg" viewBox="0 0 512 512"><!--! Font Awesome Free 6.1.2 by @fontawesome - https://fontawesome.com License - https://fontawesome.com/license/free (Icons: CC BY 4.0, Fonts: SIL OFL 1.1, Code: MIT License) Copyright 2022 Fonticons, Inc.--><path d="M176.5 320.3c19.6-18.2 47.3-32.3 79.5-32.3s59.9 14.1 79.5 32.3c19 17.8 32.5 41.7 32.5 63.7 0 5.4-2.7 10.4-7.2 13.4-4.6 2.9-10.3 3.4-15.2 1.3l-17.2-7.6c-22.8-9.9-47.5-15.1-72.4-15.1-24.9 0-49.6 5.2-72.4 15.1l-17.2 7.6c-4.9 2.1-10.6 1.6-15.2-1.3-4.5-3-7.2-8-7.2-13.4 0-22 13.5-45.9 32.5-63.7zm46.9-125.7c10.7 5.7 10.7 21.1 0 26.8l-89.9 47.9c-7.9 4.3-17.5-1.5-17.5-10.4 0-2.8.1-5.5 2.8-7.7l36-43.2-36-43.2c-2.7-2.2-2.8-4.9-2.8-7.7 0-8.9 9.6-14.7 17.5-10.4l89.9 47.9zm169.8-29.8-36 43.2 36 43.2c1.8 2.2 2.8 4.9 2.8 7.7 0 8.9-9.6 14.7-17.5 10.4l-89.9-47.9c-10.7-5.7-10.7-21.1 0-26.8l89.9-47.9c7.9-4.3 17.5 1.5 17.5 10.4 0 2.8-1 5.5-2.8 7.7zM512 256c0 141.4-114.6 256-256 256S0 397.4 0 256 114.6 0 256 0s256 114.6 256 256zM256 48C141.1 48 48 141.1 48 256s93.1 208 208 208 208-93.1 208-208S370.9 48 256 48z"/></svg>