<svg xmlns="http://www.w3.org/2000/svg" viewBox="0 0 512 512"><!--! Font Awesome Free 6.2.0 by @fontawesome - https://fontawesome.com License - https://fontawesome.com/license/free (Icons: CC BY 4.0, Fonts: SIL OFL 1.1, Code: MIT License) Copyright 2022 Fonticons, Inc.--><path d="M349.5 308.4c18.7-5.3 35.9 12 24.6 28.1-23.7 38.1-67.8 62.6-118.2 62.6-50.3 0-94.4-24.5-119-62.6-10.4-16.1 6.8-33.4 25.4-28.1 29 6.7 60.5 10.4 93.6 10.4 33.1 0 64.7-3.7 93.6-10.4zM223.4 194.6c10.7 5.7 10.7 21.1 0 26.8l-89.9 47.9c-7.9 4.3-17.5-1.5-17.5-10.4 0-2.8.1-5.5 2.8-7.7l36-43.2-36-43.2c-2.7-2.2-2.8-4.9-2.8-7.7 0-8.9 9.6-14.7 17.5-10.4l89.9 47.9zm169.8-29.8-36 43.2 36 43.2c1.8 2.2 2.8 4.9 2.8 7.7 0 8.9-9.6 14.7-17.5 10.4l-89.9-47.9c-10.7-5.7-10.7-21.1 0-26.8l89.9-47.9c7.9-4.3 17.5 1.5 17.5 10.4 0 2.8-1 5.5-2.8 7.7zM512 256c0 141.4-114.6 256-256 256S0 397.4 0 256 114.6 0 256 0s256 114.6 256 256zM256 48C141.1 48 48 141.1 48 256s93.1 208 208 208 208-93.1 208-208S370.9 48 256 48z"/></svg>