<svg xmlns="http://www.w3.org/2000/svg" viewBox="0 0 384 512"><!--! Font Awesome Free 6.1.2 by @fontawesome - https://fontawesome.com License - https://fontawesome.com/license/free (Icons: CC BY 4.0, Fonts: SIL OFL 1.1, Code: MIT License) Copyright 2022 Fonticons, Inc.--><path d="m365.3 93.38-74.63-74.64C278.6 6.742 262.3 0 245.4 0H64C28.65 0 0 28.65 0 64l.006 384c0 35.34 28.65 64 64 64H320c35.2 0 64-28.8 64-64V138.6c0-16.9-6.7-33.2-18.7-45.22zM336 448c0 8.836-7.164 16-16 16H64.02c-8.838 0-16-7.164-16-16L48 64.13c0-8.836 7.164-16 16-16h160V128c0 17.67 14.33 32 32 32h79.1v288zM229.1 233.3 192 280.9l-37.1-47.6c-8.1-10.5-23.1-12.4-33.6-4.2-10.5 8.1-12.4 23.2-4.2 33.7l44.5 57.2-44.53 57.25c-8.156 10.47-6.25 25.56 4.188 33.69C125.7 414.3 130.8 416 135.1 416c7.156 0 14.25-3.188 18.97-9.25L192 359.1l37.06 47.65A24.089 24.089 0 0 0 248 416c5.125 0 10.31-1.656 14.72-5.062 10.44-8.125 12.34-23.22 4.188-33.69L222.4 320l44.53-57.25c8.156-10.47 6.25-25.56-4.188-33.69-10.542-8.16-25.542-6.26-33.642 4.24z"/></svg>