<svg xmlns="http://www.w3.org/2000/svg" viewBox="0 0 384 512"><!--! Font Awesome Free 6.2.1 by @fontawesome - https://fontawesome.com License - https://fontawesome.com/license/free (Icons: CC BY 4.0, Fonts: SIL OFL 1.1, Code: MIT License) Copyright 2022 Fonticons, Inc.--><path d="m365.3 93.38-74.63-74.64C278.6 6.742 262.3 0 245.4 0H64C28.65 0 0 28.65 0 64l.006 384c0 35.34 28.65 64 64 64H320c35.2 0 64-28.8 64-64V138.6c0-16.9-6.7-33.2-18.7-45.22zM336 448c0 8.836-7.164 16-16 16H64.02c-8.838 0-16-7.164-16-16L48 64.13c0-8.836 7.164-16 16-16h160V128c0 17.67 14.33 32 32 32h79.1v288zM171.5 259.5 136 296H92c-6.62 0-12 5.4-12 12v56c0 6.7 5.38 12 12 12h44l35.5 36.5c7.6 7.5 20.5 2.3 20.5-8.5V268c0-10.7-12.9-16.1-20.5-8.5zm63.6 1.2c-6.25 6.25-6.25 16.38 0 22.62.2.18 20.9 21.78 20.9 52.68 0 30.94-20.77 52.53-20.91 52.69-6.25 6.25-6.25 16.38 0 22.62 3.11 3.09 7.21 4.69 11.31 4.69s8.188-1.562 11.31-4.688C258.1 410.1 288 380.5 288 336s-29.05-74.06-30.28-75.31c-6.22-6.29-16.42-6.29-22.62.01z"/></svg>