<svg xmlns="http://www.w3.org/2000/svg" viewBox="0 0 576 512"><!--! Font Awesome Free 6.1.2 by @fontawesome - https://fontawesome.com License - https://fontawesome.com/license/free (Icons: CC BY 4.0, Fonts: SIL OFL 1.1, Code: MIT License) Copyright 2022 Fonticons, Inc.--><path d="m572.6 270.3-96 192c-5.4 10.9-16.5 17.7-29.5 17.7H64c-35.35 0-64-28.66-64-64V96c0-35.34 28.65-64 64-64h117.5c16.97 0 33.25 6.742 45.26 18.75L275.9 96H416c35.35 0 64 28.66 64 64v32h-48v-32c0-8.824-7.178-16-16-16H256l-63.2-59.31c-3-3.03-7-4.69-11.3-4.69H64c-8.82 0-16 7.18-16 16v288l71.16-142.3A31.976 31.976 0 0 1 147.8 224H544c23.7 0 39.2 25 28.6 46.3z"/></svg>