<svg xmlns="http://www.w3.org/2000/svg" viewBox="0 0 448 512"><!--! Font Awesome Free 6.2.0 by @fontawesome - https://fontawesome.com License - https://fontawesome.com/license/free (Icons: CC BY 4.0, Fonts: SIL OFL 1.1, Code: MIT License) Copyright 2022 Fonticons, Inc.--><path d="M448 48v336c-63.09 22.54-82.34 32-119.5 32-62.82 0-86.6-32-149.3-32-21.69 0-38.48 3.791-53.74 8.766C110.1 397.5 96 386.1 96 371.7v-.746c0-9.275 5.734-17.6 14.42-20.86C129.1 342.8 150.2 336 179.2 336c62.73 0 86.51 32 149.3 32 25.5 0 42.85-4.604 71.47-14.7v-240C379.2 120.6 357.7 128 328.5 128c-.004 0 .004 0 0 0-62.81 0-86.61-32-149.3-32-57.1 0-80.4 26.1-131.2 30.1V456c0 13.3-10.75 24-24 24S0 469.3 0 456V56c0-13.26 10.75-24 24-24s24 10.74 24 24v22.99C98.8 74.14 122.1 48 179.2 48c62.77 0 86.45 32 149.3 32 37.6 0 58.3-10.15 119.5-32z"/></svg>