<svg xmlns="http://www.w3.org/2000/svg" viewBox="0 0 512 512"><!--! Font Awesome Free 6.3.0 by @fontawesome - https://fontawesome.com License - https://fontawesome.com/license/free (Icons: CC BY 4.0, Fonts: SIL OFL 1.1, Code: MIT License) Copyright 2023 Fonticons, Inc.--><path d="m177.1 228.6 30.8 91.4h96.5l29.62-91.38L256 172.1l-78.9 56.5zM255.1 0C114.6 0 0 114.6 0 256s114.6 256 256 256 255.1-114.6 255.1-255.1S397.4 0 255.1 0zm180.1 361.1-103.9-1.578-30.67 99.52C286.2 462.2 271.3 464 256 464s-30.19-1.773-44.56-4.93L180.8 359.6l-103.97 1.5c-14.93-25.35-24.79-54.01-27.8-84.72l85.27-59.98-33.6-98.3c19.85-22.34 44.32-40.45 72.04-52.62L256 128l83.29-62.47c27.72 12.17 52.19 30.27 72.04 52.62L377.7 216.4l85.23 59.97c-3.83 30.73-12.83 59.43-27.73 84.73z"/></svg>