<svg xmlns="http://www.w3.org/2000/svg" viewBox="0 0 512 512"><!--! Font Awesome Free 6.2.1 by @fontawesome - https://fontawesome.com License - https://fontawesome.com/license/free (Icons: CC BY 4.0, Fonts: SIL OFL 1.1, Code: MIT License) Copyright 2022 Fonticons, Inc.--><path d="M270.1 480h97.92C447.4 480 512 417.1 512 339.7V231.8c0-23.45-6.106-46.73-17.66-67.33l-31.35-55.85C447.5 81.1 417.1 64 385.9 64h-46.97c-26.63 0-51.56 11.63-68.4 31.93l-15.46 18.71-127.77-46.2c-8.3-2.98-16.8-4.39-25.2-4.39-30.02 0-58.37 18.06-69.41 47.09C15.06 156.8 46.19 194 76.75 204.9l2.146.764-10.106.736C30.21 209 0 241.2 0 279.3c0 39.7 33.27 72.09 73.92 72.09 1.745 0 3.501-.06 5.268-.183l88.79-6.135v8.14c0 22.11 10.55 43.11 28.05 56.74C197.4 448.8 230.2 480 270.1 480zm-1-48c-14.34 0-26-11.03-26-24.62 0 0 .04-14.31.04-14.71 0-6.894-4.102-14.2-10.67-16.39-10.39-3.5-17.38-12.78-17.38-23.06v-13.53c0-16.98 13.7-16.4 13.7-29.89 0-9.083-7.392-15.96-15.96-15.96-.364 0-.73.013-1.099.038 0 0-138.1 9.505-138.7 9.505-14.32 0-25.93-11.04-25.93-24.49 0-13.28 10.7-23.74 24.1-24.64l163.2-11.28c2.674-.188 14.92-2.907 14.92-16.18 0-6.675-4.284-12.58-10.65-14.85L92.84 159.7c-7.45-3.6-16.87-10.3-16.87-23 0-11.14 9.249-24.66 25.97-24.66 3.043 0 6.141.511 9.166 1.59l234.1 85.03a15.87 15.87 0 0 0 5.456.97c8.96 0 16-7.376 16-15.1 0-6.514-4.068-12.69-10.59-15.04l-64.81-23.47 15.34-18.56C315.2 117.3 326.6 112 338.9 112h46.97c14.77 0 28.28 7.719 35.27 20.16L452.5 188c7.531 13.41 11.52 28.56 11.52 43.81v107.9c0 50.91-43.06 92.31-96 92.31H269.1z"/></svg>