<svg xmlns="http://www.w3.org/2000/svg" viewBox="0 0 448 512"><!--! Font Awesome Free 6.3.0 by @fontawesome - https://fontawesome.com License - https://fontawesome.com/license/free (Icons: CC BY 4.0, Fonts: SIL OFL 1.1, Code: MIT License) Copyright 2023 Fonticons, Inc.--><path d="M218.8 1.4c-35.2-3.7-66.6 21.8-70.3 57L142 119l-17.3-49.4C113 36.3 76.4 18.8 43.1 30.5S-7.8 78.8 3.9 112.1l52.8 150.1A79.77 79.77 0 0 0 32 320v24c0 92.8 75.2 168 168 168h48c92.8 0 168-75.2 168-168V224c0-35.3-28.7-64-64-64-7.9 0-15.4 1.4-22.4 4-10.4-21.3-32.3-36-57.6-36h-2.2l5.9-56.3c3.7-35.2-21.8-66.6-57-70.3zm-.2 155.4C211.9 166.9 208 179 208 192v50c-5.1-1.3-10.5-2-16-2h-7.4l-5.4-15.3 17-161.3c.9-8.8 8.8-15.2 17.6-14.2S229 58 228 66.8l-9.5 90.1zM79.4 85.6 133.7 240H112c-4 0-8 .3-11.9.9L49.2 96.2c-2.9-8.3 1.5-17.5 9.8-20.4s17.5 1.5 20.4 9.8zM256 192c0-8.8 7.2-16 16-16s16 7.2 16 16v48c0 8.8-7.2 16-16 16s-16-7.2-16-16v-48zm38.4 108c10.4 21.3 32.3 36 57.6 36 5.5 0 10.9-.7 16-2v10c0 66.3-53.7 120-120 120h-48c-66.3 0-120-53.7-120-120v-24c0-17.7 14.3-32 32-32h80c8.8 0 16 7.2 16 16s-7.2 16-16 16h-40c-13.3 0-24 10.7-24 24s10.7 24 24 24h40c35.3 0 64-28.7 64-64v-2c5.1 1.3 10.5 2 16 2 7.9 0 15.4-1.4 22.4-4zm73.6-28c0 8.8-7.2 16-16 16s-16-7.2-16-16v-48c0-8.8 7.2-16 16-16s16 7.2 16 16v48z"/></svg>