<svg xmlns="http://www.w3.org/2000/svg" viewBox="0 0 448 512"><!--! Font Awesome Free 6.3.0 by @fontawesome - https://fontawesome.com License - https://fontawesome.com/license/free (Icons: CC BY 4.0, Fonts: SIL OFL 1.1, Code: MIT License) Copyright 2023 Fonticons, Inc.--><path d="M160 64c0-8.8 7.2-16 16-16s16 7.2 16 16v136c0 10.3 6.6 19.5 16.4 22.8s20.6-.1 26.8-8.3c3-3.9 7.6-6.4 12.8-6.4 8.8 0 16 7.2 16 16v8c0 10.3 6.6 19.5 16.4 22.8s20.6-.1 26.8-8.3c3-3.9 7.6-6.4 12.8-6.4 8.8 0 16 7.2 16 16 0 9.1 5.1 17.4 13.3 21.5s17.9 3.2 25.1-2.3c2.7-2 6-3.2 9.6-3.2 8.8 0 16 7.2 16 16v104c0 39.8-32.2 72-72 72H211.4c-37.4 0-72.4-18.7-93.2-49.9L50.7 312.9c-4.9-7.4-2.9-17.3 4.4-22.2s17.3-2.9 22.2 4.4l38.7 58.1c5.9 8.8 16.8 12.7 26.9 9.7s17-12.4 17-23V64zm16-64c-35.3 0-64 28.7-64 64v197.7c-20.8-23.7-56.5-28.9-83.5-11-29.4 19.7-37.4 59.4-17.7 88.8l67.5 101.3C108 485.3 157.9 512 211.4 512H328c66.3 0 120-53.7 120-120V288c0-35.3-28.7-64-64-64-2.8 0-5.6.2-8.3.5-11-19.4-31.8-32.5-55.7-32.5-5.4 0-10.5.7-15.5 1.9-10.8-20.2-32-33.9-56.5-33.9-2.7 0-5.4.2-8 .5V64c0-35.3-28.7-64-64-64zm48 304c0-8.8-7.2-16-16-16s-16 7.2-16 16v96c0 8.8 7.2 16 16 16s16-7.2 16-16v-96zm48-16c-8.8 0-16 7.2-16 16v96c0 8.8 7.2 16 16 16s16-7.2 16-16v-96c0-8.8-7.2-16-16-16zm80 16c0-8.8-7.2-16-16-16s-16 7.2-16 16v96c0 8.8 7.2 16 16 16s16-7.2 16-16v-96z"/></svg>