<svg xmlns="http://www.w3.org/2000/svg" viewBox="0 0 512 512"><!--! Font Awesome Free 6.1.2 by @fontawesome - https://fontawesome.com License - https://fontawesome.com/license/free (Icons: CC BY 4.0, Fonts: SIL OFL 1.1, Code: MIT License) Copyright 2022 Fonticons, Inc.--><path d="M412 160c-8.326 0-16.3 1.51-23.68 4.27C375.1 151.8 358.9 144 340 144c-11.64 0-22.44 3.223-32.03 8.418l11.12-68.95c.623-3.874.924-7.725.924-11.53 0-36.08-28.91-71.95-72.09-71.95-34.68 0-65.31 25.16-71.03 60.54L173.4 82.22l-4.5-9.45c-12.4-25.75-38.07-40.78-64.89-40.78-40.8 0-72.01 33.28-72.01 72.07 0 10.48 2.296 21.11 7.144 31.18L89.05 238.9C64.64 250.4 48 275.7 48 303.1v80c0 22.06 10.4 43.32 27.83 56.86l45.95 35.74c29.35 22.83 65.98 35.41 103.2 35.41l78.81.035C400.9 512 480 432.1 480 335.8V228.3c0-38.7-32.1-68.3-68-68.3zm-92 52.3c0-11.2 8.1-20.3 20-20.3 11.02 0 20 9.078 20 20.25v55.5c0 11.15-9 20.25-20 20.25-11.9 0-20-9.1-20-20.2v-55.5zM247.9 47.98c12.05 0 24.13 9.511 24.13 23.98 0 1.277-.102 2.57-.313 3.871L248.4 220.5c-7.7-2.9-16-5.4-24.5-5.4 0 0 .002 0 0 0-4.475 0-8.967.42-13.38 1.254l-10.55 1.627 24.32-150.7C226.2 56.42 236.4 47.98 247.9 47.98zM79.1 104c0-13.27 10.79-24.04 24.02-24.04 8.937 0 17.5 5.023 21.61 13.61l61.29 127.3-48.72 7.63-54.92-114.1c-1.62-3.3-3.28-6.9-3.28-10.4zm224.7 360-78.81-.035c-26.56 0-52.72-8.984-73.69-25.3l-45.97-35.75C99.47 398.4 96 391.3 96 383.1v-80c0-11.23 7.969-21.11 17.59-23.22l105.3-16.23c1.71.55 3.41-.55 5.01-.55 11.91 0 24.09 9.521 24.09 24.06 0 11.04-7.513 20.95-17.17 23.09L172.8 319c-12.03 1.633-20.78 11.92-20.78 23.75 0 20.21 18.82 24.08 23.7 24.08 2.645 0 64.61-8.619 65.54-8.826 23.55-5.227 41.51-22.23 49.73-43.64C303.3 327.5 320.6 336 340 336a67.5 67.5 0 0 0 23.69-4.27C376 344.2 393.1 352 412 352c.2 0 10.08-.445 18.65-2.92C423.9 413.5 369.9 464 303.8 464zM432 283.8c0 11.1-9 20.2-20 20.2-11.02 0-20-9.078-20-20.25v-55.5c0-11.15 8.1-20.25 20-20.25 11.02 0 20 9.078 20 20.25v55.55z"/></svg>