<svg xmlns="http://www.w3.org/2000/svg" viewBox="0 0 512 512"><!--! Font Awesome Free 6.1.1 by @fontawesome - https://fontawesome.com License - https://fontawesome.com/license/free (Icons: CC BY 4.0, Fonts: SIL OFL 1.1, Code: MIT License) Copyright 2022 Fonticons, Inc.--><path d="M304 344c-13.25 0-24 10.74-24 24 0 13.25 10.75 24 24 24 13.26 0 24-10.75 24-24 0-13.3-10.7-24-24-24zM448 32H64C28.65 32 0 60.65 0 96v320c0 35.35 28.65 64 64 64h384c35.35 0 64-28.65 64-64V96c0-35.35-28.7-64-64-64zm16 384c0 8.822-7.178 16-16 16H64c-8.822 0-16-7.178-16-16v-96c0-8.822 7.178-16 16-16h384c8.8 0 16 7.2 16 16v96zm0-157.7c-5.1-1.4-10.4-2.3-16-2.3H64c-5.56 0-10.86.9-16 2.3V96c0-8.822 7.178-16 16-16h384c8.822 0 16 7.178 16 16v162.3zM400 344c-13.25 0-24 10.74-24 24 0 13.25 10.75 24 24 24 13.26 0 24-10.75 24-24 0-13.3-10.7-24-24-24z"/></svg>