<svg xmlns="http://www.w3.org/2000/svg" viewBox="0 0 640 512"><!--! Font Awesome Free 6.2.1 by @fontawesome - https://fontawesome.com License - https://fontawesome.com/license/free (Icons: CC BY 4.0, Fonts: SIL OFL 1.1, Code: MIT License) Copyright 2022 Fonticons, Inc.--><path d="M296 96c0-8.84 7.2-16 16-16h16c8.8 0 16 7.16 16 16v24h24c8.8 0 16 7.2 16 16v16c0 8.8-7.2 16-16 16h-24v24c0 8.8-7.2 16-16 16h-16c-8.8 0-16-7.2-16-16v-24h-24c-8.8 0-16-7.2-16-16v-16c0-8.8 7.2-16 16-16h24V96zM408 0c39.8 0 72 32.24 72 72v8h88c39.8 0 72 32.2 72 72v288c0 39.8-32.2 72-72 72H71.98C32.19 512 0 479.8 0 440V152c0-39.8 32.24-72 72-72h88v-8c0-39.76 32.2-72 72-72h176zm72 128v336h88c13.3 0 24-10.7 24-24V336h-56c-13.3 0-24-10.7-24-24s10.7-24 24-24h56v-48h-56c-13.3 0-24-10.7-24-24s10.7-24 24-24h56v-40c0-13.3-10.7-24-24-24h-88zM48 152v40h56c13.3 0 24 10.7 24 24s-10.7 24-24 24H48v48h56c13.3 0 24 10.7 24 24s-10.7 24-24 24H48v104c0 13.3 10.74 24 23.98 24H160V128H72c-13.25 0-24 10.7-24 24zm160 312h64v-64c0-26.5 21.5-48 48-48s48 21.5 48 48v64h64V72c0-13.25-10.7-24-24-24H232c-13.3 0-24 10.75-24 24v392z"/></svg>