<svg xmlns="http://www.w3.org/2000/svg" viewBox="0 0 384 512"><!--! Font Awesome Free 6.2.1 by @fontawesome - https://fontawesome.com License - https://fontawesome.com/license/free (Icons: CC BY 4.0, Fonts: SIL OFL 1.1, Code: MIT License) Copyright 2022 Fonticons, Inc.--><path d="M360 0c13.3 0 24 10.75 24 24s-10.7 24-24 24h-8v18.98c0 40.32-16.9 78.12-44.5 107.52L225.9 256l81.6 81.5C335.1 366 352 404.7 352 445v19h8c13.3 0 24 10.7 24 24s-10.7 24-24 24H24c-13.25 0-24-10.7-24-24s10.75-24 24-24h8v-19c0-40.3 16.01-79 44.52-107.5L158.1 256l-81.58-81.5C48.01 145.1 32 107.3 32 66.98V48h-8C10.75 48 0 37.25 0 24S10.75 0 24 0h336zM192 289.9l-81.5 81.6C90.96 390.1 80 417.4 80 445v19h224v-19c0-27.6-11-54.9-30.5-73.5L192 289.9zm0-67.8 81.5-81.6C293 121 304 94.56 304 66.98V47.1H80v19.88c0 27.58 10.96 54.02 30.5 73.52l81.5 81.6z"/></svg>