<svg xmlns="http://www.w3.org/2000/svg" viewBox="0 0 576 512"><!--! Font Awesome Free 6.1.1 by @fontawesome - https://fontawesome.com License - https://fontawesome.com/license/free (Icons: CC BY 4.0, Fonts: SIL OFL 1.1, Code: MIT License) Copyright 2022 Fonticons, Inc.--><path d="M368 344h96c13.25 0 24-10.75 24-24s-10.75-24-24-24h-96c-13.25 0-24 10.75-24 24s10.8 24 24 24zm-160-24c35.35 0 64-28.65 64-64s-28.65-64-64-64-64 28.65-64 64c0 35.3 28.7 64 64 64zM512 32H64C28.65 32 0 60.65 0 96v320c0 35.35 28.65 64 64 64h448c35.35 0 64-28.65 64-64V96c0-35.35-28.7-64-64-64zm16 384c0 8.822-7.178 16-16 16H320c0-44.18-35.82-80-80-80h-64c-44.2 0-80 35.8-80 80H64c-8.822 0-16-7.178-16-16V160h480v256zM368 264h96c13.25 0 24-10.75 24-24s-10.75-24-24-24h-96c-13.25 0-24 10.75-24 24s10.8 24 24 24z"/></svg>