<svg xmlns="http://www.w3.org/2000/svg" viewBox="0 0 576 512"><!--! Font Awesome Free 6.1.2 by @fontawesome - https://fontawesome.com License - https://fontawesome.com/license/free (Icons: CC BY 4.0, Fonts: SIL OFL 1.1, Code: MIT License) Copyright 2022 Fonticons, Inc.--><path d="M400 256c0 61.9-50.1 112-112 112s-112-50.1-112-112 50.1-112 112-112 112 50.1 112 112zm-128-32v64h-8c-8.8 0-16 7.2-16 16s7.2 16 16 16h48c8.8 0 16-7.2 16-16s-7.2-16-16-16h-8v-80c0-8.8-7.2-16-16-16h-16c-8.8 0-16 7.2-16 16s7.2 16 16 16zM0 128c0-35.35 28.65-64 64-64h448c35.3 0 64 28.65 64 64v256c0 35.3-28.7 64-64 64H64c-35.35 0-64-28.7-64-64V128zm48 48v160c35.35 0 64 28.7 64 64h352c0-35.3 28.7-64 64-64V176c-35.3 0-64-28.7-64-64H112c0 35.3-28.65 64-64 64z"/></svg>