<svg xmlns="http://www.w3.org/2000/svg" viewBox="0 0 640 512"><!--! Font Awesome Free 6.1.2 by @fontawesome - https://fontawesome.com License - https://fontawesome.com/license/free (Icons: CC BY 4.0, Fonts: SIL OFL 1.1, Code: MIT License) Copyright 2022 Fonticons, Inc.--><path d="M64 0c26.86 0 49.9 16.55 59.3 40h201.4c9.4-23.45 32.4-40 59.3-40 35.3 0 64 28.65 64 64 0 26.86-16.5 49.9-40 59.3v105.4c23.5 9.4 40 32.4 40 59.3 0 35.3-28.7 64-64 64-26.9 0-49.9-16.5-59.3-40H123.3c-9.4 23.5-32.44 40-59.3 40-35.35 0-64-28.7-64-64 0-26.9 16.55-49.9 40-59.3V123.3C16.55 113.9 0 90.86 0 64 0 28.65 28.65 0 64 0zm0 80c8.84 0 16-7.16 16-16 0-7.9-5.72-14.46-13.25-15.76-.89-.16-1.81-.24-2.75-.24-8.84 0-16 7.16-16 16v.21c.01.86.09 1.71.24 2.54C49.54 74.28 56.1 80 64 80zm320-32c-.9 0-1.9.08-2.8.24C373.7 49.54 368 56.1 368 64c0 8.84 7.2 16 16 16 7.9 0 14.5-5.72 15.8-13.25.1-.89.2-1.81.2-2.75 0-8.84-7.2-16-16-16zm-59.3 40H123.3c-6.4 16-19.3 28.9-35.3 35.3v105.4c16 6.4 28.9 18.4 35.3 35.3h201.4c6.4-16.9 18.4-28.9 35.3-35.3V123.3c-16.9-6.4-28.9-19.3-35.3-35.3zM400 288c0-.9-.1-1.9-.2-2.8-1.3-7.5-7.9-13.2-15.8-13.2-8.8 0-16 7.2-16 16 0 7.9 5.7 14.5 13.2 15.8.9.1 1.9.2 2.8.2 8.8 0 16-7.2 16-16zM64 272c-7.9 0-14.46 5.7-15.76 13.2-.16.9-.24 1.9-.24 2.8 0 8.8 7.16 16 16 16l.22-.9c.86 0 1.71.8 2.53.7C74.28 302.5 80 295.9 80 288c0-8.8-7.16-16-16-16zm407.3-24c-5.5-12.1-13.5-22.8-23.3-31.6V200h68.7c9.4-23.5 32.4-40 59.3-40 35.3 0 64 28.7 64 64 0 26.9-16.5 49.9-40 59.3v105.4c23.5 9.4 40 32.4 40 59.3 0 35.3-28.7 64-64 64-26.9 0-49.9-16.5-59.3-40H315.3c-9.4 23.5-32.4 40-59.3 40-35.3 0-64-28.7-64-64 0-26.9 16.5-49.9 40-59.3V352h48v36.7c16 6.4 28.9 18.4 35.3 35.3h201.4c6.4-16.9 18.4-28.9 35.3-35.3V283.3c-16.9-6.4-28.9-19.3-35.3-35.3h-45.4zM592 224c0-8.8-7.2-16-16-16-.9 0-1.9.1-2.8.2-7.5 1.3-13.2 7.9-13.2 15.8 0 8.8 7.2 16 16 16 7.9 0 14.5-5.7 15.8-13.2.1-.9.2-1.9.2-2.8zM240 448c0 8.8 7.2 16 16 16 .9 0 1.9-.1 2.8-.2 7.5-1.3 13.2-7.9 13.2-15.8 0-8.8-7.2-16-16-16-7.9 0-14.5 5.7-15.8 13.2-.1.9-.2 1.9-.2 2.8zm333.2 15.8c.9.1 1.9.2 2.8.2 8.8 0 16-7.2 16-16 0-.9-.1-1.8-.2-2.7v-.1c-1.3-7.5-7.9-13.2-15.8-13.2-8.8 0-16 7.2-16 16 0 7.9 5.7 14.5 13.2 15.8z"/></svg>