<svg xmlns="http://www.w3.org/2000/svg" viewBox="0 0 576 512"><!--! Font Awesome Free 6.2.0 by @fontawesome - https://fontawesome.com License - https://fontawesome.com/license/free (Icons: CC BY 4.0, Fonts: SIL OFL 1.1, Code: MIT License) Copyright 2022 Fonticons, Inc.--><path d="M568.5 142.6 424.5 7.5c-9.625-9.156-24.81-8.656-33.91.969-9.125 9.625-8.688 24.81.969 33.91l100.1 94.56h-163.4C287.5 134.2 249.7 151 221 179.4c-29 28.8-45 67.3-45 108.6v87.1c0 13.25 10.75 23.1 24 23.1s24-8.9 24-22.2v-88c0-28.37 10.94-54.84 30.78-74.5C274.3 194.2 298.9 183 328 184h163.6l-100.1 94.56c-9.656 9.094-10.09 24.28-.969 33.91 4.72 4.1 11.06 7.531 17.44 7.531 5.906 0 11.84-2.156 16.47-6.562l144-135.1C573.3 172.9 576 166.6 576 160s-2.7-12.9-7.5-17.4zM360 384c-13.25 0-24 10.75-24 23.1v47.1c0 4.406-3.594 7.1-8 7.1H56c-4.406 0-8-3.594-8-7.1V184c0-4.406 3.594-7.1 8-7.1h56c13.25 0 24-10.75 24-23.1s-10.75-23.1-24-23.1H56c-30.88 0-56 25.12-56 55.1v271.1c0 30 25.13 55.1 56 55.1h272c30.88 0 56-25.12 56-55.1v-47.1c0-15-10.7-25.8-24-25.8z"/></svg>