<svg xmlns="http://www.w3.org/2000/svg" viewBox="0 0 512 512"><!--! Font Awesome Free 6.2.0 by @fontawesome - https://fontawesome.com License - https://fontawesome.com/license/free (Icons: CC BY 4.0, Fonts: SIL OFL 1.1, Code: MIT License) Copyright 2022 Fonticons, Inc.--><path d="M484.4 294.4c1.715 6.402.676 12.89-2.395 18.21s-8.172 9.463-14.57 11.18l-31.46 8.43 32.96 19.03C480.4 357.8 484.4 372.5 477.8 384s-21.38 15.41-32.86 8.783l-32.96-19.03 8.43 31.46c3.432 12.81-4.162 25.96-16.97 29.39s-25.96-4.162-29.39-16.97l-20.85-77.82L280 297.6v84.49l56.97 56.97c9.375 9.375 9.375 24.56 0 33.94-4.67 4.7-10.87 7-16.97 7a24 24 0 0 1-16.97-7.031L280 449.9V488c0 13.25-10.75 24-24 24s-24-10.75-24-24v-38.06l-23.03 23.03c-9.375 9.375-24.56 9.375-33.94 0s-9.375-24.56 0-33.94L232 382.1v-84.5l-73.17 42.25-20.85 77.82c-3.432 12.81-16.58 20.4-29.39 16.97s-20.4-16.58-16.97-29.39l8.43-31.46-32.96 19.03c-11.48 6.58-26.24 2.68-32.87-8.82s-2.615-26.16 8.859-32.79l32.96-19.03-31.46-8.43c-12.81-3.432-20.4-16.58-16.97-29.39s16.58-20.4 29.39-16.97l77.82 20.85L208 255.1l-73.2-41.3-77.79 20.8c-12.81 3.4-25.96-4.2-29.39-17s4.162-25.96 16.97-29.39l31.46-8.432L43.08 160.8c-11.47-6.6-15.48-21.3-8.86-32.8s21.38-15.41 32.86-8.785l32.96 19.03-8.42-31.445c-3.44-12.82 4.16-25.97 16.98-29.41s25.96 4.162 29.39 16.97l20.85 77.82L232 214.4v-84.5l-57-56.93c-9.375-9.375-9.375-24.56 0-33.94s24.56-9.375 33.94 0L232 62.06V24c0-13.25 10.8-24 24-24s24 10.75 24 24v38.06l23.03-23.03c9.375-9.375 24.56-9.375 33.94 0s9.375 24.56 0 33.94L280 129.9v84.49l73.17-42.25 20.85-77.82c3.432-12.81 16.58-20.4 29.39-16.97 6.402 1.715 11.5 5.861 14.57 11.18s4.109 11.81 2.395 18.21l-8.43 31.46 32.96-19.03C456.4 112.6 471.2 116.5 477.8 128s2.615 26.16-8.859 32.78l-32.96 19.03 31.46 8.432c12.81 3.432 20.4 16.58 16.97 29.39s-16.58 20.4-29.39 16.97l-77.82-20.85L304 255.1l73.17 42.25 77.82-20.85c12.81-3.4 25.11 5.1 29.41 17.9z"/></svg>