<svg xmlns="http://www.w3.org/2000/svg" viewBox="0 0 512 512"><!--! Font Awesome Free 6.1.1 by @fontawesome - https://fontawesome.com License - https://fontawesome.com/license/free (Icons: CC BY 4.0, Fonts: SIL OFL 1.1, Code: MIT License) Copyright 2022 Fonticons, Inc.--><path d="m505.2 324.8-47.73-68.78 47.75-68.81c7.359-10.62 8.797-24.12 3.844-36.06-4.969-11.94-15.52-20.44-28.22-22.72l-82.39-14.88-14.89-82.41c-2.281-12.72-10.76-23.25-22.69-28.22-11.97-4.936-25.42-3.498-36.12 3.844L256 54.49 187.2 6.709c-10.7-7.31-24.1-8.748-36.1-3.813-11.92 4.971-20.4 15.5-22.7 28.19l-14.89 82.44L31.15 128.4c-12.73 2.3-23.296 10.8-28.25 22.8-4.951 11.9-3.5 25.4 3.875 36l47.73 68.78-47.75 68.81c-7.359 10.62-8.795 24.12-3.844 36.06 4.969 11.94 15.52 20.44 28.22 22.72l82.39 14.88 14.89 82.41c2.297 12.72 10.78 23.25 22.7 28.22 11.95 4.906 25.44 3.531 36.09-3.844L256 457.5l68.83 47.78c6.47 4.42 13.97 6.72 21.47 6.72 4.906 0 9.859-.969 14.56-2.906 11.92-4.969 20.4-15.5 22.7-28.19l14.89-82.44 82.37-14.88c12.73-2.281 23.3-10.78 28.25-22.75 5.03-11.934 3.53-25.434-3.87-36.034zm-48.4 14.4-99.61 18-18 99.63L256 399.1l-83.2 57.7-18-99.63-99.61-18 57.71-84.07-57.67-82.3 99.61-18 18-99.63L256 112.9l83.15-57.75 18.02 99.66 99.61 18-57.68 82.29 57.7 84.1zM256 143.1c-61.85 0-111.1 50.14-111.1 111.1 0 61.85 50.15 111.1 111.1 111.1s111.1-50.14 111.1-111.1c0-60.1-49.3-111.1-111.1-111.1zm0 176c-35.28 0-63.99-28.71-63.99-63.99S220.7 192 256 192s63.99 28.71 63.99 63.1-28.69 64-63.99 64z"/></svg>