<svg xmlns="http://www.w3.org/2000/svg" viewBox="0 0 512 512"><!--! Font Awesome Free 6.2.0 by @fontawesome - https://fontawesome.com License - https://fontawesome.com/license/free (Icons: CC BY 4.0, Fonts: SIL OFL 1.1, Code: MIT License) Copyright 2022 Fonticons, Inc.--><path d="M7.724 65.49A64.308 64.308 0 0 1 32 40.56a63.55 63.55 0 0 1 25.46-8.23c2.15-.22 4.33-.33 6.54-.33h384c35.3 0 64 28.65 64 64v320c0 35.3-28.7 64-64 64H64c-35.35 0-64-28.7-64-64V96c0-2.21.112-4.39.33-6.54a63.634 63.634 0 0 1 7.394-23.97zM48 416c0 8.8 7.16 16 16 16h384c8.8 0 16-7.2 16-16V224H48v192z"/></svg>