<svg xmlns="http://www.w3.org/2000/svg" viewBox="0 0 448 512"><path d="M305.314 284.578H246.6V383.3h58.711q24.423 0 38.193-13.77t13.77-36.11q0-21.826-14.032-35.335t-37.928-13.507zM149.435 128.7H90.724v98.723h58.711q24.42 0 38.19-13.773t13.77-36.107q0-21.826-14.029-35.338T149.435 128.7zM366.647 32H81.353A81.445 81.445 0 000 113.352v285.295A81.445 81.445 0 0081.353 480h285.294A81.445 81.445 0 00448 398.647V113.352A81.445 81.445 0 00366.647 32zm63.635 366.647a63.706 63.706 0 01-63.635 63.635H81.353a63.706 63.706 0 01-63.635-63.635V113.352a63.706 63.706 0 0163.635-63.634h285.294a63.706 63.706 0 0163.635 63.634zM305.314 128.7H246.6v98.723h58.711q24.423 0 38.193-13.773t13.77-36.107q0-21.826-14.032-35.338T305.314 128.7z"/></svg>