<svg xmlns="http://www.w3.org/2000/svg" viewBox="0 0 24 24"><path d="M1 21.25V4a1.75 1.75 0 0 1 1.75-1.75h7.51a.75.75 0 0 1 0 1.5H2.75A.25.25 0 0 0 2.5 4v17.25a.25.25 0 0 0 .25.25H20a.25.25 0 0 0 .25-.25V13a.75.75 0 0 1 1.5 0v8.25c0 .464-.184.909-.513 1.237A1.75 1.75 0 0 1 20 23H2.75A1.75 1.75 0 0 1 1 21.25"/><path d="M19.013 1.427a1.75 1.75 0 0 1 2.474 0l1.086 1.086a1.75 1.75 0 0 1 0 2.474l-8.61 8.61c-.21.21-.47.364-.756.445l-3.25.929a.751.751 0 0 1-.928-.927l.929-3.25c.082-.287.235-.547.445-.758zm-7.55 9.67a.24.24 0 0 0-.063.108l-.558 1.953 1.953-.558a.25.25 0 0 0 .108-.064L19.19 6.25l-1.44-1.44Zm8.964-8.61a.25.25 0 0 0-.177-.073.25.25 0 0 0-.177.073L18.811 3.75l1.439 1.44 1.263-1.263a.25.25 0 0 0 .073-.177.25.25 0 0 0-.073-.177Z"/></svg>