<svg xmlns="http://www.w3.org/2000/svg" viewBox="0 0 24 24"><path d="M13.152.682a2.25 2.25 0 0 1 2.269 0l.007.004 6.957 4.276a2.28 2.28 0 0 1 1.126 1.964v7.516c0 .81-.432 1.56-1.133 1.968l-.002.001-11.964 7.037-.004.003c-.706.41-1.578.41-2.284 0l-.026-.015-6.503-4.502a2.27 2.27 0 0 1-1.096-1.943V9.438c0-.392.1-.77.284-1.1l.003-.006.014-.026c.197-.342.48-.627.82-.827h.002L13.152.681Zm.757 1.295h-.001L2.648 8.616l6.248 4.247a.78.78 0 0 0 .758-.01h.001l11.633-6.804-6.629-4.074a.75.75 0 0 0-.75.003ZM8.517 14.33a2.3 2.3 0 0 1-.393-.18l-.023-.014-6.102-4.147v7.003c0 .275.145.528.379.664l.025.014 6.114 4.232zM18 9.709l-3.25 1.9v7.548L18 17.245Zm-7.59 4.438-.002.002a2.3 2.3 0 0 1-.391.18v7.612l3.233-1.902v-7.552Zm9.09-5.316v7.532l2.124-1.25a.78.78 0 0 0 .387-.671V7.363Z"/></svg>