<svg xmlns="http://www.w3.org/2000/svg" viewBox="0 0 24 24"><path d="M14.982 1a2.01 2.01 0 0 1 1.415.586l4.017 4.018A2 2 0 0 1 21 7.018V11h-1.5V8.5h-4a2 2 0 0 1-2-2v-4H5a.5.5 0 0 0-.354.146A.5.5 0 0 0 4.5 3v18c0 .133.053.26.146.354A.5.5 0 0 0 5 21.5h5V23H5a2 2 0 0 1-2-2V3a2 2 0 0 1 2-2zM15 6.5c0 .133.053.26.146.354A.5.5 0 0 0 15.5 7h4a.5.5 0 0 0-.146-.336l-4.018-4.018A.5.5 0 0 0 15 2.5z"/><path d="M11.25 21.5a.75.75 0 0 1 0 1.5H9a.75.75 0 0 1 0-1.5zm9.47-6.28a.749.749 0 1 1 1.06 1.06l-5.323 5.324a1 1 0 0 1-.707.292 1 1 0 0 1-.707-.292L12.72 19.28a.749.749 0 1 1 1.06-1.06l1.97 1.969zm-1.22-2.97V10a.75.75 0 0 1 1.5 0v2.25a.75.75 0 0 1-1.5 0"/></svg>