<svg xmlns="http://www.w3.org/2000/svg" viewBox="0 0 24 24"><path d="M2.75 15.25a.75.75 0 0 1 .75.75v4.25c0 .138.112.25.25.25H8A.75.75 0 0 1 8 22H3.75A1.75 1.75 0 0 1 2 20.25V16a.75.75 0 0 1 .75-.75m18.5 0A.75.75 0 0 1 22 16v4.25A1.75 1.75 0 0 1 20.25 22H16a.75.75 0 0 1 0-1.5h4.25a.25.25 0 0 0 .25-.25V16a.75.75 0 0 1 .75-.75M8 2a.75.75 0 0 1 0 1.5H3.75a.25.25 0 0 0-.25.25V8A.75.75 0 0 1 2 8V3.75C2 2.784 2.784 2 3.75 2zm12.25 0c.966 0 1.75.784 1.75 1.75V8a.75.75 0 0 1-1.5 0V3.75a.25.25 0 0 0-.25-.25H16A.75.75 0 0 1 16 2zM12 15a3 3 0 1 0 0-6 3 3 0 0 0 0 6"/></svg>