<svg xmlns="http://www.w3.org/2000/svg" viewBox="0 0 24 24"><path d="M16 12a4 4 0 1 1-8 0 4 4 0 0 1 8 0m-1.5 0a2.5 2.5 0 1 0-5 0 2.5 2.5 0 0 0 5 0"/><path d="M12 1q.4 0 .797.028c.763.055 1.345.617 1.512 1.304l.352 1.45c.019.078.09.171.225.221q.37.134.728.302c.13.061.246.044.315.002l1.275-.776c.603-.368 1.411-.353 1.99.147q.604.524 1.128 1.129c.501.578.515 1.386.147 1.99l-.776 1.274c-.042.069-.058.185.002.315q.168.357.303.728c.048.135.142.205.22.225l1.45.352c.687.167 1.249.749 1.303 1.512q.057.797 0 1.594c-.054.763-.616 1.345-1.303 1.512l-1.45.352c-.078.019-.171.09-.221.225q-.134.372-.302.728c-.061.13-.044.246-.002.315l.776 1.275c.368.603.353 1.411-.147 1.99q-.524.605-1.129 1.128c-.578.501-1.386.515-1.99.147l-1.274-.776c-.069-.042-.185-.058-.314.002a9 9 0 0 1-.729.303c-.135.048-.205.142-.225.22l-.352 1.45c-.167.687-.749 1.249-1.512 1.303q-.797.057-1.594 0c-.763-.054-1.345-.616-1.512-1.303l-.352-1.45c-.019-.078-.09-.171-.225-.221a8 8 0 0 1-.728-.302c-.13-.061-.246-.044-.315-.002l-1.275.776c-.603.368-1.411.353-1.99-.147q-.605-.524-1.128-1.129c-.501-.578-.515-1.386-.147-1.99l.776-1.274c.042-.069.058-.185-.002-.314a9 9 0 0 1-.303-.729c-.048-.135-.142-.205-.22-.225l-1.45-.352c-.687-.167-1.249-.749-1.304-1.512a11 11 0 0 1 0-1.594c.055-.763.617-1.345 1.304-1.512l1.45-.352c.078-.019.171-.09.221-.225q.134-.372.302-.728c.061-.13.044-.246.002-.315l-.776-1.275c-.368-.603-.353-1.411.147-1.99q.524-.605 1.129-1.128c.578-.501 1.386-.515 1.99-.147l1.274.776c.069.042.185.058.315-.002q.357-.168.728-.303c.135-.048.205-.142.225-.22l.352-1.45c.167-.687.749-1.249 1.512-1.304Q11.598 1 12 1m-.69 1.525c-.055.004-.135.05-.161.161l-.353 1.45a1.83 1.83 0 0 1-1.172 1.277 7 7 0 0 0-.6.249 1.83 1.83 0 0 1-1.734-.074l-1.274-.776c-.098-.06-.186-.036-.228 0a10 10 0 0 0-.976.976c-.036.042-.06.131 0 .228l.776 1.274c.314.529.342 1.18.074 1.734a7 7 0 0 0-.249.6 1.83 1.83 0 0 1-1.278 1.173l-1.45.351c-.11.027-.156.107-.16.162a10 10 0 0 0 0 1.38c.004.055.05.135.161.161l1.45.353a1.83 1.83 0 0 1 1.277 1.172q.111.306.249.6c.268.553.24 1.204-.074 1.733l-.776 1.275c-.06.098-.036.186 0 .228q.453.523.976.976c.042.036.131.06.228 0l1.274-.776a1.83 1.83 0 0 1 1.734-.075q.294.14.6.25a1.83 1.83 0 0 1 1.173 1.278l.351 1.45c.027.11.107.156.162.16a10 10 0 0 0 1.38 0c.055-.004.135-.05.161-.161l.353-1.45a1.83 1.83 0 0 1 1.172-1.278 7 7 0 0 0 .6-.248 1.83 1.83 0 0 1 1.733.074l1.275.776c.098.06.186.036.228 0q.523-.453.976-.976c.036-.042.06-.131 0-.228l-.776-1.275a1.83 1.83 0 0 1-.075-1.733q.14-.294.25-.6a1.83 1.83 0 0 1 1.278-1.173l1.45-.351c.11-.027.156-.107.16-.162a10 10 0 0 0 0-1.38c-.004-.055-.05-.135-.161-.161l-1.45-.353c-.626-.152-1.08-.625-1.278-1.172a7 7 0 0 0-.248-.6 1.83 1.83 0 0 1 .074-1.734l.776-1.274c.06-.098.036-.186 0-.228a10 10 0 0 0-.976-.976c-.042-.036-.131-.06-.228 0l-1.275.776a1.83 1.83 0 0 1-1.733.074 7 7 0 0 0-.6-.249 1.84 1.84 0 0 1-1.173-1.278l-.351-1.45c-.027-.11-.107-.156-.162-.16a10 10 0 0 0-1.38 0"/></svg>