<svg xmlns="http://www.w3.org/2000/svg" viewBox="0 0 24 24"><path d="M4.75 1.5a3.25 3.25 0 0 1 .745 6.414A1 1 0 0 1 5.5 8v8a1 1 0 0 1-.005.086A3.25 3.25 0 0 1 4.75 22.5a3.25 3.25 0 0 1-.745-6.414A1 1 0 0 1 4 16V8q0-.043.005-.086A3.25 3.25 0 0 1 4.75 1.5M16 19.25a3.25 3.25 0 1 1 6.5 0 3.25 3.25 0 0 1-6.5 0M3 4.75a1.75 1.75 0 1 0 3.501-.001A1.75 1.75 0 0 0 3 4.75m0 14.5a1.75 1.75 0 1 0 3.501-.001A1.75 1.75 0 0 0 3 19.25m16.25-1.75a1.75 1.75 0 1 0 .001 3.501 1.75 1.75 0 0 0-.001-3.501m0-11.5a1.75 1.75 0 1 0 0-3.5 1.75 1.75 0 0 0 0 3.5M21 11.25a1.75 1.75 0 1 1-3.5 0 1.75 1.75 0 0 1 3.5 0"/></svg>