<svg xmlns="http://www.w3.org/2000/svg" viewBox="0 0 24 24"><path d="M22.875 22.125H1.125q-.311 0-.53-.22-.22-.219-.22-.53t.22-.53q.219-.22.53-.22h21.75q.311 0 .53.22.22.219.22.53t-.22.53-.53.22"/><path d="M3.25 10.5h4a.25.25 0 0 1 .25.25v10a.25.25 0 0 1-.25.25h-4a.25.25 0 0 1-.25-.25v-10a.25.25 0 0 1 .25-.25m6-6h4a.25.25 0 0 1 .25.25v16a.25.25 0 0 1-.25.25h-4a.25.25 0 0 1-.25-.25v-16a.25.25 0 0 1 .25-.25m6 9h4a.25.25 0 0 1 .25.25v7a.25.25 0 0 1-.25.25h-4a.25.25 0 0 1-.25-.25v-7a.25.25 0 0 1 .25-.25"/></svg>