<svg xmlns="http://www.w3.org/2000/svg" viewBox="0 0 24 24"><path d="M1.875 22.875V1.125q0-.311.22-.53.219-.22.53-.22t.53.22q.22.219.22.53v21.75q0 .311-.22.53-.219.22-.53.22t-.53-.22q-.22-.219-.22-.53"/><path d="M13.5 4.75v4a.25.25 0 0 1-.25.25h-10A.25.25 0 0 1 3 8.75v-4a.25.25 0 0 1 .25-.25h10a.25.25 0 0 1 .25.25m6 6v4a.25.25 0 0 1-.25.25h-16a.25.25 0 0 1-.25-.25v-4a.25.25 0 0 1 .25-.25h16a.25.25 0 0 1 .25.25m-9 6v4a.25.25 0 0 1-.25.25h-7a.25.25 0 0 1-.25-.25v-4a.25.25 0 0 1 .25-.25h7a.25.25 0 0 1 .25.25"/></svg>