<svg xmlns="http://www.w3.org/2000/svg" viewBox="0 0 24 24"><path d="M12.75 2.75V4.5h1.975c.351 0 .694.106.984.303l1.697 1.154q.063.042.14.043h4.102a.75.75 0 0 1 0 1.5H20.07l3.366 7.68a.75.75 0 0 1-.23.896q-.15.111-.31.206a6 6 0 0 1-.79.399 7.35 7.35 0 0 1-2.856.569 7.3 7.3 0 0 1-2.855-.568 6 6 0 0 1-.79-.4 3 3 0 0 1-.307-.202l-.005-.004a.75.75 0 0 1-.23-.896l3.368-7.68h-.886c-.351 0-.694-.106-.984-.303l-1.697-1.154a.25.25 0 0 0-.14-.043H12.75v14.5h4.487a.75.75 0 0 1 0 1.5H6.763a.75.75 0 0 1 0-1.5h4.487V6H9.275a.25.25 0 0 0-.14.043L7.439 7.197c-.29.197-.633.303-.984.303h-.886l3.368 7.68a.75.75 0 0 1-.209.878c-.08.065-.16.126-.31.223a6 6 0 0 1-.792.433 6.9 6.9 0 0 1-2.876.62 6.9 6.9 0 0 1-2.876-.62 6 6 0 0 1-.792-.433 4 4 0 0 1-.309-.221.76.76 0 0 1-.21-.88L3.93 7.5H2.353a.75.75 0 0 1 0-1.5h4.102q.076 0 .141-.043l1.695-1.154c.29-.198.634-.303.985-.303h1.974V2.75a.75.75 0 0 1 1.5 0M2.193 15.198a5.4 5.4 0 0 0 2.557.635 5.4 5.4 0 0 0 2.557-.635L4.75 9.368Zm14.51-.024q.123.06.275.126c.53.223 1.305.45 2.272.45a5.85 5.85 0 0 0 2.547-.576L19.25 9.367Z"/></svg>