<svg xmlns="http://www.w3.org/2000/svg" viewBox="0 0 24 24"><path d="M12 1C5.923 1 1 5.923 1 12c0 4.868 3.149 8.979 7.521 10.436.55.096.756-.233.756-.522 0-.262-.013-1.128-.013-2.049-2.764.509-3.479-.674-3.699-1.292-.124-.317-.66-1.293-1.128-1.554-.385-.206-.935-.715-.013-.729.866-.014 1.485.797 1.691 1.128.99 1.663 2.571 1.196 3.204.907.096-.715.385-1.196.701-1.471-2.447-.275-5.005-1.224-5.005-5.431 0-1.197.426-2.187 1.128-2.957-.11-.275-.495-1.402.11-2.915 0 0 .92-.288 3.024 1.128.88-.248 1.816-.372 2.75-.372.936 0 1.87.124 2.75.372 2.104-1.43 3.025-1.128 3.025-1.128.605 1.513.22 2.64.11 2.915.702.77 1.128 1.747 1.128 2.957 0 4.22-2.571 5.156-5.019 5.43.399.345.743 1.005.743 2.036 0 1.471-.014 2.654-.014 3.025 0 .288.206.632.756.522C19.851 20.98 23 16.854 23 12c0-6.077-4.922-11-11-11"/></svg>