<svg xmlns="http://www.w3.org/2000/svg" viewBox="0 0 24 24"><path d="M10 13.25a.7.7 0 0 1 .149.015q.02.005.039.011.05.012.098.031a.75.75 0 0 1 .363.323q.024.04.043.083a.7.7 0 0 1 .058.287v6a.75.75 0 0 1-1.5 0v-4.189L3.53 21.53a.749.749 0 1 1-1.06-1.06l5.72-5.72H4a.75.75 0 0 1 0-1.5zM20.47 2.47a.749.749 0 1 1 1.06 1.06l-5.719 5.72H20a.75.75 0 0 1 0 1.5h-6a1 1 0 0 1-.133-.013q-.008 0-.016-.003-.02-.005-.039-.011-.051-.012-.099-.031-.043-.02-.083-.043a.73.73 0 0 1-.38-.649V4a.75.75 0 0 1 1.5 0v4.19z"/></svg>