<svg xmlns="http://www.w3.org/2000/svg" viewBox="0 0 24 24"><path d="M12 7a2 2 0 1 0-.001-4.001A2 2 0 0 0 12 7m0 14a2 2 0 1 0-.001-4.001A2 2 0 0 0 12 21M2 18V6a1.75 1.75 0 0 1 1.75-1.75H7.5a.75.75 0 0 1 0 1.5H3.75A.25.25 0 0 0 3.5 6v12l.005.049a.246.246 0 0 0 .245.201H7.5a.75.75 0 0 1 0 1.5H3.75A1.75 1.75 0 0 1 2 18m18.5 0V6a.25.25 0 0 0-.25-.25H16.5a.75.75 0 0 1 0-1.5h3.75A1.75 1.75 0 0 1 22 6v12c0 .464-.184.909-.513 1.237a1.75 1.75 0 0 1-1.237.513H16.5a.75.75 0 0 1 0-1.5h3.75a.25.25 0 0 0 .25-.25"/></svg>