<svg xmlns="http://www.w3.org/2000/svg" viewBox="0 0 24 24"><path d="M6.25 12a.75.75 0 0 0 0 1.5h.5a.75.75 0 0 0 0-1.5zM5.5 9.25a.75.75 0 0 1 .75-.75h.5a.75.75 0 0 1 0 1.5h-.5a.75.75 0 0 1-.75-.75M6.25 5a.75.75 0 0 0 0 1.5h.5a.75.75 0 0 0 0-1.5zM9 12.75a.75.75 0 0 1 .75-.75h.5a.75.75 0 0 1 0 1.5h-.5a.75.75 0 0 1-.75-.75m.75-4.25a.75.75 0 0 0 0 1.5h.5a.75.75 0 0 0 0-1.5zM9 5.75A.75.75 0 0 1 9.75 5h.5a.75.75 0 0 1 0 1.5h-.5A.75.75 0 0 1 9 5.75M13.25 12a.75.75 0 0 0 0 1.5h.5a.75.75 0 0 0 0-1.5zm-.75-2.75a.75.75 0 0 1 .75-.75h.5a.75.75 0 0 1 0 1.5h-.5a.75.75 0 0 1-.75-.75M13.25 5a.75.75 0 0 0 0 1.5h.5a.75.75 0 0 0 0-1.5z"/><path d="M2 20V3a2 2 0 0 1 2-2h12a2 2 0 0 1 2 2v17q0 .26-.063.5H20a.5.5 0 0 0 .5-.5v-8a.5.5 0 0 0-.2-.4l-.5-.375a.75.75 0 0 1 .9-1.2l.5.375c.504.378.8.97.8 1.6v8a2 2 0 0 1-2 2h-3.562a.8.8 0 0 1-.166-.018Q16.138 22 16 22h-3.75a.75.75 0 0 1-.75-.75V19h-3v2.25a.75.75 0 0 1-.75.75H4a2 2 0 0 1-2-2m2 .5h3v-2.25a.75.75 0 0 1 .75-.75h4.5a.75.75 0 0 1 .75.75v2.25h3a.5.5 0 0 0 .5-.5V3a.5.5 0 0 0-.5-.5H4a.5.5 0 0 0-.5.5v17a.5.5 0 0 0 .5.5"/></svg>