<svg xmlns="http://www.w3.org/2000/svg" viewBox="0 0 24 24"><path d="M2.345 20.595 8.47 14.47q.219-.22.53-.22t.53.22q.22.219.22.53t-.22.53l-6.125 6.125q-.219.22-.53.22t-.53-.22q-.22-.219-.22-.53t.22-.53"/><path d="m16.72 11.97.358-.358a6.7 6.7 0 0 1 2.326-1.518l1.896-.738a.25.25 0 0 0 .086-.409l-6.333-6.333a.25.25 0 0 0-.409.086l-.521 1.34a8.66 8.66 0 0 1-2.243 3.265.75.75 0 0 1-1.01-1.11 7.1 7.1 0 0 0 1.854-2.699l.521-1.34a1.75 1.75 0 0 1 2.869-.603l6.333 6.333a1.75 1.75 0 0 1-.603 2.869l-1.896.737a5.3 5.3 0 0 0-1.81 1.18l-.358.358a.749.749 0 1 1-1.06-1.06m-12.549-.738a1.75 1.75 0 0 1 .757-2.92l3.366-.962.412 1.443-3.366.961a.25.25 0 0 0-.108.417l8.597 8.597a.25.25 0 0 0 .417-.108l.961-3.366 1.443.412-.962 3.366a1.75 1.75 0 0 1-2.92.757Z"/><path d="m3.405 2.095 18.75 18.75q.22.219.22.53t-.22.53-.53.22-.53-.22L2.345 3.155q-.22-.219-.22-.53t.22-.53q.219-.22.53-.22t.53.22"/></svg>