<svg xmlns="http://www.w3.org/2000/svg" viewBox="0 0 24 24"><path d="M20.322.75h1.176a1.75 1.75 0 0 1 1.75 1.749v1.177a10.75 10.75 0 0 1-2.925 7.374l-1.228 1.304a24 24 0 0 1-1.596 1.542v5.038c0 .615-.323 1.184-.85 1.5l-4.514 2.709a.75.75 0 0 1-1.12-.488l-.963-4.572a1.3 1.3 0 0 1-.14-.129L8.04 15.96l-1.994-1.873a1.3 1.3 0 0 1-.129-.14l-4.571-.963a.75.75 0 0 1-.49-1.12l2.71-4.514c.316-.527.885-.85 1.5-.85h5.037a24 24 0 0 1 1.542-1.594l1.304-1.23A10.75 10.75 0 0 1 20.321.75Zm-6.344 4.018v-.001l-1.304 1.23a22.3 22.3 0 0 0-3.255 3.851l-2.193 3.29 1.859 1.744.034.034 1.743 1.858 3.288-2.192a22.3 22.3 0 0 0 3.854-3.257l1.228-1.303a9.25 9.25 0 0 0 2.517-6.346V2.5a.25.25 0 0 0-.25-.25h-1.177a9.25 9.25 0 0 0-6.344 2.518M6.5 21c-1.209 1.209-3.901 1.445-4.743 1.49a.24.24 0 0 1-.18-.067.24.24 0 0 1-.067-.18c.045-.842.281-3.534 1.49-4.743.9-.9 2.6-.9 3.5 0s.9 2.6 0 3.5m-.592-8.588L8.17 9.017q.346-.519.717-1.017H5.066a.25.25 0 0 0-.214.121l-2.167 3.612ZM16 15.112q-.5.372-1.018.718l-3.393 2.262.678 3.223 3.612-2.167a.25.25 0 0 0 .121-.214ZM17.5 8a1.5 1.5 0 1 1-3.001-.001A1.5 1.5 0 0 1 17.5 8"/></svg>