<svg xmlns="http://www.w3.org/2000/svg" viewBox="0 0 24 24"><path d="M12 1c6.075 0 11 4.925 11 11s-4.925 11-11 11S1 18.075 1 12 5.925 1 12 1m0 1.5A9.5 9.5 0 0 0 2.5 12a9.5 9.5 0 0 0 9.5 9.5 9.5 9.5 0 0 0 9.5-9.5A9.5 9.5 0 0 0 12 2.5m0 10.25c3.487 0 4.935 2.772 5.227 3.943a.748.748 0 0 1-.727.932h-9a.75.75 0 0 1-.728-.932C7.065 15.522 8.513 12.75 12 12.75m0 1.5c-1.785 0-2.832 1-3.363 1.875h6.726c-.531-.875-1.578-1.875-3.363-1.875M5.798 7.736a.75.75 0 0 1 .966-.438l4 1.5a.75.75 0 0 1 0 1.404l-4 1.5a.75.75 0 0 1-.528-1.404L8.363 9.5l-2.127-.798a.75.75 0 0 1-.438-.966m11.438-.438a.75.75 0 0 1 .528 1.404l-2.127.798 2.127.798a.75.75 0 0 1-.528 1.404l-4-1.5a.75.75 0 0 1 0-1.404z"/></svg>