<svg xmlns="http://www.w3.org/2000/svg" viewBox="0 0 24 24"><path d="M12 1c6.075 0 11 4.925 11 11s-4.925 11-11 11S1 18.075 1 12 5.925 1 12 1m0 1.5A9.5 9.5 0 0 0 2.5 12a9.5 9.5 0 0 0 9.5 9.5 9.5 9.5 0 0 0 9.5-9.5A9.5 9.5 0 0 0 12 2.5m4.5 11.75a.75.75 0 0 1 .727.932c-.292 1.171-1.74 3.943-5.227 3.943s-4.935-2.772-5.228-3.943a.75.75 0 0 1 .728-.932zm-7.863 1.5c.531.875 1.578 1.875 3.363 1.875s2.832-1 3.363-1.875zM8 8.25c1.294 0 2.122.663 2.6 1.3a4 4 0 0 1 .588 1.135l.028.088.008.029.002.01.001.003v.002c.001.001-.001.001-.629.159l.629-.158a.749.749 0 0 1-1.454.369l-.001-.005a2 2 0 0 0-.074-.206 2.5 2.5 0 0 0-.298-.526c-.272-.363-.695-.7-1.4-.7s-1.128.337-1.4.7a2.5 2.5 0 0 0-.372.732h-.001a.75.75 0 0 1-1.455-.364l.63.158-.63-.159v-.001l.001-.001.001-.003.002-.01.008-.029.028-.088A4 4 0 0 1 5.4 9.55c.478-.637 1.306-1.3 2.6-1.3m8 0c1.294 0 2.122.663 2.6 1.3a4 4 0 0 1 .589 1.135l.027.088.008.029.002.01.001.003v.002c.001.001-.001.001-.629.159l.629-.158a.749.749 0 0 1-1.454.369v-.005l-.012-.038a2.5 2.5 0 0 0-.361-.694c-.272-.363-.695-.7-1.4-.7s-1.128.337-1.4.7a2.5 2.5 0 0 0-.373.732.75.75 0 0 1-1.454-.364l.629.158c-.627-.157-.63-.158-.629-.159v-.002l.001-.003.002-.01.008-.029.028-.088A4 4 0 0 1 13.4 9.55c.478-.637 1.306-1.3 2.6-1.3m-9.772 2.933zh-.001v-.002z"/></svg>