<svg xmlns="http://www.w3.org/2000/svg" viewBox="0 0 24 24"><path d="M12 1c6.075 0 11 4.925 11 11s-4.925 11-11 11S1 18.075 1 12 5.925 1 12 1m0 1.5A9.5 9.5 0 0 0 2.5 12a9.5 9.5 0 0 0 9.5 9.5 9.5 9.5 0 0 0 9.5-9.5A9.5 9.5 0 0 0 12 2.5m0 11.844c1.207 0 2.123.404 2.736.813.306.204.537.409.695.567q.119.12.184.198l.052.062.026.035a.75.75 0 0 1-1.196.905l-.021-.026a2 2 0 0 0-.106-.114c-.1-.1-.255-.238-.466-.379A3.4 3.4 0 0 0 12 15.844c-.855 0-1.487.283-1.904.561a3 3 0 0 0-.572.493l-.021.026a.75.75 0 0 1-1.047.144c-.346-.26-.381-.752-.123-1.084.039-.049.118-.142.236-.26.158-.158.389-.363.695-.567A4.88 4.88 0 0 1 12 14.344M7.75 9.5a1.25 1.25 0 1 1 0 2.5 1.25 1.25 0 0 1 0-2.5m8.5 0a1.25 1.25 0 1 1 0 2.5 1.25 1.25 0 0 1 0-2.5"/></svg>