<svg xmlns="http://www.w3.org/2000/svg" viewBox="0 0 24 24"><path d="M17.831 13.621a.337.337 0 0 1 .633 0l.322.88a5.05 5.05 0 0 0 3.008 3.008l.88.322a.337.337 0 0 1 0 .633l-.88.322a5.05 5.05 0 0 0-3.008 3.008l-.322.88a.337.337 0 0 1-.633 0l-.322-.88a5.05 5.05 0 0 0-3.008-3.008l-.88-.322a.337.337 0 0 1 0-.633l.88-.322a5.05 5.05 0 0 0 3.008-3.008z"/><path d="M2 19.25V4.75C2 3.784 2.784 3 3.75 3h4.971a1.75 1.75 0 0 1 1.447.765l1.404 2.063c.047.069.125.11.207.11h8.471c.966 0 1.75.783 1.75 1.75v5.781a.75.75 0 0 1-1.5 0V7.688a.25.25 0 0 0-.25-.25h-8.471a1.75 1.75 0 0 1-1.447-.765L8.928 4.609a.25.25 0 0 0-.207-.109H3.75a.25.25 0 0 0-.25.25v14.5c0 .138.112.25.25.25H12a.75.75 0 0 1 0 1.5H3.75A1.75 1.75 0 0 1 2 19.25"/></svg>