<svg xmlns="http://www.w3.org/2000/svg" viewBox="0 0 32 32"><path d="M23.797 1.075c2.416-2.43 7.192-.453 7.065 3.068a1147 1147 0 0 1 .128 23.075c.183 3.877-5.041 6.299-7.91 3.702A1324 1324 0 0 1 .645 11.993a1.85 1.85 0 0 1-.637-1.219c-.045-.473.1-.944.402-1.31a1.81 1.81 0 0 1 1.214-.648c.477-.05.953.089 1.331.377a1336 1336 0 0 1 23.15 18.058c.016.023.073-.036.038-.033a1142 1142 0 0 1 .119-22.453c-2.705 2.315-5.436 4.551-8.115 6.822-.986.834-1.959 1.664-2.942 2.508a1.88 1.88 0 0 1-1.307.452 1.82 1.82 0 0 1-1.25-.575 1.8 1.8 0 0 1-.478-1.282c.016-.475.219-.924.559-1.256.934-.912 1.864-1.809 2.811-2.708 2.736-2.604 5.532-5.115 8.257-7.651M4.105 19.469a1.685 1.685 0 0 1 2.445.119c.643.736.59 1.874-.117 2.543l-2.537 2.4a1.685 1.685 0 0 1-2.445-.119 1.85 1.85 0 0 1 .114-2.543z"/></svg>