<svg xmlns="http://www.w3.org/2000/svg" viewBox="0 0 48 48"><path d="M34.474 4.411c3.195-3.189 9.511-.595 9.344 4.027q.183 11.735.182 23.472.001 3.407-.013 6.814c.242 5.088-6.667 8.267-10.462 4.859A1753 1753 0 0 1 3.853 18.74a2.4 2.4 0 0 1-.842-1.599 2.34 2.34 0 0 1 .531-1.72 2.4 2.4 0 0 1 1.606-.85c.63-.066 1.26.117 1.76.495a1750 1750 0 0 1 30.618 23.701c.021.03.097-.047.05-.043q-.013-3.407-.013-6.814 0-11.328.17-22.656c-3.577 3.039-7.189 5.974-10.733 8.954a772 772 0 0 0-3.891 3.291 2.5 2.5 0 0 1-1.728.594 2.4 2.4 0 0 1-1.653-.755 2.33 2.33 0 0 1-.632-1.682 2.41 2.41 0 0 1 .738-1.649 402 402 0 0 1 3.718-3.554c3.62-3.418 7.318-6.714 10.922-10.042M8.14 28.625a2.245 2.245 0 0 1 3.26.16c.858.98.787 2.498-.156 3.39l-3.383 3.2a2.246 2.246 0 0 1-3.26-.159c-.857-.981-.789-2.499.153-3.391z"/></svg>