<svg xmlns="http://www.w3.org/2000/svg" viewBox="0 0 24 24"><path d="M17 11.25c1.114 0 2.173.277 2.969.914.818.655 1.281 1.629 1.281 2.836s-.463 2.181-1.281 2.836c-.796.637-1.855.914-2.969.914h-.5v.982a.5.5 0 0 1-.75.433l-3-1.732a.5.5 0 0 1 0-.866l3-1.732a.5.5 0 0 1 .75.433v.982h.5c.886 0 1.577-.223 2.031-.586.432-.345.719-.871.719-1.664s-.287-1.319-.719-1.664c-.454-.363-1.145-.586-2.031-.586H3.82a.75.75 0 0 1 0-1.5zm-7.75 6c.199 0 .39.079.53.22a.747.747 0 0 1 0 1.06.75.75 0 0 1-.53.22h-5.5a.75.75 0 0 1-.53-.22.747.747 0 0 1 0-1.06.75.75 0 0 1 .53-.22zm11-12c.199 0 .39.079.53.22a.747.747 0 0 1 0 1.06.75.75 0 0 1-.53.22H3.75a.75.75 0 0 1-.53-.22.747.747 0 0 1 0-1.06.75.75 0 0 1 .53-.22z"/></svg>